%TF.GenerationSoftware,KiCad,Pcbnew,9.0.7*%
%TF.CreationDate,2026-03-30T19:28:27+01:00*%
%TF.ProjectId,jvm_environment_sensor_aht20,6a766d5f-656e-4766-9972-6f6e6d656e74,0.7*%
%TF.SameCoordinates,PX527e2a0PY487ab00*%
%TF.FileFunction,Profile,NP*%
%FSLAX45Y45*%
G04 Gerber Fmt 4.5, Leading zero omitted, Abs format (unit mm)*
G04 Created by KiCad (PCBNEW 9.0.7) date 2026-03-30 19:28:27*
%MOMM*%
%LPD*%
G01*
G04 APERTURE LIST*
%TA.AperFunction,Profile*%
%ADD10C,0.050000*%
%TD*%
%TA.AperFunction,Profile*%
%ADD11C,0.100000*%
%TD*%
G04 APERTURE END LIST*
D10*
X-1000000Y850000D02*
X1000000Y850000D01*
X1000000Y-850000D01*
X-1000000Y-850000D01*
X-1000000Y850000D01*
D11*
%TO.C,U3*%
X275000Y80000D02*
X275000Y125000D01*
X275000Y-225000D02*
X275000Y-180000D01*
X305000Y-150000D02*
X400000Y-150000D01*
X400000Y50000D02*
X305000Y50000D01*
X425000Y275000D02*
X775000Y275000D01*
X430000Y90000D02*
X430000Y80000D01*
X430000Y-180000D02*
X430000Y-190000D01*
X460000Y-220000D02*
X740000Y-220000D01*
X740000Y120000D02*
X460000Y120000D01*
X770000Y-190000D02*
X770000Y90000D01*
X775000Y-375000D02*
X425000Y-375000D01*
X925000Y125000D02*
X925000Y-225000D01*
X275000Y125000D02*
G75*
G02*
X425000Y275000I150000J0D01*
G01*
X275000Y-180000D02*
G75*
G02*
X305000Y-150000I30000J0D01*
G01*
X305000Y50000D02*
G75*
G02*
X275000Y80000I0J30000D01*
G01*
X400000Y-150000D02*
G75*
G02*
X430000Y-180000I0J-30000D01*
G01*
X425000Y-375000D02*
G75*
G02*
X275000Y-225000I0J150000D01*
G01*
X430000Y90000D02*
G75*
G02*
X460000Y120000I30000J0D01*
G01*
X430000Y80000D02*
G75*
G02*
X400000Y50000I-30000J0D01*
G01*
X460000Y-220000D02*
G75*
G02*
X430000Y-190000I0J30000D01*
G01*
X740000Y120000D02*
G75*
G02*
X770000Y90000I0J-30000D01*
G01*
X770000Y-190000D02*
G75*
G02*
X740000Y-220000I-30000J0D01*
G01*
X775000Y275000D02*
G75*
G02*
X925000Y125000I0J-150000D01*
G01*
X925000Y-225000D02*
G75*
G02*
X775000Y-375000I-150000J0D01*
G01*
%TD*%
M02*
