%TF.GenerationSoftware,KiCad,Pcbnew,9.0.7*%
%TF.CreationDate,2026-03-30T19:28:27+01:00*%
%TF.ProjectId,jvm_environment_sensor_aht20,6a766d5f-656e-4766-9972-6f6e6d656e74,0.7*%
%TF.SameCoordinates,PX527e2a0PY487ab00*%
%TF.FileFunction,Copper,L1,Top*%
%TF.FilePolarity,Positive*%
%FSLAX45Y45*%
G04 Gerber Fmt 4.5, Leading zero omitted, Abs format (unit mm)*
G04 Created by KiCad (PCBNEW 9.0.7) date 2026-03-30 19:28:27*
%MOMM*%
%LPD*%
G01*
G04 APERTURE LIST*
G04 Aperture macros list*
%AMRoundRect*
0 Rectangle with rounded corners*
0 $1 Rounding radius*
0 $2 $3 $4 $5 $6 $7 $8 $9 X,Y pos of 4 corners*
0 Add a 4 corners polygon primitive as box body*
4,1,4,$2,$3,$4,$5,$6,$7,$8,$9,$2,$3,0*
0 Add four circle primitives for the rounded corners*
1,1,$1+$1,$2,$3*
1,1,$1+$1,$4,$5*
1,1,$1+$1,$6,$7*
1,1,$1+$1,$8,$9*
0 Add four rect primitives between the rounded corners*
20,1,$1+$1,$2,$3,$4,$5,0*
20,1,$1+$1,$4,$5,$6,$7,0*
20,1,$1+$1,$6,$7,$8,$9,0*
20,1,$1+$1,$8,$9,$2,$3,0*%
G04 Aperture macros list end*
%TA.AperFunction,SMDPad,CuDef*%
%ADD10C,0.125000*%
%TD*%
%TA.AperFunction,SMDPad,CuDef*%
%ADD11RoundRect,0.225000X-0.225000X-0.250000X0.225000X-0.250000X0.225000X0.250000X-0.225000X0.250000X0*%
%TD*%
%TA.AperFunction,SMDPad,CuDef*%
%ADD12RoundRect,0.237500X0.237500X-0.250000X0.237500X0.250000X-0.237500X0.250000X-0.237500X-0.250000X0*%
%TD*%
%TA.AperFunction,SMDPad,CuDef*%
%ADD13RoundRect,0.150000X0.512500X0.150000X-0.512500X0.150000X-0.512500X-0.150000X0.512500X-0.150000X0*%
%TD*%
%TA.AperFunction,SMDPad,CuDef*%
%ADD14RoundRect,0.225000X-0.250000X0.225000X-0.250000X-0.225000X0.250000X-0.225000X0.250000X0.225000X0*%
%TD*%
%TA.AperFunction,SMDPad,CuDef*%
%ADD15RoundRect,0.237500X0.250000X0.237500X-0.250000X0.237500X-0.250000X-0.237500X0.250000X-0.237500X0*%
%TD*%
%TA.AperFunction,SMDPad,CuDef*%
%ADD16RoundRect,0.075000X-0.175000X0.325000X-0.175000X-0.325000X0.175000X-0.325000X0.175000X0.325000X0*%
%TD*%
%TA.AperFunction,SMDPad,CuDef*%
%ADD17RoundRect,0.250000X-0.250000X0.250000X-0.250000X-0.250000X0.250000X-0.250000X0.250000X0.250000X0*%
%TD*%
%TA.AperFunction,SMDPad,CuDef*%
%ADD18RoundRect,0.250000X-0.275000X-0.750000X0.275000X-0.750000X0.275000X0.750000X-0.275000X0.750000X0*%
%TD*%
%TA.AperFunction,SMDPad,CuDef*%
%ADD19RoundRect,0.237500X0.287500X0.237500X-0.287500X0.237500X-0.287500X-0.237500X0.287500X-0.237500X0*%
%TD*%
%TA.AperFunction,ComponentPad*%
%ADD20RoundRect,0.172720X-0.259080X-0.259080X0.259080X-0.259080X0.259080X0.259080X-0.259080X0.259080X0*%
%TD*%
%TA.AperFunction,ComponentPad*%
%ADD21C,0.863600*%
%TD*%
%TA.AperFunction,SMDPad,CuDef*%
%ADD22RoundRect,0.100000X0.100000X-0.637500X0.100000X0.637500X-0.100000X0.637500X-0.100000X-0.637500X0*%
%TD*%
%TA.AperFunction,ViaPad*%
%ADD23C,0.600000*%
%TD*%
%TA.AperFunction,Conductor*%
%ADD24C,0.200000*%
%TD*%
G04 APERTURE END LIST*
D10*
%TO.P,GS6,1,RESET*%
%TO.N,Net-(D1-K)*%
X-750000Y800000D03*
%TD*%
%TO.P,GS3,1,JD_DATA*%
%TO.N,Net-(GS3-JD_DATA)*%
X-950000Y350000D03*
%TD*%
D11*
%TO.P,C2,1*%
%TO.N,JD_PWR*%
X-827500Y-300000D03*
%TO.P,C2,2*%
%TO.N,GND*%
X-672500Y-300000D03*
%TD*%
D12*
%TO.P,R3,1*%
%TO.N,/SWDIO*%
X-425000Y508750D03*
%TO.P,R3,2*%
%TO.N,Net-(GS5-SWDIO~^)*%
X-425000Y691250D03*
%TD*%
D13*
%TO.P,U2,1,GND*%
%TO.N,GND*%
X-636250Y-145000D03*
%TO.P,U2,2,VO*%
%TO.N,+3V3*%
X-636250Y45000D03*
%TO.P,U2,3,VI*%
%TO.N,JD_PWR*%
X-863750Y-50000D03*
%TD*%
D11*
%TO.P,C4,1*%
%TO.N,+3V3*%
X322500Y400000D03*
%TO.P,C4,2*%
%TO.N,GND*%
X477500Y400000D03*
%TD*%
D10*
%TO.P,GS2,1,GND*%
%TO.N,GND*%
X-950000Y-300000D03*
%TD*%
%TO.P,GS1,1,JD_PWR*%
%TO.N,JD_PWR*%
X-950000Y-50000D03*
%TD*%
%TO.P,GS4,1,SWCLK*%
%TO.N,Net-(GS4-SWCLK)*%
X-575000Y800000D03*
%TD*%
D14*
%TO.P,C1,1*%
%TO.N,+3V3*%
X-475000Y-535000D03*
%TO.P,C1,2*%
%TO.N,GND*%
X-475000Y-690000D03*
%TD*%
D15*
%TO.P,R5,1*%
%TO.N,+3V3*%
X491250Y550000D03*
%TO.P,R5,2*%
%TO.N,/SCL*%
X308750Y550000D03*
%TD*%
%TO.P,R6,1*%
%TO.N,+3V3*%
X491250Y-500000D03*
%TO.P,R6,2*%
%TO.N,/SDA*%
X308750Y-500000D03*
%TD*%
D16*
%TO.P,U3,1,NC*%
%TO.N,unconnected-(U3-NC-Pad1)*%
X700000Y50000D03*
%TO.P,U3,2,VDD*%
%TO.N,+3V3*%
X600000Y50000D03*
%TO.P,U3,3,SCL*%
%TO.N,/SCL*%
X500000Y50000D03*
%TO.P,U3,4,SDA*%
%TO.N,/SDA*%
X500000Y-150000D03*
%TO.P,U3,5,GND*%
%TO.N,GND*%
X600000Y-150000D03*
%TO.P,U3,6,NC*%
%TO.N,unconnected-(U3-NC-Pad6)*%
X700000Y-150000D03*
%TD*%
D17*
%TO.P,D1,1,K*%
%TO.N,Net-(D1-K)*%
X-750000Y725000D03*
%TO.P,D1,2,A*%
%TO.N,/nRESET*%
X-750000Y475000D03*
%TD*%
D11*
%TO.P,C3,1*%
%TO.N,+3V3*%
X-827500Y200000D03*
%TO.P,C3,2*%
%TO.N,GND*%
X-672500Y200000D03*
%TD*%
D18*
%TO.P,SW1,1,1*%
%TO.N,GND*%
X-322500Y-612500D03*
%TO.P,SW1,2,2*%
%TO.N,/nFLASH*%
X122500Y-612500D03*
%TD*%
D12*
%TO.P,R2,1*%
%TO.N,/SWCLK*%
X-575000Y508750D03*
%TO.P,R2,2*%
%TO.N,Net-(GS4-SWCLK)*%
X-575000Y691250D03*
%TD*%
D10*
%TO.P,GS5,1,SWDIO~^*%
%TO.N,Net-(GS5-SWDIO~^)*%
X-425000Y800000D03*
%TD*%
D19*
%TO.P,D2,1*%
%TO.N,GND*%
X-662500Y-600000D03*
%TO.P,D2,2*%
%TO.N,Net-(D2-Pad2)*%
X-837500Y-600000D03*
%TD*%
D15*
%TO.P,R1,1*%
%TO.N,/JD_DATA_MCU*%
X-658750Y350000D03*
%TO.P,R1,2*%
%TO.N,Net-(GS3-JD_DATA)*%
X-841250Y350000D03*
%TD*%
%TO.P,R4,1*%
%TO.N,/JD_STATUS*%
X-658750Y-450000D03*
%TO.P,R4,2*%
%TO.N,Net-(D2-Pad2)*%
X-841250Y-450000D03*
%TD*%
D20*
%TO.P,J1,1,VCC*%
%TO.N,+3V3*%
X52000Y647390D03*
D21*
%TO.P,J1,2,SWDIO*%
%TO.N,/SWDIO*%
X52000Y489910D03*
%TO.P,J1,3,GND*%
%TO.N,GND*%
X-75000Y647390D03*
%TO.P,J1,4,SWCLK*%
%TO.N,/SWCLK*%
X-75000Y489910D03*
%TO.P,J1,5,~{RESET}*%
%TO.N,/nRESET*%
X-202000Y647390D03*
%TD*%
D22*
%TO.P,U1,1,PB7/PB8*%
%TO.N,/JD_STATUS*%
X-480000Y-336250D03*
%TO.P,U1,2,PB9/PC14*%
%TO.N,/nFLASH*%
X-415000Y-336250D03*
%TO.P,U1,3,PC15*%
%TO.N,unconnected-(U1-PC15-Pad3)*%
X-350000Y-336250D03*
%TO.P,U1,4,VDD*%
%TO.N,+3V3*%
X-285000Y-336250D03*
%TO.P,U1,5,VSS*%
%TO.N,GND*%
X-220000Y-336250D03*
%TO.P,U1,6,NRST*%
%TO.N,/nRESET*%
X-155000Y-336250D03*
%TO.P,U1,7,PA0*%
%TO.N,unconnected-(U1-PA0-Pad7)*%
X-90000Y-336250D03*
%TO.P,U1,8,PA1*%
%TO.N,unconnected-(U1-PA1-Pad8)*%
X-25000Y-336250D03*
%TO.P,U1,9,PA2*%
%TO.N,unconnected-(U1-PA2-Pad9)*%
X40000Y-336250D03*
%TO.P,U1,10,PA3*%
%TO.N,unconnected-(U1-PA3-Pad10)*%
X105000Y-336250D03*
%TO.P,U1,11,PA4*%
%TO.N,unconnected-(U1-PA4-Pad11)*%
X105000Y236250D03*
%TO.P,U1,12,PA5*%
%TO.N,unconnected-(U1-PA5-Pad12)*%
X40000Y236250D03*
%TO.P,U1,13,PA6*%
%TO.N,unconnected-(U1-PA6-Pad13)*%
X-25000Y236250D03*
%TO.P,U1,14,PA7*%
%TO.N,unconnected-(U1-PA7-Pad14)*%
X-90000Y236250D03*
%TO.P,U1,15,PA8/PB0/PB1/PB2*%
%TO.N,unconnected-(U1-PA8{slash}PB0{slash}PB1{slash}PB2-Pad15)*%
X-155000Y236250D03*
%TO.P,U1,16,PA9/PA11*%
%TO.N,/SCL*%
X-220000Y236250D03*
%TO.P,U1,17,PA10/PA12*%
%TO.N,/SDA*%
X-285000Y236250D03*
%TO.P,U1,18,PA13*%
%TO.N,/SWDIO*%
X-350000Y236250D03*
%TO.P,U1,19,PA14/PA15*%
%TO.N,/SWCLK*%
X-415000Y236250D03*
%TO.P,U1,20,PB3/PB4/PB5/PB6*%
%TO.N,/JD_DATA_MCU*%
X-480000Y236250D03*
%TD*%
D23*
%TO.N,GND*%
X-575000Y-300000D03*
X-575000Y200000D03*
X-662500Y-712500D03*
X-200000Y-625000D03*
X-900000Y-175000D03*
X-275000Y575000D03*
X625000Y-50000D03*
%TO.N,+3V3*%
X505000Y-50000D03*
X-280000Y-464014D03*
X-145000Y-480000D03*
%TO.N,/nRESET*%
X-221900Y-212500D03*
X-750000Y575000D03*
%TD*%
D24*
%TO.N,GND*%
X-220000Y-336250D02*
X-220000Y-475000D01*
X600000Y-150000D02*
X600000Y-75000D01*
X-200000Y-625000D02*
X-310000Y-625000D01*
X570100Y596713D02*
X446143Y720670D01*
X-950000Y-300000D02*
X-900000Y-250000D01*
X-274110Y574110D02*
X-275000Y575000D01*
X-397500Y-612500D02*
X-475000Y-690000D01*
X477500Y400000D02*
X570100Y492600D01*
X446143Y720670D02*
X-1720Y720670D01*
X-214900Y-480100D02*
X-220000Y-475000D01*
X-900000Y-250000D02*
X-900000Y-225000D01*
X-322500Y-612500D02*
X-397500Y-612500D01*
X-1720Y720670D02*
X-75000Y647390D01*
X-148280Y574110D02*
X-274110Y574110D01*
X570100Y492600D02*
X570100Y596713D01*
X-900000Y-225000D02*
X-900000Y-175000D01*
X-575000Y200000D02*
X-672500Y200000D01*
X-636250Y-145000D02*
X-636250Y-263750D01*
X-75000Y647390D02*
X-148280Y574110D01*
X-662500Y-712500D02*
X-662500Y-600000D01*
X-310000Y-625000D02*
X-322500Y-612500D01*
X-636250Y-263750D02*
X-672500Y-300000D01*
X600000Y-75000D02*
X625000Y-50000D01*
X-575000Y-300000D02*
X-672500Y-300000D01*
X-220000Y-510000D02*
X-322500Y-612500D01*
X-220000Y-475000D02*
X-220000Y-510000D01*
%TO.N,+3V3*%
X52000Y647390D02*
X393860Y647390D01*
X393860Y647390D02*
X491250Y550000D01*
X-827500Y200000D02*
X-672500Y45000D01*
X-310257Y-427243D02*
X-310257Y-433758D01*
X205100Y-513984D02*
X171116Y-480000D01*
X-310257Y-427243D02*
X-285000Y-401987D01*
X491250Y-500000D02*
X413650Y-577600D01*
X472500Y550000D02*
X322500Y400000D01*
X-285000Y-205147D02*
X-285000Y-336250D01*
X-535147Y45000D02*
X-285000Y-205147D01*
X-310257Y-433758D02*
X-280000Y-464014D01*
X600000Y45000D02*
X505000Y-50000D01*
X-380100Y-440100D02*
X-323113Y-440100D01*
X-636250Y45000D02*
X-535147Y45000D01*
X413650Y-577600D02*
X242700Y-577600D01*
X-475000Y-535000D02*
X-380100Y-440100D01*
X-323113Y-440100D02*
X-310257Y-427243D01*
X205100Y-540000D02*
X205100Y-513984D01*
X171116Y-480000D02*
X-145000Y-480000D01*
X242700Y-577600D02*
X205100Y-540000D01*
X-285000Y-401987D02*
X-285000Y-336250D01*
X600000Y50000D02*
X600000Y45000D01*
X491250Y550000D02*
X472500Y550000D01*
X-672500Y45000D02*
X-636250Y45000D01*
%TO.N,Net-(D1-K)*%
X-750000Y705000D02*
X-750000Y800000D01*
%TO.N,/SWDIO*%
X-350000Y412500D02*
X-350000Y236250D01*
X-350000Y433750D02*
X-350000Y412500D01*
X-25410Y412500D02*
X-350000Y412500D01*
X52000Y489910D02*
X-25410Y412500D01*
X-425000Y508750D02*
X-350000Y433750D01*
%TO.N,/SWCLK*%
X-75000Y489910D02*
X-280597Y489910D01*
X-280597Y489910D02*
X-378287Y587600D01*
X-415000Y348750D02*
X-415000Y236250D01*
X-496150Y587600D02*
X-575000Y508750D01*
X-575000Y508750D02*
X-415000Y348750D01*
X-378287Y587600D02*
X-496150Y587600D01*
%TO.N,/nRESET*%
X-750000Y575000D02*
X-750000Y495000D01*
X-155000Y-262500D02*
X-205000Y-212500D01*
X-155000Y-336250D02*
X-155000Y-262500D01*
X-205000Y-212500D02*
X-221900Y-212500D01*
%TO.N,/JD_STATUS*%
X-658750Y-450000D02*
X-593750Y-450000D01*
X-593750Y-450000D02*
X-480000Y-336250D01*
%TO.N,Net-(D2-Pad2)*%
X-841250Y-596250D02*
X-837500Y-600000D01*
X-841250Y-450000D02*
X-841250Y-596250D01*
%TO.N,/SCL*%
X214900Y-24900D02*
X215000Y-25000D01*
X214900Y456150D02*
X214900Y-24900D01*
X-32500Y-25000D02*
X215000Y-25000D01*
X200000Y-25000D02*
X200000Y-25000D01*
X215000Y-25000D02*
X425000Y-25000D01*
X-220000Y162500D02*
X-32500Y-25000D01*
X-220000Y236250D02*
X-220000Y162500D01*
X308750Y550000D02*
X214900Y456150D01*
X425000Y-25000D02*
X500000Y50000D01*
%TO.N,/SDA*%
X200000Y-75000D02*
X200000Y-75000D01*
X-285000Y236250D02*
X-285000Y162500D01*
X425000Y-75000D02*
X500000Y-150000D01*
X308750Y-500000D02*
X215000Y-406250D01*
X215000Y-406250D02*
X215000Y-75000D01*
X-285000Y162500D02*
X-47500Y-75000D01*
X215000Y-75000D02*
X425000Y-75000D01*
X-47500Y-75000D02*
X215000Y-75000D01*
%TO.N,JD_PWR*%
X-827500Y-86250D02*
X-863750Y-50000D01*
X-863750Y-50000D02*
X-950000Y-50000D01*
X-827500Y-300000D02*
X-827500Y-86250D01*
%TO.N,Net-(GS3-JD_DATA)*%
X-841250Y350000D02*
X-950000Y350000D01*
%TO.N,/JD_DATA_MCU*%
X-658750Y350000D02*
X-593750Y350000D01*
X-593750Y350000D02*
X-480000Y236250D01*
%TO.N,Net-(GS4-SWCLK)*%
X-575000Y691250D02*
X-575000Y800000D01*
%TO.N,Net-(GS5-SWDIO~^)*%
X-425000Y691250D02*
X-425000Y800000D01*
%TO.N,/nFLASH*%
X-522411Y-765100D02*
X-552600Y-734911D01*
X-452700Y-440100D02*
X-415000Y-402400D01*
X122500Y-612500D02*
X-30100Y-765100D01*
X-415000Y-402400D02*
X-415000Y-336250D01*
X-552600Y-485813D02*
X-506887Y-440100D01*
X-552600Y-734911D02*
X-552600Y-485813D01*
X-506887Y-440100D02*
X-452700Y-440100D01*
X-30100Y-765100D02*
X-522411Y-765100D01*
%TD*%
M02*
