%TF.GenerationSoftware,KiCad,Pcbnew,9.0.7*%
%TF.CreationDate,2026-03-08T19:16:58+00:00*%
%TF.ProjectId,jvm_haptic_output,6a766d5f-6861-4707-9469-635f6f757470,0.6*%
%TF.SameCoordinates,PX55d4a80PY487ab00*%
%TF.FileFunction,AssemblyDrawing,Top*%
%FSLAX45Y45*%
G04 Gerber Fmt 4.5, Leading zero omitted, Abs format (unit mm)*
G04 Created by KiCad (PCBNEW 9.0.7) date 2026-03-08 19:16:58*
%MOMM*%
%LPD*%
G01*
G04 APERTURE LIST*
%ADD10C,0.100000*%
%ADD11C,0.120000*%
G04 APERTURE END LIST*
D10*
%TO.C,GS6*%
X-1150000Y800000D02*
X-1050000Y800000D01*
X-1100000Y850000D02*
X-1100000Y750000D01*
X-1050000Y800000D02*
G75*
G02*
X-1150000Y800000I-50000J0D01*
G01*
X-1150000Y800000D02*
G75*
G02*
X-1050000Y800000I50000J0D01*
G01*
%TO.C,GS3*%
X-1350000Y350000D02*
X-1250000Y350000D01*
X-1300000Y400000D02*
X-1300000Y300000D01*
X-1250000Y350000D02*
G75*
G02*
X-1350000Y350000I-50000J0D01*
G01*
X-1350000Y350000D02*
G75*
G02*
X-1250000Y350000I50000J0D01*
G01*
%TO.C,C2*%
X-1180000Y-260000D02*
X-1020000Y-260000D01*
X-1020000Y-340000D01*
X-1180000Y-340000D01*
X-1180000Y-260000D01*
%TO.C,R3*%
X-816250Y520000D02*
X-733750Y520000D01*
X-733750Y680000D01*
X-816250Y680000D01*
X-816250Y520000D01*
%TO.C,U2*%
X-1020000Y-155000D02*
X-1060000Y-195000D01*
X-1180000Y-195000D01*
X-1180000Y95000D01*
X-1020000Y95000D01*
X-1020000Y-155000D01*
%TO.C,GS2*%
X-1350000Y-300000D02*
X-1250000Y-300000D01*
X-1300000Y-250000D02*
X-1300000Y-350000D01*
X-1250000Y-300000D02*
G75*
G02*
X-1350000Y-300000I-50000J0D01*
G01*
X-1350000Y-300000D02*
G75*
G02*
X-1250000Y-300000I50000J0D01*
G01*
%TO.C,GS1*%
X-1350000Y-50000D02*
X-1250000Y-50000D01*
X-1300000Y0D02*
X-1300000Y-100000D01*
X-1250000Y-50000D02*
G75*
G02*
X-1350000Y-50000I-50000J0D01*
G01*
X-1350000Y-50000D02*
G75*
G02*
X-1250000Y-50000I50000J0D01*
G01*
%TO.C,GS4*%
X-975000Y800000D02*
X-875000Y800000D01*
X-925000Y850000D02*
X-925000Y750000D01*
X-875000Y800000D02*
G75*
G02*
X-975000Y800000I-50000J0D01*
G01*
X-975000Y800000D02*
G75*
G02*
X-875000Y800000I50000J0D01*
G01*
%TO.C,C4*%
X1042500Y-470000D02*
X962500Y-470000D01*
X962500Y-630000D01*
X1042500Y-630000D01*
X1042500Y-470000D01*
%TO.C,C1*%
X-785000Y-532500D02*
X-865000Y-532500D01*
X-865000Y-692500D01*
X-785000Y-692500D01*
X-785000Y-532500D01*
%TO.C,Q1*%
X165000Y-145000D02*
X35000Y-145000D01*
X35000Y112500D01*
X67500Y145000D01*
X165000Y145000D01*
X165000Y-145000D01*
%TO.C,R5*%
X20000Y441250D02*
X180000Y441250D01*
X180000Y358750D01*
X20000Y358750D01*
X20000Y441250D01*
%TO.C,D1*%
X-1170000Y690000D02*
X-1030000Y690000D01*
X-1170000Y510000D02*
X-1170000Y690000D01*
X-1135000Y580000D02*
X-1100000Y630000D01*
X-1100000Y630000D02*
X-1100000Y650000D01*
X-1100000Y630000D02*
X-1065000Y580000D01*
X-1100000Y580000D02*
X-1100000Y555000D01*
X-1065000Y630000D02*
X-1135000Y630000D01*
X-1065000Y580000D02*
X-1135000Y580000D01*
X-1030000Y690000D02*
X-1030000Y510000D01*
X-1030000Y510000D02*
X-1170000Y510000D01*
%TO.C,C3*%
X-1180000Y240000D02*
X-1020000Y240000D01*
X-1020000Y160000D01*
X-1180000Y160000D01*
X-1180000Y240000D01*
%TO.C,SW1*%
X-645000Y-462500D02*
X-255000Y-462500D01*
X-645000Y-762500D02*
X-645000Y-462500D01*
X-645000Y-762500D02*
X-255000Y-762500D01*
X-255000Y-462500D02*
X-255000Y-762500D01*
X-360000Y-612500D02*
G75*
G02*
X-540000Y-612500I-90000J0D01*
G01*
X-540000Y-612500D02*
G75*
G02*
X-360000Y-612500I90000J0D01*
G01*
%TO.C,R2*%
X-966250Y520000D02*
X-883750Y520000D01*
X-883750Y680000D01*
X-966250Y680000D01*
X-966250Y520000D01*
%TO.C,D4*%
X10000Y-430000D02*
X190000Y-430000D01*
X10000Y-570000D02*
X10000Y-430000D01*
X80000Y-465000D02*
X130000Y-500000D01*
X80000Y-500000D02*
X55000Y-500000D01*
X80000Y-535000D02*
X80000Y-465000D01*
X130000Y-500000D02*
X80000Y-535000D01*
X130000Y-500000D02*
X150000Y-500000D01*
X130000Y-535000D02*
X130000Y-465000D01*
X190000Y-430000D02*
X190000Y-570000D01*
X190000Y-570000D02*
X10000Y-570000D01*
%TO.C,GS5*%
X-825000Y800000D02*
X-725000Y800000D01*
X-775000Y850000D02*
X-775000Y750000D01*
X-725000Y800000D02*
G75*
G02*
X-825000Y800000I-50000J0D01*
G01*
X-825000Y800000D02*
G75*
G02*
X-725000Y800000I50000J0D01*
G01*
%TO.C,D2*%
X-1180000Y-560000D02*
X-1180000Y-640000D01*
X-1180000Y-640000D02*
X-1050000Y-640000D01*
X-1050000Y-640000D02*
X-1020000Y-610000D01*
X-1020000Y-560000D02*
X-1180000Y-560000D01*
X-1020000Y-610000D02*
X-1020000Y-560000D01*
%TO.C,R6*%
X20000Y291250D02*
X180000Y291250D01*
X180000Y208750D01*
X20000Y208750D01*
X20000Y291250D01*
%TO.C,R1*%
X-1020000Y308750D02*
X-1180000Y308750D01*
X-1180000Y391250D01*
X-1020000Y391250D01*
X-1020000Y308750D01*
%TO.C,R4*%
X-1020000Y-491250D02*
X-1180000Y-491250D01*
X-1180000Y-408750D01*
X-1020000Y-408750D01*
X-1020000Y-491250D01*
D11*
%TO.C,J1*%
X-653600Y746450D02*
X-323400Y746450D01*
X-653600Y390850D02*
X-653600Y746450D01*
X-323400Y746450D02*
X-196400Y619450D01*
X-196400Y619450D02*
X-196400Y390850D01*
X-196400Y390850D02*
X-653600Y390850D01*
D10*
%TO.C,U1*%
X-212500Y-270000D02*
X-762500Y-270000D01*
X-862500Y-170000D01*
X-862500Y170000D01*
X-212500Y170000D01*
X-212500Y-270000D01*
%TO.C,R7*%
X20000Y-208750D02*
X180000Y-208750D01*
X180000Y-291250D01*
X20000Y-291250D01*
X20000Y-208750D01*
%TD*%
M02*
