%TF.GenerationSoftware,KiCad,Pcbnew,9.0.7*%
%TF.CreationDate,2026-03-08T19:16:58+00:00*%
%TF.ProjectId,jvm_haptic_output,6a766d5f-6861-4707-9469-635f6f757470,0.6*%
%TF.SameCoordinates,PX55d4a80PY487ab00*%
%TF.FileFunction,Soldermask,Top*%
%TF.FilePolarity,Negative*%
%FSLAX45Y45*%
G04 Gerber Fmt 4.5, Leading zero omitted, Abs format (unit mm)*
G04 Created by KiCad (PCBNEW 9.0.7) date 2026-03-08 19:16:58*
%MOMM*%
%LPD*%
G01*
G04 APERTURE LIST*
G04 Aperture macros list*
%AMRoundRect*
0 Rectangle with rounded corners*
0 $1 Rounding radius*
0 $2 $3 $4 $5 $6 $7 $8 $9 X,Y pos of 4 corners*
0 Add a 4 corners polygon primitive as box body*
4,1,4,$2,$3,$4,$5,$6,$7,$8,$9,$2,$3,0*
0 Add four circle primitives for the rounded corners*
1,1,$1+$1,$2,$3*
1,1,$1+$1,$4,$5*
1,1,$1+$1,$6,$7*
1,1,$1+$1,$8,$9*
0 Add four rect primitives between the rounded corners*
20,1,$1+$1,$2,$3,$4,$5,0*
20,1,$1+$1,$4,$5,$6,$7,0*
20,1,$1+$1,$6,$7,$8,$9,0*
20,1,$1+$1,$8,$9,$2,$3,0*%
G04 Aperture macros list end*
%ADD10RoundRect,0.225000X-0.225000X-0.250000X0.225000X-0.250000X0.225000X0.250000X-0.225000X0.250000X0*%
%ADD11RoundRect,0.237500X0.237500X-0.250000X0.237500X0.250000X-0.237500X0.250000X-0.237500X-0.250000X0*%
%ADD12RoundRect,0.150000X0.512500X0.150000X-0.512500X0.150000X-0.512500X-0.150000X0.512500X-0.150000X0*%
%ADD13RoundRect,0.225000X-0.250000X0.225000X-0.250000X-0.225000X0.250000X-0.225000X0.250000X0.225000X0*%
%ADD14RoundRect,0.150000X-0.587500X-0.150000X0.587500X-0.150000X0.587500X0.150000X-0.587500X0.150000X0*%
%ADD15RoundRect,0.237500X-0.250000X-0.237500X0.250000X-0.237500X0.250000X0.237500X-0.250000X0.237500X0*%
%ADD16O,1.800000X1.000000*%
%ADD17RoundRect,0.250000X-0.250000X0.250000X-0.250000X-0.250000X0.250000X-0.250000X0.250000X0.250000X0*%
%ADD18RoundRect,0.250000X-0.275000X-0.750000X0.275000X-0.750000X0.275000X0.750000X-0.275000X0.750000X0*%
%ADD19RoundRect,0.250000X0.250000X0.250000X-0.250000X0.250000X-0.250000X-0.250000X0.250000X-0.250000X0*%
%ADD20RoundRect,0.237500X0.287500X0.237500X-0.287500X0.237500X-0.287500X-0.237500X0.287500X-0.237500X0*%
%ADD21RoundRect,0.237500X0.250000X0.237500X-0.250000X0.237500X-0.250000X-0.237500X0.250000X-0.237500X0*%
%ADD22RoundRect,0.172720X-0.259080X-0.259080X0.259080X-0.259080X0.259080X0.259080X-0.259080X0.259080X0*%
%ADD23C,0.863600*%
%ADD24RoundRect,0.100000X0.100000X-0.637500X0.100000X0.637500X-0.100000X0.637500X-0.100000X-0.637500X0*%
G04 APERTURE END LIST*
D10*
%TO.C,C2*%
X-1177500Y-300000D03*
X-1022500Y-300000D03*
%TD*%
D11*
%TO.C,R3*%
X-775000Y508750D03*
X-775000Y691250D03*
%TD*%
D12*
%TO.C,U2*%
X-986250Y-145000D03*
X-986250Y45000D03*
X-1213750Y-50000D03*
%TD*%
D13*
%TO.C,C4*%
X1002500Y-472500D03*
X1002500Y-627500D03*
%TD*%
%TO.C,C1*%
X-825000Y-535000D03*
X-825000Y-690000D03*
%TD*%
D14*
%TO.C,Q1*%
X6250Y95000D03*
X6250Y-95000D03*
X193750Y0D03*
%TD*%
D15*
%TO.C,R5*%
X8750Y400000D03*
X191250Y400000D03*
%TD*%
D16*
%TO.C,M1*%
X800000Y-420000D03*
X800000Y-680000D03*
%TD*%
D17*
%TO.C,D1*%
X-1100000Y725000D03*
X-1100000Y475000D03*
%TD*%
D10*
%TO.C,C3*%
X-1177500Y200000D03*
X-1022500Y200000D03*
%TD*%
D18*
%TO.C,SW1*%
X-672500Y-612500D03*
X-227500Y-612500D03*
%TD*%
D11*
%TO.C,R2*%
X-925000Y508750D03*
X-925000Y691250D03*
%TD*%
D19*
%TO.C,D4*%
X225000Y-500000D03*
X-25000Y-500000D03*
%TD*%
D20*
%TO.C,D2*%
X-1012500Y-600000D03*
X-1187500Y-600000D03*
%TD*%
D15*
%TO.C,R6*%
X8750Y250000D03*
X191250Y250000D03*
%TD*%
D21*
%TO.C,R1*%
X-1008750Y350000D03*
X-1191250Y350000D03*
%TD*%
%TO.C,R4*%
X-1008750Y-450000D03*
X-1191250Y-450000D03*
%TD*%
D22*
%TO.C,J1*%
X-298000Y647390D03*
D23*
X-298000Y489910D03*
X-425000Y647390D03*
X-425000Y489910D03*
X-552000Y647390D03*
%TD*%
D24*
%TO.C,U1*%
X-830000Y-336250D03*
X-765000Y-336250D03*
X-700000Y-336250D03*
X-635000Y-336250D03*
X-570000Y-336250D03*
X-505000Y-336250D03*
X-440000Y-336250D03*
X-375000Y-336250D03*
X-310000Y-336250D03*
X-245000Y-336250D03*
X-245000Y236250D03*
X-310000Y236250D03*
X-375000Y236250D03*
X-440000Y236250D03*
X-505000Y236250D03*
X-570000Y236250D03*
X-635000Y236250D03*
X-700000Y236250D03*
X-765000Y236250D03*
X-830000Y236250D03*
%TD*%
D15*
%TO.C,R7*%
X8750Y-250000D03*
X191250Y-250000D03*
%TD*%
M02*
