%TF.GenerationSoftware,KiCad,Pcbnew,9.0.5*%
%TF.CreationDate,2025-10-22T23:14:38+01:00*%
%TF.ProjectId,vm_i2c_pulse_oximeter,766d5f69-3263-45f7-9075-6c73655f6f78,0.1*%
%TF.SameCoordinates,PX577fe70PY4b1a130*%
%TF.FileFunction,Legend,Top*%
%TF.FilePolarity,Positive*%
%FSLAX45Y45*%
G04 Gerber Fmt 4.5, Leading zero omitted, Abs format (unit mm)*
G04 Created by KiCad (PCBNEW 9.0.5) date 2025-10-22 23:14:38*
%MOMM*%
%LPD*%
G01*
G04 APERTURE LIST*
%ADD10C,0.200000*%
%ADD11C,0.250000*%
%ADD12C,0.120000*%
G04 APERTURE END LIST*
D10*
X50000Y275000D02*
X725000Y275000D01*
X725000Y-625000D01*
X50000Y-625000D01*
X50000Y275000D01*
X-923985Y-516722D02*
X-914461Y-516722D01*
X-914461Y-516722D02*
X-904937Y-521484D01*
X-904937Y-521484D02*
X-900176Y-526246D01*
X-900176Y-526246D02*
X-895414Y-535770D01*
X-895414Y-535770D02*
X-890652Y-554817D01*
X-890652Y-554817D02*
X-890652Y-578627D01*
X-890652Y-578627D02*
X-895414Y-597674D01*
X-895414Y-597674D02*
X-900176Y-607198D01*
X-900176Y-607198D02*
X-904937Y-611960D01*
X-904937Y-611960D02*
X-914461Y-616722D01*
X-914461Y-616722D02*
X-923985Y-616722D01*
X-923985Y-616722D02*
X-933509Y-611960D01*
X-933509Y-611960D02*
X-938271Y-607198D01*
X-938271Y-607198D02*
X-943033Y-597674D01*
X-943033Y-597674D02*
X-947795Y-578627D01*
X-947795Y-578627D02*
X-947795Y-554817D01*
X-947795Y-554817D02*
X-943033Y-535770D01*
X-943033Y-535770D02*
X-938271Y-526246D01*
X-938271Y-526246D02*
X-933509Y-521484D01*
X-933509Y-521484D02*
X-923985Y-516722D01*
X-847795Y-607198D02*
X-843033Y-611960D01*
X-843033Y-611960D02*
X-847795Y-616722D01*
X-847795Y-616722D02*
X-852556Y-611960D01*
X-852556Y-611960D02*
X-847795Y-607198D01*
X-847795Y-607198D02*
X-847795Y-616722D01*
X-747795Y-616722D02*
X-804937Y-616722D01*
X-776366Y-616722D02*
X-776366Y-516722D01*
X-776366Y-516722D02*
X-785890Y-531008D01*
X-785890Y-531008D02*
X-795414Y-540531D01*
X-795414Y-540531D02*
X-804937Y-545293D01*
D11*
%TO.C,U2*%
X256250Y634000D02*
G75*
G02*
X244250Y634000I-6000J0D01*
G01*
X244250Y634000D02*
G75*
G02*
X256250Y634000I6000J0D01*
G01*
D12*
%TO.C,Q2*%
X-429750Y-384000D02*
X-477750Y-384000D01*
X-453750Y-351000D01*
X-429750Y-384000D01*
G36*
X-429750Y-384000D02*
G01*
X-477750Y-384000D01*
X-453750Y-351000D01*
X-429750Y-384000D01*
G37*
%TO.C,Q1*%
X-434750Y291000D02*
X-482750Y291000D01*
X-458750Y324000D01*
X-434750Y291000D01*
G36*
X-434750Y291000D02*
G01*
X-482750Y291000D01*
X-458750Y324000D01*
X-434750Y291000D01*
G37*
%TO.C,U1*%
X218500Y110000D02*
X190500Y110000D01*
X218500Y138000D01*
X218500Y110000D01*
G36*
X218500Y110000D02*
G01*
X190500Y110000D01*
X218500Y138000D01*
X218500Y110000D01*
G37*
%TO.C,D2*%
X-374750Y-134000D02*
X-374750Y-265000D01*
X-252750Y-134000D02*
X-374750Y-134000D01*
X-252750Y-134000D02*
X-252750Y-265000D01*
%TO.C,D1*%
X-379750Y556000D02*
X-379750Y425000D01*
X-257750Y556000D02*
X-379750Y556000D01*
X-257750Y556000D02*
X-257750Y425000D01*
%TD*%
M02*
