%TF.GenerationSoftware,KiCad,Pcbnew,9.0.0*%
%TF.CreationDate,2025-03-31T11:01:06+01:00*%
%TF.ProjectId,vm_rp2040_brain_0.1,766d5f72-7032-4303-9430-5f627261696e,rev?*%
%TF.SameCoordinates,Original*%
%TF.FileFunction,Copper,L2,Bot*%
%TF.FilePolarity,Positive*%
%FSLAX45Y45*%
G04 Gerber Fmt 4.5, Leading zero omitted, Abs format (unit mm)*
G04 Created by KiCad (PCBNEW 9.0.0) date 2025-03-31 11:01:06*
%MOMM*%
%LPD*%
G01*
G04 APERTURE LIST*
G04 Aperture macros list*
%AMRoundRect*
0 Rectangle with rounded corners*
0 $1 Rounding radius*
0 $2 $3 $4 $5 $6 $7 $8 $9 X,Y pos of 4 corners*
0 Add a 4 corners polygon primitive as box body*
4,1,4,$2,$3,$4,$5,$6,$7,$8,$9,$2,$3,0*
0 Add four circle primitives for the rounded corners*
1,1,$1+$1,$2,$3*
1,1,$1+$1,$4,$5*
1,1,$1+$1,$6,$7*
1,1,$1+$1,$8,$9*
0 Add four rect primitives between the rounded corners*
20,1,$1+$1,$2,$3,$4,$5,0*
20,1,$1+$1,$4,$5,$6,$7,0*
20,1,$1+$1,$6,$7,$8,$9,0*
20,1,$1+$1,$8,$9,$2,$3,0*%
G04 Aperture macros list end*
%TA.AperFunction,NonConductor*%
%ADD10C,0.000000*%
%TD*%
%TA.AperFunction,NonConductor*%
%ADD11C,0.250000*%
%TD*%
%TA.AperFunction,NonConductor*%
%ADD12C,0.555000*%
%TD*%
%TA.AperFunction,ComponentPad*%
%ADD13RoundRect,0.172720X0.259080X0.259080X-0.259080X0.259080X-0.259080X-0.259080X0.259080X-0.259080X0*%
%TD*%
%TA.AperFunction,ComponentPad*%
%ADD14C,0.863600*%
%TD*%
%TA.AperFunction,ComponentPad*%
%ADD15C,0.750000*%
%TD*%
%TA.AperFunction,ComponentPad*%
%ADD16O,2.200000X1.200000*%
%TD*%
%TA.AperFunction,ComponentPad*%
%ADD17O,1.800000X1.200000*%
%TD*%
%TA.AperFunction,ViaPad*%
%ADD18C,0.450000*%
%TD*%
%TA.AperFunction,Conductor*%
%ADD19C,0.130000*%
%TD*%
%TA.AperFunction,Conductor*%
%ADD20C,0.249990*%
%TD*%
%TA.AperFunction,Conductor*%
%ADD21C,1.000000*%
%TD*%
%TA.AperFunction,Conductor*%
%ADD22C,0.200000*%
%TD*%
%TA.AperFunction,Conductor*%
%ADD23C,0.500000*%
%TD*%
%TA.AperFunction,Conductor*%
%ADD24C,0.400000*%
%TD*%
%TA.AperFunction,Conductor*%
%ADD25C,0.300000*%
%TD*%
G04 APERTURE END LIST*
D10*
%TA.AperFunction,NonConductor*%
G36*
X-1197115Y127500D02*
G01*
X-1227615Y127500D01*
X-1227615Y127559D01*
X-1221831Y141524D01*
X-1211141Y152215D01*
X-1197176Y158001D01*
X-1197115Y158001D01*
X-1197115Y127500D01*
G37*
%TD.AperFunction*%
%TA.AperFunction,NonConductor*%
G36*
X-454632Y-831499D02*
G01*
X-485132Y-831499D01*
X-485132Y-831441D01*
X-479349Y-817476D01*
X-468658Y-806785D01*
X-454693Y-800999D01*
X-454632Y-800999D01*
X-454632Y-831499D01*
G37*
%TD.AperFunction*%
%TA.AperFunction,NonConductor*%
G36*
X-274000Y-180500D02*
G01*
X-275059Y-180500D01*
X-289024Y-174714D01*
X-299715Y-164026D01*
X-305499Y-150058D01*
X-305499Y-148999D01*
X-274000Y-148999D01*
X-274000Y-180500D01*
G37*
%TD.AperFunction*%
%TA.AperFunction,NonConductor*%
G36*
X1119490Y1148230D02*
G01*
X1117785Y1146526D01*
X1111999Y1132558D01*
X1111999Y1132500D01*
X1187999Y1132500D01*
X1187999Y1132558D01*
X1182215Y1146526D01*
X1180511Y1148230D01*
X1185771Y1160930D01*
X1442626Y1160930D01*
X1444188Y1159365D01*
X1471549Y1118420D01*
X1485928Y1083701D01*
X1485928Y481670D01*
X1473228Y477817D01*
X1470061Y482559D01*
X1449385Y496374D01*
X1425001Y501223D01*
X1354000Y501223D01*
X1329614Y496374D01*
X1308941Y482559D01*
X1295126Y461886D01*
X1290277Y437500D01*
X1290277Y426499D01*
X1295126Y402112D01*
X1308941Y381439D01*
X1329614Y367627D01*
X1354000Y362776D01*
X1425001Y362776D01*
X1449385Y367627D01*
X1470061Y381439D01*
X1473228Y386184D01*
X1485928Y382331D01*
X1485928Y-382331D01*
X1473228Y-386184D01*
X1470061Y-381439D01*
X1449385Y-367627D01*
X1425001Y-362776D01*
X1354000Y-362776D01*
X1329614Y-367627D01*
X1308941Y-381439D01*
X1295126Y-402112D01*
X1290277Y-426499D01*
X1290277Y-437500D01*
X1295126Y-461886D01*
X1308941Y-482559D01*
X1329614Y-496374D01*
X1354000Y-501223D01*
X1425001Y-501223D01*
X1449385Y-496374D01*
X1470061Y-482559D01*
X1473228Y-477817D01*
X1485928Y-481670D01*
X1485928Y-1083701D01*
X1471549Y-1118420D01*
X1444188Y-1159365D01*
X1442626Y-1160930D01*
X1310772Y-1160930D01*
X1305512Y-1148230D01*
X1307216Y-1146526D01*
X1313000Y-1132558D01*
X1313000Y-1117443D01*
X1307216Y-1103475D01*
X1296525Y-1092784D01*
X1282558Y-1087001D01*
X1270165Y-1087001D01*
X798340Y-615175D01*
X790730Y-610090D01*
X781756Y-608305D01*
X781756Y-608307D01*
X639478Y-608307D01*
X630712Y-599542D01*
X616748Y-593755D01*
X601629Y-593755D01*
X587662Y-599542D01*
X576974Y-610232D01*
X572399Y-621274D01*
X559455Y-626290D01*
X550027Y-616862D01*
X542420Y-611779D01*
X533446Y-609994D01*
X533443Y-609994D01*
X527147Y-609994D01*
X517787Y-600634D01*
X503819Y-594848D01*
X488701Y-594848D01*
X474736Y-600634D01*
X464045Y-611322D01*
X458262Y-625290D01*
X458262Y-640408D01*
X464045Y-654373D01*
X474736Y-665063D01*
X488701Y-670847D01*
X503819Y-670847D01*
X517787Y-665063D01*
X524843Y-658007D01*
X583418Y-716582D01*
X591025Y-721665D01*
X599999Y-723450D01*
X600001Y-723450D01*
X740286Y-723450D01*
X1137001Y-1120165D01*
X1137001Y-1132558D01*
X1142784Y-1146526D01*
X1144488Y-1148230D01*
X1139228Y-1160930D01*
X1085771Y-1160930D01*
X1080511Y-1148230D01*
X1082215Y-1146526D01*
X1087999Y-1132558D01*
X1087999Y-1117443D01*
X1082215Y-1103475D01*
X1071524Y-1092784D01*
X1057559Y-1087001D01*
X1042441Y-1087001D01*
X1040798Y-1087681D01*
X989058Y-1035942D01*
X982609Y-1031631D01*
X974999Y-1030117D01*
X958235Y-1030117D01*
X689059Y-760941D01*
X682607Y-756630D01*
X675000Y-755119D01*
X533235Y-755119D01*
X389059Y-610941D01*
X382608Y-606631D01*
X375001Y-605119D01*
X357896Y-605119D01*
X357215Y-603476D01*
X346525Y-592785D01*
X332560Y-586999D01*
X317442Y-586999D01*
X307581Y-591083D01*
X294881Y-584784D01*
X294881Y-499999D01*
X293367Y-492392D01*
X289060Y-485940D01*
X264058Y-460941D01*
X257609Y-456631D01*
X250000Y-455117D01*
X239179Y-455117D01*
X235834Y-446448D01*
X235453Y-442417D01*
X245295Y-432575D01*
X251082Y-418610D01*
X251082Y-418551D01*
X175082Y-418551D01*
X175082Y-418610D01*
X180866Y-432575D01*
X190708Y-442417D01*
X190327Y-446448D01*
X186985Y-455117D01*
X125001Y-455117D01*
X117391Y-456631D01*
X110942Y-460941D01*
X104765Y-467119D01*
X-42106Y-467119D01*
X-42786Y-465475D01*
X-53475Y-454784D01*
X-67442Y-449001D01*
X-82558Y-449001D01*
X-96525Y-454784D01*
X-107216Y-465475D01*
X-113000Y-479440D01*
X-113000Y-494558D01*
X-107216Y-508526D01*
X-96525Y-519214D01*
X-82560Y-525000D01*
X-76992Y-536811D01*
X-77026Y-537700D01*
X-82100Y-541094D01*
X-149578Y-608569D01*
X-307845Y-608569D01*
X-307848Y-608569D01*
X-315455Y-610083D01*
X-321904Y-614390D01*
X-344762Y-637248D01*
X-346405Y-636567D01*
X-361523Y-636567D01*
X-375491Y-642353D01*
X-386179Y-653042D01*
X-391965Y-667009D01*
X-391965Y-682125D01*
X-386179Y-696092D01*
X-375491Y-706783D01*
X-361523Y-712567D01*
X-346405Y-712567D01*
X-332440Y-706783D01*
X-332379Y-706722D01*
X-314637Y-706765D01*
X-312524Y-708878D01*
X-298559Y-714662D01*
X-283441Y-714662D01*
X-269474Y-708878D01*
X-258785Y-698188D01*
X-258105Y-696544D01*
X-244599Y-696544D01*
X-240449Y-699950D01*
X-240449Y-706658D01*
X-234663Y-720626D01*
X-229194Y-726095D01*
X-229194Y-756216D01*
X-237985Y-765010D01*
X-242296Y-771459D01*
X-243810Y-779069D01*
X-243810Y-789887D01*
X-420799Y-966879D01*
X-533972Y-966879D01*
X-541579Y-968393D01*
X-548030Y-972703D01*
X-603951Y-1028624D01*
X-614716Y-1021428D01*
X-613001Y-1017288D01*
X-613001Y-1017227D01*
X-689000Y-1017227D01*
X-689000Y-1017288D01*
X-687083Y-1021916D01*
X-695569Y-1034616D01*
X-933701Y-1034616D01*
X-943447Y-1021916D01*
X-942000Y-1016518D01*
X-942000Y-999698D01*
X-937793Y-996226D01*
X-930407Y-992675D01*
X-917557Y-997999D01*
X-917499Y-997999D01*
X-917499Y-959998D01*
X-917499Y-921997D01*
X-917557Y-921997D01*
X-931525Y-927783D01*
X-942213Y-938474D01*
X-947999Y-952439D01*
X-947999Y-955167D01*
X-960699Y-960427D01*
X-968441Y-952685D01*
X-984060Y-943668D01*
X-1001481Y-939000D01*
X-1019518Y-939000D01*
X-1036940Y-943668D01*
X-1052561Y-952685D01*
X-1065314Y-965441D01*
X-1067651Y-969488D01*
X-1080351Y-969488D01*
X-1082685Y-965441D01*
X-1095441Y-952685D01*
X-1111060Y-943668D01*
X-1124999Y-939932D01*
X-1124999Y-1007501D01*
X-1150000Y-1007501D01*
X-1150000Y-939932D01*
X-1163940Y-943668D01*
X-1179561Y-952685D01*
X-1183300Y-956427D01*
X-1196000Y-951167D01*
X-1196000Y-939000D01*
X-1322852Y-939000D01*
X-1332766Y-927885D01*
X-1327551Y-891642D01*
X-1314077Y-887156D01*
X-1306561Y-894674D01*
X-1290940Y-903691D01*
X-1273518Y-908360D01*
X-1255481Y-908360D01*
X-1238060Y-903691D01*
X-1222441Y-894674D01*
X-1209685Y-881921D01*
X-1207351Y-877875D01*
X-1194651Y-877875D01*
X-1192314Y-881921D01*
X-1179561Y-894674D01*
X-1163940Y-903691D01*
X-1146518Y-908360D01*
X-1128481Y-908360D01*
X-1111060Y-903691D01*
X-1095441Y-894674D01*
X-1082688Y-881921D01*
X-1073668Y-866300D01*
X-1069000Y-848878D01*
X-1069000Y-830842D01*
X-1073668Y-813420D01*
X-1082688Y-797801D01*
X-1095441Y-785048D01*
X-1111060Y-776028D01*
X-1128481Y-771360D01*
X-1146518Y-771360D01*
X-1163940Y-776028D01*
X-1179561Y-785048D01*
X-1187282Y-792770D01*
X-1202190Y-793788D01*
X-1204194Y-792975D01*
X-1207508Y-789295D01*
X-1205514Y-784012D01*
X-1196505Y-775002D01*
X-1190719Y-761035D01*
X-1190719Y-745919D01*
X-1196505Y-731952D01*
X-1207193Y-721263D01*
X-1221161Y-715477D01*
X-1236279Y-715477D01*
X-1250244Y-721263D01*
X-1260935Y-731952D01*
X-1265166Y-742170D01*
X-1287719Y-747862D01*
X-1287783Y-747608D01*
X-1289169Y-747791D01*
X-1299266Y-751975D01*
X-1299281Y-751980D01*
X-1299281Y-751982D01*
X-1299284Y-751982D01*
X-1312156Y-757314D01*
X-1331897Y-772462D01*
X-1347046Y-792203D01*
X-1356568Y-815190D01*
X-1357826Y-824738D01*
X-1358247Y-826861D01*
X-1358161Y-827296D01*
X-1358288Y-828251D01*
X-1358829Y-829788D01*
X-1371117Y-915223D01*
X-1383998Y-915566D01*
X-1384130Y-914893D01*
X-1388440Y-908441D01*
X-1408044Y-888837D01*
X-1411999Y-886196D01*
X-1411999Y-880440D01*
X-1417785Y-866475D01*
X-1427759Y-856501D01*
X-1417785Y-846526D01*
X-1411999Y-832559D01*
X-1411999Y-820588D01*
X-1410251Y-815967D01*
X-1407500Y-813651D01*
X-1407500Y-770854D01*
X-1407500Y-732856D01*
X-1407559Y-732856D01*
X-1411900Y-734652D01*
X-1419093Y-723887D01*
X-1365103Y-669897D01*
X-1356705Y-657327D01*
X-1356655Y-657073D01*
X-1327958Y-657073D01*
X-1303376Y-652183D01*
X-1301308Y-650801D01*
X-1221222Y-650801D01*
X-1212741Y-663501D01*
X-1215281Y-669635D01*
X-1215281Y-684754D01*
X-1209497Y-698718D01*
X-1198806Y-709409D01*
X-1184839Y-715193D01*
X-1169723Y-715193D01*
X-1155756Y-709409D01*
X-1145065Y-698718D01*
X-1139281Y-684754D01*
X-1139281Y-681459D01*
X-886356Y-681459D01*
X-822919Y-744896D01*
X-822919Y-752843D01*
X-821406Y-760451D01*
X-817095Y-766902D01*
X-787999Y-795998D01*
X-787999Y-807557D01*
X-782213Y-821525D01*
X-771525Y-832213D01*
X-757558Y-837999D01*
X-742439Y-837999D01*
X-728475Y-832213D01*
X-717784Y-821525D01*
X-712000Y-807557D01*
X-712000Y-792439D01*
X-717784Y-778474D01*
X-728475Y-767784D01*
X-742439Y-761997D01*
X-757558Y-761997D01*
X-763361Y-764403D01*
X-783156Y-744606D01*
X-783156Y-736658D01*
X-784670Y-729051D01*
X-788980Y-722600D01*
X-849043Y-662536D01*
X-844184Y-650801D01*
X-684743Y-650801D01*
X-660164Y-645912D01*
X-639323Y-631988D01*
X-630819Y-623484D01*
X-616895Y-602643D01*
X-612005Y-578063D01*
X-616895Y-553481D01*
X-630819Y-532643D01*
X-651657Y-518719D01*
X-676239Y-513829D01*
X-700822Y-518719D01*
X-706232Y-522333D01*
X-1321686Y-522333D01*
X-1341057Y-526186D01*
X-1352177Y-519120D01*
X-1353757Y-516954D01*
X-1353757Y-419552D01*
X-1354501Y-415808D01*
X-1354501Y-411993D01*
X-1355961Y-408468D01*
X-1356705Y-404724D01*
X-1358826Y-401551D01*
X-1360284Y-398026D01*
X-1362984Y-395328D01*
X-1365103Y-392156D01*
X-1368278Y-390035D01*
X-1370975Y-387337D01*
X-1374501Y-385877D01*
X-1377673Y-383756D01*
X-1381417Y-383012D01*
X-1384943Y-381551D01*
X-1388758Y-381551D01*
X-1392499Y-380807D01*
X-1396243Y-381551D01*
X-1400058Y-381551D01*
X-1403584Y-383012D01*
X-1407328Y-383756D01*
X-1410500Y-385877D01*
X-1414026Y-387337D01*
X-1416723Y-390035D01*
X-1419896Y-392156D01*
X-1422016Y-395328D01*
X-1424714Y-398026D01*
X-1426174Y-401551D01*
X-1428295Y-404724D01*
X-1429040Y-408468D01*
X-1430500Y-411993D01*
X-1430500Y-415808D01*
X-1431244Y-419552D01*
X-1431244Y-563616D01*
X-1434346Y-568256D01*
X-1439235Y-592839D01*
X-1434346Y-617421D01*
X-1431244Y-622061D01*
X-1431244Y-626453D01*
X-1474196Y-669404D01*
X-1485928Y-664543D01*
X-1485928Y1039757D01*
X-1480000Y1050000D01*
X-1305024Y1050000D01*
X-1300000Y1049000D01*
X-1285768Y1049000D01*
X-1218385Y981616D01*
X-1209949Y975980D01*
X-1200000Y974001D01*
X-1152741Y974001D01*
X-1146526Y967786D01*
X-1132558Y962000D01*
X-1117443Y962000D01*
X-1103475Y967786D01*
X-1092784Y978474D01*
X-1087001Y992442D01*
X-1087001Y1007560D01*
X-1090996Y1017209D01*
X-1088395Y1023135D01*
X-1084661Y1027981D01*
X-1083231Y1029119D01*
X-688122Y1029119D01*
X-685597Y1016419D01*
X-693478Y1013153D01*
X-704167Y1002464D01*
X-709953Y988497D01*
X-709953Y988438D01*
X-671952Y988438D01*
X-671952Y980938D01*
X-664454Y980938D01*
X-664454Y942939D01*
X-664395Y942939D01*
X-659582Y944931D01*
X-646882Y936445D01*
X-646882Y865929D01*
X-645368Y858322D01*
X-641058Y851870D01*
X-634703Y845515D01*
X-638000Y837557D01*
X-638000Y822439D01*
X-632214Y808472D01*
X-621525Y797784D01*
X-607558Y791997D01*
X-592440Y791997D01*
X-578475Y797784D01*
X-567784Y808472D01*
X-562000Y822439D01*
X-562000Y837489D01*
X-557903Y842058D01*
X-551721Y845929D01*
X-539732Y840964D01*
X-524614Y840964D01*
X-510649Y846750D01*
X-499958Y857438D01*
X-487617Y854052D01*
X-476006Y849244D01*
X-460888Y849244D01*
X-446923Y855030D01*
X-436232Y865718D01*
X-430449Y879686D01*
X-430449Y894801D01*
X-436232Y908769D01*
X-446923Y919460D01*
X-460888Y925243D01*
X-476006Y925243D01*
X-477650Y924563D01*
X-555117Y1002033D01*
X-555117Y1050000D01*
X-534645Y1050000D01*
X-532000Y1046041D01*
X-532000Y1030923D01*
X-526214Y1016958D01*
X-515526Y1006267D01*
X-501559Y1000481D01*
X-486440Y1000481D01*
X-472476Y1006267D01*
X-461785Y1016958D01*
X-460581Y1019861D01*
X-249390Y1019861D01*
X-234058Y1004529D01*
X-227609Y1000219D01*
X-220000Y998708D01*
X-204526Y998708D01*
X-201216Y990714D01*
X-190525Y980023D01*
X-176558Y974240D01*
X-176756Y961621D01*
X-270899Y961621D01*
X-272336Y963059D01*
X-278788Y967369D01*
X-286395Y968883D01*
X-354086Y968883D01*
X-361696Y967369D01*
X-368145Y963059D01*
X-389059Y942144D01*
X-393367Y935695D01*
X-394881Y928088D01*
X-394881Y740186D01*
X-415757Y719308D01*
X-417401Y719991D01*
X-432519Y719991D01*
X-446486Y714205D01*
X-457175Y703514D01*
X-462961Y689549D01*
X-462961Y674431D01*
X-457175Y660464D01*
X-446486Y649775D01*
X-432519Y643989D01*
X-417401Y643989D01*
X-403436Y649775D01*
X-392745Y660464D01*
X-386961Y674431D01*
X-386961Y689549D01*
X-387642Y691192D01*
X-360942Y717890D01*
X-356631Y724342D01*
X-355117Y731949D01*
X-355117Y809076D01*
X-342417Y816122D01*
X-333835Y812566D01*
X-333774Y812566D01*
X-333774Y850565D01*
X-333774Y888566D01*
X-333835Y888566D01*
X-342417Y885010D01*
X-355117Y892056D01*
X-355117Y919851D01*
X-345851Y929119D01*
X-294630Y929119D01*
X-293192Y927679D01*
X-286743Y923371D01*
X-279133Y921857D01*
X-219766Y921857D01*
X-214506Y909157D01*
X-229730Y893930D01*
X-242227Y893930D01*
X-256195Y888147D01*
X-266883Y877456D01*
X-272669Y863491D01*
X-272669Y848373D01*
X-266883Y834405D01*
X-256195Y823717D01*
X-242227Y817931D01*
X-227112Y817931D01*
X-213144Y823717D01*
X-202453Y834405D01*
X-193170Y829417D01*
X-192842Y829099D01*
X-192832Y829092D01*
X-178867Y823305D01*
X-163749Y823305D01*
X-149781Y829092D01*
X-139093Y839780D01*
X-138412Y841423D01*
X-122022Y841423D01*
X-117160Y829691D01*
X-144932Y801919D01*
X-156522Y801919D01*
X-164132Y800405D01*
X-170581Y796094D01*
X-190711Y775967D01*
X-195867Y774941D01*
X-202319Y770631D01*
X-229197Y743753D01*
X-237442Y747166D01*
X-252560Y747166D01*
X-266525Y741380D01*
X-277216Y730692D01*
X-282999Y716725D01*
X-282999Y701609D01*
X-277216Y687642D01*
X-266525Y676953D01*
X-262966Y675477D01*
X-262557Y674784D01*
X-260955Y660898D01*
X-267500Y654352D01*
X-273284Y640385D01*
X-273284Y625269D01*
X-267500Y611302D01*
X-256809Y600611D01*
X-242844Y594827D01*
X-227726Y594827D01*
X-213759Y600611D01*
X-203070Y611302D01*
X-197284Y625269D01*
X-197284Y636547D01*
X-7363Y826470D01*
X-3053Y832919D01*
X-1539Y840529D01*
X-1539Y855983D01*
X44595Y902119D01*
X151785Y902119D01*
X156911Y889419D01*
X151999Y877557D01*
X151999Y862439D01*
X157785Y848474D01*
X168473Y837783D01*
X182441Y831997D01*
X197559Y831997D01*
X211524Y837783D01*
X218857Y845116D01*
X245031Y845116D01*
X247785Y838474D01*
X258473Y827783D01*
X272440Y821997D01*
X287558Y821997D01*
X301523Y827783D01*
X312214Y838474D01*
X317998Y852439D01*
X317998Y867557D01*
X312214Y881525D01*
X304320Y889419D01*
X308272Y902119D01*
X722000Y902119D01*
X729610Y903630D01*
X736059Y907941D01*
X870029Y1041911D01*
X874339Y1048362D01*
X874664Y1050000D01*
X980001Y1050000D01*
X980001Y1160930D01*
X1114229Y1160930D01*
X1119490Y1148230D01*
G37*
%TD.AperFunction*%
D11*
X225581Y-411051D02*
G75*
G02*
X200581Y-411051I-12500J0D01*
G01*
X200581Y-411051D02*
G75*
G02*
X225581Y-411051I12500J0D01*
G01*
D10*
%TA.AperFunction,NonConductor*%
G36*
X-83475Y52215D02*
G01*
X-72784Y41524D01*
X-67000Y27559D01*
X-67000Y26500D01*
X-98501Y26500D01*
X-98501Y57998D01*
X-97442Y57998D01*
X-83475Y52215D01*
G37*
%TD.AperFunction*%
D11*
X-1437500Y-1124999D02*
G75*
G02*
X-1462500Y-1124999I-12500J0D01*
G01*
X-1462500Y-1124999D02*
G75*
G02*
X-1437500Y-1124999I12500J0D01*
G01*
D10*
%TA.AperFunction,NonConductor*%
G36*
X-658500Y-1002228D02*
G01*
X-689000Y-1002228D01*
X-689000Y-1002170D01*
X-683217Y-988202D01*
X-672526Y-977514D01*
X-658559Y-971728D01*
X-658500Y-971728D01*
X-658500Y-1002228D01*
G37*
%TD.AperFunction*%
%TA.AperFunction,NonConductor*%
G36*
X-1151616Y112441D02*
G01*
X-1157402Y98476D01*
X-1168090Y87785D01*
X-1182058Y81999D01*
X-1182116Y81999D01*
X-1182116Y112499D01*
X-1151616Y112499D01*
X-1151616Y112441D01*
G37*
%TD.AperFunction*%
%TA.AperFunction,NonConductor*%
G36*
X187998Y432440D02*
G01*
X182215Y418475D01*
X171524Y407784D01*
X157559Y401998D01*
X157500Y401998D01*
X157500Y432499D01*
X187998Y432499D01*
X187998Y432440D01*
G37*
%TD.AperFunction*%
D11*
X-25001Y100000D02*
G75*
G02*
X-50001Y100000I-12500J0D01*
G01*
X-50001Y100000D02*
G75*
G02*
X-25001Y100000I12500J0D01*
G01*
D10*
%TA.AperFunction,NonConductor*%
G36*
X-111501Y-136002D02*
G01*
X-142999Y-136002D01*
X-142999Y-134943D01*
X-137213Y-120975D01*
X-126525Y-110284D01*
X-112558Y-104501D01*
X-111501Y-104501D01*
X-111501Y-136002D01*
G37*
%TD.AperFunction*%
%TA.AperFunction,NonConductor*%
G36*
X-245974Y214714D02*
G01*
X-235285Y204026D01*
X-229499Y190058D01*
X-229499Y188999D01*
X-261000Y188999D01*
X-261000Y220500D01*
X-259941Y220500D01*
X-245974Y214714D01*
G37*
%TD.AperFunction*%
%TA.AperFunction,NonConductor*%
G36*
X-795304Y594040D02*
G01*
X-801091Y580073D01*
X-811779Y569384D01*
X-825746Y563598D01*
X-825805Y563598D01*
X-825805Y594098D01*
X-795304Y594098D01*
X-795304Y594040D01*
G37*
%TD.AperFunction*%
%TA.AperFunction,NonConductor*%
G36*
X-245974Y-110284D02*
G01*
X-235285Y-120975D01*
X-229499Y-134943D01*
X-229499Y-135999D01*
X-261000Y-135999D01*
X-261000Y-104501D01*
X-259941Y-104501D01*
X-245974Y-110284D01*
G37*
%TD.AperFunction*%
D11*
X43501Y-1058499D02*
G75*
G02*
X18501Y-1058499I-12500J0D01*
G01*
X18501Y-1058499D02*
G75*
G02*
X43501Y-1058499I12500J0D01*
G01*
D10*
%TA.AperFunction,NonConductor*%
G36*
X-83475Y-110284D02*
G01*
X-72784Y-120975D01*
X-67000Y-134943D01*
X-67000Y-136002D01*
X-98501Y-136002D01*
X-98501Y-104501D01*
X-97442Y-104501D01*
X-83475Y-110284D01*
G37*
%TD.AperFunction*%
%TA.AperFunction,NonConductor*%
G36*
X-436499Y-180500D02*
G01*
X-437558Y-180500D01*
X-451526Y-174714D01*
X-462214Y-164026D01*
X-468000Y-150058D01*
X-468000Y-149001D01*
X-436499Y-149001D01*
X-436499Y-180500D01*
G37*
%TD.AperFunction*%
%TA.AperFunction,NonConductor*%
G36*
X-1386952Y-191000D02*
G01*
X-1387010Y-191000D01*
X-1400978Y-185214D01*
X-1411669Y-174526D01*
X-1417452Y-160558D01*
X-1417452Y-160500D01*
X-1386952Y-160500D01*
X-1386952Y-191000D01*
G37*
%TD.AperFunction*%
D11*
X783032Y407784D02*
G75*
G02*
X758032Y407784I-12500J0D01*
G01*
X758032Y407784D02*
G75*
G02*
X783032Y407784I12500J0D01*
G01*
D10*
%TA.AperFunction,NonConductor*%
G36*
X-1378476Y-738640D02*
G01*
X-1367787Y-749330D01*
X-1362001Y-763295D01*
X-1362001Y-763356D01*
X-1392502Y-763356D01*
X-1392502Y-732856D01*
X-1392443Y-732856D01*
X-1378476Y-738640D01*
G37*
%TD.AperFunction*%
%TA.AperFunction,NonConductor*%
G36*
X-436499Y144501D02*
G01*
X-437558Y144501D01*
X-451526Y150284D01*
X-462214Y160975D01*
X-468000Y174940D01*
X-468000Y175999D01*
X-436499Y175999D01*
X-436499Y144501D01*
G37*
%TD.AperFunction*%
%TA.AperFunction,NonConductor*%
G36*
X-111501Y188999D02*
G01*
X-142999Y188999D01*
X-142999Y190058D01*
X-137213Y204026D01*
X-126525Y214714D01*
X-112558Y220500D01*
X-111501Y220500D01*
X-111501Y188999D01*
G37*
%TD.AperFunction*%
D12*
X-1109751Y-1007501D02*
G75*
G02*
X-1165251Y-1007501I-27750J0D01*
G01*
X-1165251Y-1007501D02*
G75*
G02*
X-1109751Y-1007501I27750J0D01*
G01*
D10*
%TA.AperFunction,NonConductor*%
G36*
X140889Y-906302D02*
G01*
X135103Y-920267D01*
X124412Y-930958D01*
X110447Y-936744D01*
X110388Y-936744D01*
X110388Y-906244D01*
X140889Y-906244D01*
X140889Y-906302D01*
G37*
%TD.AperFunction*%
%TA.AperFunction,NonConductor*%
G36*
X142499Y447500D02*
G01*
X111999Y447500D01*
X111999Y447558D01*
X117785Y461523D01*
X128473Y472214D01*
X142441Y478000D01*
X142499Y478000D01*
X142499Y447500D01*
G37*
%TD.AperFunction*%
%TA.AperFunction,NonConductor*%
G36*
X763031Y415285D02*
G01*
X732531Y415285D01*
X732531Y415343D01*
X738317Y429308D01*
X749005Y439999D01*
X762973Y445785D01*
X763031Y445785D01*
X763031Y415285D01*
G37*
%TD.AperFunction*%
%TA.AperFunction,NonConductor*%
G36*
X-1020067Y-770001D02*
G01*
X-1050564Y-770001D01*
X-1050564Y-769943D01*
X-1044781Y-755975D01*
X-1034090Y-745284D01*
X-1020125Y-739501D01*
X-1020067Y-739501D01*
X-1020067Y-770001D01*
G37*
%TD.AperFunction*%
%TA.AperFunction,NonConductor*%
G36*
X-898921Y94160D02*
G01*
X-904707Y80193D01*
X-915396Y69505D01*
X-929363Y63718D01*
X-929422Y63718D01*
X-929422Y94219D01*
X-898921Y94219D01*
X-898921Y94160D01*
G37*
%TD.AperFunction*%
%TA.AperFunction,NonConductor*%
G36*
X142499Y401998D02*
G01*
X142441Y401998D01*
X128473Y407784D01*
X117785Y418475D01*
X111999Y432440D01*
X111999Y432499D01*
X142499Y432499D01*
X142499Y401998D01*
G37*
%TD.AperFunction*%
D11*
X-65501Y-682854D02*
G75*
G02*
X-90501Y-682854I-12500J0D01*
G01*
X-90501Y-682854D02*
G75*
G02*
X-65501Y-682854I12500J0D01*
G01*
D10*
%TA.AperFunction,NonConductor*%
G36*
X470906Y342407D02*
G01*
X440406Y342407D01*
X440406Y342466D01*
X446192Y356433D01*
X456880Y367121D01*
X470847Y372908D01*
X470906Y372908D01*
X470906Y342407D01*
G37*
%TD.AperFunction*%
%TA.AperFunction,NonConductor*%
G36*
X1056386Y496374D02*
G01*
X1077059Y482559D01*
X1090874Y461886D01*
X1095723Y437500D01*
X1095723Y426499D01*
X1090874Y402112D01*
X1077059Y381439D01*
X1056386Y367627D01*
X1031999Y362776D01*
X910999Y362776D01*
X886612Y367627D01*
X865939Y381439D01*
X852127Y402112D01*
X847275Y426499D01*
X847275Y437500D01*
X852127Y461886D01*
X865939Y482559D01*
X886612Y496374D01*
X910999Y501223D01*
X1031999Y501223D01*
X1056386Y496374D01*
G37*
%TD.AperFunction*%
D11*
X621689Y-631756D02*
G75*
G02*
X596689Y-631756I-12500J0D01*
G01*
X596689Y-631756D02*
G75*
G02*
X621689Y-631756I12500J0D01*
G01*
X-1437500Y-825000D02*
G75*
G02*
X-1462500Y-825000I-12500J0D01*
G01*
X-1462500Y-825000D02*
G75*
G02*
X-1437500Y-825000I12500J0D01*
G01*
D10*
%TA.AperFunction,NonConductor*%
G36*
X-849627Y-338803D02*
G01*
X-838939Y-349494D01*
X-833153Y-363459D01*
X-833153Y-363520D01*
X-863653Y-363520D01*
X-863653Y-333019D01*
X-863595Y-333019D01*
X-849627Y-338803D01*
G37*
%TD.AperFunction*%
%TA.AperFunction,NonConductor*%
G36*
X63525Y583169D02*
G01*
X74216Y572480D01*
X80000Y558513D01*
X80000Y558455D01*
X49500Y558455D01*
X49500Y588955D01*
X49558Y588955D01*
X63525Y583169D01*
G37*
%TD.AperFunction*%
D11*
X-87500Y-1124999D02*
G75*
G02*
X-112500Y-1124999I-12500J0D01*
G01*
X-112500Y-1124999D02*
G75*
G02*
X-87500Y-1124999I12500J0D01*
G01*
X202500Y869998D02*
G75*
G02*
X177500Y869998I-12500J0D01*
G01*
X177500Y869998D02*
G75*
G02*
X202500Y869998I12500J0D01*
G01*
X-417499Y182499D02*
G75*
G02*
X-442499Y182499I-12500J0D01*
G01*
X-442499Y182499D02*
G75*
G02*
X-417499Y182499I12500J0D01*
G01*
D10*
%TA.AperFunction,NonConductor*%
G36*
X507934Y-938317D02*
G01*
X502148Y-952282D01*
X491460Y-962972D01*
X477492Y-968756D01*
X477434Y-968756D01*
X477434Y-938256D01*
X507934Y-938256D01*
X507934Y-938317D01*
G37*
%TD.AperFunction*%
D11*
X-341464Y-674568D02*
G75*
G02*
X-366464Y-674568I-12500J0D01*
G01*
X-366464Y-674568D02*
G75*
G02*
X-341464Y-674568I12500J0D01*
G01*
D10*
%TA.AperFunction,NonConductor*%
G36*
X-425607Y-806785D02*
G01*
X-414919Y-817476D01*
X-409133Y-831441D01*
X-409133Y-831499D01*
X-439633Y-831499D01*
X-439633Y-800999D01*
X-439575Y-800999D01*
X-425607Y-806785D01*
G37*
%TD.AperFunction*%
D11*
X-668499Y329999D02*
G75*
G02*
X-693499Y329999I-12500J0D01*
G01*
X-693499Y329999D02*
G75*
G02*
X-668499Y329999I12500J0D01*
G01*
X-92499Y-142499D02*
G75*
G02*
X-117499Y-142499I-12500J0D01*
G01*
X-117499Y-142499D02*
G75*
G02*
X-92499Y-142499I12500J0D01*
G01*
D10*
%TA.AperFunction,NonConductor*%
G36*
X1142500Y1087001D02*
G01*
X1142441Y1087001D01*
X1128474Y1092784D01*
X1117785Y1103475D01*
X1111999Y1117443D01*
X1111999Y1117501D01*
X1142500Y1117501D01*
X1142500Y1087001D01*
G37*
%TD.AperFunction*%
D11*
X1062500Y-1124999D02*
G75*
G02*
X1037500Y-1124999I-12500J0D01*
G01*
X1037500Y-1124999D02*
G75*
G02*
X1062500Y-1124999I12500J0D01*
G01*
X-92499Y182499D02*
G75*
G02*
X-117499Y182499I-12500J0D01*
G01*
X-117499Y182499D02*
G75*
G02*
X-92499Y182499I12500J0D01*
G01*
X-820805Y601599D02*
G75*
G02*
X-845805Y601599I-12500J0D01*
G01*
X-845805Y601599D02*
G75*
G02*
X-820805Y601599I12500J0D01*
G01*
X-737499Y-799998D02*
G75*
G02*
X-762499Y-799998I-12500J0D01*
G01*
X-762499Y-799998D02*
G75*
G02*
X-737499Y-799998I12500J0D01*
G01*
X337501Y-625000D02*
G75*
G02*
X312501Y-625000I-12500J0D01*
G01*
X312501Y-625000D02*
G75*
G02*
X337501Y-625000I12500J0D01*
G01*
D10*
%TA.AperFunction,NonConductor*%
G36*
X80000Y543397D02*
G01*
X74216Y529430D01*
X63525Y518739D01*
X49558Y512956D01*
X49500Y512956D01*
X49500Y543456D01*
X80000Y543456D01*
X80000Y543397D01*
G37*
%TD.AperFunction*%
D11*
X-638502Y-1009729D02*
G75*
G02*
X-663502Y-1009729I-12500J0D01*
G01*
X-663502Y-1009729D02*
G75*
G02*
X-638502Y-1009729I12500J0D01*
G01*
D10*
%TA.AperFunction,NonConductor*%
G36*
X-111501Y144501D02*
G01*
X-112558Y144501D01*
X-126525Y150284D01*
X-137213Y160975D01*
X-142999Y174940D01*
X-142999Y175999D01*
X-111501Y175999D01*
X-111501Y144501D01*
G37*
%TD.AperFunction*%
%TA.AperFunction,NonConductor*%
G36*
X-1197115Y81999D02*
G01*
X-1197176Y81999D01*
X-1211141Y87785D01*
X-1221831Y98476D01*
X-1227615Y112441D01*
X-1227615Y112499D01*
X-1197115Y112499D01*
X-1197115Y81999D01*
G37*
%TD.AperFunction*%
D11*
X-1062499Y1124999D02*
G75*
G02*
X-1087499Y1124999I-12500J0D01*
G01*
X-1087499Y1124999D02*
G75*
G02*
X-1062499Y1124999I12500J0D01*
G01*
D10*
%TA.AperFunction,NonConductor*%
G36*
X-67000Y174940D02*
G01*
X-72784Y160975D01*
X-83475Y150284D01*
X-97442Y144501D01*
X-98501Y144501D01*
X-98501Y175999D01*
X-67000Y175999D01*
X-67000Y174940D01*
G37*
%TD.AperFunction*%
%TA.AperFunction,NonConductor*%
G36*
X-636499Y536755D02*
G01*
X-636557Y536755D01*
X-650524Y542541D01*
X-661213Y553232D01*
X-666999Y567197D01*
X-666999Y567256D01*
X-636499Y567256D01*
X-636499Y536755D01*
G37*
%TD.AperFunction*%
D11*
X-523498Y152240D02*
G75*
G02*
X-548498Y152240I-12500J0D01*
G01*
X-548498Y152240D02*
G75*
G02*
X-523498Y152240I12500J0D01*
G01*
X762501Y1124999D02*
G75*
G02*
X737501Y1124999I-12500J0D01*
G01*
X737501Y1124999D02*
G75*
G02*
X762501Y1124999I12500J0D01*
G01*
X162500Y439999D02*
G75*
G02*
X137500Y439999I-12500J0D01*
G01*
X137500Y439999D02*
G75*
G02*
X162500Y439999I12500J0D01*
G01*
X-1177117Y120000D02*
G75*
G02*
X-1202117Y120000I-12500J0D01*
G01*
X-1202117Y120000D02*
G75*
G02*
X-1177117Y120000I12500J0D01*
G01*
D10*
%TA.AperFunction,NonConductor*%
G36*
X-479880Y763618D02*
G01*
X-469189Y752927D01*
X-463405Y738962D01*
X-463405Y738904D01*
X-493906Y738904D01*
X-493906Y769404D01*
X-493847Y769404D01*
X-479880Y763618D01*
G37*
%TD.AperFunction*%
D11*
X1162500Y1124999D02*
G75*
G02*
X1137500Y1124999I-12500J0D01*
G01*
X1137500Y1124999D02*
G75*
G02*
X1162500Y1124999I12500J0D01*
G01*
D10*
%TA.AperFunction,NonConductor*%
G36*
X-629476Y-977514D02*
G01*
X-618787Y-988202D01*
X-613001Y-1002170D01*
X-613001Y-1002228D01*
X-643501Y-1002228D01*
X-643501Y-971728D01*
X-643443Y-971728D01*
X-629476Y-977514D01*
G37*
%TD.AperFunction*%
%TA.AperFunction,NonConductor*%
G36*
X808533Y400225D02*
G01*
X802747Y386260D01*
X792056Y375569D01*
X778091Y369783D01*
X778032Y369783D01*
X778032Y400284D01*
X808533Y400284D01*
X808533Y400225D01*
G37*
%TD.AperFunction*%
D11*
X912501Y1124999D02*
G75*
G02*
X887501Y1124999I-12500J0D01*
G01*
X887501Y1124999D02*
G75*
G02*
X912501Y1124999I12500J0D01*
G01*
D10*
%TA.AperFunction,NonConductor*%
G36*
X-1208998Y-1063002D02*
G01*
X-1319999Y-1063002D01*
X-1319999Y-952001D01*
X-1208998Y-952001D01*
X-1208998Y-1063002D01*
G37*
%TD.AperFunction*%
%TA.AperFunction,NonConductor*%
G36*
X-1097539Y743890D02*
G01*
X-1103325Y729925D01*
X-1114014Y719234D01*
X-1127981Y713450D01*
X-1128039Y713450D01*
X-1128039Y743951D01*
X-1097539Y743951D01*
X-1097539Y743890D01*
G37*
%TD.AperFunction*%
D11*
X-1112499Y1000001D02*
G75*
G02*
X-1137499Y1000001I-12500J0D01*
G01*
X-1137499Y1000001D02*
G75*
G02*
X-1112499Y1000001I12500J0D01*
G01*
D10*
%TA.AperFunction,NonConductor*%
G36*
X-679453Y942939D02*
G01*
X-679511Y942939D01*
X-693478Y948723D01*
X-704167Y959414D01*
X-709953Y973379D01*
X-709953Y973437D01*
X-679453Y973437D01*
X-679453Y942939D01*
G37*
%TD.AperFunction*%
D11*
X-932499Y-3749D02*
G75*
G02*
X-957499Y-3749I-12500J0D01*
G01*
X-957499Y-3749D02*
G75*
G02*
X-932499Y-3749I12500J0D01*
G01*
X-914422Y-200000D02*
G75*
G02*
X-939422Y-200000I-12500J0D01*
G01*
X-939422Y-200000D02*
G75*
G02*
X-914422Y-200000I12500J0D01*
G01*
D10*
%TA.AperFunction,NonConductor*%
G36*
X-436499Y-136002D02*
G01*
X-468000Y-136002D01*
X-468000Y-134943D01*
X-462214Y-120975D01*
X-451526Y-110284D01*
X-437558Y-104501D01*
X-436499Y-104501D01*
X-436499Y-136002D01*
G37*
%TD.AperFunction*%
%TA.AperFunction,NonConductor*%
G36*
X470906Y296906D02*
G01*
X470847Y296906D01*
X456880Y302692D01*
X446192Y313383D01*
X440406Y327348D01*
X440406Y327406D01*
X470906Y327406D01*
X470906Y296906D01*
G37*
%TD.AperFunction*%
D11*
X115388Y-898743D02*
G75*
G02*
X90388Y-898743I-12500J0D01*
G01*
X90388Y-898743D02*
G75*
G02*
X115388Y-898743I12500J0D01*
G01*
D10*
%TA.AperFunction,NonConductor*%
G36*
X124412Y-866529D02*
G01*
X135103Y-877217D01*
X140889Y-891184D01*
X140889Y-891243D01*
X110388Y-891243D01*
X110388Y-860743D01*
X110447Y-860743D01*
X124412Y-866529D01*
G37*
%TD.AperFunction*%
D11*
X-156501Y1012238D02*
G75*
G02*
X-181501Y1012238I-12500J0D01*
G01*
X-181501Y1012238D02*
G75*
G02*
X-156501Y1012238I12500J0D01*
G01*
X1287501Y-1124999D02*
G75*
G02*
X1262501Y-1124999I-12500J0D01*
G01*
X1262501Y-1124999D02*
G75*
G02*
X1287501Y-1124999I12500J0D01*
G01*
D10*
%TA.AperFunction,NonConductor*%
G36*
X-607474Y606971D02*
G01*
X-596783Y596280D01*
X-591000Y582315D01*
X-591000Y582257D01*
X-621500Y582257D01*
X-621500Y612757D01*
X-621441Y612757D01*
X-607474Y606971D01*
G37*
%TD.AperFunction*%
%TA.AperFunction,NonConductor*%
G36*
X-1168090Y152215D02*
G01*
X-1157402Y141524D01*
X-1151616Y127559D01*
X-1151616Y127500D01*
X-1182116Y127500D01*
X-1182116Y158001D01*
X-1182058Y158001D01*
X-1168090Y152215D01*
G37*
%TD.AperFunction*%
%TA.AperFunction,NonConductor*%
G36*
X95387Y-936744D02*
G01*
X95329Y-936744D01*
X81361Y-930958D01*
X70673Y-920267D01*
X64887Y-906302D01*
X64887Y-906244D01*
X95387Y-906244D01*
X95387Y-936744D01*
G37*
%TD.AperFunction*%
D11*
X422631Y48849D02*
G75*
G02*
X397631Y48849I-12500J0D01*
G01*
X397631Y48849D02*
G75*
G02*
X422631Y48849I12500J0D01*
G01*
X-152310Y-777169D02*
G75*
G02*
X-177310Y-777169I-12500J0D01*
G01*
X-177310Y-777169D02*
G75*
G02*
X-152310Y-777169I12500J0D01*
G01*
D10*
%TA.AperFunction,NonConductor*%
G36*
X1042909Y-261447D02*
G01*
X1052053Y-270589D01*
X1057001Y-282534D01*
X1057001Y-295466D01*
X1052053Y-307411D01*
X1042909Y-316553D01*
X1030966Y-321501D01*
X1018035Y-321501D01*
X1006089Y-316553D01*
X996947Y-307411D01*
X992000Y-295466D01*
X992000Y-282534D01*
X996947Y-270589D01*
X1006089Y-261447D01*
X1018035Y-256499D01*
X1030966Y-256499D01*
X1042909Y-261447D01*
G37*
%TD.AperFunction*%
%TA.AperFunction,NonConductor*%
G36*
X551523Y682214D02*
G01*
X562214Y671525D01*
X567997Y657558D01*
X567997Y650128D01*
X570281Y647847D01*
X645234Y647847D01*
X645914Y649491D01*
X656603Y660179D01*
X670570Y665965D01*
X685688Y665965D01*
X699653Y660179D01*
X710344Y649491D01*
X716128Y635523D01*
X716128Y620405D01*
X710344Y606440D01*
X699653Y595749D01*
X685688Y589963D01*
X670570Y589963D01*
X656603Y595749D01*
X645914Y606440D01*
X645234Y608084D01*
X562046Y608084D01*
X562044Y608084D01*
X554436Y609595D01*
X547987Y613905D01*
X546280Y615612D01*
X537558Y611998D01*
X522440Y611998D01*
X508472Y617784D01*
X497784Y628472D01*
X491998Y642440D01*
X491998Y657558D01*
X497784Y671525D01*
X508472Y682214D01*
X522440Y688000D01*
X537558Y688000D01*
X551523Y682214D01*
G37*
%TD.AperFunction*%
D11*
X-870932Y880580D02*
G75*
G02*
X-895932Y880580I-12500J0D01*
G01*
X-895932Y880580D02*
G75*
G02*
X-870932Y880580I12500J0D01*
G01*
D10*
%TA.AperFunction,NonConductor*%
G36*
X612501Y-8075D02*
G01*
X612442Y-8075D01*
X598475Y-2291D01*
X587786Y8400D01*
X582000Y22367D01*
X582000Y22426D01*
X612501Y22426D01*
X612501Y-8075D01*
G37*
%TD.AperFunction*%
D11*
X487500Y1124999D02*
G75*
G02*
X462500Y1124999I-12500J0D01*
G01*
X462500Y1124999D02*
G75*
G02*
X487500Y1124999I12500J0D01*
G01*
D10*
%TA.AperFunction,NonConductor*%
G36*
X612501Y37424D02*
G01*
X582000Y37424D01*
X582000Y37483D01*
X587786Y51450D01*
X598475Y62139D01*
X612442Y67925D01*
X612501Y67925D01*
X612501Y37424D01*
G37*
%TD.AperFunction*%
%TA.AperFunction,NonConductor*%
G36*
X-636499Y582257D02*
G01*
X-666999Y582257D01*
X-666999Y582315D01*
X-661213Y596280D01*
X-650524Y606971D01*
X-636557Y612757D01*
X-636499Y612757D01*
X-636499Y582257D01*
G37*
%TD.AperFunction*%
%TA.AperFunction,NonConductor*%
G36*
X402631Y10851D02*
G01*
X402572Y10851D01*
X388605Y16634D01*
X377916Y27325D01*
X372130Y41290D01*
X372130Y41351D01*
X402631Y41351D01*
X402631Y10851D01*
G37*
%TD.AperFunction*%
%TA.AperFunction,NonConductor*%
G36*
X658000Y22367D02*
G01*
X652216Y8400D01*
X641525Y-2291D01*
X627560Y-8075D01*
X627499Y-8075D01*
X627499Y22426D01*
X658000Y22426D01*
X658000Y22367D01*
G37*
%TD.AperFunction*%
D11*
X690629Y627964D02*
G75*
G02*
X665629Y627964I-12500J0D01*
G01*
X665629Y627964D02*
G75*
G02*
X690629Y627964I12500J0D01*
G01*
D10*
%TA.AperFunction,NonConductor*%
G36*
X-229499Y174940D02*
G01*
X-235285Y160975D01*
X-245974Y150284D01*
X-259941Y144501D01*
X-261000Y144501D01*
X-261000Y175999D01*
X-229499Y175999D01*
X-229499Y174940D01*
G37*
%TD.AperFunction*%
D11*
X-19448Y-1124910D02*
G75*
G02*
X-44448Y-1124910I-12500J0D01*
G01*
X-44448Y-1124910D02*
G75*
G02*
X-19448Y-1124910I12500J0D01*
G01*
X-255000Y-142499D02*
G75*
G02*
X-280000Y-142499I-12500J0D01*
G01*
X-280000Y-142499D02*
G75*
G02*
X-255000Y-142499I12500J0D01*
G01*
D10*
%TA.AperFunction,NonConductor*%
G36*
X-111501Y-18001D02*
G01*
X-112558Y-18001D01*
X-126525Y-12215D01*
X-137213Y-1527D01*
X-142999Y12441D01*
X-142999Y13500D01*
X-111501Y13500D01*
X-111501Y-18001D01*
G37*
%TD.AperFunction*%
D11*
X-102501Y-738485D02*
G75*
G02*
X-127501Y-738485I-12500J0D01*
G01*
X-127501Y-738485D02*
G75*
G02*
X-102501Y-738485I12500J0D01*
G01*
X542499Y649999D02*
G75*
G02*
X517499Y649999I-12500J0D01*
G01*
X517499Y649999D02*
G75*
G02*
X542499Y649999I12500J0D01*
G01*
D10*
%TA.AperFunction,NonConductor*%
G36*
X1024989Y636374D02*
G01*
X1035677Y625683D01*
X1041464Y611716D01*
X1041464Y611657D01*
X1010963Y611657D01*
X1010963Y642158D01*
X1011022Y642158D01*
X1024989Y636374D01*
G37*
%TD.AperFunction*%
D11*
X-858654Y-371018D02*
G75*
G02*
X-883654Y-371018I-12500J0D01*
G01*
X-883654Y-371018D02*
G75*
G02*
X-858654Y-371018I12500J0D01*
G01*
X-1060500Y276106D02*
G75*
G02*
X-1085500Y276106I-12500J0D01*
G01*
X-1085500Y276106D02*
G75*
G02*
X-1060500Y276106I12500J0D01*
G01*
D10*
%TA.AperFunction,NonConductor*%
G36*
X721843Y-333873D02*
G01*
X691345Y-333873D01*
X691345Y-333814D01*
X697128Y-319847D01*
X707819Y-309159D01*
X721784Y-303373D01*
X721843Y-303373D01*
X721843Y-333873D01*
G37*
%TD.AperFunction*%
%TA.AperFunction,NonConductor*%
G36*
X-719361Y947450D02*
G01*
X-708673Y936762D01*
X-702887Y922795D01*
X-702887Y907679D01*
X-708673Y893712D01*
X-719361Y883023D01*
X-733328Y877237D01*
X-748444Y877237D01*
X-762411Y883023D01*
X-768701Y889312D01*
X-783651Y889312D01*
X-1001735Y671228D01*
X-1001735Y661330D01*
X-1007519Y647362D01*
X-1018210Y636674D01*
X-1032175Y630888D01*
X-1047293Y630888D01*
X-1061260Y636674D01*
X-1069470Y627372D01*
X-1070519Y624837D01*
X-1081209Y614149D01*
X-1095174Y608363D01*
X-1110292Y608363D01*
X-1124260Y614149D01*
X-1134948Y624837D01*
X-1140734Y638805D01*
X-1140734Y653923D01*
X-1134948Y667888D01*
X-1124260Y678579D01*
X-1110292Y684362D01*
X-1104118Y684362D01*
X-1104118Y687321D01*
X-1102604Y694929D01*
X-1098293Y701378D01*
X-921433Y878238D01*
X-921433Y888139D01*
X-915647Y902104D01*
X-904959Y912795D01*
X-890991Y918581D01*
X-875873Y918581D01*
X-861908Y912795D01*
X-851218Y902104D01*
X-849412Y897745D01*
X-834433Y894766D01*
X-805945Y923252D01*
X-799495Y927562D01*
X-791888Y929076D01*
X-791886Y929076D01*
X-776285Y929076D01*
X-773102Y936762D01*
X-762411Y947450D01*
X-748444Y953237D01*
X-733328Y953237D01*
X-719361Y947450D01*
G37*
%TD.AperFunction*%
%TA.AperFunction,NonConductor*%
G36*
X-915396Y133934D02*
G01*
X-904707Y123243D01*
X-898921Y109278D01*
X-898921Y109217D01*
X-929422Y109217D01*
X-929422Y139718D01*
X-929363Y139718D01*
X-915396Y133934D01*
G37*
%TD.AperFunction*%
%TA.AperFunction,NonConductor*%
G36*
X334932Y791883D02*
G01*
X345623Y781192D01*
X351409Y767225D01*
X351409Y752109D01*
X345623Y738142D01*
X334932Y727453D01*
X320967Y721667D01*
X305849Y721667D01*
X291884Y727453D01*
X281897Y737438D01*
X199659Y737438D01*
X193365Y738690D01*
X144897Y738690D01*
X144216Y737047D01*
X133525Y726356D01*
X119560Y720573D01*
X104442Y720573D01*
X90475Y726356D01*
X79786Y737047D01*
X74000Y751015D01*
X74000Y766130D01*
X79786Y780098D01*
X90475Y790786D01*
X104442Y796572D01*
X119560Y796572D01*
X133525Y790786D01*
X144216Y780098D01*
X144897Y778454D01*
X198407Y778454D01*
X204704Y777202D01*
X279540Y777202D01*
X281193Y781192D01*
X291884Y791883D01*
X305849Y797667D01*
X320967Y797667D01*
X334932Y791883D01*
G37*
%TD.AperFunction*%
D11*
X-232501Y709168D02*
G75*
G02*
X-257501Y709168I-12500J0D01*
G01*
X-257501Y709168D02*
G75*
G02*
X-232501Y709168I12500J0D01*
G01*
X-189948Y-699099D02*
G75*
G02*
X-214948Y-699099I-12500J0D01*
G01*
X-214948Y-699099D02*
G75*
G02*
X-189948Y-699099I12500J0D01*
G01*
X-481500Y1038482D02*
G75*
G02*
X-506500Y1038482I-12500J0D01*
G01*
X-506500Y1038482D02*
G75*
G02*
X-481500Y1038482I12500J0D01*
G01*
D10*
%TA.AperFunction,NonConductor*%
G36*
X499930Y367121D02*
G01*
X510621Y356433D01*
X516405Y342466D01*
X516405Y342407D01*
X485905Y342407D01*
X485905Y372908D01*
X485966Y372908D01*
X499930Y367121D01*
G37*
%TD.AperFunction*%
%TA.AperFunction,NonConductor*%
G36*
X-304749Y882780D02*
G01*
X-294061Y872091D01*
X-288275Y858124D01*
X-288275Y858065D01*
X-318775Y858065D01*
X-318775Y888566D01*
X-318717Y888566D01*
X-304749Y882780D01*
G37*
%TD.AperFunction*%
%TA.AperFunction,NonConductor*%
G36*
X-1114014Y783664D02*
G01*
X-1103325Y772975D01*
X-1097539Y759008D01*
X-1097539Y758949D01*
X-1128039Y758949D01*
X-1128039Y789450D01*
X-1127981Y789450D01*
X-1114014Y783664D01*
G37*
%TD.AperFunction*%
D11*
X-412460Y681990D02*
G75*
G02*
X-437460Y681990I-12500J0D01*
G01*
X-437460Y681990D02*
G75*
G02*
X-412460Y681990I12500J0D01*
G01*
X-92499Y20000D02*
G75*
G02*
X-117499Y20000I-12500J0D01*
G01*
X-117499Y20000D02*
G75*
G02*
X-92499Y20000I12500J0D01*
G01*
D10*
%TA.AperFunction,NonConductor*%
G36*
X-1386952Y-145501D02*
G01*
X-1417452Y-145501D01*
X-1417452Y-145443D01*
X-1411669Y-131475D01*
X-1400978Y-120785D01*
X-1387010Y-115001D01*
X-1386952Y-115001D01*
X-1386952Y-145501D01*
G37*
%TD.AperFunction*%
%TA.AperFunction,NonConductor*%
G36*
X-941258Y34249D02*
G01*
X-937443Y34249D01*
X-933917Y32789D01*
X-930173Y32045D01*
X-927001Y29924D01*
X-923475Y28466D01*
X-920775Y25766D01*
X-917603Y23645D01*
X-876018Y-17937D01*
X-465501Y-17937D01*
X-460479Y-6165D01*
X-460146Y-3594D01*
X-462214Y-1527D01*
X-468000Y12441D01*
X-468000Y13500D01*
X-429999Y13500D01*
X-392001Y13500D01*
X-392001Y12441D01*
X-397784Y-1527D01*
X-408475Y-12215D01*
X-422440Y-18001D01*
X-432135Y-18001D01*
X-435539Y-24440D01*
X-437159Y-30701D01*
X-435983Y-32459D01*
X-433286Y-35159D01*
X-431825Y-38684D01*
X-429705Y-41857D01*
X-428960Y-45601D01*
X-427500Y-49124D01*
X-427500Y-52941D01*
X-426756Y-56683D01*
X-427500Y-60427D01*
X-427500Y-64242D01*
X-428960Y-67767D01*
X-429705Y-71511D01*
X-431825Y-74684D01*
X-433286Y-78209D01*
X-435983Y-80907D01*
X-438104Y-84079D01*
X-441277Y-86200D01*
X-443974Y-88897D01*
X-447500Y-90358D01*
X-450672Y-92479D01*
X-454416Y-93223D01*
X-457942Y-94684D01*
X-461757Y-94684D01*
X-465501Y-95428D01*
X-814464Y-95428D01*
X-816988Y-108128D01*
X-811779Y-110284D01*
X-801091Y-120975D01*
X-795304Y-134943D01*
X-795304Y-135001D01*
X-833305Y-135001D01*
X-833305Y-150000D01*
X-795304Y-150000D01*
X-795304Y-150058D01*
X-801091Y-164026D01*
X-811779Y-174714D01*
X-824428Y-179954D01*
X-827207Y-185958D01*
X-829142Y-193200D01*
X-801025Y-221318D01*
X-786900Y-221318D01*
X-784080Y-218498D01*
X-770113Y-212712D01*
X-754997Y-212712D01*
X-741030Y-218498D01*
X-730341Y-229187D01*
X-724555Y-243154D01*
X-724555Y-258272D01*
X-730341Y-272237D01*
X-741030Y-282928D01*
X-754997Y-288712D01*
X-770113Y-288712D01*
X-784080Y-282928D01*
X-794769Y-272237D01*
X-797321Y-266080D01*
X-810021Y-268608D01*
X-810021Y-272931D01*
X-815805Y-286898D01*
X-826496Y-297586D01*
X-840461Y-303373D01*
X-855579Y-303373D01*
X-869546Y-297586D01*
X-880234Y-286898D01*
X-886021Y-272931D01*
X-886021Y-268592D01*
X-887311Y-267731D01*
X-917720Y-237320D01*
X-919363Y-238001D01*
X-934481Y-238001D01*
X-948449Y-232214D01*
X-959137Y-221526D01*
X-964923Y-207559D01*
X-964923Y-192441D01*
X-963117Y-188082D01*
X-971603Y-175382D01*
X-1156091Y-175382D01*
X-1174755Y-194046D01*
X-1174554Y-194526D01*
X-1174554Y-209644D01*
X-1180341Y-223611D01*
X-1191029Y-234300D01*
X-1204996Y-240086D01*
X-1220112Y-240086D01*
X-1224473Y-238280D01*
X-1237173Y-246766D01*
X-1237173Y-307754D01*
X-1164643Y-380284D01*
X-1101674Y-380284D01*
X-1094064Y-381798D01*
X-1087615Y-386108D01*
X-1085162Y-388559D01*
X-1079571Y-386245D01*
X-1064456Y-386245D01*
X-1050488Y-392029D01*
X-1039797Y-402720D01*
X-1034014Y-416687D01*
X-1034014Y-431803D01*
X-1039797Y-445770D01*
X-1050488Y-456458D01*
X-1064456Y-462244D01*
X-1079571Y-462244D01*
X-1093539Y-456458D01*
X-1104227Y-445770D01*
X-1110013Y-431803D01*
X-1110013Y-420047D01*
X-1172878Y-420047D01*
X-1180485Y-418534D01*
X-1186937Y-414223D01*
X-1206299Y-394861D01*
X-1212446Y-396166D01*
X-1219751Y-399369D01*
X-1224785Y-411526D01*
X-1235474Y-422214D01*
X-1249441Y-428000D01*
X-1264559Y-428000D01*
X-1278524Y-422214D01*
X-1289215Y-411526D01*
X-1294999Y-397558D01*
X-1294999Y-383159D01*
X-1315735Y-350126D01*
X-1316591Y-347876D01*
X-1317930Y-345874D01*
X-1318557Y-342722D01*
X-1319703Y-339717D01*
X-1319634Y-337312D01*
X-1320104Y-334950D01*
X-1320104Y-310096D01*
X-1320104Y-169362D01*
X-1318461Y-161105D01*
X-1318461Y-129913D01*
X-1316286Y-118989D01*
X-1310099Y-109728D01*
X-1278339Y-77965D01*
X-1277998Y-76256D01*
X-1277998Y-72441D01*
X-1276538Y-68915D01*
X-1275794Y-65174D01*
X-1273673Y-61999D01*
X-1272212Y-58473D01*
X-1269515Y-55776D01*
X-1267394Y-52603D01*
X-1263393Y-48603D01*
X-1250826Y-40206D01*
X-1235997Y-37257D01*
X-1208616Y-37257D01*
X-1203963Y-32603D01*
X-1191395Y-24204D01*
X-1176566Y-21255D01*
X-1017298Y-21255D01*
X-972396Y23645D01*
X-969223Y25766D01*
X-966526Y28466D01*
X-963000Y29924D01*
X-959828Y32045D01*
X-956084Y32789D01*
X-952558Y34249D01*
X-948743Y34249D01*
X-944999Y34994D01*
X-941258Y34249D01*
G37*
%TD.AperFunction*%
%TA.AperFunction,NonConductor*%
G36*
X-1020067Y-815500D02*
G01*
X-1020125Y-815500D01*
X-1034090Y-809714D01*
X-1044781Y-799026D01*
X-1050564Y-785058D01*
X-1050564Y-785000D01*
X-1020067Y-785000D01*
X-1020067Y-815500D01*
G37*
%TD.AperFunction*%
D11*
X162500Y-529999D02*
G75*
G02*
X137500Y-529999I-12500J0D01*
G01*
X137500Y-529999D02*
G75*
G02*
X162500Y-529999I12500J0D01*
G01*
D10*
%TA.AperFunction,NonConductor*%
G36*
X-508904Y738904D02*
G01*
X-539405Y738904D01*
X-539405Y738962D01*
X-533618Y752927D01*
X-522930Y763618D01*
X-508963Y769404D01*
X-508904Y769404D01*
X-508904Y738904D01*
G37*
%TD.AperFunction*%
D11*
X312499Y1124999D02*
G75*
G02*
X287499Y1124999I-12500J0D01*
G01*
X287499Y1124999D02*
G75*
G02*
X312499Y1124999I12500J0D01*
G01*
D10*
%TA.AperFunction,NonConductor*%
G36*
X-392001Y-150058D02*
G01*
X-397784Y-164026D01*
X-408475Y-174714D01*
X-422440Y-180500D01*
X-423499Y-180500D01*
X-423499Y-149001D01*
X-392001Y-149001D01*
X-392001Y-150058D01*
G37*
%TD.AperFunction*%
D11*
X-962499Y1124999D02*
G75*
G02*
X-987499Y1124999I-12500J0D01*
G01*
X-987499Y1124999D02*
G75*
G02*
X-962499Y1124999I12500J0D01*
G01*
D10*
%TA.AperFunction,NonConductor*%
G36*
X-408475Y-110284D02*
G01*
X-397784Y-120975D01*
X-392001Y-134943D01*
X-392001Y-136002D01*
X-423499Y-136002D01*
X-423499Y-104501D01*
X-422440Y-104501D01*
X-408475Y-110284D01*
G37*
%TD.AperFunction*%
%TA.AperFunction,NonConductor*%
G36*
X34501Y558455D02*
G01*
X4001Y558455D01*
X4001Y558513D01*
X9787Y572480D01*
X20475Y583169D01*
X34442Y588955D01*
X34501Y588955D01*
X34501Y558455D01*
G37*
%TD.AperFunction*%
D11*
X-1067498Y399999D02*
G75*
G02*
X-1092498Y399999I-12500J0D01*
G01*
X-1092498Y399999D02*
G75*
G02*
X-1067498Y399999I12500J0D01*
G01*
D10*
%TA.AperFunction,NonConductor*%
G36*
X-627499Y-468000D02*
G01*
X-627558Y-468000D01*
X-641525Y-462214D01*
X-652214Y-451526D01*
X-658000Y-437558D01*
X-658000Y-437500D01*
X-627499Y-437500D01*
X-627499Y-468000D01*
G37*
%TD.AperFunction*%
D11*
X1187499Y-1124999D02*
G75*
G02*
X1162499Y-1124999I-12500J0D01*
G01*
X1162499Y-1124999D02*
G75*
G02*
X1187499Y-1124999I12500J0D01*
G01*
X-1437500Y-887999D02*
G75*
G02*
X-1462500Y-887999I-12500J0D01*
G01*
X-1462500Y-887999D02*
G75*
G02*
X-1437500Y-887999I12500J0D01*
G01*
X171999Y-596115D02*
G75*
G02*
X146999Y-596115I-12500J0D01*
G01*
X146999Y-596115D02*
G75*
G02*
X171999Y-596115I12500J0D01*
G01*
D10*
%TA.AperFunction,NonConductor*%
G36*
X-840806Y563598D02*
G01*
X-840864Y563598D01*
X-854829Y569384D01*
X-865520Y580073D01*
X-871306Y594040D01*
X-871306Y594098D01*
X-840806Y594098D01*
X-840806Y563598D01*
G37*
%TD.AperFunction*%
D11*
X655011Y778099D02*
G75*
G02*
X630011Y778099I-12500J0D01*
G01*
X630011Y778099D02*
G75*
G02*
X655011Y778099I12500J0D01*
G01*
X-897498Y-959998D02*
G75*
G02*
X-922498Y-959998I-12500J0D01*
G01*
X-922498Y-959998D02*
G75*
G02*
X-897498Y-959998I12500J0D01*
G01*
D10*
%TA.AperFunction,NonConductor*%
G36*
X-463405Y723844D02*
G01*
X-469189Y709877D01*
X-479880Y699188D01*
X-493847Y693402D01*
X-493906Y693402D01*
X-493906Y723903D01*
X-463405Y723903D01*
X-463405Y723844D01*
G37*
%TD.AperFunction*%
D11*
X-1164782Y-677194D02*
G75*
G02*
X-1189782Y-677194I-12500J0D01*
G01*
X-1189782Y-677194D02*
G75*
G02*
X-1164782Y-677194I12500J0D01*
G01*
X-417499Y-142499D02*
G75*
G02*
X-442499Y-142499I-12500J0D01*
G01*
X-442499Y-142499D02*
G75*
G02*
X-417499Y-142499I12500J0D01*
G01*
X-222785Y632826D02*
G75*
G02*
X-247785Y632826I-12500J0D01*
G01*
X-247785Y632826D02*
G75*
G02*
X-222785Y632826I12500J0D01*
G01*
D12*
X-1236751Y-839861D02*
G75*
G02*
X-1292251Y-839861I-27750J0D01*
G01*
X-1292251Y-839861D02*
G75*
G02*
X-1236751Y-839861I27750J0D01*
G01*
D10*
%TA.AperFunction,NonConductor*%
G36*
X-872000Y-967557D02*
G01*
X-877783Y-981522D01*
X-888474Y-992213D01*
X-902439Y-997999D01*
X-902500Y-997999D01*
X-902500Y-967499D01*
X-872000Y-967499D01*
X-872000Y-967557D01*
G37*
%TD.AperFunction*%
%TA.AperFunction,NonConductor*%
G36*
X205580Y-403550D02*
G01*
X175082Y-403550D01*
X175082Y-403492D01*
X180866Y-389527D01*
X191557Y-378836D01*
X205522Y-373050D01*
X205580Y-373050D01*
X205580Y-403550D01*
G37*
%TD.AperFunction*%
%TA.AperFunction,NonConductor*%
G36*
X-840806Y609097D02*
G01*
X-871306Y609097D01*
X-871306Y609156D01*
X-865520Y623123D01*
X-854829Y633814D01*
X-840864Y639597D01*
X-840806Y639597D01*
X-840806Y609097D01*
G37*
%TD.AperFunction*%
%TA.AperFunction,NonConductor*%
G36*
X767344Y-348933D02*
G01*
X761558Y-362900D01*
X750870Y-373588D01*
X736902Y-379374D01*
X736844Y-379374D01*
X736844Y-348874D01*
X767344Y-348874D01*
X767344Y-348933D01*
G37*
%TD.AperFunction*%
%TA.AperFunction,NonConductor*%
G36*
X-274000Y188999D02*
G01*
X-305499Y188999D01*
X-305499Y190058D01*
X-299715Y204026D01*
X-289024Y214714D01*
X-275059Y220500D01*
X-274000Y220500D01*
X-274000Y188999D01*
G37*
%TD.AperFunction*%
D11*
X54501Y550954D02*
G75*
G02*
X29501Y550954I-12500J0D01*
G01*
X29501Y550954D02*
G75*
G02*
X54501Y550954I12500J0D01*
G01*
X482433Y-930758D02*
G75*
G02*
X457433Y-930758I-12500J0D01*
G01*
X457433Y-930758D02*
G75*
G02*
X482433Y-930758I12500J0D01*
G01*
D10*
%TA.AperFunction,NonConductor*%
G36*
X34501Y512956D02*
G01*
X34442Y512956D01*
X20475Y518739D01*
X9787Y529430D01*
X4001Y543397D01*
X4001Y543456D01*
X34501Y543456D01*
X34501Y512956D01*
G37*
%TD.AperFunction*%
D11*
X-820805Y-142499D02*
G75*
G02*
X-845805Y-142499I-12500J0D01*
G01*
X-845805Y-142499D02*
G75*
G02*
X-820805Y-142499I12500J0D01*
G01*
D10*
%TA.AperFunction,NonConductor*%
G36*
X721843Y-379374D02*
G01*
X721784Y-379374D01*
X707819Y-373588D01*
X697128Y-362900D01*
X691345Y-348933D01*
X691345Y-348874D01*
X721843Y-348874D01*
X721843Y-379374D01*
G37*
%TD.AperFunction*%
D11*
X-177680Y-179309D02*
G75*
G02*
X-202680Y-179309I-12500J0D01*
G01*
X-202680Y-179309D02*
G75*
G02*
X-177680Y-179309I12500J0D01*
G01*
X-616498Y574756D02*
G75*
G02*
X-641498Y574756I-12500J0D01*
G01*
X-641498Y574756D02*
G75*
G02*
X-616498Y574756I12500J0D01*
G01*
D10*
%TA.AperFunction,NonConductor*%
G36*
X763031Y369783D02*
G01*
X762973Y369783D01*
X749005Y375569D01*
X738317Y386260D01*
X732531Y400225D01*
X732531Y400284D01*
X763031Y400284D01*
X763031Y369783D01*
G37*
%TD.AperFunction*%
%TA.AperFunction,NonConductor*%
G36*
X-1143041Y713450D02*
G01*
X-1143099Y713450D01*
X-1157064Y719234D01*
X-1167755Y729925D01*
X-1173541Y743890D01*
X-1173541Y743951D01*
X-1143041Y743951D01*
X-1143041Y713450D01*
G37*
%TD.AperFunction*%
D11*
X-1379999Y-419552D02*
G75*
G02*
X-1404999Y-419552I-12500J0D01*
G01*
X-1404999Y-419552D02*
G75*
G02*
X-1379999Y-419552I12500J0D01*
G01*
D10*
%TA.AperFunction,NonConductor*%
G36*
X-944420Y63718D02*
G01*
X-944479Y63718D01*
X-958446Y69505D01*
X-969137Y80193D01*
X-974921Y94160D01*
X-974921Y94219D01*
X-944420Y94219D01*
X-944420Y63718D01*
G37*
%TD.AperFunction*%
%TA.AperFunction,NonConductor*%
G36*
X-274000Y144501D02*
G01*
X-275059Y144501D01*
X-289024Y150284D01*
X-299715Y160975D01*
X-305499Y174940D01*
X-305499Y175999D01*
X-274000Y175999D01*
X-274000Y144501D01*
G37*
%TD.AperFunction*%
D11*
X218992Y-1058499D02*
G75*
G02*
X193992Y-1058499I-12500J0D01*
G01*
X193992Y-1058499D02*
G75*
G02*
X218992Y-1058499I12500J0D01*
G01*
D10*
%TA.AperFunction,NonConductor*%
G36*
X1031999Y486999D02*
G01*
X1036851Y486761D01*
X1041656Y486048D01*
X1046368Y484868D01*
X1050941Y483231D01*
X1055333Y481154D01*
X1059499Y478657D01*
X1063401Y475763D01*
X1067000Y472501D01*
X1070262Y468902D01*
X1073156Y465000D01*
X1075653Y460834D01*
X1077730Y456442D01*
X1079367Y451869D01*
X1080547Y447157D01*
X1081260Y442352D01*
X1081498Y437502D01*
X1081499Y437502D01*
X1081499Y426501D01*
X1081498Y426501D01*
X1081260Y421650D01*
X1080547Y416845D01*
X1079367Y412133D01*
X1077730Y407560D01*
X1075653Y403168D01*
X1073156Y399002D01*
X1070262Y395100D01*
X1067000Y391501D01*
X1063401Y388239D01*
X1059499Y385345D01*
X1055333Y382848D01*
X1050941Y380771D01*
X1046368Y379134D01*
X1041656Y377954D01*
X1036851Y377241D01*
X1031999Y377003D01*
X1031999Y377001D01*
X910998Y377001D01*
X910998Y377004D01*
X906147Y377241D01*
X901342Y377954D01*
X896630Y379134D01*
X892057Y380771D01*
X887665Y382848D01*
X883499Y385345D01*
X879597Y388239D01*
X875998Y391501D01*
X872736Y395100D01*
X869842Y399002D01*
X867345Y403168D01*
X865268Y407560D01*
X863631Y412133D01*
X862451Y416845D01*
X861738Y421650D01*
X861500Y426501D01*
X861499Y426501D01*
X861499Y437502D01*
X861500Y437502D01*
X861738Y442352D01*
X862451Y447157D01*
X863631Y451869D01*
X865268Y456442D01*
X867345Y460834D01*
X869842Y465000D01*
X872736Y468902D01*
X875998Y472501D01*
X879597Y475763D01*
X883499Y478657D01*
X887665Y481154D01*
X892057Y483231D01*
X896630Y484868D01*
X901342Y486048D01*
X906147Y486761D01*
X910998Y486998D01*
X910998Y487001D01*
X1031999Y487001D01*
X1031999Y486999D01*
G37*
%TD.AperFunction*%
D11*
X962501Y-1124999D02*
G75*
G02*
X937501Y-1124999I-12500J0D01*
G01*
X937501Y-1124999D02*
G75*
G02*
X962501Y-1124999I12500J0D01*
G01*
X-33136Y-209001D02*
G75*
G02*
X-58136Y-209001I-12500J0D01*
G01*
X-58136Y-209001D02*
G75*
G02*
X-33136Y-209001I12500J0D01*
G01*
D10*
%TA.AperFunction,NonConductor*%
G36*
X-454632Y-877001D02*
G01*
X-454693Y-877001D01*
X-468658Y-871215D01*
X-479349Y-860524D01*
X-485132Y-846559D01*
X-485132Y-846501D01*
X-454632Y-846501D01*
X-454632Y-877001D01*
G37*
%TD.AperFunction*%
D11*
X-1090233Y646364D02*
G75*
G02*
X-1115233Y646364I-12500J0D01*
G01*
X-1115233Y646364D02*
G75*
G02*
X-1090233Y646364I12500J0D01*
G01*
D10*
%TA.AperFunction,NonConductor*%
G36*
X-627499Y-422499D02*
G01*
X-658000Y-422499D01*
X-658000Y-422440D01*
X-652214Y-408473D01*
X-641525Y-397784D01*
X-627558Y-391998D01*
X-627499Y-391998D01*
X-627499Y-422499D01*
G37*
%TD.AperFunction*%
D11*
X-1059512Y-424244D02*
G75*
G02*
X-1084512Y-424244I-12500J0D01*
G01*
X-1084512Y-424244D02*
G75*
G02*
X-1059512Y-424244I12500J0D01*
G01*
X-434634Y-839000D02*
G75*
G02*
X-459634Y-839000I-12500J0D01*
G01*
X-459634Y-839000D02*
G75*
G02*
X-434634Y-839000I12500J0D01*
G01*
X-1200055Y-202085D02*
G75*
G02*
X-1225055Y-202085I-12500J0D01*
G01*
X-1225055Y-202085D02*
G75*
G02*
X-1200055Y-202085I12500J0D01*
G01*
D10*
%TA.AperFunction,NonConductor*%
G36*
X-878652Y-409019D02*
G01*
X-878713Y-409019D01*
X-892678Y-403233D01*
X-903369Y-392544D01*
X-909152Y-378577D01*
X-909152Y-378518D01*
X-878652Y-378518D01*
X-878652Y-409019D01*
G37*
%TD.AperFunction*%
%TA.AperFunction,NonConductor*%
G36*
X-111501Y26500D02*
G01*
X-142999Y26500D01*
X-142999Y27559D01*
X-137213Y41524D01*
X-126525Y52215D01*
X-112558Y57998D01*
X-111501Y57998D01*
X-111501Y26500D01*
G37*
%TD.AperFunction*%
%TA.AperFunction,NonConductor*%
G36*
X-436499Y188999D02*
G01*
X-468000Y188999D01*
X-468000Y190058D01*
X-462214Y204026D01*
X-451526Y214714D01*
X-437558Y220500D01*
X-436499Y220500D01*
X-436499Y188999D01*
G37*
%TD.AperFunction*%
D11*
X-453001Y-56683D02*
G75*
G02*
X-478001Y-56683I-12500J0D01*
G01*
X-478001Y-56683D02*
G75*
G02*
X-453001Y-56683I12500J0D01*
G01*
D10*
%TA.AperFunction,NonConductor*%
G36*
X-591000Y567197D02*
G01*
X-596783Y553232D01*
X-607474Y542541D01*
X-621441Y536755D01*
X-621500Y536755D01*
X-621500Y567256D01*
X-591000Y567256D01*
X-591000Y567197D01*
G37*
%TD.AperFunction*%
%TA.AperFunction,NonConductor*%
G36*
X-508904Y693402D02*
G01*
X-508963Y693402D01*
X-522930Y699188D01*
X-533618Y709877D01*
X-539405Y723844D01*
X-539405Y723903D01*
X-508904Y723903D01*
X-508904Y693402D01*
G37*
%TD.AperFunction*%
%TA.AperFunction,NonConductor*%
G36*
X-833153Y-378577D02*
G01*
X-838939Y-392544D01*
X-849627Y-403233D01*
X-863595Y-409019D01*
X-863653Y-409019D01*
X-863653Y-378518D01*
X-833153Y-378518D01*
X-833153Y-378577D01*
G37*
%TD.AperFunction*%
D11*
X-835520Y-265372D02*
G75*
G02*
X-860520Y-265372I-12500J0D01*
G01*
X-860520Y-265372D02*
G75*
G02*
X-835520Y-265372I12500J0D01*
G01*
D10*
%TA.AperFunction,NonConductor*%
G36*
X171524Y472214D02*
G01*
X182215Y461523D01*
X187998Y447558D01*
X187998Y447500D01*
X157500Y447500D01*
X157500Y478000D01*
X157559Y478000D01*
X171524Y472214D01*
G37*
%TD.AperFunction*%
D11*
X-417499Y20000D02*
G75*
G02*
X-442499Y20000I-12500J0D01*
G01*
X-442499Y20000D02*
G75*
G02*
X-417499Y20000I12500J0D01*
G01*
X741843Y-341373D02*
G75*
G02*
X716843Y-341373I-12500J0D01*
G01*
X716843Y-341373D02*
G75*
G02*
X741843Y-341373I12500J0D01*
G01*
D10*
%TA.AperFunction,NonConductor*%
G36*
X-1265939Y661170D02*
G01*
X-1296436Y661170D01*
X-1296436Y661228D01*
X-1290653Y675196D01*
X-1279962Y685886D01*
X-1265997Y691670D01*
X-1265939Y691670D01*
X-1265939Y661170D01*
G37*
%TD.AperFunction*%
D11*
X-1162499Y1124999D02*
G75*
G02*
X-1187499Y1124999I-12500J0D01*
G01*
X-1187499Y1124999D02*
G75*
G02*
X-1162499Y1124999I12500J0D01*
G01*
X-1366954Y-152999D02*
G75*
G02*
X-1391954Y-152999I-12500J0D01*
G01*
X-1391954Y-152999D02*
G75*
G02*
X-1366954Y-152999I12500J0D01*
G01*
D10*
%TA.AperFunction,NonConductor*%
G36*
X995962Y566158D02*
G01*
X995904Y566158D01*
X981939Y571942D01*
X971248Y582633D01*
X965464Y596600D01*
X965464Y596659D01*
X995962Y596659D01*
X995962Y566158D01*
G37*
%TD.AperFunction*%
%TA.AperFunction,NonConductor*%
G36*
X-1143041Y758949D02*
G01*
X-1173541Y758949D01*
X-1173541Y759008D01*
X-1167755Y772975D01*
X-1157064Y783664D01*
X-1143099Y789450D01*
X-1143041Y789450D01*
X-1143041Y758949D01*
G37*
%TD.AperFunction*%
D11*
X-1244500Y-389999D02*
G75*
G02*
X-1269500Y-389999I-12500J0D01*
G01*
X-1269500Y-389999D02*
G75*
G02*
X-1244500Y-389999I12500J0D01*
G01*
D10*
%TA.AperFunction,NonConductor*%
G36*
X95387Y-891243D02*
G01*
X64887Y-891243D01*
X64887Y-891184D01*
X70673Y-877217D01*
X81361Y-866529D01*
X95329Y-860743D01*
X95387Y-860743D01*
X95387Y-891243D01*
G37*
%TD.AperFunction*%
D11*
X-222168Y855932D02*
G75*
G02*
X-247168Y855932I-12500J0D01*
G01*
X-247168Y855932D02*
G75*
G02*
X-222168Y855932I12500J0D01*
G01*
X490906Y334907D02*
G75*
G02*
X465906Y334907I-12500J0D01*
G01*
X465906Y334907D02*
G75*
G02*
X490906Y334907I12500J0D01*
G01*
D10*
%TA.AperFunction,NonConductor*%
G36*
X-408475Y214714D02*
G01*
X-397784Y204026D01*
X-392001Y190058D01*
X-392001Y188999D01*
X-423499Y188999D01*
X-423499Y220500D01*
X-422440Y220500D01*
X-408475Y214714D01*
G37*
%TD.AperFunction*%
%TA.AperFunction,NonConductor*%
G36*
X-878652Y-363520D02*
G01*
X-909152Y-363520D01*
X-909152Y-363459D01*
X-903369Y-349494D01*
X-892678Y-338803D01*
X-878713Y-333019D01*
X-878652Y-333019D01*
X-878652Y-363520D01*
G37*
%TD.AperFunction*%
D11*
X-1000066Y-777499D02*
G75*
G02*
X-1025066Y-777499I-12500J0D01*
G01*
X-1025066Y-777499D02*
G75*
G02*
X-1000066Y-777499I12500J0D01*
G01*
D10*
%TA.AperFunction,NonConductor*%
G36*
X462435Y-968756D02*
G01*
X462377Y-968756D01*
X448409Y-962972D01*
X437718Y-952282D01*
X431935Y-938317D01*
X431935Y-938256D01*
X462435Y-938256D01*
X462435Y-968756D01*
G37*
%TD.AperFunction*%
%TA.AperFunction,NonConductor*%
G36*
X448008Y-839059D02*
G01*
X454459Y-843369D01*
X462067Y-844883D01*
X591764Y-844883D01*
X784182Y-1037300D01*
X782803Y-1044357D01*
X779457Y-1050000D01*
X244102Y-1050000D01*
X238707Y-1036975D01*
X228016Y-1026284D01*
X214051Y-1020501D01*
X198933Y-1020501D01*
X188422Y-1024854D01*
X61250Y-1024854D01*
X60173Y-1019434D01*
X52878Y-1008520D01*
X38255Y-993894D01*
X38255Y-857382D01*
X60251Y-835383D01*
X62210Y-835774D01*
X113652Y-835774D01*
X128481Y-832825D01*
X141049Y-824426D01*
X189608Y-775866D01*
X199547Y-769224D01*
X236451Y-732320D01*
X243093Y-722381D01*
X252834Y-712640D01*
X261231Y-700072D01*
X264180Y-685244D01*
X264180Y-671825D01*
X275915Y-666963D01*
X448008Y-839059D01*
G37*
%TD.AperFunction*%
D11*
X-659452Y980938D02*
G75*
G02*
X-684452Y980938I-12500J0D01*
G01*
X-684452Y980938D02*
G75*
G02*
X-659452Y980938I12500J0D01*
G01*
D10*
%TA.AperFunction,NonConductor*%
G36*
X1042909Y316553D02*
G01*
X1052053Y307411D01*
X1057001Y295466D01*
X1057001Y282534D01*
X1052053Y270589D01*
X1042909Y261447D01*
X1030966Y256499D01*
X1018035Y256499D01*
X1006089Y261447D01*
X996947Y270589D01*
X992000Y282534D01*
X992000Y295466D01*
X996947Y307411D01*
X1006089Y316553D01*
X1018035Y321501D01*
X1030966Y321501D01*
X1042909Y316553D01*
G37*
%TD.AperFunction*%
D11*
X-607499Y-429999D02*
G75*
G02*
X-632499Y-429999I-12500J0D01*
G01*
X-632499Y-429999D02*
G75*
G02*
X-607499Y-429999I12500J0D01*
G01*
D10*
%TA.AperFunction,NonConductor*%
G36*
X-1265939Y615671D02*
G01*
X-1265997Y615671D01*
X-1279962Y621454D01*
X-1290653Y632145D01*
X-1296436Y646113D01*
X-1296436Y646171D01*
X-1265939Y646171D01*
X-1265939Y615671D01*
G37*
%TD.AperFunction*%
%TA.AperFunction,NonConductor*%
G36*
X664037Y810313D02*
G01*
X674726Y799625D01*
X680512Y785658D01*
X680512Y770542D01*
X674726Y756575D01*
X664037Y745884D01*
X650070Y740100D01*
X634952Y740100D01*
X620987Y745884D01*
X610296Y756575D01*
X610126Y756984D01*
X586918Y756984D01*
X585727Y754106D01*
X575036Y743417D01*
X561071Y737631D01*
X545953Y737631D01*
X531985Y743417D01*
X521297Y754106D01*
X515511Y768073D01*
X515511Y783191D01*
X521297Y797156D01*
X531985Y807847D01*
X545953Y813631D01*
X561071Y813631D01*
X575036Y807847D01*
X585727Y797156D01*
X585897Y796747D01*
X609105Y796747D01*
X610296Y799625D01*
X620987Y810313D01*
X634952Y816099D01*
X650070Y816099D01*
X664037Y810313D01*
G37*
%TD.AperFunction*%
D11*
X-587499Y829998D02*
G75*
G02*
X-612499Y829998I-12500J0D01*
G01*
X-612499Y829998D02*
G75*
G02*
X-587499Y829998I12500J0D01*
G01*
X-1245938Y653672D02*
G75*
G02*
X-1270938Y653672I-12500J0D01*
G01*
X-1270938Y653672D02*
G75*
G02*
X-1245938Y653672I12500J0D01*
G01*
D10*
%TA.AperFunction,NonConductor*%
G36*
X1041464Y596600D02*
G01*
X1035677Y582633D01*
X1024989Y571942D01*
X1011022Y566158D01*
X1010963Y566158D01*
X1010963Y596659D01*
X1041464Y596659D01*
X1041464Y596600D01*
G37*
%TD.AperFunction*%
D11*
X508760Y-632849D02*
G75*
G02*
X483760Y-632849I-12500J0D01*
G01*
X483760Y-632849D02*
G75*
G02*
X508760Y-632849I12500J0D01*
G01*
D10*
%TA.AperFunction,NonConductor*%
G36*
X-944420Y109217D02*
G01*
X-974921Y109217D01*
X-974921Y109278D01*
X-969137Y123243D01*
X-958446Y133934D01*
X-944479Y139718D01*
X-944420Y139718D01*
X-944420Y109217D01*
G37*
%TD.AperFunction*%
%TA.AperFunction,NonConductor*%
G36*
X792056Y439999D02*
G01*
X802747Y429308D01*
X808533Y415343D01*
X808533Y415285D01*
X778032Y415285D01*
X778032Y445785D01*
X778091Y445785D01*
X792056Y439999D01*
G37*
%TD.AperFunction*%
%TA.AperFunction,NonConductor*%
G36*
X-33757Y138001D02*
G01*
X-29942Y138001D01*
X-26416Y136540D01*
X-22672Y135796D01*
X-19500Y133675D01*
X-15974Y132215D01*
X-13277Y129517D01*
X-10104Y127396D01*
X138549Y-21255D01*
X199659Y-21255D01*
X202161Y-21753D01*
X204661Y-21255D01*
X240452Y-21255D01*
X259603Y-2103D01*
X262778Y15D01*
X265476Y2715D01*
X269001Y4176D01*
X272174Y6294D01*
X275918Y7038D01*
X279443Y8499D01*
X283258Y8499D01*
X287000Y9243D01*
X290744Y8499D01*
X294559Y8499D01*
X298084Y7038D01*
X301828Y6294D01*
X305001Y4176D01*
X308526Y2715D01*
X311224Y15D01*
X314396Y-2103D01*
X316517Y-5278D01*
X319215Y-7976D01*
X320675Y-11501D01*
X322796Y-14674D01*
X323540Y-18418D01*
X325001Y-21943D01*
X325001Y-25758D01*
X325745Y-29500D01*
X325001Y-33244D01*
X325001Y-37059D01*
X323540Y-40584D01*
X322796Y-44328D01*
X320675Y-47501D01*
X319215Y-51026D01*
X316517Y-53724D01*
X314396Y-56896D01*
X283898Y-87396D01*
X271328Y-95796D01*
X256502Y-98745D01*
X238404Y-98745D01*
X238404Y-192778D01*
X235455Y-207604D01*
X227056Y-220175D01*
X218036Y-229194D01*
X214864Y-231313D01*
X212166Y-234013D01*
X208641Y-235473D01*
X205468Y-237592D01*
X201724Y-238336D01*
X198199Y-239796D01*
X194384Y-239796D01*
X190640Y-240541D01*
X186898Y-239796D01*
X183081Y-239796D01*
X179558Y-238336D01*
X175814Y-237592D01*
X172641Y-235473D01*
X169116Y-234013D01*
X166416Y-231313D01*
X163243Y-229194D01*
X161122Y-226019D01*
X158425Y-223322D01*
X156964Y-219796D01*
X154846Y-216624D01*
X154099Y-212880D01*
X152641Y-209357D01*
X152641Y-205539D01*
X151895Y-201798D01*
X152641Y-198054D01*
X152641Y-194239D01*
X154099Y-190713D01*
X154846Y-186969D01*
X156964Y-183797D01*
X158425Y-180271D01*
X160917Y-177782D01*
X160917Y-98745D01*
X122499Y-98745D01*
X107673Y-95796D01*
X95103Y-87396D01*
X93688Y-85278D01*
X91567Y-83861D01*
X-64897Y72603D01*
X-67015Y75776D01*
X-69715Y78476D01*
X-71173Y81999D01*
X-73294Y85174D01*
X-74038Y88915D01*
X-75499Y92441D01*
X-75499Y96258D01*
X-76243Y100000D01*
X-75499Y103744D01*
X-75499Y107559D01*
X-74038Y111084D01*
X-73294Y114828D01*
X-71173Y118001D01*
X-69715Y121526D01*
X-67015Y124224D01*
X-64897Y127396D01*
X-61722Y129517D01*
X-59025Y132215D01*
X-55499Y133675D01*
X-52327Y135796D01*
X-48583Y136540D01*
X-45057Y138001D01*
X-41242Y138001D01*
X-37501Y138745D01*
X-33757Y138001D01*
G37*
%TD.AperFunction*%
D11*
X292499Y859998D02*
G75*
G02*
X267499Y859998I-12500J0D01*
G01*
X267499Y859998D02*
G75*
G02*
X292499Y859998I12500J0D01*
G01*
X203140Y-201798D02*
G75*
G02*
X178140Y-201798I-12500J0D01*
G01*
X178140Y-201798D02*
G75*
G02*
X203140Y-201798I12500J0D01*
G01*
X-924422Y101719D02*
G75*
G02*
X-949422Y101719I-12500J0D01*
G01*
X-949422Y101719D02*
G75*
G02*
X-924422Y101719I12500J0D01*
G01*
D10*
%TA.AperFunction,NonConductor*%
G36*
X1031999Y-377003D02*
G01*
X1036851Y-377241D01*
X1041656Y-377954D01*
X1046368Y-379134D01*
X1050941Y-380771D01*
X1055333Y-382848D01*
X1059499Y-385345D01*
X1063401Y-388239D01*
X1067000Y-391501D01*
X1070262Y-395100D01*
X1073156Y-399002D01*
X1075653Y-403168D01*
X1077730Y-407560D01*
X1079367Y-412133D01*
X1080547Y-416845D01*
X1081260Y-421650D01*
X1081498Y-426500D01*
X1081499Y-426500D01*
X1081499Y-437501D01*
X1081498Y-437501D01*
X1081260Y-442352D01*
X1080547Y-447157D01*
X1079367Y-451869D01*
X1077730Y-456442D01*
X1075653Y-460834D01*
X1073156Y-465000D01*
X1070262Y-468902D01*
X1067000Y-472501D01*
X1063401Y-475763D01*
X1059499Y-478657D01*
X1055333Y-481154D01*
X1050941Y-483231D01*
X1046368Y-484868D01*
X1041656Y-486048D01*
X1036851Y-486761D01*
X1031999Y-486999D01*
X1031999Y-487001D01*
X910998Y-487001D01*
X910998Y-486998D01*
X906147Y-486761D01*
X901342Y-486048D01*
X896630Y-484868D01*
X892057Y-483231D01*
X887665Y-481154D01*
X883499Y-478657D01*
X879597Y-475763D01*
X875998Y-472501D01*
X872736Y-468902D01*
X869842Y-465000D01*
X867345Y-460834D01*
X865268Y-456442D01*
X863631Y-451869D01*
X862451Y-447157D01*
X861738Y-442352D01*
X861500Y-437501D01*
X861499Y-437501D01*
X861499Y-426500D01*
X861500Y-426500D01*
X861738Y-421650D01*
X862451Y-416845D01*
X863631Y-412133D01*
X865268Y-407560D01*
X867345Y-403168D01*
X869842Y-399002D01*
X872736Y-395100D01*
X875998Y-391501D01*
X879597Y-388239D01*
X883499Y-385345D01*
X887665Y-382848D01*
X892057Y-380771D01*
X896630Y-379134D01*
X901342Y-377954D01*
X906147Y-377241D01*
X910998Y-377004D01*
X910998Y-377001D01*
X1031999Y-377001D01*
X1031999Y-377003D01*
G37*
%TD.AperFunction*%
%TA.AperFunction,NonConductor*%
G36*
X516405Y327348D02*
G01*
X510621Y313383D01*
X499930Y302692D01*
X485966Y296906D01*
X485905Y296906D01*
X485905Y327406D01*
X516405Y327406D01*
X516405Y327348D01*
G37*
%TD.AperFunction*%
%TA.AperFunction,NonConductor*%
G36*
X995962Y611657D02*
G01*
X965464Y611657D01*
X965464Y611716D01*
X971248Y625683D01*
X981939Y636374D01*
X995904Y642158D01*
X995962Y642158D01*
X995962Y611657D01*
G37*
%TD.AperFunction*%
%TA.AperFunction,NonConductor*%
G36*
X1424999Y486998D02*
G01*
X1429850Y486761D01*
X1434655Y486048D01*
X1439367Y484868D01*
X1443940Y483231D01*
X1448332Y481154D01*
X1452498Y478657D01*
X1456400Y475763D01*
X1459999Y472501D01*
X1463261Y468902D01*
X1466155Y465000D01*
X1468652Y460834D01*
X1470729Y456442D01*
X1472366Y451869D01*
X1473546Y447157D01*
X1474259Y442352D01*
X1474497Y437502D01*
X1474499Y437502D01*
X1474499Y426501D01*
X1474497Y426501D01*
X1474259Y421650D01*
X1473546Y416845D01*
X1472366Y412133D01*
X1470729Y407560D01*
X1468652Y403168D01*
X1466155Y399002D01*
X1463261Y395100D01*
X1459999Y391501D01*
X1456400Y388239D01*
X1452498Y385345D01*
X1448332Y382848D01*
X1443940Y380771D01*
X1439367Y379134D01*
X1434655Y377954D01*
X1429850Y377241D01*
X1424999Y377004D01*
X1424999Y377001D01*
X1353998Y377001D01*
X1353998Y377004D01*
X1349148Y377241D01*
X1344343Y377954D01*
X1339631Y379134D01*
X1335058Y380771D01*
X1330666Y382848D01*
X1326500Y385345D01*
X1322598Y388239D01*
X1318999Y391501D01*
X1315737Y395100D01*
X1312843Y399002D01*
X1310346Y403168D01*
X1308269Y407560D01*
X1306632Y412133D01*
X1305452Y416845D01*
X1304739Y421650D01*
X1304501Y426501D01*
X1304499Y426501D01*
X1304499Y437502D01*
X1304501Y437502D01*
X1304739Y442352D01*
X1305452Y447157D01*
X1306632Y451869D01*
X1308269Y456442D01*
X1310346Y460834D01*
X1312843Y465000D01*
X1315737Y468902D01*
X1318999Y472501D01*
X1322598Y475763D01*
X1326500Y478657D01*
X1330666Y481154D01*
X1335058Y483231D01*
X1339631Y484868D01*
X1344343Y486048D01*
X1349148Y486761D01*
X1353998Y486998D01*
X1353998Y487001D01*
X1424999Y487001D01*
X1424999Y486998D01*
G37*
%TD.AperFunction*%
%TA.AperFunction,NonConductor*%
G36*
X-67000Y12441D02*
G01*
X-72784Y-1527D01*
X-83475Y-12215D01*
X-97442Y-18001D01*
X-98501Y-18001D01*
X-98501Y13500D01*
X-67000Y13500D01*
X-67000Y12441D01*
G37*
%TD.AperFunction*%
D11*
X-516999Y232905D02*
G75*
G02*
X-541999Y232905I-12500J0D01*
G01*
X-541999Y232905D02*
G75*
G02*
X-516999Y232905I12500J0D01*
G01*
X69556Y-664002D02*
G75*
G02*
X44556Y-664002I-12500J0D01*
G01*
X44556Y-664002D02*
G75*
G02*
X69556Y-664002I12500J0D01*
G01*
X566012Y775632D02*
G75*
G02*
X541012Y775632I-12500J0D01*
G01*
X541012Y775632D02*
G75*
G02*
X566012Y775632I12500J0D01*
G01*
X124501Y758571D02*
G75*
G02*
X99501Y758571I-12500J0D01*
G01*
X99501Y758571D02*
G75*
G02*
X124501Y758571I12500J0D01*
G01*
X325908Y759668D02*
G75*
G02*
X300908Y759668I-12500J0D01*
G01*
X300908Y759668D02*
G75*
G02*
X325908Y759668I12500J0D01*
G01*
X-255000Y182499D02*
G75*
G02*
X-280000Y182499I-12500J0D01*
G01*
X-280000Y182499D02*
G75*
G02*
X-255000Y182499I12500J0D01*
G01*
X-1345498Y-963681D02*
G75*
G02*
X-1370498Y-963681I-12500J0D01*
G01*
X-1370498Y-963681D02*
G75*
G02*
X-1345498Y-963681I12500J0D01*
G01*
D10*
%TA.AperFunction,NonConductor*%
G36*
X-811779Y633814D02*
G01*
X-801091Y623123D01*
X-795304Y609156D01*
X-795304Y609097D01*
X-825805Y609097D01*
X-825805Y639597D01*
X-825746Y639597D01*
X-811779Y633814D01*
G37*
%TD.AperFunction*%
%TA.AperFunction,NonConductor*%
G36*
X-1357927Y-120785D02*
G01*
X-1347239Y-131475D01*
X-1341453Y-145443D01*
X-1341453Y-145501D01*
X-1371953Y-145501D01*
X-1371953Y-115001D01*
X-1371895Y-115001D01*
X-1357927Y-120785D01*
G37*
%TD.AperFunction*%
%TA.AperFunction,NonConductor*%
G36*
X-1058474Y432214D02*
G01*
X-1047783Y421523D01*
X-1041999Y407558D01*
X-1041999Y392440D01*
X-1038512Y388635D01*
X-1032063Y384325D01*
X-1024247Y376509D01*
X-1019937Y370060D01*
X-1018423Y362450D01*
X-1018423Y351328D01*
X-1016978Y349882D01*
X-713895Y349882D01*
X-713214Y351523D01*
X-702523Y362214D01*
X-688558Y368000D01*
X-673440Y368000D01*
X-659473Y362214D01*
X-648785Y351523D01*
X-642998Y337558D01*
X-642998Y322440D01*
X-648785Y308475D01*
X-659473Y297785D01*
X-673440Y291998D01*
X-688558Y291998D01*
X-702523Y297785D01*
X-713214Y308475D01*
X-713895Y310119D01*
X-1025213Y310119D01*
X-1032822Y311630D01*
X-1039271Y315940D01*
X-1052365Y329032D01*
X-1056676Y335483D01*
X-1058187Y343091D01*
X-1058187Y352829D01*
X-1063241Y356207D01*
X-1070031Y362996D01*
X-1072439Y361998D01*
X-1087557Y361998D01*
X-1101524Y367784D01*
X-1112213Y378475D01*
X-1117999Y392440D01*
X-1117999Y407558D01*
X-1112213Y421523D01*
X-1101524Y432214D01*
X-1087557Y438000D01*
X-1072439Y438000D01*
X-1058474Y432214D01*
G37*
%TD.AperFunction*%
D11*
X-313776Y850565D02*
G75*
G02*
X-338776Y850565I-12500J0D01*
G01*
X-338776Y850565D02*
G75*
G02*
X-313776Y850565I12500J0D01*
G01*
X299500Y-29500D02*
G75*
G02*
X274500Y-29500I-12500J0D01*
G01*
X274500Y-29500D02*
G75*
G02*
X299500Y-29500I12500J0D01*
G01*
D10*
%TA.AperFunction,NonConductor*%
G36*
X448130Y41290D02*
G01*
X442346Y27325D01*
X431655Y16634D01*
X417688Y10851D01*
X417629Y10851D01*
X417629Y41351D01*
X448130Y41351D01*
X448130Y41290D01*
G37*
%TD.AperFunction*%
D11*
X-62501Y-486999D02*
G75*
G02*
X-87501Y-486999I-12500J0D01*
G01*
X-87501Y-486999D02*
G75*
G02*
X-62501Y-486999I12500J0D01*
G01*
D10*
%TA.AperFunction,NonConductor*%
G36*
X-392001Y174940D02*
G01*
X-397784Y160975D01*
X-408475Y150284D01*
X-422440Y144501D01*
X-423499Y144501D01*
X-423499Y175999D01*
X-392001Y175999D01*
X-392001Y174940D01*
G37*
%TD.AperFunction*%
%TA.AperFunction,NonConductor*%
G36*
X402631Y56350D02*
G01*
X372130Y56350D01*
X372130Y56408D01*
X377916Y70376D01*
X388605Y81064D01*
X402572Y86850D01*
X402631Y86850D01*
X402631Y56350D01*
G37*
%TD.AperFunction*%
%TA.AperFunction,NonConductor*%
G36*
X-168653Y-147094D02*
G01*
X-157965Y-157785D01*
X-146441Y-152712D01*
X-142999Y-150058D01*
X-142999Y-149001D01*
X-105001Y-149001D01*
X-67000Y-149001D01*
X-67000Y-150058D01*
X-72784Y-164026D01*
X-67440Y-176639D01*
X-67160Y-176787D01*
X-53195Y-171000D01*
X-38077Y-171000D01*
X-24110Y-176787D01*
X-13421Y-187475D01*
X-7635Y-201442D01*
X-7635Y-216560D01*
X-13421Y-230525D01*
X-24110Y-241216D01*
X-38077Y-247002D01*
X-53195Y-247002D01*
X-67160Y-241216D01*
X-73376Y-235001D01*
X-115179Y-235001D01*
X-125128Y-233022D01*
X-133563Y-227386D01*
X-150856Y-210091D01*
X-167221Y-210091D01*
X-168653Y-211524D01*
X-182621Y-217310D01*
X-197739Y-217310D01*
X-211704Y-211524D01*
X-222395Y-200835D01*
X-228178Y-186868D01*
X-228178Y-174882D01*
X-237368Y-169324D01*
X-239913Y-168653D01*
X-245974Y-174714D01*
X-259941Y-180500D01*
X-261000Y-180500D01*
X-261000Y-148999D01*
X-226075Y-148999D01*
X-220309Y-152484D01*
X-217767Y-153157D01*
X-211704Y-147094D01*
X-197739Y-141310D01*
X-182621Y-141310D01*
X-168653Y-147094D01*
G37*
%TD.AperFunction*%
%TA.AperFunction,NonConductor*%
G36*
X-436499Y26500D02*
G01*
X-468000Y26500D01*
X-468000Y27559D01*
X-462214Y41524D01*
X-451526Y52215D01*
X-437558Y57998D01*
X-436499Y57998D01*
X-436499Y26500D01*
G37*
%TD.AperFunction*%
%TA.AperFunction,NonConductor*%
G36*
X-974565Y-785058D02*
G01*
X-980351Y-799026D01*
X-991039Y-809714D01*
X-1005007Y-815500D01*
X-1005065Y-815500D01*
X-1005065Y-785000D01*
X-974565Y-785000D01*
X-974565Y-785058D01*
G37*
%TD.AperFunction*%
D11*
X632501Y29924D02*
G75*
G02*
X607501Y29924I-12500J0D01*
G01*
X607501Y29924D02*
G75*
G02*
X632501Y29924I12500J0D01*
G01*
X-728388Y915236D02*
G75*
G02*
X-753388Y915236I-12500J0D01*
G01*
X-753388Y915236D02*
G75*
G02*
X-728388Y915236I12500J0D01*
G01*
D10*
%TA.AperFunction,NonConductor*%
G36*
X750870Y-309159D02*
G01*
X761558Y-319847D01*
X767344Y-333814D01*
X767344Y-333873D01*
X736844Y-333873D01*
X736844Y-303373D01*
X736902Y-303373D01*
X750870Y-309159D01*
G37*
%TD.AperFunction*%
%TA.AperFunction,NonConductor*%
G36*
X-888474Y-927783D02*
G01*
X-877783Y-938474D01*
X-872000Y-952439D01*
X-872000Y-952497D01*
X-902500Y-952497D01*
X-902500Y-921997D01*
X-902439Y-921997D01*
X-888474Y-927783D01*
G37*
%TD.AperFunction*%
D11*
X-519673Y878964D02*
G75*
G02*
X-544673Y878964I-12500J0D01*
G01*
X-544673Y878964D02*
G75*
G02*
X-519673Y878964I12500J0D01*
G01*
D10*
%TA.AperFunction,NonConductor*%
G36*
X1187999Y1117443D02*
G01*
X1182215Y1103475D01*
X1171524Y1092784D01*
X1157559Y1087001D01*
X1157501Y1087001D01*
X1157501Y1117501D01*
X1187999Y1117501D01*
X1187999Y1117443D01*
G37*
%TD.AperFunction*%
%TA.AperFunction,NonConductor*%
G36*
X-1236911Y685886D02*
G01*
X-1226223Y675196D01*
X-1220437Y661228D01*
X-1220437Y661170D01*
X-1250937Y661170D01*
X-1250937Y691670D01*
X-1250879Y691670D01*
X-1236911Y685886D01*
G37*
%TD.AperFunction*%
%TA.AperFunction,NonConductor*%
G36*
X-598475Y-397784D02*
G01*
X-587784Y-408473D01*
X-582000Y-422440D01*
X-582000Y-422499D01*
X-612501Y-422499D01*
X-612501Y-391998D01*
X-612440Y-391998D01*
X-598475Y-397784D01*
G37*
%TD.AperFunction*%
%TA.AperFunction,NonConductor*%
G36*
X491460Y-898543D02*
G01*
X502148Y-909231D01*
X507934Y-923199D01*
X507934Y-923257D01*
X477434Y-923257D01*
X477434Y-892757D01*
X477492Y-892757D01*
X491460Y-898543D01*
G37*
%TD.AperFunction*%
%TA.AperFunction,NonConductor*%
G36*
X1424999Y-377004D02*
G01*
X1429850Y-377241D01*
X1434655Y-377954D01*
X1439367Y-379134D01*
X1443940Y-380771D01*
X1448332Y-382848D01*
X1452498Y-385345D01*
X1456400Y-388239D01*
X1459999Y-391501D01*
X1463261Y-395100D01*
X1466155Y-399002D01*
X1468652Y-403168D01*
X1470729Y-407560D01*
X1472366Y-412133D01*
X1473546Y-416845D01*
X1474259Y-421650D01*
X1474497Y-426500D01*
X1474499Y-426500D01*
X1474499Y-437501D01*
X1474497Y-437501D01*
X1474259Y-442352D01*
X1473546Y-447157D01*
X1472366Y-451869D01*
X1470729Y-456442D01*
X1468652Y-460834D01*
X1466155Y-465000D01*
X1463261Y-468902D01*
X1459999Y-472501D01*
X1456400Y-475763D01*
X1452498Y-478657D01*
X1448332Y-481154D01*
X1443940Y-483231D01*
X1439367Y-484868D01*
X1434655Y-486048D01*
X1429850Y-486761D01*
X1424999Y-486998D01*
X1424999Y-487001D01*
X1353998Y-487001D01*
X1353998Y-486998D01*
X1349148Y-486761D01*
X1344343Y-486048D01*
X1339631Y-484868D01*
X1335058Y-483231D01*
X1330666Y-481154D01*
X1326500Y-478657D01*
X1322598Y-475763D01*
X1318999Y-472501D01*
X1315737Y-468902D01*
X1312843Y-465000D01*
X1310346Y-460834D01*
X1308269Y-456442D01*
X1306632Y-451869D01*
X1305452Y-447157D01*
X1304739Y-442352D01*
X1304501Y-437501D01*
X1304499Y-437501D01*
X1304499Y-426500D01*
X1304501Y-426500D01*
X1304739Y-421650D01*
X1305452Y-416845D01*
X1306632Y-412133D01*
X1308269Y-407560D01*
X1310346Y-403168D01*
X1312843Y-399002D01*
X1315737Y-395100D01*
X1318999Y-391501D01*
X1322598Y-388239D01*
X1326500Y-385345D01*
X1330666Y-382848D01*
X1335058Y-380771D01*
X1339631Y-379134D01*
X1344343Y-377954D01*
X1349148Y-377241D01*
X1353998Y-377004D01*
X1353998Y-377001D01*
X1424999Y-377001D01*
X1424999Y-377004D01*
G37*
%TD.AperFunction*%
D11*
X-1227498Y-80000D02*
G75*
G02*
X-1252498Y-80000I-12500J0D01*
G01*
X-1252498Y-80000D02*
G75*
G02*
X-1227498Y-80000I12500J0D01*
G01*
X-488904Y731403D02*
G75*
G02*
X-513904Y731403I-12500J0D01*
G01*
X-513904Y731403D02*
G75*
G02*
X-488904Y731403I12500J0D01*
G01*
D10*
%TA.AperFunction,NonConductor*%
G36*
X462435Y-923257D02*
G01*
X431935Y-923257D01*
X431935Y-923199D01*
X437718Y-909231D01*
X448409Y-898543D01*
X462377Y-892757D01*
X462435Y-892757D01*
X462435Y-923257D01*
G37*
%TD.AperFunction*%
D11*
X-663739Y-578063D02*
G75*
G02*
X-688739Y-578063I-12500J0D01*
G01*
X-688739Y-578063D02*
G75*
G02*
X-663739Y-578063I12500J0D01*
G01*
D12*
X-982751Y-1007501D02*
G75*
G02*
X-1038251Y-1007501I-27750J0D01*
G01*
X-1038251Y-1007501D02*
G75*
G02*
X-982751Y-1007501I27750J0D01*
G01*
D11*
X-158808Y861306D02*
G75*
G02*
X-183808Y861306I-12500J0D01*
G01*
X-183808Y861306D02*
G75*
G02*
X-158808Y861306I12500J0D01*
G01*
D10*
%TA.AperFunction,NonConductor*%
G36*
X-582000Y-437558D02*
G01*
X-587784Y-451526D01*
X-598475Y-462214D01*
X-612440Y-468000D01*
X-612501Y-468000D01*
X-612501Y-437500D01*
X-582000Y-437500D01*
X-582000Y-437558D01*
G37*
%TD.AperFunction*%
D11*
X-1216220Y-753478D02*
G75*
G02*
X-1241220Y-753478I-12500J0D01*
G01*
X-1241220Y-753478D02*
G75*
G02*
X-1216220Y-753478I12500J0D01*
G01*
X-1337500Y1124999D02*
G75*
G02*
X-1362500Y1124999I-12500J0D01*
G01*
X-1362500Y1124999D02*
G75*
G02*
X-1337500Y1124999I12500J0D01*
G01*
X-1123040Y751449D02*
G75*
G02*
X-1148040Y751449I-12500J0D01*
G01*
X-1148040Y751449D02*
G75*
G02*
X-1123040Y751449I12500J0D01*
G01*
X-1202077Y-139118D02*
G75*
G02*
X-1227077Y-139118I-12500J0D01*
G01*
X-1227077Y-139118D02*
G75*
G02*
X-1202077Y-139118I12500J0D01*
G01*
X1015963Y604157D02*
G75*
G02*
X990963Y604157I-12500J0D01*
G01*
X990963Y604157D02*
G75*
G02*
X1015963Y604157I12500J0D01*
G01*
D10*
%TA.AperFunction,NonConductor*%
G36*
X431655Y81064D02*
G01*
X442346Y70376D01*
X448130Y56408D01*
X448130Y56350D01*
X417629Y56350D01*
X417629Y86850D01*
X417688Y86850D01*
X431655Y81064D01*
G37*
%TD.AperFunction*%
D11*
X87501Y-1124999D02*
G75*
G02*
X62501Y-1124999I-12500J0D01*
G01*
X62501Y-1124999D02*
G75*
G02*
X87501Y-1124999I12500J0D01*
G01*
D10*
%TA.AperFunction,NonConductor*%
G36*
X-83475Y214714D02*
G01*
X-72784Y204026D01*
X-67000Y190058D01*
X-67000Y188999D01*
X-98501Y188999D01*
X-98501Y220500D01*
X-97442Y220500D01*
X-83475Y214714D01*
G37*
%TD.AperFunction*%
D11*
X-278500Y-676664D02*
G75*
G02*
X-303500Y-676664I-12500J0D01*
G01*
X-303500Y-676664D02*
G75*
G02*
X-278500Y-676664I12500J0D01*
G01*
X-1027234Y668889D02*
G75*
G02*
X-1052234Y668889I-12500J0D01*
G01*
X-1052234Y668889D02*
G75*
G02*
X-1027234Y668889I12500J0D01*
G01*
D10*
%TA.AperFunction,NonConductor*%
G36*
X-1362001Y-778413D02*
G01*
X-1367787Y-792381D01*
X-1378476Y-803069D01*
X-1392443Y-808855D01*
X-1392502Y-808855D01*
X-1392502Y-778355D01*
X-1362001Y-778355D01*
X-1362001Y-778413D01*
G37*
%TD.AperFunction*%
%TA.AperFunction,NonConductor*%
G36*
X-408475Y52215D02*
G01*
X-397784Y41524D01*
X-392001Y27559D01*
X-392001Y26500D01*
X-423499Y26500D01*
X-423499Y57998D01*
X-422440Y57998D01*
X-408475Y52215D01*
G37*
%TD.AperFunction*%
%TA.AperFunction,NonConductor*%
G36*
X641525Y62139D02*
G01*
X652216Y51450D01*
X658000Y37483D01*
X658000Y37424D01*
X627499Y37424D01*
X627499Y67925D01*
X627560Y67925D01*
X641525Y62139D01*
G37*
%TD.AperFunction*%
%TA.AperFunction,NonConductor*%
G36*
X234607Y-378836D02*
G01*
X245295Y-389527D01*
X251082Y-403492D01*
X251082Y-403550D01*
X220581Y-403550D01*
X220581Y-373050D01*
X220640Y-373050D01*
X234607Y-378836D01*
G37*
%TD.AperFunction*%
%TA.AperFunction,NonConductor*%
G36*
X-991039Y-745284D02*
G01*
X-980351Y-755975D01*
X-974565Y-769943D01*
X-974565Y-770001D01*
X-1005065Y-770001D01*
X-1005065Y-739501D01*
X-1005007Y-739501D01*
X-991039Y-745284D01*
G37*
%TD.AperFunction*%
D11*
X-1387502Y-770854D02*
G75*
G02*
X-1412502Y-770854I-12500J0D01*
G01*
X-1412502Y-770854D02*
G75*
G02*
X-1387502Y-770854I12500J0D01*
G01*
D12*
X-1109751Y-839861D02*
G75*
G02*
X-1165251Y-839861I-27750J0D01*
G01*
X-1165251Y-839861D02*
G75*
G02*
X-1109751Y-839861I27750J0D01*
G01*
D11*
X-1052443Y175760D02*
G75*
G02*
X-1077443Y175760I-12500J0D01*
G01*
X-1077443Y175760D02*
G75*
G02*
X-1052443Y175760I12500J0D01*
G01*
D10*
%TA.AperFunction,NonConductor*%
G36*
X1056386Y-367627D02*
G01*
X1077059Y-381439D01*
X1090874Y-402112D01*
X1095723Y-426499D01*
X1095723Y-437500D01*
X1090874Y-461886D01*
X1077059Y-482559D01*
X1056386Y-496374D01*
X1031999Y-501223D01*
X910999Y-501223D01*
X886612Y-496374D01*
X865939Y-482559D01*
X852127Y-461886D01*
X847275Y-437500D01*
X847275Y-426499D01*
X852127Y-402112D01*
X865939Y-381439D01*
X886612Y-367627D01*
X910999Y-362776D01*
X1031999Y-362776D01*
X1056386Y-367627D01*
G37*
%TD.AperFunction*%
%TA.AperFunction,NonConductor*%
G36*
X-1051474Y308320D02*
G01*
X-1040785Y297632D01*
X-1034999Y283665D01*
X-1034999Y268547D01*
X-1036635Y264599D01*
X-1024824Y252786D01*
X-562397Y252786D01*
X-561716Y254429D01*
X-551025Y265120D01*
X-537058Y270906D01*
X-521942Y270906D01*
X-507975Y265120D01*
X-497284Y254429D01*
X-491500Y240464D01*
X-491500Y225346D01*
X-497284Y211381D01*
X-507975Y200690D01*
X-514231Y198100D01*
X-514474Y184455D01*
X-503784Y173764D01*
X-498000Y159796D01*
X-498000Y144681D01*
X-503784Y130713D01*
X-514474Y120025D01*
X-528442Y114239D01*
X-543557Y114239D01*
X-557525Y120025D01*
X-568213Y130713D01*
X-573999Y144681D01*
X-573999Y152110D01*
X-577769Y155877D01*
X-1032045Y155877D01*
X-1032728Y154234D01*
X-1043417Y143546D01*
X-1057384Y137759D01*
X-1072500Y137759D01*
X-1086467Y143546D01*
X-1097158Y154234D01*
X-1102942Y168201D01*
X-1102942Y183319D01*
X-1097158Y197284D01*
X-1086467Y207975D01*
X-1072500Y213759D01*
X-1059990Y213759D01*
X-1055091Y221191D01*
X-1053765Y225494D01*
X-1066376Y238107D01*
X-1080557Y238107D01*
X-1094524Y243891D01*
X-1105215Y254582D01*
X-1110999Y268547D01*
X-1110999Y283665D01*
X-1105215Y297632D01*
X-1094524Y308320D01*
X-1080557Y314107D01*
X-1065441Y314107D01*
X-1051474Y308320D01*
G37*
%TD.AperFunction*%
%TA.AperFunction,NonConductor*%
G36*
X-1341453Y-160558D02*
G01*
X-1347239Y-174526D01*
X-1357927Y-185214D01*
X-1371895Y-191000D01*
X-1371953Y-191000D01*
X-1371953Y-160500D01*
X-1341453Y-160500D01*
X-1341453Y-160558D01*
G37*
%TD.AperFunction*%
D11*
X-750056Y-250713D02*
G75*
G02*
X-775056Y-250713I-12500J0D01*
G01*
X-775056Y-250713D02*
G75*
G02*
X-750056Y-250713I12500J0D01*
G01*
D10*
%TA.AperFunction,NonConductor*%
G36*
X-1220437Y646113D02*
G01*
X-1226223Y632145D01*
X-1236911Y621454D01*
X-1250879Y615671D01*
X-1250937Y615671D01*
X-1250937Y646171D01*
X-1220437Y646171D01*
X-1220437Y646113D01*
G37*
%TD.AperFunction*%
%TA.AperFunction,NonConductor*%
G36*
X-274000Y-135999D02*
G01*
X-305499Y-135999D01*
X-305499Y-134943D01*
X-299715Y-120975D01*
X-289024Y-110284D01*
X-275059Y-104501D01*
X-274000Y-104501D01*
X-274000Y-135999D01*
G37*
%TD.AperFunction*%
%TA.AperFunction,NonConductor*%
G36*
X-288275Y843008D02*
G01*
X-294061Y829041D01*
X-304749Y818350D01*
X-318717Y812566D01*
X-318775Y812566D01*
X-318775Y843067D01*
X-288275Y843067D01*
X-288275Y843008D01*
G37*
%TD.AperFunction*%
%TA.AperFunction,NonConductor*%
G36*
X-409133Y-846559D02*
G01*
X-414919Y-860524D01*
X-425607Y-871215D01*
X-439575Y-877001D01*
X-439633Y-877001D01*
X-439633Y-846501D01*
X-409133Y-846501D01*
X-409133Y-846559D01*
G37*
%TD.AperFunction*%
D11*
X-455947Y887245D02*
G75*
G02*
X-480947Y887245I-12500J0D01*
G01*
X-480947Y887245D02*
G75*
G02*
X-455947Y887245I12500J0D01*
G01*
X637500Y1124999D02*
G75*
G02*
X612500Y1124999I-12500J0D01*
G01*
X612500Y1124999D02*
G75*
G02*
X637500Y1124999I12500J0D01*
G01*
D13*
%TO.P,REF\u002A\u002A,1*%
%TO.N,N/C*%
X-1264357Y-1007196D03*
D14*
%TO.P,REF\u002A\u002A,2*%
X-1264357Y-838716D03*
%TO.P,REF\u002A\u002A,3*%
X-1137357Y-1007196D03*
%TO.P,REF\u002A\u002A,4*%
X-1137357Y-838716D03*
%TO.P,REF\u002A\u002A,5*%
X-1010357Y-1007196D03*
%TD*%
D15*
%TO.P,REF\u002A\u002A,*%
%TO.N,*%
X1022335Y-290000D03*
X1022335Y290000D03*
D16*
%TO.P,REF\u002A\u002A,0*%
%TO.N,N/C*%
X972335Y-433000D03*
%TO.P,REF\u002A\u002A,1*%
X972335Y433000D03*
D17*
%TO.P,REF\u002A\u002A,2*%
X1390335Y433000D03*
%TO.P,REF\u002A\u002A,3*%
X1390335Y-433000D03*
%TD*%
D18*
%TO.N,*%
X1003463Y604157D03*
X-944999Y-3749D03*
X-424960Y681990D03*
X-429999Y-142499D03*
X-883432Y880580D03*
X-926922Y-200000D03*
X-31948Y-1124910D03*
X-494000Y1038482D03*
X-1239998Y-80000D03*
X-833305Y-142499D03*
X609189Y-631756D03*
X-1074999Y1125000D03*
X-190180Y-179309D03*
X625000Y1125000D03*
X-871154Y-371018D03*
X-37501Y100000D03*
X313408Y759668D03*
X-1064943Y175760D03*
X-1075000Y276106D03*
X-936922Y101719D03*
X1174999Y-1125000D03*
X213081Y-411051D03*
X-1214577Y-139118D03*
X-1039734Y668889D03*
X529999Y649999D03*
X279999Y859998D03*
X-1392499Y-419552D03*
X475000Y1125000D03*
X206492Y-1058499D03*
X-1379454Y-152999D03*
X-1102733Y646364D03*
X-535998Y152240D03*
X112001Y758571D03*
X-599999Y829998D03*
X-202448Y-699099D03*
X-532173Y878964D03*
X-619999Y-429999D03*
X150000Y439999D03*
X-833305Y601599D03*
X-1350000Y1125000D03*
X190640Y-201798D03*
X-1357998Y-963681D03*
X-104999Y20000D03*
X-1124999Y1000001D03*
X-974999Y1125000D03*
X-1228720Y-753478D03*
X678129Y627964D03*
X-245001Y709168D03*
X-762556Y-250713D03*
X-1079998Y399999D03*
X-740888Y915236D03*
X-465501Y-56683D03*
X-501404Y731403D03*
X102888Y-898743D03*
X-1257000Y-389999D03*
X-1012566Y-777499D03*
X620001Y29924D03*
X57056Y-664002D03*
X-429999Y20000D03*
X-529499Y232905D03*
X900001Y1125000D03*
X-447134Y-839000D03*
X-1174999Y1125000D03*
X729343Y-341373D03*
X1275001Y-1125000D03*
X-1212555Y-202085D03*
X-680999Y329999D03*
X31001Y-1058499D03*
X42001Y550954D03*
X75001Y-1125000D03*
X-104999Y182499D03*
X-267500Y-142499D03*
X-100000Y-1125000D03*
X-1450000Y-887999D03*
X496260Y-632849D03*
X-468447Y887245D03*
X-169001Y1012238D03*
X950001Y-1125000D03*
X150000Y-529999D03*
X-628998Y574756D03*
X410131Y48849D03*
X1050000Y-1125000D03*
X-1450000Y-1125000D03*
X-353964Y-674568D03*
X-429999Y182499D03*
X-671952Y980938D03*
X-171308Y861306D03*
X-676239Y-578063D03*
X-1177282Y-677194D03*
X553512Y775632D03*
X-909998Y-959998D03*
X-267500Y182499D03*
X770532Y407784D03*
X478406Y334907D03*
X-750000Y-799999D03*
X-1189617Y120000D03*
X287000Y-29500D03*
X-78001Y-682854D03*
X-115001Y-738485D03*
X159499Y-596115D03*
X-235285Y632826D03*
X1150000Y1125000D03*
X-325000Y850567D03*
X190000Y869998D03*
X-75001Y-486999D03*
X-1072012Y-424244D03*
X-1258438Y653672D03*
X-291000Y-676664D03*
X642511Y778099D03*
X-104999Y-142499D03*
X-651002Y-1009729D03*
X325001Y-625001D03*
X-1450000Y-825000D03*
X-1135540Y750000D03*
X299999Y1125000D03*
X-1400002Y-770854D03*
X-45636Y-209001D03*
X470324Y-931146D03*
X-164810Y-777169D03*
X750001Y1125000D03*
X-234668Y855932D03*
X-848020Y-265372D03*
%TD*%
D19*
%TO.N,*%
X-136698Y782038D02*
X-156522Y782038D01*
X-169001Y1012238D02*
X-169001Y1017913D01*
X-1102733Y656374D02*
X-1102733Y646364D01*
X311061Y757319D02*
X313408Y759668D01*
D20*
X-140089Y-184094D02*
X-115179Y-209001D01*
D19*
X-70919Y-689933D02*
X-70919Y-728495D01*
X15004Y974491D02*
X449999Y974491D01*
X-626999Y865929D02*
X-626999Y1027001D01*
X-140096Y904499D02*
X-141402Y905805D01*
D21*
X-1375001Y-592839D02*
X-1327958Y-592839D01*
D19*
X-169001Y1017913D02*
X-169677Y1018588D01*
D22*
X496260Y-632849D02*
X496857Y-633446D01*
D19*
X-601708Y-1054499D02*
X-533972Y-986760D01*
D23*
X182479Y-529999D02*
X225438Y-572955D01*
D22*
X1275001Y-1124999D02*
X781756Y-631756D01*
D19*
X855970Y1055969D02*
X855970Y1080971D01*
X-50000Y-1024999D02*
X-24999Y-1050000D01*
X-492737Y1039744D02*
X-494000Y1038482D01*
X-1190153Y-1108499D02*
X-1182898Y-1101245D01*
D23*
X113652Y-797029D02*
X62210Y-797029D01*
D19*
X-1425092Y-902896D02*
X-1439987Y-887999D01*
X900001Y-1074999D02*
X850001Y-1024999D01*
D24*
X4608Y-1007831D02*
X29086Y-1032309D01*
D19*
X-981433Y-1084501D02*
X-951431Y-1054499D01*
X-746930Y909193D02*
X-740888Y915236D01*
D23*
X1175377Y925378D02*
X1250000Y1000001D01*
D19*
X562044Y627964D02*
X540009Y649999D01*
X-24999Y-1066681D02*
X33320Y-1124999D01*
D23*
X168854Y-741827D02*
X113652Y-797029D01*
D19*
X-1069035Y1094034D02*
X-1050000Y1074999D01*
X-803036Y-736658D02*
X-803036Y-752843D01*
X-1085769Y1049000D02*
X-1086769Y1050000D01*
X-130571Y-654449D02*
X-114475Y-638353D01*
X469034Y1119035D02*
X475000Y1124999D01*
X-858032Y-265372D02*
X-869732Y-253672D01*
D20*
X-1200000Y1000001D02*
X-1124999Y1000001D01*
D19*
X-755881Y-799998D02*
X-749999Y-799998D01*
X-1038306Y343091D02*
X-1025213Y329999D01*
X-244599Y-676664D02*
X-222387Y-654449D01*
D23*
X710997Y-164005D02*
X805571Y-164005D01*
D19*
X275001Y-637931D02*
X275001Y-499999D01*
X225001Y1050000D02*
X299999Y1124999D01*
X-1362847Y-1084501D02*
X-1338847Y-1108499D01*
D24*
X29086Y-1032309D02*
X29086Y-1056587D01*
D19*
X375001Y-625000D02*
X525000Y-775000D01*
X275001Y-499999D02*
X250000Y-475000D01*
X-1282852Y-767141D02*
X-1228720Y-753478D01*
X195303Y864997D02*
X195151Y864847D01*
X-412565Y-986760D02*
X-223926Y-798124D01*
D22*
X496857Y-633446D02*
X533446Y-633446D01*
D19*
X-575000Y993795D02*
X-575000Y1078507D01*
D23*
X256502Y-60000D02*
X204661Y-60000D01*
D25*
X-1291554Y-334950D02*
X-1291554Y-310096D01*
D23*
X1450002Y-799996D02*
X1450002Y-728101D01*
D22*
X533446Y-633446D02*
X599999Y-700001D01*
D20*
X-1300000Y1074999D02*
X-1275001Y1074999D01*
D19*
X583011Y947999D02*
X25591Y947999D01*
X-176027Y1018588D02*
X-220000Y1018588D01*
D23*
X-1392499Y-642501D02*
X-1392499Y-419552D01*
D19*
X-1049183Y370266D02*
X-1078918Y399999D01*
D23*
X-1176566Y-60000D02*
X-1001250Y-60000D01*
D21*
X-684743Y-586567D02*
X-676239Y-578063D01*
D19*
X-1376431Y-1008182D02*
X-1402499Y-982114D01*
X-1422103Y-902896D02*
X-1425092Y-902896D01*
D20*
X-185397Y-184094D02*
X-140089Y-184094D01*
D19*
X-791888Y909193D02*
X-746930Y909193D01*
X-1338847Y-1108499D02*
X-1190153Y-1108499D01*
D24*
X-1467000Y-821296D02*
X-1467000Y-730001D01*
D19*
X-130028Y-1092096D02*
X-130028Y-1082904D01*
X250000Y-475000D02*
X125001Y-475000D01*
D20*
X-1275001Y1074999D02*
X-1200000Y1000001D01*
D19*
X-601000Y1051001D02*
X-601000Y947791D01*
D23*
X199659Y-60000D02*
X199659Y-192778D01*
D19*
X-1086769Y1050000D02*
X-1124999Y1050000D01*
X199659Y757319D02*
X311061Y757319D01*
D25*
X-1257000Y-389999D02*
X-1291554Y-334950D01*
D19*
X599999Y-825000D02*
X462067Y-825000D01*
X-375001Y731949D02*
X-375001Y928088D01*
X-1347114Y-1008182D02*
X-1376431Y-1008182D01*
X-1038306Y362450D02*
X-1046119Y370266D01*
X-65562Y-733854D02*
X-65562Y-758424D01*
D23*
X209055Y-704924D02*
X172151Y-741827D01*
D19*
X-114475Y-638353D02*
X-26398Y-638353D01*
X-1033059Y232905D02*
X-1073000Y272847D01*
X-626999Y1027001D02*
X-649000Y1049000D01*
X722000Y922000D02*
X855970Y1055969D01*
X-241155Y1039744D02*
X-492737Y1039744D01*
D22*
X781756Y-631756D02*
X609189Y-631756D01*
D19*
X-601000Y947791D02*
X-532173Y878964D01*
D20*
X-190180Y-179309D02*
X-185397Y-184094D01*
D19*
X-1010501Y-1007501D02*
X-1082510Y-1058499D01*
X-1402499Y-922500D02*
X-1422103Y-902896D01*
X-1169035Y1119035D02*
X-1174999Y1124999D01*
X-803036Y-752843D02*
X-755881Y-799998D01*
D23*
X209055Y-701627D02*
X209055Y-704924D01*
D24*
X-1467000Y-730001D02*
X-1462001Y-725000D01*
D19*
X-47422Y871311D02*
X-136698Y782038D01*
X-1151651Y-661579D02*
X-878119Y-661579D01*
X-279133Y941738D02*
X-108262Y941738D01*
D23*
X1250000Y1000001D02*
X1450002Y799996D01*
D19*
X-533972Y-986760D02*
X-412565Y-986760D01*
X618780Y1118779D02*
X625000Y1124999D01*
X722000Y922000D02*
X36360Y922000D01*
D21*
X-1327958Y-592839D02*
X-1321686Y-586567D01*
D19*
X-98181Y861306D02*
X15004Y974491D01*
X750001Y1114989D02*
X583011Y947999D01*
X900001Y-1074999D02*
X900001Y-1074999D01*
X-1077595Y-424244D02*
X-1101674Y-400164D01*
X-599999Y838929D02*
X-626999Y865929D01*
X-806826Y-243634D02*
X-769635Y-243634D01*
X-575000Y1078507D02*
X-621495Y1124999D01*
D23*
X225438Y-572955D02*
X225438Y-685244D01*
D19*
X678129Y627964D02*
X562044Y627964D01*
X-791888Y909193D02*
X-1032193Y668889D01*
D23*
X-892068Y-56683D02*
X-465501Y-56683D01*
D19*
X-1084235Y674875D02*
X-1102733Y656374D01*
D23*
X-1462001Y-712000D02*
X-1392499Y-642501D01*
D19*
X-1072012Y-424244D02*
X-1077595Y-424244D01*
D23*
X1250000Y-897809D02*
X1250000Y-1000001D01*
D19*
X274998Y864997D02*
X195303Y864997D01*
D23*
X1250000Y-1000001D02*
X1250000Y-1000001D01*
X1175377Y925378D02*
X1008464Y758462D01*
D19*
X-848020Y-265372D02*
X-858032Y-265372D01*
X462067Y-825000D02*
X275001Y-637931D01*
X-24999Y-1050000D02*
X-24999Y-1066681D01*
X641276Y776867D02*
X642511Y778099D01*
X855970Y1080971D02*
X900001Y1124999D01*
X-70919Y-728495D02*
X-65562Y-733854D01*
X-1074999Y1124999D02*
X-1069035Y1119035D01*
D24*
X29086Y-1056587D02*
X31001Y-1058499D01*
D19*
X-164810Y-787182D02*
X-164810Y-777169D01*
X-189741Y905805D02*
X-234668Y860877D01*
X-95501Y904499D02*
X-140096Y904499D01*
D23*
X1250000Y632826D02*
X1250000Y850753D01*
D19*
X-354086Y949000D02*
X-286395Y949000D01*
X-100000Y-1122126D02*
X-130028Y-1092096D01*
X-769635Y-243634D02*
X-762556Y-250713D01*
X-21422Y840529D02*
X-229123Y632826D01*
X-1257054Y-181595D02*
X-1214577Y-139118D01*
X-1177282Y-677194D02*
X-1167270Y-677194D01*
D23*
X710997Y-164005D02*
X620001Y-255001D01*
D25*
X-1289911Y-129913D02*
X-1239998Y-80000D01*
D19*
X800001Y-1024999D02*
X599999Y-825000D01*
X-1124999Y1050000D02*
X-1169035Y1094034D01*
D23*
X118966Y-56464D02*
X-37501Y100000D01*
D19*
X-222387Y-654449D02*
X-130571Y-654449D01*
X-869732Y-253672D02*
X-873252Y-253672D01*
X113000Y-486999D02*
X-75001Y-486999D01*
X-291000Y-676664D02*
X-244599Y-676664D01*
X-1172878Y-400164D02*
X-1257054Y-315989D01*
D21*
X-1321686Y-586567D02*
X-684743Y-586567D01*
D23*
X805571Y-164005D02*
X945002Y-24575D01*
D19*
X6055Y-670809D02*
X50249Y-670809D01*
X-873252Y-253672D02*
X-926922Y-200000D01*
X-1450000Y-1100000D02*
X-1434501Y-1084501D01*
X-115001Y-748497D02*
X-100000Y-763496D01*
X-188260Y756572D02*
X-235666Y709168D01*
X-115001Y-738485D02*
X-115001Y-748497D01*
X-1025213Y329999D02*
X-680999Y329999D01*
X-156522Y782038D02*
X-181988Y756572D01*
D23*
X1250000Y850753D02*
X1175377Y925378D01*
D19*
X-1050000Y1074999D02*
X-625000Y1074999D01*
X-21422Y864217D02*
X-21422Y840529D01*
X-50000Y-773986D02*
X-50000Y-1024999D01*
X750001Y1124999D02*
X750001Y1114989D01*
D23*
X-1001250Y-60000D02*
X-944999Y-3749D01*
D19*
X-951431Y-1054499D02*
X-601708Y-1054499D01*
X-171308Y861306D02*
X-98181Y861306D01*
D23*
X1139350Y304150D02*
X1139350Y522178D01*
D19*
X-1257054Y-315989D02*
X-1257054Y-181595D01*
X-223926Y-798124D02*
X-223926Y-779069D01*
X525000Y-775000D02*
X675000Y-775000D01*
X-234668Y860877D02*
X-234668Y855932D01*
X-220000Y1018588D02*
X-241155Y1039744D01*
X850001Y-1024999D02*
X800001Y-1024999D01*
X-1339499Y-1015797D02*
X-1339499Y-1071077D01*
X950001Y-1050000D02*
X974999Y-1050000D01*
X974999Y-1050000D02*
X1050000Y-1124999D01*
X-599999Y829998D02*
X-599999Y838929D01*
X112001Y758571D02*
X198407Y758571D01*
D24*
X4608Y-843445D02*
X56617Y-791436D01*
D23*
X199659Y-192778D02*
X190640Y-201798D01*
X974291Y218501D02*
X1053701Y218501D01*
D19*
X-1038306Y343091D02*
X-1038306Y362450D01*
D25*
X-1289911Y-167719D02*
X-1289911Y-129913D01*
D23*
X-1239998Y-80000D02*
X-1235997Y-75999D01*
D22*
X599999Y-700001D02*
X750001Y-700001D01*
D19*
X-1434501Y-1084501D02*
X-1362847Y-1084501D01*
X112220Y-555150D02*
X-68042Y-555150D01*
D23*
X287000Y-29500D02*
X256502Y-60000D01*
D19*
X-1193668Y-1075246D02*
X-1169678Y-1075246D01*
X-65562Y-758424D02*
X-50000Y-773986D01*
X-1164326Y-155501D02*
X-894959Y-155501D01*
X-1182898Y-1101245D02*
X-1177516Y-1101245D01*
X-150000Y-1062932D02*
X-150000Y-801992D01*
X-209311Y-705963D02*
X-202448Y-699099D01*
X50249Y-670809D02*
X57056Y-664002D01*
X198407Y758571D02*
X199659Y757319D01*
X11209Y1011210D02*
X-95501Y904499D01*
X554746Y776867D02*
X641276Y776867D01*
X-1032193Y668889D02*
X-1039734Y668889D01*
D23*
X-1235997Y-75999D02*
X-1192568Y-75999D01*
D19*
X25591Y947999D02*
X-47422Y874987D01*
X153182Y-596115D02*
X159499Y-596115D01*
X-1046119Y370266D02*
X-1049183Y370266D01*
X195151Y864847D02*
X190000Y869998D01*
X-375001Y928088D02*
X-354086Y949000D01*
D23*
X1139350Y522178D02*
X1250000Y632826D01*
X1250000Y1000001D02*
X1250000Y1000001D01*
D19*
X-569532Y175760D02*
X-546011Y152240D01*
X-223926Y-779069D02*
X-209311Y-764451D01*
X-141402Y905805D02*
X-189741Y905805D01*
D23*
X199659Y-60000D02*
X122499Y-60000D01*
D19*
X-625000Y1074999D02*
X-601000Y1051001D01*
X-30500Y-1106569D02*
X-30500Y-1118075D01*
X0Y1050000D02*
X225001Y1050000D01*
X-1167270Y-677194D02*
X-1151651Y-661579D01*
D23*
X172151Y-741827D02*
X168854Y-741827D01*
D19*
X594289Y1118779D02*
X618780Y1118779D01*
X-621495Y1124999D02*
X-974999Y1124999D01*
X449999Y974491D02*
X594289Y1118779D01*
X-141341Y-628449D02*
X-307848Y-628449D01*
X-1339149Y-832617D02*
X-1357998Y-963681D01*
X-47422Y874987D02*
X-47422Y871311D01*
X-1078918Y399999D02*
X-1079998Y399999D01*
X-286395Y949000D02*
X-279133Y941738D01*
X-1072142Y-1084501D02*
X-981433Y-1084501D01*
X-529499Y232905D02*
X-1033059Y232905D01*
X-1064943Y175760D02*
X-569532Y175760D01*
D23*
X1008464Y758462D02*
X995723Y758462D01*
D19*
X-890976Y880580D02*
X-883432Y880580D01*
X-1212555Y-202085D02*
X-1210912Y-202085D01*
X-1328077Y-1082500D02*
X-1200922Y-1082500D01*
D23*
X225438Y-685244D02*
X209055Y-701627D01*
X-1192568Y-75999D02*
X-1176566Y-60000D01*
D19*
X-1200922Y-1082500D02*
X-1193668Y-1075246D01*
D23*
X1450002Y799996D02*
X1450002Y732287D01*
D19*
X336210Y1011210D02*
X11209Y1011210D01*
X-1084235Y674875D02*
X-1084235Y687321D01*
X-1339499Y-1071077D02*
X-1328077Y-1082500D01*
D23*
X1053701Y218501D02*
X1139350Y304150D01*
D19*
X-1084235Y687321D02*
X-890976Y880580D01*
D20*
X-115179Y-209001D02*
X-45636Y-209001D01*
X-1350000Y1124999D02*
X-1300000Y1074999D01*
D19*
X-1101674Y-400164D02*
X-1172878Y-400164D01*
D23*
X-944999Y-3749D02*
X-892068Y-56683D01*
D19*
X-1210912Y-202085D02*
X-1164326Y-155501D01*
X900001Y-1074999D02*
X950001Y-1124999D01*
X-894959Y-155501D02*
X-806826Y-243634D01*
D23*
X1008464Y-758462D02*
X1250000Y-1000001D01*
X945002Y189210D02*
X974291Y218501D01*
D19*
X-181988Y756572D02*
X-188260Y756572D01*
D23*
X1250000Y-1000001D02*
X1450002Y-799996D01*
D19*
X-100000Y-1037067D02*
X-30500Y-1106569D01*
X-1339499Y-1015797D02*
X-1347114Y-1008182D01*
X153182Y-596115D02*
X112220Y-555150D01*
X-100000Y-763496D02*
X-100000Y-1037067D01*
X125001Y-475000D02*
X113000Y-486999D01*
X553512Y775632D02*
X554746Y776867D01*
X-209311Y-764451D02*
X-209311Y-705963D01*
D22*
X750001Y-700001D02*
X1174999Y-1124999D01*
D23*
X1008464Y-758462D02*
X1008464Y-732320D01*
D19*
X-546011Y152240D02*
X-535998Y152240D01*
X-100000Y-1122126D02*
X-100000Y-1124999D01*
D24*
X31001Y-1058499D02*
X206492Y-1058499D01*
D19*
X-424960Y681990D02*
X-375001Y731949D01*
X-1439987Y-887999D02*
X-1450000Y-887999D01*
X-1177514Y-1101245D02*
X-1175083Y-1101245D01*
D23*
X945002Y-24575D02*
X945002Y189210D01*
D19*
X33320Y-1124999D02*
X75001Y-1124999D01*
X-468447Y887245D02*
X-575000Y993795D01*
X-1069035Y1119035D02*
X-1069035Y1094034D01*
X-878119Y-661579D02*
X-803036Y-736658D01*
X-78001Y-682854D02*
X-70919Y-689933D01*
X-1073000Y272847D02*
X-1073000Y276106D01*
X-1177514Y-1101245D02*
X-1177516Y-1101245D01*
X-108262Y941738D02*
X0Y1050000D01*
D24*
X4608Y-843445D02*
X4608Y-1007831D01*
D19*
X325001Y-625000D02*
X375001Y-625000D01*
X-235666Y709168D02*
X-245001Y709168D01*
D23*
X150000Y-529999D02*
X182479Y-529999D01*
D19*
X279999Y859998D02*
X274998Y864997D01*
X-1402499Y-982114D02*
X-1402499Y-922500D01*
X-1169035Y1094034D02*
X-1169035Y1119035D01*
X540009Y649999D02*
X529999Y649999D01*
X-169677Y1018588D02*
X-176027Y1018588D01*
X-229123Y632826D02*
X-235285Y632826D01*
D25*
X-1291554Y-310096D02*
X-1291554Y-169362D01*
D19*
X444035Y1119035D02*
X469034Y1119035D01*
X444035Y1119035D02*
X336210Y1011210D01*
X-26398Y-638353D02*
X6055Y-670809D01*
D25*
X-1291554Y-169362D02*
X-1289911Y-167719D01*
D19*
X-307848Y-628449D02*
X-353964Y-674568D01*
X-150000Y-801992D02*
X-164810Y-787182D01*
X36360Y922000D02*
X-21422Y864217D01*
X-130028Y-1082904D02*
X-150000Y-1062932D01*
D23*
X-1462001Y-725000D02*
X-1462001Y-712000D01*
D19*
X-649000Y1049000D02*
X-1085769Y1049000D01*
X-68042Y-555150D02*
X-141341Y-628449D01*
X675000Y-775000D02*
X950001Y-1050000D01*
X-1282852Y-767141D02*
G75*
G03*
X-1338364Y-826861I18355J-72722D01*
G01*
X-1338364Y-826861D02*
G75*
G03*
X-1339149Y-832617I74123J-13040D01*
G01*
X-1169678Y-1075246D02*
G75*
G03*
X-1082510Y-1058499I32177J67748D01*
G01*
X-1175083Y-1101245D02*
G75*
G03*
X-1072142Y-1084501I37584J93747D01*
G01*
%TD*%
M02*
