%TF.GenerationSoftware,KiCad,Pcbnew,9.0.0*%
%TF.CreationDate,2025-03-31T11:01:06+01:00*%
%TF.ProjectId,vm_rp2040_brain_0.1,766d5f72-7032-4303-9430-5f627261696e,rev?*%
%TF.SameCoordinates,Original*%
%TF.FileFunction,Legend,Bot*%
%TF.FilePolarity,Positive*%
%FSLAX45Y45*%
G04 Gerber Fmt 4.5, Leading zero omitted, Abs format (unit mm)*
G04 Created by KiCad (PCBNEW 9.0.0) date 2025-03-31 11:01:06*
%MOMM*%
%LPD*%
G01*
G04 APERTURE LIST*
%ADD10C,0.170000*%
G04 APERTURE END LIST*
D10*
X-392445Y-1044763D02*
X-402920Y-1034288D01*
X204046Y-768203D02*
X251178Y-768203D01*
X-668957Y-773438D02*
X-674195Y-768203D01*
X90404Y-773438D02*
X106114Y-768203D01*
X85166Y-778675D02*
X90404Y-773438D01*
X-509229Y-878180D02*
X-509229Y-804860D01*
X215044Y-940024D02*
X215044Y-1050000D01*
X102972Y-945261D02*
X97734Y-950498D01*
X85166Y-815335D02*
X79929Y-804860D01*
X-693572Y-825810D02*
X-709282Y-810097D01*
X153248Y-768203D02*
X153248Y-878180D01*
X-110696Y-789150D02*
X-100223Y-773438D01*
X-561076Y-846757D02*
X-566313Y-862467D01*
X10277Y-940024D02*
X62647Y-1013341D01*
X-230099Y-955733D02*
X-245811Y-940024D01*
X-433294Y-872942D02*
X-422821Y-862467D01*
X-296085Y-773438D02*
X-280375Y-768203D01*
X92499Y-971446D02*
X97734Y-981918D01*
X-480426Y-862467D02*
X-469953Y-872942D01*
X-576788Y-810097D02*
X-566313Y-820572D01*
X39604Y-773438D02*
X44841Y-778675D01*
X-345313Y-1044763D02*
X-361023Y-1050000D01*
X-7529Y-778675D02*
X-2291Y-773438D01*
X-58326Y-872942D02*
X-74038Y-878180D01*
X62647Y-1013341D02*
X-15908Y-1013341D01*
X-376735Y-1050000D02*
X-392445Y-1044763D01*
X-524942Y-810097D02*
X-535414Y-804860D01*
X-163591Y-1050000D02*
X-121694Y-940024D01*
X-254191Y-773438D02*
X-243716Y-789150D01*
X-432770Y-1002868D02*
X-527035Y-1002868D01*
X-84511Y-768203D02*
X-74038Y-768203D01*
X-306560Y-789150D02*
X-296085Y-773438D01*
X-459478Y-804860D02*
X-469953Y-810097D01*
X-402920Y-1034288D02*
X-408158Y-1018578D01*
X-623921Y-878180D02*
X-623921Y-804860D01*
X-735467Y-804860D02*
X-745942Y-810097D01*
X-745942Y-810097D02*
X-751180Y-825810D01*
X-668957Y-804860D02*
X-668957Y-878180D01*
X188336Y-773438D02*
X204046Y-768203D01*
X-42616Y-831045D02*
X-47854Y-857230D01*
X-751180Y-825810D02*
X-751180Y-878180D01*
X204046Y-820572D02*
X188336Y-815335D01*
X-561076Y-836282D02*
X-561076Y-846757D01*
X-587261Y-804860D02*
X-576788Y-810097D01*
X-100223Y-773438D02*
X-84511Y-768203D01*
X-42616Y-815335D02*
X-42616Y-831045D01*
X-514467Y-820572D02*
X-524942Y-810097D01*
X144869Y-945261D02*
X134394Y-940024D01*
X-433294Y-810097D02*
X-443768Y-804860D01*
X155341Y-966208D02*
X155341Y-960971D01*
X-7529Y-810097D02*
X-12766Y-799622D01*
X-613446Y-810097D02*
X-602973Y-804860D01*
X241229Y-960971D02*
X230754Y-955733D01*
X113447Y-940024D02*
X102972Y-945261D01*
X-238478Y-831045D02*
X-243716Y-857230D01*
X-340076Y-987156D02*
X-345313Y-940024D01*
X-566313Y-862467D02*
X-576788Y-872942D01*
X-306560Y-857230D02*
X-311795Y-831045D01*
X-219626Y-960971D02*
X-230099Y-955733D01*
X160579Y-1050000D02*
X87262Y-1050000D01*
X-311795Y-815335D02*
X-306560Y-789150D01*
X-192918Y-768203D02*
X-192918Y-878180D01*
X-602973Y-878180D02*
X-613446Y-872942D01*
X-310749Y-1044763D02*
X-305511Y-1039525D01*
X183098Y-778675D02*
X188336Y-773438D01*
X204046Y-820572D02*
X251178Y-820572D01*
X-443768Y-804860D02*
X-459478Y-804860D01*
X50079Y-789150D02*
X50079Y-794388D01*
X-719757Y-804860D02*
X-735467Y-804860D01*
X-741228Y-1050000D02*
X-741228Y-940024D01*
X-269900Y-878180D02*
X-280375Y-878180D01*
X-345313Y-940024D02*
X-397683Y-940024D01*
X-459478Y-878180D02*
X-443768Y-878180D01*
X-376735Y-976683D02*
X-361023Y-976683D01*
X8184Y-768203D02*
X29131Y-768203D01*
X-280375Y-768203D02*
X-269900Y-768203D01*
X188336Y-815335D02*
X183098Y-810097D01*
X-408158Y-1018578D02*
X-408158Y-1008103D01*
X108209Y-997631D02*
X160579Y-1050000D01*
X-485663Y-846757D02*
X-480426Y-862467D01*
X79929Y-789150D02*
X85166Y-778675D01*
X-245811Y-940024D02*
X-245811Y-1050000D01*
X-602973Y-804860D02*
X-587261Y-804860D01*
X150104Y-950498D02*
X144869Y-945261D01*
X-422821Y-878180D02*
X-422821Y-768203D01*
X-668957Y-762965D02*
X-663722Y-768203D01*
X-601401Y-1050000D02*
X-559506Y-940024D01*
X-110696Y-857230D02*
X-115933Y-831045D01*
X-392445Y-981918D02*
X-376735Y-976683D01*
X-243716Y-857230D02*
X-254191Y-872942D01*
X-408158Y-1008103D02*
X-402920Y-992393D01*
X92499Y-960971D02*
X92499Y-971446D01*
X-296085Y-872942D02*
X-306560Y-857230D01*
X-115933Y-831045D02*
X-115933Y-815335D01*
X-566313Y-820572D02*
X-561076Y-836282D01*
X-340076Y-1039525D02*
X-334838Y-1029053D01*
X-480426Y-820572D02*
X-485663Y-836282D01*
X-305511Y-1039525D02*
X-300276Y-1044763D01*
X-12766Y-799622D02*
X-12766Y-789150D01*
X-613446Y-872942D02*
X-623921Y-862467D01*
X97734Y-981918D02*
X108209Y-997631D01*
X-74038Y-768203D02*
X-58326Y-773438D01*
X-74038Y-878180D02*
X-84511Y-878180D01*
X-485663Y-836282D02*
X-485663Y-846757D01*
X44841Y-778675D02*
X50079Y-789150D01*
X-643298Y-940024D02*
X-601401Y-1050000D01*
X10277Y-1050000D02*
X10277Y-940024D01*
X2946Y-825810D02*
X-7529Y-810097D01*
X177861Y-789150D02*
X183098Y-778675D01*
X106114Y-825810D02*
X90404Y-820572D01*
X-469953Y-810097D02*
X-480426Y-820572D01*
X-254191Y-872942D02*
X-269900Y-878180D01*
X-47854Y-857230D02*
X-58326Y-872942D01*
X-205486Y-940024D02*
X-163591Y-1050000D01*
X-663722Y-768203D02*
X-668957Y-773438D01*
X-305511Y-1050000D02*
X-310749Y-1044763D01*
X-699333Y-1050000D02*
X-657436Y-940024D01*
X29131Y-768203D02*
X39604Y-773438D01*
X-469953Y-872942D02*
X-459478Y-878180D01*
X-345313Y-981918D02*
X-340076Y-987156D01*
X-115933Y-815335D02*
X-110696Y-789150D01*
X-345313Y-1044763D02*
X-340076Y-1039525D01*
X-243716Y-789150D02*
X-238478Y-815335D01*
X-219103Y-841520D02*
X-140548Y-841520D01*
X-280375Y-878180D02*
X-296085Y-872942D01*
X-741228Y-940024D02*
X-699333Y-1050000D01*
X-47854Y-789150D02*
X-42616Y-815335D01*
X-693572Y-878180D02*
X-693572Y-804860D01*
X97734Y-950498D02*
X92499Y-960971D01*
X-100223Y-872942D02*
X-110696Y-857230D01*
X-535414Y-804860D02*
X-551127Y-804860D01*
X-84511Y-878180D02*
X-100223Y-872942D01*
X-58326Y-773438D02*
X-47854Y-789150D01*
X-269900Y-768203D02*
X-254191Y-773438D01*
X-576788Y-872942D02*
X-587261Y-878180D01*
X-238478Y-815335D02*
X-238478Y-831045D01*
X-361023Y-1050000D02*
X-376735Y-1050000D01*
X155341Y-960971D02*
X150104Y-950498D01*
X-18001Y-878180D02*
X55316Y-878180D01*
X-2291Y-773438D02*
X8184Y-768203D01*
X90404Y-820572D02*
X85166Y-815335D01*
X177861Y-878180D02*
X214521Y-820572D01*
X-514467Y-820572D02*
X-509229Y-836282D01*
X177861Y-799622D02*
X177861Y-789150D01*
X106114Y-825810D02*
X153248Y-825810D01*
X55316Y-878180D02*
X2946Y-825810D01*
X-402920Y-992393D02*
X-392445Y-981918D01*
X183098Y-810097D02*
X177861Y-799622D01*
X-443768Y-878180D02*
X-433294Y-872942D01*
X79929Y-804860D02*
X79929Y-789150D01*
X230754Y-955733D02*
X215044Y-940024D01*
X106114Y-768203D02*
X153248Y-768203D01*
X-623921Y-820572D02*
X-613446Y-810097D01*
X-140548Y-841520D02*
X-192918Y-768203D01*
X251178Y-768203D02*
X251178Y-878180D01*
X-587261Y-878180D02*
X-602973Y-878180D01*
X-657436Y-940024D02*
X-657436Y-1050000D01*
X-12766Y-789150D02*
X-7529Y-778675D01*
X-422821Y-820572D02*
X-433294Y-810097D01*
X-709282Y-810097D02*
X-719757Y-804860D01*
X134394Y-940024D02*
X113447Y-940024D01*
X-311795Y-831045D02*
X-311795Y-815335D01*
X-300276Y-1044763D02*
X-305511Y-1050000D01*
X-674195Y-768203D02*
X-668957Y-762965D01*
X-361023Y-976683D02*
X-345313Y-981918D01*
M02*
