%TF.GenerationSoftware,KiCad,Pcbnew,9.0.0*%
%TF.CreationDate,2025-03-31T12:51:01+01:00*%
%TF.ProjectId,vm_rp2040_brain_0.1,766d5f72-7032-4303-9430-5f627261696e,rev?*%
%TF.SameCoordinates,Original*%
%TF.FileFunction,Soldermask,Top*%
%TF.FilePolarity,Negative*%
%FSLAX45Y45*%
G04 Gerber Fmt 4.5, Leading zero omitted, Abs format (unit mm)*
G04 Created by KiCad (PCBNEW 9.0.0) date 2025-03-31 12:51:01*
%MOMM*%
%LPD*%
G01*
G04 APERTURE LIST*
G04 Aperture macros list*
%AMRoundRect*
0 Rectangle with rounded corners*
0 $1 Rounding radius*
0 $2 $3 $4 $5 $6 $7 $8 $9 X,Y pos of 4 corners*
0 Add a 4 corners polygon primitive as box body*
4,1,4,$2,$3,$4,$5,$6,$7,$8,$9,$2,$3,0*
0 Add four circle primitives for the rounded corners*
1,1,$1+$1,$2,$3*
1,1,$1+$1,$4,$5*
1,1,$1+$1,$6,$7*
1,1,$1+$1,$8,$9*
0 Add four rect primitives between the rounded corners*
20,1,$1+$1,$2,$3,$4,$5,0*
20,1,$1+$1,$4,$5,$6,$7,0*
20,1,$1+$1,$6,$7,$8,$9,0*
20,1,$1+$1,$8,$9,$2,$3,0*%
G04 Aperture macros list end*
%ADD10C,0.000000*%
%ADD11C,0.629990*%
%ADD12C,0.075000*%
%ADD13RoundRect,0.172720X0.259080X0.259080X-0.259080X0.259080X-0.259080X-0.259080X0.259080X-0.259080X0*%
%ADD14C,0.863600*%
%ADD15C,0.750000*%
%ADD16O,2.200000X1.200000*%
%ADD17O,1.800000X1.200000*%
G04 APERTURE END LIST*
D10*
G36*
X-392400Y-372601D02*
G01*
X-422601Y-372601D01*
X-422601Y-274900D01*
X-392400Y-274900D01*
X-392400Y-372601D01*
G37*
G36*
X125101Y-55100D02*
G01*
X27400Y-55100D01*
X27400Y-24899D01*
X125101Y-24899D01*
X125101Y-55100D01*
G37*
G36*
X957501Y-44999D02*
G01*
X802500Y-44999D01*
X802500Y-4999D01*
X957501Y-4999D01*
X957501Y-44999D01*
G37*
G36*
X844499Y714955D02*
G01*
X669498Y714955D01*
X669498Y789956D01*
X844499Y789956D01*
X844499Y714955D01*
G37*
G36*
X-737500Y411658D02*
G01*
X-872501Y411658D01*
X-872501Y566659D01*
X-737500Y566659D01*
X-737500Y411658D01*
G37*
G36*
X-1203438Y435000D02*
G01*
X-1273438Y435000D01*
X-1273438Y500001D01*
X-1203438Y500001D01*
X-1203438Y435000D01*
G37*
G36*
X957501Y155001D02*
G01*
X802500Y155001D01*
X802500Y195001D01*
X957501Y195001D01*
X957501Y155001D01*
G37*
G36*
X-579998Y472500D02*
G01*
X-644999Y472500D01*
X-644999Y542500D01*
X-579998Y542500D01*
X-579998Y472500D01*
G37*
G36*
X-910001Y-530052D02*
G01*
X-1030001Y-530052D01*
X-1030001Y-450052D01*
X-910001Y-450052D01*
X-910001Y-530052D01*
G37*
G36*
X-562398Y-95100D02*
G01*
X-660099Y-95100D01*
X-660099Y-64899D01*
X-562398Y-64899D01*
X-562398Y-95100D01*
G37*
G36*
X-1088965Y436298D02*
G01*
X-1158965Y436298D01*
X-1158965Y501299D01*
X-1088965Y501299D01*
X-1088965Y436298D01*
G37*
G36*
X957501Y4999D02*
G01*
X802500Y4999D01*
X802500Y44999D01*
X957501Y44999D01*
X957501Y4999D01*
G37*
G36*
X-845354Y597234D02*
G01*
X-910355Y597234D01*
X-910355Y667234D01*
X-845354Y667234D01*
X-845354Y597234D01*
G37*
G36*
X282500Y92500D02*
G01*
X217499Y92500D01*
X217499Y162500D01*
X282500Y162500D01*
X282500Y92500D01*
G37*
G36*
X125101Y24900D02*
G01*
X27400Y24900D01*
X27400Y55101D01*
X125101Y55101D01*
X125101Y24900D01*
G37*
G36*
X382502Y92500D02*
G01*
X317501Y92500D01*
X317501Y162500D01*
X382502Y162500D01*
X382502Y92500D01*
G37*
G36*
X-740538Y-34151D02*
G01*
X-810538Y-34151D01*
X-810538Y30850D01*
X-740538Y30850D01*
X-740538Y-34151D01*
G37*
G36*
X381632Y-963258D02*
G01*
X266631Y-963258D01*
X266631Y-878257D01*
X381632Y-878257D01*
X381632Y-963258D01*
G37*
G36*
X125101Y224900D02*
G01*
X27400Y224900D01*
X27400Y255101D01*
X125101Y255101D01*
X125101Y224900D01*
G37*
G36*
X-75802Y680572D02*
G01*
X-145802Y680572D01*
X-145802Y745573D01*
X-75802Y745573D01*
X-75802Y680572D01*
G37*
G36*
X-807501Y-1070334D02*
G01*
X-872502Y-1070334D01*
X-872502Y-1000334D01*
X-807501Y-1000334D01*
X-807501Y-1070334D01*
G37*
G36*
X-237499Y885001D02*
G01*
X-302500Y885001D01*
X-302500Y955001D01*
X-237499Y955001D01*
X-237499Y885001D01*
G37*
G36*
X653389Y426779D02*
G01*
X541868Y426779D01*
X541868Y533220D01*
X653389Y533220D01*
X653389Y426779D01*
G37*
G36*
X-77499Y1030000D02*
G01*
X-147499Y1030000D01*
X-147499Y1095001D01*
X-77499Y1095001D01*
X-77499Y1030000D01*
G37*
G36*
X729628Y-507349D02*
G01*
X624627Y-507349D01*
X624627Y-432348D01*
X729628Y-432348D01*
X729628Y-507349D01*
G37*
G36*
X844499Y841955D02*
G01*
X669498Y841955D01*
X669498Y916956D01*
X844499Y916956D01*
X844499Y841955D01*
G37*
G36*
X382502Y-25000D02*
G01*
X317501Y-25000D01*
X317501Y45000D01*
X382502Y45000D01*
X382502Y-25000D01*
G37*
G36*
X125101Y64900D02*
G01*
X27400Y64900D01*
X27400Y95101D01*
X125101Y95101D01*
X125101Y64900D01*
G37*
G36*
X254084Y-315702D02*
G01*
X208123Y-361663D01*
X158626Y-312166D01*
X204587Y-266205D01*
X254084Y-315702D01*
G37*
G36*
X-1082499Y815508D02*
G01*
X-1187500Y815508D01*
X-1187500Y890509D01*
X-1082499Y890509D01*
X-1082499Y815508D01*
G37*
G36*
X-788760Y-769283D02*
G01*
X-858760Y-769283D01*
X-858760Y-704282D01*
X-788760Y-704282D01*
X-788760Y-769283D01*
G37*
G36*
X-1357501Y30001D02*
G01*
X-1432502Y30001D01*
X-1432502Y120001D01*
X-1357501Y120001D01*
X-1357501Y30001D01*
G37*
G36*
X-75802Y780572D02*
G01*
X-145802Y780572D01*
X-145802Y845573D01*
X-75802Y845573D01*
X-75802Y780572D01*
G37*
G36*
X529629Y-412348D02*
G01*
X424628Y-412348D01*
X424628Y-337347D01*
X529629Y-337347D01*
X529629Y-412348D01*
G37*
G36*
X193991Y-1020989D02*
G01*
X123991Y-1020989D01*
X123991Y-955988D01*
X193991Y-955988D01*
X193991Y-1020989D01*
G37*
G36*
X-1312500Y718302D02*
G01*
X-1407501Y718302D01*
X-1407501Y793303D01*
X-1312500Y793303D01*
X-1312500Y718302D01*
G37*
G36*
X-667454Y-317066D02*
G01*
X-713415Y-363027D01*
X-762912Y-313530D01*
X-716951Y-267569D01*
X-667454Y-317066D01*
G37*
G36*
X957501Y-359999D02*
G01*
X802500Y-359999D01*
X802500Y-319999D01*
X957501Y-319999D01*
X957501Y-359999D01*
G37*
G36*
X1031999Y-296499D02*
G01*
X1016998Y-296499D01*
X1016998Y-281498D01*
X1031999Y-281498D01*
X1031999Y-296499D01*
G37*
G36*
X-233307Y557124D02*
G01*
X-282804Y507627D01*
X-328765Y553588D01*
X-279268Y603085D01*
X-233307Y557124D01*
G37*
G36*
X-939000Y-185349D02*
G01*
X-990999Y-185349D01*
X-990999Y-93348D01*
X-939000Y-93348D01*
X-939000Y-185349D01*
G37*
G36*
X-503321Y604482D02*
G01*
X-552818Y554985D01*
X-598779Y600946D01*
X-549282Y650443D01*
X-503321Y604482D01*
G37*
G36*
X125101Y144900D02*
G01*
X27400Y144900D01*
X27400Y175101D01*
X125101Y175101D01*
X125101Y144900D01*
G37*
G36*
X957501Y-279999D02*
G01*
X802500Y-279999D01*
X802500Y-239999D01*
X957501Y-239999D01*
X957501Y-279999D01*
G37*
G36*
X492499Y-116818D02*
G01*
X427498Y-116818D01*
X427498Y-46818D01*
X492499Y-46818D01*
X492499Y-116818D01*
G37*
G36*
X-574033Y675193D02*
G01*
X-623530Y625696D01*
X-669491Y671657D01*
X-619994Y721154D01*
X-574033Y675193D01*
G37*
G36*
X-392400Y314898D02*
G01*
X-422601Y314898D01*
X-422601Y412599D01*
X-392400Y412599D01*
X-392400Y314898D01*
G37*
G36*
X-1247501Y30001D02*
G01*
X-1322502Y30001D01*
X-1322502Y120001D01*
X-1247501Y120001D01*
X-1247501Y30001D01*
G37*
G36*
X-773569Y901820D02*
G01*
X-842505Y889663D01*
X-853793Y953676D01*
X-784857Y965833D01*
X-773569Y901820D01*
G37*
G36*
X7599Y314898D02*
G01*
X-22602Y314898D01*
X-22602Y412599D01*
X7599Y412599D01*
X7599Y314898D01*
G37*
G36*
X-707501Y-1070334D02*
G01*
X-772502Y-1070334D01*
X-772502Y-1000334D01*
X-707501Y-1000334D01*
X-707501Y-1070334D01*
G37*
G36*
X1402500Y515667D02*
G01*
X1337499Y515667D01*
X1337499Y585667D01*
X1402500Y585667D01*
X1402500Y515667D01*
G37*
G36*
X403759Y-1083215D02*
G01*
X338758Y-1083215D01*
X338758Y-1013215D01*
X403759Y-1013215D01*
X403759Y-1083215D01*
G37*
D11*
X-1106002Y-1007501D02*
G75*
G02*
X-1169001Y-1007501I-31500J0D01*
G01*
X-1169001Y-1007501D02*
G75*
G02*
X-1106002Y-1007501I31500J0D01*
G01*
D10*
G36*
X-520496Y-677501D02*
G01*
X-645497Y-677501D01*
X-645497Y-527501D01*
X-520496Y-527501D01*
X-520496Y-677501D01*
G37*
G36*
X-1249999Y-322611D02*
G01*
X-1319999Y-322611D01*
X-1319999Y-257610D01*
X-1249999Y-257610D01*
X-1249999Y-322611D01*
G37*
G36*
X957501Y105001D02*
G01*
X802500Y105001D01*
X802500Y145001D01*
X957501Y145001D01*
X957501Y105001D01*
G37*
G36*
X-888260Y-890551D02*
G01*
X-953261Y-890551D01*
X-953261Y-820551D01*
X-888260Y-820551D01*
X-888260Y-890551D01*
G37*
G36*
X-945354Y597234D02*
G01*
X-1010355Y597234D01*
X-1010355Y667234D01*
X-945354Y667234D01*
X-945354Y597234D01*
G37*
G36*
X1302500Y515667D02*
G01*
X1237499Y515667D01*
X1237499Y585667D01*
X1302500Y585667D01*
X1302500Y515667D01*
G37*
G36*
X381632Y-773258D02*
G01*
X266631Y-773258D01*
X266631Y-688257D01*
X381632Y-688257D01*
X381632Y-773258D01*
G37*
G36*
X957501Y-250000D02*
G01*
X802500Y-250000D01*
X802500Y-210000D01*
X957501Y-210000D01*
X957501Y-250000D01*
G37*
G36*
X956932Y-95001D02*
G01*
X801931Y-95001D01*
X801931Y-55001D01*
X956932Y-55001D01*
X956932Y-95001D01*
G37*
G36*
X-337499Y755001D02*
G01*
X-402500Y755001D01*
X-402500Y825001D01*
X-337499Y825001D01*
X-337499Y755001D01*
G37*
G36*
X-788760Y-669283D02*
G01*
X-858760Y-669283D01*
X-858760Y-604282D01*
X-788760Y-604282D01*
X-788760Y-669283D01*
G37*
G36*
X-975501Y68000D02*
G01*
X-1045501Y68000D01*
X-1045501Y133001D01*
X-975501Y133001D01*
X-975501Y68000D01*
G37*
G36*
X845503Y-803561D02*
G01*
X720502Y-803561D01*
X720502Y-653561D01*
X845503Y-653561D01*
X845503Y-803561D01*
G37*
G36*
X-562398Y24900D02*
G01*
X-660099Y24900D01*
X-660099Y55101D01*
X-562398Y55101D01*
X-562398Y24900D01*
G37*
G36*
X737501Y-202091D02*
G01*
X667501Y-202091D01*
X667501Y-137090D01*
X737501Y-137090D01*
X737501Y-202091D01*
G37*
G36*
X-1292500Y302499D02*
G01*
X-1387501Y302499D01*
X-1387501Y397500D01*
X-1292500Y397500D01*
X-1292500Y302499D01*
G37*
G36*
X-337499Y1015000D02*
G01*
X-402500Y1015000D01*
X-402500Y1085000D01*
X-337499Y1085000D01*
X-337499Y1015000D01*
G37*
G36*
X125101Y184900D02*
G01*
X27400Y184900D01*
X27400Y215101D01*
X125101Y215101D01*
X125101Y184900D01*
G37*
G36*
X-232400Y314898D02*
G01*
X-262601Y314898D01*
X-262601Y412599D01*
X-232400Y412599D01*
X-232400Y314898D01*
G37*
G36*
X-736330Y74499D02*
G01*
X-801331Y74499D01*
X-801331Y144499D01*
X-736330Y144499D01*
X-736330Y74499D01*
G37*
G36*
X621631Y-773258D02*
G01*
X506630Y-773258D01*
X506630Y-688257D01*
X621631Y-688257D01*
X621631Y-773258D01*
G37*
G36*
X-533102Y-494999D02*
G01*
X-598103Y-494999D01*
X-598103Y-424999D01*
X-533102Y-424999D01*
X-533102Y-494999D01*
G37*
G36*
X-562398Y64900D02*
G01*
X-660099Y64900D01*
X-660099Y95101D01*
X-562398Y95101D01*
X-562398Y64900D01*
G37*
G36*
X-237499Y755001D02*
G01*
X-302500Y755001D01*
X-302500Y825001D01*
X-237499Y825001D01*
X-237499Y755001D01*
G37*
G36*
X52501Y-832500D02*
G01*
X-62500Y-832500D01*
X-62500Y-757499D01*
X52501Y-757499D01*
X52501Y-832500D01*
G37*
G36*
X-337499Y885001D02*
G01*
X-402500Y885001D01*
X-402500Y955001D01*
X-337499Y955001D01*
X-337499Y885001D01*
G37*
G36*
X276881Y-560051D02*
G01*
X211880Y-560051D01*
X211880Y-490051D01*
X276881Y-490051D01*
X276881Y-560051D01*
G37*
G36*
X529629Y-602348D02*
G01*
X424628Y-602348D01*
X424628Y-527347D01*
X529629Y-527347D01*
X529629Y-602348D01*
G37*
G36*
X1031999Y494500D02*
G01*
X1037586Y494226D01*
X1043119Y493405D01*
X1048545Y492046D01*
X1053812Y490161D01*
X1058869Y487770D01*
X1063667Y484894D01*
X1068159Y481562D01*
X1072304Y477805D01*
X1076061Y473660D01*
X1079393Y469168D01*
X1082269Y464370D01*
X1084660Y459313D01*
X1086545Y454046D01*
X1087904Y448620D01*
X1088725Y443087D01*
X1088999Y437500D01*
X1088999Y426501D01*
X1088725Y420915D01*
X1087904Y415382D01*
X1086545Y409956D01*
X1084660Y404689D01*
X1082269Y399632D01*
X1079393Y394834D01*
X1076061Y390342D01*
X1072304Y386197D01*
X1068159Y382440D01*
X1063667Y379108D01*
X1058869Y376232D01*
X1053812Y373841D01*
X1048545Y371956D01*
X1043119Y370597D01*
X1037586Y369776D01*
X1031999Y369502D01*
X1031999Y369501D01*
X910998Y369501D01*
X910998Y369503D01*
X905412Y369776D01*
X899879Y370597D01*
X894453Y371956D01*
X889186Y373841D01*
X884129Y376232D01*
X879331Y379108D01*
X874839Y382440D01*
X870694Y386197D01*
X866937Y390342D01*
X863605Y394834D01*
X860729Y399632D01*
X858338Y404689D01*
X856453Y409956D01*
X855094Y415382D01*
X854273Y420915D01*
X853999Y426501D01*
X853998Y426501D01*
X853998Y437502D01*
X853999Y437502D01*
X854273Y443087D01*
X855094Y448620D01*
X856453Y454046D01*
X858338Y459313D01*
X860729Y464370D01*
X863605Y469168D01*
X866937Y473660D01*
X870694Y477805D01*
X874839Y481562D01*
X879331Y484894D01*
X884129Y487770D01*
X889186Y490161D01*
X894453Y492046D01*
X899879Y493405D01*
X905412Y494226D01*
X910998Y494499D01*
X910998Y494502D01*
X1031999Y494502D01*
X1031999Y494500D01*
G37*
G36*
X125101Y-15100D02*
G01*
X27400Y-15100D01*
X27400Y15101D01*
X125101Y15101D01*
X125101Y-15100D01*
G37*
G36*
X-112400Y314898D02*
G01*
X-142601Y314898D01*
X-142601Y412599D01*
X-112400Y412599D01*
X-112400Y314898D01*
G37*
G36*
X621631Y-963258D02*
G01*
X506630Y-963258D01*
X506630Y-878257D01*
X621631Y-878257D01*
X621631Y-963258D01*
G37*
G36*
X-907499Y191659D02*
G01*
X-1042500Y191659D01*
X-1042500Y346660D01*
X-907499Y346660D01*
X-907499Y191659D01*
G37*
G36*
X-744111Y-530624D02*
G01*
X-790072Y-576585D01*
X-839569Y-527088D01*
X-793608Y-481127D01*
X-744111Y-530624D01*
G37*
G36*
X-1069000Y-391349D02*
G01*
X-1120999Y-391349D01*
X-1120999Y-299348D01*
X-1069000Y-299348D01*
X-1069000Y-391349D01*
G37*
D12*
X1028249Y288999D02*
G75*
G02*
X1020749Y288999I-3750J0D01*
G01*
X1020749Y288999D02*
G75*
G02*
X1028249Y288999I3750J0D01*
G01*
D10*
G36*
X-1292500Y152500D02*
G01*
X-1387501Y152500D01*
X-1387501Y247501D01*
X-1292500Y247501D01*
X-1292500Y152500D01*
G37*
G36*
X-512400Y314898D02*
G01*
X-542601Y314898D01*
X-542601Y412599D01*
X-512400Y412599D01*
X-512400Y314898D01*
G37*
G36*
X-32401Y-372601D02*
G01*
X-62602Y-372601D01*
X-62602Y-274900D01*
X-32401Y-274900D01*
X-32401Y-372601D01*
G37*
G36*
X-232400Y-372601D02*
G01*
X-262601Y-372601D01*
X-262601Y-274900D01*
X-232400Y-274900D01*
X-232400Y-372601D01*
G37*
G36*
X-1104000Y-32000D02*
G01*
X-1174000Y-32000D01*
X-1174000Y33001D01*
X-1104000Y33001D01*
X-1104000Y-32000D01*
G37*
D11*
X-979001Y-1007501D02*
G75*
G02*
X-1042000Y-1007501I-31500J0D01*
G01*
X-1042000Y-1007501D02*
G75*
G02*
X-979001Y-1007501I31500J0D01*
G01*
D10*
G36*
X-479998Y472500D02*
G01*
X-544999Y472500D01*
X-544999Y542500D01*
X-479998Y542500D01*
X-479998Y472500D01*
G37*
G36*
X-26416Y486413D02*
G01*
X-75913Y436916D01*
X-121874Y482877D01*
X-72377Y532374D01*
X-26416Y486413D01*
G37*
G36*
X-1352499Y-300001D02*
G01*
X-1432499Y-300001D01*
X-1432499Y-250001D01*
X-1352499Y-250001D01*
X-1352499Y-300001D01*
G37*
G36*
X-397651Y-782501D02*
G01*
X-467651Y-782501D01*
X-467651Y-717500D01*
X-397651Y-717500D01*
X-397651Y-782501D01*
G37*
G36*
X-192400Y-372601D02*
G01*
X-222601Y-372601D01*
X-222601Y-274900D01*
X-192400Y-274900D01*
X-192400Y-372601D01*
G37*
G36*
X326502Y-393030D02*
G01*
X280541Y-438991D01*
X231044Y-389494D01*
X277005Y-343533D01*
X326502Y-393030D01*
G37*
G36*
X-543426Y961464D02*
G01*
X-614307Y961464D01*
X-614307Y1083145D01*
X-543426Y1083145D01*
X-543426Y961464D01*
G37*
G36*
X1424999Y-369503D02*
G01*
X1430585Y-369776D01*
X1436118Y-370597D01*
X1441544Y-371956D01*
X1446811Y-373841D01*
X1451868Y-376232D01*
X1456666Y-379108D01*
X1461158Y-382440D01*
X1465303Y-386197D01*
X1469060Y-390342D01*
X1472392Y-394834D01*
X1475268Y-399632D01*
X1477659Y-404689D01*
X1479544Y-409956D01*
X1480903Y-415382D01*
X1481724Y-420915D01*
X1481998Y-426500D01*
X1481999Y-426500D01*
X1481999Y-437501D01*
X1481998Y-437501D01*
X1481724Y-443087D01*
X1480903Y-448620D01*
X1479544Y-454046D01*
X1477659Y-459313D01*
X1475268Y-464370D01*
X1472392Y-469168D01*
X1469060Y-473660D01*
X1465303Y-477805D01*
X1461158Y-481562D01*
X1456666Y-484894D01*
X1451868Y-487770D01*
X1446811Y-490161D01*
X1441544Y-492046D01*
X1436118Y-493405D01*
X1430585Y-494226D01*
X1424999Y-494499D01*
X1424999Y-494501D01*
X1353998Y-494501D01*
X1353998Y-494499D01*
X1348413Y-494226D01*
X1342880Y-493405D01*
X1337454Y-492046D01*
X1332187Y-490161D01*
X1327130Y-487770D01*
X1322332Y-484894D01*
X1317840Y-481562D01*
X1313695Y-477805D01*
X1309938Y-473660D01*
X1306606Y-469168D01*
X1303730Y-464370D01*
X1301339Y-459313D01*
X1299454Y-454046D01*
X1298095Y-448620D01*
X1297274Y-443087D01*
X1297000Y-437501D01*
X1296998Y-437501D01*
X1296998Y-426500D01*
X1297000Y-426500D01*
X1297274Y-420915D01*
X1298095Y-415382D01*
X1299454Y-409956D01*
X1301339Y-404689D01*
X1303730Y-399632D01*
X1306606Y-394834D01*
X1309938Y-390342D01*
X1313695Y-386197D01*
X1317840Y-382440D01*
X1322332Y-379108D01*
X1327130Y-376232D01*
X1332187Y-373841D01*
X1337454Y-371956D01*
X1342880Y-370597D01*
X1348413Y-369776D01*
X1353998Y-369503D01*
X1353998Y-369500D01*
X1424999Y-369500D01*
X1424999Y-369503D01*
G37*
G36*
X-472400Y314898D02*
G01*
X-502601Y314898D01*
X-502601Y412599D01*
X-472400Y412599D01*
X-472400Y314898D01*
G37*
G36*
X1097931Y515667D02*
G01*
X1032930Y515667D01*
X1032930Y585667D01*
X1097931Y585667D01*
X1097931Y515667D01*
G37*
G36*
X-448176Y732864D02*
G01*
X-519057Y732864D01*
X-519057Y854545D01*
X-448176Y854545D01*
X-448176Y732864D01*
G37*
G36*
X144500Y968955D02*
G01*
X-30501Y968955D01*
X-30501Y1043956D01*
X144500Y1043956D01*
X144500Y968955D01*
G37*
G36*
X-1352499Y-230001D02*
G01*
X-1432499Y-230001D01*
X-1432499Y-180001D01*
X-1352499Y-180001D01*
X-1352499Y-230001D01*
G37*
G36*
X-391870Y-1074619D02*
G01*
X-461870Y-1074619D01*
X-461870Y-1009618D01*
X-391870Y-1009618D01*
X-391870Y-1074619D01*
G37*
G36*
X183373Y-386413D02*
G01*
X137412Y-432374D01*
X87915Y-382877D01*
X133876Y-336916D01*
X183373Y-386413D01*
G37*
G36*
X-1350000Y420000D02*
G01*
X-1430000Y420000D01*
X-1430000Y470000D01*
X-1350000Y470000D01*
X-1350000Y420000D01*
G37*
G36*
X-1069000Y-185349D02*
G01*
X-1120999Y-185349D01*
X-1120999Y-93348D01*
X-1069000Y-93348D01*
X-1069000Y-185349D01*
G37*
G36*
X-737500Y191659D02*
G01*
X-872501Y191659D01*
X-872501Y346660D01*
X-737500Y346660D01*
X-737500Y191659D01*
G37*
G36*
X125101Y-135100D02*
G01*
X27400Y-135100D01*
X27400Y-104899D01*
X125101Y-104899D01*
X125101Y-135100D01*
G37*
G36*
X740001Y217499D02*
G01*
X660001Y217499D01*
X660001Y267499D01*
X740001Y267499D01*
X740001Y217499D01*
G37*
G36*
X-562398Y-215100D02*
G01*
X-660099Y-215100D01*
X-660099Y-184899D01*
X-562398Y-184899D01*
X-562398Y-215100D01*
G37*
G36*
X739999Y112500D02*
G01*
X659999Y112500D01*
X659999Y162500D01*
X739999Y162500D01*
X739999Y112500D01*
G37*
G36*
X-562398Y-175100D02*
G01*
X-660099Y-175100D01*
X-660099Y-144899D01*
X-562398Y-144899D01*
X-562398Y-175100D01*
G37*
G36*
X-1350000Y490000D02*
G01*
X-1430000Y490000D01*
X-1430000Y540000D01*
X-1350000Y540000D01*
X-1350000Y490000D01*
G37*
G36*
X957501Y239999D02*
G01*
X802500Y239999D01*
X802500Y279999D01*
X957501Y279999D01*
X957501Y239999D01*
G37*
D11*
X-1106002Y-839861D02*
G75*
G02*
X-1169001Y-839861I-31500J0D01*
G01*
X-1169001Y-839861D02*
G75*
G02*
X-1106002Y-839861I31500J0D01*
G01*
D10*
G36*
X-222499Y-832500D02*
G01*
X-337500Y-832500D01*
X-337500Y-757499D01*
X-222499Y-757499D01*
X-222499Y-832500D01*
G37*
G36*
X-97127Y557124D02*
G01*
X-146624Y507627D01*
X-192585Y553588D01*
X-143088Y603085D01*
X-97127Y557124D01*
G37*
G36*
X125101Y-175100D02*
G01*
X27400Y-175100D01*
X27400Y-144899D01*
X125101Y-144899D01*
X125101Y-175100D01*
G37*
G36*
X957501Y319999D02*
G01*
X802500Y319999D01*
X802500Y359999D01*
X957501Y359999D01*
X957501Y319999D01*
G37*
G36*
X193991Y-920989D02*
G01*
X123991Y-920989D01*
X123991Y-855988D01*
X193991Y-855988D01*
X193991Y-920989D01*
G37*
G36*
X-102400Y-145100D02*
G01*
X-432600Y-145100D01*
X-432600Y185100D01*
X-102400Y185100D01*
X-102400Y-145100D01*
G37*
G36*
X-1312500Y578303D02*
G01*
X-1407501Y578303D01*
X-1407501Y653304D01*
X-1312500Y653304D01*
X-1312500Y578303D01*
G37*
G36*
X-562398Y184900D02*
G01*
X-660099Y184900D01*
X-660099Y215101D01*
X-562398Y215101D01*
X-562398Y184900D01*
G37*
G36*
X-562398Y144900D02*
G01*
X-660099Y144900D01*
X-660099Y175101D01*
X-562398Y175101D01*
X-562398Y144900D01*
G37*
G36*
X-1004001Y-185349D02*
G01*
X-1056000Y-185349D01*
X-1056000Y-93348D01*
X-1004001Y-93348D01*
X-1004001Y-185349D01*
G37*
G36*
X144500Y714955D02*
G01*
X-30501Y714955D01*
X-30501Y789956D01*
X144500Y789956D01*
X144500Y714955D01*
G37*
G36*
X-1249999Y-222611D02*
G01*
X-1319999Y-222611D01*
X-1319999Y-157610D01*
X-1249999Y-157610D01*
X-1249999Y-222611D01*
G37*
G36*
X7599Y-372601D02*
G01*
X-22602Y-372601D01*
X-22602Y-274900D01*
X7599Y-274900D01*
X7599Y-372601D01*
G37*
G36*
X-32401Y314898D02*
G01*
X-62602Y314898D01*
X-62602Y412599D01*
X-32401Y412599D01*
X-32401Y314898D01*
G37*
D11*
X-1233002Y-839861D02*
G75*
G02*
X-1296001Y-839861I-31500J0D01*
G01*
X-1296001Y-839861D02*
G75*
G02*
X-1233002Y-839861I31500J0D01*
G01*
D10*
G36*
X-312400Y314898D02*
G01*
X-342601Y314898D01*
X-342601Y412599D01*
X-312400Y412599D01*
X-312400Y314898D01*
G37*
G36*
X1197931Y515667D02*
G01*
X1132930Y515667D01*
X1132930Y585667D01*
X1197931Y585667D01*
X1197931Y515667D01*
G37*
G36*
X1031999Y-369502D02*
G01*
X1037586Y-369776D01*
X1043119Y-370597D01*
X1048545Y-371956D01*
X1053812Y-373841D01*
X1058869Y-376232D01*
X1063667Y-379108D01*
X1068159Y-382440D01*
X1072304Y-386197D01*
X1076061Y-390342D01*
X1079393Y-394834D01*
X1082269Y-399632D01*
X1084660Y-404689D01*
X1086545Y-409956D01*
X1087904Y-415382D01*
X1088725Y-420915D01*
X1088999Y-426502D01*
X1088999Y-437501D01*
X1088725Y-443087D01*
X1087904Y-448620D01*
X1086545Y-454046D01*
X1084660Y-459313D01*
X1082269Y-464370D01*
X1079393Y-469168D01*
X1076061Y-473660D01*
X1072304Y-477805D01*
X1068159Y-481562D01*
X1063667Y-484894D01*
X1058869Y-487770D01*
X1053812Y-490161D01*
X1048545Y-492046D01*
X1043119Y-493405D01*
X1037586Y-494226D01*
X1031999Y-494500D01*
X1031999Y-494501D01*
X910998Y-494501D01*
X910998Y-494499D01*
X905412Y-494226D01*
X899879Y-493405D01*
X894453Y-492046D01*
X889186Y-490161D01*
X884129Y-487770D01*
X879331Y-484894D01*
X874839Y-481562D01*
X870694Y-477805D01*
X866937Y-473660D01*
X863605Y-469168D01*
X860729Y-464370D01*
X858338Y-459313D01*
X856453Y-454046D01*
X855094Y-448620D01*
X854273Y-443087D01*
X853999Y-437501D01*
X853998Y-437501D01*
X853998Y-426500D01*
X853999Y-426500D01*
X854273Y-420915D01*
X855094Y-415382D01*
X856453Y-409956D01*
X858338Y-404689D01*
X860729Y-399632D01*
X863605Y-394834D01*
X866937Y-390342D01*
X870694Y-386197D01*
X874839Y-382440D01*
X879331Y-379108D01*
X884129Y-376232D01*
X889186Y-373841D01*
X894453Y-371956D01*
X899879Y-370597D01*
X905412Y-369776D01*
X910998Y-369503D01*
X910998Y-369500D01*
X1031999Y-369500D01*
X1031999Y-369502D01*
G37*
G36*
X-562398Y-15100D02*
G01*
X-660099Y-15100D01*
X-660099Y15101D01*
X-562398Y15101D01*
X-562398Y-15100D01*
G37*
G36*
X-1357501Y-120001D02*
G01*
X-1432502Y-120001D01*
X-1432502Y-30001D01*
X-1357501Y-30001D01*
X-1357501Y-120001D01*
G37*
G36*
X-397651Y-882501D02*
G01*
X-467651Y-882501D01*
X-467651Y-817500D01*
X-397651Y-817500D01*
X-397651Y-882501D01*
G37*
G36*
X-1201499Y-1070500D02*
G01*
X-1327498Y-1070500D01*
X-1327498Y-944501D01*
X-1201499Y-944501D01*
X-1201499Y-1070500D01*
G37*
G36*
X-882499Y720507D02*
G01*
X-987500Y720507D01*
X-987500Y795508D01*
X-882499Y795508D01*
X-882499Y720507D01*
G37*
G36*
X-1088965Y536297D02*
G01*
X-1158965Y536297D01*
X-1158965Y601298D01*
X-1088965Y601298D01*
X-1088965Y536297D01*
G37*
G36*
X-152400Y314898D02*
G01*
X-182601Y314898D01*
X-182601Y412599D01*
X-152400Y412599D01*
X-152400Y314898D01*
G37*
G36*
X-788260Y-890551D02*
G01*
X-853261Y-890551D01*
X-853261Y-820551D01*
X-788260Y-820551D01*
X-788260Y-890551D01*
G37*
G36*
X-1192649Y1066168D02*
G01*
X-1223840Y980468D01*
X-1314315Y1013396D01*
X-1283124Y1099096D01*
X-1192649Y1066168D01*
G37*
G36*
X975432Y618167D02*
G01*
X905432Y618167D01*
X905432Y683168D01*
X975432Y683168D01*
X975432Y618167D01*
G37*
G36*
X-882499Y910507D02*
G01*
X-987500Y910507D01*
X-987500Y985508D01*
X-882499Y985508D01*
X-882499Y910507D01*
G37*
G36*
X-1183893Y299500D02*
G01*
X-1248894Y299500D01*
X-1248894Y369500D01*
X-1183893Y369500D01*
X-1183893Y299500D01*
G37*
G36*
X-836330Y74499D02*
G01*
X-901331Y74499D01*
X-901331Y144499D01*
X-836330Y144499D01*
X-836330Y74499D01*
G37*
G36*
X-690183Y-810080D02*
G01*
X-760183Y-810080D01*
X-760183Y-745079D01*
X-690183Y-745079D01*
X-690183Y-810080D01*
G37*
G36*
X-1324999Y-745051D02*
G01*
X-1444999Y-745051D01*
X-1444999Y-665051D01*
X-1324999Y-665051D01*
X-1324999Y-745051D01*
G37*
G36*
X40001Y-642499D02*
G01*
X-109999Y-642499D01*
X-109999Y-517498D01*
X40001Y-517498D01*
X40001Y-642499D01*
G37*
G36*
X469218Y302407D02*
G01*
X399218Y302407D01*
X399218Y367408D01*
X469218Y367408D01*
X469218Y302407D01*
G37*
G36*
X-562398Y-135100D02*
G01*
X-660099Y-135100D01*
X-660099Y-104899D01*
X-562398Y-104899D01*
X-562398Y-135100D01*
G37*
G36*
X737501Y-302091D02*
G01*
X667501Y-302091D01*
X667501Y-237090D01*
X737501Y-237090D01*
X737501Y-302091D01*
G37*
G36*
X-975501Y-32000D02*
G01*
X-1045501Y-32000D01*
X-1045501Y33001D01*
X-975501Y33001D01*
X-975501Y-32000D01*
G37*
G36*
X-1004001Y-391349D02*
G01*
X-1056000Y-391349D01*
X-1056000Y-299348D01*
X-1004001Y-299348D01*
X-1004001Y-391349D01*
G37*
G36*
X957501Y-329999D02*
G01*
X802500Y-329999D01*
X802500Y-289999D01*
X957501Y-289999D01*
X957501Y-329999D01*
G37*
G36*
X376881Y-560051D02*
G01*
X311880Y-560051D01*
X311880Y-490051D01*
X376881Y-490051D01*
X376881Y-560051D01*
G37*
G36*
X-1083894Y299500D02*
G01*
X-1148895Y299500D01*
X-1148895Y369500D01*
X-1083894Y369500D01*
X-1083894Y299500D01*
G37*
G36*
X144500Y841955D02*
G01*
X-30501Y841955D01*
X-30501Y916956D01*
X144500Y916956D01*
X144500Y841955D01*
G37*
G36*
X-222499Y-1022499D02*
G01*
X-337500Y-1022499D01*
X-337500Y-947498D01*
X-222499Y-947498D01*
X-222499Y-1022499D01*
G37*
G36*
X303759Y-1083215D02*
G01*
X238758Y-1083215D01*
X238758Y-1013215D01*
X303759Y-1013215D01*
X303759Y-1083215D01*
G37*
G36*
X739999Y-42501D02*
G01*
X659999Y-42501D01*
X659999Y7499D01*
X739999Y7499D01*
X739999Y-42501D01*
G37*
G36*
X-152400Y-372601D02*
G01*
X-182601Y-372601D01*
X-182601Y-274900D01*
X-152400Y-274900D01*
X-152400Y-372601D01*
G37*
G36*
X-1183893Y178258D02*
G01*
X-1248894Y178258D01*
X-1248894Y248258D01*
X-1183893Y248258D01*
X-1183893Y178258D01*
G37*
G36*
X-562398Y224900D02*
G01*
X-660099Y224900D01*
X-660099Y255101D01*
X-562398Y255101D01*
X-562398Y224900D01*
G37*
G36*
X-1125548Y672815D02*
G01*
X-1179170Y627819D01*
X-1220950Y677611D01*
X-1167328Y722607D01*
X-1125548Y672815D01*
G37*
G36*
X-840000Y-136249D02*
G01*
X-910000Y-136249D01*
X-910000Y-71248D01*
X-840000Y-71248D01*
X-840000Y-136249D01*
G37*
G36*
X739999Y42501D02*
G01*
X659999Y42501D01*
X659999Y92501D01*
X739999Y92501D01*
X739999Y42501D01*
G37*
G36*
X-562398Y104900D02*
G01*
X-660099Y104900D01*
X-660099Y135101D01*
X-562398Y135101D01*
X-562398Y104900D01*
G37*
G36*
X119951Y469623D02*
G01*
X70454Y420126D01*
X24493Y466087D01*
X73990Y515584D01*
X119951Y469623D01*
G37*
G36*
X844499Y968955D02*
G01*
X669498Y968955D01*
X669498Y1043956D01*
X844499Y1043956D01*
X844499Y968955D01*
G37*
G36*
X-939000Y-391349D02*
G01*
X-990999Y-391349D01*
X-990999Y-299348D01*
X-939000Y-299348D01*
X-939000Y-391349D01*
G37*
G36*
X-685555Y990916D02*
G01*
X-750556Y990916D01*
X-750556Y1060916D01*
X-685555Y1060916D01*
X-685555Y990916D01*
G37*
G36*
X125101Y-95100D02*
G01*
X27400Y-95100D01*
X27400Y-64899D01*
X125101Y-64899D01*
X125101Y-95100D01*
G37*
G36*
X-433102Y-494999D02*
G01*
X-498103Y-494999D01*
X-498103Y-424999D01*
X-433102Y-424999D01*
X-433102Y-494999D01*
G37*
G36*
X592499Y-116818D02*
G01*
X527498Y-116818D01*
X527498Y-46818D01*
X592499Y-46818D01*
X592499Y-116818D01*
G37*
G36*
X-673400Y-459913D02*
G01*
X-719361Y-505874D01*
X-768858Y-456377D01*
X-722897Y-410416D01*
X-673400Y-459913D01*
G37*
G36*
X-1083894Y178258D02*
G01*
X-1148895Y178258D01*
X-1148895Y248258D01*
X-1083894Y248258D01*
X-1083894Y178258D01*
G37*
G36*
X-512400Y-372601D02*
G01*
X-542601Y-372601D01*
X-542601Y-274900D01*
X-512400Y-274900D01*
X-512400Y-372601D01*
G37*
G36*
X-840000Y-36249D02*
G01*
X-910000Y-36249D01*
X-910000Y28752D01*
X-840000Y28752D01*
X-840000Y-36249D01*
G37*
G36*
X-690183Y-710081D02*
G01*
X-760183Y-710081D01*
X-760183Y-645080D01*
X-690183Y-645080D01*
X-690183Y-710081D01*
G37*
G36*
X-222499Y-927501D02*
G01*
X-337500Y-927501D01*
X-337500Y-852500D01*
X-222499Y-852500D01*
X-222499Y-927501D01*
G37*
G36*
X-192400Y314898D02*
G01*
X-222601Y314898D01*
X-222601Y412599D01*
X-192400Y412599D01*
X-192400Y314898D01*
G37*
G36*
X397213Y-322319D02*
G01*
X351252Y-368280D01*
X301755Y-318783D01*
X347716Y-272822D01*
X397213Y-322319D01*
G37*
G36*
X-472400Y-372601D02*
G01*
X-502601Y-372601D01*
X-502601Y-274900D01*
X-472400Y-274900D01*
X-472400Y-372601D01*
G37*
G36*
X592499Y-230001D02*
G01*
X527498Y-230001D01*
X527498Y-160001D01*
X592499Y-160001D01*
X592499Y-230001D01*
G37*
G36*
X144500Y587955D02*
G01*
X-30501Y587955D01*
X-30501Y662956D01*
X144500Y662956D01*
X144500Y587955D01*
G37*
G36*
X282500Y-25000D02*
G01*
X217499Y-25000D01*
X217499Y45000D01*
X282500Y45000D01*
X282500Y-25000D01*
G37*
G36*
X-112400Y-372601D02*
G01*
X-142601Y-372601D01*
X-142601Y-274900D01*
X-112400Y-274900D01*
X-112400Y-372601D01*
G37*
G36*
X52501Y-1022499D02*
G01*
X-62500Y-1022499D01*
X-62500Y-947498D01*
X52501Y-947498D01*
X52501Y-1022499D01*
G37*
G36*
X-562398Y-255100D02*
G01*
X-660099Y-255100D01*
X-660099Y-224899D01*
X-562398Y-224899D01*
X-562398Y-255100D01*
G37*
G36*
X502824Y-1080713D02*
G01*
X437823Y-1080713D01*
X437823Y-1010713D01*
X502824Y-1010713D01*
X502824Y-1080713D01*
G37*
G36*
X-1189828Y749419D02*
G01*
X-1243450Y704423D01*
X-1285230Y754215D01*
X-1231608Y799211D01*
X-1189828Y749419D01*
G37*
G36*
X602824Y-1080713D02*
G01*
X537823Y-1080713D01*
X537823Y-1010713D01*
X602824Y-1010713D01*
X602824Y-1080713D01*
G37*
G36*
X-1245641Y920570D02*
G01*
X-1276832Y834870D01*
X-1367307Y867798D01*
X-1336116Y953498D01*
X-1245641Y920570D01*
G37*
G36*
X-272400Y314898D02*
G01*
X-302601Y314898D01*
X-302601Y412599D01*
X-272400Y412599D01*
X-272400Y314898D01*
G37*
G36*
X-638676Y732864D02*
G01*
X-709557Y732864D01*
X-709557Y854545D01*
X-638676Y854545D01*
X-638676Y732864D01*
G37*
G36*
X845503Y-1088559D02*
G01*
X720502Y-1088559D01*
X720502Y-938559D01*
X845503Y-938559D01*
X845503Y-1088559D01*
G37*
G36*
X-432400Y314898D02*
G01*
X-462601Y314898D01*
X-462601Y412599D01*
X-432400Y412599D01*
X-432400Y314898D01*
G37*
G36*
X-77499Y930000D02*
G01*
X-147499Y930000D01*
X-147499Y995001D01*
X-77499Y995001D01*
X-77499Y930000D01*
G37*
G36*
X1424999Y494499D02*
G01*
X1430585Y494226D01*
X1436118Y493405D01*
X1441544Y492046D01*
X1446811Y490161D01*
X1451868Y487770D01*
X1456666Y484894D01*
X1461158Y481562D01*
X1465303Y477805D01*
X1469060Y473660D01*
X1472392Y469168D01*
X1475268Y464370D01*
X1477659Y459313D01*
X1479544Y454046D01*
X1480903Y448620D01*
X1481724Y443087D01*
X1481998Y437502D01*
X1481999Y437502D01*
X1481999Y426501D01*
X1481998Y426501D01*
X1481724Y420915D01*
X1480903Y415382D01*
X1479544Y409956D01*
X1477659Y404689D01*
X1475268Y399632D01*
X1472392Y394834D01*
X1469060Y390342D01*
X1465303Y386197D01*
X1461158Y382440D01*
X1456666Y379108D01*
X1451868Y376232D01*
X1446811Y373841D01*
X1441544Y371956D01*
X1436118Y370597D01*
X1430585Y369776D01*
X1424999Y369503D01*
X1424999Y369501D01*
X1353998Y369501D01*
X1353998Y369503D01*
X1348413Y369776D01*
X1342880Y370597D01*
X1337454Y371956D01*
X1332187Y373841D01*
X1327130Y376232D01*
X1322332Y379108D01*
X1317840Y382440D01*
X1313695Y386197D01*
X1309938Y390342D01*
X1306606Y394834D01*
X1303730Y399632D01*
X1301339Y404689D01*
X1299454Y409956D01*
X1298095Y415382D01*
X1297274Y420915D01*
X1297000Y426501D01*
X1296998Y426501D01*
X1296998Y437502D01*
X1297000Y437502D01*
X1297274Y443087D01*
X1298095Y448620D01*
X1299454Y454046D01*
X1301339Y459313D01*
X1303730Y464370D01*
X1306606Y469168D01*
X1309938Y473660D01*
X1313695Y477805D01*
X1317840Y481562D01*
X1322332Y484894D01*
X1327130Y487770D01*
X1332187Y490161D01*
X1337454Y492046D01*
X1342880Y493405D01*
X1348413Y494226D01*
X1353998Y494499D01*
X1353998Y494502D01*
X1424999Y494502D01*
X1424999Y494499D01*
G37*
G36*
X-1324999Y-530052D02*
G01*
X-1444999Y-530052D01*
X-1444999Y-450052D01*
X-1324999Y-450052D01*
X-1324999Y-530052D01*
G37*
G36*
X-1247501Y-120001D02*
G01*
X-1322502Y-120001D01*
X-1322502Y-30001D01*
X-1247501Y-30001D01*
X-1247501Y-120001D01*
G37*
G36*
X912501Y-605710D02*
G01*
X847500Y-605710D01*
X847500Y-535710D01*
X912501Y-535710D01*
X912501Y-605710D01*
G37*
G36*
X-520496Y-962499D02*
G01*
X-645497Y-962499D01*
X-645497Y-812499D01*
X-520496Y-812499D01*
X-520496Y-962499D01*
G37*
G36*
X-244999Y-642499D02*
G01*
X-394999Y-642499D01*
X-394999Y-517498D01*
X-244999Y-517498D01*
X-244999Y-642499D01*
G37*
G36*
X957501Y210000D02*
G01*
X802500Y210000D01*
X802500Y250000D01*
X957501Y250000D01*
X957501Y210000D01*
G37*
G36*
X125101Y104900D02*
G01*
X27400Y104900D01*
X27400Y135101D01*
X125101Y135101D01*
X125101Y104900D01*
G37*
G36*
X-312400Y-372601D02*
G01*
X-342601Y-372601D01*
X-342601Y-274900D01*
X-312400Y-274900D01*
X-312400Y-372601D01*
G37*
G36*
X-805355Y-981059D02*
G01*
X-870356Y-981059D01*
X-870356Y-911059D01*
X-805355Y-911059D01*
X-805355Y-981059D01*
G37*
G36*
X739999Y-112500D02*
G01*
X659999Y-112500D01*
X659999Y-62500D01*
X739999Y-62500D01*
X739999Y-112500D01*
G37*
G36*
X-391870Y-974619D02*
G01*
X-461870Y-974619D01*
X-461870Y-909618D01*
X-391870Y-909618D01*
X-391870Y-974619D01*
G37*
G36*
X-907499Y411658D02*
G01*
X-1042500Y411658D01*
X-1042500Y566659D01*
X-907499Y566659D01*
X-907499Y411658D01*
G37*
G36*
X957501Y55001D02*
G01*
X802500Y55001D01*
X802500Y95001D01*
X957501Y95001D01*
X957501Y55001D01*
G37*
G36*
X125101Y264899D02*
G01*
X27400Y264899D01*
X27400Y295100D01*
X125101Y295100D01*
X125101Y264899D01*
G37*
G36*
X957501Y-145001D02*
G01*
X802500Y-145001D01*
X802500Y-105001D01*
X957501Y-105001D01*
X957501Y-145001D01*
G37*
G36*
X621631Y-868257D02*
G01*
X506630Y-868257D01*
X506630Y-783256D01*
X621631Y-783256D01*
X621631Y-868257D01*
G37*
G36*
X-562398Y-55100D02*
G01*
X-660099Y-55100D01*
X-660099Y-24899D01*
X-562398Y-24899D01*
X-562398Y-55100D01*
G37*
G36*
X812501Y-605710D02*
G01*
X747500Y-605710D01*
X747500Y-535710D01*
X812501Y-535710D01*
X812501Y-605710D01*
G37*
G36*
X-756206Y803339D02*
G01*
X-825142Y791182D01*
X-836430Y855195D01*
X-767494Y867352D01*
X-756206Y803339D01*
G37*
G36*
X-740538Y-134151D02*
G01*
X-810538Y-134151D01*
X-810538Y-69150D01*
X-740538Y-69150D01*
X-740538Y-134151D01*
G37*
G36*
X957501Y289999D02*
G01*
X802500Y289999D01*
X802500Y329999D01*
X957501Y329999D01*
X957501Y289999D01*
G37*
G36*
X-352400Y314898D02*
G01*
X-382601Y314898D01*
X-382601Y412599D01*
X-352400Y412599D01*
X-352400Y314898D01*
G37*
G36*
X478129Y426779D02*
G01*
X366608Y426779D01*
X366608Y533220D01*
X478129Y533220D01*
X478129Y426779D01*
G37*
G36*
X-272400Y-372601D02*
G01*
X-302601Y-372601D01*
X-302601Y-274900D01*
X-272400Y-274900D01*
X-272400Y-372601D01*
G37*
G36*
X52501Y-927501D02*
G01*
X-62500Y-927501D01*
X-62500Y-852500D01*
X52501Y-852500D01*
X52501Y-927501D01*
G37*
G36*
X-705355Y-981059D02*
G01*
X-770356Y-981059D01*
X-770356Y-911059D01*
X-705355Y-911059D01*
X-705355Y-981059D01*
G37*
G36*
X740001Y287499D02*
G01*
X660001Y287499D01*
X660001Y337499D01*
X740001Y337499D01*
X740001Y287499D01*
G37*
G36*
X-72400Y-372601D02*
G01*
X-102601Y-372601D01*
X-102601Y-274900D01*
X-72400Y-274900D01*
X-72400Y-372601D01*
G37*
G36*
X844499Y587955D02*
G01*
X669498Y587955D01*
X669498Y662956D01*
X844499Y662956D01*
X844499Y587955D01*
G37*
G36*
X125101Y-215100D02*
G01*
X27400Y-215100D01*
X27400Y-184899D01*
X125101Y-184899D01*
X125101Y-215100D01*
G37*
G36*
X-562398Y264899D02*
G01*
X-660099Y264899D01*
X-660099Y295100D01*
X-562398Y295100D01*
X-562398Y264899D01*
G37*
G36*
X492499Y-230001D02*
G01*
X427498Y-230001D01*
X427498Y-160001D01*
X492499Y-160001D01*
X492499Y-230001D01*
G37*
G36*
X-72400Y314898D02*
G01*
X-102601Y314898D01*
X-102601Y412599D01*
X-72400Y412599D01*
X-72400Y314898D01*
G37*
G36*
X-910001Y-745051D02*
G01*
X-1030001Y-745051D01*
X-1030001Y-665051D01*
X-910001Y-665051D01*
X-910001Y-745051D01*
G37*
G36*
X-162596Y486413D02*
G01*
X-212093Y436916D01*
X-258054Y482877D01*
X-208557Y532374D01*
X-162596Y486413D01*
G37*
G36*
X-352400Y-372601D02*
G01*
X-382601Y-372601D01*
X-382601Y-274900D01*
X-352400Y-274900D01*
X-352400Y-372601D01*
G37*
G36*
X957501Y-195001D02*
G01*
X802500Y-195001D01*
X802500Y-155001D01*
X957501Y-155001D01*
X957501Y-195001D01*
G37*
G36*
X975432Y518167D02*
G01*
X905432Y518167D01*
X905432Y583168D01*
X975432Y583168D01*
X975432Y518167D01*
G37*
G36*
X-1104000Y68000D02*
G01*
X-1174000Y68000D01*
X-1174000Y133001D01*
X-1104000Y133001D01*
X-1104000Y68000D01*
G37*
G36*
X-1203438Y535000D02*
G01*
X-1273438Y535000D01*
X-1273438Y600001D01*
X-1203438Y600001D01*
X-1203438Y535000D01*
G37*
G36*
X-237499Y1015000D02*
G01*
X-302500Y1015000D01*
X-302500Y1085000D01*
X-237499Y1085000D01*
X-237499Y1015000D01*
G37*
G36*
X469218Y202407D02*
G01*
X399218Y202407D01*
X399218Y267408D01*
X469218Y267408D01*
X469218Y202407D01*
G37*
G36*
X-785555Y990916D02*
G01*
X-850556Y990916D01*
X-850556Y1060916D01*
X-785555Y1060916D01*
X-785555Y990916D01*
G37*
G36*
X125101Y-255100D02*
G01*
X27400Y-255100D01*
X27400Y-224899D01*
X125101Y-224899D01*
X125101Y-255100D01*
G37*
G36*
X-432400Y-372601D02*
G01*
X-462601Y-372601D01*
X-462601Y-274900D01*
X-432400Y-274900D01*
X-432400Y-372601D01*
G37*
G36*
X-738165Y-387777D02*
G01*
X-784126Y-433738D01*
X-833623Y-384241D01*
X-787662Y-338280D01*
X-738165Y-387777D01*
G37*
G36*
X190662Y398912D02*
G01*
X141165Y349415D01*
X95204Y395376D01*
X144701Y444873D01*
X190662Y398912D01*
G37*
D13*
%TO.C,REF\u002A\u002A*%
X-1264357Y-1007196D03*
D14*
X-1264357Y-838716D03*
X-1137357Y-1007196D03*
X-1137357Y-838716D03*
X-1010357Y-1007196D03*
%TD*%
D15*
%TO.C,REF\u002A\u002A*%
X1022335Y-290000D03*
X1022335Y290000D03*
D16*
X972335Y-433000D03*
X972335Y433000D03*
D17*
X1390335Y433000D03*
X1390335Y-433000D03*
%TD*%
M02*
