%TF.GenerationSoftware,KiCad,Pcbnew,9.0.0*%
%TF.CreationDate,2025-03-31T12:51:01+01:00*%
%TF.ProjectId,vm_rp2040_brain_0.1,766d5f72-7032-4303-9430-5f627261696e,rev?*%
%TF.SameCoordinates,Original*%
%TF.FileFunction,Soldermask,Bot*%
%TF.FilePolarity,Negative*%
%FSLAX45Y45*%
G04 Gerber Fmt 4.5, Leading zero omitted, Abs format (unit mm)*
G04 Created by KiCad (PCBNEW 9.0.0) date 2025-03-31 12:51:01*
%MOMM*%
%LPD*%
G01*
G04 APERTURE LIST*
G04 Aperture macros list*
%AMRoundRect*
0 Rectangle with rounded corners*
0 $1 Rounding radius*
0 $2 $3 $4 $5 $6 $7 $8 $9 X,Y pos of 4 corners*
0 Add a 4 corners polygon primitive as box body*
4,1,4,$2,$3,$4,$5,$6,$7,$8,$9,$2,$3,0*
0 Add four circle primitives for the rounded corners*
1,1,$1+$1,$2,$3*
1,1,$1+$1,$4,$5*
1,1,$1+$1,$6,$7*
1,1,$1+$1,$8,$9*
0 Add four rect primitives between the rounded corners*
20,1,$1+$1,$2,$3,$4,$5,0*
20,1,$1+$1,$4,$5,$6,$7,0*
20,1,$1+$1,$6,$7,$8,$9,0*
20,1,$1+$1,$8,$9,$2,$3,0*%
G04 Aperture macros list end*
%ADD10C,0.000000*%
%ADD11C,0.629990*%
%ADD12C,0.075000*%
%ADD13RoundRect,0.172720X0.259080X0.259080X-0.259080X0.259080X-0.259080X-0.259080X0.259080X-0.259080X0*%
%ADD14C,0.863600*%
%ADD15C,0.750000*%
%ADD16O,2.200000X1.200000*%
%ADD17O,1.800000X1.200000*%
G04 APERTURE END LIST*
D10*
G36*
X1424999Y494499D02*
G01*
X1430585Y494226D01*
X1436118Y493405D01*
X1441544Y492046D01*
X1446811Y490161D01*
X1451868Y487770D01*
X1456666Y484894D01*
X1461158Y481562D01*
X1465303Y477805D01*
X1469060Y473660D01*
X1472392Y469168D01*
X1475268Y464370D01*
X1477659Y459313D01*
X1479544Y454046D01*
X1480903Y448620D01*
X1481724Y443087D01*
X1481998Y437502D01*
X1481999Y437502D01*
X1481999Y426501D01*
X1481998Y426501D01*
X1481724Y420915D01*
X1480903Y415382D01*
X1479544Y409956D01*
X1477659Y404689D01*
X1475268Y399632D01*
X1472392Y394834D01*
X1469060Y390342D01*
X1465303Y386197D01*
X1461158Y382440D01*
X1456666Y379108D01*
X1451868Y376232D01*
X1446811Y373841D01*
X1441544Y371956D01*
X1436118Y370597D01*
X1430585Y369776D01*
X1424999Y369503D01*
X1424999Y369501D01*
X1353998Y369501D01*
X1353998Y369503D01*
X1348413Y369776D01*
X1342880Y370597D01*
X1337454Y371956D01*
X1332187Y373841D01*
X1327130Y376232D01*
X1322332Y379108D01*
X1317840Y382440D01*
X1313695Y386197D01*
X1309938Y390342D01*
X1306606Y394834D01*
X1303730Y399632D01*
X1301339Y404689D01*
X1299454Y409956D01*
X1298095Y415382D01*
X1297274Y420915D01*
X1297000Y426501D01*
X1296998Y426501D01*
X1296998Y437502D01*
X1297000Y437502D01*
X1297274Y443087D01*
X1298095Y448620D01*
X1299454Y454046D01*
X1301339Y459313D01*
X1303730Y464370D01*
X1306606Y469168D01*
X1309938Y473660D01*
X1313695Y477805D01*
X1317840Y481562D01*
X1322332Y484894D01*
X1327130Y487770D01*
X1332187Y490161D01*
X1337454Y492046D01*
X1342880Y493405D01*
X1348413Y494226D01*
X1353998Y494499D01*
X1353998Y494502D01*
X1424999Y494502D01*
X1424999Y494499D01*
G37*
G36*
X1424999Y-369503D02*
G01*
X1430585Y-369776D01*
X1436118Y-370597D01*
X1441544Y-371956D01*
X1446811Y-373841D01*
X1451868Y-376232D01*
X1456666Y-379108D01*
X1461158Y-382440D01*
X1465303Y-386197D01*
X1469060Y-390342D01*
X1472392Y-394834D01*
X1475268Y-399632D01*
X1477659Y-404689D01*
X1479544Y-409956D01*
X1480903Y-415382D01*
X1481724Y-420915D01*
X1481998Y-426500D01*
X1481999Y-426500D01*
X1481999Y-437501D01*
X1481998Y-437501D01*
X1481724Y-443087D01*
X1480903Y-448620D01*
X1479544Y-454046D01*
X1477659Y-459313D01*
X1475268Y-464370D01*
X1472392Y-469168D01*
X1469060Y-473660D01*
X1465303Y-477805D01*
X1461158Y-481562D01*
X1456666Y-484894D01*
X1451868Y-487770D01*
X1446811Y-490161D01*
X1441544Y-492046D01*
X1436118Y-493405D01*
X1430585Y-494226D01*
X1424999Y-494499D01*
X1424999Y-494501D01*
X1353998Y-494501D01*
X1353998Y-494499D01*
X1348413Y-494226D01*
X1342880Y-493405D01*
X1337454Y-492046D01*
X1332187Y-490161D01*
X1327130Y-487770D01*
X1322332Y-484894D01*
X1317840Y-481562D01*
X1313695Y-477805D01*
X1309938Y-473660D01*
X1306606Y-469168D01*
X1303730Y-464370D01*
X1301339Y-459313D01*
X1299454Y-454046D01*
X1298095Y-448620D01*
X1297274Y-443087D01*
X1297000Y-437501D01*
X1296998Y-437501D01*
X1296998Y-426500D01*
X1297000Y-426500D01*
X1297274Y-420915D01*
X1298095Y-415382D01*
X1299454Y-409956D01*
X1301339Y-404689D01*
X1303730Y-399632D01*
X1306606Y-394834D01*
X1309938Y-390342D01*
X1313695Y-386197D01*
X1317840Y-382440D01*
X1322332Y-379108D01*
X1327130Y-376232D01*
X1332187Y-373841D01*
X1337454Y-371956D01*
X1342880Y-370597D01*
X1348413Y-369776D01*
X1353998Y-369503D01*
X1353998Y-369500D01*
X1424999Y-369500D01*
X1424999Y-369503D01*
G37*
D11*
X-1233002Y-839861D02*
G75*
G02*
X-1296001Y-839861I-31500J0D01*
G01*
X-1296001Y-839861D02*
G75*
G02*
X-1233002Y-839861I31500J0D01*
G01*
X-1106002Y-1007501D02*
G75*
G02*
X-1169001Y-1007501I-31500J0D01*
G01*
X-1169001Y-1007501D02*
G75*
G02*
X-1106002Y-1007501I31500J0D01*
G01*
D10*
G36*
X1031999Y-369502D02*
G01*
X1037586Y-369776D01*
X1043119Y-370597D01*
X1048545Y-371956D01*
X1053812Y-373841D01*
X1058869Y-376232D01*
X1063667Y-379108D01*
X1068159Y-382440D01*
X1072304Y-386197D01*
X1076061Y-390342D01*
X1079393Y-394834D01*
X1082269Y-399632D01*
X1084660Y-404689D01*
X1086545Y-409956D01*
X1087904Y-415382D01*
X1088725Y-420915D01*
X1088999Y-426502D01*
X1088999Y-437501D01*
X1088725Y-443087D01*
X1087904Y-448620D01*
X1086545Y-454046D01*
X1084660Y-459313D01*
X1082269Y-464370D01*
X1079393Y-469168D01*
X1076061Y-473660D01*
X1072304Y-477805D01*
X1068159Y-481562D01*
X1063667Y-484894D01*
X1058869Y-487770D01*
X1053812Y-490161D01*
X1048545Y-492046D01*
X1043119Y-493405D01*
X1037586Y-494226D01*
X1031999Y-494500D01*
X1031999Y-494501D01*
X910998Y-494501D01*
X910998Y-494499D01*
X905412Y-494226D01*
X899879Y-493405D01*
X894453Y-492046D01*
X889186Y-490161D01*
X884129Y-487770D01*
X879331Y-484894D01*
X874839Y-481562D01*
X870694Y-477805D01*
X866937Y-473660D01*
X863605Y-469168D01*
X860729Y-464370D01*
X858338Y-459313D01*
X856453Y-454046D01*
X855094Y-448620D01*
X854273Y-443087D01*
X853999Y-437501D01*
X853998Y-437501D01*
X853998Y-426500D01*
X853999Y-426500D01*
X854273Y-420915D01*
X855094Y-415382D01*
X856453Y-409956D01*
X858338Y-404689D01*
X860729Y-399632D01*
X863605Y-394834D01*
X866937Y-390342D01*
X870694Y-386197D01*
X874839Y-382440D01*
X879331Y-379108D01*
X884129Y-376232D01*
X889186Y-373841D01*
X894453Y-371956D01*
X899879Y-370597D01*
X905412Y-369776D01*
X910998Y-369503D01*
X910998Y-369500D01*
X1031999Y-369500D01*
X1031999Y-369502D01*
G37*
G36*
X1031999Y494500D02*
G01*
X1037586Y494226D01*
X1043119Y493405D01*
X1048545Y492046D01*
X1053812Y490161D01*
X1058869Y487770D01*
X1063667Y484894D01*
X1068159Y481562D01*
X1072304Y477805D01*
X1076061Y473660D01*
X1079393Y469168D01*
X1082269Y464370D01*
X1084660Y459313D01*
X1086545Y454046D01*
X1087904Y448620D01*
X1088725Y443087D01*
X1088999Y437500D01*
X1088999Y426501D01*
X1088725Y420915D01*
X1087904Y415382D01*
X1086545Y409956D01*
X1084660Y404689D01*
X1082269Y399632D01*
X1079393Y394834D01*
X1076061Y390342D01*
X1072304Y386197D01*
X1068159Y382440D01*
X1063667Y379108D01*
X1058869Y376232D01*
X1053812Y373841D01*
X1048545Y371956D01*
X1043119Y370597D01*
X1037586Y369776D01*
X1031999Y369502D01*
X1031999Y369501D01*
X910998Y369501D01*
X910998Y369503D01*
X905412Y369776D01*
X899879Y370597D01*
X894453Y371956D01*
X889186Y373841D01*
X884129Y376232D01*
X879331Y379108D01*
X874839Y382440D01*
X870694Y386197D01*
X866937Y390342D01*
X863605Y394834D01*
X860729Y399632D01*
X858338Y404689D01*
X856453Y409956D01*
X855094Y415382D01*
X854273Y420915D01*
X853999Y426501D01*
X853998Y426501D01*
X853998Y437502D01*
X853999Y437502D01*
X854273Y443087D01*
X855094Y448620D01*
X856453Y454046D01*
X858338Y459313D01*
X860729Y464370D01*
X863605Y469168D01*
X866937Y473660D01*
X870694Y477805D01*
X874839Y481562D01*
X879331Y484894D01*
X884129Y487770D01*
X889186Y490161D01*
X894453Y492046D01*
X899879Y493405D01*
X905412Y494226D01*
X910998Y494499D01*
X910998Y494502D01*
X1031999Y494502D01*
X1031999Y494500D01*
G37*
D11*
X-979001Y-1007501D02*
G75*
G02*
X-1042000Y-1007501I-31500J0D01*
G01*
X-1042000Y-1007501D02*
G75*
G02*
X-979001Y-1007501I31500J0D01*
G01*
X-1106002Y-839861D02*
G75*
G02*
X-1169001Y-839861I-31500J0D01*
G01*
X-1169001Y-839861D02*
G75*
G02*
X-1106002Y-839861I31500J0D01*
G01*
D12*
X1028249Y288999D02*
G75*
G02*
X1020749Y288999I-3750J0D01*
G01*
X1020749Y288999D02*
G75*
G02*
X1028249Y288999I3750J0D01*
G01*
D10*
G36*
X1031999Y-296499D02*
G01*
X1016998Y-296499D01*
X1016998Y-281498D01*
X1031999Y-281498D01*
X1031999Y-296499D01*
G37*
G36*
X-1201499Y-1070500D02*
G01*
X-1327498Y-1070500D01*
X-1327498Y-944501D01*
X-1201499Y-944501D01*
X-1201499Y-1070500D01*
G37*
D13*
%TO.C,REF\u002A\u002A*%
X-1264357Y-1007196D03*
D14*
X-1264357Y-838716D03*
X-1137357Y-1007196D03*
X-1137357Y-838716D03*
X-1010357Y-1007196D03*
%TD*%
D15*
%TO.C,REF\u002A\u002A*%
X1022335Y-290000D03*
X1022335Y290000D03*
D16*
X972335Y-433000D03*
X972335Y433000D03*
D17*
X1390335Y433000D03*
X1390335Y-433000D03*
%TD*%
M02*
