%TF.GenerationSoftware,KiCad,Pcbnew,9.0.6-9.0.6~ubuntu22.04.1*%
%TF.CreationDate,2026-01-23T17:03:04+00:00*%
%TF.ProjectId,vm_keycap_button_row,766d5f6b-6579-4636-9170-5f627574746f,0.4*%
%TF.SameCoordinates,PX876bf80PY47868c0*%
%TF.FileFunction,AssemblyDrawing,Top*%
%FSLAX45Y45*%
G04 Gerber Fmt 4.5, Leading zero omitted, Abs format (unit mm)*
G04 Created by KiCad (PCBNEW 9.0.6-9.0.6~ubuntu22.04.1) date 2026-01-23 17:03:04*
%MOMM*%
%LPD*%
G01*
G04 APERTURE LIST*
%ADD10C,0.100000*%
%ADD11C,0.120000*%
%ADD12C,0.075000*%
G04 APERTURE END LIST*
D10*
X-5550000Y820000D02*
X-5450000Y820000D01*
X-5450000Y830000D02*
G75*
G02*
X-5450000Y820000I0J-5000D01*
G01*
X-5450000Y830000D02*
X-5550000Y830000D01*
X-5550000Y830000D02*
G75*
G03*
X-5550000Y820000I0J-5000D01*
G01*
X-5505000Y875000D02*
X-5505000Y775000D01*
X-5495000Y775000D02*
G75*
G02*
X-5505000Y775000I-5000J0D01*
G01*
X-5495000Y775000D02*
X-5495000Y875000D01*
X-5495000Y875000D02*
G75*
G03*
X-5505000Y875000I-5000J0D01*
G01*
%TO.C,GS5*%
X-5450000Y825000D02*
G75*
G02*
X-5550000Y825000I-50000J0D01*
G01*
X-5550000Y825000D02*
G75*
G02*
X-5450000Y825000I50000J0D01*
G01*
X-5450000Y825000D02*
G75*
G02*
X-5550000Y825000I-50000J0D01*
G01*
X-5550000Y825000D02*
G75*
G02*
X-5450000Y825000I50000J0D01*
G01*
X-6400000Y245000D02*
X-6300000Y245000D01*
X-6300000Y255000D02*
G75*
G02*
X-6300000Y245000I0J-5000D01*
G01*
X-6300000Y255000D02*
X-6400000Y255000D01*
X-6400000Y255000D02*
G75*
G03*
X-6400000Y245000I0J-5000D01*
G01*
X-6355000Y300000D02*
X-6355000Y200000D01*
X-6345000Y200000D02*
G75*
G02*
X-6355000Y200000I-5000J0D01*
G01*
X-6345000Y200000D02*
X-6345000Y300000D01*
X-6345000Y300000D02*
G75*
G03*
X-6355000Y300000I-5000J0D01*
G01*
%TO.C,GS3*%
X-6300000Y250000D02*
G75*
G02*
X-6400000Y250000I-50000J0D01*
G01*
X-6400000Y250000D02*
G75*
G02*
X-6300000Y250000I50000J0D01*
G01*
X-6300000Y250000D02*
G75*
G02*
X-6400000Y250000I-50000J0D01*
G01*
X-6400000Y250000D02*
G75*
G02*
X-6300000Y250000I50000J0D01*
G01*
%TO.C,SW6*%
X2900000Y700000D02*
X2900000Y-700000D01*
X2900000Y-700000D02*
X4300000Y-700000D01*
X4300000Y700000D02*
X2900000Y700000D01*
X4300000Y-700000D02*
X4300000Y700000D01*
D11*
%TO.C,J1*%
X-5768100Y799060D02*
X-5437900Y799060D01*
X-5768100Y443460D02*
X-5768100Y799060D01*
X-5437900Y799060D02*
X-5310900Y672060D01*
X-5310900Y672060D02*
X-5310900Y443460D01*
X-5310900Y443460D02*
X-5768100Y443460D01*
D10*
%TO.C,SW2*%
X-5100000Y700000D02*
X-5100000Y-700000D01*
X-5100000Y-700000D02*
X-3700000Y-700000D01*
X-3700000Y700000D02*
X-5100000Y700000D01*
X-3700000Y-700000D02*
X-3700000Y700000D01*
X-5750000Y820000D02*
X-5650000Y820000D01*
X-5650000Y830000D02*
G75*
G02*
X-5650000Y820000I0J-5000D01*
G01*
X-5650000Y830000D02*
X-5750000Y830000D01*
X-5750000Y830000D02*
G75*
G03*
X-5750000Y820000I0J-5000D01*
G01*
X-5705000Y875000D02*
X-5705000Y775000D01*
X-5695000Y775000D02*
G75*
G02*
X-5705000Y775000I-5000J0D01*
G01*
X-5695000Y775000D02*
X-5695000Y875000D01*
X-5695000Y875000D02*
G75*
G03*
X-5705000Y875000I-5000J0D01*
G01*
%TO.C,GS4*%
X-5650000Y825000D02*
G75*
G02*
X-5750000Y825000I-50000J0D01*
G01*
X-5750000Y825000D02*
G75*
G02*
X-5650000Y825000I50000J0D01*
G01*
X-5650000Y825000D02*
G75*
G02*
X-5750000Y825000I-50000J0D01*
G01*
X-5750000Y825000D02*
G75*
G02*
X-5650000Y825000I50000J0D01*
G01*
%TO.C,SW7*%
X4900000Y700000D02*
X4900000Y-700000D01*
X4900000Y-700000D02*
X6300000Y-700000D01*
X6300000Y700000D02*
X4900000Y700000D01*
X6300000Y-700000D02*
X6300000Y700000D01*
%TO.C,U2*%
D12*
X-6083750Y182500D02*
G75*
G02*
X-6091250Y182500I-3750J0D01*
G01*
X-6091250Y182500D02*
G75*
G02*
X-6083750Y182500I3750J0D01*
G01*
D10*
X-5950000Y820000D02*
X-5850000Y820000D01*
X-5850000Y830000D02*
G75*
G02*
X-5850000Y820000I0J-5000D01*
G01*
X-5850000Y830000D02*
X-5950000Y830000D01*
X-5950000Y830000D02*
G75*
G03*
X-5950000Y820000I0J-5000D01*
G01*
X-5905000Y875000D02*
X-5905000Y775000D01*
X-5895000Y775000D02*
G75*
G02*
X-5905000Y775000I-5000J0D01*
G01*
X-5895000Y775000D02*
X-5895000Y875000D01*
X-5895000Y875000D02*
G75*
G03*
X-5905000Y875000I-5000J0D01*
G01*
%TO.C,GS6*%
X-5850000Y825000D02*
G75*
G02*
X-5950000Y825000I-50000J0D01*
G01*
X-5950000Y825000D02*
G75*
G02*
X-5850000Y825000I50000J0D01*
G01*
X-5850000Y825000D02*
G75*
G02*
X-5950000Y825000I-50000J0D01*
G01*
X-5950000Y825000D02*
G75*
G02*
X-5850000Y825000I50000J0D01*
G01*
%TO.C,D1*%
D12*
X-6303750Y-467500D02*
G75*
G02*
X-6311250Y-467500I-3750J0D01*
G01*
X-6311250Y-467500D02*
G75*
G02*
X-6303750Y-467500I3750J0D01*
G01*
%TO.C,U1*%
X-6019250Y-287500D02*
G75*
G02*
X-6026750Y-287500I-3750J0D01*
G01*
X-6026750Y-287500D02*
G75*
G02*
X-6019250Y-287500I3750J0D01*
G01*
D10*
%TO.C,SW5*%
X900000Y700000D02*
X900000Y-700000D01*
X900000Y-700000D02*
X2300000Y-700000D01*
X2300000Y700000D02*
X900000Y700000D01*
X2300000Y-700000D02*
X2300000Y700000D01*
%TO.C,SW4*%
X-1100000Y700000D02*
X-1100000Y-700000D01*
X-1100000Y-700000D02*
X300000Y-700000D01*
X300000Y700000D02*
X-1100000Y700000D01*
X300000Y-700000D02*
X300000Y700000D01*
X-6400000Y-255000D02*
X-6300000Y-255000D01*
X-6300000Y-245000D02*
G75*
G02*
X-6300000Y-255000I0J-5000D01*
G01*
X-6300000Y-245000D02*
X-6400000Y-245000D01*
X-6400000Y-245000D02*
G75*
G03*
X-6400000Y-255000I0J-5000D01*
G01*
X-6355000Y-200000D02*
X-6355000Y-300000D01*
X-6345000Y-300000D02*
G75*
G02*
X-6355000Y-300000I-5000J0D01*
G01*
X-6345000Y-300000D02*
X-6345000Y-200000D01*
X-6345000Y-200000D02*
G75*
G03*
X-6355000Y-200000I-5000J0D01*
G01*
%TO.C,GS2*%
X-6300000Y-250000D02*
G75*
G02*
X-6400000Y-250000I-50000J0D01*
G01*
X-6400000Y-250000D02*
G75*
G02*
X-6300000Y-250000I50000J0D01*
G01*
X-6300000Y-250000D02*
G75*
G02*
X-6400000Y-250000I-50000J0D01*
G01*
X-6400000Y-250000D02*
G75*
G02*
X-6300000Y-250000I50000J0D01*
G01*
%TO.C,SW3*%
X-3100000Y700000D02*
X-3100000Y-700000D01*
X-3100000Y-700000D02*
X-1700000Y-700000D01*
X-1700000Y700000D02*
X-3100000Y700000D01*
X-1700000Y-700000D02*
X-1700000Y700000D01*
X-6400000Y-5000D02*
X-6300000Y-5000D01*
X-6300000Y5000D02*
G75*
G02*
X-6300000Y-5000I0J-5000D01*
G01*
X-6300000Y5000D02*
X-6400000Y5000D01*
X-6400000Y5000D02*
G75*
G03*
X-6400000Y-5000I0J-5000D01*
G01*
X-6355000Y50000D02*
X-6355000Y-50000D01*
X-6345000Y-50000D02*
G75*
G02*
X-6355000Y-50000I-5000J0D01*
G01*
X-6345000Y-50000D02*
X-6345000Y50000D01*
X-6345000Y50000D02*
G75*
G03*
X-6355000Y50000I-5000J0D01*
G01*
%TO.C,GS1*%
X-6300000Y0D02*
G75*
G02*
X-6400000Y0I-50000J0D01*
G01*
X-6400000Y0D02*
G75*
G02*
X-6300000Y0I50000J0D01*
G01*
X-6300000Y0D02*
G75*
G02*
X-6400000Y0I-50000J0D01*
G01*
X-6400000Y0D02*
G75*
G02*
X-6300000Y0I50000J0D01*
G01*
%TO.C,D2*%
D12*
X-6246250Y800000D02*
G75*
G02*
X-6253750Y800000I-3750J0D01*
G01*
X-6253750Y800000D02*
G75*
G02*
X-6246250Y800000I3750J0D01*
G01*
%TD*%
D10*
X-5555000Y880000D02*
X-5445000Y770000D01*
X-5555000Y770000D02*
X-5445000Y880000D01*
X-6405000Y305000D02*
X-6295000Y195000D01*
X-6405000Y195000D02*
X-6295000Y305000D01*
X-5755000Y880000D02*
X-5645000Y770000D01*
X-5755000Y770000D02*
X-5645000Y880000D01*
X-5955000Y880000D02*
X-5845000Y770000D01*
X-5955000Y770000D02*
X-5845000Y880000D01*
X-6405000Y-195000D02*
X-6295000Y-305000D01*
X-6405000Y-305000D02*
X-6295000Y-195000D01*
X-6405000Y55000D02*
X-6295000Y-55000D01*
X-6405000Y-55000D02*
X-6295000Y55000D01*
M02*
