%TF.GenerationSoftware,KiCad,Pcbnew,8.0.2-1*%
%TF.CreationDate,2024-09-30T19:11:18+01:00*%
%TF.ProjectId,test_module_1,74657374-5f6d-46f6-9475-6c655f312e6b,rev?*%
%TF.SameCoordinates,PX8583b00PY5f5e100*%
%TF.FileFunction,Legend,Top*%
%TF.FilePolarity,Positive*%
%FSLAX46Y46*%
G04 Gerber Fmt 4.6, Leading zero omitted, Abs format (unit mm)*
G04 Created by KiCad (PCBNEW 8.0.2-1) date 2024-09-30 19:11:18*
%MOMM*%
%LPD*%
G01*
G04 APERTURE LIST*
%ADD10C,0.150000*%
%ADD11C,0.120000*%
G04 APERTURE END LIST*
D10*
X-761905Y5675181D02*
X-761905Y4865658D01*
X-761905Y4865658D02*
X-714286Y4770420D01*
X-714286Y4770420D02*
X-666667Y4722800D01*
X-666667Y4722800D02*
X-571429Y4675181D01*
X-571429Y4675181D02*
X-380953Y4675181D01*
X-380953Y4675181D02*
X-285715Y4722800D01*
X-285715Y4722800D02*
X-238096Y4770420D01*
X-238096Y4770420D02*
X-190477Y4865658D01*
X-190477Y4865658D02*
X-190477Y5675181D01*
X809523Y4675181D02*
X238095Y4675181D01*
X523809Y4675181D02*
X523809Y5675181D01*
X523809Y5675181D02*
X428571Y5532324D01*
X428571Y5532324D02*
X333333Y5437086D01*
X333333Y5437086D02*
X238095Y5389467D01*
D11*
%TO.C,U1*%
X-3610000Y3290000D02*
X-3610000Y3700000D01*
X-3610000Y-3280000D02*
X-3610000Y-2630000D01*
X-2960000Y3940000D02*
X-3310000Y3940000D01*
X-2960000Y-3280000D02*
X-3610000Y-3280000D01*
X2960000Y3940000D02*
X3610000Y3940000D01*
X2960000Y-3280000D02*
X3610000Y-3280000D01*
X3610000Y3940000D02*
X3610000Y3290000D01*
X3610000Y-3280000D02*
X3610000Y-2630000D01*
X-3610000Y3940000D02*
X-3850000Y4270000D01*
X-3370000Y4270000D01*
X-3610000Y3940000D01*
G36*
X-3610000Y3940000D02*
G01*
X-3850000Y4270000D01*
X-3370000Y4270000D01*
X-3610000Y3940000D01*
G37*
%TD*%
M02*
