%TF.GenerationSoftware,KiCad,Pcbnew,9.0.7*%
%TF.CreationDate,2026-03-30T19:28:31+01:00*%
%TF.ProjectId,jvm_keycap_button,6a766d5f-6b65-4796-9361-705f62757474,0.7*%
%TF.SameCoordinates,PX55d4a80PY487ab00*%
%TF.FileFunction,Copper,L2,Bot*%
%TF.FilePolarity,Positive*%
%FSLAX45Y45*%
G04 Gerber Fmt 4.5, Leading zero omitted, Abs format (unit mm)*
G04 Created by KiCad (PCBNEW 9.0.7) date 2026-03-30 19:28:31*
%MOMM*%
%LPD*%
G01*
G04 APERTURE LIST*
G04 Aperture macros list*
%AMRoundRect*
0 Rectangle with rounded corners*
0 $1 Rounding radius*
0 $2 $3 $4 $5 $6 $7 $8 $9 X,Y pos of 4 corners*
0 Add a 4 corners polygon primitive as box body*
4,1,4,$2,$3,$4,$5,$6,$7,$8,$9,$2,$3,0*
0 Add four circle primitives for the rounded corners*
1,1,$1+$1,$2,$3*
1,1,$1+$1,$4,$5*
1,1,$1+$1,$6,$7*
1,1,$1+$1,$8,$9*
0 Add four rect primitives between the rounded corners*
20,1,$1+$1,$2,$3,$4,$5,0*
20,1,$1+$1,$4,$5,$6,$7,0*
20,1,$1+$1,$6,$7,$8,$9,0*
20,1,$1+$1,$8,$9,$2,$3,0*%
G04 Aperture macros list end*
%TA.AperFunction,ComponentPad*%
%ADD10C,2.200000*%
%TD*%
%TA.AperFunction,ComponentPad*%
%ADD11RoundRect,0.172720X-0.259080X-0.259080X0.259080X-0.259080X0.259080X0.259080X-0.259080X0.259080X0*%
%TD*%
%TA.AperFunction,ComponentPad*%
%ADD12C,0.863600*%
%TD*%
%TA.AperFunction,ViaPad*%
%ADD13C,0.600000*%
%TD*%
%TA.AperFunction,Conductor*%
%ADD14C,0.200000*%
%TD*%
G04 APERTURE END LIST*
D10*
%TO.P,SW2,1,1*%
%TO.N,GND*%
X829000Y508000D03*
%TO.P,SW2,2,2*%
%TO.N,/BUTTON*%
X194000Y254000D03*
%TD*%
D11*
%TO.P,J1,1,VCC*%
%TO.N,+3V3*%
X-298000Y647390D03*
D12*
%TO.P,J1,2,SWDIO*%
%TO.N,/SWDIO*%
X-298000Y489910D03*
%TO.P,J1,3,GND*%
%TO.N,GND*%
X-425000Y647390D03*
%TO.P,J1,4,SWCLK*%
%TO.N,/SWCLK*%
X-425000Y489910D03*
%TO.P,J1,5,~{RESET}*%
%TO.N,/nRESET*%
X-552000Y647390D03*
%TD*%
D13*
%TO.N,GND*%
X-925000Y-300000D03*
X-925000Y200000D03*
X-1012500Y-712500D03*
X-550000Y-625000D03*
X-1250000Y-175000D03*
X-625000Y575000D03*
%TO.N,+3V3*%
X-630000Y-464014D03*
%TO.N,/nRESET*%
X-571900Y-212500D03*
X-1100000Y575000D03*
%TD*%
D14*
%TO.N,GND*%
X-925000Y275000D02*
X-925000Y200000D01*
X-925000Y-625000D02*
X-1012500Y-712500D01*
X-925000Y200000D02*
X-925000Y-175000D01*
X-925000Y-175000D02*
X-925000Y-300000D01*
X-925000Y-300000D02*
X-925000Y-625000D01*
X-1250000Y-175000D02*
X-925000Y-175000D01*
X-625000Y575000D02*
X-925000Y275000D01*
X829000Y508000D02*
X616330Y720670D01*
X616330Y720670D02*
X-351720Y720670D01*
X-925000Y-625000D02*
X-550000Y-625000D01*
X-351720Y720670D02*
X-425000Y647390D01*
%TO.N,+3V3*%
X-382200Y563190D02*
X-455354Y563190D01*
X-298000Y647390D02*
X-382200Y563190D01*
X-511900Y-345914D02*
X-630000Y-464014D01*
X-511900Y506644D02*
X-511900Y-345914D01*
X-455354Y563190D02*
X-511900Y506644D01*
%TO.N,/nRESET*%
X-552000Y647390D02*
X-552000Y-192600D01*
X-1027610Y647390D02*
X-1100000Y575000D01*
X-552000Y-192600D02*
X-571900Y-212500D01*
X-552000Y647390D02*
X-1027610Y647390D01*
%TD*%
M02*
