%TF.GenerationSoftware,KiCad,Pcbnew,9.0.7*%
%TF.CreationDate,2026-03-08T19:17:36+00:00*%
%TF.ProjectId,jvm_rgb_led,6a766d5f-7267-4625-9f6c-65642e6b6963,0.5*%
%TF.SameCoordinates,PX518a060PY47868c0*%
%TF.FileFunction,AssemblyDrawing,Top*%
%FSLAX45Y45*%
G04 Gerber Fmt 4.5, Leading zero omitted, Abs format (unit mm)*
G04 Created by KiCad (PCBNEW 9.0.7) date 2026-03-08 19:17:36*
%MOMM*%
%LPD*%
G01*
G04 APERTURE LIST*
%ADD10C,0.100000*%
%ADD11C,0.120000*%
%ADD12C,0.075000*%
G04 APERTURE END LIST*
D10*
%TO.C,GS5*%
X100000Y825000D02*
X200000Y825000D01*
X150000Y875000D02*
X150000Y775000D01*
X200000Y825000D02*
G75*
G02*
X100000Y825000I-50000J0D01*
G01*
X100000Y825000D02*
G75*
G02*
X200000Y825000I50000J0D01*
G01*
%TO.C,GS3*%
X-750000Y250000D02*
X-650000Y250000D01*
X-700000Y300000D02*
X-700000Y200000D01*
X-650000Y250000D02*
G75*
G02*
X-750000Y250000I-50000J0D01*
G01*
X-750000Y250000D02*
G75*
G02*
X-650000Y250000I50000J0D01*
G01*
D11*
%TO.C,J1*%
X-118100Y799060D02*
X212100Y799060D01*
X-118100Y443460D02*
X-118100Y799060D01*
X212100Y799060D02*
X339100Y672060D01*
X339100Y672060D02*
X339100Y443460D01*
X339100Y443460D02*
X-118100Y443460D01*
D10*
%TO.C,GS4*%
X-100000Y825000D02*
X0Y825000D01*
X-50000Y875000D02*
X-50000Y775000D01*
X0Y825000D02*
G75*
G02*
X-100000Y825000I-50000J0D01*
G01*
X-100000Y825000D02*
G75*
G02*
X0Y825000I50000J0D01*
G01*
%TO.C,U2*%
D12*
X-433750Y182500D02*
G75*
G02*
X-441250Y182500I-3750J0D01*
G01*
X-441250Y182500D02*
G75*
G02*
X-433750Y182500I3750J0D01*
G01*
D10*
%TO.C,GS6*%
X-300000Y825000D02*
X-200000Y825000D01*
X-250000Y875000D02*
X-250000Y775000D01*
X-200000Y825000D02*
G75*
G02*
X-300000Y825000I-50000J0D01*
G01*
X-300000Y825000D02*
G75*
G02*
X-200000Y825000I50000J0D01*
G01*
%TO.C,D1*%
D12*
X-653750Y-467500D02*
G75*
G02*
X-661250Y-467500I-3750J0D01*
G01*
X-661250Y-467500D02*
G75*
G02*
X-653750Y-467500I3750J0D01*
G01*
%TO.C,U1*%
X-369250Y-287500D02*
G75*
G02*
X-376750Y-287500I-3750J0D01*
G01*
X-376750Y-287500D02*
G75*
G02*
X-369250Y-287500I3750J0D01*
G01*
D10*
%TO.C,GS2*%
X-750000Y-250000D02*
X-650000Y-250000D01*
X-700000Y-200000D02*
X-700000Y-300000D01*
X-650000Y-250000D02*
G75*
G02*
X-750000Y-250000I-50000J0D01*
G01*
X-750000Y-250000D02*
G75*
G02*
X-650000Y-250000I50000J0D01*
G01*
%TO.C,GS1*%
X-750000Y0D02*
X-650000Y0D01*
X-700000Y50000D02*
X-700000Y-50000D01*
X-650000Y0D02*
G75*
G02*
X-750000Y0I-50000J0D01*
G01*
X-750000Y0D02*
G75*
G02*
X-650000Y0I50000J0D01*
G01*
%TO.C,D2*%
D12*
X-596250Y800000D02*
G75*
G02*
X-603750Y800000I-3750J0D01*
G01*
X-603750Y800000D02*
G75*
G02*
X-596250Y800000I3750J0D01*
G01*
%TO.C,D3*%
X411250Y-127500D02*
G75*
G02*
X403750Y-127500I-3750J0D01*
G01*
X403750Y-127500D02*
G75*
G02*
X411250Y-127500I3750J0D01*
G01*
%TD*%
M02*
