%TF.GenerationSoftware,KiCad,Pcbnew,8.0.2-1*%
%TF.CreationDate,2024-12-23T22:16:29+00:00*%
%TF.ProjectId,20x30-jacdac-MH-0.1,32307833-302d-46a6-9163-6461632d4d48,v0.1*%
%TF.SameCoordinates,PX8d24d00PY36d6160*%
%TF.FileFunction,Legend,Top*%
%TF.FilePolarity,Positive*%
%FSLAX46Y46*%
G04 Gerber Fmt 4.6, Leading zero omitted, Abs format (unit mm)*
G04 Created by KiCad (PCBNEW 8.0.2-1) date 2024-12-23 22:16:29*
%MOMM*%
%LPD*%
G01*
G04 APERTURE LIST*
%ADD10C,0.200000*%
%ADD11C,0.000000*%
%ADD12C,0.010000*%
G04 APERTURE END LIST*
D10*
X-12500000Y12250000D02*
X-12500000Y12000000D01*
X-13150000Y4270000D02*
X-13150000Y4970000D01*
X-19000000Y2470001D02*
X-19000000Y-2470000D01*
X14098000Y3300000D02*
G75*
G02*
X13100004Y4300001I-1000J997000D01*
G01*
X-15000000Y-12500000D02*
G75*
G02*
X-17500000Y-10000000I-800J2499200D01*
G01*
X-12750000Y12500000D02*
G75*
G02*
X-12500000Y12250000I800J-249200D01*
G01*
X17500000Y7000000D02*
X17500000Y10000000D01*
X15000000Y12500000D02*
X-10250000Y12500000D01*
X16500000Y-6000000D02*
X14100000Y-6000000D01*
X18200000Y3300000D02*
G75*
G02*
X19000000Y2500000I1100J-798900D01*
G01*
X-14148000Y-5969999D02*
X-16500000Y-5969999D01*
X-18200000Y-3269999D02*
G75*
G02*
X-18999999Y-2470000I-1100J798899D01*
G01*
X-17500000Y-6969999D02*
G75*
G02*
X-16500000Y-5970000I1000400J-401D01*
G01*
X-16500000Y5970000D02*
X-14148000Y5970000D01*
X16500000Y-6000000D02*
G75*
G02*
X17500000Y-7000000I-400J-1000400D01*
G01*
X-12750000Y12500000D02*
X-15000000Y12500000D01*
X-17500000Y10000000D02*
G75*
G02*
X-15000000Y12500000I2499200J800D01*
G01*
X-16500000Y5970000D02*
G75*
G02*
X-17500000Y6970000I400J1000400D01*
G01*
X-10500000Y12000000D02*
X-10500000Y12250000D01*
X-19000000Y2470001D02*
G75*
G02*
X-18200000Y3270000I798900J1099D01*
G01*
X19000000Y-2500000D02*
X19000000Y2500000D01*
X-14148000Y5970000D02*
G75*
G02*
X-13150004Y4970000I1000J-997000D01*
G01*
X-13150000Y4270000D02*
G75*
G02*
X-14148000Y3270003I-1000400J400D01*
G01*
X13100000Y5000000D02*
G75*
G02*
X14100000Y6000000I1000400J-400D01*
G01*
X18200000Y3300000D02*
X14098000Y3300000D01*
X-10500000Y12250000D02*
G75*
G02*
X-10250000Y12500000I249200J800D01*
G01*
X-17500000Y-6969999D02*
X-17500000Y-10000000D01*
X14100000Y-3299999D02*
X18200000Y-3299999D01*
X14100000Y-6000000D02*
G75*
G02*
X13100000Y-5000000I400J1000400D01*
G01*
X17500000Y7000000D02*
G75*
G02*
X16500000Y6000000I-1000400J400D01*
G01*
X-18200000Y-3269999D02*
X-14150000Y-3269999D01*
X-10500000Y12000000D02*
G75*
G02*
X-12500000Y12000000I-1000000J0D01*
G01*
X15000000Y12500000D02*
G75*
G02*
X17500000Y10000000I800J-2499200D01*
G01*
X-13148000Y-4969999D02*
G75*
G02*
X-14148000Y-5970000I-1000400J399D01*
G01*
X-17500000Y10000000D02*
X-17500000Y6970000D01*
X-14150000Y-3269999D02*
G75*
G02*
X-13149999Y-4269999I-400J-1000401D01*
G01*
X17500000Y-10000000D02*
X17500000Y-7000000D01*
X14100000Y6000000D02*
X16500000Y6000000D01*
X13100000Y-4300000D02*
X13100000Y-5000000D01*
X-15000000Y-12500000D02*
X15000000Y-12500000D01*
X-14148000Y3270000D02*
X-18200000Y3270000D01*
X17500000Y-10000000D02*
G75*
G02*
X15000000Y-12500000I-2499200J-800D01*
G01*
X13100000Y5000000D02*
X13100000Y4300001D01*
X13100000Y-4300000D02*
G75*
G02*
X14100000Y-3300000I998700J1300D01*
G01*
X-13148000Y-4969999D02*
X-13150000Y-4269999D01*
X19000000Y-2500000D02*
G75*
G02*
X18200000Y-3300000I-798900J-1100D01*
G01*
D11*
%TO.C,*%
G36*
X17554596Y-834554D02*
G01*
X17658135Y-885171D01*
X17739628Y-966664D01*
X17790245Y-1070203D01*
X17804800Y-1170099D01*
X17804800Y-1369899D01*
X17790245Y-1469795D01*
X17739628Y-1573334D01*
X17658135Y-1654827D01*
X17554596Y-1705444D01*
X17454700Y-1719999D01*
X13604900Y-1719999D01*
X13505004Y-1705444D01*
X13401465Y-1654827D01*
X13319972Y-1573334D01*
X13269355Y-1469795D01*
X13254800Y-1369899D01*
X13254800Y-1170099D01*
X13269355Y-1070203D01*
X13319972Y-966664D01*
X13401465Y-885171D01*
X13505004Y-834554D01*
X13604900Y-819999D01*
X17454700Y-819999D01*
X17554596Y-834554D01*
G37*
G36*
X18054596Y1705446D02*
G01*
X18158135Y1654829D01*
X18239628Y1573336D01*
X18290245Y1469797D01*
X18304800Y1369901D01*
X18304800Y1170101D01*
X18290245Y1070205D01*
X18239628Y966666D01*
X18158135Y885173D01*
X18054596Y834556D01*
X17954700Y820001D01*
X13604900Y820001D01*
X13505004Y834556D01*
X13401465Y885173D01*
X13319972Y966666D01*
X13269355Y1070205D01*
X13254800Y1170101D01*
X13254800Y1369901D01*
X13269355Y1469797D01*
X13319972Y1573336D01*
X13401465Y1654829D01*
X13505004Y1705446D01*
X13604900Y1720001D01*
X17954700Y1720001D01*
X18054596Y1705446D01*
G37*
G36*
X18054596Y435446D02*
G01*
X18158135Y384829D01*
X18239628Y303336D01*
X18290245Y199797D01*
X18304800Y99901D01*
X18304800Y-99899D01*
X18290245Y-199795D01*
X18239628Y-303334D01*
X18158135Y-384827D01*
X18054596Y-435444D01*
X17954700Y-449999D01*
X13604900Y-449999D01*
X13505004Y-435444D01*
X13401465Y-384827D01*
X13319972Y-303334D01*
X13269355Y-199795D01*
X13254800Y-99899D01*
X13254800Y99901D01*
X13269355Y199797D01*
X13319972Y303336D01*
X13401465Y384829D01*
X13505004Y435446D01*
X13604900Y450001D01*
X17954700Y450001D01*
X18054596Y435446D01*
G37*
D12*
%TO.C,MH3*%
X-11929306Y-8363938D02*
X-11912572Y-8370271D01*
X-11896947Y-8381708D01*
X-11881722Y-8398907D01*
X-11866187Y-8422529D01*
X-11849636Y-8453232D01*
X-11849479Y-8453543D01*
X-11792082Y-8575132D01*
X-11738655Y-8702780D01*
X-11689536Y-8835490D01*
X-11645062Y-8972266D01*
X-11605571Y-9112110D01*
X-11571399Y-9254024D01*
X-11558986Y-9312664D01*
X-11548179Y-9372141D01*
X-11541266Y-9425275D01*
X-11538209Y-9472617D01*
X-11538970Y-9514720D01*
X-11542840Y-9548307D01*
X-11557333Y-9611742D01*
X-11578709Y-9671524D01*
X-11606730Y-9727302D01*
X-11641155Y-9778728D01*
X-11681746Y-9825450D01*
X-11728263Y-9867118D01*
X-11780468Y-9903383D01*
X-11788778Y-9908337D01*
X-11841493Y-9934632D01*
X-11897725Y-9954342D01*
X-11956407Y-9967361D01*
X-12016470Y-9973582D01*
X-12076844Y-9972898D01*
X-12136462Y-9965203D01*
X-12194256Y-9950391D01*
X-12198073Y-9949129D01*
X-12254131Y-9926215D01*
X-12307081Y-9896415D01*
X-12356236Y-9860400D01*
X-12400910Y-9818837D01*
X-12440417Y-9772394D01*
X-12474070Y-9721741D01*
X-12501183Y-9667545D01*
X-12509857Y-9645536D01*
X-12514407Y-9631247D01*
X-12519938Y-9611025D01*
X-12525985Y-9586741D01*
X-12532082Y-9560265D01*
X-12537763Y-9533471D01*
X-12537851Y-9533032D01*
X-12559478Y-9433303D01*
X-12583069Y-9339535D01*
X-12609185Y-9249880D01*
X-12638386Y-9162485D01*
X-12671232Y-9075502D01*
X-12690784Y-9027805D01*
X-12704464Y-8993297D01*
X-12713840Y-8964465D01*
X-12718965Y-8940348D01*
X-12719893Y-8919990D01*
X-12716678Y-8902431D01*
X-12709373Y-8886711D01*
X-12699422Y-8873431D01*
X-12690472Y-8864166D01*
X-12680762Y-8856500D01*
X-12668906Y-8849764D01*
X-12653514Y-8843288D01*
X-12633201Y-8836401D01*
X-12606578Y-8828434D01*
X-12605692Y-8828178D01*
X-12548901Y-8810494D01*
X-12497170Y-8791449D01*
X-12447627Y-8769922D01*
X-12414566Y-8753728D01*
X-12339432Y-8710990D01*
X-12267854Y-8661466D01*
X-12200558Y-8605786D01*
X-12138273Y-8544582D01*
X-12081726Y-8478485D01*
X-12053964Y-8441164D01*
X-12032031Y-8412366D01*
X-12011697Y-8390615D01*
X-11992236Y-8375370D01*
X-11972919Y-8366090D01*
X-11953022Y-8362231D01*
X-11947857Y-8362050D01*
X-11929306Y-8363938D01*
G36*
X-11929306Y-8363938D02*
G01*
X-11912572Y-8370271D01*
X-11896947Y-8381708D01*
X-11881722Y-8398907D01*
X-11866187Y-8422529D01*
X-11849636Y-8453232D01*
X-11849479Y-8453543D01*
X-11792082Y-8575132D01*
X-11738655Y-8702780D01*
X-11689536Y-8835490D01*
X-11645062Y-8972266D01*
X-11605571Y-9112110D01*
X-11571399Y-9254024D01*
X-11558986Y-9312664D01*
X-11548179Y-9372141D01*
X-11541266Y-9425275D01*
X-11538209Y-9472617D01*
X-11538970Y-9514720D01*
X-11542840Y-9548307D01*
X-11557333Y-9611742D01*
X-11578709Y-9671524D01*
X-11606730Y-9727302D01*
X-11641155Y-9778728D01*
X-11681746Y-9825450D01*
X-11728263Y-9867118D01*
X-11780468Y-9903383D01*
X-11788778Y-9908337D01*
X-11841493Y-9934632D01*
X-11897725Y-9954342D01*
X-11956407Y-9967361D01*
X-12016470Y-9973582D01*
X-12076844Y-9972898D01*
X-12136462Y-9965203D01*
X-12194256Y-9950391D01*
X-12198073Y-9949129D01*
X-12254131Y-9926215D01*
X-12307081Y-9896415D01*
X-12356236Y-9860400D01*
X-12400910Y-9818837D01*
X-12440417Y-9772394D01*
X-12474070Y-9721741D01*
X-12501183Y-9667545D01*
X-12509857Y-9645536D01*
X-12514407Y-9631247D01*
X-12519938Y-9611025D01*
X-12525985Y-9586741D01*
X-12532082Y-9560265D01*
X-12537763Y-9533471D01*
X-12537851Y-9533032D01*
X-12559478Y-9433303D01*
X-12583069Y-9339535D01*
X-12609185Y-9249880D01*
X-12638386Y-9162485D01*
X-12671232Y-9075502D01*
X-12690784Y-9027805D01*
X-12704464Y-8993297D01*
X-12713840Y-8964465D01*
X-12718965Y-8940348D01*
X-12719893Y-8919990D01*
X-12716678Y-8902431D01*
X-12709373Y-8886711D01*
X-12699422Y-8873431D01*
X-12690472Y-8864166D01*
X-12680762Y-8856500D01*
X-12668906Y-8849764D01*
X-12653514Y-8843288D01*
X-12633201Y-8836401D01*
X-12606578Y-8828434D01*
X-12605692Y-8828178D01*
X-12548901Y-8810494D01*
X-12497170Y-8791449D01*
X-12447627Y-8769922D01*
X-12414566Y-8753728D01*
X-12339432Y-8710990D01*
X-12267854Y-8661466D01*
X-12200558Y-8605786D01*
X-12138273Y-8544582D01*
X-12081726Y-8478485D01*
X-12053964Y-8441164D01*
X-12032031Y-8412366D01*
X-12011697Y-8390615D01*
X-11992236Y-8375370D01*
X-11972919Y-8366090D01*
X-11953022Y-8362231D01*
X-11947857Y-8362050D01*
X-11929306Y-8363938D01*
G37*
X-14470182Y-6540337D02*
X-14448497Y-6540714D01*
X-14427534Y-6541718D01*
X-14406291Y-6543511D01*
X-14383763Y-6546254D01*
X-14358946Y-6550109D01*
X-14330836Y-6555238D01*
X-14298429Y-6561801D01*
X-14260722Y-6569961D01*
X-14216709Y-6579880D01*
X-14198323Y-6584098D01*
X-14084910Y-6612611D01*
X-13968731Y-6646406D01*
X-13851643Y-6684817D01*
X-13735502Y-6727177D01*
X-13622165Y-6772819D01*
X-13513489Y-6821078D01*
X-13442320Y-6855488D01*
X-13414793Y-6869973D01*
X-13393762Y-6882767D01*
X-13378190Y-6894681D01*
X-13367038Y-6906523D01*
X-13359269Y-6919103D01*
X-13358396Y-6920960D01*
X-13352421Y-6938994D01*
X-13352473Y-6955818D01*
X-13356428Y-6970059D01*
X-13367282Y-6989771D01*
X-13385603Y-7010018D01*
X-13410983Y-7030363D01*
X-13415769Y-7033664D01*
X-13489001Y-7087738D01*
X-13556469Y-7146942D01*
X-13617931Y-7210983D01*
X-13673147Y-7279569D01*
X-13721873Y-7352405D01*
X-13763868Y-7429201D01*
X-13789376Y-7485751D01*
X-13801721Y-7516942D01*
X-13812941Y-7548335D01*
X-13823691Y-7581956D01*
X-13834628Y-7619833D01*
X-13843484Y-7652771D01*
X-13848796Y-7671014D01*
X-13854211Y-7684062D01*
X-13861050Y-7694563D01*
X-13868503Y-7702984D01*
X-13884066Y-7716423D01*
X-13900453Y-7724502D01*
X-13918764Y-7727265D01*
X-13940096Y-7724757D01*
X-13965548Y-7717022D01*
X-13987979Y-7707827D01*
X-14108498Y-7658383D01*
X-14232787Y-7615101D01*
X-14361429Y-7577801D01*
X-14495006Y-7546301D01*
X-14525687Y-7540017D01*
X-14560370Y-7532916D01*
X-14588751Y-7526604D01*
X-14612370Y-7520632D01*
X-14632764Y-7514555D01*
X-14651473Y-7507926D01*
X-14670035Y-7500296D01*
X-14683873Y-7494072D01*
X-14736854Y-7465333D01*
X-14785921Y-7430188D01*
X-14830505Y-7389366D01*
X-14870033Y-7343595D01*
X-14903934Y-7293603D01*
X-14931637Y-7240119D01*
X-14952571Y-7183872D01*
X-14964218Y-7136552D01*
X-14972342Y-7073793D01*
X-14972879Y-7012164D01*
X-14966155Y-6952149D01*
X-14952496Y-6894233D01*
X-14932226Y-6838904D01*
X-14905671Y-6786645D01*
X-14873155Y-6737942D01*
X-14835005Y-6693281D01*
X-14791545Y-6653146D01*
X-14743100Y-6618025D01*
X-14689996Y-6588401D01*
X-14632558Y-6564760D01*
X-14571111Y-6547588D01*
X-14569401Y-6547219D01*
X-14551719Y-6544037D01*
X-14532477Y-6541913D01*
X-14509778Y-6540716D01*
X-14481730Y-6540314D01*
X-14470182Y-6540337D01*
G36*
X-14470182Y-6540337D02*
G01*
X-14448497Y-6540714D01*
X-14427534Y-6541718D01*
X-14406291Y-6543511D01*
X-14383763Y-6546254D01*
X-14358946Y-6550109D01*
X-14330836Y-6555238D01*
X-14298429Y-6561801D01*
X-14260722Y-6569961D01*
X-14216709Y-6579880D01*
X-14198323Y-6584098D01*
X-14084910Y-6612611D01*
X-13968731Y-6646406D01*
X-13851643Y-6684817D01*
X-13735502Y-6727177D01*
X-13622165Y-6772819D01*
X-13513489Y-6821078D01*
X-13442320Y-6855488D01*
X-13414793Y-6869973D01*
X-13393762Y-6882767D01*
X-13378190Y-6894681D01*
X-13367038Y-6906523D01*
X-13359269Y-6919103D01*
X-13358396Y-6920960D01*
X-13352421Y-6938994D01*
X-13352473Y-6955818D01*
X-13356428Y-6970059D01*
X-13367282Y-6989771D01*
X-13385603Y-7010018D01*
X-13410983Y-7030363D01*
X-13415769Y-7033664D01*
X-13489001Y-7087738D01*
X-13556469Y-7146942D01*
X-13617931Y-7210983D01*
X-13673147Y-7279569D01*
X-13721873Y-7352405D01*
X-13763868Y-7429201D01*
X-13789376Y-7485751D01*
X-13801721Y-7516942D01*
X-13812941Y-7548335D01*
X-13823691Y-7581956D01*
X-13834628Y-7619833D01*
X-13843484Y-7652771D01*
X-13848796Y-7671014D01*
X-13854211Y-7684062D01*
X-13861050Y-7694563D01*
X-13868503Y-7702984D01*
X-13884066Y-7716423D01*
X-13900453Y-7724502D01*
X-13918764Y-7727265D01*
X-13940096Y-7724757D01*
X-13965548Y-7717022D01*
X-13987979Y-7707827D01*
X-14108498Y-7658383D01*
X-14232787Y-7615101D01*
X-14361429Y-7577801D01*
X-14495006Y-7546301D01*
X-14525687Y-7540017D01*
X-14560370Y-7532916D01*
X-14588751Y-7526604D01*
X-14612370Y-7520632D01*
X-14632764Y-7514555D01*
X-14651473Y-7507926D01*
X-14670035Y-7500296D01*
X-14683873Y-7494072D01*
X-14736854Y-7465333D01*
X-14785921Y-7430188D01*
X-14830505Y-7389366D01*
X-14870033Y-7343595D01*
X-14903934Y-7293603D01*
X-14931637Y-7240119D01*
X-14952571Y-7183872D01*
X-14964218Y-7136552D01*
X-14972342Y-7073793D01*
X-14972879Y-7012164D01*
X-14966155Y-6952149D01*
X-14952496Y-6894233D01*
X-14932226Y-6838904D01*
X-14905671Y-6786645D01*
X-14873155Y-6737942D01*
X-14835005Y-6693281D01*
X-14791545Y-6653146D01*
X-14743100Y-6618025D01*
X-14689996Y-6588401D01*
X-14632558Y-6564760D01*
X-14571111Y-6547588D01*
X-14569401Y-6547219D01*
X-14551719Y-6544037D01*
X-14532477Y-6541913D01*
X-14509778Y-6540716D01*
X-14481730Y-6540314D01*
X-14470182Y-6540337D01*
G37*
X-13114506Y-7497744D02*
X-13104489Y-7500501D01*
X-13098602Y-7502693D01*
X-13092612Y-7505668D01*
X-13085887Y-7509983D01*
X-13077796Y-7516197D01*
X-13067706Y-7524868D01*
X-13054986Y-7536554D01*
X-13039003Y-7551814D01*
X-13019125Y-7571204D01*
X-12994721Y-7595283D01*
X-12974957Y-7614880D01*
X-12866811Y-7722233D01*
X-12760645Y-7617032D01*
X-12732077Y-7588945D01*
X-12706322Y-7564069D01*
X-12683875Y-7542858D01*
X-12665228Y-7525771D01*
X-12650876Y-7513264D01*
X-12641313Y-7505793D01*
X-12638604Y-7504147D01*
X-12620453Y-7498507D01*
X-12598447Y-7496247D01*
X-12575738Y-7497328D01*
X-12555479Y-7501711D01*
X-12546947Y-7505289D01*
X-12527717Y-7518943D01*
X-12510939Y-7537314D01*
X-12499689Y-7556627D01*
X-12495621Y-7572497D01*
X-12493995Y-7592489D01*
X-12494804Y-7613173D01*
X-12498038Y-7631121D01*
X-12499893Y-7636489D01*
X-12504805Y-7644005D01*
X-12515448Y-7656814D01*
X-12531730Y-7674815D01*
X-12553556Y-7697908D01*
X-12580835Y-7725992D01*
X-12613473Y-7758967D01*
X-12613864Y-7759359D01*
X-12721687Y-7867473D01*
X-12615858Y-7973774D01*
X-12584916Y-8005038D01*
X-12559409Y-8031231D01*
X-12538995Y-8052725D01*
X-12523333Y-8069893D01*
X-12512080Y-8083107D01*
X-12504896Y-8092739D01*
X-12501973Y-8097831D01*
X-12494904Y-8122144D01*
X-12493808Y-8148731D01*
X-12498620Y-8174713D01*
X-12504024Y-8188237D01*
X-12519679Y-8211452D01*
X-12540303Y-8228674D01*
X-12562926Y-8238733D01*
X-12580623Y-8243114D01*
X-12595638Y-8244148D01*
X-12611644Y-8241809D01*
X-12624985Y-8238271D01*
X-12630727Y-8236399D01*
X-12636361Y-8233923D01*
X-12642513Y-8230295D01*
X-12649807Y-8224964D01*
X-12658867Y-8217380D01*
X-12670317Y-8206995D01*
X-12684782Y-8193256D01*
X-12702886Y-8175616D01*
X-12725253Y-8153524D01*
X-12752507Y-8126430D01*
X-12756674Y-8122280D01*
X-12866807Y-8012589D01*
X-12976940Y-8122280D01*
X-13004916Y-8150105D01*
X-13027918Y-8172853D01*
X-13046571Y-8191073D01*
X-13061500Y-8205316D01*
X-13073328Y-8216130D01*
X-13082679Y-8224066D01*
X-13090179Y-8229675D01*
X-13096451Y-8233505D01*
X-13102120Y-8236106D01*
X-13107810Y-8238029D01*
X-13108629Y-8238271D01*
X-13127410Y-8242924D01*
X-13142701Y-8244183D01*
X-13158173Y-8242078D01*
X-13170688Y-8238733D01*
X-13195345Y-8227492D01*
X-13215225Y-8210402D01*
X-13229656Y-8188407D01*
X-13237966Y-8162452D01*
X-13239782Y-8141598D01*
X-13239548Y-8130444D01*
X-13238597Y-8120482D01*
X-13236433Y-8111030D01*
X-13232561Y-8101407D01*
X-13226487Y-8090932D01*
X-13217714Y-8078924D01*
X-13205748Y-8064703D01*
X-13190094Y-8047586D01*
X-13170256Y-8026895D01*
X-13145740Y-8001946D01*
X-13117756Y-7973774D01*
X-13011927Y-7867473D01*
X-13119589Y-7759359D01*
X-13151989Y-7726607D01*
X-13178747Y-7699078D01*
X-13200033Y-7676590D01*
X-13216016Y-7658958D01*
X-13226867Y-7646000D01*
X-13232753Y-7637530D01*
X-13233560Y-7635877D01*
X-13239427Y-7611956D01*
X-13239209Y-7585914D01*
X-13233352Y-7560140D01*
X-13222301Y-7537024D01*
X-13212846Y-7524873D01*
X-13192656Y-7509080D01*
X-13168362Y-7499030D01*
X-13141724Y-7495120D01*
X-13114506Y-7497744D01*
G36*
X-13114506Y-7497744D02*
G01*
X-13104489Y-7500501D01*
X-13098602Y-7502693D01*
X-13092612Y-7505668D01*
X-13085887Y-7509983D01*
X-13077796Y-7516197D01*
X-13067706Y-7524868D01*
X-13054986Y-7536554D01*
X-13039003Y-7551814D01*
X-13019125Y-7571204D01*
X-12994721Y-7595283D01*
X-12974957Y-7614880D01*
X-12866811Y-7722233D01*
X-12760645Y-7617032D01*
X-12732077Y-7588945D01*
X-12706322Y-7564069D01*
X-12683875Y-7542858D01*
X-12665228Y-7525771D01*
X-12650876Y-7513264D01*
X-12641313Y-7505793D01*
X-12638604Y-7504147D01*
X-12620453Y-7498507D01*
X-12598447Y-7496247D01*
X-12575738Y-7497328D01*
X-12555479Y-7501711D01*
X-12546947Y-7505289D01*
X-12527717Y-7518943D01*
X-12510939Y-7537314D01*
X-12499689Y-7556627D01*
X-12495621Y-7572497D01*
X-12493995Y-7592489D01*
X-12494804Y-7613173D01*
X-12498038Y-7631121D01*
X-12499893Y-7636489D01*
X-12504805Y-7644005D01*
X-12515448Y-7656814D01*
X-12531730Y-7674815D01*
X-12553556Y-7697908D01*
X-12580835Y-7725992D01*
X-12613473Y-7758967D01*
X-12613864Y-7759359D01*
X-12721687Y-7867473D01*
X-12615858Y-7973774D01*
X-12584916Y-8005038D01*
X-12559409Y-8031231D01*
X-12538995Y-8052725D01*
X-12523333Y-8069893D01*
X-12512080Y-8083107D01*
X-12504896Y-8092739D01*
X-12501973Y-8097831D01*
X-12494904Y-8122144D01*
X-12493808Y-8148731D01*
X-12498620Y-8174713D01*
X-12504024Y-8188237D01*
X-12519679Y-8211452D01*
X-12540303Y-8228674D01*
X-12562926Y-8238733D01*
X-12580623Y-8243114D01*
X-12595638Y-8244148D01*
X-12611644Y-8241809D01*
X-12624985Y-8238271D01*
X-12630727Y-8236399D01*
X-12636361Y-8233923D01*
X-12642513Y-8230295D01*
X-12649807Y-8224964D01*
X-12658867Y-8217380D01*
X-12670317Y-8206995D01*
X-12684782Y-8193256D01*
X-12702886Y-8175616D01*
X-12725253Y-8153524D01*
X-12752507Y-8126430D01*
X-12756674Y-8122280D01*
X-12866807Y-8012589D01*
X-12976940Y-8122280D01*
X-13004916Y-8150105D01*
X-13027918Y-8172853D01*
X-13046571Y-8191073D01*
X-13061500Y-8205316D01*
X-13073328Y-8216130D01*
X-13082679Y-8224066D01*
X-13090179Y-8229675D01*
X-13096451Y-8233505D01*
X-13102120Y-8236106D01*
X-13107810Y-8238029D01*
X-13108629Y-8238271D01*
X-13127410Y-8242924D01*
X-13142701Y-8244183D01*
X-13158173Y-8242078D01*
X-13170688Y-8238733D01*
X-13195345Y-8227492D01*
X-13215225Y-8210402D01*
X-13229656Y-8188407D01*
X-13237966Y-8162452D01*
X-13239782Y-8141598D01*
X-13239548Y-8130444D01*
X-13238597Y-8120482D01*
X-13236433Y-8111030D01*
X-13232561Y-8101407D01*
X-13226487Y-8090932D01*
X-13217714Y-8078924D01*
X-13205748Y-8064703D01*
X-13190094Y-8047586D01*
X-13170256Y-8026895D01*
X-13145740Y-8001946D01*
X-13117756Y-7973774D01*
X-13011927Y-7867473D01*
X-13119589Y-7759359D01*
X-13151989Y-7726607D01*
X-13178747Y-7699078D01*
X-13200033Y-7676590D01*
X-13216016Y-7658958D01*
X-13226867Y-7646000D01*
X-13232753Y-7637530D01*
X-13233560Y-7635877D01*
X-13239427Y-7611956D01*
X-13239209Y-7585914D01*
X-13233352Y-7560140D01*
X-13222301Y-7537024D01*
X-13212846Y-7524873D01*
X-13192656Y-7509080D01*
X-13168362Y-7499030D01*
X-13141724Y-7495120D01*
X-13114506Y-7497744D01*
G37*
%TO.C,MH4*%
X14511949Y-6535485D02*
X14545536Y-6539355D01*
X14608971Y-6553848D01*
X14668753Y-6575224D01*
X14724531Y-6603245D01*
X14775957Y-6637670D01*
X14822679Y-6678261D01*
X14864347Y-6724778D01*
X14900612Y-6776983D01*
X14905566Y-6785293D01*
X14931861Y-6838008D01*
X14951571Y-6894240D01*
X14964590Y-6952922D01*
X14970811Y-7012985D01*
X14970127Y-7073359D01*
X14962432Y-7132977D01*
X14947620Y-7190771D01*
X14946358Y-7194588D01*
X14923444Y-7250646D01*
X14893644Y-7303596D01*
X14857629Y-7352751D01*
X14816066Y-7397425D01*
X14769623Y-7436932D01*
X14718970Y-7470585D01*
X14664774Y-7497698D01*
X14642765Y-7506372D01*
X14628476Y-7510922D01*
X14608254Y-7516453D01*
X14583970Y-7522500D01*
X14557494Y-7528597D01*
X14530700Y-7534278D01*
X14530261Y-7534366D01*
X14430532Y-7555993D01*
X14336764Y-7579584D01*
X14247109Y-7605700D01*
X14159714Y-7634901D01*
X14072731Y-7667747D01*
X14025034Y-7687299D01*
X13990526Y-7700979D01*
X13961694Y-7710355D01*
X13937577Y-7715480D01*
X13917219Y-7716408D01*
X13899660Y-7713193D01*
X13883940Y-7705888D01*
X13870660Y-7695937D01*
X13861395Y-7686987D01*
X13853729Y-7677277D01*
X13846993Y-7665421D01*
X13840517Y-7650029D01*
X13833630Y-7629716D01*
X13825663Y-7603093D01*
X13825407Y-7602207D01*
X13807723Y-7545416D01*
X13788678Y-7493685D01*
X13767151Y-7444142D01*
X13750957Y-7411081D01*
X13708219Y-7335947D01*
X13658695Y-7264369D01*
X13603015Y-7197073D01*
X13541811Y-7134788D01*
X13475714Y-7078241D01*
X13438393Y-7050479D01*
X13409595Y-7028546D01*
X13387844Y-7008212D01*
X13372599Y-6988751D01*
X13363319Y-6969434D01*
X13359460Y-6949537D01*
X13359279Y-6944372D01*
X13361167Y-6925821D01*
X13367500Y-6909087D01*
X13378937Y-6893462D01*
X13396136Y-6878237D01*
X13419758Y-6862702D01*
X13450461Y-6846151D01*
X13450772Y-6845994D01*
X13572361Y-6788597D01*
X13700009Y-6735170D01*
X13832719Y-6686051D01*
X13969495Y-6641577D01*
X14109339Y-6602086D01*
X14251253Y-6567914D01*
X14309893Y-6555501D01*
X14369370Y-6544694D01*
X14422504Y-6537781D01*
X14469846Y-6534724D01*
X14511949Y-6535485D01*
G36*
X14511949Y-6535485D02*
G01*
X14545536Y-6539355D01*
X14608971Y-6553848D01*
X14668753Y-6575224D01*
X14724531Y-6603245D01*
X14775957Y-6637670D01*
X14822679Y-6678261D01*
X14864347Y-6724778D01*
X14900612Y-6776983D01*
X14905566Y-6785293D01*
X14931861Y-6838008D01*
X14951571Y-6894240D01*
X14964590Y-6952922D01*
X14970811Y-7012985D01*
X14970127Y-7073359D01*
X14962432Y-7132977D01*
X14947620Y-7190771D01*
X14946358Y-7194588D01*
X14923444Y-7250646D01*
X14893644Y-7303596D01*
X14857629Y-7352751D01*
X14816066Y-7397425D01*
X14769623Y-7436932D01*
X14718970Y-7470585D01*
X14664774Y-7497698D01*
X14642765Y-7506372D01*
X14628476Y-7510922D01*
X14608254Y-7516453D01*
X14583970Y-7522500D01*
X14557494Y-7528597D01*
X14530700Y-7534278D01*
X14530261Y-7534366D01*
X14430532Y-7555993D01*
X14336764Y-7579584D01*
X14247109Y-7605700D01*
X14159714Y-7634901D01*
X14072731Y-7667747D01*
X14025034Y-7687299D01*
X13990526Y-7700979D01*
X13961694Y-7710355D01*
X13937577Y-7715480D01*
X13917219Y-7716408D01*
X13899660Y-7713193D01*
X13883940Y-7705888D01*
X13870660Y-7695937D01*
X13861395Y-7686987D01*
X13853729Y-7677277D01*
X13846993Y-7665421D01*
X13840517Y-7650029D01*
X13833630Y-7629716D01*
X13825663Y-7603093D01*
X13825407Y-7602207D01*
X13807723Y-7545416D01*
X13788678Y-7493685D01*
X13767151Y-7444142D01*
X13750957Y-7411081D01*
X13708219Y-7335947D01*
X13658695Y-7264369D01*
X13603015Y-7197073D01*
X13541811Y-7134788D01*
X13475714Y-7078241D01*
X13438393Y-7050479D01*
X13409595Y-7028546D01*
X13387844Y-7008212D01*
X13372599Y-6988751D01*
X13363319Y-6969434D01*
X13359460Y-6949537D01*
X13359279Y-6944372D01*
X13361167Y-6925821D01*
X13367500Y-6909087D01*
X13378937Y-6893462D01*
X13396136Y-6878237D01*
X13419758Y-6862702D01*
X13450461Y-6846151D01*
X13450772Y-6845994D01*
X13572361Y-6788597D01*
X13700009Y-6735170D01*
X13832719Y-6686051D01*
X13969495Y-6641577D01*
X14109339Y-6602086D01*
X14251253Y-6567914D01*
X14309893Y-6555501D01*
X14369370Y-6544694D01*
X14422504Y-6537781D01*
X14469846Y-6534724D01*
X14511949Y-6535485D01*
G37*
X11953047Y-8348988D02*
X11967288Y-8352943D01*
X11987000Y-8363797D01*
X12007247Y-8382118D01*
X12027592Y-8407498D01*
X12030893Y-8412284D01*
X12084967Y-8485516D01*
X12144171Y-8552984D01*
X12208212Y-8614446D01*
X12276798Y-8669662D01*
X12349634Y-8718388D01*
X12426430Y-8760383D01*
X12482980Y-8785891D01*
X12514171Y-8798236D01*
X12545564Y-8809456D01*
X12579185Y-8820206D01*
X12617062Y-8831143D01*
X12650000Y-8839999D01*
X12668243Y-8845311D01*
X12681291Y-8850726D01*
X12691792Y-8857565D01*
X12700213Y-8865018D01*
X12713652Y-8880581D01*
X12721731Y-8896968D01*
X12724494Y-8915279D01*
X12721986Y-8936611D01*
X12714251Y-8962063D01*
X12705056Y-8984494D01*
X12655612Y-9105013D01*
X12612330Y-9229302D01*
X12575030Y-9357944D01*
X12543530Y-9491521D01*
X12537246Y-9522202D01*
X12530145Y-9556885D01*
X12523833Y-9585266D01*
X12517861Y-9608885D01*
X12511784Y-9629279D01*
X12505155Y-9647988D01*
X12497525Y-9666550D01*
X12491301Y-9680388D01*
X12462562Y-9733369D01*
X12427417Y-9782436D01*
X12386595Y-9827020D01*
X12340824Y-9866548D01*
X12290832Y-9900449D01*
X12237348Y-9928152D01*
X12181101Y-9949086D01*
X12133781Y-9960733D01*
X12071022Y-9968857D01*
X12009393Y-9969394D01*
X11949378Y-9962670D01*
X11891462Y-9949011D01*
X11836133Y-9928741D01*
X11783874Y-9902186D01*
X11735171Y-9869670D01*
X11690510Y-9831520D01*
X11650375Y-9788060D01*
X11615254Y-9739615D01*
X11585630Y-9686511D01*
X11561989Y-9629073D01*
X11544817Y-9567626D01*
X11544448Y-9565916D01*
X11541266Y-9548234D01*
X11539142Y-9528992D01*
X11537945Y-9506293D01*
X11537543Y-9478245D01*
X11537566Y-9466697D01*
X11537943Y-9445012D01*
X11538947Y-9424049D01*
X11540740Y-9402806D01*
X11543483Y-9380278D01*
X11547338Y-9355461D01*
X11552467Y-9327351D01*
X11559030Y-9294944D01*
X11567190Y-9257237D01*
X11577109Y-9213224D01*
X11581327Y-9194838D01*
X11609840Y-9081425D01*
X11643635Y-8965246D01*
X11682046Y-8848158D01*
X11724406Y-8732017D01*
X11770048Y-8618680D01*
X11818307Y-8510004D01*
X11852717Y-8438835D01*
X11867202Y-8411308D01*
X11879996Y-8390277D01*
X11891910Y-8374705D01*
X11903752Y-8363553D01*
X11916332Y-8355784D01*
X11918189Y-8354911D01*
X11936223Y-8348936D01*
X11953047Y-8348988D01*
G36*
X11953047Y-8348988D02*
G01*
X11967288Y-8352943D01*
X11987000Y-8363797D01*
X12007247Y-8382118D01*
X12027592Y-8407498D01*
X12030893Y-8412284D01*
X12084967Y-8485516D01*
X12144171Y-8552984D01*
X12208212Y-8614446D01*
X12276798Y-8669662D01*
X12349634Y-8718388D01*
X12426430Y-8760383D01*
X12482980Y-8785891D01*
X12514171Y-8798236D01*
X12545564Y-8809456D01*
X12579185Y-8820206D01*
X12617062Y-8831143D01*
X12650000Y-8839999D01*
X12668243Y-8845311D01*
X12681291Y-8850726D01*
X12691792Y-8857565D01*
X12700213Y-8865018D01*
X12713652Y-8880581D01*
X12721731Y-8896968D01*
X12724494Y-8915279D01*
X12721986Y-8936611D01*
X12714251Y-8962063D01*
X12705056Y-8984494D01*
X12655612Y-9105013D01*
X12612330Y-9229302D01*
X12575030Y-9357944D01*
X12543530Y-9491521D01*
X12537246Y-9522202D01*
X12530145Y-9556885D01*
X12523833Y-9585266D01*
X12517861Y-9608885D01*
X12511784Y-9629279D01*
X12505155Y-9647988D01*
X12497525Y-9666550D01*
X12491301Y-9680388D01*
X12462562Y-9733369D01*
X12427417Y-9782436D01*
X12386595Y-9827020D01*
X12340824Y-9866548D01*
X12290832Y-9900449D01*
X12237348Y-9928152D01*
X12181101Y-9949086D01*
X12133781Y-9960733D01*
X12071022Y-9968857D01*
X12009393Y-9969394D01*
X11949378Y-9962670D01*
X11891462Y-9949011D01*
X11836133Y-9928741D01*
X11783874Y-9902186D01*
X11735171Y-9869670D01*
X11690510Y-9831520D01*
X11650375Y-9788060D01*
X11615254Y-9739615D01*
X11585630Y-9686511D01*
X11561989Y-9629073D01*
X11544817Y-9567626D01*
X11544448Y-9565916D01*
X11541266Y-9548234D01*
X11539142Y-9528992D01*
X11537945Y-9506293D01*
X11537543Y-9478245D01*
X11537566Y-9466697D01*
X11537943Y-9445012D01*
X11538947Y-9424049D01*
X11540740Y-9402806D01*
X11543483Y-9380278D01*
X11547338Y-9355461D01*
X11552467Y-9327351D01*
X11559030Y-9294944D01*
X11567190Y-9257237D01*
X11577109Y-9213224D01*
X11581327Y-9194838D01*
X11609840Y-9081425D01*
X11643635Y-8965246D01*
X11682046Y-8848158D01*
X11724406Y-8732017D01*
X11770048Y-8618680D01*
X11818307Y-8510004D01*
X11852717Y-8438835D01*
X11867202Y-8411308D01*
X11879996Y-8390277D01*
X11891910Y-8374705D01*
X11903752Y-8363553D01*
X11916332Y-8355784D01*
X11918189Y-8354911D01*
X11936223Y-8348936D01*
X11953047Y-8348988D01*
G37*
X13161664Y-7465669D02*
X13170644Y-7467670D01*
X13200672Y-7479910D01*
X13225650Y-7497812D01*
X13245015Y-7520589D01*
X13258200Y-7547453D01*
X13264642Y-7577616D01*
X13264914Y-7599115D01*
X13264446Y-7606630D01*
X13263847Y-7613497D01*
X13262805Y-7620076D01*
X13261008Y-7626722D01*
X13258142Y-7633793D01*
X13253895Y-7641646D01*
X13247956Y-7650638D01*
X13240011Y-7661127D01*
X13229747Y-7673470D01*
X13216854Y-7688023D01*
X13201017Y-7705144D01*
X13181925Y-7725191D01*
X13159265Y-7748520D01*
X13132725Y-7775488D01*
X13101992Y-7806453D01*
X13066753Y-7841772D01*
X13026697Y-7881803D01*
X12981511Y-7926901D01*
X12955203Y-7953152D01*
X12908642Y-7999605D01*
X12867346Y-8040772D01*
X12830970Y-8076980D01*
X12799168Y-8108560D01*
X12771596Y-8135838D01*
X12747908Y-8159144D01*
X12727758Y-8178805D01*
X12710802Y-8195151D01*
X12696694Y-8208509D01*
X12685088Y-8219208D01*
X12675639Y-8227577D01*
X12668002Y-8233943D01*
X12661832Y-8238636D01*
X12656783Y-8241983D01*
X12652509Y-8244314D01*
X12648667Y-8245955D01*
X12646489Y-8246725D01*
X12614957Y-8253445D01*
X12584047Y-8252840D01*
X12554826Y-8245307D01*
X12528358Y-8231246D01*
X12505710Y-8211055D01*
X12489510Y-8188041D01*
X12483925Y-8177227D01*
X12480461Y-8167715D01*
X12478623Y-8156999D01*
X12477911Y-8142576D01*
X12477817Y-8129228D01*
X12478161Y-8109688D01*
X12479474Y-8095506D01*
X12482180Y-8084124D01*
X12486700Y-8072980D01*
X12487316Y-8071681D01*
X12489981Y-8067251D01*
X12494743Y-8060920D01*
X12501894Y-8052385D01*
X12511722Y-8041347D01*
X12524520Y-8027504D01*
X12540578Y-8010553D01*
X12560186Y-7990195D01*
X12583636Y-7966126D01*
X12611217Y-7938047D01*
X12643222Y-7905655D01*
X12679939Y-7868650D01*
X12721661Y-7826729D01*
X12768677Y-7779591D01*
X12779019Y-7769234D01*
X12825793Y-7722417D01*
X12867318Y-7680912D01*
X12903933Y-7644392D01*
X12935979Y-7612532D01*
X12963792Y-7585006D01*
X12987713Y-7561487D01*
X13008081Y-7541650D01*
X13025234Y-7525169D01*
X13039512Y-7511717D01*
X13051254Y-7500969D01*
X13060798Y-7492598D01*
X13068484Y-7486279D01*
X13074650Y-7481686D01*
X13079636Y-7478492D01*
X13083392Y-7476545D01*
X13108956Y-7468020D01*
X13136053Y-7464292D01*
X13161664Y-7465669D01*
G36*
X13161664Y-7465669D02*
G01*
X13170644Y-7467670D01*
X13200672Y-7479910D01*
X13225650Y-7497812D01*
X13245015Y-7520589D01*
X13258200Y-7547453D01*
X13264642Y-7577616D01*
X13264914Y-7599115D01*
X13264446Y-7606630D01*
X13263847Y-7613497D01*
X13262805Y-7620076D01*
X13261008Y-7626722D01*
X13258142Y-7633793D01*
X13253895Y-7641646D01*
X13247956Y-7650638D01*
X13240011Y-7661127D01*
X13229747Y-7673470D01*
X13216854Y-7688023D01*
X13201017Y-7705144D01*
X13181925Y-7725191D01*
X13159265Y-7748520D01*
X13132725Y-7775488D01*
X13101992Y-7806453D01*
X13066753Y-7841772D01*
X13026697Y-7881803D01*
X12981511Y-7926901D01*
X12955203Y-7953152D01*
X12908642Y-7999605D01*
X12867346Y-8040772D01*
X12830970Y-8076980D01*
X12799168Y-8108560D01*
X12771596Y-8135838D01*
X12747908Y-8159144D01*
X12727758Y-8178805D01*
X12710802Y-8195151D01*
X12696694Y-8208509D01*
X12685088Y-8219208D01*
X12675639Y-8227577D01*
X12668002Y-8233943D01*
X12661832Y-8238636D01*
X12656783Y-8241983D01*
X12652509Y-8244314D01*
X12648667Y-8245955D01*
X12646489Y-8246725D01*
X12614957Y-8253445D01*
X12584047Y-8252840D01*
X12554826Y-8245307D01*
X12528358Y-8231246D01*
X12505710Y-8211055D01*
X12489510Y-8188041D01*
X12483925Y-8177227D01*
X12480461Y-8167715D01*
X12478623Y-8156999D01*
X12477911Y-8142576D01*
X12477817Y-8129228D01*
X12478161Y-8109688D01*
X12479474Y-8095506D01*
X12482180Y-8084124D01*
X12486700Y-8072980D01*
X12487316Y-8071681D01*
X12489981Y-8067251D01*
X12494743Y-8060920D01*
X12501894Y-8052385D01*
X12511722Y-8041347D01*
X12524520Y-8027504D01*
X12540578Y-8010553D01*
X12560186Y-7990195D01*
X12583636Y-7966126D01*
X12611217Y-7938047D01*
X12643222Y-7905655D01*
X12679939Y-7868650D01*
X12721661Y-7826729D01*
X12768677Y-7779591D01*
X12779019Y-7769234D01*
X12825793Y-7722417D01*
X12867318Y-7680912D01*
X12903933Y-7644392D01*
X12935979Y-7612532D01*
X12963792Y-7585006D01*
X12987713Y-7561487D01*
X13008081Y-7541650D01*
X13025234Y-7525169D01*
X13039512Y-7511717D01*
X13051254Y-7500969D01*
X13060798Y-7492598D01*
X13068484Y-7486279D01*
X13074650Y-7481686D01*
X13079636Y-7478492D01*
X13083392Y-7476545D01*
X13108956Y-7468020D01*
X13136053Y-7464292D01*
X13161664Y-7465669D01*
G37*
D11*
%TO.C,*%
G36*
X-13505004Y435446D02*
G01*
X-13401465Y384829D01*
X-13319972Y303336D01*
X-13269355Y199797D01*
X-13254800Y99901D01*
X-13254800Y-99899D01*
X-13269355Y-199795D01*
X-13319972Y-303334D01*
X-13401465Y-384827D01*
X-13505004Y-435444D01*
X-13604900Y-449999D01*
X-17954700Y-449999D01*
X-18054596Y-435444D01*
X-18158135Y-384827D01*
X-18239628Y-303334D01*
X-18290245Y-199795D01*
X-18304800Y-99899D01*
X-18304800Y99901D01*
X-18290245Y199797D01*
X-18239628Y303336D01*
X-18158135Y384829D01*
X-18054596Y435446D01*
X-17954700Y450001D01*
X-13604900Y450001D01*
X-13505004Y435446D01*
G37*
G36*
X-13505004Y-834554D02*
G01*
X-13401465Y-885171D01*
X-13319972Y-966664D01*
X-13269355Y-1070203D01*
X-13254800Y-1170099D01*
X-13254800Y-1369899D01*
X-13269355Y-1469795D01*
X-13319972Y-1573334D01*
X-13401465Y-1654827D01*
X-13505004Y-1705444D01*
X-13604900Y-1719999D01*
X-17954700Y-1719999D01*
X-18054596Y-1705444D01*
X-18158135Y-1654827D01*
X-18239628Y-1573334D01*
X-18290245Y-1469795D01*
X-18304800Y-1369899D01*
X-18304800Y-1170099D01*
X-18290245Y-1070203D01*
X-18239628Y-966664D01*
X-18158135Y-885171D01*
X-18054596Y-834554D01*
X-17954700Y-819999D01*
X-13604900Y-819999D01*
X-13505004Y-834554D01*
G37*
G36*
X-13505004Y1705446D02*
G01*
X-13401465Y1654829D01*
X-13319972Y1573336D01*
X-13269355Y1469797D01*
X-13254800Y1369901D01*
X-13254800Y1170101D01*
X-13269355Y1070205D01*
X-13319972Y966666D01*
X-13401465Y885173D01*
X-13505004Y834556D01*
X-13604900Y820001D01*
X-17454700Y820001D01*
X-17554596Y834556D01*
X-17658135Y885173D01*
X-17739628Y966666D01*
X-17790245Y1070205D01*
X-17804800Y1170101D01*
X-17804800Y1369901D01*
X-17790245Y1469797D01*
X-17739628Y1573336D01*
X-17658135Y1654829D01*
X-17554596Y1705446D01*
X-17454700Y1720001D01*
X-13604900Y1720001D01*
X-13505004Y1705446D01*
G37*
D12*
%TO.C,MH2*%
X12075855Y9975607D02*
X12135473Y9967912D01*
X12193267Y9953100D01*
X12197084Y9951838D01*
X12253142Y9928924D01*
X12306092Y9899124D01*
X12355247Y9863109D01*
X12399921Y9821546D01*
X12439428Y9775103D01*
X12473081Y9724450D01*
X12500194Y9670254D01*
X12508868Y9648245D01*
X12513418Y9633956D01*
X12518949Y9613734D01*
X12524996Y9589450D01*
X12531093Y9562974D01*
X12536774Y9536180D01*
X12536862Y9535741D01*
X12558489Y9436012D01*
X12582080Y9342244D01*
X12608196Y9252589D01*
X12637397Y9165194D01*
X12670243Y9078211D01*
X12689795Y9030514D01*
X12703475Y8996006D01*
X12712851Y8967174D01*
X12717976Y8943057D01*
X12718904Y8922699D01*
X12715689Y8905140D01*
X12708384Y8889420D01*
X12698433Y8876140D01*
X12689483Y8866875D01*
X12679773Y8859209D01*
X12667917Y8852473D01*
X12652525Y8845997D01*
X12632212Y8839110D01*
X12605589Y8831143D01*
X12604703Y8830887D01*
X12547912Y8813203D01*
X12496181Y8794158D01*
X12446638Y8772631D01*
X12413577Y8756437D01*
X12338443Y8713699D01*
X12266865Y8664175D01*
X12199569Y8608495D01*
X12137284Y8547291D01*
X12080737Y8481194D01*
X12052975Y8443873D01*
X12031042Y8415075D01*
X12010708Y8393324D01*
X11991247Y8378079D01*
X11971930Y8368799D01*
X11952033Y8364940D01*
X11946868Y8364759D01*
X11928317Y8366647D01*
X11911583Y8372980D01*
X11895958Y8384417D01*
X11880733Y8401616D01*
X11865198Y8425238D01*
X11848647Y8455941D01*
X11848490Y8456252D01*
X11791093Y8577841D01*
X11737666Y8705489D01*
X11688547Y8838199D01*
X11644073Y8974975D01*
X11604582Y9114819D01*
X11570410Y9256733D01*
X11557997Y9315373D01*
X11547190Y9374850D01*
X11540277Y9427984D01*
X11537220Y9475326D01*
X11537981Y9517429D01*
X11541851Y9551016D01*
X11556344Y9614451D01*
X11577720Y9674233D01*
X11605741Y9730011D01*
X11640166Y9781437D01*
X11680757Y9828159D01*
X11727274Y9869827D01*
X11779479Y9906092D01*
X11787789Y9911046D01*
X11840504Y9937341D01*
X11896736Y9957051D01*
X11955418Y9970070D01*
X12015481Y9976291D01*
X12075855Y9975607D01*
G36*
X12075855Y9975607D02*
G01*
X12135473Y9967912D01*
X12193267Y9953100D01*
X12197084Y9951838D01*
X12253142Y9928924D01*
X12306092Y9899124D01*
X12355247Y9863109D01*
X12399921Y9821546D01*
X12439428Y9775103D01*
X12473081Y9724450D01*
X12500194Y9670254D01*
X12508868Y9648245D01*
X12513418Y9633956D01*
X12518949Y9613734D01*
X12524996Y9589450D01*
X12531093Y9562974D01*
X12536774Y9536180D01*
X12536862Y9535741D01*
X12558489Y9436012D01*
X12582080Y9342244D01*
X12608196Y9252589D01*
X12637397Y9165194D01*
X12670243Y9078211D01*
X12689795Y9030514D01*
X12703475Y8996006D01*
X12712851Y8967174D01*
X12717976Y8943057D01*
X12718904Y8922699D01*
X12715689Y8905140D01*
X12708384Y8889420D01*
X12698433Y8876140D01*
X12689483Y8866875D01*
X12679773Y8859209D01*
X12667917Y8852473D01*
X12652525Y8845997D01*
X12632212Y8839110D01*
X12605589Y8831143D01*
X12604703Y8830887D01*
X12547912Y8813203D01*
X12496181Y8794158D01*
X12446638Y8772631D01*
X12413577Y8756437D01*
X12338443Y8713699D01*
X12266865Y8664175D01*
X12199569Y8608495D01*
X12137284Y8547291D01*
X12080737Y8481194D01*
X12052975Y8443873D01*
X12031042Y8415075D01*
X12010708Y8393324D01*
X11991247Y8378079D01*
X11971930Y8368799D01*
X11952033Y8364940D01*
X11946868Y8364759D01*
X11928317Y8366647D01*
X11911583Y8372980D01*
X11895958Y8384417D01*
X11880733Y8401616D01*
X11865198Y8425238D01*
X11848647Y8455941D01*
X11848490Y8456252D01*
X11791093Y8577841D01*
X11737666Y8705489D01*
X11688547Y8838199D01*
X11644073Y8974975D01*
X11604582Y9114819D01*
X11570410Y9256733D01*
X11557997Y9315373D01*
X11547190Y9374850D01*
X11540277Y9427984D01*
X11537220Y9475326D01*
X11537981Y9517429D01*
X11541851Y9551016D01*
X11556344Y9614451D01*
X11577720Y9674233D01*
X11605741Y9730011D01*
X11640166Y9781437D01*
X11680757Y9828159D01*
X11727274Y9869827D01*
X11779479Y9906092D01*
X11787789Y9911046D01*
X11840504Y9937341D01*
X11896736Y9957051D01*
X11955418Y9970070D01*
X12015481Y9976291D01*
X12075855Y9975607D01*
G37*
X12609126Y8269926D02*
X12615993Y8269327D01*
X12622572Y8268285D01*
X12629218Y8266488D01*
X12636289Y8263622D01*
X12644142Y8259375D01*
X12653134Y8253436D01*
X12663623Y8245491D01*
X12675966Y8235227D01*
X12690519Y8222334D01*
X12707640Y8206497D01*
X12727687Y8187405D01*
X12751016Y8164745D01*
X12777984Y8138205D01*
X12808949Y8107472D01*
X12844268Y8072233D01*
X12884299Y8032177D01*
X12929397Y7986991D01*
X12955648Y7960683D01*
X13002101Y7914122D01*
X13043268Y7872826D01*
X13079476Y7836450D01*
X13111056Y7804648D01*
X13138334Y7777076D01*
X13161640Y7753388D01*
X13181301Y7733238D01*
X13197647Y7716282D01*
X13211005Y7702174D01*
X13221704Y7690568D01*
X13230073Y7681119D01*
X13236439Y7673482D01*
X13241132Y7667312D01*
X13244479Y7662263D01*
X13246810Y7657989D01*
X13248451Y7654147D01*
X13249221Y7651969D01*
X13255941Y7620437D01*
X13255336Y7589527D01*
X13247803Y7560306D01*
X13233742Y7533838D01*
X13213551Y7511190D01*
X13190537Y7494990D01*
X13179723Y7489405D01*
X13170211Y7485941D01*
X13159495Y7484103D01*
X13145072Y7483391D01*
X13131724Y7483297D01*
X13112184Y7483641D01*
X13098002Y7484954D01*
X13086620Y7487660D01*
X13075476Y7492180D01*
X13074177Y7492796D01*
X13069747Y7495461D01*
X13063416Y7500223D01*
X13054881Y7507374D01*
X13043843Y7517202D01*
X13030000Y7530000D01*
X13013049Y7546058D01*
X12992691Y7565666D01*
X12968622Y7589116D01*
X12940543Y7616697D01*
X12908151Y7648702D01*
X12871146Y7685419D01*
X12829225Y7727141D01*
X12782087Y7774157D01*
X12771730Y7784499D01*
X12724913Y7831273D01*
X12683408Y7872798D01*
X12646888Y7909413D01*
X12615028Y7941459D01*
X12587502Y7969272D01*
X12563983Y7993193D01*
X12544146Y8013561D01*
X12527665Y8030714D01*
X12514213Y8044992D01*
X12503465Y8056734D01*
X12495094Y8066278D01*
X12488775Y8073964D01*
X12484182Y8080130D01*
X12480988Y8085116D01*
X12479041Y8088872D01*
X12470516Y8114436D01*
X12466788Y8141533D01*
X12468165Y8167144D01*
X12470166Y8176124D01*
X12482406Y8206152D01*
X12500308Y8231130D01*
X12523085Y8250495D01*
X12549949Y8263680D01*
X12580112Y8270122D01*
X12601611Y8270394D01*
X12609126Y8269926D01*
G36*
X12609126Y8269926D02*
G01*
X12615993Y8269327D01*
X12622572Y8268285D01*
X12629218Y8266488D01*
X12636289Y8263622D01*
X12644142Y8259375D01*
X12653134Y8253436D01*
X12663623Y8245491D01*
X12675966Y8235227D01*
X12690519Y8222334D01*
X12707640Y8206497D01*
X12727687Y8187405D01*
X12751016Y8164745D01*
X12777984Y8138205D01*
X12808949Y8107472D01*
X12844268Y8072233D01*
X12884299Y8032177D01*
X12929397Y7986991D01*
X12955648Y7960683D01*
X13002101Y7914122D01*
X13043268Y7872826D01*
X13079476Y7836450D01*
X13111056Y7804648D01*
X13138334Y7777076D01*
X13161640Y7753388D01*
X13181301Y7733238D01*
X13197647Y7716282D01*
X13211005Y7702174D01*
X13221704Y7690568D01*
X13230073Y7681119D01*
X13236439Y7673482D01*
X13241132Y7667312D01*
X13244479Y7662263D01*
X13246810Y7657989D01*
X13248451Y7654147D01*
X13249221Y7651969D01*
X13255941Y7620437D01*
X13255336Y7589527D01*
X13247803Y7560306D01*
X13233742Y7533838D01*
X13213551Y7511190D01*
X13190537Y7494990D01*
X13179723Y7489405D01*
X13170211Y7485941D01*
X13159495Y7484103D01*
X13145072Y7483391D01*
X13131724Y7483297D01*
X13112184Y7483641D01*
X13098002Y7484954D01*
X13086620Y7487660D01*
X13075476Y7492180D01*
X13074177Y7492796D01*
X13069747Y7495461D01*
X13063416Y7500223D01*
X13054881Y7507374D01*
X13043843Y7517202D01*
X13030000Y7530000D01*
X13013049Y7546058D01*
X12992691Y7565666D01*
X12968622Y7589116D01*
X12940543Y7616697D01*
X12908151Y7648702D01*
X12871146Y7685419D01*
X12829225Y7727141D01*
X12782087Y7774157D01*
X12771730Y7784499D01*
X12724913Y7831273D01*
X12683408Y7872798D01*
X12646888Y7909413D01*
X12615028Y7941459D01*
X12587502Y7969272D01*
X12563983Y7993193D01*
X12544146Y8013561D01*
X12527665Y8030714D01*
X12514213Y8044992D01*
X12503465Y8056734D01*
X12495094Y8066278D01*
X12488775Y8073964D01*
X12484182Y8080130D01*
X12480988Y8085116D01*
X12479041Y8088872D01*
X12470516Y8114436D01*
X12466788Y8141533D01*
X12468165Y8167144D01*
X12470166Y8176124D01*
X12482406Y8206152D01*
X12500308Y8231130D01*
X12523085Y8250495D01*
X12549949Y8263680D01*
X12580112Y8270122D01*
X12601611Y8270394D01*
X12609126Y8269926D01*
G37*
X13939107Y7727466D02*
X13964559Y7719731D01*
X13986990Y7710536D01*
X14107509Y7661092D01*
X14231798Y7617810D01*
X14360440Y7580510D01*
X14494017Y7549010D01*
X14524698Y7542726D01*
X14559381Y7535625D01*
X14587762Y7529313D01*
X14611381Y7523341D01*
X14631775Y7517264D01*
X14650484Y7510635D01*
X14669046Y7503005D01*
X14682884Y7496781D01*
X14735865Y7468042D01*
X14784932Y7432897D01*
X14829516Y7392075D01*
X14869044Y7346304D01*
X14902945Y7296312D01*
X14930648Y7242828D01*
X14951582Y7186581D01*
X14963229Y7139261D01*
X14971353Y7076502D01*
X14971890Y7014873D01*
X14965166Y6954858D01*
X14951507Y6896942D01*
X14931237Y6841613D01*
X14904682Y6789354D01*
X14872166Y6740651D01*
X14834016Y6695990D01*
X14790556Y6655855D01*
X14742111Y6620734D01*
X14689007Y6591110D01*
X14631569Y6567469D01*
X14570122Y6550297D01*
X14568412Y6549928D01*
X14550730Y6546746D01*
X14531488Y6544622D01*
X14508789Y6543425D01*
X14480741Y6543023D01*
X14469193Y6543046D01*
X14447508Y6543423D01*
X14426545Y6544427D01*
X14405302Y6546220D01*
X14382774Y6548963D01*
X14357957Y6552818D01*
X14329847Y6557947D01*
X14297440Y6564510D01*
X14259733Y6572670D01*
X14215720Y6582589D01*
X14197334Y6586807D01*
X14083921Y6615320D01*
X13967742Y6649115D01*
X13850654Y6687526D01*
X13734513Y6729886D01*
X13621176Y6775528D01*
X13512500Y6823787D01*
X13441331Y6858197D01*
X13413804Y6872682D01*
X13392773Y6885476D01*
X13377201Y6897390D01*
X13366049Y6909232D01*
X13358280Y6921812D01*
X13357407Y6923669D01*
X13351432Y6941703D01*
X13351484Y6958527D01*
X13355439Y6972768D01*
X13366293Y6992480D01*
X13384614Y7012727D01*
X13409994Y7033072D01*
X13414780Y7036373D01*
X13488012Y7090447D01*
X13555480Y7149651D01*
X13616942Y7213692D01*
X13672158Y7282278D01*
X13720884Y7355114D01*
X13762879Y7431910D01*
X13788387Y7488460D01*
X13800732Y7519651D01*
X13811952Y7551044D01*
X13822702Y7584665D01*
X13833639Y7622542D01*
X13842495Y7655480D01*
X13847807Y7673723D01*
X13853222Y7686771D01*
X13860061Y7697272D01*
X13867514Y7705693D01*
X13883077Y7719132D01*
X13899464Y7727211D01*
X13917775Y7729974D01*
X13939107Y7727466D01*
G36*
X13939107Y7727466D02*
G01*
X13964559Y7719731D01*
X13986990Y7710536D01*
X14107509Y7661092D01*
X14231798Y7617810D01*
X14360440Y7580510D01*
X14494017Y7549010D01*
X14524698Y7542726D01*
X14559381Y7535625D01*
X14587762Y7529313D01*
X14611381Y7523341D01*
X14631775Y7517264D01*
X14650484Y7510635D01*
X14669046Y7503005D01*
X14682884Y7496781D01*
X14735865Y7468042D01*
X14784932Y7432897D01*
X14829516Y7392075D01*
X14869044Y7346304D01*
X14902945Y7296312D01*
X14930648Y7242828D01*
X14951582Y7186581D01*
X14963229Y7139261D01*
X14971353Y7076502D01*
X14971890Y7014873D01*
X14965166Y6954858D01*
X14951507Y6896942D01*
X14931237Y6841613D01*
X14904682Y6789354D01*
X14872166Y6740651D01*
X14834016Y6695990D01*
X14790556Y6655855D01*
X14742111Y6620734D01*
X14689007Y6591110D01*
X14631569Y6567469D01*
X14570122Y6550297D01*
X14568412Y6549928D01*
X14550730Y6546746D01*
X14531488Y6544622D01*
X14508789Y6543425D01*
X14480741Y6543023D01*
X14469193Y6543046D01*
X14447508Y6543423D01*
X14426545Y6544427D01*
X14405302Y6546220D01*
X14382774Y6548963D01*
X14357957Y6552818D01*
X14329847Y6557947D01*
X14297440Y6564510D01*
X14259733Y6572670D01*
X14215720Y6582589D01*
X14197334Y6586807D01*
X14083921Y6615320D01*
X13967742Y6649115D01*
X13850654Y6687526D01*
X13734513Y6729886D01*
X13621176Y6775528D01*
X13512500Y6823787D01*
X13441331Y6858197D01*
X13413804Y6872682D01*
X13392773Y6885476D01*
X13377201Y6897390D01*
X13366049Y6909232D01*
X13358280Y6921812D01*
X13357407Y6923669D01*
X13351432Y6941703D01*
X13351484Y6958527D01*
X13355439Y6972768D01*
X13366293Y6992480D01*
X13384614Y7012727D01*
X13409994Y7033072D01*
X13414780Y7036373D01*
X13488012Y7090447D01*
X13555480Y7149651D01*
X13616942Y7213692D01*
X13672158Y7282278D01*
X13720884Y7355114D01*
X13762879Y7431910D01*
X13788387Y7488460D01*
X13800732Y7519651D01*
X13811952Y7551044D01*
X13822702Y7584665D01*
X13833639Y7622542D01*
X13842495Y7655480D01*
X13847807Y7673723D01*
X13853222Y7686771D01*
X13860061Y7697272D01*
X13867514Y7705693D01*
X13883077Y7719132D01*
X13899464Y7727211D01*
X13917775Y7729974D01*
X13939107Y7727466D01*
G37*
%TO.C,MH1*%
X-13899840Y7710688D02*
X-13884120Y7703383D01*
X-13870840Y7693432D01*
X-13861575Y7684482D01*
X-13853909Y7674772D01*
X-13847173Y7662916D01*
X-13840697Y7647524D01*
X-13833810Y7627211D01*
X-13825843Y7600588D01*
X-13825587Y7599702D01*
X-13807903Y7542911D01*
X-13788858Y7491180D01*
X-13767331Y7441637D01*
X-13751137Y7408576D01*
X-13708399Y7333442D01*
X-13658875Y7261864D01*
X-13603195Y7194568D01*
X-13541991Y7132283D01*
X-13475894Y7075736D01*
X-13438573Y7047974D01*
X-13409775Y7026041D01*
X-13388024Y7005707D01*
X-13372779Y6986246D01*
X-13363499Y6966929D01*
X-13359640Y6947032D01*
X-13359459Y6941867D01*
X-13361347Y6923316D01*
X-13367680Y6906582D01*
X-13379117Y6890957D01*
X-13396316Y6875732D01*
X-13419938Y6860197D01*
X-13450641Y6843646D01*
X-13450952Y6843489D01*
X-13572541Y6786092D01*
X-13700189Y6732665D01*
X-13832899Y6683546D01*
X-13969675Y6639072D01*
X-14109519Y6599581D01*
X-14251433Y6565409D01*
X-14310073Y6552996D01*
X-14369550Y6542189D01*
X-14422684Y6535276D01*
X-14470026Y6532219D01*
X-14512129Y6532980D01*
X-14545716Y6536850D01*
X-14609151Y6551343D01*
X-14668933Y6572719D01*
X-14724711Y6600740D01*
X-14776137Y6635165D01*
X-14822859Y6675756D01*
X-14864527Y6722273D01*
X-14900792Y6774478D01*
X-14905746Y6782788D01*
X-14932041Y6835503D01*
X-14951751Y6891735D01*
X-14964770Y6950417D01*
X-14970991Y7010480D01*
X-14970307Y7070854D01*
X-14962612Y7130472D01*
X-14947800Y7188266D01*
X-14946538Y7192083D01*
X-14923624Y7248141D01*
X-14893824Y7301091D01*
X-14857809Y7350246D01*
X-14816246Y7394920D01*
X-14769803Y7434427D01*
X-14719150Y7468080D01*
X-14664954Y7495193D01*
X-14642945Y7503867D01*
X-14628656Y7508417D01*
X-14608434Y7513948D01*
X-14584150Y7519995D01*
X-14557674Y7526092D01*
X-14530880Y7531773D01*
X-14530441Y7531861D01*
X-14430712Y7553488D01*
X-14336944Y7577079D01*
X-14247289Y7603195D01*
X-14159894Y7632396D01*
X-14072911Y7665242D01*
X-14025214Y7684794D01*
X-13990706Y7698474D01*
X-13961874Y7707850D01*
X-13937757Y7712975D01*
X-13917399Y7713903D01*
X-13899840Y7710688D01*
G36*
X-13899840Y7710688D02*
G01*
X-13884120Y7703383D01*
X-13870840Y7693432D01*
X-13861575Y7684482D01*
X-13853909Y7674772D01*
X-13847173Y7662916D01*
X-13840697Y7647524D01*
X-13833810Y7627211D01*
X-13825843Y7600588D01*
X-13825587Y7599702D01*
X-13807903Y7542911D01*
X-13788858Y7491180D01*
X-13767331Y7441637D01*
X-13751137Y7408576D01*
X-13708399Y7333442D01*
X-13658875Y7261864D01*
X-13603195Y7194568D01*
X-13541991Y7132283D01*
X-13475894Y7075736D01*
X-13438573Y7047974D01*
X-13409775Y7026041D01*
X-13388024Y7005707D01*
X-13372779Y6986246D01*
X-13363499Y6966929D01*
X-13359640Y6947032D01*
X-13359459Y6941867D01*
X-13361347Y6923316D01*
X-13367680Y6906582D01*
X-13379117Y6890957D01*
X-13396316Y6875732D01*
X-13419938Y6860197D01*
X-13450641Y6843646D01*
X-13450952Y6843489D01*
X-13572541Y6786092D01*
X-13700189Y6732665D01*
X-13832899Y6683546D01*
X-13969675Y6639072D01*
X-14109519Y6599581D01*
X-14251433Y6565409D01*
X-14310073Y6552996D01*
X-14369550Y6542189D01*
X-14422684Y6535276D01*
X-14470026Y6532219D01*
X-14512129Y6532980D01*
X-14545716Y6536850D01*
X-14609151Y6551343D01*
X-14668933Y6572719D01*
X-14724711Y6600740D01*
X-14776137Y6635165D01*
X-14822859Y6675756D01*
X-14864527Y6722273D01*
X-14900792Y6774478D01*
X-14905746Y6782788D01*
X-14932041Y6835503D01*
X-14951751Y6891735D01*
X-14964770Y6950417D01*
X-14970991Y7010480D01*
X-14970307Y7070854D01*
X-14962612Y7130472D01*
X-14947800Y7188266D01*
X-14946538Y7192083D01*
X-14923624Y7248141D01*
X-14893824Y7301091D01*
X-14857809Y7350246D01*
X-14816246Y7394920D01*
X-14769803Y7434427D01*
X-14719150Y7468080D01*
X-14664954Y7495193D01*
X-14642945Y7503867D01*
X-14628656Y7508417D01*
X-14608434Y7513948D01*
X-14584150Y7519995D01*
X-14557674Y7526092D01*
X-14530880Y7531773D01*
X-14530441Y7531861D01*
X-14430712Y7553488D01*
X-14336944Y7577079D01*
X-14247289Y7603195D01*
X-14159894Y7632396D01*
X-14072911Y7665242D01*
X-14025214Y7684794D01*
X-13990706Y7698474D01*
X-13961874Y7707850D01*
X-13937757Y7712975D01*
X-13917399Y7713903D01*
X-13899840Y7710688D01*
G37*
X-11949558Y9960165D02*
X-11891642Y9946506D01*
X-11836313Y9926236D01*
X-11784054Y9899681D01*
X-11735351Y9867165D01*
X-11690690Y9829015D01*
X-11650555Y9785555D01*
X-11615434Y9737110D01*
X-11585810Y9684006D01*
X-11562169Y9626568D01*
X-11544997Y9565121D01*
X-11544628Y9563411D01*
X-11541446Y9545729D01*
X-11539322Y9526487D01*
X-11538125Y9503788D01*
X-11537723Y9475740D01*
X-11537746Y9464192D01*
X-11538123Y9442507D01*
X-11539127Y9421544D01*
X-11540920Y9400301D01*
X-11543663Y9377773D01*
X-11547518Y9352956D01*
X-11552647Y9324846D01*
X-11559210Y9292439D01*
X-11567370Y9254732D01*
X-11577289Y9210719D01*
X-11581507Y9192333D01*
X-11610020Y9078920D01*
X-11643815Y8962741D01*
X-11682226Y8845653D01*
X-11724586Y8729512D01*
X-11770228Y8616175D01*
X-11818487Y8507499D01*
X-11852897Y8436330D01*
X-11867382Y8408803D01*
X-11880176Y8387772D01*
X-11892090Y8372200D01*
X-11903932Y8361048D01*
X-11916512Y8353279D01*
X-11918369Y8352406D01*
X-11936403Y8346431D01*
X-11953227Y8346483D01*
X-11967468Y8350438D01*
X-11987180Y8361292D01*
X-12007427Y8379613D01*
X-12027772Y8404993D01*
X-12031073Y8409779D01*
X-12085147Y8483011D01*
X-12144351Y8550479D01*
X-12208392Y8611941D01*
X-12276978Y8667157D01*
X-12349814Y8715883D01*
X-12426610Y8757878D01*
X-12483160Y8783386D01*
X-12514351Y8795731D01*
X-12545744Y8806951D01*
X-12579365Y8817701D01*
X-12617242Y8828638D01*
X-12650180Y8837494D01*
X-12668423Y8842806D01*
X-12681471Y8848221D01*
X-12691972Y8855060D01*
X-12700393Y8862513D01*
X-12713832Y8878076D01*
X-12721911Y8894463D01*
X-12724674Y8912774D01*
X-12722166Y8934106D01*
X-12714431Y8959558D01*
X-12705236Y8981989D01*
X-12655792Y9102508D01*
X-12612510Y9226797D01*
X-12575210Y9355439D01*
X-12543710Y9489016D01*
X-12537426Y9519697D01*
X-12530325Y9554380D01*
X-12524013Y9582761D01*
X-12518041Y9606380D01*
X-12511964Y9626774D01*
X-12505335Y9645483D01*
X-12497705Y9664045D01*
X-12491481Y9677883D01*
X-12462742Y9730864D01*
X-12427597Y9779931D01*
X-12386775Y9824515D01*
X-12341004Y9864043D01*
X-12291012Y9897944D01*
X-12237528Y9925647D01*
X-12181281Y9946581D01*
X-12133961Y9958228D01*
X-12071202Y9966352D01*
X-12009573Y9966889D01*
X-11949558Y9960165D01*
G36*
X-11949558Y9960165D02*
G01*
X-11891642Y9946506D01*
X-11836313Y9926236D01*
X-11784054Y9899681D01*
X-11735351Y9867165D01*
X-11690690Y9829015D01*
X-11650555Y9785555D01*
X-11615434Y9737110D01*
X-11585810Y9684006D01*
X-11562169Y9626568D01*
X-11544997Y9565121D01*
X-11544628Y9563411D01*
X-11541446Y9545729D01*
X-11539322Y9526487D01*
X-11538125Y9503788D01*
X-11537723Y9475740D01*
X-11537746Y9464192D01*
X-11538123Y9442507D01*
X-11539127Y9421544D01*
X-11540920Y9400301D01*
X-11543663Y9377773D01*
X-11547518Y9352956D01*
X-11552647Y9324846D01*
X-11559210Y9292439D01*
X-11567370Y9254732D01*
X-11577289Y9210719D01*
X-11581507Y9192333D01*
X-11610020Y9078920D01*
X-11643815Y8962741D01*
X-11682226Y8845653D01*
X-11724586Y8729512D01*
X-11770228Y8616175D01*
X-11818487Y8507499D01*
X-11852897Y8436330D01*
X-11867382Y8408803D01*
X-11880176Y8387772D01*
X-11892090Y8372200D01*
X-11903932Y8361048D01*
X-11916512Y8353279D01*
X-11918369Y8352406D01*
X-11936403Y8346431D01*
X-11953227Y8346483D01*
X-11967468Y8350438D01*
X-11987180Y8361292D01*
X-12007427Y8379613D01*
X-12027772Y8404993D01*
X-12031073Y8409779D01*
X-12085147Y8483011D01*
X-12144351Y8550479D01*
X-12208392Y8611941D01*
X-12276978Y8667157D01*
X-12349814Y8715883D01*
X-12426610Y8757878D01*
X-12483160Y8783386D01*
X-12514351Y8795731D01*
X-12545744Y8806951D01*
X-12579365Y8817701D01*
X-12617242Y8828638D01*
X-12650180Y8837494D01*
X-12668423Y8842806D01*
X-12681471Y8848221D01*
X-12691972Y8855060D01*
X-12700393Y8862513D01*
X-12713832Y8878076D01*
X-12721911Y8894463D01*
X-12724674Y8912774D01*
X-12722166Y8934106D01*
X-12714431Y8959558D01*
X-12705236Y8981989D01*
X-12655792Y9102508D01*
X-12612510Y9226797D01*
X-12575210Y9355439D01*
X-12543710Y9489016D01*
X-12537426Y9519697D01*
X-12530325Y9554380D01*
X-12524013Y9582761D01*
X-12518041Y9606380D01*
X-12511964Y9626774D01*
X-12505335Y9645483D01*
X-12497705Y9664045D01*
X-12491481Y9677883D01*
X-12462742Y9730864D01*
X-12427597Y9779931D01*
X-12386775Y9824515D01*
X-12341004Y9864043D01*
X-12291012Y9897944D01*
X-12237528Y9925647D01*
X-12181281Y9946581D01*
X-12133961Y9958228D01*
X-12071202Y9966352D01*
X-12009573Y9966889D01*
X-11949558Y9960165D01*
G37*
X-12493080Y8462212D02*
X-12475996Y8461545D01*
X-12462479Y8460274D01*
X-12451804Y8458344D01*
X-12443241Y8455699D01*
X-12436066Y8452282D01*
X-12429548Y8448040D01*
X-12422962Y8442914D01*
X-12419690Y8440230D01*
X-12408818Y8428720D01*
X-12398500Y8413530D01*
X-12390198Y8397311D01*
X-12385378Y8382711D01*
X-12384731Y8376967D01*
X-12383862Y8371125D01*
X-12381375Y8358362D01*
X-12377445Y8339492D01*
X-12372249Y8315326D01*
X-12365964Y8286676D01*
X-12358765Y8254355D01*
X-12350829Y8219174D01*
X-12343059Y8185111D01*
X-12332429Y8138496D01*
X-12323568Y8098904D01*
X-12316374Y8065644D01*
X-12310745Y8038025D01*
X-12306578Y8015357D01*
X-12303773Y7996949D01*
X-12302227Y7982110D01*
X-12301838Y7970148D01*
X-12302505Y7960374D01*
X-12304125Y7952096D01*
X-12306597Y7944623D01*
X-12307332Y7942809D01*
X-12319147Y7922743D01*
X-12336065Y7904491D01*
X-12354590Y7891433D01*
X-12372955Y7885113D01*
X-12395198Y7882434D01*
X-12418164Y7883397D01*
X-12438699Y7888005D01*
X-12446518Y7891379D01*
X-12462601Y7902393D01*
X-12477976Y7917153D01*
X-12490130Y7933021D01*
X-12494924Y7942205D01*
X-12497256Y7949647D01*
X-12500953Y7963448D01*
X-12505667Y7982221D01*
X-12511051Y8004574D01*
X-12516756Y8029118D01*
X-12517679Y8033174D01*
X-12523140Y8057057D01*
X-12528037Y8078151D01*
X-12532091Y8095288D01*
X-12535027Y8107299D01*
X-12536567Y8113019D01*
X-12536699Y8113326D01*
X-12539388Y8110758D01*
X-12546119Y8102977D01*
X-12556031Y8091013D01*
X-12568266Y8075897D01*
X-12576173Y8065985D01*
X-12675778Y7946850D01*
X-12781374Y7832921D01*
X-12892952Y7724207D01*
X-13010506Y7620714D01*
X-13070383Y7571835D01*
X-13087489Y7557937D01*
X-13101915Y7545681D01*
X-13112713Y7535919D01*
X-13118935Y7529499D01*
X-13119992Y7527349D01*
X-13115406Y7525660D01*
X-13104277Y7522381D01*
X-13087771Y7517831D01*
X-13067049Y7512328D01*
X-13043275Y7506190D01*
X-13033622Y7503742D01*
X-13002672Y7495885D01*
X-12978372Y7489537D01*
X-12959665Y7484311D01*
X-12945494Y7479819D01*
X-12934802Y7475675D01*
X-12926530Y7471492D01*
X-12919621Y7466883D01*
X-12913018Y7461461D01*
X-12909519Y7458341D01*
X-12892287Y7437880D01*
X-12881611Y7414547D01*
X-12877307Y7389655D01*
X-12879187Y7364520D01*
X-12887067Y7340457D01*
X-12900759Y7318780D01*
X-12920078Y7300804D01*
X-12932907Y7293037D01*
X-12944041Y7288006D01*
X-12955193Y7284698D01*
X-12967466Y7283199D01*
X-12981962Y7283598D01*
X-12999784Y7285980D01*
X-13022034Y7290434D01*
X-13049815Y7297046D01*
X-13079262Y7304601D01*
X-13107506Y7311970D01*
X-13141348Y7320770D01*
X-13178698Y7330458D01*
X-13217465Y7340493D01*
X-13255558Y7350332D01*
X-13289340Y7359037D01*
X-13326219Y7368613D01*
X-13356249Y7376697D01*
X-13380296Y7383659D01*
X-13399227Y7389867D01*
X-13413910Y7395692D01*
X-13425212Y7401501D01*
X-13433998Y7407665D01*
X-13441137Y7414552D01*
X-13447495Y7422532D01*
X-13451296Y7427998D01*
X-13455259Y7434076D01*
X-13458568Y7440017D01*
X-13461243Y7446515D01*
X-13463304Y7454260D01*
X-13464770Y7463945D01*
X-13465662Y7476262D01*
X-13465999Y7491902D01*
X-13465802Y7511558D01*
X-13465090Y7535922D01*
X-13463883Y7565685D01*
X-13462202Y7601540D01*
X-13460066Y7644179D01*
X-13458438Y7675937D01*
X-13456329Y7715786D01*
X-13454210Y7753614D01*
X-13452136Y7788604D01*
X-13450160Y7819941D01*
X-13448335Y7846810D01*
X-13446716Y7868395D01*
X-13445356Y7883880D01*
X-13444309Y7892450D01*
X-13444109Y7893392D01*
X-13434152Y7916680D01*
X-13418578Y7935719D01*
X-13398698Y7950142D01*
X-13375820Y7959578D01*
X-13351253Y7963660D01*
X-13326306Y7962018D01*
X-13302289Y7954283D01*
X-13280510Y7940086D01*
X-13280003Y7939643D01*
X-13265619Y7923599D01*
X-13254457Y7904889D01*
X-13253901Y7903631D01*
X-13250688Y7895777D01*
X-13248404Y7888519D01*
X-13246954Y7880439D01*
X-13246238Y7870119D01*
X-13246160Y7856140D01*
X-13246622Y7837083D01*
X-13247526Y7811530D01*
X-13247538Y7811208D01*
X-13248562Y7786057D01*
X-13249707Y7761691D01*
X-13250872Y7740023D01*
X-13251957Y7722969D01*
X-13252641Y7714507D01*
X-13253610Y7704569D01*
X-13253823Y7697578D01*
X-13252510Y7693806D01*
X-13248906Y7693523D01*
X-13242243Y7697002D01*
X-13231754Y7704514D01*
X-13216671Y7716329D01*
X-13196226Y7732719D01*
X-13192372Y7735812D01*
X-13109296Y7805234D01*
X-13027210Y7879265D01*
X-12947314Y7956678D01*
X-12870808Y8036246D01*
X-12798892Y8116742D01*
X-12732764Y8196938D01*
X-12700154Y8239329D01*
X-12688638Y8254699D01*
X-12724208Y8252165D01*
X-12741251Y8251202D01*
X-12763702Y8250293D01*
X-12789031Y8249523D01*
X-12814708Y8248976D01*
X-12823278Y8248853D01*
X-12848460Y8248682D01*
X-12867162Y8248952D01*
X-12880834Y8249778D01*
X-12890926Y8251272D01*
X-12898890Y8253547D01*
X-12902653Y8255069D01*
X-12925453Y8269239D01*
X-12943902Y8288974D01*
X-12956941Y8312656D01*
X-12963511Y8338665D01*
X-12964091Y8348973D01*
X-12960457Y8374696D01*
X-12950304Y8398980D01*
X-12934755Y8420094D01*
X-12914934Y8436309D01*
X-12903621Y8442101D01*
X-12898783Y8443996D01*
X-12893587Y8445637D01*
X-12887365Y8447068D01*
X-12879449Y8448335D01*
X-12869173Y8449481D01*
X-12855868Y8450551D01*
X-12838867Y8451589D01*
X-12817501Y8452640D01*
X-12791105Y8453747D01*
X-12759009Y8454955D01*
X-12720547Y8456308D01*
X-12675051Y8457851D01*
X-12657490Y8458439D01*
X-12611652Y8459955D01*
X-12573019Y8461147D01*
X-12540865Y8461957D01*
X-12514461Y8462331D01*
X-12493080Y8462212D01*
G36*
X-12493080Y8462212D02*
G01*
X-12475996Y8461545D01*
X-12462479Y8460274D01*
X-12451804Y8458344D01*
X-12443241Y8455699D01*
X-12436066Y8452282D01*
X-12429548Y8448040D01*
X-12422962Y8442914D01*
X-12419690Y8440230D01*
X-12408818Y8428720D01*
X-12398500Y8413530D01*
X-12390198Y8397311D01*
X-12385378Y8382711D01*
X-12384731Y8376967D01*
X-12383862Y8371125D01*
X-12381375Y8358362D01*
X-12377445Y8339492D01*
X-12372249Y8315326D01*
X-12365964Y8286676D01*
X-12358765Y8254355D01*
X-12350829Y8219174D01*
X-12343059Y8185111D01*
X-12332429Y8138496D01*
X-12323568Y8098904D01*
X-12316374Y8065644D01*
X-12310745Y8038025D01*
X-12306578Y8015357D01*
X-12303773Y7996949D01*
X-12302227Y7982110D01*
X-12301838Y7970148D01*
X-12302505Y7960374D01*
X-12304125Y7952096D01*
X-12306597Y7944623D01*
X-12307332Y7942809D01*
X-12319147Y7922743D01*
X-12336065Y7904491D01*
X-12354590Y7891433D01*
X-12372955Y7885113D01*
X-12395198Y7882434D01*
X-12418164Y7883397D01*
X-12438699Y7888005D01*
X-12446518Y7891379D01*
X-12462601Y7902393D01*
X-12477976Y7917153D01*
X-12490130Y7933021D01*
X-12494924Y7942205D01*
X-12497256Y7949647D01*
X-12500953Y7963448D01*
X-12505667Y7982221D01*
X-12511051Y8004574D01*
X-12516756Y8029118D01*
X-12517679Y8033174D01*
X-12523140Y8057057D01*
X-12528037Y8078151D01*
X-12532091Y8095288D01*
X-12535027Y8107299D01*
X-12536567Y8113019D01*
X-12536699Y8113326D01*
X-12539388Y8110758D01*
X-12546119Y8102977D01*
X-12556031Y8091013D01*
X-12568266Y8075897D01*
X-12576173Y8065985D01*
X-12675778Y7946850D01*
X-12781374Y7832921D01*
X-12892952Y7724207D01*
X-13010506Y7620714D01*
X-13070383Y7571835D01*
X-13087489Y7557937D01*
X-13101915Y7545681D01*
X-13112713Y7535919D01*
X-13118935Y7529499D01*
X-13119992Y7527349D01*
X-13115406Y7525660D01*
X-13104277Y7522381D01*
X-13087771Y7517831D01*
X-13067049Y7512328D01*
X-13043275Y7506190D01*
X-13033622Y7503742D01*
X-13002672Y7495885D01*
X-12978372Y7489537D01*
X-12959665Y7484311D01*
X-12945494Y7479819D01*
X-12934802Y7475675D01*
X-12926530Y7471492D01*
X-12919621Y7466883D01*
X-12913018Y7461461D01*
X-12909519Y7458341D01*
X-12892287Y7437880D01*
X-12881611Y7414547D01*
X-12877307Y7389655D01*
X-12879187Y7364520D01*
X-12887067Y7340457D01*
X-12900759Y7318780D01*
X-12920078Y7300804D01*
X-12932907Y7293037D01*
X-12944041Y7288006D01*
X-12955193Y7284698D01*
X-12967466Y7283199D01*
X-12981962Y7283598D01*
X-12999784Y7285980D01*
X-13022034Y7290434D01*
X-13049815Y7297046D01*
X-13079262Y7304601D01*
X-13107506Y7311970D01*
X-13141348Y7320770D01*
X-13178698Y7330458D01*
X-13217465Y7340493D01*
X-13255558Y7350332D01*
X-13289340Y7359037D01*
X-13326219Y7368613D01*
X-13356249Y7376697D01*
X-13380296Y7383659D01*
X-13399227Y7389867D01*
X-13413910Y7395692D01*
X-13425212Y7401501D01*
X-13433998Y7407665D01*
X-13441137Y7414552D01*
X-13447495Y7422532D01*
X-13451296Y7427998D01*
X-13455259Y7434076D01*
X-13458568Y7440017D01*
X-13461243Y7446515D01*
X-13463304Y7454260D01*
X-13464770Y7463945D01*
X-13465662Y7476262D01*
X-13465999Y7491902D01*
X-13465802Y7511558D01*
X-13465090Y7535922D01*
X-13463883Y7565685D01*
X-13462202Y7601540D01*
X-13460066Y7644179D01*
X-13458438Y7675937D01*
X-13456329Y7715786D01*
X-13454210Y7753614D01*
X-13452136Y7788604D01*
X-13450160Y7819941D01*
X-13448335Y7846810D01*
X-13446716Y7868395D01*
X-13445356Y7883880D01*
X-13444309Y7892450D01*
X-13444109Y7893392D01*
X-13434152Y7916680D01*
X-13418578Y7935719D01*
X-13398698Y7950142D01*
X-13375820Y7959578D01*
X-13351253Y7963660D01*
X-13326306Y7962018D01*
X-13302289Y7954283D01*
X-13280510Y7940086D01*
X-13280003Y7939643D01*
X-13265619Y7923599D01*
X-13254457Y7904889D01*
X-13253901Y7903631D01*
X-13250688Y7895777D01*
X-13248404Y7888519D01*
X-13246954Y7880439D01*
X-13246238Y7870119D01*
X-13246160Y7856140D01*
X-13246622Y7837083D01*
X-13247526Y7811530D01*
X-13247538Y7811208D01*
X-13248562Y7786057D01*
X-13249707Y7761691D01*
X-13250872Y7740023D01*
X-13251957Y7722969D01*
X-13252641Y7714507D01*
X-13253610Y7704569D01*
X-13253823Y7697578D01*
X-13252510Y7693806D01*
X-13248906Y7693523D01*
X-13242243Y7697002D01*
X-13231754Y7704514D01*
X-13216671Y7716329D01*
X-13196226Y7732719D01*
X-13192372Y7735812D01*
X-13109296Y7805234D01*
X-13027210Y7879265D01*
X-12947314Y7956678D01*
X-12870808Y8036246D01*
X-12798892Y8116742D01*
X-12732764Y8196938D01*
X-12700154Y8239329D01*
X-12688638Y8254699D01*
X-12724208Y8252165D01*
X-12741251Y8251202D01*
X-12763702Y8250293D01*
X-12789031Y8249523D01*
X-12814708Y8248976D01*
X-12823278Y8248853D01*
X-12848460Y8248682D01*
X-12867162Y8248952D01*
X-12880834Y8249778D01*
X-12890926Y8251272D01*
X-12898890Y8253547D01*
X-12902653Y8255069D01*
X-12925453Y8269239D01*
X-12943902Y8288974D01*
X-12956941Y8312656D01*
X-12963511Y8338665D01*
X-12964091Y8348973D01*
X-12960457Y8374696D01*
X-12950304Y8398980D01*
X-12934755Y8420094D01*
X-12914934Y8436309D01*
X-12903621Y8442101D01*
X-12898783Y8443996D01*
X-12893587Y8445637D01*
X-12887365Y8447068D01*
X-12879449Y8448335D01*
X-12869173Y8449481D01*
X-12855868Y8450551D01*
X-12838867Y8451589D01*
X-12817501Y8452640D01*
X-12791105Y8453747D01*
X-12759009Y8454955D01*
X-12720547Y8456308D01*
X-12675051Y8457851D01*
X-12657490Y8458439D01*
X-12611652Y8459955D01*
X-12573019Y8461147D01*
X-12540865Y8461957D01*
X-12514461Y8462331D01*
X-12493080Y8462212D01*
G37*
%TD*%
M02*
