%TF.GenerationSoftware,KiCad,Pcbnew,8.0.2-1*%
%TF.CreationDate,2024-12-23T22:16:29+00:00*%
%TF.ProjectId,20x30-jacdac-MH-0.1,32307833-302d-46a6-9163-6461632d4d48,v0.1*%
%TF.SameCoordinates,PX8d24d00PY36d6160*%
%TF.FileFunction,Soldermask,Top*%
%TF.FilePolarity,Negative*%
%FSLAX46Y46*%
G04 Gerber Fmt 4.6, Leading zero omitted, Abs format (unit mm)*
G04 Created by KiCad (PCBNEW 8.0.2-1) date 2024-12-23 22:16:29*
%MOMM*%
%LPD*%
G01*
G04 APERTURE LIST*
%ADD10C,2.500000*%
%ADD11C,0.000000*%
G04 APERTURE END LIST*
%TO.C,MH3*%
D10*
X-13750800Y-10000800D02*
G75*
G02*
X-16250800Y-10000800I-1250000J0D01*
G01*
X-16250800Y-10000800D02*
G75*
G02*
X-13750800Y-10000800I1250000J0D01*
G01*
%TO.C,MH4*%
X16250000Y-9999999D02*
G75*
G02*
X13750000Y-9999999I-1250000J0D01*
G01*
X13750000Y-9999999D02*
G75*
G02*
X16250000Y-9999999I1250000J0D01*
G01*
%TO.C,MH2*%
X16250000Y10000000D02*
G75*
G02*
X13750000Y10000000I-1250000J0D01*
G01*
X13750000Y10000000D02*
G75*
G02*
X16250000Y10000000I1250000J0D01*
G01*
D11*
%TO.C,MH1*%
G36*
X-12500000Y10000001D02*
G01*
X-12504933Y10000001D01*
X-12504933Y9843025D01*
X-12544282Y9531548D01*
X-12622359Y9227459D01*
X-12737932Y8935553D01*
X-12889180Y8660434D01*
X-13073717Y8406441D01*
X-13288632Y8177579D01*
X-13530537Y7977459D01*
X-13795616Y7809234D01*
X-14079689Y7675560D01*
X-14378275Y7578543D01*
X-14686667Y7519714D01*
X-15000000Y7500001D01*
X-17500000Y7500001D01*
X-17500000Y10000001D01*
X-17495067Y10000001D01*
X-17495067Y10156977D01*
X-17455718Y10468454D01*
X-17377641Y10772543D01*
X-17262068Y11064449D01*
X-17110820Y11339568D01*
X-16926283Y11593561D01*
X-16711368Y11822423D01*
X-16469463Y12022543D01*
X-16204384Y12190768D01*
X-15920311Y12324442D01*
X-15621725Y12421459D01*
X-15313333Y12480288D01*
X-15000000Y12500001D01*
X-12500000Y12500001D01*
X-12500000Y10000001D01*
G37*
%TD*%
M02*
