%TF.GenerationSoftware,KiCad,Pcbnew,8.0.2-1*%
%TF.CreationDate,2024-12-23T22:16:29+00:00*%
%TF.ProjectId,20x30-jacdac-MH-0.1,32307833-302d-46a6-9163-6461632d4d48,v0.1*%
%TF.SameCoordinates,PX8d24d00PY36d6160*%
%TF.FileFunction,Legend,Bot*%
%TF.FilePolarity,Positive*%
%FSLAX46Y46*%
G04 Gerber Fmt 4.6, Leading zero omitted, Abs format (unit mm)*
G04 Created by KiCad (PCBNEW 8.0.2-1) date 2024-12-23 22:16:29*
%MOMM*%
%LPD*%
G01*
G04 APERTURE LIST*
%ADD10C,0.010000*%
G04 APERTURE END LIST*
D10*
%TO.C,MH3*%
X-11929306Y-8363938D02*
X-11912572Y-8370271D01*
X-11896947Y-8381708D01*
X-11881722Y-8398907D01*
X-11866187Y-8422529D01*
X-11849636Y-8453232D01*
X-11849479Y-8453543D01*
X-11792082Y-8575132D01*
X-11738655Y-8702780D01*
X-11689536Y-8835490D01*
X-11645062Y-8972266D01*
X-11605571Y-9112110D01*
X-11571399Y-9254024D01*
X-11558986Y-9312664D01*
X-11548179Y-9372141D01*
X-11541266Y-9425275D01*
X-11538209Y-9472617D01*
X-11538970Y-9514720D01*
X-11542840Y-9548307D01*
X-11557333Y-9611742D01*
X-11578709Y-9671524D01*
X-11606730Y-9727302D01*
X-11641155Y-9778728D01*
X-11681746Y-9825450D01*
X-11728263Y-9867118D01*
X-11780468Y-9903383D01*
X-11788778Y-9908337D01*
X-11841493Y-9934632D01*
X-11897725Y-9954342D01*
X-11956407Y-9967361D01*
X-12016470Y-9973582D01*
X-12076844Y-9972898D01*
X-12136462Y-9965203D01*
X-12194256Y-9950391D01*
X-12198073Y-9949129D01*
X-12254131Y-9926215D01*
X-12307081Y-9896415D01*
X-12356236Y-9860400D01*
X-12400910Y-9818837D01*
X-12440417Y-9772394D01*
X-12474070Y-9721741D01*
X-12501183Y-9667545D01*
X-12509857Y-9645536D01*
X-12514407Y-9631247D01*
X-12519938Y-9611025D01*
X-12525985Y-9586741D01*
X-12532082Y-9560265D01*
X-12537763Y-9533471D01*
X-12537851Y-9533032D01*
X-12559478Y-9433303D01*
X-12583069Y-9339535D01*
X-12609185Y-9249880D01*
X-12638386Y-9162485D01*
X-12671232Y-9075502D01*
X-12690784Y-9027805D01*
X-12704464Y-8993297D01*
X-12713840Y-8964465D01*
X-12718965Y-8940348D01*
X-12719893Y-8919990D01*
X-12716678Y-8902431D01*
X-12709373Y-8886711D01*
X-12699422Y-8873431D01*
X-12690472Y-8864166D01*
X-12680762Y-8856500D01*
X-12668906Y-8849764D01*
X-12653514Y-8843288D01*
X-12633201Y-8836401D01*
X-12606578Y-8828434D01*
X-12605692Y-8828178D01*
X-12548901Y-8810494D01*
X-12497170Y-8791449D01*
X-12447627Y-8769922D01*
X-12414566Y-8753728D01*
X-12339432Y-8710990D01*
X-12267854Y-8661466D01*
X-12200558Y-8605786D01*
X-12138273Y-8544582D01*
X-12081726Y-8478485D01*
X-12053964Y-8441164D01*
X-12032031Y-8412366D01*
X-12011697Y-8390615D01*
X-11992236Y-8375370D01*
X-11972919Y-8366090D01*
X-11953022Y-8362231D01*
X-11947857Y-8362050D01*
X-11929306Y-8363938D01*
G36*
X-11929306Y-8363938D02*
G01*
X-11912572Y-8370271D01*
X-11896947Y-8381708D01*
X-11881722Y-8398907D01*
X-11866187Y-8422529D01*
X-11849636Y-8453232D01*
X-11849479Y-8453543D01*
X-11792082Y-8575132D01*
X-11738655Y-8702780D01*
X-11689536Y-8835490D01*
X-11645062Y-8972266D01*
X-11605571Y-9112110D01*
X-11571399Y-9254024D01*
X-11558986Y-9312664D01*
X-11548179Y-9372141D01*
X-11541266Y-9425275D01*
X-11538209Y-9472617D01*
X-11538970Y-9514720D01*
X-11542840Y-9548307D01*
X-11557333Y-9611742D01*
X-11578709Y-9671524D01*
X-11606730Y-9727302D01*
X-11641155Y-9778728D01*
X-11681746Y-9825450D01*
X-11728263Y-9867118D01*
X-11780468Y-9903383D01*
X-11788778Y-9908337D01*
X-11841493Y-9934632D01*
X-11897725Y-9954342D01*
X-11956407Y-9967361D01*
X-12016470Y-9973582D01*
X-12076844Y-9972898D01*
X-12136462Y-9965203D01*
X-12194256Y-9950391D01*
X-12198073Y-9949129D01*
X-12254131Y-9926215D01*
X-12307081Y-9896415D01*
X-12356236Y-9860400D01*
X-12400910Y-9818837D01*
X-12440417Y-9772394D01*
X-12474070Y-9721741D01*
X-12501183Y-9667545D01*
X-12509857Y-9645536D01*
X-12514407Y-9631247D01*
X-12519938Y-9611025D01*
X-12525985Y-9586741D01*
X-12532082Y-9560265D01*
X-12537763Y-9533471D01*
X-12537851Y-9533032D01*
X-12559478Y-9433303D01*
X-12583069Y-9339535D01*
X-12609185Y-9249880D01*
X-12638386Y-9162485D01*
X-12671232Y-9075502D01*
X-12690784Y-9027805D01*
X-12704464Y-8993297D01*
X-12713840Y-8964465D01*
X-12718965Y-8940348D01*
X-12719893Y-8919990D01*
X-12716678Y-8902431D01*
X-12709373Y-8886711D01*
X-12699422Y-8873431D01*
X-12690472Y-8864166D01*
X-12680762Y-8856500D01*
X-12668906Y-8849764D01*
X-12653514Y-8843288D01*
X-12633201Y-8836401D01*
X-12606578Y-8828434D01*
X-12605692Y-8828178D01*
X-12548901Y-8810494D01*
X-12497170Y-8791449D01*
X-12447627Y-8769922D01*
X-12414566Y-8753728D01*
X-12339432Y-8710990D01*
X-12267854Y-8661466D01*
X-12200558Y-8605786D01*
X-12138273Y-8544582D01*
X-12081726Y-8478485D01*
X-12053964Y-8441164D01*
X-12032031Y-8412366D01*
X-12011697Y-8390615D01*
X-11992236Y-8375370D01*
X-11972919Y-8366090D01*
X-11953022Y-8362231D01*
X-11947857Y-8362050D01*
X-11929306Y-8363938D01*
G37*
X-14470182Y-6540337D02*
X-14448497Y-6540714D01*
X-14427534Y-6541718D01*
X-14406291Y-6543511D01*
X-14383763Y-6546254D01*
X-14358946Y-6550109D01*
X-14330836Y-6555238D01*
X-14298429Y-6561801D01*
X-14260722Y-6569961D01*
X-14216709Y-6579880D01*
X-14198323Y-6584098D01*
X-14084910Y-6612611D01*
X-13968731Y-6646406D01*
X-13851643Y-6684817D01*
X-13735502Y-6727177D01*
X-13622165Y-6772819D01*
X-13513489Y-6821078D01*
X-13442320Y-6855488D01*
X-13414793Y-6869973D01*
X-13393762Y-6882767D01*
X-13378190Y-6894681D01*
X-13367038Y-6906523D01*
X-13359269Y-6919103D01*
X-13358396Y-6920960D01*
X-13352421Y-6938994D01*
X-13352473Y-6955818D01*
X-13356428Y-6970059D01*
X-13367282Y-6989771D01*
X-13385603Y-7010018D01*
X-13410983Y-7030363D01*
X-13415769Y-7033664D01*
X-13489001Y-7087738D01*
X-13556469Y-7146942D01*
X-13617931Y-7210983D01*
X-13673147Y-7279569D01*
X-13721873Y-7352405D01*
X-13763868Y-7429201D01*
X-13789376Y-7485751D01*
X-13801721Y-7516942D01*
X-13812941Y-7548335D01*
X-13823691Y-7581956D01*
X-13834628Y-7619833D01*
X-13843484Y-7652771D01*
X-13848796Y-7671014D01*
X-13854211Y-7684062D01*
X-13861050Y-7694563D01*
X-13868503Y-7702984D01*
X-13884066Y-7716423D01*
X-13900453Y-7724502D01*
X-13918764Y-7727265D01*
X-13940096Y-7724757D01*
X-13965548Y-7717022D01*
X-13987979Y-7707827D01*
X-14108498Y-7658383D01*
X-14232787Y-7615101D01*
X-14361429Y-7577801D01*
X-14495006Y-7546301D01*
X-14525687Y-7540017D01*
X-14560370Y-7532916D01*
X-14588751Y-7526604D01*
X-14612370Y-7520632D01*
X-14632764Y-7514555D01*
X-14651473Y-7507926D01*
X-14670035Y-7500296D01*
X-14683873Y-7494072D01*
X-14736854Y-7465333D01*
X-14785921Y-7430188D01*
X-14830505Y-7389366D01*
X-14870033Y-7343595D01*
X-14903934Y-7293603D01*
X-14931637Y-7240119D01*
X-14952571Y-7183872D01*
X-14964218Y-7136552D01*
X-14972342Y-7073793D01*
X-14972879Y-7012164D01*
X-14966155Y-6952149D01*
X-14952496Y-6894233D01*
X-14932226Y-6838904D01*
X-14905671Y-6786645D01*
X-14873155Y-6737942D01*
X-14835005Y-6693281D01*
X-14791545Y-6653146D01*
X-14743100Y-6618025D01*
X-14689996Y-6588401D01*
X-14632558Y-6564760D01*
X-14571111Y-6547588D01*
X-14569401Y-6547219D01*
X-14551719Y-6544037D01*
X-14532477Y-6541913D01*
X-14509778Y-6540716D01*
X-14481730Y-6540314D01*
X-14470182Y-6540337D01*
G36*
X-14470182Y-6540337D02*
G01*
X-14448497Y-6540714D01*
X-14427534Y-6541718D01*
X-14406291Y-6543511D01*
X-14383763Y-6546254D01*
X-14358946Y-6550109D01*
X-14330836Y-6555238D01*
X-14298429Y-6561801D01*
X-14260722Y-6569961D01*
X-14216709Y-6579880D01*
X-14198323Y-6584098D01*
X-14084910Y-6612611D01*
X-13968731Y-6646406D01*
X-13851643Y-6684817D01*
X-13735502Y-6727177D01*
X-13622165Y-6772819D01*
X-13513489Y-6821078D01*
X-13442320Y-6855488D01*
X-13414793Y-6869973D01*
X-13393762Y-6882767D01*
X-13378190Y-6894681D01*
X-13367038Y-6906523D01*
X-13359269Y-6919103D01*
X-13358396Y-6920960D01*
X-13352421Y-6938994D01*
X-13352473Y-6955818D01*
X-13356428Y-6970059D01*
X-13367282Y-6989771D01*
X-13385603Y-7010018D01*
X-13410983Y-7030363D01*
X-13415769Y-7033664D01*
X-13489001Y-7087738D01*
X-13556469Y-7146942D01*
X-13617931Y-7210983D01*
X-13673147Y-7279569D01*
X-13721873Y-7352405D01*
X-13763868Y-7429201D01*
X-13789376Y-7485751D01*
X-13801721Y-7516942D01*
X-13812941Y-7548335D01*
X-13823691Y-7581956D01*
X-13834628Y-7619833D01*
X-13843484Y-7652771D01*
X-13848796Y-7671014D01*
X-13854211Y-7684062D01*
X-13861050Y-7694563D01*
X-13868503Y-7702984D01*
X-13884066Y-7716423D01*
X-13900453Y-7724502D01*
X-13918764Y-7727265D01*
X-13940096Y-7724757D01*
X-13965548Y-7717022D01*
X-13987979Y-7707827D01*
X-14108498Y-7658383D01*
X-14232787Y-7615101D01*
X-14361429Y-7577801D01*
X-14495006Y-7546301D01*
X-14525687Y-7540017D01*
X-14560370Y-7532916D01*
X-14588751Y-7526604D01*
X-14612370Y-7520632D01*
X-14632764Y-7514555D01*
X-14651473Y-7507926D01*
X-14670035Y-7500296D01*
X-14683873Y-7494072D01*
X-14736854Y-7465333D01*
X-14785921Y-7430188D01*
X-14830505Y-7389366D01*
X-14870033Y-7343595D01*
X-14903934Y-7293603D01*
X-14931637Y-7240119D01*
X-14952571Y-7183872D01*
X-14964218Y-7136552D01*
X-14972342Y-7073793D01*
X-14972879Y-7012164D01*
X-14966155Y-6952149D01*
X-14952496Y-6894233D01*
X-14932226Y-6838904D01*
X-14905671Y-6786645D01*
X-14873155Y-6737942D01*
X-14835005Y-6693281D01*
X-14791545Y-6653146D01*
X-14743100Y-6618025D01*
X-14689996Y-6588401D01*
X-14632558Y-6564760D01*
X-14571111Y-6547588D01*
X-14569401Y-6547219D01*
X-14551719Y-6544037D01*
X-14532477Y-6541913D01*
X-14509778Y-6540716D01*
X-14481730Y-6540314D01*
X-14470182Y-6540337D01*
G37*
X-13114506Y-7497744D02*
X-13104489Y-7500501D01*
X-13098602Y-7502693D01*
X-13092612Y-7505668D01*
X-13085887Y-7509983D01*
X-13077796Y-7516197D01*
X-13067706Y-7524868D01*
X-13054986Y-7536554D01*
X-13039003Y-7551814D01*
X-13019125Y-7571204D01*
X-12994721Y-7595283D01*
X-12974957Y-7614880D01*
X-12866811Y-7722233D01*
X-12760645Y-7617032D01*
X-12732077Y-7588945D01*
X-12706322Y-7564069D01*
X-12683875Y-7542858D01*
X-12665228Y-7525771D01*
X-12650876Y-7513264D01*
X-12641313Y-7505793D01*
X-12638604Y-7504147D01*
X-12620453Y-7498507D01*
X-12598447Y-7496247D01*
X-12575738Y-7497328D01*
X-12555479Y-7501711D01*
X-12546947Y-7505289D01*
X-12527717Y-7518943D01*
X-12510939Y-7537314D01*
X-12499689Y-7556627D01*
X-12495621Y-7572497D01*
X-12493995Y-7592489D01*
X-12494804Y-7613173D01*
X-12498038Y-7631121D01*
X-12499893Y-7636489D01*
X-12504805Y-7644005D01*
X-12515448Y-7656814D01*
X-12531730Y-7674815D01*
X-12553556Y-7697908D01*
X-12580835Y-7725992D01*
X-12613473Y-7758967D01*
X-12613864Y-7759359D01*
X-12721687Y-7867473D01*
X-12615858Y-7973774D01*
X-12584916Y-8005038D01*
X-12559409Y-8031231D01*
X-12538995Y-8052725D01*
X-12523333Y-8069893D01*
X-12512080Y-8083107D01*
X-12504896Y-8092739D01*
X-12501973Y-8097831D01*
X-12494904Y-8122144D01*
X-12493808Y-8148731D01*
X-12498620Y-8174713D01*
X-12504024Y-8188237D01*
X-12519679Y-8211452D01*
X-12540303Y-8228674D01*
X-12562926Y-8238733D01*
X-12580623Y-8243114D01*
X-12595638Y-8244148D01*
X-12611644Y-8241809D01*
X-12624985Y-8238271D01*
X-12630727Y-8236399D01*
X-12636361Y-8233923D01*
X-12642513Y-8230295D01*
X-12649807Y-8224964D01*
X-12658867Y-8217380D01*
X-12670317Y-8206995D01*
X-12684782Y-8193256D01*
X-12702886Y-8175616D01*
X-12725253Y-8153524D01*
X-12752507Y-8126430D01*
X-12756674Y-8122280D01*
X-12866807Y-8012589D01*
X-12976940Y-8122280D01*
X-13004916Y-8150105D01*
X-13027918Y-8172853D01*
X-13046571Y-8191073D01*
X-13061500Y-8205316D01*
X-13073328Y-8216130D01*
X-13082679Y-8224066D01*
X-13090179Y-8229675D01*
X-13096451Y-8233505D01*
X-13102120Y-8236106D01*
X-13107810Y-8238029D01*
X-13108629Y-8238271D01*
X-13127410Y-8242924D01*
X-13142701Y-8244183D01*
X-13158173Y-8242078D01*
X-13170688Y-8238733D01*
X-13195345Y-8227492D01*
X-13215225Y-8210402D01*
X-13229656Y-8188407D01*
X-13237966Y-8162452D01*
X-13239782Y-8141598D01*
X-13239548Y-8130444D01*
X-13238597Y-8120482D01*
X-13236433Y-8111030D01*
X-13232561Y-8101407D01*
X-13226487Y-8090932D01*
X-13217714Y-8078924D01*
X-13205748Y-8064703D01*
X-13190094Y-8047586D01*
X-13170256Y-8026895D01*
X-13145740Y-8001946D01*
X-13117756Y-7973774D01*
X-13011927Y-7867473D01*
X-13119589Y-7759359D01*
X-13151989Y-7726607D01*
X-13178747Y-7699078D01*
X-13200033Y-7676590D01*
X-13216016Y-7658958D01*
X-13226867Y-7646000D01*
X-13232753Y-7637530D01*
X-13233560Y-7635877D01*
X-13239427Y-7611956D01*
X-13239209Y-7585914D01*
X-13233352Y-7560140D01*
X-13222301Y-7537024D01*
X-13212846Y-7524873D01*
X-13192656Y-7509080D01*
X-13168362Y-7499030D01*
X-13141724Y-7495120D01*
X-13114506Y-7497744D01*
G36*
X-13114506Y-7497744D02*
G01*
X-13104489Y-7500501D01*
X-13098602Y-7502693D01*
X-13092612Y-7505668D01*
X-13085887Y-7509983D01*
X-13077796Y-7516197D01*
X-13067706Y-7524868D01*
X-13054986Y-7536554D01*
X-13039003Y-7551814D01*
X-13019125Y-7571204D01*
X-12994721Y-7595283D01*
X-12974957Y-7614880D01*
X-12866811Y-7722233D01*
X-12760645Y-7617032D01*
X-12732077Y-7588945D01*
X-12706322Y-7564069D01*
X-12683875Y-7542858D01*
X-12665228Y-7525771D01*
X-12650876Y-7513264D01*
X-12641313Y-7505793D01*
X-12638604Y-7504147D01*
X-12620453Y-7498507D01*
X-12598447Y-7496247D01*
X-12575738Y-7497328D01*
X-12555479Y-7501711D01*
X-12546947Y-7505289D01*
X-12527717Y-7518943D01*
X-12510939Y-7537314D01*
X-12499689Y-7556627D01*
X-12495621Y-7572497D01*
X-12493995Y-7592489D01*
X-12494804Y-7613173D01*
X-12498038Y-7631121D01*
X-12499893Y-7636489D01*
X-12504805Y-7644005D01*
X-12515448Y-7656814D01*
X-12531730Y-7674815D01*
X-12553556Y-7697908D01*
X-12580835Y-7725992D01*
X-12613473Y-7758967D01*
X-12613864Y-7759359D01*
X-12721687Y-7867473D01*
X-12615858Y-7973774D01*
X-12584916Y-8005038D01*
X-12559409Y-8031231D01*
X-12538995Y-8052725D01*
X-12523333Y-8069893D01*
X-12512080Y-8083107D01*
X-12504896Y-8092739D01*
X-12501973Y-8097831D01*
X-12494904Y-8122144D01*
X-12493808Y-8148731D01*
X-12498620Y-8174713D01*
X-12504024Y-8188237D01*
X-12519679Y-8211452D01*
X-12540303Y-8228674D01*
X-12562926Y-8238733D01*
X-12580623Y-8243114D01*
X-12595638Y-8244148D01*
X-12611644Y-8241809D01*
X-12624985Y-8238271D01*
X-12630727Y-8236399D01*
X-12636361Y-8233923D01*
X-12642513Y-8230295D01*
X-12649807Y-8224964D01*
X-12658867Y-8217380D01*
X-12670317Y-8206995D01*
X-12684782Y-8193256D01*
X-12702886Y-8175616D01*
X-12725253Y-8153524D01*
X-12752507Y-8126430D01*
X-12756674Y-8122280D01*
X-12866807Y-8012589D01*
X-12976940Y-8122280D01*
X-13004916Y-8150105D01*
X-13027918Y-8172853D01*
X-13046571Y-8191073D01*
X-13061500Y-8205316D01*
X-13073328Y-8216130D01*
X-13082679Y-8224066D01*
X-13090179Y-8229675D01*
X-13096451Y-8233505D01*
X-13102120Y-8236106D01*
X-13107810Y-8238029D01*
X-13108629Y-8238271D01*
X-13127410Y-8242924D01*
X-13142701Y-8244183D01*
X-13158173Y-8242078D01*
X-13170688Y-8238733D01*
X-13195345Y-8227492D01*
X-13215225Y-8210402D01*
X-13229656Y-8188407D01*
X-13237966Y-8162452D01*
X-13239782Y-8141598D01*
X-13239548Y-8130444D01*
X-13238597Y-8120482D01*
X-13236433Y-8111030D01*
X-13232561Y-8101407D01*
X-13226487Y-8090932D01*
X-13217714Y-8078924D01*
X-13205748Y-8064703D01*
X-13190094Y-8047586D01*
X-13170256Y-8026895D01*
X-13145740Y-8001946D01*
X-13117756Y-7973774D01*
X-13011927Y-7867473D01*
X-13119589Y-7759359D01*
X-13151989Y-7726607D01*
X-13178747Y-7699078D01*
X-13200033Y-7676590D01*
X-13216016Y-7658958D01*
X-13226867Y-7646000D01*
X-13232753Y-7637530D01*
X-13233560Y-7635877D01*
X-13239427Y-7611956D01*
X-13239209Y-7585914D01*
X-13233352Y-7560140D01*
X-13222301Y-7537024D01*
X-13212846Y-7524873D01*
X-13192656Y-7509080D01*
X-13168362Y-7499030D01*
X-13141724Y-7495120D01*
X-13114506Y-7497744D01*
G37*
%TO.C,MH4*%
X14512315Y-6537096D02*
X14545902Y-6540966D01*
X14609337Y-6555459D01*
X14669119Y-6576835D01*
X14724897Y-6604856D01*
X14776323Y-6639281D01*
X14823045Y-6679872D01*
X14864713Y-6726389D01*
X14900978Y-6778594D01*
X14905932Y-6786904D01*
X14932227Y-6839619D01*
X14951937Y-6895851D01*
X14964956Y-6954533D01*
X14971177Y-7014596D01*
X14970493Y-7074970D01*
X14962798Y-7134588D01*
X14947986Y-7192382D01*
X14946724Y-7196199D01*
X14923810Y-7252257D01*
X14894010Y-7305207D01*
X14857995Y-7354362D01*
X14816432Y-7399036D01*
X14769989Y-7438543D01*
X14719336Y-7472196D01*
X14665140Y-7499309D01*
X14643131Y-7507983D01*
X14628842Y-7512533D01*
X14608620Y-7518064D01*
X14584336Y-7524111D01*
X14557860Y-7530208D01*
X14531066Y-7535889D01*
X14530627Y-7535977D01*
X14430898Y-7557604D01*
X14337130Y-7581195D01*
X14247475Y-7607311D01*
X14160080Y-7636512D01*
X14073097Y-7669358D01*
X14025400Y-7688910D01*
X13990892Y-7702590D01*
X13962060Y-7711966D01*
X13937943Y-7717091D01*
X13917585Y-7718019D01*
X13900026Y-7714804D01*
X13884306Y-7707499D01*
X13871026Y-7697548D01*
X13861761Y-7688598D01*
X13854095Y-7678888D01*
X13847359Y-7667032D01*
X13840883Y-7651640D01*
X13833996Y-7631327D01*
X13826029Y-7604704D01*
X13825773Y-7603818D01*
X13808089Y-7547027D01*
X13789044Y-7495296D01*
X13767517Y-7445753D01*
X13751323Y-7412692D01*
X13708585Y-7337558D01*
X13659061Y-7265980D01*
X13603381Y-7198684D01*
X13542177Y-7136399D01*
X13476080Y-7079852D01*
X13438759Y-7052090D01*
X13409961Y-7030157D01*
X13388210Y-7009823D01*
X13372965Y-6990362D01*
X13363685Y-6971045D01*
X13359826Y-6951148D01*
X13359645Y-6945983D01*
X13361533Y-6927432D01*
X13367866Y-6910698D01*
X13379303Y-6895073D01*
X13396502Y-6879848D01*
X13420124Y-6864313D01*
X13450827Y-6847762D01*
X13451138Y-6847605D01*
X13572727Y-6790208D01*
X13700375Y-6736781D01*
X13833085Y-6687662D01*
X13969861Y-6643188D01*
X14109705Y-6603697D01*
X14251619Y-6569525D01*
X14310259Y-6557112D01*
X14369736Y-6546305D01*
X14422870Y-6539392D01*
X14470212Y-6536335D01*
X14512315Y-6537096D01*
G36*
X14512315Y-6537096D02*
G01*
X14545902Y-6540966D01*
X14609337Y-6555459D01*
X14669119Y-6576835D01*
X14724897Y-6604856D01*
X14776323Y-6639281D01*
X14823045Y-6679872D01*
X14864713Y-6726389D01*
X14900978Y-6778594D01*
X14905932Y-6786904D01*
X14932227Y-6839619D01*
X14951937Y-6895851D01*
X14964956Y-6954533D01*
X14971177Y-7014596D01*
X14970493Y-7074970D01*
X14962798Y-7134588D01*
X14947986Y-7192382D01*
X14946724Y-7196199D01*
X14923810Y-7252257D01*
X14894010Y-7305207D01*
X14857995Y-7354362D01*
X14816432Y-7399036D01*
X14769989Y-7438543D01*
X14719336Y-7472196D01*
X14665140Y-7499309D01*
X14643131Y-7507983D01*
X14628842Y-7512533D01*
X14608620Y-7518064D01*
X14584336Y-7524111D01*
X14557860Y-7530208D01*
X14531066Y-7535889D01*
X14530627Y-7535977D01*
X14430898Y-7557604D01*
X14337130Y-7581195D01*
X14247475Y-7607311D01*
X14160080Y-7636512D01*
X14073097Y-7669358D01*
X14025400Y-7688910D01*
X13990892Y-7702590D01*
X13962060Y-7711966D01*
X13937943Y-7717091D01*
X13917585Y-7718019D01*
X13900026Y-7714804D01*
X13884306Y-7707499D01*
X13871026Y-7697548D01*
X13861761Y-7688598D01*
X13854095Y-7678888D01*
X13847359Y-7667032D01*
X13840883Y-7651640D01*
X13833996Y-7631327D01*
X13826029Y-7604704D01*
X13825773Y-7603818D01*
X13808089Y-7547027D01*
X13789044Y-7495296D01*
X13767517Y-7445753D01*
X13751323Y-7412692D01*
X13708585Y-7337558D01*
X13659061Y-7265980D01*
X13603381Y-7198684D01*
X13542177Y-7136399D01*
X13476080Y-7079852D01*
X13438759Y-7052090D01*
X13409961Y-7030157D01*
X13388210Y-7009823D01*
X13372965Y-6990362D01*
X13363685Y-6971045D01*
X13359826Y-6951148D01*
X13359645Y-6945983D01*
X13361533Y-6927432D01*
X13367866Y-6910698D01*
X13379303Y-6895073D01*
X13396502Y-6879848D01*
X13420124Y-6864313D01*
X13450827Y-6847762D01*
X13451138Y-6847605D01*
X13572727Y-6790208D01*
X13700375Y-6736781D01*
X13833085Y-6687662D01*
X13969861Y-6643188D01*
X14109705Y-6603697D01*
X14251619Y-6569525D01*
X14310259Y-6557112D01*
X14369736Y-6546305D01*
X14422870Y-6539392D01*
X14470212Y-6536335D01*
X14512315Y-6537096D01*
G37*
X11953413Y-8350599D02*
X11967654Y-8354554D01*
X11987366Y-8365408D01*
X12007613Y-8383729D01*
X12027958Y-8409109D01*
X12031259Y-8413895D01*
X12085333Y-8487127D01*
X12144537Y-8554595D01*
X12208578Y-8616057D01*
X12277164Y-8671273D01*
X12350000Y-8719999D01*
X12426796Y-8761994D01*
X12483346Y-8787502D01*
X12514537Y-8799847D01*
X12545930Y-8811067D01*
X12579551Y-8821817D01*
X12617428Y-8832754D01*
X12650366Y-8841610D01*
X12668609Y-8846922D01*
X12681657Y-8852337D01*
X12692158Y-8859176D01*
X12700579Y-8866629D01*
X12714018Y-8882192D01*
X12722097Y-8898579D01*
X12724860Y-8916890D01*
X12722352Y-8938222D01*
X12714617Y-8963674D01*
X12705422Y-8986105D01*
X12655978Y-9106624D01*
X12612696Y-9230913D01*
X12575396Y-9359555D01*
X12543896Y-9493132D01*
X12537612Y-9523813D01*
X12530511Y-9558496D01*
X12524199Y-9586877D01*
X12518227Y-9610496D01*
X12512150Y-9630890D01*
X12505521Y-9649599D01*
X12497891Y-9668161D01*
X12491667Y-9681999D01*
X12462928Y-9734980D01*
X12427783Y-9784047D01*
X12386961Y-9828631D01*
X12341190Y-9868159D01*
X12291198Y-9902060D01*
X12237714Y-9929763D01*
X12181467Y-9950697D01*
X12134147Y-9962344D01*
X12071388Y-9970468D01*
X12009759Y-9971005D01*
X11949744Y-9964281D01*
X11891828Y-9950622D01*
X11836499Y-9930352D01*
X11784240Y-9903797D01*
X11735537Y-9871281D01*
X11690876Y-9833131D01*
X11650741Y-9789671D01*
X11615620Y-9741226D01*
X11585996Y-9688122D01*
X11562355Y-9630684D01*
X11545183Y-9569237D01*
X11544814Y-9567527D01*
X11541632Y-9549845D01*
X11539508Y-9530603D01*
X11538311Y-9507904D01*
X11537909Y-9479856D01*
X11537932Y-9468308D01*
X11538309Y-9446623D01*
X11539313Y-9425660D01*
X11541106Y-9404417D01*
X11543849Y-9381889D01*
X11547704Y-9357072D01*
X11552833Y-9328962D01*
X11559396Y-9296555D01*
X11567556Y-9258848D01*
X11577475Y-9214835D01*
X11581693Y-9196449D01*
X11610206Y-9083036D01*
X11644001Y-8966857D01*
X11682412Y-8849769D01*
X11724772Y-8733628D01*
X11770414Y-8620291D01*
X11818673Y-8511615D01*
X11853083Y-8440446D01*
X11867568Y-8412919D01*
X11880362Y-8391888D01*
X11892276Y-8376316D01*
X11904118Y-8365164D01*
X11916698Y-8357395D01*
X11918555Y-8356522D01*
X11936589Y-8350547D01*
X11953413Y-8350599D01*
G36*
X11953413Y-8350599D02*
G01*
X11967654Y-8354554D01*
X11987366Y-8365408D01*
X12007613Y-8383729D01*
X12027958Y-8409109D01*
X12031259Y-8413895D01*
X12085333Y-8487127D01*
X12144537Y-8554595D01*
X12208578Y-8616057D01*
X12277164Y-8671273D01*
X12350000Y-8719999D01*
X12426796Y-8761994D01*
X12483346Y-8787502D01*
X12514537Y-8799847D01*
X12545930Y-8811067D01*
X12579551Y-8821817D01*
X12617428Y-8832754D01*
X12650366Y-8841610D01*
X12668609Y-8846922D01*
X12681657Y-8852337D01*
X12692158Y-8859176D01*
X12700579Y-8866629D01*
X12714018Y-8882192D01*
X12722097Y-8898579D01*
X12724860Y-8916890D01*
X12722352Y-8938222D01*
X12714617Y-8963674D01*
X12705422Y-8986105D01*
X12655978Y-9106624D01*
X12612696Y-9230913D01*
X12575396Y-9359555D01*
X12543896Y-9493132D01*
X12537612Y-9523813D01*
X12530511Y-9558496D01*
X12524199Y-9586877D01*
X12518227Y-9610496D01*
X12512150Y-9630890D01*
X12505521Y-9649599D01*
X12497891Y-9668161D01*
X12491667Y-9681999D01*
X12462928Y-9734980D01*
X12427783Y-9784047D01*
X12386961Y-9828631D01*
X12341190Y-9868159D01*
X12291198Y-9902060D01*
X12237714Y-9929763D01*
X12181467Y-9950697D01*
X12134147Y-9962344D01*
X12071388Y-9970468D01*
X12009759Y-9971005D01*
X11949744Y-9964281D01*
X11891828Y-9950622D01*
X11836499Y-9930352D01*
X11784240Y-9903797D01*
X11735537Y-9871281D01*
X11690876Y-9833131D01*
X11650741Y-9789671D01*
X11615620Y-9741226D01*
X11585996Y-9688122D01*
X11562355Y-9630684D01*
X11545183Y-9569237D01*
X11544814Y-9567527D01*
X11541632Y-9549845D01*
X11539508Y-9530603D01*
X11538311Y-9507904D01*
X11537909Y-9479856D01*
X11537932Y-9468308D01*
X11538309Y-9446623D01*
X11539313Y-9425660D01*
X11541106Y-9404417D01*
X11543849Y-9381889D01*
X11547704Y-9357072D01*
X11552833Y-9328962D01*
X11559396Y-9296555D01*
X11567556Y-9258848D01*
X11577475Y-9214835D01*
X11581693Y-9196449D01*
X11610206Y-9083036D01*
X11644001Y-8966857D01*
X11682412Y-8849769D01*
X11724772Y-8733628D01*
X11770414Y-8620291D01*
X11818673Y-8511615D01*
X11853083Y-8440446D01*
X11867568Y-8412919D01*
X11880362Y-8391888D01*
X11892276Y-8376316D01*
X11904118Y-8365164D01*
X11916698Y-8357395D01*
X11918555Y-8356522D01*
X11936589Y-8350547D01*
X11953413Y-8350599D01*
G37*
X13162030Y-7467280D02*
X13171010Y-7469281D01*
X13201038Y-7481521D01*
X13226016Y-7499423D01*
X13245381Y-7522200D01*
X13258566Y-7549064D01*
X13265008Y-7579227D01*
X13265280Y-7600726D01*
X13264812Y-7608241D01*
X13264213Y-7615108D01*
X13263171Y-7621687D01*
X13261374Y-7628333D01*
X13258508Y-7635404D01*
X13254261Y-7643257D01*
X13248322Y-7652249D01*
X13240377Y-7662738D01*
X13230113Y-7675081D01*
X13217220Y-7689634D01*
X13201383Y-7706755D01*
X13182291Y-7726802D01*
X13159631Y-7750131D01*
X13133091Y-7777099D01*
X13102358Y-7808064D01*
X13067119Y-7843383D01*
X13027063Y-7883414D01*
X12981877Y-7928512D01*
X12955569Y-7954763D01*
X12909008Y-8001216D01*
X12867712Y-8042383D01*
X12831336Y-8078591D01*
X12799534Y-8110171D01*
X12771962Y-8137449D01*
X12748274Y-8160755D01*
X12728124Y-8180416D01*
X12711168Y-8196762D01*
X12697060Y-8210120D01*
X12685454Y-8220819D01*
X12676005Y-8229188D01*
X12668368Y-8235554D01*
X12662198Y-8240247D01*
X12657149Y-8243594D01*
X12652875Y-8245925D01*
X12649033Y-8247566D01*
X12646855Y-8248336D01*
X12615323Y-8255056D01*
X12584413Y-8254451D01*
X12555192Y-8246918D01*
X12528724Y-8232857D01*
X12506076Y-8212666D01*
X12489876Y-8189652D01*
X12484291Y-8178838D01*
X12480827Y-8169326D01*
X12478989Y-8158610D01*
X12478277Y-8144187D01*
X12478183Y-8130839D01*
X12478527Y-8111299D01*
X12479840Y-8097117D01*
X12482546Y-8085735D01*
X12487066Y-8074591D01*
X12487682Y-8073292D01*
X12490347Y-8068862D01*
X12495109Y-8062531D01*
X12502260Y-8053996D01*
X12512088Y-8042958D01*
X12524886Y-8029115D01*
X12540944Y-8012164D01*
X12560552Y-7991806D01*
X12584002Y-7967737D01*
X12611583Y-7939658D01*
X12643588Y-7907266D01*
X12680305Y-7870261D01*
X12722027Y-7828340D01*
X12769043Y-7781202D01*
X12779385Y-7770845D01*
X12826159Y-7724028D01*
X12867684Y-7682523D01*
X12904299Y-7646003D01*
X12936345Y-7614143D01*
X12964158Y-7586617D01*
X12988079Y-7563098D01*
X13008447Y-7543261D01*
X13025600Y-7526780D01*
X13039878Y-7513328D01*
X13051620Y-7502580D01*
X13061164Y-7494209D01*
X13068850Y-7487890D01*
X13075016Y-7483297D01*
X13080002Y-7480103D01*
X13083758Y-7478156D01*
X13109322Y-7469631D01*
X13136419Y-7465903D01*
X13162030Y-7467280D01*
G36*
X13162030Y-7467280D02*
G01*
X13171010Y-7469281D01*
X13201038Y-7481521D01*
X13226016Y-7499423D01*
X13245381Y-7522200D01*
X13258566Y-7549064D01*
X13265008Y-7579227D01*
X13265280Y-7600726D01*
X13264812Y-7608241D01*
X13264213Y-7615108D01*
X13263171Y-7621687D01*
X13261374Y-7628333D01*
X13258508Y-7635404D01*
X13254261Y-7643257D01*
X13248322Y-7652249D01*
X13240377Y-7662738D01*
X13230113Y-7675081D01*
X13217220Y-7689634D01*
X13201383Y-7706755D01*
X13182291Y-7726802D01*
X13159631Y-7750131D01*
X13133091Y-7777099D01*
X13102358Y-7808064D01*
X13067119Y-7843383D01*
X13027063Y-7883414D01*
X12981877Y-7928512D01*
X12955569Y-7954763D01*
X12909008Y-8001216D01*
X12867712Y-8042383D01*
X12831336Y-8078591D01*
X12799534Y-8110171D01*
X12771962Y-8137449D01*
X12748274Y-8160755D01*
X12728124Y-8180416D01*
X12711168Y-8196762D01*
X12697060Y-8210120D01*
X12685454Y-8220819D01*
X12676005Y-8229188D01*
X12668368Y-8235554D01*
X12662198Y-8240247D01*
X12657149Y-8243594D01*
X12652875Y-8245925D01*
X12649033Y-8247566D01*
X12646855Y-8248336D01*
X12615323Y-8255056D01*
X12584413Y-8254451D01*
X12555192Y-8246918D01*
X12528724Y-8232857D01*
X12506076Y-8212666D01*
X12489876Y-8189652D01*
X12484291Y-8178838D01*
X12480827Y-8169326D01*
X12478989Y-8158610D01*
X12478277Y-8144187D01*
X12478183Y-8130839D01*
X12478527Y-8111299D01*
X12479840Y-8097117D01*
X12482546Y-8085735D01*
X12487066Y-8074591D01*
X12487682Y-8073292D01*
X12490347Y-8068862D01*
X12495109Y-8062531D01*
X12502260Y-8053996D01*
X12512088Y-8042958D01*
X12524886Y-8029115D01*
X12540944Y-8012164D01*
X12560552Y-7991806D01*
X12584002Y-7967737D01*
X12611583Y-7939658D01*
X12643588Y-7907266D01*
X12680305Y-7870261D01*
X12722027Y-7828340D01*
X12769043Y-7781202D01*
X12779385Y-7770845D01*
X12826159Y-7724028D01*
X12867684Y-7682523D01*
X12904299Y-7646003D01*
X12936345Y-7614143D01*
X12964158Y-7586617D01*
X12988079Y-7563098D01*
X13008447Y-7543261D01*
X13025600Y-7526780D01*
X13039878Y-7513328D01*
X13051620Y-7502580D01*
X13061164Y-7494209D01*
X13068850Y-7487890D01*
X13075016Y-7483297D01*
X13080002Y-7480103D01*
X13083758Y-7478156D01*
X13109322Y-7469631D01*
X13136419Y-7465903D01*
X13162030Y-7467280D01*
G37*
%TO.C,MH2*%
X12075573Y9972893D02*
X12135191Y9965198D01*
X12192985Y9950386D01*
X12196802Y9949124D01*
X12252860Y9926210D01*
X12305810Y9896410D01*
X12354965Y9860395D01*
X12399639Y9818832D01*
X12439146Y9772389D01*
X12472799Y9721736D01*
X12499912Y9667540D01*
X12508586Y9645531D01*
X12513136Y9631242D01*
X12518667Y9611020D01*
X12524714Y9586736D01*
X12530811Y9560260D01*
X12536492Y9533466D01*
X12536580Y9533027D01*
X12558207Y9433298D01*
X12581798Y9339530D01*
X12607914Y9249875D01*
X12637115Y9162480D01*
X12669961Y9075497D01*
X12689513Y9027800D01*
X12703193Y8993292D01*
X12712569Y8964460D01*
X12717694Y8940343D01*
X12718622Y8919985D01*
X12715407Y8902426D01*
X12708102Y8886706D01*
X12698151Y8873426D01*
X12689201Y8864161D01*
X12679491Y8856495D01*
X12667635Y8849759D01*
X12652243Y8843283D01*
X12631930Y8836396D01*
X12605307Y8828429D01*
X12604421Y8828173D01*
X12547630Y8810489D01*
X12495899Y8791444D01*
X12446356Y8769917D01*
X12413295Y8753723D01*
X12338161Y8710985D01*
X12266583Y8661461D01*
X12199287Y8605781D01*
X12137002Y8544577D01*
X12080455Y8478480D01*
X12052693Y8441159D01*
X12030760Y8412361D01*
X12010426Y8390610D01*
X11990965Y8375365D01*
X11971648Y8366085D01*
X11951751Y8362226D01*
X11946586Y8362045D01*
X11928035Y8363933D01*
X11911301Y8370266D01*
X11895676Y8381703D01*
X11880451Y8398902D01*
X11864916Y8422524D01*
X11848365Y8453227D01*
X11848208Y8453538D01*
X11790811Y8575127D01*
X11737384Y8702775D01*
X11688265Y8835485D01*
X11643791Y8972261D01*
X11604300Y9112105D01*
X11570128Y9254019D01*
X11557715Y9312659D01*
X11546908Y9372136D01*
X11539995Y9425270D01*
X11536938Y9472612D01*
X11537699Y9514715D01*
X11541569Y9548302D01*
X11556062Y9611737D01*
X11577438Y9671519D01*
X11605459Y9727297D01*
X11639884Y9778723D01*
X11680475Y9825445D01*
X11726992Y9867113D01*
X11779197Y9903378D01*
X11787507Y9908332D01*
X11840222Y9934627D01*
X11896454Y9954337D01*
X11955136Y9967356D01*
X12015199Y9973577D01*
X12075573Y9972893D01*
G36*
X12075573Y9972893D02*
G01*
X12135191Y9965198D01*
X12192985Y9950386D01*
X12196802Y9949124D01*
X12252860Y9926210D01*
X12305810Y9896410D01*
X12354965Y9860395D01*
X12399639Y9818832D01*
X12439146Y9772389D01*
X12472799Y9721736D01*
X12499912Y9667540D01*
X12508586Y9645531D01*
X12513136Y9631242D01*
X12518667Y9611020D01*
X12524714Y9586736D01*
X12530811Y9560260D01*
X12536492Y9533466D01*
X12536580Y9533027D01*
X12558207Y9433298D01*
X12581798Y9339530D01*
X12607914Y9249875D01*
X12637115Y9162480D01*
X12669961Y9075497D01*
X12689513Y9027800D01*
X12703193Y8993292D01*
X12712569Y8964460D01*
X12717694Y8940343D01*
X12718622Y8919985D01*
X12715407Y8902426D01*
X12708102Y8886706D01*
X12698151Y8873426D01*
X12689201Y8864161D01*
X12679491Y8856495D01*
X12667635Y8849759D01*
X12652243Y8843283D01*
X12631930Y8836396D01*
X12605307Y8828429D01*
X12604421Y8828173D01*
X12547630Y8810489D01*
X12495899Y8791444D01*
X12446356Y8769917D01*
X12413295Y8753723D01*
X12338161Y8710985D01*
X12266583Y8661461D01*
X12199287Y8605781D01*
X12137002Y8544577D01*
X12080455Y8478480D01*
X12052693Y8441159D01*
X12030760Y8412361D01*
X12010426Y8390610D01*
X11990965Y8375365D01*
X11971648Y8366085D01*
X11951751Y8362226D01*
X11946586Y8362045D01*
X11928035Y8363933D01*
X11911301Y8370266D01*
X11895676Y8381703D01*
X11880451Y8398902D01*
X11864916Y8422524D01*
X11848365Y8453227D01*
X11848208Y8453538D01*
X11790811Y8575127D01*
X11737384Y8702775D01*
X11688265Y8835485D01*
X11643791Y8972261D01*
X11604300Y9112105D01*
X11570128Y9254019D01*
X11557715Y9312659D01*
X11546908Y9372136D01*
X11539995Y9425270D01*
X11536938Y9472612D01*
X11537699Y9514715D01*
X11541569Y9548302D01*
X11556062Y9611737D01*
X11577438Y9671519D01*
X11605459Y9727297D01*
X11639884Y9778723D01*
X11680475Y9825445D01*
X11726992Y9867113D01*
X11779197Y9903378D01*
X11787507Y9908332D01*
X11840222Y9934627D01*
X11896454Y9954337D01*
X11955136Y9967356D01*
X12015199Y9973577D01*
X12075573Y9972893D01*
G37*
X12608844Y8267212D02*
X12615711Y8266613D01*
X12622290Y8265571D01*
X12628936Y8263774D01*
X12636007Y8260908D01*
X12643860Y8256661D01*
X12652852Y8250722D01*
X12663341Y8242777D01*
X12675684Y8232513D01*
X12690237Y8219620D01*
X12707358Y8203783D01*
X12727405Y8184691D01*
X12750734Y8162031D01*
X12777702Y8135491D01*
X12808667Y8104758D01*
X12843986Y8069519D01*
X12884017Y8029463D01*
X12929115Y7984277D01*
X12955366Y7957969D01*
X13001819Y7911408D01*
X13042986Y7870112D01*
X13079194Y7833736D01*
X13110774Y7801934D01*
X13138052Y7774362D01*
X13161358Y7750674D01*
X13181019Y7730524D01*
X13197365Y7713568D01*
X13210723Y7699460D01*
X13221422Y7687854D01*
X13229791Y7678405D01*
X13236157Y7670768D01*
X13240850Y7664598D01*
X13244197Y7659549D01*
X13246528Y7655275D01*
X13248169Y7651433D01*
X13248939Y7649255D01*
X13255659Y7617723D01*
X13255054Y7586813D01*
X13247521Y7557592D01*
X13233460Y7531124D01*
X13213269Y7508476D01*
X13190255Y7492276D01*
X13179441Y7486691D01*
X13169929Y7483227D01*
X13159213Y7481389D01*
X13144790Y7480677D01*
X13131442Y7480583D01*
X13111902Y7480927D01*
X13097720Y7482240D01*
X13086338Y7484946D01*
X13075194Y7489466D01*
X13073895Y7490082D01*
X13069465Y7492747D01*
X13063134Y7497509D01*
X13054599Y7504660D01*
X13043561Y7514488D01*
X13029718Y7527286D01*
X13012767Y7543344D01*
X12992409Y7562952D01*
X12968340Y7586402D01*
X12940261Y7613983D01*
X12907869Y7645988D01*
X12870864Y7682705D01*
X12828943Y7724427D01*
X12781805Y7771443D01*
X12771448Y7781785D01*
X12724631Y7828559D01*
X12683126Y7870084D01*
X12646606Y7906699D01*
X12614746Y7938745D01*
X12587220Y7966558D01*
X12563701Y7990479D01*
X12543864Y8010847D01*
X12527383Y8028000D01*
X12513931Y8042278D01*
X12503183Y8054020D01*
X12494812Y8063564D01*
X12488493Y8071250D01*
X12483900Y8077416D01*
X12480706Y8082402D01*
X12478759Y8086158D01*
X12470234Y8111722D01*
X12466506Y8138819D01*
X12467883Y8164430D01*
X12469884Y8173410D01*
X12482124Y8203438D01*
X12500026Y8228416D01*
X12522803Y8247781D01*
X12549667Y8260966D01*
X12579830Y8267408D01*
X12601329Y8267680D01*
X12608844Y8267212D01*
G36*
X12608844Y8267212D02*
G01*
X12615711Y8266613D01*
X12622290Y8265571D01*
X12628936Y8263774D01*
X12636007Y8260908D01*
X12643860Y8256661D01*
X12652852Y8250722D01*
X12663341Y8242777D01*
X12675684Y8232513D01*
X12690237Y8219620D01*
X12707358Y8203783D01*
X12727405Y8184691D01*
X12750734Y8162031D01*
X12777702Y8135491D01*
X12808667Y8104758D01*
X12843986Y8069519D01*
X12884017Y8029463D01*
X12929115Y7984277D01*
X12955366Y7957969D01*
X13001819Y7911408D01*
X13042986Y7870112D01*
X13079194Y7833736D01*
X13110774Y7801934D01*
X13138052Y7774362D01*
X13161358Y7750674D01*
X13181019Y7730524D01*
X13197365Y7713568D01*
X13210723Y7699460D01*
X13221422Y7687854D01*
X13229791Y7678405D01*
X13236157Y7670768D01*
X13240850Y7664598D01*
X13244197Y7659549D01*
X13246528Y7655275D01*
X13248169Y7651433D01*
X13248939Y7649255D01*
X13255659Y7617723D01*
X13255054Y7586813D01*
X13247521Y7557592D01*
X13233460Y7531124D01*
X13213269Y7508476D01*
X13190255Y7492276D01*
X13179441Y7486691D01*
X13169929Y7483227D01*
X13159213Y7481389D01*
X13144790Y7480677D01*
X13131442Y7480583D01*
X13111902Y7480927D01*
X13097720Y7482240D01*
X13086338Y7484946D01*
X13075194Y7489466D01*
X13073895Y7490082D01*
X13069465Y7492747D01*
X13063134Y7497509D01*
X13054599Y7504660D01*
X13043561Y7514488D01*
X13029718Y7527286D01*
X13012767Y7543344D01*
X12992409Y7562952D01*
X12968340Y7586402D01*
X12940261Y7613983D01*
X12907869Y7645988D01*
X12870864Y7682705D01*
X12828943Y7724427D01*
X12781805Y7771443D01*
X12771448Y7781785D01*
X12724631Y7828559D01*
X12683126Y7870084D01*
X12646606Y7906699D01*
X12614746Y7938745D01*
X12587220Y7966558D01*
X12563701Y7990479D01*
X12543864Y8010847D01*
X12527383Y8028000D01*
X12513931Y8042278D01*
X12503183Y8054020D01*
X12494812Y8063564D01*
X12488493Y8071250D01*
X12483900Y8077416D01*
X12480706Y8082402D01*
X12478759Y8086158D01*
X12470234Y8111722D01*
X12466506Y8138819D01*
X12467883Y8164430D01*
X12469884Y8173410D01*
X12482124Y8203438D01*
X12500026Y8228416D01*
X12522803Y8247781D01*
X12549667Y8260966D01*
X12579830Y8267408D01*
X12601329Y8267680D01*
X12608844Y8267212D01*
G37*
X13938825Y7724752D02*
X13964277Y7717017D01*
X13986708Y7707822D01*
X14107227Y7658378D01*
X14231516Y7615096D01*
X14360158Y7577796D01*
X14493735Y7546296D01*
X14524416Y7540012D01*
X14559099Y7532911D01*
X14587480Y7526599D01*
X14611099Y7520627D01*
X14631493Y7514550D01*
X14650202Y7507921D01*
X14668764Y7500291D01*
X14682602Y7494067D01*
X14735583Y7465328D01*
X14784650Y7430183D01*
X14829234Y7389361D01*
X14868762Y7343590D01*
X14902663Y7293598D01*
X14930366Y7240114D01*
X14951300Y7183867D01*
X14962947Y7136547D01*
X14971071Y7073788D01*
X14971608Y7012159D01*
X14964884Y6952144D01*
X14951225Y6894228D01*
X14930955Y6838899D01*
X14904400Y6786640D01*
X14871884Y6737937D01*
X14833734Y6693276D01*
X14790274Y6653141D01*
X14741829Y6618020D01*
X14688725Y6588396D01*
X14631287Y6564755D01*
X14569840Y6547583D01*
X14568130Y6547214D01*
X14550448Y6544032D01*
X14531206Y6541908D01*
X14508507Y6540711D01*
X14480459Y6540309D01*
X14468911Y6540332D01*
X14447226Y6540709D01*
X14426263Y6541713D01*
X14405020Y6543506D01*
X14382492Y6546249D01*
X14357675Y6550104D01*
X14329565Y6555233D01*
X14297158Y6561796D01*
X14259451Y6569956D01*
X14215438Y6579875D01*
X14197052Y6584093D01*
X14083639Y6612606D01*
X13967460Y6646401D01*
X13850372Y6684812D01*
X13734231Y6727172D01*
X13620894Y6772814D01*
X13512218Y6821073D01*
X13441049Y6855483D01*
X13413522Y6869968D01*
X13392491Y6882762D01*
X13376919Y6894676D01*
X13365767Y6906518D01*
X13357998Y6919098D01*
X13357125Y6920955D01*
X13351150Y6938989D01*
X13351202Y6955813D01*
X13355157Y6970054D01*
X13366011Y6989766D01*
X13384332Y7010013D01*
X13409712Y7030358D01*
X13414498Y7033659D01*
X13487730Y7087733D01*
X13555198Y7146937D01*
X13616660Y7210978D01*
X13671876Y7279564D01*
X13720602Y7352400D01*
X13762597Y7429196D01*
X13788105Y7485746D01*
X13800450Y7516937D01*
X13811670Y7548330D01*
X13822420Y7581951D01*
X13833357Y7619828D01*
X13842213Y7652766D01*
X13847525Y7671009D01*
X13852940Y7684057D01*
X13859779Y7694558D01*
X13867232Y7702979D01*
X13882795Y7716418D01*
X13899182Y7724497D01*
X13917493Y7727260D01*
X13938825Y7724752D01*
G36*
X13938825Y7724752D02*
G01*
X13964277Y7717017D01*
X13986708Y7707822D01*
X14107227Y7658378D01*
X14231516Y7615096D01*
X14360158Y7577796D01*
X14493735Y7546296D01*
X14524416Y7540012D01*
X14559099Y7532911D01*
X14587480Y7526599D01*
X14611099Y7520627D01*
X14631493Y7514550D01*
X14650202Y7507921D01*
X14668764Y7500291D01*
X14682602Y7494067D01*
X14735583Y7465328D01*
X14784650Y7430183D01*
X14829234Y7389361D01*
X14868762Y7343590D01*
X14902663Y7293598D01*
X14930366Y7240114D01*
X14951300Y7183867D01*
X14962947Y7136547D01*
X14971071Y7073788D01*
X14971608Y7012159D01*
X14964884Y6952144D01*
X14951225Y6894228D01*
X14930955Y6838899D01*
X14904400Y6786640D01*
X14871884Y6737937D01*
X14833734Y6693276D01*
X14790274Y6653141D01*
X14741829Y6618020D01*
X14688725Y6588396D01*
X14631287Y6564755D01*
X14569840Y6547583D01*
X14568130Y6547214D01*
X14550448Y6544032D01*
X14531206Y6541908D01*
X14508507Y6540711D01*
X14480459Y6540309D01*
X14468911Y6540332D01*
X14447226Y6540709D01*
X14426263Y6541713D01*
X14405020Y6543506D01*
X14382492Y6546249D01*
X14357675Y6550104D01*
X14329565Y6555233D01*
X14297158Y6561796D01*
X14259451Y6569956D01*
X14215438Y6579875D01*
X14197052Y6584093D01*
X14083639Y6612606D01*
X13967460Y6646401D01*
X13850372Y6684812D01*
X13734231Y6727172D01*
X13620894Y6772814D01*
X13512218Y6821073D01*
X13441049Y6855483D01*
X13413522Y6869968D01*
X13392491Y6882762D01*
X13376919Y6894676D01*
X13365767Y6906518D01*
X13357998Y6919098D01*
X13357125Y6920955D01*
X13351150Y6938989D01*
X13351202Y6955813D01*
X13355157Y6970054D01*
X13366011Y6989766D01*
X13384332Y7010013D01*
X13409712Y7030358D01*
X13414498Y7033659D01*
X13487730Y7087733D01*
X13555198Y7146937D01*
X13616660Y7210978D01*
X13671876Y7279564D01*
X13720602Y7352400D01*
X13762597Y7429196D01*
X13788105Y7485746D01*
X13800450Y7516937D01*
X13811670Y7548330D01*
X13822420Y7581951D01*
X13833357Y7619828D01*
X13842213Y7652766D01*
X13847525Y7671009D01*
X13852940Y7684057D01*
X13859779Y7694558D01*
X13867232Y7702979D01*
X13882795Y7716418D01*
X13899182Y7724497D01*
X13917493Y7727260D01*
X13938825Y7724752D01*
G37*
%TO.C,MH1*%
X-13899840Y7710688D02*
X-13884120Y7703383D01*
X-13870840Y7693432D01*
X-13861575Y7684482D01*
X-13853909Y7674772D01*
X-13847173Y7662916D01*
X-13840697Y7647524D01*
X-13833810Y7627211D01*
X-13825843Y7600588D01*
X-13825587Y7599702D01*
X-13807903Y7542911D01*
X-13788858Y7491180D01*
X-13767331Y7441637D01*
X-13751137Y7408576D01*
X-13708399Y7333442D01*
X-13658875Y7261864D01*
X-13603195Y7194568D01*
X-13541991Y7132283D01*
X-13475894Y7075736D01*
X-13438573Y7047974D01*
X-13409775Y7026041D01*
X-13388024Y7005707D01*
X-13372779Y6986246D01*
X-13363499Y6966929D01*
X-13359640Y6947032D01*
X-13359459Y6941867D01*
X-13361347Y6923316D01*
X-13367680Y6906582D01*
X-13379117Y6890957D01*
X-13396316Y6875732D01*
X-13419938Y6860197D01*
X-13450641Y6843646D01*
X-13450952Y6843489D01*
X-13572541Y6786092D01*
X-13700189Y6732665D01*
X-13832899Y6683546D01*
X-13969675Y6639072D01*
X-14109519Y6599581D01*
X-14251433Y6565409D01*
X-14310073Y6552996D01*
X-14369550Y6542189D01*
X-14422684Y6535276D01*
X-14470026Y6532219D01*
X-14512129Y6532980D01*
X-14545716Y6536850D01*
X-14609151Y6551343D01*
X-14668933Y6572719D01*
X-14724711Y6600740D01*
X-14776137Y6635165D01*
X-14822859Y6675756D01*
X-14864527Y6722273D01*
X-14900792Y6774478D01*
X-14905746Y6782788D01*
X-14932041Y6835503D01*
X-14951751Y6891735D01*
X-14964770Y6950417D01*
X-14970991Y7010480D01*
X-14970307Y7070854D01*
X-14962612Y7130472D01*
X-14947800Y7188266D01*
X-14946538Y7192083D01*
X-14923624Y7248141D01*
X-14893824Y7301091D01*
X-14857809Y7350246D01*
X-14816246Y7394920D01*
X-14769803Y7434427D01*
X-14719150Y7468080D01*
X-14664954Y7495193D01*
X-14642945Y7503867D01*
X-14628656Y7508417D01*
X-14608434Y7513948D01*
X-14584150Y7519995D01*
X-14557674Y7526092D01*
X-14530880Y7531773D01*
X-14530441Y7531861D01*
X-14430712Y7553488D01*
X-14336944Y7577079D01*
X-14247289Y7603195D01*
X-14159894Y7632396D01*
X-14072911Y7665242D01*
X-14025214Y7684794D01*
X-13990706Y7698474D01*
X-13961874Y7707850D01*
X-13937757Y7712975D01*
X-13917399Y7713903D01*
X-13899840Y7710688D01*
G36*
X-13899840Y7710688D02*
G01*
X-13884120Y7703383D01*
X-13870840Y7693432D01*
X-13861575Y7684482D01*
X-13853909Y7674772D01*
X-13847173Y7662916D01*
X-13840697Y7647524D01*
X-13833810Y7627211D01*
X-13825843Y7600588D01*
X-13825587Y7599702D01*
X-13807903Y7542911D01*
X-13788858Y7491180D01*
X-13767331Y7441637D01*
X-13751137Y7408576D01*
X-13708399Y7333442D01*
X-13658875Y7261864D01*
X-13603195Y7194568D01*
X-13541991Y7132283D01*
X-13475894Y7075736D01*
X-13438573Y7047974D01*
X-13409775Y7026041D01*
X-13388024Y7005707D01*
X-13372779Y6986246D01*
X-13363499Y6966929D01*
X-13359640Y6947032D01*
X-13359459Y6941867D01*
X-13361347Y6923316D01*
X-13367680Y6906582D01*
X-13379117Y6890957D01*
X-13396316Y6875732D01*
X-13419938Y6860197D01*
X-13450641Y6843646D01*
X-13450952Y6843489D01*
X-13572541Y6786092D01*
X-13700189Y6732665D01*
X-13832899Y6683546D01*
X-13969675Y6639072D01*
X-14109519Y6599581D01*
X-14251433Y6565409D01*
X-14310073Y6552996D01*
X-14369550Y6542189D01*
X-14422684Y6535276D01*
X-14470026Y6532219D01*
X-14512129Y6532980D01*
X-14545716Y6536850D01*
X-14609151Y6551343D01*
X-14668933Y6572719D01*
X-14724711Y6600740D01*
X-14776137Y6635165D01*
X-14822859Y6675756D01*
X-14864527Y6722273D01*
X-14900792Y6774478D01*
X-14905746Y6782788D01*
X-14932041Y6835503D01*
X-14951751Y6891735D01*
X-14964770Y6950417D01*
X-14970991Y7010480D01*
X-14970307Y7070854D01*
X-14962612Y7130472D01*
X-14947800Y7188266D01*
X-14946538Y7192083D01*
X-14923624Y7248141D01*
X-14893824Y7301091D01*
X-14857809Y7350246D01*
X-14816246Y7394920D01*
X-14769803Y7434427D01*
X-14719150Y7468080D01*
X-14664954Y7495193D01*
X-14642945Y7503867D01*
X-14628656Y7508417D01*
X-14608434Y7513948D01*
X-14584150Y7519995D01*
X-14557674Y7526092D01*
X-14530880Y7531773D01*
X-14530441Y7531861D01*
X-14430712Y7553488D01*
X-14336944Y7577079D01*
X-14247289Y7603195D01*
X-14159894Y7632396D01*
X-14072911Y7665242D01*
X-14025214Y7684794D01*
X-13990706Y7698474D01*
X-13961874Y7707850D01*
X-13937757Y7712975D01*
X-13917399Y7713903D01*
X-13899840Y7710688D01*
G37*
X-11949558Y9960165D02*
X-11891642Y9946506D01*
X-11836313Y9926236D01*
X-11784054Y9899681D01*
X-11735351Y9867165D01*
X-11690690Y9829015D01*
X-11650555Y9785555D01*
X-11615434Y9737110D01*
X-11585810Y9684006D01*
X-11562169Y9626568D01*
X-11544997Y9565121D01*
X-11544628Y9563411D01*
X-11541446Y9545729D01*
X-11539322Y9526487D01*
X-11538125Y9503788D01*
X-11537723Y9475740D01*
X-11537746Y9464192D01*
X-11538123Y9442507D01*
X-11539127Y9421544D01*
X-11540920Y9400301D01*
X-11543663Y9377773D01*
X-11547518Y9352956D01*
X-11552647Y9324846D01*
X-11559210Y9292439D01*
X-11567370Y9254732D01*
X-11577289Y9210719D01*
X-11581507Y9192333D01*
X-11610020Y9078920D01*
X-11643815Y8962741D01*
X-11682226Y8845653D01*
X-11724586Y8729512D01*
X-11770228Y8616175D01*
X-11818487Y8507499D01*
X-11852897Y8436330D01*
X-11867382Y8408803D01*
X-11880176Y8387772D01*
X-11892090Y8372200D01*
X-11903932Y8361048D01*
X-11916512Y8353279D01*
X-11918369Y8352406D01*
X-11936403Y8346431D01*
X-11953227Y8346483D01*
X-11967468Y8350438D01*
X-11987180Y8361292D01*
X-12007427Y8379613D01*
X-12027772Y8404993D01*
X-12031073Y8409779D01*
X-12085147Y8483011D01*
X-12144351Y8550479D01*
X-12208392Y8611941D01*
X-12276978Y8667157D01*
X-12349814Y8715883D01*
X-12426610Y8757878D01*
X-12483160Y8783386D01*
X-12514351Y8795731D01*
X-12545744Y8806951D01*
X-12579365Y8817701D01*
X-12617242Y8828638D01*
X-12650180Y8837494D01*
X-12668423Y8842806D01*
X-12681471Y8848221D01*
X-12691972Y8855060D01*
X-12700393Y8862513D01*
X-12713832Y8878076D01*
X-12721911Y8894463D01*
X-12724674Y8912774D01*
X-12722166Y8934106D01*
X-12714431Y8959558D01*
X-12705236Y8981989D01*
X-12655792Y9102508D01*
X-12612510Y9226797D01*
X-12575210Y9355439D01*
X-12543710Y9489016D01*
X-12537426Y9519697D01*
X-12530325Y9554380D01*
X-12524013Y9582761D01*
X-12518041Y9606380D01*
X-12511964Y9626774D01*
X-12505335Y9645483D01*
X-12497705Y9664045D01*
X-12491481Y9677883D01*
X-12462742Y9730864D01*
X-12427597Y9779931D01*
X-12386775Y9824515D01*
X-12341004Y9864043D01*
X-12291012Y9897944D01*
X-12237528Y9925647D01*
X-12181281Y9946581D01*
X-12133961Y9958228D01*
X-12071202Y9966352D01*
X-12009573Y9966889D01*
X-11949558Y9960165D01*
G36*
X-11949558Y9960165D02*
G01*
X-11891642Y9946506D01*
X-11836313Y9926236D01*
X-11784054Y9899681D01*
X-11735351Y9867165D01*
X-11690690Y9829015D01*
X-11650555Y9785555D01*
X-11615434Y9737110D01*
X-11585810Y9684006D01*
X-11562169Y9626568D01*
X-11544997Y9565121D01*
X-11544628Y9563411D01*
X-11541446Y9545729D01*
X-11539322Y9526487D01*
X-11538125Y9503788D01*
X-11537723Y9475740D01*
X-11537746Y9464192D01*
X-11538123Y9442507D01*
X-11539127Y9421544D01*
X-11540920Y9400301D01*
X-11543663Y9377773D01*
X-11547518Y9352956D01*
X-11552647Y9324846D01*
X-11559210Y9292439D01*
X-11567370Y9254732D01*
X-11577289Y9210719D01*
X-11581507Y9192333D01*
X-11610020Y9078920D01*
X-11643815Y8962741D01*
X-11682226Y8845653D01*
X-11724586Y8729512D01*
X-11770228Y8616175D01*
X-11818487Y8507499D01*
X-11852897Y8436330D01*
X-11867382Y8408803D01*
X-11880176Y8387772D01*
X-11892090Y8372200D01*
X-11903932Y8361048D01*
X-11916512Y8353279D01*
X-11918369Y8352406D01*
X-11936403Y8346431D01*
X-11953227Y8346483D01*
X-11967468Y8350438D01*
X-11987180Y8361292D01*
X-12007427Y8379613D01*
X-12027772Y8404993D01*
X-12031073Y8409779D01*
X-12085147Y8483011D01*
X-12144351Y8550479D01*
X-12208392Y8611941D01*
X-12276978Y8667157D01*
X-12349814Y8715883D01*
X-12426610Y8757878D01*
X-12483160Y8783386D01*
X-12514351Y8795731D01*
X-12545744Y8806951D01*
X-12579365Y8817701D01*
X-12617242Y8828638D01*
X-12650180Y8837494D01*
X-12668423Y8842806D01*
X-12681471Y8848221D01*
X-12691972Y8855060D01*
X-12700393Y8862513D01*
X-12713832Y8878076D01*
X-12721911Y8894463D01*
X-12724674Y8912774D01*
X-12722166Y8934106D01*
X-12714431Y8959558D01*
X-12705236Y8981989D01*
X-12655792Y9102508D01*
X-12612510Y9226797D01*
X-12575210Y9355439D01*
X-12543710Y9489016D01*
X-12537426Y9519697D01*
X-12530325Y9554380D01*
X-12524013Y9582761D01*
X-12518041Y9606380D01*
X-12511964Y9626774D01*
X-12505335Y9645483D01*
X-12497705Y9664045D01*
X-12491481Y9677883D01*
X-12462742Y9730864D01*
X-12427597Y9779931D01*
X-12386775Y9824515D01*
X-12341004Y9864043D01*
X-12291012Y9897944D01*
X-12237528Y9925647D01*
X-12181281Y9946581D01*
X-12133961Y9958228D01*
X-12071202Y9966352D01*
X-12009573Y9966889D01*
X-11949558Y9960165D01*
G37*
X-12493080Y8462212D02*
X-12475996Y8461545D01*
X-12462479Y8460274D01*
X-12451804Y8458344D01*
X-12443241Y8455699D01*
X-12436066Y8452282D01*
X-12429548Y8448040D01*
X-12422962Y8442914D01*
X-12419690Y8440230D01*
X-12408818Y8428720D01*
X-12398500Y8413530D01*
X-12390198Y8397311D01*
X-12385378Y8382711D01*
X-12384731Y8376967D01*
X-12383862Y8371125D01*
X-12381375Y8358362D01*
X-12377445Y8339492D01*
X-12372249Y8315326D01*
X-12365964Y8286676D01*
X-12358765Y8254355D01*
X-12350829Y8219174D01*
X-12343059Y8185111D01*
X-12332429Y8138496D01*
X-12323568Y8098904D01*
X-12316374Y8065644D01*
X-12310745Y8038025D01*
X-12306578Y8015357D01*
X-12303773Y7996949D01*
X-12302227Y7982110D01*
X-12301838Y7970148D01*
X-12302505Y7960374D01*
X-12304125Y7952096D01*
X-12306597Y7944623D01*
X-12307332Y7942809D01*
X-12319147Y7922743D01*
X-12336065Y7904491D01*
X-12354590Y7891433D01*
X-12372955Y7885113D01*
X-12395198Y7882434D01*
X-12418164Y7883397D01*
X-12438699Y7888005D01*
X-12446518Y7891379D01*
X-12462601Y7902393D01*
X-12477976Y7917153D01*
X-12490130Y7933021D01*
X-12494924Y7942205D01*
X-12497256Y7949647D01*
X-12500953Y7963448D01*
X-12505667Y7982221D01*
X-12511051Y8004574D01*
X-12516756Y8029118D01*
X-12517679Y8033174D01*
X-12523140Y8057057D01*
X-12528037Y8078151D01*
X-12532091Y8095288D01*
X-12535027Y8107299D01*
X-12536567Y8113019D01*
X-12536699Y8113326D01*
X-12539388Y8110758D01*
X-12546119Y8102977D01*
X-12556031Y8091013D01*
X-12568266Y8075897D01*
X-12576173Y8065985D01*
X-12675778Y7946850D01*
X-12781374Y7832921D01*
X-12892952Y7724207D01*
X-13010506Y7620714D01*
X-13070383Y7571835D01*
X-13087489Y7557937D01*
X-13101915Y7545681D01*
X-13112713Y7535919D01*
X-13118935Y7529499D01*
X-13119992Y7527349D01*
X-13115406Y7525660D01*
X-13104277Y7522381D01*
X-13087771Y7517831D01*
X-13067049Y7512328D01*
X-13043275Y7506190D01*
X-13033622Y7503742D01*
X-13002672Y7495885D01*
X-12978372Y7489537D01*
X-12959665Y7484311D01*
X-12945494Y7479819D01*
X-12934802Y7475675D01*
X-12926530Y7471492D01*
X-12919621Y7466883D01*
X-12913018Y7461461D01*
X-12909519Y7458341D01*
X-12892287Y7437880D01*
X-12881611Y7414547D01*
X-12877307Y7389655D01*
X-12879187Y7364520D01*
X-12887067Y7340457D01*
X-12900759Y7318780D01*
X-12920078Y7300804D01*
X-12932907Y7293037D01*
X-12944041Y7288006D01*
X-12955193Y7284698D01*
X-12967466Y7283199D01*
X-12981962Y7283598D01*
X-12999784Y7285980D01*
X-13022034Y7290434D01*
X-13049815Y7297046D01*
X-13079262Y7304601D01*
X-13107506Y7311970D01*
X-13141348Y7320770D01*
X-13178698Y7330458D01*
X-13217465Y7340493D01*
X-13255558Y7350332D01*
X-13289340Y7359037D01*
X-13326219Y7368613D01*
X-13356249Y7376697D01*
X-13380296Y7383659D01*
X-13399227Y7389867D01*
X-13413910Y7395692D01*
X-13425212Y7401501D01*
X-13433998Y7407665D01*
X-13441137Y7414552D01*
X-13447495Y7422532D01*
X-13451296Y7427998D01*
X-13455259Y7434076D01*
X-13458568Y7440017D01*
X-13461243Y7446515D01*
X-13463304Y7454260D01*
X-13464770Y7463945D01*
X-13465662Y7476262D01*
X-13465999Y7491902D01*
X-13465802Y7511558D01*
X-13465090Y7535922D01*
X-13463883Y7565685D01*
X-13462202Y7601540D01*
X-13460066Y7644179D01*
X-13458438Y7675937D01*
X-13456329Y7715786D01*
X-13454210Y7753614D01*
X-13452136Y7788604D01*
X-13450160Y7819941D01*
X-13448335Y7846810D01*
X-13446716Y7868395D01*
X-13445356Y7883880D01*
X-13444309Y7892450D01*
X-13444109Y7893392D01*
X-13434152Y7916680D01*
X-13418578Y7935719D01*
X-13398698Y7950142D01*
X-13375820Y7959578D01*
X-13351253Y7963660D01*
X-13326306Y7962018D01*
X-13302289Y7954283D01*
X-13280510Y7940086D01*
X-13280003Y7939643D01*
X-13265619Y7923599D01*
X-13254457Y7904889D01*
X-13253901Y7903631D01*
X-13250688Y7895777D01*
X-13248404Y7888519D01*
X-13246954Y7880439D01*
X-13246238Y7870119D01*
X-13246160Y7856140D01*
X-13246622Y7837083D01*
X-13247526Y7811530D01*
X-13247538Y7811208D01*
X-13248562Y7786057D01*
X-13249707Y7761691D01*
X-13250872Y7740023D01*
X-13251957Y7722969D01*
X-13252641Y7714507D01*
X-13253610Y7704569D01*
X-13253823Y7697578D01*
X-13252510Y7693806D01*
X-13248906Y7693523D01*
X-13242243Y7697002D01*
X-13231754Y7704514D01*
X-13216671Y7716329D01*
X-13196226Y7732719D01*
X-13192372Y7735812D01*
X-13109296Y7805234D01*
X-13027210Y7879265D01*
X-12947314Y7956678D01*
X-12870808Y8036246D01*
X-12798892Y8116742D01*
X-12732764Y8196938D01*
X-12700154Y8239329D01*
X-12688638Y8254699D01*
X-12724208Y8252165D01*
X-12741251Y8251202D01*
X-12763702Y8250293D01*
X-12789031Y8249523D01*
X-12814708Y8248976D01*
X-12823278Y8248853D01*
X-12848460Y8248682D01*
X-12867162Y8248952D01*
X-12880834Y8249778D01*
X-12890926Y8251272D01*
X-12898890Y8253547D01*
X-12902653Y8255069D01*
X-12925453Y8269239D01*
X-12943902Y8288974D01*
X-12956941Y8312656D01*
X-12963511Y8338665D01*
X-12964091Y8348973D01*
X-12960457Y8374696D01*
X-12950304Y8398980D01*
X-12934755Y8420094D01*
X-12914934Y8436309D01*
X-12903621Y8442101D01*
X-12898783Y8443996D01*
X-12893587Y8445637D01*
X-12887365Y8447068D01*
X-12879449Y8448335D01*
X-12869173Y8449481D01*
X-12855868Y8450551D01*
X-12838867Y8451589D01*
X-12817501Y8452640D01*
X-12791105Y8453747D01*
X-12759009Y8454955D01*
X-12720547Y8456308D01*
X-12675051Y8457851D01*
X-12657490Y8458439D01*
X-12611652Y8459955D01*
X-12573019Y8461147D01*
X-12540865Y8461957D01*
X-12514461Y8462331D01*
X-12493080Y8462212D01*
G36*
X-12493080Y8462212D02*
G01*
X-12475996Y8461545D01*
X-12462479Y8460274D01*
X-12451804Y8458344D01*
X-12443241Y8455699D01*
X-12436066Y8452282D01*
X-12429548Y8448040D01*
X-12422962Y8442914D01*
X-12419690Y8440230D01*
X-12408818Y8428720D01*
X-12398500Y8413530D01*
X-12390198Y8397311D01*
X-12385378Y8382711D01*
X-12384731Y8376967D01*
X-12383862Y8371125D01*
X-12381375Y8358362D01*
X-12377445Y8339492D01*
X-12372249Y8315326D01*
X-12365964Y8286676D01*
X-12358765Y8254355D01*
X-12350829Y8219174D01*
X-12343059Y8185111D01*
X-12332429Y8138496D01*
X-12323568Y8098904D01*
X-12316374Y8065644D01*
X-12310745Y8038025D01*
X-12306578Y8015357D01*
X-12303773Y7996949D01*
X-12302227Y7982110D01*
X-12301838Y7970148D01*
X-12302505Y7960374D01*
X-12304125Y7952096D01*
X-12306597Y7944623D01*
X-12307332Y7942809D01*
X-12319147Y7922743D01*
X-12336065Y7904491D01*
X-12354590Y7891433D01*
X-12372955Y7885113D01*
X-12395198Y7882434D01*
X-12418164Y7883397D01*
X-12438699Y7888005D01*
X-12446518Y7891379D01*
X-12462601Y7902393D01*
X-12477976Y7917153D01*
X-12490130Y7933021D01*
X-12494924Y7942205D01*
X-12497256Y7949647D01*
X-12500953Y7963448D01*
X-12505667Y7982221D01*
X-12511051Y8004574D01*
X-12516756Y8029118D01*
X-12517679Y8033174D01*
X-12523140Y8057057D01*
X-12528037Y8078151D01*
X-12532091Y8095288D01*
X-12535027Y8107299D01*
X-12536567Y8113019D01*
X-12536699Y8113326D01*
X-12539388Y8110758D01*
X-12546119Y8102977D01*
X-12556031Y8091013D01*
X-12568266Y8075897D01*
X-12576173Y8065985D01*
X-12675778Y7946850D01*
X-12781374Y7832921D01*
X-12892952Y7724207D01*
X-13010506Y7620714D01*
X-13070383Y7571835D01*
X-13087489Y7557937D01*
X-13101915Y7545681D01*
X-13112713Y7535919D01*
X-13118935Y7529499D01*
X-13119992Y7527349D01*
X-13115406Y7525660D01*
X-13104277Y7522381D01*
X-13087771Y7517831D01*
X-13067049Y7512328D01*
X-13043275Y7506190D01*
X-13033622Y7503742D01*
X-13002672Y7495885D01*
X-12978372Y7489537D01*
X-12959665Y7484311D01*
X-12945494Y7479819D01*
X-12934802Y7475675D01*
X-12926530Y7471492D01*
X-12919621Y7466883D01*
X-12913018Y7461461D01*
X-12909519Y7458341D01*
X-12892287Y7437880D01*
X-12881611Y7414547D01*
X-12877307Y7389655D01*
X-12879187Y7364520D01*
X-12887067Y7340457D01*
X-12900759Y7318780D01*
X-12920078Y7300804D01*
X-12932907Y7293037D01*
X-12944041Y7288006D01*
X-12955193Y7284698D01*
X-12967466Y7283199D01*
X-12981962Y7283598D01*
X-12999784Y7285980D01*
X-13022034Y7290434D01*
X-13049815Y7297046D01*
X-13079262Y7304601D01*
X-13107506Y7311970D01*
X-13141348Y7320770D01*
X-13178698Y7330458D01*
X-13217465Y7340493D01*
X-13255558Y7350332D01*
X-13289340Y7359037D01*
X-13326219Y7368613D01*
X-13356249Y7376697D01*
X-13380296Y7383659D01*
X-13399227Y7389867D01*
X-13413910Y7395692D01*
X-13425212Y7401501D01*
X-13433998Y7407665D01*
X-13441137Y7414552D01*
X-13447495Y7422532D01*
X-13451296Y7427998D01*
X-13455259Y7434076D01*
X-13458568Y7440017D01*
X-13461243Y7446515D01*
X-13463304Y7454260D01*
X-13464770Y7463945D01*
X-13465662Y7476262D01*
X-13465999Y7491902D01*
X-13465802Y7511558D01*
X-13465090Y7535922D01*
X-13463883Y7565685D01*
X-13462202Y7601540D01*
X-13460066Y7644179D01*
X-13458438Y7675937D01*
X-13456329Y7715786D01*
X-13454210Y7753614D01*
X-13452136Y7788604D01*
X-13450160Y7819941D01*
X-13448335Y7846810D01*
X-13446716Y7868395D01*
X-13445356Y7883880D01*
X-13444309Y7892450D01*
X-13444109Y7893392D01*
X-13434152Y7916680D01*
X-13418578Y7935719D01*
X-13398698Y7950142D01*
X-13375820Y7959578D01*
X-13351253Y7963660D01*
X-13326306Y7962018D01*
X-13302289Y7954283D01*
X-13280510Y7940086D01*
X-13280003Y7939643D01*
X-13265619Y7923599D01*
X-13254457Y7904889D01*
X-13253901Y7903631D01*
X-13250688Y7895777D01*
X-13248404Y7888519D01*
X-13246954Y7880439D01*
X-13246238Y7870119D01*
X-13246160Y7856140D01*
X-13246622Y7837083D01*
X-13247526Y7811530D01*
X-13247538Y7811208D01*
X-13248562Y7786057D01*
X-13249707Y7761691D01*
X-13250872Y7740023D01*
X-13251957Y7722969D01*
X-13252641Y7714507D01*
X-13253610Y7704569D01*
X-13253823Y7697578D01*
X-13252510Y7693806D01*
X-13248906Y7693523D01*
X-13242243Y7697002D01*
X-13231754Y7704514D01*
X-13216671Y7716329D01*
X-13196226Y7732719D01*
X-13192372Y7735812D01*
X-13109296Y7805234D01*
X-13027210Y7879265D01*
X-12947314Y7956678D01*
X-12870808Y8036246D01*
X-12798892Y8116742D01*
X-12732764Y8196938D01*
X-12700154Y8239329D01*
X-12688638Y8254699D01*
X-12724208Y8252165D01*
X-12741251Y8251202D01*
X-12763702Y8250293D01*
X-12789031Y8249523D01*
X-12814708Y8248976D01*
X-12823278Y8248853D01*
X-12848460Y8248682D01*
X-12867162Y8248952D01*
X-12880834Y8249778D01*
X-12890926Y8251272D01*
X-12898890Y8253547D01*
X-12902653Y8255069D01*
X-12925453Y8269239D01*
X-12943902Y8288974D01*
X-12956941Y8312656D01*
X-12963511Y8338665D01*
X-12964091Y8348973D01*
X-12960457Y8374696D01*
X-12950304Y8398980D01*
X-12934755Y8420094D01*
X-12914934Y8436309D01*
X-12903621Y8442101D01*
X-12898783Y8443996D01*
X-12893587Y8445637D01*
X-12887365Y8447068D01*
X-12879449Y8448335D01*
X-12869173Y8449481D01*
X-12855868Y8450551D01*
X-12838867Y8451589D01*
X-12817501Y8452640D01*
X-12791105Y8453747D01*
X-12759009Y8454955D01*
X-12720547Y8456308D01*
X-12675051Y8457851D01*
X-12657490Y8458439D01*
X-12611652Y8459955D01*
X-12573019Y8461147D01*
X-12540865Y8461957D01*
X-12514461Y8462331D01*
X-12493080Y8462212D01*
G37*
%TD*%
M02*
