%TF.GenerationSoftware,KiCad,Pcbnew,9.0.0*%
%TF.CreationDate,2025-09-23T13:08:56+01:00*%
%TF.ProjectId,ASCII_gerbersockets_test,41534349-495f-4676-9572-626572736f63,v0.3*%
%TF.SameCoordinates,PX501bd00PY47868c0*%
%TF.FileFunction,Legend,Top*%
%TF.FilePolarity,Positive*%
%FSLAX46Y46*%
G04 Gerber Fmt 4.6, Leading zero omitted, Abs format (unit mm)*
G04 Created by KiCad (PCBNEW 9.0.0) date 2025-09-23 13:08:56*
%MOMM*%
%LPD*%
G01*
G04 APERTURE LIST*
%ADD10C,0.200000*%
%ADD11C,0.150000*%
%ADD12C,0.075000*%
G04 APERTURE END LIST*
D10*
X-4639851Y-6567219D02*
X-4544613Y-6567219D01*
X-4544613Y-6567219D02*
X-4449375Y-6614838D01*
X-4449375Y-6614838D02*
X-4401756Y-6662457D01*
X-4401756Y-6662457D02*
X-4354137Y-6757695D01*
X-4354137Y-6757695D02*
X-4306518Y-6948171D01*
X-4306518Y-6948171D02*
X-4306518Y-7186266D01*
X-4306518Y-7186266D02*
X-4354137Y-7376742D01*
X-4354137Y-7376742D02*
X-4401756Y-7471980D01*
X-4401756Y-7471980D02*
X-4449375Y-7519600D01*
X-4449375Y-7519600D02*
X-4544613Y-7567219D01*
X-4544613Y-7567219D02*
X-4639851Y-7567219D01*
X-4639851Y-7567219D02*
X-4735089Y-7519600D01*
X-4735089Y-7519600D02*
X-4782708Y-7471980D01*
X-4782708Y-7471980D02*
X-4830327Y-7376742D01*
X-4830327Y-7376742D02*
X-4877946Y-7186266D01*
X-4877946Y-7186266D02*
X-4877946Y-6948171D01*
X-4877946Y-6948171D02*
X-4830327Y-6757695D01*
X-4830327Y-6757695D02*
X-4782708Y-6662457D01*
X-4782708Y-6662457D02*
X-4735089Y-6614838D01*
X-4735089Y-6614838D02*
X-4639851Y-6567219D01*
X-3877946Y-7471980D02*
X-3830327Y-7519600D01*
X-3830327Y-7519600D02*
X-3877946Y-7567219D01*
X-3877946Y-7567219D02*
X-3925565Y-7519600D01*
X-3925565Y-7519600D02*
X-3877946Y-7471980D01*
X-3877946Y-7471980D02*
X-3877946Y-7567219D01*
X-3496994Y-6567219D02*
X-2877947Y-6567219D01*
X-2877947Y-6567219D02*
X-3211280Y-6948171D01*
X-3211280Y-6948171D02*
X-3068423Y-6948171D01*
X-3068423Y-6948171D02*
X-2973185Y-6995790D01*
X-2973185Y-6995790D02*
X-2925566Y-7043409D01*
X-2925566Y-7043409D02*
X-2877947Y-7138647D01*
X-2877947Y-7138647D02*
X-2877947Y-7376742D01*
X-2877947Y-7376742D02*
X-2925566Y-7471980D01*
X-2925566Y-7471980D02*
X-2973185Y-7519600D01*
X-2973185Y-7519600D02*
X-3068423Y-7567219D01*
X-3068423Y-7567219D02*
X-3354137Y-7567219D01*
X-3354137Y-7567219D02*
X-3449375Y-7519600D01*
X-3449375Y-7519600D02*
X-3496994Y-7471980D01*
%TO.C,U2*%
D11*
X-2875000Y-575000D02*
X-5325000Y-575000D01*
X-5325000Y575000D01*
X-2875000Y575000D01*
X-2875000Y-575000D01*
D12*
X-3037500Y375000D02*
G75*
G02*
X-3112500Y375000I-37500J0D01*
G01*
X-3112500Y375000D02*
G75*
G02*
X-3037500Y375000I37500J0D01*
G01*
X-2837500Y1825000D02*
G75*
G02*
X-2912500Y1825000I-37500J0D01*
G01*
X-2912500Y1825000D02*
G75*
G02*
X-2837500Y1825000I37500J0D01*
G01*
D11*
%TO.C,D1*%
X-4200000Y-5525000D02*
X-4200000Y-4875000D01*
X-4150000Y-5200000D02*
X-3600000Y-4875000D01*
X-4150000Y-5200000D02*
X-3600000Y-5525000D01*
X-3600000Y-5525000D02*
X-3600000Y-4875000D01*
D12*
X-5037500Y-4675000D02*
G75*
G02*
X-5112500Y-4675000I-37500J0D01*
G01*
X-5112500Y-4675000D02*
G75*
G02*
X-5037500Y-4675000I37500J0D01*
G01*
%TO.C,U1*%
D11*
X-2005000Y1875000D02*
X4045000Y1875000D01*
X4045000Y-1875000D01*
X-2005000Y-1875000D01*
X-2005000Y1875000D01*
D12*
X-2192500Y-2875000D02*
G75*
G02*
X-2267500Y-2875000I-37500J0D01*
G01*
X-2267500Y-2875000D02*
G75*
G02*
X-2192500Y-2875000I37500J0D01*
G01*
D11*
X-1630000Y-1575000D02*
G75*
G02*
X-1780000Y-1575000I-75000J0D01*
G01*
X-1780000Y-1575000D02*
G75*
G02*
X-1630000Y-1575000I75000J0D01*
G01*
%TO.C,D2*%
X-5325000Y6675000D02*
X-4675000Y6675000D01*
X-5325000Y6075000D02*
X-4675000Y6075000D01*
X-5000000Y6950000D02*
X-5000000Y6650000D01*
X-5000000Y6625000D02*
X-5325000Y6075000D01*
X-5000000Y6625000D02*
X-4675000Y6075000D01*
X-5000000Y6075000D02*
X-5000000Y5850000D01*
D12*
X-4462500Y8000000D02*
G75*
G02*
X-4537500Y8000000I-37500J0D01*
G01*
X-4537500Y8000000D02*
G75*
G02*
X-4462500Y8000000I37500J0D01*
G01*
%TD*%
M02*
