%TF.GenerationSoftware,KiCad,Pcbnew,9.0.0*%
%TF.CreationDate,2025-09-23T13:08:56+01:00*%
%TF.ProjectId,ASCII_gerbersockets_test,41534349-495f-4676-9572-626572736f63,v0.3*%
%TF.SameCoordinates,PX501bd00PY47868c0*%
%TF.FileFunction,Paste,Top*%
%TF.FilePolarity,Positive*%
%FSLAX46Y46*%
G04 Gerber Fmt 4.6, Leading zero omitted, Abs format (unit mm)*
G04 Created by KiCad (PCBNEW 9.0.0) date 2025-09-23 13:08:56*
%MOMM*%
%LPD*%
G01*
G04 APERTURE LIST*
%ADD10R,0.860000X0.810000*%
%ADD11R,0.700000X1.000000*%
%ADD12R,0.800000X0.800000*%
%ADD13R,0.800000X0.900000*%
%ADD14O,0.360000X1.740000*%
%ADD15R,1.230000X1.360000*%
%ADD16R,0.810000X0.860000*%
%ADD17R,0.750000X1.000000*%
G04 APERTURE END LIST*
D10*
%TO.C,R7*%
X-1700000Y5250000D03*
X-1700000Y6750000D03*
%TD*%
D11*
%TO.C,U2*%
X-3150000Y1200000D03*
X-4100000Y1200000D03*
X-5050000Y1200000D03*
X-5050000Y-1200000D03*
X-3150000Y-1200000D03*
%TD*%
D12*
%TO.C,D1*%
X-3050000Y-5200000D03*
X-4750000Y-5200000D03*
%TD*%
D10*
%TO.C,R6*%
X-3300000Y5250000D03*
X-3300000Y6750000D03*
%TD*%
D13*
%TO.C,C3*%
X-3200000Y-2600000D03*
X-4600000Y-2600000D03*
%TD*%
D14*
%TO.C,U1*%
X-1910000Y-2870000D03*
X-1260000Y-2870000D03*
X-610000Y-2870000D03*
X40000Y-2870000D03*
X700000Y-2870000D03*
X1350000Y-2870000D03*
X2000000Y-2870000D03*
X2650000Y-2870000D03*
X3300000Y-2870000D03*
X3950000Y-2870000D03*
X3950000Y2870000D03*
X3300000Y2870000D03*
X2650000Y2870000D03*
X2000000Y2870000D03*
X1350000Y2870000D03*
X700000Y2870000D03*
X40000Y2870000D03*
X-610000Y2870000D03*
X-1260000Y2870000D03*
X-1910000Y2870000D03*
%TD*%
D15*
%TO.C,SW1*%
X3200000Y-6800000D03*
X-1160000Y-6800000D03*
%TD*%
D16*
%TO.C,R5*%
X-3050000Y3900000D03*
X-4550000Y3900000D03*
%TD*%
D13*
%TO.C,C1*%
X300000Y-4600000D03*
X1700000Y-4600000D03*
%TD*%
%TO.C,C2*%
X-3100000Y2600000D03*
X-4500000Y2600000D03*
%TD*%
D16*
%TO.C,R1*%
X-3150000Y-3900000D03*
X-4650000Y-3900000D03*
%TD*%
D17*
%TO.C,D2*%
X-5000000Y7570000D03*
X-5000000Y5230000D03*
%TD*%
M02*
