%TF.GenerationSoftware,KiCad,Pcbnew,9.0.6-9.0.6~ubuntu22.04.1*%
%TF.CreationDate,2026-01-23T17:02:16+00:00*%
%TF.ProjectId,vm_light_sensor,766d5f6c-6967-4687-945f-73656e736f72,0.4*%
%TF.SameCoordinates,PX510ff40PY47868c0*%
%TF.FileFunction,Soldermask,Top*%
%TF.FilePolarity,Negative*%
%FSLAX45Y45*%
G04 Gerber Fmt 4.5, Leading zero omitted, Abs format (unit mm)*
G04 Created by KiCad (PCBNEW 9.0.6-9.0.6~ubuntu22.04.1) date 2026-01-23 17:02:16*
%MOMM*%
%LPD*%
G01*
G04 APERTURE LIST*
G04 Aperture macros list*
%AMRoundRect*
0 Rectangle with rounded corners*
0 $1 Rounding radius*
0 $2 $3 $4 $5 $6 $7 $8 $9 X,Y pos of 4 corners*
0 Add a 4 corners polygon primitive as box body*
4,1,4,$2,$3,$4,$5,$6,$7,$8,$9,$2,$3,0*
0 Add four circle primitives for the rounded corners*
1,1,$1+$1,$2,$3*
1,1,$1+$1,$4,$5*
1,1,$1+$1,$6,$7*
1,1,$1+$1,$8,$9*
0 Add four rect primitives between the rounded corners*
20,1,$1+$1,$2,$3,$4,$5,0*
20,1,$1+$1,$4,$5,$6,$7,0*
20,1,$1+$1,$6,$7,$8,$9,0*
20,1,$1+$1,$8,$9,$2,$3,0*%
G04 Aperture macros list end*
%ADD10RoundRect,0.172720X-0.259080X-0.259080X0.259080X-0.259080X0.259080X0.259080X-0.259080X0.259080X0*%
%ADD11C,0.863600*%
%ADD12R,0.860000X0.810000*%
%ADD13R,0.700000X1.000000*%
%ADD14R,0.800000X0.800000*%
%ADD15R,0.800000X0.900000*%
%ADD16O,0.360000X1.740000*%
%ADD17R,1.230000X1.360000*%
%ADD18R,1.800000X1.630000*%
%ADD19R,0.810000X0.860000*%
%ADD20R,0.750000X1.000000*%
G04 APERTURE END LIST*
D10*
%TO.C,J1*%
X287500Y700000D03*
D11*
X287500Y542520D03*
X160500Y700000D03*
X160500Y542520D03*
X33500Y700000D03*
%TD*%
D12*
%TO.C,R7*%
X-270000Y525000D03*
X-270000Y675000D03*
%TD*%
D13*
%TO.C,U2*%
X-415000Y120000D03*
X-510000Y120000D03*
X-605000Y120000D03*
X-605000Y-120000D03*
X-415000Y-120000D03*
%TD*%
D14*
%TO.C,D1*%
X-405000Y-520000D03*
X-575000Y-520000D03*
%TD*%
D12*
%TO.C,R6*%
X-430000Y525000D03*
X-430000Y675000D03*
%TD*%
D15*
%TO.C,C3*%
X-420000Y-260000D03*
X-560000Y-260000D03*
%TD*%
D16*
%TO.C,U1*%
X-291000Y-287000D03*
X-226000Y-287000D03*
X-161000Y-287000D03*
X-96000Y-287000D03*
X-30000Y-287000D03*
X35000Y-287000D03*
X100000Y-287000D03*
X165000Y-287000D03*
X230000Y-287000D03*
X295000Y-287000D03*
X295000Y287000D03*
X230000Y287000D03*
X165000Y287000D03*
X100000Y287000D03*
X35000Y287000D03*
X-30000Y287000D03*
X-96000Y287000D03*
X-161000Y287000D03*
X-226000Y287000D03*
X-291000Y287000D03*
%TD*%
D17*
%TO.C,SW1*%
X220000Y-680000D03*
X-216000Y-680000D03*
%TD*%
D18*
%TO.C,Q1*%
X528000Y406000D03*
X528000Y102000D03*
%TD*%
D19*
%TO.C,R5*%
X-405000Y390000D03*
X-555000Y390000D03*
%TD*%
D12*
%TO.C,R2*%
X483290Y-285000D03*
X483290Y-135000D03*
%TD*%
D15*
%TO.C,C1*%
X-70000Y-460000D03*
X70000Y-460000D03*
%TD*%
%TO.C,C2*%
X-410000Y260000D03*
X-550000Y260000D03*
%TD*%
D19*
%TO.C,R1*%
X-415000Y-390000D03*
X-565000Y-390000D03*
%TD*%
D20*
%TO.C,D2*%
X-600000Y757000D03*
X-600000Y523000D03*
%TD*%
M02*
