%TF.GenerationSoftware,KiCad,Pcbnew,9.0.5*%
%TF.CreationDate,2025-10-03T12:10:36+01:00*%
%TF.ProjectId,vm_light_sensor,766d5f6c-6967-4687-945f-73656e736f72,0.4*%
%TF.SameCoordinates,PX510ff40PY47868c0*%
%TF.FileFunction,AssemblyDrawing,Top*%
%FSLAX45Y45*%
G04 Gerber Fmt 4.5, Leading zero omitted, Abs format (unit mm)*
G04 Created by KiCad (PCBNEW 9.0.5) date 2025-10-03 12:10:36*
%MOMM*%
%LPD*%
G01*
G04 APERTURE LIST*
%ADD10C,0.100000*%
%ADD11C,0.120000*%
%ADD12C,0.075000*%
G04 APERTURE END LIST*
D10*
X150000Y820000D02*
X250000Y820000D01*
X250000Y830000D02*
G75*
G02*
X250000Y820000I0J-5000D01*
G01*
X250000Y830000D02*
X150000Y830000D01*
X150000Y830000D02*
G75*
G03*
X150000Y820000I0J-5000D01*
G01*
X195000Y875000D02*
X195000Y775000D01*
X205000Y775000D02*
G75*
G02*
X195000Y775000I-5000J0D01*
G01*
X205000Y775000D02*
X205000Y875000D01*
X205000Y875000D02*
G75*
G03*
X195000Y875000I-5000J0D01*
G01*
%TO.C,GS5*%
X250000Y825000D02*
G75*
G02*
X150000Y825000I-50000J0D01*
G01*
X150000Y825000D02*
G75*
G02*
X250000Y825000I50000J0D01*
G01*
X250000Y825000D02*
G75*
G02*
X150000Y825000I-50000J0D01*
G01*
X150000Y825000D02*
G75*
G02*
X250000Y825000I50000J0D01*
G01*
X-700000Y245000D02*
X-600000Y245000D01*
X-600000Y255000D02*
G75*
G02*
X-600000Y245000I0J-5000D01*
G01*
X-600000Y255000D02*
X-700000Y255000D01*
X-700000Y255000D02*
G75*
G03*
X-700000Y245000I0J-5000D01*
G01*
X-655000Y300000D02*
X-655000Y200000D01*
X-645000Y200000D02*
G75*
G02*
X-655000Y200000I-5000J0D01*
G01*
X-645000Y200000D02*
X-645000Y300000D01*
X-645000Y300000D02*
G75*
G03*
X-655000Y300000I-5000J0D01*
G01*
%TO.C,GS3*%
X-600000Y250000D02*
G75*
G02*
X-700000Y250000I-50000J0D01*
G01*
X-700000Y250000D02*
G75*
G02*
X-600000Y250000I50000J0D01*
G01*
X-600000Y250000D02*
G75*
G02*
X-700000Y250000I-50000J0D01*
G01*
X-700000Y250000D02*
G75*
G02*
X-600000Y250000I50000J0D01*
G01*
D11*
%TO.C,J1*%
X-68100Y799060D02*
X262100Y799060D01*
X-68100Y443460D02*
X-68100Y799060D01*
X262100Y799060D02*
X389100Y672060D01*
X389100Y672060D02*
X389100Y443460D01*
X389100Y443460D02*
X-68100Y443460D01*
D10*
X-50000Y820000D02*
X50000Y820000D01*
X50000Y830000D02*
G75*
G02*
X50000Y820000I0J-5000D01*
G01*
X50000Y830000D02*
X-50000Y830000D01*
X-50000Y830000D02*
G75*
G03*
X-50000Y820000I0J-5000D01*
G01*
X-5000Y875000D02*
X-5000Y775000D01*
X5000Y775000D02*
G75*
G02*
X-5000Y775000I-5000J0D01*
G01*
X5000Y775000D02*
X5000Y875000D01*
X5000Y875000D02*
G75*
G03*
X-5000Y875000I-5000J0D01*
G01*
%TO.C,GS4*%
X50000Y825000D02*
G75*
G02*
X-50000Y825000I-50000J0D01*
G01*
X-50000Y825000D02*
G75*
G02*
X50000Y825000I50000J0D01*
G01*
X50000Y825000D02*
G75*
G02*
X-50000Y825000I-50000J0D01*
G01*
X-50000Y825000D02*
G75*
G02*
X50000Y825000I50000J0D01*
G01*
%TO.C,U2*%
D12*
X-383750Y182500D02*
G75*
G02*
X-391250Y182500I-3750J0D01*
G01*
X-391250Y182500D02*
G75*
G02*
X-383750Y182500I3750J0D01*
G01*
D10*
X-250000Y820000D02*
X-150000Y820000D01*
X-150000Y830000D02*
G75*
G02*
X-150000Y820000I0J-5000D01*
G01*
X-150000Y830000D02*
X-250000Y830000D01*
X-250000Y830000D02*
G75*
G03*
X-250000Y820000I0J-5000D01*
G01*
X-205000Y875000D02*
X-205000Y775000D01*
X-195000Y775000D02*
G75*
G02*
X-205000Y775000I-5000J0D01*
G01*
X-195000Y775000D02*
X-195000Y875000D01*
X-195000Y875000D02*
G75*
G03*
X-205000Y875000I-5000J0D01*
G01*
%TO.C,GS6*%
X-150000Y825000D02*
G75*
G02*
X-250000Y825000I-50000J0D01*
G01*
X-250000Y825000D02*
G75*
G02*
X-150000Y825000I50000J0D01*
G01*
X-150000Y825000D02*
G75*
G02*
X-250000Y825000I-50000J0D01*
G01*
X-250000Y825000D02*
G75*
G02*
X-150000Y825000I50000J0D01*
G01*
%TO.C,D1*%
D12*
X-603750Y-467500D02*
G75*
G02*
X-611250Y-467500I-3750J0D01*
G01*
X-611250Y-467500D02*
G75*
G02*
X-603750Y-467500I3750J0D01*
G01*
%TO.C,U1*%
X-319250Y-287500D02*
G75*
G02*
X-326750Y-287500I-3750J0D01*
G01*
X-326750Y-287500D02*
G75*
G02*
X-319250Y-287500I3750J0D01*
G01*
D10*
X-700000Y-255000D02*
X-600000Y-255000D01*
X-600000Y-245000D02*
G75*
G02*
X-600000Y-255000I0J-5000D01*
G01*
X-600000Y-245000D02*
X-700000Y-245000D01*
X-700000Y-245000D02*
G75*
G03*
X-700000Y-255000I0J-5000D01*
G01*
X-655000Y-200000D02*
X-655000Y-300000D01*
X-645000Y-300000D02*
G75*
G02*
X-655000Y-300000I-5000J0D01*
G01*
X-645000Y-300000D02*
X-645000Y-200000D01*
X-645000Y-200000D02*
G75*
G03*
X-655000Y-200000I-5000J0D01*
G01*
%TO.C,GS2*%
X-600000Y-250000D02*
G75*
G02*
X-700000Y-250000I-50000J0D01*
G01*
X-700000Y-250000D02*
G75*
G02*
X-600000Y-250000I50000J0D01*
G01*
X-600000Y-250000D02*
G75*
G02*
X-700000Y-250000I-50000J0D01*
G01*
X-700000Y-250000D02*
G75*
G02*
X-600000Y-250000I50000J0D01*
G01*
X-700000Y-5000D02*
X-600000Y-5000D01*
X-600000Y5000D02*
G75*
G02*
X-600000Y-5000I0J-5000D01*
G01*
X-600000Y5000D02*
X-700000Y5000D01*
X-700000Y5000D02*
G75*
G03*
X-700000Y-5000I0J-5000D01*
G01*
X-655000Y50000D02*
X-655000Y-50000D01*
X-645000Y-50000D02*
G75*
G02*
X-655000Y-50000I-5000J0D01*
G01*
X-645000Y-50000D02*
X-645000Y50000D01*
X-645000Y50000D02*
G75*
G03*
X-655000Y50000I-5000J0D01*
G01*
%TO.C,GS1*%
X-600000Y0D02*
G75*
G02*
X-700000Y0I-50000J0D01*
G01*
X-700000Y0D02*
G75*
G02*
X-600000Y0I50000J0D01*
G01*
X-600000Y0D02*
G75*
G02*
X-700000Y0I-50000J0D01*
G01*
X-700000Y0D02*
G75*
G02*
X-600000Y0I50000J0D01*
G01*
%TO.C,D2*%
D12*
X-546250Y800000D02*
G75*
G02*
X-553750Y800000I-3750J0D01*
G01*
X-553750Y800000D02*
G75*
G02*
X-546250Y800000I3750J0D01*
G01*
%TD*%
D10*
X145000Y880000D02*
X255000Y770000D01*
X145000Y770000D02*
X255000Y880000D01*
X-705000Y305000D02*
X-595000Y195000D01*
X-705000Y195000D02*
X-595000Y305000D01*
X-55000Y880000D02*
X55000Y770000D01*
X-55000Y770000D02*
X55000Y880000D01*
X-255000Y880000D02*
X-145000Y770000D01*
X-255000Y770000D02*
X-145000Y880000D01*
X-705000Y-195000D02*
X-595000Y-305000D01*
X-705000Y-305000D02*
X-595000Y-195000D01*
X-705000Y55000D02*
X-595000Y-55000D01*
X-705000Y-55000D02*
X-595000Y55000D01*
M02*
