%TF.GenerationSoftware,KiCad,Pcbnew,9.0.0*%
%TF.CreationDate,2025-02-28T17:52:26+00:00*%
%TF.ProjectId,vm_rgb_led_0.1,766d5f72-6762-45f6-9c65-645f302e312e,v0.1*%
%TF.SameCoordinates,PX5204180PY47868c0*%
%TF.FileFunction,Copper,L2,Bot*%
%TF.FilePolarity,Positive*%
%FSLAX46Y46*%
G04 Gerber Fmt 4.6, Leading zero omitted, Abs format (unit mm)*
G04 Created by KiCad (PCBNEW 9.0.0) date 2025-02-28 17:52:26*
%MOMM*%
%LPD*%
G01*
G04 APERTURE LIST*
G04 Aperture macros list*
%AMRoundRect*
0 Rectangle with rounded corners*
0 $1 Rounding radius*
0 $2 $3 $4 $5 $6 $7 $8 $9 X,Y pos of 4 corners*
0 Add a 4 corners polygon primitive as box body*
4,1,4,$2,$3,$4,$5,$6,$7,$8,$9,$2,$3,0*
0 Add four circle primitives for the rounded corners*
1,1,$1+$1,$2,$3*
1,1,$1+$1,$4,$5*
1,1,$1+$1,$6,$7*
1,1,$1+$1,$8,$9*
0 Add four rect primitives between the rounded corners*
20,1,$1+$1,$2,$3,$4,$5,0*
20,1,$1+$1,$4,$5,$6,$7,0*
20,1,$1+$1,$6,$7,$8,$9,0*
20,1,$1+$1,$8,$9,$2,$3,0*%
G04 Aperture macros list end*
%TA.AperFunction,ComponentPad*%
%ADD10RoundRect,0.172720X-0.259080X-0.259080X0.259080X-0.259080X0.259080X0.259080X-0.259080X0.259080X0*%
%TD*%
%TA.AperFunction,ComponentPad*%
%ADD11C,0.863600*%
%TD*%
%TA.AperFunction,ViaPad*%
%ADD12C,0.500000*%
%TD*%
%TA.AperFunction,Conductor*%
%ADD13C,0.200000*%
%TD*%
G04 APERTURE END LIST*
D10*
%TO.P,J1,1,Vcc*%
%TO.N,+3V3*%
X290000Y7474800D03*
D11*
%TO.P,J1,2,SWDIO*%
%TO.N,/SWDIO*%
X290000Y5900000D03*
%TO.P,J1,3,GND*%
%TO.N,GND*%
X-980000Y7474800D03*
%TO.P,J1,4,SWDCLK*%
%TO.N,/SWCLK*%
X-980000Y5900000D03*
%TO.P,J1,5,~{RESET}*%
%TO.N,/nRESET*%
X-2250000Y7474800D03*
%TD*%
D12*
%TO.N,GND*%
X-2131092Y-851091D03*
X20000Y-7000000D03*
X1920000Y6700000D03*
X-6000000Y-1200000D03*
X3024409Y1695591D03*
X-6600000Y3600000D03*
%TO.N,+3V3*%
X-4400000Y4800000D03*
X-3900000Y0D03*
%TO.N,/nRESET*%
X-1300000Y1000000D03*
X-3128909Y4528909D03*
%TD*%
D13*
%TO.N,GND*%
X3024409Y5595591D02*
X1920000Y6700000D01*
X2095591Y1695591D02*
X20000Y-380000D01*
X-2131092Y-851091D02*
X-437727Y-851091D01*
X-6000000Y-1200000D02*
X-5651091Y-851091D01*
X20000Y-7000000D02*
X20000Y-1308818D01*
X3024409Y1695591D02*
X2095591Y1695591D01*
X20000Y-380000D02*
X20000Y-1308818D01*
X-5651091Y-851091D02*
X-2131092Y-851091D01*
X3024409Y1695591D02*
X3024409Y5100000D01*
X3024409Y5100000D02*
X3024409Y5595591D01*
X-5651091Y2651091D02*
X-5651091Y-851091D01*
X-6600000Y3600000D02*
X-5651091Y2651091D01*
X-437727Y-851091D02*
X20000Y-1308818D01*
%TO.N,+3V3*%
X-4400000Y4800000D02*
X-4400000Y500000D01*
X-4400000Y500000D02*
X-3900000Y0D01*
%TO.N,/nRESET*%
X-3128909Y4528909D02*
X-3128909Y2828909D01*
X-3128909Y2828909D02*
X-1300000Y1000000D01*
%TD*%
%TA.AperFunction,Conductor*%
%TO.N,+3V3*%
G36*
X-4167660Y4753837D02*
G01*
X-4160234Y4748833D01*
X-4158522Y4740043D01*
X-4158862Y4738752D01*
X-4297372Y4312885D01*
X-4303189Y4306078D01*
X-4308498Y4304804D01*
X-4491502Y4304804D01*
X-4499775Y4308231D01*
X-4502628Y4312885D01*
X-4641139Y4738752D01*
X-4640439Y4747680D01*
X-4633632Y4753497D01*
X-4632350Y4753835D01*
X-4402325Y4800528D01*
X-4397675Y4800528D01*
X-4167660Y4753837D01*
G37*
%TD.AperFunction*%
%TD*%
%TA.AperFunction,Conductor*%
%TO.N,/nRESET*%
G36*
X-2896569Y4482746D02*
G01*
X-2889143Y4477742D01*
X-2887431Y4468952D01*
X-2887771Y4467661D01*
X-3026281Y4041794D01*
X-3032098Y4034987D01*
X-3037407Y4033713D01*
X-3220411Y4033713D01*
X-3228684Y4037140D01*
X-3231537Y4041794D01*
X-3370048Y4467661D01*
X-3369348Y4476589D01*
X-3362541Y4482406D01*
X-3361259Y4482744D01*
X-3131234Y4529437D01*
X-3126584Y4529437D01*
X-2896569Y4482746D01*
G37*
%TD.AperFunction*%
%TD*%
%TA.AperFunction,Conductor*%
%TO.N,GND*%
G36*
X119775Y-6508231D02*
G01*
X122628Y-6512885D01*
X261138Y-6938751D01*
X260438Y-6947679D01*
X253631Y-6953496D01*
X252340Y-6953836D01*
X22328Y-7000527D01*
X17672Y-7000527D01*
X-212341Y-6953836D01*
X-219767Y-6948832D01*
X-221479Y-6940042D01*
X-221143Y-6938762D01*
X-82628Y-6512885D01*
X-76811Y-6506078D01*
X-71502Y-6504804D01*
X111502Y-6504804D01*
X119775Y-6508231D01*
G37*
%TD.AperFunction*%
%TD*%
%TA.AperFunction,Conductor*%
%TO.N,+3V3*%
G36*
X-4171877Y417013D02*
G01*
X-3772798Y213820D01*
X-3766981Y207013D01*
X-3767681Y198085D01*
X-3768353Y196932D01*
X-3897982Y1274D01*
X-3901274Y-2018D01*
X-4096932Y-131647D01*
X-4105721Y-133359D01*
X-4113148Y-128355D01*
X-4113820Y-127202D01*
X-4177558Y-2018D01*
X-4317013Y271875D01*
X-4317712Y280801D01*
X-4314861Y285453D01*
X-4185454Y414860D01*
X-4177182Y418286D01*
X-4171877Y417013D01*
G37*
%TD.AperFunction*%
%TD*%
%TA.AperFunction,Conductor*%
%TO.N,GND*%
G36*
X-5650529Y-764725D02*
G01*
X-5649326Y-769893D01*
X-5649326Y-949079D01*
X-5649998Y-952987D01*
X-5751426Y-1239238D01*
X-5757419Y-1245891D01*
X-5764728Y-1246807D01*
X-5996219Y-1200947D01*
X-6003668Y-1195978D01*
X-6003695Y-1195938D01*
X-6131538Y-1003220D01*
X-6133256Y-994431D01*
X-6128256Y-987002D01*
X-6126965Y-986260D01*
X-5666194Y-759395D01*
X-5657258Y-758816D01*
X-5650529Y-764725D01*
G37*
%TD.AperFunction*%
%TD*%
%TA.AperFunction,Conductor*%
%TO.N,GND*%
G36*
X2133147Y6828356D02*
G01*
X2133819Y6827203D01*
X2199233Y6698727D01*
X2337011Y6428128D01*
X2337711Y6419200D01*
X2334858Y6414546D01*
X2205454Y6285142D01*
X2197181Y6281715D01*
X2191873Y6282989D01*
X1792797Y6486181D01*
X1786980Y6492988D01*
X1787680Y6501916D01*
X1788352Y6503069D01*
X1917981Y6698727D01*
X1921273Y6702019D01*
X2110222Y6827203D01*
X2116931Y6831649D01*
X2125720Y6833360D01*
X2133147Y6828356D01*
G37*
%TD.AperFunction*%
%TD*%
%TA.AperFunction,Conductor*%
%TO.N,GND*%
G36*
X2972088Y1936030D02*
G01*
X2977905Y1929223D01*
X2978245Y1927932D01*
X3024936Y1697919D01*
X3024936Y1693263D01*
X2978245Y1463251D01*
X2973241Y1455825D01*
X2964451Y1454113D01*
X2963160Y1454453D01*
X2537294Y1592963D01*
X2530487Y1598780D01*
X2529213Y1604089D01*
X2529213Y1787094D01*
X2532640Y1795367D01*
X2537291Y1798219D01*
X2963161Y1936730D01*
X2972088Y1936030D01*
G37*
%TD.AperFunction*%
%TD*%
%TA.AperFunction,Conductor*%
%TO.N,GND*%
G36*
X-6386853Y3728356D02*
G01*
X-6386181Y3727203D01*
X-6320767Y3598727D01*
X-6182989Y3328128D01*
X-6182289Y3319200D01*
X-6185142Y3314546D01*
X-6314546Y3185142D01*
X-6322819Y3181715D01*
X-6328127Y3182989D01*
X-6727203Y3386181D01*
X-6733020Y3392988D01*
X-6732320Y3401916D01*
X-6731648Y3403069D01*
X-6602019Y3598727D01*
X-6598727Y3602019D01*
X-6409778Y3727203D01*
X-6403069Y3731649D01*
X-6394280Y3733360D01*
X-6386853Y3728356D01*
G37*
%TD.AperFunction*%
%TD*%
%TA.AperFunction,Conductor*%
%TO.N,GND*%
G36*
X-2069851Y-609950D02*
G01*
X-1643976Y-748463D01*
X-1637170Y-754279D01*
X-1635896Y-759588D01*
X-1635896Y-942593D01*
X-1639323Y-950866D01*
X-1643977Y-953719D01*
X-2069844Y-1092229D01*
X-2078772Y-1091529D01*
X-2084589Y-1084722D01*
X-2084929Y-1083431D01*
X-2131620Y-853416D01*
X-2131620Y-848765D01*
X-2084929Y-618748D01*
X-2079925Y-611324D01*
X-2071135Y-609612D01*
X-2069851Y-609950D01*
G37*
%TD.AperFunction*%
%TD*%
%TA.AperFunction,Conductor*%
%TO.N,/nRESET*%
G36*
X-1571877Y1417013D02*
G01*
X-1172798Y1213820D01*
X-1166981Y1207013D01*
X-1167681Y1198085D01*
X-1168353Y1196932D01*
X-1297982Y1001274D01*
X-1301274Y997982D01*
X-1496932Y868353D01*
X-1505721Y866641D01*
X-1513148Y871645D01*
X-1513820Y872798D01*
X-1577558Y997982D01*
X-1717013Y1271875D01*
X-1717712Y1280801D01*
X-1714861Y1285453D01*
X-1585454Y1414860D01*
X-1577182Y1418286D01*
X-1571877Y1417013D01*
G37*
%TD.AperFunction*%
%TD*%
%TA.AperFunction,Conductor*%
%TO.N,GND*%
G36*
X3124184Y2187360D02*
G01*
X3127037Y2182706D01*
X3265547Y1756840D01*
X3264847Y1747912D01*
X3258040Y1742095D01*
X3256749Y1741755D01*
X3026737Y1695064D01*
X3022081Y1695064D01*
X2792068Y1741755D01*
X2784642Y1746759D01*
X2782930Y1755549D01*
X2783266Y1756829D01*
X2921781Y2182706D01*
X2927598Y2189513D01*
X2932907Y2190787D01*
X3115911Y2190787D01*
X3124184Y2187360D01*
G37*
%TD.AperFunction*%
%TD*%
%TA.AperFunction,Conductor*%
%TO.N,GND*%
G36*
X-2183413Y-610652D02*
G01*
X-2177596Y-617459D01*
X-2177256Y-618750D01*
X-2130565Y-848763D01*
X-2130565Y-853419D01*
X-2177256Y-1083431D01*
X-2182260Y-1090857D01*
X-2191050Y-1092569D01*
X-2192341Y-1092229D01*
X-2618207Y-953719D01*
X-2625014Y-947902D01*
X-2626288Y-942593D01*
X-2626288Y-759588D01*
X-2622861Y-751315D01*
X-2618210Y-748463D01*
X-2192340Y-609952D01*
X-2183413Y-610652D01*
G37*
%TD.AperFunction*%
%TD*%
M02*
