%TF.GenerationSoftware,KiCad,Pcbnew,9.0.0*%
%TF.CreationDate,2025-02-27T18:52:30+00:00*%
%TF.ProjectId,vm_rgb_led_0.1,766d5f72-6762-45f6-9c65-645f302e312e,v0.1*%
%TF.SameCoordinates,PX52f83c0PY47868c0*%
%TF.FileFunction,Paste,Top*%
%TF.FilePolarity,Positive*%
%FSLAX46Y46*%
G04 Gerber Fmt 4.6, Leading zero omitted, Abs format (unit mm)*
G04 Created by KiCad (PCBNEW 9.0.0) date 2025-02-27 18:52:30*
%MOMM*%
%LPD*%
G01*
G04 APERTURE LIST*
%ADD10R,0.810000X0.860000*%
%ADD11R,0.800000X0.700000*%
%ADD12R,0.800000X0.800000*%
%ADD13R,0.800000X0.900000*%
%ADD14O,0.360000X1.740000*%
%ADD15R,1.230000X1.360000*%
G04 APERTURE END LIST*
D10*
%TO.C,R2*%
X5350000Y2200000D03*
X3850000Y2200000D03*
%TD*%
%TO.C,R3*%
X3850000Y5000000D03*
X5350000Y5000000D03*
%TD*%
%TO.C,R4*%
X3850000Y3600000D03*
X5350000Y3600000D03*
%TD*%
D11*
%TO.C,D2*%
X5450000Y-550000D03*
X3750000Y-550000D03*
X3750000Y550000D03*
X5450000Y550000D03*
%TD*%
D10*
%TO.C,R1*%
X-1450000Y-4600000D03*
X50000Y-4600000D03*
%TD*%
D12*
%TO.C,D1*%
X2000000Y-850000D03*
X2000000Y850000D03*
%TD*%
D13*
%TO.C,C1*%
X-4000000Y-4600000D03*
X-2600000Y-4600000D03*
%TD*%
D14*
%TO.C,U1*%
X-4930000Y-2870000D03*
X-4280000Y-2870000D03*
X-3630000Y-2870000D03*
X-2980000Y-2870000D03*
X-2320000Y-2870000D03*
X-1670000Y-2870000D03*
X-1020000Y-2870000D03*
X-370000Y-2870000D03*
X280000Y-2870000D03*
X930000Y-2870000D03*
X930000Y2870000D03*
X280000Y2870000D03*
X-370000Y2870000D03*
X-1020000Y2870000D03*
X-1670000Y2870000D03*
X-2320000Y2870000D03*
X-2980000Y2870000D03*
X-3630000Y2870000D03*
X-4280000Y2870000D03*
X-4930000Y2870000D03*
%TD*%
D15*
%TO.C,SW1*%
X180000Y-7000000D03*
X-4180000Y-7000000D03*
%TD*%
M02*
