%TF.GenerationSoftware,KiCad,Pcbnew,9.0.0*%
%TF.CreationDate,2025-02-27T18:52:30+00:00*%
%TF.ProjectId,vm_rgb_led_0.1,766d5f72-6762-45f6-9c65-645f302e312e,v0.1*%
%TF.SameCoordinates,PX52f83c0PY47868c0*%
%TF.FileFunction,Copper,L2,Bot*%
%TF.FilePolarity,Positive*%
%FSLAX46Y46*%
G04 Gerber Fmt 4.6, Leading zero omitted, Abs format (unit mm)*
G04 Created by KiCad (PCBNEW 9.0.0) date 2025-02-27 18:52:30*
%MOMM*%
%LPD*%
G01*
G04 APERTURE LIST*
G04 Aperture macros list*
%AMRoundRect*
0 Rectangle with rounded corners*
0 $1 Rounding radius*
0 $2 $3 $4 $5 $6 $7 $8 $9 X,Y pos of 4 corners*
0 Add a 4 corners polygon primitive as box body*
4,1,4,$2,$3,$4,$5,$6,$7,$8,$9,$2,$3,0*
0 Add four circle primitives for the rounded corners*
1,1,$1+$1,$2,$3*
1,1,$1+$1,$4,$5*
1,1,$1+$1,$6,$7*
1,1,$1+$1,$8,$9*
0 Add four rect primitives between the rounded corners*
20,1,$1+$1,$2,$3,$4,$5,0*
20,1,$1+$1,$4,$5,$6,$7,0*
20,1,$1+$1,$6,$7,$8,$9,0*
20,1,$1+$1,$8,$9,$2,$3,0*%
G04 Aperture macros list end*
%TA.AperFunction,ComponentPad*%
%ADD10RoundRect,0.172720X-0.259080X-0.259080X0.259080X-0.259080X0.259080X0.259080X-0.259080X0.259080X0*%
%TD*%
%TA.AperFunction,ComponentPad*%
%ADD11C,0.863600*%
%TD*%
%TA.AperFunction,ViaPad*%
%ADD12C,0.500000*%
%TD*%
%TA.AperFunction,Conductor*%
%ADD13C,0.200000*%
%TD*%
G04 APERTURE END LIST*
D10*
%TO.P,J1,1,Vcc*%
%TO.N,+3V3*%
X-730000Y7474800D03*
D11*
%TO.P,J1,2,SWDIO*%
%TO.N,/SWDIO*%
X-730000Y5900000D03*
%TO.P,J1,3,GND*%
%TO.N,GND*%
X-2000000Y7474800D03*
%TO.P,J1,4,SWDCLK*%
%TO.N,/SWCLK*%
X-2000000Y5900000D03*
%TO.P,J1,5,~{RESET}*%
%TO.N,/nRESET*%
X-3270000Y7474800D03*
%TD*%
D12*
%TO.N,GND*%
X900000Y6700000D03*
X2004409Y1695591D03*
X-3151092Y-851091D03*
X-1000000Y-7000000D03*
%TO.N,/JD_DATA*%
X-4500000Y1300000D03*
X-6200000Y0D03*
%TD*%
D13*
%TO.N,GND*%
X2004409Y5595591D02*
X900000Y6700000D01*
X-1457727Y-851091D02*
X-1000000Y-1308818D01*
X-1000000Y-7000000D02*
X-1000000Y-1308818D01*
X2024409Y5080000D02*
X2004409Y5100000D01*
X2004409Y1695591D02*
X2004409Y5100000D01*
X2004409Y1695591D02*
X-1000000Y-1308818D01*
X-3151092Y-851091D02*
X-1457727Y-851091D01*
X2004409Y5100000D02*
X2004409Y5595591D01*
%TO.N,/JD_DATA*%
X-4500000Y1300000D02*
X-5800000Y0D01*
X-5800000Y0D02*
X-6200000Y0D01*
%TD*%
%TA.AperFunction,Conductor*%
%TO.N,GND*%
G36*
X-900225Y-6508231D02*
G01*
X-897372Y-6512885D01*
X-758862Y-6938751D01*
X-759562Y-6947679D01*
X-766369Y-6953496D01*
X-767660Y-6953836D01*
X-997672Y-7000527D01*
X-1002328Y-7000527D01*
X-1232341Y-6953836D01*
X-1239767Y-6948832D01*
X-1241479Y-6940042D01*
X-1241143Y-6938762D01*
X-1102628Y-6512885D01*
X-1096811Y-6506078D01*
X-1091502Y-6504804D01*
X-908498Y-6504804D01*
X-900225Y-6508231D01*
G37*
%TD.AperFunction*%
%TD*%
%TA.AperFunction,Conductor*%
%TO.N,/JD_DATA*%
G36*
X-4698085Y1432320D02*
G01*
X-4696932Y1431648D01*
X-4501274Y1302019D01*
X-4497982Y1298727D01*
X-4368353Y1103069D01*
X-4366641Y1094280D01*
X-4371645Y1086853D01*
X-4372798Y1086181D01*
X-4771873Y882989D01*
X-4780801Y882289D01*
X-4785455Y885142D01*
X-4914859Y1014546D01*
X-4918286Y1022819D01*
X-4917014Y1028123D01*
X-4713819Y1427205D01*
X-4707013Y1433020D01*
X-4698085Y1432320D01*
G37*
%TD.AperFunction*%
%TD*%
%TA.AperFunction,Conductor*%
%TO.N,GND*%
G36*
X2104184Y2187360D02*
G01*
X2107037Y2182706D01*
X2245547Y1756840D01*
X2244847Y1747912D01*
X2238040Y1742095D01*
X2236749Y1741755D01*
X2006737Y1695064D01*
X2002081Y1695064D01*
X1772068Y1741755D01*
X1764642Y1746759D01*
X1762930Y1755549D01*
X1763266Y1756829D01*
X1901781Y2182706D01*
X1907598Y2189513D01*
X1912907Y2190787D01*
X2095911Y2190787D01*
X2104184Y2187360D01*
G37*
%TD.AperFunction*%
%TD*%
%TA.AperFunction,Conductor*%
%TO.N,GND*%
G36*
X1113147Y6828356D02*
G01*
X1113819Y6827203D01*
X1179233Y6698727D01*
X1317011Y6428128D01*
X1317711Y6419200D01*
X1314858Y6414546D01*
X1185454Y6285142D01*
X1177181Y6281715D01*
X1171873Y6282989D01*
X772797Y6486181D01*
X766980Y6492988D01*
X767680Y6501916D01*
X768352Y6503069D01*
X897981Y6698727D01*
X901273Y6702019D01*
X1090222Y6827203D01*
X1096931Y6831649D01*
X1105720Y6833360D01*
X1113147Y6828356D01*
G37*
%TD.AperFunction*%
%TD*%
%TA.AperFunction,Conductor*%
%TO.N,GND*%
G36*
X-3089851Y-609950D02*
G01*
X-2663976Y-748463D01*
X-2657170Y-754279D01*
X-2655896Y-759588D01*
X-2655896Y-942593D01*
X-2659323Y-950866D01*
X-2663977Y-953719D01*
X-3089844Y-1092229D01*
X-3098772Y-1091529D01*
X-3104589Y-1084722D01*
X-3104929Y-1083431D01*
X-3151620Y-853416D01*
X-3151620Y-848765D01*
X-3104929Y-618748D01*
X-3099925Y-611324D01*
X-3091135Y-609612D01*
X-3089851Y-609950D01*
G37*
%TD.AperFunction*%
%TD*%
%TA.AperFunction,Conductor*%
%TO.N,GND*%
G36*
X1806324Y1827911D02*
G01*
X1807477Y1827239D01*
X2003135Y1697610D01*
X2006427Y1694318D01*
X2136056Y1498660D01*
X2137768Y1489871D01*
X2132764Y1482444D01*
X2131611Y1481772D01*
X1732536Y1278580D01*
X1723608Y1277880D01*
X1718954Y1280733D01*
X1589550Y1410137D01*
X1586123Y1418410D01*
X1587395Y1423714D01*
X1790590Y1822796D01*
X1797396Y1828611D01*
X1806324Y1827911D01*
G37*
%TD.AperFunction*%
%TD*%
%TA.AperFunction,Conductor*%
%TO.N,/JD_DATA*%
G36*
X-6138869Y241389D02*
G01*
X-5806170Y138879D01*
X-5801344Y135972D01*
X-5673337Y7965D01*
X-5669910Y-308D01*
X-5673337Y-8581D01*
X-5676275Y-10721D01*
X-6051870Y-203134D01*
X-6060796Y-203856D01*
X-6066908Y-199259D01*
X-6197976Y-4760D01*
X-6199757Y4015D01*
X-6199743Y4086D01*
X-6153779Y232514D01*
X-6148788Y239949D01*
X-6140001Y241676D01*
X-6138869Y241389D01*
G37*
%TD.AperFunction*%
%TD*%
M02*
