%TF.GenerationSoftware,KiCad,Pcbnew,9.0.0*%
%TF.CreationDate,2025-02-28T17:52:26+00:00*%
%TF.ProjectId,vm_rgb_led_0.1,766d5f72-6762-45f6-9c65-645f302e312e,v0.1*%
%TF.SameCoordinates,PX5204180PY47868c0*%
%TF.FileFunction,Copper,L1,Top*%
%TF.FilePolarity,Positive*%
%FSLAX46Y46*%
G04 Gerber Fmt 4.6, Leading zero omitted, Abs format (unit mm)*
G04 Created by KiCad (PCBNEW 9.0.0) date 2025-02-28 17:52:26*
%MOMM*%
%LPD*%
G01*
G04 APERTURE LIST*
G04 Aperture macros list*
%AMRoundRect*
0 Rectangle with rounded corners*
0 $1 Rounding radius*
0 $2 $3 $4 $5 $6 $7 $8 $9 X,Y pos of 4 corners*
0 Add a 4 corners polygon primitive as box body*
4,1,4,$2,$3,$4,$5,$6,$7,$8,$9,$2,$3,0*
0 Add four circle primitives for the rounded corners*
1,1,$1+$1,$2,$3*
1,1,$1+$1,$4,$5*
1,1,$1+$1,$6,$7*
1,1,$1+$1,$8,$9*
0 Add four rect primitives between the rounded corners*
20,1,$1+$1,$2,$3,$4,$5,0*
20,1,$1+$1,$4,$5,$6,$7,0*
20,1,$1+$1,$6,$7,$8,$9,0*
20,1,$1+$1,$8,$9,$2,$3,0*%
G04 Aperture macros list end*
%TA.AperFunction,SMDPad,CuDef*%
%ADD10C,0.100000*%
%TD*%
%TA.AperFunction,ComponentPad*%
%ADD11RoundRect,0.172720X-0.259080X-0.259080X0.259080X-0.259080X0.259080X0.259080X-0.259080X0.259080X0*%
%TD*%
%TA.AperFunction,ComponentPad*%
%ADD12C,0.863600*%
%TD*%
%TA.AperFunction,SMDPad,CuDef*%
%ADD13R,0.700000X1.000000*%
%TD*%
%TA.AperFunction,SMDPad,CuDef*%
%ADD14R,0.800000X0.800000*%
%TD*%
%TA.AperFunction,SMDPad,CuDef*%
%ADD15R,0.800000X0.900000*%
%TD*%
%TA.AperFunction,SMDPad,CuDef*%
%ADD16R,0.810000X0.860000*%
%TD*%
%TA.AperFunction,SMDPad,CuDef*%
%ADD17O,0.360000X1.740000*%
%TD*%
%TA.AperFunction,SMDPad,CuDef*%
%ADD18R,1.230000X1.360000*%
%TD*%
%TA.AperFunction,SMDPad,CuDef*%
%ADD19R,0.800000X0.700000*%
%TD*%
%TA.AperFunction,ViaPad*%
%ADD20C,0.500000*%
%TD*%
%TA.AperFunction,Conductor*%
%ADD21C,0.200000*%
%TD*%
G04 APERTURE END LIST*
D10*
%TO.P,GS3,1,JD_DATA*%
%TO.N,/JD_DATA*%
X-8000000Y0D03*
%TD*%
D11*
%TO.P,J1,1,Vcc*%
%TO.N,+3V3*%
X290000Y7474800D03*
D12*
%TO.P,J1,2,SWDIO*%
%TO.N,/SWDIO*%
X290000Y5900000D03*
%TO.P,J1,3,GND*%
%TO.N,GND*%
X-980000Y7474800D03*
%TO.P,J1,4,SWDCLK*%
%TO.N,/SWCLK*%
X-980000Y5900000D03*
%TO.P,J1,5,~{RESET}*%
%TO.N,/nRESET*%
X-2250000Y7474800D03*
%TD*%
D13*
%TO.P,U2,1,IN*%
%TO.N,/JD_PWR*%
X-5050000Y1200000D03*
%TO.P,U2,2,GND*%
%TO.N,GND*%
X-6000000Y1200000D03*
%TO.P,U2,3,EN*%
%TO.N,/JD_PWR*%
X-6950000Y1200000D03*
%TO.P,U2,4,N/C*%
%TO.N,GND*%
X-6950000Y-1200000D03*
%TO.P,U2,5,OUT*%
%TO.N,+3V3*%
X-5050000Y-1200000D03*
%TD*%
D14*
%TO.P,D1,1*%
%TO.N,Net-(D1-Pad1)*%
X3020000Y-850000D03*
%TO.P,D1,2*%
%TO.N,GND*%
X3020000Y850000D03*
%TD*%
D15*
%TO.P,C2,1*%
%TO.N,/JD_PWR*%
X-5170000Y2600000D03*
%TO.P,C2,2*%
%TO.N,GND*%
X-6570000Y2600000D03*
%TD*%
%TO.P,C3,1*%
%TO.N,+3V3*%
X-5170000Y-2500000D03*
%TO.P,C3,2*%
%TO.N,GND*%
X-6570000Y-2500000D03*
%TD*%
D16*
%TO.P,R2,1*%
%TO.N,Net-(D2-R)*%
X6350000Y2200000D03*
%TO.P,R2,2*%
%TO.N,/JD_RGB_R*%
X4850000Y2200000D03*
%TD*%
%TO.P,R4,1*%
%TO.N,Net-(D2-G)*%
X6350000Y3600000D03*
%TO.P,R4,2*%
%TO.N,/JD_RGB_G*%
X4850000Y3600000D03*
%TD*%
D17*
%TO.P,U1,1,PB7/PB8*%
%TO.N,/JD_STATUS*%
X-3910000Y-2870000D03*
%TO.P,U1,2,PB9/PC14-OSC32_IN*%
%TO.N,/nFLASH*%
X-3260000Y-2870000D03*
%TO.P,U1,3,PC15-OSC32_OUT*%
%TO.N,unconnected-(U1-PC15-OSC32_OUT-Pad3)*%
X-2610000Y-2870000D03*
%TO.P,U1,4,VDD/VDDA*%
%TO.N,+3V3*%
X-1960000Y-2870000D03*
%TO.P,U1,5,VSS/VSSA*%
%TO.N,GND*%
X-1300000Y-2870000D03*
%TO.P,U1,6,NRST*%
%TO.N,/nRESET*%
X-650000Y-2870000D03*
%TO.P,U1,7,PA0*%
%TO.N,unconnected-(U1-PA0-Pad7)*%
X0Y-2870000D03*
%TO.P,U1,8,PA1*%
%TO.N,unconnected-(U1-PA1-Pad8)*%
X650000Y-2870000D03*
%TO.P,U1,9,PA2*%
%TO.N,unconnected-(U1-PA2-Pad9)*%
X1300000Y-2870000D03*
%TO.P,U1,10,PA3*%
%TO.N,unconnected-(U1-PA3-Pad10)*%
X1950000Y-2870000D03*
%TO.P,U1,11,PA4*%
%TO.N,unconnected-(U1-PA4-Pad11)*%
X1950000Y2870000D03*
%TO.P,U1,12,PA5*%
%TO.N,unconnected-(U1-PA5-Pad12)*%
X1300000Y2870000D03*
%TO.P,U1,13,PA6*%
%TO.N,/JD_RGB_R*%
X650000Y2870000D03*
%TO.P,U1,14,PA7*%
%TO.N,/JD_RGB_G*%
X0Y2870000D03*
%TO.P,U1,15,PB0/PB1/PB2/PA8*%
%TO.N,/JD_RGB_B*%
X-650000Y2870000D03*
%TO.P,U1,16,PA11[PA9]*%
%TO.N,unconnected-(U1-PA11[PA9]-Pad16)*%
X-1300000Y2870000D03*
%TO.P,U1,17,PA12[PA10]*%
%TO.N,unconnected-(U1-PA12[PA10]-Pad17)*%
X-1960000Y2870000D03*
%TO.P,U1,18,PA13*%
%TO.N,/SWDIO*%
X-2610000Y2870000D03*
%TO.P,U1,19,PA15/PA14-BOOT0*%
%TO.N,/SWCLK*%
X-3260000Y2870000D03*
%TO.P,U1,20,PB3/PB4/PB5/PB6*%
%TO.N,/JD_DATA*%
X-3910000Y2870000D03*
%TD*%
D18*
%TO.P,SW1,1,1*%
%TO.N,GND*%
X1200000Y-7000000D03*
%TO.P,SW1,2,2*%
%TO.N,/nFLASH*%
X-3160000Y-7000000D03*
%TD*%
D10*
%TO.P,GS2,1,GND*%
%TO.N,GND*%
X-8000000Y-6000000D03*
%TD*%
D16*
%TO.P,R3,1*%
%TO.N,Net-(D2-B)*%
X6350000Y5000000D03*
%TO.P,R3,2*%
%TO.N,/JD_RGB_B*%
X4850000Y5000000D03*
%TD*%
D15*
%TO.P,C1,1*%
%TO.N,+3V3*%
X-2980000Y-4600000D03*
%TO.P,C1,2*%
%TO.N,GND*%
X-1580000Y-4600000D03*
%TD*%
D10*
%TO.P,GS1,1,JD_PWR*%
%TO.N,/JD_PWR*%
X-8000000Y6000000D03*
%TD*%
D16*
%TO.P,R1,1*%
%TO.N,/JD_STATUS*%
X-430000Y-4600000D03*
%TO.P,R1,2*%
%TO.N,Net-(D1-Pad1)*%
X1070000Y-4600000D03*
%TD*%
D19*
%TO.P,D2,1,R*%
%TO.N,Net-(D2-R)*%
X6450000Y-550000D03*
%TO.P,D2,2,B*%
%TO.N,Net-(D2-B)*%
X4750000Y-550000D03*
%TO.P,D2,3*%
%TO.N,+3V3*%
X4750000Y550000D03*
%TO.P,D2,4,G*%
%TO.N,Net-(D2-G)*%
X6450000Y550000D03*
%TD*%
D20*
%TO.N,GND*%
X-2131092Y-851091D03*
X20000Y-7000000D03*
X1920000Y6700000D03*
X-6000000Y-1200000D03*
X3024409Y1695591D03*
X-6600000Y3600000D03*
%TO.N,+3V3*%
X-4400000Y4800000D03*
X-3900000Y0D03*
%TO.N,/nRESET*%
X-1300000Y1000000D03*
X-3128909Y4528909D03*
%TD*%
D21*
%TO.N,GND*%
X-980000Y7474800D02*
X-205200Y6700000D01*
X-8000000Y-6000000D02*
X-7160000Y-6000000D01*
X-6570000Y2600000D02*
X-6570000Y3570000D01*
X3020000Y1691182D02*
X3024409Y1695591D01*
X-1300000Y-4320000D02*
X-1300000Y-2870000D01*
X-3999000Y-7981000D02*
X-6570000Y-5410000D01*
X-961000Y-7981000D02*
X-3999000Y-7981000D01*
X3020000Y850000D02*
X3020000Y1691182D01*
X-6570000Y-2500000D02*
X-6570000Y-1580000D01*
X-6570000Y3570000D02*
X-6600000Y3600000D01*
X-1300000Y-2870000D02*
X-1300000Y-1682183D01*
X-6570000Y-1580000D02*
X-6950000Y-1200000D01*
X1200000Y-7000000D02*
X20000Y-7000000D01*
X-1580000Y-4600000D02*
X-1300000Y-4320000D01*
X-6950000Y-1200000D02*
X-6000000Y-1200000D01*
X-205200Y6700000D02*
X1920000Y6700000D01*
X-6000000Y2030000D02*
X-6000000Y1200000D01*
X-1300000Y-1682183D02*
X-2131092Y-851091D01*
X-6570000Y2600000D02*
X-6000000Y2030000D01*
X-7160000Y-6000000D02*
X-6570000Y-5410000D01*
X20000Y-7000000D02*
X-961000Y-7981000D01*
X-6570000Y-5410000D02*
X-6570000Y-2500000D01*
%TO.N,+3V3*%
X290000Y7474800D02*
X-442800Y8207600D01*
X5600000Y1619100D02*
X5600000Y5600000D01*
X-1960000Y-3680000D02*
X-1960000Y-2870000D01*
X-2560001Y-1200000D02*
X-1960000Y-1800001D01*
X-5170000Y-1320000D02*
X-5050000Y-1200000D01*
X3725200Y7474800D02*
X290000Y7474800D01*
X-3900000Y-1200000D02*
X-2560001Y-1200000D01*
X-2880000Y-4600000D02*
X-1960000Y-3680000D01*
X5600000Y5600000D02*
X3725200Y7474800D01*
X4750000Y769100D02*
X5600000Y1619100D01*
X-2980000Y-4600000D02*
X-2880000Y-4600000D01*
X4750000Y550000D02*
X4750000Y769100D01*
X-4399000Y4801000D02*
X-4400000Y4800000D01*
X-1960000Y-1800001D02*
X-1960000Y-2870000D01*
X-5050000Y-1200000D02*
X-3900000Y-1200000D01*
X-442800Y8207600D02*
X-2553536Y8207600D01*
X-4399000Y6362136D02*
X-4399000Y4801000D01*
X-5170000Y-2500000D02*
X-5170000Y-1320000D01*
X-2553536Y8207600D02*
X-4399000Y6362136D01*
X-3900000Y0D02*
X-3900000Y-1200000D01*
%TO.N,Net-(D1-Pad1)*%
X1070000Y-4600000D02*
X1675000Y-4600000D01*
X1675000Y-4600000D02*
X3020000Y-3255000D01*
X3020000Y-3255000D02*
X3020000Y-850000D01*
%TO.N,/JD_DATA*%
X-3910000Y2870000D02*
X-3910000Y990000D01*
X-4901000Y-1000D02*
X-7999000Y-1000D01*
X-7999000Y-1000D02*
X-8000000Y0D01*
X-3910000Y990000D02*
X-4901000Y-1000D01*
%TO.N,/SWDIO*%
X-1112800Y5167200D02*
X-676464Y5167200D01*
X-676464Y5167200D02*
X56336Y5900000D01*
X-2610000Y3670000D02*
X-2610000Y2870000D01*
X-1112800Y5167200D02*
X-2610000Y3670000D01*
X56336Y5900000D02*
X290000Y5900000D01*
%TO.N,/SWCLK*%
X-980000Y5900000D02*
X-3260000Y3620000D01*
X-3260000Y3620000D02*
X-3260000Y2870000D01*
%TO.N,/nRESET*%
X-1300000Y1000000D02*
X-650000Y350000D01*
X-650000Y350000D02*
X-650000Y-2870000D01*
X-2250000Y5407818D02*
X-3128909Y4528909D01*
X-2250000Y7474800D02*
X-2250000Y5407818D01*
%TO.N,/JD_STATUS*%
X-3910000Y-4969000D02*
X-3910000Y-2870000D01*
X-430000Y-5230000D02*
X-551000Y-5351000D01*
X-3528000Y-5351000D02*
X-3910000Y-4969000D01*
X-430000Y-4600000D02*
X-430000Y-5230000D01*
X-551000Y-5351000D02*
X-3528000Y-5351000D01*
%TO.N,/nFLASH*%
X-3361000Y-1699000D02*
X-4109237Y-1699000D01*
X-3260000Y-1800000D02*
X-3361000Y-1699000D01*
X-4391000Y-5769000D02*
X-3160000Y-7000000D01*
X-3260000Y-2870000D02*
X-3260000Y-1800000D01*
X-4109237Y-1699000D02*
X-4391000Y-1980763D01*
X-4391000Y-1980763D02*
X-4391000Y-5769000D01*
%TO.N,Net-(D2-B)*%
X7457000Y3893000D02*
X6350000Y5000000D01*
X7151000Y-1201000D02*
X7457000Y-895000D01*
X5401000Y-1201000D02*
X7151000Y-1201000D01*
X7457000Y-895000D02*
X7457000Y3893000D01*
X4750000Y-550000D02*
X5401000Y-1201000D01*
%TO.N,Net-(D2-R)*%
X6450000Y-550000D02*
X5850000Y-550000D01*
X5850000Y-550000D02*
X5749000Y-449000D01*
X5749000Y-449000D02*
X5749000Y1201000D01*
X6350000Y2150000D02*
X6400000Y2100000D01*
X6350000Y1802000D02*
X6350000Y2200000D01*
X6350000Y2200000D02*
X6350000Y2150000D01*
X5749000Y1201000D02*
X6350000Y1802000D01*
%TO.N,Net-(D2-G)*%
X7056000Y1156000D02*
X7056000Y2894000D01*
X7056000Y2894000D02*
X6350000Y3600000D01*
X6450000Y550000D02*
X7056000Y1156000D01*
%TO.N,/JD_RGB_R*%
X4850000Y2200000D02*
X3009000Y4041000D01*
X650000Y3940000D02*
X650000Y2870000D01*
X3009000Y4041000D02*
X751000Y4041000D01*
X751000Y4041000D02*
X650000Y3940000D01*
%TO.N,/JD_RGB_B*%
X4850000Y5000000D02*
X410000Y5000000D01*
X-650000Y3940000D02*
X-650000Y2870000D01*
X410000Y5000000D02*
X-650000Y3940000D01*
%TO.N,/JD_RGB_G*%
X4008000Y4442000D02*
X502000Y4442000D01*
X502000Y4442000D02*
X0Y3940000D01*
X4850000Y3600000D02*
X4008000Y4442000D01*
X0Y3940000D02*
X0Y2870000D01*
%TO.N,/JD_PWR*%
X-5151000Y399000D02*
X-6849000Y399000D01*
X-5170000Y3170000D02*
X-5170000Y2600000D01*
X-5170000Y2600000D02*
X-5170000Y1320000D01*
X-6849000Y399000D02*
X-6950000Y500000D01*
X-5170000Y1320000D02*
X-5050000Y1200000D01*
X-5050000Y500000D02*
X-5151000Y399000D01*
X-5050000Y1200000D02*
X-5050000Y500000D01*
X-6950000Y400000D02*
X-6950000Y1100000D01*
X-8000000Y6000000D02*
X-5170000Y3170000D01*
%TD*%
%TA.AperFunction,Conductor*%
%TO.N,GND*%
G36*
X-6366886Y3553680D02*
G01*
X-6359460Y3548676D01*
X-6357748Y3539886D01*
X-6357885Y3539291D01*
X-6467735Y3113581D01*
X-6473120Y3106426D01*
X-6479064Y3104804D01*
X-6662023Y3104804D01*
X-6670296Y3108231D01*
X-6672914Y3112230D01*
X-6840107Y3538259D01*
X-6839940Y3547212D01*
X-6833490Y3553424D01*
X-6831553Y3553997D01*
X-6602325Y3600528D01*
X-6597675Y3600528D01*
X-6366886Y3553680D01*
G37*
%TD.AperFunction*%
%TD*%
%TA.AperFunction,Conductor*%
%TO.N,GND*%
G36*
X1867679Y6940439D02*
G01*
X1873496Y6933632D01*
X1873836Y6932341D01*
X1920527Y6702328D01*
X1920527Y6697672D01*
X1873836Y6467660D01*
X1868832Y6460234D01*
X1860042Y6458522D01*
X1858751Y6458862D01*
X1432885Y6597372D01*
X1426078Y6603189D01*
X1424804Y6608498D01*
X1424804Y6791503D01*
X1428231Y6799776D01*
X1432882Y6802628D01*
X1858752Y6941139D01*
X1867679Y6940439D01*
G37*
%TD.AperFunction*%
%TD*%
%TA.AperFunction,Conductor*%
%TO.N,+3V3*%
G36*
X-4299243Y5291769D02*
G01*
X-4296382Y5287092D01*
X-4158828Y4861231D01*
X-4159546Y4852305D01*
X-4166366Y4846501D01*
X-4167634Y4846169D01*
X-4397672Y4799473D01*
X-4402328Y4799473D01*
X-4632315Y4846159D01*
X-4639741Y4851163D01*
X-4641453Y4859953D01*
X-4641112Y4861247D01*
X-4501639Y5287137D01*
X-4495807Y5293933D01*
X-4490520Y5295196D01*
X-4307516Y5295196D01*
X-4299243Y5291769D01*
G37*
%TD.AperFunction*%
%TD*%
%TA.AperFunction,Conductor*%
%TO.N,/nRESET*%
G36*
X-1086853Y1128356D02*
G01*
X-1086181Y1127203D01*
X-1020767Y998727D01*
X-882989Y728128D01*
X-882289Y719200D01*
X-885142Y714546D01*
X-1014546Y585142D01*
X-1022819Y581715D01*
X-1028127Y582989D01*
X-1427203Y786181D01*
X-1433020Y792988D01*
X-1432320Y801916D01*
X-1431648Y803069D01*
X-1302019Y998727D01*
X-1298727Y1002019D01*
X-1109778Y1127203D01*
X-1103069Y1131649D01*
X-1094280Y1133360D01*
X-1086853Y1128356D01*
G37*
%TD.AperFunction*%
%TD*%
%TA.AperFunction,Conductor*%
%TO.N,/nRESET*%
G36*
X-2843455Y4943768D02*
G01*
X-2714051Y4814364D01*
X-2710624Y4806091D01*
X-2711898Y4800782D01*
X-2915090Y4401707D01*
X-2921897Y4395890D01*
X-2930825Y4396590D01*
X-2931978Y4397262D01*
X-3127636Y4526891D01*
X-3130928Y4530183D01*
X-3260557Y4725841D01*
X-3262269Y4734630D01*
X-3257265Y4742057D01*
X-3256126Y4742722D01*
X-2857034Y4945922D01*
X-2848109Y4946621D01*
X-2843455Y4943768D01*
G37*
%TD.AperFunction*%
%TD*%
%TA.AperFunction,Conductor*%
%TO.N,GND*%
G36*
X3256633Y1649452D02*
G01*
X3264058Y1644448D01*
X3265770Y1635658D01*
X3265398Y1634268D01*
X3122675Y1208377D01*
X3116797Y1201622D01*
X3111581Y1200395D01*
X2928578Y1200395D01*
X2920305Y1203822D01*
X2917420Y1208576D01*
X2783123Y1634420D01*
X2783903Y1643341D01*
X2790762Y1649097D01*
X2791937Y1649401D01*
X3022084Y1696119D01*
X3026734Y1696119D01*
X3256633Y1649452D01*
G37*
%TD.AperFunction*%
%TD*%
%TA.AperFunction,Conductor*%
%TO.N,GND*%
G36*
X-1917945Y-722735D02*
G01*
X-1917273Y-723888D01*
X-1851859Y-852364D01*
X-1714081Y-1122963D01*
X-1713381Y-1131891D01*
X-1716234Y-1136545D01*
X-1845638Y-1265949D01*
X-1853911Y-1269376D01*
X-1859219Y-1268102D01*
X-2258295Y-1064910D01*
X-2264112Y-1058103D01*
X-2263412Y-1049175D01*
X-2262740Y-1048022D01*
X-2133111Y-852364D01*
X-2129819Y-849072D01*
X-1940870Y-723888D01*
X-1934161Y-719442D01*
X-1925372Y-717731D01*
X-1917945Y-722735D01*
G37*
%TD.AperFunction*%
%TD*%
%TA.AperFunction,Conductor*%
%TO.N,GND*%
G36*
X-178085Y-6867680D02*
G01*
X-176932Y-6868352D01*
X18726Y-6997981D01*
X22018Y-7001273D01*
X151647Y-7196931D01*
X153359Y-7205720D01*
X148355Y-7213147D01*
X147202Y-7213819D01*
X-251873Y-7417011D01*
X-260801Y-7417711D01*
X-265455Y-7414858D01*
X-394859Y-7285454D01*
X-398286Y-7277181D01*
X-397014Y-7271877D01*
X-193819Y-6872795D01*
X-187013Y-6866980D01*
X-178085Y-6867680D01*
G37*
%TD.AperFunction*%
%TD*%
%TA.AperFunction,Conductor*%
%TO.N,GND*%
G36*
X-6052321Y-959561D02*
G01*
X-6046504Y-966368D01*
X-6046164Y-967659D01*
X-5999473Y-1197672D01*
X-5999473Y-1202328D01*
X-6046164Y-1432340D01*
X-6051168Y-1439766D01*
X-6059958Y-1441478D01*
X-6061249Y-1441138D01*
X-6487115Y-1302628D01*
X-6493922Y-1296811D01*
X-6495196Y-1291502D01*
X-6495196Y-1108497D01*
X-6491769Y-1100224D01*
X-6487118Y-1097372D01*
X-6061248Y-958861D01*
X-6052321Y-959561D01*
G37*
%TD.AperFunction*%
%TD*%
%TA.AperFunction,Conductor*%
%TO.N,+3V3*%
G36*
X-3667660Y-46163D02*
G01*
X-3660234Y-51167D01*
X-3658522Y-59957D01*
X-3658862Y-61248D01*
X-3797372Y-487115D01*
X-3803189Y-493922D01*
X-3808498Y-495196D01*
X-3991502Y-495196D01*
X-3999775Y-491769D01*
X-4002628Y-487115D01*
X-4141139Y-61248D01*
X-4140439Y-52320D01*
X-4133632Y-46503D01*
X-4132350Y-46165D01*
X-3902325Y528D01*
X-3897675Y528D01*
X-3667660Y-46163D01*
G37*
%TD.AperFunction*%
%TD*%
%TA.AperFunction,Conductor*%
%TO.N,GND*%
G36*
X81241Y-6758859D02*
G01*
X507116Y-6897372D01*
X513922Y-6903188D01*
X515196Y-6908497D01*
X515196Y-7091502D01*
X511769Y-7099775D01*
X507115Y-7102628D01*
X81248Y-7241138D01*
X72320Y-7240438D01*
X66503Y-7233631D01*
X66163Y-7232340D01*
X19472Y-7002325D01*
X19472Y-6997674D01*
X66163Y-6767657D01*
X71167Y-6760233D01*
X79957Y-6758521D01*
X81241Y-6758859D01*
G37*
%TD.AperFunction*%
%TD*%
M02*
