%TF.GenerationSoftware,KiCad,Pcbnew,9.0.0*%
%TF.CreationDate,2025-02-28T17:52:26+00:00*%
%TF.ProjectId,vm_rgb_led_0.1,766d5f72-6762-45f6-9c65-645f302e312e,v0.1*%
%TF.SameCoordinates,PX5204180PY47868c0*%
%TF.FileFunction,Soldermask,Top*%
%TF.FilePolarity,Negative*%
%FSLAX46Y46*%
G04 Gerber Fmt 4.6, Leading zero omitted, Abs format (unit mm)*
G04 Created by KiCad (PCBNEW 9.0.0) date 2025-02-28 17:52:26*
%MOMM*%
%LPD*%
G01*
G04 APERTURE LIST*
G04 Aperture macros list*
%AMRoundRect*
0 Rectangle with rounded corners*
0 $1 Rounding radius*
0 $2 $3 $4 $5 $6 $7 $8 $9 X,Y pos of 4 corners*
0 Add a 4 corners polygon primitive as box body*
4,1,4,$2,$3,$4,$5,$6,$7,$8,$9,$2,$3,0*
0 Add four circle primitives for the rounded corners*
1,1,$1+$1,$2,$3*
1,1,$1+$1,$4,$5*
1,1,$1+$1,$6,$7*
1,1,$1+$1,$8,$9*
0 Add four rect primitives between the rounded corners*
20,1,$1+$1,$2,$3,$4,$5,0*
20,1,$1+$1,$4,$5,$6,$7,0*
20,1,$1+$1,$6,$7,$8,$9,0*
20,1,$1+$1,$8,$9,$2,$3,0*%
G04 Aperture macros list end*
%ADD10RoundRect,0.172720X-0.259080X-0.259080X0.259080X-0.259080X0.259080X0.259080X-0.259080X0.259080X0*%
%ADD11C,0.863600*%
%ADD12R,0.700000X1.000000*%
%ADD13R,0.800000X0.800000*%
%ADD14R,0.800000X0.900000*%
%ADD15R,0.810000X0.860000*%
%ADD16O,0.360000X1.740000*%
%ADD17R,1.230000X1.360000*%
%ADD18R,0.800000X0.700000*%
G04 APERTURE END LIST*
D10*
%TO.C,J1*%
X290000Y7474800D03*
D11*
X290000Y5900000D03*
X-980000Y7474800D03*
X-980000Y5900000D03*
X-2250000Y7474800D03*
%TD*%
D12*
%TO.C,U2*%
X-5050000Y1200000D03*
X-6000000Y1200000D03*
X-6950000Y1200000D03*
X-6950000Y-1200000D03*
X-5050000Y-1200000D03*
%TD*%
D13*
%TO.C,D1*%
X3020000Y-850000D03*
X3020000Y850000D03*
%TD*%
D14*
%TO.C,C2*%
X-5170000Y2600000D03*
X-6570000Y2600000D03*
%TD*%
%TO.C,C3*%
X-5170000Y-2500000D03*
X-6570000Y-2500000D03*
%TD*%
D15*
%TO.C,R2*%
X6350000Y2200000D03*
X4850000Y2200000D03*
%TD*%
%TO.C,R4*%
X6350000Y3600000D03*
X4850000Y3600000D03*
%TD*%
D16*
%TO.C,U1*%
X-3910000Y-2870000D03*
X-3260000Y-2870000D03*
X-2610000Y-2870000D03*
X-1960000Y-2870000D03*
X-1300000Y-2870000D03*
X-650000Y-2870000D03*
X0Y-2870000D03*
X650000Y-2870000D03*
X1300000Y-2870000D03*
X1950000Y-2870000D03*
X1950000Y2870000D03*
X1300000Y2870000D03*
X650000Y2870000D03*
X0Y2870000D03*
X-650000Y2870000D03*
X-1300000Y2870000D03*
X-1960000Y2870000D03*
X-2610000Y2870000D03*
X-3260000Y2870000D03*
X-3910000Y2870000D03*
%TD*%
D17*
%TO.C,SW1*%
X1200000Y-7000000D03*
X-3160000Y-7000000D03*
%TD*%
D15*
%TO.C,R3*%
X6350000Y5000000D03*
X4850000Y5000000D03*
%TD*%
D14*
%TO.C,C1*%
X-2980000Y-4600000D03*
X-1580000Y-4600000D03*
%TD*%
D15*
%TO.C,R1*%
X-430000Y-4600000D03*
X1070000Y-4600000D03*
%TD*%
D18*
%TO.C,D2*%
X6450000Y-550000D03*
X4750000Y-550000D03*
X4750000Y550000D03*
X6450000Y550000D03*
%TD*%
M02*
