%TF.GenerationSoftware,KiCad,Pcbnew,9.0.7*%
%TF.CreationDate,2026-03-30T19:28:11+01:00*%
%TF.ProjectId,jvm_environment_sensor,6a766d5f-656e-4766-9972-6f6e6d656e74,0.7*%
%TF.SameCoordinates,PX50d2eb0PY487ab00*%
%TF.FileFunction,Copper,L1,Top*%
%TF.FilePolarity,Positive*%
%FSLAX45Y45*%
G04 Gerber Fmt 4.5, Leading zero omitted, Abs format (unit mm)*
G04 Created by KiCad (PCBNEW 9.0.7) date 2026-03-30 19:28:11*
%MOMM*%
%LPD*%
G01*
G04 APERTURE LIST*
G04 Aperture macros list*
%AMRoundRect*
0 Rectangle with rounded corners*
0 $1 Rounding radius*
0 $2 $3 $4 $5 $6 $7 $8 $9 X,Y pos of 4 corners*
0 Add a 4 corners polygon primitive as box body*
4,1,4,$2,$3,$4,$5,$6,$7,$8,$9,$2,$3,0*
0 Add four circle primitives for the rounded corners*
1,1,$1+$1,$2,$3*
1,1,$1+$1,$4,$5*
1,1,$1+$1,$6,$7*
1,1,$1+$1,$8,$9*
0 Add four rect primitives between the rounded corners*
20,1,$1+$1,$2,$3,$4,$5,0*
20,1,$1+$1,$4,$5,$6,$7,0*
20,1,$1+$1,$6,$7,$8,$9,0*
20,1,$1+$1,$8,$9,$2,$3,0*%
G04 Aperture macros list end*
%TA.AperFunction,SMDPad,CuDef*%
%ADD10C,0.125000*%
%TD*%
%TA.AperFunction,SMDPad,CuDef*%
%ADD11RoundRect,0.225000X-0.225000X-0.250000X0.225000X-0.250000X0.225000X0.250000X-0.225000X0.250000X0*%
%TD*%
%TA.AperFunction,SMDPad,CuDef*%
%ADD12RoundRect,0.237500X0.237500X-0.250000X0.237500X0.250000X-0.237500X0.250000X-0.237500X-0.250000X0*%
%TD*%
%TA.AperFunction,SMDPad,CuDef*%
%ADD13RoundRect,0.150000X0.512500X0.150000X-0.512500X0.150000X-0.512500X-0.150000X0.512500X-0.150000X0*%
%TD*%
%TA.AperFunction,SMDPad,CuDef*%
%ADD14RoundRect,0.225000X-0.250000X0.225000X-0.250000X-0.225000X0.250000X-0.225000X0.250000X0.225000X0*%
%TD*%
%TA.AperFunction,SMDPad,CuDef*%
%ADD15RoundRect,0.237500X0.250000X0.237500X-0.250000X0.237500X-0.250000X-0.237500X0.250000X-0.237500X0*%
%TD*%
%TA.AperFunction,SMDPad,CuDef*%
%ADD16RoundRect,0.087500X-0.087500X0.187500X-0.087500X-0.187500X0.087500X-0.187500X0.087500X0.187500X0*%
%TD*%
%TA.AperFunction,SMDPad,CuDef*%
%ADD17RoundRect,0.175000X-0.625000X0.175000X-0.625000X-0.175000X0.625000X-0.175000X0.625000X0.175000X0*%
%TD*%
%TA.AperFunction,SMDPad,CuDef*%
%ADD18RoundRect,0.250000X-0.250000X0.250000X-0.250000X-0.250000X0.250000X-0.250000X0.250000X0.250000X0*%
%TD*%
%TA.AperFunction,SMDPad,CuDef*%
%ADD19RoundRect,0.250000X-0.275000X-0.750000X0.275000X-0.750000X0.275000X0.750000X-0.275000X0.750000X0*%
%TD*%
%TA.AperFunction,SMDPad,CuDef*%
%ADD20RoundRect,0.237500X0.287500X0.237500X-0.287500X0.237500X-0.287500X-0.237500X0.287500X-0.237500X0*%
%TD*%
%TA.AperFunction,ComponentPad*%
%ADD21RoundRect,0.172720X-0.259080X-0.259080X0.259080X-0.259080X0.259080X0.259080X-0.259080X0.259080X0*%
%TD*%
%TA.AperFunction,ComponentPad*%
%ADD22C,0.863600*%
%TD*%
%TA.AperFunction,SMDPad,CuDef*%
%ADD23RoundRect,0.100000X0.100000X-0.637500X0.100000X0.637500X-0.100000X0.637500X-0.100000X-0.637500X0*%
%TD*%
%TA.AperFunction,ViaPad*%
%ADD24C,0.600000*%
%TD*%
%TA.AperFunction,Conductor*%
%ADD25C,0.200000*%
%TD*%
G04 APERTURE END LIST*
D10*
%TO.P,GS6,1,RESET*%
%TO.N,Net-(D1-K)*%
X-575000Y800000D03*
%TD*%
%TO.P,GS3,1,JD_DATA*%
%TO.N,Net-(GS3-JD_DATA)*%
X-775000Y350000D03*
%TD*%
D11*
%TO.P,C2,1*%
%TO.N,JD_PWR*%
X-652500Y-300000D03*
%TO.P,C2,2*%
%TO.N,GND*%
X-497500Y-300000D03*
%TD*%
D12*
%TO.P,R3,1*%
%TO.N,/SWDIO*%
X-250000Y508750D03*
%TO.P,R3,2*%
%TO.N,Net-(GS5-SWDIO~^)*%
X-250000Y691250D03*
%TD*%
D13*
%TO.P,U2,1,GND*%
%TO.N,GND*%
X-461250Y-145000D03*
%TO.P,U2,2,VO*%
%TO.N,+3V3*%
X-461250Y45000D03*
%TO.P,U2,3,VI*%
%TO.N,JD_PWR*%
X-688750Y-50000D03*
%TD*%
D11*
%TO.P,C4,1*%
%TO.N,+3V3*%
X497500Y175000D03*
%TO.P,C4,2*%
%TO.N,GND*%
X652500Y175000D03*
%TD*%
D10*
%TO.P,GS2,1,GND*%
%TO.N,GND*%
X-775000Y-300000D03*
%TD*%
%TO.P,GS1,1,JD_PWR*%
%TO.N,JD_PWR*%
X-775000Y-50000D03*
%TD*%
%TO.P,GS4,1,SWCLK*%
%TO.N,Net-(GS4-SWCLK)*%
X-400000Y800000D03*
%TD*%
D14*
%TO.P,C1,1*%
%TO.N,+3V3*%
X-300000Y-535000D03*
%TO.P,C1,2*%
%TO.N,GND*%
X-300000Y-690000D03*
%TD*%
D15*
%TO.P,R5,1*%
%TO.N,+3V3*%
X666250Y325000D03*
%TO.P,R5,2*%
%TO.N,/SCL*%
X483750Y325000D03*
%TD*%
%TO.P,R6,1*%
%TO.N,+3V3*%
X666250Y-275000D03*
%TO.P,R6,2*%
%TO.N,/SDA*%
X483750Y-275000D03*
%TD*%
D16*
%TO.P,U3,1,VDD*%
%TO.N,+3V3*%
X625000Y42500D03*
%TO.P,U3,2,SCL*%
%TO.N,/SCL*%
X525000Y42500D03*
%TO.P,U3,3,SDA*%
%TO.N,/SDA*%
X525000Y-142500D03*
%TO.P,U3,4,VSS*%
%TO.N,GND*%
X625000Y-142500D03*
D17*
%TO.P,U3,5,NC*%
%TO.N,unconnected-(U3-NC-Pad5)*%
X575000Y-50000D03*
%TD*%
D18*
%TO.P,D1,1,K*%
%TO.N,Net-(D1-K)*%
X-575000Y725000D03*
%TO.P,D1,2,A*%
%TO.N,/nRESET*%
X-575000Y475000D03*
%TD*%
D11*
%TO.P,C3,1*%
%TO.N,+3V3*%
X-652500Y200000D03*
%TO.P,C3,2*%
%TO.N,GND*%
X-497500Y200000D03*
%TD*%
D19*
%TO.P,SW1,1,1*%
%TO.N,GND*%
X-147500Y-612500D03*
%TO.P,SW1,2,2*%
%TO.N,/nFLASH*%
X297500Y-612500D03*
%TD*%
D12*
%TO.P,R2,1*%
%TO.N,/SWCLK*%
X-400000Y508750D03*
%TO.P,R2,2*%
%TO.N,Net-(GS4-SWCLK)*%
X-400000Y691250D03*
%TD*%
D10*
%TO.P,GS5,1,SWDIO~^*%
%TO.N,Net-(GS5-SWDIO~^)*%
X-250000Y800000D03*
%TD*%
D20*
%TO.P,D2,1*%
%TO.N,GND*%
X-487500Y-600000D03*
%TO.P,D2,2*%
%TO.N,Net-(D2-Pad2)*%
X-662500Y-600000D03*
%TD*%
D15*
%TO.P,R1,1*%
%TO.N,/JD_DATA_MCU*%
X-483750Y350000D03*
%TO.P,R1,2*%
%TO.N,Net-(GS3-JD_DATA)*%
X-666250Y350000D03*
%TD*%
%TO.P,R4,1*%
%TO.N,/JD_STATUS*%
X-483750Y-450000D03*
%TO.P,R4,2*%
%TO.N,Net-(D2-Pad2)*%
X-666250Y-450000D03*
%TD*%
D21*
%TO.P,J1,1,VCC*%
%TO.N,+3V3*%
X227000Y647390D03*
D22*
%TO.P,J1,2,SWDIO*%
%TO.N,/SWDIO*%
X227000Y489910D03*
%TO.P,J1,3,GND*%
%TO.N,GND*%
X100000Y647390D03*
%TO.P,J1,4,SWCLK*%
%TO.N,/SWCLK*%
X100000Y489910D03*
%TO.P,J1,5,~{RESET}*%
%TO.N,/nRESET*%
X-27000Y647390D03*
%TD*%
D23*
%TO.P,U1,1,PB7/PB8*%
%TO.N,/JD_STATUS*%
X-305000Y-336250D03*
%TO.P,U1,2,PB9/PC14*%
%TO.N,/nFLASH*%
X-240000Y-336250D03*
%TO.P,U1,3,PC15*%
%TO.N,unconnected-(U1-PC15-Pad3)*%
X-175000Y-336250D03*
%TO.P,U1,4,VDD*%
%TO.N,+3V3*%
X-110000Y-336250D03*
%TO.P,U1,5,VSS*%
%TO.N,GND*%
X-45000Y-336250D03*
%TO.P,U1,6,NRST*%
%TO.N,/nRESET*%
X20000Y-336250D03*
%TO.P,U1,7,PA0*%
%TO.N,unconnected-(U1-PA0-Pad7)*%
X85000Y-336250D03*
%TO.P,U1,8,PA1*%
%TO.N,unconnected-(U1-PA1-Pad8)*%
X150000Y-336250D03*
%TO.P,U1,9,PA2*%
%TO.N,unconnected-(U1-PA2-Pad9)*%
X215000Y-336250D03*
%TO.P,U1,10,PA3*%
%TO.N,unconnected-(U1-PA3-Pad10)*%
X280000Y-336250D03*
%TO.P,U1,11,PA4*%
%TO.N,unconnected-(U1-PA4-Pad11)*%
X280000Y236250D03*
%TO.P,U1,12,PA5*%
%TO.N,unconnected-(U1-PA5-Pad12)*%
X215000Y236250D03*
%TO.P,U1,13,PA6*%
%TO.N,unconnected-(U1-PA6-Pad13)*%
X150000Y236250D03*
%TO.P,U1,14,PA7*%
%TO.N,unconnected-(U1-PA7-Pad14)*%
X85000Y236250D03*
%TO.P,U1,15,PA8/PB0/PB1/PB2*%
%TO.N,unconnected-(U1-PA8{slash}PB0{slash}PB1{slash}PB2-Pad15)*%
X20000Y236250D03*
%TO.P,U1,16,PA9/PA11*%
%TO.N,/SCL*%
X-45000Y236250D03*
%TO.P,U1,17,PA10/PA12*%
%TO.N,/SDA*%
X-110000Y236250D03*
%TO.P,U1,18,PA13*%
%TO.N,/SWDIO*%
X-175000Y236250D03*
%TO.P,U1,19,PA14/PA15*%
%TO.N,/SWCLK*%
X-240000Y236250D03*
%TO.P,U1,20,PB3/PB4/PB5/PB6*%
%TO.N,/JD_DATA_MCU*%
X-305000Y236250D03*
%TD*%
D24*
%TO.N,GND*%
X-400000Y-300000D03*
X-400000Y200000D03*
X-487500Y-712500D03*
X-25000Y-625000D03*
X-725000Y-175000D03*
X-100000Y575000D03*
%TO.N,+3V3*%
X-105000Y-464014D03*
%TO.N,/nRESET*%
X-46900Y-212500D03*
X-575000Y575000D03*
%TD*%
D25*
%TO.N,GND*%
X-45000Y-336250D02*
X-45000Y-475000D01*
X-25000Y-625000D02*
X-135000Y-625000D01*
X-775000Y-300000D02*
X-725000Y-250000D01*
X-99110Y574110D02*
X-100000Y575000D01*
X642500Y-142500D02*
X625000Y-142500D01*
X575000Y-309313D02*
X404213Y-480100D01*
X-222500Y-612500D02*
X-300000Y-690000D01*
X-39900Y-480100D02*
X-45000Y-475000D01*
X625000Y-142500D02*
X575000Y-192500D01*
X-725000Y-250000D02*
X-725000Y-225000D01*
X-147500Y-612500D02*
X-222500Y-612500D01*
X404213Y-480100D02*
X-39900Y-480100D01*
X26720Y574110D02*
X-99110Y574110D01*
X-725000Y-225000D02*
X-725000Y-175000D01*
X652500Y175000D02*
X685100Y142400D01*
X-400000Y200000D02*
X-497500Y200000D01*
X-461250Y-145000D02*
X-461250Y-263750D01*
X100000Y647390D02*
X26720Y574110D01*
X685100Y-99900D02*
X642500Y-142500D01*
X-487500Y-712500D02*
X-487500Y-600000D01*
X-135000Y-625000D02*
X-147500Y-612500D01*
X685100Y142400D02*
X685100Y-99900D01*
X-461250Y-263750D02*
X-497500Y-300000D01*
X575000Y-192500D02*
X575000Y-309313D01*
X-400000Y-300000D02*
X-497500Y-300000D01*
X-45000Y-510000D02*
X-147500Y-612500D01*
X-45000Y-475000D02*
X-45000Y-510000D01*
%TO.N,+3V3*%
X666250Y325000D02*
X343860Y647390D01*
X727600Y-213650D02*
X727600Y263650D01*
X497500Y175000D02*
X497500Y170000D01*
X-652500Y200000D02*
X-497500Y45000D01*
X516250Y175000D02*
X666250Y325000D01*
X-135257Y-427243D02*
X-135257Y-433758D01*
X-135257Y-427243D02*
X-110000Y-401987D01*
X666250Y-275000D02*
X727600Y-213650D01*
X-110000Y-205147D02*
X-110000Y-336250D01*
X-360147Y45000D02*
X-110000Y-205147D01*
X727600Y263650D02*
X666250Y325000D01*
X-135257Y-433758D02*
X-105000Y-464014D01*
X-205100Y-440100D02*
X-148113Y-440100D01*
X-461250Y45000D02*
X-360147Y45000D01*
X-300000Y-535000D02*
X-205100Y-440100D01*
X497500Y175000D02*
X516250Y175000D01*
X-148113Y-440100D02*
X-135257Y-427243D01*
X-110000Y-401987D02*
X-110000Y-336250D01*
X497500Y170000D02*
X625000Y42500D01*
X343860Y647390D02*
X227000Y647390D01*
X-497500Y45000D02*
X-461250Y45000D01*
%TO.N,Net-(D1-K)*%
X-575000Y705000D02*
X-575000Y800000D01*
%TO.N,/SWDIO*%
X-175000Y412500D02*
X-175000Y236250D01*
X-175000Y433750D02*
X-175000Y412500D01*
X149590Y412500D02*
X-175000Y412500D01*
X227000Y489910D02*
X149590Y412500D01*
X-250000Y508750D02*
X-175000Y433750D01*
%TO.N,/SWCLK*%
X100000Y489910D02*
X-105597Y489910D01*
X-105597Y489910D02*
X-203287Y587600D01*
X-240000Y348750D02*
X-240000Y236250D01*
X-321150Y587600D02*
X-400000Y508750D01*
X-400000Y508750D02*
X-240000Y348750D01*
X-203287Y587600D02*
X-321150Y587600D01*
%TO.N,/nRESET*%
X-575000Y575000D02*
X-575000Y495000D01*
X20000Y-262500D02*
X-30000Y-212500D01*
X20000Y-336250D02*
X20000Y-262500D01*
X-30000Y-212500D02*
X-46900Y-212500D01*
%TO.N,/JD_STATUS*%
X-483750Y-450000D02*
X-418750Y-450000D01*
X-418750Y-450000D02*
X-305000Y-336250D01*
%TO.N,Net-(D2-Pad2)*%
X-666250Y-596250D02*
X-662500Y-600000D01*
X-666250Y-450000D02*
X-666250Y-596250D01*
%TO.N,/SCL*%
X422400Y263650D02*
X422400Y127589D01*
X422400Y127589D02*
X507489Y42500D01*
X375000Y-25000D02*
X375000Y-25000D01*
X483750Y325000D02*
X422400Y263650D01*
X142500Y-25000D02*
X425000Y-25000D01*
X492500Y42500D02*
X525000Y42500D01*
X507489Y42500D02*
X525000Y42500D01*
X-45000Y236250D02*
X-45000Y162500D01*
X425000Y-25000D02*
X492500Y42500D01*
X-45000Y162500D02*
X142500Y-25000D01*
%TO.N,/SDA*%
X127500Y-75000D02*
X440000Y-75000D01*
X375000Y-75000D02*
X375000Y-75000D01*
X-110000Y162500D02*
X127500Y-75000D01*
X440000Y-75000D02*
X507500Y-142500D01*
X-110000Y236250D02*
X-110000Y162500D01*
X525000Y-142500D02*
X525000Y-233750D01*
X525000Y-233750D02*
X483750Y-275000D01*
X507500Y-142500D02*
X525000Y-142500D01*
%TO.N,JD_PWR*%
X-652500Y-86250D02*
X-688750Y-50000D01*
X-688750Y-50000D02*
X-775000Y-50000D01*
X-652500Y-300000D02*
X-652500Y-86250D01*
%TO.N,Net-(GS3-JD_DATA)*%
X-666250Y350000D02*
X-775000Y350000D01*
%TO.N,/JD_DATA_MCU*%
X-483750Y350000D02*
X-418750Y350000D01*
X-418750Y350000D02*
X-305000Y236250D01*
%TO.N,Net-(GS4-SWCLK)*%
X-400000Y691250D02*
X-400000Y800000D01*
%TO.N,Net-(GS5-SWDIO~^)*%
X-250000Y691250D02*
X-250000Y800000D01*
%TO.N,/nFLASH*%
X-347411Y-765100D02*
X-377600Y-734911D01*
X-277700Y-440100D02*
X-240000Y-402400D01*
X297500Y-612500D02*
X144900Y-765100D01*
X-240000Y-402400D02*
X-240000Y-336250D01*
X-377600Y-485813D02*
X-331887Y-440100D01*
X-377600Y-734911D02*
X-377600Y-485813D01*
X-331887Y-440100D02*
X-277700Y-440100D01*
X144900Y-765100D02*
X-347411Y-765100D01*
%TD*%
M02*
