%TF.GenerationSoftware,KiCad,Pcbnew,9.0.7*%
%TF.CreationDate,2026-03-30T19:28:11+01:00*%
%TF.ProjectId,jvm_environment_sensor,6a766d5f-656e-4766-9972-6f6e6d656e74,0.7*%
%TF.SameCoordinates,PX50d2eb0PY487ab00*%
%TF.FileFunction,Paste,Top*%
%TF.FilePolarity,Positive*%
%FSLAX45Y45*%
G04 Gerber Fmt 4.5, Leading zero omitted, Abs format (unit mm)*
G04 Created by KiCad (PCBNEW 9.0.7) date 2026-03-30 19:28:11*
%MOMM*%
%LPD*%
G01*
G04 APERTURE LIST*
G04 Aperture macros list*
%AMRoundRect*
0 Rectangle with rounded corners*
0 $1 Rounding radius*
0 $2 $3 $4 $5 $6 $7 $8 $9 X,Y pos of 4 corners*
0 Add a 4 corners polygon primitive as box body*
4,1,4,$2,$3,$4,$5,$6,$7,$8,$9,$2,$3,0*
0 Add four circle primitives for the rounded corners*
1,1,$1+$1,$2,$3*
1,1,$1+$1,$4,$5*
1,1,$1+$1,$6,$7*
1,1,$1+$1,$8,$9*
0 Add four rect primitives between the rounded corners*
20,1,$1+$1,$2,$3,$4,$5,0*
20,1,$1+$1,$4,$5,$6,$7,0*
20,1,$1+$1,$6,$7,$8,$9,0*
20,1,$1+$1,$8,$9,$2,$3,0*%
G04 Aperture macros list end*
%ADD10RoundRect,0.225000X-0.225000X-0.250000X0.225000X-0.250000X0.225000X0.250000X-0.225000X0.250000X0*%
%ADD11RoundRect,0.237500X0.237500X-0.250000X0.237500X0.250000X-0.237500X0.250000X-0.237500X-0.250000X0*%
%ADD12RoundRect,0.150000X0.512500X0.150000X-0.512500X0.150000X-0.512500X-0.150000X0.512500X-0.150000X0*%
%ADD13RoundRect,0.225000X-0.250000X0.225000X-0.250000X-0.225000X0.250000X-0.225000X0.250000X0.225000X0*%
%ADD14RoundRect,0.237500X0.250000X0.237500X-0.250000X0.237500X-0.250000X-0.237500X0.250000X-0.237500X0*%
%ADD15RoundRect,0.087500X-0.087500X0.187500X-0.087500X-0.187500X0.087500X-0.187500X0.087500X0.187500X0*%
%ADD16RoundRect,0.125000X-0.575000X0.125000X-0.575000X-0.125000X0.575000X-0.125000X0.575000X0.125000X0*%
%ADD17RoundRect,0.087500X0.087500X-0.187500X0.087500X0.187500X-0.087500X0.187500X-0.087500X-0.187500X0*%
%ADD18RoundRect,0.250000X-0.250000X0.250000X-0.250000X-0.250000X0.250000X-0.250000X0.250000X0.250000X0*%
%ADD19RoundRect,0.250000X-0.275000X-0.750000X0.275000X-0.750000X0.275000X0.750000X-0.275000X0.750000X0*%
%ADD20RoundRect,0.237500X0.287500X0.237500X-0.287500X0.237500X-0.287500X-0.237500X0.287500X-0.237500X0*%
%ADD21RoundRect,0.100000X0.100000X-0.637500X0.100000X0.637500X-0.100000X0.637500X-0.100000X-0.637500X0*%
G04 APERTURE END LIST*
D10*
%TO.C,C2*%
X-652500Y-300000D03*
X-497500Y-300000D03*
%TD*%
D11*
%TO.C,R3*%
X-250000Y508750D03*
X-250000Y691250D03*
%TD*%
D12*
%TO.C,U2*%
X-461250Y-145000D03*
X-461250Y45000D03*
X-688750Y-50000D03*
%TD*%
D10*
%TO.C,C4*%
X497500Y175000D03*
X652500Y175000D03*
%TD*%
D13*
%TO.C,C1*%
X-300000Y-535000D03*
X-300000Y-690000D03*
%TD*%
D14*
%TO.C,R5*%
X666250Y325000D03*
X483750Y325000D03*
%TD*%
%TO.C,R6*%
X666250Y-275000D03*
X483750Y-275000D03*
%TD*%
D15*
%TO.C,U3*%
X625000Y52500D03*
X525000Y52500D03*
D16*
X575000Y-50000D03*
D17*
X625000Y-152500D03*
X525000Y-152500D03*
%TD*%
D18*
%TO.C,D1*%
X-575000Y725000D03*
X-575000Y475000D03*
%TD*%
D10*
%TO.C,C3*%
X-652500Y200000D03*
X-497500Y200000D03*
%TD*%
D19*
%TO.C,SW1*%
X-147500Y-612500D03*
X297500Y-612500D03*
%TD*%
D11*
%TO.C,R2*%
X-400000Y508750D03*
X-400000Y691250D03*
%TD*%
D20*
%TO.C,D2*%
X-487500Y-600000D03*
X-662500Y-600000D03*
%TD*%
D14*
%TO.C,R1*%
X-483750Y350000D03*
X-666250Y350000D03*
%TD*%
%TO.C,R4*%
X-483750Y-450000D03*
X-666250Y-450000D03*
%TD*%
D21*
%TO.C,U1*%
X-305000Y-336250D03*
X-240000Y-336250D03*
X-175000Y-336250D03*
X-110000Y-336250D03*
X-45000Y-336250D03*
X20000Y-336250D03*
X85000Y-336250D03*
X150000Y-336250D03*
X215000Y-336250D03*
X280000Y-336250D03*
X280000Y236250D03*
X215000Y236250D03*
X150000Y236250D03*
X85000Y236250D03*
X20000Y236250D03*
X-45000Y236250D03*
X-110000Y236250D03*
X-175000Y236250D03*
X-240000Y236250D03*
X-305000Y236250D03*
%TD*%
M02*
