%TF.GenerationSoftware,KiCad,Pcbnew,9.0.7*%
%TF.CreationDate,2026-03-30T19:28:43+01:00*%
%TF.ProjectId,jvm_haptic_output,6a766d5f-6861-4707-9469-635f6f757470,0.7*%
%TF.SameCoordinates,PX55979f0PY487ab00*%
%TF.FileFunction,Legend,Top*%
%TF.FilePolarity,Positive*%
%FSLAX45Y45*%
G04 Gerber Fmt 4.5, Leading zero omitted, Abs format (unit mm)*
G04 Created by KiCad (PCBNEW 9.0.7) date 2026-03-30 19:28:43*
%MOMM*%
%LPD*%
G01*
G04 APERTURE LIST*
%ADD10C,0.150000*%
%ADD11C,0.120000*%
G04 APERTURE END LIST*
D10*
X-1180846Y-709429D02*
X-1173227Y-709429D01*
X-1173227Y-709429D02*
X-1165608Y-713239D01*
X-1165608Y-713239D02*
X-1161798Y-717048D01*
X-1161798Y-717048D02*
X-1157989Y-724668D01*
X-1157989Y-724668D02*
X-1154179Y-739906D01*
X-1154179Y-739906D02*
X-1154179Y-758953D01*
X-1154179Y-758953D02*
X-1157989Y-774191D01*
X-1157989Y-774191D02*
X-1161798Y-781810D01*
X-1161798Y-781810D02*
X-1165608Y-785620D01*
X-1165608Y-785620D02*
X-1173227Y-789429D01*
X-1173227Y-789429D02*
X-1180846Y-789429D01*
X-1180846Y-789429D02*
X-1188465Y-785620D01*
X-1188465Y-785620D02*
X-1192275Y-781810D01*
X-1192275Y-781810D02*
X-1196084Y-774191D01*
X-1196084Y-774191D02*
X-1199894Y-758953D01*
X-1199894Y-758953D02*
X-1199894Y-739906D01*
X-1199894Y-739906D02*
X-1196084Y-724668D01*
X-1196084Y-724668D02*
X-1192275Y-717048D01*
X-1192275Y-717048D02*
X-1188465Y-713239D01*
X-1188465Y-713239D02*
X-1180846Y-709429D01*
X-1119894Y-781810D02*
X-1116084Y-785620D01*
X-1116084Y-785620D02*
X-1119894Y-789429D01*
X-1119894Y-789429D02*
X-1123703Y-785620D01*
X-1123703Y-785620D02*
X-1119894Y-781810D01*
X-1119894Y-781810D02*
X-1119894Y-789429D01*
X-1089417Y-709429D02*
X-1036084Y-709429D01*
X-1036084Y-709429D02*
X-1070370Y-789429D01*
X698833Y233256D02*
X698833Y433256D01*
X698833Y433256D02*
X765500Y290399D01*
X765500Y290399D02*
X832167Y433256D01*
X832167Y433256D02*
X832167Y233256D01*
X683095Y-347613D02*
X606905Y-347613D01*
X943095Y-347613D02*
X866905Y-347613D01*
X905000Y-309518D02*
X905000Y-385708D01*
D11*
%TO.C,C2*%
X-1089058Y-249000D02*
X-1060942Y-249000D01*
X-1089058Y-351000D02*
X-1060942Y-351000D01*
%TO.C,R3*%
X-802250Y574528D02*
X-802250Y625472D01*
X-697750Y574528D02*
X-697750Y625472D01*
%TO.C,U2*%
X-1166000Y106000D02*
X-984000Y106000D01*
X-1166000Y6000D02*
X-1166000Y106000D01*
X-1166000Y-206000D02*
X-1166000Y-106000D01*
X-984000Y106000D02*
X-984000Y101000D01*
X-984000Y-11000D02*
X-984000Y-89000D01*
X-984000Y-201000D02*
X-984000Y-206000D01*
X-984000Y-206000D02*
X-1166000Y-206000D01*
X-930000Y-88000D02*
X-954000Y-55000D01*
X-906000Y-55000D01*
X-930000Y-88000D01*
G36*
X-930000Y-88000D02*
G01*
X-954000Y-55000D01*
X-906000Y-55000D01*
X-930000Y-88000D01*
G37*
%TO.C,*%
X448000Y325000D02*
X265500Y325000D01*
X765500Y642500D02*
X765500Y825000D01*
X765500Y7500D02*
X765500Y-175000D01*
X1083000Y325000D02*
X1265500Y325000D01*
X1083000Y325000D02*
G75*
G02*
X448000Y325000I-317500J0D01*
G01*
X448000Y325000D02*
G75*
G02*
X1083000Y325000I317500J0D01*
G01*
X1215500Y325000D02*
G75*
G02*
X315500Y325000I-450000J0D01*
G01*
X315500Y325000D02*
G75*
G02*
X1215500Y325000I450000J0D01*
G01*
%TO.C,C4*%
X789058Y-674000D02*
X760942Y-674000D01*
X789058Y-776000D02*
X760942Y-776000D01*
%TO.C,C1*%
X-851000Y-598442D02*
X-851000Y-626558D01*
X-749000Y-598442D02*
X-749000Y-626558D01*
%TO.C,Q1*%
X-1000Y156000D02*
X151000Y156000D01*
X-1000Y151000D02*
X-1000Y156000D01*
X-1000Y-39000D02*
X-1000Y39000D01*
X-1000Y-156000D02*
X-1000Y-151000D01*
X151000Y156000D02*
X151000Y56000D01*
X151000Y-56000D02*
X151000Y-156000D01*
X151000Y-156000D02*
X-1000Y-156000D01*
X-31000Y5000D02*
X-79000Y5000D01*
X-55000Y38000D01*
X-31000Y5000D01*
G36*
X-31000Y5000D02*
G01*
X-79000Y5000D01*
X-55000Y38000D01*
X-31000Y5000D01*
G37*
%TO.C,R5*%
X49528Y452250D02*
X100472Y452250D01*
X49528Y347750D02*
X100472Y347750D01*
%TO.C,M1*%
X569750Y-566000D02*
X569750Y-484000D01*
X717750Y-484000D02*
X717750Y-566000D01*
X832000Y-566000D02*
X832000Y-484000D01*
X980000Y-484000D02*
X980000Y-566000D01*
X569750Y-484000D02*
G75*
G02*
X643750Y-410000I74000J0D01*
G01*
X643750Y-410000D02*
G75*
G02*
X717750Y-484000I0J-74000D01*
G01*
X643750Y-640000D02*
G75*
G02*
X569750Y-566000I0J74000D01*
G01*
X717750Y-566000D02*
G75*
G02*
X643750Y-640000I-74000J0D01*
G01*
X832000Y-484000D02*
G75*
G02*
X906000Y-410000I74000J0D01*
G01*
X906000Y-410000D02*
G75*
G02*
X980000Y-484000I0J-74000D01*
G01*
X906000Y-640000D02*
G75*
G02*
X832000Y-566000I0J74000D01*
G01*
X980000Y-566000D02*
G75*
G02*
X906000Y-640000I-74000J0D01*
G01*
%TO.C,D1*%
X-1160000Y801000D02*
X-1160000Y475000D01*
X-990000Y801000D02*
X-1160000Y801000D01*
X-990000Y801000D02*
X-990000Y475000D01*
%TO.C,C3*%
X-1089058Y251000D02*
X-1060942Y251000D01*
X-1089058Y149000D02*
X-1060942Y149000D01*
%TO.C,SW1*%
X-635000Y-447500D02*
X-215000Y-447500D01*
X-635000Y-486500D02*
X-635000Y-447500D01*
X-635000Y-738500D02*
X-635000Y-777500D01*
X-635000Y-777500D02*
X-215000Y-777500D01*
X-215000Y-447500D02*
X-215000Y-486500D01*
X-215000Y-777500D02*
X-215000Y-738500D01*
%TO.C,R2*%
X-952250Y574528D02*
X-952250Y625472D01*
X-847750Y574528D02*
X-847750Y625472D01*
%TO.C,D4*%
X276000Y-415000D02*
X-50000Y-415000D01*
X276000Y-585000D02*
X-50000Y-585000D01*
X276000Y-585000D02*
X276000Y-415000D01*
%TO.C,D2*%
X-1155000Y-673500D02*
X-909000Y-673500D01*
X-909000Y-526500D02*
X-1155000Y-526500D01*
X-909000Y-673500D02*
X-909000Y-526500D01*
%TO.C,R6*%
X49528Y302250D02*
X100472Y302250D01*
X49528Y197750D02*
X100472Y197750D01*
%TO.C,R1*%
X-1049528Y402250D02*
X-1100472Y402250D01*
X-1049528Y297750D02*
X-1100472Y297750D01*
%TO.C,R4*%
X-1049528Y-397750D02*
X-1100472Y-397750D01*
X-1049528Y-502250D02*
X-1100472Y-502250D01*
%TO.C,U1*%
X-851000Y-281000D02*
X-851000Y181000D01*
X-174000Y181000D02*
X-174000Y-281000D01*
X-781500Y-469000D02*
X-829500Y-469000D01*
X-805500Y-436000D01*
X-781500Y-469000D01*
G36*
X-781500Y-469000D02*
G01*
X-829500Y-469000D01*
X-805500Y-436000D01*
X-781500Y-469000D01*
G37*
%TO.C,R7*%
X49528Y-197750D02*
X100472Y-197750D01*
X49528Y-302250D02*
X100472Y-302250D01*
%TD*%
M02*
