%TF.GenerationSoftware,KiCad,Pcbnew,9.0.7*%
%TF.CreationDate,2026-03-30T19:28:43+01:00*%
%TF.ProjectId,jvm_haptic_output,6a766d5f-6861-4707-9469-635f6f757470,0.7*%
%TF.SameCoordinates,PX55979f0PY487ab00*%
%TF.FileFunction,Copper,L2,Bot*%
%TF.FilePolarity,Positive*%
%FSLAX45Y45*%
G04 Gerber Fmt 4.5, Leading zero omitted, Abs format (unit mm)*
G04 Created by KiCad (PCBNEW 9.0.7) date 2026-03-30 19:28:43*
%MOMM*%
%LPD*%
G01*
G04 APERTURE LIST*
G04 Aperture macros list*
%AMRoundRect*
0 Rectangle with rounded corners*
0 $1 Rounding radius*
0 $2 $3 $4 $5 $6 $7 $8 $9 X,Y pos of 4 corners*
0 Add a 4 corners polygon primitive as box body*
4,1,4,$2,$3,$4,$5,$6,$7,$8,$9,$2,$3,0*
0 Add four circle primitives for the rounded corners*
1,1,$1+$1,$2,$3*
1,1,$1+$1,$4,$5*
1,1,$1+$1,$6,$7*
1,1,$1+$1,$8,$9*
0 Add four rect primitives between the rounded corners*
20,1,$1+$1,$2,$3,$4,$5,0*
20,1,$1+$1,$4,$5,$6,$7,0*
20,1,$1+$1,$6,$7,$8,$9,0*
20,1,$1+$1,$8,$9,$2,$3,0*%
G04 Aperture macros list end*
%TA.AperFunction,ComponentPad*%
%ADD10RoundRect,0.172720X-0.259080X-0.259080X0.259080X-0.259080X0.259080X0.259080X-0.259080X0.259080X0*%
%TD*%
%TA.AperFunction,ComponentPad*%
%ADD11C,0.863600*%
%TD*%
%TA.AperFunction,ViaPad*%
%ADD12C,0.600000*%
%TD*%
%TA.AperFunction,Conductor*%
%ADD13C,0.200000*%
%TD*%
G04 APERTURE END LIST*
D10*
%TO.P,J1,1,VCC*%
%TO.N,+3V3*%
X-273000Y647390D03*
D11*
%TO.P,J1,2,SWDIO*%
%TO.N,/SWDIO*%
X-273000Y489910D03*
%TO.P,J1,3,GND*%
%TO.N,GND*%
X-400000Y647390D03*
%TO.P,J1,4,SWCLK*%
%TO.N,/SWCLK*%
X-400000Y489910D03*
%TO.P,J1,5,~{RESET}*%
%TO.N,/nRESET*%
X-527000Y647390D03*
%TD*%
D12*
%TO.N,GND*%
X-900000Y-300000D03*
X-900000Y200000D03*
X-987500Y-712500D03*
X-525000Y-625000D03*
X-1225000Y-175000D03*
X-600000Y575000D03*
%TO.N,+3V3*%
X-605000Y-464014D03*
X81250Y-506250D03*
%TO.N,/nRESET*%
X-546900Y-212500D03*
X-1075000Y575000D03*
%TD*%
D13*
%TO.N,GND*%
X-900000Y275000D02*
X-900000Y200000D01*
X-900000Y-625000D02*
X-987500Y-712500D01*
X-900000Y200000D02*
X-900000Y-175000D01*
X-900000Y-175000D02*
X-900000Y-300000D01*
X-900000Y-300000D02*
X-900000Y-625000D01*
X-1225000Y-175000D02*
X-900000Y-175000D01*
X-600000Y575000D02*
X-900000Y275000D01*
X-900000Y-625000D02*
X-525000Y-625000D01*
%TO.N,+3V3*%
X-357200Y563190D02*
X-430354Y563190D01*
X-273000Y647390D02*
X-357200Y563190D01*
X81250Y-506250D02*
X39014Y-464014D01*
X-486900Y-345914D02*
X-605000Y-464014D01*
X-486900Y506644D02*
X-486900Y-345914D01*
X39014Y-464014D02*
X-605000Y-464014D01*
X-430354Y563190D02*
X-486900Y506644D01*
%TO.N,/nRESET*%
X-527000Y647390D02*
X-527000Y-192600D01*
X-1002610Y647390D02*
X-1075000Y575000D01*
X-527000Y-192600D02*
X-546900Y-212500D01*
X-527000Y647390D02*
X-1002610Y647390D01*
%TD*%
M02*
