%TF.GenerationSoftware,KiCad,Pcbnew,9.0.6-9.0.6~ubuntu22.04.1*%
%TF.CreationDate,2026-01-23T17:01:31+00:00*%
%TF.ProjectId,mm_jacdaptor,6d6d5f6a-6163-4646-9170-746f722e6b69,v0.4*%
%TF.SameCoordinates,PX8d24d00PY37ca3a0*%
%TF.FileFunction,Legend,Bot*%
%TF.FilePolarity,Positive*%
%FSLAX45Y45*%
G04 Gerber Fmt 4.5, Leading zero omitted, Abs format (unit mm)*
G04 Created by KiCad (PCBNEW 9.0.6-9.0.6~ubuntu22.04.1) date 2026-01-23 17:01:31*
%MOMM*%
%LPD*%
G01*
G04 APERTURE LIST*
%ADD10C,0.010000*%
G04 APERTURE END LIST*
D10*
%TO.C,MH3*%
X-3370674Y882030D02*
X-3369044Y881439D01*
X-3367634Y880564D01*
X-3366633Y879753D01*
X-3365785Y878852D01*
X-3365011Y877730D01*
X-3364231Y876253D01*
X-3363368Y874289D01*
X-3362342Y871707D01*
X-3362309Y871621D01*
X-3360053Y866117D01*
X-3357704Y861130D01*
X-3355128Y856382D01*
X-3353227Y853230D01*
X-3348314Y846117D01*
X-3342757Y839418D01*
X-3336624Y833200D01*
X-3329984Y827528D01*
X-3322906Y822471D01*
X-3318946Y820031D01*
X-3315886Y818097D01*
X-3313542Y816261D01*
X-3311854Y814455D01*
X-3310761Y812611D01*
X-3310203Y810663D01*
X-3310140Y810150D01*
X-3310167Y808286D01*
X-3310652Y806563D01*
X-3311655Y804907D01*
X-3313236Y803240D01*
X-3315453Y801487D01*
X-3318368Y799571D01*
X-3318397Y799552D01*
X-3330010Y792775D01*
X-3342260Y786340D01*
X-3355053Y780290D01*
X-3368291Y774667D01*
X-3381878Y769514D01*
X-3395717Y764873D01*
X-3401451Y763126D01*
X-3407281Y761531D01*
X-3412515Y760379D01*
X-3417204Y759662D01*
X-3421405Y759371D01*
X-3424785Y759464D01*
X-3431230Y760354D01*
X-3437372Y761963D01*
X-3443173Y764268D01*
X-3448596Y767249D01*
X-3453604Y770886D01*
X-3458161Y775157D01*
X-3462228Y780041D01*
X-3462794Y780826D01*
X-3465873Y785848D01*
X-3468327Y791278D01*
X-3470135Y797011D01*
X-3471278Y802940D01*
X-3471736Y808960D01*
X-3471489Y814966D01*
X-3470518Y820853D01*
X-3470425Y821244D01*
X-3468631Y827028D01*
X-3466124Y832563D01*
X-3462964Y837774D01*
X-3459213Y842586D01*
X-3454931Y846927D01*
X-3450178Y850721D01*
X-3445016Y853894D01*
X-3442899Y854950D01*
X-3441515Y855528D01*
X-3439549Y856255D01*
X-3437182Y857069D01*
X-3434598Y857907D01*
X-3431978Y858707D01*
X-3431935Y858719D01*
X-3422189Y861743D01*
X-3413053Y864910D01*
X-3404349Y868293D01*
X-3395898Y871964D01*
X-3387519Y875994D01*
X-3382938Y878358D01*
X-3379619Y880021D01*
X-3376829Y881206D01*
X-3374471Y881927D01*
X-3372451Y882197D01*
X-3370674Y882030D01*
G36*
X-3370674Y882030D02*
G01*
X-3369044Y881439D01*
X-3367634Y880564D01*
X-3366633Y879753D01*
X-3365785Y878852D01*
X-3365011Y877730D01*
X-3364231Y876253D01*
X-3363368Y874289D01*
X-3362342Y871707D01*
X-3362309Y871621D01*
X-3360053Y866117D01*
X-3357704Y861130D01*
X-3355128Y856382D01*
X-3353227Y853230D01*
X-3348314Y846117D01*
X-3342757Y839418D01*
X-3336624Y833200D01*
X-3329984Y827528D01*
X-3322906Y822471D01*
X-3318946Y820031D01*
X-3315886Y818097D01*
X-3313542Y816261D01*
X-3311854Y814455D01*
X-3310761Y812611D01*
X-3310203Y810663D01*
X-3310140Y810150D01*
X-3310167Y808286D01*
X-3310652Y806563D01*
X-3311655Y804907D01*
X-3313236Y803240D01*
X-3315453Y801487D01*
X-3318368Y799571D01*
X-3318397Y799552D01*
X-3330010Y792775D01*
X-3342260Y786340D01*
X-3355053Y780290D01*
X-3368291Y774667D01*
X-3381878Y769514D01*
X-3395717Y764873D01*
X-3401451Y763126D01*
X-3407281Y761531D01*
X-3412515Y760379D01*
X-3417204Y759662D01*
X-3421405Y759371D01*
X-3424785Y759464D01*
X-3431230Y760354D01*
X-3437372Y761963D01*
X-3443173Y764268D01*
X-3448596Y767249D01*
X-3453604Y770886D01*
X-3458161Y775157D01*
X-3462228Y780041D01*
X-3462794Y780826D01*
X-3465873Y785848D01*
X-3468327Y791278D01*
X-3470135Y797011D01*
X-3471278Y802940D01*
X-3471736Y808960D01*
X-3471489Y814966D01*
X-3470518Y820853D01*
X-3470425Y821244D01*
X-3468631Y827028D01*
X-3466124Y832563D01*
X-3462964Y837774D01*
X-3459213Y842586D01*
X-3454931Y846927D01*
X-3450178Y850721D01*
X-3445016Y853894D01*
X-3442899Y854950D01*
X-3441515Y855528D01*
X-3439549Y856255D01*
X-3437182Y857069D01*
X-3434598Y857907D01*
X-3431978Y858707D01*
X-3431935Y858719D01*
X-3422189Y861743D01*
X-3413053Y864910D01*
X-3404349Y868293D01*
X-3395898Y871964D01*
X-3387519Y875994D01*
X-3382938Y878358D01*
X-3379619Y880021D01*
X-3376829Y881206D01*
X-3374471Y881927D01*
X-3372451Y882197D01*
X-3370674Y882030D01*
G37*
X-3195993Y1123119D02*
X-3190104Y1122264D01*
X-3184416Y1120726D01*
X-3178978Y1118537D01*
X-3173843Y1115722D01*
X-3169062Y1112311D01*
X-3164685Y1108331D01*
X-3160764Y1103811D01*
X-3157350Y1098779D01*
X-3154494Y1093263D01*
X-3152248Y1087291D01*
X-3152196Y1087124D01*
X-3151725Y1085391D01*
X-3151346Y1083492D01*
X-3151029Y1081241D01*
X-3150744Y1078451D01*
X-3150646Y1077300D01*
X-3150494Y1075137D01*
X-3150412Y1073039D01*
X-3150405Y1070908D01*
X-3150482Y1068640D01*
X-3150650Y1066134D01*
X-3150916Y1063289D01*
X-3151287Y1060003D01*
X-3151771Y1056176D01*
X-3152376Y1051705D01*
X-3152636Y1049836D01*
X-3154488Y1038289D01*
X-3156842Y1026421D01*
X-3159648Y1014422D01*
X-3162856Y1002483D01*
X-3166415Y990795D01*
X-3170275Y979548D01*
X-3173083Y972158D01*
X-3174286Y969290D01*
X-3175377Y967083D01*
X-3176428Y965428D01*
X-3177511Y964214D01*
X-3178696Y963330D01*
X-3178873Y963227D01*
X-3180618Y962475D01*
X-3182294Y962333D01*
X-3183747Y962603D01*
X-3185806Y963513D01*
X-3187982Y965161D01*
X-3190230Y967512D01*
X-3190601Y967960D01*
X-3196626Y974784D01*
X-3203112Y980989D01*
X-3210027Y986554D01*
X-3217341Y991457D01*
X-3225022Y995676D01*
X-3233038Y999190D01*
X-3238894Y1001239D01*
X-3242109Y1002197D01*
X-3245334Y1003041D01*
X-3248777Y1003819D01*
X-3252645Y1004578D01*
X-3256004Y1005173D01*
X-3257868Y1005543D01*
X-3259215Y1005969D01*
X-3260320Y1006559D01*
X-3261224Y1007228D01*
X-3262699Y1008661D01*
X-3263646Y1010223D01*
X-3264081Y1012023D01*
X-3264017Y1014171D01*
X-3263468Y1016773D01*
X-3262748Y1019088D01*
X-3258873Y1031525D01*
X-3255644Y1044284D01*
X-3253050Y1057424D01*
X-3251076Y1071005D01*
X-3250717Y1074117D01*
X-3250312Y1077634D01*
X-3249931Y1080516D01*
X-3249542Y1082921D01*
X-3249114Y1085006D01*
X-3248617Y1086927D01*
X-3248018Y1088843D01*
X-3247519Y1090276D01*
X-3245118Y1095804D01*
X-3242044Y1100998D01*
X-3238366Y1105795D01*
X-3234151Y1110132D01*
X-3229466Y1113945D01*
X-3224380Y1117171D01*
X-3218959Y1119747D01*
X-3214346Y1121319D01*
X-3208165Y1122676D01*
X-3202030Y1123266D01*
X-3195993Y1123119D01*
G36*
X-3195993Y1123119D02*
G01*
X-3190104Y1122264D01*
X-3184416Y1120726D01*
X-3178978Y1118537D01*
X-3173843Y1115722D01*
X-3169062Y1112311D01*
X-3164685Y1108331D01*
X-3160764Y1103811D01*
X-3157350Y1098779D01*
X-3154494Y1093263D01*
X-3152248Y1087291D01*
X-3152196Y1087124D01*
X-3151725Y1085391D01*
X-3151346Y1083492D01*
X-3151029Y1081241D01*
X-3150744Y1078451D01*
X-3150646Y1077300D01*
X-3150494Y1075137D01*
X-3150412Y1073039D01*
X-3150405Y1070908D01*
X-3150482Y1068640D01*
X-3150650Y1066134D01*
X-3150916Y1063289D01*
X-3151287Y1060003D01*
X-3151771Y1056176D01*
X-3152376Y1051705D01*
X-3152636Y1049836D01*
X-3154488Y1038289D01*
X-3156842Y1026421D01*
X-3159648Y1014422D01*
X-3162856Y1002483D01*
X-3166415Y990795D01*
X-3170275Y979548D01*
X-3173083Y972158D01*
X-3174286Y969290D01*
X-3175377Y967083D01*
X-3176428Y965428D01*
X-3177511Y964214D01*
X-3178696Y963330D01*
X-3178873Y963227D01*
X-3180618Y962475D01*
X-3182294Y962333D01*
X-3183747Y962603D01*
X-3185806Y963513D01*
X-3187982Y965161D01*
X-3190230Y967512D01*
X-3190601Y967960D01*
X-3196626Y974784D01*
X-3203112Y980989D01*
X-3210027Y986554D01*
X-3217341Y991457D01*
X-3225022Y995676D01*
X-3233038Y999190D01*
X-3238894Y1001239D01*
X-3242109Y1002197D01*
X-3245334Y1003041D01*
X-3248777Y1003819D01*
X-3252645Y1004578D01*
X-3256004Y1005173D01*
X-3257868Y1005543D01*
X-3259215Y1005969D01*
X-3260320Y1006559D01*
X-3261224Y1007228D01*
X-3262699Y1008661D01*
X-3263646Y1010223D01*
X-3264081Y1012023D01*
X-3264017Y1014171D01*
X-3263468Y1016773D01*
X-3262748Y1019088D01*
X-3258873Y1031525D01*
X-3255644Y1044284D01*
X-3253050Y1057424D01*
X-3251076Y1071005D01*
X-3250717Y1074117D01*
X-3250312Y1077634D01*
X-3249931Y1080516D01*
X-3249542Y1082921D01*
X-3249114Y1085006D01*
X-3248617Y1086927D01*
X-3248018Y1088843D01*
X-3247519Y1090276D01*
X-3245118Y1095804D01*
X-3242044Y1100998D01*
X-3238366Y1105795D01*
X-3234151Y1110132D01*
X-3229466Y1113945D01*
X-3224380Y1117171D01*
X-3218959Y1119747D01*
X-3214346Y1121319D01*
X-3208165Y1122676D01*
X-3202030Y1123266D01*
X-3195993Y1123119D01*
G37*
X-3241458Y945199D02*
X-3239059Y944300D01*
X-3237766Y943464D01*
X-3236017Y941590D01*
X-3234804Y939258D01*
X-3234183Y936638D01*
X-3234207Y933904D01*
X-3234394Y932882D01*
X-3234561Y932276D01*
X-3234805Y931654D01*
X-3235177Y930946D01*
X-3235725Y930086D01*
X-3236501Y929005D01*
X-3237554Y927636D01*
X-3238935Y925911D01*
X-3240693Y923762D01*
X-3242879Y921121D01*
X-3244659Y918981D01*
X-3254411Y907272D01*
X-3243006Y897613D01*
X-3239959Y895012D01*
X-3237256Y892663D01*
X-3234948Y890611D01*
X-3233083Y888903D01*
X-3231712Y887582D01*
X-3230884Y886695D01*
X-3230697Y886439D01*
X-3229977Y884680D01*
X-3229560Y882507D01*
X-3229470Y880236D01*
X-3229730Y878179D01*
X-3230012Y877298D01*
X-3231204Y875264D01*
X-3232888Y873432D01*
X-3234714Y872143D01*
X-3236260Y871600D01*
X-3238237Y871263D01*
X-3240305Y871163D01*
X-3242121Y871329D01*
X-3242672Y871467D01*
X-3243463Y871891D01*
X-3244832Y872840D01*
X-3246767Y874305D01*
X-3249258Y876278D01*
X-3252293Y878751D01*
X-3255863Y881715D01*
X-3255905Y881750D01*
X-3267615Y891549D01*
X-3277283Y880080D01*
X-3280127Y876725D01*
X-3282514Y873956D01*
X-3284478Y871735D01*
X-3286051Y870025D01*
X-3287270Y868789D01*
X-3288167Y867989D01*
X-3288648Y867654D01*
X-3291009Y866737D01*
X-3293648Y866397D01*
X-3296278Y866650D01*
X-3297673Y867070D01*
X-3300122Y868427D01*
X-3302017Y870332D01*
X-3303216Y872498D01*
X-3303807Y874222D01*
X-3304041Y875709D01*
X-3303947Y877324D01*
X-3303711Y878684D01*
X-3303575Y879273D01*
X-3303377Y879855D01*
X-3303069Y880500D01*
X-3302602Y881273D01*
X-3301925Y882241D01*
X-3300991Y883473D01*
X-3299748Y885033D01*
X-3298148Y886991D01*
X-3296143Y889411D01*
X-3293681Y892362D01*
X-3293304Y892814D01*
X-3283336Y904741D01*
X-3295224Y914756D01*
X-3298239Y917301D01*
X-3300706Y919394D01*
X-3302684Y921094D01*
X-3304233Y922457D01*
X-3305413Y923541D01*
X-3306285Y924403D01*
X-3306909Y925101D01*
X-3307345Y925693D01*
X-3307654Y926235D01*
X-3307895Y926785D01*
X-3307926Y926864D01*
X-3308554Y928695D01*
X-3308812Y930207D01*
X-3308737Y931767D01*
X-3308513Y933043D01*
X-3307608Y935597D01*
X-3306079Y937726D01*
X-3304014Y939356D01*
X-3301501Y940410D01*
X-3299439Y940772D01*
X-3298326Y940846D01*
X-3297325Y940838D01*
X-3296365Y940705D01*
X-3295372Y940403D01*
X-3294276Y939889D01*
X-3293003Y939120D01*
X-3291482Y938052D01*
X-3289640Y936642D01*
X-3287406Y934846D01*
X-3284707Y932621D01*
X-3281657Y930079D01*
X-3270145Y920463D01*
X-3260313Y932130D01*
X-3257333Y935643D01*
X-3254823Y938549D01*
X-3252769Y940865D01*
X-3251151Y942611D01*
X-3249955Y943805D01*
X-3249163Y944465D01*
X-3249005Y944560D01*
X-3246673Y945353D01*
X-3244077Y945558D01*
X-3241458Y945199D01*
G36*
X-3241458Y945199D02*
G01*
X-3239059Y944300D01*
X-3237766Y943464D01*
X-3236017Y941590D01*
X-3234804Y939258D01*
X-3234183Y936638D01*
X-3234207Y933904D01*
X-3234394Y932882D01*
X-3234561Y932276D01*
X-3234805Y931654D01*
X-3235177Y930946D01*
X-3235725Y930086D01*
X-3236501Y929005D01*
X-3237554Y927636D01*
X-3238935Y925911D01*
X-3240693Y923762D01*
X-3242879Y921121D01*
X-3244659Y918981D01*
X-3254411Y907272D01*
X-3243006Y897613D01*
X-3239959Y895012D01*
X-3237256Y892663D01*
X-3234948Y890611D01*
X-3233083Y888903D01*
X-3231712Y887582D01*
X-3230884Y886695D01*
X-3230697Y886439D01*
X-3229977Y884680D01*
X-3229560Y882507D01*
X-3229470Y880236D01*
X-3229730Y878179D01*
X-3230012Y877298D01*
X-3231204Y875264D01*
X-3232888Y873432D01*
X-3234714Y872143D01*
X-3236260Y871600D01*
X-3238237Y871263D01*
X-3240305Y871163D01*
X-3242121Y871329D01*
X-3242672Y871467D01*
X-3243463Y871891D01*
X-3244832Y872840D01*
X-3246767Y874305D01*
X-3249258Y876278D01*
X-3252293Y878751D01*
X-3255863Y881715D01*
X-3255905Y881750D01*
X-3267615Y891549D01*
X-3277283Y880080D01*
X-3280127Y876725D01*
X-3282514Y873956D01*
X-3284478Y871735D01*
X-3286051Y870025D01*
X-3287270Y868789D01*
X-3288167Y867989D01*
X-3288648Y867654D01*
X-3291009Y866737D01*
X-3293648Y866397D01*
X-3296278Y866650D01*
X-3297673Y867070D01*
X-3300122Y868427D01*
X-3302017Y870332D01*
X-3303216Y872498D01*
X-3303807Y874222D01*
X-3304041Y875709D01*
X-3303947Y877324D01*
X-3303711Y878684D01*
X-3303575Y879273D01*
X-3303377Y879855D01*
X-3303069Y880500D01*
X-3302602Y881273D01*
X-3301925Y882241D01*
X-3300991Y883473D01*
X-3299748Y885033D01*
X-3298148Y886991D01*
X-3296143Y889411D01*
X-3293681Y892362D01*
X-3293304Y892814D01*
X-3283336Y904741D01*
X-3295224Y914756D01*
X-3298239Y917301D01*
X-3300706Y919394D01*
X-3302684Y921094D01*
X-3304233Y922457D01*
X-3305413Y923541D01*
X-3306285Y924403D01*
X-3306909Y925101D01*
X-3307345Y925693D01*
X-3307654Y926235D01*
X-3307895Y926785D01*
X-3307926Y926864D01*
X-3308554Y928695D01*
X-3308812Y930207D01*
X-3308737Y931767D01*
X-3308513Y933043D01*
X-3307608Y935597D01*
X-3306079Y937726D01*
X-3304014Y939356D01*
X-3301501Y940410D01*
X-3299439Y940772D01*
X-3298326Y940846D01*
X-3297325Y940838D01*
X-3296365Y940705D01*
X-3295372Y940403D01*
X-3294276Y939889D01*
X-3293003Y939120D01*
X-3291482Y938052D01*
X-3289640Y936642D01*
X-3287406Y934846D01*
X-3284707Y932621D01*
X-3281657Y930079D01*
X-3270145Y920463D01*
X-3260313Y932130D01*
X-3257333Y935643D01*
X-3254823Y938549D01*
X-3252769Y940865D01*
X-3251151Y942611D01*
X-3249955Y943805D01*
X-3249163Y944465D01*
X-3249005Y944560D01*
X-3246673Y945353D01*
X-3244077Y945558D01*
X-3241458Y945199D01*
G37*
%TO.C,MH4*%
X3424615Y440629D02*
X3431061Y439738D01*
X3437203Y438130D01*
X3443004Y435825D01*
X3448427Y432844D01*
X3453435Y429207D01*
X3457991Y424936D01*
X3462059Y420052D01*
X3462625Y419267D01*
X3465704Y414245D01*
X3468158Y408815D01*
X3469966Y403082D01*
X3471109Y397153D01*
X3471567Y391133D01*
X3471320Y385127D01*
X3470348Y379240D01*
X3470256Y378849D01*
X3468462Y373065D01*
X3465955Y367530D01*
X3462795Y362319D01*
X3459044Y357507D01*
X3454762Y353166D01*
X3450009Y349372D01*
X3444846Y346199D01*
X3442729Y345143D01*
X3441346Y344565D01*
X3439379Y343838D01*
X3437013Y343024D01*
X3434429Y342186D01*
X3431809Y341386D01*
X3431766Y341374D01*
X3422019Y338350D01*
X3412884Y335183D01*
X3404180Y331800D01*
X3395728Y328129D01*
X3387349Y324099D01*
X3382768Y321735D01*
X3379450Y320072D01*
X3376659Y318887D01*
X3374302Y318166D01*
X3372282Y317896D01*
X3370504Y318063D01*
X3368875Y318654D01*
X3367465Y319529D01*
X3366464Y320340D01*
X3365616Y321241D01*
X3364841Y322363D01*
X3364062Y323840D01*
X3363199Y325804D01*
X3362173Y328386D01*
X3362140Y328472D01*
X3359883Y333976D01*
X3357535Y338963D01*
X3354959Y343711D01*
X3353058Y346863D01*
X3348145Y353976D01*
X3342588Y360675D01*
X3336454Y366893D01*
X3329814Y372565D01*
X3322737Y377622D01*
X3318777Y380062D01*
X3315717Y381996D01*
X3313373Y383832D01*
X3311685Y385638D01*
X3310592Y387481D01*
X3310034Y389430D01*
X3309971Y389943D01*
X3309998Y391807D01*
X3310483Y393530D01*
X3311486Y395186D01*
X3313066Y396852D01*
X3315284Y398606D01*
X3318199Y400522D01*
X3318228Y400541D01*
X3329841Y407318D01*
X3342091Y413753D01*
X3354884Y419803D01*
X3368122Y425426D01*
X3381709Y430578D01*
X3395548Y435219D01*
X3401282Y436967D01*
X3407112Y438562D01*
X3412345Y439714D01*
X3417035Y440431D01*
X3421236Y440722D01*
X3424615Y440629D01*
G36*
X3424615Y440629D02*
G01*
X3431061Y439738D01*
X3437203Y438130D01*
X3443004Y435825D01*
X3448427Y432844D01*
X3453435Y429207D01*
X3457991Y424936D01*
X3462059Y420052D01*
X3462625Y419267D01*
X3465704Y414245D01*
X3468158Y408815D01*
X3469966Y403082D01*
X3471109Y397153D01*
X3471567Y391133D01*
X3471320Y385127D01*
X3470348Y379240D01*
X3470256Y378849D01*
X3468462Y373065D01*
X3465955Y367530D01*
X3462795Y362319D01*
X3459044Y357507D01*
X3454762Y353166D01*
X3450009Y349372D01*
X3444846Y346199D01*
X3442729Y345143D01*
X3441346Y344565D01*
X3439379Y343838D01*
X3437013Y343024D01*
X3434429Y342186D01*
X3431809Y341386D01*
X3431766Y341374D01*
X3422019Y338350D01*
X3412884Y335183D01*
X3404180Y331800D01*
X3395728Y328129D01*
X3387349Y324099D01*
X3382768Y321735D01*
X3379450Y320072D01*
X3376659Y318887D01*
X3374302Y318166D01*
X3372282Y317896D01*
X3370504Y318063D01*
X3368875Y318654D01*
X3367465Y319529D01*
X3366464Y320340D01*
X3365616Y321241D01*
X3364841Y322363D01*
X3364062Y323840D01*
X3363199Y325804D01*
X3362173Y328386D01*
X3362140Y328472D01*
X3359883Y333976D01*
X3357535Y338963D01*
X3354959Y343711D01*
X3353058Y346863D01*
X3348145Y353976D01*
X3342588Y360675D01*
X3336454Y366893D01*
X3329814Y372565D01*
X3322737Y377622D01*
X3318777Y380062D01*
X3315717Y381996D01*
X3313373Y383832D01*
X3311685Y385638D01*
X3310592Y387481D01*
X3310034Y389430D01*
X3309971Y389943D01*
X3309998Y391807D01*
X3310483Y393530D01*
X3311486Y395186D01*
X3313066Y396852D01*
X3315284Y398606D01*
X3318199Y400522D01*
X3318228Y400541D01*
X3329841Y407318D01*
X3342091Y413753D01*
X3354884Y419803D01*
X3368122Y425426D01*
X3381709Y430578D01*
X3395548Y435219D01*
X3401282Y436967D01*
X3407112Y438562D01*
X3412345Y439714D01*
X3417035Y440431D01*
X3421236Y440722D01*
X3424615Y440629D01*
G37*
X3183578Y237490D02*
X3185637Y236580D01*
X3187813Y234932D01*
X3190061Y232581D01*
X3190432Y232133D01*
X3196457Y225309D01*
X3202943Y219103D01*
X3209858Y213539D01*
X3217172Y208636D01*
X3224852Y204417D01*
X3232869Y200903D01*
X3238725Y198854D01*
X3241939Y197896D01*
X3245165Y197052D01*
X3248608Y196274D01*
X3252476Y195515D01*
X3255835Y194920D01*
X3257698Y194550D01*
X3259045Y194124D01*
X3260151Y193534D01*
X3261055Y192865D01*
X3262529Y191432D01*
X3263477Y189870D01*
X3263912Y188070D01*
X3263848Y185923D01*
X3263299Y183320D01*
X3262579Y181005D01*
X3258703Y168568D01*
X3255475Y155809D01*
X3252880Y142669D01*
X3250907Y129088D01*
X3250548Y125976D01*
X3250143Y122459D01*
X3249761Y119577D01*
X3249372Y117172D01*
X3248945Y115087D01*
X3248447Y113166D01*
X3247849Y111250D01*
X3247350Y109817D01*
X3244948Y104289D01*
X3241875Y99095D01*
X3238197Y94298D01*
X3233982Y89961D01*
X3229297Y86148D01*
X3224210Y82922D01*
X3218789Y80346D01*
X3214177Y78774D01*
X3207996Y77417D01*
X3201861Y76827D01*
X3195824Y76974D01*
X3189935Y77830D01*
X3184247Y79367D01*
X3178809Y81557D01*
X3173674Y84371D01*
X3168892Y87782D01*
X3164515Y91762D01*
X3160594Y96282D01*
X3157180Y101314D01*
X3154325Y106830D01*
X3152079Y112802D01*
X3152027Y112969D01*
X3151556Y114702D01*
X3151177Y116601D01*
X3150859Y118852D01*
X3150575Y121642D01*
X3150477Y122793D01*
X3150325Y124956D01*
X3150242Y127054D01*
X3150236Y129185D01*
X3150313Y131454D01*
X3150481Y133959D01*
X3150747Y136804D01*
X3151118Y140090D01*
X3151602Y143917D01*
X3152207Y148389D01*
X3152467Y150257D01*
X3154319Y161804D01*
X3156673Y173672D01*
X3159479Y185671D01*
X3162686Y197610D01*
X3166245Y209298D01*
X3170106Y220545D01*
X3172913Y227935D01*
X3174116Y230803D01*
X3175208Y233010D01*
X3176259Y234665D01*
X3177341Y235879D01*
X3178527Y236763D01*
X3178704Y236866D01*
X3180449Y237618D01*
X3182125Y237760D01*
X3183578Y237490D01*
G36*
X3183578Y237490D02*
G01*
X3185637Y236580D01*
X3187813Y234932D01*
X3190061Y232581D01*
X3190432Y232133D01*
X3196457Y225309D01*
X3202943Y219103D01*
X3209858Y213539D01*
X3217172Y208636D01*
X3224852Y204417D01*
X3232869Y200903D01*
X3238725Y198854D01*
X3241939Y197896D01*
X3245165Y197052D01*
X3248608Y196274D01*
X3252476Y195515D01*
X3255835Y194920D01*
X3257698Y194550D01*
X3259045Y194124D01*
X3260151Y193534D01*
X3261055Y192865D01*
X3262529Y191432D01*
X3263477Y189870D01*
X3263912Y188070D01*
X3263848Y185923D01*
X3263299Y183320D01*
X3262579Y181005D01*
X3258703Y168568D01*
X3255475Y155809D01*
X3252880Y142669D01*
X3250907Y129088D01*
X3250548Y125976D01*
X3250143Y122459D01*
X3249761Y119577D01*
X3249372Y117172D01*
X3248945Y115087D01*
X3248447Y113166D01*
X3247849Y111250D01*
X3247350Y109817D01*
X3244948Y104289D01*
X3241875Y99095D01*
X3238197Y94298D01*
X3233982Y89961D01*
X3229297Y86148D01*
X3224210Y82922D01*
X3218789Y80346D01*
X3214177Y78774D01*
X3207996Y77417D01*
X3201861Y76827D01*
X3195824Y76974D01*
X3189935Y77830D01*
X3184247Y79367D01*
X3178809Y81557D01*
X3173674Y84371D01*
X3168892Y87782D01*
X3164515Y91762D01*
X3160594Y96282D01*
X3157180Y101314D01*
X3154325Y106830D01*
X3152079Y112802D01*
X3152027Y112969D01*
X3151556Y114702D01*
X3151177Y116601D01*
X3150859Y118852D01*
X3150575Y121642D01*
X3150477Y122793D01*
X3150325Y124956D01*
X3150242Y127054D01*
X3150236Y129185D01*
X3150313Y131454D01*
X3150481Y133959D01*
X3150747Y136804D01*
X3151118Y140090D01*
X3151602Y143917D01*
X3152207Y148389D01*
X3152467Y150257D01*
X3154319Y161804D01*
X3156673Y173672D01*
X3159479Y185671D01*
X3162686Y197610D01*
X3166245Y209298D01*
X3170106Y220545D01*
X3172913Y227935D01*
X3174116Y230803D01*
X3175208Y233010D01*
X3176259Y234665D01*
X3177341Y235879D01*
X3178527Y236763D01*
X3178704Y236866D01*
X3180449Y237618D01*
X3182125Y237760D01*
X3183578Y237490D01*
G37*
X3295740Y336168D02*
X3298838Y335211D01*
X3301483Y333645D01*
X3303610Y331545D01*
X3305158Y328983D01*
X3306063Y326035D01*
X3306277Y323895D01*
X3306296Y323143D01*
X3306296Y322453D01*
X3306250Y321789D01*
X3306129Y321111D01*
X3305905Y320382D01*
X3305550Y319562D01*
X3305037Y318615D01*
X3304337Y317501D01*
X3303422Y316182D01*
X3302264Y314620D01*
X3300836Y312776D01*
X3299109Y310612D01*
X3297054Y308091D01*
X3294646Y305173D01*
X3291854Y301821D01*
X3288651Y297995D01*
X3285010Y293658D01*
X3280901Y288771D01*
X3278509Y285927D01*
X3274276Y280894D01*
X3270521Y276433D01*
X3267213Y272509D01*
X3264320Y269085D01*
X3261811Y266128D01*
X3259654Y263600D01*
X3257818Y261465D01*
X3256271Y259689D01*
X3254982Y258235D01*
X3253920Y257068D01*
X3253051Y256152D01*
X3252346Y255452D01*
X3251772Y254930D01*
X3251298Y254553D01*
X3250893Y254283D01*
X3250524Y254086D01*
X3250314Y253991D01*
X3247232Y253047D01*
X3244147Y252837D01*
X3241170Y253333D01*
X3238411Y254503D01*
X3235979Y256317D01*
X3234165Y258469D01*
X3233514Y259497D01*
X3233086Y260415D01*
X3232809Y261466D01*
X3232613Y262897D01*
X3232487Y264226D01*
X3232351Y266175D01*
X3232358Y267600D01*
X3232529Y268757D01*
X3232882Y269907D01*
X3232932Y270041D01*
X3233159Y270506D01*
X3233578Y271178D01*
X3234216Y272091D01*
X3235099Y273276D01*
X3236253Y274767D01*
X3237705Y276595D01*
X3239481Y278794D01*
X3241607Y281396D01*
X3244110Y284434D01*
X3247016Y287940D01*
X3250351Y291946D01*
X3254142Y296486D01*
X3258415Y301591D01*
X3259355Y302713D01*
X3263607Y307785D01*
X3267382Y312282D01*
X3270711Y316239D01*
X3273626Y319692D01*
X3276156Y322676D01*
X3278334Y325228D01*
X3280191Y327382D01*
X3281756Y329173D01*
X3283061Y330637D01*
X3284137Y331810D01*
X3285015Y332728D01*
X3285725Y333424D01*
X3286300Y333935D01*
X3286768Y334297D01*
X3287126Y334524D01*
X3289598Y335596D01*
X3292265Y336203D01*
X3294828Y336289D01*
X3295740Y336168D01*
G36*
X3295740Y336168D02*
G01*
X3298838Y335211D01*
X3301483Y333645D01*
X3303610Y331545D01*
X3305158Y328983D01*
X3306063Y326035D01*
X3306277Y323895D01*
X3306296Y323143D01*
X3306296Y322453D01*
X3306250Y321789D01*
X3306129Y321111D01*
X3305905Y320382D01*
X3305550Y319562D01*
X3305037Y318615D01*
X3304337Y317501D01*
X3303422Y316182D01*
X3302264Y314620D01*
X3300836Y312776D01*
X3299109Y310612D01*
X3297054Y308091D01*
X3294646Y305173D01*
X3291854Y301821D01*
X3288651Y297995D01*
X3285010Y293658D01*
X3280901Y288771D01*
X3278509Y285927D01*
X3274276Y280894D01*
X3270521Y276433D01*
X3267213Y272509D01*
X3264320Y269085D01*
X3261811Y266128D01*
X3259654Y263600D01*
X3257818Y261465D01*
X3256271Y259689D01*
X3254982Y258235D01*
X3253920Y257068D01*
X3253051Y256152D01*
X3252346Y255452D01*
X3251772Y254930D01*
X3251298Y254553D01*
X3250893Y254283D01*
X3250524Y254086D01*
X3250314Y253991D01*
X3247232Y253047D01*
X3244147Y252837D01*
X3241170Y253333D01*
X3238411Y254503D01*
X3235979Y256317D01*
X3234165Y258469D01*
X3233514Y259497D01*
X3233086Y260415D01*
X3232809Y261466D01*
X3232613Y262897D01*
X3232487Y264226D01*
X3232351Y266175D01*
X3232358Y267600D01*
X3232529Y268757D01*
X3232882Y269907D01*
X3232932Y270041D01*
X3233159Y270506D01*
X3233578Y271178D01*
X3234216Y272091D01*
X3235099Y273276D01*
X3236253Y274767D01*
X3237705Y276595D01*
X3239481Y278794D01*
X3241607Y281396D01*
X3244110Y284434D01*
X3247016Y287940D01*
X3250351Y291946D01*
X3254142Y296486D01*
X3258415Y301591D01*
X3259355Y302713D01*
X3263607Y307785D01*
X3267382Y312282D01*
X3270711Y316239D01*
X3273626Y319692D01*
X3276156Y322676D01*
X3278334Y325228D01*
X3280191Y327382D01*
X3281756Y329173D01*
X3283061Y330637D01*
X3284137Y331810D01*
X3285015Y332728D01*
X3285725Y333424D01*
X3286300Y333935D01*
X3286768Y334297D01*
X3287126Y334524D01*
X3289598Y335596D01*
X3292265Y336203D01*
X3294828Y336289D01*
X3295740Y336168D01*
G37*
%TO.C,MH2*%
X-3181545Y236560D02*
X-3179713Y236210D01*
X-3178101Y235433D01*
X-3176644Y234158D01*
X-3175278Y232312D01*
X-3173936Y229823D01*
X-3172555Y226620D01*
X-3172541Y226588D01*
X-3167884Y213975D01*
X-3163674Y200793D01*
X-3159937Y187145D01*
X-3156699Y173132D01*
X-3153984Y158856D01*
X-3151816Y144421D01*
X-3151091Y138471D01*
X-3150533Y132452D01*
X-3150307Y127098D01*
X-3150415Y122355D01*
X-3150858Y118168D01*
X-3151536Y114856D01*
X-3153533Y108663D01*
X-3156183Y102893D01*
X-3159461Y97581D01*
X-3163338Y92758D01*
X-3167789Y88457D01*
X-3172786Y84712D01*
X-3178303Y81554D01*
X-3179174Y81133D01*
X-3184655Y78973D01*
X-3190428Y77500D01*
X-3196388Y76714D01*
X-3202425Y76618D01*
X-3208434Y77212D01*
X-3214306Y78499D01*
X-3219934Y80478D01*
X-3220303Y80637D01*
X-3225688Y83408D01*
X-3230703Y86838D01*
X-3235286Y90854D01*
X-3239374Y95384D01*
X-3242905Y100355D01*
X-3245816Y105694D01*
X-3248045Y111330D01*
X-3248717Y113598D01*
X-3249046Y115061D01*
X-3249421Y117124D01*
X-3249811Y119596D01*
X-3250188Y122286D01*
X-3250520Y125005D01*
X-3250525Y125049D01*
X-3251811Y135173D01*
X-3253344Y144720D01*
X-3255164Y153879D01*
X-3257311Y162839D01*
X-3259825Y171791D01*
X-3261357Y176713D01*
X-3262419Y180270D01*
X-3263102Y183224D01*
X-3263402Y185671D01*
X-3263317Y187707D01*
X-3262844Y189428D01*
X-3261979Y190931D01*
X-3260872Y192167D01*
X-3259900Y193012D01*
X-3258866Y193691D01*
X-3257626Y194258D01*
X-3256036Y194769D01*
X-3253953Y195278D01*
X-3251231Y195840D01*
X-3251140Y195858D01*
X-3245329Y197125D01*
X-3240009Y198571D01*
X-3234886Y200284D01*
X-3231452Y201609D01*
X-3223594Y205211D01*
X-3216032Y209521D01*
X-3208843Y214481D01*
X-3202105Y220036D01*
X-3195896Y226127D01*
X-3192805Y229603D01*
X-3190369Y232281D01*
X-3188153Y234271D01*
X-3186082Y235620D01*
X-3184077Y236376D01*
X-3182061Y236587D01*
X-3181545Y236560D01*
G36*
X-3181545Y236560D02*
G01*
X-3179713Y236210D01*
X-3178101Y235433D01*
X-3176644Y234158D01*
X-3175278Y232312D01*
X-3173936Y229823D01*
X-3172555Y226620D01*
X-3172541Y226588D01*
X-3167884Y213975D01*
X-3163674Y200793D01*
X-3159937Y187145D01*
X-3156699Y173132D01*
X-3153984Y158856D01*
X-3151816Y144421D01*
X-3151091Y138471D01*
X-3150533Y132452D01*
X-3150307Y127098D01*
X-3150415Y122355D01*
X-3150858Y118168D01*
X-3151536Y114856D01*
X-3153533Y108663D01*
X-3156183Y102893D01*
X-3159461Y97581D01*
X-3163338Y92758D01*
X-3167789Y88457D01*
X-3172786Y84712D01*
X-3178303Y81554D01*
X-3179174Y81133D01*
X-3184655Y78973D01*
X-3190428Y77500D01*
X-3196388Y76714D01*
X-3202425Y76618D01*
X-3208434Y77212D01*
X-3214306Y78499D01*
X-3219934Y80478D01*
X-3220303Y80637D01*
X-3225688Y83408D01*
X-3230703Y86838D01*
X-3235286Y90854D01*
X-3239374Y95384D01*
X-3242905Y100355D01*
X-3245816Y105694D01*
X-3248045Y111330D01*
X-3248717Y113598D01*
X-3249046Y115061D01*
X-3249421Y117124D01*
X-3249811Y119596D01*
X-3250188Y122286D01*
X-3250520Y125005D01*
X-3250525Y125049D01*
X-3251811Y135173D01*
X-3253344Y144720D01*
X-3255164Y153879D01*
X-3257311Y162839D01*
X-3259825Y171791D01*
X-3261357Y176713D01*
X-3262419Y180270D01*
X-3263102Y183224D01*
X-3263402Y185671D01*
X-3263317Y187707D01*
X-3262844Y189428D01*
X-3261979Y190931D01*
X-3260872Y192167D01*
X-3259900Y193012D01*
X-3258866Y193691D01*
X-3257626Y194258D01*
X-3256036Y194769D01*
X-3253953Y195278D01*
X-3251231Y195840D01*
X-3251140Y195858D01*
X-3245329Y197125D01*
X-3240009Y198571D01*
X-3234886Y200284D01*
X-3231452Y201609D01*
X-3223594Y205211D01*
X-3216032Y209521D01*
X-3208843Y214481D01*
X-3202105Y220036D01*
X-3195896Y226127D01*
X-3192805Y229603D01*
X-3190369Y232281D01*
X-3188153Y234271D01*
X-3186082Y235620D01*
X-3184077Y236376D01*
X-3182061Y236587D01*
X-3181545Y236560D01*
G37*
X-3420888Y440329D02*
X-3418090Y440124D01*
X-3416940Y440021D01*
X-3414783Y439795D01*
X-3412704Y439512D01*
X-3410603Y439148D01*
X-3408383Y438679D01*
X-3405944Y438079D01*
X-3403188Y437323D01*
X-3400017Y436386D01*
X-3396332Y435245D01*
X-3392034Y433873D01*
X-3390239Y433293D01*
X-3379189Y429464D01*
X-3367910Y425085D01*
X-3356581Y420238D01*
X-3345380Y415005D01*
X-3334487Y409471D01*
X-3324082Y403716D01*
X-3317292Y399668D01*
X-3314676Y397985D01*
X-3312692Y396527D01*
X-3311245Y395205D01*
X-3310237Y393928D01*
X-3309573Y392607D01*
X-3309502Y392414D01*
X-3309064Y390566D01*
X-3309216Y388890D01*
X-3309734Y387506D01*
X-3310987Y385637D01*
X-3312989Y383779D01*
X-3315694Y381974D01*
X-3316200Y381687D01*
X-3323966Y376938D01*
X-3331203Y371628D01*
X-3337884Y365784D01*
X-3343983Y359433D01*
X-3349472Y352602D01*
X-3354324Y345318D01*
X-3357358Y339906D01*
X-3358860Y336907D01*
X-3360251Y333877D01*
X-3361615Y330622D01*
X-3363035Y326944D01*
X-3364204Y323739D01*
X-3364893Y321968D01*
X-3365546Y320716D01*
X-3366318Y319729D01*
X-3367134Y318955D01*
X-3368802Y317752D01*
X-3370505Y317090D01*
X-3372353Y316975D01*
X-3374456Y317410D01*
X-3376924Y318403D01*
X-3379079Y319514D01*
X-3390654Y325490D01*
X-3402658Y330885D01*
X-3415148Y335722D01*
X-3428181Y340024D01*
X-3431182Y340918D01*
X-3434576Y341927D01*
X-3437348Y342803D01*
X-3439649Y343604D01*
X-3441627Y344388D01*
X-3443433Y345211D01*
X-3445216Y346133D01*
X-3446540Y346873D01*
X-3451568Y350198D01*
X-3456149Y354127D01*
X-3460235Y358582D01*
X-3463774Y363486D01*
X-3466715Y368762D01*
X-3469009Y374331D01*
X-3470604Y380117D01*
X-3471352Y384933D01*
X-3471614Y391256D01*
X-3471131Y397400D01*
X-3469938Y403320D01*
X-3468072Y408970D01*
X-3465571Y414305D01*
X-3462470Y419280D01*
X-3458806Y423848D01*
X-3454617Y427965D01*
X-3449937Y431584D01*
X-3444805Y434661D01*
X-3439257Y437149D01*
X-3433329Y439004D01*
X-3427058Y440179D01*
X-3426884Y440201D01*
X-3425095Y440364D01*
X-3423160Y440407D01*
X-3420888Y440329D01*
G36*
X-3420888Y440329D02*
G01*
X-3418090Y440124D01*
X-3416940Y440021D01*
X-3414783Y439795D01*
X-3412704Y439512D01*
X-3410603Y439148D01*
X-3408383Y438679D01*
X-3405944Y438079D01*
X-3403188Y437323D01*
X-3400017Y436386D01*
X-3396332Y435245D01*
X-3392034Y433873D01*
X-3390239Y433293D01*
X-3379189Y429464D01*
X-3367910Y425085D01*
X-3356581Y420238D01*
X-3345380Y415005D01*
X-3334487Y409471D01*
X-3324082Y403716D01*
X-3317292Y399668D01*
X-3314676Y397985D01*
X-3312692Y396527D01*
X-3311245Y395205D01*
X-3310237Y393928D01*
X-3309573Y392607D01*
X-3309502Y392414D01*
X-3309064Y390566D01*
X-3309216Y388890D01*
X-3309734Y387506D01*
X-3310987Y385637D01*
X-3312989Y383779D01*
X-3315694Y381974D01*
X-3316200Y381687D01*
X-3323966Y376938D01*
X-3331203Y371628D01*
X-3337884Y365784D01*
X-3343983Y359433D01*
X-3349472Y352602D01*
X-3354324Y345318D01*
X-3357358Y339906D01*
X-3358860Y336907D01*
X-3360251Y333877D01*
X-3361615Y330622D01*
X-3363035Y326944D01*
X-3364204Y323739D01*
X-3364893Y321968D01*
X-3365546Y320716D01*
X-3366318Y319729D01*
X-3367134Y318955D01*
X-3368802Y317752D01*
X-3370505Y317090D01*
X-3372353Y316975D01*
X-3374456Y317410D01*
X-3376924Y318403D01*
X-3379079Y319514D01*
X-3390654Y325490D01*
X-3402658Y330885D01*
X-3415148Y335722D01*
X-3428181Y340024D01*
X-3431182Y340918D01*
X-3434576Y341927D01*
X-3437348Y342803D01*
X-3439649Y343604D01*
X-3441627Y344388D01*
X-3443433Y345211D01*
X-3445216Y346133D01*
X-3446540Y346873D01*
X-3451568Y350198D01*
X-3456149Y354127D01*
X-3460235Y358582D01*
X-3463774Y363486D01*
X-3466715Y368762D01*
X-3469009Y374331D01*
X-3470604Y380117D01*
X-3471352Y384933D01*
X-3471614Y391256D01*
X-3471131Y397400D01*
X-3469938Y403320D01*
X-3468072Y408970D01*
X-3465571Y414305D01*
X-3462470Y419280D01*
X-3458806Y423848D01*
X-3454617Y427965D01*
X-3449937Y431584D01*
X-3444805Y434661D01*
X-3439257Y437149D01*
X-3433329Y439004D01*
X-3427058Y440179D01*
X-3426884Y440201D01*
X-3425095Y440364D01*
X-3423160Y440407D01*
X-3420888Y440329D01*
G37*
X-3293228Y334804D02*
X-3291897Y334697D01*
X-3289953Y334493D01*
X-3288552Y334239D01*
X-3287442Y333870D01*
X-3286371Y333322D01*
X-3286247Y333250D01*
X-3285829Y332946D01*
X-3285240Y332416D01*
X-3284452Y331629D01*
X-3283438Y330554D01*
X-3282170Y329158D01*
X-3280622Y327411D01*
X-3278765Y325280D01*
X-3276571Y322734D01*
X-3274014Y319742D01*
X-3271066Y316271D01*
X-3267700Y312291D01*
X-3263887Y307769D01*
X-3259601Y302675D01*
X-3258660Y301554D01*
X-3254404Y296487D01*
X-3250631Y291988D01*
X-3247312Y288022D01*
X-3244417Y284552D01*
X-3241917Y281542D01*
X-3239783Y278954D01*
X-3237984Y276752D01*
X-3236492Y274899D01*
X-3235276Y273360D01*
X-3234308Y272096D01*
X-3233557Y271073D01*
X-3232995Y270252D01*
X-3232591Y269598D01*
X-3232316Y269073D01*
X-3232155Y268682D01*
X-3231529Y266061D01*
X-3231393Y263329D01*
X-3231754Y260790D01*
X-3232031Y259912D01*
X-3233512Y257028D01*
X-3235513Y254695D01*
X-3237951Y252965D01*
X-3240742Y251886D01*
X-3243803Y251507D01*
X-3245947Y251667D01*
X-3246692Y251779D01*
X-3247371Y251899D01*
X-3248017Y252060D01*
X-3248664Y252297D01*
X-3249343Y252644D01*
X-3250088Y253135D01*
X-3250932Y253805D01*
X-3251908Y254688D01*
X-3253048Y255818D01*
X-3254386Y257230D01*
X-3255953Y258956D01*
X-3257784Y261033D01*
X-3259910Y263494D01*
X-3262366Y266373D01*
X-3265182Y269704D01*
X-3268394Y273523D01*
X-3272032Y277862D01*
X-3276131Y282756D01*
X-3278517Y285606D01*
X-3282739Y290649D01*
X-3286480Y295122D01*
X-3289770Y299061D01*
X-3292639Y302505D01*
X-3295116Y305489D01*
X-3297231Y308052D01*
X-3299014Y310231D01*
X-3300495Y312062D01*
X-3301703Y313584D01*
X-3302667Y314833D01*
X-3303419Y315848D01*
X-3303986Y316664D01*
X-3304400Y317320D01*
X-3304689Y317852D01*
X-3304884Y318298D01*
X-3305014Y318695D01*
X-3305072Y318919D01*
X-3305467Y322118D01*
X-3305137Y325192D01*
X-3304132Y328038D01*
X-3302500Y330552D01*
X-3300292Y332632D01*
X-3297858Y334045D01*
X-3296732Y334507D01*
X-3295754Y334770D01*
X-3294671Y334859D01*
X-3293228Y334804D01*
G36*
X-3293228Y334804D02*
G01*
X-3291897Y334697D01*
X-3289953Y334493D01*
X-3288552Y334239D01*
X-3287442Y333870D01*
X-3286371Y333322D01*
X-3286247Y333250D01*
X-3285829Y332946D01*
X-3285240Y332416D01*
X-3284452Y331629D01*
X-3283438Y330554D01*
X-3282170Y329158D01*
X-3280622Y327411D01*
X-3278765Y325280D01*
X-3276571Y322734D01*
X-3274014Y319742D01*
X-3271066Y316271D01*
X-3267700Y312291D01*
X-3263887Y307769D01*
X-3259601Y302675D01*
X-3258660Y301554D01*
X-3254404Y296487D01*
X-3250631Y291988D01*
X-3247312Y288022D01*
X-3244417Y284552D01*
X-3241917Y281542D01*
X-3239783Y278954D01*
X-3237984Y276752D01*
X-3236492Y274899D01*
X-3235276Y273360D01*
X-3234308Y272096D01*
X-3233557Y271073D01*
X-3232995Y270252D01*
X-3232591Y269598D01*
X-3232316Y269073D01*
X-3232155Y268682D01*
X-3231529Y266061D01*
X-3231393Y263329D01*
X-3231754Y260790D01*
X-3232031Y259912D01*
X-3233512Y257028D01*
X-3235513Y254695D01*
X-3237951Y252965D01*
X-3240742Y251886D01*
X-3243803Y251507D01*
X-3245947Y251667D01*
X-3246692Y251779D01*
X-3247371Y251899D01*
X-3248017Y252060D01*
X-3248664Y252297D01*
X-3249343Y252644D01*
X-3250088Y253135D01*
X-3250932Y253805D01*
X-3251908Y254688D01*
X-3253048Y255818D01*
X-3254386Y257230D01*
X-3255953Y258956D01*
X-3257784Y261033D01*
X-3259910Y263494D01*
X-3262366Y266373D01*
X-3265182Y269704D01*
X-3268394Y273523D01*
X-3272032Y277862D01*
X-3276131Y282756D01*
X-3278517Y285606D01*
X-3282739Y290649D01*
X-3286480Y295122D01*
X-3289770Y299061D01*
X-3292639Y302505D01*
X-3295116Y305489D01*
X-3297231Y308052D01*
X-3299014Y310231D01*
X-3300495Y312062D01*
X-3301703Y313584D01*
X-3302667Y314833D01*
X-3303419Y315848D01*
X-3303986Y316664D01*
X-3304400Y317320D01*
X-3304689Y317852D01*
X-3304884Y318298D01*
X-3305014Y318695D01*
X-3305072Y318919D01*
X-3305467Y322118D01*
X-3305137Y325192D01*
X-3304132Y328038D01*
X-3302500Y330552D01*
X-3300292Y332632D01*
X-3297858Y334045D01*
X-3296732Y334507D01*
X-3295754Y334770D01*
X-3294671Y334859D01*
X-3293228Y334804D01*
G37*
%TO.C,MH1*%
X3207085Y1097031D02*
X3213047Y1096261D01*
X3218826Y1094780D01*
X3219208Y1094654D01*
X3224814Y1092363D01*
X3230109Y1089383D01*
X3235024Y1085781D01*
X3239492Y1081625D01*
X3243443Y1076980D01*
X3246808Y1071915D01*
X3249519Y1066496D01*
X3250387Y1064295D01*
X3250842Y1062866D01*
X3251395Y1060844D01*
X3251999Y1058415D01*
X3252609Y1055768D01*
X3253177Y1053088D01*
X3253186Y1053044D01*
X3255349Y1043071D01*
X3257708Y1033694D01*
X3260319Y1024729D01*
X3263239Y1015989D01*
X3266524Y1007291D01*
X3268479Y1002521D01*
X3269847Y999071D01*
X3270785Y996187D01*
X3271297Y993776D01*
X3271390Y991740D01*
X3271069Y989984D01*
X3270338Y988412D01*
X3269343Y987084D01*
X3268448Y986158D01*
X3267477Y985391D01*
X3266291Y984717D01*
X3264752Y984070D01*
X3262721Y983381D01*
X3260059Y982584D01*
X3259970Y982559D01*
X3254291Y980790D01*
X3249118Y978886D01*
X3244164Y976733D01*
X3240857Y975114D01*
X3233344Y970840D01*
X3226186Y965888D01*
X3219457Y960320D01*
X3213228Y954199D01*
X3207573Y947589D01*
X3204797Y943857D01*
X3202604Y940978D01*
X3200571Y938802D01*
X3198624Y937278D01*
X3196693Y936350D01*
X3194703Y935964D01*
X3194187Y935946D01*
X3192331Y936135D01*
X3190658Y936768D01*
X3189096Y937912D01*
X3187573Y939632D01*
X3186020Y941994D01*
X3184364Y945064D01*
X3184349Y945095D01*
X3178609Y957254D01*
X3173266Y970019D01*
X3168354Y983290D01*
X3163907Y996968D01*
X3159958Y1010952D01*
X3156541Y1025143D01*
X3155299Y1031007D01*
X3154219Y1036955D01*
X3153527Y1042268D01*
X3153222Y1047003D01*
X3153298Y1051213D01*
X3153685Y1054572D01*
X3155134Y1060915D01*
X3157272Y1066893D01*
X3160074Y1072471D01*
X3163516Y1077614D01*
X3167575Y1082286D01*
X3172227Y1086453D01*
X3177448Y1090079D01*
X3178279Y1090575D01*
X3183550Y1093204D01*
X3189173Y1095175D01*
X3195042Y1096477D01*
X3201048Y1097099D01*
X3207085Y1097031D01*
G36*
X3207085Y1097031D02*
G01*
X3213047Y1096261D01*
X3218826Y1094780D01*
X3219208Y1094654D01*
X3224814Y1092363D01*
X3230109Y1089383D01*
X3235024Y1085781D01*
X3239492Y1081625D01*
X3243443Y1076980D01*
X3246808Y1071915D01*
X3249519Y1066496D01*
X3250387Y1064295D01*
X3250842Y1062866D01*
X3251395Y1060844D01*
X3251999Y1058415D01*
X3252609Y1055768D01*
X3253177Y1053088D01*
X3253186Y1053044D01*
X3255349Y1043071D01*
X3257708Y1033694D01*
X3260319Y1024729D01*
X3263239Y1015989D01*
X3266524Y1007291D01*
X3268479Y1002521D01*
X3269847Y999071D01*
X3270785Y996187D01*
X3271297Y993776D01*
X3271390Y991740D01*
X3271069Y989984D01*
X3270338Y988412D01*
X3269343Y987084D01*
X3268448Y986158D01*
X3267477Y985391D01*
X3266291Y984717D01*
X3264752Y984070D01*
X3262721Y983381D01*
X3260059Y982584D01*
X3259970Y982559D01*
X3254291Y980790D01*
X3249118Y978886D01*
X3244164Y976733D01*
X3240857Y975114D01*
X3233344Y970840D01*
X3226186Y965888D01*
X3219457Y960320D01*
X3213228Y954199D01*
X3207573Y947589D01*
X3204797Y943857D01*
X3202604Y940978D01*
X3200571Y938802D01*
X3198624Y937278D01*
X3196693Y936350D01*
X3194703Y935964D01*
X3194187Y935946D01*
X3192331Y936135D01*
X3190658Y936768D01*
X3189096Y937912D01*
X3187573Y939632D01*
X3186020Y941994D01*
X3184364Y945064D01*
X3184349Y945095D01*
X3178609Y957254D01*
X3173266Y970019D01*
X3168354Y983290D01*
X3163907Y996968D01*
X3159958Y1010952D01*
X3156541Y1025143D01*
X3155299Y1031007D01*
X3154219Y1036955D01*
X3153527Y1042268D01*
X3153222Y1047003D01*
X3153298Y1051213D01*
X3153685Y1054572D01*
X3155134Y1060915D01*
X3157272Y1066893D01*
X3160074Y1072471D01*
X3163516Y1077614D01*
X3167575Y1082286D01*
X3172227Y1086453D01*
X3177448Y1090079D01*
X3178279Y1090575D01*
X3183550Y1093204D01*
X3189173Y1095175D01*
X3195042Y1096477D01*
X3201048Y1097099D01*
X3207085Y1097031D01*
G37*
X3393410Y872217D02*
X3395956Y871443D01*
X3398199Y870524D01*
X3410251Y865579D01*
X3422680Y861251D01*
X3435544Y857521D01*
X3448901Y854371D01*
X3451970Y853743D01*
X3455438Y853033D01*
X3458276Y852401D01*
X3460638Y851804D01*
X3462677Y851196D01*
X3464548Y850534D01*
X3466404Y849771D01*
X3467788Y849148D01*
X3473086Y846274D01*
X3477993Y842760D01*
X3482451Y838678D01*
X3486404Y834100D01*
X3489794Y829101D01*
X3492565Y823753D01*
X3494658Y818128D01*
X3495823Y813396D01*
X3496635Y807120D01*
X3496689Y800957D01*
X3496016Y794956D01*
X3494650Y789164D01*
X3492623Y783631D01*
X3489968Y778405D01*
X3486716Y773535D01*
X3482901Y769069D01*
X3478555Y765056D01*
X3473711Y761543D01*
X3468400Y758581D01*
X3462657Y756217D01*
X3456512Y754500D01*
X3456341Y754463D01*
X3454573Y754145D01*
X3452649Y753932D01*
X3450379Y753813D01*
X3447574Y753772D01*
X3446419Y753775D01*
X3444251Y753812D01*
X3442154Y753913D01*
X3440030Y754092D01*
X3437777Y754366D01*
X3435295Y754752D01*
X3432484Y755265D01*
X3429244Y755921D01*
X3425473Y756737D01*
X3421072Y757729D01*
X3419233Y758151D01*
X3407892Y761002D01*
X3396274Y764382D01*
X3384565Y768223D01*
X3372951Y772459D01*
X3361617Y777023D01*
X3350750Y781849D01*
X3343633Y785290D01*
X3340880Y786738D01*
X3338777Y788018D01*
X3337220Y789209D01*
X3336105Y790393D01*
X3335328Y791651D01*
X3335240Y791837D01*
X3334643Y793640D01*
X3334648Y795323D01*
X3335044Y796747D01*
X3336129Y798718D01*
X3337961Y800743D01*
X3340499Y802777D01*
X3340978Y803107D01*
X3348301Y808515D01*
X3355048Y814435D01*
X3361194Y820839D01*
X3366716Y827698D01*
X3371588Y834981D01*
X3375788Y842661D01*
X3378338Y848316D01*
X3379573Y851435D01*
X3380695Y854574D01*
X3381770Y857937D01*
X3382864Y861724D01*
X3383749Y865018D01*
X3384280Y866842D01*
X3384822Y868147D01*
X3385506Y869197D01*
X3386251Y870039D01*
X3387807Y871383D01*
X3389446Y872191D01*
X3391277Y872467D01*
X3393410Y872217D01*
G36*
X3393410Y872217D02*
G01*
X3395956Y871443D01*
X3398199Y870524D01*
X3410251Y865579D01*
X3422680Y861251D01*
X3435544Y857521D01*
X3448901Y854371D01*
X3451970Y853743D01*
X3455438Y853033D01*
X3458276Y852401D01*
X3460638Y851804D01*
X3462677Y851196D01*
X3464548Y850534D01*
X3466404Y849771D01*
X3467788Y849148D01*
X3473086Y846274D01*
X3477993Y842760D01*
X3482451Y838678D01*
X3486404Y834100D01*
X3489794Y829101D01*
X3492565Y823753D01*
X3494658Y818128D01*
X3495823Y813396D01*
X3496635Y807120D01*
X3496689Y800957D01*
X3496016Y794956D01*
X3494650Y789164D01*
X3492623Y783631D01*
X3489968Y778405D01*
X3486716Y773535D01*
X3482901Y769069D01*
X3478555Y765056D01*
X3473711Y761543D01*
X3468400Y758581D01*
X3462657Y756217D01*
X3456512Y754500D01*
X3456341Y754463D01*
X3454573Y754145D01*
X3452649Y753932D01*
X3450379Y753813D01*
X3447574Y753772D01*
X3446419Y753775D01*
X3444251Y753812D01*
X3442154Y753913D01*
X3440030Y754092D01*
X3437777Y754366D01*
X3435295Y754752D01*
X3432484Y755265D01*
X3429244Y755921D01*
X3425473Y756737D01*
X3421072Y757729D01*
X3419233Y758151D01*
X3407892Y761002D01*
X3396274Y764382D01*
X3384565Y768223D01*
X3372951Y772459D01*
X3361617Y777023D01*
X3350750Y781849D01*
X3343633Y785290D01*
X3340880Y786738D01*
X3338777Y788018D01*
X3337220Y789209D01*
X3336105Y790393D01*
X3335328Y791651D01*
X3335240Y791837D01*
X3334643Y793640D01*
X3334648Y795323D01*
X3335044Y796747D01*
X3336129Y798718D01*
X3337961Y800743D01*
X3340499Y802777D01*
X3340978Y803107D01*
X3348301Y808515D01*
X3355048Y814435D01*
X3361194Y820839D01*
X3366716Y827698D01*
X3371588Y834981D01*
X3375788Y842661D01*
X3378338Y848316D01*
X3379573Y851435D01*
X3380695Y854574D01*
X3381770Y857937D01*
X3382864Y861724D01*
X3383749Y865018D01*
X3384280Y866842D01*
X3384822Y868147D01*
X3385506Y869197D01*
X3386251Y870039D01*
X3387807Y871383D01*
X3389446Y872191D01*
X3391277Y872467D01*
X3393410Y872217D01*
G37*
X3251156Y946580D02*
X3253592Y946509D01*
X3256568Y946388D01*
X3260154Y946220D01*
X3264418Y946007D01*
X3267594Y945844D01*
X3271578Y945633D01*
X3275361Y945421D01*
X3278860Y945214D01*
X3281994Y945016D01*
X3284681Y944834D01*
X3286839Y944672D01*
X3288388Y944536D01*
X3289245Y944431D01*
X3289339Y944411D01*
X3291668Y943415D01*
X3293572Y941858D01*
X3295014Y939870D01*
X3295958Y937582D01*
X3296366Y935125D01*
X3296202Y932631D01*
X3295428Y930229D01*
X3294008Y928051D01*
X3293964Y928000D01*
X3292360Y926562D01*
X3290489Y925446D01*
X3290363Y925390D01*
X3289578Y925069D01*
X3288852Y924840D01*
X3288044Y924695D01*
X3287012Y924624D01*
X3285614Y924616D01*
X3283708Y924662D01*
X3281153Y924753D01*
X3281121Y924754D01*
X3278606Y924856D01*
X3276169Y924971D01*
X3274002Y925087D01*
X3272297Y925196D01*
X3271451Y925264D01*
X3270457Y925361D01*
X3269758Y925382D01*
X3269380Y925251D01*
X3269352Y924891D01*
X3269700Y924224D01*
X3270451Y923175D01*
X3271633Y921667D01*
X3273272Y919623D01*
X3273581Y919237D01*
X3280523Y910930D01*
X3287926Y902721D01*
X3295668Y894731D01*
X3303624Y887081D01*
X3311674Y879889D01*
X3319694Y873276D01*
X3323933Y870015D01*
X3325470Y868864D01*
X3325216Y872421D01*
X3325120Y874125D01*
X3325029Y876370D01*
X3324952Y878903D01*
X3324897Y881471D01*
X3324885Y882328D01*
X3324868Y884846D01*
X3324895Y886716D01*
X3324978Y888083D01*
X3325127Y889093D01*
X3325355Y889889D01*
X3325507Y890265D01*
X3326924Y892545D01*
X3328897Y894390D01*
X3331265Y895694D01*
X3333866Y896351D01*
X3334897Y896409D01*
X3337469Y896046D01*
X3339898Y895030D01*
X3342009Y893476D01*
X3343631Y891493D01*
X3344210Y890362D01*
X3344399Y889878D01*
X3344564Y889359D01*
X3344707Y888737D01*
X3344833Y887945D01*
X3344948Y886917D01*
X3345055Y885587D01*
X3345159Y883887D01*
X3345264Y881750D01*
X3345375Y879111D01*
X3345495Y875901D01*
X3345631Y872055D01*
X3345785Y867505D01*
X3345844Y865749D01*
X3345995Y861165D01*
X3346115Y857302D01*
X3346196Y854087D01*
X3346233Y851446D01*
X3346221Y849308D01*
X3346154Y847600D01*
X3346027Y846248D01*
X3345834Y845180D01*
X3345570Y844324D01*
X3345228Y843607D01*
X3344804Y842955D01*
X3344291Y842296D01*
X3344023Y841969D01*
X3342872Y840882D01*
X3341353Y839850D01*
X3339731Y839020D01*
X3338271Y838538D01*
X3337697Y838473D01*
X3337112Y838386D01*
X3335836Y838138D01*
X3333949Y837745D01*
X3331532Y837225D01*
X3328667Y836596D01*
X3325435Y835877D01*
X3321917Y835083D01*
X3318511Y834306D01*
X3313849Y833243D01*
X3309890Y832357D01*
X3306564Y831637D01*
X3303802Y831075D01*
X3301536Y830658D01*
X3299695Y830377D01*
X3298211Y830223D01*
X3297015Y830184D01*
X3296037Y830251D01*
X3295209Y830413D01*
X3294462Y830660D01*
X3294281Y830733D01*
X3292274Y831915D01*
X3290449Y833607D01*
X3289143Y835459D01*
X3288511Y837296D01*
X3288243Y839520D01*
X3288340Y841816D01*
X3288800Y843870D01*
X3289138Y844652D01*
X3290239Y846260D01*
X3291715Y847798D01*
X3293302Y849013D01*
X3294220Y849492D01*
X3294965Y849726D01*
X3296345Y850095D01*
X3298222Y850567D01*
X3300457Y851105D01*
X3302912Y851676D01*
X3303317Y851768D01*
X3305706Y852314D01*
X3307815Y852804D01*
X3309529Y853209D01*
X3310730Y853503D01*
X3311302Y853657D01*
X3311332Y853670D01*
X3311076Y853939D01*
X3310298Y854612D01*
X3309101Y855603D01*
X3307590Y856827D01*
X3306598Y857617D01*
X3294685Y867578D01*
X3283292Y878137D01*
X3272421Y889295D01*
X3262071Y901051D01*
X3257183Y907038D01*
X3255794Y908749D01*
X3254568Y910192D01*
X3253592Y911271D01*
X3252950Y911894D01*
X3252735Y911999D01*
X3252566Y911541D01*
X3252238Y910428D01*
X3251783Y908777D01*
X3251233Y906705D01*
X3250619Y904328D01*
X3250374Y903362D01*
X3249588Y900267D01*
X3248954Y897837D01*
X3248431Y895967D01*
X3247982Y894549D01*
X3247567Y893480D01*
X3247149Y892653D01*
X3246688Y891962D01*
X3246146Y891302D01*
X3245834Y890952D01*
X3243788Y889229D01*
X3241455Y888161D01*
X3238965Y887731D01*
X3236452Y887919D01*
X3234046Y888707D01*
X3231878Y890076D01*
X3230080Y892008D01*
X3229304Y893291D01*
X3228800Y894404D01*
X3228470Y895519D01*
X3228320Y896747D01*
X3228360Y898196D01*
X3228598Y899978D01*
X3229043Y902203D01*
X3229704Y904982D01*
X3230460Y907926D01*
X3231197Y910751D01*
X3232077Y914135D01*
X3233046Y917870D01*
X3234049Y921747D01*
X3235033Y925556D01*
X3235904Y928934D01*
X3236861Y932622D01*
X3237670Y935625D01*
X3238366Y938030D01*
X3238987Y939923D01*
X3239569Y941391D01*
X3240150Y942521D01*
X3240766Y943400D01*
X3241455Y944114D01*
X3242253Y944750D01*
X3242800Y945130D01*
X3243407Y945526D01*
X3244002Y945857D01*
X3244651Y946124D01*
X3245426Y946330D01*
X3246394Y946477D01*
X3247626Y946566D01*
X3249190Y946600D01*
X3251156Y946580D01*
G36*
X3251156Y946580D02*
G01*
X3253592Y946509D01*
X3256568Y946388D01*
X3260154Y946220D01*
X3264418Y946007D01*
X3267594Y945844D01*
X3271578Y945633D01*
X3275361Y945421D01*
X3278860Y945214D01*
X3281994Y945016D01*
X3284681Y944834D01*
X3286839Y944672D01*
X3288388Y944536D01*
X3289245Y944431D01*
X3289339Y944411D01*
X3291668Y943415D01*
X3293572Y941858D01*
X3295014Y939870D01*
X3295958Y937582D01*
X3296366Y935125D01*
X3296202Y932631D01*
X3295428Y930229D01*
X3294008Y928051D01*
X3293964Y928000D01*
X3292360Y926562D01*
X3290489Y925446D01*
X3290363Y925390D01*
X3289578Y925069D01*
X3288852Y924840D01*
X3288044Y924695D01*
X3287012Y924624D01*
X3285614Y924616D01*
X3283708Y924662D01*
X3281153Y924753D01*
X3281121Y924754D01*
X3278606Y924856D01*
X3276169Y924971D01*
X3274002Y925087D01*
X3272297Y925196D01*
X3271451Y925264D01*
X3270457Y925361D01*
X3269758Y925382D01*
X3269380Y925251D01*
X3269352Y924891D01*
X3269700Y924224D01*
X3270451Y923175D01*
X3271633Y921667D01*
X3273272Y919623D01*
X3273581Y919237D01*
X3280523Y910930D01*
X3287926Y902721D01*
X3295668Y894731D01*
X3303624Y887081D01*
X3311674Y879889D01*
X3319694Y873276D01*
X3323933Y870015D01*
X3325470Y868864D01*
X3325216Y872421D01*
X3325120Y874125D01*
X3325029Y876370D01*
X3324952Y878903D01*
X3324897Y881471D01*
X3324885Y882328D01*
X3324868Y884846D01*
X3324895Y886716D01*
X3324978Y888083D01*
X3325127Y889093D01*
X3325355Y889889D01*
X3325507Y890265D01*
X3326924Y892545D01*
X3328897Y894390D01*
X3331265Y895694D01*
X3333866Y896351D01*
X3334897Y896409D01*
X3337469Y896046D01*
X3339898Y895030D01*
X3342009Y893476D01*
X3343631Y891493D01*
X3344210Y890362D01*
X3344399Y889878D01*
X3344564Y889359D01*
X3344707Y888737D01*
X3344833Y887945D01*
X3344948Y886917D01*
X3345055Y885587D01*
X3345159Y883887D01*
X3345264Y881750D01*
X3345375Y879111D01*
X3345495Y875901D01*
X3345631Y872055D01*
X3345785Y867505D01*
X3345844Y865749D01*
X3345995Y861165D01*
X3346115Y857302D01*
X3346196Y854087D01*
X3346233Y851446D01*
X3346221Y849308D01*
X3346154Y847600D01*
X3346027Y846248D01*
X3345834Y845180D01*
X3345570Y844324D01*
X3345228Y843607D01*
X3344804Y842955D01*
X3344291Y842296D01*
X3344023Y841969D01*
X3342872Y840882D01*
X3341353Y839850D01*
X3339731Y839020D01*
X3338271Y838538D01*
X3337697Y838473D01*
X3337112Y838386D01*
X3335836Y838138D01*
X3333949Y837745D01*
X3331532Y837225D01*
X3328667Y836596D01*
X3325435Y835877D01*
X3321917Y835083D01*
X3318511Y834306D01*
X3313849Y833243D01*
X3309890Y832357D01*
X3306564Y831637D01*
X3303802Y831075D01*
X3301536Y830658D01*
X3299695Y830377D01*
X3298211Y830223D01*
X3297015Y830184D01*
X3296037Y830251D01*
X3295209Y830413D01*
X3294462Y830660D01*
X3294281Y830733D01*
X3292274Y831915D01*
X3290449Y833607D01*
X3289143Y835459D01*
X3288511Y837296D01*
X3288243Y839520D01*
X3288340Y841816D01*
X3288800Y843870D01*
X3289138Y844652D01*
X3290239Y846260D01*
X3291715Y847798D01*
X3293302Y849013D01*
X3294220Y849492D01*
X3294965Y849726D01*
X3296345Y850095D01*
X3298222Y850567D01*
X3300457Y851105D01*
X3302912Y851676D01*
X3303317Y851768D01*
X3305706Y852314D01*
X3307815Y852804D01*
X3309529Y853209D01*
X3310730Y853503D01*
X3311302Y853657D01*
X3311332Y853670D01*
X3311076Y853939D01*
X3310298Y854612D01*
X3309101Y855603D01*
X3307590Y856827D01*
X3306598Y857617D01*
X3294685Y867578D01*
X3283292Y878137D01*
X3272421Y889295D01*
X3262071Y901051D01*
X3257183Y907038D01*
X3255794Y908749D01*
X3254568Y910192D01*
X3253592Y911271D01*
X3252950Y911894D01*
X3252735Y911999D01*
X3252566Y911541D01*
X3252238Y910428D01*
X3251783Y908777D01*
X3251233Y906705D01*
X3250619Y904328D01*
X3250374Y903362D01*
X3249588Y900267D01*
X3248954Y897837D01*
X3248431Y895967D01*
X3247982Y894549D01*
X3247567Y893480D01*
X3247149Y892653D01*
X3246688Y891962D01*
X3246146Y891302D01*
X3245834Y890952D01*
X3243788Y889229D01*
X3241455Y888161D01*
X3238965Y887731D01*
X3236452Y887919D01*
X3234046Y888707D01*
X3231878Y890076D01*
X3230080Y892008D01*
X3229304Y893291D01*
X3228800Y894404D01*
X3228470Y895519D01*
X3228320Y896747D01*
X3228360Y898196D01*
X3228598Y899978D01*
X3229043Y902203D01*
X3229704Y904982D01*
X3230460Y907926D01*
X3231197Y910751D01*
X3232077Y914135D01*
X3233046Y917870D01*
X3234049Y921747D01*
X3235033Y925556D01*
X3235904Y928934D01*
X3236861Y932622D01*
X3237670Y935625D01*
X3238366Y938030D01*
X3238987Y939923D01*
X3239569Y941391D01*
X3240150Y942521D01*
X3240766Y943400D01*
X3241455Y944114D01*
X3242253Y944750D01*
X3242800Y945130D01*
X3243407Y945526D01*
X3244002Y945857D01*
X3244651Y946124D01*
X3245426Y946330D01*
X3246394Y946477D01*
X3247626Y946566D01*
X3249190Y946600D01*
X3251156Y946580D01*
G37*
%TD*%
M02*
