%TF.GenerationSoftware,KiCad,Pcbnew,9.0.4*%
%TF.CreationDate,2025-10-01T23:04:25+01:00*%
%TF.ProjectId,mm_jacdaptor,6d6d5f6a-6163-4646-9170-746f722e6b69,v0.4*%
%TF.SameCoordinates,PX8d24d00PY37ca3a0*%
%TF.FileFunction,Soldermask,Top*%
%TF.FilePolarity,Negative*%
%FSLAX45Y45*%
G04 Gerber Fmt 4.5, Leading zero omitted, Abs format (unit mm)*
G04 Created by KiCad (PCBNEW 9.0.4) date 2025-10-01 23:04:25*
%MOMM*%
%LPD*%
G01*
G04 APERTURE LIST*
%ADD10C,2.500000*%
%ADD11C,0.000000*%
G04 APERTURE END LIST*
%TO.C,MH3*%
D10*
X-3375000Y1100000D02*
G75*
G02*
X-3625000Y1100000I-125000J0D01*
G01*
X-3625000Y1100000D02*
G75*
G02*
X-3375000Y1100000I125000J0D01*
G01*
%TO.C,MH4*%
X3625000Y100000D02*
G75*
G02*
X3375000Y100000I-125000J0D01*
G01*
X3375000Y100000D02*
G75*
G02*
X3625000Y100000I125000J0D01*
G01*
%TO.C,MH2*%
X-3375000Y100000D02*
G75*
G02*
X-3625000Y100000I-125000J0D01*
G01*
X-3625000Y100000D02*
G75*
G02*
X-3375000Y100000I125000J0D01*
G01*
D11*
%TO.C,MH1*%
G36*
X3500000Y1349507D02*
G01*
X3515698Y1349507D01*
X3546845Y1345572D01*
X3577254Y1337764D01*
X3606445Y1326207D01*
X3633957Y1311082D01*
X3659356Y1292628D01*
X3682242Y1271137D01*
X3702254Y1246946D01*
X3719077Y1220439D01*
X3732444Y1192031D01*
X3742146Y1162173D01*
X3748029Y1131333D01*
X3750000Y1100000D01*
X3750000Y850000D01*
X3500000Y850000D01*
X3500000Y850493D01*
X3484302Y850493D01*
X3453155Y854428D01*
X3422746Y862236D01*
X3393555Y873793D01*
X3366043Y888918D01*
X3340644Y907372D01*
X3317758Y928863D01*
X3297746Y953054D01*
X3280923Y979562D01*
X3267556Y1007969D01*
X3257854Y1037828D01*
X3251971Y1068667D01*
X3250000Y1100000D01*
X3250000Y1350000D01*
X3500000Y1350000D01*
X3500000Y1349507D01*
G37*
%TD*%
M02*
