%TF.GenerationSoftware,KiCad,Pcbnew,9.0.6-9.0.6~ubuntu22.04.1*%
%TF.CreationDate,2026-01-23T17:01:31+00:00*%
%TF.ProjectId,mm_jacdaptor,6d6d5f6a-6163-4646-9170-746f722e6b69,v0.4*%
%TF.SameCoordinates,PX8d24d00PY37ca3a0*%
%TF.FileFunction,Legend,Top*%
%TF.FilePolarity,Positive*%
%FSLAX45Y45*%
G04 Gerber Fmt 4.5, Leading zero omitted, Abs format (unit mm)*
G04 Created by KiCad (PCBNEW 9.0.6-9.0.6~ubuntu22.04.1) date 2026-01-23 17:01:31*
%MOMM*%
%LPD*%
G01*
G04 APERTURE LIST*
%ADD10C,0.200000*%
%ADD11C,0.010000*%
G04 APERTURE END LIST*
D10*
X3500000Y-950000D02*
G75*
G02*
X3400000Y-1050000I-100000J0D01*
G01*
X-1398000Y-1150000D02*
X-1398000Y-1555000D01*
X-3500000Y-200000D02*
G75*
G02*
X-3500000Y400000I0J300000D01*
G01*
X2755000Y1600000D02*
X3247000Y1600000D01*
X-2628000Y-1635000D02*
X-3122000Y-1635000D01*
X-2735000Y1580000D02*
X-2735000Y585000D01*
X-1002000Y-1050000D02*
G75*
G02*
X-902000Y-1150000I0J-100000D01*
G01*
X-2735000Y585000D02*
X2735000Y585000D01*
X3577646Y1389778D02*
G75*
G02*
X3789778Y1022354I-77646J-289778D01*
G01*
X3500000Y400000D02*
G75*
G02*
X3500000Y-200000I0J-300000D01*
G01*
X3500000Y1400000D02*
X3407000Y1400000D01*
X3122000Y-1635000D02*
X2628000Y-1635000D01*
X3407000Y1400000D02*
G75*
G02*
X3327000Y1480000I0J80000D01*
G01*
X902000Y-1555000D02*
G75*
G02*
X822000Y-1635000I-80000J0D01*
G01*
X-3500000Y800000D02*
G75*
G02*
X-3500000Y1400000I0J300000D01*
G01*
X2628000Y-1635000D02*
G75*
G02*
X2548000Y-1555000I0J80000D01*
G01*
X-3302000Y-1050000D02*
G75*
G02*
X-3202000Y-1150000I0J-100000D01*
G01*
X-2548000Y-1555000D02*
G75*
G02*
X-2628000Y-1635000I-80000J0D01*
G01*
X2448000Y-1050000D02*
X2152000Y-1050000D01*
X822000Y-1635000D02*
X328000Y-1635000D01*
X2052000Y-1150000D02*
X2052000Y-1555000D01*
X-1398000Y-1150000D02*
G75*
G02*
X-1298000Y-1050000I100000J0D01*
G01*
X3327000Y1480000D02*
X3327000Y1520000D01*
X-248000Y-1150000D02*
X-248000Y-1555000D01*
X-2152000Y-1050000D02*
G75*
G02*
X-2052000Y-1150000I0J-100000D01*
G01*
X2052000Y-1150000D02*
G75*
G02*
X2152000Y-1050000I100000J0D01*
G01*
X148000Y-1050000D02*
X-148000Y-1050000D01*
X2052000Y-1555000D02*
G75*
G02*
X1972000Y-1635000I-80000J0D01*
G01*
X1398000Y-1150000D02*
X1398000Y-1555000D01*
X-3122000Y-1635000D02*
G75*
G02*
X-3202000Y-1555000I0J80000D01*
G01*
X-248000Y-1150000D02*
G75*
G02*
X-148000Y-1050000I100000J0D01*
G01*
X-3327000Y1520000D02*
G75*
G02*
X-3247000Y1600000I80000J0D01*
G01*
X-1972000Y-1635000D02*
G75*
G02*
X-2052000Y-1555000I0J80000D01*
G01*
X-822000Y-1635000D02*
G75*
G02*
X-902000Y-1555000I0J80000D01*
G01*
X1298000Y-1050000D02*
G75*
G02*
X1398000Y-1150000I0J-100000D01*
G01*
X-2052000Y-1150000D02*
X-2052000Y-1555000D01*
X3500000Y1400000D02*
G75*
G02*
X3800000Y1100000I0J-300000D01*
G01*
X-2548000Y-1150000D02*
G75*
G02*
X-2448000Y-1050000I100000J0D01*
G01*
X-2755000Y1600000D02*
G75*
G02*
X-2735000Y1580000I0J-20000D01*
G01*
X-2548000Y-1150000D02*
X-2548000Y-1555000D01*
X3247000Y1600000D02*
G75*
G02*
X3327000Y1520000I0J-80000D01*
G01*
X2448000Y-1050000D02*
G75*
G02*
X2548000Y-1150000I0J-100000D01*
G01*
X-3400000Y-1050000D02*
G75*
G02*
X-3500000Y-950000I0J100000D01*
G01*
X248000Y-1150000D02*
X248000Y-1555000D01*
X1298000Y-1050000D02*
X1002000Y-1050000D01*
X1972000Y-1635000D02*
X1478000Y-1635000D01*
X2735000Y1580000D02*
G75*
G02*
X2755000Y1600000I20000J0D01*
G01*
X3500000Y-200000D02*
X3500000Y-950000D01*
X3202000Y-1555000D02*
G75*
G02*
X3122000Y-1635000I-80000J0D01*
G01*
X-3247000Y1600000D02*
X-2755000Y1600000D01*
X-248000Y-1555000D02*
G75*
G02*
X-328000Y-1635000I-80000J0D01*
G01*
X-328000Y-1635000D02*
X-822000Y-1635000D01*
X-1002000Y-1050000D02*
X-1298000Y-1050000D01*
X148000Y-1050000D02*
G75*
G02*
X248000Y-1150000I0J-100000D01*
G01*
X-3500000Y-200000D02*
X-3500000Y-950000D01*
X3202000Y-1150000D02*
G75*
G02*
X3302000Y-1050000I100000J0D01*
G01*
X-1478000Y-1635000D02*
X-1972000Y-1635000D01*
X902000Y-1150000D02*
X902000Y-1555000D01*
X-3500000Y1400000D02*
X-3407000Y1400000D01*
X2548000Y-1150000D02*
X2548000Y-1555000D01*
X-2152000Y-1050000D02*
X-2448000Y-1050000D01*
X902000Y-1150000D02*
G75*
G02*
X1002000Y-1050000I100000J0D01*
G01*
X3202000Y-1150000D02*
X3202000Y-1555000D01*
X-902000Y-1150000D02*
X-902000Y-1555000D01*
X-3202000Y-1150000D02*
X-3202000Y-1555000D01*
X1478000Y-1635000D02*
G75*
G02*
X1398000Y-1555000I0J80000D01*
G01*
X3302000Y-1050000D02*
X3400000Y-1050000D01*
X3500000Y800000D02*
X3500000Y400000D01*
X-3302000Y-1050000D02*
X-3400000Y-1050000D01*
X-3327000Y1480000D02*
X-3327000Y1520000D01*
X2735000Y1580000D02*
X2735000Y585000D01*
X-1398000Y-1555000D02*
G75*
G02*
X-1478000Y-1635000I-80000J0D01*
G01*
X328000Y-1635000D02*
G75*
G02*
X248000Y-1555000I0J80000D01*
G01*
X-3327000Y1480000D02*
G75*
G02*
X-3407000Y1400000I-80000J0D01*
G01*
X-3500000Y800000D02*
X-3500000Y400000D01*
D11*
%TO.C,MH3*%
X-3370674Y882030D02*
X-3369044Y881439D01*
X-3367634Y880564D01*
X-3366633Y879753D01*
X-3365785Y878852D01*
X-3365011Y877730D01*
X-3364231Y876253D01*
X-3363368Y874289D01*
X-3362342Y871707D01*
X-3362309Y871621D01*
X-3360053Y866117D01*
X-3357704Y861130D01*
X-3355128Y856382D01*
X-3353227Y853230D01*
X-3348314Y846117D01*
X-3342757Y839418D01*
X-3336624Y833200D01*
X-3329984Y827528D01*
X-3322906Y822471D01*
X-3318946Y820031D01*
X-3315886Y818097D01*
X-3313542Y816261D01*
X-3311854Y814455D01*
X-3310761Y812611D01*
X-3310203Y810663D01*
X-3310140Y810150D01*
X-3310167Y808286D01*
X-3310652Y806563D01*
X-3311655Y804907D01*
X-3313236Y803240D01*
X-3315453Y801487D01*
X-3318368Y799571D01*
X-3318397Y799552D01*
X-3330010Y792775D01*
X-3342260Y786340D01*
X-3355053Y780290D01*
X-3368291Y774667D01*
X-3381878Y769514D01*
X-3395717Y764873D01*
X-3401451Y763126D01*
X-3407281Y761531D01*
X-3412515Y760379D01*
X-3417204Y759662D01*
X-3421405Y759371D01*
X-3424785Y759464D01*
X-3431230Y760354D01*
X-3437372Y761963D01*
X-3443173Y764268D01*
X-3448596Y767249D01*
X-3453604Y770886D01*
X-3458161Y775157D01*
X-3462228Y780041D01*
X-3462794Y780826D01*
X-3465873Y785848D01*
X-3468327Y791278D01*
X-3470135Y797011D01*
X-3471278Y802940D01*
X-3471736Y808960D01*
X-3471489Y814966D01*
X-3470518Y820853D01*
X-3470425Y821244D01*
X-3468631Y827028D01*
X-3466124Y832563D01*
X-3462964Y837774D01*
X-3459213Y842586D01*
X-3454931Y846927D01*
X-3450178Y850721D01*
X-3445016Y853894D01*
X-3442899Y854950D01*
X-3441515Y855528D01*
X-3439549Y856255D01*
X-3437182Y857069D01*
X-3434598Y857907D01*
X-3431978Y858707D01*
X-3431935Y858719D01*
X-3422189Y861743D01*
X-3413053Y864910D01*
X-3404349Y868293D01*
X-3395898Y871964D01*
X-3387519Y875994D01*
X-3382938Y878358D01*
X-3379619Y880021D01*
X-3376829Y881206D01*
X-3374471Y881927D01*
X-3372451Y882197D01*
X-3370674Y882030D01*
G36*
X-3370674Y882030D02*
G01*
X-3369044Y881439D01*
X-3367634Y880564D01*
X-3366633Y879753D01*
X-3365785Y878852D01*
X-3365011Y877730D01*
X-3364231Y876253D01*
X-3363368Y874289D01*
X-3362342Y871707D01*
X-3362309Y871621D01*
X-3360053Y866117D01*
X-3357704Y861130D01*
X-3355128Y856382D01*
X-3353227Y853230D01*
X-3348314Y846117D01*
X-3342757Y839418D01*
X-3336624Y833200D01*
X-3329984Y827528D01*
X-3322906Y822471D01*
X-3318946Y820031D01*
X-3315886Y818097D01*
X-3313542Y816261D01*
X-3311854Y814455D01*
X-3310761Y812611D01*
X-3310203Y810663D01*
X-3310140Y810150D01*
X-3310167Y808286D01*
X-3310652Y806563D01*
X-3311655Y804907D01*
X-3313236Y803240D01*
X-3315453Y801487D01*
X-3318368Y799571D01*
X-3318397Y799552D01*
X-3330010Y792775D01*
X-3342260Y786340D01*
X-3355053Y780290D01*
X-3368291Y774667D01*
X-3381878Y769514D01*
X-3395717Y764873D01*
X-3401451Y763126D01*
X-3407281Y761531D01*
X-3412515Y760379D01*
X-3417204Y759662D01*
X-3421405Y759371D01*
X-3424785Y759464D01*
X-3431230Y760354D01*
X-3437372Y761963D01*
X-3443173Y764268D01*
X-3448596Y767249D01*
X-3453604Y770886D01*
X-3458161Y775157D01*
X-3462228Y780041D01*
X-3462794Y780826D01*
X-3465873Y785848D01*
X-3468327Y791278D01*
X-3470135Y797011D01*
X-3471278Y802940D01*
X-3471736Y808960D01*
X-3471489Y814966D01*
X-3470518Y820853D01*
X-3470425Y821244D01*
X-3468631Y827028D01*
X-3466124Y832563D01*
X-3462964Y837774D01*
X-3459213Y842586D01*
X-3454931Y846927D01*
X-3450178Y850721D01*
X-3445016Y853894D01*
X-3442899Y854950D01*
X-3441515Y855528D01*
X-3439549Y856255D01*
X-3437182Y857069D01*
X-3434598Y857907D01*
X-3431978Y858707D01*
X-3431935Y858719D01*
X-3422189Y861743D01*
X-3413053Y864910D01*
X-3404349Y868293D01*
X-3395898Y871964D01*
X-3387519Y875994D01*
X-3382938Y878358D01*
X-3379619Y880021D01*
X-3376829Y881206D01*
X-3374471Y881927D01*
X-3372451Y882197D01*
X-3370674Y882030D01*
G37*
X-3195993Y1123119D02*
X-3190104Y1122264D01*
X-3184416Y1120726D01*
X-3178978Y1118537D01*
X-3173843Y1115722D01*
X-3169062Y1112311D01*
X-3164685Y1108331D01*
X-3160764Y1103811D01*
X-3157350Y1098779D01*
X-3154494Y1093263D01*
X-3152248Y1087291D01*
X-3152196Y1087124D01*
X-3151725Y1085391D01*
X-3151346Y1083492D01*
X-3151029Y1081241D01*
X-3150744Y1078451D01*
X-3150646Y1077300D01*
X-3150494Y1075137D01*
X-3150412Y1073039D01*
X-3150405Y1070908D01*
X-3150482Y1068640D01*
X-3150650Y1066134D01*
X-3150916Y1063289D01*
X-3151287Y1060003D01*
X-3151771Y1056176D01*
X-3152376Y1051705D01*
X-3152636Y1049836D01*
X-3154488Y1038289D01*
X-3156842Y1026421D01*
X-3159648Y1014422D01*
X-3162856Y1002483D01*
X-3166415Y990795D01*
X-3170275Y979548D01*
X-3173083Y972158D01*
X-3174286Y969290D01*
X-3175377Y967083D01*
X-3176428Y965428D01*
X-3177511Y964214D01*
X-3178696Y963330D01*
X-3178873Y963227D01*
X-3180618Y962475D01*
X-3182294Y962333D01*
X-3183747Y962603D01*
X-3185806Y963513D01*
X-3187982Y965161D01*
X-3190230Y967512D01*
X-3190601Y967960D01*
X-3196626Y974784D01*
X-3203112Y980989D01*
X-3210027Y986554D01*
X-3217341Y991457D01*
X-3225022Y995676D01*
X-3233038Y999190D01*
X-3238894Y1001239D01*
X-3242109Y1002197D01*
X-3245334Y1003041D01*
X-3248777Y1003819D01*
X-3252645Y1004578D01*
X-3256004Y1005173D01*
X-3257868Y1005543D01*
X-3259215Y1005969D01*
X-3260320Y1006559D01*
X-3261224Y1007228D01*
X-3262699Y1008661D01*
X-3263646Y1010223D01*
X-3264081Y1012023D01*
X-3264017Y1014171D01*
X-3263468Y1016773D01*
X-3262748Y1019088D01*
X-3258873Y1031525D01*
X-3255644Y1044284D01*
X-3253050Y1057424D01*
X-3251076Y1071005D01*
X-3250717Y1074117D01*
X-3250312Y1077634D01*
X-3249931Y1080516D01*
X-3249542Y1082921D01*
X-3249114Y1085006D01*
X-3248617Y1086927D01*
X-3248018Y1088843D01*
X-3247519Y1090276D01*
X-3245118Y1095804D01*
X-3242044Y1100998D01*
X-3238366Y1105795D01*
X-3234151Y1110132D01*
X-3229466Y1113945D01*
X-3224380Y1117171D01*
X-3218959Y1119747D01*
X-3214346Y1121319D01*
X-3208165Y1122676D01*
X-3202030Y1123266D01*
X-3195993Y1123119D01*
G36*
X-3195993Y1123119D02*
G01*
X-3190104Y1122264D01*
X-3184416Y1120726D01*
X-3178978Y1118537D01*
X-3173843Y1115722D01*
X-3169062Y1112311D01*
X-3164685Y1108331D01*
X-3160764Y1103811D01*
X-3157350Y1098779D01*
X-3154494Y1093263D01*
X-3152248Y1087291D01*
X-3152196Y1087124D01*
X-3151725Y1085391D01*
X-3151346Y1083492D01*
X-3151029Y1081241D01*
X-3150744Y1078451D01*
X-3150646Y1077300D01*
X-3150494Y1075137D01*
X-3150412Y1073039D01*
X-3150405Y1070908D01*
X-3150482Y1068640D01*
X-3150650Y1066134D01*
X-3150916Y1063289D01*
X-3151287Y1060003D01*
X-3151771Y1056176D01*
X-3152376Y1051705D01*
X-3152636Y1049836D01*
X-3154488Y1038289D01*
X-3156842Y1026421D01*
X-3159648Y1014422D01*
X-3162856Y1002483D01*
X-3166415Y990795D01*
X-3170275Y979548D01*
X-3173083Y972158D01*
X-3174286Y969290D01*
X-3175377Y967083D01*
X-3176428Y965428D01*
X-3177511Y964214D01*
X-3178696Y963330D01*
X-3178873Y963227D01*
X-3180618Y962475D01*
X-3182294Y962333D01*
X-3183747Y962603D01*
X-3185806Y963513D01*
X-3187982Y965161D01*
X-3190230Y967512D01*
X-3190601Y967960D01*
X-3196626Y974784D01*
X-3203112Y980989D01*
X-3210027Y986554D01*
X-3217341Y991457D01*
X-3225022Y995676D01*
X-3233038Y999190D01*
X-3238894Y1001239D01*
X-3242109Y1002197D01*
X-3245334Y1003041D01*
X-3248777Y1003819D01*
X-3252645Y1004578D01*
X-3256004Y1005173D01*
X-3257868Y1005543D01*
X-3259215Y1005969D01*
X-3260320Y1006559D01*
X-3261224Y1007228D01*
X-3262699Y1008661D01*
X-3263646Y1010223D01*
X-3264081Y1012023D01*
X-3264017Y1014171D01*
X-3263468Y1016773D01*
X-3262748Y1019088D01*
X-3258873Y1031525D01*
X-3255644Y1044284D01*
X-3253050Y1057424D01*
X-3251076Y1071005D01*
X-3250717Y1074117D01*
X-3250312Y1077634D01*
X-3249931Y1080516D01*
X-3249542Y1082921D01*
X-3249114Y1085006D01*
X-3248617Y1086927D01*
X-3248018Y1088843D01*
X-3247519Y1090276D01*
X-3245118Y1095804D01*
X-3242044Y1100998D01*
X-3238366Y1105795D01*
X-3234151Y1110132D01*
X-3229466Y1113945D01*
X-3224380Y1117171D01*
X-3218959Y1119747D01*
X-3214346Y1121319D01*
X-3208165Y1122676D01*
X-3202030Y1123266D01*
X-3195993Y1123119D01*
G37*
X-3241458Y945199D02*
X-3239059Y944300D01*
X-3237766Y943464D01*
X-3236017Y941590D01*
X-3234804Y939258D01*
X-3234183Y936638D01*
X-3234207Y933904D01*
X-3234394Y932882D01*
X-3234561Y932276D01*
X-3234805Y931654D01*
X-3235177Y930946D01*
X-3235725Y930086D01*
X-3236501Y929005D01*
X-3237554Y927636D01*
X-3238935Y925911D01*
X-3240693Y923762D01*
X-3242879Y921121D01*
X-3244659Y918981D01*
X-3254411Y907272D01*
X-3243006Y897613D01*
X-3239959Y895012D01*
X-3237256Y892663D01*
X-3234948Y890611D01*
X-3233083Y888903D01*
X-3231712Y887582D01*
X-3230884Y886695D01*
X-3230697Y886439D01*
X-3229977Y884680D01*
X-3229560Y882507D01*
X-3229470Y880236D01*
X-3229730Y878179D01*
X-3230012Y877298D01*
X-3231204Y875264D01*
X-3232888Y873432D01*
X-3234714Y872143D01*
X-3236260Y871600D01*
X-3238237Y871263D01*
X-3240305Y871163D01*
X-3242121Y871329D01*
X-3242672Y871467D01*
X-3243463Y871891D01*
X-3244832Y872840D01*
X-3246767Y874305D01*
X-3249258Y876278D01*
X-3252293Y878751D01*
X-3255863Y881715D01*
X-3255905Y881750D01*
X-3267615Y891549D01*
X-3277283Y880080D01*
X-3280127Y876725D01*
X-3282514Y873956D01*
X-3284478Y871735D01*
X-3286051Y870025D01*
X-3287270Y868789D01*
X-3288167Y867989D01*
X-3288648Y867654D01*
X-3291009Y866737D01*
X-3293648Y866397D01*
X-3296278Y866650D01*
X-3297673Y867070D01*
X-3300122Y868427D01*
X-3302017Y870332D01*
X-3303216Y872498D01*
X-3303807Y874222D01*
X-3304041Y875709D01*
X-3303947Y877324D01*
X-3303711Y878684D01*
X-3303575Y879273D01*
X-3303377Y879855D01*
X-3303069Y880500D01*
X-3302602Y881273D01*
X-3301925Y882241D01*
X-3300991Y883473D01*
X-3299748Y885033D01*
X-3298148Y886991D01*
X-3296143Y889411D01*
X-3293681Y892362D01*
X-3293304Y892814D01*
X-3283336Y904741D01*
X-3295224Y914756D01*
X-3298239Y917301D01*
X-3300706Y919394D01*
X-3302684Y921094D01*
X-3304233Y922457D01*
X-3305413Y923541D01*
X-3306285Y924403D01*
X-3306909Y925101D01*
X-3307345Y925693D01*
X-3307654Y926235D01*
X-3307895Y926785D01*
X-3307926Y926864D01*
X-3308554Y928695D01*
X-3308812Y930207D01*
X-3308737Y931767D01*
X-3308513Y933043D01*
X-3307608Y935597D01*
X-3306079Y937726D01*
X-3304014Y939356D01*
X-3301501Y940410D01*
X-3299439Y940772D01*
X-3298326Y940846D01*
X-3297325Y940838D01*
X-3296365Y940705D01*
X-3295372Y940403D01*
X-3294276Y939889D01*
X-3293003Y939120D01*
X-3291482Y938052D01*
X-3289640Y936642D01*
X-3287406Y934846D01*
X-3284707Y932621D01*
X-3281657Y930079D01*
X-3270145Y920463D01*
X-3260313Y932130D01*
X-3257333Y935643D01*
X-3254823Y938549D01*
X-3252769Y940865D01*
X-3251151Y942611D01*
X-3249955Y943805D01*
X-3249163Y944465D01*
X-3249005Y944560D01*
X-3246673Y945353D01*
X-3244077Y945558D01*
X-3241458Y945199D01*
G36*
X-3241458Y945199D02*
G01*
X-3239059Y944300D01*
X-3237766Y943464D01*
X-3236017Y941590D01*
X-3234804Y939258D01*
X-3234183Y936638D01*
X-3234207Y933904D01*
X-3234394Y932882D01*
X-3234561Y932276D01*
X-3234805Y931654D01*
X-3235177Y930946D01*
X-3235725Y930086D01*
X-3236501Y929005D01*
X-3237554Y927636D01*
X-3238935Y925911D01*
X-3240693Y923762D01*
X-3242879Y921121D01*
X-3244659Y918981D01*
X-3254411Y907272D01*
X-3243006Y897613D01*
X-3239959Y895012D01*
X-3237256Y892663D01*
X-3234948Y890611D01*
X-3233083Y888903D01*
X-3231712Y887582D01*
X-3230884Y886695D01*
X-3230697Y886439D01*
X-3229977Y884680D01*
X-3229560Y882507D01*
X-3229470Y880236D01*
X-3229730Y878179D01*
X-3230012Y877298D01*
X-3231204Y875264D01*
X-3232888Y873432D01*
X-3234714Y872143D01*
X-3236260Y871600D01*
X-3238237Y871263D01*
X-3240305Y871163D01*
X-3242121Y871329D01*
X-3242672Y871467D01*
X-3243463Y871891D01*
X-3244832Y872840D01*
X-3246767Y874305D01*
X-3249258Y876278D01*
X-3252293Y878751D01*
X-3255863Y881715D01*
X-3255905Y881750D01*
X-3267615Y891549D01*
X-3277283Y880080D01*
X-3280127Y876725D01*
X-3282514Y873956D01*
X-3284478Y871735D01*
X-3286051Y870025D01*
X-3287270Y868789D01*
X-3288167Y867989D01*
X-3288648Y867654D01*
X-3291009Y866737D01*
X-3293648Y866397D01*
X-3296278Y866650D01*
X-3297673Y867070D01*
X-3300122Y868427D01*
X-3302017Y870332D01*
X-3303216Y872498D01*
X-3303807Y874222D01*
X-3304041Y875709D01*
X-3303947Y877324D01*
X-3303711Y878684D01*
X-3303575Y879273D01*
X-3303377Y879855D01*
X-3303069Y880500D01*
X-3302602Y881273D01*
X-3301925Y882241D01*
X-3300991Y883473D01*
X-3299748Y885033D01*
X-3298148Y886991D01*
X-3296143Y889411D01*
X-3293681Y892362D01*
X-3293304Y892814D01*
X-3283336Y904741D01*
X-3295224Y914756D01*
X-3298239Y917301D01*
X-3300706Y919394D01*
X-3302684Y921094D01*
X-3304233Y922457D01*
X-3305413Y923541D01*
X-3306285Y924403D01*
X-3306909Y925101D01*
X-3307345Y925693D01*
X-3307654Y926235D01*
X-3307895Y926785D01*
X-3307926Y926864D01*
X-3308554Y928695D01*
X-3308812Y930207D01*
X-3308737Y931767D01*
X-3308513Y933043D01*
X-3307608Y935597D01*
X-3306079Y937726D01*
X-3304014Y939356D01*
X-3301501Y940410D01*
X-3299439Y940772D01*
X-3298326Y940846D01*
X-3297325Y940838D01*
X-3296365Y940705D01*
X-3295372Y940403D01*
X-3294276Y939889D01*
X-3293003Y939120D01*
X-3291482Y938052D01*
X-3289640Y936642D01*
X-3287406Y934846D01*
X-3284707Y932621D01*
X-3281657Y930079D01*
X-3270145Y920463D01*
X-3260313Y932130D01*
X-3257333Y935643D01*
X-3254823Y938549D01*
X-3252769Y940865D01*
X-3251151Y942611D01*
X-3249955Y943805D01*
X-3249163Y944465D01*
X-3249005Y944560D01*
X-3246673Y945353D01*
X-3244077Y945558D01*
X-3241458Y945199D01*
G37*
%TO.C,MH4*%
X3424565Y440787D02*
X3431011Y439896D01*
X3437152Y438287D01*
X3442953Y435982D01*
X3448376Y433001D01*
X3453384Y429364D01*
X3457941Y425094D01*
X3462009Y420209D01*
X3462574Y419424D01*
X3465653Y414402D01*
X3468107Y408972D01*
X3469915Y403240D01*
X3471059Y397310D01*
X3471517Y391290D01*
X3471270Y385284D01*
X3470298Y379397D01*
X3470205Y379006D01*
X3468411Y373222D01*
X3465904Y367687D01*
X3462745Y362477D01*
X3458994Y357664D01*
X3454711Y353324D01*
X3449959Y349530D01*
X3444796Y346356D01*
X3442679Y345300D01*
X3441295Y344723D01*
X3439329Y343995D01*
X3436962Y343181D01*
X3434378Y342343D01*
X3431758Y341544D01*
X3431715Y341531D01*
X3421969Y338507D01*
X3412833Y335340D01*
X3404130Y331957D01*
X3395678Y328286D01*
X3387299Y324256D01*
X3382718Y321893D01*
X3379399Y320229D01*
X3376609Y319044D01*
X3374251Y318323D01*
X3372231Y318053D01*
X3370454Y318220D01*
X3368824Y318811D01*
X3367414Y319687D01*
X3366413Y320498D01*
X3365565Y321398D01*
X3364791Y322520D01*
X3364012Y323997D01*
X3363148Y325961D01*
X3362123Y328544D01*
X3362089Y328630D01*
X3359833Y334133D01*
X3357485Y339120D01*
X3354908Y343868D01*
X3353007Y347021D01*
X3348095Y354133D01*
X3342537Y360832D01*
X3336404Y367051D01*
X3329764Y372722D01*
X3322687Y377779D01*
X3318727Y380219D01*
X3315667Y382153D01*
X3313323Y383989D01*
X3311634Y385795D01*
X3310542Y387639D01*
X3309984Y389587D01*
X3309921Y390100D01*
X3309947Y391965D01*
X3310432Y393687D01*
X3311435Y395343D01*
X3313016Y397010D01*
X3315234Y398763D01*
X3318148Y400680D01*
X3318178Y400698D01*
X3329790Y407476D01*
X3342041Y413910D01*
X3354833Y419960D01*
X3368071Y425583D01*
X3381658Y430736D01*
X3395498Y435377D01*
X3401231Y437124D01*
X3407062Y438719D01*
X3412295Y439871D01*
X3416984Y440588D01*
X3421185Y440879D01*
X3424565Y440787D01*
G36*
X3424565Y440787D02*
G01*
X3431011Y439896D01*
X3437152Y438287D01*
X3442953Y435982D01*
X3448376Y433001D01*
X3453384Y429364D01*
X3457941Y425094D01*
X3462009Y420209D01*
X3462574Y419424D01*
X3465653Y414402D01*
X3468107Y408972D01*
X3469915Y403240D01*
X3471059Y397310D01*
X3471517Y391290D01*
X3471270Y385284D01*
X3470298Y379397D01*
X3470205Y379006D01*
X3468411Y373222D01*
X3465904Y367687D01*
X3462745Y362477D01*
X3458994Y357664D01*
X3454711Y353324D01*
X3449959Y349530D01*
X3444796Y346356D01*
X3442679Y345300D01*
X3441295Y344723D01*
X3439329Y343995D01*
X3436962Y343181D01*
X3434378Y342343D01*
X3431758Y341544D01*
X3431715Y341531D01*
X3421969Y338507D01*
X3412833Y335340D01*
X3404130Y331957D01*
X3395678Y328286D01*
X3387299Y324256D01*
X3382718Y321893D01*
X3379399Y320229D01*
X3376609Y319044D01*
X3374251Y318323D01*
X3372231Y318053D01*
X3370454Y318220D01*
X3368824Y318811D01*
X3367414Y319687D01*
X3366413Y320498D01*
X3365565Y321398D01*
X3364791Y322520D01*
X3364012Y323997D01*
X3363148Y325961D01*
X3362123Y328544D01*
X3362089Y328630D01*
X3359833Y334133D01*
X3357485Y339120D01*
X3354908Y343868D01*
X3353007Y347021D01*
X3348095Y354133D01*
X3342537Y360832D01*
X3336404Y367051D01*
X3329764Y372722D01*
X3322687Y377779D01*
X3318727Y380219D01*
X3315667Y382153D01*
X3313323Y383989D01*
X3311634Y385795D01*
X3310542Y387639D01*
X3309984Y389587D01*
X3309921Y390100D01*
X3309947Y391965D01*
X3310432Y393687D01*
X3311435Y395343D01*
X3313016Y397010D01*
X3315234Y398763D01*
X3318148Y400680D01*
X3318178Y400698D01*
X3329790Y407476D01*
X3342041Y413910D01*
X3354833Y419960D01*
X3368071Y425583D01*
X3381658Y430736D01*
X3395498Y435377D01*
X3401231Y437124D01*
X3407062Y438719D01*
X3412295Y439871D01*
X3416984Y440588D01*
X3421185Y440879D01*
X3424565Y440787D01*
G37*
X3183528Y237647D02*
X3185586Y236738D01*
X3187763Y235089D01*
X3190011Y232738D01*
X3190381Y232290D01*
X3196406Y225466D01*
X3202892Y219261D01*
X3209808Y213696D01*
X3217121Y208793D01*
X3224802Y204574D01*
X3232818Y201059D01*
X3238674Y199012D01*
X3241889Y198054D01*
X3245114Y197209D01*
X3248557Y196432D01*
X3252426Y195672D01*
X3255784Y195077D01*
X3257648Y194707D01*
X3258995Y194281D01*
X3260101Y193691D01*
X3261004Y193022D01*
X3262479Y191589D01*
X3263426Y190027D01*
X3263861Y188227D01*
X3263797Y186080D01*
X3263249Y183477D01*
X3262528Y181162D01*
X3258653Y168725D01*
X3255424Y155967D01*
X3252830Y142826D01*
X3250856Y129245D01*
X3250497Y126134D01*
X3250092Y122617D01*
X3249711Y119734D01*
X3249322Y117329D01*
X3248894Y115245D01*
X3248397Y113323D01*
X3247799Y111408D01*
X3247299Y109975D01*
X3244898Y104446D01*
X3241824Y99252D01*
X3238146Y94455D01*
X3233931Y90118D01*
X3229246Y86305D01*
X3224160Y83079D01*
X3218739Y80504D01*
X3214127Y78931D01*
X3207945Y77575D01*
X3201811Y76984D01*
X3195773Y77131D01*
X3189885Y77987D01*
X3184196Y79524D01*
X3178759Y81714D01*
X3173624Y84529D01*
X3168842Y87940D01*
X3164465Y91919D01*
X3160544Y96439D01*
X3157130Y101471D01*
X3154274Y106987D01*
X3152028Y112959D01*
X3151976Y113126D01*
X3151505Y114860D01*
X3151126Y116758D01*
X3150809Y119009D01*
X3150524Y121800D01*
X3150426Y122950D01*
X3150275Y125114D01*
X3150192Y127211D01*
X3150185Y129343D01*
X3150262Y131611D01*
X3150430Y134117D01*
X3150696Y136962D01*
X3151067Y140247D01*
X3151552Y144075D01*
X3152156Y148546D01*
X3152416Y150414D01*
X3154268Y161961D01*
X3156622Y173829D01*
X3159428Y185828D01*
X3162636Y197767D01*
X3166195Y209455D01*
X3170055Y220702D01*
X3172863Y228092D01*
X3174066Y230960D01*
X3175157Y233167D01*
X3176208Y234822D01*
X3177291Y236036D01*
X3178476Y236920D01*
X3178654Y237023D01*
X3180398Y237775D01*
X3182075Y237917D01*
X3183528Y237647D01*
G36*
X3183528Y237647D02*
G01*
X3185586Y236738D01*
X3187763Y235089D01*
X3190011Y232738D01*
X3190381Y232290D01*
X3196406Y225466D01*
X3202892Y219261D01*
X3209808Y213696D01*
X3217121Y208793D01*
X3224802Y204574D01*
X3232818Y201059D01*
X3238674Y199012D01*
X3241889Y198054D01*
X3245114Y197209D01*
X3248557Y196432D01*
X3252426Y195672D01*
X3255784Y195077D01*
X3257648Y194707D01*
X3258995Y194281D01*
X3260101Y193691D01*
X3261004Y193022D01*
X3262479Y191589D01*
X3263426Y190027D01*
X3263861Y188227D01*
X3263797Y186080D01*
X3263249Y183477D01*
X3262528Y181162D01*
X3258653Y168725D01*
X3255424Y155967D01*
X3252830Y142826D01*
X3250856Y129245D01*
X3250497Y126134D01*
X3250092Y122617D01*
X3249711Y119734D01*
X3249322Y117329D01*
X3248894Y115245D01*
X3248397Y113323D01*
X3247799Y111408D01*
X3247299Y109975D01*
X3244898Y104446D01*
X3241824Y99252D01*
X3238146Y94455D01*
X3233931Y90118D01*
X3229246Y86305D01*
X3224160Y83079D01*
X3218739Y80504D01*
X3214127Y78931D01*
X3207945Y77575D01*
X3201811Y76984D01*
X3195773Y77131D01*
X3189885Y77987D01*
X3184196Y79524D01*
X3178759Y81714D01*
X3173624Y84529D01*
X3168842Y87940D01*
X3164465Y91919D01*
X3160544Y96439D01*
X3157130Y101471D01*
X3154274Y106987D01*
X3152028Y112959D01*
X3151976Y113126D01*
X3151505Y114860D01*
X3151126Y116758D01*
X3150809Y119009D01*
X3150524Y121800D01*
X3150426Y122950D01*
X3150275Y125114D01*
X3150192Y127211D01*
X3150185Y129343D01*
X3150262Y131611D01*
X3150430Y134117D01*
X3150696Y136962D01*
X3151067Y140247D01*
X3151552Y144075D01*
X3152156Y148546D01*
X3152416Y150414D01*
X3154268Y161961D01*
X3156622Y173829D01*
X3159428Y185828D01*
X3162636Y197767D01*
X3166195Y209455D01*
X3170055Y220702D01*
X3172863Y228092D01*
X3174066Y230960D01*
X3175157Y233167D01*
X3176208Y234822D01*
X3177291Y236036D01*
X3178476Y236920D01*
X3178654Y237023D01*
X3180398Y237775D01*
X3182075Y237917D01*
X3183528Y237647D01*
G37*
X3295690Y336326D02*
X3298788Y335368D01*
X3301432Y333802D01*
X3303560Y331702D01*
X3305107Y329141D01*
X3306012Y326192D01*
X3306227Y324053D01*
X3306245Y323300D01*
X3306246Y322611D01*
X3306199Y321946D01*
X3306078Y321268D01*
X3305854Y320539D01*
X3305499Y319720D01*
X3304986Y318772D01*
X3304286Y317658D01*
X3303371Y316339D01*
X3302214Y314777D01*
X3300785Y312933D01*
X3299058Y310770D01*
X3297004Y308248D01*
X3294595Y305330D01*
X3291803Y301978D01*
X3288601Y298152D01*
X3284959Y293815D01*
X3280851Y288929D01*
X3278459Y286084D01*
X3274225Y281051D01*
X3270471Y276590D01*
X3267162Y272666D01*
X3264269Y269243D01*
X3261760Y266285D01*
X3259604Y263757D01*
X3257768Y261623D01*
X3256221Y259846D01*
X3254932Y258393D01*
X3253869Y257226D01*
X3253001Y256310D01*
X3252295Y255609D01*
X3251722Y255088D01*
X3251248Y254710D01*
X3250842Y254441D01*
X3250474Y254244D01*
X3250264Y254148D01*
X3247181Y253204D01*
X3244096Y252995D01*
X3241120Y253490D01*
X3238361Y254661D01*
X3235928Y256475D01*
X3234114Y258626D01*
X3233463Y259655D01*
X3233035Y260572D01*
X3232759Y261623D01*
X3232562Y263054D01*
X3232437Y264383D01*
X3232301Y266333D01*
X3232308Y267757D01*
X3232478Y268914D01*
X3232831Y270064D01*
X3232881Y270199D01*
X3233108Y270663D01*
X3233527Y271335D01*
X3234165Y272248D01*
X3235048Y273433D01*
X3236203Y274924D01*
X3237654Y276752D01*
X3239430Y278951D01*
X3241557Y281554D01*
X3244060Y284591D01*
X3246966Y288097D01*
X3250301Y292103D01*
X3254092Y296643D01*
X3258365Y301749D01*
X3259305Y302871D01*
X3263556Y307942D01*
X3267331Y312439D01*
X3270660Y316396D01*
X3273575Y319849D01*
X3276106Y322834D01*
X3278284Y325385D01*
X3280140Y327539D01*
X3281705Y329330D01*
X3283010Y330795D01*
X3284086Y331968D01*
X3284964Y332885D01*
X3285675Y333581D01*
X3286249Y334093D01*
X3286718Y334454D01*
X3287075Y334681D01*
X3289547Y335753D01*
X3292214Y336361D01*
X3294778Y336447D01*
X3295690Y336326D01*
G36*
X3295690Y336326D02*
G01*
X3298788Y335368D01*
X3301432Y333802D01*
X3303560Y331702D01*
X3305107Y329141D01*
X3306012Y326192D01*
X3306227Y324053D01*
X3306245Y323300D01*
X3306246Y322611D01*
X3306199Y321946D01*
X3306078Y321268D01*
X3305854Y320539D01*
X3305499Y319720D01*
X3304986Y318772D01*
X3304286Y317658D01*
X3303371Y316339D01*
X3302214Y314777D01*
X3300785Y312933D01*
X3299058Y310770D01*
X3297004Y308248D01*
X3294595Y305330D01*
X3291803Y301978D01*
X3288601Y298152D01*
X3284959Y293815D01*
X3280851Y288929D01*
X3278459Y286084D01*
X3274225Y281051D01*
X3270471Y276590D01*
X3267162Y272666D01*
X3264269Y269243D01*
X3261760Y266285D01*
X3259604Y263757D01*
X3257768Y261623D01*
X3256221Y259846D01*
X3254932Y258393D01*
X3253869Y257226D01*
X3253001Y256310D01*
X3252295Y255609D01*
X3251722Y255088D01*
X3251248Y254710D01*
X3250842Y254441D01*
X3250474Y254244D01*
X3250264Y254148D01*
X3247181Y253204D01*
X3244096Y252995D01*
X3241120Y253490D01*
X3238361Y254661D01*
X3235928Y256475D01*
X3234114Y258626D01*
X3233463Y259655D01*
X3233035Y260572D01*
X3232759Y261623D01*
X3232562Y263054D01*
X3232437Y264383D01*
X3232301Y266333D01*
X3232308Y267757D01*
X3232478Y268914D01*
X3232831Y270064D01*
X3232881Y270199D01*
X3233108Y270663D01*
X3233527Y271335D01*
X3234165Y272248D01*
X3235048Y273433D01*
X3236203Y274924D01*
X3237654Y276752D01*
X3239430Y278951D01*
X3241557Y281554D01*
X3244060Y284591D01*
X3246966Y288097D01*
X3250301Y292103D01*
X3254092Y296643D01*
X3258365Y301749D01*
X3259305Y302871D01*
X3263556Y307942D01*
X3267331Y312439D01*
X3270660Y316396D01*
X3273575Y319849D01*
X3276106Y322834D01*
X3278284Y325385D01*
X3280140Y327539D01*
X3281705Y329330D01*
X3283010Y330795D01*
X3284086Y331968D01*
X3284964Y332885D01*
X3285675Y333581D01*
X3286249Y334093D01*
X3286718Y334454D01*
X3287075Y334681D01*
X3289547Y335753D01*
X3292214Y336361D01*
X3294778Y336447D01*
X3295690Y336326D01*
G37*
%TO.C,MH2*%
X-3181596Y236292D02*
X-3179765Y235942D01*
X-3178153Y235165D01*
X-3176696Y233890D01*
X-3175329Y232044D01*
X-3173988Y229555D01*
X-3172606Y226352D01*
X-3172594Y226320D01*
X-3167935Y213707D01*
X-3163726Y200525D01*
X-3159989Y186877D01*
X-3156751Y172864D01*
X-3154035Y158588D01*
X-3151868Y144153D01*
X-3151143Y138203D01*
X-3150584Y132184D01*
X-3150359Y126830D01*
X-3150467Y122088D01*
X-3150910Y117900D01*
X-3151588Y114588D01*
X-3153584Y108395D01*
X-3156235Y102626D01*
X-3159513Y97313D01*
X-3163390Y92490D01*
X-3167841Y88190D01*
X-3172838Y84444D01*
X-3178355Y81286D01*
X-3179226Y80865D01*
X-3184707Y78705D01*
X-3190480Y77232D01*
X-3196439Y76446D01*
X-3202477Y76350D01*
X-3208486Y76944D01*
X-3214358Y78231D01*
X-3219986Y80210D01*
X-3220355Y80369D01*
X-3225740Y83140D01*
X-3230755Y86570D01*
X-3235338Y90586D01*
X-3239426Y95116D01*
X-3242957Y100087D01*
X-3245868Y105427D01*
X-3248097Y111062D01*
X-3248769Y113330D01*
X-3249098Y114793D01*
X-3249472Y116856D01*
X-3249863Y119328D01*
X-3250240Y122018D01*
X-3250572Y124737D01*
X-3250577Y124782D01*
X-3251862Y134905D01*
X-3253395Y144452D01*
X-3255216Y153611D01*
X-3257363Y162572D01*
X-3259877Y171523D01*
X-3261409Y176445D01*
X-3262471Y180002D01*
X-3263154Y182956D01*
X-3263454Y185403D01*
X-3263369Y187439D01*
X-3262896Y189160D01*
X-3262031Y190663D01*
X-3260924Y191899D01*
X-3259952Y192744D01*
X-3258918Y193423D01*
X-3257678Y193991D01*
X-3256088Y194502D01*
X-3254004Y195011D01*
X-3251283Y195572D01*
X-3251192Y195590D01*
X-3245381Y196857D01*
X-3240061Y198303D01*
X-3234938Y200016D01*
X-3231503Y201341D01*
X-3223646Y204944D01*
X-3216084Y209253D01*
X-3208895Y214214D01*
X-3202157Y219768D01*
X-3195947Y225860D01*
X-3192856Y229335D01*
X-3190420Y232013D01*
X-3188205Y234003D01*
X-3186134Y235352D01*
X-3184128Y236108D01*
X-3182113Y236319D01*
X-3181596Y236292D01*
G36*
X-3181596Y236292D02*
G01*
X-3179765Y235942D01*
X-3178153Y235165D01*
X-3176696Y233890D01*
X-3175329Y232044D01*
X-3173988Y229555D01*
X-3172606Y226352D01*
X-3172594Y226320D01*
X-3167935Y213707D01*
X-3163726Y200525D01*
X-3159989Y186877D01*
X-3156751Y172864D01*
X-3154035Y158588D01*
X-3151868Y144153D01*
X-3151143Y138203D01*
X-3150584Y132184D01*
X-3150359Y126830D01*
X-3150467Y122088D01*
X-3150910Y117900D01*
X-3151588Y114588D01*
X-3153584Y108395D01*
X-3156235Y102626D01*
X-3159513Y97313D01*
X-3163390Y92490D01*
X-3167841Y88190D01*
X-3172838Y84444D01*
X-3178355Y81286D01*
X-3179226Y80865D01*
X-3184707Y78705D01*
X-3190480Y77232D01*
X-3196439Y76446D01*
X-3202477Y76350D01*
X-3208486Y76944D01*
X-3214358Y78231D01*
X-3219986Y80210D01*
X-3220355Y80369D01*
X-3225740Y83140D01*
X-3230755Y86570D01*
X-3235338Y90586D01*
X-3239426Y95116D01*
X-3242957Y100087D01*
X-3245868Y105427D01*
X-3248097Y111062D01*
X-3248769Y113330D01*
X-3249098Y114793D01*
X-3249472Y116856D01*
X-3249863Y119328D01*
X-3250240Y122018D01*
X-3250572Y124737D01*
X-3250577Y124782D01*
X-3251862Y134905D01*
X-3253395Y144452D01*
X-3255216Y153611D01*
X-3257363Y162572D01*
X-3259877Y171523D01*
X-3261409Y176445D01*
X-3262471Y180002D01*
X-3263154Y182956D01*
X-3263454Y185403D01*
X-3263369Y187439D01*
X-3262896Y189160D01*
X-3262031Y190663D01*
X-3260924Y191899D01*
X-3259952Y192744D01*
X-3258918Y193423D01*
X-3257678Y193991D01*
X-3256088Y194502D01*
X-3254004Y195011D01*
X-3251283Y195572D01*
X-3251192Y195590D01*
X-3245381Y196857D01*
X-3240061Y198303D01*
X-3234938Y200016D01*
X-3231503Y201341D01*
X-3223646Y204944D01*
X-3216084Y209253D01*
X-3208895Y214214D01*
X-3202157Y219768D01*
X-3195947Y225860D01*
X-3192856Y229335D01*
X-3190420Y232013D01*
X-3188205Y234003D01*
X-3186134Y235352D01*
X-3184128Y236108D01*
X-3182113Y236319D01*
X-3181596Y236292D01*
G37*
X-3420940Y440061D02*
X-3418142Y439857D01*
X-3416992Y439754D01*
X-3414835Y439527D01*
X-3412755Y439244D01*
X-3410655Y438881D01*
X-3408434Y438411D01*
X-3405996Y437811D01*
X-3403240Y437055D01*
X-3400069Y436118D01*
X-3396384Y434977D01*
X-3392086Y433605D01*
X-3390291Y433025D01*
X-3379241Y429196D01*
X-3367962Y424817D01*
X-3356633Y419970D01*
X-3345432Y414738D01*
X-3334539Y409202D01*
X-3324133Y403448D01*
X-3317344Y399400D01*
X-3314728Y397717D01*
X-3312744Y396259D01*
X-3311297Y394937D01*
X-3310289Y393660D01*
X-3309624Y392339D01*
X-3309554Y392146D01*
X-3309116Y390298D01*
X-3309267Y388622D01*
X-3309786Y387238D01*
X-3311039Y385369D01*
X-3313040Y383511D01*
X-3315746Y381706D01*
X-3316251Y381419D01*
X-3324018Y376670D01*
X-3331255Y371360D01*
X-3337936Y365516D01*
X-3344035Y359165D01*
X-3349523Y352334D01*
X-3354376Y345050D01*
X-3357410Y339638D01*
X-3358912Y336639D01*
X-3360303Y333609D01*
X-3361667Y330354D01*
X-3363087Y326676D01*
X-3364256Y323472D01*
X-3364944Y321701D01*
X-3365597Y320448D01*
X-3366370Y319461D01*
X-3367186Y318687D01*
X-3368853Y317484D01*
X-3370556Y316822D01*
X-3372405Y316707D01*
X-3374508Y317142D01*
X-3376976Y318135D01*
X-3379130Y319246D01*
X-3390706Y325222D01*
X-3402710Y330617D01*
X-3415200Y335454D01*
X-3428232Y339756D01*
X-3431234Y340650D01*
X-3434627Y341660D01*
X-3437400Y342536D01*
X-3439700Y343336D01*
X-3441679Y344120D01*
X-3443485Y344943D01*
X-3445268Y345865D01*
X-3446592Y346606D01*
X-3451619Y349930D01*
X-3456201Y353859D01*
X-3460287Y358314D01*
X-3463825Y363218D01*
X-3466767Y368494D01*
X-3469061Y374064D01*
X-3470656Y379849D01*
X-3471404Y384665D01*
X-3471666Y390988D01*
X-3471183Y397132D01*
X-3469990Y403052D01*
X-3468124Y408702D01*
X-3465623Y414037D01*
X-3462522Y419012D01*
X-3458858Y423580D01*
X-3454668Y427697D01*
X-3449989Y431316D01*
X-3444857Y434393D01*
X-3439309Y436881D01*
X-3433381Y438736D01*
X-3427110Y439911D01*
X-3426936Y439933D01*
X-3425147Y440096D01*
X-3423211Y440140D01*
X-3420940Y440061D01*
G36*
X-3420940Y440061D02*
G01*
X-3418142Y439857D01*
X-3416992Y439754D01*
X-3414835Y439527D01*
X-3412755Y439244D01*
X-3410655Y438881D01*
X-3408434Y438411D01*
X-3405996Y437811D01*
X-3403240Y437055D01*
X-3400069Y436118D01*
X-3396384Y434977D01*
X-3392086Y433605D01*
X-3390291Y433025D01*
X-3379241Y429196D01*
X-3367962Y424817D01*
X-3356633Y419970D01*
X-3345432Y414738D01*
X-3334539Y409202D01*
X-3324133Y403448D01*
X-3317344Y399400D01*
X-3314728Y397717D01*
X-3312744Y396259D01*
X-3311297Y394937D01*
X-3310289Y393660D01*
X-3309624Y392339D01*
X-3309554Y392146D01*
X-3309116Y390298D01*
X-3309267Y388622D01*
X-3309786Y387238D01*
X-3311039Y385369D01*
X-3313040Y383511D01*
X-3315746Y381706D01*
X-3316251Y381419D01*
X-3324018Y376670D01*
X-3331255Y371360D01*
X-3337936Y365516D01*
X-3344035Y359165D01*
X-3349523Y352334D01*
X-3354376Y345050D01*
X-3357410Y339638D01*
X-3358912Y336639D01*
X-3360303Y333609D01*
X-3361667Y330354D01*
X-3363087Y326676D01*
X-3364256Y323472D01*
X-3364944Y321701D01*
X-3365597Y320448D01*
X-3366370Y319461D01*
X-3367186Y318687D01*
X-3368853Y317484D01*
X-3370556Y316822D01*
X-3372405Y316707D01*
X-3374508Y317142D01*
X-3376976Y318135D01*
X-3379130Y319246D01*
X-3390706Y325222D01*
X-3402710Y330617D01*
X-3415200Y335454D01*
X-3428232Y339756D01*
X-3431234Y340650D01*
X-3434627Y341660D01*
X-3437400Y342536D01*
X-3439700Y343336D01*
X-3441679Y344120D01*
X-3443485Y344943D01*
X-3445268Y345865D01*
X-3446592Y346606D01*
X-3451619Y349930D01*
X-3456201Y353859D01*
X-3460287Y358314D01*
X-3463825Y363218D01*
X-3466767Y368494D01*
X-3469061Y374064D01*
X-3470656Y379849D01*
X-3471404Y384665D01*
X-3471666Y390988D01*
X-3471183Y397132D01*
X-3469990Y403052D01*
X-3468124Y408702D01*
X-3465623Y414037D01*
X-3462522Y419012D01*
X-3458858Y423580D01*
X-3454668Y427697D01*
X-3449989Y431316D01*
X-3444857Y434393D01*
X-3439309Y436881D01*
X-3433381Y438736D01*
X-3427110Y439911D01*
X-3426936Y439933D01*
X-3425147Y440096D01*
X-3423211Y440140D01*
X-3420940Y440061D01*
G37*
X-3293279Y334537D02*
X-3291949Y334430D01*
X-3290005Y334225D01*
X-3288604Y333971D01*
X-3287494Y333602D01*
X-3286423Y333054D01*
X-3286299Y332982D01*
X-3285881Y332678D01*
X-3285291Y332148D01*
X-3284504Y331361D01*
X-3283490Y330286D01*
X-3282222Y328890D01*
X-3280673Y327143D01*
X-3278816Y325012D01*
X-3276623Y322466D01*
X-3274066Y319474D01*
X-3271118Y316003D01*
X-3267752Y312023D01*
X-3263939Y307502D01*
X-3259653Y302407D01*
X-3258712Y301286D01*
X-3254455Y296219D01*
X-3250682Y291720D01*
X-3247364Y287754D01*
X-3244469Y284284D01*
X-3241969Y281274D01*
X-3239835Y278686D01*
X-3238036Y276484D01*
X-3236544Y274631D01*
X-3235328Y273092D01*
X-3234360Y271828D01*
X-3233609Y270805D01*
X-3233047Y269984D01*
X-3232643Y269330D01*
X-3232368Y268805D01*
X-3232207Y268414D01*
X-3231580Y265793D01*
X-3231445Y263061D01*
X-3231805Y260522D01*
X-3232083Y259645D01*
X-3233564Y256760D01*
X-3235565Y254428D01*
X-3238003Y252697D01*
X-3240794Y251618D01*
X-3243855Y251239D01*
X-3245999Y251399D01*
X-3246744Y251511D01*
X-3247423Y251631D01*
X-3248069Y251792D01*
X-3248715Y252029D01*
X-3249395Y252376D01*
X-3250140Y252867D01*
X-3250984Y253537D01*
X-3251960Y254420D01*
X-3253100Y255550D01*
X-3254437Y256962D01*
X-3256005Y258689D01*
X-3257836Y260765D01*
X-3259962Y263226D01*
X-3262417Y266105D01*
X-3265234Y269436D01*
X-3268445Y273255D01*
X-3272084Y277594D01*
X-3276183Y282488D01*
X-3278569Y285338D01*
X-3282791Y290381D01*
X-3286532Y294854D01*
X-3289822Y298793D01*
X-3292691Y302237D01*
X-3295168Y305221D01*
X-3297283Y307784D01*
X-3299066Y309963D01*
X-3300547Y311794D01*
X-3301754Y313316D01*
X-3302719Y314566D01*
X-3303470Y315580D01*
X-3304038Y316396D01*
X-3304452Y317052D01*
X-3304741Y317584D01*
X-3304936Y318030D01*
X-3305066Y318427D01*
X-3305124Y318651D01*
X-3305518Y321850D01*
X-3305189Y324924D01*
X-3304184Y327770D01*
X-3302552Y330284D01*
X-3300343Y332364D01*
X-3297910Y333777D01*
X-3296784Y334239D01*
X-3295806Y334502D01*
X-3294722Y334591D01*
X-3293279Y334537D01*
G36*
X-3293279Y334537D02*
G01*
X-3291949Y334430D01*
X-3290005Y334225D01*
X-3288604Y333971D01*
X-3287494Y333602D01*
X-3286423Y333054D01*
X-3286299Y332982D01*
X-3285881Y332678D01*
X-3285291Y332148D01*
X-3284504Y331361D01*
X-3283490Y330286D01*
X-3282222Y328890D01*
X-3280673Y327143D01*
X-3278816Y325012D01*
X-3276623Y322466D01*
X-3274066Y319474D01*
X-3271118Y316003D01*
X-3267752Y312023D01*
X-3263939Y307502D01*
X-3259653Y302407D01*
X-3258712Y301286D01*
X-3254455Y296219D01*
X-3250682Y291720D01*
X-3247364Y287754D01*
X-3244469Y284284D01*
X-3241969Y281274D01*
X-3239835Y278686D01*
X-3238036Y276484D01*
X-3236544Y274631D01*
X-3235328Y273092D01*
X-3234360Y271828D01*
X-3233609Y270805D01*
X-3233047Y269984D01*
X-3232643Y269330D01*
X-3232368Y268805D01*
X-3232207Y268414D01*
X-3231580Y265793D01*
X-3231445Y263061D01*
X-3231805Y260522D01*
X-3232083Y259645D01*
X-3233564Y256760D01*
X-3235565Y254428D01*
X-3238003Y252697D01*
X-3240794Y251618D01*
X-3243855Y251239D01*
X-3245999Y251399D01*
X-3246744Y251511D01*
X-3247423Y251631D01*
X-3248069Y251792D01*
X-3248715Y252029D01*
X-3249395Y252376D01*
X-3250140Y252867D01*
X-3250984Y253537D01*
X-3251960Y254420D01*
X-3253100Y255550D01*
X-3254437Y256962D01*
X-3256005Y258689D01*
X-3257836Y260765D01*
X-3259962Y263226D01*
X-3262417Y266105D01*
X-3265234Y269436D01*
X-3268445Y273255D01*
X-3272084Y277594D01*
X-3276183Y282488D01*
X-3278569Y285338D01*
X-3282791Y290381D01*
X-3286532Y294854D01*
X-3289822Y298793D01*
X-3292691Y302237D01*
X-3295168Y305221D01*
X-3297283Y307784D01*
X-3299066Y309963D01*
X-3300547Y311794D01*
X-3301754Y313316D01*
X-3302719Y314566D01*
X-3303470Y315580D01*
X-3304038Y316396D01*
X-3304452Y317052D01*
X-3304741Y317584D01*
X-3304936Y318030D01*
X-3305066Y318427D01*
X-3305124Y318651D01*
X-3305518Y321850D01*
X-3305189Y324924D01*
X-3304184Y327770D01*
X-3302552Y330284D01*
X-3300343Y332364D01*
X-3297910Y333777D01*
X-3296784Y334239D01*
X-3295806Y334502D01*
X-3294722Y334591D01*
X-3293279Y334537D01*
G37*
%TO.C,MH1*%
X3207941Y1122571D02*
X3213813Y1121285D01*
X3219441Y1119306D01*
X3219811Y1119147D01*
X3225195Y1116376D01*
X3230211Y1112946D01*
X3234793Y1108929D01*
X3238882Y1104399D01*
X3242413Y1099428D01*
X3245324Y1094089D01*
X3247552Y1088454D01*
X3248224Y1086186D01*
X3248553Y1084723D01*
X3248928Y1082660D01*
X3249319Y1080188D01*
X3249695Y1077497D01*
X3250028Y1074779D01*
X3250033Y1074734D01*
X3251318Y1064611D01*
X3252851Y1055064D01*
X3254671Y1045905D01*
X3256818Y1036944D01*
X3259332Y1027993D01*
X3260864Y1023071D01*
X3261926Y1019514D01*
X3262609Y1016560D01*
X3262910Y1014113D01*
X3262825Y1012077D01*
X3262351Y1010355D01*
X3261487Y1008853D01*
X3260379Y1007617D01*
X3259407Y1006772D01*
X3258373Y1006093D01*
X3257133Y1005525D01*
X3255543Y1005014D01*
X3253460Y1004505D01*
X3250738Y1003943D01*
X3250648Y1003926D01*
X3244836Y1002659D01*
X3239517Y1001213D01*
X3234394Y999500D01*
X3230959Y998175D01*
X3223102Y994572D01*
X3215540Y990262D01*
X3208350Y985302D01*
X3201612Y979748D01*
X3195403Y973656D01*
X3192312Y970180D01*
X3189876Y967502D01*
X3187661Y965513D01*
X3185589Y964164D01*
X3183584Y963408D01*
X3181568Y963197D01*
X3181052Y963224D01*
X3179220Y963573D01*
X3177609Y964350D01*
X3176152Y965626D01*
X3174785Y967472D01*
X3173443Y969960D01*
X3172062Y973163D01*
X3172049Y973196D01*
X3167391Y985808D01*
X3163181Y998990D01*
X3159445Y1012639D01*
X3156206Y1026652D01*
X3153491Y1040927D01*
X3151324Y1055363D01*
X3150598Y1061313D01*
X3150040Y1067332D01*
X3149814Y1072685D01*
X3149922Y1077428D01*
X3150365Y1081616D01*
X3151043Y1084928D01*
X3153040Y1091121D01*
X3155690Y1096890D01*
X3158968Y1102203D01*
X3162846Y1107026D01*
X3167297Y1111326D01*
X3172294Y1115072D01*
X3177810Y1118229D01*
X3178681Y1118650D01*
X3184162Y1120811D01*
X3189936Y1122284D01*
X3195895Y1123069D01*
X3201933Y1123166D01*
X3207941Y1122571D01*
G36*
X3207941Y1122571D02*
G01*
X3213813Y1121285D01*
X3219441Y1119306D01*
X3219811Y1119147D01*
X3225195Y1116376D01*
X3230211Y1112946D01*
X3234793Y1108929D01*
X3238882Y1104399D01*
X3242413Y1099428D01*
X3245324Y1094089D01*
X3247552Y1088454D01*
X3248224Y1086186D01*
X3248553Y1084723D01*
X3248928Y1082660D01*
X3249319Y1080188D01*
X3249695Y1077497D01*
X3250028Y1074779D01*
X3250033Y1074734D01*
X3251318Y1064611D01*
X3252851Y1055064D01*
X3254671Y1045905D01*
X3256818Y1036944D01*
X3259332Y1027993D01*
X3260864Y1023071D01*
X3261926Y1019514D01*
X3262609Y1016560D01*
X3262910Y1014113D01*
X3262825Y1012077D01*
X3262351Y1010355D01*
X3261487Y1008853D01*
X3260379Y1007617D01*
X3259407Y1006772D01*
X3258373Y1006093D01*
X3257133Y1005525D01*
X3255543Y1005014D01*
X3253460Y1004505D01*
X3250738Y1003943D01*
X3250648Y1003926D01*
X3244836Y1002659D01*
X3239517Y1001213D01*
X3234394Y999500D01*
X3230959Y998175D01*
X3223102Y994572D01*
X3215540Y990262D01*
X3208350Y985302D01*
X3201612Y979748D01*
X3195403Y973656D01*
X3192312Y970180D01*
X3189876Y967502D01*
X3187661Y965513D01*
X3185589Y964164D01*
X3183584Y963408D01*
X3181568Y963197D01*
X3181052Y963224D01*
X3179220Y963573D01*
X3177609Y964350D01*
X3176152Y965626D01*
X3174785Y967472D01*
X3173443Y969960D01*
X3172062Y973163D01*
X3172049Y973196D01*
X3167391Y985808D01*
X3163181Y998990D01*
X3159445Y1012639D01*
X3156206Y1026652D01*
X3153491Y1040927D01*
X3151324Y1055363D01*
X3150598Y1061313D01*
X3150040Y1067332D01*
X3149814Y1072685D01*
X3149922Y1077428D01*
X3150365Y1081616D01*
X3151043Y1084928D01*
X3153040Y1091121D01*
X3155690Y1096890D01*
X3158968Y1102203D01*
X3162846Y1107026D01*
X3167297Y1111326D01*
X3172294Y1115072D01*
X3177810Y1118229D01*
X3178681Y1118650D01*
X3184162Y1120811D01*
X3189936Y1122284D01*
X3195895Y1123069D01*
X3201933Y1123166D01*
X3207941Y1122571D01*
G37*
X3373963Y882373D02*
X3376432Y881381D01*
X3378586Y880269D01*
X3390161Y874293D01*
X3402165Y868898D01*
X3414656Y864061D01*
X3427688Y859759D01*
X3430690Y858866D01*
X3434083Y857856D01*
X3436855Y856980D01*
X3439156Y856179D01*
X3441135Y855396D01*
X3442941Y854573D01*
X3444723Y853651D01*
X3446048Y852910D01*
X3451075Y849585D01*
X3455657Y845657D01*
X3459742Y841201D01*
X3463281Y836297D01*
X3466223Y831022D01*
X3468516Y825452D01*
X3470112Y819666D01*
X3470859Y814851D01*
X3471122Y808528D01*
X3470638Y802384D01*
X3469445Y796464D01*
X3467580Y790813D01*
X3465078Y785478D01*
X3461977Y780504D01*
X3458314Y775935D01*
X3454124Y771819D01*
X3449445Y768199D01*
X3444312Y765123D01*
X3438764Y762634D01*
X3432836Y760780D01*
X3426565Y759605D01*
X3426392Y759583D01*
X3424602Y759420D01*
X3422667Y759376D01*
X3420395Y759455D01*
X3417598Y759659D01*
X3416447Y759762D01*
X3414290Y759989D01*
X3412211Y760271D01*
X3410110Y760635D01*
X3407890Y761105D01*
X3405451Y761705D01*
X3402696Y762461D01*
X3399525Y763397D01*
X3395839Y764539D01*
X3391541Y765910D01*
X3389746Y766491D01*
X3378697Y770320D01*
X3367418Y774699D01*
X3356088Y779546D01*
X3344887Y784778D01*
X3333995Y790313D01*
X3323589Y796067D01*
X3316799Y800116D01*
X3314183Y801799D01*
X3312199Y803256D01*
X3310752Y804579D01*
X3309744Y805856D01*
X3309080Y807177D01*
X3309009Y807369D01*
X3308571Y809218D01*
X3308723Y810893D01*
X3309241Y812278D01*
X3310494Y814147D01*
X3312496Y816004D01*
X3315201Y817810D01*
X3315707Y818097D01*
X3323474Y822845D01*
X3330711Y828155D01*
X3337392Y833999D01*
X3343490Y840351D01*
X3348979Y847182D01*
X3353832Y854466D01*
X3356866Y859877D01*
X3358367Y862877D01*
X3359759Y865906D01*
X3361123Y869162D01*
X3362542Y872840D01*
X3363712Y876044D01*
X3364400Y877815D01*
X3365053Y879068D01*
X3365826Y880054D01*
X3366642Y880828D01*
X3368309Y882031D01*
X3370012Y882693D01*
X3371860Y882809D01*
X3373963Y882373D01*
G36*
X3373963Y882373D02*
G01*
X3376432Y881381D01*
X3378586Y880269D01*
X3390161Y874293D01*
X3402165Y868898D01*
X3414656Y864061D01*
X3427688Y859759D01*
X3430690Y858866D01*
X3434083Y857856D01*
X3436855Y856980D01*
X3439156Y856179D01*
X3441135Y855396D01*
X3442941Y854573D01*
X3444723Y853651D01*
X3446048Y852910D01*
X3451075Y849585D01*
X3455657Y845657D01*
X3459742Y841201D01*
X3463281Y836297D01*
X3466223Y831022D01*
X3468516Y825452D01*
X3470112Y819666D01*
X3470859Y814851D01*
X3471122Y808528D01*
X3470638Y802384D01*
X3469445Y796464D01*
X3467580Y790813D01*
X3465078Y785478D01*
X3461977Y780504D01*
X3458314Y775935D01*
X3454124Y771819D01*
X3449445Y768199D01*
X3444312Y765123D01*
X3438764Y762634D01*
X3432836Y760780D01*
X3426565Y759605D01*
X3426392Y759583D01*
X3424602Y759420D01*
X3422667Y759376D01*
X3420395Y759455D01*
X3417598Y759659D01*
X3416447Y759762D01*
X3414290Y759989D01*
X3412211Y760271D01*
X3410110Y760635D01*
X3407890Y761105D01*
X3405451Y761705D01*
X3402696Y762461D01*
X3399525Y763397D01*
X3395839Y764539D01*
X3391541Y765910D01*
X3389746Y766491D01*
X3378697Y770320D01*
X3367418Y774699D01*
X3356088Y779546D01*
X3344887Y784778D01*
X3333995Y790313D01*
X3323589Y796067D01*
X3316799Y800116D01*
X3314183Y801799D01*
X3312199Y803256D01*
X3310752Y804579D01*
X3309744Y805856D01*
X3309080Y807177D01*
X3309009Y807369D01*
X3308571Y809218D01*
X3308723Y810893D01*
X3309241Y812278D01*
X3310494Y814147D01*
X3312496Y816004D01*
X3315201Y817810D01*
X3315707Y818097D01*
X3323474Y822845D01*
X3330711Y828155D01*
X3337392Y833999D01*
X3343490Y840351D01*
X3348979Y847182D01*
X3353832Y854466D01*
X3356866Y859877D01*
X3358367Y862877D01*
X3359759Y865906D01*
X3361123Y869162D01*
X3362542Y872840D01*
X3363712Y876044D01*
X3364400Y877815D01*
X3365053Y879068D01*
X3365826Y880054D01*
X3366642Y880828D01*
X3368309Y882031D01*
X3370012Y882693D01*
X3371860Y882809D01*
X3373963Y882373D01*
G37*
X3235214Y969146D02*
X3236775Y969043D01*
X3238731Y968852D01*
X3241152Y968569D01*
X3244107Y968189D01*
X3247664Y967709D01*
X3251893Y967125D01*
X3255042Y966686D01*
X3258994Y966129D01*
X3262744Y965588D01*
X3266211Y965076D01*
X3269316Y964606D01*
X3271977Y964190D01*
X3274113Y963841D01*
X3275643Y963570D01*
X3276488Y963391D01*
X3276580Y963363D01*
X3278813Y962168D01*
X3280574Y960451D01*
X3281838Y958345D01*
X3282578Y955984D01*
X3282771Y953501D01*
X3282390Y951030D01*
X3281410Y948705D01*
X3279806Y946659D01*
X3279757Y946612D01*
X3278034Y945319D01*
X3276073Y944370D01*
X3275942Y944326D01*
X3275132Y944074D01*
X3274389Y943910D01*
X3273572Y943836D01*
X3272537Y943854D01*
X3271144Y943968D01*
X3269250Y944181D01*
X3266712Y944493D01*
X3266680Y944497D01*
X3264183Y944819D01*
X3261766Y945145D01*
X3259617Y945450D01*
X3257928Y945707D01*
X3257091Y945848D01*
X3256109Y946032D01*
X3255415Y946114D01*
X3255028Y946016D01*
X3254968Y945659D01*
X3255257Y944965D01*
X3255913Y943855D01*
X3256959Y942249D01*
X3258414Y940070D01*
X3258688Y939659D01*
X3264880Y930778D01*
X3271539Y921955D01*
X3278555Y913321D01*
X3285815Y905006D01*
X3293207Y897141D01*
X3300620Y889854D01*
X3304558Y886236D01*
X3305989Y884955D01*
X3306047Y888520D01*
X3306099Y890226D01*
X3306204Y892471D01*
X3306348Y895001D01*
X3306518Y897564D01*
X3306580Y898418D01*
X3306783Y900929D01*
X3306972Y902789D01*
X3307174Y904144D01*
X3307411Y905136D01*
X3307707Y905910D01*
X3307891Y906272D01*
X3309501Y908419D01*
X3311628Y910085D01*
X3314101Y911178D01*
X3316749Y911606D01*
X3317781Y911574D01*
X3320312Y910987D01*
X3322643Y909764D01*
X3324611Y908031D01*
X3326053Y905915D01*
X3326532Y904738D01*
X3326678Y904239D01*
X3326796Y903707D01*
X3326885Y903075D01*
X3326942Y902276D01*
X3326967Y901242D01*
X3326957Y899907D01*
X3326912Y898204D01*
X3326831Y896067D01*
X3326711Y893428D01*
X3326552Y890220D01*
X3326351Y886376D01*
X3326109Y881831D01*
X3326014Y880076D01*
X3325766Y875496D01*
X3325548Y871637D01*
X3325348Y868427D01*
X3325155Y865794D01*
X3324957Y863665D01*
X3324742Y861969D01*
X3324497Y860633D01*
X3324212Y859587D01*
X3323874Y858757D01*
X3323471Y858072D01*
X3322991Y857459D01*
X3322423Y856848D01*
X3322128Y856545D01*
X3320886Y855562D01*
X3319283Y854667D01*
X3317595Y853981D01*
X3316098Y853628D01*
X3315521Y853614D01*
X3314931Y853578D01*
X3313638Y853442D01*
X3311724Y853215D01*
X3309271Y852908D01*
X3306362Y852531D01*
X3303080Y852096D01*
X3299506Y851612D01*
X3296045Y851135D01*
X3291308Y850482D01*
X3287287Y849944D01*
X3283911Y849518D01*
X3281111Y849198D01*
X3278816Y848980D01*
X3276958Y848861D01*
X3275466Y848836D01*
X3274271Y848902D01*
X3273303Y849054D01*
X3272493Y849287D01*
X3271770Y849598D01*
X3271595Y849688D01*
X3269699Y851039D01*
X3268029Y852884D01*
X3266889Y854843D01*
X3266420Y856728D01*
X3266347Y858967D01*
X3266643Y861246D01*
X3267281Y863252D01*
X3267685Y864001D01*
X3268922Y865508D01*
X3270527Y866911D01*
X3272214Y867983D01*
X3273170Y868381D01*
X3273932Y868548D01*
X3275339Y868796D01*
X3277250Y869102D01*
X3279524Y869444D01*
X3282019Y869798D01*
X3282431Y869855D01*
X3284858Y870190D01*
X3287002Y870494D01*
X3288744Y870749D01*
X3289966Y870937D01*
X3290550Y871040D01*
X3290581Y871051D01*
X3290349Y871341D01*
X3289632Y872079D01*
X3288527Y873171D01*
X3287128Y874522D01*
X3286209Y875396D01*
X3275209Y886357D01*
X3264780Y897869D01*
X3254922Y909932D01*
X3245637Y922545D01*
X3241290Y928935D01*
X3240054Y930761D01*
X3238959Y932305D01*
X3238081Y933465D01*
X3237495Y934141D01*
X3237290Y934265D01*
X3237082Y933823D01*
X3236658Y932743D01*
X3236061Y931138D01*
X3235333Y929122D01*
X3234514Y926807D01*
X3234186Y925867D01*
X3233133Y922852D01*
X3232289Y920487D01*
X3231606Y918669D01*
X3231035Y917296D01*
X3230529Y916267D01*
X3230040Y915479D01*
X3229520Y914831D01*
X3228923Y914221D01*
X3228581Y913899D01*
X3226393Y912361D01*
X3223975Y911501D01*
X3221458Y911289D01*
X3218971Y911696D01*
X3216642Y912690D01*
X3214602Y914243D01*
X3212980Y916324D01*
X3212318Y917670D01*
X3211914Y918823D01*
X3211681Y919963D01*
X3211639Y921199D01*
X3211805Y922639D01*
X3212198Y924394D01*
X3212835Y926572D01*
X3213736Y929281D01*
X3214745Y932149D01*
X3215726Y934899D01*
X3216897Y938193D01*
X3218188Y941830D01*
X3219525Y945604D01*
X3220838Y949313D01*
X3221999Y952603D01*
X3223275Y956193D01*
X3224342Y959114D01*
X3225245Y961449D01*
X3226028Y963281D01*
X3226736Y964693D01*
X3227414Y965768D01*
X3228104Y966589D01*
X3228853Y967241D01*
X3229703Y967804D01*
X3230281Y968135D01*
X3230921Y968477D01*
X3231541Y968755D01*
X3232212Y968965D01*
X3233001Y969103D01*
X3233979Y969164D01*
X3235214Y969146D01*
G36*
X3235214Y969146D02*
G01*
X3236775Y969043D01*
X3238731Y968852D01*
X3241152Y968569D01*
X3244107Y968189D01*
X3247664Y967709D01*
X3251893Y967125D01*
X3255042Y966686D01*
X3258994Y966129D01*
X3262744Y965588D01*
X3266211Y965076D01*
X3269316Y964606D01*
X3271977Y964190D01*
X3274113Y963841D01*
X3275643Y963570D01*
X3276488Y963391D01*
X3276580Y963363D01*
X3278813Y962168D01*
X3280574Y960451D01*
X3281838Y958345D01*
X3282578Y955984D01*
X3282771Y953501D01*
X3282390Y951030D01*
X3281410Y948705D01*
X3279806Y946659D01*
X3279757Y946612D01*
X3278034Y945319D01*
X3276073Y944370D01*
X3275942Y944326D01*
X3275132Y944074D01*
X3274389Y943910D01*
X3273572Y943836D01*
X3272537Y943854D01*
X3271144Y943968D01*
X3269250Y944181D01*
X3266712Y944493D01*
X3266680Y944497D01*
X3264183Y944819D01*
X3261766Y945145D01*
X3259617Y945450D01*
X3257928Y945707D01*
X3257091Y945848D01*
X3256109Y946032D01*
X3255415Y946114D01*
X3255028Y946016D01*
X3254968Y945659D01*
X3255257Y944965D01*
X3255913Y943855D01*
X3256959Y942249D01*
X3258414Y940070D01*
X3258688Y939659D01*
X3264880Y930778D01*
X3271539Y921955D01*
X3278555Y913321D01*
X3285815Y905006D01*
X3293207Y897141D01*
X3300620Y889854D01*
X3304558Y886236D01*
X3305989Y884955D01*
X3306047Y888520D01*
X3306099Y890226D01*
X3306204Y892471D01*
X3306348Y895001D01*
X3306518Y897564D01*
X3306580Y898418D01*
X3306783Y900929D01*
X3306972Y902789D01*
X3307174Y904144D01*
X3307411Y905136D01*
X3307707Y905910D01*
X3307891Y906272D01*
X3309501Y908419D01*
X3311628Y910085D01*
X3314101Y911178D01*
X3316749Y911606D01*
X3317781Y911574D01*
X3320312Y910987D01*
X3322643Y909764D01*
X3324611Y908031D01*
X3326053Y905915D01*
X3326532Y904738D01*
X3326678Y904239D01*
X3326796Y903707D01*
X3326885Y903075D01*
X3326942Y902276D01*
X3326967Y901242D01*
X3326957Y899907D01*
X3326912Y898204D01*
X3326831Y896067D01*
X3326711Y893428D01*
X3326552Y890220D01*
X3326351Y886376D01*
X3326109Y881831D01*
X3326014Y880076D01*
X3325766Y875496D01*
X3325548Y871637D01*
X3325348Y868427D01*
X3325155Y865794D01*
X3324957Y863665D01*
X3324742Y861969D01*
X3324497Y860633D01*
X3324212Y859587D01*
X3323874Y858757D01*
X3323471Y858072D01*
X3322991Y857459D01*
X3322423Y856848D01*
X3322128Y856545D01*
X3320886Y855562D01*
X3319283Y854667D01*
X3317595Y853981D01*
X3316098Y853628D01*
X3315521Y853614D01*
X3314931Y853578D01*
X3313638Y853442D01*
X3311724Y853215D01*
X3309271Y852908D01*
X3306362Y852531D01*
X3303080Y852096D01*
X3299506Y851612D01*
X3296045Y851135D01*
X3291308Y850482D01*
X3287287Y849944D01*
X3283911Y849518D01*
X3281111Y849198D01*
X3278816Y848980D01*
X3276958Y848861D01*
X3275466Y848836D01*
X3274271Y848902D01*
X3273303Y849054D01*
X3272493Y849287D01*
X3271770Y849598D01*
X3271595Y849688D01*
X3269699Y851039D01*
X3268029Y852884D01*
X3266889Y854843D01*
X3266420Y856728D01*
X3266347Y858967D01*
X3266643Y861246D01*
X3267281Y863252D01*
X3267685Y864001D01*
X3268922Y865508D01*
X3270527Y866911D01*
X3272214Y867983D01*
X3273170Y868381D01*
X3273932Y868548D01*
X3275339Y868796D01*
X3277250Y869102D01*
X3279524Y869444D01*
X3282019Y869798D01*
X3282431Y869855D01*
X3284858Y870190D01*
X3287002Y870494D01*
X3288744Y870749D01*
X3289966Y870937D01*
X3290550Y871040D01*
X3290581Y871051D01*
X3290349Y871341D01*
X3289632Y872079D01*
X3288527Y873171D01*
X3287128Y874522D01*
X3286209Y875396D01*
X3275209Y886357D01*
X3264780Y897869D01*
X3254922Y909932D01*
X3245637Y922545D01*
X3241290Y928935D01*
X3240054Y930761D01*
X3238959Y932305D01*
X3238081Y933465D01*
X3237495Y934141D01*
X3237290Y934265D01*
X3237082Y933823D01*
X3236658Y932743D01*
X3236061Y931138D01*
X3235333Y929122D01*
X3234514Y926807D01*
X3234186Y925867D01*
X3233133Y922852D01*
X3232289Y920487D01*
X3231606Y918669D01*
X3231035Y917296D01*
X3230529Y916267D01*
X3230040Y915479D01*
X3229520Y914831D01*
X3228923Y914221D01*
X3228581Y913899D01*
X3226393Y912361D01*
X3223975Y911501D01*
X3221458Y911289D01*
X3218971Y911696D01*
X3216642Y912690D01*
X3214602Y914243D01*
X3212980Y916324D01*
X3212318Y917670D01*
X3211914Y918823D01*
X3211681Y919963D01*
X3211639Y921199D01*
X3211805Y922639D01*
X3212198Y924394D01*
X3212835Y926572D01*
X3213736Y929281D01*
X3214745Y932149D01*
X3215726Y934899D01*
X3216897Y938193D01*
X3218188Y941830D01*
X3219525Y945604D01*
X3220838Y949313D01*
X3221999Y952603D01*
X3223275Y956193D01*
X3224342Y959114D01*
X3225245Y961449D01*
X3226028Y963281D01*
X3226736Y964693D01*
X3227414Y965768D01*
X3228104Y966589D01*
X3228853Y967241D01*
X3229703Y967804D01*
X3230281Y968135D01*
X3230921Y968477D01*
X3231541Y968755D01*
X3232212Y968965D01*
X3233001Y969103D01*
X3233979Y969164D01*
X3235214Y969146D01*
G37*
%TD*%
M02*
