%TF.GenerationSoftware,KiCad,Pcbnew,9.0.5*%
%TF.CreationDate,2025-10-22T23:16:10+01:00*%
%TF.ProjectId,hwidx_18,68776964-785f-4313-982e-6b696361645f,0.1*%
%TF.SameCoordinates,Original*%
%TF.FileFunction,Legend,Bot*%
%TF.FilePolarity,Positive*%
%FSLAX45Y45*%
G04 Gerber Fmt 4.5, Leading zero omitted, Abs format (unit mm)*
G04 Created by KiCad (PCBNEW 9.0.5) date 2025-10-22 23:16:10*
%MOMM*%
%LPD*%
G01*
G04 APERTURE LIST*
%ADD10C,0.000000*%
G04 APERTURE END LIST*
D10*
%TO.C,G\u002A\u002A\u002A*%
G36*
X-450021Y183044D02*
G01*
X-450021Y149412D01*
X-466986Y149412D01*
X-483951Y149412D01*
X-483951Y183044D01*
X-483951Y216677D01*
X-466986Y216677D01*
X-450021Y216677D01*
X-450021Y183044D01*
G37*
G36*
X-416686Y-416984D02*
G01*
X-416686Y-450616D01*
X-433651Y-450616D01*
X-450616Y-450616D01*
X-450616Y-416984D01*
X-450616Y-383351D01*
X-433651Y-383351D01*
X-416686Y-383351D01*
X-416686Y-416984D01*
G37*
G36*
X-316681Y366684D02*
G01*
X-316681Y316682D01*
X-366684Y316682D01*
X-416686Y316682D01*
X-416686Y366684D01*
X-416686Y416686D01*
X-366684Y416686D01*
X-316681Y416686D01*
X-316681Y366684D01*
G37*
G36*
X-250012Y-266977D02*
G01*
X-250012Y-283942D01*
X-266977Y-283942D01*
X-283942Y-283942D01*
X-283942Y-266977D01*
X-283942Y-250012D01*
X-266977Y-250012D01*
X-250012Y-250012D01*
X-250012Y-266977D01*
G37*
G36*
X-183342Y433056D02*
G01*
X-183342Y416091D01*
X-200307Y416091D01*
X-217272Y416091D01*
X-217272Y433056D01*
X-217272Y450021D01*
X-200307Y450021D01*
X-183342Y450021D01*
X-183342Y433056D01*
G37*
G36*
X416686Y366684D02*
G01*
X416686Y316682D01*
X366684Y316682D01*
X316682Y316682D01*
X316682Y366684D01*
X316682Y416686D01*
X366684Y416686D01*
X416686Y416686D01*
X416686Y366684D01*
G37*
G36*
X416686Y-366684D02*
G01*
X416686Y-416686D01*
X366684Y-416686D01*
X316682Y-416686D01*
X316682Y-366684D01*
X316682Y-316681D01*
X366684Y-316681D01*
X416686Y-316681D01*
X416686Y-366684D01*
G37*
G36*
X483356Y-150305D02*
G01*
X483356Y-217272D01*
X466391Y-217272D01*
X449426Y-217272D01*
X449426Y-150305D01*
X449426Y-83337D01*
X466391Y-83337D01*
X483356Y-83337D01*
X483356Y-150305D01*
G37*
G36*
X-83337Y466391D02*
G01*
X-83337Y449426D01*
X-100005Y449426D01*
X-116672Y449426D01*
X-116672Y432758D01*
X-116672Y416091D01*
X-133637Y416091D01*
X-150602Y416091D01*
X-150602Y433056D01*
X-150602Y450021D01*
X-133935Y450021D01*
X-117267Y450021D01*
X-117267Y466689D01*
X-117267Y483356D01*
X-100302Y483356D01*
X-83337Y483356D01*
X-83337Y466391D01*
G37*
G36*
X-250012Y250012D02*
G01*
X-366684Y250012D01*
X-483356Y250012D01*
X-483356Y366684D01*
X-483356Y450021D01*
X-450021Y450021D01*
X-450021Y366684D01*
X-450021Y283347D01*
X-366684Y283347D01*
X-283347Y283347D01*
X-283347Y366684D01*
X-283347Y450021D01*
X-366684Y450021D01*
X-450021Y450021D01*
X-483356Y450021D01*
X-483356Y483356D01*
X-366684Y483356D01*
X-250012Y483356D01*
X-250012Y366684D01*
X-250012Y250012D01*
G37*
G36*
X483356Y250012D02*
G01*
X366684Y250012D01*
X250012Y250012D01*
X250012Y366684D01*
X250012Y450021D01*
X283347Y450021D01*
X283347Y366684D01*
X283347Y283347D01*
X366684Y283347D01*
X450021Y283347D01*
X450021Y366684D01*
X450021Y450021D01*
X366684Y450021D01*
X283347Y450021D01*
X250012Y450021D01*
X250012Y483356D01*
X366684Y483356D01*
X483356Y483356D01*
X483356Y366684D01*
X483356Y250012D01*
G37*
G36*
X483356Y-483356D02*
G01*
X366684Y-483356D01*
X250012Y-483356D01*
X250012Y-366684D01*
X250012Y-283347D01*
X283347Y-283347D01*
X283347Y-366684D01*
X283347Y-450021D01*
X366684Y-450021D01*
X450021Y-450021D01*
X450021Y-366684D01*
X450021Y-283347D01*
X366684Y-283347D01*
X283347Y-283347D01*
X250012Y-283347D01*
X250012Y-250012D01*
X366684Y-250012D01*
X483356Y-250012D01*
X483356Y-366684D01*
X483356Y-483356D01*
G37*
G36*
X-416686Y49705D02*
G01*
X-416686Y-17263D01*
X-433354Y-17263D01*
X-450021Y-17263D01*
X-450021Y-33930D01*
X-450021Y-50597D01*
X-466986Y-50597D01*
X-483951Y-50597D01*
X-483951Y-33633D01*
X-483951Y-16667D01*
X-467284Y-16667D01*
X-450616Y-16667D01*
X-450616Y-298D01*
X-450616Y16072D01*
X-467284Y16072D01*
X-483951Y16072D01*
X-483951Y49705D01*
X-483951Y83337D01*
X-467284Y83337D01*
X-450616Y83337D01*
X-450616Y100005D01*
X-450616Y116672D01*
X-433651Y116672D01*
X-416686Y116672D01*
X-416686Y49705D01*
G37*
G36*
X216677Y299717D02*
G01*
X216677Y249416D01*
X199712Y249416D01*
X182747Y249416D01*
X182747Y282751D01*
X182747Y316086D01*
X166377Y316086D01*
X150007Y316086D01*
X150007Y283049D01*
X150007Y266382D01*
X150007Y233047D01*
X150007Y216677D01*
X166675Y216677D01*
X183342Y216677D01*
X183342Y166675D01*
X183342Y116672D01*
X200009Y116672D01*
X216677Y116672D01*
X216677Y116077D01*
X216677Y100005D01*
X216677Y83337D01*
X249714Y83337D01*
X282751Y83337D01*
X282751Y99707D01*
X282751Y116077D01*
X266084Y116077D01*
X249416Y116077D01*
X249416Y133042D01*
X249416Y150007D01*
X266382Y150007D01*
X283347Y150007D01*
X283347Y133340D01*
X283347Y116672D01*
X316384Y116672D01*
X349421Y116672D01*
X349421Y133042D01*
X349421Y149412D01*
X332754Y149412D01*
X316086Y149412D01*
X316086Y166079D01*
X316086Y182747D01*
X383351Y182747D01*
X383351Y166377D01*
X383351Y150007D01*
X399721Y150007D01*
X416091Y150007D01*
X416091Y166377D01*
X416091Y182747D01*
X399721Y182747D01*
X383351Y182747D01*
X316086Y182747D01*
X266084Y182747D01*
X216082Y182747D01*
X216082Y199712D01*
X216082Y216677D01*
X333051Y216677D01*
X450021Y216677D01*
X450021Y200009D01*
X450021Y183342D01*
X466689Y183342D01*
X483356Y183342D01*
X483356Y166377D01*
X483356Y149710D01*
X483356Y116077D01*
X450021Y116077D01*
X416686Y116077D01*
X416686Y83040D01*
X416686Y50002D01*
X433056Y50002D01*
X449426Y50002D01*
X449426Y66670D01*
X449426Y83337D01*
X466391Y83337D01*
X483356Y83337D01*
X483356Y66372D01*
X483356Y49407D01*
X466689Y49407D01*
X450021Y49407D01*
X450021Y33037D01*
X450021Y16668D01*
X466689Y16668D01*
X483356Y16668D01*
X483356Y-16965D01*
X483356Y-33633D01*
X483356Y-50597D01*
X450021Y-50597D01*
X416686Y-50597D01*
X416686Y-117267D01*
X416686Y-183937D01*
X399721Y-183937D01*
X382756Y-183937D01*
X382756Y-117267D01*
X382756Y-50597D01*
X366089Y-50597D01*
X349421Y-50597D01*
X349421Y-17263D01*
X383351Y-17263D01*
X383351Y-33633D01*
X383351Y-50002D01*
X399721Y-50002D01*
X416091Y-50002D01*
X416091Y-33633D01*
X416091Y-17263D01*
X399721Y-17263D01*
X383351Y-17263D01*
X349421Y-17263D01*
X349421Y-298D01*
X349421Y49407D01*
X383351Y49407D01*
X383351Y33037D01*
X383351Y16668D01*
X399721Y16668D01*
X416091Y16668D01*
X416091Y33037D01*
X416091Y49407D01*
X399721Y49407D01*
X383351Y49407D01*
X349421Y49407D01*
X349421Y50002D01*
X366089Y50002D01*
X382756Y50002D01*
X382756Y83040D01*
X382756Y116077D01*
X366386Y116077D01*
X350016Y116077D01*
X350016Y99409D01*
X350016Y82742D01*
X333349Y82742D01*
X316682Y82742D01*
X316682Y33037D01*
X316682Y32740D01*
X316682Y-298D01*
X316682Y-17263D01*
X283347Y-17263D01*
X250012Y-17263D01*
X250012Y-33633D01*
X250012Y-50002D01*
X266679Y-50002D01*
X283347Y-50002D01*
X283347Y-66670D01*
X283347Y-83337D01*
X316682Y-83337D01*
X350016Y-83337D01*
X350016Y-83932D01*
X350016Y-133637D01*
X350016Y-150305D01*
X350016Y-166972D01*
X350016Y-183937D01*
X333349Y-183937D01*
X316682Y-183937D01*
X316682Y-200605D01*
X316682Y-217272D01*
X283049Y-217272D01*
X249416Y-217272D01*
X249416Y-200605D01*
X249416Y-183937D01*
X233047Y-183937D01*
X216677Y-183937D01*
X216677Y-283644D01*
X216677Y-317277D01*
X216677Y-450616D01*
X199712Y-450616D01*
X182747Y-450616D01*
X182747Y-400614D01*
X182747Y-350612D01*
X166377Y-350612D01*
X150007Y-350612D01*
X150007Y-383946D01*
X150007Y-417281D01*
X133042Y-417281D01*
X116077Y-417281D01*
X116077Y-400614D01*
X116077Y-383946D01*
X83040Y-383946D01*
X50002Y-383946D01*
X50002Y-400316D01*
X50002Y-416686D01*
X66670Y-416686D01*
X83337Y-416686D01*
X83337Y-433651D01*
X83337Y-450616D01*
X66670Y-450616D01*
X50002Y-450616D01*
X50002Y-467284D01*
X50002Y-483951D01*
X33037Y-483951D01*
X16072Y-483951D01*
X16072Y-467284D01*
X16072Y-450616D01*
X-298Y-450616D01*
X-16667Y-450616D01*
X-16667Y-467284D01*
X-16667Y-483951D01*
X-33633Y-483951D01*
X-50597Y-483951D01*
X-50597Y-450616D01*
X-50597Y-417281D01*
X-83635Y-417281D01*
X-116672Y-417281D01*
X-116672Y-433651D01*
X-116672Y-450021D01*
X-100005Y-450021D01*
X-83337Y-450021D01*
X-83337Y-466986D01*
X-83337Y-483951D01*
X-100302Y-483951D01*
X-117267Y-483951D01*
X-117267Y-467284D01*
X-117267Y-450616D01*
X-133935Y-450616D01*
X-150602Y-450616D01*
X-150602Y-433949D01*
X-150602Y-417281D01*
X-183639Y-417281D01*
X-216677Y-417281D01*
X-216677Y-433651D01*
X-216677Y-450021D01*
X-200009Y-450021D01*
X-183342Y-450021D01*
X-183342Y-466986D01*
X-183342Y-483951D01*
X-233642Y-483951D01*
X-283942Y-483951D01*
X-283942Y-450616D01*
X-283942Y-417281D01*
X-300312Y-417281D01*
X-316681Y-417281D01*
X-316681Y-450616D01*
X-316681Y-483951D01*
X-333647Y-483951D01*
X-350612Y-483951D01*
X-350612Y-433651D01*
X-350612Y-383946D01*
X-150007Y-383946D01*
X-150007Y-400316D01*
X-150007Y-416686D01*
X-133637Y-416686D01*
X-117267Y-416686D01*
X-117267Y-400316D01*
X-117267Y-383946D01*
X-133637Y-383946D01*
X-150007Y-383946D01*
X-350612Y-383946D01*
X-350612Y-383351D01*
X-333944Y-383351D01*
X-317277Y-383351D01*
X-317277Y-366981D01*
X-317277Y-350612D01*
X-283347Y-350612D01*
X-283347Y-366981D01*
X-283347Y-383351D01*
X-266977Y-383351D01*
X-250607Y-383351D01*
X-83337Y-383351D01*
X-66967Y-383351D01*
X-50597Y-383351D01*
X-50597Y-366981D01*
X-50597Y-350612D01*
X-66967Y-350612D01*
X-83337Y-350612D01*
X-83337Y-366981D01*
X-83337Y-383351D01*
X-250607Y-383351D01*
X-250607Y-366981D01*
X-250607Y-350612D01*
X-266977Y-350612D01*
X-283347Y-350612D01*
X-317277Y-350612D01*
X-383946Y-350612D01*
X-450616Y-350612D01*
X-450616Y-333944D01*
X-450616Y-317277D01*
X-183342Y-317277D01*
X-183342Y-333647D01*
X-183342Y-350016D01*
X-133637Y-350016D01*
X-83932Y-350016D01*
X-50002Y-350016D01*
X-33633Y-350016D01*
X-17263Y-350016D01*
X-17263Y-316979D01*
X-17263Y-283942D01*
X-33633Y-283942D01*
X-50002Y-283942D01*
X-50002Y-316979D01*
X-50002Y-333647D01*
X-50002Y-350016D01*
X-83932Y-350016D01*
X-83932Y-333647D01*
X-83932Y-317277D01*
X-133637Y-317277D01*
X-183342Y-317277D01*
X-450616Y-317277D01*
X-467284Y-317277D01*
X-483951Y-317277D01*
X-483951Y-300312D01*
X-483951Y-283347D01*
X-450319Y-283347D01*
X-416686Y-283347D01*
X-416686Y-300014D01*
X-416686Y-316681D01*
X-400316Y-316681D01*
X-383946Y-316681D01*
X-383946Y-300014D01*
X-383946Y-283347D01*
X-367279Y-283347D01*
X-350612Y-283347D01*
X-350612Y-266977D01*
X-350612Y-250607D01*
X-367279Y-250607D01*
X-383946Y-250607D01*
X-383946Y-217272D01*
X-316681Y-217272D01*
X-316681Y-266977D01*
X-316681Y-316681D01*
X-266977Y-316681D01*
X-217272Y-316681D01*
X-217272Y-283347D01*
X-150007Y-283347D01*
X-133637Y-283347D01*
X-117267Y-283347D01*
X-117267Y-266977D01*
X-117267Y-250607D01*
X-133637Y-250607D01*
X-150007Y-250607D01*
X-150007Y-266977D01*
X-150007Y-283347D01*
X-217272Y-283347D01*
X-217272Y-266977D01*
X-217272Y-217272D01*
X-266977Y-217272D01*
X-316681Y-217272D01*
X-383946Y-217272D01*
X-383946Y-183937D01*
X-400316Y-183937D01*
X-416686Y-183937D01*
X-416686Y-217272D01*
X-416686Y-250607D01*
X-450319Y-250607D01*
X-483951Y-250607D01*
X-483951Y-233642D01*
X-483951Y-216677D01*
X-467284Y-216677D01*
X-450616Y-216677D01*
X-450616Y-200009D01*
X-450616Y-183342D01*
X-433949Y-183342D01*
X-417281Y-183342D01*
X-417281Y-150602D01*
X-383351Y-150602D01*
X-383351Y-166972D01*
X-383351Y-183342D01*
X-366981Y-183342D01*
X-350612Y-183342D01*
X-350612Y-166972D01*
X-350612Y-150602D01*
X-366981Y-150602D01*
X-383351Y-150602D01*
X-417281Y-150602D01*
X-417281Y-150305D01*
X-417281Y-117267D01*
X-450616Y-117267D01*
X-483951Y-117267D01*
X-483951Y-100302D01*
X-483951Y-83932D01*
X-416686Y-83932D01*
X-416686Y-100302D01*
X-416686Y-116672D01*
X-400316Y-116672D01*
X-383946Y-116672D01*
X-383946Y-100302D01*
X-383946Y-83932D01*
X-400316Y-83932D01*
X-416686Y-83932D01*
X-483951Y-83932D01*
X-483951Y-83337D01*
X-450616Y-83337D01*
X-417281Y-83337D01*
X-417281Y-66670D01*
X-417281Y-50002D01*
X-400614Y-50002D01*
X-383946Y-50002D01*
X-383946Y-33335D01*
X-383946Y-17263D01*
X-316681Y-17263D01*
X-316681Y-50300D01*
X-316681Y-83337D01*
X-300014Y-83337D01*
X-283347Y-83337D01*
X-283347Y-100005D01*
X-283347Y-100302D01*
X-283347Y-116672D01*
X-266679Y-116672D01*
X-250012Y-116672D01*
X-250012Y-150007D01*
X-250012Y-166972D01*
X-250012Y-183342D01*
X-216677Y-183342D01*
X-183342Y-183342D01*
X-183342Y-216677D01*
X-183342Y-250012D01*
X-166972Y-250012D01*
X-150602Y-250012D01*
X-150602Y-183342D01*
X-150602Y-117267D01*
X-116672Y-117267D01*
X-116672Y-150305D01*
X-116672Y-183342D01*
X-100302Y-183342D01*
X-83932Y-183342D01*
X-83932Y-166674D01*
X-83932Y-150007D01*
X-66967Y-150007D01*
X-50002Y-150007D01*
X-50002Y-200009D01*
X-50002Y-250012D01*
X0Y-250012D01*
X50002Y-250012D01*
X50002Y-266977D01*
X50002Y-283942D01*
X33335Y-283942D01*
X16668Y-283942D01*
X16668Y-316979D01*
X16668Y-333647D01*
X16668Y-366981D01*
X16668Y-383351D01*
X33037Y-383351D01*
X49407Y-383351D01*
X49407Y-350016D01*
X49407Y-316681D01*
X66075Y-316681D01*
X82742Y-316681D01*
X82742Y-266977D01*
X82742Y-250607D01*
X150007Y-250607D01*
X150007Y-283644D01*
X150007Y-316681D01*
X166377Y-316681D01*
X182747Y-316681D01*
X182747Y-283644D01*
X182747Y-250607D01*
X166377Y-250607D01*
X150007Y-250607D01*
X82742Y-250607D01*
X82742Y-217272D01*
X32740Y-217272D01*
X-17263Y-217272D01*
X-17263Y-183937D01*
X116672Y-183937D01*
X116672Y-200307D01*
X116672Y-216677D01*
X149710Y-216677D01*
X182747Y-216677D01*
X182747Y-200009D01*
X182747Y-183342D01*
X199414Y-183342D01*
X216082Y-183342D01*
X216082Y-150602D01*
X250012Y-150602D01*
X250012Y-166972D01*
X250012Y-183342D01*
X266382Y-183342D01*
X282751Y-183342D01*
X282751Y-166972D01*
X282751Y-150602D01*
X266382Y-150602D01*
X250012Y-150602D01*
X216082Y-150602D01*
X216082Y-150305D01*
X216082Y-117267D01*
X199712Y-117267D01*
X183342Y-117267D01*
X183342Y-133935D01*
X183342Y-150602D01*
X166675Y-150602D01*
X150007Y-150602D01*
X150007Y-167270D01*
X150007Y-183937D01*
X133340Y-183937D01*
X116672Y-183937D01*
X-17263Y-183937D01*
X-17263Y-183639D01*
X-17263Y-150007D01*
X16072Y-150007D01*
X49407Y-150007D01*
X49407Y-133340D01*
X49407Y-116672D01*
X66372Y-116672D01*
X83337Y-116672D01*
X83337Y-133637D01*
X83337Y-150602D01*
X66670Y-150602D01*
X50002Y-150602D01*
X50002Y-166972D01*
X50002Y-183342D01*
X83040Y-183342D01*
X116077Y-183342D01*
X116077Y-166674D01*
X116077Y-150007D01*
X132744Y-150007D01*
X149412Y-150007D01*
X149412Y-133340D01*
X149412Y-116672D01*
X166079Y-116672D01*
X182747Y-116672D01*
X182747Y-83635D01*
X182747Y-50597D01*
X216677Y-50597D01*
X216677Y-83635D01*
X216677Y-116672D01*
X249714Y-116672D01*
X282751Y-116672D01*
X282751Y-100302D01*
X282751Y-83932D01*
X266084Y-83932D01*
X249416Y-83932D01*
X249416Y-67265D01*
X249416Y-50597D01*
X233047Y-50597D01*
X216677Y-50597D01*
X182747Y-50597D01*
X166079Y-50597D01*
X149412Y-50597D01*
X149412Y-17263D01*
X149412Y16072D01*
X216677Y16072D01*
X216677Y-298D01*
X216677Y-16667D01*
X233047Y-16667D01*
X249416Y-16667D01*
X249416Y-298D01*
X249416Y16072D01*
X233047Y16072D01*
X216677Y16072D01*
X149412Y16072D01*
X83040Y16072D01*
X16668Y16072D01*
X16668Y-298D01*
X16668Y-16667D01*
X50002Y-16667D01*
X83337Y-16667D01*
X83337Y-33633D01*
X83337Y-50597D01*
X66670Y-50597D01*
X50002Y-50597D01*
X50002Y-67265D01*
X50002Y-83932D01*
X33335Y-83932D01*
X16668Y-83932D01*
X16668Y-100600D01*
X16668Y-117267D01*
X-50002Y-117267D01*
X-116672Y-117267D01*
X-150602Y-117267D01*
X-150602Y-116672D01*
X-133935Y-116672D01*
X-117267Y-116672D01*
X-117267Y-100302D01*
X-117267Y-83932D01*
X-150602Y-83932D01*
X-183937Y-83932D01*
X-183937Y-66967D01*
X-183937Y-50002D01*
X-150305Y-50002D01*
X-116672Y-50002D01*
X-116672Y-66670D01*
X-116672Y-83337D01*
X-50300Y-83337D01*
X16072Y-83337D01*
X16072Y-66967D01*
X16072Y-50597D01*
X-17263Y-50597D01*
X-50597Y-50597D01*
X-50597Y-33930D01*
X-50597Y-17263D01*
X-67265Y-17263D01*
X-83932Y-17263D01*
X-83932Y16072D01*
X-50002Y16072D01*
X-50002Y-298D01*
X-50002Y-16667D01*
X-33633Y-16667D01*
X-17263Y-16667D01*
X-17263Y-298D01*
X-17263Y16072D01*
X-33633Y16072D01*
X-50002Y16072D01*
X-83932Y16072D01*
X-83932Y49407D01*
X-16667Y49407D01*
X-16667Y33037D01*
X-16667Y16668D01*
X-298Y16668D01*
X16072Y16668D01*
X250012Y16668D01*
X266382Y16668D01*
X282751Y16668D01*
X282751Y33037D01*
X282751Y49407D01*
X266382Y49407D01*
X250012Y49407D01*
X250012Y33037D01*
X250012Y16668D01*
X16072Y16668D01*
X16072Y33037D01*
X16072Y49407D01*
X-298Y49407D01*
X-16667Y49407D01*
X-83932Y49407D01*
X-100600Y49407D01*
X-117267Y49407D01*
X-117267Y66075D01*
X-117267Y82742D01*
X-50002Y82742D01*
X-50002Y66372D01*
X-50002Y50002D01*
X-33633Y50002D01*
X-17263Y50002D01*
X16668Y50002D01*
X33037Y50002D01*
X49407Y50002D01*
X49407Y66372D01*
X49407Y82742D01*
X33037Y82742D01*
X16668Y82742D01*
X16668Y66372D01*
X16668Y50002D01*
X-17263Y50002D01*
X-17263Y66372D01*
X-17263Y82742D01*
X-33633Y82742D01*
X-50002Y82742D01*
X-117267Y82742D01*
X-133637Y82742D01*
X-150007Y82742D01*
X-150007Y66372D01*
X-150007Y49705D01*
X-150007Y33037D01*
X-150007Y16668D01*
X-133340Y16668D01*
X-116672Y16668D01*
X-116672Y-298D01*
X-116672Y-17263D01*
X-133637Y-17263D01*
X-150602Y-17263D01*
X-150602Y-595D01*
X-150602Y16072D01*
X-183639Y16072D01*
X-216677Y16072D01*
X-216677Y-33930D01*
X-216677Y-83932D01*
X-233642Y-83932D01*
X-250607Y-83932D01*
X-250607Y-33930D01*
X-250607Y16072D01*
X-266977Y16072D01*
X-283347Y16072D01*
X-283347Y-595D01*
X-283347Y-17263D01*
X-300014Y-17263D01*
X-316681Y-17263D01*
X-383946Y-17263D01*
X-383946Y-16667D01*
X-350612Y-16667D01*
X-317277Y-16667D01*
X-317277Y-298D01*
X-317277Y16072D01*
X-350612Y16072D01*
X-383946Y16072D01*
X-383946Y33037D01*
X-383946Y49407D01*
X-316681Y49407D01*
X-316681Y33037D01*
X-316681Y16668D01*
X-300312Y16668D01*
X-283942Y16668D01*
X-283942Y33037D01*
X-283942Y49407D01*
X-300312Y49407D01*
X-316681Y49407D01*
X-383946Y49407D01*
X-383946Y50002D01*
X-350612Y50002D01*
X-317277Y50002D01*
X-317277Y66372D01*
X-317277Y82742D01*
X-283347Y82742D01*
X-283347Y66372D01*
X-283347Y50002D01*
X-266977Y50002D01*
X-250607Y50002D01*
X-250607Y66372D01*
X-250607Y82742D01*
X-266977Y82742D01*
X-283347Y82742D01*
X-317277Y82742D01*
X-350612Y82742D01*
X-383946Y82742D01*
X-383946Y99707D01*
X-383946Y116077D01*
X-316681Y116077D01*
X-316681Y99707D01*
X-316681Y83337D01*
X-300312Y83337D01*
X-283942Y83337D01*
X-283942Y99707D01*
X-283942Y116077D01*
X-300312Y116077D01*
X-316681Y116077D01*
X-383946Y116077D01*
X-383946Y116672D01*
X-367279Y116672D01*
X-350612Y116672D01*
X-350612Y149412D01*
X-216677Y149412D01*
X-216677Y133042D01*
X-216677Y116672D01*
X-200307Y116672D01*
X-183937Y116672D01*
X-183937Y133042D01*
X-183937Y149412D01*
X-200307Y149412D01*
X-216677Y149412D01*
X-350612Y149412D01*
X-350612Y166675D01*
X-350612Y216677D01*
X-316979Y216677D01*
X-283347Y216677D01*
X-283347Y200009D01*
X-283347Y183342D01*
X-233344Y183342D01*
X-183342Y183342D01*
X-183342Y166675D01*
X-183342Y150007D01*
X-166972Y150007D01*
X-150602Y150007D01*
X-150602Y166675D01*
X-150602Y183342D01*
X-133637Y183342D01*
X-116672Y183342D01*
X-116672Y166377D01*
X-116672Y149412D01*
X-133340Y149412D01*
X-150007Y149412D01*
X-150007Y133042D01*
X-150007Y116672D01*
X-133340Y116672D01*
X-116672Y116672D01*
X-116672Y100005D01*
X-116672Y99707D01*
X-116672Y83337D01*
X-100302Y83337D01*
X-83932Y83337D01*
X-83932Y149710D01*
X-83932Y166377D01*
X-50002Y166377D01*
X-50002Y116672D01*
X-33633Y116672D01*
X-17263Y116672D01*
X-17263Y133340D01*
X-17263Y149412D01*
X50002Y149412D01*
X50002Y133042D01*
X50002Y116672D01*
X83337Y116672D01*
X116672Y116672D01*
X116672Y100005D01*
X116672Y83337D01*
X133340Y83337D01*
X150007Y83337D01*
X150007Y66670D01*
X150007Y66372D01*
X150007Y50002D01*
X166377Y50002D01*
X182747Y50002D01*
X182747Y83040D01*
X182747Y116077D01*
X166079Y116077D01*
X149412Y116077D01*
X149412Y149412D01*
X149412Y182747D01*
X133042Y182747D01*
X116672Y182747D01*
X116672Y166079D01*
X116672Y149412D01*
X83337Y149412D01*
X50002Y149412D01*
X-17263Y149412D01*
X-17263Y150007D01*
X16072Y150007D01*
X49407Y150007D01*
X49407Y166377D01*
X49407Y182747D01*
X16072Y182747D01*
X-17263Y182747D01*
X-17263Y199414D01*
X-17263Y216082D01*
X50002Y216082D01*
X50002Y199712D01*
X50002Y183342D01*
X83040Y183342D01*
X116077Y183342D01*
X116077Y233047D01*
X116077Y282751D01*
X99707Y282751D01*
X83337Y282751D01*
X83337Y249416D01*
X83337Y233047D01*
X83337Y216082D01*
X66670Y216082D01*
X50002Y216082D01*
X-17263Y216082D01*
X-33633Y216082D01*
X-50002Y216082D01*
X-50002Y166377D01*
X-83932Y166377D01*
X-83932Y216082D01*
X-150602Y216082D01*
X-217272Y216082D01*
X-217272Y249416D01*
X-83337Y249416D01*
X-83337Y233047D01*
X-83337Y216677D01*
X-66967Y216677D01*
X-50597Y216677D01*
X-16667Y216677D01*
X-298Y216677D01*
X16072Y216677D01*
X16072Y233047D01*
X16072Y249416D01*
X-298Y249416D01*
X-16667Y249416D01*
X-16667Y233047D01*
X-16667Y216677D01*
X-50597Y216677D01*
X-50597Y233047D01*
X-50597Y249416D01*
X-66967Y249416D01*
X-83337Y249416D01*
X-217272Y249416D01*
X-217272Y283049D01*
X-217272Y316086D01*
X-183342Y316086D01*
X-183342Y283049D01*
X-183342Y250012D01*
X-166972Y250012D01*
X-150602Y250012D01*
X-150602Y266679D01*
X-150602Y282751D01*
X-116672Y282751D01*
X-116672Y266382D01*
X-116672Y250012D01*
X-100302Y250012D01*
X-83932Y250012D01*
X-83932Y266382D01*
X-83932Y282751D01*
X-100302Y282751D01*
X-116672Y282751D01*
X-150602Y282751D01*
X-150602Y283347D01*
X-133935Y283347D01*
X-117267Y283347D01*
X-83337Y283347D01*
X-66670Y283347D01*
X-50002Y283347D01*
X-50002Y266679D01*
X-50002Y266382D01*
X-50002Y250012D01*
X-33633Y250012D01*
X-17263Y250012D01*
X-17263Y316086D01*
X16668Y316086D01*
X16668Y283049D01*
X16668Y250012D01*
X33037Y250012D01*
X49407Y250012D01*
X49407Y283049D01*
X49407Y316086D01*
X33037Y316086D01*
X16668Y316086D01*
X-17263Y316086D01*
X-17263Y316384D01*
X-17263Y382756D01*
X-50300Y382756D01*
X-83337Y382756D01*
X-83337Y366386D01*
X-83337Y350016D01*
X-66670Y350016D01*
X-50002Y350016D01*
X-50002Y333051D01*
X-50002Y316086D01*
X-66670Y316086D01*
X-83337Y316086D01*
X-83337Y299717D01*
X-83337Y283347D01*
X-117267Y283347D01*
X-117267Y299717D01*
X-117267Y316086D01*
X-150305Y316086D01*
X-183342Y316086D01*
X-217272Y316086D01*
X-217272Y350016D01*
X-167270Y350016D01*
X-117267Y350016D01*
X-117267Y366684D01*
X-117267Y383351D01*
X-100600Y383351D01*
X-83932Y383351D01*
X-83932Y400019D01*
X-83932Y416686D01*
X-50597Y416686D01*
X-17263Y416686D01*
X-17263Y433056D01*
X-17263Y449426D01*
X-33930Y449426D01*
X-50597Y449426D01*
X-50597Y466391D01*
X-50597Y483356D01*
X-16965Y483356D01*
X16668Y483356D01*
X16668Y466689D01*
X16668Y450021D01*
X33037Y450021D01*
X49407Y450021D01*
X49407Y466689D01*
X49407Y483356D01*
X83040Y483356D01*
X116672Y483356D01*
X116672Y466689D01*
X116672Y450021D01*
X149710Y450021D01*
X182747Y450021D01*
X182747Y466689D01*
X182747Y483356D01*
X199712Y483356D01*
X216677Y483356D01*
X216677Y466391D01*
X216677Y449426D01*
X200009Y449426D01*
X183342Y449426D01*
X183342Y432758D01*
X183342Y416091D01*
X150007Y416091D01*
X116672Y416091D01*
X116672Y399424D01*
X116672Y382756D01*
X83337Y382756D01*
X50002Y382756D01*
X50002Y366386D01*
X50002Y350016D01*
X66670Y350016D01*
X83337Y350016D01*
X83337Y333349D01*
X83337Y316682D01*
X99707Y316682D01*
X116077Y316682D01*
X116077Y333349D01*
X116077Y350016D01*
X132744Y350016D01*
X149412Y350016D01*
X149412Y366684D01*
X149412Y383351D01*
X166377Y383351D01*
X183342Y383351D01*
X183342Y366684D01*
X183342Y350016D01*
X200009Y350016D01*
X216677Y350016D01*
X216677Y316384D01*
X216677Y299717D01*
G37*
%TD*%
M02*
