%TF.GenerationSoftware,KiCad,Pcbnew,10.0.4-10.0.4~ubuntu22.04.1*%
%TF.CreationDate,2026-07-21T15:20:52+01:00*%
%TF.ProjectId,vm_i2c_environment_sensor_bme690,766d5f69-3263-45f6-956e-7669726f6e6d,0.1*%
%TF.SameCoordinates,PX4c88490PY4524320*%
%TF.FileFunction,Legend,Top*%
%TF.FilePolarity,Positive*%
%FSLAX45Y45*%
G04 Gerber Fmt 4.5, Leading zero omitted, Abs format (unit mm)*
G04 Created by KiCad (PCBNEW 10.0.4-10.0.4~ubuntu22.04.1) date 2026-07-21 15:20:52*
%MOMM*%
%LPD*%
G01*
G04 APERTURE LIST*
%ADD10C,0.200000*%
%ADD11C,0.120000*%
%ADD12C,0.100000*%
G04 APERTURE END LIST*
D10*
X-274851Y-236722D02*
X-265327Y-236722D01*
X-265327Y-236722D02*
X-255803Y-241484D01*
X-255803Y-241484D02*
X-251041Y-246246D01*
X-251041Y-246246D02*
X-246279Y-255769D01*
X-246279Y-255769D02*
X-241518Y-274817D01*
X-241518Y-274817D02*
X-241518Y-298627D01*
X-241518Y-298627D02*
X-246279Y-317674D01*
X-246279Y-317674D02*
X-251041Y-327198D01*
X-251041Y-327198D02*
X-255803Y-331960D01*
X-255803Y-331960D02*
X-265327Y-336722D01*
X-265327Y-336722D02*
X-274851Y-336722D01*
X-274851Y-336722D02*
X-284375Y-331960D01*
X-284375Y-331960D02*
X-289137Y-327198D01*
X-289137Y-327198D02*
X-293899Y-317674D01*
X-293899Y-317674D02*
X-298660Y-298627D01*
X-298660Y-298627D02*
X-298660Y-274817D01*
X-298660Y-274817D02*
X-293899Y-255769D01*
X-293899Y-255769D02*
X-289137Y-246246D01*
X-289137Y-246246D02*
X-284375Y-241484D01*
X-284375Y-241484D02*
X-274851Y-236722D01*
X-198660Y-327198D02*
X-193898Y-331960D01*
X-193898Y-331960D02*
X-198660Y-336722D01*
X-198660Y-336722D02*
X-203422Y-331960D01*
X-203422Y-331960D02*
X-198660Y-327198D01*
X-198660Y-327198D02*
X-198660Y-336722D01*
X-98660Y-336722D02*
X-155803Y-336722D01*
X-127232Y-336722D02*
X-127232Y-236722D01*
X-127232Y-236722D02*
X-136756Y-251008D01*
X-136756Y-251008D02*
X-146280Y-260531D01*
X-146280Y-260531D02*
X-155803Y-265293D01*
%TO.C,C1*%
D11*
X210784Y286000D02*
X189216Y286000D01*
X210784Y214000D02*
X189216Y214000D01*
%TO.C,C2*%
X-10784Y286000D02*
X10784Y286000D01*
X-10784Y214000D02*
X10784Y214000D01*
%TO.C,IC1*%
D10*
X-80000Y-140000D02*
X-80000Y-20000D01*
D12*
X190000Y-280000D02*
X190000Y-280000D01*
X190000Y-290000D02*
X190000Y-290000D01*
D10*
X220000Y-140000D02*
X220000Y-20000D01*
D12*
X190000Y-280000D02*
G75*
G02*
X190000Y-290000I0J-5000D01*
G01*
X190000Y-290000D02*
G75*
G02*
X190000Y-280000I0J5000D01*
G01*
%TD*%
M02*
