%TF.GenerationSoftware,KiCad,Pcbnew,10.0.4-10.0.4~ubuntu22.04.1*%
%TF.CreationDate,2026-07-21T15:20:52+01:00*%
%TF.ProjectId,vm_i2c_environment_sensor_bme690,766d5f69-3263-45f6-956e-7669726f6e6d,0.1*%
%TF.SameCoordinates,PX4c88490PY4524320*%
%TF.FileFunction,AssemblyDrawing,Top*%
%FSLAX45Y45*%
G04 Gerber Fmt 4.5, Leading zero omitted, Abs format (unit mm)*
G04 Created by KiCad (PCBNEW 10.0.4-10.0.4~ubuntu22.04.1) date 2026-07-21 15:20:52*
%MOMM*%
%LPD*%
G01*
G04 APERTURE LIST*
%ADD10C,0.100000*%
G04 APERTURE END LIST*
%TO.C,C1*%
D10*
X150000Y275000D02*
X250000Y275000D01*
X150000Y225000D02*
X150000Y275000D01*
X250000Y275000D02*
X250000Y225000D01*
X250000Y225000D02*
X150000Y225000D01*
%TO.C,GS4*%
X-400000Y-50000D02*
X-300000Y-50000D01*
X-350000Y0D02*
X-350000Y-100000D01*
X-300000Y-50000D02*
G75*
G02*
X-400000Y-50000I-50000J0D01*
G01*
X-400000Y-50000D02*
G75*
G02*
X-300000Y-50000I50000J0D01*
G01*
%TO.C,C2*%
X-50000Y275000D02*
X50000Y275000D01*
X-50000Y225000D02*
X-50000Y275000D01*
X50000Y275000D02*
X50000Y225000D01*
X50000Y225000D02*
X-50000Y225000D01*
%TO.C,GS2*%
X50000Y350000D02*
X150000Y350000D01*
X100000Y400000D02*
X100000Y300000D01*
X150000Y350000D02*
G75*
G02*
X50000Y350000I-50000J0D01*
G01*
X50000Y350000D02*
G75*
G02*
X150000Y350000I50000J0D01*
G01*
%TO.C,GS1*%
X-300000Y350000D02*
X-200000Y350000D01*
X-250000Y400000D02*
X-250000Y300000D01*
X-200000Y350000D02*
G75*
G02*
X-300000Y350000I-50000J0D01*
G01*
X-300000Y350000D02*
G75*
G02*
X-200000Y350000I50000J0D01*
G01*
%TO.C,FB1*%
X-250000Y275000D02*
X-150000Y275000D01*
X-150000Y225000D01*
X-250000Y225000D01*
X-250000Y275000D01*
%TO.C,IC1*%
X-80000Y70000D02*
X-80000Y-230000D01*
X-80000Y-230000D02*
X220000Y-230000D01*
X220000Y70000D02*
X-80000Y70000D01*
X220000Y-230000D02*
X220000Y70000D01*
%TO.C,GS3*%
X-400000Y-200000D02*
X-300000Y-200000D01*
X-350000Y-150000D02*
X-350000Y-250000D01*
X-300000Y-200000D02*
G75*
G02*
X-400000Y-200000I-50000J0D01*
G01*
X-400000Y-200000D02*
G75*
G02*
X-300000Y-200000I50000J0D01*
G01*
%TD*%
X329500Y179500D02*
X-189500Y-339500D01*
X329500Y-339500D02*
X-189500Y179500D01*
M02*
