G04 EAGLE Gerber X2 export*
%TF.Part,Single*%
%TF.FileFunction,Profile,NP*%
%TF.FilePolarity,Positive*%
%TF.GenerationSoftware,Autodesk,EAGLE,9.6.2*%
%TF.CreationDate,2022-06-05T05:17:34Z*%
G75*
%MOMM*%
%FSLAX34Y34*%
%LPD*%
%IN*%
%AMOC8*
5,1,8,0,0,1.08239X$1,22.5*%
G01*
%ADD10C,0.254000*%


D10*
X0Y100300D02*
X30Y99603D01*
X122Y98911D01*
X273Y98229D01*
X482Y97564D01*
X750Y96919D01*
X1072Y96300D01*
X1447Y95711D01*
X1872Y95158D01*
X2343Y94643D01*
X2858Y94172D01*
X3411Y93747D01*
X4000Y93372D01*
X4619Y93050D01*
X5264Y92782D01*
X5929Y92573D01*
X6611Y92422D01*
X7303Y92330D01*
X8000Y92300D01*
X50000Y92300D01*
X50863Y92271D01*
X51721Y92167D01*
X52566Y91989D01*
X53392Y91737D01*
X54193Y91415D01*
X54963Y91024D01*
X55697Y90567D01*
X56387Y90048D01*
X57030Y89471D01*
X57620Y88840D01*
X58152Y88160D01*
X58624Y87437D01*
X59030Y86675D01*
X59369Y85880D01*
X59637Y85059D01*
X59832Y84218D01*
X59954Y83362D01*
X60000Y82500D01*
X60000Y75000D01*
X59962Y74128D01*
X59848Y73264D01*
X59659Y72412D01*
X59397Y71580D01*
X59063Y70774D01*
X58660Y70000D01*
X58192Y69264D01*
X57660Y68572D01*
X57071Y67929D01*
X56428Y67340D01*
X55736Y66808D01*
X55000Y66340D01*
X54226Y65937D01*
X53420Y65603D01*
X52588Y65341D01*
X51736Y65152D01*
X50872Y65038D01*
X50000Y65000D01*
X25000Y65000D01*
X24128Y64962D01*
X23264Y64848D01*
X22412Y64659D01*
X21580Y64397D01*
X20774Y64063D01*
X20000Y63660D01*
X19264Y63192D01*
X18572Y62660D01*
X17929Y62071D01*
X17340Y61428D01*
X16808Y60736D01*
X16340Y60000D01*
X15937Y59226D01*
X15603Y58420D01*
X15341Y57588D01*
X15152Y56736D01*
X15038Y55872D01*
X15000Y55000D01*
X15000Y25000D01*
X15095Y22821D01*
X15380Y20659D01*
X15852Y18530D01*
X16508Y16450D01*
X17342Y14435D01*
X18349Y12500D01*
X19521Y10661D01*
X20849Y8930D01*
X22322Y7322D01*
X23930Y5849D01*
X25661Y4521D01*
X27500Y3349D01*
X29435Y2342D01*
X31450Y1508D01*
X33530Y852D01*
X35659Y380D01*
X37821Y95D01*
X40000Y0D01*
X240000Y0D01*
X242179Y95D01*
X244341Y380D01*
X246470Y852D01*
X248551Y1508D01*
X250565Y2342D01*
X252500Y3349D01*
X254339Y4521D01*
X256070Y5849D01*
X257678Y7322D01*
X259151Y8930D01*
X260479Y10661D01*
X261651Y12500D01*
X262658Y14435D01*
X263492Y16450D01*
X264148Y18530D01*
X264620Y20659D01*
X264905Y22821D01*
X265000Y25000D01*
X265000Y55000D01*
X264962Y55872D01*
X264848Y56736D01*
X264659Y57588D01*
X264397Y58420D01*
X264063Y59226D01*
X263660Y60000D01*
X263192Y60736D01*
X262660Y61428D01*
X262071Y62071D01*
X261428Y62660D01*
X260736Y63192D01*
X260000Y63660D01*
X259226Y64063D01*
X258420Y64397D01*
X257588Y64659D01*
X256736Y64848D01*
X255872Y64962D01*
X255000Y65000D01*
X230000Y65000D01*
X229128Y65038D01*
X228264Y65152D01*
X227412Y65341D01*
X226580Y65603D01*
X225774Y65937D01*
X225000Y66340D01*
X224264Y66808D01*
X223572Y67340D01*
X222929Y67929D01*
X222340Y68572D01*
X221808Y69264D01*
X221340Y70000D01*
X220937Y70774D01*
X220603Y71580D01*
X220341Y72412D01*
X220152Y73264D01*
X220038Y74128D01*
X220000Y75000D01*
X220000Y82500D01*
X220046Y83362D01*
X220168Y84218D01*
X220363Y85059D01*
X220631Y85880D01*
X220970Y86675D01*
X221376Y87437D01*
X221848Y88160D01*
X222380Y88840D01*
X222970Y89471D01*
X223613Y90048D01*
X224304Y90567D01*
X225037Y91024D01*
X225807Y91415D01*
X226608Y91737D01*
X227434Y91989D01*
X228279Y92167D01*
X229137Y92271D01*
X230000Y92300D01*
X272000Y92300D01*
X272697Y92330D01*
X273389Y92422D01*
X274071Y92573D01*
X274736Y92782D01*
X275381Y93050D01*
X276000Y93372D01*
X276589Y93747D01*
X277142Y94172D01*
X277657Y94643D01*
X278128Y95158D01*
X278553Y95711D01*
X278928Y96300D01*
X279250Y96919D01*
X279518Y97564D01*
X279727Y98229D01*
X279878Y98911D01*
X279970Y99603D01*
X280000Y100300D01*
X280000Y149700D01*
X279970Y150397D01*
X279878Y151089D01*
X279727Y151771D01*
X279518Y152436D01*
X279250Y153081D01*
X278928Y153700D01*
X278553Y154289D01*
X278128Y154842D01*
X277657Y155357D01*
X277142Y155828D01*
X276589Y156253D01*
X276000Y156628D01*
X275381Y156950D01*
X274736Y157218D01*
X274071Y157427D01*
X273389Y157578D01*
X272697Y157670D01*
X272000Y157700D01*
X230000Y157700D01*
X229137Y157729D01*
X228279Y157833D01*
X227434Y158011D01*
X226608Y158263D01*
X225807Y158585D01*
X225037Y158976D01*
X224304Y159433D01*
X223613Y159952D01*
X222970Y160529D01*
X222380Y161160D01*
X221848Y161840D01*
X221376Y162563D01*
X220970Y163325D01*
X220631Y164120D01*
X220363Y164941D01*
X220168Y165782D01*
X220046Y166638D01*
X220000Y167500D01*
X220000Y175000D01*
X220038Y175872D01*
X220152Y176736D01*
X220341Y177588D01*
X220603Y178420D01*
X220937Y179226D01*
X221340Y180000D01*
X221808Y180736D01*
X222340Y181428D01*
X222929Y182071D01*
X223572Y182660D01*
X224264Y183192D01*
X225000Y183660D01*
X225774Y184063D01*
X226580Y184397D01*
X227412Y184659D01*
X228264Y184848D01*
X229128Y184962D01*
X230000Y185000D01*
X255000Y185000D01*
X255872Y185038D01*
X256736Y185152D01*
X257588Y185341D01*
X258420Y185603D01*
X259226Y185937D01*
X260000Y186340D01*
X260736Y186808D01*
X261428Y187340D01*
X262071Y187929D01*
X262660Y188572D01*
X263192Y189264D01*
X263660Y190000D01*
X264063Y190774D01*
X264397Y191580D01*
X264659Y192412D01*
X264848Y193264D01*
X264962Y194128D01*
X265000Y195000D01*
X265000Y225000D01*
X264905Y227179D01*
X264620Y229341D01*
X264148Y231470D01*
X263492Y233551D01*
X262658Y235565D01*
X261651Y237500D01*
X260479Y239339D01*
X259151Y241070D01*
X257678Y242678D01*
X256070Y244151D01*
X254339Y245479D01*
X252500Y246651D01*
X250565Y247658D01*
X248551Y248492D01*
X246470Y249148D01*
X244341Y249620D01*
X242179Y249905D01*
X240000Y250000D01*
X90000Y250000D01*
X89564Y249981D01*
X89132Y249924D01*
X88706Y249830D01*
X88290Y249698D01*
X87887Y249532D01*
X87500Y249330D01*
X87132Y249096D01*
X86786Y248830D01*
X86464Y248536D01*
X86170Y248214D01*
X85904Y247868D01*
X85670Y247500D01*
X85468Y247113D01*
X85302Y246710D01*
X85170Y246294D01*
X85076Y245868D01*
X85019Y245436D01*
X85000Y245000D01*
X84962Y244128D01*
X84848Y243264D01*
X84659Y242412D01*
X84397Y241580D01*
X84063Y240774D01*
X83660Y240000D01*
X83192Y239264D01*
X82660Y238572D01*
X82071Y237929D01*
X81428Y237340D01*
X80736Y236808D01*
X80000Y236340D01*
X79226Y235937D01*
X78420Y235603D01*
X77588Y235341D01*
X76736Y235152D01*
X75872Y235038D01*
X75000Y235000D01*
X74128Y235038D01*
X73264Y235152D01*
X72412Y235341D01*
X71580Y235603D01*
X70774Y235937D01*
X70000Y236340D01*
X69264Y236808D01*
X68572Y237340D01*
X67929Y237929D01*
X67340Y238572D01*
X66808Y239264D01*
X66340Y240000D01*
X65937Y240774D01*
X65603Y241580D01*
X65341Y242412D01*
X65152Y243264D01*
X65038Y244128D01*
X65000Y245000D01*
X64981Y245436D01*
X64924Y245868D01*
X64830Y246294D01*
X64698Y246710D01*
X64532Y247113D01*
X64330Y247500D01*
X64096Y247868D01*
X63830Y248214D01*
X63536Y248536D01*
X63214Y248830D01*
X62868Y249096D01*
X62500Y249330D01*
X62113Y249532D01*
X61710Y249698D01*
X61294Y249830D01*
X60868Y249924D01*
X60436Y249981D01*
X60000Y250000D01*
X40000Y250000D01*
X37821Y249905D01*
X35659Y249620D01*
X33530Y249148D01*
X31450Y248492D01*
X29435Y247658D01*
X27500Y246651D01*
X25661Y245479D01*
X23930Y244151D01*
X22322Y242678D01*
X20849Y241070D01*
X19521Y239339D01*
X18349Y237500D01*
X17342Y235565D01*
X16508Y233551D01*
X15852Y231470D01*
X15380Y229341D01*
X15095Y227179D01*
X15000Y225000D01*
X15000Y195000D01*
X15038Y194128D01*
X15152Y193264D01*
X15341Y192412D01*
X15603Y191580D01*
X15937Y190774D01*
X16340Y190000D01*
X16808Y189264D01*
X17340Y188572D01*
X17929Y187929D01*
X18572Y187340D01*
X19264Y186808D01*
X20000Y186340D01*
X20774Y185937D01*
X21580Y185603D01*
X22412Y185341D01*
X23264Y185152D01*
X24128Y185038D01*
X25000Y185000D01*
X50000Y185000D01*
X50872Y184962D01*
X51736Y184848D01*
X52588Y184659D01*
X53420Y184397D01*
X54226Y184063D01*
X55000Y183660D01*
X55736Y183192D01*
X56428Y182660D01*
X57071Y182071D01*
X57660Y181428D01*
X58192Y180736D01*
X58660Y180000D01*
X59063Y179226D01*
X59397Y178420D01*
X59659Y177588D01*
X59848Y176736D01*
X59962Y175872D01*
X60000Y175000D01*
X60000Y167500D01*
X59954Y166638D01*
X59832Y165782D01*
X59637Y164941D01*
X59369Y164120D01*
X59030Y163325D01*
X58624Y162563D01*
X58152Y161840D01*
X57620Y161160D01*
X57030Y160529D01*
X56387Y159952D01*
X55697Y159433D01*
X54963Y158976D01*
X54193Y158585D01*
X53392Y158263D01*
X52566Y158011D01*
X51721Y157833D01*
X50863Y157729D01*
X50000Y157700D01*
X8000Y157700D01*
X7303Y157670D01*
X6611Y157578D01*
X5929Y157427D01*
X5264Y157218D01*
X4619Y156950D01*
X4000Y156628D01*
X3411Y156253D01*
X2858Y155828D01*
X2343Y155357D01*
X1872Y154842D01*
X1447Y154289D01*
X1072Y153700D01*
X750Y153081D01*
X482Y152436D01*
X273Y151771D01*
X122Y151089D01*
X30Y150397D01*
X0Y149700D01*
X0Y100300D01*
X239500Y100000D02*
X239513Y99695D01*
X239553Y99392D01*
X239619Y99094D01*
X239711Y98803D01*
X239828Y98521D01*
X239969Y98250D01*
X240133Y97992D01*
X240319Y97750D01*
X240525Y97525D01*
X240750Y97319D01*
X240992Y97133D01*
X241250Y96969D01*
X241521Y96828D01*
X241803Y96711D01*
X242094Y96619D01*
X242392Y96553D01*
X242695Y96513D01*
X243000Y96500D01*
X250000Y96500D01*
X250305Y96513D01*
X250608Y96553D01*
X250906Y96619D01*
X251197Y96711D01*
X251479Y96828D01*
X251750Y96969D01*
X252008Y97133D01*
X252250Y97319D01*
X252475Y97525D01*
X252681Y97750D01*
X252867Y97992D01*
X253031Y98250D01*
X253172Y98521D01*
X253289Y98803D01*
X253381Y99094D01*
X253447Y99392D01*
X253487Y99695D01*
X253500Y100000D01*
X253487Y100305D01*
X253447Y100608D01*
X253381Y100906D01*
X253289Y101197D01*
X253172Y101479D01*
X253031Y101750D01*
X252867Y102008D01*
X252681Y102250D01*
X252475Y102475D01*
X252250Y102681D01*
X252008Y102867D01*
X251750Y103031D01*
X251479Y103172D01*
X251197Y103289D01*
X250906Y103381D01*
X250608Y103447D01*
X250305Y103487D01*
X250000Y103500D01*
X243000Y103500D01*
X242695Y103487D01*
X242392Y103447D01*
X242094Y103381D01*
X241803Y103289D01*
X241521Y103172D01*
X241250Y103031D01*
X240992Y102867D01*
X240750Y102681D01*
X240525Y102475D01*
X240319Y102250D01*
X240133Y102008D01*
X239969Y101750D01*
X239828Y101479D01*
X239711Y101197D01*
X239619Y100906D01*
X239553Y100608D01*
X239513Y100305D01*
X239500Y100000D01*
X239500Y150000D02*
X239513Y149695D01*
X239553Y149392D01*
X239619Y149094D01*
X239711Y148803D01*
X239828Y148521D01*
X239969Y148250D01*
X240133Y147992D01*
X240319Y147750D01*
X240525Y147525D01*
X240750Y147319D01*
X240992Y147133D01*
X241250Y146969D01*
X241521Y146828D01*
X241803Y146711D01*
X242094Y146619D01*
X242392Y146553D01*
X242695Y146513D01*
X243000Y146500D01*
X250000Y146500D01*
X250305Y146513D01*
X250608Y146553D01*
X250906Y146619D01*
X251197Y146711D01*
X251479Y146828D01*
X251750Y146969D01*
X252008Y147133D01*
X252250Y147319D01*
X252475Y147525D01*
X252681Y147750D01*
X252867Y147992D01*
X253031Y148250D01*
X253172Y148521D01*
X253289Y148803D01*
X253381Y149094D01*
X253447Y149392D01*
X253487Y149695D01*
X253500Y150000D01*
X253487Y150305D01*
X253447Y150608D01*
X253381Y150906D01*
X253289Y151197D01*
X253172Y151479D01*
X253031Y151750D01*
X252867Y152008D01*
X252681Y152250D01*
X252475Y152475D01*
X252250Y152681D01*
X252008Y152867D01*
X251750Y153031D01*
X251479Y153172D01*
X251197Y153289D01*
X250906Y153381D01*
X250608Y153447D01*
X250305Y153487D01*
X250000Y153500D01*
X243000Y153500D01*
X242695Y153487D01*
X242392Y153447D01*
X242094Y153381D01*
X241803Y153289D01*
X241521Y153172D01*
X241250Y153031D01*
X240992Y152867D01*
X240750Y152681D01*
X240525Y152475D01*
X240319Y152250D01*
X240133Y152008D01*
X239969Y151750D01*
X239828Y151479D01*
X239711Y151197D01*
X239619Y150906D01*
X239553Y150608D01*
X239513Y150305D01*
X239500Y150000D01*
X26500Y150000D02*
X26513Y149695D01*
X26553Y149392D01*
X26619Y149094D01*
X26711Y148803D01*
X26828Y148521D01*
X26969Y148250D01*
X27133Y147992D01*
X27319Y147750D01*
X27525Y147525D01*
X27750Y147319D01*
X27992Y147133D01*
X28250Y146969D01*
X28521Y146828D01*
X28803Y146711D01*
X29094Y146619D01*
X29392Y146553D01*
X29695Y146513D01*
X30000Y146500D01*
X37000Y146500D01*
X37305Y146513D01*
X37608Y146553D01*
X37906Y146619D01*
X38197Y146711D01*
X38479Y146828D01*
X38750Y146969D01*
X39008Y147133D01*
X39250Y147319D01*
X39475Y147525D01*
X39681Y147750D01*
X39867Y147992D01*
X40031Y148250D01*
X40172Y148521D01*
X40289Y148803D01*
X40381Y149094D01*
X40447Y149392D01*
X40487Y149695D01*
X40500Y150000D01*
X40487Y150305D01*
X40447Y150608D01*
X40381Y150906D01*
X40289Y151197D01*
X40172Y151479D01*
X40031Y151750D01*
X39867Y152008D01*
X39681Y152250D01*
X39475Y152475D01*
X39250Y152681D01*
X39008Y152867D01*
X38750Y153031D01*
X38479Y153172D01*
X38197Y153289D01*
X37906Y153381D01*
X37608Y153447D01*
X37305Y153487D01*
X37000Y153500D01*
X30000Y153500D01*
X29695Y153487D01*
X29392Y153447D01*
X29094Y153381D01*
X28803Y153289D01*
X28521Y153172D01*
X28250Y153031D01*
X27992Y152867D01*
X27750Y152681D01*
X27525Y152475D01*
X27319Y152250D01*
X27133Y152008D01*
X26969Y151750D01*
X26828Y151479D01*
X26711Y151197D01*
X26619Y150906D01*
X26553Y150608D01*
X26513Y150305D01*
X26500Y150000D01*
X26500Y100000D02*
X26513Y99695D01*
X26553Y99392D01*
X26619Y99094D01*
X26711Y98803D01*
X26828Y98521D01*
X26969Y98250D01*
X27133Y97992D01*
X27319Y97750D01*
X27525Y97525D01*
X27750Y97319D01*
X27992Y97133D01*
X28250Y96969D01*
X28521Y96828D01*
X28803Y96711D01*
X29094Y96619D01*
X29392Y96553D01*
X29695Y96513D01*
X30000Y96500D01*
X37000Y96500D01*
X37305Y96513D01*
X37608Y96553D01*
X37906Y96619D01*
X38197Y96711D01*
X38479Y96828D01*
X38750Y96969D01*
X39008Y97133D01*
X39250Y97319D01*
X39475Y97525D01*
X39681Y97750D01*
X39867Y97992D01*
X40031Y98250D01*
X40172Y98521D01*
X40289Y98803D01*
X40381Y99094D01*
X40447Y99392D01*
X40487Y99695D01*
X40500Y100000D01*
X40487Y100305D01*
X40447Y100608D01*
X40381Y100906D01*
X40289Y101197D01*
X40172Y101479D01*
X40031Y101750D01*
X39867Y102008D01*
X39681Y102250D01*
X39475Y102475D01*
X39250Y102681D01*
X39008Y102867D01*
X38750Y103031D01*
X38479Y103172D01*
X38197Y103289D01*
X37906Y103381D01*
X37608Y103447D01*
X37305Y103487D01*
X37000Y103500D01*
X30000Y103500D01*
X29695Y103487D01*
X29392Y103447D01*
X29094Y103381D01*
X28803Y103289D01*
X28521Y103172D01*
X28250Y103031D01*
X27992Y102867D01*
X27750Y102681D01*
X27525Y102475D01*
X27319Y102250D01*
X27133Y102008D01*
X26969Y101750D01*
X26828Y101479D01*
X26711Y101197D01*
X26619Y100906D01*
X26553Y100608D01*
X26513Y100305D01*
X26500Y100000D01*
M02*
