G04 EAGLE Gerber X2 export*
%TF.Part,Single*%
%TF.FileFunction,Legend,Bot,1*%
%TF.FilePolarity,Positive*%
%TF.GenerationSoftware,Autodesk,EAGLE,9.6.2*%
%TF.CreationDate,2022-06-05T05:17:34Z*%
G75*
%MOMM*%
%FSLAX34Y34*%
%LPD*%
%INSilkscreen Bottom*%
%AMOC8*
5,1,8,0,0,1.08239X$1,22.5*%
G01*
%ADD10C,0.203200*%
%ADD11R,6.900000X0.300000*%
%ADD12R,0.300000X0.300000*%
%ADD13R,3.000000X0.300000*%
%ADD14R,0.600000X0.300000*%
%ADD15R,1.500000X0.300000*%
%ADD16R,0.900000X0.300000*%
%ADD17R,1.800000X0.300000*%
%ADD18R,2.700000X0.300000*%
%ADD19R,1.200000X0.300000*%
%ADD20C,0.200000*%

G36*
X70058Y28768D02*
X70058Y28768D01*
X70116Y28780D01*
X70128Y28788D01*
X70134Y28790D01*
X70141Y28798D01*
X70176Y28824D01*
X73176Y31824D01*
X73199Y31866D01*
X73217Y31886D01*
X73219Y31897D01*
X73238Y31927D01*
X73240Y31941D01*
X73243Y31946D01*
X73243Y31957D01*
X73249Y32000D01*
X73249Y36000D01*
X73247Y36009D01*
X73247Y36010D01*
X73247Y36012D01*
X73246Y36014D01*
X73242Y36060D01*
X72242Y40060D01*
X72241Y40061D01*
X72214Y40128D01*
X69214Y45128D01*
X69201Y45140D01*
X69195Y45155D01*
X69151Y45186D01*
X69111Y45223D01*
X69094Y45226D01*
X69081Y45236D01*
X69027Y45238D01*
X68974Y45248D01*
X68958Y45241D01*
X68941Y45242D01*
X68894Y45215D01*
X68844Y45195D01*
X68835Y45181D01*
X68820Y45172D01*
X68777Y45111D01*
X66795Y41148D01*
X64877Y39230D01*
X59951Y38244D01*
X59899Y38217D01*
X59844Y38195D01*
X59838Y38185D01*
X59827Y38180D01*
X59798Y38128D01*
X59764Y38080D01*
X59764Y38069D01*
X59758Y38058D01*
X59761Y37999D01*
X59758Y37941D01*
X59764Y37926D01*
X59764Y37919D01*
X59771Y37910D01*
X59786Y37872D01*
X62781Y32880D01*
X63777Y30889D01*
X63796Y30868D01*
X63807Y30843D01*
X63862Y30793D01*
X66862Y28793D01*
X66896Y28782D01*
X66927Y28762D01*
X66991Y28752D01*
X66995Y28751D01*
X66997Y28751D01*
X67000Y28751D01*
X70000Y28751D01*
X70058Y28768D01*
G37*
G36*
X51009Y191753D02*
X51009Y191753D01*
X51060Y191758D01*
X55060Y192758D01*
X55061Y192759D01*
X55128Y192786D01*
X60128Y195786D01*
X60140Y195799D01*
X60155Y195805D01*
X60186Y195849D01*
X60223Y195889D01*
X60226Y195906D01*
X60236Y195919D01*
X60238Y195973D01*
X60248Y196027D01*
X60241Y196042D01*
X60242Y196059D01*
X60215Y196106D01*
X60195Y196156D01*
X60181Y196165D01*
X60172Y196180D01*
X60111Y196223D01*
X56148Y198205D01*
X54230Y200123D01*
X53244Y205049D01*
X53217Y205101D01*
X53195Y205156D01*
X53185Y205162D01*
X53180Y205173D01*
X53128Y205202D01*
X53080Y205236D01*
X53069Y205237D01*
X53058Y205242D01*
X52999Y205240D01*
X52941Y205242D01*
X52926Y205236D01*
X52919Y205236D01*
X52910Y205230D01*
X52872Y205214D01*
X47880Y202219D01*
X45889Y201223D01*
X45868Y201204D01*
X45843Y201193D01*
X45793Y201138D01*
X43793Y198138D01*
X43782Y198104D01*
X43762Y198074D01*
X43752Y198009D01*
X43751Y198005D01*
X43751Y198003D01*
X43751Y198000D01*
X43751Y195000D01*
X43762Y194960D01*
X43762Y194958D01*
X43765Y194950D01*
X43768Y194942D01*
X43780Y194884D01*
X43788Y194872D01*
X43790Y194866D01*
X43798Y194859D01*
X43818Y194831D01*
X43819Y194830D01*
X43820Y194829D01*
X43824Y194824D01*
X46824Y191824D01*
X46876Y191795D01*
X46927Y191762D01*
X46941Y191760D01*
X46946Y191757D01*
X46957Y191757D01*
X47000Y191751D01*
X51000Y191751D01*
X51009Y191753D01*
G37*
G36*
X227001Y44761D02*
X227001Y44761D01*
X227060Y44758D01*
X227074Y44764D01*
X227081Y44764D01*
X227090Y44771D01*
X227128Y44786D01*
X232120Y47781D01*
X234111Y48777D01*
X234132Y48796D01*
X234157Y48807D01*
X234207Y48862D01*
X236207Y51862D01*
X236211Y51873D01*
X236212Y51874D01*
X236213Y51880D01*
X236218Y51896D01*
X236238Y51927D01*
X236248Y51991D01*
X236249Y51995D01*
X236249Y51997D01*
X236249Y52000D01*
X236249Y55000D01*
X236232Y55058D01*
X236220Y55116D01*
X236212Y55128D01*
X236210Y55134D01*
X236202Y55141D01*
X236176Y55176D01*
X233176Y58176D01*
X233124Y58205D01*
X233074Y58238D01*
X233059Y58240D01*
X233054Y58243D01*
X233043Y58243D01*
X233000Y58249D01*
X229000Y58249D01*
X228992Y58247D01*
X228940Y58242D01*
X224940Y57242D01*
X224939Y57241D01*
X224872Y57214D01*
X219872Y54214D01*
X219860Y54201D01*
X219845Y54195D01*
X219814Y54151D01*
X219777Y54111D01*
X219774Y54094D01*
X219764Y54081D01*
X219762Y54027D01*
X219752Y53974D01*
X219759Y53958D01*
X219758Y53941D01*
X219785Y53894D01*
X219805Y53844D01*
X219819Y53835D01*
X219828Y53820D01*
X219889Y53777D01*
X223852Y51795D01*
X225770Y49877D01*
X226756Y44951D01*
X226783Y44899D01*
X226805Y44844D01*
X226815Y44838D01*
X226820Y44827D01*
X226872Y44798D01*
X226920Y44764D01*
X226931Y44764D01*
X226942Y44758D01*
X227001Y44761D01*
G37*
G36*
X211042Y204759D02*
X211042Y204759D01*
X211059Y204758D01*
X211106Y204785D01*
X211156Y204805D01*
X211165Y204819D01*
X211180Y204828D01*
X211223Y204889D01*
X213205Y208852D01*
X215123Y210770D01*
X220049Y211756D01*
X220101Y211783D01*
X220156Y211805D01*
X220162Y211815D01*
X220173Y211820D01*
X220202Y211872D01*
X220236Y211920D01*
X220237Y211931D01*
X220242Y211942D01*
X220240Y212001D01*
X220242Y212060D01*
X220236Y212074D01*
X220236Y212081D01*
X220230Y212090D01*
X220214Y212128D01*
X217219Y217120D01*
X216223Y219111D01*
X216204Y219132D01*
X216193Y219157D01*
X216138Y219207D01*
X213138Y221207D01*
X213104Y221218D01*
X213074Y221238D01*
X213009Y221248D01*
X213005Y221249D01*
X213003Y221249D01*
X213000Y221249D01*
X210000Y221249D01*
X209942Y221232D01*
X209884Y221220D01*
X209872Y221212D01*
X209866Y221210D01*
X209859Y221202D01*
X209824Y221176D01*
X206824Y218176D01*
X206795Y218124D01*
X206762Y218074D01*
X206760Y218059D01*
X206757Y218054D01*
X206757Y218043D01*
X206751Y218000D01*
X206751Y214000D01*
X206753Y213992D01*
X206758Y213940D01*
X207758Y209940D01*
X207759Y209939D01*
X207786Y209872D01*
X210786Y204872D01*
X210799Y204860D01*
X210805Y204845D01*
X210849Y204814D01*
X210889Y204777D01*
X210906Y204774D01*
X210919Y204764D01*
X210973Y204762D01*
X211027Y204752D01*
X211042Y204759D01*
G37*
G36*
X233058Y191768D02*
X233058Y191768D01*
X233116Y191780D01*
X233128Y191788D01*
X233134Y191790D01*
X233141Y191798D01*
X233176Y191824D01*
X236176Y194824D01*
X236199Y194866D01*
X236217Y194886D01*
X236219Y194897D01*
X236238Y194927D01*
X236240Y194941D01*
X236243Y194946D01*
X236243Y194957D01*
X236249Y195000D01*
X236249Y199000D01*
X236247Y199009D01*
X236247Y199012D01*
X236243Y199021D01*
X236232Y199058D01*
X236220Y199116D01*
X236212Y199128D01*
X236210Y199134D01*
X236202Y199141D01*
X236176Y199176D01*
X233176Y202176D01*
X233158Y202186D01*
X233145Y202203D01*
X233079Y202236D01*
X230110Y203226D01*
X227138Y205207D01*
X227077Y205227D01*
X227016Y205249D01*
X227010Y205248D01*
X227005Y205249D01*
X226943Y205232D01*
X226879Y205218D01*
X226875Y205214D01*
X226870Y205213D01*
X226827Y205165D01*
X226781Y205119D01*
X226778Y205112D01*
X226776Y205109D01*
X226775Y205102D01*
X226756Y205049D01*
X225770Y200123D01*
X223841Y198194D01*
X220862Y196207D01*
X220820Y196157D01*
X220776Y196109D01*
X220775Y196104D01*
X220772Y196100D01*
X220763Y196036D01*
X220752Y195971D01*
X220754Y195967D01*
X220754Y195962D01*
X220781Y195903D01*
X220807Y195843D01*
X220812Y195838D01*
X220813Y195835D01*
X220819Y195831D01*
X220862Y195793D01*
X223862Y193793D01*
X223870Y193790D01*
X223889Y193777D01*
X227889Y191777D01*
X227909Y191773D01*
X227927Y191762D01*
X228000Y191751D01*
X233000Y191751D01*
X233058Y191768D01*
G37*
G36*
X214058Y28768D02*
X214058Y28768D01*
X214116Y28780D01*
X214128Y28788D01*
X214134Y28790D01*
X214141Y28798D01*
X214176Y28824D01*
X217176Y31824D01*
X217186Y31842D01*
X217203Y31855D01*
X217236Y31921D01*
X218226Y34890D01*
X220207Y37862D01*
X220227Y37923D01*
X220249Y37984D01*
X220248Y37990D01*
X220249Y37995D01*
X220232Y38057D01*
X220218Y38121D01*
X220214Y38125D01*
X220213Y38130D01*
X220165Y38173D01*
X220119Y38219D01*
X220112Y38222D01*
X220109Y38224D01*
X220102Y38225D01*
X220049Y38244D01*
X215123Y39230D01*
X213194Y41159D01*
X211207Y44138D01*
X211157Y44180D01*
X211109Y44224D01*
X211104Y44225D01*
X211100Y44228D01*
X211036Y44237D01*
X210971Y44248D01*
X210967Y44246D01*
X210962Y44246D01*
X210903Y44219D01*
X210843Y44193D01*
X210838Y44188D01*
X210835Y44187D01*
X210831Y44181D01*
X210793Y44138D01*
X208793Y41138D01*
X208790Y41130D01*
X208777Y41111D01*
X206777Y37111D01*
X206773Y37091D01*
X206762Y37074D01*
X206751Y37000D01*
X206751Y32000D01*
X206762Y31960D01*
X206762Y31958D01*
X206765Y31950D01*
X206768Y31942D01*
X206780Y31884D01*
X206788Y31872D01*
X206790Y31866D01*
X206798Y31859D01*
X206818Y31831D01*
X206819Y31830D01*
X206820Y31829D01*
X206824Y31824D01*
X209824Y28824D01*
X209876Y28795D01*
X209927Y28762D01*
X209941Y28760D01*
X209946Y28757D01*
X209957Y28757D01*
X210000Y28751D01*
X214000Y28751D01*
X214058Y28768D01*
G37*
G36*
X53057Y44768D02*
X53057Y44768D01*
X53121Y44782D01*
X53125Y44786D01*
X53130Y44787D01*
X53173Y44835D01*
X53219Y44881D01*
X53222Y44888D01*
X53224Y44891D01*
X53225Y44899D01*
X53244Y44951D01*
X54230Y49877D01*
X56159Y51806D01*
X59138Y53793D01*
X59180Y53843D01*
X59224Y53891D01*
X59225Y53896D01*
X59228Y53900D01*
X59237Y53964D01*
X59248Y54029D01*
X59246Y54033D01*
X59246Y54038D01*
X59219Y54097D01*
X59193Y54157D01*
X59188Y54162D01*
X59187Y54165D01*
X59181Y54169D01*
X59138Y54207D01*
X56138Y56207D01*
X56130Y56210D01*
X56111Y56223D01*
X52111Y58223D01*
X52091Y58227D01*
X52074Y58238D01*
X52000Y58249D01*
X47000Y58249D01*
X46942Y58232D01*
X46884Y58220D01*
X46872Y58212D01*
X46866Y58210D01*
X46859Y58202D01*
X46824Y58176D01*
X43824Y55176D01*
X43795Y55124D01*
X43762Y55074D01*
X43760Y55059D01*
X43757Y55054D01*
X43757Y55043D01*
X43751Y55000D01*
X43751Y51000D01*
X43768Y50942D01*
X43780Y50884D01*
X43788Y50872D01*
X43790Y50866D01*
X43798Y50859D01*
X43824Y50824D01*
X46824Y47824D01*
X46842Y47814D01*
X46855Y47797D01*
X46921Y47764D01*
X49890Y46774D01*
X52862Y44793D01*
X52923Y44773D01*
X52984Y44751D01*
X52990Y44752D01*
X52995Y44751D01*
X53057Y44768D01*
G37*
G36*
X69033Y205754D02*
X69033Y205754D01*
X69038Y205754D01*
X69097Y205781D01*
X69157Y205807D01*
X69162Y205812D01*
X69165Y205813D01*
X69169Y205819D01*
X69207Y205862D01*
X71207Y208862D01*
X71210Y208870D01*
X71223Y208889D01*
X73223Y212889D01*
X73227Y212909D01*
X73238Y212927D01*
X73249Y213000D01*
X73249Y218000D01*
X73232Y218058D01*
X73220Y218116D01*
X73212Y218128D01*
X73210Y218134D01*
X73202Y218141D01*
X73176Y218176D01*
X70176Y221176D01*
X70124Y221205D01*
X70074Y221238D01*
X70059Y221240D01*
X70054Y221243D01*
X70043Y221243D01*
X70000Y221249D01*
X66000Y221249D01*
X65942Y221232D01*
X65884Y221220D01*
X65872Y221212D01*
X65866Y221210D01*
X65859Y221202D01*
X65824Y221176D01*
X62824Y218176D01*
X62814Y218158D01*
X62797Y218145D01*
X62764Y218079D01*
X61774Y215110D01*
X59793Y212138D01*
X59773Y212077D01*
X59751Y212016D01*
X59752Y212010D01*
X59751Y212005D01*
X59768Y211943D01*
X59782Y211879D01*
X59786Y211875D01*
X59787Y211870D01*
X59835Y211827D01*
X59881Y211781D01*
X59888Y211778D01*
X59891Y211776D01*
X59899Y211775D01*
X59951Y211756D01*
X64877Y210770D01*
X66806Y208841D01*
X68793Y205862D01*
X68843Y205820D01*
X68891Y205776D01*
X68896Y205775D01*
X68900Y205772D01*
X68964Y205763D01*
X69029Y205752D01*
X69033Y205754D01*
G37*
G36*
X64032Y40762D02*
X64032Y40762D01*
X64086Y40766D01*
X64100Y40776D01*
X64116Y40780D01*
X64176Y40824D01*
X66176Y42824D01*
X66185Y42839D01*
X66198Y42849D01*
X66209Y42876D01*
X66220Y42889D01*
X66223Y42909D01*
X66243Y42946D01*
X66242Y42963D01*
X66248Y42979D01*
X66240Y43021D01*
X66241Y43027D01*
X66237Y43036D01*
X66234Y43086D01*
X66224Y43100D01*
X66220Y43116D01*
X66176Y43176D01*
X63353Y46000D01*
X66176Y48824D01*
X66185Y48839D01*
X66198Y48849D01*
X66218Y48899D01*
X66243Y48946D01*
X66242Y48963D01*
X66248Y48979D01*
X66238Y49032D01*
X66234Y49086D01*
X66224Y49100D01*
X66220Y49116D01*
X66176Y49176D01*
X64176Y51176D01*
X64161Y51185D01*
X64151Y51198D01*
X64101Y51218D01*
X64054Y51243D01*
X64037Y51242D01*
X64021Y51248D01*
X63968Y51238D01*
X63914Y51234D01*
X63900Y51224D01*
X63884Y51220D01*
X63824Y51176D01*
X61000Y48353D01*
X58176Y51176D01*
X58161Y51185D01*
X58151Y51198D01*
X58101Y51218D01*
X58054Y51243D01*
X58037Y51242D01*
X58021Y51248D01*
X57968Y51238D01*
X57914Y51234D01*
X57900Y51224D01*
X57884Y51220D01*
X57824Y51176D01*
X55824Y49176D01*
X55815Y49161D01*
X55802Y49151D01*
X55782Y49101D01*
X55757Y49054D01*
X55758Y49037D01*
X55752Y49021D01*
X55762Y48968D01*
X55766Y48914D01*
X55776Y48900D01*
X55780Y48884D01*
X55824Y48824D01*
X58648Y46000D01*
X55824Y43176D01*
X55815Y43161D01*
X55802Y43151D01*
X55783Y43103D01*
X55780Y43099D01*
X55779Y43095D01*
X55757Y43054D01*
X55758Y43037D01*
X55752Y43021D01*
X55761Y42974D01*
X55759Y42961D01*
X55764Y42950D01*
X55766Y42914D01*
X55776Y42900D01*
X55780Y42884D01*
X55814Y42837D01*
X55816Y42833D01*
X55818Y42831D01*
X55824Y42824D01*
X57824Y40824D01*
X57839Y40815D01*
X57849Y40802D01*
X57899Y40782D01*
X57946Y40757D01*
X57963Y40758D01*
X57979Y40752D01*
X58032Y40762D01*
X58086Y40766D01*
X58100Y40776D01*
X58116Y40780D01*
X58176Y40824D01*
X61000Y43648D01*
X63824Y40824D01*
X63839Y40815D01*
X63849Y40802D01*
X63899Y40782D01*
X63946Y40757D01*
X63963Y40758D01*
X63979Y40752D01*
X64032Y40762D01*
G37*
G36*
X222032Y198762D02*
X222032Y198762D01*
X222086Y198766D01*
X222100Y198776D01*
X222116Y198780D01*
X222176Y198824D01*
X224176Y200824D01*
X224185Y200839D01*
X224198Y200849D01*
X224209Y200876D01*
X224220Y200889D01*
X224223Y200909D01*
X224243Y200946D01*
X224242Y200963D01*
X224248Y200979D01*
X224240Y201021D01*
X224241Y201027D01*
X224237Y201036D01*
X224234Y201086D01*
X224224Y201100D01*
X224220Y201116D01*
X224176Y201176D01*
X216176Y209176D01*
X216161Y209185D01*
X216151Y209198D01*
X216101Y209218D01*
X216054Y209243D01*
X216037Y209242D01*
X216021Y209248D01*
X215968Y209238D01*
X215914Y209234D01*
X215900Y209224D01*
X215884Y209220D01*
X215824Y209176D01*
X213824Y207176D01*
X213815Y207161D01*
X213802Y207151D01*
X213782Y207101D01*
X213757Y207054D01*
X213758Y207037D01*
X213752Y207021D01*
X213762Y206968D01*
X213766Y206914D01*
X213776Y206900D01*
X213780Y206884D01*
X213824Y206824D01*
X221824Y198824D01*
X221839Y198815D01*
X221849Y198802D01*
X221899Y198782D01*
X221946Y198757D01*
X221963Y198758D01*
X221979Y198752D01*
X222032Y198762D01*
G37*
G36*
X216032Y40762D02*
X216032Y40762D01*
X216086Y40766D01*
X216100Y40776D01*
X216116Y40780D01*
X216176Y40824D01*
X224176Y48824D01*
X224185Y48839D01*
X224198Y48849D01*
X224218Y48899D01*
X224243Y48946D01*
X224242Y48963D01*
X224248Y48979D01*
X224238Y49032D01*
X224234Y49086D01*
X224224Y49100D01*
X224220Y49116D01*
X224176Y49176D01*
X222176Y51176D01*
X222161Y51185D01*
X222151Y51198D01*
X222101Y51218D01*
X222054Y51243D01*
X222037Y51242D01*
X222021Y51248D01*
X221968Y51238D01*
X221914Y51234D01*
X221900Y51224D01*
X221884Y51220D01*
X221824Y51176D01*
X213824Y43176D01*
X213815Y43161D01*
X213802Y43151D01*
X213783Y43103D01*
X213780Y43099D01*
X213779Y43095D01*
X213757Y43054D01*
X213758Y43037D01*
X213752Y43021D01*
X213761Y42974D01*
X213759Y42961D01*
X213764Y42950D01*
X213766Y42914D01*
X213776Y42900D01*
X213780Y42884D01*
X213814Y42837D01*
X213816Y42833D01*
X213818Y42831D01*
X213824Y42824D01*
X215824Y40824D01*
X215839Y40815D01*
X215849Y40802D01*
X215899Y40782D01*
X215946Y40757D01*
X215963Y40758D01*
X215979Y40752D01*
X216032Y40762D01*
G37*
D10*
X184892Y203833D02*
X184892Y194547D01*
X184894Y194445D01*
X184900Y194344D01*
X184910Y194243D01*
X184923Y194142D01*
X184941Y194042D01*
X184962Y193943D01*
X184987Y193844D01*
X185016Y193747D01*
X185048Y193650D01*
X185084Y193555D01*
X185124Y193462D01*
X185167Y193370D01*
X185214Y193280D01*
X185265Y193191D01*
X185318Y193105D01*
X185375Y193021D01*
X185435Y192939D01*
X185498Y192859D01*
X185564Y192782D01*
X185633Y192707D01*
X185705Y192635D01*
X185780Y192566D01*
X185857Y192500D01*
X185937Y192437D01*
X186019Y192377D01*
X186103Y192320D01*
X186189Y192267D01*
X186278Y192216D01*
X186368Y192169D01*
X186460Y192126D01*
X186553Y192086D01*
X186648Y192050D01*
X186745Y192018D01*
X186842Y191989D01*
X186941Y191964D01*
X187040Y191943D01*
X187140Y191925D01*
X187241Y191912D01*
X187342Y191902D01*
X187443Y191896D01*
X187545Y191894D01*
X187545Y191895D02*
X188871Y191895D01*
X178010Y191895D02*
X178010Y203833D01*
X174031Y197200D01*
X170051Y203833D01*
X170051Y191895D01*
X163342Y196537D02*
X155383Y196537D01*
X148673Y191895D02*
X148673Y203833D01*
X144694Y197200D01*
X140715Y203833D01*
X140715Y191895D01*
X134355Y194547D02*
X134355Y197200D01*
X134353Y197302D01*
X134347Y197403D01*
X134337Y197504D01*
X134324Y197605D01*
X134306Y197705D01*
X134285Y197804D01*
X134260Y197903D01*
X134231Y198000D01*
X134199Y198097D01*
X134163Y198192D01*
X134123Y198285D01*
X134080Y198377D01*
X134033Y198467D01*
X133982Y198556D01*
X133929Y198642D01*
X133872Y198726D01*
X133812Y198808D01*
X133749Y198888D01*
X133683Y198965D01*
X133614Y199040D01*
X133542Y199112D01*
X133467Y199181D01*
X133390Y199247D01*
X133310Y199310D01*
X133228Y199370D01*
X133144Y199427D01*
X133058Y199480D01*
X132969Y199531D01*
X132879Y199578D01*
X132787Y199621D01*
X132694Y199661D01*
X132599Y199697D01*
X132502Y199729D01*
X132405Y199758D01*
X132306Y199783D01*
X132207Y199804D01*
X132107Y199822D01*
X132006Y199835D01*
X131905Y199845D01*
X131804Y199851D01*
X131702Y199853D01*
X131600Y199851D01*
X131499Y199845D01*
X131398Y199835D01*
X131297Y199822D01*
X131197Y199804D01*
X131098Y199783D01*
X130999Y199758D01*
X130902Y199729D01*
X130805Y199697D01*
X130710Y199661D01*
X130617Y199621D01*
X130525Y199578D01*
X130435Y199531D01*
X130346Y199480D01*
X130260Y199427D01*
X130176Y199370D01*
X130094Y199310D01*
X130014Y199247D01*
X129937Y199181D01*
X129862Y199112D01*
X129790Y199040D01*
X129721Y198965D01*
X129655Y198888D01*
X129592Y198808D01*
X129532Y198726D01*
X129475Y198642D01*
X129422Y198556D01*
X129371Y198467D01*
X129324Y198377D01*
X129281Y198285D01*
X129241Y198192D01*
X129205Y198097D01*
X129173Y198000D01*
X129144Y197903D01*
X129119Y197804D01*
X129098Y197705D01*
X129080Y197605D01*
X129067Y197504D01*
X129057Y197403D01*
X129051Y197302D01*
X129049Y197200D01*
X129049Y194547D01*
X129051Y194445D01*
X129057Y194344D01*
X129067Y194243D01*
X129080Y194142D01*
X129098Y194042D01*
X129119Y193943D01*
X129144Y193844D01*
X129173Y193747D01*
X129205Y193650D01*
X129241Y193555D01*
X129281Y193462D01*
X129324Y193370D01*
X129371Y193280D01*
X129422Y193191D01*
X129475Y193105D01*
X129532Y193021D01*
X129592Y192939D01*
X129655Y192859D01*
X129721Y192782D01*
X129790Y192707D01*
X129862Y192635D01*
X129937Y192566D01*
X130014Y192500D01*
X130094Y192437D01*
X130176Y192377D01*
X130260Y192320D01*
X130346Y192267D01*
X130435Y192216D01*
X130525Y192169D01*
X130617Y192126D01*
X130710Y192086D01*
X130805Y192050D01*
X130902Y192018D01*
X130999Y191989D01*
X131098Y191964D01*
X131197Y191943D01*
X131297Y191925D01*
X131398Y191912D01*
X131499Y191902D01*
X131600Y191896D01*
X131702Y191894D01*
X131804Y191896D01*
X131905Y191902D01*
X132006Y191912D01*
X132107Y191925D01*
X132207Y191943D01*
X132306Y191964D01*
X132405Y191989D01*
X132502Y192018D01*
X132599Y192050D01*
X132694Y192086D01*
X132787Y192126D01*
X132879Y192169D01*
X132969Y192216D01*
X133058Y192267D01*
X133144Y192320D01*
X133228Y192377D01*
X133310Y192437D01*
X133390Y192500D01*
X133467Y192566D01*
X133542Y192635D01*
X133614Y192707D01*
X133683Y192782D01*
X133749Y192859D01*
X133812Y192939D01*
X133872Y193021D01*
X133929Y193105D01*
X133982Y193191D01*
X134033Y193280D01*
X134080Y193370D01*
X134123Y193462D01*
X134163Y193555D01*
X134199Y193650D01*
X134231Y193747D01*
X134260Y193844D01*
X134285Y193943D01*
X134306Y194042D01*
X134324Y194142D01*
X134337Y194243D01*
X134347Y194344D01*
X134353Y194445D01*
X134355Y194547D01*
X124615Y199853D02*
X120635Y199853D01*
X123288Y203833D02*
X123288Y193884D01*
X123286Y193797D01*
X123280Y193711D01*
X123271Y193624D01*
X123258Y193538D01*
X123241Y193453D01*
X123220Y193369D01*
X123196Y193286D01*
X123168Y193203D01*
X123137Y193122D01*
X123102Y193043D01*
X123063Y192965D01*
X123021Y192889D01*
X122976Y192815D01*
X122928Y192743D01*
X122877Y192673D01*
X122822Y192605D01*
X122765Y192540D01*
X122705Y192477D01*
X122642Y192417D01*
X122577Y192360D01*
X122509Y192305D01*
X122439Y192254D01*
X122367Y192206D01*
X122293Y192161D01*
X122217Y192119D01*
X122139Y192080D01*
X122060Y192045D01*
X121979Y192014D01*
X121896Y191986D01*
X121813Y191962D01*
X121729Y191941D01*
X121644Y191924D01*
X121558Y191911D01*
X121471Y191902D01*
X121385Y191896D01*
X121298Y191894D01*
X121298Y191895D02*
X120635Y191895D01*
X115776Y191895D02*
X115776Y199853D01*
X116108Y203169D02*
X116108Y203833D01*
X115445Y203833D01*
X115445Y203169D01*
X116108Y203169D01*
X110466Y197200D02*
X110466Y194547D01*
X110466Y197200D02*
X110464Y197302D01*
X110458Y197403D01*
X110448Y197504D01*
X110435Y197605D01*
X110417Y197705D01*
X110396Y197804D01*
X110371Y197903D01*
X110342Y198000D01*
X110310Y198097D01*
X110274Y198192D01*
X110234Y198285D01*
X110191Y198377D01*
X110144Y198467D01*
X110093Y198556D01*
X110040Y198642D01*
X109983Y198726D01*
X109923Y198808D01*
X109860Y198888D01*
X109794Y198965D01*
X109725Y199040D01*
X109653Y199112D01*
X109578Y199181D01*
X109501Y199247D01*
X109421Y199310D01*
X109339Y199370D01*
X109255Y199427D01*
X109169Y199480D01*
X109080Y199531D01*
X108990Y199578D01*
X108898Y199621D01*
X108805Y199661D01*
X108710Y199697D01*
X108613Y199729D01*
X108516Y199758D01*
X108417Y199783D01*
X108318Y199804D01*
X108218Y199822D01*
X108117Y199835D01*
X108016Y199845D01*
X107915Y199851D01*
X107813Y199853D01*
X107711Y199851D01*
X107610Y199845D01*
X107509Y199835D01*
X107408Y199822D01*
X107308Y199804D01*
X107209Y199783D01*
X107110Y199758D01*
X107013Y199729D01*
X106916Y199697D01*
X106821Y199661D01*
X106728Y199621D01*
X106636Y199578D01*
X106546Y199531D01*
X106457Y199480D01*
X106371Y199427D01*
X106287Y199370D01*
X106205Y199310D01*
X106125Y199247D01*
X106048Y199181D01*
X105973Y199112D01*
X105901Y199040D01*
X105832Y198965D01*
X105766Y198888D01*
X105703Y198808D01*
X105643Y198726D01*
X105586Y198642D01*
X105533Y198556D01*
X105482Y198467D01*
X105435Y198377D01*
X105392Y198285D01*
X105352Y198192D01*
X105316Y198097D01*
X105284Y198000D01*
X105255Y197903D01*
X105230Y197804D01*
X105209Y197705D01*
X105191Y197605D01*
X105178Y197504D01*
X105168Y197403D01*
X105162Y197302D01*
X105160Y197200D01*
X105160Y194547D01*
X105162Y194445D01*
X105168Y194344D01*
X105178Y194243D01*
X105191Y194142D01*
X105209Y194042D01*
X105230Y193943D01*
X105255Y193844D01*
X105284Y193747D01*
X105316Y193650D01*
X105352Y193555D01*
X105392Y193462D01*
X105435Y193370D01*
X105482Y193280D01*
X105533Y193191D01*
X105586Y193105D01*
X105643Y193021D01*
X105703Y192939D01*
X105766Y192859D01*
X105832Y192782D01*
X105901Y192707D01*
X105973Y192635D01*
X106048Y192566D01*
X106125Y192500D01*
X106205Y192437D01*
X106287Y192377D01*
X106371Y192320D01*
X106457Y192267D01*
X106546Y192216D01*
X106636Y192169D01*
X106728Y192126D01*
X106821Y192086D01*
X106916Y192050D01*
X107013Y192018D01*
X107110Y191989D01*
X107209Y191964D01*
X107308Y191943D01*
X107408Y191925D01*
X107509Y191912D01*
X107610Y191902D01*
X107711Y191896D01*
X107813Y191894D01*
X107915Y191896D01*
X108016Y191902D01*
X108117Y191912D01*
X108218Y191925D01*
X108318Y191943D01*
X108417Y191964D01*
X108516Y191989D01*
X108613Y192018D01*
X108710Y192050D01*
X108805Y192086D01*
X108898Y192126D01*
X108990Y192169D01*
X109080Y192216D01*
X109169Y192267D01*
X109255Y192320D01*
X109339Y192377D01*
X109421Y192437D01*
X109501Y192500D01*
X109578Y192566D01*
X109653Y192635D01*
X109725Y192707D01*
X109794Y192782D01*
X109860Y192859D01*
X109923Y192939D01*
X109983Y193021D01*
X110040Y193105D01*
X110093Y193191D01*
X110144Y193280D01*
X110191Y193370D01*
X110234Y193462D01*
X110274Y193555D01*
X110310Y193650D01*
X110342Y193747D01*
X110371Y193844D01*
X110396Y193943D01*
X110417Y194042D01*
X110435Y194142D01*
X110448Y194243D01*
X110458Y194344D01*
X110464Y194445D01*
X110466Y194547D01*
X99150Y191895D02*
X99150Y199853D01*
X95834Y199853D01*
X95747Y199851D01*
X95661Y199845D01*
X95574Y199836D01*
X95488Y199823D01*
X95403Y199806D01*
X95319Y199785D01*
X95236Y199761D01*
X95153Y199733D01*
X95072Y199702D01*
X94993Y199667D01*
X94915Y199628D01*
X94839Y199586D01*
X94765Y199541D01*
X94693Y199493D01*
X94623Y199442D01*
X94555Y199387D01*
X94490Y199330D01*
X94427Y199270D01*
X94367Y199207D01*
X94310Y199142D01*
X94255Y199074D01*
X94204Y199004D01*
X94156Y198932D01*
X94111Y198858D01*
X94069Y198782D01*
X94030Y198704D01*
X93995Y198625D01*
X93964Y198544D01*
X93936Y198461D01*
X93912Y198378D01*
X93891Y198294D01*
X93874Y198209D01*
X93861Y198123D01*
X93852Y198036D01*
X93846Y197950D01*
X93844Y197863D01*
X93845Y197864D02*
X93845Y191895D01*
X174084Y179893D02*
X174086Y180000D01*
X174092Y180106D01*
X174101Y180212D01*
X174114Y180318D01*
X174131Y180423D01*
X174152Y180528D01*
X174177Y180631D01*
X174205Y180734D01*
X174237Y180836D01*
X174272Y180936D01*
X174311Y181035D01*
X174354Y181133D01*
X174400Y181229D01*
X174449Y181324D01*
X174502Y181416D01*
X174558Y181507D01*
X174617Y181595D01*
X174679Y181682D01*
X174745Y181766D01*
X174813Y181848D01*
X174884Y181927D01*
X174958Y182004D01*
X175035Y182078D01*
X175114Y182149D01*
X175196Y182217D01*
X175280Y182283D01*
X175367Y182345D01*
X175455Y182404D01*
X175546Y182460D01*
X175638Y182513D01*
X175733Y182562D01*
X175829Y182608D01*
X175927Y182651D01*
X176026Y182690D01*
X176126Y182725D01*
X176228Y182757D01*
X176331Y182785D01*
X176434Y182810D01*
X176539Y182831D01*
X176644Y182848D01*
X176750Y182861D01*
X176856Y182870D01*
X176962Y182876D01*
X177069Y182878D01*
X177069Y182877D02*
X177190Y182875D01*
X177310Y182869D01*
X177430Y182860D01*
X177550Y182847D01*
X177669Y182830D01*
X177788Y182809D01*
X177906Y182785D01*
X178023Y182756D01*
X178139Y182725D01*
X178255Y182689D01*
X178369Y182650D01*
X178481Y182607D01*
X178593Y182561D01*
X178703Y182512D01*
X178811Y182458D01*
X178917Y182402D01*
X179022Y182342D01*
X179125Y182279D01*
X179225Y182213D01*
X179324Y182144D01*
X179420Y182071D01*
X179514Y181996D01*
X179606Y181918D01*
X179695Y181836D01*
X179782Y181752D01*
X179866Y181666D01*
X179947Y181577D01*
X180025Y181485D01*
X180100Y181391D01*
X180172Y181294D01*
X180242Y181196D01*
X180308Y181095D01*
X180371Y180992D01*
X180430Y180887D01*
X180487Y180781D01*
X180540Y180672D01*
X180589Y180563D01*
X180635Y180451D01*
X180678Y180338D01*
X180716Y180224D01*
X175079Y177571D02*
X174999Y177651D01*
X174921Y177733D01*
X174847Y177817D01*
X174775Y177905D01*
X174707Y177995D01*
X174641Y178087D01*
X174579Y178181D01*
X174521Y178277D01*
X174466Y178376D01*
X174414Y178476D01*
X174366Y178578D01*
X174321Y178682D01*
X174281Y178787D01*
X174244Y178894D01*
X174210Y179002D01*
X174181Y179111D01*
X174155Y179221D01*
X174134Y179332D01*
X174116Y179443D01*
X174102Y179555D01*
X174092Y179667D01*
X174086Y179780D01*
X174084Y179893D01*
X175079Y177572D02*
X180717Y170940D01*
X174084Y170940D01*
X168144Y180225D02*
X164828Y182878D01*
X164828Y170940D01*
X168144Y170940D02*
X161511Y170940D01*
X155571Y176909D02*
X155568Y177144D01*
X155560Y177379D01*
X155546Y177613D01*
X155526Y177847D01*
X155501Y178081D01*
X155470Y178313D01*
X155434Y178545D01*
X155392Y178777D01*
X155345Y179007D01*
X155292Y179235D01*
X155234Y179463D01*
X155170Y179689D01*
X155101Y179913D01*
X155027Y180136D01*
X154947Y180357D01*
X154862Y180576D01*
X154772Y180793D01*
X154677Y181008D01*
X154576Y181220D01*
X154543Y181312D01*
X154505Y181403D01*
X154464Y181492D01*
X154420Y181580D01*
X154372Y181665D01*
X154321Y181749D01*
X154266Y181831D01*
X154208Y181910D01*
X154147Y181987D01*
X154083Y182061D01*
X154016Y182133D01*
X153946Y182202D01*
X153874Y182268D01*
X153799Y182332D01*
X153721Y182392D01*
X153641Y182449D01*
X153559Y182503D01*
X153475Y182553D01*
X153389Y182600D01*
X153301Y182644D01*
X153211Y182684D01*
X153120Y182721D01*
X153027Y182753D01*
X152933Y182782D01*
X152839Y182808D01*
X152743Y182829D01*
X152646Y182847D01*
X152549Y182860D01*
X152451Y182870D01*
X152353Y182876D01*
X152255Y182878D01*
X152157Y182876D01*
X152059Y182870D01*
X151961Y182860D01*
X151864Y182847D01*
X151767Y182829D01*
X151671Y182808D01*
X151577Y182782D01*
X151483Y182753D01*
X151390Y182721D01*
X151299Y182684D01*
X151209Y182644D01*
X151121Y182600D01*
X151035Y182553D01*
X150951Y182503D01*
X150869Y182449D01*
X150789Y182392D01*
X150711Y182332D01*
X150636Y182268D01*
X150564Y182202D01*
X150494Y182133D01*
X150427Y182061D01*
X150363Y181987D01*
X150302Y181910D01*
X150244Y181831D01*
X150189Y181749D01*
X150138Y181665D01*
X150090Y181580D01*
X150046Y181492D01*
X150005Y181403D01*
X149967Y181312D01*
X149934Y181220D01*
X149933Y181220D02*
X149832Y181008D01*
X149737Y180793D01*
X149647Y180576D01*
X149562Y180357D01*
X149482Y180136D01*
X149408Y179914D01*
X149339Y179689D01*
X149275Y179463D01*
X149217Y179235D01*
X149164Y179007D01*
X149117Y178777D01*
X149075Y178545D01*
X149039Y178313D01*
X149008Y178081D01*
X148983Y177847D01*
X148963Y177613D01*
X148949Y177379D01*
X148941Y177144D01*
X148938Y176909D01*
X155571Y176909D02*
X155568Y176674D01*
X155560Y176439D01*
X155546Y176205D01*
X155526Y175971D01*
X155501Y175737D01*
X155470Y175505D01*
X155434Y175273D01*
X155392Y175042D01*
X155345Y174811D01*
X155292Y174583D01*
X155234Y174355D01*
X155170Y174129D01*
X155101Y173905D01*
X155027Y173682D01*
X154947Y173461D01*
X154862Y173242D01*
X154772Y173025D01*
X154677Y172810D01*
X154576Y172598D01*
X154576Y172597D02*
X154543Y172505D01*
X154505Y172414D01*
X154464Y172325D01*
X154420Y172237D01*
X154372Y172152D01*
X154321Y172068D01*
X154266Y171986D01*
X154208Y171907D01*
X154147Y171830D01*
X154083Y171756D01*
X154016Y171684D01*
X153946Y171615D01*
X153874Y171549D01*
X153799Y171485D01*
X153721Y171425D01*
X153641Y171368D01*
X153559Y171314D01*
X153475Y171264D01*
X153389Y171217D01*
X153301Y171173D01*
X153211Y171133D01*
X153120Y171096D01*
X153027Y171064D01*
X152933Y171035D01*
X152839Y171009D01*
X152743Y170988D01*
X152646Y170970D01*
X152549Y170957D01*
X152451Y170947D01*
X152353Y170941D01*
X152255Y170939D01*
X149933Y172598D02*
X149832Y172810D01*
X149737Y173025D01*
X149647Y173242D01*
X149562Y173461D01*
X149482Y173682D01*
X149408Y173905D01*
X149339Y174129D01*
X149275Y174355D01*
X149217Y174583D01*
X149164Y174811D01*
X149117Y175041D01*
X149075Y175273D01*
X149039Y175505D01*
X149008Y175737D01*
X148983Y175971D01*
X148963Y176205D01*
X148949Y176439D01*
X148941Y176674D01*
X148938Y176909D01*
X149934Y172597D02*
X149967Y172505D01*
X150005Y172414D01*
X150046Y172325D01*
X150090Y172237D01*
X150138Y172152D01*
X150190Y172068D01*
X150244Y171986D01*
X150302Y171907D01*
X150363Y171830D01*
X150427Y171756D01*
X150494Y171684D01*
X150564Y171615D01*
X150636Y171549D01*
X150711Y171485D01*
X150789Y171425D01*
X150869Y171368D01*
X150951Y171314D01*
X151035Y171264D01*
X151121Y171217D01*
X151209Y171173D01*
X151299Y171133D01*
X151390Y171096D01*
X151483Y171064D01*
X151577Y171035D01*
X151671Y171009D01*
X151767Y170988D01*
X151864Y170970D01*
X151961Y170957D01*
X152059Y170947D01*
X152157Y170941D01*
X152255Y170939D01*
X154907Y173592D02*
X149602Y180225D01*
X136886Y178898D02*
X134233Y170940D01*
X131580Y178898D01*
X126234Y173592D02*
X123581Y182878D01*
X126234Y173592D02*
X119602Y173592D01*
X121591Y176245D02*
X121591Y170940D01*
X114448Y170940D02*
X114448Y171603D01*
X113785Y171603D01*
X113785Y170940D01*
X114448Y170940D01*
X108632Y170940D02*
X105316Y170940D01*
X105202Y170942D01*
X105087Y170948D01*
X104973Y170958D01*
X104860Y170972D01*
X104746Y170989D01*
X104634Y171011D01*
X104522Y171036D01*
X104412Y171066D01*
X104302Y171099D01*
X104194Y171136D01*
X104087Y171176D01*
X103981Y171221D01*
X103877Y171268D01*
X103775Y171320D01*
X103675Y171375D01*
X103576Y171433D01*
X103480Y171495D01*
X103385Y171560D01*
X103294Y171628D01*
X103204Y171700D01*
X103117Y171774D01*
X103033Y171851D01*
X102951Y171932D01*
X102872Y172015D01*
X102796Y172100D01*
X102723Y172189D01*
X102654Y172279D01*
X102587Y172372D01*
X102524Y172468D01*
X102464Y172565D01*
X102407Y172665D01*
X102354Y172766D01*
X102304Y172869D01*
X102258Y172974D01*
X102215Y173080D01*
X102177Y173188D01*
X102142Y173297D01*
X102111Y173407D01*
X102083Y173518D01*
X102060Y173630D01*
X102040Y173743D01*
X102024Y173856D01*
X102012Y173970D01*
X102004Y174084D01*
X102000Y174199D01*
X102000Y174313D01*
X102004Y174428D01*
X102012Y174542D01*
X102024Y174656D01*
X102040Y174769D01*
X102060Y174882D01*
X102083Y174994D01*
X102111Y175105D01*
X102142Y175215D01*
X102177Y175324D01*
X102215Y175432D01*
X102258Y175538D01*
X102304Y175643D01*
X102354Y175746D01*
X102407Y175847D01*
X102464Y175947D01*
X102524Y176044D01*
X102587Y176140D01*
X102654Y176233D01*
X102723Y176323D01*
X102796Y176412D01*
X102872Y176497D01*
X102951Y176580D01*
X103033Y176661D01*
X103117Y176738D01*
X103204Y176812D01*
X103294Y176884D01*
X103385Y176952D01*
X103480Y177017D01*
X103576Y177079D01*
X103675Y177137D01*
X103775Y177192D01*
X103877Y177244D01*
X103981Y177291D01*
X104087Y177336D01*
X104194Y177376D01*
X104302Y177413D01*
X104412Y177446D01*
X104522Y177476D01*
X104634Y177501D01*
X104746Y177523D01*
X104860Y177540D01*
X104973Y177554D01*
X105087Y177564D01*
X105202Y177570D01*
X105316Y177572D01*
X104652Y182878D02*
X108632Y182878D01*
X104652Y182878D02*
X104550Y182876D01*
X104449Y182870D01*
X104348Y182860D01*
X104247Y182847D01*
X104147Y182829D01*
X104048Y182808D01*
X103949Y182783D01*
X103852Y182754D01*
X103755Y182722D01*
X103660Y182686D01*
X103567Y182646D01*
X103475Y182603D01*
X103385Y182556D01*
X103296Y182505D01*
X103210Y182452D01*
X103126Y182395D01*
X103044Y182335D01*
X102964Y182272D01*
X102887Y182206D01*
X102812Y182137D01*
X102740Y182065D01*
X102671Y181990D01*
X102605Y181913D01*
X102542Y181833D01*
X102482Y181751D01*
X102425Y181667D01*
X102372Y181581D01*
X102321Y181492D01*
X102274Y181402D01*
X102231Y181310D01*
X102191Y181217D01*
X102155Y181122D01*
X102123Y181025D01*
X102094Y180928D01*
X102069Y180829D01*
X102048Y180730D01*
X102030Y180630D01*
X102017Y180529D01*
X102007Y180428D01*
X102001Y180327D01*
X101999Y180225D01*
X102001Y180123D01*
X102007Y180022D01*
X102017Y179921D01*
X102030Y179820D01*
X102048Y179720D01*
X102069Y179621D01*
X102094Y179522D01*
X102123Y179425D01*
X102155Y179328D01*
X102191Y179233D01*
X102231Y179140D01*
X102274Y179048D01*
X102321Y178958D01*
X102372Y178869D01*
X102425Y178783D01*
X102482Y178699D01*
X102542Y178617D01*
X102605Y178537D01*
X102671Y178460D01*
X102740Y178385D01*
X102812Y178313D01*
X102887Y178244D01*
X102964Y178178D01*
X103044Y178115D01*
X103126Y178055D01*
X103210Y177998D01*
X103296Y177945D01*
X103385Y177894D01*
X103475Y177847D01*
X103567Y177804D01*
X103660Y177764D01*
X103755Y177728D01*
X103852Y177696D01*
X103949Y177667D01*
X104048Y177642D01*
X104147Y177621D01*
X104247Y177603D01*
X104348Y177590D01*
X104449Y177580D01*
X104550Y177574D01*
X104652Y177572D01*
X107305Y177572D01*
D11*
X139500Y26500D03*
D12*
X106500Y29500D03*
D13*
X129000Y29500D03*
D12*
X148500Y29500D03*
X172500Y29500D03*
X106500Y32500D03*
X112500Y32500D03*
D14*
X123000Y32500D03*
D12*
X133500Y32500D03*
X139500Y32500D03*
D14*
X147000Y32500D03*
D15*
X160500Y32500D03*
D12*
X172500Y32500D03*
X106500Y35500D03*
D16*
X121500Y35500D03*
D12*
X130500Y35500D03*
D16*
X139500Y35500D03*
D12*
X148500Y35500D03*
X154500Y35500D03*
X166500Y35500D03*
X172500Y35500D03*
D16*
X109500Y38500D03*
X121500Y38500D03*
D14*
X135000Y38500D03*
D16*
X145500Y38500D03*
D12*
X154500Y38500D03*
X166500Y38500D03*
X172500Y38500D03*
D14*
X108000Y41500D03*
D16*
X118500Y41500D03*
X133500Y41500D03*
D14*
X147000Y41500D03*
D12*
X154500Y41500D03*
X166500Y41500D03*
X172500Y41500D03*
X106500Y44500D03*
X112500Y44500D03*
X127500Y44500D03*
D17*
X141000Y44500D03*
D15*
X160500Y44500D03*
D12*
X172500Y44500D03*
X106500Y47500D03*
D14*
X120000Y47500D03*
D12*
X148500Y47500D03*
X172500Y47500D03*
X106500Y50500D03*
X115500Y50500D03*
D16*
X124500Y50500D03*
D12*
X133500Y50500D03*
D18*
X160500Y50500D03*
D12*
X106500Y53500D03*
X115500Y53500D03*
D14*
X123000Y53500D03*
D12*
X130500Y53500D03*
X142500Y53500D03*
X148500Y53500D03*
D16*
X169500Y53500D03*
D14*
X108000Y56500D03*
D12*
X115500Y56500D03*
D15*
X130500Y56500D03*
D14*
X144000Y56500D03*
X153000Y56500D03*
D19*
X168000Y56500D03*
D14*
X108000Y59500D03*
D12*
X115500Y59500D03*
D19*
X126000Y59500D03*
D15*
X142500Y59500D03*
D14*
X156000Y59500D03*
X165000Y59500D03*
D12*
X172500Y59500D03*
X106500Y62500D03*
X112500Y62500D03*
X118500Y62500D03*
X124500Y62500D03*
X133500Y62500D03*
X142500Y62500D03*
D14*
X150000Y62500D03*
X159000Y62500D03*
X171000Y62500D03*
D12*
X106500Y65500D03*
X112500Y65500D03*
D14*
X120000Y65500D03*
D16*
X130500Y65500D03*
X142500Y65500D03*
X157500Y65500D03*
D12*
X166500Y65500D03*
X172500Y65500D03*
D18*
X118500Y68500D03*
D12*
X136500Y68500D03*
D13*
X159000Y68500D03*
D12*
X106500Y71500D03*
X130500Y71500D03*
X136500Y71500D03*
X142500Y71500D03*
X148500Y71500D03*
X172500Y71500D03*
X106500Y74500D03*
D15*
X118500Y74500D03*
D16*
X133500Y74500D03*
D12*
X148500Y74500D03*
D15*
X160500Y74500D03*
D12*
X172500Y74500D03*
X106500Y77500D03*
X112500Y77500D03*
X124500Y77500D03*
X130500Y77500D03*
D16*
X145500Y77500D03*
D12*
X154500Y77500D03*
X166500Y77500D03*
X172500Y77500D03*
X106500Y80500D03*
X112500Y80500D03*
X124500Y80500D03*
X130500Y80500D03*
D14*
X147000Y80500D03*
D12*
X154500Y80500D03*
X166500Y80500D03*
X172500Y80500D03*
X106500Y83500D03*
X112500Y83500D03*
X124500Y83500D03*
D14*
X132000Y83500D03*
D12*
X142500Y83500D03*
X148500Y83500D03*
X154500Y83500D03*
X166500Y83500D03*
X172500Y83500D03*
X106500Y86500D03*
D15*
X118500Y86500D03*
D14*
X132000Y86500D03*
D19*
X144000Y86500D03*
D15*
X160500Y86500D03*
D12*
X172500Y86500D03*
X106500Y89500D03*
X130500Y89500D03*
X139500Y89500D03*
X148500Y89500D03*
X172500Y89500D03*
D11*
X139500Y92500D03*
D20*
X60000Y199000D02*
X66000Y205000D01*
X64000Y199000D02*
X60000Y199000D01*
X60000Y203000D01*
X56000Y203000D02*
X62000Y209000D01*
X58000Y209000D01*
X62000Y209000D02*
X62000Y205000D01*
M02*
