M48
;GenerationSoftware,Autodesk,EAGLE,9.6.2*%
;CreationDate,2022-06-05T05:17:34Z*%
FMAT,2
ICI,OFF
METRIC,TZ,000.000
T6C0.305
T5C0.350
T4C0.559
T3C0.600
T2C1.100
T1C3.030
%
G90
M71
T1
X24000Y22500
X24000Y2500
X4000Y2500
X4000Y22500
T2
X15000Y11960
X17540Y14500
X12460Y14500
T3
X22550Y11230
X22550Y12500
X22550Y13770
X5450Y13770
X5450Y12500
X5450Y11230
T4
X19784Y22488
X17244Y22488
X17244Y24063
X18514Y22488
X18514Y24063
T5
X8644Y4301
X14478Y8153
T6
X12903Y11684
X13614Y12395
X17526Y16307
X18339Y17120
X20371Y21844
X20726Y23165
X12649Y6350
X11938Y7061
X11989Y8331
X11989Y9906
X12192Y12395
X12903Y13106
X16815Y17018
X17628Y17831
X19304Y6248
X18390Y5232
X15240Y7671
X14783Y5690
X4521Y10363
X5893Y9957
X6706Y10770
X23470Y14630
X21793Y14376
X21692Y13259
X9042Y8890
X9042Y9906
X10160Y13868
X10160Y12852
X10516Y9906
X11532Y8890
X13310Y8433
X14478Y6401
X13970Y7620
X16307Y10719
X16104Y22911
X14326Y21133
X13513Y20320
X11125Y13868
X11633Y12954
X10668Y10770
X14783Y4978
X14275Y19558
X2350Y12500
X15088Y20371
X16662Y8534
X17831Y8788
X25650Y12500
X18491Y8026
X10160Y23673
X9449Y24384
X20625Y5690
X8382Y18999
X13005Y9906
X17577Y5334
M30