G04 EAGLE Gerber X2 export*
%TF.Part,Single*%
%TF.FileFunction,Copper,L2,Bot,Mixed*%
%TF.FilePolarity,Positive*%
%TF.GenerationSoftware,Autodesk,EAGLE,9.6.2*%
%TF.CreationDate,2022-06-05T05:17:34Z*%
G75*
%MOMM*%
%FSLAX34Y34*%
%LPD*%
%INBottom Copper*%
%AMOC8*
5,1,8,0,0,1.08239X$1,22.5*%
G01*
%ADD10C,0.863600*%
%ADD11R,0.863600X0.863600*%
%ADD12C,1.100000*%
%ADD13C,0.720000*%
%ADD14C,0.558800*%
%ADD15C,4.400000*%
%ADD16C,1.930400*%
%ADD17C,0.304800*%
%ADD18C,0.604000*%
%ADD19C,0.152400*%

G36*
X224147Y2792D02*
X224147Y2792D01*
X224158Y2791D01*
X224321Y2812D01*
X224482Y2831D01*
X224493Y2834D01*
X224504Y2836D01*
X224657Y2893D01*
X224810Y2948D01*
X224820Y2954D01*
X224830Y2958D01*
X224966Y3049D01*
X225103Y3137D01*
X225111Y3145D01*
X225120Y3151D01*
X225232Y3270D01*
X225345Y3388D01*
X225351Y3397D01*
X225359Y3406D01*
X225440Y3547D01*
X225524Y3687D01*
X225528Y3698D01*
X225533Y3707D01*
X225581Y3864D01*
X225630Y4019D01*
X225631Y4030D01*
X225635Y4041D01*
X225645Y4205D01*
X225658Y4366D01*
X225657Y4377D01*
X225658Y4389D01*
X225631Y4550D01*
X225607Y4711D01*
X225603Y4721D01*
X225601Y4732D01*
X225538Y4884D01*
X225478Y5035D01*
X225472Y5044D01*
X225467Y5054D01*
X225372Y5188D01*
X225279Y5321D01*
X225271Y5328D01*
X225264Y5338D01*
X225086Y5505D01*
X223622Y6673D01*
X221673Y8622D01*
X219954Y10777D01*
X218488Y13110D01*
X217292Y15594D01*
X216381Y18196D01*
X215768Y20883D01*
X215647Y21953D01*
X238476Y21953D01*
X238502Y21956D01*
X238528Y21954D01*
X238675Y21976D01*
X238822Y21993D01*
X238847Y22001D01*
X238873Y22005D01*
X239011Y22060D01*
X239150Y22110D01*
X239172Y22124D01*
X239197Y22134D01*
X239318Y22219D01*
X239443Y22299D01*
X239461Y22318D01*
X239483Y22333D01*
X239582Y22443D01*
X239685Y22550D01*
X239699Y22572D01*
X239716Y22592D01*
X239788Y22722D01*
X239864Y22849D01*
X239872Y22874D01*
X239885Y22897D01*
X239925Y23040D01*
X239970Y23181D01*
X239972Y23207D01*
X239979Y23232D01*
X239999Y23476D01*
X239999Y25001D01*
X241524Y25001D01*
X241550Y25004D01*
X241576Y25002D01*
X241723Y25024D01*
X241870Y25041D01*
X241895Y25050D01*
X241921Y25053D01*
X242059Y25108D01*
X242198Y25158D01*
X242220Y25173D01*
X242245Y25182D01*
X242366Y25267D01*
X242491Y25347D01*
X242509Y25366D01*
X242531Y25381D01*
X242630Y25491D01*
X242733Y25598D01*
X242747Y25620D01*
X242764Y25640D01*
X242836Y25770D01*
X242912Y25897D01*
X242920Y25922D01*
X242933Y25945D01*
X242973Y26088D01*
X243018Y26229D01*
X243020Y26255D01*
X243028Y26280D01*
X243047Y26524D01*
X243047Y49353D01*
X244117Y49232D01*
X246804Y48619D01*
X249406Y47708D01*
X251890Y46512D01*
X254223Y45046D01*
X256378Y43327D01*
X258327Y41378D01*
X258809Y40774D01*
X258817Y40767D01*
X258823Y40757D01*
X258940Y40644D01*
X259056Y40529D01*
X259066Y40523D01*
X259074Y40515D01*
X259213Y40432D01*
X259353Y40345D01*
X259363Y40342D01*
X259373Y40336D01*
X259527Y40287D01*
X259683Y40234D01*
X259694Y40233D01*
X259705Y40230D01*
X259867Y40217D01*
X260030Y40201D01*
X260041Y40203D01*
X260052Y40202D01*
X260214Y40226D01*
X260375Y40248D01*
X260386Y40252D01*
X260397Y40254D01*
X260548Y40314D01*
X260701Y40372D01*
X260710Y40378D01*
X260721Y40382D01*
X260854Y40475D01*
X260990Y40566D01*
X260998Y40575D01*
X261007Y40581D01*
X261116Y40702D01*
X261227Y40822D01*
X261233Y40832D01*
X261240Y40840D01*
X261319Y40983D01*
X261400Y41124D01*
X261403Y41135D01*
X261409Y41145D01*
X261453Y41302D01*
X261500Y41458D01*
X261501Y41470D01*
X261504Y41480D01*
X261523Y41724D01*
X261523Y57502D01*
X261523Y57504D01*
X261523Y57506D01*
X261503Y57679D01*
X261483Y57848D01*
X261483Y57850D01*
X261482Y57852D01*
X261407Y58085D01*
X261135Y58742D01*
X261134Y58744D01*
X261133Y58746D01*
X261053Y58890D01*
X260966Y59047D01*
X260964Y59048D01*
X260963Y59050D01*
X260805Y59236D01*
X259236Y60805D01*
X259234Y60806D01*
X259233Y60808D01*
X259094Y60918D01*
X258963Y61021D01*
X258961Y61022D01*
X258960Y61024D01*
X258742Y61135D01*
X256692Y61984D01*
X256594Y62012D01*
X256499Y62049D01*
X256403Y62067D01*
X256357Y62080D01*
X256320Y62082D01*
X256259Y62093D01*
X255149Y62202D01*
X255101Y62201D01*
X255000Y62209D01*
X227456Y62209D01*
X222755Y64157D01*
X219157Y67755D01*
X217209Y72456D01*
X217209Y83723D01*
X217250Y83810D01*
X217309Y83914D01*
X217325Y83967D01*
X217349Y84018D01*
X217374Y84134D01*
X217407Y84248D01*
X217414Y84319D01*
X217422Y84359D01*
X217421Y84404D01*
X217429Y84492D01*
X217443Y85873D01*
X220849Y91636D01*
X225996Y94539D01*
X226065Y94589D01*
X226139Y94630D01*
X226238Y94715D01*
X226278Y94744D01*
X226295Y94763D01*
X226325Y94789D01*
X226448Y94912D01*
X226486Y94921D01*
X226525Y94926D01*
X230004Y94891D01*
X230011Y94891D01*
X230020Y94891D01*
X236279Y94891D01*
X236354Y94899D01*
X236430Y94898D01*
X236526Y94919D01*
X236625Y94931D01*
X236696Y94956D01*
X236770Y94972D01*
X236860Y95015D01*
X236953Y95048D01*
X237017Y95089D01*
X237085Y95122D01*
X237162Y95183D01*
X237246Y95237D01*
X237298Y95292D01*
X237358Y95339D01*
X237419Y95416D01*
X237488Y95488D01*
X237527Y95553D01*
X237574Y95612D01*
X237616Y95702D01*
X237667Y95787D01*
X237690Y95859D01*
X237722Y95928D01*
X237743Y96024D01*
X237773Y96119D01*
X237779Y96194D01*
X237795Y96268D01*
X237793Y96368D01*
X237801Y96466D01*
X237790Y96541D01*
X237788Y96617D01*
X237764Y96713D01*
X237749Y96811D01*
X237721Y96881D01*
X237703Y96955D01*
X237638Y97091D01*
X237620Y97135D01*
X237610Y97150D01*
X237598Y97176D01*
X236909Y98368D01*
X236909Y101632D01*
X238545Y104466D01*
X238578Y104490D01*
X238646Y104528D01*
X238758Y104624D01*
X238796Y104652D01*
X238809Y104667D01*
X238832Y104686D01*
X239426Y105281D01*
X239443Y105302D01*
X239463Y105319D01*
X239551Y105438D01*
X239643Y105554D01*
X239654Y105578D01*
X239670Y105599D01*
X239729Y105735D01*
X239792Y105869D01*
X239798Y105895D01*
X239808Y105919D01*
X239834Y106065D01*
X239865Y106210D01*
X239865Y106236D01*
X239870Y106262D01*
X239862Y106410D01*
X239859Y106558D01*
X239853Y106584D01*
X239852Y106610D01*
X239811Y106752D01*
X239774Y106896D01*
X239762Y106920D01*
X239755Y106945D01*
X239690Y107061D01*
X239678Y107092D01*
X239661Y107117D01*
X239615Y107206D01*
X239598Y107226D01*
X239585Y107249D01*
X239497Y107352D01*
X239479Y107379D01*
X239461Y107394D01*
X239426Y107435D01*
X238221Y108641D01*
X238205Y108678D01*
X238204Y108680D01*
X238204Y108682D01*
X238120Y108832D01*
X238036Y108983D01*
X238035Y108985D01*
X238034Y108986D01*
X237875Y109173D01*
X235839Y111208D01*
X235839Y111209D01*
X234871Y112177D01*
X234792Y112239D01*
X234720Y112309D01*
X234656Y112347D01*
X234598Y112393D01*
X234507Y112436D01*
X234421Y112488D01*
X234350Y112510D01*
X234283Y112542D01*
X234185Y112563D01*
X234089Y112594D01*
X234015Y112600D01*
X233942Y112615D01*
X233842Y112614D01*
X233742Y112622D01*
X233668Y112611D01*
X233594Y112610D01*
X233497Y112585D01*
X233397Y112570D01*
X233328Y112543D01*
X233256Y112525D01*
X233167Y112479D01*
X233073Y112441D01*
X233012Y112399D01*
X232946Y112365D01*
X232870Y112300D01*
X232787Y112242D01*
X232737Y112187D01*
X232681Y112139D01*
X232621Y112058D01*
X232554Y111984D01*
X232518Y111919D01*
X232473Y111859D01*
X232434Y111767D01*
X232385Y111679D01*
X232365Y111607D01*
X232335Y111539D01*
X232318Y111440D01*
X232290Y111343D01*
X232282Y111243D01*
X232274Y111196D01*
X232276Y111160D01*
X232271Y111099D01*
X232271Y110953D01*
X231240Y108465D01*
X229335Y106560D01*
X226847Y105529D01*
X224153Y105529D01*
X221665Y106560D01*
X219760Y108465D01*
X218729Y110953D01*
X218729Y113647D01*
X219760Y116135D01*
X220300Y116675D01*
X220316Y116695D01*
X220336Y116712D01*
X220424Y116832D01*
X220516Y116948D01*
X220527Y116972D01*
X220543Y116993D01*
X220602Y117129D01*
X220665Y117263D01*
X220671Y117289D01*
X220681Y117313D01*
X220707Y117459D01*
X220739Y117604D01*
X220738Y117630D01*
X220743Y117656D01*
X220735Y117804D01*
X220733Y117952D01*
X220726Y117978D01*
X220725Y118004D01*
X220684Y118146D01*
X220648Y118290D01*
X220635Y118314D01*
X220628Y118339D01*
X220556Y118468D01*
X220488Y118600D01*
X220471Y118620D01*
X220458Y118643D01*
X220300Y118829D01*
X219254Y119874D01*
X218374Y121191D01*
X217768Y122655D01*
X217605Y123477D01*
X225500Y123477D01*
X225526Y123480D01*
X225552Y123477D01*
X225699Y123499D01*
X225846Y123516D01*
X225871Y123525D01*
X225897Y123529D01*
X226034Y123584D01*
X226174Y123634D01*
X226196Y123648D01*
X226220Y123658D01*
X226342Y123742D01*
X226467Y123823D01*
X226485Y123842D01*
X226507Y123857D01*
X226606Y123967D01*
X226709Y124074D01*
X226722Y124096D01*
X226740Y124116D01*
X226812Y124246D01*
X226888Y124373D01*
X226896Y124398D01*
X226909Y124421D01*
X226949Y124564D01*
X226994Y124705D01*
X226996Y124731D01*
X227003Y124756D01*
X227023Y125000D01*
X227020Y125026D01*
X227022Y125052D01*
X227000Y125199D01*
X226983Y125346D01*
X226974Y125371D01*
X226970Y125397D01*
X226916Y125535D01*
X226866Y125674D01*
X226851Y125697D01*
X226842Y125721D01*
X226757Y125842D01*
X226677Y125967D01*
X226658Y125986D01*
X226643Y126007D01*
X226533Y126106D01*
X226426Y126209D01*
X226403Y126223D01*
X226384Y126240D01*
X226254Y126312D01*
X226127Y126388D01*
X226102Y126396D01*
X226079Y126409D01*
X225936Y126449D01*
X225795Y126495D01*
X225769Y126497D01*
X225743Y126504D01*
X225500Y126523D01*
X217605Y126523D01*
X217640Y126703D01*
X217641Y126704D01*
X217641Y126705D01*
X217654Y126869D01*
X217669Y127050D01*
X217669Y127051D01*
X217669Y127052D01*
X217647Y127198D01*
X217618Y127395D01*
X217617Y127396D01*
X217617Y127397D01*
X217553Y127558D01*
X217489Y127719D01*
X217489Y127720D01*
X217488Y127721D01*
X217395Y127855D01*
X217291Y128005D01*
X217290Y128006D01*
X217289Y128007D01*
X217171Y128114D01*
X217032Y128239D01*
X217031Y128240D01*
X216880Y128324D01*
X216728Y128408D01*
X216727Y128408D01*
X216726Y128409D01*
X216553Y128458D01*
X216392Y128503D01*
X216391Y128503D01*
X216390Y128504D01*
X216146Y128523D01*
X215232Y128523D01*
X212851Y130904D01*
X212851Y134272D01*
X215453Y136874D01*
X215532Y136973D01*
X215616Y137066D01*
X215640Y137109D01*
X215670Y137147D01*
X215724Y137261D01*
X215785Y137371D01*
X215798Y137418D01*
X215819Y137462D01*
X215845Y137585D01*
X215880Y137707D01*
X215885Y137768D01*
X215892Y137802D01*
X215891Y137850D01*
X215899Y137951D01*
X215899Y139417D01*
X215885Y139543D01*
X215878Y139669D01*
X215865Y139716D01*
X215859Y139764D01*
X215817Y139883D01*
X215782Y140004D01*
X215758Y140046D01*
X215742Y140092D01*
X215673Y140198D01*
X215612Y140308D01*
X215572Y140355D01*
X215553Y140385D01*
X215518Y140418D01*
X215453Y140494D01*
X213867Y142080D01*
X213867Y145448D01*
X216248Y147829D01*
X219616Y147829D01*
X222093Y145351D01*
X222134Y145226D01*
X222146Y145206D01*
X222154Y145183D01*
X222236Y145056D01*
X222313Y144928D01*
X222330Y144910D01*
X222343Y144890D01*
X222452Y144785D01*
X222556Y144678D01*
X222576Y144665D01*
X222594Y144648D01*
X222723Y144571D01*
X222849Y144489D01*
X222872Y144481D01*
X222893Y144469D01*
X223036Y144423D01*
X223178Y144373D01*
X223202Y144370D01*
X223225Y144363D01*
X223375Y144351D01*
X223524Y144334D01*
X223548Y144337D01*
X223572Y144335D01*
X223721Y144357D01*
X223870Y144375D01*
X223898Y144384D01*
X223917Y144387D01*
X223961Y144404D01*
X224103Y144450D01*
X224153Y144471D01*
X226847Y144471D01*
X228525Y143776D01*
X228670Y143734D01*
X228813Y143688D01*
X228837Y143687D01*
X228860Y143680D01*
X229011Y143673D01*
X229160Y143660D01*
X229184Y143664D01*
X229208Y143663D01*
X229356Y143690D01*
X229505Y143712D01*
X229527Y143721D01*
X229551Y143725D01*
X229689Y143785D01*
X229829Y143841D01*
X229849Y143855D01*
X229871Y143864D01*
X229992Y143954D01*
X230115Y144040D01*
X230131Y144058D01*
X230151Y144072D01*
X230248Y144187D01*
X230348Y144299D01*
X230360Y144320D01*
X230376Y144338D01*
X230444Y144472D01*
X230517Y144604D01*
X230523Y144627D01*
X230534Y144648D01*
X230571Y144794D01*
X230612Y144939D01*
X230614Y144968D01*
X230619Y144987D01*
X230619Y145034D01*
X230631Y145183D01*
X230631Y147988D01*
X233012Y150369D01*
X235386Y150369D01*
X235412Y150372D01*
X235438Y150370D01*
X235585Y150392D01*
X235732Y150409D01*
X235757Y150417D01*
X235783Y150421D01*
X235921Y150476D01*
X236060Y150526D01*
X236082Y150540D01*
X236107Y150550D01*
X236228Y150635D01*
X236353Y150715D01*
X236371Y150734D01*
X236393Y150749D01*
X236492Y150859D01*
X236595Y150966D01*
X236609Y150988D01*
X236626Y151008D01*
X236698Y151138D01*
X236774Y151265D01*
X236782Y151290D01*
X236795Y151313D01*
X236835Y151456D01*
X236870Y151564D01*
X237598Y152824D01*
X237628Y152894D01*
X237667Y152959D01*
X237697Y153053D01*
X237736Y153144D01*
X237750Y153219D01*
X237773Y153291D01*
X237781Y153390D01*
X237799Y153487D01*
X237795Y153563D01*
X237801Y153638D01*
X237786Y153736D01*
X237781Y153835D01*
X237760Y153908D01*
X237749Y153983D01*
X237713Y154075D01*
X237685Y154170D01*
X237648Y154236D01*
X237620Y154307D01*
X237564Y154388D01*
X237516Y154475D01*
X237465Y154531D01*
X237422Y154593D01*
X237348Y154659D01*
X237281Y154733D01*
X237219Y154776D01*
X237163Y154826D01*
X237076Y154874D01*
X236995Y154931D01*
X236924Y154958D01*
X236858Y154995D01*
X236762Y155022D01*
X236670Y155058D01*
X236595Y155069D01*
X236522Y155090D01*
X236372Y155102D01*
X236325Y155109D01*
X236307Y155107D01*
X236279Y155109D01*
X230020Y155109D01*
X230014Y155109D01*
X230004Y155109D01*
X226519Y155074D01*
X226463Y155090D01*
X226445Y155091D01*
X226325Y155211D01*
X226259Y155264D01*
X226199Y155324D01*
X226091Y155397D01*
X226052Y155428D01*
X226029Y155439D01*
X225996Y155461D01*
X220849Y158364D01*
X217443Y164127D01*
X217429Y165508D01*
X217414Y165626D01*
X217408Y165745D01*
X217393Y165799D01*
X217386Y165854D01*
X217345Y165966D01*
X217312Y166080D01*
X217285Y166129D01*
X217265Y166181D01*
X217209Y166266D01*
X217209Y177544D01*
X219157Y182245D01*
X222755Y185843D01*
X227456Y187791D01*
X255000Y187791D01*
X255048Y187796D01*
X255149Y187798D01*
X256259Y187907D01*
X256358Y187929D01*
X256459Y187941D01*
X256552Y187971D01*
X256599Y187981D01*
X256632Y187997D01*
X256692Y188016D01*
X258742Y188865D01*
X258744Y188866D01*
X258746Y188867D01*
X258894Y188949D01*
X259047Y189034D01*
X259048Y189036D01*
X259050Y189037D01*
X259236Y189195D01*
X260805Y190764D01*
X260806Y190765D01*
X260808Y190767D01*
X260915Y190903D01*
X261021Y191037D01*
X261022Y191039D01*
X261024Y191040D01*
X261135Y191258D01*
X261407Y191915D01*
X261408Y191917D01*
X261409Y191919D01*
X261456Y192086D01*
X261503Y192250D01*
X261503Y192252D01*
X261504Y192254D01*
X261523Y192498D01*
X261523Y208276D01*
X261522Y208287D01*
X261523Y208298D01*
X261502Y208460D01*
X261483Y208622D01*
X261480Y208633D01*
X261478Y208644D01*
X261421Y208797D01*
X261366Y208950D01*
X261360Y208960D01*
X261356Y208970D01*
X261265Y209106D01*
X261177Y209243D01*
X261169Y209251D01*
X261163Y209260D01*
X261044Y209371D01*
X260926Y209485D01*
X260917Y209491D01*
X260908Y209499D01*
X260767Y209580D01*
X260627Y209664D01*
X260617Y209667D01*
X260607Y209673D01*
X260449Y209721D01*
X260295Y209770D01*
X260284Y209771D01*
X260273Y209774D01*
X260109Y209785D01*
X259948Y209798D01*
X259937Y209797D01*
X259925Y209797D01*
X259764Y209771D01*
X259603Y209746D01*
X259593Y209742D01*
X259582Y209740D01*
X259431Y209678D01*
X259279Y209618D01*
X259270Y209611D01*
X259260Y209607D01*
X259126Y209511D01*
X258993Y209419D01*
X258986Y209411D01*
X258976Y209404D01*
X258809Y209226D01*
X258327Y208622D01*
X256378Y206673D01*
X254223Y204954D01*
X251890Y203488D01*
X249406Y202292D01*
X246804Y201381D01*
X244117Y200768D01*
X243047Y200647D01*
X243047Y223476D01*
X243044Y223502D01*
X243046Y223528D01*
X243024Y223675D01*
X243007Y223822D01*
X242999Y223847D01*
X242995Y223873D01*
X242940Y224011D01*
X242890Y224150D01*
X242876Y224172D01*
X242866Y224197D01*
X242781Y224318D01*
X242701Y224443D01*
X242682Y224461D01*
X242667Y224483D01*
X242557Y224582D01*
X242450Y224685D01*
X242428Y224699D01*
X242408Y224716D01*
X242278Y224788D01*
X242151Y224864D01*
X242126Y224872D01*
X242103Y224885D01*
X241960Y224925D01*
X241819Y224970D01*
X241793Y224972D01*
X241768Y224979D01*
X241524Y224999D01*
X239999Y224999D01*
X239999Y226524D01*
X239996Y226550D01*
X239998Y226576D01*
X239976Y226723D01*
X239959Y226870D01*
X239950Y226895D01*
X239947Y226921D01*
X239892Y227059D01*
X239842Y227198D01*
X239827Y227220D01*
X239818Y227245D01*
X239733Y227366D01*
X239653Y227491D01*
X239634Y227509D01*
X239619Y227531D01*
X239509Y227630D01*
X239402Y227733D01*
X239380Y227747D01*
X239360Y227764D01*
X239230Y227836D01*
X239103Y227912D01*
X239078Y227920D01*
X239055Y227933D01*
X238912Y227973D01*
X238771Y228018D01*
X238745Y228020D01*
X238720Y228028D01*
X238476Y228047D01*
X215647Y228047D01*
X215768Y229117D01*
X216381Y231804D01*
X217292Y234406D01*
X218488Y236890D01*
X219954Y239223D01*
X221673Y241378D01*
X223622Y243327D01*
X225086Y244495D01*
X225094Y244503D01*
X225103Y244509D01*
X225216Y244626D01*
X225332Y244742D01*
X225338Y244752D01*
X225345Y244760D01*
X225429Y244899D01*
X225515Y245039D01*
X225519Y245049D01*
X225524Y245059D01*
X225574Y245213D01*
X225626Y245369D01*
X225627Y245380D01*
X225630Y245391D01*
X225643Y245553D01*
X225659Y245716D01*
X225658Y245727D01*
X225658Y245738D01*
X225634Y245900D01*
X225612Y246061D01*
X225608Y246072D01*
X225607Y246083D01*
X225546Y246234D01*
X225488Y246387D01*
X225482Y246396D01*
X225478Y246407D01*
X225385Y246540D01*
X225294Y246676D01*
X225285Y246684D01*
X225279Y246693D01*
X225158Y246802D01*
X225038Y246913D01*
X225029Y246919D01*
X225020Y246926D01*
X224877Y247005D01*
X224736Y247086D01*
X224725Y247089D01*
X224715Y247095D01*
X224558Y247139D01*
X224402Y247186D01*
X224391Y247187D01*
X224380Y247190D01*
X224136Y247209D01*
X190136Y247209D01*
X190036Y247198D01*
X189936Y247196D01*
X189864Y247178D01*
X189790Y247169D01*
X189695Y247135D01*
X189598Y247111D01*
X189532Y247077D01*
X189462Y247052D01*
X189377Y246997D01*
X189288Y246951D01*
X189231Y246903D01*
X189169Y246863D01*
X189099Y246791D01*
X189022Y246726D01*
X188978Y246666D01*
X188927Y246612D01*
X188875Y246526D01*
X188815Y246445D01*
X188786Y246377D01*
X188748Y246313D01*
X188717Y246217D01*
X188677Y246125D01*
X188664Y246052D01*
X188641Y245981D01*
X188633Y245881D01*
X188616Y245782D01*
X188619Y245708D01*
X188613Y245634D01*
X188628Y245534D01*
X188634Y245434D01*
X188654Y245363D01*
X188665Y245289D01*
X188702Y245196D01*
X188730Y245099D01*
X188766Y245034D01*
X188794Y244965D01*
X188851Y244883D01*
X188900Y244795D01*
X188965Y244719D01*
X188993Y244679D01*
X189019Y244655D01*
X189059Y244609D01*
X189876Y243792D01*
X190727Y241738D01*
X190727Y239514D01*
X189876Y237460D01*
X188304Y235888D01*
X186250Y235037D01*
X184026Y235037D01*
X181972Y235888D01*
X180400Y237460D01*
X180195Y237955D01*
X180158Y238021D01*
X180130Y238092D01*
X180116Y238112D01*
X180107Y238135D01*
X180062Y238194D01*
X180026Y238259D01*
X179974Y238317D01*
X179931Y238378D01*
X179914Y238394D01*
X179899Y238414D01*
X179842Y238462D01*
X179792Y238517D01*
X179727Y238562D01*
X179672Y238612D01*
X179652Y238623D01*
X179633Y238639D01*
X179567Y238673D01*
X179505Y238716D01*
X179431Y238745D01*
X179367Y238780D01*
X179346Y238786D01*
X179322Y238798D01*
X179250Y238816D01*
X179181Y238843D01*
X179102Y238855D01*
X179032Y238875D01*
X179006Y238877D01*
X178984Y238882D01*
X178929Y238883D01*
X178891Y238886D01*
X178836Y238894D01*
X178814Y238892D01*
X178788Y238894D01*
X178716Y238886D01*
X178636Y238887D01*
X178563Y238872D01*
X178489Y238865D01*
X178463Y238857D01*
X178442Y238855D01*
X178373Y238830D01*
X178295Y238813D01*
X178228Y238781D01*
X178157Y238758D01*
X178135Y238745D01*
X178113Y238737D01*
X178052Y238697D01*
X177980Y238663D01*
X177922Y238617D01*
X177859Y238579D01*
X177840Y238561D01*
X177821Y238548D01*
X177769Y238495D01*
X177708Y238446D01*
X177662Y238388D01*
X177609Y238336D01*
X177595Y238315D01*
X177578Y238297D01*
X177540Y238233D01*
X177492Y238172D01*
X177446Y238083D01*
X177420Y238043D01*
X177412Y238019D01*
X177400Y237998D01*
X177394Y237980D01*
X177381Y237955D01*
X177176Y237460D01*
X175604Y235888D01*
X173550Y235037D01*
X171326Y235037D01*
X171216Y235083D01*
X171142Y235104D01*
X171072Y235134D01*
X170975Y235152D01*
X170881Y235179D01*
X170804Y235182D01*
X170729Y235196D01*
X170631Y235191D01*
X170533Y235196D01*
X170457Y235182D01*
X170381Y235178D01*
X170286Y235151D01*
X170190Y235133D01*
X170120Y235103D01*
X170046Y235082D01*
X169960Y235034D01*
X169870Y234994D01*
X169809Y234949D01*
X169742Y234911D01*
X169628Y234815D01*
X169590Y234786D01*
X169578Y234772D01*
X169556Y234753D01*
X167870Y233067D01*
X167807Y232989D01*
X167738Y232916D01*
X167699Y232852D01*
X167653Y232794D01*
X167610Y232703D01*
X167559Y232617D01*
X167536Y232546D01*
X167504Y232479D01*
X167483Y232381D01*
X167453Y232285D01*
X167447Y232211D01*
X167431Y232138D01*
X167433Y232038D01*
X167425Y231938D01*
X167436Y231864D01*
X167437Y231790D01*
X167461Y231693D01*
X167476Y231593D01*
X167504Y231524D01*
X167522Y231452D01*
X167568Y231362D01*
X167605Y231269D01*
X167647Y231208D01*
X167681Y231142D01*
X167747Y231065D01*
X167804Y230983D01*
X167859Y230933D01*
X167907Y230877D01*
X167988Y230817D01*
X168063Y230750D01*
X168128Y230714D01*
X168188Y230669D01*
X168280Y230630D01*
X168368Y230581D01*
X168439Y230561D01*
X168508Y230531D01*
X168606Y230514D01*
X168703Y230486D01*
X168803Y230478D01*
X168851Y230470D01*
X168886Y230472D01*
X168947Y230467D01*
X177282Y230467D01*
X178078Y229671D01*
X178098Y229655D01*
X178115Y229635D01*
X178234Y229547D01*
X178351Y229455D01*
X178374Y229444D01*
X178395Y229428D01*
X178532Y229369D01*
X178666Y229306D01*
X178691Y229300D01*
X178715Y229290D01*
X178862Y229264D01*
X179006Y229233D01*
X179033Y229233D01*
X179058Y229228D01*
X179207Y229236D01*
X179355Y229239D01*
X179380Y229245D01*
X179407Y229246D01*
X179549Y229287D01*
X179693Y229324D01*
X179716Y229336D01*
X179741Y229343D01*
X179871Y229415D01*
X180003Y229483D01*
X180023Y229500D01*
X180046Y229513D01*
X180232Y229672D01*
X180766Y230205D01*
X181889Y230956D01*
X183137Y231473D01*
X183615Y231568D01*
X183615Y224878D01*
X183615Y218188D01*
X183137Y218283D01*
X181889Y218800D01*
X180766Y219551D01*
X180232Y220084D01*
X180211Y220101D01*
X180194Y220121D01*
X180075Y220209D01*
X179959Y220301D01*
X179935Y220312D01*
X179914Y220328D01*
X179778Y220386D01*
X179644Y220450D01*
X179618Y220456D01*
X179594Y220466D01*
X179448Y220492D01*
X179303Y220523D01*
X179277Y220523D01*
X179251Y220528D01*
X179102Y220520D01*
X178955Y220517D01*
X178929Y220511D01*
X178903Y220510D01*
X178760Y220469D01*
X178617Y220432D01*
X178593Y220420D01*
X178568Y220413D01*
X178439Y220341D01*
X178307Y220273D01*
X178287Y220256D01*
X178264Y220243D01*
X178078Y220085D01*
X177282Y219289D01*
X167594Y219289D01*
X166849Y220034D01*
X166849Y225495D01*
X166838Y225595D01*
X166836Y225696D01*
X166818Y225768D01*
X166809Y225842D01*
X166776Y225936D01*
X166751Y226034D01*
X166717Y226100D01*
X166692Y226170D01*
X166637Y226254D01*
X166591Y226343D01*
X166543Y226400D01*
X166503Y226463D01*
X166431Y226532D01*
X166366Y226609D01*
X166306Y226653D01*
X166252Y226705D01*
X166166Y226756D01*
X166085Y226816D01*
X166017Y226845D01*
X165953Y226884D01*
X165857Y226914D01*
X165765Y226954D01*
X165692Y226967D01*
X165621Y226990D01*
X165521Y226998D01*
X165422Y227016D01*
X165348Y227012D01*
X165274Y227018D01*
X165174Y227003D01*
X165074Y226998D01*
X165003Y226977D01*
X164929Y226966D01*
X164836Y226929D01*
X164739Y226901D01*
X164674Y226865D01*
X164605Y226837D01*
X164523Y226780D01*
X164435Y226731D01*
X164359Y226666D01*
X164319Y226638D01*
X164295Y226612D01*
X164249Y226573D01*
X162720Y225043D01*
X159352Y225043D01*
X156971Y227424D01*
X156971Y230792D01*
X159352Y233173D01*
X161595Y233173D01*
X161721Y233187D01*
X161847Y233194D01*
X161893Y233207D01*
X161941Y233213D01*
X162060Y233255D01*
X162182Y233290D01*
X162224Y233314D01*
X162269Y233330D01*
X162376Y233399D01*
X162486Y233460D01*
X162532Y233500D01*
X162562Y233519D01*
X162596Y233554D01*
X162672Y233619D01*
X166633Y237580D01*
X166680Y237639D01*
X166735Y237693D01*
X166788Y237776D01*
X166849Y237853D01*
X166882Y237922D01*
X166923Y237986D01*
X166956Y238079D01*
X166998Y238168D01*
X167014Y238242D01*
X167040Y238314D01*
X167051Y238412D01*
X167072Y238508D01*
X167070Y238585D01*
X167079Y238661D01*
X167067Y238759D01*
X167066Y238857D01*
X167047Y238931D01*
X167038Y239007D01*
X166992Y239149D01*
X166981Y239195D01*
X166972Y239212D01*
X166963Y239240D01*
X166849Y239514D01*
X166849Y241738D01*
X167700Y243792D01*
X168517Y244609D01*
X168580Y244688D01*
X168649Y244760D01*
X168688Y244824D01*
X168734Y244882D01*
X168777Y244973D01*
X168828Y245059D01*
X168851Y245130D01*
X168883Y245197D01*
X168904Y245295D01*
X168935Y245391D01*
X168941Y245465D01*
X168956Y245538D01*
X168954Y245638D01*
X168963Y245738D01*
X168951Y245812D01*
X168950Y245886D01*
X168926Y245983D01*
X168911Y246083D01*
X168883Y246152D01*
X168865Y246224D01*
X168819Y246313D01*
X168782Y246407D01*
X168740Y246468D01*
X168706Y246534D01*
X168640Y246610D01*
X168583Y246693D01*
X168528Y246743D01*
X168480Y246799D01*
X168399Y246859D01*
X168324Y246926D01*
X168259Y246962D01*
X168199Y247007D01*
X168107Y247046D01*
X168019Y247095D01*
X167948Y247115D01*
X167879Y247145D01*
X167781Y247162D01*
X167684Y247190D01*
X167584Y247198D01*
X167536Y247206D01*
X167501Y247204D01*
X167440Y247209D01*
X100076Y247209D01*
X100050Y247206D01*
X100024Y247208D01*
X99877Y247186D01*
X99730Y247169D01*
X99705Y247161D01*
X99679Y247157D01*
X99541Y247102D01*
X99402Y247052D01*
X99380Y247038D01*
X99355Y247028D01*
X99234Y246943D01*
X99109Y246863D01*
X99091Y246844D01*
X99069Y246829D01*
X98970Y246719D01*
X98867Y246612D01*
X98853Y246590D01*
X98836Y246570D01*
X98764Y246440D01*
X98688Y246313D01*
X98680Y246288D01*
X98667Y246265D01*
X98627Y246122D01*
X98582Y245981D01*
X98580Y245955D01*
X98572Y245930D01*
X98553Y245686D01*
X98553Y243281D01*
X98567Y243155D01*
X98574Y243029D01*
X98587Y242983D01*
X98593Y242935D01*
X98635Y242816D01*
X98670Y242694D01*
X98694Y242652D01*
X98710Y242607D01*
X98779Y242500D01*
X98840Y242390D01*
X98880Y242344D01*
X98899Y242314D01*
X98934Y242280D01*
X98999Y242204D01*
X99964Y241239D01*
X100063Y241160D01*
X100157Y241076D01*
X100199Y241052D01*
X100237Y241022D01*
X100351Y240968D01*
X100462Y240907D01*
X100508Y240894D01*
X100552Y240873D01*
X100675Y240847D01*
X100797Y240812D01*
X100858Y240807D01*
X100893Y240800D01*
X100941Y240801D01*
X101041Y240793D01*
X103284Y240793D01*
X105665Y238412D01*
X105665Y235044D01*
X103284Y232663D01*
X99916Y232663D01*
X97535Y235044D01*
X97535Y237287D01*
X97521Y237413D01*
X97514Y237539D01*
X97501Y237585D01*
X97495Y237633D01*
X97453Y237752D01*
X97418Y237874D01*
X97394Y237916D01*
X97378Y237961D01*
X97309Y238068D01*
X97248Y238178D01*
X97208Y238224D01*
X97189Y238254D01*
X97154Y238288D01*
X97089Y238364D01*
X96124Y239329D01*
X96025Y239408D01*
X95931Y239492D01*
X95889Y239516D01*
X95851Y239546D01*
X95737Y239600D01*
X95626Y239661D01*
X95580Y239674D01*
X95536Y239695D01*
X95413Y239721D01*
X95291Y239756D01*
X95230Y239761D01*
X95195Y239768D01*
X95147Y239767D01*
X95047Y239775D01*
X92804Y239775D01*
X90086Y242494D01*
X89969Y242587D01*
X89854Y242684D01*
X89832Y242695D01*
X89813Y242710D01*
X89677Y242774D01*
X89543Y242843D01*
X89520Y242849D01*
X89498Y242859D01*
X89351Y242891D01*
X89205Y242927D01*
X89181Y242927D01*
X89157Y242932D01*
X89007Y242930D01*
X88857Y242932D01*
X88833Y242927D01*
X88809Y242926D01*
X88663Y242890D01*
X88516Y242858D01*
X88494Y242847D01*
X88471Y242841D01*
X88337Y242773D01*
X88201Y242708D01*
X88182Y242693D01*
X88161Y242682D01*
X88046Y242584D01*
X87929Y242491D01*
X87914Y242472D01*
X87896Y242456D01*
X87806Y242335D01*
X87713Y242217D01*
X87700Y242191D01*
X87688Y242176D01*
X87670Y242132D01*
X87602Y241999D01*
X85843Y237755D01*
X82245Y234157D01*
X77544Y232209D01*
X72456Y232209D01*
X70976Y232822D01*
X70871Y232852D01*
X70769Y232891D01*
X70704Y232900D01*
X70641Y232918D01*
X70532Y232923D01*
X70424Y232938D01*
X70358Y232932D01*
X70293Y232935D01*
X70185Y232915D01*
X70077Y232905D01*
X70015Y232884D01*
X69950Y232872D01*
X69850Y232829D01*
X69747Y232794D01*
X69691Y232760D01*
X69630Y232734D01*
X69543Y232669D01*
X69450Y232611D01*
X69403Y232565D01*
X69350Y232526D01*
X69280Y232442D01*
X69203Y232366D01*
X69168Y232310D01*
X69125Y232260D01*
X69076Y232163D01*
X69018Y232070D01*
X68996Y232008D01*
X68966Y231949D01*
X68940Y231844D01*
X68905Y231741D01*
X68898Y231675D01*
X68882Y231611D01*
X68881Y231502D01*
X68870Y231394D01*
X68878Y231308D01*
X68877Y231263D01*
X68886Y231223D01*
X68893Y231151D01*
X69977Y225000D01*
X68169Y214747D01*
X62964Y205731D01*
X54989Y199039D01*
X45206Y195478D01*
X34794Y195478D01*
X25011Y199039D01*
X20979Y202422D01*
X20951Y202441D01*
X20926Y202465D01*
X20805Y202537D01*
X20688Y202614D01*
X20656Y202626D01*
X20627Y202644D01*
X20493Y202687D01*
X20361Y202735D01*
X20328Y202740D01*
X20295Y202750D01*
X20155Y202761D01*
X20016Y202779D01*
X19982Y202775D01*
X19948Y202778D01*
X19809Y202757D01*
X19669Y202742D01*
X19637Y202731D01*
X19603Y202726D01*
X19472Y202674D01*
X19340Y202628D01*
X19311Y202610D01*
X19279Y202597D01*
X19164Y202517D01*
X19045Y202442D01*
X19021Y202418D01*
X18993Y202399D01*
X18899Y202294D01*
X18800Y202194D01*
X18782Y202165D01*
X18760Y202140D01*
X18692Y202017D01*
X18618Y201897D01*
X18608Y201865D01*
X18591Y201835D01*
X18553Y201699D01*
X18509Y201566D01*
X18506Y201532D01*
X18496Y201499D01*
X18477Y201256D01*
X18477Y192498D01*
X18477Y192496D01*
X18477Y192494D01*
X18497Y192323D01*
X18517Y192152D01*
X18517Y192150D01*
X18518Y192148D01*
X18593Y191915D01*
X18865Y191258D01*
X18866Y191256D01*
X18867Y191254D01*
X18950Y191104D01*
X19034Y190953D01*
X19036Y190952D01*
X19037Y190950D01*
X19195Y190764D01*
X20764Y189195D01*
X20766Y189194D01*
X20767Y189192D01*
X20906Y189082D01*
X21037Y188979D01*
X21039Y188978D01*
X21040Y188976D01*
X21258Y188865D01*
X23308Y188016D01*
X23406Y187988D01*
X23501Y187951D01*
X23597Y187933D01*
X23643Y187920D01*
X23680Y187918D01*
X23741Y187907D01*
X24851Y187798D01*
X24899Y187799D01*
X25000Y187791D01*
X52544Y187791D01*
X57245Y185843D01*
X60843Y182245D01*
X62791Y177544D01*
X62791Y166277D01*
X62750Y166190D01*
X62691Y166086D01*
X62675Y166033D01*
X62651Y165982D01*
X62626Y165866D01*
X62593Y165752D01*
X62586Y165681D01*
X62578Y165641D01*
X62579Y165596D01*
X62571Y165508D01*
X62565Y164989D01*
X60618Y160418D01*
X57068Y156940D01*
X54571Y155934D01*
X54562Y155930D01*
X54553Y155927D01*
X54410Y155847D01*
X54264Y155768D01*
X54257Y155762D01*
X54248Y155757D01*
X54062Y155598D01*
X53573Y155109D01*
X52815Y155109D01*
X52649Y155090D01*
X52584Y155083D01*
X49995Y155109D01*
X49988Y155109D01*
X49979Y155109D01*
X43721Y155109D01*
X43646Y155101D01*
X43570Y155102D01*
X43474Y155081D01*
X43375Y155069D01*
X43304Y155044D01*
X43230Y155028D01*
X43140Y154985D01*
X43047Y154952D01*
X42983Y154911D01*
X42915Y154878D01*
X42838Y154817D01*
X42754Y154763D01*
X42702Y154708D01*
X42642Y154661D01*
X42581Y154584D01*
X42512Y154512D01*
X42473Y154447D01*
X42426Y154388D01*
X42384Y154298D01*
X42333Y154213D01*
X42310Y154141D01*
X42278Y154072D01*
X42257Y153976D01*
X42227Y153881D01*
X42221Y153806D01*
X42205Y153732D01*
X42207Y153632D01*
X42199Y153534D01*
X42210Y153459D01*
X42212Y153383D01*
X42236Y153287D01*
X42251Y153189D01*
X42279Y153119D01*
X42297Y153045D01*
X42362Y152909D01*
X42380Y152865D01*
X42390Y152850D01*
X42402Y152824D01*
X43091Y151632D01*
X43091Y148368D01*
X41455Y145534D01*
X41422Y145510D01*
X41354Y145472D01*
X41242Y145376D01*
X41204Y145348D01*
X41191Y145333D01*
X41168Y145314D01*
X40574Y144719D01*
X40557Y144698D01*
X40537Y144681D01*
X40449Y144562D01*
X40357Y144446D01*
X40346Y144422D01*
X40330Y144401D01*
X40271Y144265D01*
X40208Y144131D01*
X40202Y144105D01*
X40192Y144081D01*
X40166Y143935D01*
X40135Y143790D01*
X40135Y143764D01*
X40130Y143738D01*
X40138Y143590D01*
X40141Y143442D01*
X40147Y143416D01*
X40148Y143390D01*
X40190Y143247D01*
X40226Y143104D01*
X40238Y143080D01*
X40245Y143055D01*
X40317Y142926D01*
X40385Y142794D01*
X40402Y142774D01*
X40415Y142751D01*
X40574Y142565D01*
X41779Y141359D01*
X42521Y139569D01*
X42521Y135831D01*
X42381Y135494D01*
X42360Y135420D01*
X42330Y135350D01*
X42312Y135253D01*
X42285Y135159D01*
X42282Y135082D01*
X42268Y135007D01*
X42273Y134909D01*
X42268Y134811D01*
X42282Y134735D01*
X42286Y134659D01*
X42313Y134565D01*
X42331Y134468D01*
X42361Y134398D01*
X42383Y134324D01*
X42431Y134238D01*
X42470Y134148D01*
X42515Y134087D01*
X42553Y134020D01*
X42649Y133906D01*
X42678Y133868D01*
X42692Y133856D01*
X42711Y133834D01*
X46260Y130285D01*
X46280Y130269D01*
X46297Y130249D01*
X46417Y130161D01*
X46533Y130069D01*
X46556Y130057D01*
X46577Y130042D01*
X46714Y129983D01*
X46848Y129920D01*
X46873Y129914D01*
X46898Y129904D01*
X47044Y129877D01*
X47188Y129846D01*
X47215Y129847D01*
X47241Y129842D01*
X47389Y129850D01*
X47537Y129852D01*
X47562Y129859D01*
X47589Y129860D01*
X47731Y129901D01*
X47875Y129937D01*
X47898Y129949D01*
X47923Y129957D01*
X48053Y130029D01*
X48185Y130097D01*
X48205Y130114D01*
X48228Y130127D01*
X48414Y130285D01*
X49300Y131171D01*
X49316Y131191D01*
X49336Y131208D01*
X49424Y131328D01*
X49516Y131444D01*
X49527Y131468D01*
X49543Y131489D01*
X49602Y131625D01*
X49665Y131759D01*
X49671Y131785D01*
X49681Y131809D01*
X49707Y131955D01*
X49739Y132100D01*
X49738Y132126D01*
X49743Y132152D01*
X49735Y132300D01*
X49733Y132448D01*
X49726Y132474D01*
X49725Y132500D01*
X49684Y132642D01*
X49648Y132786D01*
X49636Y132810D01*
X49628Y132835D01*
X49556Y132964D01*
X49552Y132973D01*
X49545Y132988D01*
X49539Y132998D01*
X49488Y133096D01*
X49471Y133116D01*
X49458Y133139D01*
X49361Y133253D01*
X49347Y133274D01*
X49332Y133287D01*
X49300Y133325D01*
X48760Y133865D01*
X47729Y136353D01*
X47729Y139047D01*
X48760Y141535D01*
X50665Y143440D01*
X53153Y144471D01*
X55847Y144471D01*
X58335Y143440D01*
X60240Y141535D01*
X61271Y139047D01*
X61271Y136353D01*
X60240Y133865D01*
X59700Y133325D01*
X59684Y133305D01*
X59664Y133288D01*
X59618Y133225D01*
X59587Y133193D01*
X59561Y133149D01*
X59484Y133052D01*
X59473Y133028D01*
X59457Y133007D01*
X59398Y132871D01*
X59335Y132737D01*
X59329Y132711D01*
X59319Y132687D01*
X59293Y132541D01*
X59261Y132396D01*
X59262Y132370D01*
X59257Y132344D01*
X59265Y132196D01*
X59267Y132048D01*
X59274Y132022D01*
X59275Y131996D01*
X59316Y131854D01*
X59352Y131710D01*
X59365Y131686D01*
X59372Y131661D01*
X59444Y131532D01*
X59512Y131400D01*
X59529Y131380D01*
X59542Y131357D01*
X59700Y131171D01*
X60746Y130126D01*
X61626Y128809D01*
X62232Y127345D01*
X62395Y126523D01*
X54500Y126523D01*
X54474Y126520D01*
X54448Y126522D01*
X54301Y126500D01*
X54154Y126484D01*
X54129Y126475D01*
X54103Y126471D01*
X53966Y126416D01*
X53826Y126366D01*
X53804Y126352D01*
X53780Y126342D01*
X53658Y126258D01*
X53533Y126177D01*
X53515Y126158D01*
X53493Y126143D01*
X53394Y126033D01*
X53291Y125926D01*
X53278Y125904D01*
X53260Y125884D01*
X53188Y125754D01*
X53112Y125627D01*
X53104Y125602D01*
X53091Y125579D01*
X53051Y125436D01*
X53006Y125295D01*
X53004Y125269D01*
X52997Y125244D01*
X52977Y125000D01*
X52980Y124974D01*
X52978Y124948D01*
X53000Y124801D01*
X53017Y124654D01*
X53026Y124629D01*
X53030Y124603D01*
X53084Y124465D01*
X53134Y124326D01*
X53149Y124303D01*
X53158Y124279D01*
X53243Y124158D01*
X53323Y124033D01*
X53342Y124014D01*
X53357Y123993D01*
X53467Y123894D01*
X53574Y123791D01*
X53597Y123777D01*
X53616Y123759D01*
X53746Y123688D01*
X53873Y123612D01*
X53898Y123604D01*
X53921Y123591D01*
X54064Y123551D01*
X54205Y123505D01*
X54231Y123503D01*
X54257Y123496D01*
X54500Y123477D01*
X62395Y123477D01*
X62385Y123423D01*
X62232Y122655D01*
X61626Y121191D01*
X60746Y119874D01*
X59700Y118829D01*
X59684Y118809D01*
X59664Y118792D01*
X59576Y118673D01*
X59484Y118556D01*
X59473Y118532D01*
X59457Y118511D01*
X59398Y118375D01*
X59335Y118241D01*
X59329Y118215D01*
X59319Y118191D01*
X59293Y118045D01*
X59261Y117900D01*
X59262Y117874D01*
X59257Y117848D01*
X59265Y117700D01*
X59267Y117552D01*
X59274Y117526D01*
X59275Y117500D01*
X59316Y117357D01*
X59352Y117214D01*
X59364Y117191D01*
X59372Y117165D01*
X59444Y117036D01*
X59512Y116904D01*
X59529Y116884D01*
X59542Y116861D01*
X59700Y116675D01*
X60240Y116135D01*
X61271Y113647D01*
X61271Y111337D01*
X61282Y111237D01*
X61284Y111136D01*
X61302Y111064D01*
X61311Y110990D01*
X61344Y110896D01*
X61369Y110798D01*
X61403Y110732D01*
X61428Y110662D01*
X61483Y110578D01*
X61529Y110489D01*
X61577Y110432D01*
X61617Y110369D01*
X61689Y110300D01*
X61754Y110223D01*
X61814Y110179D01*
X61868Y110127D01*
X61954Y110076D01*
X62035Y110016D01*
X62103Y109987D01*
X62167Y109948D01*
X62263Y109918D01*
X62355Y109878D01*
X62428Y109865D01*
X62499Y109842D01*
X62599Y109834D01*
X62698Y109816D01*
X62772Y109820D01*
X62846Y109814D01*
X62946Y109829D01*
X63046Y109834D01*
X63117Y109855D01*
X63191Y109866D01*
X63284Y109903D01*
X63381Y109931D01*
X63446Y109967D01*
X63515Y109995D01*
X63597Y110052D01*
X63685Y110101D01*
X63761Y110166D01*
X63801Y110194D01*
X63825Y110220D01*
X63871Y110259D01*
X65372Y111761D01*
X68740Y111761D01*
X71121Y109380D01*
X71121Y106012D01*
X68740Y103631D01*
X66497Y103631D01*
X66371Y103617D01*
X66245Y103610D01*
X66199Y103597D01*
X66151Y103591D01*
X66032Y103549D01*
X65910Y103514D01*
X65868Y103490D01*
X65823Y103474D01*
X65716Y103405D01*
X65606Y103344D01*
X65560Y103304D01*
X65530Y103285D01*
X65496Y103250D01*
X65420Y103185D01*
X63439Y101204D01*
X63360Y101105D01*
X63276Y101011D01*
X63252Y100969D01*
X63222Y100931D01*
X63168Y100817D01*
X63107Y100706D01*
X63094Y100660D01*
X63073Y100616D01*
X63047Y100493D01*
X63012Y100371D01*
X63007Y100310D01*
X63000Y100275D01*
X63001Y100227D01*
X62993Y100127D01*
X62993Y97884D01*
X60612Y95503D01*
X58306Y95503D01*
X58199Y95491D01*
X58091Y95488D01*
X58026Y95471D01*
X57960Y95463D01*
X57858Y95427D01*
X57754Y95400D01*
X57695Y95368D01*
X57632Y95346D01*
X57541Y95287D01*
X57446Y95237D01*
X57395Y95193D01*
X57339Y95157D01*
X57264Y95079D01*
X57183Y95008D01*
X57143Y94954D01*
X57097Y94906D01*
X57042Y94813D01*
X56978Y94726D01*
X56952Y94664D01*
X56918Y94607D01*
X56885Y94504D01*
X56843Y94405D01*
X56832Y94339D01*
X56812Y94275D01*
X56803Y94167D01*
X56785Y94061D01*
X56789Y93994D01*
X56784Y93928D01*
X56800Y93821D01*
X56807Y93713D01*
X56826Y93649D01*
X56836Y93583D01*
X56876Y93483D01*
X56907Y93379D01*
X56940Y93321D01*
X56964Y93259D01*
X57026Y93171D01*
X57080Y93077D01*
X57138Y93010D01*
X57163Y92973D01*
X57193Y92946D01*
X57240Y92892D01*
X60618Y89582D01*
X62565Y85011D01*
X62571Y84492D01*
X62585Y84374D01*
X62592Y84255D01*
X62607Y84201D01*
X62614Y84146D01*
X62655Y84034D01*
X62688Y83920D01*
X62715Y83871D01*
X62735Y83819D01*
X62791Y83734D01*
X62791Y72456D01*
X60843Y67755D01*
X57245Y64157D01*
X52544Y62209D01*
X25000Y62209D01*
X24952Y62204D01*
X24851Y62202D01*
X23741Y62093D01*
X23642Y62071D01*
X23541Y62059D01*
X23447Y62029D01*
X23401Y62019D01*
X23368Y62003D01*
X23308Y61984D01*
X21258Y61135D01*
X21256Y61134D01*
X21254Y61133D01*
X21106Y61051D01*
X20953Y60966D01*
X20952Y60964D01*
X20950Y60963D01*
X20764Y60805D01*
X19195Y59236D01*
X19194Y59234D01*
X19192Y59233D01*
X19085Y59097D01*
X18979Y58963D01*
X18978Y58961D01*
X18976Y58960D01*
X18865Y58742D01*
X18593Y58085D01*
X18592Y58083D01*
X18591Y58081D01*
X18545Y57916D01*
X18497Y57749D01*
X18497Y57747D01*
X18496Y57745D01*
X18477Y57502D01*
X18477Y48744D01*
X18481Y48711D01*
X18478Y48677D01*
X18501Y48538D01*
X18517Y48398D01*
X18528Y48366D01*
X18534Y48333D01*
X18587Y48202D01*
X18634Y48070D01*
X18653Y48042D01*
X18666Y48010D01*
X18747Y47895D01*
X18823Y47777D01*
X18848Y47754D01*
X18867Y47726D01*
X18973Y47633D01*
X19074Y47535D01*
X19103Y47518D01*
X19129Y47495D01*
X19252Y47428D01*
X19373Y47356D01*
X19405Y47346D01*
X19435Y47330D01*
X19571Y47293D01*
X19705Y47250D01*
X19739Y47247D01*
X19772Y47238D01*
X19912Y47233D01*
X20052Y47222D01*
X20086Y47227D01*
X20120Y47226D01*
X20258Y47253D01*
X20397Y47274D01*
X20428Y47286D01*
X20462Y47293D01*
X20590Y47351D01*
X20721Y47402D01*
X20749Y47422D01*
X20780Y47436D01*
X20979Y47578D01*
X25011Y50961D01*
X34794Y54522D01*
X45206Y54522D01*
X54989Y50961D01*
X62964Y44269D01*
X68169Y35253D01*
X69977Y25000D01*
X68169Y14747D01*
X62964Y5731D01*
X62666Y5481D01*
X62551Y5360D01*
X62436Y5240D01*
X62432Y5233D01*
X62426Y5228D01*
X62342Y5083D01*
X62257Y4941D01*
X62254Y4934D01*
X62250Y4927D01*
X62201Y4767D01*
X62150Y4609D01*
X62150Y4601D01*
X62148Y4594D01*
X62136Y4427D01*
X62123Y4262D01*
X62124Y4254D01*
X62123Y4246D01*
X62150Y4081D01*
X62174Y3917D01*
X62177Y3910D01*
X62178Y3902D01*
X62241Y3748D01*
X62303Y3593D01*
X62307Y3587D01*
X62310Y3580D01*
X62407Y3444D01*
X62502Y3307D01*
X62508Y3302D01*
X62512Y3296D01*
X62638Y3185D01*
X62761Y3074D01*
X62767Y3070D01*
X62773Y3065D01*
X62920Y2985D01*
X63066Y2905D01*
X63073Y2903D01*
X63080Y2899D01*
X63241Y2855D01*
X63401Y2810D01*
X63410Y2810D01*
X63416Y2808D01*
X63443Y2807D01*
X63645Y2791D01*
X224136Y2791D01*
X224147Y2792D01*
G37*
%LPC*%
G36*
X146144Y45719D02*
X146144Y45719D01*
X143763Y48100D01*
X143763Y50343D01*
X143749Y50469D01*
X143742Y50595D01*
X143729Y50641D01*
X143723Y50689D01*
X143681Y50808D01*
X143646Y50930D01*
X143622Y50972D01*
X143606Y51017D01*
X143537Y51124D01*
X143476Y51234D01*
X143436Y51280D01*
X143417Y51310D01*
X143382Y51344D01*
X143317Y51420D01*
X132816Y61921D01*
X132795Y61938D01*
X132778Y61958D01*
X132659Y62046D01*
X132543Y62138D01*
X132519Y62149D01*
X132498Y62165D01*
X132362Y62224D01*
X132228Y62287D01*
X132202Y62292D01*
X132178Y62303D01*
X132032Y62329D01*
X131887Y62360D01*
X131861Y62360D01*
X131835Y62364D01*
X131687Y62357D01*
X131539Y62354D01*
X131513Y62348D01*
X131487Y62347D01*
X131345Y62305D01*
X131201Y62269D01*
X131177Y62257D01*
X131152Y62250D01*
X131023Y62178D01*
X130891Y62110D01*
X130871Y62093D01*
X130848Y62080D01*
X130662Y61921D01*
X128176Y59435D01*
X124808Y59435D01*
X122427Y61816D01*
X122427Y64059D01*
X122413Y64185D01*
X122406Y64311D01*
X122393Y64357D01*
X122387Y64405D01*
X122345Y64524D01*
X122310Y64646D01*
X122286Y64688D01*
X122270Y64733D01*
X122201Y64840D01*
X122140Y64950D01*
X122100Y64996D01*
X122081Y65026D01*
X122046Y65060D01*
X121981Y65136D01*
X121016Y66101D01*
X120917Y66180D01*
X120823Y66264D01*
X120781Y66288D01*
X120743Y66318D01*
X120629Y66372D01*
X120518Y66433D01*
X120472Y66446D01*
X120428Y66467D01*
X120305Y66493D01*
X120183Y66528D01*
X120122Y66533D01*
X120087Y66540D01*
X120039Y66539D01*
X119939Y66547D01*
X117696Y66547D01*
X115315Y68928D01*
X115315Y72296D01*
X117039Y74020D01*
X117056Y74040D01*
X117076Y74057D01*
X117164Y74177D01*
X117256Y74293D01*
X117267Y74316D01*
X117283Y74338D01*
X117342Y74474D01*
X117405Y74608D01*
X117410Y74634D01*
X117421Y74658D01*
X117447Y74804D01*
X117478Y74949D01*
X117478Y74975D01*
X117482Y75001D01*
X117475Y75149D01*
X117472Y75297D01*
X117466Y75322D01*
X117465Y75349D01*
X117423Y75491D01*
X117387Y75635D01*
X117375Y75658D01*
X117368Y75684D01*
X117296Y75813D01*
X117228Y75945D01*
X117211Y75965D01*
X117198Y75988D01*
X117039Y76174D01*
X99680Y93533D01*
X98043Y95170D01*
X98043Y101934D01*
X102169Y106060D01*
X102248Y106159D01*
X102332Y106253D01*
X102356Y106295D01*
X102386Y106333D01*
X102440Y106447D01*
X102501Y106558D01*
X102514Y106604D01*
X102535Y106648D01*
X102561Y106771D01*
X102596Y106893D01*
X102601Y106954D01*
X102608Y106989D01*
X102607Y107037D01*
X102615Y107137D01*
X102615Y109380D01*
X104996Y111761D01*
X108364Y111761D01*
X110745Y109380D01*
X110745Y106012D01*
X108426Y103693D01*
X108409Y103673D01*
X108389Y103656D01*
X108301Y103536D01*
X108209Y103420D01*
X108198Y103396D01*
X108182Y103375D01*
X108123Y103239D01*
X108060Y103105D01*
X108054Y103079D01*
X108044Y103055D01*
X108018Y102909D01*
X107987Y102764D01*
X107987Y102738D01*
X107982Y102712D01*
X107990Y102564D01*
X107993Y102416D01*
X107999Y102390D01*
X108000Y102364D01*
X108041Y102222D01*
X108078Y102078D01*
X108090Y102055D01*
X108097Y102029D01*
X108169Y101900D01*
X108237Y101768D01*
X108254Y101748D01*
X108267Y101725D01*
X108426Y101539D01*
X109221Y100744D01*
X109221Y98501D01*
X109235Y98375D01*
X109242Y98249D01*
X109255Y98203D01*
X109261Y98155D01*
X109303Y98036D01*
X109338Y97914D01*
X109362Y97872D01*
X109378Y97827D01*
X109447Y97720D01*
X109508Y97610D01*
X109548Y97564D01*
X109567Y97534D01*
X109602Y97500D01*
X109667Y97424D01*
X113680Y93411D01*
X113779Y93332D01*
X113873Y93248D01*
X113915Y93224D01*
X113953Y93194D01*
X114067Y93140D01*
X114178Y93079D01*
X114224Y93066D01*
X114268Y93045D01*
X114391Y93019D01*
X114513Y92984D01*
X114574Y92979D01*
X114609Y92972D01*
X114657Y92973D01*
X114757Y92965D01*
X116557Y92965D01*
X116657Y92976D01*
X116758Y92978D01*
X116830Y92996D01*
X116904Y93005D01*
X116998Y93038D01*
X117096Y93063D01*
X117162Y93097D01*
X117232Y93122D01*
X117316Y93177D01*
X117405Y93223D01*
X117462Y93271D01*
X117525Y93311D01*
X117594Y93383D01*
X117671Y93448D01*
X117715Y93508D01*
X117767Y93562D01*
X117818Y93648D01*
X117878Y93729D01*
X117907Y93797D01*
X117946Y93861D01*
X117976Y93957D01*
X118016Y94049D01*
X118029Y94122D01*
X118052Y94193D01*
X118060Y94293D01*
X118078Y94392D01*
X118074Y94466D01*
X118080Y94540D01*
X118065Y94640D01*
X118060Y94740D01*
X118039Y94811D01*
X118028Y94885D01*
X117991Y94978D01*
X117963Y95075D01*
X117927Y95140D01*
X117899Y95209D01*
X117842Y95291D01*
X117793Y95379D01*
X117728Y95455D01*
X117700Y95495D01*
X117674Y95519D01*
X117635Y95565D01*
X115823Y97376D01*
X115823Y100744D01*
X118204Y103125D01*
X121572Y103125D01*
X123891Y100806D01*
X123911Y100789D01*
X123928Y100769D01*
X124048Y100681D01*
X124164Y100589D01*
X124188Y100578D01*
X124209Y100562D01*
X124345Y100503D01*
X124479Y100440D01*
X124505Y100434D01*
X124529Y100424D01*
X124675Y100398D01*
X124820Y100367D01*
X124846Y100367D01*
X124872Y100362D01*
X125020Y100370D01*
X125168Y100373D01*
X125194Y100379D01*
X125220Y100380D01*
X125362Y100421D01*
X125506Y100458D01*
X125529Y100470D01*
X125555Y100477D01*
X125684Y100549D01*
X125816Y100617D01*
X125836Y100634D01*
X125859Y100647D01*
X126045Y100806D01*
X128364Y103125D01*
X131732Y103125D01*
X134113Y100744D01*
X134113Y97376D01*
X131732Y94995D01*
X131572Y94995D01*
X131546Y94992D01*
X131520Y94994D01*
X131373Y94972D01*
X131226Y94955D01*
X131201Y94947D01*
X131175Y94943D01*
X131037Y94888D01*
X130898Y94838D01*
X130876Y94824D01*
X130851Y94814D01*
X130730Y94729D01*
X130605Y94649D01*
X130587Y94630D01*
X130565Y94615D01*
X130466Y94505D01*
X130363Y94398D01*
X130349Y94376D01*
X130332Y94356D01*
X130260Y94226D01*
X130184Y94099D01*
X130176Y94074D01*
X130163Y94051D01*
X130123Y93908D01*
X130078Y93767D01*
X130076Y93741D01*
X130068Y93716D01*
X130049Y93472D01*
X130049Y89916D01*
X130052Y89890D01*
X130050Y89864D01*
X130072Y89717D01*
X130089Y89570D01*
X130097Y89545D01*
X130101Y89519D01*
X130156Y89381D01*
X130206Y89242D01*
X130220Y89220D01*
X130230Y89195D01*
X130315Y89074D01*
X130395Y88949D01*
X130414Y88931D01*
X130429Y88909D01*
X130539Y88810D01*
X130646Y88707D01*
X130668Y88693D01*
X130688Y88676D01*
X130818Y88604D01*
X130945Y88528D01*
X130970Y88520D01*
X130993Y88507D01*
X131136Y88467D01*
X131277Y88422D01*
X131303Y88420D01*
X131328Y88412D01*
X131572Y88393D01*
X134780Y88393D01*
X137012Y86161D01*
X137032Y86144D01*
X137049Y86124D01*
X137169Y86036D01*
X137285Y85944D01*
X137308Y85933D01*
X137330Y85917D01*
X137466Y85858D01*
X137600Y85795D01*
X137626Y85790D01*
X137650Y85779D01*
X137796Y85753D01*
X137941Y85722D01*
X137967Y85722D01*
X137993Y85718D01*
X138141Y85725D01*
X138289Y85728D01*
X138314Y85734D01*
X138341Y85735D01*
X138483Y85777D01*
X138627Y85813D01*
X138650Y85825D01*
X138675Y85832D01*
X138805Y85905D01*
X138937Y85972D01*
X138957Y85989D01*
X138980Y86002D01*
X139166Y86161D01*
X158557Y105552D01*
X158636Y105651D01*
X158720Y105745D01*
X158744Y105787D01*
X158774Y105825D01*
X158828Y105939D01*
X158889Y106050D01*
X158902Y106096D01*
X158923Y106140D01*
X158949Y106263D01*
X158984Y106385D01*
X158989Y106446D01*
X158996Y106481D01*
X158995Y106529D01*
X159003Y106629D01*
X159003Y109479D01*
X158992Y109579D01*
X158990Y109679D01*
X158972Y109751D01*
X158963Y109825D01*
X158930Y109920D01*
X158905Y110017D01*
X158871Y110083D01*
X158846Y110153D01*
X158791Y110238D01*
X158745Y110327D01*
X158697Y110383D01*
X158657Y110446D01*
X158585Y110516D01*
X158520Y110592D01*
X158460Y110636D01*
X158406Y110688D01*
X158320Y110740D01*
X158239Y110799D01*
X158171Y110829D01*
X158107Y110867D01*
X158012Y110897D01*
X157919Y110937D01*
X157846Y110950D01*
X157775Y110973D01*
X157675Y110981D01*
X157576Y110999D01*
X157502Y110995D01*
X157428Y111001D01*
X157329Y110986D01*
X157228Y110981D01*
X157157Y110960D01*
X157083Y110949D01*
X156990Y110912D01*
X156893Y110884D01*
X156828Y110848D01*
X156759Y110821D01*
X156677Y110763D01*
X156589Y110714D01*
X156513Y110649D01*
X156473Y110622D01*
X156449Y110595D01*
X156403Y110556D01*
X156187Y110340D01*
X152173Y108677D01*
X147827Y108677D01*
X143813Y110340D01*
X140740Y113413D01*
X139077Y117427D01*
X139077Y118364D01*
X139074Y118390D01*
X139076Y118416D01*
X139054Y118563D01*
X139037Y118710D01*
X139029Y118735D01*
X139025Y118761D01*
X138970Y118899D01*
X138920Y119038D01*
X138906Y119060D01*
X138896Y119085D01*
X138811Y119206D01*
X138731Y119331D01*
X138712Y119349D01*
X138697Y119371D01*
X138587Y119470D01*
X138480Y119573D01*
X138458Y119587D01*
X138438Y119604D01*
X138308Y119676D01*
X138181Y119752D01*
X138156Y119760D01*
X138133Y119773D01*
X137990Y119813D01*
X137849Y119858D01*
X137823Y119860D01*
X137798Y119868D01*
X137554Y119887D01*
X135585Y119887D01*
X135459Y119873D01*
X135333Y119866D01*
X135287Y119853D01*
X135239Y119847D01*
X135120Y119805D01*
X134998Y119770D01*
X134956Y119746D01*
X134911Y119730D01*
X134804Y119661D01*
X134694Y119600D01*
X134648Y119560D01*
X134618Y119541D01*
X134584Y119506D01*
X134508Y119441D01*
X133543Y118476D01*
X133464Y118377D01*
X133380Y118283D01*
X133356Y118241D01*
X133326Y118203D01*
X133272Y118089D01*
X133211Y117978D01*
X133198Y117932D01*
X133177Y117888D01*
X133151Y117765D01*
X133116Y117643D01*
X133111Y117582D01*
X133104Y117547D01*
X133105Y117499D01*
X133097Y117399D01*
X133097Y115156D01*
X130716Y112775D01*
X127348Y112775D01*
X124967Y115156D01*
X124967Y118364D01*
X124964Y118390D01*
X124966Y118416D01*
X124944Y118563D01*
X124927Y118710D01*
X124919Y118735D01*
X124915Y118761D01*
X124860Y118899D01*
X124810Y119038D01*
X124796Y119060D01*
X124786Y119085D01*
X124701Y119206D01*
X124621Y119331D01*
X124602Y119349D01*
X124587Y119371D01*
X124477Y119470D01*
X124370Y119573D01*
X124348Y119587D01*
X124328Y119604D01*
X124198Y119676D01*
X124071Y119752D01*
X124046Y119760D01*
X124023Y119773D01*
X123880Y119813D01*
X123739Y119858D01*
X123713Y119860D01*
X123688Y119868D01*
X123444Y119887D01*
X120236Y119887D01*
X117855Y122268D01*
X117855Y123952D01*
X117852Y123978D01*
X117854Y124004D01*
X117832Y124151D01*
X117815Y124298D01*
X117807Y124323D01*
X117803Y124349D01*
X117748Y124487D01*
X117698Y124626D01*
X117684Y124648D01*
X117674Y124673D01*
X117589Y124794D01*
X117509Y124919D01*
X117490Y124937D01*
X117475Y124959D01*
X117365Y125058D01*
X117258Y125161D01*
X117236Y125175D01*
X117216Y125192D01*
X117086Y125264D01*
X116959Y125340D01*
X116934Y125348D01*
X116911Y125361D01*
X116768Y125401D01*
X116627Y125446D01*
X116601Y125448D01*
X116576Y125456D01*
X116332Y125475D01*
X114648Y125475D01*
X112267Y127856D01*
X112267Y131224D01*
X112975Y131932D01*
X112992Y131952D01*
X113012Y131969D01*
X113100Y132089D01*
X113192Y132205D01*
X113203Y132228D01*
X113219Y132250D01*
X113278Y132386D01*
X113341Y132520D01*
X113346Y132546D01*
X113357Y132570D01*
X113383Y132716D01*
X113414Y132861D01*
X113414Y132887D01*
X113418Y132913D01*
X113411Y133061D01*
X113408Y133209D01*
X113402Y133234D01*
X113401Y133261D01*
X113359Y133403D01*
X113323Y133547D01*
X113311Y133570D01*
X113304Y133596D01*
X113232Y133725D01*
X113164Y133857D01*
X113147Y133877D01*
X113134Y133900D01*
X112975Y134086D01*
X112888Y134173D01*
X112789Y134252D01*
X112695Y134336D01*
X112653Y134360D01*
X112615Y134390D01*
X112501Y134444D01*
X112390Y134505D01*
X112344Y134518D01*
X112300Y134539D01*
X112177Y134565D01*
X112055Y134600D01*
X111994Y134605D01*
X111959Y134612D01*
X111911Y134611D01*
X111811Y134619D01*
X109568Y134619D01*
X107503Y136684D01*
X107483Y136701D01*
X107466Y136721D01*
X107346Y136809D01*
X107230Y136901D01*
X107206Y136912D01*
X107185Y136928D01*
X107049Y136987D01*
X106915Y137050D01*
X106889Y137056D01*
X106865Y137066D01*
X106719Y137092D01*
X106574Y137123D01*
X106548Y137123D01*
X106522Y137128D01*
X106374Y137120D01*
X106226Y137117D01*
X106200Y137111D01*
X106174Y137110D01*
X106032Y137069D01*
X105888Y137032D01*
X105865Y137020D01*
X105839Y137013D01*
X105710Y136941D01*
X105578Y136873D01*
X105558Y136856D01*
X105535Y136843D01*
X105349Y136684D01*
X104079Y135414D01*
X104000Y135315D01*
X103916Y135222D01*
X103892Y135179D01*
X103862Y135141D01*
X103808Y135027D01*
X103747Y134917D01*
X103734Y134870D01*
X103713Y134826D01*
X103687Y134703D01*
X103652Y134581D01*
X103647Y134520D01*
X103640Y134486D01*
X103641Y134438D01*
X103633Y134337D01*
X103633Y132871D01*
X103647Y132745D01*
X103654Y132619D01*
X103667Y132572D01*
X103673Y132524D01*
X103715Y132405D01*
X103750Y132284D01*
X103774Y132242D01*
X103790Y132196D01*
X103859Y132090D01*
X103920Y131980D01*
X103960Y131934D01*
X103979Y131904D01*
X104014Y131870D01*
X104079Y131794D01*
X105665Y130208D01*
X105665Y126840D01*
X103284Y124459D01*
X99916Y124459D01*
X97535Y126840D01*
X97535Y130208D01*
X99121Y131794D01*
X99200Y131893D01*
X99284Y131986D01*
X99308Y132029D01*
X99338Y132067D01*
X99392Y132181D01*
X99453Y132291D01*
X99466Y132338D01*
X99487Y132382D01*
X99513Y132505D01*
X99548Y132627D01*
X99553Y132688D01*
X99560Y132722D01*
X99559Y132770D01*
X99567Y132871D01*
X99567Y134337D01*
X99553Y134463D01*
X99546Y134589D01*
X99533Y134636D01*
X99527Y134684D01*
X99485Y134802D01*
X99450Y134924D01*
X99426Y134966D01*
X99410Y135012D01*
X99341Y135118D01*
X99280Y135228D01*
X99240Y135274D01*
X99221Y135304D01*
X99186Y135338D01*
X99121Y135414D01*
X97535Y137000D01*
X97535Y140368D01*
X99916Y142749D01*
X103284Y142749D01*
X105349Y140684D01*
X105370Y140667D01*
X105386Y140647D01*
X105506Y140559D01*
X105622Y140467D01*
X105646Y140456D01*
X105667Y140440D01*
X105803Y140381D01*
X105937Y140318D01*
X105963Y140312D01*
X105987Y140302D01*
X106133Y140276D01*
X106278Y140245D01*
X106304Y140245D01*
X106330Y140240D01*
X106478Y140248D01*
X106626Y140251D01*
X106652Y140257D01*
X106678Y140258D01*
X106820Y140299D01*
X106964Y140336D01*
X106987Y140348D01*
X107013Y140355D01*
X107142Y140427D01*
X107274Y140495D01*
X107294Y140512D01*
X107317Y140525D01*
X107503Y140684D01*
X109568Y142749D01*
X112154Y142749D01*
X112180Y142752D01*
X112206Y142750D01*
X112353Y142772D01*
X112500Y142789D01*
X112525Y142797D01*
X112551Y142801D01*
X112689Y142856D01*
X112828Y142906D01*
X112850Y142920D01*
X112875Y142930D01*
X112996Y143015D01*
X113121Y143095D01*
X113139Y143114D01*
X113161Y143129D01*
X113260Y143239D01*
X113363Y143346D01*
X113377Y143368D01*
X113394Y143388D01*
X113466Y143518D01*
X113542Y143645D01*
X113550Y143670D01*
X113563Y143693D01*
X113603Y143836D01*
X113648Y143977D01*
X113650Y144003D01*
X113658Y144028D01*
X113677Y144272D01*
X113677Y147173D01*
X115340Y151187D01*
X118413Y154260D01*
X122427Y155923D01*
X126773Y155923D01*
X130787Y154260D01*
X133860Y151187D01*
X135523Y147173D01*
X135523Y142827D01*
X133860Y138813D01*
X131523Y136476D01*
X131506Y136455D01*
X131487Y136438D01*
X131398Y136319D01*
X131306Y136203D01*
X131295Y136179D01*
X131279Y136158D01*
X131221Y136022D01*
X131157Y135888D01*
X131152Y135862D01*
X131141Y135838D01*
X131115Y135692D01*
X131084Y135547D01*
X131084Y135521D01*
X131080Y135495D01*
X131087Y135346D01*
X131090Y135199D01*
X131096Y135173D01*
X131098Y135147D01*
X131139Y135004D01*
X131175Y134861D01*
X131187Y134837D01*
X131194Y134812D01*
X131267Y134682D01*
X131335Y134551D01*
X131351Y134531D01*
X131364Y134508D01*
X131523Y134322D01*
X133097Y132748D01*
X133097Y129540D01*
X133100Y129514D01*
X133098Y129488D01*
X133120Y129341D01*
X133137Y129194D01*
X133145Y129169D01*
X133149Y129143D01*
X133204Y129005D01*
X133254Y128866D01*
X133268Y128844D01*
X133278Y128819D01*
X133363Y128698D01*
X133443Y128573D01*
X133462Y128555D01*
X133477Y128533D01*
X133587Y128434D01*
X133694Y128331D01*
X133716Y128317D01*
X133736Y128300D01*
X133866Y128228D01*
X133993Y128152D01*
X134018Y128144D01*
X134041Y128131D01*
X134184Y128091D01*
X134325Y128046D01*
X134351Y128044D01*
X134376Y128036D01*
X134620Y128017D01*
X137828Y128017D01*
X139322Y126523D01*
X139342Y126506D01*
X139359Y126487D01*
X139478Y126398D01*
X139595Y126306D01*
X139618Y126295D01*
X139639Y126279D01*
X139776Y126221D01*
X139910Y126157D01*
X139935Y126152D01*
X139959Y126141D01*
X140106Y126115D01*
X140250Y126084D01*
X140276Y126084D01*
X140302Y126080D01*
X140451Y126087D01*
X140599Y126090D01*
X140624Y126096D01*
X140650Y126098D01*
X140793Y126139D01*
X140937Y126175D01*
X140960Y126187D01*
X140985Y126194D01*
X141115Y126267D01*
X141247Y126335D01*
X141267Y126351D01*
X141290Y126364D01*
X141476Y126523D01*
X143813Y128860D01*
X147827Y130523D01*
X152173Y130523D01*
X156187Y128860D01*
X159260Y125787D01*
X160923Y121773D01*
X160923Y117427D01*
X159161Y113174D01*
X159147Y113125D01*
X159125Y113080D01*
X159099Y112958D01*
X159065Y112838D01*
X159063Y112788D01*
X159052Y112739D01*
X159054Y112614D01*
X159048Y112490D01*
X159057Y112441D01*
X159058Y112390D01*
X159088Y112270D01*
X159111Y112148D01*
X159131Y112101D01*
X159143Y112052D01*
X159200Y111942D01*
X159250Y111828D01*
X159280Y111787D01*
X159303Y111743D01*
X159383Y111648D01*
X159457Y111548D01*
X159496Y111516D01*
X159529Y111477D01*
X159629Y111403D01*
X159723Y111323D01*
X159768Y111300D01*
X159809Y111270D01*
X159923Y111221D01*
X160034Y111164D01*
X160083Y111152D01*
X160129Y111132D01*
X160251Y111110D01*
X160372Y111080D01*
X160422Y111079D01*
X160472Y111070D01*
X160596Y111077D01*
X160720Y111075D01*
X160770Y111086D01*
X160820Y111088D01*
X160940Y111123D01*
X161061Y111149D01*
X161106Y111171D01*
X161155Y111185D01*
X161263Y111246D01*
X161278Y111253D01*
X164752Y111253D01*
X167133Y108872D01*
X167133Y105504D01*
X164752Y103123D01*
X162509Y103123D01*
X162383Y103109D01*
X162257Y103102D01*
X162211Y103089D01*
X162163Y103083D01*
X162044Y103041D01*
X161922Y103006D01*
X161880Y102982D01*
X161835Y102966D01*
X161728Y102897D01*
X161618Y102836D01*
X161572Y102796D01*
X161542Y102777D01*
X161508Y102742D01*
X161432Y102677D01*
X142179Y83424D01*
X142100Y83325D01*
X142016Y83231D01*
X141992Y83189D01*
X141962Y83151D01*
X141908Y83037D01*
X141847Y82926D01*
X141834Y82880D01*
X141813Y82836D01*
X141787Y82713D01*
X141752Y82591D01*
X141747Y82530D01*
X141740Y82495D01*
X141741Y82447D01*
X141733Y82347D01*
X141733Y80547D01*
X141747Y80421D01*
X141754Y80295D01*
X141767Y80248D01*
X141773Y80200D01*
X141815Y80081D01*
X141850Y79960D01*
X141874Y79918D01*
X141890Y79872D01*
X141959Y79766D01*
X142020Y79656D01*
X142060Y79610D01*
X142079Y79580D01*
X142114Y79546D01*
X142179Y79470D01*
X143765Y77884D01*
X143765Y74516D01*
X141533Y72284D01*
X141516Y72264D01*
X141496Y72247D01*
X141408Y72127D01*
X141316Y72011D01*
X141305Y71988D01*
X141289Y71966D01*
X141230Y71830D01*
X141167Y71696D01*
X141162Y71670D01*
X141151Y71646D01*
X141125Y71500D01*
X141094Y71355D01*
X141094Y71329D01*
X141090Y71303D01*
X141097Y71155D01*
X141100Y71007D01*
X141106Y70982D01*
X141107Y70955D01*
X141149Y70813D01*
X141185Y70669D01*
X141197Y70646D01*
X141204Y70620D01*
X141276Y70491D01*
X141344Y70359D01*
X141361Y70339D01*
X141374Y70316D01*
X141533Y70130D01*
X143144Y68519D01*
X143243Y68440D01*
X143337Y68356D01*
X143379Y68332D01*
X143417Y68302D01*
X143531Y68248D01*
X143642Y68187D01*
X143688Y68174D01*
X143732Y68153D01*
X143855Y68127D01*
X143977Y68092D01*
X144038Y68087D01*
X144073Y68080D01*
X144121Y68081D01*
X144221Y68073D01*
X146464Y68073D01*
X148845Y65692D01*
X148845Y62259D01*
X148859Y62133D01*
X148866Y62007D01*
X148879Y61960D01*
X148885Y61912D01*
X148927Y61793D01*
X148962Y61672D01*
X148986Y61630D01*
X149002Y61584D01*
X149071Y61478D01*
X149132Y61368D01*
X149172Y61322D01*
X149191Y61292D01*
X149226Y61258D01*
X149291Y61182D01*
X151893Y58580D01*
X151893Y55212D01*
X151098Y54417D01*
X151081Y54397D01*
X151061Y54380D01*
X150973Y54260D01*
X150881Y54144D01*
X150870Y54120D01*
X150854Y54099D01*
X150795Y53963D01*
X150732Y53829D01*
X150726Y53803D01*
X150716Y53779D01*
X150690Y53633D01*
X150659Y53488D01*
X150659Y53462D01*
X150654Y53436D01*
X150662Y53288D01*
X150665Y53140D01*
X150671Y53114D01*
X150672Y53088D01*
X150713Y52946D01*
X150750Y52802D01*
X150762Y52779D01*
X150769Y52753D01*
X150841Y52624D01*
X150909Y52492D01*
X150926Y52472D01*
X150939Y52449D01*
X151098Y52263D01*
X151893Y51468D01*
X151893Y48100D01*
X149512Y45719D01*
X146144Y45719D01*
G37*
%LPD*%
%LPC*%
G36*
X175351Y147193D02*
X175351Y147193D01*
X175332Y147211D01*
X175317Y147233D01*
X175207Y147332D01*
X175100Y147435D01*
X175077Y147449D01*
X175058Y147466D01*
X174928Y147538D01*
X174801Y147614D01*
X174776Y147622D01*
X174753Y147635D01*
X174610Y147675D01*
X174469Y147720D01*
X174443Y147722D01*
X174418Y147730D01*
X174174Y147749D01*
X163491Y147749D01*
X163507Y147855D01*
X164101Y149680D01*
X164972Y151390D01*
X166100Y152943D01*
X167457Y154300D01*
X169010Y155428D01*
X170720Y156299D01*
X172552Y156895D01*
X172585Y156910D01*
X172620Y156919D01*
X172744Y156982D01*
X172869Y157040D01*
X172898Y157062D01*
X172930Y157078D01*
X173035Y157168D01*
X173145Y157253D01*
X173168Y157281D01*
X173195Y157304D01*
X173278Y157416D01*
X173365Y157523D01*
X173381Y157556D01*
X173402Y157584D01*
X173457Y157712D01*
X173518Y157836D01*
X173526Y157872D01*
X173540Y157904D01*
X173565Y158041D01*
X173596Y158176D01*
X173596Y158212D01*
X173602Y158247D01*
X173595Y158386D01*
X173594Y158525D01*
X173586Y158560D01*
X173584Y158595D01*
X173546Y158729D01*
X173513Y158864D01*
X173497Y158896D01*
X173487Y158930D01*
X173420Y159051D01*
X173358Y159176D01*
X173335Y159203D01*
X173317Y159235D01*
X173159Y159421D01*
X171195Y161384D01*
X171195Y164592D01*
X171192Y164618D01*
X171194Y164644D01*
X171172Y164791D01*
X171155Y164938D01*
X171147Y164963D01*
X171143Y164989D01*
X171088Y165126D01*
X171038Y165266D01*
X171024Y165288D01*
X171014Y165313D01*
X170929Y165434D01*
X170849Y165559D01*
X170830Y165577D01*
X170815Y165599D01*
X170705Y165698D01*
X170598Y165801D01*
X170576Y165815D01*
X170556Y165832D01*
X170426Y165904D01*
X170299Y165980D01*
X170274Y165988D01*
X170251Y166001D01*
X170108Y166041D01*
X169967Y166086D01*
X169941Y166088D01*
X169916Y166096D01*
X169672Y166115D01*
X166464Y166115D01*
X164083Y168496D01*
X164083Y171864D01*
X166464Y174245D01*
X168707Y174245D01*
X168833Y174259D01*
X168959Y174266D01*
X169005Y174279D01*
X169053Y174285D01*
X169172Y174327D01*
X169294Y174362D01*
X169336Y174386D01*
X169381Y174402D01*
X169488Y174471D01*
X169598Y174532D01*
X169644Y174572D01*
X169674Y174591D01*
X169708Y174626D01*
X169784Y174691D01*
X171765Y176672D01*
X171844Y176771D01*
X171928Y176865D01*
X171952Y176907D01*
X171982Y176945D01*
X172036Y177059D01*
X172097Y177170D01*
X172110Y177216D01*
X172131Y177260D01*
X172157Y177383D01*
X172192Y177505D01*
X172197Y177566D01*
X172204Y177601D01*
X172203Y177649D01*
X172211Y177749D01*
X172211Y179992D01*
X174592Y182373D01*
X177960Y182373D01*
X180341Y179992D01*
X180341Y176784D01*
X180344Y176758D01*
X180342Y176732D01*
X180364Y176585D01*
X180381Y176438D01*
X180389Y176413D01*
X180393Y176387D01*
X180448Y176249D01*
X180498Y176110D01*
X180512Y176088D01*
X180522Y176063D01*
X180607Y175942D01*
X180687Y175817D01*
X180706Y175799D01*
X180721Y175777D01*
X180831Y175678D01*
X180938Y175575D01*
X180960Y175561D01*
X180980Y175544D01*
X181110Y175472D01*
X181237Y175396D01*
X181262Y175388D01*
X181285Y175375D01*
X181428Y175335D01*
X181569Y175290D01*
X181595Y175288D01*
X181620Y175280D01*
X181864Y175261D01*
X185072Y175261D01*
X187453Y172880D01*
X187453Y169512D01*
X185072Y167131D01*
X182829Y167131D01*
X182703Y167117D01*
X182577Y167110D01*
X182531Y167097D01*
X182483Y167091D01*
X182364Y167049D01*
X182242Y167014D01*
X182200Y166990D01*
X182155Y166974D01*
X182048Y166905D01*
X181938Y166844D01*
X181892Y166804D01*
X181862Y166785D01*
X181828Y166750D01*
X181752Y166685D01*
X179771Y164704D01*
X179692Y164605D01*
X179608Y164511D01*
X179584Y164469D01*
X179554Y164431D01*
X179500Y164317D01*
X179439Y164206D01*
X179426Y164160D01*
X179405Y164116D01*
X179379Y163993D01*
X179344Y163871D01*
X179339Y163810D01*
X179332Y163775D01*
X179333Y163727D01*
X179325Y163627D01*
X179325Y161384D01*
X177415Y159474D01*
X177319Y159353D01*
X177219Y159234D01*
X177210Y159216D01*
X177198Y159201D01*
X177132Y159061D01*
X177062Y158923D01*
X177058Y158904D01*
X177049Y158886D01*
X177017Y158734D01*
X176980Y158584D01*
X176980Y158564D01*
X176976Y158546D01*
X176979Y158391D01*
X176977Y158235D01*
X176981Y158216D01*
X176982Y158197D01*
X177020Y158047D01*
X177054Y157895D01*
X177062Y157878D01*
X177067Y157859D01*
X177138Y157721D01*
X177205Y157582D01*
X177218Y157566D01*
X177226Y157549D01*
X177327Y157431D01*
X177425Y157310D01*
X177440Y157299D01*
X177452Y157284D01*
X177577Y157191D01*
X177699Y157096D01*
X177717Y157088D01*
X177733Y157077D01*
X177875Y157015D01*
X178016Y156950D01*
X178039Y156945D01*
X178053Y156939D01*
X178096Y156931D01*
X178254Y156893D01*
X178255Y156893D01*
X180080Y156299D01*
X181790Y155428D01*
X183343Y154300D01*
X184700Y152943D01*
X185828Y151390D01*
X186699Y149680D01*
X187293Y147855D01*
X187309Y147749D01*
X176626Y147749D01*
X176600Y147746D01*
X176574Y147748D01*
X176427Y147726D01*
X176280Y147709D01*
X176255Y147701D01*
X176229Y147697D01*
X176092Y147642D01*
X175952Y147592D01*
X175930Y147578D01*
X175905Y147568D01*
X175784Y147483D01*
X175659Y147403D01*
X175641Y147384D01*
X175619Y147369D01*
X175520Y147259D01*
X175417Y147152D01*
X175403Y147130D01*
X175397Y147122D01*
X175351Y147193D01*
G37*
%LPD*%
%LPC*%
G36*
X182212Y48259D02*
X182212Y48259D01*
X180401Y50070D01*
X180381Y50087D01*
X180364Y50107D01*
X180244Y50195D01*
X180128Y50287D01*
X180104Y50298D01*
X180083Y50314D01*
X179947Y50373D01*
X179813Y50436D01*
X179787Y50442D01*
X179763Y50452D01*
X179617Y50478D01*
X179472Y50509D01*
X179446Y50509D01*
X179420Y50514D01*
X179272Y50506D01*
X179124Y50503D01*
X179098Y50497D01*
X179072Y50496D01*
X178930Y50455D01*
X178786Y50418D01*
X178763Y50406D01*
X178737Y50399D01*
X178608Y50327D01*
X178476Y50259D01*
X178456Y50242D01*
X178433Y50229D01*
X178247Y50070D01*
X177452Y49275D01*
X174084Y49275D01*
X171703Y51656D01*
X171703Y53899D01*
X171689Y54025D01*
X171682Y54151D01*
X171669Y54197D01*
X171663Y54245D01*
X171621Y54364D01*
X171586Y54486D01*
X171562Y54528D01*
X171546Y54573D01*
X171477Y54680D01*
X171416Y54790D01*
X171376Y54836D01*
X171357Y54866D01*
X171322Y54900D01*
X171257Y54976D01*
X154036Y72197D01*
X153937Y72276D01*
X153843Y72360D01*
X153801Y72384D01*
X153763Y72414D01*
X153649Y72468D01*
X153538Y72529D01*
X153492Y72542D01*
X153448Y72563D01*
X153325Y72589D01*
X153203Y72624D01*
X153142Y72629D01*
X153107Y72636D01*
X153059Y72635D01*
X152959Y72643D01*
X150716Y72643D01*
X148335Y75024D01*
X148335Y78392D01*
X150716Y80773D01*
X154084Y80773D01*
X156465Y78392D01*
X156465Y76149D01*
X156479Y76023D01*
X156486Y75897D01*
X156499Y75851D01*
X156505Y75803D01*
X156547Y75684D01*
X156582Y75562D01*
X156606Y75520D01*
X156622Y75475D01*
X156691Y75368D01*
X156752Y75258D01*
X156792Y75212D01*
X156811Y75182D01*
X156846Y75148D01*
X156911Y75072D01*
X174132Y57851D01*
X174231Y57772D01*
X174325Y57688D01*
X174367Y57664D01*
X174405Y57634D01*
X174519Y57580D01*
X174630Y57519D01*
X174676Y57506D01*
X174720Y57485D01*
X174843Y57459D01*
X174965Y57424D01*
X175026Y57419D01*
X175061Y57412D01*
X175109Y57413D01*
X175209Y57405D01*
X177452Y57405D01*
X179263Y55594D01*
X179283Y55577D01*
X179300Y55557D01*
X179420Y55469D01*
X179536Y55377D01*
X179560Y55366D01*
X179581Y55350D01*
X179717Y55291D01*
X179851Y55228D01*
X179877Y55222D01*
X179901Y55212D01*
X180047Y55186D01*
X180192Y55155D01*
X180218Y55155D01*
X180244Y55150D01*
X180392Y55158D01*
X180540Y55161D01*
X180566Y55167D01*
X180592Y55168D01*
X180734Y55209D01*
X180878Y55246D01*
X180901Y55258D01*
X180927Y55265D01*
X181056Y55337D01*
X181188Y55405D01*
X181208Y55422D01*
X181231Y55435D01*
X181417Y55594D01*
X182212Y56389D01*
X184455Y56389D01*
X184581Y56403D01*
X184707Y56410D01*
X184753Y56423D01*
X184801Y56429D01*
X184920Y56471D01*
X185042Y56506D01*
X185084Y56530D01*
X185129Y56546D01*
X185236Y56615D01*
X185346Y56676D01*
X185392Y56716D01*
X185422Y56735D01*
X185456Y56770D01*
X185532Y56835D01*
X188529Y59832D01*
X188608Y59931D01*
X188692Y60025D01*
X188716Y60067D01*
X188746Y60105D01*
X188800Y60219D01*
X188861Y60330D01*
X188874Y60376D01*
X188895Y60420D01*
X188921Y60543D01*
X188956Y60665D01*
X188961Y60726D01*
X188968Y60761D01*
X188967Y60809D01*
X188975Y60909D01*
X188975Y64168D01*
X191356Y66549D01*
X194724Y66549D01*
X197105Y64168D01*
X197105Y60800D01*
X194724Y58419D01*
X193497Y58419D01*
X193371Y58405D01*
X193245Y58398D01*
X193199Y58385D01*
X193151Y58379D01*
X193032Y58337D01*
X192910Y58302D01*
X192868Y58278D01*
X192823Y58262D01*
X192716Y58193D01*
X192606Y58132D01*
X192560Y58092D01*
X192530Y58073D01*
X192496Y58038D01*
X192420Y57973D01*
X188407Y53960D01*
X188328Y53861D01*
X188244Y53767D01*
X188220Y53725D01*
X188190Y53687D01*
X188136Y53573D01*
X188075Y53462D01*
X188062Y53416D01*
X188041Y53372D01*
X188015Y53249D01*
X187980Y53127D01*
X187975Y53066D01*
X187968Y53031D01*
X187969Y52983D01*
X187961Y52883D01*
X187961Y50640D01*
X185580Y48259D01*
X182212Y48259D01*
G37*
%LPD*%
%LPC*%
G36*
X215647Y28047D02*
X215647Y28047D01*
X215768Y29117D01*
X216381Y31804D01*
X217292Y34406D01*
X218488Y36890D01*
X219954Y39223D01*
X221673Y41378D01*
X223622Y43327D01*
X225777Y45046D01*
X228110Y46512D01*
X230594Y47708D01*
X233196Y48619D01*
X235883Y49232D01*
X236953Y49353D01*
X236953Y28047D01*
X215647Y28047D01*
G37*
%LPD*%
%LPC*%
G36*
X235883Y200768D02*
X235883Y200768D01*
X233196Y201381D01*
X230594Y202292D01*
X228110Y203488D01*
X225777Y204954D01*
X223622Y206673D01*
X221673Y208622D01*
X219954Y210777D01*
X218488Y213110D01*
X217292Y215594D01*
X216381Y218196D01*
X215768Y220883D01*
X215647Y221953D01*
X236953Y221953D01*
X236953Y200647D01*
X235883Y200768D01*
G37*
%LPD*%
%LPC*%
G36*
X141064Y191515D02*
X141064Y191515D01*
X138683Y193896D01*
X138683Y197612D01*
X138680Y197638D01*
X138682Y197664D01*
X138660Y197811D01*
X138643Y197958D01*
X138635Y197983D01*
X138631Y198009D01*
X138576Y198147D01*
X138526Y198286D01*
X138512Y198308D01*
X138502Y198333D01*
X138417Y198454D01*
X138337Y198579D01*
X138318Y198597D01*
X138303Y198619D01*
X138193Y198718D01*
X138086Y198821D01*
X138064Y198835D01*
X138044Y198852D01*
X137914Y198924D01*
X137787Y199000D01*
X137762Y199008D01*
X137739Y199021D01*
X137596Y199061D01*
X137455Y199106D01*
X137429Y199108D01*
X137404Y199116D01*
X137160Y199135D01*
X133444Y199135D01*
X131063Y201516D01*
X131063Y204884D01*
X133444Y207265D01*
X135687Y207265D01*
X135813Y207279D01*
X135939Y207286D01*
X135985Y207299D01*
X136033Y207305D01*
X136152Y207347D01*
X136274Y207382D01*
X136316Y207406D01*
X136361Y207422D01*
X136468Y207491D01*
X136578Y207552D01*
X136624Y207592D01*
X136654Y207611D01*
X136688Y207646D01*
X136764Y207711D01*
X138745Y209692D01*
X138824Y209791D01*
X138908Y209885D01*
X138932Y209927D01*
X138962Y209965D01*
X139016Y210079D01*
X139077Y210190D01*
X139090Y210236D01*
X139111Y210280D01*
X139137Y210403D01*
X139172Y210525D01*
X139177Y210586D01*
X139184Y210621D01*
X139183Y210669D01*
X139191Y210769D01*
X139191Y213012D01*
X141572Y215393D01*
X144940Y215393D01*
X147321Y213012D01*
X147321Y209296D01*
X147324Y209270D01*
X147322Y209244D01*
X147344Y209097D01*
X147361Y208950D01*
X147369Y208925D01*
X147373Y208899D01*
X147428Y208761D01*
X147478Y208622D01*
X147492Y208600D01*
X147502Y208575D01*
X147587Y208454D01*
X147667Y208329D01*
X147686Y208311D01*
X147701Y208289D01*
X147811Y208190D01*
X147918Y208087D01*
X147940Y208073D01*
X147960Y208056D01*
X148090Y207984D01*
X148217Y207908D01*
X148242Y207900D01*
X148265Y207887D01*
X148408Y207847D01*
X148549Y207802D01*
X148575Y207800D01*
X148600Y207792D01*
X148844Y207773D01*
X152560Y207773D01*
X154941Y205392D01*
X154941Y202024D01*
X152560Y199643D01*
X150317Y199643D01*
X150191Y199629D01*
X150065Y199622D01*
X150019Y199609D01*
X149971Y199603D01*
X149852Y199561D01*
X149730Y199526D01*
X149688Y199502D01*
X149643Y199486D01*
X149536Y199417D01*
X149426Y199356D01*
X149380Y199316D01*
X149350Y199297D01*
X149316Y199262D01*
X149240Y199197D01*
X147259Y197216D01*
X147180Y197117D01*
X147096Y197023D01*
X147072Y196981D01*
X147042Y196943D01*
X146988Y196829D01*
X146927Y196718D01*
X146914Y196672D01*
X146893Y196628D01*
X146867Y196505D01*
X146832Y196383D01*
X146827Y196322D01*
X146820Y196287D01*
X146821Y196239D01*
X146813Y196139D01*
X146813Y193896D01*
X144432Y191515D01*
X141064Y191515D01*
G37*
%LPD*%
%LPC*%
G36*
X202024Y214375D02*
X202024Y214375D01*
X199643Y216756D01*
X199643Y217766D01*
X199640Y217792D01*
X199642Y217818D01*
X199620Y217965D01*
X199603Y218112D01*
X199595Y218137D01*
X199591Y218163D01*
X199536Y218301D01*
X199486Y218440D01*
X199472Y218462D01*
X199462Y218487D01*
X199377Y218608D01*
X199297Y218733D01*
X199278Y218751D01*
X199263Y218773D01*
X199153Y218872D01*
X199046Y218975D01*
X199024Y218989D01*
X199004Y219006D01*
X198874Y219078D01*
X198747Y219154D01*
X198722Y219162D01*
X198699Y219175D01*
X198556Y219215D01*
X198415Y219260D01*
X198389Y219262D01*
X198364Y219270D01*
X198120Y219289D01*
X196726Y219289D01*
X194672Y220140D01*
X193316Y221496D01*
X193316Y221497D01*
X193315Y221497D01*
X193184Y221601D01*
X193043Y221713D01*
X193042Y221714D01*
X192882Y221789D01*
X192728Y221861D01*
X192727Y221862D01*
X192726Y221862D01*
X192551Y221900D01*
X192388Y221935D01*
X192387Y221935D01*
X192386Y221935D01*
X192197Y221932D01*
X192039Y221929D01*
X192038Y221929D01*
X192037Y221929D01*
X191858Y221883D01*
X191701Y221844D01*
X191700Y221843D01*
X191699Y221843D01*
X191533Y221757D01*
X191391Y221684D01*
X191390Y221683D01*
X191250Y221564D01*
X191126Y221458D01*
X191125Y221458D01*
X191125Y221457D01*
X190973Y221265D01*
X190466Y220506D01*
X189510Y219551D01*
X188387Y218800D01*
X187139Y218283D01*
X186661Y218188D01*
X186661Y224878D01*
X186661Y231568D01*
X187139Y231473D01*
X188387Y230956D01*
X189510Y230205D01*
X190466Y229250D01*
X190973Y228491D01*
X190973Y228490D01*
X190974Y228489D01*
X191086Y228357D01*
X191198Y228225D01*
X191199Y228225D01*
X191200Y228224D01*
X191336Y228123D01*
X191478Y228018D01*
X191479Y228017D01*
X191480Y228017D01*
X191641Y227947D01*
X191798Y227879D01*
X191799Y227879D01*
X191800Y227879D01*
X191981Y227846D01*
X192141Y227817D01*
X192142Y227817D01*
X192143Y227817D01*
X192323Y227826D01*
X192489Y227835D01*
X192490Y227835D01*
X192491Y227835D01*
X192660Y227884D01*
X192824Y227931D01*
X192825Y227931D01*
X192826Y227931D01*
X192979Y228017D01*
X193129Y228100D01*
X193129Y228101D01*
X193130Y228102D01*
X193316Y228260D01*
X194672Y229616D01*
X196726Y230467D01*
X198950Y230467D01*
X201093Y229579D01*
X201238Y229537D01*
X201381Y229492D01*
X201405Y229490D01*
X201428Y229483D01*
X201579Y229476D01*
X201728Y229464D01*
X201752Y229467D01*
X201776Y229466D01*
X201924Y229493D01*
X202073Y229516D01*
X202095Y229524D01*
X202119Y229529D01*
X202257Y229589D01*
X202397Y229644D01*
X202417Y229658D01*
X202439Y229668D01*
X202559Y229757D01*
X202683Y229843D01*
X202699Y229861D01*
X202719Y229876D01*
X202816Y229990D01*
X202916Y230102D01*
X202928Y230123D01*
X202944Y230142D01*
X203012Y230275D01*
X203085Y230407D01*
X203091Y230430D01*
X203102Y230452D01*
X203139Y230597D01*
X203180Y230742D01*
X203182Y230772D01*
X203187Y230790D01*
X203187Y230837D01*
X203199Y230986D01*
X203199Y233332D01*
X205580Y235713D01*
X208948Y235713D01*
X211329Y233332D01*
X211329Y229964D01*
X209743Y228378D01*
X209664Y228279D01*
X209580Y228186D01*
X209556Y228143D01*
X209526Y228105D01*
X209472Y227991D01*
X209411Y227881D01*
X209398Y227834D01*
X209377Y227790D01*
X209351Y227667D01*
X209316Y227545D01*
X209311Y227484D01*
X209304Y227450D01*
X209305Y227402D01*
X209297Y227301D01*
X209297Y224202D01*
X207660Y222565D01*
X207573Y222478D01*
X207557Y222458D01*
X207536Y222440D01*
X207448Y222321D01*
X207356Y222205D01*
X207345Y222181D01*
X207329Y222160D01*
X207271Y222024D01*
X207207Y221890D01*
X207202Y221864D01*
X207191Y221840D01*
X207165Y221694D01*
X207134Y221549D01*
X207134Y221523D01*
X207130Y221497D01*
X207137Y221349D01*
X207140Y221201D01*
X207146Y221175D01*
X207147Y221149D01*
X207189Y221006D01*
X207225Y220863D01*
X207237Y220839D01*
X207244Y220814D01*
X207316Y220685D01*
X207384Y220553D01*
X207401Y220533D01*
X207414Y220510D01*
X207573Y220324D01*
X207773Y220124D01*
X207773Y216756D01*
X205392Y214375D01*
X202024Y214375D01*
G37*
%LPD*%
%LPC*%
G36*
X183228Y76199D02*
X183228Y76199D01*
X180847Y78580D01*
X180847Y81839D01*
X180833Y81965D01*
X180826Y82091D01*
X180813Y82137D01*
X180807Y82185D01*
X180765Y82304D01*
X180730Y82426D01*
X180706Y82468D01*
X180690Y82513D01*
X180621Y82620D01*
X180560Y82730D01*
X180520Y82776D01*
X180501Y82806D01*
X180466Y82840D01*
X180401Y82916D01*
X179944Y83373D01*
X179845Y83452D01*
X179751Y83536D01*
X179709Y83560D01*
X179671Y83590D01*
X179557Y83644D01*
X179446Y83705D01*
X179400Y83718D01*
X179356Y83739D01*
X179233Y83765D01*
X179111Y83800D01*
X179050Y83805D01*
X179015Y83812D01*
X178967Y83811D01*
X178867Y83819D01*
X177749Y83819D01*
X177623Y83805D01*
X177497Y83798D01*
X177451Y83785D01*
X177403Y83779D01*
X177284Y83737D01*
X177162Y83702D01*
X177120Y83678D01*
X177075Y83662D01*
X176968Y83593D01*
X176858Y83532D01*
X176812Y83492D01*
X176782Y83473D01*
X176748Y83438D01*
X176672Y83373D01*
X176610Y83311D01*
X170971Y83311D01*
X170845Y83297D01*
X170719Y83290D01*
X170672Y83277D01*
X170624Y83271D01*
X170505Y83229D01*
X170384Y83194D01*
X170342Y83170D01*
X170296Y83154D01*
X170190Y83085D01*
X170080Y83024D01*
X170033Y82984D01*
X170003Y82965D01*
X169970Y82930D01*
X169894Y82865D01*
X168308Y81279D01*
X164940Y81279D01*
X162559Y83660D01*
X162559Y87028D01*
X164940Y89409D01*
X168308Y89409D01*
X169894Y87823D01*
X169993Y87744D01*
X170086Y87660D01*
X170129Y87636D01*
X170167Y87606D01*
X170281Y87552D01*
X170391Y87491D01*
X170438Y87478D01*
X170482Y87457D01*
X170605Y87431D01*
X170727Y87396D01*
X170788Y87391D01*
X170822Y87384D01*
X170870Y87385D01*
X170971Y87377D01*
X172720Y87377D01*
X172746Y87380D01*
X172772Y87378D01*
X172919Y87400D01*
X173066Y87417D01*
X173091Y87425D01*
X173117Y87429D01*
X173255Y87484D01*
X173394Y87534D01*
X173416Y87548D01*
X173441Y87558D01*
X173562Y87643D01*
X173687Y87723D01*
X173705Y87742D01*
X173727Y87757D01*
X173826Y87867D01*
X173929Y87974D01*
X173943Y87996D01*
X173960Y88016D01*
X174032Y88146D01*
X174108Y88273D01*
X174116Y88298D01*
X174129Y88321D01*
X174169Y88464D01*
X174214Y88605D01*
X174216Y88631D01*
X174224Y88656D01*
X174243Y88900D01*
X174243Y89568D01*
X176624Y91949D01*
X179992Y91949D01*
X182373Y89568D01*
X182373Y87325D01*
X182387Y87199D01*
X182394Y87073D01*
X182407Y87027D01*
X182413Y86979D01*
X182455Y86860D01*
X182490Y86738D01*
X182514Y86696D01*
X182530Y86651D01*
X182599Y86544D01*
X182660Y86434D01*
X182700Y86388D01*
X182719Y86358D01*
X182754Y86324D01*
X182819Y86248D01*
X184292Y84775D01*
X184391Y84696D01*
X184485Y84612D01*
X184527Y84588D01*
X184565Y84558D01*
X184679Y84504D01*
X184790Y84443D01*
X184836Y84430D01*
X184880Y84409D01*
X185003Y84383D01*
X185125Y84348D01*
X185186Y84343D01*
X185221Y84336D01*
X185269Y84337D01*
X185369Y84329D01*
X186596Y84329D01*
X188977Y81948D01*
X188977Y78580D01*
X186596Y76199D01*
X183228Y76199D01*
G37*
%LPD*%
%LPC*%
G36*
X88740Y84835D02*
X88740Y84835D01*
X86359Y87216D01*
X86359Y90584D01*
X87945Y92170D01*
X88024Y92269D01*
X88108Y92362D01*
X88132Y92405D01*
X88162Y92443D01*
X88216Y92557D01*
X88277Y92667D01*
X88290Y92714D01*
X88311Y92758D01*
X88337Y92881D01*
X88372Y93003D01*
X88377Y93064D01*
X88384Y93098D01*
X88383Y93146D01*
X88391Y93247D01*
X88391Y94713D01*
X88377Y94839D01*
X88370Y94965D01*
X88357Y95012D01*
X88351Y95060D01*
X88309Y95179D01*
X88274Y95300D01*
X88250Y95342D01*
X88234Y95388D01*
X88165Y95494D01*
X88104Y95604D01*
X88064Y95650D01*
X88045Y95680D01*
X88010Y95714D01*
X87945Y95790D01*
X86359Y97376D01*
X86359Y100744D01*
X88740Y103125D01*
X92108Y103125D01*
X94489Y100744D01*
X94489Y97376D01*
X92903Y95790D01*
X92824Y95691D01*
X92740Y95598D01*
X92716Y95555D01*
X92686Y95517D01*
X92632Y95403D01*
X92571Y95293D01*
X92558Y95246D01*
X92537Y95202D01*
X92511Y95079D01*
X92476Y94957D01*
X92471Y94896D01*
X92464Y94862D01*
X92465Y94814D01*
X92457Y94713D01*
X92457Y93247D01*
X92471Y93121D01*
X92478Y92995D01*
X92491Y92948D01*
X92497Y92900D01*
X92539Y92781D01*
X92574Y92660D01*
X92598Y92618D01*
X92614Y92572D01*
X92683Y92466D01*
X92744Y92356D01*
X92784Y92310D01*
X92803Y92280D01*
X92838Y92246D01*
X92903Y92170D01*
X94489Y90584D01*
X94489Y87216D01*
X92108Y84835D01*
X88740Y84835D01*
G37*
%LPD*%
G36*
X249653Y122751D02*
X249653Y122751D01*
X249654Y122751D01*
X249833Y122772D01*
X249998Y122791D01*
X249999Y122791D01*
X250000Y122791D01*
X250160Y122849D01*
X250326Y122908D01*
X250327Y122909D01*
X250328Y122909D01*
X250461Y122995D01*
X250619Y123097D01*
X250620Y123098D01*
X250621Y123098D01*
X250731Y123212D01*
X250861Y123348D01*
X250862Y123349D01*
X250863Y123349D01*
X250938Y123477D01*
X255274Y123477D01*
X255300Y123480D01*
X255326Y123477D01*
X255473Y123499D01*
X255620Y123516D01*
X255645Y123525D01*
X255671Y123529D01*
X255808Y123584D01*
X255948Y123634D01*
X255970Y123648D01*
X255995Y123658D01*
X256007Y123667D01*
X256099Y123612D01*
X256124Y123604D01*
X256147Y123591D01*
X256290Y123551D01*
X256431Y123505D01*
X256457Y123503D01*
X256482Y123496D01*
X256726Y123477D01*
X260000Y123477D01*
X260026Y123480D01*
X260052Y123477D01*
X260199Y123499D01*
X260346Y123516D01*
X260371Y123525D01*
X260397Y123529D01*
X260535Y123584D01*
X260674Y123634D01*
X260696Y123648D01*
X260721Y123658D01*
X260842Y123742D01*
X260967Y123823D01*
X260985Y123842D01*
X261007Y123857D01*
X261106Y123967D01*
X261209Y124074D01*
X261223Y124096D01*
X261240Y124116D01*
X261312Y124246D01*
X261388Y124373D01*
X261396Y124398D01*
X261409Y124421D01*
X261449Y124564D01*
X261494Y124705D01*
X261496Y124731D01*
X261504Y124756D01*
X261523Y125000D01*
X261520Y125026D01*
X261522Y125052D01*
X261500Y125199D01*
X261483Y125346D01*
X261475Y125371D01*
X261471Y125397D01*
X261416Y125535D01*
X261366Y125674D01*
X261352Y125697D01*
X261342Y125721D01*
X261257Y125842D01*
X261177Y125967D01*
X261158Y125986D01*
X261143Y126007D01*
X261033Y126106D01*
X260926Y126209D01*
X260904Y126223D01*
X260884Y126240D01*
X260754Y126312D01*
X260627Y126388D01*
X260602Y126396D01*
X260579Y126409D01*
X260436Y126449D01*
X260295Y126495D01*
X260269Y126497D01*
X260244Y126504D01*
X260000Y126523D01*
X256726Y126523D01*
X256700Y126520D01*
X256674Y126522D01*
X256527Y126500D01*
X256380Y126484D01*
X256355Y126475D01*
X256329Y126471D01*
X256192Y126416D01*
X256052Y126366D01*
X256030Y126352D01*
X256005Y126342D01*
X255993Y126333D01*
X255901Y126388D01*
X255876Y126396D01*
X255853Y126409D01*
X255710Y126449D01*
X255569Y126495D01*
X255543Y126497D01*
X255518Y126504D01*
X255274Y126523D01*
X250941Y126523D01*
X250894Y126590D01*
X250797Y126731D01*
X250796Y126732D01*
X250795Y126733D01*
X250667Y126849D01*
X250538Y126965D01*
X250537Y126966D01*
X250536Y126966D01*
X250385Y127050D01*
X250233Y127134D01*
X250232Y127134D01*
X250231Y127135D01*
X250062Y127183D01*
X249898Y127229D01*
X249897Y127229D01*
X249896Y127230D01*
X249652Y127249D01*
X238112Y127249D01*
X238086Y127246D01*
X238060Y127248D01*
X237913Y127226D01*
X237766Y127209D01*
X237741Y127201D01*
X237715Y127197D01*
X237577Y127142D01*
X237438Y127092D01*
X237416Y127078D01*
X237391Y127068D01*
X237270Y126983D01*
X237145Y126903D01*
X237127Y126884D01*
X237105Y126869D01*
X237006Y126759D01*
X236903Y126652D01*
X236889Y126630D01*
X236872Y126610D01*
X236800Y126480D01*
X236724Y126353D01*
X236716Y126328D01*
X236703Y126305D01*
X236663Y126162D01*
X236618Y126021D01*
X236616Y125995D01*
X236608Y125970D01*
X236589Y125726D01*
X236589Y124274D01*
X236592Y124248D01*
X236590Y124222D01*
X236612Y124075D01*
X236629Y123928D01*
X236637Y123903D01*
X236641Y123877D01*
X236696Y123739D01*
X236746Y123600D01*
X236760Y123578D01*
X236770Y123553D01*
X236855Y123432D01*
X236935Y123307D01*
X236954Y123289D01*
X236969Y123267D01*
X237079Y123168D01*
X237186Y123065D01*
X237208Y123051D01*
X237228Y123034D01*
X237358Y122962D01*
X237485Y122886D01*
X237510Y122878D01*
X237533Y122865D01*
X237676Y122825D01*
X237817Y122780D01*
X237843Y122777D01*
X237868Y122770D01*
X238112Y122751D01*
X249652Y122751D01*
X249653Y122751D01*
G37*
G36*
X39752Y122754D02*
X39752Y122754D01*
X39778Y122752D01*
X39925Y122774D01*
X40072Y122791D01*
X40097Y122799D01*
X40123Y122803D01*
X40261Y122858D01*
X40400Y122908D01*
X40422Y122922D01*
X40447Y122932D01*
X40568Y123017D01*
X40693Y123097D01*
X40711Y123116D01*
X40733Y123131D01*
X40832Y123241D01*
X40935Y123348D01*
X40949Y123370D01*
X40966Y123390D01*
X41038Y123520D01*
X41114Y123647D01*
X41122Y123672D01*
X41135Y123695D01*
X41175Y123838D01*
X41220Y123979D01*
X41222Y124005D01*
X41230Y124030D01*
X41249Y124274D01*
X41249Y125726D01*
X41246Y125752D01*
X41248Y125778D01*
X41226Y125925D01*
X41209Y126072D01*
X41201Y126097D01*
X41197Y126123D01*
X41142Y126261D01*
X41092Y126400D01*
X41078Y126422D01*
X41068Y126447D01*
X40983Y126568D01*
X40903Y126693D01*
X40884Y126711D01*
X40869Y126733D01*
X40759Y126832D01*
X40652Y126935D01*
X40630Y126949D01*
X40610Y126966D01*
X40480Y127038D01*
X40353Y127114D01*
X40328Y127122D01*
X40305Y127135D01*
X40162Y127175D01*
X40021Y127220D01*
X39995Y127222D01*
X39970Y127230D01*
X39726Y127249D01*
X30348Y127249D01*
X30347Y127249D01*
X30346Y127249D01*
X30174Y127229D01*
X30002Y127209D01*
X30001Y127209D01*
X30000Y127209D01*
X29836Y127150D01*
X29674Y127092D01*
X29673Y127091D01*
X29672Y127091D01*
X29521Y126994D01*
X29381Y126903D01*
X29380Y126902D01*
X29379Y126901D01*
X29253Y126771D01*
X29139Y126652D01*
X29138Y126651D01*
X29137Y126651D01*
X29062Y126523D01*
X24726Y126523D01*
X24700Y126520D01*
X24674Y126522D01*
X24527Y126500D01*
X24380Y126484D01*
X24355Y126475D01*
X24329Y126471D01*
X24192Y126416D01*
X24052Y126366D01*
X24030Y126352D01*
X24005Y126342D01*
X23993Y126333D01*
X23901Y126388D01*
X23876Y126396D01*
X23853Y126409D01*
X23710Y126449D01*
X23569Y126495D01*
X23543Y126497D01*
X23518Y126504D01*
X23274Y126523D01*
X20000Y126523D01*
X19974Y126520D01*
X19948Y126522D01*
X19801Y126500D01*
X19654Y126484D01*
X19629Y126475D01*
X19603Y126471D01*
X19465Y126416D01*
X19326Y126366D01*
X19304Y126352D01*
X19279Y126342D01*
X19158Y126258D01*
X19033Y126177D01*
X19015Y126158D01*
X18993Y126143D01*
X18894Y126033D01*
X18791Y125926D01*
X18777Y125904D01*
X18760Y125884D01*
X18688Y125754D01*
X18612Y125627D01*
X18604Y125602D01*
X18591Y125579D01*
X18551Y125436D01*
X18506Y125295D01*
X18504Y125269D01*
X18496Y125244D01*
X18477Y125000D01*
X18480Y124974D01*
X18478Y124948D01*
X18500Y124801D01*
X18517Y124654D01*
X18525Y124629D01*
X18529Y124603D01*
X18584Y124465D01*
X18634Y124326D01*
X18648Y124303D01*
X18658Y124279D01*
X18743Y124158D01*
X18823Y124033D01*
X18842Y124014D01*
X18857Y123993D01*
X18967Y123894D01*
X19074Y123791D01*
X19096Y123777D01*
X19116Y123759D01*
X19246Y123688D01*
X19373Y123612D01*
X19398Y123604D01*
X19421Y123591D01*
X19564Y123551D01*
X19705Y123505D01*
X19731Y123503D01*
X19756Y123496D01*
X20000Y123477D01*
X23274Y123477D01*
X23300Y123480D01*
X23326Y123477D01*
X23473Y123499D01*
X23620Y123516D01*
X23645Y123525D01*
X23671Y123529D01*
X23808Y123584D01*
X23948Y123634D01*
X23970Y123648D01*
X23995Y123658D01*
X24007Y123667D01*
X24099Y123612D01*
X24124Y123604D01*
X24147Y123591D01*
X24290Y123551D01*
X24431Y123505D01*
X24457Y123503D01*
X24482Y123496D01*
X24726Y123477D01*
X29059Y123477D01*
X29105Y123410D01*
X29204Y123269D01*
X29204Y123268D01*
X29205Y123267D01*
X29327Y123157D01*
X29462Y123035D01*
X29463Y123034D01*
X29464Y123034D01*
X29617Y122949D01*
X29767Y122866D01*
X29768Y122866D01*
X29769Y122865D01*
X29944Y122816D01*
X30102Y122771D01*
X30103Y122771D01*
X30104Y122770D01*
X30348Y122751D01*
X39726Y122751D01*
X39752Y122754D01*
G37*
%LPC*%
G36*
X178149Y142251D02*
X178149Y142251D01*
X187309Y142251D01*
X187293Y142145D01*
X186699Y140320D01*
X185828Y138610D01*
X184700Y137057D01*
X183343Y135700D01*
X181790Y134572D01*
X180080Y133701D01*
X178255Y133107D01*
X178149Y133091D01*
X178149Y142251D01*
G37*
%LPD*%
%LPC*%
G36*
X172545Y133107D02*
X172545Y133107D01*
X170720Y133701D01*
X169010Y134572D01*
X167457Y135700D01*
X166100Y137057D01*
X164972Y138610D01*
X164101Y140320D01*
X163507Y142145D01*
X163491Y142251D01*
X172651Y142251D01*
X172651Y133091D01*
X172545Y133107D01*
G37*
%LPD*%
D10*
X185138Y240626D03*
X185138Y224878D03*
X172438Y240626D03*
D11*
X172438Y224878D03*
D10*
X197838Y224878D03*
D12*
X54500Y112300D03*
D13*
X10350Y136800D02*
X10350Y138600D01*
X37650Y138600D01*
X37650Y136800D01*
X10350Y136800D01*
X10350Y125900D02*
X10350Y124100D01*
X10350Y125900D02*
X37650Y125900D01*
X37650Y124100D01*
X10350Y124100D01*
X15350Y113200D02*
X15350Y111400D01*
X15350Y113200D02*
X37650Y113200D01*
X37650Y111400D01*
X15350Y111400D01*
D12*
X54500Y125000D03*
X54500Y137700D03*
D14*
X23500Y125000D03*
D12*
X225500Y137700D03*
D13*
X269650Y113200D02*
X269650Y111400D01*
X242350Y111400D01*
X242350Y113200D01*
X269650Y113200D01*
X269650Y124100D02*
X269650Y125900D01*
X269650Y124100D02*
X242350Y124100D01*
X242350Y125900D01*
X269650Y125900D01*
X264650Y136800D02*
X264650Y138600D01*
X264650Y136800D02*
X242350Y136800D01*
X242350Y138600D01*
X264650Y138600D01*
D12*
X225500Y125000D03*
X225500Y112300D03*
D14*
X256500Y125000D03*
D15*
X40000Y225000D03*
X40000Y25000D03*
X240000Y25000D03*
X240000Y225000D03*
D16*
X124600Y145000D03*
X175400Y145000D03*
X150000Y119600D03*
D17*
X67056Y125000D02*
X54500Y125000D01*
X67056Y125000D02*
X91434Y125000D01*
X91560Y124874D01*
X204978Y125000D02*
X225500Y125000D01*
X204978Y125000D02*
X185104Y125000D01*
X184978Y124874D01*
D18*
X86440Y43006D03*
D17*
X207176Y57824D02*
X240000Y25000D01*
X207176Y57824D02*
X204978Y60022D01*
X204978Y189978D02*
X240000Y225000D01*
X204978Y189978D02*
X204978Y187452D01*
X204978Y92964D01*
X204978Y60022D01*
X67056Y125000D02*
X67056Y179832D01*
X76200Y188976D01*
X83820Y188976D01*
X203454Y188976D01*
X204978Y187452D01*
D18*
X144780Y81534D03*
D19*
X156210Y92964D01*
X204978Y92964D01*
X83820Y188976D02*
X83820Y189992D01*
X207176Y57824D02*
X206248Y56896D01*
D14*
X83820Y189992D03*
X206248Y56896D03*
D19*
X101600Y236728D02*
X94488Y243840D01*
X184912Y81280D02*
X184912Y80264D01*
X184912Y81280D02*
X178308Y87884D01*
X175768Y85344D02*
X166624Y85344D01*
X175768Y85344D02*
X178308Y87884D01*
X142748Y195580D02*
X150876Y203708D01*
D14*
X94488Y243840D03*
X101600Y236728D03*
X184912Y80264D03*
X178308Y87884D03*
X166624Y85344D03*
X150876Y203708D03*
X142748Y195580D03*
D19*
X119380Y78232D02*
X147828Y49784D01*
X119380Y78232D02*
X117856Y78232D01*
X100076Y96012D01*
X100076Y101092D01*
X106680Y107696D01*
X116332Y129540D02*
X116332Y133604D01*
X111252Y138684D01*
X135128Y203200D02*
X143256Y211328D01*
X161036Y229108D02*
X172212Y240284D01*
X172438Y240626D01*
D14*
X147828Y49784D03*
X106680Y107696D03*
X116332Y129540D03*
X111252Y138684D03*
X135128Y203200D03*
X143256Y211328D03*
X161036Y229108D03*
D19*
X147828Y56896D02*
X144780Y56896D01*
X128016Y73660D01*
X128016Y97028D01*
X130048Y99060D01*
X129032Y116840D02*
X136144Y123952D01*
X175260Y163068D02*
X183388Y171196D01*
X203708Y218440D02*
X203708Y221488D01*
X207264Y225044D01*
X207264Y231648D01*
D14*
X147828Y56896D03*
X130048Y99060D03*
X129032Y116840D03*
X136144Y123952D03*
X175260Y163068D03*
X183388Y171196D03*
X203708Y218440D03*
X207264Y231648D03*
D19*
X119380Y70612D02*
X126492Y63500D01*
X119888Y83312D02*
X119888Y86360D01*
X120396Y86868D01*
X120396Y98552D01*
X119888Y99060D01*
X121920Y123952D02*
X129032Y131064D01*
X168148Y170180D02*
X176276Y178308D01*
D14*
X126492Y63500D03*
X119380Y70612D03*
X119888Y83312D03*
X119888Y99060D03*
X121920Y123952D03*
X129032Y131064D03*
X168148Y170180D03*
X176276Y178308D03*
D19*
X193040Y62484D02*
X193040Y61468D01*
X183896Y52324D01*
X175768Y53340D02*
X152400Y76708D01*
D14*
X193040Y62484D03*
X183896Y52324D03*
X152400Y76708D03*
X175768Y53340D03*
D19*
X36576Y112268D02*
X26924Y112268D01*
X36576Y112268D02*
X45212Y103632D01*
X58928Y99568D02*
X67056Y107696D01*
X26924Y112268D02*
X26500Y112300D01*
X242824Y138176D02*
X253492Y138176D01*
X242824Y138176D02*
X234696Y146304D01*
X217932Y143764D02*
X217932Y133604D01*
X216916Y132588D01*
X253500Y137700D02*
X253492Y138176D01*
D14*
X45212Y103632D03*
X58928Y99568D03*
X67056Y107696D03*
X234696Y146304D03*
X217932Y143764D03*
X216916Y132588D03*
D17*
X44044Y128549D02*
X44044Y122756D01*
X54500Y112300D01*
X34893Y137700D02*
X24000Y137700D01*
X34893Y137700D02*
X44044Y128549D01*
X225500Y137700D02*
X233794Y129406D01*
X233794Y117206D02*
X239080Y111920D01*
X255620Y111920D01*
X256000Y112300D01*
X233794Y117206D02*
X233794Y129406D01*
D19*
X90424Y99060D02*
X90424Y88900D01*
D14*
X90424Y88900D03*
X90424Y99060D03*
D19*
X101600Y128524D02*
X101600Y138684D01*
X105156Y99060D02*
X115316Y88900D01*
X133096Y84328D02*
X133096Y75692D01*
X144780Y64008D01*
D14*
X101600Y138684D03*
X101600Y128524D03*
X105156Y99060D03*
X115316Y88900D03*
X133096Y84328D03*
X144780Y64008D03*
D19*
X139700Y76200D02*
X139700Y83820D01*
X163068Y107188D01*
D14*
X139700Y76200D03*
X163068Y107188D03*
M02*
