%TF.GenerationSoftware,KiCad,Pcbnew,9.0.0*%
%TF.CreationDate,2025-04-22T13:44:47+01:00*%
%TF.ProjectId,vm_rgb_led_0.3,766d5f72-6762-45f6-9c65-645f302e332e,v0.3*%
%TF.SameCoordinates,PX518a060PY47868c0*%
%TF.FileFunction,Copper,L1,Top*%
%TF.FilePolarity,Positive*%
%FSLAX45Y45*%
G04 Gerber Fmt 4.5, Leading zero omitted, Abs format (unit mm)*
G04 Created by KiCad (PCBNEW 9.0.0) date 2025-04-22 13:44:47*
%MOMM*%
%LPD*%
G01*
G04 APERTURE LIST*
G04 Aperture macros list*
%AMRoundRect*
0 Rectangle with rounded corners*
0 $1 Rounding radius*
0 $2 $3 $4 $5 $6 $7 $8 $9 X,Y pos of 4 corners*
0 Add a 4 corners polygon primitive as box body*
4,1,4,$2,$3,$4,$5,$6,$7,$8,$9,$2,$3,0*
0 Add four circle primitives for the rounded corners*
1,1,$1+$1,$2,$3*
1,1,$1+$1,$4,$5*
1,1,$1+$1,$6,$7*
1,1,$1+$1,$8,$9*
0 Add four rect primitives between the rounded corners*
20,1,$1+$1,$2,$3,$4,$5,0*
20,1,$1+$1,$4,$5,$6,$7,0*
20,1,$1+$1,$6,$7,$8,$9,0*
20,1,$1+$1,$8,$9,$2,$3,0*%
G04 Aperture macros list end*
%TA.AperFunction,SMDPad,CuDef*%
%ADD10C,0.125000*%
%TD*%
%TA.AperFunction,ComponentPad*%
%ADD11RoundRect,0.172720X-0.259080X-0.259080X0.259080X-0.259080X0.259080X0.259080X-0.259080X0.259080X0*%
%TD*%
%TA.AperFunction,ComponentPad*%
%ADD12C,0.863600*%
%TD*%
%TA.AperFunction,SMDPad,CuDef*%
%ADD13R,0.860000X0.810000*%
%TD*%
%TA.AperFunction,SMDPad,CuDef*%
%ADD14R,0.700000X1.000000*%
%TD*%
%TA.AperFunction,SMDPad,CuDef*%
%ADD15R,0.800000X0.800000*%
%TD*%
%TA.AperFunction,SMDPad,CuDef*%
%ADD16R,0.800000X0.900000*%
%TD*%
%TA.AperFunction,SMDPad,CuDef*%
%ADD17O,0.360000X1.740000*%
%TD*%
%TA.AperFunction,SMDPad,CuDef*%
%ADD18R,1.230000X1.360000*%
%TD*%
%TA.AperFunction,SMDPad,CuDef*%
%ADD19R,0.810000X0.860000*%
%TD*%
%TA.AperFunction,SMDPad,CuDef*%
%ADD20R,0.750000X1.000000*%
%TD*%
%TA.AperFunction,SMDPad,CuDef*%
%ADD21R,0.800000X0.700000*%
%TD*%
%TA.AperFunction,ViaPad*%
%ADD22C,0.450000*%
%TD*%
%TA.AperFunction,Conductor*%
%ADD23C,0.200000*%
%TD*%
G04 APERTURE END LIST*
D10*
%TO.P,GS5,1,SWDIO~^*%
%TO.N,Net-(GS5-SWDIO~^)*%
X150000Y825000D03*
%TD*%
%TO.P,GS3,1,JD_DATA*%
%TO.N,Net-(GS3-JD_DATA)*%
X-700000Y250000D03*
%TD*%
D11*
%TO.P,J1,1,Vcc*%
%TO.N,+3V3*%
X237500Y700000D03*
D12*
%TO.P,J1,2,SWDIO*%
%TO.N,/SWDIO*%
X237500Y542520D03*
%TO.P,J1,3,GND*%
%TO.N,GND*%
X110500Y700000D03*
%TO.P,J1,4,SWDCLK*%
%TO.N,/SWCLK*%
X110500Y542520D03*
%TO.P,J1,5,~{RESET}*%
%TO.N,/nRESET*%
X-16500Y700000D03*
%TD*%
D13*
%TO.P,R7,1*%
%TO.N,/SWDIO*%
X-320000Y525000D03*
%TO.P,R7,2*%
%TO.N,Net-(GS5-SWDIO~^)*%
X-320000Y675000D03*
%TD*%
D10*
%TO.P,GS4,1,SWCLK*%
%TO.N,Net-(GS4-SWCLK)*%
X-50000Y825000D03*
%TD*%
D14*
%TO.P,U2,1,IN*%
%TO.N,JD_PWR*%
X-465000Y120000D03*
%TO.P,U2,2,GND*%
%TO.N,GND*%
X-560000Y120000D03*
%TO.P,U2,3,EN*%
%TO.N,JD_PWR*%
X-655000Y120000D03*
%TO.P,U2,4,N/C*%
%TO.N,GND*%
X-655000Y-120000D03*
%TO.P,U2,5,OUT*%
%TO.N,+3V3*%
X-465000Y-120000D03*
%TD*%
D10*
%TO.P,GS6,1,RESET*%
%TO.N,Net-(D2-K)*%
X-250000Y825000D03*
%TD*%
D15*
%TO.P,D1,1*%
%TO.N,Net-(D1-Pad1)*%
X-455000Y-520000D03*
%TO.P,D1,2*%
%TO.N,GND*%
X-625000Y-520000D03*
%TD*%
D13*
%TO.P,R6,1*%
%TO.N,/SWCLK*%
X-480000Y525000D03*
%TO.P,R6,2*%
%TO.N,Net-(GS4-SWCLK)*%
X-480000Y675000D03*
%TD*%
D16*
%TO.P,C3,1*%
%TO.N,+3V3*%
X-470000Y-260000D03*
%TO.P,C3,2*%
%TO.N,GND*%
X-610000Y-260000D03*
%TD*%
D17*
%TO.P,U1,1,PB7/PB8*%
%TO.N,/JD_STATUS*%
X-341000Y-287000D03*
%TO.P,U1,2,PB9/PC14-OSC32_IN*%
%TO.N,/nFLASH*%
X-276000Y-287000D03*
%TO.P,U1,3,PC15-OSC32_OUT*%
%TO.N,unconnected-(U1-PC15-OSC32_OUT-Pad3)*%
X-211000Y-287000D03*
%TO.P,U1,4,VDD/VDDA*%
%TO.N,+3V3*%
X-146000Y-287000D03*
%TO.P,U1,5,VSS/VSSA*%
%TO.N,GND*%
X-80000Y-287000D03*
%TO.P,U1,6,NRST*%
%TO.N,/nRESET*%
X-15000Y-287000D03*
%TO.P,U1,7,PA0*%
%TO.N,unconnected-(U1-PA0-Pad7)*%
X50000Y-287000D03*
%TO.P,U1,8,PA1*%
%TO.N,unconnected-(U1-PA1-Pad8)*%
X115000Y-287000D03*
%TO.P,U1,9,PA2*%
%TO.N,unconnected-(U1-PA2-Pad9)*%
X180000Y-287000D03*
%TO.P,U1,10,PA3*%
%TO.N,unconnected-(U1-PA3-Pad10)*%
X245000Y-287000D03*
%TO.P,U1,11,PA4*%
%TO.N,unconnected-(U1-PA4-Pad11)*%
X245000Y287000D03*
%TO.P,U1,12,PA5*%
%TO.N,unconnected-(U1-PA5-Pad12)*%
X180000Y287000D03*
%TO.P,U1,13,PA6*%
%TO.N,/JD_RGB_R*%
X115000Y287000D03*
%TO.P,U1,14,PA7*%
%TO.N,/JD_RGB_B*%
X50000Y287000D03*
%TO.P,U1,15,PB0/PB1/PB2/PA8*%
%TO.N,/JD_RGB_G*%
X-15000Y287000D03*
%TO.P,U1,16,PA11[PA9]*%
%TO.N,unconnected-(U1-PA11[PA9]-Pad16)*%
X-80000Y287000D03*
%TO.P,U1,17,PA12[PA10]*%
%TO.N,unconnected-(U1-PA12[PA10]-Pad17)*%
X-146000Y287000D03*
%TO.P,U1,18,PA13*%
%TO.N,/SWDIO*%
X-211000Y287000D03*
%TO.P,U1,19,PA15/PA14-BOOT0*%
%TO.N,/SWCLK*%
X-276000Y287000D03*
%TO.P,U1,20,PB3/PB4/PB5/PB6*%
%TO.N,/JD_DATA_MCU*%
X-341000Y287000D03*
%TD*%
D18*
%TO.P,SW1,1,1*%
%TO.N,GND*%
X170000Y-680000D03*
%TO.P,SW1,2,2*%
%TO.N,/nFLASH*%
X-266000Y-680000D03*
%TD*%
D10*
%TO.P,GS2,1,GND*%
%TO.N,GND*%
X-700000Y-250000D03*
%TD*%
D19*
%TO.P,R4,1*%
%TO.N,Net-(D3-G)*%
X600000Y10000D03*
%TO.P,R4,2*%
%TO.N,/JD_RGB_G*%
X450000Y10000D03*
%TD*%
%TO.P,R3,1*%
%TO.N,Net-(D3-B)*%
X600000Y130000D03*
%TO.P,R3,2*%
%TO.N,/JD_RGB_B*%
X450000Y130000D03*
%TD*%
%TO.P,R5,1*%
%TO.N,/JD_DATA_MCU*%
X-455000Y390000D03*
%TO.P,R5,2*%
%TO.N,Net-(GS3-JD_DATA)*%
X-605000Y390000D03*
%TD*%
D16*
%TO.P,C1,1*%
%TO.N,+3V3*%
X-120000Y-460000D03*
%TO.P,C1,2*%
%TO.N,GND*%
X20000Y-460000D03*
%TD*%
D10*
%TO.P,GS1,1,JD_PWR*%
%TO.N,JD_PWR*%
X-700000Y0D03*
%TD*%
D19*
%TO.P,R2,1*%
%TO.N,Net-(D3-R)*%
X600000Y250000D03*
%TO.P,R2,2*%
%TO.N,/JD_RGB_R*%
X450000Y250000D03*
%TD*%
D16*
%TO.P,C2,1*%
%TO.N,JD_PWR*%
X-460000Y260000D03*
%TO.P,C2,2*%
%TO.N,GND*%
X-600000Y260000D03*
%TD*%
D19*
%TO.P,R1,1*%
%TO.N,/JD_STATUS*%
X-465000Y-390000D03*
%TO.P,R1,2*%
%TO.N,Net-(D1-Pad1)*%
X-615000Y-390000D03*
%TD*%
D20*
%TO.P,D2,1,K*%
%TO.N,Net-(D2-K)*%
X-650000Y757000D03*
%TO.P,D2,2,A*%
%TO.N,/nRESET*%
X-650000Y523000D03*
%TD*%
D21*
%TO.P,D3,1,R*%
%TO.N,Net-(D3-R)*%
X440000Y-175000D03*
%TO.P,D3,2,B*%
%TO.N,Net-(D3-B)*%
X610000Y-175000D03*
%TO.P,D3,3*%
%TO.N,+3V3*%
X610000Y-285000D03*
%TO.P,D3,4,G*%
%TO.N,Net-(D3-G)*%
X440000Y-285000D03*
%TD*%
D22*
%TO.N,GND*%
X-550000Y200000D03*
X100000Y-450000D03*
X-550000Y-575000D03*
X75000Y-675000D03*
X-550000Y-200000D03*
%TO.N,+3V3*%
X-210000Y30000D03*
X-137500Y615800D03*
X-120000Y-600000D03*
%TO.N,/nRESET*%
X-50000Y-150000D03*
X-600000Y650000D03*
%TD*%
D23*
%TO.N,GND*%
X-550000Y200000D02*
X-550000Y210000D01*
X80000Y-680000D02*
X75000Y-675000D01*
X-655000Y-120000D02*
X-630000Y-120000D01*
X-550000Y-200000D02*
X-610000Y-260000D01*
X-630000Y-120000D02*
X-550000Y-200000D01*
X-550000Y130000D02*
X-560000Y120000D01*
X-605000Y-520000D02*
X-550000Y-575000D01*
X20000Y-460000D02*
X90000Y-460000D01*
X-80000Y-360000D02*
X20000Y-460000D01*
X-700000Y-250000D02*
X-620000Y-250000D01*
X-550000Y210000D02*
X-600000Y260000D01*
X-80000Y-287000D02*
X-80000Y-360000D01*
X-550000Y200000D02*
X-550000Y130000D01*
X-625000Y-520000D02*
X-605000Y-520000D01*
X-620000Y-250000D02*
X-610000Y-260000D01*
X170000Y-680000D02*
X80000Y-680000D01*
X90000Y-460000D02*
X100000Y-450000D01*
%TO.N,+3V3*%
X-465000Y-120000D02*
X-465000Y-255000D01*
X153300Y615800D02*
X-137500Y615800D01*
X237500Y700000D02*
X153300Y615800D01*
X-146000Y-434000D02*
X-120000Y-460000D01*
X-146000Y-287000D02*
X-146000Y-434000D01*
X-465000Y-255000D02*
X-470000Y-260000D01*
X-445000Y-115000D02*
X-445000Y-120000D01*
%TO.N,Net-(D1-Pad1)*%
X-485000Y-520000D02*
X-455000Y-520000D01*
X-615000Y-390000D02*
X-485000Y-520000D01*
%TO.N,/SWDIO*%
X161610Y466630D02*
X-138370Y466630D01*
X237500Y542520D02*
X161610Y466630D01*
X-320000Y525000D02*
X-211000Y416000D01*
X-138370Y466630D02*
X-211000Y394000D01*
X-211000Y394000D02*
X-211000Y287000D01*
X-211000Y416000D02*
X-211000Y287000D01*
%TO.N,/SWCLK*%
X-409400Y595600D02*
X-480000Y525000D01*
X-166766Y542520D02*
X110500Y542520D01*
X-276000Y394000D02*
X-276000Y287000D01*
X-325400Y404100D02*
X-286100Y404100D01*
X-446300Y525000D02*
X-325400Y404100D01*
X-460000Y525000D02*
X-446300Y525000D01*
X-286100Y404100D02*
X-276000Y394000D01*
X-219846Y595600D02*
X-409400Y595600D01*
X-219846Y595600D02*
X-166766Y542520D01*
%TO.N,/nRESET*%
X-15000Y-287000D02*
X-15000Y-185000D01*
X-15000Y-185000D02*
X-50000Y-150000D01*
X-650000Y600000D02*
X-600000Y650000D01*
X-650000Y523000D02*
X-650000Y600000D01*
%TO.N,/JD_STATUS*%
X-465000Y-390000D02*
X-444000Y-390000D01*
X-444000Y-390000D02*
X-341000Y-287000D01*
%TO.N,/nFLASH*%
X-276000Y-287000D02*
X-276000Y-670000D01*
X-276000Y-670000D02*
X-266000Y-680000D01*
%TO.N,unconnected-(U1-PA5-Pad12)*%
X331569Y275000D02*
X350000Y275000D01*
X180000Y394000D02*
X190100Y404100D01*
X190100Y404100D02*
X264924Y404100D01*
X293100Y375924D02*
X293100Y313469D01*
X180000Y287000D02*
X180000Y394000D01*
X293100Y313469D02*
X331569Y275000D01*
X264924Y404100D02*
X293100Y375924D01*
%TO.N,unconnected-(U1-PC15-OSC32_OUT-Pad3)*%
X-90500Y-75000D02*
X350000Y-75000D01*
X-211000Y-287000D02*
X-211000Y-195500D01*
X-211000Y-195500D02*
X-90500Y-75000D01*
%TO.N,unconnected-(U1-PA2-Pad9)*%
X264924Y-404100D02*
X293100Y-375924D01*
X293100Y-375924D02*
X293100Y-319973D01*
X338073Y-275000D02*
X350000Y-275000D01*
X180000Y-287000D02*
X180000Y-394000D01*
X180000Y-394000D02*
X190100Y-404100D01*
X190100Y-404100D02*
X264924Y-404100D01*
X293100Y-319973D02*
X338073Y-275000D01*
%TO.N,unconnected-(U1-PA1-Pad8)*%
X269900Y-169900D02*
X275000Y-175000D01*
X115000Y-180000D02*
X125100Y-169900D01*
X125100Y-169900D02*
X269900Y-169900D01*
X275000Y-175000D02*
X350000Y-175000D01*
X115000Y-287000D02*
X115000Y-180000D01*
%TO.N,unconnected-(U1-PA11[PA9]-Pad16)*%
X-80000Y165000D02*
X60000Y25000D01*
X60000Y25000D02*
X350000Y25000D01*
X-80000Y287000D02*
X-80000Y165000D01*
%TO.N,unconnected-(U1-PA0-Pad7)*%
X50000Y-180000D02*
X105000Y-125000D01*
X50000Y-287000D02*
X50000Y-180000D01*
X105000Y-125000D02*
X350000Y-125000D01*
%TO.N,unconnected-(U1-PA3-Pad10)*%
X245000Y-287000D02*
X263000Y-287000D01*
X325000Y-225000D02*
X350000Y-225000D01*
X263000Y-287000D02*
X325000Y-225000D01*
%TO.N,unconnected-(U1-PA12[PA10]-Pad17)*%
X-146000Y171000D02*
X50000Y-25000D01*
X50000Y-25000D02*
X350000Y-25000D01*
X-146000Y287000D02*
X-146000Y171000D01*
%TO.N,unconnected-(U1-PA4-Pad11)*%
X263000Y287000D02*
X322224Y227776D01*
X322224Y227776D02*
X347224Y227776D01*
X245000Y287000D02*
X263000Y287000D01*
%TO.N,JD_PWR*%
X-625100Y39900D02*
X-600000Y39900D01*
X-465000Y69800D02*
X-465000Y120000D01*
X-625100Y24900D02*
X-650000Y0D01*
X-494900Y39900D02*
X-465000Y69800D01*
X-465000Y120000D02*
X-465000Y255000D01*
X-625100Y39900D02*
X-625100Y24900D01*
X-655000Y120000D02*
X-655000Y69800D01*
X-655000Y69800D02*
X-625100Y39900D01*
X-600000Y39900D02*
X-494900Y39900D01*
X-465000Y255000D02*
X-460000Y260000D01*
X-700000Y0D02*
X-650000Y0D01*
%TO.N,Net-(GS3-JD_DATA)*%
X-700000Y295000D02*
X-700000Y250000D01*
X-605000Y390000D02*
X-700000Y295000D01*
%TO.N,/JD_DATA_MCU*%
X-350000Y370000D02*
X-350000Y296000D01*
X-359800Y379800D02*
X-350000Y370000D01*
X-444800Y379800D02*
X-359800Y379800D01*
X-350000Y296000D02*
X-341000Y287000D01*
X-455000Y390000D02*
X-444800Y379800D01*
%TO.N,Net-(D2-K)*%
X-354527Y825000D02*
X-250000Y825000D01*
X-422527Y757000D02*
X-354527Y825000D01*
X-650000Y757000D02*
X-422527Y757000D01*
%TO.N,Net-(GS4-SWCLK)*%
X-480000Y675000D02*
X-447959Y675000D01*
X-447959Y675000D02*
X-338059Y784900D01*
X-99451Y825000D02*
X-50000Y825000D01*
X-139551Y784900D02*
X-99451Y825000D01*
X-338059Y784900D02*
X-139551Y784900D01*
%TO.N,Net-(GS5-SWDIO~^)*%
X-320000Y675000D02*
X-192882Y675000D01*
X-192882Y675000D02*
X-82982Y784900D01*
X109900Y784900D02*
X150000Y825000D01*
X-82982Y784900D02*
X109900Y784900D01*
%TO.N,/JD_RGB_R*%
X426300Y250000D02*
X450000Y250000D01*
X115000Y180000D02*
X125100Y169900D01*
X275000Y175000D02*
X351300Y175000D01*
X125100Y169900D02*
X269900Y169900D01*
X269900Y169900D02*
X275000Y175000D01*
X450000Y240000D02*
X421710Y240000D01*
X351300Y175000D02*
X426300Y250000D01*
X115000Y287000D02*
X115000Y180000D01*
%TO.N,/JD_RGB_G*%
X66710Y75000D02*
X361300Y75000D01*
X426300Y10000D02*
X450000Y10000D01*
X361300Y75000D02*
X426300Y10000D01*
X-15000Y156710D02*
X66710Y75000D01*
X-15000Y287000D02*
X-15000Y156710D01*
%TO.N,/JD_RGB_B*%
X50000Y148420D02*
X73420Y125000D01*
X355000Y130000D02*
X450000Y130000D01*
X350000Y125000D02*
X355000Y130000D01*
X73420Y125000D02*
X350000Y125000D01*
X50000Y287000D02*
X50000Y148420D01*
%TO.N,Net-(D3-R)*%
X525000Y198700D02*
X525000Y-45000D01*
X600000Y250000D02*
X576300Y250000D01*
X440000Y-130000D02*
X440000Y-175000D01*
X525000Y-45000D02*
X440000Y-130000D01*
X576300Y250000D02*
X525000Y198700D01*
%TO.N,Net-(D3-B)*%
X600000Y130000D02*
X660500Y130000D01*
X610000Y-175000D02*
X610000Y-120500D01*
X610000Y-120500D02*
X670600Y-59900D01*
X670600Y119900D02*
X670600Y-59900D01*
X660500Y130000D02*
X670600Y119900D01*
%TO.N,Net-(D3-G)*%
X600000Y-53000D02*
X510100Y-142900D01*
X600000Y10000D02*
X600000Y-53000D01*
X510100Y-142900D02*
X510100Y-240100D01*
X465200Y-285000D02*
X440000Y-285000D01*
X510100Y-240100D02*
X465200Y-285000D01*
%TD*%
%TA.AperFunction,Conductor*%
%TO.N,+3V3*%
G36*
X607833Y-262167D02*
G01*
X610000Y-267400D01*
X610000Y-285000D01*
X627600Y-285000D01*
X632833Y-287167D01*
X635000Y-292400D01*
X635000Y-370000D01*
X654783Y-370000D01*
X660738Y-369360D01*
X660738Y-369360D01*
X674209Y-364335D01*
X674209Y-364335D01*
X685719Y-355719D01*
X685719Y-355719D01*
X686626Y-354507D01*
X691497Y-351617D01*
X696985Y-353018D01*
X699875Y-357889D01*
X699950Y-358942D01*
X699950Y-817550D01*
X697783Y-822783D01*
X692550Y-824950D01*
X-692550Y-824950D01*
X-697783Y-822783D01*
X-699950Y-817550D01*
X-699950Y-306914D01*
X-697783Y-301682D01*
X-693921Y-299778D01*
X-693942Y-299698D01*
X-693540Y-299590D01*
X-693515Y-299578D01*
X-693475Y-299572D01*
X-693474Y-299572D01*
X-680866Y-296194D01*
X-680865Y-296194D01*
X-680418Y-296008D01*
X-680318Y-296249D01*
X-675536Y-295618D01*
X-671042Y-299065D01*
X-670050Y-302767D01*
X-670050Y-306975D01*
X-668887Y-312823D01*
X-664218Y-319811D01*
X-663113Y-325366D01*
X-666259Y-330075D01*
X-669955Y-332545D01*
X-669955Y-332545D01*
X-674387Y-339177D01*
X-674387Y-339177D01*
X-675550Y-345025D01*
X-675550Y-434975D01*
X-675059Y-437444D01*
X-674387Y-440823D01*
X-673302Y-442447D01*
X-669955Y-447455D01*
X-669716Y-447615D01*
X-669556Y-447854D01*
X-669440Y-447970D01*
X-669463Y-447993D01*
X-666569Y-452324D01*
X-667674Y-457879D01*
X-672383Y-461026D01*
X-672500Y-461049D01*
X-672823Y-461113D01*
X-679455Y-465545D01*
X-679455Y-465545D01*
X-683887Y-472177D01*
X-685050Y-478025D01*
X-685050Y-561975D01*
X-683887Y-567823D01*
X-680939Y-572234D01*
X-679455Y-574455D01*
X-675044Y-577403D01*
X-672823Y-578887D01*
X-672823Y-578887D01*
X-672823Y-578887D01*
X-666975Y-580050D01*
X-598376Y-580050D01*
X-593144Y-582217D01*
X-591228Y-585535D01*
X-589651Y-591423D01*
X-589650Y-591424D01*
X-588675Y-593113D01*
X-584049Y-601126D01*
X-576126Y-609049D01*
X-566424Y-614650D01*
X-555602Y-617550D01*
X-555602Y-617550D01*
X-555602Y-617550D01*
X-544398Y-617550D01*
X-544398Y-617550D01*
X-533576Y-614650D01*
X-523874Y-609049D01*
X-515951Y-601126D01*
X-510350Y-591424D01*
X-508573Y-584794D01*
X-505126Y-580301D01*
X-499982Y-579452D01*
X-496975Y-580050D01*
X-496975Y-580050D01*
X-413025Y-580050D01*
X-413025Y-580050D01*
X-407177Y-578887D01*
X-400545Y-574455D01*
X-396113Y-567823D01*
X-394950Y-561975D01*
X-394950Y-478025D01*
X-396113Y-472177D01*
X-400545Y-465545D01*
X-402766Y-464061D01*
X-407177Y-461113D01*
X-407177Y-461113D01*
X-407462Y-461056D01*
X-407617Y-461026D01*
X-412326Y-457879D01*
X-413431Y-452324D01*
X-410537Y-447993D01*
X-410560Y-447970D01*
X-410444Y-447854D01*
X-410284Y-447615D01*
X-410045Y-447455D01*
X-405613Y-440823D01*
X-404450Y-434975D01*
X-404450Y-396012D01*
X-402283Y-390780D01*
X-385374Y-373871D01*
X-380142Y-371704D01*
X-374909Y-373871D01*
X-373733Y-375404D01*
X-371448Y-379363D01*
X-364363Y-386448D01*
X-355687Y-391457D01*
X-346010Y-394050D01*
X-346010Y-394050D01*
X-346009Y-394050D01*
X-335990Y-394050D01*
X-335990Y-394050D01*
X-326313Y-391457D01*
X-319499Y-387522D01*
X-317217Y-386205D01*
X-317072Y-386456D01*
X-312487Y-385225D01*
X-307581Y-388055D01*
X-306050Y-392562D01*
X-306050Y-584550D01*
X-308217Y-589783D01*
X-313450Y-591950D01*
X-329475Y-591950D01*
X-332399Y-592532D01*
X-335323Y-593113D01*
X-341955Y-597545D01*
X-341955Y-597545D01*
X-346387Y-604177D01*
X-347550Y-610025D01*
X-347550Y-749975D01*
X-346387Y-755823D01*
X-343439Y-760234D01*
X-341955Y-762455D01*
X-337544Y-765403D01*
X-335323Y-766887D01*
X-335323Y-766887D01*
X-335323Y-766887D01*
X-329475Y-768050D01*
X-329475Y-768050D01*
X-202525Y-768050D01*
X-202525Y-768050D01*
X-196677Y-766887D01*
X-190045Y-762455D01*
X-185613Y-755823D01*
X-184450Y-749975D01*
X-184450Y-669398D01*
X32450Y-669398D01*
X32450Y-680602D01*
X35350Y-691423D01*
X35350Y-691424D01*
X35350Y-691424D01*
X40952Y-701126D01*
X48874Y-709048D01*
X58576Y-714650D01*
X69398Y-717550D01*
X69398Y-717550D01*
X81050Y-717550D01*
X86283Y-719717D01*
X88450Y-724950D01*
X88450Y-749975D01*
X89613Y-755823D01*
X92561Y-760234D01*
X94045Y-762455D01*
X98456Y-765403D01*
X100677Y-766887D01*
X100677Y-766887D01*
X100677Y-766887D01*
X106525Y-768050D01*
X106525Y-768050D01*
X233475Y-768050D01*
X233475Y-768050D01*
X239323Y-766887D01*
X245955Y-762455D01*
X250387Y-755823D01*
X251550Y-749975D01*
X251550Y-610025D01*
X250387Y-604177D01*
X245955Y-597545D01*
X243734Y-596061D01*
X239323Y-593113D01*
X239323Y-593113D01*
X236399Y-592532D01*
X233475Y-591950D01*
X106525Y-591950D01*
X103601Y-592532D01*
X100677Y-593113D01*
X94045Y-597545D01*
X94045Y-597545D01*
X89613Y-604177D01*
X88450Y-610025D01*
X88450Y-625050D01*
X86283Y-630283D01*
X81050Y-632450D01*
X69398Y-632450D01*
X58577Y-635350D01*
X58576Y-635350D01*
X48874Y-640952D01*
X40952Y-648874D01*
X35350Y-658576D01*
X35350Y-658577D01*
X32450Y-669398D01*
X-184450Y-669398D01*
X-184450Y-610025D01*
X-185613Y-604177D01*
X-190045Y-597545D01*
X-192266Y-596061D01*
X-196677Y-593113D01*
X-196677Y-593113D01*
X-199601Y-592532D01*
X-202525Y-591950D01*
X-202525Y-591950D01*
X-238550Y-591950D01*
X-243783Y-589783D01*
X-245950Y-584550D01*
X-245950Y-509783D01*
X-210000Y-509783D01*
X-209360Y-515737D01*
X-209360Y-515738D01*
X-204335Y-529209D01*
X-204335Y-529209D01*
X-195719Y-540719D01*
X-184209Y-549335D01*
X-184209Y-549335D01*
X-170738Y-554360D01*
X-170738Y-554360D01*
X-164783Y-555000D01*
X-145000Y-555000D01*
X-145000Y-485000D01*
X-210000Y-485000D01*
X-210000Y-509783D01*
X-245950Y-509783D01*
X-245950Y-392562D01*
X-243783Y-387330D01*
X-238550Y-385162D01*
X-234898Y-386403D01*
X-234783Y-386205D01*
X-232501Y-387522D01*
X-225687Y-391457D01*
X-216009Y-394050D01*
X-216009Y-394050D01*
X-215529Y-394113D01*
X-215556Y-394320D01*
X-210976Y-396217D01*
X-208809Y-401450D01*
X-209275Y-404036D01*
X-209360Y-404262D01*
X-210000Y-410217D01*
X-210000Y-435000D01*
X-127400Y-435000D01*
X-122167Y-437167D01*
X-120000Y-442400D01*
X-120000Y-460000D01*
X-102400Y-460000D01*
X-97167Y-462167D01*
X-95000Y-467400D01*
X-95000Y-555000D01*
X-75217Y-555000D01*
X-69263Y-554360D01*
X-69262Y-554360D01*
X-55791Y-549335D01*
X-55791Y-549335D01*
X-44281Y-540719D01*
X-35665Y-529209D01*
X-35476Y-528703D01*
X-31617Y-524558D01*
X-27099Y-524031D01*
X-21975Y-525050D01*
X-21975Y-525050D01*
X61975Y-525050D01*
X61975Y-525050D01*
X67823Y-523887D01*
X74455Y-519455D01*
X78887Y-512823D01*
X80050Y-506975D01*
X80050Y-498349D01*
X82217Y-493117D01*
X87450Y-490949D01*
X89365Y-491201D01*
X92999Y-492175D01*
X94398Y-492550D01*
X94398Y-492550D01*
X94398Y-492550D01*
X105602Y-492550D01*
X105602Y-492550D01*
X116424Y-489650D01*
X126126Y-484048D01*
X134049Y-476126D01*
X139650Y-466424D01*
X142550Y-455602D01*
X142550Y-455602D01*
X142550Y-444398D01*
X142550Y-444398D01*
X141592Y-440823D01*
X139650Y-433576D01*
X134049Y-423874D01*
X126126Y-415951D01*
X120064Y-412451D01*
X116424Y-410350D01*
X116423Y-410349D01*
X110204Y-408683D01*
X110203Y-408683D01*
X105602Y-407450D01*
X94398Y-407450D01*
X86519Y-409561D01*
X85248Y-409394D01*
X84030Y-409791D01*
X82801Y-409072D01*
X80904Y-408822D01*
X78981Y-407224D01*
X78695Y-406891D01*
X74455Y-400545D01*
X71677Y-398688D01*
X71014Y-397913D01*
X70428Y-396117D01*
X69379Y-394546D01*
X69583Y-393521D01*
X69259Y-392529D01*
X70115Y-390844D01*
X70484Y-388991D01*
X71578Y-387966D01*
X71826Y-387480D01*
X72243Y-387344D01*
X72937Y-386694D01*
X73363Y-386448D01*
X77267Y-382543D01*
X82500Y-380376D01*
X87733Y-382543D01*
X91637Y-386448D01*
X100313Y-391457D01*
X104834Y-392668D01*
X109991Y-394050D01*
X112443Y-394050D01*
X120010Y-394050D01*
X120010Y-394050D01*
X129687Y-391457D01*
X136501Y-387522D01*
X138783Y-386205D01*
X138928Y-386456D01*
X143513Y-385225D01*
X148419Y-388055D01*
X149950Y-392562D01*
X149950Y-397956D01*
X151998Y-405599D01*
X153645Y-408451D01*
X153645Y-408451D01*
X155954Y-412451D01*
X171649Y-428146D01*
X178501Y-432102D01*
X186144Y-434150D01*
X186144Y-434150D01*
X268880Y-434150D01*
X268880Y-434150D01*
X276523Y-432102D01*
X283375Y-428146D01*
X288970Y-422551D01*
X317146Y-394375D01*
X319647Y-390044D01*
X321102Y-387523D01*
X323150Y-379880D01*
X323150Y-379880D01*
X323150Y-335485D01*
X325317Y-330252D01*
X348352Y-307217D01*
X353585Y-305050D01*
X353956Y-305050D01*
X353956Y-305050D01*
X361599Y-303002D01*
X368451Y-299046D01*
X368451Y-299046D01*
X368850Y-298816D01*
X374465Y-298076D01*
X378959Y-301524D01*
X379950Y-305224D01*
X379950Y-321975D01*
X380562Y-325050D01*
X381113Y-327823D01*
X383061Y-330738D01*
X385545Y-334455D01*
X387086Y-335485D01*
X392177Y-338887D01*
X392177Y-338887D01*
X392177Y-338887D01*
X398025Y-340050D01*
X398025Y-340050D01*
X481975Y-340050D01*
X481975Y-340050D01*
X487823Y-338887D01*
X494455Y-334455D01*
X498887Y-327823D01*
X499491Y-324783D01*
X520000Y-324783D01*
X520640Y-330738D01*
X520640Y-330738D01*
X525665Y-344209D01*
X525665Y-344209D01*
X534281Y-355719D01*
X545791Y-364335D01*
X545791Y-364335D01*
X559262Y-369360D01*
X559262Y-369360D01*
X565217Y-370000D01*
X585000Y-370000D01*
X585000Y-310000D01*
X520000Y-310000D01*
X520000Y-324783D01*
X499491Y-324783D01*
X500050Y-321975D01*
X500050Y-295712D01*
X502217Y-290480D01*
X530530Y-262167D01*
X535762Y-260000D01*
X602600Y-260000D01*
X607833Y-262167D01*
G37*
%TD.AperFunction*%
%TA.AperFunction,Conductor*%
G36*
X-381297Y346397D02*
G01*
X-380050Y342286D01*
X-380050Y292044D01*
X-379302Y289253D01*
X-379050Y287338D01*
X-379050Y212990D01*
X-376457Y203313D01*
X-371628Y194950D01*
X-371448Y194637D01*
X-364363Y187552D01*
X-355687Y182543D01*
X-346010Y179950D01*
X-346010Y179950D01*
X-346009Y179950D01*
X-335990Y179950D01*
X-335990Y179950D01*
X-326313Y182543D01*
X-317637Y187552D01*
X-313733Y191457D01*
X-308500Y193624D01*
X-303267Y191457D01*
X-299363Y187552D01*
X-290687Y182543D01*
X-281010Y179950D01*
X-281010Y179950D01*
X-281009Y179950D01*
X-270990Y179950D01*
X-270990Y179950D01*
X-261313Y182543D01*
X-252637Y187552D01*
X-248733Y191457D01*
X-243500Y193624D01*
X-238267Y191457D01*
X-234363Y187552D01*
X-225687Y182543D01*
X-216010Y179950D01*
X-216010Y179950D01*
X-216009Y179950D01*
X-205990Y179950D01*
X-205990Y179950D01*
X-196313Y182543D01*
X-190738Y185762D01*
X-187217Y187795D01*
X-187072Y187544D01*
X-182487Y188775D01*
X-177581Y185945D01*
X-176050Y181438D01*
X-176050Y167044D01*
X-174002Y159402D01*
X-174002Y159401D01*
X-174002Y159401D01*
X-172876Y157450D01*
X-172876Y157450D01*
X-170046Y152549D01*
X14820Y-32317D01*
X16988Y-37550D01*
X14820Y-42783D01*
X9588Y-44950D01*
X-94456Y-44950D01*
X-102099Y-46998D01*
X-102099Y-46998D01*
X-107212Y-49950D01*
X-108951Y-50954D01*
X-235046Y-177049D01*
X-239002Y-183901D01*
X-239002Y-183901D01*
X-239338Y-185154D01*
X-242786Y-189647D01*
X-248401Y-190386D01*
X-251718Y-188471D01*
X-252637Y-187552D01*
X-261313Y-182543D01*
X-261313Y-182543D01*
X-270990Y-179950D01*
X-270991Y-179950D01*
X-281009Y-179950D01*
X-281010Y-179950D01*
X-290687Y-182543D01*
X-299363Y-187552D01*
X-303267Y-191457D01*
X-308500Y-193624D01*
X-313733Y-191457D01*
X-317637Y-187552D01*
X-326314Y-182543D01*
X-326313Y-182543D01*
X-335990Y-179950D01*
X-335991Y-179950D01*
X-346009Y-179950D01*
X-346010Y-179950D01*
X-355687Y-182543D01*
X-364363Y-187552D01*
X-364364Y-187553D01*
X-370323Y-193512D01*
X-375555Y-195679D01*
X-380788Y-193511D01*
X-382955Y-188279D01*
X-382488Y-185693D01*
X-380640Y-180738D01*
X-380640Y-180737D01*
X-380000Y-174783D01*
X-380000Y-145000D01*
X-440000Y-145000D01*
X-440000Y-220600D01*
X-442167Y-225833D01*
X-443303Y-226303D01*
X-445000Y-228000D01*
X-445000Y-252600D01*
X-447167Y-257833D01*
X-452400Y-260000D01*
X-487600Y-260000D01*
X-492833Y-257833D01*
X-495000Y-252600D01*
X-495000Y-164400D01*
X-492833Y-159167D01*
X-491697Y-158697D01*
X-490000Y-157000D01*
X-490000Y-145000D01*
X-550000Y-145000D01*
X-551019Y-146019D01*
X-556252Y-148186D01*
X-561484Y-146019D01*
X-597783Y-109720D01*
X-599950Y-104488D01*
X-599950Y-68025D01*
X-600261Y-66463D01*
X-600509Y-65217D01*
X-550000Y-65217D01*
X-550000Y-95000D01*
X-490000Y-95000D01*
X-440000Y-95000D01*
X-380000Y-95000D01*
X-380000Y-65217D01*
X-380640Y-59262D01*
X-380640Y-59262D01*
X-385665Y-45791D01*
X-385665Y-45791D01*
X-394281Y-34281D01*
X-405791Y-25665D01*
X-405791Y-25664D01*
X-419262Y-20640D01*
X-419262Y-20640D01*
X-425217Y-20000D01*
X-440000Y-20000D01*
X-440000Y-95000D01*
X-490000Y-95000D01*
X-490000Y-20000D01*
X-504783Y-20000D01*
X-510738Y-20640D01*
X-510738Y-20640D01*
X-524209Y-25664D01*
X-524209Y-25665D01*
X-535719Y-34281D01*
X-544335Y-45791D01*
X-544336Y-45791D01*
X-549360Y-59262D01*
X-549360Y-59262D01*
X-550000Y-65217D01*
X-600509Y-65217D01*
X-600604Y-64737D01*
X-601113Y-62177D01*
X-605545Y-55545D01*
X-607766Y-54061D01*
X-612177Y-51113D01*
X-612177Y-51113D01*
X-615101Y-50532D01*
X-618025Y-49950D01*
X-662407Y-49950D01*
X-667639Y-47783D01*
X-669807Y-42550D01*
X-667639Y-37317D01*
X-662539Y-32217D01*
X-657307Y-30050D01*
X-646044Y-30050D01*
X-646044Y-30050D01*
X-638401Y-28002D01*
X-631549Y-24046D01*
X-625954Y-18451D01*
X-601054Y6449D01*
X-601054Y6449D01*
X-600759Y6834D01*
X-600547Y6671D01*
X-596734Y9598D01*
X-594818Y9850D01*
X-490944Y9850D01*
X-490944Y9850D01*
X-483301Y11898D01*
X-476449Y15854D01*
X-470854Y21449D01*
X-444520Y47783D01*
X-439288Y49950D01*
X-428025Y49950D01*
X-428025Y49950D01*
X-422177Y51113D01*
X-415545Y55545D01*
X-411113Y62177D01*
X-409950Y68025D01*
X-409950Y171975D01*
X-411113Y177823D01*
X-414267Y182543D01*
X-415906Y184996D01*
X-417011Y190551D01*
X-413865Y195260D01*
X-412585Y195944D01*
X-412177Y196113D01*
X-412177Y196113D01*
X-405545Y200545D01*
X-401113Y207177D01*
X-399950Y213025D01*
X-399950Y306975D01*
X-401113Y312823D01*
X-405545Y319455D01*
X-405545Y319455D01*
X-405783Y319811D01*
X-406888Y325366D01*
X-403741Y330075D01*
X-400045Y332545D01*
X-395613Y339177D01*
X-394708Y343729D01*
X-391561Y348439D01*
X-386006Y349543D01*
X-381297Y346397D01*
G37*
%TD.AperFunction*%
%TA.AperFunction,Conductor*%
G36*
X697783Y822783D02*
G01*
X699950Y817550D01*
X699950Y150912D01*
X697783Y145680D01*
X692550Y143512D01*
X687317Y145680D01*
X678951Y154046D01*
X675164Y156232D01*
X675164Y156233D01*
X674616Y156549D01*
X672099Y158002D01*
X665709Y159714D01*
X665393Y159831D01*
X663540Y161541D01*
X661541Y163075D01*
X661430Y163489D01*
X661232Y163673D01*
X661205Y164329D01*
X660550Y166775D01*
X660550Y174975D01*
X660550Y174975D01*
X659387Y180823D01*
X656002Y185889D01*
X654897Y191443D01*
X656002Y194111D01*
X656194Y194398D01*
X659387Y199177D01*
X660550Y205025D01*
X660550Y294975D01*
X659387Y300823D01*
X654955Y307455D01*
X652734Y308939D01*
X648323Y311887D01*
X648323Y311887D01*
X645399Y312468D01*
X642475Y313050D01*
X557525Y313050D01*
X554601Y312468D01*
X551677Y311887D01*
X545045Y307455D01*
X545045Y307455D01*
X540613Y300823D01*
X539450Y294975D01*
X539450Y258712D01*
X537283Y253480D01*
X523183Y239380D01*
X517950Y237212D01*
X512717Y239380D01*
X510550Y244612D01*
X510550Y294975D01*
X510550Y294975D01*
X509387Y300823D01*
X504955Y307455D01*
X502734Y308939D01*
X498323Y311887D01*
X498323Y311887D01*
X495399Y312468D01*
X492475Y313050D01*
X407525Y313050D01*
X404601Y312468D01*
X401677Y311887D01*
X395045Y307455D01*
X395045Y307455D01*
X390613Y300823D01*
X389450Y294975D01*
X389450Y294388D01*
X387283Y289155D01*
X382050Y286988D01*
X376817Y289155D01*
X375641Y290688D01*
X374046Y293451D01*
X368451Y299046D01*
X361599Y303002D01*
X361598Y303002D01*
X353956Y305050D01*
X353956Y305050D01*
X347081Y305050D01*
X341848Y307217D01*
X325317Y323748D01*
X323150Y328981D01*
X323150Y379880D01*
X323150Y379880D01*
X321102Y387522D01*
X321102Y387523D01*
X317146Y394375D01*
X283375Y428146D01*
X276523Y432102D01*
X276522Y432102D01*
X268880Y434150D01*
X268880Y434150D01*
X194056Y434150D01*
X189492Y434150D01*
X184260Y436317D01*
X182092Y441550D01*
X184260Y446783D01*
X185656Y448179D01*
X192694Y455217D01*
X216377Y478900D01*
X221609Y481067D01*
X223052Y480925D01*
X231272Y479290D01*
X231273Y479290D01*
X243727Y479290D01*
X243728Y479290D01*
X255943Y481720D01*
X267451Y486486D01*
X277807Y493406D01*
X286614Y502213D01*
X293534Y512569D01*
X298300Y524076D01*
X300730Y536292D01*
X300730Y548748D01*
X298300Y560964D01*
X296400Y565550D01*
X293534Y572470D01*
X293467Y572570D01*
X286614Y582827D01*
X277807Y591634D01*
X277806Y591634D01*
X277806Y591634D01*
X273867Y594266D01*
X270721Y598975D01*
X271826Y604530D01*
X275777Y607484D01*
X291220Y612296D01*
X305201Y620748D01*
X316752Y632299D01*
X325204Y646280D01*
X330064Y661876D01*
X330064Y661877D01*
X330680Y668654D01*
X330680Y668655D01*
X330680Y675000D01*
X250079Y675000D01*
X254656Y677642D01*
X259858Y682844D01*
X263536Y689216D01*
X265440Y696322D01*
X265440Y703678D01*
X263536Y710784D01*
X259858Y717156D01*
X254656Y722358D01*
X250079Y725000D01*
X262500Y725000D01*
X330680Y725000D01*
X330680Y731345D01*
X330680Y731346D01*
X330064Y738123D01*
X330064Y738124D01*
X325204Y753720D01*
X316752Y767701D01*
X305201Y779252D01*
X291220Y787704D01*
X275624Y792564D01*
X275623Y792564D01*
X268846Y793180D01*
X262500Y793180D01*
X262500Y725000D01*
X250079Y725000D01*
X248284Y726036D01*
X241178Y727940D01*
X233822Y727940D01*
X226716Y726036D01*
X220344Y722358D01*
X215142Y717156D01*
X212500Y712579D01*
X212500Y793180D01*
X206153Y793180D01*
X201867Y792790D01*
X196460Y794475D01*
X193828Y799490D01*
X194789Y803860D01*
X196194Y806294D01*
X199572Y818901D01*
X199572Y818902D01*
X199698Y819370D01*
X199973Y819296D01*
X202351Y823419D01*
X206858Y824950D01*
X692550Y824950D01*
X697783Y822783D01*
G37*
%TD.AperFunction*%
%TA.AperFunction,Conductor*%
G36*
X-69081Y745839D02*
G01*
X-66914Y740606D01*
X-68161Y736495D01*
X-72534Y729950D01*
X-77300Y718444D01*
X-77300Y718443D01*
X-79730Y706228D01*
X-79730Y693773D01*
X-77300Y681557D01*
X-77300Y681556D01*
X-72534Y670050D01*
X-66117Y660446D01*
X-65614Y659693D01*
X-56807Y650886D01*
X-46451Y643966D01*
X-46450Y643966D01*
X-46450Y643966D01*
X-42798Y642454D01*
X-34944Y639200D01*
X-22728Y636770D01*
X-22727Y636770D01*
X-10273Y636770D01*
X-10272Y636770D01*
X1943Y639200D01*
X13451Y643966D01*
X23807Y650886D01*
X32614Y659693D01*
X39534Y670049D01*
X40163Y671570D01*
X44168Y675574D01*
X49832Y675574D01*
X53836Y671570D01*
X54466Y670050D01*
X54466Y670049D01*
X60883Y660446D01*
X61386Y659693D01*
X70193Y650886D01*
X80549Y643966D01*
X80550Y643966D01*
X80550Y643966D01*
X84202Y642454D01*
X92056Y639200D01*
X104272Y636770D01*
X104272Y636770D01*
X116727Y636770D01*
X116728Y636770D01*
X128943Y639200D01*
X136798Y642454D01*
X140450Y643966D01*
X140450Y643966D01*
X140451Y643966D01*
X141665Y644778D01*
X147220Y645883D01*
X151929Y642737D01*
X152109Y642454D01*
X158248Y632299D01*
X169799Y620748D01*
X183780Y612296D01*
X199223Y607484D01*
X203574Y603858D01*
X204086Y598218D01*
X201133Y594266D01*
X197194Y591634D01*
X197193Y591634D01*
X188386Y582826D01*
X181466Y572471D01*
X180837Y570951D01*
X176832Y566946D01*
X171168Y566946D01*
X167163Y570951D01*
X166534Y572471D01*
X159614Y582826D01*
X159614Y582827D01*
X150807Y591634D01*
X149340Y592614D01*
X140450Y598554D01*
X128944Y603320D01*
X128943Y603320D01*
X119740Y605151D01*
X116728Y605750D01*
X104272Y605750D01*
X101923Y605283D01*
X92057Y603320D01*
X92056Y603320D01*
X80550Y598554D01*
X70194Y591634D01*
X61386Y582826D01*
X59467Y579955D01*
X56730Y575859D01*
X52021Y572712D01*
X50577Y572570D01*
X-151254Y572570D01*
X-156487Y574737D01*
X-201395Y619646D01*
X-208247Y623602D01*
X-208248Y623602D01*
X-215890Y625650D01*
X-215890Y625650D01*
X-249550Y625650D01*
X-254783Y627817D01*
X-256950Y633050D01*
X-256950Y637550D01*
X-254783Y642783D01*
X-249550Y644950D01*
X-188926Y644950D01*
X-188926Y644950D01*
X-181283Y646998D01*
X-174431Y650954D01*
X-168836Y656549D01*
X-79546Y745839D01*
X-74314Y748006D01*
X-69081Y745839D01*
G37*
%TD.AperFunction*%
%TD*%
M02*
