%TF.GenerationSoftware,KiCad,Pcbnew,9.0.0*%
%TF.CreationDate,2025-04-22T13:44:47+01:00*%
%TF.ProjectId,vm_rgb_led_0.3,766d5f72-6762-45f6-9c65-645f302e332e,v0.3*%
%TF.SameCoordinates,PX518a060PY47868c0*%
%TF.FileFunction,Legend,Top*%
%TF.FilePolarity,Positive*%
%FSLAX45Y45*%
G04 Gerber Fmt 4.5, Leading zero omitted, Abs format (unit mm)*
G04 Created by KiCad (PCBNEW 9.0.0) date 2025-04-22 13:44:47*
%MOMM*%
%LPD*%
G01*
G04 APERTURE LIST*
%ADD10C,0.200000*%
%ADD11C,0.150000*%
%ADD12C,0.075000*%
G04 APERTURE END LIST*
D10*
X-613985Y-656722D02*
X-604461Y-656722D01*
X-604461Y-656722D02*
X-594938Y-661484D01*
X-594938Y-661484D02*
X-590176Y-666246D01*
X-590176Y-666246D02*
X-585414Y-675770D01*
X-585414Y-675770D02*
X-580652Y-694817D01*
X-580652Y-694817D02*
X-580652Y-718627D01*
X-580652Y-718627D02*
X-585414Y-737674D01*
X-585414Y-737674D02*
X-590176Y-747198D01*
X-590176Y-747198D02*
X-594938Y-751960D01*
X-594938Y-751960D02*
X-604461Y-756722D01*
X-604461Y-756722D02*
X-613985Y-756722D01*
X-613985Y-756722D02*
X-623509Y-751960D01*
X-623509Y-751960D02*
X-628271Y-747198D01*
X-628271Y-747198D02*
X-633033Y-737674D01*
X-633033Y-737674D02*
X-637795Y-718627D01*
X-637795Y-718627D02*
X-637795Y-694817D01*
X-637795Y-694817D02*
X-633033Y-675770D01*
X-633033Y-675770D02*
X-628271Y-666246D01*
X-628271Y-666246D02*
X-623509Y-661484D01*
X-623509Y-661484D02*
X-613985Y-656722D01*
X-537795Y-747198D02*
X-533033Y-751960D01*
X-533033Y-751960D02*
X-537795Y-756722D01*
X-537795Y-756722D02*
X-542557Y-751960D01*
X-542557Y-751960D02*
X-537795Y-747198D01*
X-537795Y-747198D02*
X-537795Y-756722D01*
X-499699Y-656722D02*
X-437795Y-656722D01*
X-437795Y-656722D02*
X-471128Y-694817D01*
X-471128Y-694817D02*
X-456842Y-694817D01*
X-456842Y-694817D02*
X-447318Y-699579D01*
X-447318Y-699579D02*
X-442557Y-704341D01*
X-442557Y-704341D02*
X-437795Y-713865D01*
X-437795Y-713865D02*
X-437795Y-737674D01*
X-437795Y-737674D02*
X-442557Y-747198D01*
X-442557Y-747198D02*
X-447318Y-751960D01*
X-447318Y-751960D02*
X-456842Y-756722D01*
X-456842Y-756722D02*
X-485414Y-756722D01*
X-485414Y-756722D02*
X-494937Y-751960D01*
X-494937Y-751960D02*
X-499699Y-747198D01*
%TO.C,U2*%
D11*
X-437500Y-57500D02*
X-682500Y-57500D01*
X-682500Y57500D01*
X-437500Y57500D01*
X-437500Y-57500D01*
D12*
X-453750Y37500D02*
G75*
G02*
X-461250Y37500I-3750J0D01*
G01*
X-461250Y37500D02*
G75*
G02*
X-453750Y37500I3750J0D01*
G01*
X-433750Y182500D02*
G75*
G02*
X-441250Y182500I-3750J0D01*
G01*
X-441250Y182500D02*
G75*
G02*
X-433750Y182500I3750J0D01*
G01*
D11*
%TO.C,D1*%
X-570000Y-552500D02*
X-570000Y-487500D01*
X-565000Y-520000D02*
X-510000Y-487500D01*
X-565000Y-520000D02*
X-510000Y-552500D01*
X-510000Y-552500D02*
X-510000Y-487500D01*
D12*
X-653750Y-467500D02*
G75*
G02*
X-661250Y-467500I-3750J0D01*
G01*
X-661250Y-467500D02*
G75*
G02*
X-653750Y-467500I3750J0D01*
G01*
%TO.C,U1*%
D11*
X-350500Y187500D02*
X254500Y187500D01*
X254500Y-187500D01*
X-350500Y-187500D01*
X-350500Y187500D01*
D12*
X-369250Y-287500D02*
G75*
G02*
X-376750Y-287500I-3750J0D01*
G01*
X-376750Y-287500D02*
G75*
G02*
X-369250Y-287500I3750J0D01*
G01*
D11*
X-313000Y-157500D02*
G75*
G02*
X-328000Y-157500I-7500J0D01*
G01*
X-328000Y-157500D02*
G75*
G02*
X-313000Y-157500I7500J0D01*
G01*
%TO.C,D2*%
X-682500Y667500D02*
X-617500Y667500D01*
X-682500Y607500D02*
X-617500Y607500D01*
X-650000Y695000D02*
X-650000Y665000D01*
X-650000Y662500D02*
X-682500Y607500D01*
X-650000Y662500D02*
X-617500Y607500D01*
X-650000Y607500D02*
X-650000Y585000D01*
D12*
X-596250Y800000D02*
G75*
G02*
X-603750Y800000I-3750J0D01*
G01*
X-603750Y800000D02*
G75*
G02*
X-596250Y800000I3750J0D01*
G01*
D11*
%TO.C,D3*%
X663750Y-286250D02*
X701250Y-286250D01*
X682500Y-267500D02*
X682500Y-305000D01*
D12*
X411250Y-127500D02*
G75*
G02*
X403750Y-127500I-3750J0D01*
G01*
X403750Y-127500D02*
G75*
G02*
X411250Y-127500I3750J0D01*
G01*
%TD*%
M02*
