G04 Gerber file generated by Gerbonara*
%TF.GenerationSoftware,KiCad,Pcbnew,8.0.2-1*%
%TF.CreationDate,2024-09-30T19:11:18+01:00*%
%TF.ProjectId,test_module_1,74657374-5f6d-46f6-9475-6c655f312e6b,rev?*%
%TF.SameCoordinates,PX8583b00PY5f5e100*%
%TF.FileFunction,Legend,Top*%
%TF.FilePolarity,Positive*%
%MOMM*%
%FSLAX45Y45*%
%IPPOS*%
G75
%LPD*%
%ADD10C,0.15*%
%ADD11C,0.12*%
D10*
X-001576191Y-001932482D02*
X-001576191Y-002013434D01*
X-001571429Y-002022958D01*
X-001566667Y-002027720D01*
X-001557143Y-002032482D01*
X-001538095Y-002032482D01*
X-001528571Y-002027720D01*
X-001523810Y-002022958D01*
X-001519048Y-002013434D01*
X-001519048Y-001932482D01*
X-001419048Y-002032482D02*
X-001476191Y-002032482D01*
X-001447619Y-002032482D02*
X-001447619Y-001932482D01*
X-001457143Y-001946768D01*
X-001466667Y-001956291D01*
X-001476191Y-001961053D01*
D11*
X-001861000Y-002171000D02*
X-001861000Y-002130000D01*
X-001861000Y-002828000D02*
X-001861000Y-002763000D01*
X-001796000Y-002106000D02*
X-001831000Y-002106000D01*
X-001796000Y-002828000D02*
X-001861000Y-002828000D01*
X-001204000Y-002106000D02*
X-001139000Y-002106000D01*
X-001204000Y-002828000D02*
X-001139000Y-002828000D01*
X-001139000Y-002106000D02*
X-001139000Y-002171000D01*
X-001139000Y-002828000D02*
X-001139000Y-002763000D01*
X-001861000Y-002106000D02*
X-001885000Y-002073000D01*
X-001837000Y-002073000D01*
X-001861000Y-002106000D01*
G36*
G01**
X-001885000Y-002073000D01*
X-001837000Y-002073000D01*
X-001861000Y-002106000D01*
G37*
D10*
X-003576190Y003067518D02*
X-003576190Y002986566D01*
X-003571429Y002977042D01*
X-003566667Y002972280D01*
X-003557143Y002967518D01*
X-003538095Y002967518D01*
X-003528572Y002972280D01*
X-003523810Y002977042D01*
X-003519048Y002986566D01*
X-003519048Y003067518D01*
X-003419048Y002967518D02*
X-003476190Y002967518D01*
X-003447619Y002967518D02*
X-003447619Y003067518D01*
X-003457143Y003053232D01*
X-003466667Y003043709D01*
X-003476190Y003038947D01*
D11*
X-003861000Y002829000D02*
X-003861000Y002870000D01*
X-003861000Y002172000D02*
X-003861000Y002237000D01*
X-003796000Y002894000D02*
X-003831000Y002894000D01*
X-003796000Y002172000D02*
X-003861000Y002172000D01*
X-003204000Y002894000D02*
X-003139000Y002894000D01*
X-003204000Y002172000D02*
X-003139000Y002172000D01*
X-003139000Y002894000D02*
X-003139000Y002829000D01*
X-003139000Y002172000D02*
X-003139000Y002237000D01*
X-003861000Y002894000D02*
X-003885000Y002927000D01*
X-003837000Y002927000D01*
X-003861000Y002894000D01*
G36*
G01**
X-003885000Y002927000D01*
X-003837000Y002927000D01*
X-003861000Y002894000D01*
G37*
D10*
X002423810Y001567518D02*
X002423810Y001486566D01*
X002428571Y001477042D01*
X002433333Y001472280D01*
X002442857Y001467518D01*
X002461905Y001467518D01*
X002471429Y001472280D01*
X002476190Y001477042D01*
X002480952Y001486566D01*
X002480952Y001567518D01*
X002580952Y001467518D02*
X002523810Y001467518D01*
X002552381Y001467518D02*
X002552381Y001567518D01*
X002542857Y001553232D01*
X002533333Y001543709D01*
X002523810Y001538947D01*
D11*
X002139000Y001329000D02*
X002139000Y001370000D01*
X002139000Y000672000D02*
X002139000Y000737000D01*
X002204000Y001394000D02*
X002169000Y001394000D01*
X002204000Y000672000D02*
X002139000Y000672000D01*
X002796000Y001394000D02*
X002861000Y001394000D01*
X002796000Y000672000D02*
X002861000Y000672000D01*
X002861000Y001394000D02*
X002861000Y001329000D01*
X002861000Y000672000D02*
X002861000Y000737000D01*
X002139000Y001394000D02*
X002115000Y001427000D01*
X002163000Y001427000D01*
X002139000Y001394000D01*
G36*
G01**
X002115000Y001427000D01*
X002163000Y001427000D01*
X002139000Y001394000D01*
G37*
M02*