G04 Gerber file generated by Gerbonara*
%TF.GenerationSoftware,KiCad,Pcbnew,8.0.2-1*%
%TF.CreationDate,2024-09-30T19:11:18+01:00*%
%TF.ProjectId,test_module_1,74657374-5f6d-46f6-9475-6c655f312e6b,rev?*%
%TF.SameCoordinates,PX8583b00PY5f5e100*%
%TF.FileFunction,Copper,L1,Top*%
%TF.FilePolarity,Positive*%
%MOMM*%
%FSLAX45Y45*%
%IPPOS*%
G75
%LPD*%
%AMCALCM10*
0 Fully substituted instance of CALCM10 macro*
0 Original parameters: none*
4,1,4,-0.35,-0.05,0.35,-0.05,0.35,0.05,-0.35,0.05,-0.35,-0.05,0*
1,1,0.1,-0.35,-0.05,0*
1,1,0.1,0.35,-0.05,0*
1,1,0.1,0.35,0.05,0*
1,1,0.1,-0.35,0.05,0*
20,1,0.1,-0.35,-0.05,0.35,-0.05,0*
20,1,0.1,0.35,-0.05,0.35,0.05,0*
20,1,0.1,0.35,0.05,-0.35,0.05,0*
20,1,0.1,-0.35,0.05,-0.35,-0.05,0*
%
%AMCALCM11*
0 Fully substituted instance of CALCM11 macro*
0 Original parameters: none*
4,1,4,-0.05,-0.35,0.05,-0.35,0.05,0.35,-0.05,0.35,-0.05,-0.35,0*
1,1,0.1,-0.05,-0.35,0*
1,1,0.1,0.05,-0.35,0*
1,1,0.1,0.05,0.35,0*
1,1,0.1,-0.05,0.35,0*
20,1,0.1,-0.05,-0.35,0.05,-0.35,0*
20,1,0.1,0.05,-0.35,0.05,0.35,0*
20,1,0.1,0.05,0.35,-0.05,0.35,0*
20,1,0.1,-0.05,0.35,-0.05,-0.35,0*
%
%ADD10CALCM10*%
%ADD11CALCM11*%
%ADD12R,4.0X4.0*%
%ADD13C,0.1*%
%ADD14C,0.6*%
%ADD15C,0.2*%
D10*
X000655000Y000293000D03*
X000655000Y000253000D03*
X000655000Y000213000D03*
X000655000Y000173000D03*
X000655000Y000133000D03*
X000655000Y000093000D03*
X000655000Y000053000D03*
X000655000Y000013000D03*
X000655000Y-000027000D03*
X000655000Y-000067000D03*
X000655000Y-000107000D03*
X000655000Y-000147000D03*
X000655000Y-000187000D03*
X000655000Y-000227000D03*
D11*
X000740000Y-000312000D03*
X000780000Y-000312000D03*
X000820000Y-000312000D03*
X000860000Y-000312000D03*
X000900000Y-000312000D03*
X000940000Y-000312000D03*
X000980000Y-000312000D03*
X001020000Y-000312000D03*
X001060000Y-000312000D03*
X001100000Y-000312000D03*
X001140000Y-000312000D03*
X001180000Y-000312000D03*
X001220000Y-000312000D03*
X001260000Y-000312000D03*
D10*
X001345000Y-000227000D03*
X001345000Y-000187000D03*
X001345000Y-000147000D03*
X001345000Y-000107000D03*
X001345000Y-000067000D03*
X001345000Y-000027000D03*
X001345000Y000013000D03*
X001345000Y000053000D03*
X001345000Y000093000D03*
X001345000Y000133000D03*
X001345000Y000173000D03*
X001345000Y000213000D03*
X001345000Y000253000D03*
X001345000Y000293000D03*
D11*
X001260000Y000378000D03*
X001220000Y000378000D03*
X001180000Y000378000D03*
X001140000Y000378000D03*
X001100000Y000378000D03*
X001060000Y000378000D03*
X001020000Y000378000D03*
X000980000Y000378000D03*
X000940000Y000378000D03*
X000900000Y000378000D03*
X000860000Y000378000D03*
X000820000Y000378000D03*
X000780000Y000378000D03*
X000740000Y000378000D03*
D12*
X001000000Y000033000D03*
D13*
X001000000Y001000000D03*
X002000000Y0D03*
X0Y0D03*
D14*
X001000000Y000033000D03*
X001600000Y0D03*
D15*
X000919636Y000448000D02*
X000940000Y000427636D01*
X000820000Y000378000D02*
X000820000Y000427636D01*
X000940000Y000378000D02*
X000940000Y000940000D01*
X001000000Y001000000D01*
X000940000Y000427636D02*
X000940000Y000378000D01*
X000820000Y000427636D02*
X000840364Y000448000D01*
X000784636Y000293000D02*
X000655000Y000293000D01*
X000820000Y000378000D02*
X000820000Y000328364D01*
X000840364Y000448000D02*
X000919636Y000448000D01*
X000820000Y000328364D02*
X000784636Y000293000D01*
X0Y0D02*
X000133000Y000133000D01*
X000655000Y000133000D01*
X002000000Y0D02*
X001600000Y0D01*
D14*
X001000000Y001000000D03*
X002000000Y0D03*
X0Y0D03*
M02*