G04 Gerber file generated by Gerbonara*
%TF.GenerationSoftware,KiCad,Pcbnew,8.0.2-1*%
%TF.CreationDate,2024-09-30T19:11:18+01:00*%
%TF.ProjectId,test_module_1,74657374-5f6d-46f6-9475-6c655f312e6b,rev?*%
%TF.SameCoordinates,PX8583b00PY5f5e100*%
%TF.FileFunction,Legend,Top*%
%TF.FilePolarity,Positive*%
%MOMM*%
%FSLAX46Y46*%
%IPPOS*%
G75
%LPD*%
%ADD10C,0.15*%
%ADD11C,0.12*%
D10*
X0009238095Y0005675181D02*
X0009238095Y0004865658D01*
X0009285714Y0004770420D01*
X0009333333Y0004722800D01*
X0009428571Y0004675181D01*
X0009619047Y0004675181D01*
X0009714285Y0004722800D01*
X0009761904Y0004770420D01*
X0009809523Y0004865658D01*
X0009809523Y0005675181D01*
X0010809523Y0004675181D02*
X0010238095Y0004675181D01*
X0010523809Y0004675181D02*
X0010523809Y0005675181D01*
X0010428571Y0005532324D01*
X0010333333Y0005437086D01*
X0010238095Y0005389467D01*
D11*
X0006390000Y0003290000D02*
X0006390000Y0003700000D01*
X0006390000Y-0003280000D02*
X0006390000Y-0002630000D01*
X0007040000Y0003940000D02*
X0006690000Y0003940000D01*
X0007040000Y-0003280000D02*
X0006390000Y-0003280000D01*
X0012960000Y0003940000D02*
X0013610000Y0003940000D01*
X0012960000Y-0003280000D02*
X0013610000Y-0003280000D01*
X0013610000Y0003940000D02*
X0013610000Y0003290000D01*
X0013610000Y-0003280000D02*
X0013610000Y-0002630000D01*
X0006390000Y0003940000D02*
X0006150000Y0004270000D01*
X0006630000Y0004270000D01*
X0006390000Y0003940000D01*
G36*
G01**
X0006150000Y0004270000D01*
X0006630000Y0004270000D01*
X0006390000Y0003940000D01*
G37*
M02*