G04 Gerber file generated by Gerbonara*
%TF.GenerationSoftware,KiCad,Pcbnew,8.0.2-1*%
%TF.CreationDate,2024-09-30T19:11:18+01:00*%
%TF.ProjectId,test_module_1,74657374-5f6d-46f6-9475-6c655f312e6b,rev?*%
%TF.SameCoordinates,PX8583b00PY5f5e100*%
%TF.FileFunction,Soldermask,Top*%
%TF.FilePolarity,Negative*%
%MOMM*%
%FSLAX45Y45*%
%IPPOS*%
G75
%LPD*%
%AMCALCM10*
0 Fully substituted instance of RoundRect macro*
0 Original parameters: 0.05X-0.35X-0.05X0.35X-0.05X0.35X0.05X-0.35X0.05*
4,1,4,-0.35,-0.05,0.35,-0.05,0.35,0.05,-0.35,0.05,-0.35,-0.05,0*
1,1,0.1,-0.35,-0.05,0*
1,1,0.1,0.35,-0.05,0*
1,1,0.1,0.35,0.05,0*
1,1,0.1,-0.35,0.05,0*
20,1,0.1,-0.35,-0.05,0.35,-0.05,0*
20,1,0.1,0.35,-0.05,0.35,0.05,0*
20,1,0.1,0.35,0.05,-0.35,0.05,0*
20,1,0.1,-0.35,0.05,-0.35,-0.05,0*
%
%AMCALCM11*
0 Fully substituted instance of RoundRect macro*
0 Original parameters: 0.05X-0.05X-0.35X0.05X-0.35X0.05X0.35X-0.05X0.35*
4,1,4,-0.05,-0.35,0.05,-0.35,0.05,0.35,-0.05,0.35,-0.05,-0.35,0*
1,1,0.1,-0.05,-0.35,0*
1,1,0.1,0.05,-0.35,0*
1,1,0.1,0.05,0.35,0*
1,1,0.1,-0.05,0.35,0*
20,1,0.1,-0.05,-0.35,0.05,-0.35,0*
20,1,0.1,0.05,-0.35,0.05,0.35,0*
20,1,0.1,0.05,0.35,-0.05,0.35,0*
20,1,0.1,-0.05,0.35,-0.05,-0.35,0*
%
%ADD10CALCM10*%
%ADD11CALCM11*%
%ADD12R,4.0X4.0*%
D10*
X-001845000Y-002207000D03*
X-001845000Y-002247000D03*
X-001845000Y-002287000D03*
X-001845000Y-002327000D03*
X-001845000Y-002367000D03*
X-001845000Y-002407000D03*
X-001845000Y-002447000D03*
X-001845000Y-002487000D03*
X-001845000Y-002527000D03*
X-001845000Y-002567000D03*
X-001845000Y-002607000D03*
X-001845000Y-002647000D03*
X-001845000Y-002687000D03*
X-001845000Y-002727000D03*
D11*
X-001760000Y-002812000D03*
X-001720000Y-002812000D03*
X-001680000Y-002812000D03*
X-001640000Y-002812000D03*
X-001600000Y-002812000D03*
X-001560000Y-002812000D03*
X-001520000Y-002812000D03*
X-001480000Y-002812000D03*
X-001440000Y-002812000D03*
X-001400000Y-002812000D03*
X-001360000Y-002812000D03*
X-001320000Y-002812000D03*
X-001280000Y-002812000D03*
X-001240000Y-002812000D03*
D10*
X-001155000Y-002727000D03*
X-001155000Y-002687000D03*
X-001155000Y-002647000D03*
X-001155000Y-002607000D03*
X-001155000Y-002567000D03*
X-001155000Y-002527000D03*
X-001155000Y-002487000D03*
X-001155000Y-002447000D03*
X-001155000Y-002407000D03*
X-001155000Y-002367000D03*
X-001155000Y-002327000D03*
X-001155000Y-002287000D03*
X-001155000Y-002247000D03*
X-001155000Y-002207000D03*
D11*
X-001240000Y-002122000D03*
X-001280000Y-002122000D03*
X-001320000Y-002122000D03*
X-001360000Y-002122000D03*
X-001400000Y-002122000D03*
X-001440000Y-002122000D03*
X-001480000Y-002122000D03*
X-001520000Y-002122000D03*
X-001560000Y-002122000D03*
X-001600000Y-002122000D03*
X-001640000Y-002122000D03*
X-001680000Y-002122000D03*
X-001720000Y-002122000D03*
X-001760000Y-002122000D03*
D12*
X-001500000Y-002467000D03*
D10*
X-003845000Y002793000D03*
X-003845000Y002753000D03*
X-003845000Y002713000D03*
X-003845000Y002673000D03*
X-003845000Y002633000D03*
X-003845000Y002593000D03*
X-003845000Y002553000D03*
X-003845000Y002513000D03*
X-003845000Y002473000D03*
X-003845000Y002433000D03*
X-003845000Y002393000D03*
X-003845000Y002353000D03*
X-003845000Y002313000D03*
X-003845000Y002273000D03*
D11*
X-003760000Y002188000D03*
X-003720000Y002188000D03*
X-003680000Y002188000D03*
X-003640000Y002188000D03*
X-003600000Y002188000D03*
X-003560000Y002188000D03*
X-003520000Y002188000D03*
X-003480000Y002188000D03*
X-003440000Y002188000D03*
X-003400000Y002188000D03*
X-003360000Y002188000D03*
X-003320000Y002188000D03*
X-003280000Y002188000D03*
X-003240000Y002188000D03*
D10*
X-003155000Y002273000D03*
X-003155000Y002313000D03*
X-003155000Y002353000D03*
X-003155000Y002393000D03*
X-003155000Y002433000D03*
X-003155000Y002473000D03*
X-003155000Y002513000D03*
X-003155000Y002553000D03*
X-003155000Y002593000D03*
X-003155000Y002633000D03*
X-003155000Y002673000D03*
X-003155000Y002713000D03*
X-003155000Y002753000D03*
X-003155000Y002793000D03*
D11*
X-003240000Y002878000D03*
X-003280000Y002878000D03*
X-003320000Y002878000D03*
X-003360000Y002878000D03*
X-003400000Y002878000D03*
X-003440000Y002878000D03*
X-003480000Y002878000D03*
X-003520000Y002878000D03*
X-003560000Y002878000D03*
X-003600000Y002878000D03*
X-003640000Y002878000D03*
X-003680000Y002878000D03*
X-003720000Y002878000D03*
X-003760000Y002878000D03*
D12*
X-003500000Y002533000D03*
D10*
X002155000Y001293000D03*
X002155000Y001253000D03*
X002155000Y001213000D03*
X002155000Y001173000D03*
X002155000Y001133000D03*
X002155000Y001093000D03*
X002155000Y001053000D03*
X002155000Y001013000D03*
X002155000Y000973000D03*
X002155000Y000933000D03*
X002155000Y000893000D03*
X002155000Y000853000D03*
X002155000Y000813000D03*
X002155000Y000773000D03*
D11*
X002240000Y000688000D03*
X002280000Y000688000D03*
X002320000Y000688000D03*
X002360000Y000688000D03*
X002400000Y000688000D03*
X002440000Y000688000D03*
X002480000Y000688000D03*
X002520000Y000688000D03*
X002560000Y000688000D03*
X002600000Y000688000D03*
X002640000Y000688000D03*
X002680000Y000688000D03*
X002720000Y000688000D03*
X002760000Y000688000D03*
D10*
X002845000Y000773000D03*
X002845000Y000813000D03*
X002845000Y000853000D03*
X002845000Y000893000D03*
X002845000Y000933000D03*
X002845000Y000973000D03*
X002845000Y001013000D03*
X002845000Y001053000D03*
X002845000Y001093000D03*
X002845000Y001133000D03*
X002845000Y001173000D03*
X002845000Y001213000D03*
X002845000Y001253000D03*
X002845000Y001293000D03*
D11*
X002760000Y001378000D03*
X002720000Y001378000D03*
X002680000Y001378000D03*
X002640000Y001378000D03*
X002600000Y001378000D03*
X002560000Y001378000D03*
X002520000Y001378000D03*
X002480000Y001378000D03*
X002440000Y001378000D03*
X002400000Y001378000D03*
X002360000Y001378000D03*
X002320000Y001378000D03*
X002280000Y001378000D03*
X002240000Y001378000D03*
D12*
X002500000Y001033000D03*
M02*