G04 Gerber file generated by Gerbonara*
%TF.GenerationSoftware,KiCad,Pcbnew,8.0.3*%
%TF.CreationDate,2024-09-17T15:53:27+01:00*%
%TF.ProjectId,test_module_1,74657374-5f6d-46f6-9475-6c655f312e6b,rev?*%
%TF.SameCoordinates,PX8583b00PY5f5e100*%
%TF.FileFunction,Other,User*%
%MOMM*%
%FSLAX45Y45*%
%IPPOS*%
G75
%LPD*%
%ADD10C,0.1*%
%ADD11C,0.11*%
%ADD12C,0.12*%
%ADD13C,0.13*%
D10*
X001500000Y-001500000D02*
X003500000Y-001500000D01*
X003500000Y-003500000D01*
X001500000Y-003500000D01*
X001500000Y-001500000D01*
D11*
X002500000Y-001500000D02*
X002500000Y-001500000D01*
D12*
X003500000Y-002500000D02*
X003500000Y-002500000D01*
D13*
X001500000Y-002500000D02*
X001500000Y-002500000D01*
D10*
X-001500000Y-001500000D02*
X000500000Y-001500000D01*
X000500000Y-003500000D01*
X-001500000Y-003500000D01*
X-001500000Y-001500000D01*
D11*
X-000500000Y-001500000D02*
X-000500000Y-001500000D01*
D12*
X000500000Y-002500000D02*
X000500000Y-002500000D01*
D13*
X-001500000Y-002500000D02*
X-001500000Y-002500000D01*
D10*
X001500000Y002000000D02*
X003500000Y002000000D01*
X003500000Y0D01*
X001500000Y0D01*
X001500000Y002000000D01*
D11*
X002500000Y002000000D02*
X002500000Y002000000D01*
D12*
X003500000Y001000000D02*
X003500000Y001000000D01*
D13*
X001500000Y001000000D02*
X001500000Y001000000D01*
D10*
X-001500000Y002000000D02*
X000500000Y002000000D01*
X000500000Y0D01*
X-001500000Y0D01*
X-001500000Y002000000D01*
D11*
X-000500000Y002000000D02*
X-000500000Y002000000D01*
D12*
X000500000Y001000000D02*
X000500000Y001000000D01*
D13*
X-001500000Y001000000D02*
X-001500000Y001000000D01*
M02*