G04 Gerber file generated by Gerbonara*
%TF.GenerationSoftware,KiCad,Pcbnew,8.0.2-1*%
%TF.CreationDate,2024-09-09T14:50:12+01:00*%
%TF.ProjectId,test_module_1,74657374-5f6d-46f6-9475-6c655f312e6b,rev?*%
%TF.SameCoordinates,Original*%
%TF.FileFunction,Paste,Top*%
%TF.FilePolarity,Positive*%
%MOMM*%
%FSLAX45Y45*%
%IPPOS*%
G75
%LPD*%
%AMCALCM10*
0 Fully substituted instance of RoundRect macro*
0 Original parameters: 0.25X-0.285X-0.285X0.285X-0.285X0.285X0.285X-0.285X0.285*
4,1,4,-0.285,-0.285,0.285,-0.285,0.285,0.285,-0.285,0.285,-0.285,-0.285,0*
1,1,0.5,-0.285,-0.285,0*
1,1,0.5,0.285,-0.285,0*
1,1,0.5,0.285,0.285,0*
1,1,0.5,-0.285,0.285,0*
20,1,0.5,-0.285,-0.285,0.285,-0.285,0*
20,1,0.5,0.285,-0.285,0.285,0.285,0*
20,1,0.5,0.285,0.285,-0.285,0.285,0*
20,1,0.5,-0.285,0.285,-0.285,-0.285,0*
%
%AMCALCM11*
0 Fully substituted instance of RoundRect macro*
0 Original parameters: 0.05X-0.35X-0.05X0.35X-0.05X0.35X0.05X-0.35X0.05*
4,1,4,-0.35,-0.05,0.35,-0.05,0.35,0.05,-0.35,0.05,-0.35,-0.05,0*
1,1,0.1,-0.35,-0.05,0*
1,1,0.1,0.35,-0.05,0*
1,1,0.1,0.35,0.05,0*
1,1,0.1,-0.35,0.05,0*
20,1,0.1,-0.35,-0.05,0.35,-0.05,0*
20,1,0.1,0.35,-0.05,0.35,0.05,0*
20,1,0.1,0.35,0.05,-0.35,0.05,0*
20,1,0.1,-0.35,0.05,-0.35,-0.05,0*
%
%AMCALCM12*
0 Fully substituted instance of RoundRect macro*
0 Original parameters: 0.05X-0.05X-0.35X0.05X-0.35X0.05X0.35X-0.05X0.35*
4,1,4,-0.05,-0.35,0.05,-0.35,0.05,0.35,-0.05,0.35,-0.05,-0.35,0*
1,1,0.1,-0.05,-0.35,0*
1,1,0.1,0.05,-0.35,0*
1,1,0.1,0.05,0.35,0*
1,1,0.1,-0.05,0.35,0*
20,1,0.1,-0.05,-0.35,0.05,-0.35,0*
20,1,0.1,0.05,-0.35,0.05,0.35,0*
20,1,0.1,0.05,0.35,-0.05,0.35,0*
20,1,0.1,-0.05,0.35,-0.05,-0.35,0*
%
%AMCALCM13*
0 Fully substituted instance of GNX91F5AA1BB783B403 macro*
0 Original parameters: 0.25X-0.285X-0.285X0.285X-0.285X0.285X0.285X-0.285X0.285*
4,1,4,-0.285,0.285,-0.285,-0.285,0.285,-0.285,0.285,0.285,-0.285,0.285,0*
1,1,0.5,-0.285,0.285,0*
1,1,0.5,-0.285,-0.285,0*
1,1,0.5,0.285,-0.285,0*
1,1,0.5,0.285,0.285,0*
20,1,0.5,-0.285,0.285,-0.285,-0.285,0*
20,1,0.5,-0.285,-0.285,0.285,-0.285,0*
20,1,0.5,0.285,-0.285,0.285,0.285,0*
20,1,0.5,0.285,0.285,-0.285,0.285,0*
%
%AMCALCM14*
0 Fully substituted instance of GNX91F5AA1BB783B403 macro*
0 Original parameters: 0.05X-0.35X-0.05X0.35X-0.05X0.35X0.05X-0.35X0.05*
4,1,4,-0.05,0.35,-0.05,-0.35,0.05,-0.35,0.05,0.35,-0.05,0.35,0*
1,1,0.1,-0.05,0.35,0*
1,1,0.1,-0.05,-0.35,0*
1,1,0.1,0.05,-0.35,0*
1,1,0.1,0.05,0.35,0*
20,1,0.1,-0.05,0.35,-0.05,-0.35,0*
20,1,0.1,-0.05,-0.35,0.05,-0.35,0*
20,1,0.1,0.05,-0.35,0.05,0.35,0*
20,1,0.1,0.05,0.35,-0.05,0.35,0*
%
%AMCALCM15*
0 Fully substituted instance of GNX91F5AA1BB783B403 macro*
0 Original parameters: 0.05X-0.05X-0.35X0.05X-0.35X0.05X0.35X-0.05X0.35*
4,1,4,-0.35,0.05,-0.35,-0.05,0.35,-0.05,0.35,0.05,-0.35,0.05,0*
1,1,0.1,-0.35,0.05,0*
1,1,0.1,-0.35,-0.05,0*
1,1,0.1,0.35,-0.05,0*
1,1,0.1,0.35,0.05,0*
20,1,0.1,-0.35,0.05,-0.35,-0.05,0*
20,1,0.1,-0.35,-0.05,0.35,-0.05,0*
20,1,0.1,0.35,-0.05,0.35,0.05,0*
20,1,0.1,0.35,0.05,-0.35,0.05,0*
%
%ADD10CALCM10*%
%ADD11CALCM11*%
%ADD12CALCM12*%
%ADD13CALCM13*%
%ADD14CALCM14*%
%ADD15CALCM15*%
D10*
X013867000Y-009834000D03*
X013867000Y-009967000D03*
X013867000Y-010100000D03*
X014000000Y-009834000D03*
X014000000Y-009967000D03*
X014000000Y-010100000D03*
X014133000Y-009834000D03*
X014133000Y-009967000D03*
X014133000Y-010100000D03*
D11*
X013655000Y-009707000D03*
X013655000Y-009747000D03*
X013655000Y-009787000D03*
X013655000Y-009827000D03*
X013655000Y-009867000D03*
X013655000Y-009907000D03*
X013655000Y-009947000D03*
X013655000Y-009987000D03*
X013655000Y-010027000D03*
X013655000Y-010067000D03*
X013655000Y-010107000D03*
X013655000Y-010147000D03*
X013655000Y-010187000D03*
X013655000Y-010227000D03*
D12*
X013740000Y-010312000D03*
X013780000Y-010312000D03*
X013820000Y-010312000D03*
X013860000Y-010312000D03*
X013900000Y-010312000D03*
X013940000Y-010312000D03*
X013980000Y-010312000D03*
X014020000Y-010312000D03*
X014060000Y-010312000D03*
X014100000Y-010312000D03*
X014140000Y-010312000D03*
X014180000Y-010312000D03*
X014220000Y-010312000D03*
X014260000Y-010312000D03*
D11*
X014345000Y-010227000D03*
X014345000Y-010187000D03*
X014345000Y-010147000D03*
X014345000Y-010107000D03*
X014345000Y-010067000D03*
X014345000Y-010027000D03*
X014345000Y-009987000D03*
X014345000Y-009947000D03*
X014345000Y-009907000D03*
X014345000Y-009867000D03*
X014345000Y-009827000D03*
X014345000Y-009787000D03*
X014345000Y-009747000D03*
X014345000Y-009707000D03*
D12*
X014260000Y-009622000D03*
X014220000Y-009622000D03*
X014180000Y-009622000D03*
X014140000Y-009622000D03*
X014100000Y-009622000D03*
X014060000Y-009622000D03*
X014020000Y-009622000D03*
X013980000Y-009622000D03*
X013940000Y-009622000D03*
X013900000Y-009622000D03*
X013860000Y-009622000D03*
X013820000Y-009622000D03*
X013780000Y-009622000D03*
X013740000Y-009622000D03*
D13*
X-009833482Y-013866513D03*
X-009966482Y-013866513D03*
X-010099482Y-013866513D03*
X-009833481Y-013999513D03*
X-009966481Y-013999513D03*
X-010099481Y-013999513D03*
X-009833481Y-014132513D03*
X-009966481Y-014132513D03*
X-010099481Y-014132513D03*
D14*
X-009706482Y-013654513D03*
X-009746482Y-013654513D03*
X-009786482Y-013654513D03*
X-009826482Y-013654513D03*
X-009866482Y-013654513D03*
X-009906482Y-013654513D03*
X-009946482Y-013654513D03*
X-009986482Y-013654513D03*
X-010026482Y-013654513D03*
X-010066482Y-013654513D03*
X-010106482Y-013654513D03*
X-010146482Y-013654513D03*
X-010186482Y-013654514D03*
X-010226482Y-013654514D03*
D15*
X-010311482Y-013739514D03*
X-010311482Y-013779514D03*
X-010311482Y-013819514D03*
X-010311482Y-013859514D03*
X-010311482Y-013899514D03*
X-010311482Y-013939514D03*
X-010311481Y-013979514D03*
X-010311481Y-014019514D03*
X-010311481Y-014059514D03*
X-010311481Y-014099514D03*
X-010311481Y-014139514D03*
X-010311481Y-014179514D03*
X-010311481Y-014219514D03*
X-010311481Y-014259514D03*
D14*
X-010226481Y-014344514D03*
X-010186481Y-014344514D03*
X-010146481Y-014344513D03*
X-010106481Y-014344513D03*
X-010066481Y-014344513D03*
X-010026481Y-014344513D03*
X-009986481Y-014344513D03*
X-009946481Y-014344513D03*
X-009906481Y-014344513D03*
X-009866481Y-014344513D03*
X-009826481Y-014344513D03*
X-009786481Y-014344513D03*
X-009746481Y-014344513D03*
X-009706481Y-014344513D03*
D15*
X-009621481Y-014259513D03*
X-009621481Y-014219513D03*
X-009621481Y-014179513D03*
X-009621481Y-014139513D03*
X-009621481Y-014099513D03*
X-009621481Y-014059513D03*
X-009621481Y-014019513D03*
X-009621481Y-013979513D03*
X-009621482Y-013939513D03*
X-009621482Y-013899513D03*
X-009621482Y-013859513D03*
X-009621482Y-013819513D03*
X-009621482Y-013779513D03*
X-009621482Y-013739513D03*
M02*