G04 Gerber file generated by Gerbonara*
%TF.GenerationSoftware,KiCad,Pcbnew,8.0.2-1*%
%TF.CreationDate,2024-09-09T14:50:12+01:00*%
%TF.ProjectId,test_module_1,74657374-5f6d-46f6-9475-6c655f312e6b,rev?*%
%TF.SameCoordinates,Original*%
%TF.FileFunction,Legend,Top*%
%TF.FilePolarity,Positive*%
%MOMM*%
%FSLAX45Y45*%
%IPPOS*%
G75
%LPD*%
%ADD10C,0.15*%
%ADD11C,0.12*%
D10*
X013923809Y-009432482D02*
X013923809Y-009513434D01*
X013928571Y-009522958D01*
X013933333Y-009527720D01*
X013942857Y-009532482D01*
X013961905Y-009532482D01*
X013971428Y-009527720D01*
X013976190Y-009522958D01*
X013980952Y-009513434D01*
X013980952Y-009432482D01*
X014080952Y-009532482D02*
X014023809Y-009532482D01*
X014052381Y-009532482D02*
X014052381Y-009432482D01*
X014042857Y-009446768D01*
X014033333Y-009456291D01*
X014023809Y-009461053D01*
D11*
X013639000Y-009671000D02*
X013639000Y-009630000D01*
X013639000Y-010328000D02*
X013639000Y-010263000D01*
X013704000Y-009606000D02*
X013669000Y-009606000D01*
X013704000Y-010328000D02*
X013639000Y-010328000D01*
X014296000Y-009606000D02*
X014361000Y-009606000D01*
X014296000Y-010328000D02*
X014361000Y-010328000D01*
X014361000Y-009606000D02*
X014361000Y-009671000D01*
X014361000Y-010328000D02*
X014361000Y-010263000D01*
X013639000Y-009606000D02*
X013615000Y-009573000D01*
X013663000Y-009573000D01*
X013639000Y-009606000D01*
G36*
G01**
X013615000Y-009573000D01*
X013663000Y-009573000D01*
X013639000Y-009606000D01*
G37*
D10*
X-009431963Y-013923322D02*
X-009512916Y-013923322D01*
X-009522440Y-013928084D01*
X-009527202Y-013932846D01*
X-009531963Y-013942370D01*
X-009531963Y-013961417D01*
X-009527201Y-013970941D01*
X-009522439Y-013975703D01*
X-009512916Y-013980465D01*
X-009431963Y-013980465D01*
X-009531963Y-014080465D02*
X-009531963Y-014023322D01*
X-009531963Y-014051894D02*
X-009431963Y-014051893D01*
X-009446249Y-014042370D01*
X-009455773Y-014032846D01*
X-009460535Y-014023322D01*
D11*
X-009670482Y-013638513D02*
X-009629482Y-013638513D01*
X-010327482Y-013638514D02*
X-010262482Y-013638514D01*
X-009605482Y-013703513D02*
X-009605482Y-013668513D01*
X-010327482Y-013703514D02*
X-010327482Y-013638514D01*
X-009605481Y-014295513D02*
X-009605481Y-014360513D01*
X-010327481Y-014295514D02*
X-010327481Y-014360514D01*
X-009605481Y-014360513D02*
X-009670481Y-014360513D01*
X-010327481Y-014360514D02*
X-010262481Y-014360514D01*
X-009605482Y-013638513D02*
X-009572482Y-013614513D01*
X-009572482Y-013662513D01*
X-009605482Y-013638513D01*
G36*
G01**
X-009572482Y-013614513D01*
X-009572482Y-013662513D01*
X-009605482Y-013638513D01*
G37*
M02*