%TF.GenerationSoftware,KiCad,Pcbnew,9.0.6-9.0.6~ubuntu22.04.1*%
%TF.CreationDate,2026-01-23T17:03:40+00:00*%
%TF.ProjectId,vm_rgb_ring,766d5f72-6762-45f7-9269-6e672e6b6963,0.4*%
%TF.SameCoordinates,PX4f64b50PY4749830*%
%TF.FileFunction,Legend,Top*%
%TF.FilePolarity,Positive*%
%FSLAX45Y45*%
G04 Gerber Fmt 4.5, Leading zero omitted, Abs format (unit mm)*
G04 Created by KiCad (PCBNEW 9.0.6-9.0.6~ubuntu22.04.1) date 2026-01-23 17:03:40*
%MOMM*%
%LPD*%
G01*
G04 APERTURE LIST*
%ADD10C,0.200000*%
%ADD11C,0.150000*%
%ADD12C,0.075000*%
G04 APERTURE END LIST*
D10*
X-1270176Y463278D02*
X-1289223Y463278D01*
X-1289223Y463278D02*
X-1298747Y458516D01*
X-1298747Y458516D02*
X-1303509Y453754D01*
X-1303509Y453754D02*
X-1313033Y439469D01*
X-1313033Y439469D02*
X-1317795Y420421D01*
X-1317795Y420421D02*
X-1317795Y382326D01*
X-1317795Y382326D02*
X-1313033Y372802D01*
X-1313033Y372802D02*
X-1308271Y368040D01*
X-1308271Y368040D02*
X-1298747Y363278D01*
X-1298747Y363278D02*
X-1279699Y363278D01*
X-1279699Y363278D02*
X-1270176Y368040D01*
X-1270176Y368040D02*
X-1265414Y372802D01*
X-1265414Y372802D02*
X-1260652Y382326D01*
X-1260652Y382326D02*
X-1260652Y406135D01*
X-1260652Y406135D02*
X-1265414Y415659D01*
X-1265414Y415659D02*
X-1270176Y420421D01*
X-1270176Y420421D02*
X-1279699Y425183D01*
X-1279699Y425183D02*
X-1298747Y425183D01*
X-1298747Y425183D02*
X-1308271Y420421D01*
X-1308271Y420421D02*
X-1313033Y415659D01*
X-1313033Y415659D02*
X-1317795Y406135D01*
X-370176Y-1295055D02*
X-370176Y-1361722D01*
X-393985Y-1256960D02*
X-417795Y-1328389D01*
X-417795Y-1328389D02*
X-355890Y-1328389D01*
X1264348Y588278D02*
X1207205Y588278D01*
X1235777Y588278D02*
X1235777Y688278D01*
X1235777Y688278D02*
X1226253Y673992D01*
X1226253Y673992D02*
X1216729Y664469D01*
X1216729Y664469D02*
X1207205Y659707D01*
X-647557Y1263278D02*
X-580890Y1263278D01*
X-580890Y1263278D02*
X-623747Y1163278D01*
X1307205Y-371246D02*
X1311967Y-366484D01*
X1311967Y-366484D02*
X1321491Y-361722D01*
X1321491Y-361722D02*
X1345301Y-361722D01*
X1345301Y-361722D02*
X1354824Y-366484D01*
X1354824Y-366484D02*
X1359586Y-371246D01*
X1359586Y-371246D02*
X1364348Y-380769D01*
X1364348Y-380769D02*
X1364348Y-390293D01*
X1364348Y-390293D02*
X1359586Y-404579D01*
X1359586Y-404579D02*
X1302444Y-461722D01*
X1302444Y-461722D02*
X1364348Y-461722D01*
X431015Y1363278D02*
X440539Y1363278D01*
X440539Y1363278D02*
X450062Y1358516D01*
X450062Y1358516D02*
X454824Y1353754D01*
X454824Y1353754D02*
X459586Y1344231D01*
X459586Y1344231D02*
X464348Y1325183D01*
X464348Y1325183D02*
X464348Y1301373D01*
X464348Y1301373D02*
X459586Y1282326D01*
X459586Y1282326D02*
X454824Y1272802D01*
X454824Y1272802D02*
X450062Y1268040D01*
X450062Y1268040D02*
X440539Y1263278D01*
X440539Y1263278D02*
X431015Y1263278D01*
X431015Y1263278D02*
X421491Y1268040D01*
X421491Y1268040D02*
X416729Y1272802D01*
X416729Y1272802D02*
X411967Y1282326D01*
X411967Y1282326D02*
X407205Y1301373D01*
X407205Y1301373D02*
X407205Y1325183D01*
X407205Y1325183D02*
X411967Y1344231D01*
X411967Y1344231D02*
X416729Y1353754D01*
X416729Y1353754D02*
X421491Y1358516D01*
X421491Y1358516D02*
X431015Y1363278D01*
X-453985Y-736722D02*
X-444461Y-736722D01*
X-444461Y-736722D02*
X-434937Y-741484D01*
X-434937Y-741484D02*
X-430176Y-746246D01*
X-430176Y-746246D02*
X-425414Y-755769D01*
X-425414Y-755769D02*
X-420652Y-774817D01*
X-420652Y-774817D02*
X-420652Y-798627D01*
X-420652Y-798627D02*
X-425414Y-817674D01*
X-425414Y-817674D02*
X-430176Y-827198D01*
X-430176Y-827198D02*
X-434937Y-831960D01*
X-434937Y-831960D02*
X-444461Y-836722D01*
X-444461Y-836722D02*
X-453985Y-836722D01*
X-453985Y-836722D02*
X-463509Y-831960D01*
X-463509Y-831960D02*
X-468271Y-827198D01*
X-468271Y-827198D02*
X-473033Y-817674D01*
X-473033Y-817674D02*
X-477795Y-798627D01*
X-477795Y-798627D02*
X-477795Y-774817D01*
X-477795Y-774817D02*
X-473033Y-755769D01*
X-473033Y-755769D02*
X-468271Y-746246D01*
X-468271Y-746246D02*
X-463509Y-741484D01*
X-463509Y-741484D02*
X-453985Y-736722D01*
X-377795Y-827198D02*
X-373033Y-831960D01*
X-373033Y-831960D02*
X-377795Y-836722D01*
X-377795Y-836722D02*
X-382556Y-831960D01*
X-382556Y-831960D02*
X-377795Y-827198D01*
X-377795Y-827198D02*
X-377795Y-836722D01*
X-287319Y-770055D02*
X-287319Y-836722D01*
X-311128Y-731960D02*
X-334938Y-803388D01*
X-334938Y-803388D02*
X-273033Y-803388D01*
X-1165414Y-586722D02*
X-1213033Y-586722D01*
X-1213033Y-586722D02*
X-1217795Y-634341D01*
X-1217795Y-634341D02*
X-1213033Y-629579D01*
X-1213033Y-629579D02*
X-1203509Y-624817D01*
X-1203509Y-624817D02*
X-1179699Y-624817D01*
X-1179699Y-624817D02*
X-1170176Y-629579D01*
X-1170176Y-629579D02*
X-1165414Y-634341D01*
X-1165414Y-634341D02*
X-1160652Y-643865D01*
X-1160652Y-643865D02*
X-1160652Y-667674D01*
X-1160652Y-667674D02*
X-1165414Y-677198D01*
X-1165414Y-677198D02*
X-1170176Y-681960D01*
X-1170176Y-681960D02*
X-1179699Y-686722D01*
X-1179699Y-686722D02*
X-1203509Y-686722D01*
X-1203509Y-686722D02*
X-1213033Y-681960D01*
X-1213033Y-681960D02*
X-1217795Y-677198D01*
X627444Y-1186722D02*
X689348Y-1186722D01*
X689348Y-1186722D02*
X656015Y-1224817D01*
X656015Y-1224817D02*
X670301Y-1224817D01*
X670301Y-1224817D02*
X679824Y-1229579D01*
X679824Y-1229579D02*
X684586Y-1234341D01*
X684586Y-1234341D02*
X689348Y-1243865D01*
X689348Y-1243865D02*
X689348Y-1267674D01*
X689348Y-1267674D02*
X684586Y-1277198D01*
X684586Y-1277198D02*
X679824Y-1281960D01*
X679824Y-1281960D02*
X670301Y-1286722D01*
X670301Y-1286722D02*
X641729Y-1286722D01*
X641729Y-1286722D02*
X632205Y-1281960D01*
X632205Y-1281960D02*
X627444Y-1277198D01*
D11*
%TO.C,LED4*%
X634511Y-832650D02*
X661027Y-859167D01*
X634511Y-859167D02*
X661027Y-832650D01*
X1063194Y-898941D02*
X1089711Y-872425D01*
D12*
X479161Y-928110D02*
G75*
G02*
X471661Y-928110I-3750J0D01*
G01*
X471661Y-928110D02*
G75*
G02*
X479161Y-928110I3750J0D01*
G01*
D11*
X960785Y-864470D02*
G75*
G02*
X760785Y-864470I-100000J0D01*
G01*
X760785Y-864470D02*
G75*
G02*
X960785Y-864470I100000J0D01*
G01*
%TO.C,LED8*%
X-1059894Y888271D02*
X-1086411Y861754D01*
X-631211Y848496D02*
X-657727Y821980D01*
X-631211Y821980D02*
X-657727Y848496D01*
X-757485Y853799D02*
G75*
G02*
X-957485Y853799I-100000J0D01*
G01*
X-957485Y853799D02*
G75*
G02*
X-757485Y853799I100000J0D01*
G01*
D12*
X-468361Y917439D02*
G75*
G02*
X-475861Y917439I-3750J0D01*
G01*
X-475861Y917439D02*
G75*
G02*
X-468361Y917439I3750J0D01*
G01*
%TO.C,U2*%
D11*
X-277500Y-137500D02*
X-522500Y-137500D01*
X-522500Y-22500D01*
X-277500Y-22500D01*
X-277500Y-137500D01*
D12*
X-293750Y-42500D02*
G75*
G02*
X-301250Y-42500I-3750J0D01*
G01*
X-301250Y-42500D02*
G75*
G02*
X-293750Y-42500I3750J0D01*
G01*
X-273750Y102500D02*
G75*
G02*
X-281250Y102500I-3750J0D01*
G01*
X-281250Y102500D02*
G75*
G02*
X-273750Y102500I3750J0D01*
G01*
D11*
%TO.C,D1*%
X-410000Y-632500D02*
X-410000Y-567500D01*
X-405000Y-600000D02*
X-350000Y-567500D01*
X-405000Y-600000D02*
X-350000Y-632500D01*
X-350000Y-632500D02*
X-350000Y-567500D01*
D12*
X-493750Y-547500D02*
G75*
G02*
X-501250Y-547500I-3750J0D01*
G01*
X-501250Y-547500D02*
G75*
G02*
X-493750Y-547500I3750J0D01*
G01*
D11*
%TO.C,LED3*%
X1034150Y-142835D02*
X1071650Y-142835D01*
X1052900Y-161585D02*
X1052900Y-124085D01*
X1384150Y113415D02*
X1384150Y150915D01*
D12*
X992900Y-322835D02*
G75*
G02*
X985400Y-322835I-3750J0D01*
G01*
X985400Y-322835D02*
G75*
G02*
X992900Y-322835I3750J0D01*
G01*
D11*
X1316650Y-5335D02*
G75*
G02*
X1116650Y-5335I-100000J0D01*
G01*
X1116650Y-5335D02*
G75*
G02*
X1316650Y-5335I100000J0D01*
G01*
%TO.C,Q1*%
X595000Y100000D02*
X595000Y25000D01*
X647500Y100000D02*
X595000Y100000D01*
X742500Y0D02*
X647500Y0D01*
X795000Y100000D02*
X742500Y100000D01*
X795000Y100000D02*
X795000Y25000D01*
D12*
X556250Y-105000D02*
G75*
G02*
X548750Y-105000I-3750J0D01*
G01*
X548750Y-105000D02*
G75*
G02*
X556250Y-105000I3750J0D01*
G01*
X618750Y25000D02*
G75*
G02*
X611250Y25000I-3750J0D01*
G01*
X611250Y25000D02*
G75*
G02*
X618750Y25000I3750J0D01*
G01*
%TO.C,U1*%
D11*
X-190500Y107500D02*
X414500Y107500D01*
X414500Y-267500D01*
X-190500Y-267500D01*
X-190500Y107500D01*
D12*
X-209250Y-367500D02*
G75*
G02*
X-216750Y-367500I-3750J0D01*
G01*
X-216750Y-367500D02*
G75*
G02*
X-209250Y-367500I3750J0D01*
G01*
D11*
X-153000Y-237500D02*
G75*
G02*
X-168000Y-237500I-7500J0D01*
G01*
X-168000Y-237500D02*
G75*
G02*
X-153000Y-237500I7500J0D01*
G01*
%TO.C,LED5*%
X-154600Y-1056585D02*
X-117100Y-1056585D01*
X-135850Y-1037835D02*
X-135850Y-1075335D01*
X120400Y-1387835D02*
X157900Y-1387835D01*
D12*
X-312100Y-992835D02*
G75*
G02*
X-319600Y-992835I-3750J0D01*
G01*
X-319600Y-992835D02*
G75*
G02*
X-312100Y-992835I3750J0D01*
G01*
D11*
X101650Y-1220335D02*
G75*
G02*
X-98350Y-1220335I-100000J0D01*
G01*
X-98350Y-1220335D02*
G75*
G02*
X101650Y-1220335I100000J0D01*
G01*
%TO.C,LED2*%
X828965Y627525D02*
X855481Y654042D01*
X855481Y627525D02*
X828965Y654042D01*
X895256Y1056209D02*
X868740Y1082725D01*
X960785Y853799D02*
G75*
G02*
X760785Y853799I-100000J0D01*
G01*
X760785Y853799D02*
G75*
G02*
X960785Y853799I100000J0D01*
G01*
D12*
X928174Y468426D02*
G75*
G02*
X920674Y468426I-3750J0D01*
G01*
X920674Y468426D02*
G75*
G02*
X928174Y468426I3750J0D01*
G01*
D11*
%TO.C,LED7*%
X-1380850Y-124085D02*
X-1380850Y-161585D01*
X-1049600Y150915D02*
X-1049600Y113415D01*
X-1030850Y132165D02*
X-1068350Y132165D01*
X-1113350Y-5335D02*
G75*
G02*
X-1313350Y-5335I-100000J0D01*
G01*
X-1313350Y-5335D02*
G75*
G02*
X-1113350Y-5335I100000J0D01*
G01*
D12*
X-982100Y312165D02*
G75*
G02*
X-989600Y312165I-3750J0D01*
G01*
X-989600Y312165D02*
G75*
G02*
X-982100Y312165I3750J0D01*
G01*
D11*
%TO.C,LED1*%
X-117100Y1377165D02*
X-154600Y1377165D01*
X139150Y1027165D02*
X139150Y1064665D01*
X157900Y1045915D02*
X120400Y1045915D01*
X101650Y1209665D02*
G75*
G02*
X-98350Y1209665I-100000J0D01*
G01*
X-98350Y1209665D02*
G75*
G02*
X101650Y1209665I100000J0D01*
G01*
D12*
X322900Y982165D02*
G75*
G02*
X315400Y982165I-3750J0D01*
G01*
X315400Y982165D02*
G75*
G02*
X322900Y982165I3750J0D01*
G01*
D11*
%TO.C,LED6*%
X-891956Y-1066879D02*
X-865440Y-1093396D01*
X-852181Y-638196D02*
X-825665Y-664712D01*
X-825665Y-638196D02*
X-852181Y-664712D01*
D12*
X-917374Y-479097D02*
G75*
G02*
X-924874Y-479097I-3750J0D01*
G01*
X-924874Y-479097D02*
G75*
G02*
X-917374Y-479097I3750J0D01*
G01*
D11*
X-757485Y-864470D02*
G75*
G02*
X-957485Y-864470I-100000J0D01*
G01*
X-957485Y-864470D02*
G75*
G02*
X-757485Y-864470I100000J0D01*
G01*
%TO.C,D2*%
X-522500Y587500D02*
X-457500Y587500D01*
X-522500Y527500D02*
X-457500Y527500D01*
X-490000Y615000D02*
X-490000Y585000D01*
X-490000Y582500D02*
X-522500Y527500D01*
X-490000Y582500D02*
X-457500Y527500D01*
X-490000Y527500D02*
X-490000Y505000D01*
D12*
X-436250Y720000D02*
G75*
G02*
X-443750Y720000I-3750J0D01*
G01*
X-443750Y720000D02*
G75*
G02*
X-436250Y720000I3750J0D01*
G01*
%TD*%
M02*
