%TF.GenerationSoftware,KiCad,Pcbnew,9.0.5*%
%TF.CreationDate,2025-10-03T12:11:16+01:00*%
%TF.ProjectId,vm_rgb_ring,766d5f72-6762-45f7-9269-6e672e6b6963,0.4*%
%TF.SameCoordinates,PX4f64b50PY4749830*%
%TF.FileFunction,Copper,L2,Bot*%
%TF.FilePolarity,Positive*%
%FSLAX45Y45*%
G04 Gerber Fmt 4.5, Leading zero omitted, Abs format (unit mm)*
G04 Created by KiCad (PCBNEW 9.0.5) date 2025-10-03 12:11:16*
%MOMM*%
%LPD*%
G01*
G04 APERTURE LIST*
G04 Aperture macros list*
%AMRoundRect*
0 Rectangle with rounded corners*
0 $1 Rounding radius*
0 $2 $3 $4 $5 $6 $7 $8 $9 X,Y pos of 4 corners*
0 Add a 4 corners polygon primitive as box body*
4,1,4,$2,$3,$4,$5,$6,$7,$8,$9,$2,$3,0*
0 Add four circle primitives for the rounded corners*
1,1,$1+$1,$2,$3*
1,1,$1+$1,$4,$5*
1,1,$1+$1,$6,$7*
1,1,$1+$1,$8,$9*
0 Add four rect primitives between the rounded corners*
20,1,$1+$1,$2,$3,$4,$5,0*
20,1,$1+$1,$4,$5,$6,$7,0*
20,1,$1+$1,$6,$7,$8,$9,0*
20,1,$1+$1,$8,$9,$2,$3,0*%
G04 Aperture macros list end*
%TA.AperFunction,ComponentPad*%
%ADD10RoundRect,0.172720X-0.259080X-0.259080X0.259080X-0.259080X0.259080X0.259080X-0.259080X0.259080X0*%
%TD*%
%TA.AperFunction,ComponentPad*%
%ADD11C,0.863600*%
%TD*%
%TA.AperFunction,ViaPad*%
%ADD12C,0.450000*%
%TD*%
%TA.AperFunction,Conductor*%
%ADD13C,0.200000*%
%TD*%
G04 APERTURE END LIST*
D10*
%TO.P,J1,1,Vcc*%
%TO.N,+3V3*%
X397500Y620000D03*
D11*
%TO.P,J1,2,SWDIO*%
%TO.N,/SWDIO*%
X397500Y462520D03*
%TO.P,J1,3,GND*%
%TO.N,GND*%
X270500Y620000D03*
%TO.P,J1,4,SWDCLK*%
%TO.N,/SWCLK*%
X270500Y462520D03*
%TO.P,J1,5,~{RESET}*%
%TO.N,/nRESET*%
X143500Y620000D03*
%TD*%
D12*
%TO.N,GND*%
X-390000Y120000D03*
X725000Y1250000D03*
X-1250000Y725000D03*
X-725000Y-1250000D03*
X1400000Y375000D03*
X260000Y-530000D03*
X-390000Y-655000D03*
X-1400000Y-375000D03*
X-375000Y1400000D03*
X235000Y-755000D03*
X-390000Y-280000D03*
X1250000Y-725000D03*
X375000Y-1400000D03*
%TO.N,+3V3*%
X-50000Y-50000D03*
X22500Y535800D03*
X40000Y-680000D03*
%TO.N,/nRESET*%
X110000Y-230000D03*
X-440000Y570000D03*
%TO.N,Net-(LED1-DIN)*%
X625000Y400000D03*
X-100000Y900000D03*
%TO.N,JD_PWR*%
X400000Y1200000D03*
X525000Y1350000D03*
X200000Y1175000D03*
X-100000Y1175000D03*
%TD*%
D13*
%TO.N,+3V3*%
X-120000Y-520000D02*
X-120000Y-120000D01*
X-50000Y463300D02*
X22500Y535800D01*
X-120000Y-120000D02*
X-50000Y-50000D01*
X40000Y-680000D02*
X-120000Y-520000D01*
X-50000Y-50000D02*
X-50000Y463300D01*
%TO.N,/nRESET*%
X93000Y-213000D02*
X110000Y-230000D01*
X-392610Y617390D02*
X93000Y617390D01*
X-440000Y570000D02*
X-392610Y617390D01*
X93000Y617390D02*
X93000Y-213000D01*
%TO.N,Net-(LED1-DIN)*%
X625000Y550000D02*
X275000Y900000D01*
X625000Y400000D02*
X625000Y550000D01*
X275000Y900000D02*
X-100000Y900000D01*
%TO.N,JD_PWR*%
X400000Y1200000D02*
X525000Y1325000D01*
X525000Y1325000D02*
X525000Y1350000D01*
X375000Y1175000D02*
X400000Y1200000D01*
X200000Y1175000D02*
X375000Y1175000D01*
X200000Y1175000D02*
X-100000Y1175000D01*
%TD*%
%TA.AperFunction,Conductor*%
%TO.N,GND*%
G36*
X-76626Y1497783D02*
G01*
X-74915Y1494312D01*
X-74698Y1494370D01*
X-74572Y1493902D01*
X-74572Y1493901D01*
X-71194Y1481294D01*
X-64668Y1469990D01*
X-55438Y1460760D01*
X-44134Y1454234D01*
X-31526Y1450856D01*
X-31526Y1450856D01*
X-18474Y1450856D01*
X-18474Y1450856D01*
X-5866Y1454234D01*
X5438Y1460760D01*
X14668Y1469990D01*
X21194Y1481294D01*
X24572Y1493901D01*
X24572Y1493902D01*
X24698Y1494370D01*
X24973Y1494296D01*
X27351Y1498419D01*
X31858Y1499950D01*
X118142Y1499950D01*
X123374Y1497783D01*
X125085Y1494312D01*
X125302Y1494370D01*
X125428Y1493902D01*
X125428Y1493901D01*
X128806Y1481294D01*
X135332Y1469990D01*
X144562Y1460760D01*
X155866Y1454234D01*
X168474Y1450856D01*
X168474Y1450856D01*
X181526Y1450856D01*
X181526Y1450856D01*
X194134Y1454234D01*
X205438Y1460760D01*
X214668Y1469990D01*
X221194Y1481294D01*
X224572Y1493901D01*
X224572Y1493902D01*
X224698Y1494370D01*
X224973Y1494296D01*
X227351Y1498419D01*
X231858Y1499950D01*
X318142Y1499950D01*
X323375Y1497783D01*
X325085Y1494312D01*
X325302Y1494370D01*
X325428Y1493902D01*
X325428Y1493901D01*
X328806Y1481294D01*
X335332Y1469990D01*
X344562Y1460760D01*
X355866Y1454234D01*
X368474Y1450856D01*
X368474Y1450856D01*
X381526Y1450856D01*
X381526Y1450856D01*
X394134Y1454234D01*
X405438Y1460760D01*
X414668Y1469990D01*
X421194Y1481294D01*
X424572Y1493901D01*
X424572Y1493902D01*
X424698Y1494370D01*
X424973Y1494296D01*
X427351Y1498419D01*
X431858Y1499950D01*
X1492550Y1499950D01*
X1497783Y1497783D01*
X1499950Y1492550D01*
X1499950Y-1492550D01*
X1497783Y-1497783D01*
X1492550Y-1499950D01*
X-1492550Y-1499950D01*
X-1497783Y-1497783D01*
X-1499950Y-1492550D01*
X-1499950Y-331914D01*
X-1497783Y-326682D01*
X-1493921Y-324778D01*
X-1493942Y-324698D01*
X-1493540Y-324590D01*
X-1493515Y-324578D01*
X-1493474Y-324572D01*
X-1493474Y-324572D01*
X-1480866Y-321194D01*
X-1469562Y-314668D01*
X-1460332Y-305438D01*
X-1453806Y-294134D01*
X-1450428Y-281526D01*
X-1450428Y-268474D01*
X-1453806Y-255866D01*
X-1460332Y-244562D01*
X-1469562Y-235332D01*
X-1480866Y-228806D01*
X-1493474Y-225428D01*
X-1493516Y-225422D01*
X-1493535Y-225411D01*
X-1493942Y-225302D01*
X-1493913Y-225193D01*
X-1498421Y-222590D01*
X-1499950Y-218085D01*
X-1499950Y-81487D01*
X-1497783Y-76254D01*
X-1493921Y-74350D01*
X-1493942Y-74270D01*
X-1493540Y-74162D01*
X-1493515Y-74150D01*
X-1493474Y-74144D01*
X-1493474Y-74144D01*
X-1480866Y-70766D01*
X-1469562Y-64240D01*
X-1460332Y-55010D01*
X-1453806Y-43706D01*
X-1450428Y-31098D01*
X-1450428Y-18046D01*
X-1453806Y-5438D01*
X-1460332Y5866D01*
X-1469562Y15095D01*
X-1480866Y21622D01*
X-1493474Y25000D01*
X-1493474Y25000D01*
X-1493516Y25006D01*
X-1493535Y25016D01*
X-1493942Y25125D01*
X-1493913Y25235D01*
X-1498421Y27838D01*
X-1499950Y32342D01*
X-1499950Y168513D01*
X-1497783Y173746D01*
X-1493921Y175650D01*
X-1493942Y175730D01*
X-1493540Y175838D01*
X-1493515Y175850D01*
X-1493474Y175856D01*
X-1493474Y175856D01*
X-1480866Y179234D01*
X-1469562Y185760D01*
X-1460332Y194990D01*
X-1453806Y206294D01*
X-1450428Y218901D01*
X-1450428Y231954D01*
X-1453806Y244562D01*
X-1460332Y255866D01*
X-1469562Y265096D01*
X-1480866Y271622D01*
X-1493474Y275000D01*
X-1493474Y275000D01*
X-1493516Y275006D01*
X-1493535Y275017D01*
X-1493942Y275126D01*
X-1493913Y275235D01*
X-1498421Y277838D01*
X-1499950Y282342D01*
X-1499950Y575602D01*
X-482550Y575602D01*
X-482550Y564398D01*
X-479650Y553577D01*
X-479650Y553576D01*
X-477922Y550582D01*
X-474048Y543874D01*
X-466126Y535952D01*
X-456424Y530350D01*
X-445602Y527450D01*
X-445602Y527450D01*
X-445602Y527450D01*
X-434398Y527450D01*
X-434398Y527450D01*
X-423576Y530350D01*
X-413874Y535952D01*
X-405951Y543874D01*
X-400350Y553576D01*
X-397450Y564398D01*
X-397450Y564398D01*
X-397450Y566988D01*
X-395283Y572220D01*
X-382330Y585173D01*
X-377098Y587340D01*
X-947Y587340D01*
X4285Y585173D01*
X6453Y579940D01*
X4285Y574707D01*
X2753Y573531D01*
X-3626Y569849D01*
X-11548Y561926D01*
X-17150Y552224D01*
X-17151Y552223D01*
X-20050Y541402D01*
X-20050Y538812D01*
X-22217Y533580D01*
X-74046Y481751D01*
X-78002Y474899D01*
X-78002Y474899D01*
X-80050Y467256D01*
X-80050Y-16810D01*
X-82217Y-22043D01*
X-84049Y-23874D01*
X-89650Y-33576D01*
X-89650Y-33577D01*
X-92550Y-44398D01*
X-92550Y-46988D01*
X-94717Y-52220D01*
X-144046Y-101549D01*
X-148002Y-108401D01*
X-148002Y-108401D01*
X-150050Y-116043D01*
X-150050Y-523956D01*
X-148002Y-531599D01*
X-148002Y-531599D01*
X-144046Y-538451D01*
X-4717Y-677780D01*
X-2550Y-683012D01*
X-2550Y-685602D01*
X349Y-696423D01*
X350Y-696424D01*
X350Y-696424D01*
X5951Y-706126D01*
X13874Y-714048D01*
X23576Y-719650D01*
X34398Y-722550D01*
X34398Y-722550D01*
X34398Y-722550D01*
X45602Y-722550D01*
X45602Y-722550D01*
X56424Y-719650D01*
X66126Y-714048D01*
X74049Y-706126D01*
X79650Y-696424D01*
X82550Y-685602D01*
X82550Y-685602D01*
X82550Y-674398D01*
X82550Y-674398D01*
X79650Y-663577D01*
X79650Y-663576D01*
X74049Y-653874D01*
X66126Y-645952D01*
X56424Y-640350D01*
X56423Y-640350D01*
X45602Y-637450D01*
X45602Y-637450D01*
X43012Y-637450D01*
X37780Y-635283D01*
X-87783Y-509720D01*
X-89950Y-504488D01*
X-89950Y-135512D01*
X-87783Y-130280D01*
X-52220Y-94717D01*
X-46988Y-92550D01*
X-44398Y-92550D01*
X-44398Y-92550D01*
X-33576Y-89650D01*
X-23874Y-84049D01*
X-15951Y-76126D01*
X-10350Y-66424D01*
X-7450Y-55602D01*
X-7450Y-55602D01*
X-7450Y-44398D01*
X-7450Y-44398D01*
X-10350Y-33577D01*
X-10350Y-33576D01*
X-15951Y-23874D01*
X-17783Y-22043D01*
X-19950Y-16810D01*
X-19950Y447788D01*
X-17783Y453020D01*
X20280Y491083D01*
X25512Y493250D01*
X28102Y493250D01*
X28102Y493250D01*
X38924Y496150D01*
X48626Y501751D01*
X50317Y503443D01*
X55550Y505610D01*
X60783Y503443D01*
X62950Y498210D01*
X62950Y-216956D01*
X64998Y-224598D01*
X64998Y-224599D01*
X66459Y-227129D01*
X67450Y-230829D01*
X67450Y-235602D01*
X70350Y-246423D01*
X70350Y-246423D01*
X70350Y-246424D01*
X75952Y-256126D01*
X83874Y-264049D01*
X93576Y-269650D01*
X104398Y-272550D01*
X104398Y-272550D01*
X104398Y-272550D01*
X115602Y-272550D01*
X115602Y-272550D01*
X126424Y-269650D01*
X136126Y-264049D01*
X144049Y-256126D01*
X149650Y-246424D01*
X152550Y-235602D01*
X152550Y-235602D01*
X152550Y-224398D01*
X152550Y-224398D01*
X149650Y-213577D01*
X149650Y-213576D01*
X144049Y-203874D01*
X136126Y-195951D01*
X130768Y-192858D01*
X126750Y-190538D01*
X123302Y-186045D01*
X123050Y-184129D01*
X123050Y468748D01*
X207270Y468748D01*
X207270Y456292D01*
X209700Y444077D01*
X209700Y444076D01*
X214466Y432570D01*
X214466Y432569D01*
X214466Y432569D01*
X221386Y422213D01*
X230193Y413406D01*
X240549Y406486D01*
X240549Y406486D01*
X240550Y406486D01*
X252056Y401720D01*
X252056Y401720D01*
X264272Y399290D01*
X264273Y399290D01*
X276728Y399290D01*
X276728Y399290D01*
X288944Y401720D01*
X300451Y406486D01*
X310807Y413406D01*
X319614Y422213D01*
X326534Y432569D01*
X327163Y434089D01*
X331168Y438094D01*
X336832Y438094D01*
X340837Y434090D01*
X341466Y432569D01*
X348386Y422213D01*
X357193Y413406D01*
X367549Y406486D01*
X367549Y406486D01*
X367550Y406486D01*
X379056Y401720D01*
X379056Y401720D01*
X391272Y399290D01*
X391272Y399290D01*
X403727Y399290D01*
X403728Y399290D01*
X415943Y401720D01*
X427451Y406486D01*
X437807Y413406D01*
X446614Y422213D01*
X453534Y432569D01*
X458300Y444076D01*
X460730Y456292D01*
X460730Y468748D01*
X458300Y480963D01*
X457974Y481751D01*
X453534Y492470D01*
X446614Y502826D01*
X446614Y502827D01*
X437807Y511634D01*
X427451Y518554D01*
X427450Y518554D01*
X427450Y518554D01*
X415944Y523320D01*
X415943Y523320D01*
X406740Y525151D01*
X403728Y525750D01*
X391272Y525750D01*
X388856Y525269D01*
X379057Y523320D01*
X379056Y523320D01*
X367550Y518554D01*
X357194Y511634D01*
X348386Y502826D01*
X341466Y492471D01*
X340837Y490951D01*
X336832Y486946D01*
X331168Y486946D01*
X327163Y490951D01*
X326534Y492471D01*
X319614Y502826D01*
X319614Y502827D01*
X310807Y511634D01*
X300451Y518554D01*
X300451Y518554D01*
X300148Y518756D01*
X300235Y518885D01*
X296959Y522878D01*
X297514Y528515D01*
X301208Y531863D01*
X314637Y537425D01*
X316485Y538660D01*
X316485Y538660D01*
X270500Y584645D01*
X224515Y538660D01*
X224515Y538660D01*
X226362Y537425D01*
X239791Y531863D01*
X243796Y527858D01*
X243796Y522194D01*
X240779Y518864D01*
X240852Y518756D01*
X230194Y511634D01*
X221386Y502826D01*
X214466Y492470D01*
X209700Y480964D01*
X209700Y480963D01*
X207270Y468748D01*
X123050Y468748D01*
X123050Y550582D01*
X125217Y555815D01*
X130450Y557982D01*
X131894Y557840D01*
X131959Y557827D01*
X137272Y556770D01*
X137273Y556770D01*
X149728Y556770D01*
X149728Y556770D01*
X161944Y559200D01*
X173451Y563966D01*
X183807Y570886D01*
X184660Y571739D01*
X188457Y573312D01*
X235145Y620000D01*
X235145Y620000D01*
X231466Y623678D01*
X242560Y623678D01*
X242560Y616322D01*
X244464Y609216D01*
X248142Y602844D01*
X253344Y597642D01*
X259716Y593964D01*
X266822Y592060D01*
X274178Y592060D01*
X281284Y593964D01*
X287656Y597642D01*
X292858Y602844D01*
X296536Y609216D01*
X298440Y616322D01*
X298440Y623678D01*
X296536Y630784D01*
X292858Y637156D01*
X287656Y642358D01*
X281284Y646036D01*
X274178Y647940D01*
X266822Y647940D01*
X259716Y646036D01*
X253344Y642358D01*
X248142Y637156D01*
X244464Y630784D01*
X242560Y623678D01*
X231466Y623678D01*
X188318Y666827D01*
X185198Y667773D01*
X184661Y668260D01*
X183807Y669114D01*
X173451Y676034D01*
X173451Y676034D01*
X173450Y676034D01*
X161944Y680800D01*
X161943Y680800D01*
X152701Y682639D01*
X149728Y683230D01*
X137272Y683230D01*
X134856Y682749D01*
X125057Y680800D01*
X125056Y680800D01*
X113550Y676034D01*
X103194Y669114D01*
X94386Y660306D01*
X87986Y650729D01*
X83277Y647582D01*
X81833Y647440D01*
X-396566Y647440D01*
X-404209Y645392D01*
X-404209Y645392D01*
X-411061Y641436D01*
X-437780Y614717D01*
X-443012Y612550D01*
X-445602Y612550D01*
X-456423Y609651D01*
X-456424Y609650D01*
X-466126Y604049D01*
X-474048Y596126D01*
X-479650Y586424D01*
X-479650Y586423D01*
X-482550Y575602D01*
X-1499950Y575602D01*
X-1499950Y701341D01*
X224515Y701341D01*
X270500Y655355D01*
X316485Y701340D01*
X314637Y702575D01*
X297680Y709599D01*
X297679Y709599D01*
X279677Y713180D01*
X261323Y713180D01*
X243321Y709599D01*
X243320Y709599D01*
X226362Y702575D01*
X224515Y701341D01*
X-1499950Y701341D01*
X-1499950Y905602D01*
X-142550Y905602D01*
X-142550Y894398D01*
X-139651Y883577D01*
X-139650Y883576D01*
X-139650Y883576D01*
X-134049Y873874D01*
X-126126Y865951D01*
X-116424Y860350D01*
X-105602Y857450D01*
X-105602Y857450D01*
X-105602Y857450D01*
X-94398Y857450D01*
X-94398Y857450D01*
X-83576Y860350D01*
X-73874Y865951D01*
X-72043Y867783D01*
X-66810Y869950D01*
X259488Y869950D01*
X264720Y867783D01*
X437309Y695194D01*
X439476Y689961D01*
X437309Y684729D01*
X432076Y682561D01*
X431010Y682639D01*
X430528Y682709D01*
X426951Y683230D01*
X426950Y683230D01*
X368050Y683230D01*
X368049Y683230D01*
X360795Y682173D01*
X349605Y676703D01*
X340798Y667895D01*
X335327Y656705D01*
X334447Y650668D01*
X332357Y646502D01*
X305855Y620000D01*
X332357Y593498D01*
X334447Y589333D01*
X335327Y583295D01*
X339849Y574046D01*
X340798Y572105D01*
X349605Y563298D01*
X360795Y557827D01*
X368050Y556770D01*
X368050Y556770D01*
X426950Y556770D01*
X426950Y556770D01*
X434205Y557827D01*
X445395Y563298D01*
X454202Y572105D01*
X459673Y583295D01*
X460730Y590550D01*
X460730Y649450D01*
X460138Y653510D01*
X461529Y659000D01*
X466394Y661899D01*
X471885Y660509D01*
X472694Y659809D01*
X592783Y539720D01*
X594950Y534488D01*
X594950Y433190D01*
X592783Y427957D01*
X590952Y426126D01*
X585350Y416424D01*
X585350Y416423D01*
X582450Y405602D01*
X582450Y394398D01*
X585350Y383577D01*
X585350Y383576D01*
X585350Y383576D01*
X590952Y373874D01*
X598874Y365951D01*
X608576Y360350D01*
X619398Y357450D01*
X619398Y357450D01*
X619398Y357450D01*
X630602Y357450D01*
X630602Y357450D01*
X641424Y360350D01*
X651126Y365951D01*
X659049Y373874D01*
X664650Y383576D01*
X667550Y394398D01*
X667550Y394398D01*
X667550Y405602D01*
X667550Y405602D01*
X665459Y413406D01*
X664650Y416424D01*
X659049Y426126D01*
X657217Y427957D01*
X655050Y433190D01*
X655050Y553956D01*
X655050Y553957D01*
X653002Y561599D01*
X653002Y561599D01*
X649046Y568451D01*
X293451Y924046D01*
X286599Y928002D01*
X286599Y928002D01*
X278956Y930050D01*
X278956Y930050D01*
X-66810Y930050D01*
X-72043Y932217D01*
X-73874Y934048D01*
X-83576Y939650D01*
X-83577Y939650D01*
X-94398Y942550D01*
X-94398Y942550D01*
X-105602Y942550D01*
X-105602Y942550D01*
X-116423Y939650D01*
X-116424Y939650D01*
X-126126Y934048D01*
X-134049Y926126D01*
X-139650Y916424D01*
X-139651Y916423D01*
X-142550Y905602D01*
X-1499950Y905602D01*
X-1499950Y1180602D01*
X-142550Y1180602D01*
X-142550Y1169398D01*
X-139651Y1158577D01*
X-139650Y1158576D01*
X-138480Y1156549D01*
X-134049Y1148874D01*
X-126126Y1140952D01*
X-116424Y1135350D01*
X-105602Y1132450D01*
X-105602Y1132450D01*
X-105602Y1132450D01*
X-94398Y1132450D01*
X-94398Y1132450D01*
X-83576Y1135350D01*
X-73874Y1140952D01*
X-72043Y1142783D01*
X-66810Y1144950D01*
X166810Y1144950D01*
X172043Y1142783D01*
X173874Y1140952D01*
X183576Y1135350D01*
X194398Y1132450D01*
X194398Y1132450D01*
X194398Y1132450D01*
X205602Y1132450D01*
X205602Y1132450D01*
X216424Y1135350D01*
X226126Y1140952D01*
X227957Y1142783D01*
X233190Y1144950D01*
X378956Y1144950D01*
X378956Y1144950D01*
X386599Y1146998D01*
X393451Y1150954D01*
X397780Y1155283D01*
X403012Y1157450D01*
X405602Y1157450D01*
X405602Y1157450D01*
X416424Y1160350D01*
X426126Y1165952D01*
X434048Y1173874D01*
X439650Y1183576D01*
X442550Y1194398D01*
X442550Y1194398D01*
X442550Y1196988D01*
X444717Y1202220D01*
X487214Y1244717D01*
X549046Y1306549D01*
X551240Y1310350D01*
X553002Y1313401D01*
X554109Y1317533D01*
X556024Y1320849D01*
X559049Y1323874D01*
X564650Y1333576D01*
X567550Y1344398D01*
X567550Y1344398D01*
X567550Y1355602D01*
X567550Y1355602D01*
X564650Y1366423D01*
X564650Y1366424D01*
X559049Y1376126D01*
X551126Y1384049D01*
X541424Y1389650D01*
X541423Y1389651D01*
X530602Y1392550D01*
X530602Y1392550D01*
X519398Y1392550D01*
X519398Y1392550D01*
X508577Y1389651D01*
X508576Y1389650D01*
X498874Y1384049D01*
X490951Y1376126D01*
X485350Y1366424D01*
X485349Y1366423D01*
X482450Y1355602D01*
X482450Y1355602D01*
X482450Y1344398D01*
X482450Y1344398D01*
X485455Y1333185D01*
X484715Y1327569D01*
X483539Y1326037D01*
X402220Y1244717D01*
X396988Y1242550D01*
X394398Y1242550D01*
X383577Y1239651D01*
X383576Y1239650D01*
X373874Y1234049D01*
X365951Y1226126D01*
X360350Y1216424D01*
X360349Y1216423D01*
X358772Y1210535D01*
X355324Y1206041D01*
X351624Y1205050D01*
X233190Y1205050D01*
X227957Y1207217D01*
X226126Y1209049D01*
X216424Y1214650D01*
X216423Y1214651D01*
X205602Y1217550D01*
X205602Y1217550D01*
X194398Y1217550D01*
X194398Y1217550D01*
X183577Y1214651D01*
X183576Y1214650D01*
X173874Y1209049D01*
X172043Y1207217D01*
X166810Y1205050D01*
X-66810Y1205050D01*
X-72043Y1207217D01*
X-73874Y1209049D01*
X-83576Y1214650D01*
X-83577Y1214651D01*
X-94398Y1217550D01*
X-94398Y1217550D01*
X-105602Y1217550D01*
X-105602Y1217550D01*
X-116423Y1214651D01*
X-116424Y1214650D01*
X-126126Y1209049D01*
X-134049Y1201126D01*
X-139650Y1191424D01*
X-139651Y1191423D01*
X-142550Y1180602D01*
X-1499950Y1180602D01*
X-1499950Y1492550D01*
X-1497783Y1497783D01*
X-1492550Y1499950D01*
X-81858Y1499950D01*
X-76626Y1497783D01*
G37*
%TD.AperFunction*%
%TD*%
M02*
