%TF.GenerationSoftware,KiCad,Pcbnew,9.0.6-9.0.6~ubuntu22.04.1*%
%TF.CreationDate,2026-01-23T17:03:56+00:00*%
%TF.ProjectId,mm_raspberry_pi_pico,6d6d5f72-6173-4706-9265-7272795f7069,v0.1*%
%TF.SameCoordinates,PX8d24d00PY37ca3a0*%
%TF.FileFunction,Other,User*%
%FSLAX45Y45*%
G04 Gerber Fmt 4.5, Leading zero omitted, Abs format (unit mm)*
G04 Created by KiCad (PCBNEW 9.0.6-9.0.6~ubuntu22.04.1) date 2026-01-23 17:03:56*
%MOMM*%
%LPD*%
G01*
G04 APERTURE LIST*
%ADD10C,0.100000*%
%ADD11C,0.009990*%
%ADD12C,0.010830*%
%ADD13C,0.020670*%
%ADD14C,0.030760*%
%ADD15C,0.010430*%
%ADD16C,0.020530*%
%ADD17C,0.030860*%
%ADD18C,0.020510*%
%ADD19C,0.040510*%
%ADD20C,0.020680*%
%ADD21C,0.030650*%
%ADD22C,0.010710*%
%ADD23C,0.020780*%
%ADD24C,0.030680*%
G04 APERTURE END LIST*
D10*
X-1050000Y2550000D02*
X-750000Y2550000D01*
X-750000Y-2550000D01*
X-1050000Y-2550000D01*
X-1050000Y2550000D01*
X750000Y2550000D02*
X1050000Y2550000D01*
X1050000Y-2550000D01*
X750000Y-2550000D01*
X750000Y2550000D01*
D11*
%TO.C,GS4*%
X-1050000Y2200000D02*
X-1050000Y2200000D01*
D12*
X-1050000Y2200000D02*
X-1050000Y2200000D01*
D13*
X-1050000Y2200000D02*
X-1050000Y2200000D01*
D14*
X-1050000Y2200000D02*
X-1050000Y2200000D01*
D11*
%TO.C,GS2*%
X1050000Y-2400000D02*
X1050000Y-2400000D01*
D15*
X1050000Y-2400000D02*
X1050000Y-2400000D01*
D16*
X1050000Y-2400000D02*
X1050000Y-2400000D01*
D17*
X1050000Y-2400000D02*
X1050000Y-2400000D01*
D11*
%TO.C,GS1*%
X1050000Y-1400000D02*
X1050000Y-1400000D01*
D15*
X1050000Y-1400000D02*
X1050000Y-1400000D01*
D18*
X1050000Y-1400000D02*
X1050000Y-1400000D01*
D17*
X1050000Y-1400000D02*
X1050000Y-1400000D01*
D19*
X1050000Y-1400000D02*
X1050000Y-1400000D01*
D11*
%TO.C,GS3*%
X-1050000Y2400000D02*
X-1050000Y2400000D01*
D12*
X-1050000Y2400000D02*
X-1050000Y2400000D01*
D20*
X-1050000Y2400000D02*
X-1050000Y2400000D01*
D21*
X-1050000Y2400000D02*
X-1050000Y2400000D01*
D11*
%TO.C,GS5*%
X-1050000Y650000D02*
X-1050000Y650000D01*
D22*
X-1050000Y650000D02*
X-1050000Y650000D01*
D23*
X-1050000Y650000D02*
X-1050000Y650000D01*
D24*
X-1050000Y650000D02*
X-1050000Y650000D01*
%TD*%
M02*
