%TF.GenerationSoftware,KiCad,Pcbnew,9.0.7*%
%TF.CreationDate,2026-03-30T18:33:16+01:00*%
%TF.ProjectId,jvm_relay,6a766d5f-7265-46c6-9179-2e6b69636164,0.7*%
%TF.SameCoordinates,PX577fe70PY487ab00*%
%TF.FileFunction,Legend,Top*%
%TF.FilePolarity,Positive*%
%FSLAX45Y45*%
G04 Gerber Fmt 4.5, Leading zero omitted, Abs format (unit mm)*
G04 Created by KiCad (PCBNEW 9.0.7) date 2026-03-30 18:33:16*
%MOMM*%
%LPD*%
G01*
G04 APERTURE LIST*
%ADD10C,0.150000*%
%ADD11C,0.120000*%
%ADD12C,0.000000*%
G04 APERTURE END LIST*
D10*
X728916Y-789429D02*
X728916Y-709429D01*
X728916Y-709429D02*
X755583Y-766572D01*
X755583Y-766572D02*
X782249Y-709429D01*
X782249Y-709429D02*
X782249Y-789429D01*
X816535Y-766572D02*
X854630Y-766572D01*
X808916Y-789429D02*
X835583Y-709429D01*
X835583Y-709429D02*
X862249Y-789429D01*
X881297Y-709429D02*
X934630Y-789429D01*
X934630Y-709429D02*
X881297Y-789429D01*
X1018440Y-709429D02*
X1067964Y-709429D01*
X1067964Y-709429D02*
X1041297Y-739906D01*
X1041297Y-739906D02*
X1052726Y-739906D01*
X1052726Y-739906D02*
X1060345Y-743715D01*
X1060345Y-743715D02*
X1064154Y-747525D01*
X1064154Y-747525D02*
X1067964Y-755144D01*
X1067964Y-755144D02*
X1067964Y-774191D01*
X1067964Y-774191D02*
X1064154Y-781810D01*
X1064154Y-781810D02*
X1060345Y-785620D01*
X1060345Y-785620D02*
X1052726Y-789429D01*
X1052726Y-789429D02*
X1029868Y-789429D01*
X1029868Y-789429D02*
X1022249Y-785620D01*
X1022249Y-785620D02*
X1018440Y-781810D01*
X1117488Y-709429D02*
X1125107Y-709429D01*
X1125107Y-709429D02*
X1132726Y-713239D01*
X1132726Y-713239D02*
X1136535Y-717048D01*
X1136535Y-717048D02*
X1140345Y-724668D01*
X1140345Y-724668D02*
X1144154Y-739906D01*
X1144154Y-739906D02*
X1144154Y-758953D01*
X1144154Y-758953D02*
X1140345Y-774191D01*
X1140345Y-774191D02*
X1136535Y-781810D01*
X1136535Y-781810D02*
X1132726Y-785620D01*
X1132726Y-785620D02*
X1125107Y-789429D01*
X1125107Y-789429D02*
X1117488Y-789429D01*
X1117488Y-789429D02*
X1109868Y-785620D01*
X1109868Y-785620D02*
X1106059Y-781810D01*
X1106059Y-781810D02*
X1102249Y-774191D01*
X1102249Y-774191D02*
X1098440Y-758953D01*
X1098440Y-758953D02*
X1098440Y-739906D01*
X1098440Y-739906D02*
X1102249Y-724668D01*
X1102249Y-724668D02*
X1106059Y-717048D01*
X1106059Y-717048D02*
X1109868Y-713239D01*
X1109868Y-713239D02*
X1117488Y-709429D01*
X1167011Y-709429D02*
X1193678Y-789429D01*
X1193678Y-789429D02*
X1220345Y-709429D01*
X1349868Y-789429D02*
X1304154Y-789429D01*
X1327011Y-789429D02*
X1327011Y-709429D01*
X1327011Y-709429D02*
X1319392Y-720858D01*
X1319392Y-720858D02*
X1311773Y-728477D01*
X1311773Y-728477D02*
X1304154Y-732287D01*
X1380345Y-766572D02*
X1418440Y-766572D01*
X1372726Y-789429D02*
X1399392Y-709429D01*
X1399392Y-709429D02*
X1426059Y-789429D01*
X-1380846Y-709429D02*
X-1373227Y-709429D01*
X-1373227Y-709429D02*
X-1365608Y-713239D01*
X-1365608Y-713239D02*
X-1361798Y-717048D01*
X-1361798Y-717048D02*
X-1357989Y-724668D01*
X-1357989Y-724668D02*
X-1354179Y-739906D01*
X-1354179Y-739906D02*
X-1354179Y-758953D01*
X-1354179Y-758953D02*
X-1357989Y-774191D01*
X-1357989Y-774191D02*
X-1361798Y-781810D01*
X-1361798Y-781810D02*
X-1365608Y-785620D01*
X-1365608Y-785620D02*
X-1373227Y-789429D01*
X-1373227Y-789429D02*
X-1380846Y-789429D01*
X-1380846Y-789429D02*
X-1388465Y-785620D01*
X-1388465Y-785620D02*
X-1392275Y-781810D01*
X-1392275Y-781810D02*
X-1396084Y-774191D01*
X-1396084Y-774191D02*
X-1399894Y-758953D01*
X-1399894Y-758953D02*
X-1399894Y-739906D01*
X-1399894Y-739906D02*
X-1396084Y-724668D01*
X-1396084Y-724668D02*
X-1392275Y-717048D01*
X-1392275Y-717048D02*
X-1388465Y-713239D01*
X-1388465Y-713239D02*
X-1380846Y-709429D01*
X-1319894Y-781810D02*
X-1316084Y-785620D01*
X-1316084Y-785620D02*
X-1319894Y-789429D01*
X-1319894Y-789429D02*
X-1323703Y-785620D01*
X-1323703Y-785620D02*
X-1319894Y-781810D01*
X-1319894Y-781810D02*
X-1319894Y-789429D01*
X-1289417Y-709429D02*
X-1236084Y-709429D01*
X-1236084Y-709429D02*
X-1270370Y-789429D01*
D11*
%TO.C,R7*%
X937028Y577250D02*
X987972Y577250D01*
X937028Y472750D02*
X987972Y472750D01*
%TO.C,C2*%
X-1289058Y-249000D02*
X-1260942Y-249000D01*
X-1289058Y-351000D02*
X-1260942Y-351000D01*
%TO.C,R3*%
X-1002250Y574528D02*
X-1002250Y625472D01*
X-897750Y574528D02*
X-897750Y625472D01*
%TO.C,U2*%
X-1366000Y106000D02*
X-1184000Y106000D01*
X-1366000Y6000D02*
X-1366000Y106000D01*
X-1366000Y-206000D02*
X-1366000Y-106000D01*
X-1184000Y106000D02*
X-1184000Y101000D01*
X-1184000Y-11000D02*
X-1184000Y-89000D01*
X-1184000Y-201000D02*
X-1184000Y-206000D01*
X-1184000Y-206000D02*
X-1366000Y-206000D01*
X-1130000Y-88000D02*
X-1154000Y-55000D01*
X-1106000Y-55000D01*
X-1130000Y-88000D01*
G36*
X-1130000Y-88000D02*
G01*
X-1154000Y-55000D01*
X-1106000Y-55000D01*
X-1130000Y-88000D01*
G37*
%TO.C,K1*%
X-136000Y735000D02*
X534000Y735000D01*
X-136000Y685000D02*
X-136000Y735000D01*
X-136000Y465000D02*
X-136000Y525000D01*
X-136000Y225000D02*
X-136000Y305000D01*
X-136000Y-75000D02*
X-136000Y65000D01*
X-136000Y-285000D02*
X-136000Y-235000D01*
X530000Y56000D02*
X530000Y-84000D01*
X530000Y-84000D02*
X590000Y-84000D01*
X530000Y-234000D02*
X590000Y-234000D01*
X530000Y-284000D02*
X-136000Y-285000D01*
X530000Y-284000D02*
X530000Y-234000D01*
X534000Y735000D02*
X534000Y685000D01*
X534000Y525000D02*
X534000Y465000D01*
X534000Y305000D02*
X534000Y225000D01*
%TO.C,C1*%
X-1051000Y-598442D02*
X-1051000Y-626558D01*
X-949000Y-598442D02*
X-949000Y-626558D01*
%TO.C,D4*%
X1076000Y-465000D02*
X750000Y-465000D01*
X1076000Y-635000D02*
X750000Y-635000D01*
X1076000Y-635000D02*
X1076000Y-465000D01*
%TO.C,Q1*%
X69000Y-474000D02*
X169000Y-474000D01*
X69000Y-626000D02*
X69000Y-474000D01*
X74000Y-626000D02*
X69000Y-626000D01*
X264000Y-626000D02*
X186000Y-626000D01*
X281000Y-474000D02*
X381000Y-474000D01*
X381000Y-474000D02*
X381000Y-626000D01*
X381000Y-626000D02*
X376000Y-626000D01*
X220000Y-704000D02*
X187000Y-680000D01*
X220000Y-656000D01*
X220000Y-704000D01*
G36*
X220000Y-704000D02*
G01*
X187000Y-680000D01*
X220000Y-656000D01*
X220000Y-704000D01*
G37*
%TO.C,J2*%
X709750Y392500D02*
X1463750Y392500D01*
X709750Y-392500D02*
X709750Y392500D01*
X1463750Y392500D02*
X1463750Y-160500D01*
X1463750Y-220500D02*
X1463750Y-392500D01*
X1463750Y-392500D02*
X709750Y-392500D01*
X1524750Y-234500D02*
X1463750Y-190500D01*
X1524750Y-146500D01*
X1524750Y-234500D01*
G36*
X1524750Y-234500D02*
G01*
X1463750Y-190500D01*
X1524750Y-146500D01*
X1524750Y-234500D01*
G37*
%TO.C,D1*%
X-1360000Y801000D02*
X-1360000Y475000D01*
X-1190000Y801000D02*
X-1360000Y801000D01*
X-1190000Y801000D02*
X-1190000Y475000D01*
%TO.C,C3*%
X-1289058Y251000D02*
X-1260942Y251000D01*
X-1289058Y149000D02*
X-1260942Y149000D01*
%TO.C,SW1*%
X-835000Y-447500D02*
X-415000Y-447500D01*
X-835000Y-486500D02*
X-835000Y-447500D01*
X-835000Y-738500D02*
X-835000Y-777500D01*
X-835000Y-777500D02*
X-415000Y-777500D01*
X-415000Y-447500D02*
X-415000Y-486500D01*
X-415000Y-777500D02*
X-415000Y-738500D01*
%TO.C,R2*%
X-1152250Y574528D02*
X-1152250Y625472D01*
X-1047750Y574528D02*
X-1047750Y625472D01*
%TO.C,D3*%
X1220000Y451500D02*
X1466000Y451500D01*
X1466000Y598500D02*
X1220000Y598500D01*
X1466000Y451500D02*
X1466000Y598500D01*
%TO.C,D2*%
X-1355000Y-673500D02*
X-1109000Y-673500D01*
X-1109000Y-526500D02*
X-1355000Y-526500D01*
X-1109000Y-673500D02*
X-1109000Y-526500D01*
%TO.C,R1*%
X-1249528Y402250D02*
X-1300472Y402250D01*
X-1249528Y297750D02*
X-1300472Y297750D01*
D12*
%TO.C,G\u002A\u002A\u002A*%
G36*
X1237777Y-505223D02*
G01*
X1238222Y-505547D01*
X1238887Y-506124D01*
X1239810Y-506987D01*
X1241027Y-508168D01*
X1242575Y-509700D01*
X1243305Y-510428D01*
X1244761Y-511896D01*
X1246081Y-513254D01*
X1247217Y-514448D01*
X1248120Y-515428D01*
X1248742Y-516142D01*
X1249034Y-516536D01*
X1249050Y-516584D01*
X1248968Y-516910D01*
X1248731Y-517715D01*
X1248352Y-518957D01*
X1247846Y-520591D01*
X1247226Y-522574D01*
X1246506Y-524862D01*
X1245700Y-527410D01*
X1244820Y-530177D01*
X1243882Y-533116D01*
X1243319Y-534874D01*
X1242355Y-537884D01*
X1241444Y-540736D01*
X1240599Y-543390D01*
X1239834Y-545800D01*
X1239161Y-547927D01*
X1238595Y-549725D01*
X1238149Y-551154D01*
X1237836Y-552169D01*
X1237669Y-552729D01*
X1237646Y-552829D01*
X1237894Y-552721D01*
X1238584Y-552384D01*
X1239672Y-551839D01*
X1241113Y-551110D01*
X1242860Y-550219D01*
X1244869Y-549191D01*
X1247094Y-548048D01*
X1249490Y-546812D01*
X1250544Y-546268D01*
X1252999Y-545001D01*
X1255303Y-543817D01*
X1257411Y-542739D01*
X1259276Y-541789D01*
X1260855Y-540992D01*
X1262100Y-540369D01*
X1262968Y-539945D01*
X1263412Y-539741D01*
X1263461Y-539727D01*
X1263406Y-540001D01*
X1263226Y-540776D01*
X1262930Y-542020D01*
X1262524Y-543700D01*
X1262018Y-545784D01*
X1261419Y-548239D01*
X1260735Y-551033D01*
X1259974Y-554132D01*
X1259144Y-557505D01*
X1258253Y-561119D01*
X1257309Y-564942D01*
X1256320Y-568940D01*
X1255494Y-572276D01*
X1254474Y-576391D01*
X1253492Y-580357D01*
X1252557Y-584139D01*
X1251675Y-587706D01*
X1250856Y-591025D01*
X1250107Y-594064D01*
X1249436Y-596790D01*
X1248851Y-599171D01*
X1248360Y-601174D01*
X1247971Y-602767D01*
X1247692Y-603918D01*
X1247532Y-604593D01*
X1247494Y-604770D01*
X1247768Y-604764D01*
X1248508Y-604723D01*
X1249631Y-604652D01*
X1251054Y-604555D01*
X1252694Y-604440D01*
X1253038Y-604415D01*
X1254765Y-604296D01*
X1256343Y-604200D01*
X1257675Y-604131D01*
X1258664Y-604094D01*
X1259214Y-604094D01*
X1259248Y-604097D01*
X1259353Y-604159D01*
X1259300Y-604325D01*
X1259061Y-604618D01*
X1258605Y-605065D01*
X1257903Y-605692D01*
X1256925Y-606524D01*
X1255642Y-607585D01*
X1254025Y-608903D01*
X1252042Y-610502D01*
X1249666Y-612408D01*
X1248889Y-613030D01*
X1246583Y-614866D01*
X1244470Y-616533D01*
X1242582Y-618005D01*
X1240954Y-619256D01*
X1239617Y-620263D01*
X1238606Y-620999D01*
X1237952Y-621439D01*
X1237690Y-621559D01*
X1237688Y-621555D01*
X1237555Y-621245D01*
X1237225Y-620480D01*
X1236719Y-619309D01*
X1236059Y-617783D01*
X1235267Y-615950D01*
X1234363Y-613861D01*
X1233369Y-611566D01*
X1232307Y-609113D01*
X1232134Y-608715D01*
X1231063Y-606241D01*
X1230056Y-603914D01*
X1229135Y-601786D01*
X1228322Y-599905D01*
X1227638Y-598322D01*
X1227105Y-597086D01*
X1226744Y-596247D01*
X1226577Y-595855D01*
X1226570Y-595838D01*
X1226752Y-595872D01*
X1227340Y-596162D01*
X1228273Y-596672D01*
X1229490Y-597370D01*
X1230929Y-598220D01*
X1232109Y-598931D01*
X1234036Y-600087D01*
X1235601Y-600991D01*
X1236781Y-601629D01*
X1237552Y-601991D01*
X1237892Y-602062D01*
X1237905Y-602046D01*
X1238013Y-601650D01*
X1238233Y-600781D01*
X1238555Y-599486D01*
X1238966Y-597814D01*
X1239456Y-595813D01*
X1240012Y-593531D01*
X1240623Y-591017D01*
X1241277Y-588319D01*
X1241963Y-585485D01*
X1242669Y-582564D01*
X1243383Y-579604D01*
X1244093Y-576653D01*
X1244789Y-573759D01*
X1245458Y-570972D01*
X1246089Y-568338D01*
X1246669Y-565907D01*
X1247188Y-563726D01*
X1247634Y-561845D01*
X1247995Y-560311D01*
X1248260Y-559173D01*
X1248416Y-558478D01*
X1248455Y-558273D01*
X1248201Y-558382D01*
X1247499Y-558719D01*
X1246395Y-559265D01*
X1244929Y-559996D01*
X1243147Y-560891D01*
X1241090Y-561929D01*
X1238802Y-563087D01*
X1236325Y-564346D01*
X1233931Y-565566D01*
X1231320Y-566895D01*
X1228858Y-568145D01*
X1226588Y-569293D01*
X1224552Y-570317D01*
X1222795Y-571196D01*
X1221358Y-571909D01*
X1220286Y-572434D01*
X1219621Y-572749D01*
X1219405Y-572836D01*
X1219467Y-572569D01*
X1219660Y-571809D01*
X1219975Y-570595D01*
X1220402Y-568965D01*
X1220929Y-566957D01*
X1221548Y-564611D01*
X1222247Y-561964D01*
X1223017Y-559055D01*
X1223847Y-555923D01*
X1224726Y-552606D01*
X1225646Y-549143D01*
X1226595Y-545572D01*
X1227563Y-541931D01*
X1228540Y-538260D01*
X1229516Y-534596D01*
X1230480Y-530978D01*
X1231422Y-527445D01*
X1232333Y-524035D01*
X1233201Y-520786D01*
X1234017Y-517738D01*
X1234770Y-514928D01*
X1235450Y-512395D01*
X1236046Y-510177D01*
X1236549Y-508314D01*
X1236949Y-506843D01*
X1237234Y-505803D01*
X1237396Y-505233D01*
X1237404Y-505206D01*
X1237517Y-505120D01*
X1237777Y-505223D01*
G37*
G36*
X1240003Y-454487D02*
G01*
X1240555Y-454768D01*
X1241362Y-455289D01*
X1242025Y-455796D01*
X1242225Y-455987D01*
X1242420Y-456287D01*
X1242876Y-457044D01*
X1243582Y-458237D01*
X1244528Y-459846D01*
X1245701Y-461851D01*
X1247090Y-464232D01*
X1248683Y-466969D01*
X1250469Y-470041D01*
X1252436Y-473430D01*
X1254573Y-477115D01*
X1256868Y-481075D01*
X1259309Y-485292D01*
X1261885Y-489744D01*
X1264585Y-494411D01*
X1267396Y-499274D01*
X1270308Y-504313D01*
X1273308Y-509507D01*
X1276386Y-514836D01*
X1279529Y-520281D01*
X1282726Y-525821D01*
X1285965Y-531437D01*
X1289236Y-537107D01*
X1292526Y-542813D01*
X1295823Y-548534D01*
X1299117Y-554250D01*
X1302396Y-559941D01*
X1305648Y-565586D01*
X1308861Y-571167D01*
X1312024Y-576663D01*
X1315126Y-582053D01*
X1318154Y-587318D01*
X1321098Y-592438D01*
X1323946Y-597392D01*
X1326686Y-602161D01*
X1329307Y-606724D01*
X1331796Y-611062D01*
X1334143Y-615154D01*
X1336337Y-618981D01*
X1338364Y-622522D01*
X1340215Y-625757D01*
X1341876Y-628666D01*
X1343338Y-631230D01*
X1344588Y-633428D01*
X1345614Y-635239D01*
X1346405Y-636645D01*
X1346950Y-637624D01*
X1347237Y-638158D01*
X1347280Y-638251D01*
X1347457Y-639926D01*
X1347148Y-641602D01*
X1346402Y-643161D01*
X1345271Y-644484D01*
X1344294Y-645198D01*
X1342967Y-645979D01*
X1237913Y-646036D01*
X1228620Y-646041D01*
X1219863Y-646045D01*
X1211627Y-646048D01*
X1203896Y-646050D01*
X1196657Y-646051D01*
X1189894Y-646051D01*
X1183592Y-646050D01*
X1177738Y-646047D01*
X1172316Y-646044D01*
X1167311Y-646039D01*
X1162710Y-646033D01*
X1158496Y-646026D01*
X1154656Y-646017D01*
X1151174Y-646007D01*
X1148036Y-645996D01*
X1145227Y-645983D01*
X1142733Y-645969D01*
X1140539Y-645953D01*
X1138630Y-645935D01*
X1136991Y-645916D01*
X1135607Y-645895D01*
X1134464Y-645873D01*
X1133548Y-645848D01*
X1132843Y-645822D01*
X1132335Y-645794D01*
X1132008Y-645764D01*
X1131855Y-645734D01*
X1130352Y-644938D01*
X1129116Y-643780D01*
X1128205Y-642366D01*
X1127674Y-640802D01*
X1127581Y-639195D01*
X1127805Y-638104D01*
X1127966Y-637793D01*
X1128390Y-637025D01*
X1129067Y-635821D01*
X1129985Y-634202D01*
X1131131Y-632186D01*
X1132494Y-629795D01*
X1134063Y-627049D01*
X1134271Y-626685D01*
X1156213Y-626685D01*
X1156221Y-626730D01*
X1156295Y-626771D01*
X1156452Y-626810D01*
X1156710Y-626846D01*
X1157087Y-626879D01*
X1157602Y-626909D01*
X1158274Y-626938D01*
X1159119Y-626963D01*
X1160157Y-626987D01*
X1161406Y-627008D01*
X1162884Y-627027D01*
X1164609Y-627045D01*
X1166599Y-627060D01*
X1168872Y-627074D01*
X1171448Y-627086D01*
X1174344Y-627097D01*
X1177578Y-627106D01*
X1181168Y-627114D01*
X1185133Y-627120D01*
X1189491Y-627126D01*
X1194261Y-627130D01*
X1199460Y-627134D01*
X1205106Y-627136D01*
X1211218Y-627138D01*
X1217815Y-627139D01*
X1224914Y-627140D01*
X1232533Y-627140D01*
X1237491Y-627141D01*
X1245558Y-627140D01*
X1253093Y-627139D01*
X1260112Y-627138D01*
X1266633Y-627135D01*
X1272673Y-627132D01*
X1278248Y-627127D01*
X1283376Y-627122D01*
X1288075Y-627115D01*
X1292361Y-627108D01*
X1296251Y-627099D01*
X1299764Y-627088D01*
X1302915Y-627076D01*
X1305723Y-627063D01*
X1308204Y-627048D01*
X1310375Y-627031D01*
X1312254Y-627013D01*
X1313858Y-626992D01*
X1315204Y-626970D01*
X1316310Y-626946D01*
X1317191Y-626920D01*
X1317867Y-626891D01*
X1318353Y-626860D01*
X1318667Y-626827D01*
X1318826Y-626792D01*
X1318855Y-626764D01*
X1318712Y-626498D01*
X1318304Y-625774D01*
X1317643Y-624612D01*
X1316739Y-623029D01*
X1315603Y-621045D01*
X1314246Y-618678D01*
X1312678Y-615946D01*
X1310910Y-612870D01*
X1308953Y-609466D01*
X1306818Y-605755D01*
X1304516Y-601754D01*
X1302056Y-597482D01*
X1299451Y-592959D01*
X1296710Y-588202D01*
X1293845Y-583231D01*
X1290866Y-578063D01*
X1287783Y-572719D01*
X1284609Y-567216D01*
X1281353Y-561573D01*
X1278202Y-556113D01*
X1273951Y-548750D01*
X1269968Y-541855D01*
X1266247Y-535416D01*
X1262782Y-529425D01*
X1259567Y-523871D01*
X1256596Y-518743D01*
X1253863Y-514033D01*
X1251363Y-509729D01*
X1249090Y-505822D01*
X1247037Y-502302D01*
X1245199Y-499159D01*
X1243571Y-496382D01*
X1242145Y-493962D01*
X1240917Y-491888D01*
X1239880Y-490151D01*
X1239028Y-488740D01*
X1238356Y-487646D01*
X1237858Y-486858D01*
X1237528Y-486366D01*
X1237361Y-486160D01*
X1237338Y-486155D01*
X1237179Y-486415D01*
X1236757Y-487130D01*
X1236088Y-488275D01*
X1235183Y-489829D01*
X1234056Y-491769D01*
X1232719Y-494071D01*
X1231188Y-496713D01*
X1229473Y-499673D01*
X1227589Y-502927D01*
X1225548Y-506453D01*
X1223364Y-510228D01*
X1221050Y-514229D01*
X1218618Y-518434D01*
X1216083Y-522820D01*
X1213457Y-527364D01*
X1210753Y-532043D01*
X1207985Y-536835D01*
X1205166Y-541717D01*
X1202308Y-546666D01*
X1199425Y-551659D01*
X1196529Y-556673D01*
X1193635Y-561687D01*
X1190756Y-566677D01*
X1187903Y-571620D01*
X1185092Y-576493D01*
X1182333Y-581275D01*
X1179642Y-585941D01*
X1177030Y-590470D01*
X1174512Y-594839D01*
X1172100Y-599025D01*
X1169807Y-603004D01*
X1167646Y-606755D01*
X1165631Y-610255D01*
X1163775Y-613481D01*
X1162090Y-616409D01*
X1160591Y-619018D01*
X1159289Y-621285D01*
X1158199Y-623187D01*
X1157333Y-624701D01*
X1156705Y-625804D01*
X1156327Y-626474D01*
X1156213Y-626685D01*
X1134271Y-626685D01*
X1135827Y-623967D01*
X1137773Y-620570D01*
X1139889Y-616878D01*
X1142165Y-612911D01*
X1144589Y-608690D01*
X1147149Y-604233D01*
X1149833Y-599562D01*
X1152630Y-594696D01*
X1155529Y-589656D01*
X1158517Y-584461D01*
X1161584Y-579133D01*
X1164717Y-573690D01*
X1167905Y-568154D01*
X1171136Y-562543D01*
X1174399Y-556879D01*
X1177682Y-551181D01*
X1180974Y-545470D01*
X1184263Y-539766D01*
X1187537Y-534088D01*
X1190785Y-528458D01*
X1193995Y-522894D01*
X1197155Y-517418D01*
X1200255Y-512048D01*
X1203282Y-506807D01*
X1206225Y-501712D01*
X1209072Y-496786D01*
X1211811Y-492047D01*
X1214432Y-487516D01*
X1216922Y-483212D01*
X1219269Y-479157D01*
X1221463Y-475371D01*
X1223492Y-471872D01*
X1225343Y-468682D01*
X1227006Y-465821D01*
X1228469Y-463308D01*
X1229720Y-461164D01*
X1230748Y-459409D01*
X1231540Y-458063D01*
X1232086Y-457147D01*
X1232374Y-456679D01*
X1232398Y-456644D01*
X1233585Y-455395D01*
X1235056Y-454528D01*
X1236695Y-454069D01*
X1238383Y-454046D01*
X1240003Y-454487D01*
G37*
D11*
%TO.C,R4*%
X-1249528Y-397750D02*
X-1300472Y-397750D01*
X-1249528Y-502250D02*
X-1300472Y-502250D01*
%TO.C,U1*%
X-1051000Y-281000D02*
X-1051000Y181000D01*
X-374000Y181000D02*
X-374000Y-281000D01*
X-981500Y-469000D02*
X-1029500Y-469000D01*
X-1005500Y-436000D01*
X-981500Y-469000D01*
G36*
X-981500Y-469000D02*
G01*
X-1029500Y-469000D01*
X-1005500Y-436000D01*
X-981500Y-469000D01*
G37*
%TO.C,R5*%
X447750Y-524528D02*
X447750Y-575472D01*
X552250Y-524528D02*
X552250Y-575472D01*
%TO.C,R6*%
X-102250Y-524528D02*
X-102250Y-575472D01*
X2250Y-524528D02*
X2250Y-575472D01*
%TD*%
M02*
