%TF.GenerationSoftware,KiCad,Pcbnew,9.0.7*%
%TF.CreationDate,2026-03-30T19:28:08+01:00*%
%TF.ProjectId,jvm_relay,6a766d5f-7265-46c6-9179-2e6b69636164,0.7*%
%TF.SameCoordinates,PX577fe70PY487ab00*%
%TF.FileFunction,AssemblyDrawing,Top*%
%FSLAX45Y45*%
G04 Gerber Fmt 4.5, Leading zero omitted, Abs format (unit mm)*
G04 Created by KiCad (PCBNEW 9.0.7) date 2026-03-30 19:28:08*
%MOMM*%
%LPD*%
G01*
G04 APERTURE LIST*
%ADD10C,0.100000*%
%ADD11C,0.120000*%
G04 APERTURE END LIST*
D10*
%TO.C,GS6*%
X-1325000Y800000D02*
X-1225000Y800000D01*
X-1275000Y850000D02*
X-1275000Y750000D01*
X-1225000Y800000D02*
G75*
G02*
X-1325000Y800000I-50000J0D01*
G01*
X-1325000Y800000D02*
G75*
G02*
X-1225000Y800000I50000J0D01*
G01*
%TO.C,R7*%
X882500Y566250D02*
X1042500Y566250D01*
X1042500Y483750D01*
X882500Y483750D01*
X882500Y566250D01*
%TO.C,GS3*%
X-1525000Y350000D02*
X-1425000Y350000D01*
X-1475000Y400000D02*
X-1475000Y300000D01*
X-1425000Y350000D02*
G75*
G02*
X-1525000Y350000I-50000J0D01*
G01*
X-1525000Y350000D02*
G75*
G02*
X-1425000Y350000I50000J0D01*
G01*
%TO.C,C2*%
X-1355000Y-260000D02*
X-1195000Y-260000D01*
X-1195000Y-340000D01*
X-1355000Y-340000D01*
X-1355000Y-260000D01*
%TO.C,R3*%
X-991250Y520000D02*
X-908750Y520000D01*
X-908750Y680000D01*
X-991250Y680000D01*
X-991250Y520000D01*
%TO.C,U2*%
X-1195000Y-155000D02*
X-1235000Y-195000D01*
X-1355000Y-195000D01*
X-1355000Y95000D01*
X-1195000Y95000D01*
X-1195000Y-155000D01*
D11*
%TO.C,K1*%
X-126000Y725000D02*
X524000Y725000D01*
X-126000Y-275000D02*
X-126000Y725000D01*
X424000Y-275000D02*
X-126000Y-275000D01*
X524000Y725000D02*
X524000Y-175000D01*
X524000Y-175000D02*
X424000Y-275000D01*
D10*
%TO.C,GS2*%
X-1525000Y-300000D02*
X-1425000Y-300000D01*
X-1475000Y-250000D02*
X-1475000Y-350000D01*
X-1425000Y-300000D02*
G75*
G02*
X-1525000Y-300000I-50000J0D01*
G01*
X-1525000Y-300000D02*
G75*
G02*
X-1425000Y-300000I50000J0D01*
G01*
%TO.C,GS1*%
X-1525000Y-50000D02*
X-1425000Y-50000D01*
X-1475000Y0D02*
X-1475000Y-100000D01*
X-1425000Y-50000D02*
G75*
G02*
X-1525000Y-50000I-50000J0D01*
G01*
X-1525000Y-50000D02*
G75*
G02*
X-1425000Y-50000I50000J0D01*
G01*
%TO.C,GS4*%
X-1150000Y800000D02*
X-1050000Y800000D01*
X-1100000Y850000D02*
X-1100000Y750000D01*
X-1050000Y800000D02*
G75*
G02*
X-1150000Y800000I-50000J0D01*
G01*
X-1150000Y800000D02*
G75*
G02*
X-1050000Y800000I50000J0D01*
G01*
%TO.C,C1*%
X-960000Y-532500D02*
X-1040000Y-532500D01*
X-1040000Y-692500D01*
X-960000Y-692500D01*
X-960000Y-532500D01*
%TO.C,D4*%
X785000Y-480000D02*
X965000Y-480000D01*
X785000Y-620000D02*
X785000Y-480000D01*
X855000Y-515000D02*
X905000Y-550000D01*
X855000Y-550000D02*
X830000Y-550000D01*
X855000Y-585000D02*
X855000Y-515000D01*
X905000Y-550000D02*
X855000Y-585000D01*
X905000Y-550000D02*
X925000Y-550000D01*
X905000Y-585000D02*
X905000Y-515000D01*
X965000Y-480000D02*
X965000Y-620000D01*
X965000Y-620000D02*
X785000Y-620000D01*
%TO.C,Q1*%
X370000Y-615000D02*
X112500Y-615000D01*
X80000Y-582500D01*
X80000Y-485000D01*
X370000Y-485000D01*
X370000Y-615000D01*
%TO.C,J2*%
X721750Y380500D02*
X1451750Y380500D01*
X721750Y-380500D02*
X721750Y380500D01*
X977950Y286000D02*
X1187250Y76700D01*
X977950Y-95000D02*
X1187250Y-304300D01*
X996250Y304300D02*
X1205550Y95000D01*
X996250Y-76700D02*
X1205550Y-286000D01*
X1269250Y-380500D02*
X721750Y-380500D01*
X1451750Y380500D02*
X1451750Y-198000D01*
X1451750Y-198000D02*
X1269250Y-380500D01*
X1241750Y190500D02*
G75*
G02*
X941750Y190500I-150000J0D01*
G01*
X941750Y190500D02*
G75*
G02*
X1241750Y190500I150000J0D01*
G01*
X1241750Y-190500D02*
G75*
G02*
X941750Y-190500I-150000J0D01*
G01*
X941750Y-190500D02*
G75*
G02*
X1241750Y-190500I150000J0D01*
G01*
%TO.C,D1*%
X-1345000Y690000D02*
X-1205000Y690000D01*
X-1345000Y510000D02*
X-1345000Y690000D01*
X-1310000Y580000D02*
X-1275000Y630000D01*
X-1275000Y630000D02*
X-1275000Y650000D01*
X-1275000Y630000D02*
X-1240000Y580000D01*
X-1275000Y580000D02*
X-1275000Y555000D01*
X-1240000Y630000D02*
X-1310000Y630000D01*
X-1240000Y580000D02*
X-1310000Y580000D01*
X-1205000Y690000D02*
X-1205000Y510000D01*
X-1205000Y510000D02*
X-1345000Y510000D01*
%TO.C,C3*%
X-1355000Y240000D02*
X-1195000Y240000D01*
X-1195000Y160000D01*
X-1355000Y160000D01*
X-1355000Y240000D01*
%TO.C,SW1*%
X-820000Y-462500D02*
X-430000Y-462500D01*
X-820000Y-762500D02*
X-820000Y-462500D01*
X-820000Y-762500D02*
X-430000Y-762500D01*
X-430000Y-462500D02*
X-430000Y-762500D01*
X-535000Y-612500D02*
G75*
G02*
X-715000Y-612500I-90000J0D01*
G01*
X-715000Y-612500D02*
G75*
G02*
X-535000Y-612500I90000J0D01*
G01*
%TO.C,R2*%
X-1141250Y520000D02*
X-1058750Y520000D01*
X-1058750Y680000D01*
X-1141250Y680000D01*
X-1141250Y520000D01*
%TO.C,D3*%
X1220000Y565000D02*
X1220000Y485000D01*
X1220000Y485000D02*
X1350000Y485000D01*
X1350000Y485000D02*
X1380000Y515000D01*
X1380000Y565000D02*
X1220000Y565000D01*
X1380000Y515000D02*
X1380000Y565000D01*
%TO.C,GS5*%
X-1000000Y800000D02*
X-900000Y800000D01*
X-950000Y850000D02*
X-950000Y750000D01*
X-900000Y800000D02*
G75*
G02*
X-1000000Y800000I-50000J0D01*
G01*
X-1000000Y800000D02*
G75*
G02*
X-900000Y800000I50000J0D01*
G01*
%TO.C,D2*%
X-1355000Y-560000D02*
X-1355000Y-640000D01*
X-1355000Y-640000D02*
X-1225000Y-640000D01*
X-1225000Y-640000D02*
X-1195000Y-610000D01*
X-1195000Y-560000D02*
X-1355000Y-560000D01*
X-1195000Y-610000D02*
X-1195000Y-560000D01*
%TO.C,R1*%
X-1195000Y308750D02*
X-1355000Y308750D01*
X-1355000Y391250D01*
X-1195000Y391250D01*
X-1195000Y308750D01*
%TO.C,R4*%
X-1195000Y-491250D02*
X-1355000Y-491250D01*
X-1355000Y-408750D01*
X-1195000Y-408750D01*
X-1195000Y-491250D01*
D11*
%TO.C,J1*%
X-828600Y746450D02*
X-498400Y746450D01*
X-828600Y390850D02*
X-828600Y746450D01*
X-498400Y746450D02*
X-371400Y619450D01*
X-371400Y619450D02*
X-371400Y390850D01*
X-371400Y390850D02*
X-828600Y390850D01*
D10*
%TO.C,U1*%
X-387500Y-270000D02*
X-937500Y-270000D01*
X-1037500Y-170000D01*
X-1037500Y170000D01*
X-387500Y170000D01*
X-387500Y-270000D01*
%TO.C,R5*%
X541250Y-470000D02*
X458750Y-470000D01*
X458750Y-630000D01*
X541250Y-630000D01*
X541250Y-470000D01*
%TO.C,R6*%
X-8750Y-470000D02*
X-91250Y-470000D01*
X-91250Y-630000D01*
X-8750Y-630000D01*
X-8750Y-470000D01*
%TD*%
M02*
