%TF.GenerationSoftware,KiCad,Pcbnew,9.0.6-9.0.6~ubuntu22.04.1*%
%TF.CreationDate,2026-01-23T17:02:03+00:00*%
%TF.ProjectId,vm_i2c_smtso_adaptor,766d5f69-3263-45f7-936d-74736f5f6164,0.1*%
%TF.SameCoordinates,Original*%
%TF.FileFunction,Legend,Bot*%
%TF.FilePolarity,Positive*%
%FSLAX45Y45*%
G04 Gerber Fmt 4.5, Leading zero omitted, Abs format (unit mm)*
G04 Created by KiCad (PCBNEW 9.0.6-9.0.6~ubuntu22.04.1) date 2026-01-23 17:02:03*
%MOMM*%
%LPD*%
G01*
G04 APERTURE LIST*
%ADD10C,0.000000*%
%ADD11C,0.400000*%
G04 APERTURE END LIST*
D10*
G36*
X-531371Y166794D02*
G01*
X-623371Y166794D01*
X-623371Y672794D01*
X-531371Y672794D01*
X-531371Y166794D01*
G37*
G36*
X1924329Y672394D02*
G01*
X2013629Y672394D01*
X2014629Y665094D01*
X2018529Y650894D01*
X2025029Y637594D01*
X2033929Y625794D01*
X2044729Y615894D01*
X2057229Y608094D01*
X2071029Y602694D01*
X2085429Y599994D01*
X2092829Y599694D01*
X2213829Y599694D01*
X2221229Y599994D01*
X2235729Y602694D01*
X2237729Y603494D01*
X2252329Y609894D01*
X2261929Y615894D01*
X2272829Y625794D01*
X2281729Y637594D01*
X2288229Y650894D01*
X2292129Y665094D01*
X2293129Y672394D01*
X2394129Y672394D01*
X2393629Y623494D01*
X2394429Y617194D01*
X2393229Y604494D01*
X2390129Y594794D01*
X2390129Y179794D01*
X2344529Y225394D01*
X2326029Y242094D01*
X2284629Y269794D01*
X2238629Y288894D01*
X2189829Y298594D01*
X2164929Y299794D01*
X2125329Y299794D01*
X2105229Y298794D01*
X2065629Y290894D01*
X2028429Y275494D01*
X1994829Y253094D01*
X1979929Y239494D01*
X1910129Y169794D01*
X1910129Y651494D01*
X1908329Y672394D01*
X1910129Y672394D01*
X1910129Y679794D01*
X1924329Y672394D01*
G37*
G36*
X1881629Y166794D02*
G01*
X1789629Y166794D01*
X1789629Y672794D01*
X1881629Y672794D01*
X1881629Y166794D01*
G37*
G36*
X611629Y166794D02*
G01*
X519629Y166794D01*
X519629Y672794D01*
X611629Y672794D01*
X611629Y166794D01*
G37*
G36*
X-2437371Y167294D02*
G01*
X-2527371Y167294D01*
X-2527371Y524794D01*
X-2527371Y538494D01*
X-2521971Y565294D01*
X-2511571Y590594D01*
X-2496371Y613294D01*
X-2486671Y622994D01*
X-2437371Y672294D01*
X-2437371Y167294D01*
G37*
G36*
X-238571Y672394D02*
G01*
X-145371Y672394D01*
X-144371Y665094D01*
X-140471Y650894D01*
X-133971Y637594D01*
X-125071Y625794D01*
X-114271Y615894D01*
X-101771Y608094D01*
X-87971Y602694D01*
X-73571Y599994D01*
X-66171Y599694D01*
X54829Y599694D01*
X62229Y599994D01*
X76729Y602694D01*
X90429Y608094D01*
X102929Y615894D01*
X113829Y625794D01*
X122729Y637594D01*
X129229Y650894D01*
X133129Y665094D01*
X134129Y672394D01*
X235129Y672394D01*
X234629Y623494D01*
X235429Y617194D01*
X234229Y604494D01*
X234029Y603894D01*
X234029Y176994D01*
X185529Y225394D01*
X167029Y242094D01*
X125629Y269794D01*
X79629Y288894D01*
X30829Y298594D01*
X5929Y299794D01*
X-33671Y299794D01*
X-53771Y298794D01*
X-93371Y290894D01*
X-130571Y275494D01*
X-164171Y253094D01*
X-179071Y239494D01*
X-248871Y169794D01*
X-248871Y651494D01*
X-250671Y672394D01*
X-248871Y672394D01*
X-248871Y679794D01*
X-238571Y672394D01*
G37*
G36*
X357629Y166794D02*
G01*
X265629Y166794D01*
X265629Y672794D01*
X357629Y672794D01*
X357629Y166794D01*
G37*
G36*
X1627629Y166794D02*
G01*
X1535629Y166794D01*
X1535629Y672794D01*
X1627629Y672794D01*
X1627629Y166794D01*
G37*
G36*
X484629Y166794D02*
G01*
X392629Y166794D01*
X392629Y672794D01*
X484629Y672794D01*
X484629Y166794D01*
G37*
G36*
X-404371Y166794D02*
G01*
X-496371Y166794D01*
X-496371Y672794D01*
X-404371Y672794D01*
X-404371Y166794D01*
G37*
G36*
X-1801371Y166794D02*
G01*
X-1893371Y166794D01*
X-1893371Y672794D01*
X-1801371Y672794D01*
X-1801371Y166794D01*
G37*
G36*
X2515629Y269794D02*
G01*
X2425629Y269794D01*
X2425629Y569794D01*
X2515629Y569794D01*
X2515629Y269794D01*
G37*
G36*
X-1379971Y672394D02*
G01*
X-1288371Y672394D01*
X-1287371Y665094D01*
X-1283471Y650894D01*
X-1276971Y637594D01*
X-1268071Y625794D01*
X-1257271Y615894D01*
X-1244771Y608094D01*
X-1230971Y602694D01*
X-1216571Y599994D01*
X-1209171Y599694D01*
X-1088171Y599694D01*
X-1080771Y599994D01*
X-1066271Y602694D01*
X-1052571Y608094D01*
X-1040071Y615894D01*
X-1029171Y625794D01*
X-1020271Y637594D01*
X-1013771Y650894D01*
X-1009871Y665094D01*
X-1008871Y672394D01*
X-908971Y672394D01*
X-907871Y672394D01*
X-908371Y623494D01*
X-907571Y617194D01*
X-908771Y604494D01*
X-908971Y603894D01*
X-908971Y176994D01*
X-957471Y225394D01*
X-975971Y242094D01*
X-1017371Y269794D01*
X-1063371Y288894D01*
X-1112171Y298594D01*
X-1137071Y299794D01*
X-1176671Y299794D01*
X-1196771Y298794D01*
X-1236371Y290894D01*
X-1273571Y275494D01*
X-1307171Y253094D01*
X-1322071Y239494D01*
X-1391871Y169794D01*
X-1391871Y651494D01*
X-1393671Y672394D01*
X-1391871Y672394D01*
X-1391871Y679794D01*
X-1379971Y672394D01*
G37*
G36*
X865629Y166794D02*
G01*
X773629Y166794D01*
X773629Y672794D01*
X865629Y672794D01*
X865629Y166794D01*
G37*
G36*
X-1547371Y166794D02*
G01*
X-1639371Y166794D01*
X-1639371Y672794D01*
X-1547371Y672794D01*
X-1547371Y166794D01*
G37*
G36*
X2477929Y628994D02*
G01*
X2487529Y619294D01*
X2502729Y596594D01*
X2513229Y571294D01*
X2518529Y544494D01*
X2518529Y530794D01*
X2518529Y173294D01*
X2428529Y173294D01*
X2428529Y678294D01*
X2477929Y628994D01*
G37*
G36*
X1754629Y166794D02*
G01*
X1662629Y166794D01*
X1662629Y672794D01*
X1754629Y672794D01*
X1754629Y166794D01*
G37*
G36*
X-2437371Y294794D02*
G01*
X-2527371Y294794D01*
X-2527371Y544794D01*
X-2437371Y544794D01*
X-2437371Y294794D01*
G37*
G36*
X-785371Y166794D02*
G01*
X-877371Y166794D01*
X-877371Y672794D01*
X-785371Y672794D01*
X-785371Y166794D01*
G37*
G36*
X-658371Y166794D02*
G01*
X-750371Y166794D01*
X-750371Y672794D01*
X-658371Y672794D01*
X-658371Y166794D01*
G37*
G36*
X-1420371Y166794D02*
G01*
X-1512371Y166794D01*
X-1512371Y672794D01*
X-1420371Y672794D01*
X-1420371Y166794D01*
G37*
G36*
X1500629Y166794D02*
G01*
X1408629Y166794D01*
X1408629Y672794D01*
X1500629Y672794D01*
X1500629Y166794D01*
G37*
G36*
X-1674371Y166794D02*
G01*
X-1766371Y166794D01*
X-1766371Y672794D01*
X-1674371Y672794D01*
X-1674371Y166794D01*
G37*
G36*
X738629Y166794D02*
G01*
X646629Y166794D01*
X646629Y672794D01*
X738629Y672794D01*
X738629Y166794D01*
G37*
G36*
X-277371Y166794D02*
G01*
X-369371Y166794D01*
X-369371Y672794D01*
X-277371Y672794D01*
X-277371Y166794D01*
G37*
G36*
X-1923571Y175494D02*
G01*
X-1973471Y225394D01*
X-1991971Y242094D01*
X-2033371Y269794D01*
X-2079371Y288894D01*
X-2128171Y298594D01*
X-2153071Y299794D01*
X-2192671Y299794D01*
X-2212771Y298794D01*
X-2252371Y290894D01*
X-2289571Y275494D01*
X-2323171Y253094D01*
X-2338071Y239494D01*
X-2407871Y169794D01*
X-2407871Y651494D01*
X-2409671Y672394D01*
X-2304371Y672394D01*
X-2303371Y665094D01*
X-2299471Y650894D01*
X-2292971Y637594D01*
X-2284071Y625794D01*
X-2273271Y615894D01*
X-2260771Y608094D01*
X-2246971Y602694D01*
X-2232571Y599994D01*
X-2225171Y599694D01*
X-2104171Y599694D01*
X-2096771Y599994D01*
X-2082271Y602694D01*
X-2068571Y608094D01*
X-2056071Y615894D01*
X-2045171Y625794D01*
X-2036271Y637594D01*
X-2029771Y650894D01*
X-2025871Y665094D01*
X-2024871Y672394D01*
X-1924071Y672394D01*
X-1923571Y672694D01*
X-1923571Y175494D01*
G37*
G36*
X998629Y665094D02*
G01*
X1002529Y650894D01*
X1009029Y637594D01*
X1017929Y625794D01*
X1028729Y615894D01*
X1041229Y608094D01*
X1055029Y602694D01*
X1069429Y599994D01*
X1076829Y599694D01*
X1197829Y599694D01*
X1205229Y599994D01*
X1219729Y602694D01*
X1221729Y603494D01*
X1236329Y609894D01*
X1245929Y615894D01*
X1256829Y625794D01*
X1265729Y637594D01*
X1272229Y650894D01*
X1276129Y665094D01*
X1277129Y672394D01*
X1378129Y672394D01*
X1377629Y623494D01*
X1378429Y617194D01*
X1377229Y604494D01*
X1374129Y594794D01*
X1374129Y179794D01*
X1328529Y225394D01*
X1310029Y242094D01*
X1268629Y269794D01*
X1222629Y288894D01*
X1173829Y298594D01*
X1148929Y299794D01*
X1109329Y299794D01*
X1089229Y298794D01*
X1049629Y290894D01*
X1012429Y275494D01*
X978829Y253094D01*
X963929Y239494D01*
X894129Y169794D01*
X894129Y651494D01*
X892329Y672394D01*
X997629Y672394D01*
X998629Y665094D01*
G37*
D11*
X2006619Y-577032D02*
X1987571Y-586556D01*
X1987571Y-586556D02*
X1959000Y-586556D01*
X1959000Y-586556D02*
X1930428Y-577032D01*
X1930428Y-577032D02*
X1911381Y-557985D01*
X1911381Y-557985D02*
X1901857Y-538937D01*
X1901857Y-538937D02*
X1892333Y-500842D01*
X1892333Y-500842D02*
X1892333Y-472270D01*
X1892333Y-472270D02*
X1901857Y-434175D01*
X1901857Y-434175D02*
X1911381Y-415128D01*
X1911381Y-415128D02*
X1930428Y-396080D01*
X1930428Y-396080D02*
X1959000Y-386556D01*
X1959000Y-386556D02*
X1978048Y-386556D01*
X1978048Y-386556D02*
X2006619Y-396080D01*
X2006619Y-396080D02*
X2016143Y-405604D01*
X2016143Y-405604D02*
X2016143Y-472270D01*
X2016143Y-472270D02*
X1978048Y-472270D01*
X2101857Y-386556D02*
X2101857Y-586556D01*
X2101857Y-586556D02*
X2216143Y-386556D01*
X2216143Y-386556D02*
X2216143Y-586556D01*
X2311381Y-386556D02*
X2311381Y-586556D01*
X2311381Y-586556D02*
X2359000Y-586556D01*
X2359000Y-586556D02*
X2387571Y-577032D01*
X2387571Y-577032D02*
X2406619Y-557985D01*
X2406619Y-557985D02*
X2416143Y-538937D01*
X2416143Y-538937D02*
X2425667Y-500842D01*
X2425667Y-500842D02*
X2425667Y-472270D01*
X2425667Y-472270D02*
X2416143Y-434175D01*
X2416143Y-434175D02*
X2406619Y-415128D01*
X2406619Y-415128D02*
X2387571Y-396080D01*
X2387571Y-396080D02*
X2359000Y-386556D01*
X2359000Y-386556D02*
X2311381Y-386556D01*
X990619Y-586556D02*
X1114429Y-586556D01*
X1114429Y-586556D02*
X1047762Y-510366D01*
X1047762Y-510366D02*
X1076333Y-510366D01*
X1076333Y-510366D02*
X1095381Y-500842D01*
X1095381Y-500842D02*
X1104905Y-491318D01*
X1104905Y-491318D02*
X1114429Y-472270D01*
X1114429Y-472270D02*
X1114429Y-424651D01*
X1114429Y-424651D02*
X1104905Y-405604D01*
X1104905Y-405604D02*
X1095381Y-396080D01*
X1095381Y-396080D02*
X1076333Y-386556D01*
X1076333Y-386556D02*
X1019190Y-386556D01*
X1019190Y-386556D02*
X1000143Y-396080D01*
X1000143Y-396080D02*
X990619Y-405604D01*
X1171571Y-586556D02*
X1238238Y-386556D01*
X1238238Y-386556D02*
X1304905Y-586556D01*
X-2306619Y-386556D02*
X-2306619Y-586556D01*
X-2306619Y-586556D02*
X-2230429Y-586556D01*
X-2230429Y-586556D02*
X-2211381Y-577032D01*
X-2211381Y-577032D02*
X-2201857Y-567509D01*
X-2201857Y-567509D02*
X-2192333Y-548461D01*
X-2192333Y-548461D02*
X-2192333Y-519889D01*
X-2192333Y-519889D02*
X-2201857Y-500842D01*
X-2201857Y-500842D02*
X-2211381Y-491318D01*
X-2211381Y-491318D02*
X-2230429Y-481794D01*
X-2230429Y-481794D02*
X-2306619Y-481794D01*
X-2068524Y-586556D02*
X-2049476Y-586556D01*
X-2049476Y-586556D02*
X-2030429Y-577032D01*
X-2030429Y-577032D02*
X-2020905Y-567509D01*
X-2020905Y-567509D02*
X-2011381Y-548461D01*
X-2011381Y-548461D02*
X-2001857Y-510366D01*
X-2001857Y-510366D02*
X-2001857Y-462747D01*
X-2001857Y-462747D02*
X-2011381Y-424651D01*
X-2011381Y-424651D02*
X-2020905Y-405604D01*
X-2020905Y-405604D02*
X-2030429Y-396080D01*
X-2030429Y-396080D02*
X-2049476Y-386556D01*
X-2049476Y-386556D02*
X-2068524Y-386556D01*
X-2068524Y-386556D02*
X-2087571Y-396080D01*
X-2087571Y-396080D02*
X-2097095Y-405604D01*
X-2097095Y-405604D02*
X-2106619Y-424651D01*
X-2106619Y-424651D02*
X-2116143Y-462747D01*
X-2116143Y-462747D02*
X-2116143Y-510366D01*
X-2116143Y-510366D02*
X-2106619Y-548461D01*
X-2106619Y-548461D02*
X-2097095Y-567509D01*
X-2097095Y-567509D02*
X-2087571Y-577032D01*
X-2087571Y-577032D02*
X-2068524Y-586556D01*
X-1300619Y-386556D02*
X-1300619Y-586556D01*
X-1300619Y-586556D02*
X-1224429Y-586556D01*
X-1224429Y-586556D02*
X-1205381Y-577032D01*
X-1205381Y-577032D02*
X-1195857Y-567509D01*
X-1195857Y-567509D02*
X-1186333Y-548461D01*
X-1186333Y-548461D02*
X-1186333Y-519889D01*
X-1186333Y-519889D02*
X-1195857Y-500842D01*
X-1195857Y-500842D02*
X-1205381Y-491318D01*
X-1205381Y-491318D02*
X-1224429Y-481794D01*
X-1224429Y-481794D02*
X-1300619Y-481794D01*
X-995857Y-386556D02*
X-1110143Y-386556D01*
X-1053000Y-386556D02*
X-1053000Y-586556D01*
X-1053000Y-586556D02*
X-1072048Y-557985D01*
X-1072048Y-557985D02*
X-1091095Y-538937D01*
X-1091095Y-538937D02*
X-1110143Y-529413D01*
M02*
