%TF.GenerationSoftware,KiCad,Pcbnew,9.0.6-9.0.6~ubuntu22.04.1*%
%TF.CreationDate,2026-01-23T17:02:03+00:00*%
%TF.ProjectId,vm_i2c_smtso_adaptor,766d5f69-3263-45f7-936d-74736f5f6164,0.1*%
%TF.SameCoordinates,Original*%
%TF.FileFunction,Paste,Top*%
%TF.FilePolarity,Positive*%
%FSLAX45Y45*%
G04 Gerber Fmt 4.5, Leading zero omitted, Abs format (unit mm)*
G04 Created by KiCad (PCBNEW 9.0.6-9.0.6~ubuntu22.04.1) date 2026-01-23 17:02:03*
%MOMM*%
%LPD*%
G01*
G04 APERTURE LIST*
%ADD10C,1.000000*%
G04 APERTURE END LIST*
D10*
%TO.C,CN3*%
X883000Y0D03*
X917833Y130000D03*
X917833Y-130000D03*
X1013000Y225167D03*
X1013000Y-225167D03*
X1143000Y260000D03*
X1143000Y-260000D03*
X1273000Y225167D03*
X1273000Y-225167D03*
X1368167Y130000D03*
X1368167Y-130000D03*
X1403000Y0D03*
%TD*%
%TO.C,CN4*%
X1899000Y0D03*
X1933833Y130000D03*
X1933833Y-130000D03*
X2029000Y225167D03*
X2029000Y-225167D03*
X2159000Y260000D03*
X2159000Y-260000D03*
X2289000Y225167D03*
X2289000Y-225167D03*
X2384167Y130000D03*
X2384167Y-130000D03*
X2419000Y0D03*
%TD*%
%TO.C,CN2*%
X-1413000Y0D03*
X-1378167Y130000D03*
X-1378167Y-130000D03*
X-1283000Y225167D03*
X-1283000Y-225167D03*
X-1153000Y260000D03*
X-1153000Y-260000D03*
X-1023000Y225167D03*
X-1023000Y-225167D03*
X-927833Y130000D03*
X-927833Y-130000D03*
X-893000Y0D03*
%TD*%
%TO.C,CN1*%
X-2419000Y0D03*
X-2384167Y130000D03*
X-2384167Y-130000D03*
X-2289000Y225167D03*
X-2289000Y-225167D03*
X-2159000Y260000D03*
X-2159000Y-260000D03*
X-2029000Y225167D03*
X-2029000Y-225167D03*
X-1933833Y130000D03*
X-1933833Y-130000D03*
X-1899000Y0D03*
%TD*%
M02*
