%TF.GenerationSoftware,KiCad,Pcbnew,9.0.5*%
%TF.CreationDate,2025-10-22T23:14:44+01:00*%
%TF.ProjectId,vm_i2c_smtso_adaptor,766d5f69-3263-45f7-936d-74736f5f6164,0.1*%
%TF.SameCoordinates,Original*%
%TF.FileFunction,Legend,Top*%
%TF.FilePolarity,Positive*%
%FSLAX45Y45*%
G04 Gerber Fmt 4.5, Leading zero omitted, Abs format (unit mm)*
G04 Created by KiCad (PCBNEW 9.0.5) date 2025-10-22 23:14:44*
%MOMM*%
%LPD*%
G01*
G04 APERTURE LIST*
%ADD10C,0.000000*%
%ADD11C,0.400000*%
%ADD12C,0.200000*%
G04 APERTURE END LIST*
D10*
G36*
X-2438400Y-570100D02*
G01*
X-2528400Y-570100D01*
X-2528400Y-270100D01*
X-2438400Y-270100D01*
X-2438400Y-570100D01*
G37*
G36*
X864600Y-673100D02*
G01*
X772600Y-673100D01*
X772600Y-167100D01*
X864600Y-167100D01*
X864600Y-673100D01*
G37*
G36*
X-786400Y-673100D02*
G01*
X-878400Y-673100D01*
X-878400Y-167100D01*
X-786400Y-167100D01*
X-786400Y-673100D01*
G37*
G36*
X737600Y-673100D02*
G01*
X645600Y-673100D01*
X645600Y-167100D01*
X737600Y-167100D01*
X737600Y-673100D01*
G37*
G36*
X-659400Y-673100D02*
G01*
X-751400Y-673100D01*
X-751400Y-167100D01*
X-659400Y-167100D01*
X-659400Y-673100D01*
G37*
G36*
X-1675400Y-673100D02*
G01*
X-1767400Y-673100D01*
X-1767400Y-167100D01*
X-1675400Y-167100D01*
X-1675400Y-673100D01*
G37*
G36*
X236100Y-651800D02*
G01*
X237900Y-672700D01*
X236100Y-672700D01*
X236100Y-680100D01*
X225800Y-672700D01*
X132600Y-672700D01*
X131600Y-665400D01*
X127700Y-651200D01*
X121200Y-637900D01*
X112300Y-626100D01*
X101500Y-616200D01*
X89000Y-608400D01*
X75200Y-603000D01*
X60800Y-600300D01*
X53400Y-600000D01*
X-67600Y-600000D01*
X-75000Y-600300D01*
X-89500Y-603000D01*
X-103200Y-608400D01*
X-115700Y-616200D01*
X-126600Y-626100D01*
X-135500Y-637900D01*
X-142000Y-651200D01*
X-145900Y-665400D01*
X-146900Y-672700D01*
X-247900Y-672700D01*
X-247400Y-623800D01*
X-248200Y-617500D01*
X-247000Y-604800D01*
X-246800Y-604200D01*
X-246800Y-177300D01*
X-198300Y-225700D01*
X-179800Y-242400D01*
X-138400Y-270100D01*
X-92400Y-289200D01*
X-43600Y-298900D01*
X-18700Y-300100D01*
X20900Y-300100D01*
X41000Y-299100D01*
X80600Y-291200D01*
X117800Y-275800D01*
X151400Y-253400D01*
X166300Y-239800D01*
X236100Y-170100D01*
X236100Y-651800D01*
G37*
G36*
X-1802400Y-673100D02*
G01*
X-1894400Y-673100D01*
X-1894400Y-167100D01*
X-1802400Y-167100D01*
X-1802400Y-673100D01*
G37*
G36*
X1626600Y-673100D02*
G01*
X1534600Y-673100D01*
X1534600Y-167100D01*
X1626600Y-167100D01*
X1626600Y-673100D01*
G37*
G36*
X1499600Y-673100D02*
G01*
X1407600Y-673100D01*
X1407600Y-167100D01*
X1499600Y-167100D01*
X1499600Y-673100D01*
G37*
G36*
X483600Y-673100D02*
G01*
X391600Y-673100D01*
X391600Y-167100D01*
X483600Y-167100D01*
X483600Y-673100D01*
G37*
G36*
X2514600Y-525100D02*
G01*
X2514600Y-538800D01*
X2509200Y-565600D01*
X2498800Y-590900D01*
X2483600Y-613600D01*
X2473900Y-623300D01*
X2424600Y-672600D01*
X2424600Y-167600D01*
X2514600Y-167600D01*
X2514600Y-525100D01*
G37*
G36*
X-1548400Y-673100D02*
G01*
X-1640400Y-673100D01*
X-1640400Y-167100D01*
X-1548400Y-167100D01*
X-1548400Y-673100D01*
G37*
G36*
X1379100Y-651800D02*
G01*
X1380900Y-672700D01*
X1379100Y-672700D01*
X1379100Y-680100D01*
X1367200Y-672700D01*
X1275600Y-672700D01*
X1274600Y-665400D01*
X1270700Y-651200D01*
X1264200Y-637900D01*
X1255300Y-626100D01*
X1244500Y-616200D01*
X1232000Y-608400D01*
X1218200Y-603000D01*
X1203800Y-600300D01*
X1196400Y-600000D01*
X1075400Y-600000D01*
X1068000Y-600300D01*
X1053500Y-603000D01*
X1039800Y-608400D01*
X1027300Y-616200D01*
X1016400Y-626100D01*
X1007500Y-637900D01*
X1001000Y-651200D01*
X997100Y-665400D01*
X996100Y-672700D01*
X896200Y-672700D01*
X895100Y-672700D01*
X895600Y-623800D01*
X894800Y-617500D01*
X896000Y-604800D01*
X896200Y-604200D01*
X896200Y-177300D01*
X944700Y-225700D01*
X963200Y-242400D01*
X1004600Y-270100D01*
X1050600Y-289200D01*
X1099400Y-298900D01*
X1124300Y-300100D01*
X1163900Y-300100D01*
X1184000Y-299100D01*
X1223600Y-291200D01*
X1260800Y-275800D01*
X1294400Y-253400D01*
X1309300Y-239800D01*
X1379100Y-170100D01*
X1379100Y-651800D01*
G37*
G36*
X1753600Y-673100D02*
G01*
X1661600Y-673100D01*
X1661600Y-167100D01*
X1753600Y-167100D01*
X1753600Y-673100D01*
G37*
G36*
X1880600Y-673100D02*
G01*
X1788600Y-673100D01*
X1788600Y-167100D01*
X1880600Y-167100D01*
X1880600Y-673100D01*
G37*
G36*
X-1421400Y-673100D02*
G01*
X-1513400Y-673100D01*
X-1513400Y-167100D01*
X-1421400Y-167100D01*
X-1421400Y-673100D01*
G37*
G36*
X-906900Y-651800D02*
G01*
X-905100Y-672700D01*
X-1010400Y-672700D01*
X-1011400Y-665400D01*
X-1015300Y-651200D01*
X-1021800Y-637900D01*
X-1030700Y-626100D01*
X-1041500Y-616200D01*
X-1054000Y-608400D01*
X-1067800Y-603000D01*
X-1082200Y-600300D01*
X-1089600Y-600000D01*
X-1210600Y-600000D01*
X-1218000Y-600300D01*
X-1232500Y-603000D01*
X-1234500Y-603800D01*
X-1249100Y-610200D01*
X-1258700Y-616200D01*
X-1269600Y-626100D01*
X-1278500Y-637900D01*
X-1285000Y-651200D01*
X-1288900Y-665400D01*
X-1289900Y-672700D01*
X-1390900Y-672700D01*
X-1390400Y-623800D01*
X-1391200Y-617500D01*
X-1390000Y-604800D01*
X-1386900Y-595100D01*
X-1386900Y-180100D01*
X-1341300Y-225700D01*
X-1322800Y-242400D01*
X-1281400Y-270100D01*
X-1235400Y-289200D01*
X-1186600Y-298900D01*
X-1161700Y-300100D01*
X-1122100Y-300100D01*
X-1102000Y-299100D01*
X-1062400Y-291200D01*
X-1025200Y-275800D01*
X-991600Y-253400D01*
X-976700Y-239800D01*
X-906900Y-170100D01*
X-906900Y-651800D01*
G37*
G36*
X-1922900Y-651800D02*
G01*
X-1921100Y-672700D01*
X-1922900Y-672700D01*
X-1922900Y-680100D01*
X-1937100Y-672700D01*
X-2026400Y-672700D01*
X-2027400Y-665400D01*
X-2031300Y-651200D01*
X-2037800Y-637900D01*
X-2046700Y-626100D01*
X-2057500Y-616200D01*
X-2070000Y-608400D01*
X-2083800Y-603000D01*
X-2098200Y-600300D01*
X-2105600Y-600000D01*
X-2226600Y-600000D01*
X-2234000Y-600300D01*
X-2248500Y-603000D01*
X-2250500Y-603800D01*
X-2265100Y-610200D01*
X-2274700Y-616200D01*
X-2285600Y-626100D01*
X-2294500Y-637900D01*
X-2301000Y-651200D01*
X-2304900Y-665400D01*
X-2305900Y-672700D01*
X-2406900Y-672700D01*
X-2406400Y-623800D01*
X-2407200Y-617500D01*
X-2406000Y-604800D01*
X-2402900Y-595100D01*
X-2402900Y-180100D01*
X-2357300Y-225700D01*
X-2338800Y-242400D01*
X-2297400Y-270100D01*
X-2251400Y-289200D01*
X-2202600Y-298900D01*
X-2177700Y-300100D01*
X-2138100Y-300100D01*
X-2118000Y-299100D01*
X-2078400Y-291200D01*
X-2041200Y-275800D01*
X-2007600Y-253400D01*
X-1992700Y-239800D01*
X-1922900Y-170100D01*
X-1922900Y-651800D01*
G37*
G36*
X2395100Y-651800D02*
G01*
X2396900Y-672700D01*
X2291600Y-672700D01*
X2290600Y-665400D01*
X2286700Y-651200D01*
X2280200Y-637900D01*
X2271300Y-626100D01*
X2260500Y-616200D01*
X2248000Y-608400D01*
X2234200Y-603000D01*
X2219800Y-600300D01*
X2212400Y-600000D01*
X2091400Y-600000D01*
X2084000Y-600300D01*
X2069500Y-603000D01*
X2055800Y-608400D01*
X2043300Y-616200D01*
X2032400Y-626100D01*
X2023500Y-637900D01*
X2017000Y-651200D01*
X2013100Y-665400D01*
X2012100Y-672700D01*
X1911300Y-672700D01*
X1910800Y-673000D01*
X1910800Y-175800D01*
X1960700Y-225700D01*
X1979200Y-242400D01*
X2020600Y-270100D01*
X2066600Y-289200D01*
X2115400Y-298900D01*
X2140300Y-300100D01*
X2179900Y-300100D01*
X2200000Y-299100D01*
X2239600Y-291200D01*
X2276800Y-275800D01*
X2310400Y-253400D01*
X2325300Y-239800D01*
X2395100Y-170100D01*
X2395100Y-651800D01*
G37*
G36*
X-405400Y-673100D02*
G01*
X-497400Y-673100D01*
X-497400Y-167100D01*
X-405400Y-167100D01*
X-405400Y-673100D01*
G37*
G36*
X-2441300Y-678600D02*
G01*
X-2490700Y-629300D01*
X-2500300Y-619600D01*
X-2515500Y-596900D01*
X-2526000Y-571600D01*
X-2531300Y-544800D01*
X-2531300Y-531100D01*
X-2531300Y-173600D01*
X-2441300Y-173600D01*
X-2441300Y-678600D01*
G37*
G36*
X610600Y-673100D02*
G01*
X518600Y-673100D01*
X518600Y-167100D01*
X610600Y-167100D01*
X610600Y-673100D01*
G37*
G36*
X356600Y-673100D02*
G01*
X264600Y-673100D01*
X264600Y-167100D01*
X356600Y-167100D01*
X356600Y-673100D01*
G37*
G36*
X-532400Y-673100D02*
G01*
X-624400Y-673100D01*
X-624400Y-167100D01*
X-532400Y-167100D01*
X-532400Y-673100D01*
G37*
G36*
X2514600Y-545100D02*
G01*
X2424600Y-545100D01*
X2424600Y-295100D01*
X2514600Y-295100D01*
X2514600Y-545100D01*
G37*
G36*
X-278400Y-673100D02*
G01*
X-370400Y-673100D01*
X-370400Y-167100D01*
X-278400Y-167100D01*
X-278400Y-673100D01*
G37*
D11*
X-1300619Y386556D02*
X-1300619Y586556D01*
X-1300619Y586556D02*
X-1224429Y586556D01*
X-1224429Y586556D02*
X-1205381Y577032D01*
X-1205381Y577032D02*
X-1195857Y567509D01*
X-1195857Y567509D02*
X-1186333Y548461D01*
X-1186333Y548461D02*
X-1186333Y519890D01*
X-1186333Y519890D02*
X-1195857Y500842D01*
X-1195857Y500842D02*
X-1205381Y491318D01*
X-1205381Y491318D02*
X-1224429Y481794D01*
X-1224429Y481794D02*
X-1300619Y481794D01*
X-995857Y386556D02*
X-1110143Y386556D01*
X-1053000Y386556D02*
X-1053000Y586556D01*
X-1053000Y586556D02*
X-1072048Y557985D01*
X-1072048Y557985D02*
X-1091095Y538937D01*
X-1091095Y538937D02*
X-1110143Y529413D01*
X990619Y586556D02*
X1114429Y586556D01*
X1114429Y586556D02*
X1047762Y510366D01*
X1047762Y510366D02*
X1076333Y510366D01*
X1076333Y510366D02*
X1095381Y500842D01*
X1095381Y500842D02*
X1104905Y491318D01*
X1104905Y491318D02*
X1114429Y472270D01*
X1114429Y472270D02*
X1114429Y424651D01*
X1114429Y424651D02*
X1104905Y405604D01*
X1104905Y405604D02*
X1095381Y396080D01*
X1095381Y396080D02*
X1076333Y386556D01*
X1076333Y386556D02*
X1019190Y386556D01*
X1019190Y386556D02*
X1000143Y396080D01*
X1000143Y396080D02*
X990619Y405604D01*
X1171571Y586556D02*
X1238238Y386556D01*
X1238238Y386556D02*
X1304905Y586556D01*
X2006619Y577032D02*
X1987571Y586556D01*
X1987571Y586556D02*
X1959000Y586556D01*
X1959000Y586556D02*
X1930428Y577032D01*
X1930428Y577032D02*
X1911381Y557985D01*
X1911381Y557985D02*
X1901857Y538937D01*
X1901857Y538937D02*
X1892333Y500842D01*
X1892333Y500842D02*
X1892333Y472270D01*
X1892333Y472270D02*
X1901857Y434175D01*
X1901857Y434175D02*
X1911381Y415128D01*
X1911381Y415128D02*
X1930428Y396080D01*
X1930428Y396080D02*
X1959000Y386556D01*
X1959000Y386556D02*
X1978048Y386556D01*
X1978048Y386556D02*
X2006619Y396080D01*
X2006619Y396080D02*
X2016143Y405604D01*
X2016143Y405604D02*
X2016143Y472270D01*
X2016143Y472270D02*
X1978048Y472270D01*
X2101857Y386556D02*
X2101857Y586556D01*
X2101857Y586556D02*
X2216143Y386556D01*
X2216143Y386556D02*
X2216143Y586556D01*
X2311381Y386556D02*
X2311381Y586556D01*
X2311381Y586556D02*
X2359000Y586556D01*
X2359000Y586556D02*
X2387571Y577032D01*
X2387571Y577032D02*
X2406619Y557985D01*
X2406619Y557985D02*
X2416143Y538937D01*
X2416143Y538937D02*
X2425667Y500842D01*
X2425667Y500842D02*
X2425667Y472270D01*
X2425667Y472270D02*
X2416143Y434175D01*
X2416143Y434175D02*
X2406619Y415128D01*
X2406619Y415128D02*
X2387571Y396080D01*
X2387571Y396080D02*
X2359000Y386556D01*
X2359000Y386556D02*
X2311381Y386556D01*
D12*
X-1743985Y13278D02*
X-1734461Y13278D01*
X-1734461Y13278D02*
X-1724937Y8516D01*
X-1724937Y8516D02*
X-1720176Y3754D01*
X-1720176Y3754D02*
X-1715414Y-5769D01*
X-1715414Y-5769D02*
X-1710652Y-24817D01*
X-1710652Y-24817D02*
X-1710652Y-48627D01*
X-1710652Y-48627D02*
X-1715414Y-67674D01*
X-1715414Y-67674D02*
X-1720176Y-77198D01*
X-1720176Y-77198D02*
X-1724937Y-81960D01*
X-1724937Y-81960D02*
X-1734461Y-86722D01*
X-1734461Y-86722D02*
X-1743985Y-86722D01*
X-1743985Y-86722D02*
X-1753509Y-81960D01*
X-1753509Y-81960D02*
X-1758271Y-77198D01*
X-1758271Y-77198D02*
X-1763033Y-67674D01*
X-1763033Y-67674D02*
X-1767795Y-48627D01*
X-1767795Y-48627D02*
X-1767795Y-24817D01*
X-1767795Y-24817D02*
X-1763033Y-5769D01*
X-1763033Y-5769D02*
X-1758271Y3754D01*
X-1758271Y3754D02*
X-1753509Y8516D01*
X-1753509Y8516D02*
X-1743985Y13278D01*
X-1667795Y-77198D02*
X-1663033Y-81960D01*
X-1663033Y-81960D02*
X-1667795Y-86722D01*
X-1667795Y-86722D02*
X-1672556Y-81960D01*
X-1672556Y-81960D02*
X-1667795Y-77198D01*
X-1667795Y-77198D02*
X-1667795Y-86722D01*
X-1567795Y-86722D02*
X-1624937Y-86722D01*
X-1596366Y-86722D02*
X-1596366Y13278D01*
X-1596366Y13278D02*
X-1605890Y-1008D01*
X-1605890Y-1008D02*
X-1615414Y-10531D01*
X-1615414Y-10531D02*
X-1624937Y-15293D01*
D11*
X-2306619Y386556D02*
X-2306619Y586556D01*
X-2306619Y586556D02*
X-2230429Y586556D01*
X-2230429Y586556D02*
X-2211381Y577032D01*
X-2211381Y577032D02*
X-2201857Y567509D01*
X-2201857Y567509D02*
X-2192333Y548461D01*
X-2192333Y548461D02*
X-2192333Y519890D01*
X-2192333Y519890D02*
X-2201857Y500842D01*
X-2201857Y500842D02*
X-2211381Y491318D01*
X-2211381Y491318D02*
X-2230429Y481794D01*
X-2230429Y481794D02*
X-2306619Y481794D01*
X-2068524Y586556D02*
X-2049476Y586556D01*
X-2049476Y586556D02*
X-2030429Y577032D01*
X-2030429Y577032D02*
X-2020905Y567509D01*
X-2020905Y567509D02*
X-2011381Y548461D01*
X-2011381Y548461D02*
X-2001857Y510366D01*
X-2001857Y510366D02*
X-2001857Y462747D01*
X-2001857Y462747D02*
X-2011381Y424651D01*
X-2011381Y424651D02*
X-2020905Y405604D01*
X-2020905Y405604D02*
X-2030429Y396080D01*
X-2030429Y396080D02*
X-2049476Y386556D01*
X-2049476Y386556D02*
X-2068524Y386556D01*
X-2068524Y386556D02*
X-2087571Y396080D01*
X-2087571Y396080D02*
X-2097095Y405604D01*
X-2097095Y405604D02*
X-2106619Y424651D01*
X-2106619Y424651D02*
X-2116143Y462747D01*
X-2116143Y462747D02*
X-2116143Y510366D01*
X-2116143Y510366D02*
X-2106619Y548461D01*
X-2106619Y548461D02*
X-2097095Y567509D01*
X-2097095Y567509D02*
X-2087571Y577032D01*
X-2087571Y577032D02*
X-2068524Y586556D01*
M02*
