%TF.GenerationSoftware,KiCad,Pcbnew,9.0.6*%
%TF.CreationDate,2026-01-04T19:17:21+00:00*%
%TF.ProjectId,rp2040_pico,72703230-3430-45f7-9069-636f2e6b6963,rev?*%
%TF.SameCoordinates,Original*%
%TF.FileFunction,Other,User*%
%FSLAX45Y45*%
G04 Gerber Fmt 4.5, Leading zero omitted, Abs format (unit mm)*
G04 Created by KiCad (PCBNEW 9.0.6) date 2026-01-04 19:17:21*
%MOMM*%
%LPD*%
G01*
G04 APERTURE LIST*
%ADD10C,0.100000*%
%ADD11C,0.009990*%
%ADD12C,0.010830*%
%ADD13C,0.020680*%
%ADD14C,0.030650*%
%ADD15C,0.010430*%
%ADD16C,0.020510*%
%ADD17C,0.030860*%
%ADD18C,0.040510*%
%ADD19C,0.020530*%
%ADD20C,0.020670*%
%ADD21C,0.030760*%
%ADD22C,0.010710*%
%ADD23C,0.020780*%
%ADD24C,0.030680*%
G04 APERTURE END LIST*
D10*
X-1200000Y1625000D02*
X1200000Y1625000D01*
X1200000Y-1625000D01*
X-1200000Y-1625000D01*
X-1200000Y1625000D01*
D11*
%TO.C,GS3*%
X-1200000Y-900000D02*
X-1200000Y-900000D01*
D12*
X-1200000Y-900000D02*
X-1200000Y-900000D01*
D13*
X-1200000Y-900000D02*
X-1200000Y-900000D01*
D14*
X-1200000Y-900000D02*
X-1200000Y-900000D01*
D11*
%TO.C,GS1*%
X1200000Y75000D02*
X1200000Y75000D01*
D15*
X1200000Y75000D02*
X1200000Y75000D01*
D16*
X1200000Y75000D02*
X1200000Y75000D01*
D17*
X1200000Y75000D02*
X1200000Y75000D01*
D18*
X1200000Y75000D02*
X1200000Y75000D01*
D11*
%TO.C,GS2*%
X1200000Y925000D02*
X1200000Y925000D01*
D15*
X1200000Y925000D02*
X1200000Y925000D01*
D19*
X1200000Y925000D02*
X1200000Y925000D01*
D17*
X1200000Y925000D02*
X1200000Y925000D01*
D11*
%TO.C,GS4*%
X-1200000Y-1075000D02*
X-1200000Y-1075000D01*
D12*
X-1200000Y-1075000D02*
X-1200000Y-1075000D01*
D20*
X-1200000Y-1075000D02*
X-1200000Y-1075000D01*
D21*
X-1200000Y-1075000D02*
X-1200000Y-1075000D01*
D11*
%TO.C,GS5*%
X1200000Y225000D02*
X1200000Y225000D01*
D22*
X1200000Y225000D02*
X1200000Y225000D01*
D23*
X1200000Y225000D02*
X1200000Y225000D01*
D24*
X1200000Y225000D02*
X1200000Y225000D01*
%TD*%
M02*
