%TF.GenerationSoftware,KiCad,Pcbnew,9.0.6*%
%TF.CreationDate,2026-01-04T19:17:20+00:00*%
%TF.ProjectId,rp2040_pico,72703230-3430-45f7-9069-636f2e6b6963,rev?*%
%TF.SameCoordinates,Original*%
%TF.FileFunction,Copper,L1,Top*%
%TF.FilePolarity,Positive*%
%FSLAX45Y45*%
G04 Gerber Fmt 4.5, Leading zero omitted, Abs format (unit mm)*
G04 Created by KiCad (PCBNEW 9.0.6) date 2026-01-04 19:17:20*
%MOMM*%
%LPD*%
G01*
G04 APERTURE LIST*
G04 Aperture macros list*
%AMRoundRect*
0 Rectangle with rounded corners*
0 $1 Rounding radius*
0 $2 $3 $4 $5 $6 $7 $8 $9 X,Y pos of 4 corners*
0 Add a 4 corners polygon primitive as box body*
4,1,4,$2,$3,$4,$5,$6,$7,$8,$9,$2,$3,0*
0 Add four circle primitives for the rounded corners*
1,1,$1+$1,$2,$3*
1,1,$1+$1,$4,$5*
1,1,$1+$1,$6,$7*
1,1,$1+$1,$8,$9*
0 Add four rect primitives between the rounded corners*
20,1,$1+$1,$2,$3,$4,$5,0*
20,1,$1+$1,$4,$5,$6,$7,0*
20,1,$1+$1,$6,$7,$8,$9,0*
20,1,$1+$1,$8,$9,$2,$3,0*%
G04 Aperture macros list end*
%TA.AperFunction,SMDPad,CuDef*%
%ADD10RoundRect,0.200000X0.200000X0.275000X-0.200000X0.275000X-0.200000X-0.275000X0.200000X-0.275000X0*%
%TD*%
%TA.AperFunction,SMDPad,CuDef*%
%ADD11C,1.000000*%
%TD*%
%TA.AperFunction,SMDPad,CuDef*%
%ADD12C,0.125000*%
%TD*%
%TA.AperFunction,SMDPad,CuDef*%
%ADD13RoundRect,0.200000X-0.200000X-0.275000X0.200000X-0.275000X0.200000X0.275000X-0.200000X0.275000X0*%
%TD*%
%TA.AperFunction,SMDPad,CuDef*%
%ADD14RoundRect,0.225000X-0.225000X-0.250000X0.225000X-0.250000X0.225000X0.250000X-0.225000X0.250000X0*%
%TD*%
%TA.AperFunction,SMDPad,CuDef*%
%ADD15RoundRect,0.050000X-0.387500X-0.050000X0.387500X-0.050000X0.387500X0.050000X-0.387500X0.050000X0*%
%TD*%
%TA.AperFunction,SMDPad,CuDef*%
%ADD16RoundRect,0.050000X-0.050000X-0.387500X0.050000X-0.387500X0.050000X0.387500X-0.050000X0.387500X0*%
%TD*%
%TA.AperFunction,HeatsinkPad*%
%ADD17R,3.200000X3.200000*%
%TD*%
%TA.AperFunction,SMDPad,CuDef*%
%ADD18RoundRect,0.150000X-0.150000X0.512500X-0.150000X-0.512500X0.150000X-0.512500X0.150000X0.512500X0*%
%TD*%
%TA.AperFunction,SMDPad,CuDef*%
%ADD19RoundRect,0.225000X0.250000X-0.225000X0.250000X0.225000X-0.250000X0.225000X-0.250000X-0.225000X0*%
%TD*%
%TA.AperFunction,SMDPad,CuDef*%
%ADD20RoundRect,0.250000X-0.350000X0.450000X-0.350000X-0.450000X0.350000X-0.450000X0.350000X0.450000X0*%
%TD*%
%TA.AperFunction,SMDPad,CuDef*%
%ADD21RoundRect,0.225000X0.225000X0.250000X-0.225000X0.250000X-0.225000X-0.250000X0.225000X-0.250000X0*%
%TD*%
%TA.AperFunction,SMDPad,CuDef*%
%ADD22RoundRect,0.162500X0.162500X-0.650000X0.162500X0.650000X-0.162500X0.650000X-0.162500X-0.650000X0*%
%TD*%
%TA.AperFunction,SMDPad,CuDef*%
%ADD23RoundRect,0.200000X-0.275000X0.200000X-0.275000X-0.200000X0.275000X-0.200000X0.275000X0.200000X0*%
%TD*%
%TA.AperFunction,SMDPad,CuDef*%
%ADD24RoundRect,0.250000X0.275000X0.750000X-0.275000X0.750000X-0.275000X-0.750000X0.275000X-0.750000X0*%
%TD*%
%TA.AperFunction,SMDPad,CuDef*%
%ADD25RoundRect,0.225000X-0.250000X0.225000X-0.250000X-0.225000X0.250000X-0.225000X0.250000X0.225000X0*%
%TD*%
%TA.AperFunction,SMDPad,CuDef*%
%ADD26RoundRect,0.200000X0.275000X-0.200000X0.275000X0.200000X-0.275000X0.200000X-0.275000X-0.200000X0*%
%TD*%
%TA.AperFunction,SMDPad,CuDef*%
%ADD27RoundRect,0.150000X0.150000X0.425000X-0.150000X0.425000X-0.150000X-0.425000X0.150000X-0.425000X0*%
%TD*%
%TA.AperFunction,SMDPad,CuDef*%
%ADD28RoundRect,0.075000X0.075000X0.500000X-0.075000X0.500000X-0.075000X-0.500000X0.075000X-0.500000X0*%
%TD*%
%TA.AperFunction,HeatsinkPad*%
%ADD29O,1.000000X2.100000*%
%TD*%
%TA.AperFunction,HeatsinkPad*%
%ADD30O,1.000000X1.800000*%
%TD*%
%TA.AperFunction,SMDPad,CuDef*%
%ADD31RoundRect,0.243750X-0.243750X-0.456250X0.243750X-0.456250X0.243750X0.456250X-0.243750X0.456250X0*%
%TD*%
%TA.AperFunction,SMDPad,CuDef*%
%ADD32RoundRect,0.243750X0.243750X0.456250X-0.243750X0.456250X-0.243750X-0.456250X0.243750X-0.456250X0*%
%TD*%
%TA.AperFunction,SMDPad,CuDef*%
%ADD33RoundRect,0.225000X0.335876X0.017678X0.017678X0.335876X-0.335876X-0.017678X-0.017678X-0.335876X0*%
%TD*%
%TA.AperFunction,SMDPad,CuDef*%
%ADD34RoundRect,0.250000X-0.275000X-0.750000X0.275000X-0.750000X0.275000X0.750000X-0.275000X0.750000X0*%
%TD*%
%TA.AperFunction,SMDPad,CuDef*%
%ADD35RoundRect,0.150000X-0.512500X-0.150000X0.512500X-0.150000X0.512500X0.150000X-0.512500X0.150000X0*%
%TD*%
%TA.AperFunction,ComponentPad*%
%ADD36RoundRect,0.172720X-0.259080X0.259080X-0.259080X-0.259080X0.259080X-0.259080X0.259080X0.259080X0*%
%TD*%
%TA.AperFunction,ComponentPad*%
%ADD37C,0.863600*%
%TD*%
%TA.AperFunction,ViaPad*%
%ADD38C,0.600000*%
%TD*%
%TA.AperFunction,Conductor*%
%ADD39C,0.300000*%
%TD*%
%TA.AperFunction,Conductor*%
%ADD40C,0.200000*%
%TD*%
%TA.AperFunction,Conductor*%
%ADD41C,0.400000*%
%TD*%
G04 APERTURE END LIST*
D10*
%TO.P,R5,1*%
%TO.N,/CC2*%
X-292500Y725000D03*
%TO.P,R5,2*%
%TO.N,GND*%
X-457500Y725000D03*
%TD*%
D11*
%TO.P,TP1,1,1*%
%TO.N,+5V*%
X1025000Y925000D03*
%TD*%
D12*
%TO.P,GS3,1,SDA*%
%TO.N,/GPIO0*%
X-1200000Y-900000D03*
%TD*%
%TO.P,GS1,1,+3V3*%
%TO.N,+3V3*%
X1200000Y75000D03*
%TD*%
D11*
%TO.P,TP3,1,1*%
%TO.N,/GPIO1*%
X-1075074Y-1074840D03*
%TD*%
D13*
%TO.P,R4,1*%
%TO.N,/CC1*%
X292500Y725000D03*
%TO.P,R4,2*%
%TO.N,GND*%
X457500Y725000D03*
%TD*%
D14*
%TO.P,C7,1*%
%TO.N,+3V3*%
X495189Y-747461D03*
%TO.P,C7,2*%
%TO.N,GND*%
X650189Y-747461D03*
%TD*%
D15*
%TO.P,U1,1,IOVDD*%
%TO.N,+3V3*%
X-346061Y-387461D03*
%TO.P,U1,2,GPIO0*%
%TO.N,/GPIO0*%
X-346061Y-427461D03*
%TO.P,U1,3,GPIO1*%
%TO.N,/GPIO1*%
X-346061Y-467461D03*
%TO.P,U1,4,GPIO2*%
%TO.N,unconnected-(U1-GPIO2-Pad4)*%
X-346061Y-507461D03*
%TO.P,U1,5,GPIO3*%
%TO.N,unconnected-(U1-GPIO3-Pad5)*%
X-346061Y-547461D03*
%TO.P,U1,6,GPIO4*%
%TO.N,unconnected-(U1-GPIO4-Pad6)*%
X-346061Y-587461D03*
%TO.P,U1,7,GPIO5*%
%TO.N,unconnected-(U1-GPIO5-Pad7)*%
X-346061Y-627461D03*
%TO.P,U1,8,GPIO6*%
%TO.N,unconnected-(U1-GPIO6-Pad8)*%
X-346061Y-667461D03*
%TO.P,U1,9,GPIO7*%
%TO.N,unconnected-(U1-GPIO7-Pad9)*%
X-346061Y-707461D03*
%TO.P,U1,10,IOVDD*%
%TO.N,+3V3*%
X-346061Y-747461D03*
%TO.P,U1,11,GPIO8*%
%TO.N,unconnected-(U1-GPIO8-Pad11)*%
X-346061Y-787461D03*
%TO.P,U1,12,GPIO9*%
%TO.N,unconnected-(U1-GPIO9-Pad12)*%
X-346061Y-827461D03*
%TO.P,U1,13,GPIO10*%
%TO.N,unconnected-(U1-GPIO10-Pad13)*%
X-346061Y-867461D03*
%TO.P,U1,14,GPIO11*%
%TO.N,unconnected-(U1-GPIO11-Pad14)*%
X-346061Y-907461D03*
D16*
%TO.P,U1,15,GPIO12*%
%TO.N,unconnected-(U1-GPIO12-Pad15)*%
X-262311Y-991211D03*
%TO.P,U1,16,GPIO13*%
%TO.N,unconnected-(U1-GPIO13-Pad16)*%
X-222311Y-991211D03*
%TO.P,U1,17,GPIO14*%
%TO.N,unconnected-(U1-GPIO14-Pad17)*%
X-182311Y-991211D03*
%TO.P,U1,18,GPIO15*%
%TO.N,unconnected-(U1-GPIO15-Pad18)*%
X-142311Y-991211D03*
%TO.P,U1,19,TESTEN*%
%TO.N,GND*%
X-102311Y-991211D03*
%TO.P,U1,20,XIN*%
%TO.N,/XIN*%
X-62311Y-991211D03*
%TO.P,U1,21,XOUT*%
%TO.N,/XOUT*%
X-22311Y-991211D03*
%TO.P,U1,22,IOVDD*%
%TO.N,+3V3*%
X17689Y-991211D03*
%TO.P,U1,23,DVDD*%
%TO.N,+1V1*%
X57689Y-991211D03*
%TO.P,U1,24,SWCLK*%
%TO.N,/SWCLK*%
X97689Y-991211D03*
%TO.P,U1,25,SWD*%
%TO.N,/SWDIO*%
X137689Y-991211D03*
%TO.P,U1,26,RUN*%
%TO.N,/~{RESET}*%
X177689Y-991211D03*
%TO.P,U1,27,GPIO16*%
%TO.N,unconnected-(U1-GPIO16-Pad27)*%
X217689Y-991211D03*
%TO.P,U1,28,GPIO17*%
%TO.N,unconnected-(U1-GPIO17-Pad28)*%
X257689Y-991211D03*
D15*
%TO.P,U1,29,GPIO18*%
%TO.N,unconnected-(U1-GPIO18-Pad29)*%
X341439Y-907461D03*
%TO.P,U1,30,GPIO19*%
%TO.N,unconnected-(U1-GPIO19-Pad30)*%
X341439Y-867461D03*
%TO.P,U1,31,GPIO20*%
%TO.N,unconnected-(U1-GPIO20-Pad31)*%
X341439Y-827461D03*
%TO.P,U1,32,GPIO21*%
%TO.N,unconnected-(U1-GPIO21-Pad32)*%
X341439Y-787461D03*
%TO.P,U1,33,IOVDD*%
%TO.N,+3V3*%
X341439Y-747461D03*
%TO.P,U1,34,GPIO22*%
%TO.N,unconnected-(U1-GPIO22-Pad34)*%
X341439Y-707461D03*
%TO.P,U1,35,GPIO23*%
%TO.N,unconnected-(U1-GPIO23-Pad35)*%
X341439Y-667461D03*
%TO.P,U1,36,GPIO24*%
%TO.N,unconnected-(U1-GPIO24-Pad36)*%
X341439Y-627461D03*
%TO.P,U1,37,GPIO25*%
%TO.N,/GPIO25*%
X341439Y-587461D03*
%TO.P,U1,38,GPIO26_ADC0*%
%TO.N,unconnected-(U1-GPIO26_ADC0-Pad38)*%
X341439Y-547461D03*
%TO.P,U1,39,GPIO27_ADC1*%
%TO.N,unconnected-(U1-GPIO27_ADC1-Pad39)*%
X341439Y-507461D03*
%TO.P,U1,40,GPIO28_ADC2*%
%TO.N,unconnected-(U1-GPIO28_ADC2-Pad40)*%
X341439Y-467461D03*
%TO.P,U1,41,GPIO29_ADC3*%
%TO.N,unconnected-(U1-GPIO29_ADC3-Pad41)*%
X341439Y-427461D03*
%TO.P,U1,42,IOVDD*%
%TO.N,+3V3*%
X341439Y-387461D03*
D16*
%TO.P,U1,43,ADC_AVDD*%
X257689Y-303711D03*
%TO.P,U1,44,VREG_IN*%
X217689Y-303711D03*
%TO.P,U1,45,VREG_VOUT*%
%TO.N,+1V1*%
X177689Y-303711D03*
%TO.P,U1,46,USB_DM*%
%TO.N,Net-(U1-USB_DM)*%
X137689Y-303711D03*
%TO.P,U1,47,USB_DP*%
%TO.N,Net-(U1-USB_DP)*%
X97689Y-303711D03*
%TO.P,U1,48,USB_VDD*%
%TO.N,+3V3*%
X57689Y-303711D03*
%TO.P,U1,49,IOVDD*%
X17689Y-303711D03*
%TO.P,U1,50,DVDD*%
%TO.N,+1V1*%
X-22311Y-303711D03*
%TO.P,U1,51,QSPI_SD3*%
%TO.N,/MCU_QSPI_SD3*%
X-62311Y-303711D03*
%TO.P,U1,52,QSPI_SCLK*%
%TO.N,/MCU_QSPI_SCLK*%
X-102311Y-303711D03*
%TO.P,U1,53,QSPI_SD0*%
%TO.N,/MCU_QSPI_SD0*%
X-142311Y-303711D03*
%TO.P,U1,54,QSPI_SD2*%
%TO.N,/MCU_QSPI_SD2*%
X-182311Y-303711D03*
%TO.P,U1,55,QSPI_SD1*%
%TO.N,/MCU_QSPI_SD1*%
X-222311Y-303711D03*
%TO.P,U1,56,QSPI_SS*%
%TO.N,/MCU_QSPI_SS*%
X-262311Y-303711D03*
D17*
%TO.P,U1,57,GND*%
%TO.N,GND*%
X-2311Y-647461D03*
%TD*%
D18*
%TO.P,U4,1,I/O1*%
%TO.N,/USB_D_N*%
X95000Y738750D03*
%TO.P,U4,2,GND*%
%TO.N,GND*%
X0Y738750D03*
%TO.P,U4,3,I/O2*%
%TO.N,/USB_D_P*%
X-95000Y738750D03*
%TO.P,U4,4,I/O2*%
%TO.N,/MCU_USB_D_P*%
X-95000Y511250D03*
%TO.P,U4,5,VBUS*%
%TO.N,+5V*%
X0Y511250D03*
%TO.P,U4,6,I/O1*%
%TO.N,/MCU_USB_D_N*%
X95000Y511250D03*
%TD*%
D19*
%TO.P,C5,1*%
%TO.N,+3V3*%
X372689Y-149961D03*
%TO.P,C5,2*%
%TO.N,GND*%
X372689Y5039D03*
%TD*%
D20*
%TO.P,X1,1,1*%
%TO.N,/XIN*%
X-697500Y-1277500D03*
%TO.P,X1,2,2*%
%TO.N,GND*%
X-697500Y-1497500D03*
%TO.P,X1,3,3*%
%TO.N,Net-(C12-Pad1)*%
X-527500Y-1497500D03*
%TO.P,X1,4,4*%
%TO.N,GND*%
X-527500Y-1277500D03*
%TD*%
D21*
%TO.P,C10,1*%
%TO.N,+3V3*%
X-497500Y-850000D03*
%TO.P,C10,2*%
%TO.N,GND*%
X-652500Y-850000D03*
%TD*%
D22*
%TO.P,U3,1,~{CS}*%
%TO.N,/MCU_QSPI_SS*%
X-1042811Y-506211D03*
%TO.P,U3,2,DO/IO_{1}*%
%TO.N,/MCU_QSPI_SD1*%
X-915811Y-506211D03*
%TO.P,U3,3,~{WP}/IO_{2}*%
%TO.N,/MCU_QSPI_SD2*%
X-788811Y-506211D03*
%TO.P,U3,4,GND*%
%TO.N,GND*%
X-661811Y-506211D03*
%TO.P,U3,5,DI/IO_{0}*%
%TO.N,/MCU_QSPI_SD0*%
X-661811Y211289D03*
%TO.P,U3,6,CLK*%
%TO.N,/MCU_QSPI_SCLK*%
X-788811Y211289D03*
%TO.P,U3,7,~{HOLD}/~{RESET}/IO_{3}*%
%TO.N,/MCU_QSPI_SD3*%
X-915811Y211289D03*
%TO.P,U3,8,VCC*%
%TO.N,+3V3*%
X-1042811Y211289D03*
%TD*%
D23*
%TO.P,R2,1*%
%TO.N,/MCU_USB_D_N*%
X75000Y332500D03*
%TO.P,R2,2*%
%TO.N,Net-(U1-USB_DM)*%
X75000Y167500D03*
%TD*%
D24*
%TO.P,SW2,1,1*%
%TO.N,/~{RESET}*%
X1072500Y1225000D03*
%TO.P,SW2,2,2*%
%TO.N,GND*%
X627500Y1225000D03*
%TD*%
D12*
%TO.P,GS2,1,+5V*%
%TO.N,+5V*%
X1200000Y925000D03*
%TD*%
D10*
%TO.P,R7,1*%
%TO.N,+3V3*%
X457500Y575000D03*
%TO.P,R7,2*%
%TO.N,Net-(D1-Pad1)*%
X292500Y575000D03*
%TD*%
D25*
%TO.P,C11,1*%
%TO.N,/XIN*%
X-864811Y-1232461D03*
%TO.P,C11,2*%
%TO.N,GND*%
X-864811Y-1387461D03*
%TD*%
D23*
%TO.P,R1,1*%
%TO.N,/MCU_USB_D_P*%
X-75000Y332500D03*
%TO.P,R1,2*%
%TO.N,Net-(U1-USB_DP)*%
X-75000Y167500D03*
%TD*%
D12*
%TO.P,GS4,1,SCL*%
%TO.N,/GPIO1*%
X-1200000Y-1075000D03*
%TD*%
D19*
%TO.P,C3,1*%
%TO.N,+1V1*%
X222689Y-149961D03*
%TO.P,C3,2*%
%TO.N,GND*%
X222689Y5039D03*
%TD*%
%TO.P,C12,1*%
%TO.N,Net-(C12-Pad1)*%
X-364811Y-1387461D03*
%TO.P,C12,2*%
%TO.N,GND*%
X-364811Y-1232461D03*
%TD*%
D26*
%TO.P,R6,1*%
%TO.N,Net-(C12-Pad1)*%
X-214811Y-1392461D03*
%TO.P,R6,2*%
%TO.N,/XOUT*%
X-214811Y-1227461D03*
%TD*%
D14*
%TO.P,C8,1*%
%TO.N,+3V3*%
X495189Y-397461D03*
%TO.P,C8,2*%
%TO.N,GND*%
X650189Y-397461D03*
%TD*%
D27*
%TO.P,J1,A1,GND*%
%TO.N,GND*%
X320000Y957000D03*
%TO.P,J1,A4,VBUS*%
%TO.N,+5V*%
X240000Y957000D03*
D28*
%TO.P,J1,A5,CC1*%
%TO.N,/CC1*%
X125000Y957000D03*
%TO.P,J1,A6,D+*%
%TO.N,/USB_D_P*%
X25000Y957000D03*
%TO.P,J1,A7,D-*%
%TO.N,/USB_D_N*%
X-25000Y957000D03*
%TO.P,J1,A8,SBU1*%
%TO.N,unconnected-(J1-SBU1-PadA8)*%
X-125000Y957000D03*
D27*
%TO.P,J1,A9,VBUS*%
%TO.N,+5V*%
X-240000Y957000D03*
%TO.P,J1,A12,GND*%
%TO.N,GND*%
X-320000Y957000D03*
%TO.P,J1,B1,GND*%
X-320000Y957000D03*
%TO.P,J1,B4,VBUS*%
%TO.N,+5V*%
X-240000Y957000D03*
D28*
%TO.P,J1,B5,CC2*%
%TO.N,/CC2*%
X-175000Y957000D03*
%TO.P,J1,B6,D+*%
%TO.N,/USB_D_P*%
X-75000Y957000D03*
%TO.P,J1,B7,D-*%
%TO.N,/USB_D_N*%
X75000Y957000D03*
%TO.P,J1,B8,SBU2*%
%TO.N,unconnected-(J1-SBU2-PadB8)*%
X175000Y957000D03*
D27*
%TO.P,J1,B9,VBUS*%
%TO.N,+5V*%
X240000Y957000D03*
%TO.P,J1,B12,GND*%
%TO.N,GND*%
X320000Y957000D03*
D29*
%TO.P,J1,S1,SHIELD*%
X432000Y1014500D03*
D30*
X432000Y1432500D03*
D29*
X-432000Y1014500D03*
D30*
X-432000Y1432500D03*
%TD*%
D19*
%TO.P,C13,1*%
%TO.N,+3V3*%
X-1025000Y397500D03*
%TO.P,C13,2*%
%TO.N,GND*%
X-1025000Y552500D03*
%TD*%
D31*
%TO.P,D1,1*%
%TO.N,Net-(D1-Pad1)*%
X281250Y400000D03*
%TO.P,D1,2*%
%TO.N,GND*%
X468750Y400000D03*
%TD*%
D12*
%TO.P,GS5,1,GND*%
%TO.N,GND*%
X1200000Y225000D03*
%TD*%
D32*
%TO.P,D2,1*%
%TO.N,Net-(D2-Pad1)*%
X-281250Y400000D03*
%TO.P,D2,2*%
%TO.N,GND*%
X-468750Y400000D03*
%TD*%
D33*
%TO.P,C9,1*%
%TO.N,+3V3*%
X-7699Y-104801D03*
%TO.P,C9,2*%
%TO.N,GND*%
X-117301Y4801D03*
%TD*%
D14*
%TO.P,C2,1*%
%TO.N,+3V3*%
X772500Y225000D03*
%TO.P,C2,2*%
%TO.N,GND*%
X927500Y225000D03*
%TD*%
D25*
%TO.P,C6,1*%
%TO.N,+3V3*%
X-64811Y-1232461D03*
%TO.P,C6,2*%
%TO.N,GND*%
X-64811Y-1387461D03*
%TD*%
D34*
%TO.P,SW1,1,1*%
%TO.N,/~{BOOT}*%
X-1072500Y1225000D03*
%TO.P,SW1,2,2*%
%TO.N,GND*%
X-627500Y1225000D03*
%TD*%
D11*
%TO.P,TP2,1,1*%
%TO.N,/GPIO0*%
X-1075074Y-899840D03*
%TD*%
D35*
%TO.P,U2,1,GND*%
%TO.N,GND*%
X736250Y570000D03*
%TO.P,U2,2,VO*%
%TO.N,+3V3*%
X736250Y380000D03*
%TO.P,U2,3,VI*%
%TO.N,+5V*%
X963750Y475000D03*
%TD*%
D36*
%TO.P,J2,1,VCC*%
%TO.N,+3V3*%
X900000Y-1329000D03*
D37*
%TO.P,J2,2,SWDIO*%
%TO.N,/SWDIO*%
X742520Y-1329000D03*
%TO.P,J2,3,GND*%
%TO.N,GND*%
X900000Y-1202000D03*
%TO.P,J2,4,SWCLK*%
%TO.N,/SWCLK*%
X742520Y-1202000D03*
%TO.P,J2,5,~{RESET}*%
%TO.N,/~{RESET}*%
X900000Y-1075000D03*
%TD*%
D23*
%TO.P,R3,1*%
%TO.N,/~{BOOT}*%
X-1025000Y857500D03*
%TO.P,R3,2*%
%TO.N,/MCU_QSPI_SS*%
X-1025000Y692500D03*
%TD*%
D13*
%TO.P,R8,1*%
%TO.N,/GPIO25*%
X-457500Y575000D03*
%TO.P,R8,2*%
%TO.N,Net-(D2-Pad1)*%
X-292500Y575000D03*
%TD*%
D25*
%TO.P,C4,1*%
%TO.N,+1V1*%
X85189Y-1232461D03*
%TO.P,C4,2*%
%TO.N,GND*%
X85189Y-1387461D03*
%TD*%
D10*
%TO.P,R9,1*%
%TO.N,/MCU_QSPI_SS*%
X-867550Y-712219D03*
%TO.P,R9,2*%
%TO.N,+3V3*%
X-1032550Y-712219D03*
%TD*%
D21*
%TO.P,C1,1*%
%TO.N,+5V*%
X927500Y725000D03*
%TO.P,C1,2*%
%TO.N,GND*%
X772500Y725000D03*
%TD*%
D38*
%TO.N,GND*%
X480000Y5000D03*
X650000Y-275000D03*
X-100000Y-750000D03*
X840000Y326656D03*
X-575000Y725000D03*
X650000Y-625000D03*
X-650000Y-950000D03*
X0Y-650000D03*
X-450000Y-1175000D03*
X200000Y-1375000D03*
X840000Y475000D03*
X600000Y400000D03*
X-235000Y45000D03*
X-414811Y-1034961D03*
X600000Y725000D03*
X-661811Y-340000D03*
X100000Y-750000D03*
X-900000Y550000D03*
X-675000Y450000D03*
X100000Y-550000D03*
X-100000Y-550000D03*
X-50000Y625000D03*
%TO.N,+5V*%
X200000Y625000D03*
X840000Y625000D03*
%TO.N,/~{RESET}*%
X975000Y1225000D03*
%TO.N,+3V3*%
X-1137500Y-712500D03*
X375000Y-250000D03*
X-950000Y25000D03*
X17689Y-200000D03*
X-450000Y-750000D03*
X-462311Y-327461D03*
X550000Y-887500D03*
%TO.N,/GPIO25*%
X430189Y-582871D03*
X-575000Y575000D03*
%TD*%
D39*
%TO.N,GND*%
X85189Y-1387461D02*
X187539Y-1387461D01*
D40*
X-102311Y-991211D02*
X-102311Y-1047461D01*
X650189Y-275189D02*
X650000Y-275000D01*
X-392539Y-1232461D02*
X-450000Y-1175000D01*
X-379811Y-1069961D02*
X-414811Y-1034961D01*
D39*
X736250Y570000D02*
X831250Y475000D01*
X-527500Y-1277500D02*
X-527500Y-1327500D01*
X925742Y326656D02*
X840000Y326656D01*
D40*
X650189Y-747461D02*
X650189Y-625189D01*
D39*
X0Y738750D02*
X0Y675000D01*
X-527500Y-1327500D02*
X-697500Y-1497500D01*
D40*
X-1025000Y552500D02*
X-902500Y552500D01*
X1200000Y225000D02*
X927500Y225000D01*
X-652500Y-947500D02*
X-650000Y-950000D01*
X-661811Y-506211D02*
X-661811Y-340000D01*
D39*
X-320000Y957000D02*
X-374500Y957000D01*
D40*
X-364811Y-1232461D02*
X-392539Y-1232461D01*
X-902500Y552500D02*
X-900000Y550000D01*
D39*
X432000Y1432500D02*
X432000Y1420500D01*
D40*
X-102311Y-1047461D02*
X-124811Y-1069961D01*
D39*
X-627500Y1225000D02*
X-627500Y1237000D01*
X-64811Y-1387461D02*
X85189Y-1387461D01*
X-374500Y957000D02*
X-432000Y1014500D01*
X374500Y957000D02*
X432000Y1014500D01*
D40*
X650189Y-397461D02*
X650189Y-275189D01*
D41*
X772500Y725000D02*
X736250Y688750D01*
D40*
X-117301Y4801D02*
X-157500Y45000D01*
D39*
X432000Y1420500D02*
X627500Y1225000D01*
D40*
X-652500Y-850000D02*
X-652500Y-947500D01*
D39*
X-627500Y1237000D02*
X-432000Y1432500D01*
D40*
X-450000Y-1200000D02*
X-527500Y-1277500D01*
D39*
X927500Y225000D02*
X927500Y324899D01*
X320000Y957000D02*
X374500Y957000D01*
X187539Y-1387461D02*
X200000Y-1375000D01*
X927500Y324899D02*
X925742Y326656D01*
D40*
X-124811Y-1069961D02*
X-379811Y-1069961D01*
X-157500Y45000D02*
X-235000Y45000D01*
D39*
X-864811Y-1387461D02*
X-807539Y-1387461D01*
D41*
X736250Y688750D02*
X736250Y570000D01*
D40*
X457500Y725000D02*
X600000Y725000D01*
D39*
X831250Y475000D02*
X840000Y475000D01*
D40*
X650189Y-625189D02*
X650000Y-625000D01*
D39*
X320000Y862500D02*
X457500Y725000D01*
X320000Y957000D02*
X320000Y862500D01*
D40*
X-675000Y450000D02*
X-518750Y450000D01*
X372689Y5039D02*
X479961Y5039D01*
X479961Y5039D02*
X480000Y5000D01*
X468750Y400000D02*
X600000Y400000D01*
X-457500Y725000D02*
X-575000Y725000D01*
X652539Y-397461D02*
X650189Y-397461D01*
D39*
X222689Y5039D02*
X372689Y5039D01*
D40*
X-450000Y-1175000D02*
X-450000Y-1200000D01*
X-518750Y450000D02*
X-468750Y400000D01*
D39*
X-807539Y-1387461D02*
X-697500Y-1497500D01*
X-50000Y625000D02*
X0Y675000D01*
D40*
%TO.N,Net-(D1-Pad1)*%
X281250Y400000D02*
X281250Y563750D01*
X281250Y563750D02*
X292500Y575000D01*
%TO.N,/XIN*%
X-699811Y-1169961D02*
X-639811Y-1109961D01*
X-717311Y-1232461D02*
X-699811Y-1249961D01*
X-62311Y-1088251D02*
X-62311Y-991211D01*
X-84021Y-1109961D02*
X-62311Y-1088251D01*
X-639811Y-1109961D02*
X-84021Y-1109961D01*
X-699811Y-1249961D02*
X-699811Y-1169961D01*
X-864811Y-1232461D02*
X-717311Y-1232461D01*
%TO.N,+5V*%
X1025000Y925000D02*
X1200000Y925000D01*
D41*
X927500Y597500D02*
X963750Y561250D01*
D40*
X0Y577500D02*
X47500Y625000D01*
D39*
X489313Y1175000D02*
X739313Y925000D01*
X240000Y1014500D02*
X240000Y957000D01*
X164800Y1089700D02*
X240000Y1014500D01*
D41*
X963750Y561250D02*
X963750Y475000D01*
D40*
X0Y511250D02*
X0Y577500D01*
D41*
X927500Y625000D02*
X927500Y597500D01*
D40*
X47500Y625000D02*
X200000Y625000D01*
D39*
X927500Y725000D02*
X927500Y922500D01*
D41*
X927500Y725000D02*
X927500Y625000D01*
D39*
X250100Y1175000D02*
X489313Y1175000D01*
X-240000Y957000D02*
X-240000Y1017899D01*
X927500Y922500D02*
X925000Y925000D01*
X925000Y925000D02*
X1025000Y925000D01*
X-168199Y1089700D02*
X164800Y1089700D01*
D40*
X927500Y625000D02*
X840000Y625000D01*
D39*
X164800Y1089700D02*
X250100Y1175000D01*
X-240000Y1017899D02*
X-168199Y1089700D01*
X739313Y925000D02*
X925000Y925000D01*
D40*
%TO.N,/USB_D_P*%
X-48282Y869400D02*
X-75000Y896118D01*
X-75000Y957000D02*
X-75000Y758750D01*
X25000Y896118D02*
X-1718Y869400D01*
X-75000Y758750D02*
X-95000Y738750D01*
X-75000Y896118D02*
X-75000Y957000D01*
X-1718Y869400D02*
X-48282Y869400D01*
X25000Y957000D02*
X25000Y896118D01*
%TO.N,/CC2*%
X-175000Y842500D02*
X-292500Y725000D01*
X-175000Y957000D02*
X-175000Y842500D01*
%TO.N,/USB_D_N*%
X-25000Y1017882D02*
X1718Y1044600D01*
X1718Y1044600D02*
X48282Y1044600D01*
X75000Y758750D02*
X75000Y957000D01*
X95000Y738750D02*
X75000Y758750D01*
X-25000Y957000D02*
X-25000Y1017882D01*
X75000Y1017882D02*
X75000Y957000D01*
X48282Y1044600D02*
X75000Y1017882D01*
%TO.N,/CC1*%
X125000Y892500D02*
X125000Y957000D01*
X292500Y725000D02*
X125000Y892500D01*
%TO.N,Net-(C12-Pad1)*%
X-447311Y-1469961D02*
X-364811Y-1387461D01*
X-364811Y-1387461D02*
X-219811Y-1387461D01*
X-219811Y-1387461D02*
X-214811Y-1392461D01*
X-529811Y-1469961D02*
X-447311Y-1469961D01*
%TO.N,/MCU_USB_D_P*%
X-95000Y511250D02*
X-95000Y352500D01*
X-95000Y352500D02*
X-75000Y332500D01*
%TO.N,/MCU_USB_D_N*%
X95000Y511250D02*
X95000Y352500D01*
X95000Y352500D02*
X75000Y332500D01*
%TO.N,Net-(D2-Pad1)*%
X-281250Y400000D02*
X-281250Y563750D01*
X-281250Y563750D02*
X-292500Y575000D01*
%TO.N,/SWCLK*%
X97689Y-991211D02*
X97689Y-1084961D01*
X214728Y-1202000D02*
X742520Y-1202000D01*
X97689Y-1084961D02*
X214728Y-1202000D01*
%TO.N,/~{RESET}*%
X177689Y-991211D02*
X177689Y-1045892D01*
X500000Y-1075000D02*
X900000Y-1075000D01*
X1072500Y1225000D02*
X975000Y1225000D01*
X177689Y-1045892D02*
X206797Y-1075000D01*
X206797Y-1075000D02*
X500000Y-1075000D01*
%TO.N,/SWDIO*%
X137689Y-991211D02*
X137689Y-1062461D01*
X766614Y-1122461D02*
X815800Y-1171646D01*
X137689Y-1062461D02*
X197689Y-1122461D01*
X815800Y-1171646D02*
X815800Y-1255720D01*
X197689Y-1122461D02*
X766614Y-1122461D01*
X815800Y-1255720D02*
X742520Y-1329000D01*
%TO.N,Net-(U1-USB_DP)*%
X97689Y-85189D02*
X97689Y-303711D01*
X-75000Y167500D02*
X-75000Y87500D01*
X-75000Y87500D02*
X97689Y-85189D01*
%TO.N,Net-(U1-USB_DM)*%
X137689Y37311D02*
X137689Y-303711D01*
X75000Y100000D02*
X137689Y37311D01*
X75000Y167500D02*
X75000Y100000D01*
%TO.N,+3V3*%
X-402311Y-387461D02*
X-462311Y-327461D01*
D39*
X450000Y-250000D02*
X375000Y-250000D01*
D40*
X-1025000Y397500D02*
X-1025000Y229100D01*
X372689Y-188711D02*
X372689Y-149961D01*
X-346061Y-387461D02*
X-402311Y-387461D01*
X-1032550Y-712219D02*
X-1137219Y-712219D01*
X-447461Y-747461D02*
X-450000Y-750000D01*
X-346061Y-747461D02*
X-447461Y-747461D01*
D39*
X978280Y-1250720D02*
X978280Y-1042575D01*
X823205Y-887500D02*
X550000Y-887500D01*
X772500Y225000D02*
X772500Y343750D01*
X474961Y-149961D02*
X372689Y-149961D01*
X541250Y575000D02*
X457500Y575000D01*
X772500Y225000D02*
X772500Y147500D01*
X495189Y-397461D02*
X495189Y-295189D01*
D40*
X-497500Y-850000D02*
X-497500Y-797500D01*
X375000Y-152272D02*
X372689Y-149961D01*
X1200000Y75000D02*
X775000Y75000D01*
D39*
X737500Y112500D02*
X475000Y-150000D01*
D40*
X-1137219Y-712219D02*
X-1137500Y-712500D01*
X341439Y-387461D02*
X485189Y-387461D01*
X17689Y-303711D02*
X17689Y-200000D01*
X485189Y-387461D02*
X495189Y-397461D01*
X-1025000Y229100D02*
X-1042811Y211289D01*
X-950000Y25000D02*
X-1042811Y117811D01*
D39*
X736250Y380000D02*
X541250Y575000D01*
D40*
X17689Y-130189D02*
X-7699Y-104801D01*
D39*
X372689Y-247689D02*
X375000Y-250000D01*
X900000Y-1329000D02*
X978280Y-1250720D01*
D40*
X-64811Y-1228711D02*
X-64811Y-1232461D01*
D39*
X375000Y-250000D02*
X311400Y-250000D01*
X772500Y343750D02*
X736250Y380000D01*
X372689Y-149961D02*
X372689Y-247689D01*
D40*
X505189Y-387461D02*
X520189Y-372461D01*
X341439Y-747461D02*
X495189Y-747461D01*
X-497500Y-797500D02*
X-450000Y-750000D01*
D39*
X495189Y-832689D02*
X495189Y-747461D01*
X772500Y147500D02*
X737500Y112500D01*
X495189Y-747461D02*
X495189Y-397461D01*
D40*
X-1042811Y117811D02*
X-1042811Y211289D01*
D39*
X495189Y-295189D02*
X450000Y-250000D01*
D40*
X775000Y75000D02*
X737500Y112500D01*
X17689Y-1146211D02*
X17689Y-991211D01*
D39*
X311400Y-250000D02*
X257689Y-303711D01*
X550000Y-887500D02*
X495189Y-832689D01*
D40*
X17689Y-1146211D02*
X-64811Y-1228711D01*
D39*
X978280Y-1042575D02*
X823205Y-887500D01*
X475000Y-150000D02*
X474961Y-149961D01*
D40*
X17689Y-200000D02*
X17689Y-130189D01*
%TO.N,/~{BOOT}*%
X-1025000Y1025000D02*
X-1025000Y857500D01*
X-1072500Y1225000D02*
X-1072500Y1072500D01*
X-1072500Y1072500D02*
X-1025000Y1025000D01*
%TO.N,/MCU_QSPI_SS*%
X-602311Y-672461D02*
X-527311Y-597461D01*
X-527311Y-597461D02*
X-527311Y-307608D01*
X-768788Y-712219D02*
X-729029Y-672461D01*
X-867550Y-712219D02*
X-768788Y-712219D01*
X-867550Y-712219D02*
X-1042811Y-536958D01*
X-1125000Y650000D02*
X-1082500Y692500D01*
X-527311Y-307608D02*
X-487164Y-267461D01*
X-1125000Y-424022D02*
X-1125000Y650000D01*
X-487164Y-267461D02*
X-298561Y-267461D01*
X-1042811Y-536958D02*
X-1042811Y-506211D01*
X-1042811Y-506211D02*
X-1125000Y-424022D01*
X-1082500Y692500D02*
X-1025000Y692500D01*
X-729029Y-672461D02*
X-602311Y-672461D01*
X-298561Y-267461D02*
X-262311Y-303711D01*
%TO.N,/XOUT*%
X-67411Y-1150061D02*
X-192411Y-1150061D01*
X-22311Y-1104961D02*
X-67411Y-1150061D01*
X-22311Y-991211D02*
X-22311Y-1104961D01*
X-214811Y-1172461D02*
X-214811Y-1227461D01*
X-192411Y-1150061D02*
X-214811Y-1172461D01*
%TO.N,/MCU_QSPI_SD0*%
X-661811Y62039D02*
X-661811Y211289D01*
X-477311Y-122461D02*
X-661811Y62039D01*
X-142311Y-202167D02*
X-222017Y-122461D01*
X-222017Y-122461D02*
X-477311Y-122461D01*
X-142311Y-303711D02*
X-142311Y-202167D01*
%TO.N,/GPIO25*%
X-575000Y575000D02*
X-457500Y575000D01*
X341439Y-587461D02*
X425599Y-587461D01*
X425599Y-587461D02*
X430189Y-582871D01*
%TO.N,/GPIO1*%
X-999851Y-1074840D02*
X-1075074Y-1074840D01*
X-427311Y-627461D02*
X-572250Y-772400D01*
X-346061Y-467461D02*
X-422311Y-467461D01*
X-1200000Y-1075000D02*
X-1075234Y-1075000D01*
X-422311Y-467461D02*
X-427311Y-472461D01*
X-572250Y-772400D02*
X-697411Y-772400D01*
X-697411Y-772400D02*
X-999851Y-1074840D01*
X-1075234Y-1075000D02*
X-1075074Y-1074840D01*
X-427311Y-472461D02*
X-427311Y-627461D01*
%TO.N,+1V1*%
X57689Y-1125892D02*
X85189Y-1153392D01*
X85189Y-1153392D02*
X85189Y-1232461D01*
X57689Y-1028711D02*
X57689Y-1125892D01*
X177689Y-303711D02*
X177689Y-194961D01*
X177689Y-194961D02*
X222689Y-149961D01*
%TO.N,/MCU_QSPI_SD2*%
X-228585Y-172461D02*
X-677311Y-172461D01*
X-677311Y-172461D02*
X-788811Y-283961D01*
X-182311Y-303711D02*
X-182311Y-218735D01*
X-182311Y-218735D02*
X-228585Y-172461D01*
X-788811Y-283961D02*
X-788811Y-506211D01*
%TO.N,/MCU_QSPI_SCLK*%
X-215448Y-72461D02*
X-452311Y-72461D01*
X-622311Y322539D02*
X-775561Y322539D01*
X-102311Y-303711D02*
X-102311Y-185598D01*
X-102311Y-185598D02*
X-215448Y-72461D01*
X-452311Y-72461D02*
X-587311Y62539D01*
X-587311Y62539D02*
X-587311Y287539D01*
X-775561Y322539D02*
X-788811Y309289D01*
X-587311Y287539D02*
X-622311Y322539D01*
X-788811Y309289D02*
X-788811Y211289D01*
%TO.N,/MCU_QSPI_SD3*%
X-62311Y-303711D02*
X-62311Y-169030D01*
X-208880Y-22461D02*
X-427311Y-22461D01*
X-530311Y80539D02*
X-530311Y310539D01*
X-915811Y319039D02*
X-915811Y211289D01*
X-530311Y310539D02*
X-597311Y377539D01*
X-597311Y377539D02*
X-857311Y377539D01*
X-857311Y377539D02*
X-915811Y319039D01*
X-427311Y-22461D02*
X-530311Y80539D01*
X-62311Y-169030D02*
X-208880Y-22461D01*
%TO.N,/MCU_QSPI_SD1*%
X-884811Y-627461D02*
X-915811Y-596461D01*
X-222311Y-303711D02*
X-222311Y-248029D01*
X-632311Y-627461D02*
X-884811Y-627461D01*
X-517311Y-222461D02*
X-577311Y-282461D01*
X-915811Y-596461D02*
X-915811Y-506211D01*
X-577311Y-282461D02*
X-577311Y-572461D01*
X-577311Y-572461D02*
X-632311Y-627461D01*
X-222311Y-248029D02*
X-247880Y-222461D01*
X-247880Y-222461D02*
X-517311Y-222461D01*
%TO.N,/GPIO0*%
X-599750Y-732400D02*
X-713980Y-732400D01*
X-881419Y-899840D02*
X-1075074Y-899840D01*
X-346061Y-427461D02*
X-438880Y-427461D01*
X-477311Y-609961D02*
X-599750Y-732400D01*
X-1075234Y-900000D02*
X-1075074Y-899840D01*
X-477311Y-465892D02*
X-477311Y-609961D01*
X-1200000Y-900000D02*
X-1075234Y-900000D01*
X-713980Y-732400D02*
X-881419Y-899840D01*
X-438880Y-427461D02*
X-477311Y-465892D01*
%TD*%
%TA.AperFunction,Conductor*%
%TO.N,+3V3*%
G36*
X-269925Y-367496D02*
G01*
X-269779Y-367511D01*
X-269779Y-367511D01*
X-254843Y-367511D01*
X-254697Y-367496D01*
X-253972Y-367461D01*
X-230650Y-367461D01*
X-229925Y-367496D01*
X-229779Y-367511D01*
X-229778Y-367511D01*
X-214843Y-367511D01*
X-214697Y-367496D01*
X-213972Y-367461D01*
X-190650Y-367461D01*
X-189925Y-367496D01*
X-189779Y-367511D01*
X-189778Y-367511D01*
X-174843Y-367511D01*
X-174697Y-367496D01*
X-173972Y-367461D01*
X-150650Y-367461D01*
X-149925Y-367496D01*
X-149779Y-367511D01*
X-149779Y-367511D01*
X-134843Y-367511D01*
X-134697Y-367496D01*
X-133972Y-367461D01*
X-110650Y-367461D01*
X-109925Y-367496D01*
X-109779Y-367511D01*
X-109778Y-367511D01*
X-94843Y-367511D01*
X-94697Y-367496D01*
X-93972Y-367461D01*
X-70650Y-367461D01*
X-70615Y-367461D01*
X-70015Y-367464D01*
X-69779Y-367511D01*
X-60246Y-367511D01*
X-60225Y-367511D01*
X-57637Y-368598D01*
X-55028Y-369678D01*
X-55021Y-369696D01*
X-55003Y-369704D01*
X-53940Y-372305D01*
X-52861Y-374911D01*
X-52861Y-460011D01*
X-55028Y-465243D01*
X-60261Y-467411D01*
X-164286Y-467411D01*
X-167210Y-467992D01*
X-170134Y-468574D01*
X-176766Y-473006D01*
X-176766Y-473006D01*
X-181198Y-479638D01*
X-182361Y-485486D01*
X-182361Y-809435D01*
X-181198Y-815284D01*
X-178633Y-819122D01*
X-176766Y-821916D01*
X-172355Y-824864D01*
X-170134Y-826347D01*
X-170134Y-826347D01*
X-170134Y-826348D01*
X-164286Y-827511D01*
X19739Y-827511D01*
X24971Y-829678D01*
X27139Y-834911D01*
X27139Y-949122D01*
X27164Y-950130D01*
X27164Y-950132D01*
X27180Y-950462D01*
X27136Y-950586D01*
X27189Y-950825D01*
X27189Y-1027561D01*
X25021Y-1032793D01*
X19789Y-1034961D01*
X15139Y-1034961D01*
X9906Y-1032793D01*
X7739Y-1027561D01*
X7739Y-949993D01*
X7724Y-949847D01*
X7689Y-949122D01*
X7689Y-927461D01*
X-13972Y-927461D01*
X-14697Y-927425D01*
X-14843Y-927411D01*
X-14844Y-927411D01*
X-29778Y-927411D01*
X-29779Y-927411D01*
X-29925Y-927425D01*
X-30650Y-927461D01*
X-53972Y-927461D01*
X-54697Y-927425D01*
X-54843Y-927411D01*
X-54844Y-927411D01*
X-69779Y-927411D01*
X-69779Y-927411D01*
X-69925Y-927425D01*
X-70650Y-927461D01*
X-93972Y-927461D01*
X-94697Y-927425D01*
X-94843Y-927411D01*
X-94844Y-927411D01*
X-109778Y-927411D01*
X-109779Y-927411D01*
X-109925Y-927425D01*
X-110650Y-927461D01*
X-133972Y-927461D01*
X-134697Y-927425D01*
X-134843Y-927411D01*
X-134844Y-927411D01*
X-149779Y-927411D01*
X-149779Y-927411D01*
X-149925Y-927425D01*
X-150650Y-927461D01*
X-173972Y-927461D01*
X-174697Y-927425D01*
X-174843Y-927411D01*
X-174844Y-927411D01*
X-189778Y-927411D01*
X-189779Y-927411D01*
X-189925Y-927425D01*
X-190650Y-927461D01*
X-213972Y-927461D01*
X-214697Y-927425D01*
X-214843Y-927411D01*
X-214844Y-927411D01*
X-229778Y-927411D01*
X-229779Y-927411D01*
X-229925Y-927425D01*
X-230650Y-927461D01*
X-253972Y-927461D01*
X-254697Y-927425D01*
X-254843Y-927411D01*
X-254844Y-927411D01*
X-269779Y-927411D01*
X-269779Y-927411D01*
X-269925Y-927425D01*
X-270650Y-927461D01*
X-274911Y-927461D01*
X-280144Y-925293D01*
X-282311Y-920061D01*
X-282311Y-915799D01*
X-282275Y-915074D01*
X-282261Y-914929D01*
X-282261Y-899993D01*
X-282276Y-899847D01*
X-282311Y-899122D01*
X-282311Y-875799D01*
X-282275Y-875074D01*
X-282261Y-874929D01*
X-282261Y-859993D01*
X-282276Y-859847D01*
X-282311Y-859122D01*
X-282311Y-835799D01*
X-282275Y-835074D01*
X-282261Y-834929D01*
X-282261Y-819993D01*
X-282276Y-819847D01*
X-282311Y-819122D01*
X-282311Y-795799D01*
X-282275Y-795074D01*
X-282261Y-794929D01*
X-282261Y-779993D01*
X-282276Y-779847D01*
X-282311Y-779122D01*
X-282311Y-757461D01*
X-303972Y-757461D01*
X-304697Y-757425D01*
X-304843Y-757411D01*
X-304844Y-757411D01*
X-382411Y-757411D01*
X-387644Y-755243D01*
X-389811Y-750011D01*
X-389811Y-744911D01*
X-387644Y-739678D01*
X-382411Y-737511D01*
X-304843Y-737511D01*
X-304697Y-737496D01*
X-303972Y-737461D01*
X-282311Y-737461D01*
X-282311Y-715799D01*
X-282275Y-715074D01*
X-282261Y-714929D01*
X-282261Y-699993D01*
X-282276Y-699847D01*
X-282311Y-699122D01*
X-282311Y-675799D01*
X-282275Y-675074D01*
X-282261Y-674929D01*
X-282261Y-659993D01*
X-282276Y-659847D01*
X-282311Y-659122D01*
X-282311Y-635799D01*
X-282275Y-635074D01*
X-282261Y-634929D01*
X-282261Y-619993D01*
X-282276Y-619847D01*
X-282311Y-619122D01*
X-282311Y-595799D01*
X-282275Y-595074D01*
X-282261Y-594929D01*
X-282261Y-579993D01*
X-282276Y-579847D01*
X-282311Y-579122D01*
X-282311Y-555799D01*
X-282275Y-555074D01*
X-282261Y-554929D01*
X-282261Y-539993D01*
X-282276Y-539847D01*
X-282311Y-539122D01*
X-282311Y-515799D01*
X-282275Y-515074D01*
X-282261Y-514929D01*
X-282261Y-499993D01*
X-282276Y-499847D01*
X-282311Y-499122D01*
X-282311Y-475799D01*
X-282275Y-475074D01*
X-282261Y-474929D01*
X-282261Y-459993D01*
X-282276Y-459847D01*
X-282311Y-459122D01*
X-282311Y-435799D01*
X-282275Y-435074D01*
X-282261Y-434929D01*
X-282261Y-419993D01*
X-282276Y-419847D01*
X-282311Y-419122D01*
X-282311Y-397461D01*
X-303972Y-397461D01*
X-304697Y-397425D01*
X-304843Y-397411D01*
X-304844Y-397411D01*
X-342105Y-397411D01*
X-382411Y-397411D01*
X-387644Y-395243D01*
X-389811Y-390011D01*
X-389811Y-384861D01*
X-387644Y-379628D01*
X-382411Y-377461D01*
X-282311Y-377461D01*
X-282311Y-374861D01*
X-280144Y-369628D01*
X-274911Y-367461D01*
X-270650Y-367461D01*
X-269925Y-367496D01*
G37*
%TD.AperFunction*%
%TA.AperFunction,Conductor*%
G36*
X265522Y-262128D02*
G01*
X267689Y-267361D01*
X267689Y-367461D01*
X270289Y-367461D01*
X275522Y-369628D01*
X277689Y-374861D01*
X277689Y-377461D01*
X377789Y-377461D01*
X383021Y-379628D01*
X385189Y-384861D01*
X385189Y-390011D01*
X383021Y-395243D01*
X377789Y-397411D01*
X300221Y-397411D01*
X300075Y-397425D01*
X299350Y-397461D01*
X277689Y-397461D01*
X277689Y-419122D01*
X277653Y-419847D01*
X277639Y-419993D01*
X277639Y-434929D01*
X277653Y-435074D01*
X277689Y-435799D01*
X277689Y-459122D01*
X277653Y-459847D01*
X277639Y-459993D01*
X277639Y-474929D01*
X277653Y-475074D01*
X277689Y-475799D01*
X277689Y-499122D01*
X277653Y-499847D01*
X277639Y-499993D01*
X277639Y-514929D01*
X277653Y-515074D01*
X277689Y-515799D01*
X277689Y-539122D01*
X277653Y-539847D01*
X277639Y-539993D01*
X277639Y-554929D01*
X277653Y-555074D01*
X277689Y-555799D01*
X277689Y-579122D01*
X277653Y-579847D01*
X277639Y-579993D01*
X277639Y-594929D01*
X277653Y-595074D01*
X277689Y-595799D01*
X277689Y-619122D01*
X277653Y-619847D01*
X277639Y-619993D01*
X277639Y-634929D01*
X277653Y-635074D01*
X277689Y-635799D01*
X277689Y-659122D01*
X277653Y-659847D01*
X277639Y-659993D01*
X277639Y-674929D01*
X277653Y-675074D01*
X277689Y-675799D01*
X277689Y-699122D01*
X277653Y-699847D01*
X277639Y-699993D01*
X277639Y-714929D01*
X277653Y-715074D01*
X277689Y-715799D01*
X277689Y-737461D01*
X299350Y-737461D01*
X300075Y-737496D01*
X300221Y-737511D01*
X377789Y-737511D01*
X383021Y-739678D01*
X385189Y-744911D01*
X385189Y-750011D01*
X383021Y-755243D01*
X377789Y-757411D01*
X300221Y-757411D01*
X300075Y-757425D01*
X299350Y-757461D01*
X235639Y-757461D01*
X230406Y-755293D01*
X228239Y-750061D01*
X228239Y-412361D01*
X226675Y-404497D01*
X226675Y-404497D01*
X226675Y-404497D01*
X224507Y-399264D01*
X220844Y-393435D01*
X220844Y-393435D01*
X213386Y-388143D01*
X213386Y-388143D01*
X213386Y-388143D01*
X212807Y-387903D01*
X208802Y-383898D01*
X208239Y-381066D01*
X208239Y-345801D01*
X208239Y-345799D01*
X208214Y-344790D01*
X208198Y-344458D01*
X208189Y-344095D01*
X208189Y-267361D01*
X210356Y-262128D01*
X215589Y-259961D01*
X260289Y-259961D01*
X265522Y-262128D01*
G37*
%TD.AperFunction*%
%TA.AperFunction,Conductor*%
G36*
X65471Y-262128D02*
G01*
X67639Y-267361D01*
X67639Y-339561D01*
X65471Y-344794D01*
X60239Y-346961D01*
X51053Y-346961D01*
X50690Y-346952D01*
X50361Y-346936D01*
X50360Y-346936D01*
X50358Y-346936D01*
X49350Y-346911D01*
X26028Y-346911D01*
X25020Y-346936D01*
X25018Y-346936D01*
X25017Y-346936D01*
X24687Y-346952D01*
X24325Y-346961D01*
X15589Y-346961D01*
X10356Y-344794D01*
X8189Y-339561D01*
X8189Y-267361D01*
X10356Y-262128D01*
X15589Y-259961D01*
X60239Y-259961D01*
X65471Y-262128D01*
G37*
%TD.AperFunction*%
%TD*%
%TA.AperFunction,Conductor*%
%TO.N,+1V1*%
G36*
X-14528Y-262128D02*
G01*
X-12361Y-267361D01*
X-12361Y-344929D01*
X-12347Y-345074D01*
X-12361Y-345121D01*
X-12361Y-345292D01*
X-12413Y-345292D01*
X-12459Y-345443D01*
X-12311Y-345799D01*
X-12311Y-367461D01*
X9350Y-367461D01*
X10075Y-367496D01*
X10221Y-367511D01*
X10222Y-367511D01*
X25157Y-367511D01*
X25303Y-367496D01*
X26028Y-367461D01*
X49350Y-367461D01*
X50075Y-367496D01*
X50221Y-367511D01*
X50221Y-367511D01*
X65157Y-367511D01*
X65303Y-367496D01*
X66028Y-367461D01*
X89350Y-367461D01*
X90075Y-367496D01*
X90221Y-367511D01*
X90221Y-367511D01*
X105157Y-367511D01*
X105303Y-367496D01*
X106028Y-367461D01*
X129350Y-367461D01*
X130075Y-367496D01*
X130221Y-367511D01*
X130221Y-367511D01*
X145157Y-367511D01*
X145303Y-367496D01*
X146028Y-367461D01*
X167689Y-367461D01*
X167689Y-345799D01*
X167725Y-345074D01*
X167739Y-344929D01*
X167739Y-267361D01*
X169906Y-262128D01*
X175139Y-259961D01*
X180239Y-259961D01*
X185471Y-262128D01*
X187639Y-267361D01*
X187639Y-344929D01*
X187653Y-345074D01*
X187689Y-345799D01*
X187689Y-404961D01*
X200289Y-404961D01*
X205521Y-407128D01*
X207689Y-412361D01*
X207689Y-920061D01*
X205521Y-925293D01*
X200289Y-927461D01*
X186028Y-927461D01*
X185303Y-927425D01*
X185157Y-927411D01*
X185156Y-927411D01*
X170222Y-927411D01*
X170221Y-927411D01*
X170075Y-927425D01*
X169350Y-927461D01*
X146028Y-927461D01*
X145303Y-927425D01*
X145157Y-927411D01*
X145156Y-927411D01*
X130221Y-927411D01*
X130221Y-927411D01*
X130075Y-927425D01*
X129350Y-927461D01*
X106028Y-927461D01*
X105303Y-927425D01*
X105157Y-927411D01*
X105156Y-927411D01*
X90221Y-927411D01*
X90221Y-927411D01*
X90075Y-927425D01*
X89350Y-927461D01*
X67689Y-927461D01*
X67689Y-949122D01*
X67653Y-949847D01*
X67639Y-949993D01*
X67639Y-1027561D01*
X65471Y-1032793D01*
X60239Y-1034961D01*
X55139Y-1034961D01*
X49906Y-1032793D01*
X47739Y-1027561D01*
X47739Y-949993D01*
X47724Y-949847D01*
X47689Y-949122D01*
X47689Y-834911D01*
X49856Y-829678D01*
X55089Y-827511D01*
X159664Y-827511D01*
X159664Y-827511D01*
X165512Y-826348D01*
X172144Y-821916D01*
X176576Y-815284D01*
X177739Y-809436D01*
X177739Y-485486D01*
X176576Y-479638D01*
X172144Y-473006D01*
X169923Y-471522D01*
X165512Y-468574D01*
X165512Y-468574D01*
X162588Y-467992D01*
X159664Y-467411D01*
X-24911Y-467411D01*
X-30144Y-465243D01*
X-32311Y-460011D01*
X-32311Y-345799D01*
X-32275Y-345074D01*
X-32261Y-344929D01*
X-32261Y-267361D01*
X-30094Y-262128D01*
X-24861Y-259961D01*
X-19761Y-259961D01*
X-14528Y-262128D01*
G37*
%TD.AperFunction*%
%TD*%
M02*
