M48
; DRILL file {KiCad 9.0.6} date 2026-01-04T19:17:21+0000
; FORMAT={-:-/ absolute / metric / decimal}
; #@! TF.CreationDate,2026-01-04T19:17:21+00:00
; #@! TF.GenerationSoftware,Kicad,Pcbnew,9.0.6
; #@! TF.FileFunction,Plated,1,2,PTH
FMAT,2
METRIC
; #@! TA.AperFunction,Plated,PTH,ViaDrill
T1C0.300
; #@! TA.AperFunction,Plated,PTH,ComponentDrill
T2C0.559
; #@! TA.AperFunction,Plated,PTH,ComponentDrill
T3C0.600
%
G90
G05
T1
X-11.375Y-7.125
X-9.5Y0.25
X-9.0Y5.5
X-6.75Y4.5
X-6.618Y-3.4
X-6.5Y-9.5
X-5.75Y7.25
X-5.75Y5.75
X-4.623Y-3.275
X-4.5Y-7.5
X-4.5Y-11.75
X-4.148Y-10.35
X-2.35Y0.45
X-1.0Y-5.5
X-1.0Y-7.5
X-0.5Y6.25
X0.0Y-6.5
X0.177Y-2.0
X1.0Y-5.5
X1.0Y-7.5
X2.0Y6.25
X2.0Y-13.75
X3.75Y-2.5
X4.302Y-5.829
X4.8Y0.05
X5.5Y-8.875
X6.0Y7.25
X6.0Y4.0
X6.5Y-2.75
X6.5Y-6.25
X8.4Y6.25
X8.4Y4.75
X8.4Y3.267
X9.75Y12.25
T2
X7.425Y-12.02
X7.425Y-13.29
X9.0Y-10.75
X9.0Y-12.02
X9.0Y-13.29
T3
G00X-4.32Y13.925
M15
G01X-4.32Y14.725
M16
G05
G00X-4.32Y9.595
M15
G01X-4.32Y10.695
M16
G05
G00X4.32Y13.925
M15
G01X4.32Y14.725
M16
G05
G00X4.32Y9.595
M15
G01X4.32Y10.695
M16
G05
M30
