%TF.GenerationSoftware,KiCad,Pcbnew,8.0.2-1*%
%TF.CreationDate,2024-09-30T19:10:58+01:00*%
%TF.ProjectId,test_module_2,74657374-5f6d-46f6-9475-6c655f322e6b,rev?*%
%TF.SameCoordinates,PX8583b00PY68e7780*%
%TF.FileFunction,Legend,Top*%
%TF.FilePolarity,Positive*%
%FSLAX46Y46*%
G04 Gerber Fmt 4.6, Leading zero omitted, Abs format (unit mm)*
G04 Created by KiCad (PCBNEW 8.0.2-1) date 2024-09-30 19:10:58*
%MOMM*%
%LPD*%
G01*
G04 APERTURE LIST*
%ADD10C,0.150000*%
%ADD11C,0.120000*%
G04 APERTURE END LIST*
D10*
X-761905Y15675181D02*
X-761905Y14865658D01*
X-761905Y14865658D02*
X-714286Y14770420D01*
X-714286Y14770420D02*
X-666667Y14722800D01*
X-666667Y14722800D02*
X-571429Y14675181D01*
X-571429Y14675181D02*
X-380953Y14675181D01*
X-380953Y14675181D02*
X-285715Y14722800D01*
X-285715Y14722800D02*
X-238096Y14770420D01*
X-238096Y14770420D02*
X-190477Y14865658D01*
X-190477Y14865658D02*
X-190477Y15675181D01*
X809523Y14675181D02*
X238095Y14675181D01*
X523809Y14675181D02*
X523809Y15675181D01*
X523809Y15675181D02*
X428571Y15532324D01*
X428571Y15532324D02*
X333333Y15437086D01*
X333333Y15437086D02*
X238095Y15389467D01*
D11*
%TO.C,U1*%
X-3610000Y13290000D02*
X-3610000Y13700000D01*
X-3610000Y6720000D02*
X-3610000Y7370000D01*
X-2960000Y13940000D02*
X-3310000Y13940000D01*
X-2960000Y6720000D02*
X-3610000Y6720000D01*
X2960000Y13940000D02*
X3610000Y13940000D01*
X2960000Y6720000D02*
X3610000Y6720000D01*
X3610000Y13940000D02*
X3610000Y13290000D01*
X3610000Y6720000D02*
X3610000Y7370000D01*
X-3610000Y13940000D02*
X-3850000Y14270000D01*
X-3370000Y14270000D01*
X-3610000Y13940000D01*
G36*
X-3610000Y13940000D02*
G01*
X-3850000Y14270000D01*
X-3370000Y14270000D01*
X-3610000Y13940000D01*
G37*
%TD*%
M02*
