%TF.GenerationSoftware,KiCad,Pcbnew,9.0.0*%
%TF.CreationDate,2025-04-22T14:07:13+01:00*%
%TF.ProjectId,vm_light_sensor_0.3,766d5f6c-6967-4687-945f-73656e736f72,v0.3*%
%TF.SameCoordinates,PX510ff40PY47868c0*%
%TF.FileFunction,AssemblyDrawing,Top*%
%FSLAX45Y45*%
G04 Gerber Fmt 4.5, Leading zero omitted, Abs format (unit mm)*
G04 Created by KiCad (PCBNEW 9.0.0) date 2025-04-22 14:07:13*
%MOMM*%
%LPD*%
G01*
G04 APERTURE LIST*
%ADD10C,0.100000*%
%ADD11C,0.120000*%
%ADD12C,0.075000*%
G04 APERTURE END LIST*
D10*
%TO.C,GS5*%
X150000Y825000D02*
X250000Y825000D01*
X200000Y875000D02*
X200000Y775000D01*
X250000Y825000D02*
G75*
G02*
X150000Y825000I-50000J0D01*
G01*
X150000Y825000D02*
G75*
G02*
X250000Y825000I50000J0D01*
G01*
%TO.C,GS3*%
X-700000Y250000D02*
X-600000Y250000D01*
X-650000Y300000D02*
X-650000Y200000D01*
X-600000Y250000D02*
G75*
G02*
X-700000Y250000I-50000J0D01*
G01*
X-700000Y250000D02*
G75*
G02*
X-600000Y250000I50000J0D01*
G01*
D11*
%TO.C,J1*%
X-68100Y799060D02*
X262100Y799060D01*
X-68100Y443460D02*
X-68100Y799060D01*
X262100Y799060D02*
X389100Y672060D01*
X389100Y672060D02*
X389100Y443460D01*
X389100Y443460D02*
X-68100Y443460D01*
D10*
%TO.C,GS4*%
X-50000Y825000D02*
X50000Y825000D01*
X0Y875000D02*
X0Y775000D01*
X50000Y825000D02*
G75*
G02*
X-50000Y825000I-50000J0D01*
G01*
X-50000Y825000D02*
G75*
G02*
X50000Y825000I50000J0D01*
G01*
%TO.C,U2*%
D12*
X-383750Y182500D02*
G75*
G02*
X-391250Y182500I-3750J0D01*
G01*
X-391250Y182500D02*
G75*
G02*
X-383750Y182500I3750J0D01*
G01*
D10*
%TO.C,GS6*%
X-250000Y825000D02*
X-150000Y825000D01*
X-200000Y875000D02*
X-200000Y775000D01*
X-150000Y825000D02*
G75*
G02*
X-250000Y825000I-50000J0D01*
G01*
X-250000Y825000D02*
G75*
G02*
X-150000Y825000I50000J0D01*
G01*
%TO.C,D1*%
D12*
X-603750Y-467500D02*
G75*
G02*
X-611250Y-467500I-3750J0D01*
G01*
X-611250Y-467500D02*
G75*
G02*
X-603750Y-467500I3750J0D01*
G01*
%TO.C,U1*%
X-319250Y-287500D02*
G75*
G02*
X-326750Y-287500I-3750J0D01*
G01*
X-326750Y-287500D02*
G75*
G02*
X-319250Y-287500I3750J0D01*
G01*
D10*
%TO.C,GS2*%
X-700000Y-250000D02*
X-600000Y-250000D01*
X-650000Y-200000D02*
X-650000Y-300000D01*
X-600000Y-250000D02*
G75*
G02*
X-700000Y-250000I-50000J0D01*
G01*
X-700000Y-250000D02*
G75*
G02*
X-600000Y-250000I50000J0D01*
G01*
%TO.C,GS1*%
X-700000Y0D02*
X-600000Y0D01*
X-650000Y50000D02*
X-650000Y-50000D01*
X-600000Y0D02*
G75*
G02*
X-700000Y0I-50000J0D01*
G01*
X-700000Y0D02*
G75*
G02*
X-600000Y0I50000J0D01*
G01*
%TO.C,D2*%
D12*
X-546250Y800000D02*
G75*
G02*
X-553750Y800000I-3750J0D01*
G01*
X-553750Y800000D02*
G75*
G02*
X-546250Y800000I3750J0D01*
G01*
%TD*%
M02*
