%TF.GenerationSoftware,KiCad,Pcbnew,9.0.0*%
%TF.CreationDate,2025-04-22T14:07:13+01:00*%
%TF.ProjectId,vm_light_sensor_0.3,766d5f6c-6967-4687-945f-73656e736f72,v0.3*%
%TF.SameCoordinates,PX510ff40PY47868c0*%
%TF.FileFunction,Legend,Top*%
%TF.FilePolarity,Positive*%
%FSLAX45Y45*%
G04 Gerber Fmt 4.5, Leading zero omitted, Abs format (unit mm)*
G04 Created by KiCad (PCBNEW 9.0.0) date 2025-04-22 14:07:13*
%MOMM*%
%LPD*%
G01*
G04 APERTURE LIST*
%ADD10C,0.200000*%
%ADD11C,0.150000*%
%ADD12C,0.075000*%
G04 APERTURE END LIST*
D10*
X-563985Y-656722D02*
X-554461Y-656722D01*
X-554461Y-656722D02*
X-544938Y-661484D01*
X-544938Y-661484D02*
X-540176Y-666246D01*
X-540176Y-666246D02*
X-535414Y-675770D01*
X-535414Y-675770D02*
X-530652Y-694817D01*
X-530652Y-694817D02*
X-530652Y-718627D01*
X-530652Y-718627D02*
X-535414Y-737674D01*
X-535414Y-737674D02*
X-540176Y-747198D01*
X-540176Y-747198D02*
X-544938Y-751960D01*
X-544938Y-751960D02*
X-554461Y-756722D01*
X-554461Y-756722D02*
X-563985Y-756722D01*
X-563985Y-756722D02*
X-573509Y-751960D01*
X-573509Y-751960D02*
X-578271Y-747198D01*
X-578271Y-747198D02*
X-583033Y-737674D01*
X-583033Y-737674D02*
X-587795Y-718627D01*
X-587795Y-718627D02*
X-587795Y-694817D01*
X-587795Y-694817D02*
X-583033Y-675770D01*
X-583033Y-675770D02*
X-578271Y-666246D01*
X-578271Y-666246D02*
X-573509Y-661484D01*
X-573509Y-661484D02*
X-563985Y-656722D01*
X-487795Y-747198D02*
X-483033Y-751960D01*
X-483033Y-751960D02*
X-487795Y-756722D01*
X-487795Y-756722D02*
X-492556Y-751960D01*
X-492556Y-751960D02*
X-487795Y-747198D01*
X-487795Y-747198D02*
X-487795Y-756722D01*
X-449699Y-656722D02*
X-387795Y-656722D01*
X-387795Y-656722D02*
X-421128Y-694817D01*
X-421128Y-694817D02*
X-406842Y-694817D01*
X-406842Y-694817D02*
X-397318Y-699579D01*
X-397318Y-699579D02*
X-392557Y-704341D01*
X-392557Y-704341D02*
X-387795Y-713865D01*
X-387795Y-713865D02*
X-387795Y-737674D01*
X-387795Y-737674D02*
X-392557Y-747198D01*
X-392557Y-747198D02*
X-397318Y-751960D01*
X-397318Y-751960D02*
X-406842Y-756722D01*
X-406842Y-756722D02*
X-435414Y-756722D01*
X-435414Y-756722D02*
X-444937Y-751960D01*
X-444937Y-751960D02*
X-449699Y-747198D01*
D11*
X554774Y549846D02*
X558345Y546275D01*
X558345Y546275D02*
X561916Y535560D01*
X561916Y535560D02*
X561916Y528417D01*
X561916Y528417D02*
X558345Y517703D01*
X558345Y517703D02*
X551202Y510560D01*
X551202Y510560D02*
X544059Y506989D01*
X544059Y506989D02*
X529774Y503417D01*
X529774Y503417D02*
X519059Y503417D01*
X519059Y503417D02*
X504773Y506989D01*
X504773Y506989D02*
X497631Y510560D01*
X497631Y510560D02*
X490488Y517703D01*
X490488Y517703D02*
X486916Y528417D01*
X486916Y528417D02*
X486916Y535560D01*
X486916Y535560D02*
X490488Y546275D01*
X490488Y546275D02*
X494059Y549846D01*
X522631Y-65868D02*
X522631Y-40868D01*
X561916Y-30154D02*
X561916Y-65868D01*
X561916Y-65868D02*
X486916Y-65868D01*
X486916Y-65868D02*
X486916Y-30154D01*
%TO.C,U2*%
X-387500Y-57500D02*
X-632500Y-57500D01*
X-632500Y57500D01*
X-387500Y57500D01*
X-387500Y-57500D01*
D12*
X-403750Y37500D02*
G75*
G02*
X-411250Y37500I-3750J0D01*
G01*
X-411250Y37500D02*
G75*
G02*
X-403750Y37500I3750J0D01*
G01*
X-383750Y182500D02*
G75*
G02*
X-391250Y182500I-3750J0D01*
G01*
X-391250Y182500D02*
G75*
G02*
X-383750Y182500I3750J0D01*
G01*
D11*
%TO.C,D1*%
X-520000Y-552500D02*
X-520000Y-487500D01*
X-515000Y-520000D02*
X-460000Y-487500D01*
X-515000Y-520000D02*
X-460000Y-552500D01*
X-460000Y-552500D02*
X-460000Y-487500D01*
D12*
X-603750Y-467500D02*
G75*
G02*
X-611250Y-467500I-3750J0D01*
G01*
X-611250Y-467500D02*
G75*
G02*
X-603750Y-467500I3750J0D01*
G01*
%TO.C,U1*%
D11*
X-300500Y187500D02*
X304500Y187500D01*
X304500Y-187500D01*
X-300500Y-187500D01*
X-300500Y187500D01*
D12*
X-319250Y-287500D02*
G75*
G02*
X-326750Y-287500I-3750J0D01*
G01*
X-326750Y-287500D02*
G75*
G02*
X-319250Y-287500I3750J0D01*
G01*
D11*
X-263000Y-157500D02*
G75*
G02*
X-278000Y-157500I-7500J0D01*
G01*
X-278000Y-157500D02*
G75*
G02*
X-263000Y-157500I7500J0D01*
G01*
%TO.C,Q1*%
X396750Y422750D02*
X396750Y385250D01*
X415500Y404000D02*
X378000Y404000D01*
X598000Y-1000D02*
X458000Y-1000D01*
%TO.C,D2*%
X-632500Y667500D02*
X-567500Y667500D01*
X-632500Y607500D02*
X-567500Y607500D01*
X-600000Y695000D02*
X-600000Y665000D01*
X-600000Y662500D02*
X-632500Y607500D01*
X-600000Y662500D02*
X-567500Y607500D01*
X-600000Y607500D02*
X-600000Y585000D01*
D12*
X-546250Y800000D02*
G75*
G02*
X-553750Y800000I-3750J0D01*
G01*
X-553750Y800000D02*
G75*
G02*
X-546250Y800000I3750J0D01*
G01*
%TD*%
M02*
