%TF.GenerationSoftware,KiCad,Pcbnew,8.0.8*%
%TF.CreationDate,2025-01-29T16:56:40+00:00*%
%TF.ProjectId,ec30_1x4_l3r3_mh_0.1,65633330-5f31-4783-945f-6c3372335f6d,v0.1*%
%TF.SameCoordinates,PX8d24d00PY36d6160*%
%TF.FileFunction,Legend,Bot*%
%TF.FilePolarity,Positive*%
%FSLAX46Y46*%
G04 Gerber Fmt 4.6, Leading zero omitted, Abs format (unit mm)*
G04 Created by KiCad (PCBNEW 8.0.8) date 2025-01-29 16:56:40*
%MOMM*%
%LPD*%
G01*
G04 APERTURE LIST*
%ADD10C,0.010000*%
G04 APERTURE END LIST*
D10*
%TO.C,MH4*%
X4512315Y-16537097D02*
X4545902Y-16540967D01*
X4609337Y-16555460D01*
X4669119Y-16576836D01*
X4724897Y-16604857D01*
X4776323Y-16639282D01*
X4823045Y-16679873D01*
X4864713Y-16726390D01*
X4900978Y-16778595D01*
X4905932Y-16786905D01*
X4932227Y-16839620D01*
X4951937Y-16895852D01*
X4964956Y-16954534D01*
X4971177Y-17014597D01*
X4970493Y-17074971D01*
X4962798Y-17134589D01*
X4947986Y-17192383D01*
X4946724Y-17196200D01*
X4923810Y-17252258D01*
X4894010Y-17305208D01*
X4857995Y-17354363D01*
X4816432Y-17399037D01*
X4769989Y-17438544D01*
X4719336Y-17472197D01*
X4665140Y-17499310D01*
X4643131Y-17507984D01*
X4628842Y-17512534D01*
X4608620Y-17518065D01*
X4584336Y-17524112D01*
X4557860Y-17530209D01*
X4531066Y-17535890D01*
X4530627Y-17535978D01*
X4430898Y-17557605D01*
X4337130Y-17581196D01*
X4247475Y-17607312D01*
X4160080Y-17636513D01*
X4073097Y-17669359D01*
X4025400Y-17688911D01*
X3990892Y-17702591D01*
X3962060Y-17711967D01*
X3937943Y-17717092D01*
X3917585Y-17718020D01*
X3900026Y-17714805D01*
X3884306Y-17707500D01*
X3871026Y-17697549D01*
X3861761Y-17688599D01*
X3854095Y-17678889D01*
X3847359Y-17667033D01*
X3840883Y-17651641D01*
X3833996Y-17631328D01*
X3826029Y-17604705D01*
X3825773Y-17603819D01*
X3808089Y-17547028D01*
X3789044Y-17495297D01*
X3767517Y-17445754D01*
X3751323Y-17412693D01*
X3708585Y-17337559D01*
X3659061Y-17265981D01*
X3603381Y-17198685D01*
X3542177Y-17136400D01*
X3476080Y-17079853D01*
X3438759Y-17052091D01*
X3409961Y-17030158D01*
X3388210Y-17009824D01*
X3372965Y-16990363D01*
X3363685Y-16971046D01*
X3359826Y-16951149D01*
X3359645Y-16945984D01*
X3361533Y-16927433D01*
X3367866Y-16910699D01*
X3379303Y-16895074D01*
X3396502Y-16879849D01*
X3420124Y-16864314D01*
X3450827Y-16847763D01*
X3451138Y-16847606D01*
X3572727Y-16790209D01*
X3700375Y-16736782D01*
X3833085Y-16687663D01*
X3969861Y-16643189D01*
X4109705Y-16603698D01*
X4251619Y-16569526D01*
X4310259Y-16557113D01*
X4369736Y-16546306D01*
X4422870Y-16539393D01*
X4470212Y-16536336D01*
X4512315Y-16537097D01*
G36*
X4512315Y-16537097D02*
G01*
X4545902Y-16540967D01*
X4609337Y-16555460D01*
X4669119Y-16576836D01*
X4724897Y-16604857D01*
X4776323Y-16639282D01*
X4823045Y-16679873D01*
X4864713Y-16726390D01*
X4900978Y-16778595D01*
X4905932Y-16786905D01*
X4932227Y-16839620D01*
X4951937Y-16895852D01*
X4964956Y-16954534D01*
X4971177Y-17014597D01*
X4970493Y-17074971D01*
X4962798Y-17134589D01*
X4947986Y-17192383D01*
X4946724Y-17196200D01*
X4923810Y-17252258D01*
X4894010Y-17305208D01*
X4857995Y-17354363D01*
X4816432Y-17399037D01*
X4769989Y-17438544D01*
X4719336Y-17472197D01*
X4665140Y-17499310D01*
X4643131Y-17507984D01*
X4628842Y-17512534D01*
X4608620Y-17518065D01*
X4584336Y-17524112D01*
X4557860Y-17530209D01*
X4531066Y-17535890D01*
X4530627Y-17535978D01*
X4430898Y-17557605D01*
X4337130Y-17581196D01*
X4247475Y-17607312D01*
X4160080Y-17636513D01*
X4073097Y-17669359D01*
X4025400Y-17688911D01*
X3990892Y-17702591D01*
X3962060Y-17711967D01*
X3937943Y-17717092D01*
X3917585Y-17718020D01*
X3900026Y-17714805D01*
X3884306Y-17707500D01*
X3871026Y-17697549D01*
X3861761Y-17688599D01*
X3854095Y-17678889D01*
X3847359Y-17667033D01*
X3840883Y-17651641D01*
X3833996Y-17631328D01*
X3826029Y-17604705D01*
X3825773Y-17603819D01*
X3808089Y-17547028D01*
X3789044Y-17495297D01*
X3767517Y-17445754D01*
X3751323Y-17412693D01*
X3708585Y-17337559D01*
X3659061Y-17265981D01*
X3603381Y-17198685D01*
X3542177Y-17136400D01*
X3476080Y-17079853D01*
X3438759Y-17052091D01*
X3409961Y-17030158D01*
X3388210Y-17009824D01*
X3372965Y-16990363D01*
X3363685Y-16971046D01*
X3359826Y-16951149D01*
X3359645Y-16945984D01*
X3361533Y-16927433D01*
X3367866Y-16910699D01*
X3379303Y-16895074D01*
X3396502Y-16879849D01*
X3420124Y-16864314D01*
X3450827Y-16847763D01*
X3451138Y-16847606D01*
X3572727Y-16790209D01*
X3700375Y-16736782D01*
X3833085Y-16687663D01*
X3969861Y-16643189D01*
X4109705Y-16603698D01*
X4251619Y-16569526D01*
X4310259Y-16557113D01*
X4369736Y-16546306D01*
X4422870Y-16539393D01*
X4470212Y-16536336D01*
X4512315Y-16537097D01*
G37*
X1953413Y-18350600D02*
X1967654Y-18354555D01*
X1987366Y-18365409D01*
X2007613Y-18383730D01*
X2027958Y-18409110D01*
X2031259Y-18413896D01*
X2085333Y-18487128D01*
X2144537Y-18554596D01*
X2208578Y-18616058D01*
X2277164Y-18671274D01*
X2350000Y-18720000D01*
X2426796Y-18761995D01*
X2483346Y-18787503D01*
X2514537Y-18799848D01*
X2545930Y-18811068D01*
X2579551Y-18821818D01*
X2617428Y-18832755D01*
X2650366Y-18841611D01*
X2668609Y-18846923D01*
X2681657Y-18852338D01*
X2692158Y-18859177D01*
X2700579Y-18866630D01*
X2714018Y-18882193D01*
X2722097Y-18898580D01*
X2724860Y-18916891D01*
X2722352Y-18938223D01*
X2714617Y-18963675D01*
X2705422Y-18986106D01*
X2655978Y-19106625D01*
X2612696Y-19230914D01*
X2575396Y-19359556D01*
X2543896Y-19493133D01*
X2537612Y-19523814D01*
X2530511Y-19558497D01*
X2524199Y-19586878D01*
X2518227Y-19610497D01*
X2512150Y-19630891D01*
X2505521Y-19649600D01*
X2497891Y-19668162D01*
X2491667Y-19682000D01*
X2462928Y-19734981D01*
X2427783Y-19784048D01*
X2386961Y-19828632D01*
X2341190Y-19868160D01*
X2291198Y-19902061D01*
X2237714Y-19929764D01*
X2181467Y-19950698D01*
X2134147Y-19962345D01*
X2071388Y-19970469D01*
X2009759Y-19971006D01*
X1949744Y-19964282D01*
X1891828Y-19950623D01*
X1836499Y-19930353D01*
X1784240Y-19903798D01*
X1735537Y-19871282D01*
X1690876Y-19833132D01*
X1650741Y-19789672D01*
X1615620Y-19741227D01*
X1585996Y-19688123D01*
X1562355Y-19630685D01*
X1545183Y-19569238D01*
X1544814Y-19567528D01*
X1541632Y-19549846D01*
X1539508Y-19530604D01*
X1538311Y-19507905D01*
X1537909Y-19479857D01*
X1537932Y-19468309D01*
X1538309Y-19446624D01*
X1539313Y-19425661D01*
X1541106Y-19404418D01*
X1543849Y-19381890D01*
X1547704Y-19357073D01*
X1552833Y-19328963D01*
X1559396Y-19296556D01*
X1567556Y-19258849D01*
X1577475Y-19214836D01*
X1581693Y-19196450D01*
X1610206Y-19083037D01*
X1644001Y-18966858D01*
X1682412Y-18849770D01*
X1724772Y-18733629D01*
X1770414Y-18620292D01*
X1818673Y-18511616D01*
X1853083Y-18440447D01*
X1867568Y-18412920D01*
X1880362Y-18391889D01*
X1892276Y-18376317D01*
X1904118Y-18365165D01*
X1916698Y-18357396D01*
X1918555Y-18356523D01*
X1936589Y-18350548D01*
X1953413Y-18350600D01*
G36*
X1953413Y-18350600D02*
G01*
X1967654Y-18354555D01*
X1987366Y-18365409D01*
X2007613Y-18383730D01*
X2027958Y-18409110D01*
X2031259Y-18413896D01*
X2085333Y-18487128D01*
X2144537Y-18554596D01*
X2208578Y-18616058D01*
X2277164Y-18671274D01*
X2350000Y-18720000D01*
X2426796Y-18761995D01*
X2483346Y-18787503D01*
X2514537Y-18799848D01*
X2545930Y-18811068D01*
X2579551Y-18821818D01*
X2617428Y-18832755D01*
X2650366Y-18841611D01*
X2668609Y-18846923D01*
X2681657Y-18852338D01*
X2692158Y-18859177D01*
X2700579Y-18866630D01*
X2714018Y-18882193D01*
X2722097Y-18898580D01*
X2724860Y-18916891D01*
X2722352Y-18938223D01*
X2714617Y-18963675D01*
X2705422Y-18986106D01*
X2655978Y-19106625D01*
X2612696Y-19230914D01*
X2575396Y-19359556D01*
X2543896Y-19493133D01*
X2537612Y-19523814D01*
X2530511Y-19558497D01*
X2524199Y-19586878D01*
X2518227Y-19610497D01*
X2512150Y-19630891D01*
X2505521Y-19649600D01*
X2497891Y-19668162D01*
X2491667Y-19682000D01*
X2462928Y-19734981D01*
X2427783Y-19784048D01*
X2386961Y-19828632D01*
X2341190Y-19868160D01*
X2291198Y-19902061D01*
X2237714Y-19929764D01*
X2181467Y-19950698D01*
X2134147Y-19962345D01*
X2071388Y-19970469D01*
X2009759Y-19971006D01*
X1949744Y-19964282D01*
X1891828Y-19950623D01*
X1836499Y-19930353D01*
X1784240Y-19903798D01*
X1735537Y-19871282D01*
X1690876Y-19833132D01*
X1650741Y-19789672D01*
X1615620Y-19741227D01*
X1585996Y-19688123D01*
X1562355Y-19630685D01*
X1545183Y-19569238D01*
X1544814Y-19567528D01*
X1541632Y-19549846D01*
X1539508Y-19530604D01*
X1538311Y-19507905D01*
X1537909Y-19479857D01*
X1537932Y-19468309D01*
X1538309Y-19446624D01*
X1539313Y-19425661D01*
X1541106Y-19404418D01*
X1543849Y-19381890D01*
X1547704Y-19357073D01*
X1552833Y-19328963D01*
X1559396Y-19296556D01*
X1567556Y-19258849D01*
X1577475Y-19214836D01*
X1581693Y-19196450D01*
X1610206Y-19083037D01*
X1644001Y-18966858D01*
X1682412Y-18849770D01*
X1724772Y-18733629D01*
X1770414Y-18620292D01*
X1818673Y-18511616D01*
X1853083Y-18440447D01*
X1867568Y-18412920D01*
X1880362Y-18391889D01*
X1892276Y-18376317D01*
X1904118Y-18365165D01*
X1916698Y-18357396D01*
X1918555Y-18356523D01*
X1936589Y-18350548D01*
X1953413Y-18350600D01*
G37*
X3162030Y-17467281D02*
X3171010Y-17469282D01*
X3201038Y-17481522D01*
X3226016Y-17499424D01*
X3245381Y-17522201D01*
X3258566Y-17549065D01*
X3265008Y-17579228D01*
X3265280Y-17600727D01*
X3264812Y-17608242D01*
X3264213Y-17615109D01*
X3263171Y-17621688D01*
X3261374Y-17628334D01*
X3258508Y-17635405D01*
X3254261Y-17643258D01*
X3248322Y-17652250D01*
X3240377Y-17662739D01*
X3230113Y-17675082D01*
X3217220Y-17689635D01*
X3201383Y-17706756D01*
X3182291Y-17726803D01*
X3159631Y-17750132D01*
X3133091Y-17777100D01*
X3102358Y-17808065D01*
X3067119Y-17843384D01*
X3027063Y-17883415D01*
X2981877Y-17928513D01*
X2955569Y-17954764D01*
X2909008Y-18001217D01*
X2867712Y-18042384D01*
X2831336Y-18078592D01*
X2799534Y-18110172D01*
X2771962Y-18137450D01*
X2748274Y-18160756D01*
X2728124Y-18180417D01*
X2711168Y-18196763D01*
X2697060Y-18210121D01*
X2685454Y-18220820D01*
X2676005Y-18229189D01*
X2668368Y-18235555D01*
X2662198Y-18240248D01*
X2657149Y-18243595D01*
X2652875Y-18245926D01*
X2649033Y-18247567D01*
X2646855Y-18248337D01*
X2615323Y-18255057D01*
X2584413Y-18254452D01*
X2555192Y-18246919D01*
X2528724Y-18232858D01*
X2506076Y-18212667D01*
X2489876Y-18189653D01*
X2484291Y-18178839D01*
X2480827Y-18169327D01*
X2478989Y-18158611D01*
X2478277Y-18144188D01*
X2478183Y-18130840D01*
X2478527Y-18111300D01*
X2479840Y-18097118D01*
X2482546Y-18085736D01*
X2487066Y-18074592D01*
X2487682Y-18073293D01*
X2490347Y-18068863D01*
X2495109Y-18062532D01*
X2502260Y-18053997D01*
X2512088Y-18042959D01*
X2524886Y-18029116D01*
X2540944Y-18012165D01*
X2560552Y-17991807D01*
X2584002Y-17967738D01*
X2611583Y-17939659D01*
X2643588Y-17907267D01*
X2680305Y-17870262D01*
X2722027Y-17828341D01*
X2769043Y-17781203D01*
X2779385Y-17770846D01*
X2826159Y-17724029D01*
X2867684Y-17682524D01*
X2904299Y-17646004D01*
X2936345Y-17614144D01*
X2964158Y-17586618D01*
X2988079Y-17563099D01*
X3008447Y-17543262D01*
X3025600Y-17526781D01*
X3039878Y-17513329D01*
X3051620Y-17502581D01*
X3061164Y-17494210D01*
X3068850Y-17487891D01*
X3075016Y-17483298D01*
X3080002Y-17480104D01*
X3083758Y-17478157D01*
X3109322Y-17469632D01*
X3136419Y-17465904D01*
X3162030Y-17467281D01*
G36*
X3162030Y-17467281D02*
G01*
X3171010Y-17469282D01*
X3201038Y-17481522D01*
X3226016Y-17499424D01*
X3245381Y-17522201D01*
X3258566Y-17549065D01*
X3265008Y-17579228D01*
X3265280Y-17600727D01*
X3264812Y-17608242D01*
X3264213Y-17615109D01*
X3263171Y-17621688D01*
X3261374Y-17628334D01*
X3258508Y-17635405D01*
X3254261Y-17643258D01*
X3248322Y-17652250D01*
X3240377Y-17662739D01*
X3230113Y-17675082D01*
X3217220Y-17689635D01*
X3201383Y-17706756D01*
X3182291Y-17726803D01*
X3159631Y-17750132D01*
X3133091Y-17777100D01*
X3102358Y-17808065D01*
X3067119Y-17843384D01*
X3027063Y-17883415D01*
X2981877Y-17928513D01*
X2955569Y-17954764D01*
X2909008Y-18001217D01*
X2867712Y-18042384D01*
X2831336Y-18078592D01*
X2799534Y-18110172D01*
X2771962Y-18137450D01*
X2748274Y-18160756D01*
X2728124Y-18180417D01*
X2711168Y-18196763D01*
X2697060Y-18210121D01*
X2685454Y-18220820D01*
X2676005Y-18229189D01*
X2668368Y-18235555D01*
X2662198Y-18240248D01*
X2657149Y-18243595D01*
X2652875Y-18245926D01*
X2649033Y-18247567D01*
X2646855Y-18248337D01*
X2615323Y-18255057D01*
X2584413Y-18254452D01*
X2555192Y-18246919D01*
X2528724Y-18232858D01*
X2506076Y-18212667D01*
X2489876Y-18189653D01*
X2484291Y-18178839D01*
X2480827Y-18169327D01*
X2478989Y-18158611D01*
X2478277Y-18144188D01*
X2478183Y-18130840D01*
X2478527Y-18111300D01*
X2479840Y-18097118D01*
X2482546Y-18085736D01*
X2487066Y-18074592D01*
X2487682Y-18073293D01*
X2490347Y-18068863D01*
X2495109Y-18062532D01*
X2502260Y-18053997D01*
X2512088Y-18042959D01*
X2524886Y-18029116D01*
X2540944Y-18012165D01*
X2560552Y-17991807D01*
X2584002Y-17967738D01*
X2611583Y-17939659D01*
X2643588Y-17907267D01*
X2680305Y-17870262D01*
X2722027Y-17828341D01*
X2769043Y-17781203D01*
X2779385Y-17770846D01*
X2826159Y-17724029D01*
X2867684Y-17682524D01*
X2904299Y-17646004D01*
X2936345Y-17614144D01*
X2964158Y-17586618D01*
X2988079Y-17563099D01*
X3008447Y-17543262D01*
X3025600Y-17526781D01*
X3039878Y-17513329D01*
X3051620Y-17502581D01*
X3061164Y-17494210D01*
X3068850Y-17487891D01*
X3075016Y-17483298D01*
X3080002Y-17480104D01*
X3083758Y-17478157D01*
X3109322Y-17469632D01*
X3136419Y-17465904D01*
X3162030Y-17467281D01*
G37*
%TO.C,MH1*%
X-3899840Y17710687D02*
X-3884120Y17703382D01*
X-3870840Y17693431D01*
X-3861575Y17684481D01*
X-3853909Y17674771D01*
X-3847173Y17662915D01*
X-3840697Y17647523D01*
X-3833810Y17627210D01*
X-3825843Y17600587D01*
X-3825587Y17599701D01*
X-3807903Y17542910D01*
X-3788858Y17491179D01*
X-3767331Y17441636D01*
X-3751137Y17408575D01*
X-3708399Y17333441D01*
X-3658875Y17261863D01*
X-3603195Y17194567D01*
X-3541991Y17132282D01*
X-3475894Y17075735D01*
X-3438573Y17047973D01*
X-3409775Y17026040D01*
X-3388024Y17005706D01*
X-3372779Y16986245D01*
X-3363499Y16966928D01*
X-3359640Y16947031D01*
X-3359459Y16941866D01*
X-3361347Y16923315D01*
X-3367680Y16906581D01*
X-3379117Y16890956D01*
X-3396316Y16875731D01*
X-3419938Y16860196D01*
X-3450641Y16843645D01*
X-3450952Y16843488D01*
X-3572541Y16786091D01*
X-3700189Y16732664D01*
X-3832899Y16683545D01*
X-3969675Y16639071D01*
X-4109519Y16599580D01*
X-4251433Y16565408D01*
X-4310073Y16552995D01*
X-4369550Y16542188D01*
X-4422684Y16535275D01*
X-4470026Y16532218D01*
X-4512129Y16532979D01*
X-4545716Y16536849D01*
X-4609151Y16551342D01*
X-4668933Y16572718D01*
X-4724711Y16600739D01*
X-4776137Y16635164D01*
X-4822859Y16675755D01*
X-4864527Y16722272D01*
X-4900792Y16774477D01*
X-4905746Y16782787D01*
X-4932041Y16835502D01*
X-4951751Y16891734D01*
X-4964770Y16950416D01*
X-4970991Y17010479D01*
X-4970307Y17070853D01*
X-4962612Y17130471D01*
X-4947800Y17188265D01*
X-4946538Y17192082D01*
X-4923624Y17248140D01*
X-4893824Y17301090D01*
X-4857809Y17350245D01*
X-4816246Y17394919D01*
X-4769803Y17434426D01*
X-4719150Y17468079D01*
X-4664954Y17495192D01*
X-4642945Y17503866D01*
X-4628656Y17508416D01*
X-4608434Y17513947D01*
X-4584150Y17519994D01*
X-4557674Y17526091D01*
X-4530880Y17531772D01*
X-4530441Y17531860D01*
X-4430712Y17553487D01*
X-4336944Y17577078D01*
X-4247289Y17603194D01*
X-4159894Y17632395D01*
X-4072911Y17665241D01*
X-4025214Y17684793D01*
X-3990706Y17698473D01*
X-3961874Y17707849D01*
X-3937757Y17712974D01*
X-3917399Y17713902D01*
X-3899840Y17710687D01*
G36*
X-3899840Y17710687D02*
G01*
X-3884120Y17703382D01*
X-3870840Y17693431D01*
X-3861575Y17684481D01*
X-3853909Y17674771D01*
X-3847173Y17662915D01*
X-3840697Y17647523D01*
X-3833810Y17627210D01*
X-3825843Y17600587D01*
X-3825587Y17599701D01*
X-3807903Y17542910D01*
X-3788858Y17491179D01*
X-3767331Y17441636D01*
X-3751137Y17408575D01*
X-3708399Y17333441D01*
X-3658875Y17261863D01*
X-3603195Y17194567D01*
X-3541991Y17132282D01*
X-3475894Y17075735D01*
X-3438573Y17047973D01*
X-3409775Y17026040D01*
X-3388024Y17005706D01*
X-3372779Y16986245D01*
X-3363499Y16966928D01*
X-3359640Y16947031D01*
X-3359459Y16941866D01*
X-3361347Y16923315D01*
X-3367680Y16906581D01*
X-3379117Y16890956D01*
X-3396316Y16875731D01*
X-3419938Y16860196D01*
X-3450641Y16843645D01*
X-3450952Y16843488D01*
X-3572541Y16786091D01*
X-3700189Y16732664D01*
X-3832899Y16683545D01*
X-3969675Y16639071D01*
X-4109519Y16599580D01*
X-4251433Y16565408D01*
X-4310073Y16552995D01*
X-4369550Y16542188D01*
X-4422684Y16535275D01*
X-4470026Y16532218D01*
X-4512129Y16532979D01*
X-4545716Y16536849D01*
X-4609151Y16551342D01*
X-4668933Y16572718D01*
X-4724711Y16600739D01*
X-4776137Y16635164D01*
X-4822859Y16675755D01*
X-4864527Y16722272D01*
X-4900792Y16774477D01*
X-4905746Y16782787D01*
X-4932041Y16835502D01*
X-4951751Y16891734D01*
X-4964770Y16950416D01*
X-4970991Y17010479D01*
X-4970307Y17070853D01*
X-4962612Y17130471D01*
X-4947800Y17188265D01*
X-4946538Y17192082D01*
X-4923624Y17248140D01*
X-4893824Y17301090D01*
X-4857809Y17350245D01*
X-4816246Y17394919D01*
X-4769803Y17434426D01*
X-4719150Y17468079D01*
X-4664954Y17495192D01*
X-4642945Y17503866D01*
X-4628656Y17508416D01*
X-4608434Y17513947D01*
X-4584150Y17519994D01*
X-4557674Y17526091D01*
X-4530880Y17531772D01*
X-4530441Y17531860D01*
X-4430712Y17553487D01*
X-4336944Y17577078D01*
X-4247289Y17603194D01*
X-4159894Y17632395D01*
X-4072911Y17665241D01*
X-4025214Y17684793D01*
X-3990706Y17698473D01*
X-3961874Y17707849D01*
X-3937757Y17712974D01*
X-3917399Y17713902D01*
X-3899840Y17710687D01*
G37*
X-1949558Y19960164D02*
X-1891642Y19946505D01*
X-1836313Y19926235D01*
X-1784054Y19899680D01*
X-1735351Y19867164D01*
X-1690690Y19829014D01*
X-1650555Y19785554D01*
X-1615434Y19737109D01*
X-1585810Y19684005D01*
X-1562169Y19626567D01*
X-1544997Y19565120D01*
X-1544628Y19563410D01*
X-1541446Y19545728D01*
X-1539322Y19526486D01*
X-1538125Y19503787D01*
X-1537723Y19475739D01*
X-1537746Y19464191D01*
X-1538123Y19442506D01*
X-1539127Y19421543D01*
X-1540920Y19400300D01*
X-1543663Y19377772D01*
X-1547518Y19352955D01*
X-1552647Y19324845D01*
X-1559210Y19292438D01*
X-1567370Y19254731D01*
X-1577289Y19210718D01*
X-1581507Y19192332D01*
X-1610020Y19078919D01*
X-1643815Y18962740D01*
X-1682226Y18845652D01*
X-1724586Y18729511D01*
X-1770228Y18616174D01*
X-1818487Y18507498D01*
X-1852897Y18436329D01*
X-1867382Y18408802D01*
X-1880176Y18387771D01*
X-1892090Y18372199D01*
X-1903932Y18361047D01*
X-1916512Y18353278D01*
X-1918369Y18352405D01*
X-1936403Y18346430D01*
X-1953227Y18346482D01*
X-1967468Y18350437D01*
X-1987180Y18361291D01*
X-2007427Y18379612D01*
X-2027772Y18404992D01*
X-2031073Y18409778D01*
X-2085147Y18483010D01*
X-2144351Y18550478D01*
X-2208392Y18611940D01*
X-2276978Y18667156D01*
X-2349814Y18715882D01*
X-2426610Y18757877D01*
X-2483160Y18783385D01*
X-2514351Y18795730D01*
X-2545744Y18806950D01*
X-2579365Y18817700D01*
X-2617242Y18828637D01*
X-2650180Y18837493D01*
X-2668423Y18842805D01*
X-2681471Y18848220D01*
X-2691972Y18855059D01*
X-2700393Y18862512D01*
X-2713832Y18878075D01*
X-2721911Y18894462D01*
X-2724674Y18912773D01*
X-2722166Y18934105D01*
X-2714431Y18959557D01*
X-2705236Y18981988D01*
X-2655792Y19102507D01*
X-2612510Y19226796D01*
X-2575210Y19355438D01*
X-2543710Y19489015D01*
X-2537426Y19519696D01*
X-2530325Y19554379D01*
X-2524013Y19582760D01*
X-2518041Y19606379D01*
X-2511964Y19626773D01*
X-2505335Y19645482D01*
X-2497705Y19664044D01*
X-2491481Y19677882D01*
X-2462742Y19730863D01*
X-2427597Y19779930D01*
X-2386775Y19824514D01*
X-2341004Y19864042D01*
X-2291012Y19897943D01*
X-2237528Y19925646D01*
X-2181281Y19946580D01*
X-2133961Y19958227D01*
X-2071202Y19966351D01*
X-2009573Y19966888D01*
X-1949558Y19960164D01*
G36*
X-1949558Y19960164D02*
G01*
X-1891642Y19946505D01*
X-1836313Y19926235D01*
X-1784054Y19899680D01*
X-1735351Y19867164D01*
X-1690690Y19829014D01*
X-1650555Y19785554D01*
X-1615434Y19737109D01*
X-1585810Y19684005D01*
X-1562169Y19626567D01*
X-1544997Y19565120D01*
X-1544628Y19563410D01*
X-1541446Y19545728D01*
X-1539322Y19526486D01*
X-1538125Y19503787D01*
X-1537723Y19475739D01*
X-1537746Y19464191D01*
X-1538123Y19442506D01*
X-1539127Y19421543D01*
X-1540920Y19400300D01*
X-1543663Y19377772D01*
X-1547518Y19352955D01*
X-1552647Y19324845D01*
X-1559210Y19292438D01*
X-1567370Y19254731D01*
X-1577289Y19210718D01*
X-1581507Y19192332D01*
X-1610020Y19078919D01*
X-1643815Y18962740D01*
X-1682226Y18845652D01*
X-1724586Y18729511D01*
X-1770228Y18616174D01*
X-1818487Y18507498D01*
X-1852897Y18436329D01*
X-1867382Y18408802D01*
X-1880176Y18387771D01*
X-1892090Y18372199D01*
X-1903932Y18361047D01*
X-1916512Y18353278D01*
X-1918369Y18352405D01*
X-1936403Y18346430D01*
X-1953227Y18346482D01*
X-1967468Y18350437D01*
X-1987180Y18361291D01*
X-2007427Y18379612D01*
X-2027772Y18404992D01*
X-2031073Y18409778D01*
X-2085147Y18483010D01*
X-2144351Y18550478D01*
X-2208392Y18611940D01*
X-2276978Y18667156D01*
X-2349814Y18715882D01*
X-2426610Y18757877D01*
X-2483160Y18783385D01*
X-2514351Y18795730D01*
X-2545744Y18806950D01*
X-2579365Y18817700D01*
X-2617242Y18828637D01*
X-2650180Y18837493D01*
X-2668423Y18842805D01*
X-2681471Y18848220D01*
X-2691972Y18855059D01*
X-2700393Y18862512D01*
X-2713832Y18878075D01*
X-2721911Y18894462D01*
X-2724674Y18912773D01*
X-2722166Y18934105D01*
X-2714431Y18959557D01*
X-2705236Y18981988D01*
X-2655792Y19102507D01*
X-2612510Y19226796D01*
X-2575210Y19355438D01*
X-2543710Y19489015D01*
X-2537426Y19519696D01*
X-2530325Y19554379D01*
X-2524013Y19582760D01*
X-2518041Y19606379D01*
X-2511964Y19626773D01*
X-2505335Y19645482D01*
X-2497705Y19664044D01*
X-2491481Y19677882D01*
X-2462742Y19730863D01*
X-2427597Y19779930D01*
X-2386775Y19824514D01*
X-2341004Y19864042D01*
X-2291012Y19897943D01*
X-2237528Y19925646D01*
X-2181281Y19946580D01*
X-2133961Y19958227D01*
X-2071202Y19966351D01*
X-2009573Y19966888D01*
X-1949558Y19960164D01*
G37*
X-2493080Y18462211D02*
X-2475996Y18461544D01*
X-2462479Y18460273D01*
X-2451804Y18458343D01*
X-2443241Y18455698D01*
X-2436066Y18452281D01*
X-2429548Y18448039D01*
X-2422962Y18442913D01*
X-2419690Y18440229D01*
X-2408818Y18428719D01*
X-2398500Y18413529D01*
X-2390198Y18397310D01*
X-2385378Y18382710D01*
X-2384731Y18376966D01*
X-2383862Y18371124D01*
X-2381375Y18358361D01*
X-2377445Y18339491D01*
X-2372249Y18315325D01*
X-2365964Y18286675D01*
X-2358765Y18254354D01*
X-2350829Y18219173D01*
X-2343059Y18185110D01*
X-2332429Y18138495D01*
X-2323568Y18098903D01*
X-2316374Y18065643D01*
X-2310745Y18038024D01*
X-2306578Y18015356D01*
X-2303773Y17996948D01*
X-2302227Y17982109D01*
X-2301838Y17970147D01*
X-2302505Y17960373D01*
X-2304125Y17952095D01*
X-2306597Y17944622D01*
X-2307332Y17942808D01*
X-2319147Y17922742D01*
X-2336065Y17904490D01*
X-2354590Y17891432D01*
X-2372955Y17885112D01*
X-2395198Y17882433D01*
X-2418164Y17883396D01*
X-2438699Y17888004D01*
X-2446518Y17891378D01*
X-2462601Y17902392D01*
X-2477976Y17917152D01*
X-2490130Y17933020D01*
X-2494924Y17942204D01*
X-2497256Y17949646D01*
X-2500953Y17963447D01*
X-2505667Y17982220D01*
X-2511051Y18004573D01*
X-2516756Y18029117D01*
X-2517679Y18033173D01*
X-2523140Y18057056D01*
X-2528037Y18078150D01*
X-2532091Y18095287D01*
X-2535027Y18107298D01*
X-2536567Y18113018D01*
X-2536699Y18113325D01*
X-2539388Y18110757D01*
X-2546119Y18102976D01*
X-2556031Y18091012D01*
X-2568266Y18075896D01*
X-2576173Y18065984D01*
X-2675778Y17946849D01*
X-2781374Y17832920D01*
X-2892952Y17724206D01*
X-3010506Y17620713D01*
X-3070383Y17571834D01*
X-3087489Y17557936D01*
X-3101915Y17545680D01*
X-3112713Y17535918D01*
X-3118935Y17529498D01*
X-3119992Y17527348D01*
X-3115406Y17525659D01*
X-3104277Y17522380D01*
X-3087771Y17517830D01*
X-3067049Y17512327D01*
X-3043275Y17506189D01*
X-3033622Y17503741D01*
X-3002672Y17495884D01*
X-2978372Y17489536D01*
X-2959665Y17484310D01*
X-2945494Y17479818D01*
X-2934802Y17475674D01*
X-2926530Y17471491D01*
X-2919621Y17466882D01*
X-2913018Y17461460D01*
X-2909519Y17458340D01*
X-2892287Y17437879D01*
X-2881611Y17414546D01*
X-2877307Y17389654D01*
X-2879187Y17364519D01*
X-2887067Y17340456D01*
X-2900759Y17318779D01*
X-2920078Y17300803D01*
X-2932907Y17293036D01*
X-2944041Y17288005D01*
X-2955193Y17284697D01*
X-2967466Y17283198D01*
X-2981962Y17283597D01*
X-2999784Y17285979D01*
X-3022034Y17290433D01*
X-3049815Y17297045D01*
X-3079262Y17304600D01*
X-3107506Y17311969D01*
X-3141348Y17320769D01*
X-3178698Y17330457D01*
X-3217465Y17340492D01*
X-3255558Y17350331D01*
X-3289340Y17359036D01*
X-3326219Y17368612D01*
X-3356249Y17376696D01*
X-3380296Y17383658D01*
X-3399227Y17389866D01*
X-3413910Y17395691D01*
X-3425212Y17401500D01*
X-3433998Y17407664D01*
X-3441137Y17414551D01*
X-3447495Y17422531D01*
X-3451296Y17427997D01*
X-3455259Y17434075D01*
X-3458568Y17440016D01*
X-3461243Y17446514D01*
X-3463304Y17454259D01*
X-3464770Y17463944D01*
X-3465662Y17476261D01*
X-3465999Y17491901D01*
X-3465802Y17511557D01*
X-3465090Y17535921D01*
X-3463883Y17565684D01*
X-3462202Y17601539D01*
X-3460066Y17644178D01*
X-3458438Y17675936D01*
X-3456329Y17715785D01*
X-3454210Y17753613D01*
X-3452136Y17788603D01*
X-3450160Y17819940D01*
X-3448335Y17846809D01*
X-3446716Y17868394D01*
X-3445356Y17883879D01*
X-3444309Y17892449D01*
X-3444109Y17893391D01*
X-3434152Y17916679D01*
X-3418578Y17935718D01*
X-3398698Y17950141D01*
X-3375820Y17959577D01*
X-3351253Y17963659D01*
X-3326306Y17962017D01*
X-3302289Y17954282D01*
X-3280510Y17940085D01*
X-3280003Y17939642D01*
X-3265619Y17923598D01*
X-3254457Y17904888D01*
X-3253901Y17903630D01*
X-3250688Y17895776D01*
X-3248404Y17888518D01*
X-3246954Y17880438D01*
X-3246238Y17870118D01*
X-3246160Y17856139D01*
X-3246622Y17837082D01*
X-3247526Y17811529D01*
X-3247538Y17811207D01*
X-3248562Y17786056D01*
X-3249707Y17761690D01*
X-3250872Y17740022D01*
X-3251957Y17722968D01*
X-3252641Y17714506D01*
X-3253610Y17704568D01*
X-3253823Y17697577D01*
X-3252510Y17693805D01*
X-3248906Y17693522D01*
X-3242243Y17697001D01*
X-3231754Y17704513D01*
X-3216671Y17716328D01*
X-3196226Y17732718D01*
X-3192372Y17735811D01*
X-3109296Y17805233D01*
X-3027210Y17879264D01*
X-2947314Y17956677D01*
X-2870808Y18036245D01*
X-2798892Y18116741D01*
X-2732764Y18196937D01*
X-2700154Y18239328D01*
X-2688638Y18254698D01*
X-2724208Y18252164D01*
X-2741251Y18251201D01*
X-2763702Y18250292D01*
X-2789031Y18249522D01*
X-2814708Y18248975D01*
X-2823278Y18248852D01*
X-2848460Y18248681D01*
X-2867162Y18248951D01*
X-2880834Y18249777D01*
X-2890926Y18251271D01*
X-2898890Y18253546D01*
X-2902653Y18255068D01*
X-2925453Y18269238D01*
X-2943902Y18288973D01*
X-2956941Y18312655D01*
X-2963511Y18338664D01*
X-2964091Y18348972D01*
X-2960457Y18374695D01*
X-2950304Y18398979D01*
X-2934755Y18420093D01*
X-2914934Y18436308D01*
X-2903621Y18442100D01*
X-2898783Y18443995D01*
X-2893587Y18445636D01*
X-2887365Y18447067D01*
X-2879449Y18448334D01*
X-2869173Y18449480D01*
X-2855868Y18450550D01*
X-2838867Y18451588D01*
X-2817501Y18452639D01*
X-2791105Y18453746D01*
X-2759009Y18454954D01*
X-2720547Y18456307D01*
X-2675051Y18457850D01*
X-2657490Y18458438D01*
X-2611652Y18459954D01*
X-2573019Y18461146D01*
X-2540865Y18461956D01*
X-2514461Y18462330D01*
X-2493080Y18462211D01*
G36*
X-2493080Y18462211D02*
G01*
X-2475996Y18461544D01*
X-2462479Y18460273D01*
X-2451804Y18458343D01*
X-2443241Y18455698D01*
X-2436066Y18452281D01*
X-2429548Y18448039D01*
X-2422962Y18442913D01*
X-2419690Y18440229D01*
X-2408818Y18428719D01*
X-2398500Y18413529D01*
X-2390198Y18397310D01*
X-2385378Y18382710D01*
X-2384731Y18376966D01*
X-2383862Y18371124D01*
X-2381375Y18358361D01*
X-2377445Y18339491D01*
X-2372249Y18315325D01*
X-2365964Y18286675D01*
X-2358765Y18254354D01*
X-2350829Y18219173D01*
X-2343059Y18185110D01*
X-2332429Y18138495D01*
X-2323568Y18098903D01*
X-2316374Y18065643D01*
X-2310745Y18038024D01*
X-2306578Y18015356D01*
X-2303773Y17996948D01*
X-2302227Y17982109D01*
X-2301838Y17970147D01*
X-2302505Y17960373D01*
X-2304125Y17952095D01*
X-2306597Y17944622D01*
X-2307332Y17942808D01*
X-2319147Y17922742D01*
X-2336065Y17904490D01*
X-2354590Y17891432D01*
X-2372955Y17885112D01*
X-2395198Y17882433D01*
X-2418164Y17883396D01*
X-2438699Y17888004D01*
X-2446518Y17891378D01*
X-2462601Y17902392D01*
X-2477976Y17917152D01*
X-2490130Y17933020D01*
X-2494924Y17942204D01*
X-2497256Y17949646D01*
X-2500953Y17963447D01*
X-2505667Y17982220D01*
X-2511051Y18004573D01*
X-2516756Y18029117D01*
X-2517679Y18033173D01*
X-2523140Y18057056D01*
X-2528037Y18078150D01*
X-2532091Y18095287D01*
X-2535027Y18107298D01*
X-2536567Y18113018D01*
X-2536699Y18113325D01*
X-2539388Y18110757D01*
X-2546119Y18102976D01*
X-2556031Y18091012D01*
X-2568266Y18075896D01*
X-2576173Y18065984D01*
X-2675778Y17946849D01*
X-2781374Y17832920D01*
X-2892952Y17724206D01*
X-3010506Y17620713D01*
X-3070383Y17571834D01*
X-3087489Y17557936D01*
X-3101915Y17545680D01*
X-3112713Y17535918D01*
X-3118935Y17529498D01*
X-3119992Y17527348D01*
X-3115406Y17525659D01*
X-3104277Y17522380D01*
X-3087771Y17517830D01*
X-3067049Y17512327D01*
X-3043275Y17506189D01*
X-3033622Y17503741D01*
X-3002672Y17495884D01*
X-2978372Y17489536D01*
X-2959665Y17484310D01*
X-2945494Y17479818D01*
X-2934802Y17475674D01*
X-2926530Y17471491D01*
X-2919621Y17466882D01*
X-2913018Y17461460D01*
X-2909519Y17458340D01*
X-2892287Y17437879D01*
X-2881611Y17414546D01*
X-2877307Y17389654D01*
X-2879187Y17364519D01*
X-2887067Y17340456D01*
X-2900759Y17318779D01*
X-2920078Y17300803D01*
X-2932907Y17293036D01*
X-2944041Y17288005D01*
X-2955193Y17284697D01*
X-2967466Y17283198D01*
X-2981962Y17283597D01*
X-2999784Y17285979D01*
X-3022034Y17290433D01*
X-3049815Y17297045D01*
X-3079262Y17304600D01*
X-3107506Y17311969D01*
X-3141348Y17320769D01*
X-3178698Y17330457D01*
X-3217465Y17340492D01*
X-3255558Y17350331D01*
X-3289340Y17359036D01*
X-3326219Y17368612D01*
X-3356249Y17376696D01*
X-3380296Y17383658D01*
X-3399227Y17389866D01*
X-3413910Y17395691D01*
X-3425212Y17401500D01*
X-3433998Y17407664D01*
X-3441137Y17414551D01*
X-3447495Y17422531D01*
X-3451296Y17427997D01*
X-3455259Y17434075D01*
X-3458568Y17440016D01*
X-3461243Y17446514D01*
X-3463304Y17454259D01*
X-3464770Y17463944D01*
X-3465662Y17476261D01*
X-3465999Y17491901D01*
X-3465802Y17511557D01*
X-3465090Y17535921D01*
X-3463883Y17565684D01*
X-3462202Y17601539D01*
X-3460066Y17644178D01*
X-3458438Y17675936D01*
X-3456329Y17715785D01*
X-3454210Y17753613D01*
X-3452136Y17788603D01*
X-3450160Y17819940D01*
X-3448335Y17846809D01*
X-3446716Y17868394D01*
X-3445356Y17883879D01*
X-3444309Y17892449D01*
X-3444109Y17893391D01*
X-3434152Y17916679D01*
X-3418578Y17935718D01*
X-3398698Y17950141D01*
X-3375820Y17959577D01*
X-3351253Y17963659D01*
X-3326306Y17962017D01*
X-3302289Y17954282D01*
X-3280510Y17940085D01*
X-3280003Y17939642D01*
X-3265619Y17923598D01*
X-3254457Y17904888D01*
X-3253901Y17903630D01*
X-3250688Y17895776D01*
X-3248404Y17888518D01*
X-3246954Y17880438D01*
X-3246238Y17870118D01*
X-3246160Y17856139D01*
X-3246622Y17837082D01*
X-3247526Y17811529D01*
X-3247538Y17811207D01*
X-3248562Y17786056D01*
X-3249707Y17761690D01*
X-3250872Y17740022D01*
X-3251957Y17722968D01*
X-3252641Y17714506D01*
X-3253610Y17704568D01*
X-3253823Y17697577D01*
X-3252510Y17693805D01*
X-3248906Y17693522D01*
X-3242243Y17697001D01*
X-3231754Y17704513D01*
X-3216671Y17716328D01*
X-3196226Y17732718D01*
X-3192372Y17735811D01*
X-3109296Y17805233D01*
X-3027210Y17879264D01*
X-2947314Y17956677D01*
X-2870808Y18036245D01*
X-2798892Y18116741D01*
X-2732764Y18196937D01*
X-2700154Y18239328D01*
X-2688638Y18254698D01*
X-2724208Y18252164D01*
X-2741251Y18251201D01*
X-2763702Y18250292D01*
X-2789031Y18249522D01*
X-2814708Y18248975D01*
X-2823278Y18248852D01*
X-2848460Y18248681D01*
X-2867162Y18248951D01*
X-2880834Y18249777D01*
X-2890926Y18251271D01*
X-2898890Y18253546D01*
X-2902653Y18255068D01*
X-2925453Y18269238D01*
X-2943902Y18288973D01*
X-2956941Y18312655D01*
X-2963511Y18338664D01*
X-2964091Y18348972D01*
X-2960457Y18374695D01*
X-2950304Y18398979D01*
X-2934755Y18420093D01*
X-2914934Y18436308D01*
X-2903621Y18442100D01*
X-2898783Y18443995D01*
X-2893587Y18445636D01*
X-2887365Y18447067D01*
X-2879449Y18448334D01*
X-2869173Y18449480D01*
X-2855868Y18450550D01*
X-2838867Y18451588D01*
X-2817501Y18452639D01*
X-2791105Y18453746D01*
X-2759009Y18454954D01*
X-2720547Y18456307D01*
X-2675051Y18457850D01*
X-2657490Y18458438D01*
X-2611652Y18459954D01*
X-2573019Y18461146D01*
X-2540865Y18461956D01*
X-2514461Y18462330D01*
X-2493080Y18462211D01*
G37*
%TO.C,MH3*%
X-1928506Y-18363138D02*
X-1911772Y-18369471D01*
X-1896147Y-18380908D01*
X-1880922Y-18398107D01*
X-1865387Y-18421729D01*
X-1848836Y-18452432D01*
X-1848679Y-18452743D01*
X-1791282Y-18574332D01*
X-1737855Y-18701980D01*
X-1688736Y-18834690D01*
X-1644262Y-18971466D01*
X-1604771Y-19111310D01*
X-1570599Y-19253224D01*
X-1558186Y-19311864D01*
X-1547379Y-19371341D01*
X-1540466Y-19424475D01*
X-1537409Y-19471817D01*
X-1538170Y-19513920D01*
X-1542040Y-19547507D01*
X-1556533Y-19610942D01*
X-1577909Y-19670724D01*
X-1605930Y-19726502D01*
X-1640355Y-19777928D01*
X-1680946Y-19824650D01*
X-1727463Y-19866318D01*
X-1779668Y-19902583D01*
X-1787978Y-19907537D01*
X-1840693Y-19933832D01*
X-1896925Y-19953542D01*
X-1955607Y-19966561D01*
X-2015670Y-19972782D01*
X-2076044Y-19972098D01*
X-2135662Y-19964403D01*
X-2193456Y-19949591D01*
X-2197273Y-19948329D01*
X-2253331Y-19925415D01*
X-2306281Y-19895615D01*
X-2355436Y-19859600D01*
X-2400110Y-19818037D01*
X-2439617Y-19771594D01*
X-2473270Y-19720941D01*
X-2500383Y-19666745D01*
X-2509057Y-19644736D01*
X-2513607Y-19630447D01*
X-2519138Y-19610225D01*
X-2525185Y-19585941D01*
X-2531282Y-19559465D01*
X-2536963Y-19532671D01*
X-2537051Y-19532232D01*
X-2558678Y-19432503D01*
X-2582269Y-19338735D01*
X-2608385Y-19249080D01*
X-2637586Y-19161685D01*
X-2670432Y-19074702D01*
X-2689984Y-19027005D01*
X-2703664Y-18992497D01*
X-2713040Y-18963665D01*
X-2718165Y-18939548D01*
X-2719093Y-18919190D01*
X-2715878Y-18901631D01*
X-2708573Y-18885911D01*
X-2698622Y-18872631D01*
X-2689672Y-18863366D01*
X-2679962Y-18855700D01*
X-2668106Y-18848964D01*
X-2652714Y-18842488D01*
X-2632401Y-18835601D01*
X-2605778Y-18827634D01*
X-2604892Y-18827378D01*
X-2548101Y-18809694D01*
X-2496370Y-18790649D01*
X-2446827Y-18769122D01*
X-2413766Y-18752928D01*
X-2338632Y-18710190D01*
X-2267054Y-18660666D01*
X-2199758Y-18604986D01*
X-2137473Y-18543782D01*
X-2080926Y-18477685D01*
X-2053164Y-18440364D01*
X-2031231Y-18411566D01*
X-2010897Y-18389815D01*
X-1991436Y-18374570D01*
X-1972119Y-18365290D01*
X-1952222Y-18361431D01*
X-1947057Y-18361250D01*
X-1928506Y-18363138D01*
G36*
X-1928506Y-18363138D02*
G01*
X-1911772Y-18369471D01*
X-1896147Y-18380908D01*
X-1880922Y-18398107D01*
X-1865387Y-18421729D01*
X-1848836Y-18452432D01*
X-1848679Y-18452743D01*
X-1791282Y-18574332D01*
X-1737855Y-18701980D01*
X-1688736Y-18834690D01*
X-1644262Y-18971466D01*
X-1604771Y-19111310D01*
X-1570599Y-19253224D01*
X-1558186Y-19311864D01*
X-1547379Y-19371341D01*
X-1540466Y-19424475D01*
X-1537409Y-19471817D01*
X-1538170Y-19513920D01*
X-1542040Y-19547507D01*
X-1556533Y-19610942D01*
X-1577909Y-19670724D01*
X-1605930Y-19726502D01*
X-1640355Y-19777928D01*
X-1680946Y-19824650D01*
X-1727463Y-19866318D01*
X-1779668Y-19902583D01*
X-1787978Y-19907537D01*
X-1840693Y-19933832D01*
X-1896925Y-19953542D01*
X-1955607Y-19966561D01*
X-2015670Y-19972782D01*
X-2076044Y-19972098D01*
X-2135662Y-19964403D01*
X-2193456Y-19949591D01*
X-2197273Y-19948329D01*
X-2253331Y-19925415D01*
X-2306281Y-19895615D01*
X-2355436Y-19859600D01*
X-2400110Y-19818037D01*
X-2439617Y-19771594D01*
X-2473270Y-19720941D01*
X-2500383Y-19666745D01*
X-2509057Y-19644736D01*
X-2513607Y-19630447D01*
X-2519138Y-19610225D01*
X-2525185Y-19585941D01*
X-2531282Y-19559465D01*
X-2536963Y-19532671D01*
X-2537051Y-19532232D01*
X-2558678Y-19432503D01*
X-2582269Y-19338735D01*
X-2608385Y-19249080D01*
X-2637586Y-19161685D01*
X-2670432Y-19074702D01*
X-2689984Y-19027005D01*
X-2703664Y-18992497D01*
X-2713040Y-18963665D01*
X-2718165Y-18939548D01*
X-2719093Y-18919190D01*
X-2715878Y-18901631D01*
X-2708573Y-18885911D01*
X-2698622Y-18872631D01*
X-2689672Y-18863366D01*
X-2679962Y-18855700D01*
X-2668106Y-18848964D01*
X-2652714Y-18842488D01*
X-2632401Y-18835601D01*
X-2605778Y-18827634D01*
X-2604892Y-18827378D01*
X-2548101Y-18809694D01*
X-2496370Y-18790649D01*
X-2446827Y-18769122D01*
X-2413766Y-18752928D01*
X-2338632Y-18710190D01*
X-2267054Y-18660666D01*
X-2199758Y-18604986D01*
X-2137473Y-18543782D01*
X-2080926Y-18477685D01*
X-2053164Y-18440364D01*
X-2031231Y-18411566D01*
X-2010897Y-18389815D01*
X-1991436Y-18374570D01*
X-1972119Y-18365290D01*
X-1952222Y-18361431D01*
X-1947057Y-18361250D01*
X-1928506Y-18363138D01*
G37*
X-4469382Y-16539537D02*
X-4447697Y-16539914D01*
X-4426734Y-16540918D01*
X-4405491Y-16542711D01*
X-4382963Y-16545454D01*
X-4358146Y-16549309D01*
X-4330036Y-16554438D01*
X-4297629Y-16561001D01*
X-4259922Y-16569161D01*
X-4215909Y-16579080D01*
X-4197523Y-16583298D01*
X-4084110Y-16611811D01*
X-3967931Y-16645606D01*
X-3850843Y-16684017D01*
X-3734702Y-16726377D01*
X-3621365Y-16772019D01*
X-3512689Y-16820278D01*
X-3441520Y-16854688D01*
X-3413993Y-16869173D01*
X-3392962Y-16881967D01*
X-3377390Y-16893881D01*
X-3366238Y-16905723D01*
X-3358469Y-16918303D01*
X-3357596Y-16920160D01*
X-3351621Y-16938194D01*
X-3351673Y-16955018D01*
X-3355628Y-16969259D01*
X-3366482Y-16988971D01*
X-3384803Y-17009218D01*
X-3410183Y-17029563D01*
X-3414969Y-17032864D01*
X-3488201Y-17086938D01*
X-3555669Y-17146142D01*
X-3617131Y-17210183D01*
X-3672347Y-17278769D01*
X-3721073Y-17351605D01*
X-3763068Y-17428401D01*
X-3788576Y-17484951D01*
X-3800921Y-17516142D01*
X-3812141Y-17547535D01*
X-3822891Y-17581156D01*
X-3833828Y-17619033D01*
X-3842684Y-17651971D01*
X-3847996Y-17670214D01*
X-3853411Y-17683262D01*
X-3860250Y-17693763D01*
X-3867703Y-17702184D01*
X-3883266Y-17715623D01*
X-3899653Y-17723702D01*
X-3917964Y-17726465D01*
X-3939296Y-17723957D01*
X-3964748Y-17716222D01*
X-3987179Y-17707027D01*
X-4107698Y-17657583D01*
X-4231987Y-17614301D01*
X-4360629Y-17577001D01*
X-4494206Y-17545501D01*
X-4524887Y-17539217D01*
X-4559570Y-17532116D01*
X-4587951Y-17525804D01*
X-4611570Y-17519832D01*
X-4631964Y-17513755D01*
X-4650673Y-17507126D01*
X-4669235Y-17499496D01*
X-4683073Y-17493272D01*
X-4736054Y-17464533D01*
X-4785121Y-17429388D01*
X-4829705Y-17388566D01*
X-4869233Y-17342795D01*
X-4903134Y-17292803D01*
X-4930837Y-17239319D01*
X-4951771Y-17183072D01*
X-4963418Y-17135752D01*
X-4971542Y-17072993D01*
X-4972079Y-17011364D01*
X-4965355Y-16951349D01*
X-4951696Y-16893433D01*
X-4931426Y-16838104D01*
X-4904871Y-16785845D01*
X-4872355Y-16737142D01*
X-4834205Y-16692481D01*
X-4790745Y-16652346D01*
X-4742300Y-16617225D01*
X-4689196Y-16587601D01*
X-4631758Y-16563960D01*
X-4570311Y-16546788D01*
X-4568601Y-16546419D01*
X-4550919Y-16543237D01*
X-4531677Y-16541113D01*
X-4508978Y-16539916D01*
X-4480930Y-16539514D01*
X-4469382Y-16539537D01*
G36*
X-4469382Y-16539537D02*
G01*
X-4447697Y-16539914D01*
X-4426734Y-16540918D01*
X-4405491Y-16542711D01*
X-4382963Y-16545454D01*
X-4358146Y-16549309D01*
X-4330036Y-16554438D01*
X-4297629Y-16561001D01*
X-4259922Y-16569161D01*
X-4215909Y-16579080D01*
X-4197523Y-16583298D01*
X-4084110Y-16611811D01*
X-3967931Y-16645606D01*
X-3850843Y-16684017D01*
X-3734702Y-16726377D01*
X-3621365Y-16772019D01*
X-3512689Y-16820278D01*
X-3441520Y-16854688D01*
X-3413993Y-16869173D01*
X-3392962Y-16881967D01*
X-3377390Y-16893881D01*
X-3366238Y-16905723D01*
X-3358469Y-16918303D01*
X-3357596Y-16920160D01*
X-3351621Y-16938194D01*
X-3351673Y-16955018D01*
X-3355628Y-16969259D01*
X-3366482Y-16988971D01*
X-3384803Y-17009218D01*
X-3410183Y-17029563D01*
X-3414969Y-17032864D01*
X-3488201Y-17086938D01*
X-3555669Y-17146142D01*
X-3617131Y-17210183D01*
X-3672347Y-17278769D01*
X-3721073Y-17351605D01*
X-3763068Y-17428401D01*
X-3788576Y-17484951D01*
X-3800921Y-17516142D01*
X-3812141Y-17547535D01*
X-3822891Y-17581156D01*
X-3833828Y-17619033D01*
X-3842684Y-17651971D01*
X-3847996Y-17670214D01*
X-3853411Y-17683262D01*
X-3860250Y-17693763D01*
X-3867703Y-17702184D01*
X-3883266Y-17715623D01*
X-3899653Y-17723702D01*
X-3917964Y-17726465D01*
X-3939296Y-17723957D01*
X-3964748Y-17716222D01*
X-3987179Y-17707027D01*
X-4107698Y-17657583D01*
X-4231987Y-17614301D01*
X-4360629Y-17577001D01*
X-4494206Y-17545501D01*
X-4524887Y-17539217D01*
X-4559570Y-17532116D01*
X-4587951Y-17525804D01*
X-4611570Y-17519832D01*
X-4631964Y-17513755D01*
X-4650673Y-17507126D01*
X-4669235Y-17499496D01*
X-4683073Y-17493272D01*
X-4736054Y-17464533D01*
X-4785121Y-17429388D01*
X-4829705Y-17388566D01*
X-4869233Y-17342795D01*
X-4903134Y-17292803D01*
X-4930837Y-17239319D01*
X-4951771Y-17183072D01*
X-4963418Y-17135752D01*
X-4971542Y-17072993D01*
X-4972079Y-17011364D01*
X-4965355Y-16951349D01*
X-4951696Y-16893433D01*
X-4931426Y-16838104D01*
X-4904871Y-16785845D01*
X-4872355Y-16737142D01*
X-4834205Y-16692481D01*
X-4790745Y-16652346D01*
X-4742300Y-16617225D01*
X-4689196Y-16587601D01*
X-4631758Y-16563960D01*
X-4570311Y-16546788D01*
X-4568601Y-16546419D01*
X-4550919Y-16543237D01*
X-4531677Y-16541113D01*
X-4508978Y-16539916D01*
X-4480930Y-16539514D01*
X-4469382Y-16539537D01*
G37*
X-3113706Y-17496944D02*
X-3103689Y-17499701D01*
X-3097802Y-17501893D01*
X-3091812Y-17504868D01*
X-3085087Y-17509183D01*
X-3076996Y-17515397D01*
X-3066906Y-17524068D01*
X-3054186Y-17535754D01*
X-3038203Y-17551014D01*
X-3018325Y-17570404D01*
X-2993921Y-17594483D01*
X-2974157Y-17614080D01*
X-2866011Y-17721433D01*
X-2759845Y-17616232D01*
X-2731277Y-17588145D01*
X-2705522Y-17563269D01*
X-2683075Y-17542058D01*
X-2664428Y-17524971D01*
X-2650076Y-17512464D01*
X-2640513Y-17504993D01*
X-2637804Y-17503347D01*
X-2619653Y-17497707D01*
X-2597647Y-17495447D01*
X-2574938Y-17496528D01*
X-2554679Y-17500911D01*
X-2546147Y-17504489D01*
X-2526917Y-17518143D01*
X-2510139Y-17536514D01*
X-2498889Y-17555827D01*
X-2494821Y-17571697D01*
X-2493195Y-17591689D01*
X-2494004Y-17612373D01*
X-2497238Y-17630321D01*
X-2499093Y-17635689D01*
X-2504005Y-17643205D01*
X-2514648Y-17656014D01*
X-2530930Y-17674015D01*
X-2552756Y-17697108D01*
X-2580035Y-17725192D01*
X-2612673Y-17758167D01*
X-2613064Y-17758559D01*
X-2720887Y-17866673D01*
X-2615058Y-17972974D01*
X-2584116Y-18004238D01*
X-2558609Y-18030431D01*
X-2538195Y-18051925D01*
X-2522533Y-18069093D01*
X-2511280Y-18082307D01*
X-2504096Y-18091939D01*
X-2501173Y-18097031D01*
X-2494104Y-18121344D01*
X-2493008Y-18147931D01*
X-2497820Y-18173913D01*
X-2503224Y-18187437D01*
X-2518879Y-18210652D01*
X-2539503Y-18227874D01*
X-2562126Y-18237933D01*
X-2579823Y-18242314D01*
X-2594838Y-18243348D01*
X-2610844Y-18241009D01*
X-2624185Y-18237471D01*
X-2629927Y-18235599D01*
X-2635561Y-18233123D01*
X-2641713Y-18229495D01*
X-2649007Y-18224164D01*
X-2658067Y-18216580D01*
X-2669517Y-18206195D01*
X-2683982Y-18192456D01*
X-2702086Y-18174816D01*
X-2724453Y-18152724D01*
X-2751707Y-18125630D01*
X-2755874Y-18121480D01*
X-2866007Y-18011789D01*
X-2976140Y-18121480D01*
X-3004116Y-18149305D01*
X-3027118Y-18172053D01*
X-3045771Y-18190273D01*
X-3060700Y-18204516D01*
X-3072528Y-18215330D01*
X-3081879Y-18223266D01*
X-3089379Y-18228875D01*
X-3095651Y-18232705D01*
X-3101320Y-18235306D01*
X-3107010Y-18237229D01*
X-3107829Y-18237471D01*
X-3126610Y-18242124D01*
X-3141901Y-18243383D01*
X-3157373Y-18241278D01*
X-3169888Y-18237933D01*
X-3194545Y-18226692D01*
X-3214425Y-18209602D01*
X-3228856Y-18187607D01*
X-3237166Y-18161652D01*
X-3238982Y-18140798D01*
X-3238748Y-18129644D01*
X-3237797Y-18119682D01*
X-3235633Y-18110230D01*
X-3231761Y-18100607D01*
X-3225687Y-18090132D01*
X-3216914Y-18078124D01*
X-3204948Y-18063903D01*
X-3189294Y-18046786D01*
X-3169456Y-18026095D01*
X-3144940Y-18001146D01*
X-3116956Y-17972974D01*
X-3011127Y-17866673D01*
X-3118789Y-17758559D01*
X-3151189Y-17725807D01*
X-3177947Y-17698278D01*
X-3199233Y-17675790D01*
X-3215216Y-17658158D01*
X-3226067Y-17645200D01*
X-3231953Y-17636730D01*
X-3232760Y-17635077D01*
X-3238627Y-17611156D01*
X-3238409Y-17585114D01*
X-3232552Y-17559340D01*
X-3221501Y-17536224D01*
X-3212046Y-17524073D01*
X-3191856Y-17508280D01*
X-3167562Y-17498230D01*
X-3140924Y-17494320D01*
X-3113706Y-17496944D01*
G36*
X-3113706Y-17496944D02*
G01*
X-3103689Y-17499701D01*
X-3097802Y-17501893D01*
X-3091812Y-17504868D01*
X-3085087Y-17509183D01*
X-3076996Y-17515397D01*
X-3066906Y-17524068D01*
X-3054186Y-17535754D01*
X-3038203Y-17551014D01*
X-3018325Y-17570404D01*
X-2993921Y-17594483D01*
X-2974157Y-17614080D01*
X-2866011Y-17721433D01*
X-2759845Y-17616232D01*
X-2731277Y-17588145D01*
X-2705522Y-17563269D01*
X-2683075Y-17542058D01*
X-2664428Y-17524971D01*
X-2650076Y-17512464D01*
X-2640513Y-17504993D01*
X-2637804Y-17503347D01*
X-2619653Y-17497707D01*
X-2597647Y-17495447D01*
X-2574938Y-17496528D01*
X-2554679Y-17500911D01*
X-2546147Y-17504489D01*
X-2526917Y-17518143D01*
X-2510139Y-17536514D01*
X-2498889Y-17555827D01*
X-2494821Y-17571697D01*
X-2493195Y-17591689D01*
X-2494004Y-17612373D01*
X-2497238Y-17630321D01*
X-2499093Y-17635689D01*
X-2504005Y-17643205D01*
X-2514648Y-17656014D01*
X-2530930Y-17674015D01*
X-2552756Y-17697108D01*
X-2580035Y-17725192D01*
X-2612673Y-17758167D01*
X-2613064Y-17758559D01*
X-2720887Y-17866673D01*
X-2615058Y-17972974D01*
X-2584116Y-18004238D01*
X-2558609Y-18030431D01*
X-2538195Y-18051925D01*
X-2522533Y-18069093D01*
X-2511280Y-18082307D01*
X-2504096Y-18091939D01*
X-2501173Y-18097031D01*
X-2494104Y-18121344D01*
X-2493008Y-18147931D01*
X-2497820Y-18173913D01*
X-2503224Y-18187437D01*
X-2518879Y-18210652D01*
X-2539503Y-18227874D01*
X-2562126Y-18237933D01*
X-2579823Y-18242314D01*
X-2594838Y-18243348D01*
X-2610844Y-18241009D01*
X-2624185Y-18237471D01*
X-2629927Y-18235599D01*
X-2635561Y-18233123D01*
X-2641713Y-18229495D01*
X-2649007Y-18224164D01*
X-2658067Y-18216580D01*
X-2669517Y-18206195D01*
X-2683982Y-18192456D01*
X-2702086Y-18174816D01*
X-2724453Y-18152724D01*
X-2751707Y-18125630D01*
X-2755874Y-18121480D01*
X-2866007Y-18011789D01*
X-2976140Y-18121480D01*
X-3004116Y-18149305D01*
X-3027118Y-18172053D01*
X-3045771Y-18190273D01*
X-3060700Y-18204516D01*
X-3072528Y-18215330D01*
X-3081879Y-18223266D01*
X-3089379Y-18228875D01*
X-3095651Y-18232705D01*
X-3101320Y-18235306D01*
X-3107010Y-18237229D01*
X-3107829Y-18237471D01*
X-3126610Y-18242124D01*
X-3141901Y-18243383D01*
X-3157373Y-18241278D01*
X-3169888Y-18237933D01*
X-3194545Y-18226692D01*
X-3214425Y-18209602D01*
X-3228856Y-18187607D01*
X-3237166Y-18161652D01*
X-3238982Y-18140798D01*
X-3238748Y-18129644D01*
X-3237797Y-18119682D01*
X-3235633Y-18110230D01*
X-3231761Y-18100607D01*
X-3225687Y-18090132D01*
X-3216914Y-18078124D01*
X-3204948Y-18063903D01*
X-3189294Y-18046786D01*
X-3169456Y-18026095D01*
X-3144940Y-18001146D01*
X-3116956Y-17972974D01*
X-3011127Y-17866673D01*
X-3118789Y-17758559D01*
X-3151189Y-17725807D01*
X-3177947Y-17698278D01*
X-3199233Y-17675790D01*
X-3215216Y-17658158D01*
X-3226067Y-17645200D01*
X-3231953Y-17636730D01*
X-3232760Y-17635077D01*
X-3238627Y-17611156D01*
X-3238409Y-17585114D01*
X-3232552Y-17559340D01*
X-3221501Y-17536224D01*
X-3212046Y-17524073D01*
X-3191856Y-17508280D01*
X-3167562Y-17498230D01*
X-3140924Y-17494320D01*
X-3113706Y-17496944D01*
G37*
%TO.C,MH2*%
X2075573Y19972893D02*
X2135191Y19965198D01*
X2192985Y19950386D01*
X2196802Y19949124D01*
X2252860Y19926210D01*
X2305810Y19896410D01*
X2354965Y19860395D01*
X2399639Y19818832D01*
X2439146Y19772389D01*
X2472799Y19721736D01*
X2499912Y19667540D01*
X2508586Y19645531D01*
X2513136Y19631242D01*
X2518667Y19611020D01*
X2524714Y19586736D01*
X2530811Y19560260D01*
X2536492Y19533466D01*
X2536580Y19533027D01*
X2558207Y19433298D01*
X2581798Y19339530D01*
X2607914Y19249875D01*
X2637115Y19162480D01*
X2669961Y19075497D01*
X2689513Y19027800D01*
X2703193Y18993292D01*
X2712569Y18964460D01*
X2717694Y18940343D01*
X2718622Y18919985D01*
X2715407Y18902426D01*
X2708102Y18886706D01*
X2698151Y18873426D01*
X2689201Y18864161D01*
X2679491Y18856495D01*
X2667635Y18849759D01*
X2652243Y18843283D01*
X2631930Y18836396D01*
X2605307Y18828429D01*
X2604421Y18828173D01*
X2547630Y18810489D01*
X2495899Y18791444D01*
X2446356Y18769917D01*
X2413295Y18753723D01*
X2338161Y18710985D01*
X2266583Y18661461D01*
X2199287Y18605781D01*
X2137002Y18544577D01*
X2080455Y18478480D01*
X2052693Y18441159D01*
X2030760Y18412361D01*
X2010426Y18390610D01*
X1990965Y18375365D01*
X1971648Y18366085D01*
X1951751Y18362226D01*
X1946586Y18362045D01*
X1928035Y18363933D01*
X1911301Y18370266D01*
X1895676Y18381703D01*
X1880451Y18398902D01*
X1864916Y18422524D01*
X1848365Y18453227D01*
X1848208Y18453538D01*
X1790811Y18575127D01*
X1737384Y18702775D01*
X1688265Y18835485D01*
X1643791Y18972261D01*
X1604300Y19112105D01*
X1570128Y19254019D01*
X1557715Y19312659D01*
X1546908Y19372136D01*
X1539995Y19425270D01*
X1536938Y19472612D01*
X1537699Y19514715D01*
X1541569Y19548302D01*
X1556062Y19611737D01*
X1577438Y19671519D01*
X1605459Y19727297D01*
X1639884Y19778723D01*
X1680475Y19825445D01*
X1726992Y19867113D01*
X1779197Y19903378D01*
X1787507Y19908332D01*
X1840222Y19934627D01*
X1896454Y19954337D01*
X1955136Y19967356D01*
X2015199Y19973577D01*
X2075573Y19972893D01*
G36*
X2075573Y19972893D02*
G01*
X2135191Y19965198D01*
X2192985Y19950386D01*
X2196802Y19949124D01*
X2252860Y19926210D01*
X2305810Y19896410D01*
X2354965Y19860395D01*
X2399639Y19818832D01*
X2439146Y19772389D01*
X2472799Y19721736D01*
X2499912Y19667540D01*
X2508586Y19645531D01*
X2513136Y19631242D01*
X2518667Y19611020D01*
X2524714Y19586736D01*
X2530811Y19560260D01*
X2536492Y19533466D01*
X2536580Y19533027D01*
X2558207Y19433298D01*
X2581798Y19339530D01*
X2607914Y19249875D01*
X2637115Y19162480D01*
X2669961Y19075497D01*
X2689513Y19027800D01*
X2703193Y18993292D01*
X2712569Y18964460D01*
X2717694Y18940343D01*
X2718622Y18919985D01*
X2715407Y18902426D01*
X2708102Y18886706D01*
X2698151Y18873426D01*
X2689201Y18864161D01*
X2679491Y18856495D01*
X2667635Y18849759D01*
X2652243Y18843283D01*
X2631930Y18836396D01*
X2605307Y18828429D01*
X2604421Y18828173D01*
X2547630Y18810489D01*
X2495899Y18791444D01*
X2446356Y18769917D01*
X2413295Y18753723D01*
X2338161Y18710985D01*
X2266583Y18661461D01*
X2199287Y18605781D01*
X2137002Y18544577D01*
X2080455Y18478480D01*
X2052693Y18441159D01*
X2030760Y18412361D01*
X2010426Y18390610D01*
X1990965Y18375365D01*
X1971648Y18366085D01*
X1951751Y18362226D01*
X1946586Y18362045D01*
X1928035Y18363933D01*
X1911301Y18370266D01*
X1895676Y18381703D01*
X1880451Y18398902D01*
X1864916Y18422524D01*
X1848365Y18453227D01*
X1848208Y18453538D01*
X1790811Y18575127D01*
X1737384Y18702775D01*
X1688265Y18835485D01*
X1643791Y18972261D01*
X1604300Y19112105D01*
X1570128Y19254019D01*
X1557715Y19312659D01*
X1546908Y19372136D01*
X1539995Y19425270D01*
X1536938Y19472612D01*
X1537699Y19514715D01*
X1541569Y19548302D01*
X1556062Y19611737D01*
X1577438Y19671519D01*
X1605459Y19727297D01*
X1639884Y19778723D01*
X1680475Y19825445D01*
X1726992Y19867113D01*
X1779197Y19903378D01*
X1787507Y19908332D01*
X1840222Y19934627D01*
X1896454Y19954337D01*
X1955136Y19967356D01*
X2015199Y19973577D01*
X2075573Y19972893D01*
G37*
X2608844Y18267212D02*
X2615711Y18266613D01*
X2622290Y18265571D01*
X2628936Y18263774D01*
X2636007Y18260908D01*
X2643860Y18256661D01*
X2652852Y18250722D01*
X2663341Y18242777D01*
X2675684Y18232513D01*
X2690237Y18219620D01*
X2707358Y18203783D01*
X2727405Y18184691D01*
X2750734Y18162031D01*
X2777702Y18135491D01*
X2808667Y18104758D01*
X2843986Y18069519D01*
X2884017Y18029463D01*
X2929115Y17984277D01*
X2955366Y17957969D01*
X3001819Y17911408D01*
X3042986Y17870112D01*
X3079194Y17833736D01*
X3110774Y17801934D01*
X3138052Y17774362D01*
X3161358Y17750674D01*
X3181019Y17730524D01*
X3197365Y17713568D01*
X3210723Y17699460D01*
X3221422Y17687854D01*
X3229791Y17678405D01*
X3236157Y17670768D01*
X3240850Y17664598D01*
X3244197Y17659549D01*
X3246528Y17655275D01*
X3248169Y17651433D01*
X3248939Y17649255D01*
X3255659Y17617723D01*
X3255054Y17586813D01*
X3247521Y17557592D01*
X3233460Y17531124D01*
X3213269Y17508476D01*
X3190255Y17492276D01*
X3179441Y17486691D01*
X3169929Y17483227D01*
X3159213Y17481389D01*
X3144790Y17480677D01*
X3131442Y17480583D01*
X3111902Y17480927D01*
X3097720Y17482240D01*
X3086338Y17484946D01*
X3075194Y17489466D01*
X3073895Y17490082D01*
X3069465Y17492747D01*
X3063134Y17497509D01*
X3054599Y17504660D01*
X3043561Y17514488D01*
X3029718Y17527286D01*
X3012767Y17543344D01*
X2992409Y17562952D01*
X2968340Y17586402D01*
X2940261Y17613983D01*
X2907869Y17645988D01*
X2870864Y17682705D01*
X2828943Y17724427D01*
X2781805Y17771443D01*
X2771448Y17781785D01*
X2724631Y17828559D01*
X2683126Y17870084D01*
X2646606Y17906699D01*
X2614746Y17938745D01*
X2587220Y17966558D01*
X2563701Y17990479D01*
X2543864Y18010847D01*
X2527383Y18028000D01*
X2513931Y18042278D01*
X2503183Y18054020D01*
X2494812Y18063564D01*
X2488493Y18071250D01*
X2483900Y18077416D01*
X2480706Y18082402D01*
X2478759Y18086158D01*
X2470234Y18111722D01*
X2466506Y18138819D01*
X2467883Y18164430D01*
X2469884Y18173410D01*
X2482124Y18203438D01*
X2500026Y18228416D01*
X2522803Y18247781D01*
X2549667Y18260966D01*
X2579830Y18267408D01*
X2601329Y18267680D01*
X2608844Y18267212D01*
G36*
X2608844Y18267212D02*
G01*
X2615711Y18266613D01*
X2622290Y18265571D01*
X2628936Y18263774D01*
X2636007Y18260908D01*
X2643860Y18256661D01*
X2652852Y18250722D01*
X2663341Y18242777D01*
X2675684Y18232513D01*
X2690237Y18219620D01*
X2707358Y18203783D01*
X2727405Y18184691D01*
X2750734Y18162031D01*
X2777702Y18135491D01*
X2808667Y18104758D01*
X2843986Y18069519D01*
X2884017Y18029463D01*
X2929115Y17984277D01*
X2955366Y17957969D01*
X3001819Y17911408D01*
X3042986Y17870112D01*
X3079194Y17833736D01*
X3110774Y17801934D01*
X3138052Y17774362D01*
X3161358Y17750674D01*
X3181019Y17730524D01*
X3197365Y17713568D01*
X3210723Y17699460D01*
X3221422Y17687854D01*
X3229791Y17678405D01*
X3236157Y17670768D01*
X3240850Y17664598D01*
X3244197Y17659549D01*
X3246528Y17655275D01*
X3248169Y17651433D01*
X3248939Y17649255D01*
X3255659Y17617723D01*
X3255054Y17586813D01*
X3247521Y17557592D01*
X3233460Y17531124D01*
X3213269Y17508476D01*
X3190255Y17492276D01*
X3179441Y17486691D01*
X3169929Y17483227D01*
X3159213Y17481389D01*
X3144790Y17480677D01*
X3131442Y17480583D01*
X3111902Y17480927D01*
X3097720Y17482240D01*
X3086338Y17484946D01*
X3075194Y17489466D01*
X3073895Y17490082D01*
X3069465Y17492747D01*
X3063134Y17497509D01*
X3054599Y17504660D01*
X3043561Y17514488D01*
X3029718Y17527286D01*
X3012767Y17543344D01*
X2992409Y17562952D01*
X2968340Y17586402D01*
X2940261Y17613983D01*
X2907869Y17645988D01*
X2870864Y17682705D01*
X2828943Y17724427D01*
X2781805Y17771443D01*
X2771448Y17781785D01*
X2724631Y17828559D01*
X2683126Y17870084D01*
X2646606Y17906699D01*
X2614746Y17938745D01*
X2587220Y17966558D01*
X2563701Y17990479D01*
X2543864Y18010847D01*
X2527383Y18028000D01*
X2513931Y18042278D01*
X2503183Y18054020D01*
X2494812Y18063564D01*
X2488493Y18071250D01*
X2483900Y18077416D01*
X2480706Y18082402D01*
X2478759Y18086158D01*
X2470234Y18111722D01*
X2466506Y18138819D01*
X2467883Y18164430D01*
X2469884Y18173410D01*
X2482124Y18203438D01*
X2500026Y18228416D01*
X2522803Y18247781D01*
X2549667Y18260966D01*
X2579830Y18267408D01*
X2601329Y18267680D01*
X2608844Y18267212D01*
G37*
X3938825Y17724752D02*
X3964277Y17717017D01*
X3986708Y17707822D01*
X4107227Y17658378D01*
X4231516Y17615096D01*
X4360158Y17577796D01*
X4493735Y17546296D01*
X4524416Y17540012D01*
X4559099Y17532911D01*
X4587480Y17526599D01*
X4611099Y17520627D01*
X4631493Y17514550D01*
X4650202Y17507921D01*
X4668764Y17500291D01*
X4682602Y17494067D01*
X4735583Y17465328D01*
X4784650Y17430183D01*
X4829234Y17389361D01*
X4868762Y17343590D01*
X4902663Y17293598D01*
X4930366Y17240114D01*
X4951300Y17183867D01*
X4962947Y17136547D01*
X4971071Y17073788D01*
X4971608Y17012159D01*
X4964884Y16952144D01*
X4951225Y16894228D01*
X4930955Y16838899D01*
X4904400Y16786640D01*
X4871884Y16737937D01*
X4833734Y16693276D01*
X4790274Y16653141D01*
X4741829Y16618020D01*
X4688725Y16588396D01*
X4631287Y16564755D01*
X4569840Y16547583D01*
X4568130Y16547214D01*
X4550448Y16544032D01*
X4531206Y16541908D01*
X4508507Y16540711D01*
X4480459Y16540309D01*
X4468911Y16540332D01*
X4447226Y16540709D01*
X4426263Y16541713D01*
X4405020Y16543506D01*
X4382492Y16546249D01*
X4357675Y16550104D01*
X4329565Y16555233D01*
X4297158Y16561796D01*
X4259451Y16569956D01*
X4215438Y16579875D01*
X4197052Y16584093D01*
X4083639Y16612606D01*
X3967460Y16646401D01*
X3850372Y16684812D01*
X3734231Y16727172D01*
X3620894Y16772814D01*
X3512218Y16821073D01*
X3441049Y16855483D01*
X3413522Y16869968D01*
X3392491Y16882762D01*
X3376919Y16894676D01*
X3365767Y16906518D01*
X3357998Y16919098D01*
X3357125Y16920955D01*
X3351150Y16938989D01*
X3351202Y16955813D01*
X3355157Y16970054D01*
X3366011Y16989766D01*
X3384332Y17010013D01*
X3409712Y17030358D01*
X3414498Y17033659D01*
X3487730Y17087733D01*
X3555198Y17146937D01*
X3616660Y17210978D01*
X3671876Y17279564D01*
X3720602Y17352400D01*
X3762597Y17429196D01*
X3788105Y17485746D01*
X3800450Y17516937D01*
X3811670Y17548330D01*
X3822420Y17581951D01*
X3833357Y17619828D01*
X3842213Y17652766D01*
X3847525Y17671009D01*
X3852940Y17684057D01*
X3859779Y17694558D01*
X3867232Y17702979D01*
X3882795Y17716418D01*
X3899182Y17724497D01*
X3917493Y17727260D01*
X3938825Y17724752D01*
G36*
X3938825Y17724752D02*
G01*
X3964277Y17717017D01*
X3986708Y17707822D01*
X4107227Y17658378D01*
X4231516Y17615096D01*
X4360158Y17577796D01*
X4493735Y17546296D01*
X4524416Y17540012D01*
X4559099Y17532911D01*
X4587480Y17526599D01*
X4611099Y17520627D01*
X4631493Y17514550D01*
X4650202Y17507921D01*
X4668764Y17500291D01*
X4682602Y17494067D01*
X4735583Y17465328D01*
X4784650Y17430183D01*
X4829234Y17389361D01*
X4868762Y17343590D01*
X4902663Y17293598D01*
X4930366Y17240114D01*
X4951300Y17183867D01*
X4962947Y17136547D01*
X4971071Y17073788D01*
X4971608Y17012159D01*
X4964884Y16952144D01*
X4951225Y16894228D01*
X4930955Y16838899D01*
X4904400Y16786640D01*
X4871884Y16737937D01*
X4833734Y16693276D01*
X4790274Y16653141D01*
X4741829Y16618020D01*
X4688725Y16588396D01*
X4631287Y16564755D01*
X4569840Y16547583D01*
X4568130Y16547214D01*
X4550448Y16544032D01*
X4531206Y16541908D01*
X4508507Y16540711D01*
X4480459Y16540309D01*
X4468911Y16540332D01*
X4447226Y16540709D01*
X4426263Y16541713D01*
X4405020Y16543506D01*
X4382492Y16546249D01*
X4357675Y16550104D01*
X4329565Y16555233D01*
X4297158Y16561796D01*
X4259451Y16569956D01*
X4215438Y16579875D01*
X4197052Y16584093D01*
X4083639Y16612606D01*
X3967460Y16646401D01*
X3850372Y16684812D01*
X3734231Y16727172D01*
X3620894Y16772814D01*
X3512218Y16821073D01*
X3441049Y16855483D01*
X3413522Y16869968D01*
X3392491Y16882762D01*
X3376919Y16894676D01*
X3365767Y16906518D01*
X3357998Y16919098D01*
X3357125Y16920955D01*
X3351150Y16938989D01*
X3351202Y16955813D01*
X3355157Y16970054D01*
X3366011Y16989766D01*
X3384332Y17010013D01*
X3409712Y17030358D01*
X3414498Y17033659D01*
X3487730Y17087733D01*
X3555198Y17146937D01*
X3616660Y17210978D01*
X3671876Y17279564D01*
X3720602Y17352400D01*
X3762597Y17429196D01*
X3788105Y17485746D01*
X3800450Y17516937D01*
X3811670Y17548330D01*
X3822420Y17581951D01*
X3833357Y17619828D01*
X3842213Y17652766D01*
X3847525Y17671009D01*
X3852940Y17684057D01*
X3859779Y17694558D01*
X3867232Y17702979D01*
X3882795Y17716418D01*
X3899182Y17724497D01*
X3917493Y17727260D01*
X3938825Y17724752D01*
G37*
%TD*%
M02*
