%TF.GenerationSoftware,KiCad,Pcbnew,8.0.8*%
%TF.CreationDate,2025-01-29T16:56:40+00:00*%
%TF.ProjectId,ec30_1x4_l3r3_mh_0.1,65633330-5f31-4783-945f-6c3372335f6d,v0.1*%
%TF.SameCoordinates,PX8d24d00PY36d6160*%
%TF.FileFunction,Legend,Top*%
%TF.FilePolarity,Positive*%
%FSLAX46Y46*%
G04 Gerber Fmt 4.6, Leading zero omitted, Abs format (unit mm)*
G04 Created by KiCad (PCBNEW 8.0.8) date 2025-01-29 16:56:40*
%MOMM*%
%LPD*%
G01*
G04 APERTURE LIST*
%ADD10C,0.200000*%
%ADD11C,0.010000*%
%ADD12C,0.000000*%
G04 APERTURE END LIST*
D10*
X-3148008Y-4940000D02*
X-3150008Y-4240000D01*
X9002000Y7560000D02*
G75*
G02*
X8202000Y6760000I-798900J-1100D01*
G01*
X3152000Y-14276007D02*
X3152000Y-14976007D01*
X8202000Y3263992D02*
G75*
G02*
X9001992Y2463993I1100J-798892D01*
G01*
X9002000Y-12476008D02*
G75*
G02*
X8202000Y-13276000I-798900J-1092D01*
G01*
X8202000Y13300000D02*
G75*
G02*
X9002000Y12500001I1100J-798900D01*
G01*
X-4150008Y-13276008D02*
G75*
G02*
X-3150008Y-14276008I-392J-1000392D01*
G01*
X-4148008Y13299999D02*
X-8200008Y13299999D01*
X-8200008Y-3240000D02*
X-4150008Y-3240000D01*
X4152000Y3263992D02*
G75*
G02*
X3151992Y4263992I400J1000408D01*
G01*
X3152000Y-14276007D02*
G75*
G02*
X4150000Y-13276003I1000400J-393D01*
G01*
X3150000Y14999999D02*
G75*
G02*
X4148000Y16000004I997000J3001D01*
G01*
X-3150008Y-5736009D02*
G75*
G02*
X-4148008Y-6735989I-1000392J409D01*
G01*
X3152000Y5760001D02*
X3152000Y5060001D01*
X-3150008Y4329999D02*
X-3150008Y5760000D01*
X-5000008Y-22470001D02*
X4999992Y-22470001D01*
X-4148008Y-15976008D02*
X-6500008Y-15976008D01*
X3152000Y-4306007D02*
X3152000Y-5736008D01*
X8202000Y-6736008D02*
X4152000Y-6736008D01*
X4148000Y-15976008D02*
G75*
G02*
X3147992Y-14976008I400J1000408D01*
G01*
X4148000Y-15976008D02*
X6500000Y-15976008D01*
X-3150008Y14299999D02*
X-3150008Y14999999D01*
X3150000Y15000000D02*
X3152000Y14300000D01*
X-8200008Y6760000D02*
G75*
G02*
X-9000000Y7559999I-1092J798900D01*
G01*
X-2500008Y22279999D02*
X-2500008Y22029999D01*
X-9000008Y-7536008D02*
G75*
G02*
X-8200008Y-6735992I798908J1108D01*
G01*
X7499992Y-19970001D02*
X7499992Y-16970001D01*
X-7500008Y20029999D02*
X-7500008Y16999999D01*
X9002000Y7560000D02*
X9002000Y12500001D01*
X-9000008Y-7536008D02*
X-9000008Y-12476009D01*
X8202000Y3263992D02*
X4152000Y3263992D01*
X-3150008Y14299999D02*
G75*
G02*
X-4148008Y13300011I-1000392J401D01*
G01*
X-6500008Y15999999D02*
X-4148008Y15999999D01*
X-4150008Y-3240000D02*
G75*
G02*
X-3150000Y-4240000I-392J-1000400D01*
G01*
X4150000Y-3276007D02*
X8202000Y-3276007D01*
X-7500008Y20029999D02*
G75*
G02*
X-5000008Y22530008I2499208J801D01*
G01*
X-500008Y22029999D02*
X-500008Y22279999D01*
X-9000008Y12500000D02*
X-9000008Y7559999D01*
X6500000Y15999999D02*
X4148000Y15999999D01*
X-3148008Y-14976008D02*
G75*
G02*
X-4148008Y-15975992I-1000392J408D01*
G01*
X-9000008Y2500000D02*
G75*
G02*
X-8200008Y3300008I798908J1100D01*
G01*
X-500008Y22029999D02*
G75*
G02*
X-2500008Y22029999I-1000000J0D01*
G01*
X-9000008Y12500000D02*
G75*
G02*
X-8200008Y13300008I798908J1100D01*
G01*
X4999992Y22529999D02*
X-250008Y22529999D01*
X9002000Y-2476008D02*
X9002000Y2463993D01*
X4152000Y-6736008D02*
G75*
G02*
X3151992Y-5736008I400J1000408D01*
G01*
X-8200008Y-13276008D02*
G75*
G02*
X-9000008Y-12476009I-1092J798908D01*
G01*
X9002000Y-2476008D02*
G75*
G02*
X8202000Y-3276000I-798900J-1092D01*
G01*
X6500000Y-15976008D02*
G75*
G02*
X7499992Y-16976008I-400J-1000392D01*
G01*
X-4148008Y15999999D02*
G75*
G02*
X-3150005Y14999999I1008J-996999D01*
G01*
X4999992Y22529999D02*
G75*
G02*
X7499999Y20029999I808J-2499199D01*
G01*
X7499992Y-19970001D02*
G75*
G02*
X4999992Y-22469992I-2499192J-799D01*
G01*
X-4150008Y6760000D02*
G75*
G02*
X-3150000Y5760000I-392J-1000400D01*
G01*
X3152000Y5760001D02*
G75*
G02*
X4150000Y6759997I1000400J-401D01*
G01*
X7499992Y17029999D02*
X7499992Y20029999D01*
X-5000008Y-22470001D02*
G75*
G02*
X-7500001Y-19970001I-792J2499201D01*
G01*
X-500008Y22279999D02*
G75*
G02*
X-250008Y22530008I249208J801D01*
G01*
X-6500008Y15999999D02*
G75*
G02*
X-7500001Y16999999I408J1000401D01*
G01*
X-7500008Y-16940000D02*
X-7500008Y-19970001D01*
X-9000008Y2500000D02*
X-9000008Y-2440001D01*
X-3148008Y-14976008D02*
X-3150008Y-14276008D01*
X4152000Y13300000D02*
G75*
G02*
X3152000Y14300000I400J1000400D01*
G01*
X-3150008Y-5736009D02*
X-3150008Y-5036009D01*
X8202000Y-6736008D02*
G75*
G02*
X9001992Y-7536007I1100J-798892D01*
G01*
X-4148008Y3299999D02*
X-8200008Y3299999D01*
X-3150008Y4299999D02*
G75*
G02*
X-4148008Y3300011I-1000392J401D01*
G01*
X7500000Y16999999D02*
G75*
G02*
X6500000Y16000000I-1000400J401D01*
G01*
X-8200008Y6760000D02*
X-4150008Y6760000D01*
X4150000Y-13276007D02*
X8202000Y-13276007D01*
X-8200008Y-13276008D02*
X-4150008Y-13276008D01*
X4150000Y6760001D02*
X8202000Y6760001D01*
X3152000Y-4276007D02*
G75*
G02*
X4150000Y-3276003I1000400J-393D01*
G01*
X-2750008Y22529999D02*
G75*
G02*
X-2500001Y22279999I808J-249199D01*
G01*
X8202000Y13300000D02*
X4152000Y13300000D01*
X-4148008Y-6736009D02*
X-8200008Y-6736009D01*
X-2750008Y22529999D02*
X-5000008Y22529999D01*
X3150000Y4963992D02*
X3152000Y4263992D01*
X-7500008Y-16976008D02*
G75*
G02*
X-6500008Y-15975992I1000408J-392D01*
G01*
X-8200008Y-3240000D02*
G75*
G02*
X-9000000Y-2440001I-1092J798900D01*
G01*
X9002000Y-12476008D02*
X9002000Y-7536007D01*
D11*
%TO.C,MH4*%
X4511949Y-16535486D02*
X4545536Y-16539356D01*
X4608971Y-16553849D01*
X4668753Y-16575225D01*
X4724531Y-16603246D01*
X4775957Y-16637671D01*
X4822679Y-16678262D01*
X4864347Y-16724779D01*
X4900612Y-16776984D01*
X4905566Y-16785294D01*
X4931861Y-16838009D01*
X4951571Y-16894241D01*
X4964590Y-16952923D01*
X4970811Y-17012986D01*
X4970127Y-17073360D01*
X4962432Y-17132978D01*
X4947620Y-17190772D01*
X4946358Y-17194589D01*
X4923444Y-17250647D01*
X4893644Y-17303597D01*
X4857629Y-17352752D01*
X4816066Y-17397426D01*
X4769623Y-17436933D01*
X4718970Y-17470586D01*
X4664774Y-17497699D01*
X4642765Y-17506373D01*
X4628476Y-17510923D01*
X4608254Y-17516454D01*
X4583970Y-17522501D01*
X4557494Y-17528598D01*
X4530700Y-17534279D01*
X4530261Y-17534367D01*
X4430532Y-17555994D01*
X4336764Y-17579585D01*
X4247109Y-17605701D01*
X4159714Y-17634902D01*
X4072731Y-17667748D01*
X4025034Y-17687300D01*
X3990526Y-17700980D01*
X3961694Y-17710356D01*
X3937577Y-17715481D01*
X3917219Y-17716409D01*
X3899660Y-17713194D01*
X3883940Y-17705889D01*
X3870660Y-17695938D01*
X3861395Y-17686988D01*
X3853729Y-17677278D01*
X3846993Y-17665422D01*
X3840517Y-17650030D01*
X3833630Y-17629717D01*
X3825663Y-17603094D01*
X3825407Y-17602208D01*
X3807723Y-17545417D01*
X3788678Y-17493686D01*
X3767151Y-17444143D01*
X3750957Y-17411082D01*
X3708219Y-17335948D01*
X3658695Y-17264370D01*
X3603015Y-17197074D01*
X3541811Y-17134789D01*
X3475714Y-17078242D01*
X3438393Y-17050480D01*
X3409595Y-17028547D01*
X3387844Y-17008213D01*
X3372599Y-16988752D01*
X3363319Y-16969435D01*
X3359460Y-16949538D01*
X3359279Y-16944373D01*
X3361167Y-16925822D01*
X3367500Y-16909088D01*
X3378937Y-16893463D01*
X3396136Y-16878238D01*
X3419758Y-16862703D01*
X3450461Y-16846152D01*
X3450772Y-16845995D01*
X3572361Y-16788598D01*
X3700009Y-16735171D01*
X3832719Y-16686052D01*
X3969495Y-16641578D01*
X4109339Y-16602087D01*
X4251253Y-16567915D01*
X4309893Y-16555502D01*
X4369370Y-16544695D01*
X4422504Y-16537782D01*
X4469846Y-16534725D01*
X4511949Y-16535486D01*
G36*
X4511949Y-16535486D02*
G01*
X4545536Y-16539356D01*
X4608971Y-16553849D01*
X4668753Y-16575225D01*
X4724531Y-16603246D01*
X4775957Y-16637671D01*
X4822679Y-16678262D01*
X4864347Y-16724779D01*
X4900612Y-16776984D01*
X4905566Y-16785294D01*
X4931861Y-16838009D01*
X4951571Y-16894241D01*
X4964590Y-16952923D01*
X4970811Y-17012986D01*
X4970127Y-17073360D01*
X4962432Y-17132978D01*
X4947620Y-17190772D01*
X4946358Y-17194589D01*
X4923444Y-17250647D01*
X4893644Y-17303597D01*
X4857629Y-17352752D01*
X4816066Y-17397426D01*
X4769623Y-17436933D01*
X4718970Y-17470586D01*
X4664774Y-17497699D01*
X4642765Y-17506373D01*
X4628476Y-17510923D01*
X4608254Y-17516454D01*
X4583970Y-17522501D01*
X4557494Y-17528598D01*
X4530700Y-17534279D01*
X4530261Y-17534367D01*
X4430532Y-17555994D01*
X4336764Y-17579585D01*
X4247109Y-17605701D01*
X4159714Y-17634902D01*
X4072731Y-17667748D01*
X4025034Y-17687300D01*
X3990526Y-17700980D01*
X3961694Y-17710356D01*
X3937577Y-17715481D01*
X3917219Y-17716409D01*
X3899660Y-17713194D01*
X3883940Y-17705889D01*
X3870660Y-17695938D01*
X3861395Y-17686988D01*
X3853729Y-17677278D01*
X3846993Y-17665422D01*
X3840517Y-17650030D01*
X3833630Y-17629717D01*
X3825663Y-17603094D01*
X3825407Y-17602208D01*
X3807723Y-17545417D01*
X3788678Y-17493686D01*
X3767151Y-17444143D01*
X3750957Y-17411082D01*
X3708219Y-17335948D01*
X3658695Y-17264370D01*
X3603015Y-17197074D01*
X3541811Y-17134789D01*
X3475714Y-17078242D01*
X3438393Y-17050480D01*
X3409595Y-17028547D01*
X3387844Y-17008213D01*
X3372599Y-16988752D01*
X3363319Y-16969435D01*
X3359460Y-16949538D01*
X3359279Y-16944373D01*
X3361167Y-16925822D01*
X3367500Y-16909088D01*
X3378937Y-16893463D01*
X3396136Y-16878238D01*
X3419758Y-16862703D01*
X3450461Y-16846152D01*
X3450772Y-16845995D01*
X3572361Y-16788598D01*
X3700009Y-16735171D01*
X3832719Y-16686052D01*
X3969495Y-16641578D01*
X4109339Y-16602087D01*
X4251253Y-16567915D01*
X4309893Y-16555502D01*
X4369370Y-16544695D01*
X4422504Y-16537782D01*
X4469846Y-16534725D01*
X4511949Y-16535486D01*
G37*
X1953047Y-18348989D02*
X1967288Y-18352944D01*
X1987000Y-18363798D01*
X2007247Y-18382119D01*
X2027592Y-18407499D01*
X2030893Y-18412285D01*
X2084967Y-18485517D01*
X2144171Y-18552985D01*
X2208212Y-18614447D01*
X2276798Y-18669663D01*
X2349634Y-18718389D01*
X2426430Y-18760384D01*
X2482980Y-18785892D01*
X2514171Y-18798237D01*
X2545564Y-18809457D01*
X2579185Y-18820207D01*
X2617062Y-18831144D01*
X2650000Y-18840000D01*
X2668243Y-18845312D01*
X2681291Y-18850727D01*
X2691792Y-18857566D01*
X2700213Y-18865019D01*
X2713652Y-18880582D01*
X2721731Y-18896969D01*
X2724494Y-18915280D01*
X2721986Y-18936612D01*
X2714251Y-18962064D01*
X2705056Y-18984495D01*
X2655612Y-19105014D01*
X2612330Y-19229303D01*
X2575030Y-19357945D01*
X2543530Y-19491522D01*
X2537246Y-19522203D01*
X2530145Y-19556886D01*
X2523833Y-19585267D01*
X2517861Y-19608886D01*
X2511784Y-19629280D01*
X2505155Y-19647989D01*
X2497525Y-19666551D01*
X2491301Y-19680389D01*
X2462562Y-19733370D01*
X2427417Y-19782437D01*
X2386595Y-19827021D01*
X2340824Y-19866549D01*
X2290832Y-19900450D01*
X2237348Y-19928153D01*
X2181101Y-19949087D01*
X2133781Y-19960734D01*
X2071022Y-19968858D01*
X2009393Y-19969395D01*
X1949378Y-19962671D01*
X1891462Y-19949012D01*
X1836133Y-19928742D01*
X1783874Y-19902187D01*
X1735171Y-19869671D01*
X1690510Y-19831521D01*
X1650375Y-19788061D01*
X1615254Y-19739616D01*
X1585630Y-19686512D01*
X1561989Y-19629074D01*
X1544817Y-19567627D01*
X1544448Y-19565917D01*
X1541266Y-19548235D01*
X1539142Y-19528993D01*
X1537945Y-19506294D01*
X1537543Y-19478246D01*
X1537566Y-19466698D01*
X1537943Y-19445013D01*
X1538947Y-19424050D01*
X1540740Y-19402807D01*
X1543483Y-19380279D01*
X1547338Y-19355462D01*
X1552467Y-19327352D01*
X1559030Y-19294945D01*
X1567190Y-19257238D01*
X1577109Y-19213225D01*
X1581327Y-19194839D01*
X1609840Y-19081426D01*
X1643635Y-18965247D01*
X1682046Y-18848159D01*
X1724406Y-18732018D01*
X1770048Y-18618681D01*
X1818307Y-18510005D01*
X1852717Y-18438836D01*
X1867202Y-18411309D01*
X1879996Y-18390278D01*
X1891910Y-18374706D01*
X1903752Y-18363554D01*
X1916332Y-18355785D01*
X1918189Y-18354912D01*
X1936223Y-18348937D01*
X1953047Y-18348989D01*
G36*
X1953047Y-18348989D02*
G01*
X1967288Y-18352944D01*
X1987000Y-18363798D01*
X2007247Y-18382119D01*
X2027592Y-18407499D01*
X2030893Y-18412285D01*
X2084967Y-18485517D01*
X2144171Y-18552985D01*
X2208212Y-18614447D01*
X2276798Y-18669663D01*
X2349634Y-18718389D01*
X2426430Y-18760384D01*
X2482980Y-18785892D01*
X2514171Y-18798237D01*
X2545564Y-18809457D01*
X2579185Y-18820207D01*
X2617062Y-18831144D01*
X2650000Y-18840000D01*
X2668243Y-18845312D01*
X2681291Y-18850727D01*
X2691792Y-18857566D01*
X2700213Y-18865019D01*
X2713652Y-18880582D01*
X2721731Y-18896969D01*
X2724494Y-18915280D01*
X2721986Y-18936612D01*
X2714251Y-18962064D01*
X2705056Y-18984495D01*
X2655612Y-19105014D01*
X2612330Y-19229303D01*
X2575030Y-19357945D01*
X2543530Y-19491522D01*
X2537246Y-19522203D01*
X2530145Y-19556886D01*
X2523833Y-19585267D01*
X2517861Y-19608886D01*
X2511784Y-19629280D01*
X2505155Y-19647989D01*
X2497525Y-19666551D01*
X2491301Y-19680389D01*
X2462562Y-19733370D01*
X2427417Y-19782437D01*
X2386595Y-19827021D01*
X2340824Y-19866549D01*
X2290832Y-19900450D01*
X2237348Y-19928153D01*
X2181101Y-19949087D01*
X2133781Y-19960734D01*
X2071022Y-19968858D01*
X2009393Y-19969395D01*
X1949378Y-19962671D01*
X1891462Y-19949012D01*
X1836133Y-19928742D01*
X1783874Y-19902187D01*
X1735171Y-19869671D01*
X1690510Y-19831521D01*
X1650375Y-19788061D01*
X1615254Y-19739616D01*
X1585630Y-19686512D01*
X1561989Y-19629074D01*
X1544817Y-19567627D01*
X1544448Y-19565917D01*
X1541266Y-19548235D01*
X1539142Y-19528993D01*
X1537945Y-19506294D01*
X1537543Y-19478246D01*
X1537566Y-19466698D01*
X1537943Y-19445013D01*
X1538947Y-19424050D01*
X1540740Y-19402807D01*
X1543483Y-19380279D01*
X1547338Y-19355462D01*
X1552467Y-19327352D01*
X1559030Y-19294945D01*
X1567190Y-19257238D01*
X1577109Y-19213225D01*
X1581327Y-19194839D01*
X1609840Y-19081426D01*
X1643635Y-18965247D01*
X1682046Y-18848159D01*
X1724406Y-18732018D01*
X1770048Y-18618681D01*
X1818307Y-18510005D01*
X1852717Y-18438836D01*
X1867202Y-18411309D01*
X1879996Y-18390278D01*
X1891910Y-18374706D01*
X1903752Y-18363554D01*
X1916332Y-18355785D01*
X1918189Y-18354912D01*
X1936223Y-18348937D01*
X1953047Y-18348989D01*
G37*
X3161664Y-17465670D02*
X3170644Y-17467671D01*
X3200672Y-17479911D01*
X3225650Y-17497813D01*
X3245015Y-17520590D01*
X3258200Y-17547454D01*
X3264642Y-17577617D01*
X3264914Y-17599116D01*
X3264446Y-17606631D01*
X3263847Y-17613498D01*
X3262805Y-17620077D01*
X3261008Y-17626723D01*
X3258142Y-17633794D01*
X3253895Y-17641647D01*
X3247956Y-17650639D01*
X3240011Y-17661128D01*
X3229747Y-17673471D01*
X3216854Y-17688024D01*
X3201017Y-17705145D01*
X3181925Y-17725192D01*
X3159265Y-17748521D01*
X3132725Y-17775489D01*
X3101992Y-17806454D01*
X3066753Y-17841773D01*
X3026697Y-17881804D01*
X2981511Y-17926902D01*
X2955203Y-17953153D01*
X2908642Y-17999606D01*
X2867346Y-18040773D01*
X2830970Y-18076981D01*
X2799168Y-18108561D01*
X2771596Y-18135839D01*
X2747908Y-18159145D01*
X2727758Y-18178806D01*
X2710802Y-18195152D01*
X2696694Y-18208510D01*
X2685088Y-18219209D01*
X2675639Y-18227578D01*
X2668002Y-18233944D01*
X2661832Y-18238637D01*
X2656783Y-18241984D01*
X2652509Y-18244315D01*
X2648667Y-18245956D01*
X2646489Y-18246726D01*
X2614957Y-18253446D01*
X2584047Y-18252841D01*
X2554826Y-18245308D01*
X2528358Y-18231247D01*
X2505710Y-18211056D01*
X2489510Y-18188042D01*
X2483925Y-18177228D01*
X2480461Y-18167716D01*
X2478623Y-18157000D01*
X2477911Y-18142577D01*
X2477817Y-18129229D01*
X2478161Y-18109689D01*
X2479474Y-18095507D01*
X2482180Y-18084125D01*
X2486700Y-18072981D01*
X2487316Y-18071682D01*
X2489981Y-18067252D01*
X2494743Y-18060921D01*
X2501894Y-18052386D01*
X2511722Y-18041348D01*
X2524520Y-18027505D01*
X2540578Y-18010554D01*
X2560186Y-17990196D01*
X2583636Y-17966127D01*
X2611217Y-17938048D01*
X2643222Y-17905656D01*
X2679939Y-17868651D01*
X2721661Y-17826730D01*
X2768677Y-17779592D01*
X2779019Y-17769235D01*
X2825793Y-17722418D01*
X2867318Y-17680913D01*
X2903933Y-17644393D01*
X2935979Y-17612533D01*
X2963792Y-17585007D01*
X2987713Y-17561488D01*
X3008081Y-17541651D01*
X3025234Y-17525170D01*
X3039512Y-17511718D01*
X3051254Y-17500970D01*
X3060798Y-17492599D01*
X3068484Y-17486280D01*
X3074650Y-17481687D01*
X3079636Y-17478493D01*
X3083392Y-17476546D01*
X3108956Y-17468021D01*
X3136053Y-17464293D01*
X3161664Y-17465670D01*
G36*
X3161664Y-17465670D02*
G01*
X3170644Y-17467671D01*
X3200672Y-17479911D01*
X3225650Y-17497813D01*
X3245015Y-17520590D01*
X3258200Y-17547454D01*
X3264642Y-17577617D01*
X3264914Y-17599116D01*
X3264446Y-17606631D01*
X3263847Y-17613498D01*
X3262805Y-17620077D01*
X3261008Y-17626723D01*
X3258142Y-17633794D01*
X3253895Y-17641647D01*
X3247956Y-17650639D01*
X3240011Y-17661128D01*
X3229747Y-17673471D01*
X3216854Y-17688024D01*
X3201017Y-17705145D01*
X3181925Y-17725192D01*
X3159265Y-17748521D01*
X3132725Y-17775489D01*
X3101992Y-17806454D01*
X3066753Y-17841773D01*
X3026697Y-17881804D01*
X2981511Y-17926902D01*
X2955203Y-17953153D01*
X2908642Y-17999606D01*
X2867346Y-18040773D01*
X2830970Y-18076981D01*
X2799168Y-18108561D01*
X2771596Y-18135839D01*
X2747908Y-18159145D01*
X2727758Y-18178806D01*
X2710802Y-18195152D01*
X2696694Y-18208510D01*
X2685088Y-18219209D01*
X2675639Y-18227578D01*
X2668002Y-18233944D01*
X2661832Y-18238637D01*
X2656783Y-18241984D01*
X2652509Y-18244315D01*
X2648667Y-18245956D01*
X2646489Y-18246726D01*
X2614957Y-18253446D01*
X2584047Y-18252841D01*
X2554826Y-18245308D01*
X2528358Y-18231247D01*
X2505710Y-18211056D01*
X2489510Y-18188042D01*
X2483925Y-18177228D01*
X2480461Y-18167716D01*
X2478623Y-18157000D01*
X2477911Y-18142577D01*
X2477817Y-18129229D01*
X2478161Y-18109689D01*
X2479474Y-18095507D01*
X2482180Y-18084125D01*
X2486700Y-18072981D01*
X2487316Y-18071682D01*
X2489981Y-18067252D01*
X2494743Y-18060921D01*
X2501894Y-18052386D01*
X2511722Y-18041348D01*
X2524520Y-18027505D01*
X2540578Y-18010554D01*
X2560186Y-17990196D01*
X2583636Y-17966127D01*
X2611217Y-17938048D01*
X2643222Y-17905656D01*
X2679939Y-17868651D01*
X2721661Y-17826730D01*
X2768677Y-17779592D01*
X2779019Y-17769235D01*
X2825793Y-17722418D01*
X2867318Y-17680913D01*
X2903933Y-17644393D01*
X2935979Y-17612533D01*
X2963792Y-17585007D01*
X2987713Y-17561488D01*
X3008081Y-17541651D01*
X3025234Y-17525170D01*
X3039512Y-17511718D01*
X3051254Y-17500970D01*
X3060798Y-17492599D01*
X3068484Y-17486280D01*
X3074650Y-17481687D01*
X3079636Y-17478493D01*
X3083392Y-17476546D01*
X3108956Y-17468021D01*
X3136053Y-17464293D01*
X3161664Y-17465670D01*
G37*
D12*
%TO.C,*%
G36*
X-3505012Y-9570563D02*
G01*
X-3401473Y-9621180D01*
X-3319980Y-9702673D01*
X-3269363Y-9806212D01*
X-3254808Y-9906108D01*
X-3254808Y-10105908D01*
X-3269363Y-10205804D01*
X-3319980Y-10309343D01*
X-3401473Y-10390836D01*
X-3505012Y-10441453D01*
X-3604908Y-10456008D01*
X-7954708Y-10456008D01*
X-8054604Y-10441453D01*
X-8158143Y-10390836D01*
X-8239636Y-10309343D01*
X-8290253Y-10205804D01*
X-8304808Y-10105908D01*
X-8304808Y-9906108D01*
X-8290253Y-9806212D01*
X-8239636Y-9702673D01*
X-8158143Y-9621180D01*
X-8054604Y-9570563D01*
X-7954708Y-9556008D01*
X-3604908Y-9556008D01*
X-3505012Y-9570563D01*
G37*
G36*
X-3505012Y-10840563D02*
G01*
X-3401473Y-10891180D01*
X-3319980Y-10972673D01*
X-3269363Y-11076212D01*
X-3254808Y-11176108D01*
X-3254808Y-11375908D01*
X-3269363Y-11475804D01*
X-3319980Y-11579343D01*
X-3401473Y-11660836D01*
X-3505012Y-11711453D01*
X-3604908Y-11726008D01*
X-7954708Y-11726008D01*
X-8054604Y-11711453D01*
X-8158143Y-11660836D01*
X-8239636Y-11579343D01*
X-8290253Y-11475804D01*
X-8304808Y-11375908D01*
X-8304808Y-11176108D01*
X-8290253Y-11076212D01*
X-8239636Y-10972673D01*
X-8158143Y-10891180D01*
X-8054604Y-10840563D01*
X-7954708Y-10826008D01*
X-3604908Y-10826008D01*
X-3505012Y-10840563D01*
G37*
G36*
X-3505012Y-8300563D02*
G01*
X-3401473Y-8351180D01*
X-3319980Y-8432673D01*
X-3269363Y-8536212D01*
X-3254808Y-8636108D01*
X-3254808Y-8835908D01*
X-3269363Y-8935804D01*
X-3319980Y-9039343D01*
X-3401473Y-9120836D01*
X-3505012Y-9171453D01*
X-3604908Y-9186008D01*
X-7454708Y-9186008D01*
X-7554604Y-9171453D01*
X-7658143Y-9120836D01*
X-7739636Y-9039343D01*
X-7790253Y-8935804D01*
X-7804808Y-8835908D01*
X-7804808Y-8636108D01*
X-7790253Y-8536212D01*
X-7739636Y-8432673D01*
X-7658143Y-8351180D01*
X-7554604Y-8300563D01*
X-7454708Y-8286008D01*
X-3604908Y-8286008D01*
X-3505012Y-8300563D01*
G37*
G36*
X7556596Y-840563D02*
G01*
X7660135Y-891180D01*
X7741628Y-972673D01*
X7792245Y-1076212D01*
X7806800Y-1176108D01*
X7806800Y-1375908D01*
X7792245Y-1475804D01*
X7741628Y-1579343D01*
X7660135Y-1660836D01*
X7556596Y-1711453D01*
X7456700Y-1726008D01*
X3606900Y-1726008D01*
X3507004Y-1711453D01*
X3403465Y-1660836D01*
X3321972Y-1579343D01*
X3271355Y-1475804D01*
X3256800Y-1375908D01*
X3256800Y-1176108D01*
X3271355Y-1076212D01*
X3321972Y-972673D01*
X3403465Y-891180D01*
X3507004Y-840563D01*
X3606900Y-826008D01*
X7456700Y-826008D01*
X7556596Y-840563D01*
G37*
G36*
X8056596Y1699437D02*
G01*
X8160135Y1648820D01*
X8241628Y1567327D01*
X8292245Y1463788D01*
X8306800Y1363892D01*
X8306800Y1164092D01*
X8292245Y1064196D01*
X8241628Y960657D01*
X8160135Y879164D01*
X8056596Y828547D01*
X7956700Y813992D01*
X3606900Y813992D01*
X3507004Y828547D01*
X3403465Y879164D01*
X3321972Y960657D01*
X3271355Y1064196D01*
X3256800Y1164092D01*
X3256800Y1363892D01*
X3271355Y1463788D01*
X3321972Y1567327D01*
X3403465Y1648820D01*
X3507004Y1699437D01*
X3606900Y1713992D01*
X7956700Y1713992D01*
X8056596Y1699437D01*
G37*
G36*
X8056596Y429437D02*
G01*
X8160135Y378820D01*
X8241628Y297327D01*
X8292245Y193788D01*
X8306800Y93892D01*
X8306800Y-105908D01*
X8292245Y-205804D01*
X8241628Y-309343D01*
X8160135Y-390836D01*
X8056596Y-441453D01*
X7956700Y-456008D01*
X3606900Y-456008D01*
X3507004Y-441453D01*
X3403465Y-390836D01*
X3321972Y-309343D01*
X3271355Y-205804D01*
X3256800Y-105908D01*
X3256800Y93892D01*
X3271355Y193788D01*
X3321972Y297327D01*
X3403465Y378820D01*
X3507004Y429437D01*
X3606900Y443992D01*
X7956700Y443992D01*
X8056596Y429437D01*
G37*
G36*
X-3505012Y10465445D02*
G01*
X-3401473Y10414828D01*
X-3319980Y10333335D01*
X-3269363Y10229796D01*
X-3254808Y10129900D01*
X-3254808Y9930100D01*
X-3269363Y9830204D01*
X-3319980Y9726665D01*
X-3401473Y9645172D01*
X-3505012Y9594555D01*
X-3604908Y9580000D01*
X-7954708Y9580000D01*
X-8054604Y9594555D01*
X-8158143Y9645172D01*
X-8239636Y9726665D01*
X-8290253Y9830204D01*
X-8304808Y9930100D01*
X-8304808Y10129900D01*
X-8290253Y10229796D01*
X-8239636Y10333335D01*
X-8158143Y10414828D01*
X-8054604Y10465445D01*
X-7954708Y10480000D01*
X-3604908Y10480000D01*
X-3505012Y10465445D01*
G37*
G36*
X-3505012Y9195445D02*
G01*
X-3401473Y9144828D01*
X-3319980Y9063335D01*
X-3269363Y8959796D01*
X-3254808Y8859900D01*
X-3254808Y8660100D01*
X-3269363Y8560204D01*
X-3319980Y8456665D01*
X-3401473Y8375172D01*
X-3505012Y8324555D01*
X-3604908Y8310000D01*
X-7954708Y8310000D01*
X-8054604Y8324555D01*
X-8158143Y8375172D01*
X-8239636Y8456665D01*
X-8290253Y8560204D01*
X-8304808Y8660100D01*
X-8304808Y8859900D01*
X-8290253Y8959796D01*
X-8239636Y9063335D01*
X-8158143Y9144828D01*
X-8054604Y9195445D01*
X-7954708Y9210000D01*
X-3604908Y9210000D01*
X-3505012Y9195445D01*
G37*
G36*
X-3505012Y11735445D02*
G01*
X-3401473Y11684828D01*
X-3319980Y11603335D01*
X-3269363Y11499796D01*
X-3254808Y11399900D01*
X-3254808Y11200100D01*
X-3269363Y11100204D01*
X-3319980Y10996665D01*
X-3401473Y10915172D01*
X-3505012Y10864555D01*
X-3604908Y10850000D01*
X-7454708Y10850000D01*
X-7554604Y10864555D01*
X-7658143Y10915172D01*
X-7739636Y10996665D01*
X-7790253Y11100204D01*
X-7804808Y11200100D01*
X-7804808Y11399900D01*
X-7790253Y11499796D01*
X-7739636Y11603335D01*
X-7658143Y11684828D01*
X-7554604Y11735445D01*
X-7454708Y11750000D01*
X-3604908Y11750000D01*
X-3505012Y11735445D01*
G37*
D11*
%TO.C,MH1*%
X-3899840Y17710687D02*
X-3884120Y17703382D01*
X-3870840Y17693431D01*
X-3861575Y17684481D01*
X-3853909Y17674771D01*
X-3847173Y17662915D01*
X-3840697Y17647523D01*
X-3833810Y17627210D01*
X-3825843Y17600587D01*
X-3825587Y17599701D01*
X-3807903Y17542910D01*
X-3788858Y17491179D01*
X-3767331Y17441636D01*
X-3751137Y17408575D01*
X-3708399Y17333441D01*
X-3658875Y17261863D01*
X-3603195Y17194567D01*
X-3541991Y17132282D01*
X-3475894Y17075735D01*
X-3438573Y17047973D01*
X-3409775Y17026040D01*
X-3388024Y17005706D01*
X-3372779Y16986245D01*
X-3363499Y16966928D01*
X-3359640Y16947031D01*
X-3359459Y16941866D01*
X-3361347Y16923315D01*
X-3367680Y16906581D01*
X-3379117Y16890956D01*
X-3396316Y16875731D01*
X-3419938Y16860196D01*
X-3450641Y16843645D01*
X-3450952Y16843488D01*
X-3572541Y16786091D01*
X-3700189Y16732664D01*
X-3832899Y16683545D01*
X-3969675Y16639071D01*
X-4109519Y16599580D01*
X-4251433Y16565408D01*
X-4310073Y16552995D01*
X-4369550Y16542188D01*
X-4422684Y16535275D01*
X-4470026Y16532218D01*
X-4512129Y16532979D01*
X-4545716Y16536849D01*
X-4609151Y16551342D01*
X-4668933Y16572718D01*
X-4724711Y16600739D01*
X-4776137Y16635164D01*
X-4822859Y16675755D01*
X-4864527Y16722272D01*
X-4900792Y16774477D01*
X-4905746Y16782787D01*
X-4932041Y16835502D01*
X-4951751Y16891734D01*
X-4964770Y16950416D01*
X-4970991Y17010479D01*
X-4970307Y17070853D01*
X-4962612Y17130471D01*
X-4947800Y17188265D01*
X-4946538Y17192082D01*
X-4923624Y17248140D01*
X-4893824Y17301090D01*
X-4857809Y17350245D01*
X-4816246Y17394919D01*
X-4769803Y17434426D01*
X-4719150Y17468079D01*
X-4664954Y17495192D01*
X-4642945Y17503866D01*
X-4628656Y17508416D01*
X-4608434Y17513947D01*
X-4584150Y17519994D01*
X-4557674Y17526091D01*
X-4530880Y17531772D01*
X-4530441Y17531860D01*
X-4430712Y17553487D01*
X-4336944Y17577078D01*
X-4247289Y17603194D01*
X-4159894Y17632395D01*
X-4072911Y17665241D01*
X-4025214Y17684793D01*
X-3990706Y17698473D01*
X-3961874Y17707849D01*
X-3937757Y17712974D01*
X-3917399Y17713902D01*
X-3899840Y17710687D01*
G36*
X-3899840Y17710687D02*
G01*
X-3884120Y17703382D01*
X-3870840Y17693431D01*
X-3861575Y17684481D01*
X-3853909Y17674771D01*
X-3847173Y17662915D01*
X-3840697Y17647523D01*
X-3833810Y17627210D01*
X-3825843Y17600587D01*
X-3825587Y17599701D01*
X-3807903Y17542910D01*
X-3788858Y17491179D01*
X-3767331Y17441636D01*
X-3751137Y17408575D01*
X-3708399Y17333441D01*
X-3658875Y17261863D01*
X-3603195Y17194567D01*
X-3541991Y17132282D01*
X-3475894Y17075735D01*
X-3438573Y17047973D01*
X-3409775Y17026040D01*
X-3388024Y17005706D01*
X-3372779Y16986245D01*
X-3363499Y16966928D01*
X-3359640Y16947031D01*
X-3359459Y16941866D01*
X-3361347Y16923315D01*
X-3367680Y16906581D01*
X-3379117Y16890956D01*
X-3396316Y16875731D01*
X-3419938Y16860196D01*
X-3450641Y16843645D01*
X-3450952Y16843488D01*
X-3572541Y16786091D01*
X-3700189Y16732664D01*
X-3832899Y16683545D01*
X-3969675Y16639071D01*
X-4109519Y16599580D01*
X-4251433Y16565408D01*
X-4310073Y16552995D01*
X-4369550Y16542188D01*
X-4422684Y16535275D01*
X-4470026Y16532218D01*
X-4512129Y16532979D01*
X-4545716Y16536849D01*
X-4609151Y16551342D01*
X-4668933Y16572718D01*
X-4724711Y16600739D01*
X-4776137Y16635164D01*
X-4822859Y16675755D01*
X-4864527Y16722272D01*
X-4900792Y16774477D01*
X-4905746Y16782787D01*
X-4932041Y16835502D01*
X-4951751Y16891734D01*
X-4964770Y16950416D01*
X-4970991Y17010479D01*
X-4970307Y17070853D01*
X-4962612Y17130471D01*
X-4947800Y17188265D01*
X-4946538Y17192082D01*
X-4923624Y17248140D01*
X-4893824Y17301090D01*
X-4857809Y17350245D01*
X-4816246Y17394919D01*
X-4769803Y17434426D01*
X-4719150Y17468079D01*
X-4664954Y17495192D01*
X-4642945Y17503866D01*
X-4628656Y17508416D01*
X-4608434Y17513947D01*
X-4584150Y17519994D01*
X-4557674Y17526091D01*
X-4530880Y17531772D01*
X-4530441Y17531860D01*
X-4430712Y17553487D01*
X-4336944Y17577078D01*
X-4247289Y17603194D01*
X-4159894Y17632395D01*
X-4072911Y17665241D01*
X-4025214Y17684793D01*
X-3990706Y17698473D01*
X-3961874Y17707849D01*
X-3937757Y17712974D01*
X-3917399Y17713902D01*
X-3899840Y17710687D01*
G37*
X-1949558Y19960164D02*
X-1891642Y19946505D01*
X-1836313Y19926235D01*
X-1784054Y19899680D01*
X-1735351Y19867164D01*
X-1690690Y19829014D01*
X-1650555Y19785554D01*
X-1615434Y19737109D01*
X-1585810Y19684005D01*
X-1562169Y19626567D01*
X-1544997Y19565120D01*
X-1544628Y19563410D01*
X-1541446Y19545728D01*
X-1539322Y19526486D01*
X-1538125Y19503787D01*
X-1537723Y19475739D01*
X-1537746Y19464191D01*
X-1538123Y19442506D01*
X-1539127Y19421543D01*
X-1540920Y19400300D01*
X-1543663Y19377772D01*
X-1547518Y19352955D01*
X-1552647Y19324845D01*
X-1559210Y19292438D01*
X-1567370Y19254731D01*
X-1577289Y19210718D01*
X-1581507Y19192332D01*
X-1610020Y19078919D01*
X-1643815Y18962740D01*
X-1682226Y18845652D01*
X-1724586Y18729511D01*
X-1770228Y18616174D01*
X-1818487Y18507498D01*
X-1852897Y18436329D01*
X-1867382Y18408802D01*
X-1880176Y18387771D01*
X-1892090Y18372199D01*
X-1903932Y18361047D01*
X-1916512Y18353278D01*
X-1918369Y18352405D01*
X-1936403Y18346430D01*
X-1953227Y18346482D01*
X-1967468Y18350437D01*
X-1987180Y18361291D01*
X-2007427Y18379612D01*
X-2027772Y18404992D01*
X-2031073Y18409778D01*
X-2085147Y18483010D01*
X-2144351Y18550478D01*
X-2208392Y18611940D01*
X-2276978Y18667156D01*
X-2349814Y18715882D01*
X-2426610Y18757877D01*
X-2483160Y18783385D01*
X-2514351Y18795730D01*
X-2545744Y18806950D01*
X-2579365Y18817700D01*
X-2617242Y18828637D01*
X-2650180Y18837493D01*
X-2668423Y18842805D01*
X-2681471Y18848220D01*
X-2691972Y18855059D01*
X-2700393Y18862512D01*
X-2713832Y18878075D01*
X-2721911Y18894462D01*
X-2724674Y18912773D01*
X-2722166Y18934105D01*
X-2714431Y18959557D01*
X-2705236Y18981988D01*
X-2655792Y19102507D01*
X-2612510Y19226796D01*
X-2575210Y19355438D01*
X-2543710Y19489015D01*
X-2537426Y19519696D01*
X-2530325Y19554379D01*
X-2524013Y19582760D01*
X-2518041Y19606379D01*
X-2511964Y19626773D01*
X-2505335Y19645482D01*
X-2497705Y19664044D01*
X-2491481Y19677882D01*
X-2462742Y19730863D01*
X-2427597Y19779930D01*
X-2386775Y19824514D01*
X-2341004Y19864042D01*
X-2291012Y19897943D01*
X-2237528Y19925646D01*
X-2181281Y19946580D01*
X-2133961Y19958227D01*
X-2071202Y19966351D01*
X-2009573Y19966888D01*
X-1949558Y19960164D01*
G36*
X-1949558Y19960164D02*
G01*
X-1891642Y19946505D01*
X-1836313Y19926235D01*
X-1784054Y19899680D01*
X-1735351Y19867164D01*
X-1690690Y19829014D01*
X-1650555Y19785554D01*
X-1615434Y19737109D01*
X-1585810Y19684005D01*
X-1562169Y19626567D01*
X-1544997Y19565120D01*
X-1544628Y19563410D01*
X-1541446Y19545728D01*
X-1539322Y19526486D01*
X-1538125Y19503787D01*
X-1537723Y19475739D01*
X-1537746Y19464191D01*
X-1538123Y19442506D01*
X-1539127Y19421543D01*
X-1540920Y19400300D01*
X-1543663Y19377772D01*
X-1547518Y19352955D01*
X-1552647Y19324845D01*
X-1559210Y19292438D01*
X-1567370Y19254731D01*
X-1577289Y19210718D01*
X-1581507Y19192332D01*
X-1610020Y19078919D01*
X-1643815Y18962740D01*
X-1682226Y18845652D01*
X-1724586Y18729511D01*
X-1770228Y18616174D01*
X-1818487Y18507498D01*
X-1852897Y18436329D01*
X-1867382Y18408802D01*
X-1880176Y18387771D01*
X-1892090Y18372199D01*
X-1903932Y18361047D01*
X-1916512Y18353278D01*
X-1918369Y18352405D01*
X-1936403Y18346430D01*
X-1953227Y18346482D01*
X-1967468Y18350437D01*
X-1987180Y18361291D01*
X-2007427Y18379612D01*
X-2027772Y18404992D01*
X-2031073Y18409778D01*
X-2085147Y18483010D01*
X-2144351Y18550478D01*
X-2208392Y18611940D01*
X-2276978Y18667156D01*
X-2349814Y18715882D01*
X-2426610Y18757877D01*
X-2483160Y18783385D01*
X-2514351Y18795730D01*
X-2545744Y18806950D01*
X-2579365Y18817700D01*
X-2617242Y18828637D01*
X-2650180Y18837493D01*
X-2668423Y18842805D01*
X-2681471Y18848220D01*
X-2691972Y18855059D01*
X-2700393Y18862512D01*
X-2713832Y18878075D01*
X-2721911Y18894462D01*
X-2724674Y18912773D01*
X-2722166Y18934105D01*
X-2714431Y18959557D01*
X-2705236Y18981988D01*
X-2655792Y19102507D01*
X-2612510Y19226796D01*
X-2575210Y19355438D01*
X-2543710Y19489015D01*
X-2537426Y19519696D01*
X-2530325Y19554379D01*
X-2524013Y19582760D01*
X-2518041Y19606379D01*
X-2511964Y19626773D01*
X-2505335Y19645482D01*
X-2497705Y19664044D01*
X-2491481Y19677882D01*
X-2462742Y19730863D01*
X-2427597Y19779930D01*
X-2386775Y19824514D01*
X-2341004Y19864042D01*
X-2291012Y19897943D01*
X-2237528Y19925646D01*
X-2181281Y19946580D01*
X-2133961Y19958227D01*
X-2071202Y19966351D01*
X-2009573Y19966888D01*
X-1949558Y19960164D01*
G37*
X-2493080Y18462211D02*
X-2475996Y18461544D01*
X-2462479Y18460273D01*
X-2451804Y18458343D01*
X-2443241Y18455698D01*
X-2436066Y18452281D01*
X-2429548Y18448039D01*
X-2422962Y18442913D01*
X-2419690Y18440229D01*
X-2408818Y18428719D01*
X-2398500Y18413529D01*
X-2390198Y18397310D01*
X-2385378Y18382710D01*
X-2384731Y18376966D01*
X-2383862Y18371124D01*
X-2381375Y18358361D01*
X-2377445Y18339491D01*
X-2372249Y18315325D01*
X-2365964Y18286675D01*
X-2358765Y18254354D01*
X-2350829Y18219173D01*
X-2343059Y18185110D01*
X-2332429Y18138495D01*
X-2323568Y18098903D01*
X-2316374Y18065643D01*
X-2310745Y18038024D01*
X-2306578Y18015356D01*
X-2303773Y17996948D01*
X-2302227Y17982109D01*
X-2301838Y17970147D01*
X-2302505Y17960373D01*
X-2304125Y17952095D01*
X-2306597Y17944622D01*
X-2307332Y17942808D01*
X-2319147Y17922742D01*
X-2336065Y17904490D01*
X-2354590Y17891432D01*
X-2372955Y17885112D01*
X-2395198Y17882433D01*
X-2418164Y17883396D01*
X-2438699Y17888004D01*
X-2446518Y17891378D01*
X-2462601Y17902392D01*
X-2477976Y17917152D01*
X-2490130Y17933020D01*
X-2494924Y17942204D01*
X-2497256Y17949646D01*
X-2500953Y17963447D01*
X-2505667Y17982220D01*
X-2511051Y18004573D01*
X-2516756Y18029117D01*
X-2517679Y18033173D01*
X-2523140Y18057056D01*
X-2528037Y18078150D01*
X-2532091Y18095287D01*
X-2535027Y18107298D01*
X-2536567Y18113018D01*
X-2536699Y18113325D01*
X-2539388Y18110757D01*
X-2546119Y18102976D01*
X-2556031Y18091012D01*
X-2568266Y18075896D01*
X-2576173Y18065984D01*
X-2675778Y17946849D01*
X-2781374Y17832920D01*
X-2892952Y17724206D01*
X-3010506Y17620713D01*
X-3070383Y17571834D01*
X-3087489Y17557936D01*
X-3101915Y17545680D01*
X-3112713Y17535918D01*
X-3118935Y17529498D01*
X-3119992Y17527348D01*
X-3115406Y17525659D01*
X-3104277Y17522380D01*
X-3087771Y17517830D01*
X-3067049Y17512327D01*
X-3043275Y17506189D01*
X-3033622Y17503741D01*
X-3002672Y17495884D01*
X-2978372Y17489536D01*
X-2959665Y17484310D01*
X-2945494Y17479818D01*
X-2934802Y17475674D01*
X-2926530Y17471491D01*
X-2919621Y17466882D01*
X-2913018Y17461460D01*
X-2909519Y17458340D01*
X-2892287Y17437879D01*
X-2881611Y17414546D01*
X-2877307Y17389654D01*
X-2879187Y17364519D01*
X-2887067Y17340456D01*
X-2900759Y17318779D01*
X-2920078Y17300803D01*
X-2932907Y17293036D01*
X-2944041Y17288005D01*
X-2955193Y17284697D01*
X-2967466Y17283198D01*
X-2981962Y17283597D01*
X-2999784Y17285979D01*
X-3022034Y17290433D01*
X-3049815Y17297045D01*
X-3079262Y17304600D01*
X-3107506Y17311969D01*
X-3141348Y17320769D01*
X-3178698Y17330457D01*
X-3217465Y17340492D01*
X-3255558Y17350331D01*
X-3289340Y17359036D01*
X-3326219Y17368612D01*
X-3356249Y17376696D01*
X-3380296Y17383658D01*
X-3399227Y17389866D01*
X-3413910Y17395691D01*
X-3425212Y17401500D01*
X-3433998Y17407664D01*
X-3441137Y17414551D01*
X-3447495Y17422531D01*
X-3451296Y17427997D01*
X-3455259Y17434075D01*
X-3458568Y17440016D01*
X-3461243Y17446514D01*
X-3463304Y17454259D01*
X-3464770Y17463944D01*
X-3465662Y17476261D01*
X-3465999Y17491901D01*
X-3465802Y17511557D01*
X-3465090Y17535921D01*
X-3463883Y17565684D01*
X-3462202Y17601539D01*
X-3460066Y17644178D01*
X-3458438Y17675936D01*
X-3456329Y17715785D01*
X-3454210Y17753613D01*
X-3452136Y17788603D01*
X-3450160Y17819940D01*
X-3448335Y17846809D01*
X-3446716Y17868394D01*
X-3445356Y17883879D01*
X-3444309Y17892449D01*
X-3444109Y17893391D01*
X-3434152Y17916679D01*
X-3418578Y17935718D01*
X-3398698Y17950141D01*
X-3375820Y17959577D01*
X-3351253Y17963659D01*
X-3326306Y17962017D01*
X-3302289Y17954282D01*
X-3280510Y17940085D01*
X-3280003Y17939642D01*
X-3265619Y17923598D01*
X-3254457Y17904888D01*
X-3253901Y17903630D01*
X-3250688Y17895776D01*
X-3248404Y17888518D01*
X-3246954Y17880438D01*
X-3246238Y17870118D01*
X-3246160Y17856139D01*
X-3246622Y17837082D01*
X-3247526Y17811529D01*
X-3247538Y17811207D01*
X-3248562Y17786056D01*
X-3249707Y17761690D01*
X-3250872Y17740022D01*
X-3251957Y17722968D01*
X-3252641Y17714506D01*
X-3253610Y17704568D01*
X-3253823Y17697577D01*
X-3252510Y17693805D01*
X-3248906Y17693522D01*
X-3242243Y17697001D01*
X-3231754Y17704513D01*
X-3216671Y17716328D01*
X-3196226Y17732718D01*
X-3192372Y17735811D01*
X-3109296Y17805233D01*
X-3027210Y17879264D01*
X-2947314Y17956677D01*
X-2870808Y18036245D01*
X-2798892Y18116741D01*
X-2732764Y18196937D01*
X-2700154Y18239328D01*
X-2688638Y18254698D01*
X-2724208Y18252164D01*
X-2741251Y18251201D01*
X-2763702Y18250292D01*
X-2789031Y18249522D01*
X-2814708Y18248975D01*
X-2823278Y18248852D01*
X-2848460Y18248681D01*
X-2867162Y18248951D01*
X-2880834Y18249777D01*
X-2890926Y18251271D01*
X-2898890Y18253546D01*
X-2902653Y18255068D01*
X-2925453Y18269238D01*
X-2943902Y18288973D01*
X-2956941Y18312655D01*
X-2963511Y18338664D01*
X-2964091Y18348972D01*
X-2960457Y18374695D01*
X-2950304Y18398979D01*
X-2934755Y18420093D01*
X-2914934Y18436308D01*
X-2903621Y18442100D01*
X-2898783Y18443995D01*
X-2893587Y18445636D01*
X-2887365Y18447067D01*
X-2879449Y18448334D01*
X-2869173Y18449480D01*
X-2855868Y18450550D01*
X-2838867Y18451588D01*
X-2817501Y18452639D01*
X-2791105Y18453746D01*
X-2759009Y18454954D01*
X-2720547Y18456307D01*
X-2675051Y18457850D01*
X-2657490Y18458438D01*
X-2611652Y18459954D01*
X-2573019Y18461146D01*
X-2540865Y18461956D01*
X-2514461Y18462330D01*
X-2493080Y18462211D01*
G36*
X-2493080Y18462211D02*
G01*
X-2475996Y18461544D01*
X-2462479Y18460273D01*
X-2451804Y18458343D01*
X-2443241Y18455698D01*
X-2436066Y18452281D01*
X-2429548Y18448039D01*
X-2422962Y18442913D01*
X-2419690Y18440229D01*
X-2408818Y18428719D01*
X-2398500Y18413529D01*
X-2390198Y18397310D01*
X-2385378Y18382710D01*
X-2384731Y18376966D01*
X-2383862Y18371124D01*
X-2381375Y18358361D01*
X-2377445Y18339491D01*
X-2372249Y18315325D01*
X-2365964Y18286675D01*
X-2358765Y18254354D01*
X-2350829Y18219173D01*
X-2343059Y18185110D01*
X-2332429Y18138495D01*
X-2323568Y18098903D01*
X-2316374Y18065643D01*
X-2310745Y18038024D01*
X-2306578Y18015356D01*
X-2303773Y17996948D01*
X-2302227Y17982109D01*
X-2301838Y17970147D01*
X-2302505Y17960373D01*
X-2304125Y17952095D01*
X-2306597Y17944622D01*
X-2307332Y17942808D01*
X-2319147Y17922742D01*
X-2336065Y17904490D01*
X-2354590Y17891432D01*
X-2372955Y17885112D01*
X-2395198Y17882433D01*
X-2418164Y17883396D01*
X-2438699Y17888004D01*
X-2446518Y17891378D01*
X-2462601Y17902392D01*
X-2477976Y17917152D01*
X-2490130Y17933020D01*
X-2494924Y17942204D01*
X-2497256Y17949646D01*
X-2500953Y17963447D01*
X-2505667Y17982220D01*
X-2511051Y18004573D01*
X-2516756Y18029117D01*
X-2517679Y18033173D01*
X-2523140Y18057056D01*
X-2528037Y18078150D01*
X-2532091Y18095287D01*
X-2535027Y18107298D01*
X-2536567Y18113018D01*
X-2536699Y18113325D01*
X-2539388Y18110757D01*
X-2546119Y18102976D01*
X-2556031Y18091012D01*
X-2568266Y18075896D01*
X-2576173Y18065984D01*
X-2675778Y17946849D01*
X-2781374Y17832920D01*
X-2892952Y17724206D01*
X-3010506Y17620713D01*
X-3070383Y17571834D01*
X-3087489Y17557936D01*
X-3101915Y17545680D01*
X-3112713Y17535918D01*
X-3118935Y17529498D01*
X-3119992Y17527348D01*
X-3115406Y17525659D01*
X-3104277Y17522380D01*
X-3087771Y17517830D01*
X-3067049Y17512327D01*
X-3043275Y17506189D01*
X-3033622Y17503741D01*
X-3002672Y17495884D01*
X-2978372Y17489536D01*
X-2959665Y17484310D01*
X-2945494Y17479818D01*
X-2934802Y17475674D01*
X-2926530Y17471491D01*
X-2919621Y17466882D01*
X-2913018Y17461460D01*
X-2909519Y17458340D01*
X-2892287Y17437879D01*
X-2881611Y17414546D01*
X-2877307Y17389654D01*
X-2879187Y17364519D01*
X-2887067Y17340456D01*
X-2900759Y17318779D01*
X-2920078Y17300803D01*
X-2932907Y17293036D01*
X-2944041Y17288005D01*
X-2955193Y17284697D01*
X-2967466Y17283198D01*
X-2981962Y17283597D01*
X-2999784Y17285979D01*
X-3022034Y17290433D01*
X-3049815Y17297045D01*
X-3079262Y17304600D01*
X-3107506Y17311969D01*
X-3141348Y17320769D01*
X-3178698Y17330457D01*
X-3217465Y17340492D01*
X-3255558Y17350331D01*
X-3289340Y17359036D01*
X-3326219Y17368612D01*
X-3356249Y17376696D01*
X-3380296Y17383658D01*
X-3399227Y17389866D01*
X-3413910Y17395691D01*
X-3425212Y17401500D01*
X-3433998Y17407664D01*
X-3441137Y17414551D01*
X-3447495Y17422531D01*
X-3451296Y17427997D01*
X-3455259Y17434075D01*
X-3458568Y17440016D01*
X-3461243Y17446514D01*
X-3463304Y17454259D01*
X-3464770Y17463944D01*
X-3465662Y17476261D01*
X-3465999Y17491901D01*
X-3465802Y17511557D01*
X-3465090Y17535921D01*
X-3463883Y17565684D01*
X-3462202Y17601539D01*
X-3460066Y17644178D01*
X-3458438Y17675936D01*
X-3456329Y17715785D01*
X-3454210Y17753613D01*
X-3452136Y17788603D01*
X-3450160Y17819940D01*
X-3448335Y17846809D01*
X-3446716Y17868394D01*
X-3445356Y17883879D01*
X-3444309Y17892449D01*
X-3444109Y17893391D01*
X-3434152Y17916679D01*
X-3418578Y17935718D01*
X-3398698Y17950141D01*
X-3375820Y17959577D01*
X-3351253Y17963659D01*
X-3326306Y17962017D01*
X-3302289Y17954282D01*
X-3280510Y17940085D01*
X-3280003Y17939642D01*
X-3265619Y17923598D01*
X-3254457Y17904888D01*
X-3253901Y17903630D01*
X-3250688Y17895776D01*
X-3248404Y17888518D01*
X-3246954Y17880438D01*
X-3246238Y17870118D01*
X-3246160Y17856139D01*
X-3246622Y17837082D01*
X-3247526Y17811529D01*
X-3247538Y17811207D01*
X-3248562Y17786056D01*
X-3249707Y17761690D01*
X-3250872Y17740022D01*
X-3251957Y17722968D01*
X-3252641Y17714506D01*
X-3253610Y17704568D01*
X-3253823Y17697577D01*
X-3252510Y17693805D01*
X-3248906Y17693522D01*
X-3242243Y17697001D01*
X-3231754Y17704513D01*
X-3216671Y17716328D01*
X-3196226Y17732718D01*
X-3192372Y17735811D01*
X-3109296Y17805233D01*
X-3027210Y17879264D01*
X-2947314Y17956677D01*
X-2870808Y18036245D01*
X-2798892Y18116741D01*
X-2732764Y18196937D01*
X-2700154Y18239328D01*
X-2688638Y18254698D01*
X-2724208Y18252164D01*
X-2741251Y18251201D01*
X-2763702Y18250292D01*
X-2789031Y18249522D01*
X-2814708Y18248975D01*
X-2823278Y18248852D01*
X-2848460Y18248681D01*
X-2867162Y18248951D01*
X-2880834Y18249777D01*
X-2890926Y18251271D01*
X-2898890Y18253546D01*
X-2902653Y18255068D01*
X-2925453Y18269238D01*
X-2943902Y18288973D01*
X-2956941Y18312655D01*
X-2963511Y18338664D01*
X-2964091Y18348972D01*
X-2960457Y18374695D01*
X-2950304Y18398979D01*
X-2934755Y18420093D01*
X-2914934Y18436308D01*
X-2903621Y18442100D01*
X-2898783Y18443995D01*
X-2893587Y18445636D01*
X-2887365Y18447067D01*
X-2879449Y18448334D01*
X-2869173Y18449480D01*
X-2855868Y18450550D01*
X-2838867Y18451588D01*
X-2817501Y18452639D01*
X-2791105Y18453746D01*
X-2759009Y18454954D01*
X-2720547Y18456307D01*
X-2675051Y18457850D01*
X-2657490Y18458438D01*
X-2611652Y18459954D01*
X-2573019Y18461146D01*
X-2540865Y18461956D01*
X-2514461Y18462330D01*
X-2493080Y18462211D01*
G37*
%TO.C,MH3*%
X-1928506Y-18363138D02*
X-1911772Y-18369471D01*
X-1896147Y-18380908D01*
X-1880922Y-18398107D01*
X-1865387Y-18421729D01*
X-1848836Y-18452432D01*
X-1848679Y-18452743D01*
X-1791282Y-18574332D01*
X-1737855Y-18701980D01*
X-1688736Y-18834690D01*
X-1644262Y-18971466D01*
X-1604771Y-19111310D01*
X-1570599Y-19253224D01*
X-1558186Y-19311864D01*
X-1547379Y-19371341D01*
X-1540466Y-19424475D01*
X-1537409Y-19471817D01*
X-1538170Y-19513920D01*
X-1542040Y-19547507D01*
X-1556533Y-19610942D01*
X-1577909Y-19670724D01*
X-1605930Y-19726502D01*
X-1640355Y-19777928D01*
X-1680946Y-19824650D01*
X-1727463Y-19866318D01*
X-1779668Y-19902583D01*
X-1787978Y-19907537D01*
X-1840693Y-19933832D01*
X-1896925Y-19953542D01*
X-1955607Y-19966561D01*
X-2015670Y-19972782D01*
X-2076044Y-19972098D01*
X-2135662Y-19964403D01*
X-2193456Y-19949591D01*
X-2197273Y-19948329D01*
X-2253331Y-19925415D01*
X-2306281Y-19895615D01*
X-2355436Y-19859600D01*
X-2400110Y-19818037D01*
X-2439617Y-19771594D01*
X-2473270Y-19720941D01*
X-2500383Y-19666745D01*
X-2509057Y-19644736D01*
X-2513607Y-19630447D01*
X-2519138Y-19610225D01*
X-2525185Y-19585941D01*
X-2531282Y-19559465D01*
X-2536963Y-19532671D01*
X-2537051Y-19532232D01*
X-2558678Y-19432503D01*
X-2582269Y-19338735D01*
X-2608385Y-19249080D01*
X-2637586Y-19161685D01*
X-2670432Y-19074702D01*
X-2689984Y-19027005D01*
X-2703664Y-18992497D01*
X-2713040Y-18963665D01*
X-2718165Y-18939548D01*
X-2719093Y-18919190D01*
X-2715878Y-18901631D01*
X-2708573Y-18885911D01*
X-2698622Y-18872631D01*
X-2689672Y-18863366D01*
X-2679962Y-18855700D01*
X-2668106Y-18848964D01*
X-2652714Y-18842488D01*
X-2632401Y-18835601D01*
X-2605778Y-18827634D01*
X-2604892Y-18827378D01*
X-2548101Y-18809694D01*
X-2496370Y-18790649D01*
X-2446827Y-18769122D01*
X-2413766Y-18752928D01*
X-2338632Y-18710190D01*
X-2267054Y-18660666D01*
X-2199758Y-18604986D01*
X-2137473Y-18543782D01*
X-2080926Y-18477685D01*
X-2053164Y-18440364D01*
X-2031231Y-18411566D01*
X-2010897Y-18389815D01*
X-1991436Y-18374570D01*
X-1972119Y-18365290D01*
X-1952222Y-18361431D01*
X-1947057Y-18361250D01*
X-1928506Y-18363138D01*
G36*
X-1928506Y-18363138D02*
G01*
X-1911772Y-18369471D01*
X-1896147Y-18380908D01*
X-1880922Y-18398107D01*
X-1865387Y-18421729D01*
X-1848836Y-18452432D01*
X-1848679Y-18452743D01*
X-1791282Y-18574332D01*
X-1737855Y-18701980D01*
X-1688736Y-18834690D01*
X-1644262Y-18971466D01*
X-1604771Y-19111310D01*
X-1570599Y-19253224D01*
X-1558186Y-19311864D01*
X-1547379Y-19371341D01*
X-1540466Y-19424475D01*
X-1537409Y-19471817D01*
X-1538170Y-19513920D01*
X-1542040Y-19547507D01*
X-1556533Y-19610942D01*
X-1577909Y-19670724D01*
X-1605930Y-19726502D01*
X-1640355Y-19777928D01*
X-1680946Y-19824650D01*
X-1727463Y-19866318D01*
X-1779668Y-19902583D01*
X-1787978Y-19907537D01*
X-1840693Y-19933832D01*
X-1896925Y-19953542D01*
X-1955607Y-19966561D01*
X-2015670Y-19972782D01*
X-2076044Y-19972098D01*
X-2135662Y-19964403D01*
X-2193456Y-19949591D01*
X-2197273Y-19948329D01*
X-2253331Y-19925415D01*
X-2306281Y-19895615D01*
X-2355436Y-19859600D01*
X-2400110Y-19818037D01*
X-2439617Y-19771594D01*
X-2473270Y-19720941D01*
X-2500383Y-19666745D01*
X-2509057Y-19644736D01*
X-2513607Y-19630447D01*
X-2519138Y-19610225D01*
X-2525185Y-19585941D01*
X-2531282Y-19559465D01*
X-2536963Y-19532671D01*
X-2537051Y-19532232D01*
X-2558678Y-19432503D01*
X-2582269Y-19338735D01*
X-2608385Y-19249080D01*
X-2637586Y-19161685D01*
X-2670432Y-19074702D01*
X-2689984Y-19027005D01*
X-2703664Y-18992497D01*
X-2713040Y-18963665D01*
X-2718165Y-18939548D01*
X-2719093Y-18919190D01*
X-2715878Y-18901631D01*
X-2708573Y-18885911D01*
X-2698622Y-18872631D01*
X-2689672Y-18863366D01*
X-2679962Y-18855700D01*
X-2668106Y-18848964D01*
X-2652714Y-18842488D01*
X-2632401Y-18835601D01*
X-2605778Y-18827634D01*
X-2604892Y-18827378D01*
X-2548101Y-18809694D01*
X-2496370Y-18790649D01*
X-2446827Y-18769122D01*
X-2413766Y-18752928D01*
X-2338632Y-18710190D01*
X-2267054Y-18660666D01*
X-2199758Y-18604986D01*
X-2137473Y-18543782D01*
X-2080926Y-18477685D01*
X-2053164Y-18440364D01*
X-2031231Y-18411566D01*
X-2010897Y-18389815D01*
X-1991436Y-18374570D01*
X-1972119Y-18365290D01*
X-1952222Y-18361431D01*
X-1947057Y-18361250D01*
X-1928506Y-18363138D01*
G37*
X-4469382Y-16539537D02*
X-4447697Y-16539914D01*
X-4426734Y-16540918D01*
X-4405491Y-16542711D01*
X-4382963Y-16545454D01*
X-4358146Y-16549309D01*
X-4330036Y-16554438D01*
X-4297629Y-16561001D01*
X-4259922Y-16569161D01*
X-4215909Y-16579080D01*
X-4197523Y-16583298D01*
X-4084110Y-16611811D01*
X-3967931Y-16645606D01*
X-3850843Y-16684017D01*
X-3734702Y-16726377D01*
X-3621365Y-16772019D01*
X-3512689Y-16820278D01*
X-3441520Y-16854688D01*
X-3413993Y-16869173D01*
X-3392962Y-16881967D01*
X-3377390Y-16893881D01*
X-3366238Y-16905723D01*
X-3358469Y-16918303D01*
X-3357596Y-16920160D01*
X-3351621Y-16938194D01*
X-3351673Y-16955018D01*
X-3355628Y-16969259D01*
X-3366482Y-16988971D01*
X-3384803Y-17009218D01*
X-3410183Y-17029563D01*
X-3414969Y-17032864D01*
X-3488201Y-17086938D01*
X-3555669Y-17146142D01*
X-3617131Y-17210183D01*
X-3672347Y-17278769D01*
X-3721073Y-17351605D01*
X-3763068Y-17428401D01*
X-3788576Y-17484951D01*
X-3800921Y-17516142D01*
X-3812141Y-17547535D01*
X-3822891Y-17581156D01*
X-3833828Y-17619033D01*
X-3842684Y-17651971D01*
X-3847996Y-17670214D01*
X-3853411Y-17683262D01*
X-3860250Y-17693763D01*
X-3867703Y-17702184D01*
X-3883266Y-17715623D01*
X-3899653Y-17723702D01*
X-3917964Y-17726465D01*
X-3939296Y-17723957D01*
X-3964748Y-17716222D01*
X-3987179Y-17707027D01*
X-4107698Y-17657583D01*
X-4231987Y-17614301D01*
X-4360629Y-17577001D01*
X-4494206Y-17545501D01*
X-4524887Y-17539217D01*
X-4559570Y-17532116D01*
X-4587951Y-17525804D01*
X-4611570Y-17519832D01*
X-4631964Y-17513755D01*
X-4650673Y-17507126D01*
X-4669235Y-17499496D01*
X-4683073Y-17493272D01*
X-4736054Y-17464533D01*
X-4785121Y-17429388D01*
X-4829705Y-17388566D01*
X-4869233Y-17342795D01*
X-4903134Y-17292803D01*
X-4930837Y-17239319D01*
X-4951771Y-17183072D01*
X-4963418Y-17135752D01*
X-4971542Y-17072993D01*
X-4972079Y-17011364D01*
X-4965355Y-16951349D01*
X-4951696Y-16893433D01*
X-4931426Y-16838104D01*
X-4904871Y-16785845D01*
X-4872355Y-16737142D01*
X-4834205Y-16692481D01*
X-4790745Y-16652346D01*
X-4742300Y-16617225D01*
X-4689196Y-16587601D01*
X-4631758Y-16563960D01*
X-4570311Y-16546788D01*
X-4568601Y-16546419D01*
X-4550919Y-16543237D01*
X-4531677Y-16541113D01*
X-4508978Y-16539916D01*
X-4480930Y-16539514D01*
X-4469382Y-16539537D01*
G36*
X-4469382Y-16539537D02*
G01*
X-4447697Y-16539914D01*
X-4426734Y-16540918D01*
X-4405491Y-16542711D01*
X-4382963Y-16545454D01*
X-4358146Y-16549309D01*
X-4330036Y-16554438D01*
X-4297629Y-16561001D01*
X-4259922Y-16569161D01*
X-4215909Y-16579080D01*
X-4197523Y-16583298D01*
X-4084110Y-16611811D01*
X-3967931Y-16645606D01*
X-3850843Y-16684017D01*
X-3734702Y-16726377D01*
X-3621365Y-16772019D01*
X-3512689Y-16820278D01*
X-3441520Y-16854688D01*
X-3413993Y-16869173D01*
X-3392962Y-16881967D01*
X-3377390Y-16893881D01*
X-3366238Y-16905723D01*
X-3358469Y-16918303D01*
X-3357596Y-16920160D01*
X-3351621Y-16938194D01*
X-3351673Y-16955018D01*
X-3355628Y-16969259D01*
X-3366482Y-16988971D01*
X-3384803Y-17009218D01*
X-3410183Y-17029563D01*
X-3414969Y-17032864D01*
X-3488201Y-17086938D01*
X-3555669Y-17146142D01*
X-3617131Y-17210183D01*
X-3672347Y-17278769D01*
X-3721073Y-17351605D01*
X-3763068Y-17428401D01*
X-3788576Y-17484951D01*
X-3800921Y-17516142D01*
X-3812141Y-17547535D01*
X-3822891Y-17581156D01*
X-3833828Y-17619033D01*
X-3842684Y-17651971D01*
X-3847996Y-17670214D01*
X-3853411Y-17683262D01*
X-3860250Y-17693763D01*
X-3867703Y-17702184D01*
X-3883266Y-17715623D01*
X-3899653Y-17723702D01*
X-3917964Y-17726465D01*
X-3939296Y-17723957D01*
X-3964748Y-17716222D01*
X-3987179Y-17707027D01*
X-4107698Y-17657583D01*
X-4231987Y-17614301D01*
X-4360629Y-17577001D01*
X-4494206Y-17545501D01*
X-4524887Y-17539217D01*
X-4559570Y-17532116D01*
X-4587951Y-17525804D01*
X-4611570Y-17519832D01*
X-4631964Y-17513755D01*
X-4650673Y-17507126D01*
X-4669235Y-17499496D01*
X-4683073Y-17493272D01*
X-4736054Y-17464533D01*
X-4785121Y-17429388D01*
X-4829705Y-17388566D01*
X-4869233Y-17342795D01*
X-4903134Y-17292803D01*
X-4930837Y-17239319D01*
X-4951771Y-17183072D01*
X-4963418Y-17135752D01*
X-4971542Y-17072993D01*
X-4972079Y-17011364D01*
X-4965355Y-16951349D01*
X-4951696Y-16893433D01*
X-4931426Y-16838104D01*
X-4904871Y-16785845D01*
X-4872355Y-16737142D01*
X-4834205Y-16692481D01*
X-4790745Y-16652346D01*
X-4742300Y-16617225D01*
X-4689196Y-16587601D01*
X-4631758Y-16563960D01*
X-4570311Y-16546788D01*
X-4568601Y-16546419D01*
X-4550919Y-16543237D01*
X-4531677Y-16541113D01*
X-4508978Y-16539916D01*
X-4480930Y-16539514D01*
X-4469382Y-16539537D01*
G37*
X-3113706Y-17496944D02*
X-3103689Y-17499701D01*
X-3097802Y-17501893D01*
X-3091812Y-17504868D01*
X-3085087Y-17509183D01*
X-3076996Y-17515397D01*
X-3066906Y-17524068D01*
X-3054186Y-17535754D01*
X-3038203Y-17551014D01*
X-3018325Y-17570404D01*
X-2993921Y-17594483D01*
X-2974157Y-17614080D01*
X-2866011Y-17721433D01*
X-2759845Y-17616232D01*
X-2731277Y-17588145D01*
X-2705522Y-17563269D01*
X-2683075Y-17542058D01*
X-2664428Y-17524971D01*
X-2650076Y-17512464D01*
X-2640513Y-17504993D01*
X-2637804Y-17503347D01*
X-2619653Y-17497707D01*
X-2597647Y-17495447D01*
X-2574938Y-17496528D01*
X-2554679Y-17500911D01*
X-2546147Y-17504489D01*
X-2526917Y-17518143D01*
X-2510139Y-17536514D01*
X-2498889Y-17555827D01*
X-2494821Y-17571697D01*
X-2493195Y-17591689D01*
X-2494004Y-17612373D01*
X-2497238Y-17630321D01*
X-2499093Y-17635689D01*
X-2504005Y-17643205D01*
X-2514648Y-17656014D01*
X-2530930Y-17674015D01*
X-2552756Y-17697108D01*
X-2580035Y-17725192D01*
X-2612673Y-17758167D01*
X-2613064Y-17758559D01*
X-2720887Y-17866673D01*
X-2615058Y-17972974D01*
X-2584116Y-18004238D01*
X-2558609Y-18030431D01*
X-2538195Y-18051925D01*
X-2522533Y-18069093D01*
X-2511280Y-18082307D01*
X-2504096Y-18091939D01*
X-2501173Y-18097031D01*
X-2494104Y-18121344D01*
X-2493008Y-18147931D01*
X-2497820Y-18173913D01*
X-2503224Y-18187437D01*
X-2518879Y-18210652D01*
X-2539503Y-18227874D01*
X-2562126Y-18237933D01*
X-2579823Y-18242314D01*
X-2594838Y-18243348D01*
X-2610844Y-18241009D01*
X-2624185Y-18237471D01*
X-2629927Y-18235599D01*
X-2635561Y-18233123D01*
X-2641713Y-18229495D01*
X-2649007Y-18224164D01*
X-2658067Y-18216580D01*
X-2669517Y-18206195D01*
X-2683982Y-18192456D01*
X-2702086Y-18174816D01*
X-2724453Y-18152724D01*
X-2751707Y-18125630D01*
X-2755874Y-18121480D01*
X-2866007Y-18011789D01*
X-2976140Y-18121480D01*
X-3004116Y-18149305D01*
X-3027118Y-18172053D01*
X-3045771Y-18190273D01*
X-3060700Y-18204516D01*
X-3072528Y-18215330D01*
X-3081879Y-18223266D01*
X-3089379Y-18228875D01*
X-3095651Y-18232705D01*
X-3101320Y-18235306D01*
X-3107010Y-18237229D01*
X-3107829Y-18237471D01*
X-3126610Y-18242124D01*
X-3141901Y-18243383D01*
X-3157373Y-18241278D01*
X-3169888Y-18237933D01*
X-3194545Y-18226692D01*
X-3214425Y-18209602D01*
X-3228856Y-18187607D01*
X-3237166Y-18161652D01*
X-3238982Y-18140798D01*
X-3238748Y-18129644D01*
X-3237797Y-18119682D01*
X-3235633Y-18110230D01*
X-3231761Y-18100607D01*
X-3225687Y-18090132D01*
X-3216914Y-18078124D01*
X-3204948Y-18063903D01*
X-3189294Y-18046786D01*
X-3169456Y-18026095D01*
X-3144940Y-18001146D01*
X-3116956Y-17972974D01*
X-3011127Y-17866673D01*
X-3118789Y-17758559D01*
X-3151189Y-17725807D01*
X-3177947Y-17698278D01*
X-3199233Y-17675790D01*
X-3215216Y-17658158D01*
X-3226067Y-17645200D01*
X-3231953Y-17636730D01*
X-3232760Y-17635077D01*
X-3238627Y-17611156D01*
X-3238409Y-17585114D01*
X-3232552Y-17559340D01*
X-3221501Y-17536224D01*
X-3212046Y-17524073D01*
X-3191856Y-17508280D01*
X-3167562Y-17498230D01*
X-3140924Y-17494320D01*
X-3113706Y-17496944D01*
G36*
X-3113706Y-17496944D02*
G01*
X-3103689Y-17499701D01*
X-3097802Y-17501893D01*
X-3091812Y-17504868D01*
X-3085087Y-17509183D01*
X-3076996Y-17515397D01*
X-3066906Y-17524068D01*
X-3054186Y-17535754D01*
X-3038203Y-17551014D01*
X-3018325Y-17570404D01*
X-2993921Y-17594483D01*
X-2974157Y-17614080D01*
X-2866011Y-17721433D01*
X-2759845Y-17616232D01*
X-2731277Y-17588145D01*
X-2705522Y-17563269D01*
X-2683075Y-17542058D01*
X-2664428Y-17524971D01*
X-2650076Y-17512464D01*
X-2640513Y-17504993D01*
X-2637804Y-17503347D01*
X-2619653Y-17497707D01*
X-2597647Y-17495447D01*
X-2574938Y-17496528D01*
X-2554679Y-17500911D01*
X-2546147Y-17504489D01*
X-2526917Y-17518143D01*
X-2510139Y-17536514D01*
X-2498889Y-17555827D01*
X-2494821Y-17571697D01*
X-2493195Y-17591689D01*
X-2494004Y-17612373D01*
X-2497238Y-17630321D01*
X-2499093Y-17635689D01*
X-2504005Y-17643205D01*
X-2514648Y-17656014D01*
X-2530930Y-17674015D01*
X-2552756Y-17697108D01*
X-2580035Y-17725192D01*
X-2612673Y-17758167D01*
X-2613064Y-17758559D01*
X-2720887Y-17866673D01*
X-2615058Y-17972974D01*
X-2584116Y-18004238D01*
X-2558609Y-18030431D01*
X-2538195Y-18051925D01*
X-2522533Y-18069093D01*
X-2511280Y-18082307D01*
X-2504096Y-18091939D01*
X-2501173Y-18097031D01*
X-2494104Y-18121344D01*
X-2493008Y-18147931D01*
X-2497820Y-18173913D01*
X-2503224Y-18187437D01*
X-2518879Y-18210652D01*
X-2539503Y-18227874D01*
X-2562126Y-18237933D01*
X-2579823Y-18242314D01*
X-2594838Y-18243348D01*
X-2610844Y-18241009D01*
X-2624185Y-18237471D01*
X-2629927Y-18235599D01*
X-2635561Y-18233123D01*
X-2641713Y-18229495D01*
X-2649007Y-18224164D01*
X-2658067Y-18216580D01*
X-2669517Y-18206195D01*
X-2683982Y-18192456D01*
X-2702086Y-18174816D01*
X-2724453Y-18152724D01*
X-2751707Y-18125630D01*
X-2755874Y-18121480D01*
X-2866007Y-18011789D01*
X-2976140Y-18121480D01*
X-3004116Y-18149305D01*
X-3027118Y-18172053D01*
X-3045771Y-18190273D01*
X-3060700Y-18204516D01*
X-3072528Y-18215330D01*
X-3081879Y-18223266D01*
X-3089379Y-18228875D01*
X-3095651Y-18232705D01*
X-3101320Y-18235306D01*
X-3107010Y-18237229D01*
X-3107829Y-18237471D01*
X-3126610Y-18242124D01*
X-3141901Y-18243383D01*
X-3157373Y-18241278D01*
X-3169888Y-18237933D01*
X-3194545Y-18226692D01*
X-3214425Y-18209602D01*
X-3228856Y-18187607D01*
X-3237166Y-18161652D01*
X-3238982Y-18140798D01*
X-3238748Y-18129644D01*
X-3237797Y-18119682D01*
X-3235633Y-18110230D01*
X-3231761Y-18100607D01*
X-3225687Y-18090132D01*
X-3216914Y-18078124D01*
X-3204948Y-18063903D01*
X-3189294Y-18046786D01*
X-3169456Y-18026095D01*
X-3144940Y-18001146D01*
X-3116956Y-17972974D01*
X-3011127Y-17866673D01*
X-3118789Y-17758559D01*
X-3151189Y-17725807D01*
X-3177947Y-17698278D01*
X-3199233Y-17675790D01*
X-3215216Y-17658158D01*
X-3226067Y-17645200D01*
X-3231953Y-17636730D01*
X-3232760Y-17635077D01*
X-3238627Y-17611156D01*
X-3238409Y-17585114D01*
X-3232552Y-17559340D01*
X-3221501Y-17536224D01*
X-3212046Y-17524073D01*
X-3191856Y-17508280D01*
X-3167562Y-17498230D01*
X-3140924Y-17494320D01*
X-3113706Y-17496944D01*
G37*
D12*
%TO.C,*%
G36*
X7556596Y-10840563D02*
G01*
X7660135Y-10891180D01*
X7741628Y-10972673D01*
X7792245Y-11076212D01*
X7806800Y-11176108D01*
X7806800Y-11375908D01*
X7792245Y-11475804D01*
X7741628Y-11579343D01*
X7660135Y-11660836D01*
X7556596Y-11711453D01*
X7456700Y-11726008D01*
X3606900Y-11726008D01*
X3507004Y-11711453D01*
X3403465Y-11660836D01*
X3321972Y-11579343D01*
X3271355Y-11475804D01*
X3256800Y-11375908D01*
X3256800Y-11176108D01*
X3271355Y-11076212D01*
X3321972Y-10972673D01*
X3403465Y-10891180D01*
X3507004Y-10840563D01*
X3606900Y-10826008D01*
X7456700Y-10826008D01*
X7556596Y-10840563D01*
G37*
G36*
X8056596Y-8300563D02*
G01*
X8160135Y-8351180D01*
X8241628Y-8432673D01*
X8292245Y-8536212D01*
X8306800Y-8636108D01*
X8306800Y-8835908D01*
X8292245Y-8935804D01*
X8241628Y-9039343D01*
X8160135Y-9120836D01*
X8056596Y-9171453D01*
X7956700Y-9186008D01*
X3606900Y-9186008D01*
X3507004Y-9171453D01*
X3403465Y-9120836D01*
X3321972Y-9039343D01*
X3271355Y-8935804D01*
X3256800Y-8835908D01*
X3256800Y-8636108D01*
X3271355Y-8536212D01*
X3321972Y-8432673D01*
X3403465Y-8351180D01*
X3507004Y-8300563D01*
X3606900Y-8286008D01*
X7956700Y-8286008D01*
X8056596Y-8300563D01*
G37*
G36*
X8056596Y-9570563D02*
G01*
X8160135Y-9621180D01*
X8241628Y-9702673D01*
X8292245Y-9806212D01*
X8306800Y-9906108D01*
X8306800Y-10105908D01*
X8292245Y-10205804D01*
X8241628Y-10309343D01*
X8160135Y-10390836D01*
X8056596Y-10441453D01*
X7956700Y-10456008D01*
X3606900Y-10456008D01*
X3507004Y-10441453D01*
X3403465Y-10390836D01*
X3321972Y-10309343D01*
X3271355Y-10205804D01*
X3256800Y-10105908D01*
X3256800Y-9906108D01*
X3271355Y-9806212D01*
X3321972Y-9702673D01*
X3403465Y-9621180D01*
X3507004Y-9570563D01*
X3606900Y-9556008D01*
X7956700Y-9556008D01*
X8056596Y-9570563D01*
G37*
D11*
%TO.C,MH2*%
X2075855Y19975607D02*
X2135473Y19967912D01*
X2193267Y19953100D01*
X2197084Y19951838D01*
X2253142Y19928924D01*
X2306092Y19899124D01*
X2355247Y19863109D01*
X2399921Y19821546D01*
X2439428Y19775103D01*
X2473081Y19724450D01*
X2500194Y19670254D01*
X2508868Y19648245D01*
X2513418Y19633956D01*
X2518949Y19613734D01*
X2524996Y19589450D01*
X2531093Y19562974D01*
X2536774Y19536180D01*
X2536862Y19535741D01*
X2558489Y19436012D01*
X2582080Y19342244D01*
X2608196Y19252589D01*
X2637397Y19165194D01*
X2670243Y19078211D01*
X2689795Y19030514D01*
X2703475Y18996006D01*
X2712851Y18967174D01*
X2717976Y18943057D01*
X2718904Y18922699D01*
X2715689Y18905140D01*
X2708384Y18889420D01*
X2698433Y18876140D01*
X2689483Y18866875D01*
X2679773Y18859209D01*
X2667917Y18852473D01*
X2652525Y18845997D01*
X2632212Y18839110D01*
X2605589Y18831143D01*
X2604703Y18830887D01*
X2547912Y18813203D01*
X2496181Y18794158D01*
X2446638Y18772631D01*
X2413577Y18756437D01*
X2338443Y18713699D01*
X2266865Y18664175D01*
X2199569Y18608495D01*
X2137284Y18547291D01*
X2080737Y18481194D01*
X2052975Y18443873D01*
X2031042Y18415075D01*
X2010708Y18393324D01*
X1991247Y18378079D01*
X1971930Y18368799D01*
X1952033Y18364940D01*
X1946868Y18364759D01*
X1928317Y18366647D01*
X1911583Y18372980D01*
X1895958Y18384417D01*
X1880733Y18401616D01*
X1865198Y18425238D01*
X1848647Y18455941D01*
X1848490Y18456252D01*
X1791093Y18577841D01*
X1737666Y18705489D01*
X1688547Y18838199D01*
X1644073Y18974975D01*
X1604582Y19114819D01*
X1570410Y19256733D01*
X1557997Y19315373D01*
X1547190Y19374850D01*
X1540277Y19427984D01*
X1537220Y19475326D01*
X1537981Y19517429D01*
X1541851Y19551016D01*
X1556344Y19614451D01*
X1577720Y19674233D01*
X1605741Y19730011D01*
X1640166Y19781437D01*
X1680757Y19828159D01*
X1727274Y19869827D01*
X1779479Y19906092D01*
X1787789Y19911046D01*
X1840504Y19937341D01*
X1896736Y19957051D01*
X1955418Y19970070D01*
X2015481Y19976291D01*
X2075855Y19975607D01*
G36*
X2075855Y19975607D02*
G01*
X2135473Y19967912D01*
X2193267Y19953100D01*
X2197084Y19951838D01*
X2253142Y19928924D01*
X2306092Y19899124D01*
X2355247Y19863109D01*
X2399921Y19821546D01*
X2439428Y19775103D01*
X2473081Y19724450D01*
X2500194Y19670254D01*
X2508868Y19648245D01*
X2513418Y19633956D01*
X2518949Y19613734D01*
X2524996Y19589450D01*
X2531093Y19562974D01*
X2536774Y19536180D01*
X2536862Y19535741D01*
X2558489Y19436012D01*
X2582080Y19342244D01*
X2608196Y19252589D01*
X2637397Y19165194D01*
X2670243Y19078211D01*
X2689795Y19030514D01*
X2703475Y18996006D01*
X2712851Y18967174D01*
X2717976Y18943057D01*
X2718904Y18922699D01*
X2715689Y18905140D01*
X2708384Y18889420D01*
X2698433Y18876140D01*
X2689483Y18866875D01*
X2679773Y18859209D01*
X2667917Y18852473D01*
X2652525Y18845997D01*
X2632212Y18839110D01*
X2605589Y18831143D01*
X2604703Y18830887D01*
X2547912Y18813203D01*
X2496181Y18794158D01*
X2446638Y18772631D01*
X2413577Y18756437D01*
X2338443Y18713699D01*
X2266865Y18664175D01*
X2199569Y18608495D01*
X2137284Y18547291D01*
X2080737Y18481194D01*
X2052975Y18443873D01*
X2031042Y18415075D01*
X2010708Y18393324D01*
X1991247Y18378079D01*
X1971930Y18368799D01*
X1952033Y18364940D01*
X1946868Y18364759D01*
X1928317Y18366647D01*
X1911583Y18372980D01*
X1895958Y18384417D01*
X1880733Y18401616D01*
X1865198Y18425238D01*
X1848647Y18455941D01*
X1848490Y18456252D01*
X1791093Y18577841D01*
X1737666Y18705489D01*
X1688547Y18838199D01*
X1644073Y18974975D01*
X1604582Y19114819D01*
X1570410Y19256733D01*
X1557997Y19315373D01*
X1547190Y19374850D01*
X1540277Y19427984D01*
X1537220Y19475326D01*
X1537981Y19517429D01*
X1541851Y19551016D01*
X1556344Y19614451D01*
X1577720Y19674233D01*
X1605741Y19730011D01*
X1640166Y19781437D01*
X1680757Y19828159D01*
X1727274Y19869827D01*
X1779479Y19906092D01*
X1787789Y19911046D01*
X1840504Y19937341D01*
X1896736Y19957051D01*
X1955418Y19970070D01*
X2015481Y19976291D01*
X2075855Y19975607D01*
G37*
X2609126Y18269926D02*
X2615993Y18269327D01*
X2622572Y18268285D01*
X2629218Y18266488D01*
X2636289Y18263622D01*
X2644142Y18259375D01*
X2653134Y18253436D01*
X2663623Y18245491D01*
X2675966Y18235227D01*
X2690519Y18222334D01*
X2707640Y18206497D01*
X2727687Y18187405D01*
X2751016Y18164745D01*
X2777984Y18138205D01*
X2808949Y18107472D01*
X2844268Y18072233D01*
X2884299Y18032177D01*
X2929397Y17986991D01*
X2955648Y17960683D01*
X3002101Y17914122D01*
X3043268Y17872826D01*
X3079476Y17836450D01*
X3111056Y17804648D01*
X3138334Y17777076D01*
X3161640Y17753388D01*
X3181301Y17733238D01*
X3197647Y17716282D01*
X3211005Y17702174D01*
X3221704Y17690568D01*
X3230073Y17681119D01*
X3236439Y17673482D01*
X3241132Y17667312D01*
X3244479Y17662263D01*
X3246810Y17657989D01*
X3248451Y17654147D01*
X3249221Y17651969D01*
X3255941Y17620437D01*
X3255336Y17589527D01*
X3247803Y17560306D01*
X3233742Y17533838D01*
X3213551Y17511190D01*
X3190537Y17494990D01*
X3179723Y17489405D01*
X3170211Y17485941D01*
X3159495Y17484103D01*
X3145072Y17483391D01*
X3131724Y17483297D01*
X3112184Y17483641D01*
X3098002Y17484954D01*
X3086620Y17487660D01*
X3075476Y17492180D01*
X3074177Y17492796D01*
X3069747Y17495461D01*
X3063416Y17500223D01*
X3054881Y17507374D01*
X3043843Y17517202D01*
X3030000Y17530000D01*
X3013049Y17546058D01*
X2992691Y17565666D01*
X2968622Y17589116D01*
X2940543Y17616697D01*
X2908151Y17648702D01*
X2871146Y17685419D01*
X2829225Y17727141D01*
X2782087Y17774157D01*
X2771730Y17784499D01*
X2724913Y17831273D01*
X2683408Y17872798D01*
X2646888Y17909413D01*
X2615028Y17941459D01*
X2587502Y17969272D01*
X2563983Y17993193D01*
X2544146Y18013561D01*
X2527665Y18030714D01*
X2514213Y18044992D01*
X2503465Y18056734D01*
X2495094Y18066278D01*
X2488775Y18073964D01*
X2484182Y18080130D01*
X2480988Y18085116D01*
X2479041Y18088872D01*
X2470516Y18114436D01*
X2466788Y18141533D01*
X2468165Y18167144D01*
X2470166Y18176124D01*
X2482406Y18206152D01*
X2500308Y18231130D01*
X2523085Y18250495D01*
X2549949Y18263680D01*
X2580112Y18270122D01*
X2601611Y18270394D01*
X2609126Y18269926D01*
G36*
X2609126Y18269926D02*
G01*
X2615993Y18269327D01*
X2622572Y18268285D01*
X2629218Y18266488D01*
X2636289Y18263622D01*
X2644142Y18259375D01*
X2653134Y18253436D01*
X2663623Y18245491D01*
X2675966Y18235227D01*
X2690519Y18222334D01*
X2707640Y18206497D01*
X2727687Y18187405D01*
X2751016Y18164745D01*
X2777984Y18138205D01*
X2808949Y18107472D01*
X2844268Y18072233D01*
X2884299Y18032177D01*
X2929397Y17986991D01*
X2955648Y17960683D01*
X3002101Y17914122D01*
X3043268Y17872826D01*
X3079476Y17836450D01*
X3111056Y17804648D01*
X3138334Y17777076D01*
X3161640Y17753388D01*
X3181301Y17733238D01*
X3197647Y17716282D01*
X3211005Y17702174D01*
X3221704Y17690568D01*
X3230073Y17681119D01*
X3236439Y17673482D01*
X3241132Y17667312D01*
X3244479Y17662263D01*
X3246810Y17657989D01*
X3248451Y17654147D01*
X3249221Y17651969D01*
X3255941Y17620437D01*
X3255336Y17589527D01*
X3247803Y17560306D01*
X3233742Y17533838D01*
X3213551Y17511190D01*
X3190537Y17494990D01*
X3179723Y17489405D01*
X3170211Y17485941D01*
X3159495Y17484103D01*
X3145072Y17483391D01*
X3131724Y17483297D01*
X3112184Y17483641D01*
X3098002Y17484954D01*
X3086620Y17487660D01*
X3075476Y17492180D01*
X3074177Y17492796D01*
X3069747Y17495461D01*
X3063416Y17500223D01*
X3054881Y17507374D01*
X3043843Y17517202D01*
X3030000Y17530000D01*
X3013049Y17546058D01*
X2992691Y17565666D01*
X2968622Y17589116D01*
X2940543Y17616697D01*
X2908151Y17648702D01*
X2871146Y17685419D01*
X2829225Y17727141D01*
X2782087Y17774157D01*
X2771730Y17784499D01*
X2724913Y17831273D01*
X2683408Y17872798D01*
X2646888Y17909413D01*
X2615028Y17941459D01*
X2587502Y17969272D01*
X2563983Y17993193D01*
X2544146Y18013561D01*
X2527665Y18030714D01*
X2514213Y18044992D01*
X2503465Y18056734D01*
X2495094Y18066278D01*
X2488775Y18073964D01*
X2484182Y18080130D01*
X2480988Y18085116D01*
X2479041Y18088872D01*
X2470516Y18114436D01*
X2466788Y18141533D01*
X2468165Y18167144D01*
X2470166Y18176124D01*
X2482406Y18206152D01*
X2500308Y18231130D01*
X2523085Y18250495D01*
X2549949Y18263680D01*
X2580112Y18270122D01*
X2601611Y18270394D01*
X2609126Y18269926D01*
G37*
X3939107Y17727466D02*
X3964559Y17719731D01*
X3986990Y17710536D01*
X4107509Y17661092D01*
X4231798Y17617810D01*
X4360440Y17580510D01*
X4494017Y17549010D01*
X4524698Y17542726D01*
X4559381Y17535625D01*
X4587762Y17529313D01*
X4611381Y17523341D01*
X4631775Y17517264D01*
X4650484Y17510635D01*
X4669046Y17503005D01*
X4682884Y17496781D01*
X4735865Y17468042D01*
X4784932Y17432897D01*
X4829516Y17392075D01*
X4869044Y17346304D01*
X4902945Y17296312D01*
X4930648Y17242828D01*
X4951582Y17186581D01*
X4963229Y17139261D01*
X4971353Y17076502D01*
X4971890Y17014873D01*
X4965166Y16954858D01*
X4951507Y16896942D01*
X4931237Y16841613D01*
X4904682Y16789354D01*
X4872166Y16740651D01*
X4834016Y16695990D01*
X4790556Y16655855D01*
X4742111Y16620734D01*
X4689007Y16591110D01*
X4631569Y16567469D01*
X4570122Y16550297D01*
X4568412Y16549928D01*
X4550730Y16546746D01*
X4531488Y16544622D01*
X4508789Y16543425D01*
X4480741Y16543023D01*
X4469193Y16543046D01*
X4447508Y16543423D01*
X4426545Y16544427D01*
X4405302Y16546220D01*
X4382774Y16548963D01*
X4357957Y16552818D01*
X4329847Y16557947D01*
X4297440Y16564510D01*
X4259733Y16572670D01*
X4215720Y16582589D01*
X4197334Y16586807D01*
X4083921Y16615320D01*
X3967742Y16649115D01*
X3850654Y16687526D01*
X3734513Y16729886D01*
X3621176Y16775528D01*
X3512500Y16823787D01*
X3441331Y16858197D01*
X3413804Y16872682D01*
X3392773Y16885476D01*
X3377201Y16897390D01*
X3366049Y16909232D01*
X3358280Y16921812D01*
X3357407Y16923669D01*
X3351432Y16941703D01*
X3351484Y16958527D01*
X3355439Y16972768D01*
X3366293Y16992480D01*
X3384614Y17012727D01*
X3409994Y17033072D01*
X3414780Y17036373D01*
X3488012Y17090447D01*
X3555480Y17149651D01*
X3616942Y17213692D01*
X3672158Y17282278D01*
X3720884Y17355114D01*
X3762879Y17431910D01*
X3788387Y17488460D01*
X3800732Y17519651D01*
X3811952Y17551044D01*
X3822702Y17584665D01*
X3833639Y17622542D01*
X3842495Y17655480D01*
X3847807Y17673723D01*
X3853222Y17686771D01*
X3860061Y17697272D01*
X3867514Y17705693D01*
X3883077Y17719132D01*
X3899464Y17727211D01*
X3917775Y17729974D01*
X3939107Y17727466D01*
G36*
X3939107Y17727466D02*
G01*
X3964559Y17719731D01*
X3986990Y17710536D01*
X4107509Y17661092D01*
X4231798Y17617810D01*
X4360440Y17580510D01*
X4494017Y17549010D01*
X4524698Y17542726D01*
X4559381Y17535625D01*
X4587762Y17529313D01*
X4611381Y17523341D01*
X4631775Y17517264D01*
X4650484Y17510635D01*
X4669046Y17503005D01*
X4682884Y17496781D01*
X4735865Y17468042D01*
X4784932Y17432897D01*
X4829516Y17392075D01*
X4869044Y17346304D01*
X4902945Y17296312D01*
X4930648Y17242828D01*
X4951582Y17186581D01*
X4963229Y17139261D01*
X4971353Y17076502D01*
X4971890Y17014873D01*
X4965166Y16954858D01*
X4951507Y16896942D01*
X4931237Y16841613D01*
X4904682Y16789354D01*
X4872166Y16740651D01*
X4834016Y16695990D01*
X4790556Y16655855D01*
X4742111Y16620734D01*
X4689007Y16591110D01*
X4631569Y16567469D01*
X4570122Y16550297D01*
X4568412Y16549928D01*
X4550730Y16546746D01*
X4531488Y16544622D01*
X4508789Y16543425D01*
X4480741Y16543023D01*
X4469193Y16543046D01*
X4447508Y16543423D01*
X4426545Y16544427D01*
X4405302Y16546220D01*
X4382774Y16548963D01*
X4357957Y16552818D01*
X4329847Y16557947D01*
X4297440Y16564510D01*
X4259733Y16572670D01*
X4215720Y16582589D01*
X4197334Y16586807D01*
X4083921Y16615320D01*
X3967742Y16649115D01*
X3850654Y16687526D01*
X3734513Y16729886D01*
X3621176Y16775528D01*
X3512500Y16823787D01*
X3441331Y16858197D01*
X3413804Y16872682D01*
X3392773Y16885476D01*
X3377201Y16897390D01*
X3366049Y16909232D01*
X3358280Y16921812D01*
X3357407Y16923669D01*
X3351432Y16941703D01*
X3351484Y16958527D01*
X3355439Y16972768D01*
X3366293Y16992480D01*
X3384614Y17012727D01*
X3409994Y17033072D01*
X3414780Y17036373D01*
X3488012Y17090447D01*
X3555480Y17149651D01*
X3616942Y17213692D01*
X3672158Y17282278D01*
X3720884Y17355114D01*
X3762879Y17431910D01*
X3788387Y17488460D01*
X3800732Y17519651D01*
X3811952Y17551044D01*
X3822702Y17584665D01*
X3833639Y17622542D01*
X3842495Y17655480D01*
X3847807Y17673723D01*
X3853222Y17686771D01*
X3860061Y17697272D01*
X3867514Y17705693D01*
X3883077Y17719132D01*
X3899464Y17727211D01*
X3917775Y17729974D01*
X3939107Y17727466D01*
G37*
D12*
%TO.C,*%
G36*
X-3505012Y465445D02*
G01*
X-3401473Y414828D01*
X-3319980Y333335D01*
X-3269363Y229796D01*
X-3254808Y129900D01*
X-3254808Y-69900D01*
X-3269363Y-169796D01*
X-3319980Y-273335D01*
X-3401473Y-354828D01*
X-3505012Y-405445D01*
X-3604908Y-420000D01*
X-7954708Y-420000D01*
X-8054604Y-405445D01*
X-8158143Y-354828D01*
X-8239636Y-273335D01*
X-8290253Y-169796D01*
X-8304808Y-69900D01*
X-8304808Y129900D01*
X-8290253Y229796D01*
X-8239636Y333335D01*
X-8158143Y414828D01*
X-8054604Y465445D01*
X-7954708Y480000D01*
X-3604908Y480000D01*
X-3505012Y465445D01*
G37*
G36*
X-3505012Y-804555D02*
G01*
X-3401473Y-855172D01*
X-3319980Y-936665D01*
X-3269363Y-1040204D01*
X-3254808Y-1140100D01*
X-3254808Y-1339900D01*
X-3269363Y-1439796D01*
X-3319980Y-1543335D01*
X-3401473Y-1624828D01*
X-3505012Y-1675445D01*
X-3604908Y-1690000D01*
X-7954708Y-1690000D01*
X-8054604Y-1675445D01*
X-8158143Y-1624828D01*
X-8239636Y-1543335D01*
X-8290253Y-1439796D01*
X-8304808Y-1339900D01*
X-8304808Y-1140100D01*
X-8290253Y-1040204D01*
X-8239636Y-936665D01*
X-8158143Y-855172D01*
X-8054604Y-804555D01*
X-7954708Y-790000D01*
X-3604908Y-790000D01*
X-3505012Y-804555D01*
G37*
G36*
X-3505012Y1735445D02*
G01*
X-3401473Y1684828D01*
X-3319980Y1603335D01*
X-3269363Y1499796D01*
X-3254808Y1399900D01*
X-3254808Y1200100D01*
X-3269363Y1100204D01*
X-3319980Y996665D01*
X-3401473Y915172D01*
X-3505012Y864555D01*
X-3604908Y850000D01*
X-7454708Y850000D01*
X-7554604Y864555D01*
X-7658143Y915172D01*
X-7739636Y996665D01*
X-7790253Y1100204D01*
X-7804808Y1200100D01*
X-7804808Y1399900D01*
X-7790253Y1499796D01*
X-7739636Y1603335D01*
X-7658143Y1684828D01*
X-7554604Y1735445D01*
X-7454708Y1750000D01*
X-3604908Y1750000D01*
X-3505012Y1735445D01*
G37*
G36*
X7556596Y9195445D02*
G01*
X7660135Y9144828D01*
X7741628Y9063335D01*
X7792245Y8959796D01*
X7806800Y8859900D01*
X7806800Y8660100D01*
X7792245Y8560204D01*
X7741628Y8456665D01*
X7660135Y8375172D01*
X7556596Y8324555D01*
X7456700Y8310000D01*
X3606900Y8310000D01*
X3507004Y8324555D01*
X3403465Y8375172D01*
X3321972Y8456665D01*
X3271355Y8560204D01*
X3256800Y8660100D01*
X3256800Y8859900D01*
X3271355Y8959796D01*
X3321972Y9063335D01*
X3403465Y9144828D01*
X3507004Y9195445D01*
X3606900Y9210000D01*
X7456700Y9210000D01*
X7556596Y9195445D01*
G37*
G36*
X8056596Y11735445D02*
G01*
X8160135Y11684828D01*
X8241628Y11603335D01*
X8292245Y11499796D01*
X8306800Y11399900D01*
X8306800Y11200100D01*
X8292245Y11100204D01*
X8241628Y10996665D01*
X8160135Y10915172D01*
X8056596Y10864555D01*
X7956700Y10850000D01*
X3606900Y10850000D01*
X3507004Y10864555D01*
X3403465Y10915172D01*
X3321972Y10996665D01*
X3271355Y11100204D01*
X3256800Y11200100D01*
X3256800Y11399900D01*
X3271355Y11499796D01*
X3321972Y11603335D01*
X3403465Y11684828D01*
X3507004Y11735445D01*
X3606900Y11750000D01*
X7956700Y11750000D01*
X8056596Y11735445D01*
G37*
G36*
X8056596Y10465445D02*
G01*
X8160135Y10414828D01*
X8241628Y10333335D01*
X8292245Y10229796D01*
X8306800Y10129900D01*
X8306800Y9930100D01*
X8292245Y9830204D01*
X8241628Y9726665D01*
X8160135Y9645172D01*
X8056596Y9594555D01*
X7956700Y9580000D01*
X3606900Y9580000D01*
X3507004Y9594555D01*
X3403465Y9645172D01*
X3321972Y9726665D01*
X3271355Y9830204D01*
X3256800Y9930100D01*
X3256800Y10129900D01*
X3271355Y10229796D01*
X3321972Y10333335D01*
X3403465Y10414828D01*
X3507004Y10465445D01*
X3606900Y10480000D01*
X7956700Y10480000D01*
X8056596Y10465445D01*
G37*
%TD*%
M02*
