%TF.GenerationSoftware,KiCad,Pcbnew,8.0.8*%
%TF.CreationDate,2025-02-10T21:52:26+00:00*%
%TF.ProjectId,ec30_4x4_jacplane_0.1,65633330-5f34-4783-945f-6a6163706c61,v0.1*%
%TF.SameCoordinates,PX8b3c880PY623a7c0*%
%TF.FileFunction,Soldermask,Top*%
%TF.FilePolarity,Negative*%
%FSLAX46Y46*%
G04 Gerber Fmt 4.6, Leading zero omitted, Abs format (unit mm)*
G04 Created by KiCad (PCBNEW 8.0.8) date 2025-02-10 21:52:26*
%MOMM*%
%LPD*%
G01*
G04 APERTURE LIST*
%ADD10C,0.010000*%
%ADD11C,0.000000*%
%ADD12C,2.930000*%
G04 APERTURE END LIST*
D10*
%TO.C,J202*%
X990470Y-2957050D02*
X2130700Y-2951990D01*
X2130700Y-2951990D02*
X2365280Y-3184510D01*
X2365280Y-3184510D02*
X3003410Y-3495470D01*
X2951990Y-2130700D02*
X2957040Y-990470D01*
X2951990Y-2130700D02*
X3184510Y-2365290D01*
X3184510Y-2365290D02*
X3495460Y-3003410D01*
X2957043Y-990471D02*
G75*
G02*
X990471Y-2957043I2042957J-4009529D01*
G01*
X3003411Y-3495462D02*
G75*
G02*
X3495462Y-3003411I1996619J-1504568D01*
G01*
D11*
G36*
X2957043Y-990471D02*
G01*
X2957043Y-990471D01*
G75*
G02*
X990471Y-2957043I2042957J-4009529D01*
G01*
X990470Y-2957050D01*
X2130700Y-2951990D01*
X2365280Y-3184510D01*
X3003411Y-3495462D01*
G75*
G02*
X3495462Y-3003411I1996589J-1504538D01*
G01*
X3495460Y-3003410D01*
X3184510Y-2365290D01*
X2951990Y-2130700D01*
X2957043Y-990471D01*
G37*
D10*
%TO.C,J000*%
X-13495460Y13003410D02*
X-13184510Y12365280D01*
X-13184510Y12365280D02*
X-12951990Y12130690D01*
X-13003410Y13495460D02*
X-12365280Y13184500D01*
X-12957040Y10990470D02*
X-12951990Y12130690D01*
X-12365280Y13184500D02*
X-12130700Y12951990D01*
X-12130700Y12951990D02*
X-10990470Y12957040D01*
X-13003411Y13495462D02*
G75*
G02*
X-13495462Y13003411I-1996619J1504568D01*
G01*
X-12957043Y10990471D02*
G75*
G02*
X-10990471Y12957043I-2042957J4009529D01*
G01*
D11*
G36*
X-12957043Y10990471D02*
G01*
X-12957043Y10990471D01*
G75*
G02*
X-10990471Y12957043I-2042957J4009529D01*
G01*
X-10990470Y12957040D01*
X-12130700Y12951990D01*
X-12365280Y13184500D01*
X-13003411Y13495462D01*
G75*
G02*
X-13495462Y13003411I-1996589J1504538D01*
G01*
X-13495460Y13003410D01*
X-13184510Y12365280D01*
X-12951990Y12130690D01*
X-12957043Y10990471D01*
G37*
D10*
%TO.C,J201*%
X-9009530Y-2957050D02*
X-7869300Y-2951990D01*
X-7869300Y-2951990D02*
X-7634720Y-3184510D01*
X-7634720Y-3184510D02*
X-6996590Y-3495470D01*
X-7048010Y-2130700D02*
X-7042960Y-990470D01*
X-7048010Y-2130700D02*
X-6815490Y-2365290D01*
X-6815490Y-2365290D02*
X-6504540Y-3003410D01*
X-7042957Y-990471D02*
G75*
G02*
X-9009529Y-2957043I2042957J-4009529D01*
G01*
X-6996589Y-3495462D02*
G75*
G02*
X-6504538Y-3003411I1996619J-1504568D01*
G01*
D11*
G36*
X-7042957Y-990471D02*
G01*
X-7042957Y-990471D01*
G75*
G02*
X-9009529Y-2957043I2042957J-4009529D01*
G01*
X-9009530Y-2957050D01*
X-7869300Y-2951990D01*
X-7634720Y-3184510D01*
X-6996589Y-3495462D01*
G75*
G02*
X-6504538Y-3003411I1996589J-1504538D01*
G01*
X-6504540Y-3003410D01*
X-6815490Y-2365290D01*
X-7048010Y-2130700D01*
X-7042957Y-990471D01*
G37*
D10*
%TO.C,J101*%
X-9009530Y7042950D02*
X-7869300Y7048010D01*
X-7869300Y7048010D02*
X-7634720Y6815490D01*
X-7634720Y6815490D02*
X-6996590Y6504530D01*
X-7048010Y7869300D02*
X-7042960Y9009530D01*
X-7048010Y7869300D02*
X-6815490Y7634720D01*
X-6815490Y7634720D02*
X-6504540Y6996590D01*
X-7042957Y9009529D02*
G75*
G02*
X-9009529Y7042957I2042957J-4009529D01*
G01*
X-6996589Y6504538D02*
G75*
G02*
X-6504538Y6996589I1996619J-1504568D01*
G01*
D11*
G36*
X-7042957Y9009529D02*
G01*
X-7042957Y9009529D01*
G75*
G02*
X-9009529Y7042957I2042957J-4009529D01*
G01*
X-9009530Y7042950D01*
X-7869300Y7048010D01*
X-7634720Y6815490D01*
X-6996589Y6504538D01*
G75*
G02*
X-6504538Y6996589I1996589J-1504538D01*
G01*
X-6504540Y6996590D01*
X-6815490Y7634720D01*
X-7048010Y7869300D01*
X-7042957Y9009529D01*
G37*
D10*
%TO.C,J303*%
X10990470Y-12957050D02*
X12130700Y-12952000D01*
X12130700Y-12952000D02*
X12365280Y-13184510D01*
X12365280Y-13184510D02*
X13003410Y-13495470D01*
X12951990Y-12130700D02*
X12957040Y-10990480D01*
X12951990Y-12130700D02*
X13184510Y-12365290D01*
X13184510Y-12365290D02*
X13495460Y-13003410D01*
X12957043Y-10990471D02*
G75*
G02*
X10990471Y-12957043I2042957J-4009529D01*
G01*
X13003411Y-13495462D02*
G75*
G02*
X13495462Y-13003411I1996619J-1504568D01*
G01*
D11*
G36*
X12957043Y-10990471D02*
G01*
X12957043Y-10990471D01*
G75*
G02*
X10990471Y-12957043I2042957J-4009529D01*
G01*
X10990470Y-12957050D01*
X12130700Y-12952000D01*
X12365280Y-13184510D01*
X13003411Y-13495462D01*
G75*
G02*
X13495462Y-13003411I1996589J-1504538D01*
G01*
X13495460Y-13003410D01*
X13184510Y-12365290D01*
X12951990Y-12130700D01*
X12957043Y-10990471D01*
G37*
D10*
%TO.C,J301*%
X-9009530Y-12957050D02*
X-7869300Y-12952000D01*
X-7869300Y-12952000D02*
X-7634720Y-13184510D01*
X-7634720Y-13184510D02*
X-6996590Y-13495470D01*
X-7048010Y-12130700D02*
X-7042960Y-10990480D01*
X-7048010Y-12130700D02*
X-6815490Y-12365290D01*
X-6815490Y-12365290D02*
X-6504540Y-13003410D01*
X-7042957Y-10990471D02*
G75*
G02*
X-9009529Y-12957043I2042957J-4009529D01*
G01*
X-6996589Y-13495462D02*
G75*
G02*
X-6504538Y-13003411I1996619J-1504568D01*
G01*
D11*
G36*
X-7042957Y-10990471D02*
G01*
X-7042957Y-10990471D01*
G75*
G02*
X-9009529Y-12957043I2042957J-4009529D01*
G01*
X-9009530Y-12957050D01*
X-7869300Y-12952000D01*
X-7634720Y-13184510D01*
X-6996589Y-13495462D01*
G75*
G02*
X-6504538Y-13003411I1996589J-1504538D01*
G01*
X-6504540Y-13003410D01*
X-6815490Y-12365290D01*
X-7048010Y-12130700D01*
X-7042957Y-10990471D01*
G37*
D10*
%TO.C,J001*%
X-9009530Y17042950D02*
X-7869300Y17048010D01*
X-7869300Y17048010D02*
X-7634720Y16815490D01*
X-7634720Y16815490D02*
X-6996590Y16504530D01*
X-7048010Y17869300D02*
X-7042960Y19009530D01*
X-7048010Y17869300D02*
X-6815490Y17634720D01*
X-6815490Y17634720D02*
X-6504540Y16996590D01*
X-7042957Y19009529D02*
G75*
G02*
X-9009529Y17042957I2042957J-4009529D01*
G01*
X-6996589Y16504538D02*
G75*
G02*
X-6504538Y16996589I1996619J-1504568D01*
G01*
D11*
G36*
X-7042957Y19009529D02*
G01*
X-7042957Y19009529D01*
G75*
G02*
X-9009529Y17042957I2042957J-4009529D01*
G01*
X-9009530Y17042950D01*
X-7869300Y17048010D01*
X-7634720Y16815490D01*
X-6996589Y16504538D01*
G75*
G02*
X-6504538Y16996589I1996589J-1504538D01*
G01*
X-6504540Y16996590D01*
X-6815490Y17634720D01*
X-7048010Y17869300D01*
X-7042957Y19009529D01*
G37*
D10*
%TO.C,J103*%
X10990470Y7042950D02*
X12130700Y7048010D01*
X12130700Y7048010D02*
X12365280Y6815490D01*
X12365280Y6815490D02*
X13003410Y6504530D01*
X12951990Y7869300D02*
X12957040Y9009530D01*
X12951990Y7869300D02*
X13184510Y7634720D01*
X13184510Y7634720D02*
X13495460Y6996590D01*
X12957043Y9009529D02*
G75*
G02*
X10990471Y7042957I2042957J-4009529D01*
G01*
X13003411Y6504538D02*
G75*
G02*
X13495462Y6996589I1996619J-1504568D01*
G01*
D11*
G36*
X12957043Y9009529D02*
G01*
X12957043Y9009529D01*
G75*
G02*
X10990471Y7042957I2042957J-4009529D01*
G01*
X10990470Y7042950D01*
X12130700Y7048010D01*
X12365280Y6815490D01*
X13003411Y6504538D01*
G75*
G02*
X13495462Y6996589I1996589J-1504538D01*
G01*
X13495460Y6996590D01*
X13184510Y7634720D01*
X12951990Y7869300D01*
X12957043Y9009529D01*
G37*
D10*
%TO.C,J002*%
X990470Y17042950D02*
X2130700Y17048010D01*
X2130700Y17048010D02*
X2365280Y16815490D01*
X2365280Y16815490D02*
X3003410Y16504530D01*
X2951990Y17869300D02*
X2957040Y19009530D01*
X2951990Y17869300D02*
X3184510Y17634720D01*
X3184510Y17634720D02*
X3495460Y16996590D01*
X2957043Y19009529D02*
G75*
G02*
X990471Y17042957I2042957J-4009529D01*
G01*
X3003411Y16504538D02*
G75*
G02*
X3495462Y16996589I1996619J-1504568D01*
G01*
D11*
G36*
X2957043Y19009529D02*
G01*
X2957043Y19009529D01*
G75*
G02*
X990471Y17042957I2042957J-4009529D01*
G01*
X990470Y17042950D01*
X2130700Y17048010D01*
X2365280Y16815490D01*
X3003411Y16504538D01*
G75*
G02*
X3495462Y16996589I1996589J-1504538D01*
G01*
X3495460Y16996590D01*
X3184510Y17634720D01*
X2951990Y17869300D01*
X2957043Y19009529D01*
G37*
D10*
%TO.C,J003*%
X10990470Y17042950D02*
X12130700Y17048010D01*
X12130700Y17048010D02*
X12365280Y16815490D01*
X12365280Y16815490D02*
X13003410Y16504530D01*
X12951990Y17869300D02*
X12957040Y19009530D01*
X12951990Y17869300D02*
X13184510Y17634720D01*
X13184510Y17634720D02*
X13495460Y16996590D01*
X12957043Y19009529D02*
G75*
G02*
X10990471Y17042957I2042957J-4009529D01*
G01*
X13003411Y16504538D02*
G75*
G02*
X13495462Y16996589I1996619J-1504568D01*
G01*
D11*
G36*
X12957043Y19009529D02*
G01*
X12957043Y19009529D01*
G75*
G02*
X10990471Y17042957I2042957J-4009529D01*
G01*
X10990470Y17042950D01*
X12130700Y17048010D01*
X12365280Y16815490D01*
X13003411Y16504538D01*
G75*
G02*
X13495462Y16996589I1996589J-1504538D01*
G01*
X13495460Y16996590D01*
X13184510Y17634720D01*
X12951990Y17869300D01*
X12957043Y19009529D01*
G37*
D10*
%TO.C,J300*%
X-19009530Y-12957050D02*
X-17869300Y-12952000D01*
X-17869300Y-12952000D02*
X-17634720Y-13184510D01*
X-17634720Y-13184510D02*
X-16996590Y-13495470D01*
X-17048010Y-12130700D02*
X-17042960Y-10990480D01*
X-17048010Y-12130700D02*
X-16815490Y-12365290D01*
X-16815490Y-12365290D02*
X-16504540Y-13003410D01*
X-17042957Y-10990471D02*
G75*
G02*
X-19009529Y-12957043I2042957J-4009529D01*
G01*
X-16996589Y-13495462D02*
G75*
G02*
X-16504538Y-13003411I1996619J-1504568D01*
G01*
D11*
G36*
X-17042957Y-10990471D02*
G01*
X-17042957Y-10990471D01*
G75*
G02*
X-19009529Y-12957043I2042957J-4009529D01*
G01*
X-19009530Y-12957050D01*
X-17869300Y-12952000D01*
X-17634720Y-13184510D01*
X-16996589Y-13495462D01*
G75*
G02*
X-16504538Y-13003411I1996589J-1504538D01*
G01*
X-16504540Y-13003410D01*
X-16815490Y-12365290D01*
X-17048010Y-12130700D01*
X-17042957Y-10990471D01*
G37*
D10*
%TO.C,J102*%
X990470Y7042950D02*
X2130700Y7048010D01*
X2130700Y7048010D02*
X2365280Y6815490D01*
X2365280Y6815490D02*
X3003410Y6504530D01*
X2951990Y7869300D02*
X2957040Y9009530D01*
X2951990Y7869300D02*
X3184510Y7634720D01*
X3184510Y7634720D02*
X3495460Y6996590D01*
X2957043Y9009529D02*
G75*
G02*
X990471Y7042957I2042957J-4009529D01*
G01*
X3003411Y6504538D02*
G75*
G02*
X3495462Y6996589I1996619J-1504568D01*
G01*
D11*
G36*
X2957043Y9009529D02*
G01*
X2957043Y9009529D01*
G75*
G02*
X990471Y7042957I2042957J-4009529D01*
G01*
X990470Y7042950D01*
X2130700Y7048010D01*
X2365280Y6815490D01*
X3003411Y6504538D01*
G75*
G02*
X3495462Y6996589I1996589J-1504538D01*
G01*
X3495460Y6996590D01*
X3184510Y7634720D01*
X2951990Y7869300D01*
X2957043Y9009529D01*
G37*
D10*
%TO.C,J302*%
X990470Y-12957050D02*
X2130700Y-12952000D01*
X2130700Y-12952000D02*
X2365280Y-13184510D01*
X2365280Y-13184510D02*
X3003410Y-13495470D01*
X2951990Y-12130700D02*
X2957040Y-10990480D01*
X2951990Y-12130700D02*
X3184510Y-12365290D01*
X3184510Y-12365290D02*
X3495460Y-13003410D01*
X2957043Y-10990471D02*
G75*
G02*
X990471Y-12957043I2042957J-4009529D01*
G01*
X3003411Y-13495462D02*
G75*
G02*
X3495462Y-13003411I1996619J-1504568D01*
G01*
D11*
G36*
X2957043Y-10990471D02*
G01*
X2957043Y-10990471D01*
G75*
G02*
X990471Y-12957043I2042957J-4009529D01*
G01*
X990470Y-12957050D01*
X2130700Y-12952000D01*
X2365280Y-13184510D01*
X3003411Y-13495462D01*
G75*
G02*
X3495462Y-13003411I1996589J-1504538D01*
G01*
X3495460Y-13003410D01*
X3184510Y-12365290D01*
X2951990Y-12130700D01*
X2957043Y-10990471D01*
G37*
D10*
%TO.C,J200*%
X-19009530Y-2957050D02*
X-17869300Y-2951990D01*
X-17869300Y-2951990D02*
X-17634720Y-3184510D01*
X-17634720Y-3184510D02*
X-16996590Y-3495470D01*
X-17048010Y-2130700D02*
X-17042960Y-990470D01*
X-17048010Y-2130700D02*
X-16815490Y-2365290D01*
X-16815490Y-2365290D02*
X-16504540Y-3003410D01*
X-17042957Y-990471D02*
G75*
G02*
X-19009529Y-2957043I2042957J-4009529D01*
G01*
X-16996589Y-3495462D02*
G75*
G02*
X-16504538Y-3003411I1996619J-1504568D01*
G01*
D11*
G36*
X-17042957Y-990471D02*
G01*
X-17042957Y-990471D01*
G75*
G02*
X-19009529Y-2957043I2042957J-4009529D01*
G01*
X-19009530Y-2957050D01*
X-17869300Y-2951990D01*
X-17634720Y-3184510D01*
X-16996589Y-3495462D01*
G75*
G02*
X-16504538Y-3003411I1996589J-1504538D01*
G01*
X-16504540Y-3003410D01*
X-16815490Y-2365290D01*
X-17048010Y-2130700D01*
X-17042957Y-990471D01*
G37*
D10*
%TO.C,J203*%
X10990470Y-2957050D02*
X12130700Y-2951990D01*
X12130700Y-2951990D02*
X12365280Y-3184510D01*
X12365280Y-3184510D02*
X13003410Y-3495470D01*
X12951990Y-2130700D02*
X12957040Y-990470D01*
X12951990Y-2130700D02*
X13184510Y-2365290D01*
X13184510Y-2365290D02*
X13495460Y-3003410D01*
X12957043Y-990471D02*
G75*
G02*
X10990471Y-2957043I2042957J-4009529D01*
G01*
X13003411Y-3495462D02*
G75*
G02*
X13495462Y-3003411I1996619J-1504568D01*
G01*
D11*
G36*
X12957043Y-990471D02*
G01*
X12957043Y-990471D01*
G75*
G02*
X10990471Y-2957043I2042957J-4009529D01*
G01*
X10990470Y-2957050D01*
X12130700Y-2951990D01*
X12365280Y-3184510D01*
X13003411Y-3495462D01*
G75*
G02*
X13495462Y-3003411I1996589J-1504538D01*
G01*
X13495460Y-3003410D01*
X13184510Y-2365290D01*
X12951990Y-2130700D01*
X12957043Y-990471D01*
G37*
D10*
%TO.C,J100*%
X-19009530Y7042950D02*
X-17869300Y7048010D01*
X-17869300Y7048010D02*
X-17634720Y6815490D01*
X-17634720Y6815490D02*
X-16996590Y6504530D01*
X-17048010Y7869300D02*
X-17042960Y9009530D01*
X-17048010Y7869300D02*
X-16815490Y7634720D01*
X-16815490Y7634720D02*
X-16504540Y6996590D01*
X-17042957Y9009529D02*
G75*
G02*
X-19009529Y7042957I2042957J-4009529D01*
G01*
X-16996589Y6504538D02*
G75*
G02*
X-16504538Y6996589I1996619J-1504568D01*
G01*
D11*
G36*
X-17042957Y9009529D02*
G01*
X-17042957Y9009529D01*
G75*
G02*
X-19009529Y7042957I2042957J-4009529D01*
G01*
X-19009530Y7042950D01*
X-17869300Y7048010D01*
X-17634720Y6815490D01*
X-16996589Y6504538D01*
G75*
G02*
X-16504538Y6996589I1996589J-1504538D01*
G01*
X-16504540Y6996590D01*
X-16815490Y7634720D01*
X-17048010Y7869300D01*
X-17042957Y9009529D01*
G37*
%TD*%
D12*
%TO.C,J202*%
X5000000Y-5000000D03*
%TD*%
%TO.C,J000*%
X-15000000Y15000000D03*
%TD*%
%TO.C,J201*%
X-5000000Y-5000000D03*
%TD*%
%TO.C,J101*%
X-5000000Y5000000D03*
%TD*%
%TO.C,J303*%
X15000000Y-15000000D03*
%TD*%
%TO.C,J301*%
X-5000000Y-15000000D03*
%TD*%
%TO.C,J001*%
X-5000000Y15000000D03*
%TD*%
%TO.C,J103*%
X15000000Y5000000D03*
%TD*%
%TO.C,J002*%
X5000000Y15000000D03*
%TD*%
%TO.C,J003*%
X15000000Y15000000D03*
%TD*%
%TO.C,J300*%
X-15000000Y-15000000D03*
%TD*%
%TO.C,J102*%
X5000000Y5000000D03*
%TD*%
%TO.C,J302*%
X5000000Y-15000000D03*
%TD*%
%TO.C,J200*%
X-15000000Y-5000000D03*
%TD*%
%TO.C,J203*%
X15000000Y-5000000D03*
%TD*%
%TO.C,J100*%
X-15000000Y5000000D03*
%TD*%
M02*
