%TF.GenerationSoftware,KiCad,Pcbnew,8.0.8*%
%TF.CreationDate,2025-02-10T21:52:25+00:00*%
%TF.ProjectId,ec30_4x4_jacplane_0.1,65633330-5f34-4783-945f-6a6163706c61,v0.1*%
%TF.SameCoordinates,PX8b3c880PY623a7c0*%
%TF.FileFunction,Copper,L1,Top*%
%TF.FilePolarity,Positive*%
%FSLAX46Y46*%
G04 Gerber Fmt 4.6, Leading zero omitted, Abs format (unit mm)*
G04 Created by KiCad (PCBNEW 8.0.8) date 2025-02-10 21:52:25*
%MOMM*%
%LPD*%
G01*
G04 APERTURE LIST*
%TA.AperFunction,SMDPad,CuDef*%
%ADD10C,0.150000*%
%TD*%
%TA.AperFunction,SMDPad,CuDef*%
%ADD11C,0.250000*%
%TD*%
%TA.AperFunction,SMDPad,CuDef*%
%ADD12C,0.200000*%
%TD*%
%TA.AperFunction,SMDPad,CuDef*%
%ADD13C,0.100000*%
%TD*%
%TA.AperFunction,ViaPad*%
%ADD14C,0.600000*%
%TD*%
%TA.AperFunction,Conductor*%
%ADD15C,0.200000*%
%TD*%
%TA.AperFunction,Conductor*%
%ADD16C,0.250000*%
%TD*%
%TA.AperFunction,Conductor*%
%ADD17C,0.150000*%
%TD*%
G04 APERTURE END LIST*
D10*
%TO.P,J202,1*%
%TO.N,JD_DATA*%
X2171570Y-2171580D03*
D11*
X3465580Y-3465580D03*
X6534420Y-6534430D03*
%TO.P,J202,2*%
%TO.N,GND*%
X1663700Y-2793390D03*
X2793390Y-1663710D03*
D12*
%TO.P,J202,3*%
%TO.N,JD_PWR*%
X1952930Y-2408600D03*
X2409850Y-1954200D03*
%TD*%
D10*
%TO.P,J000,1*%
%TO.N,JD_DATA*%
X-12171570Y12171570D03*
D11*
X-13465580Y13465570D03*
X-16534420Y16534420D03*
%TO.P,J000,2*%
%TO.N,GND*%
X-11663700Y12793390D03*
X-12793390Y11663700D03*
D12*
%TO.P,J000,3*%
%TO.N,JD_PWR*%
X-11952930Y12408590D03*
X-12409850Y11954200D03*
%TD*%
D10*
%TO.P,J201,1*%
%TO.N,JD_DATA*%
X-7828430Y-2171580D03*
D11*
X-6534420Y-3465580D03*
X-3465580Y-6534430D03*
%TO.P,J201,2*%
%TO.N,GND*%
X-8336300Y-2793390D03*
X-7206610Y-1663710D03*
D12*
%TO.P,J201,3*%
%TO.N,JD_PWR*%
X-8047070Y-2408600D03*
X-7590160Y-1954200D03*
%TD*%
D10*
%TO.P,J101,1*%
%TO.N,JD_DATA*%
X-7828430Y7828420D03*
D11*
X-6534420Y6534420D03*
X-3465580Y3465570D03*
%TO.P,J101,2*%
%TO.N,GND*%
X-8336300Y7206610D03*
X-7206610Y8336290D03*
D12*
%TO.P,J101,3*%
%TO.N,JD_PWR*%
X-8047070Y7591400D03*
X-7590160Y8045800D03*
%TD*%
D10*
%TO.P,J303,1*%
%TO.N,JD_DATA*%
X12171570Y-12171580D03*
D11*
X13465580Y-13465580D03*
X16534420Y-16534430D03*
%TO.P,J303,2*%
%TO.N,GND*%
X11663700Y-12793390D03*
X12793390Y-11663710D03*
D12*
%TO.P,J303,3*%
%TO.N,JD_PWR*%
X11952930Y-12408600D03*
X12409850Y-11954200D03*
%TD*%
D13*
%TO.P,JD_PWR,1*%
%TO.N,N/C*%
X-21000000Y-11000000D03*
%TD*%
%TO.P,GS\u002A\u002A,1*%
%TO.N,N/C*%
X21000000Y0D03*
%TD*%
D10*
%TO.P,J301,1*%
%TO.N,JD_DATA*%
X-7828430Y-12171580D03*
D11*
X-6534420Y-13465580D03*
X-3465580Y-16534430D03*
%TO.P,J301,2*%
%TO.N,GND*%
X-8336300Y-12793390D03*
X-7206610Y-11663710D03*
D12*
%TO.P,J301,3*%
%TO.N,JD_PWR*%
X-8047070Y-12408600D03*
X-7590160Y-11954200D03*
%TD*%
D10*
%TO.P,J001,1*%
%TO.N,JD_DATA*%
X-7828430Y17828420D03*
D11*
X-6534420Y16534420D03*
X-3465580Y13465570D03*
%TO.P,J001,2*%
%TO.N,GND*%
X-8336300Y17206610D03*
X-7206610Y18336290D03*
D12*
%TO.P,J001,3*%
%TO.N,JD_PWR*%
X-8047070Y17591400D03*
X-7590160Y18045800D03*
%TD*%
D10*
%TO.P,J103,1*%
%TO.N,JD_DATA*%
X12171570Y7828420D03*
D11*
X13465580Y6534420D03*
X16534420Y3465570D03*
%TO.P,J103,2*%
%TO.N,GND*%
X11663700Y7206610D03*
X12793390Y8336290D03*
D12*
%TO.P,J103,3*%
%TO.N,JD_PWR*%
X11952930Y7591400D03*
X12409850Y8045800D03*
%TD*%
D10*
%TO.P,J002,1*%
%TO.N,JD_DATA*%
X2171570Y17828420D03*
D11*
X3465580Y16534420D03*
X6534420Y13465570D03*
%TO.P,J002,2*%
%TO.N,GND*%
X1663700Y17206610D03*
X2793390Y18336290D03*
D12*
%TO.P,J002,3*%
%TO.N,JD_PWR*%
X1952930Y17591400D03*
X2409850Y18045800D03*
%TD*%
D10*
%TO.P,J003,1*%
%TO.N,JD_DATA*%
X12171570Y17828420D03*
D11*
X13465580Y16534420D03*
X16534420Y13465570D03*
%TO.P,J003,2*%
%TO.N,GND*%
X11663700Y17206610D03*
X12793390Y18336290D03*
D12*
%TO.P,J003,3*%
%TO.N,JD_PWR*%
X11952930Y17591400D03*
X12409850Y18045800D03*
%TD*%
D10*
%TO.P,J300,1*%
%TO.N,JD_DATA*%
X-17828430Y-12171580D03*
D11*
X-16534420Y-13465580D03*
X-13465580Y-16534430D03*
%TO.P,J300,2*%
%TO.N,GND*%
X-18336300Y-12793390D03*
X-17206610Y-11663710D03*
D12*
%TO.P,J300,3*%
%TO.N,JD_PWR*%
X-18047070Y-12408600D03*
X-17590160Y-11954200D03*
%TD*%
D10*
%TO.P,J102,1*%
%TO.N,JD_DATA*%
X2171570Y7828420D03*
D11*
X3465580Y6534420D03*
X6534420Y3465570D03*
%TO.P,J102,2*%
%TO.N,GND*%
X1663700Y7206610D03*
X2793390Y8336290D03*
D12*
%TO.P,J102,3*%
%TO.N,JD_PWR*%
X1952930Y7591400D03*
X2409850Y8045800D03*
%TD*%
D10*
%TO.P,J302,1*%
%TO.N,JD_DATA*%
X2171570Y-12171580D03*
D11*
X3465580Y-13465580D03*
X6534420Y-16534430D03*
%TO.P,J302,2*%
%TO.N,GND*%
X1663700Y-12793390D03*
X2793390Y-11663710D03*
D12*
%TO.P,J302,3*%
%TO.N,JD_PWR*%
X1952930Y-12408600D03*
X2409850Y-11954200D03*
%TD*%
D10*
%TO.P,J200,1*%
%TO.N,JD_DATA*%
X-17828430Y-2171580D03*
D11*
X-16534420Y-3465580D03*
X-13465580Y-6534430D03*
%TO.P,J200,2*%
%TO.N,GND*%
X-18336300Y-2793390D03*
X-17206610Y-1663710D03*
D12*
%TO.P,J200,3*%
%TO.N,JD_PWR*%
X-18047070Y-2408600D03*
X-17590160Y-1954200D03*
%TD*%
D10*
%TO.P,J203,1*%
%TO.N,JD_DATA*%
X12171570Y-2171580D03*
D11*
X13465580Y-3465580D03*
X16534420Y-6534430D03*
%TO.P,J203,2*%
%TO.N,GND*%
X11663700Y-2793390D03*
X12793390Y-1663710D03*
D12*
%TO.P,J203,3*%
%TO.N,JD_PWR*%
X11952930Y-2408600D03*
X12409850Y-1954200D03*
%TD*%
D10*
%TO.P,J100,1*%
%TO.N,JD_DATA*%
X-17828430Y7828420D03*
D11*
X-16534420Y6534420D03*
X-13465580Y3465570D03*
%TO.P,J100,2*%
%TO.N,GND*%
X-18336300Y7206610D03*
X-17206610Y8336290D03*
D12*
%TO.P,J100,3*%
%TO.N,JD_PWR*%
X-18047070Y7591400D03*
X-17590160Y8045800D03*
%TD*%
D13*
%TO.P,GS\u002A\u002A,1*%
%TO.N,N/C*%
X0Y21000000D03*
%TD*%
D14*
%TO.N,JD_PWR*%
X-7600000Y-11131130D03*
X1131120Y-12399980D03*
X-8868890Y7600020D03*
X12400000Y8868870D03*
X-8868890Y-12399980D03*
X11131120Y-2399980D03*
X11131120Y7600020D03*
X1766390Y18500010D03*
X-18481360Y-11131130D03*
X-17471360Y8868870D03*
X1150000Y17592080D03*
X-8868890Y-2408600D03*
X2400000Y-11131130D03*
X-8233610Y18500010D03*
X-8868890Y10300000D03*
X12400000Y-1131130D03*
X12400000Y-11131130D03*
X1131120Y-2399980D03*
X-17471360Y-1131130D03*
X11131120Y-12399980D03*
X-17471360Y-11131130D03*
X-18481360Y-1131130D03*
X2400000Y8868870D03*
X2400000Y-1131130D03*
X-10300000Y8900000D03*
X-7600000Y8868870D03*
X-8850000Y17592080D03*
X-18481360Y8868870D03*
X-7600000Y-1131130D03*
X11766390Y18500010D03*
X1131120Y7600020D03*
X11150000Y17592080D03*
%TO.N,JD_DATA*%
X1854190Y-400000D03*
X-9600000Y-400000D03*
X-17976360Y-400000D03*
X-9600000Y-1854200D03*
X-8145810Y9600000D03*
X-8145810Y-400000D03*
X400000Y-400000D03*
X-8145810Y-10400000D03*
X400000Y8145800D03*
X10400000Y9600000D03*
X10400000Y18211290D03*
X400000Y-10400000D03*
X1854190Y9600000D03*
X-9600000Y-10400000D03*
X10400000Y-11854200D03*
X-17976360Y9600000D03*
X-17976360Y-10400000D03*
X10400000Y-400000D03*
X400000Y9600000D03*
X400000Y-11854200D03*
X-9600000Y8145800D03*
X1854190Y-10400000D03*
X10400000Y-10400000D03*
X400000Y18211290D03*
X-9600000Y9600000D03*
X-9600000Y-11854200D03*
X10400000Y-1854200D03*
X400000Y-1854200D03*
X-9600000Y18211290D03*
X10400000Y8145800D03*
%TD*%
D15*
%TO.N,JD_PWR*%
X-12409850Y11954200D02*
X-10300000Y9844350D01*
X-18481360Y-11131130D02*
X-18612490Y-11000000D01*
X-17592710Y-1546360D02*
X-17547890Y-1501550D01*
X11131790Y-2400660D02*
X11934050Y-2400660D01*
X-17547890Y-1207670D02*
X-17471360Y-1131130D01*
X-18047760Y7592080D02*
X-17279490Y6835520D01*
X-12720510Y13164480D02*
X-11952240Y12407920D01*
X11150000Y17592080D02*
X11150680Y17591400D01*
X-8194890Y18461290D02*
X-8029960Y18461290D01*
X-17592710Y-11546360D02*
X-17547890Y-11501550D01*
X-17590160Y-11954200D02*
X-16835450Y-12720590D01*
X-11952930Y12408590D02*
X-9844330Y10300000D01*
X1150680Y17591400D02*
X1952930Y17591400D01*
X12385540Y18045800D02*
X12409850Y18045800D01*
X11131790Y7599340D02*
X11934050Y7599340D01*
X12409850Y18045800D02*
X13164560Y17279410D01*
X-8850000Y17592080D02*
X-8849320Y17591400D01*
X-18481360Y8868870D02*
X-18461300Y8848810D01*
X-18461300Y-2224610D02*
X-18277310Y-2408600D01*
X12409850Y-11954200D02*
X13164560Y-12720590D01*
X-8233610Y18500010D02*
X-8194890Y18461290D01*
X-18461300Y7775390D02*
X-18461300Y8848810D01*
X-8868210Y-12400660D02*
X-8065950Y-12400660D01*
X-8868210Y7599340D02*
X-8065950Y7599340D01*
X2385530Y18045800D02*
X2409850Y18045800D01*
X1952240Y-12407920D02*
X2720510Y-13164480D01*
X12399320Y-11934060D02*
X12399320Y-11131810D01*
X-17592710Y8453640D02*
X-17547890Y8498450D01*
X-17590160Y8045800D02*
X-16835450Y7279410D01*
X-8047760Y7592080D02*
X-7279490Y6835520D01*
X11952240Y17592080D02*
X12720510Y16835520D01*
X2409850Y18045800D02*
X3164560Y17279410D01*
X-17592710Y8065940D02*
X-17592710Y8453640D01*
X-17547890Y8792340D02*
X-17471360Y8868870D01*
X2409850Y-11954200D02*
X3164560Y-12720590D01*
X-7614470Y18045800D02*
X-7590160Y18045800D01*
X-18481360Y-11131130D02*
X-18461300Y-11151190D01*
X-7590160Y-11954200D02*
X-6835440Y-12720590D01*
X-7590160Y-1954200D02*
X-6835440Y-2720590D01*
X-18461300Y-2224610D02*
X-18461300Y-1151190D01*
X-18277310Y-2408600D02*
X-18047070Y-2408600D01*
X-17592710Y-11934060D02*
X-17592710Y-11546360D01*
X-18277310Y-12408600D02*
X-18047070Y-12408600D01*
X-8047760Y-2407920D02*
X-7279490Y-3164480D01*
X-8047760Y17592080D02*
X-7279490Y16835520D01*
X1952240Y-2407920D02*
X2720510Y-3164480D01*
X-10300000Y8900000D02*
X-10300000Y9844350D01*
X-18047760Y-12407920D02*
X-17279490Y-13164480D01*
X-18461300Y7775390D02*
X-18277310Y7591400D01*
X12399320Y8065940D02*
X12399320Y8868190D01*
X-18481360Y-1131130D02*
X-18461300Y-1151190D01*
X1952240Y17592080D02*
X2720510Y16835520D01*
X1970040Y18461290D02*
X2385530Y18045800D01*
X-7600680Y-1934060D02*
X-7600680Y-1131810D01*
X2409850Y-1954200D02*
X3164560Y-2720590D01*
X-17547890Y8498450D02*
X-17547890Y8792340D01*
X1131790Y-12400660D02*
X1934050Y-12400660D01*
X2409850Y8045800D02*
X3164560Y7279410D01*
X-17547890Y-11501550D02*
X-17547890Y-11207670D01*
X12409850Y-1954200D02*
X13164560Y-2720590D01*
X-18277310Y7591400D02*
X-18047070Y7591400D01*
X-8029960Y18461290D02*
X-7614470Y18045800D01*
X-17590160Y-1954200D02*
X-16835450Y-2720590D01*
X2399320Y-11934060D02*
X2399320Y-11131810D01*
X11805110Y18461290D02*
X11970040Y18461290D01*
X11952240Y-12407920D02*
X12720510Y-13164480D01*
X-17547890Y-11207670D02*
X-17471360Y-11131130D01*
X-7600680Y8065940D02*
X-7600680Y8868190D01*
X-18612490Y-11000000D02*
X-21000000Y-11000000D01*
X-7590160Y8045800D02*
X-6835440Y7279410D01*
X11131790Y-12400660D02*
X11934050Y-12400660D01*
X1952240Y7592080D02*
X2720510Y6835520D01*
X-8868890Y-2408600D02*
X-8047070Y-2408600D01*
X-7590160Y18045800D02*
X-6835440Y17279410D01*
X-17592710Y-1934060D02*
X-17592710Y-1546360D01*
X11150680Y17591400D02*
X11952930Y17591400D01*
X11952240Y7592080D02*
X12720510Y6835520D01*
X-8047760Y-12407920D02*
X-7279490Y-13164480D01*
X-18461300Y-12224610D02*
X-18461300Y-11151190D01*
X-18047760Y-2407920D02*
X-17279490Y-3164480D01*
X-17547890Y-1501550D02*
X-17547890Y-1207670D01*
X2399320Y8065940D02*
X2399320Y8868190D01*
X-8849320Y17591400D02*
X-8047070Y17591400D01*
X-7600680Y-11934060D02*
X-7600680Y-11131810D01*
X11766390Y18500010D02*
X11805110Y18461290D01*
X1131790Y7599340D02*
X1934050Y7599340D01*
X12399320Y-1934060D02*
X12399320Y-1131810D01*
X-18461300Y-12224610D02*
X-18277310Y-12408600D01*
X1805110Y18461290D02*
X1970040Y18461290D01*
X-13164560Y12720580D02*
X-12409850Y11954200D01*
X1766390Y18500010D02*
X1805110Y18461290D01*
X1150000Y17592080D02*
X1150680Y17591400D01*
X11952240Y-2407920D02*
X12720510Y-3164480D01*
X11970040Y18461290D02*
X12385540Y18045800D01*
X12409850Y8045800D02*
X13164560Y7279410D01*
X1131790Y-2400660D02*
X1934050Y-2400660D01*
X-9844330Y10300000D02*
X-8868890Y10300000D01*
X2399320Y-1934060D02*
X2399320Y-1131810D01*
D16*
X3188063Y-2697439D02*
G75*
G02*
X2698071Y-3187260I1811937J-2302561D01*
G01*
X-16811937Y7302561D02*
G75*
G02*
X-17301929Y6812740I1811937J-2302561D01*
G01*
X13188063Y17302561D02*
G75*
G02*
X12698071Y16812740I1811937J-2302561D01*
G01*
X3188063Y7302561D02*
G75*
G02*
X2698071Y6812740I1811937J-2302561D01*
G01*
X13188063Y-2697439D02*
G75*
G02*
X12698071Y-3187260I1811937J-2302561D01*
G01*
X-16811937Y-2697439D02*
G75*
G02*
X-17301929Y-3187260I1811937J-2302561D01*
G01*
X3188063Y17302561D02*
G75*
G02*
X2698071Y16812740I1811937J-2302561D01*
G01*
X-6811937Y17302561D02*
G75*
G02*
X-7301929Y16812740I1811937J-2302561D01*
G01*
X-6811937Y7302561D02*
G75*
G02*
X-7301929Y6812740I1811937J-2302561D01*
G01*
X-6811937Y-12697439D02*
G75*
G02*
X-7301929Y-13187260I1811937J-2302561D01*
G01*
X3188063Y-12697439D02*
G75*
G02*
X2698071Y-13187260I1811937J-2302561D01*
G01*
X-16811937Y-12697439D02*
G75*
G02*
X-17301929Y-13187260I1811937J-2302561D01*
G01*
X13188063Y7302561D02*
G75*
G02*
X12698071Y6812740I1811937J-2302561D01*
G01*
X13188063Y-12697439D02*
G75*
G02*
X12698071Y-13187260I1811937J-2302561D01*
G01*
X-6811937Y-2697439D02*
G75*
G02*
X-7301929Y-3187260I1811937J-2302561D01*
G01*
X-13188063Y12697439D02*
G75*
G02*
X-12698071Y13187260I-1811937J2302561D01*
G01*
D17*
%TO.N,JD_DATA*%
X-8784060Y18336290D02*
X-8442780Y17995010D01*
X-9600000Y-11854200D02*
X-8145810Y-11854200D01*
X10400000Y8145800D02*
X11854190Y8145800D01*
X-8442780Y17995010D02*
X-7995010Y17995010D01*
X11854190Y-1854200D02*
X12171570Y-2171580D01*
X-9600000Y8145800D02*
X-8145810Y8145800D01*
X11557220Y17995010D02*
X12004990Y17995010D01*
X-17976360Y7976350D02*
X-17828430Y7828420D01*
X-7828420Y-12171580D02*
X-6534420Y-13465580D01*
X-8145810Y8145800D02*
X-7828430Y7828420D01*
X1854190Y-1854200D02*
X2171570Y-2171580D01*
X2171580Y17828420D02*
X3465580Y16534420D01*
X-7828420Y-2171580D02*
X-6534420Y-3465580D01*
D15*
X10400000Y-1854200D02*
X10400000Y-400000D01*
X400000Y9600000D02*
X1854190Y9600000D01*
D17*
X-13465580Y13465570D02*
X-12171580Y12171570D01*
X-7828420Y7828420D02*
X-6534420Y6534420D01*
X12004990Y17995010D02*
X12171570Y17828420D01*
X-17976360Y-12023650D02*
X-17976360Y-10400000D01*
X11854190Y8145800D02*
X12171570Y7828420D01*
X1854190Y-11854200D02*
X2171570Y-12171580D01*
X10525000Y18336290D02*
X11215940Y18336290D01*
X-7828420Y17828420D02*
X-6534420Y16534420D01*
X12171580Y-12171580D02*
X13465580Y-13465580D01*
X-12171570Y12171570D02*
X-9600000Y9600000D01*
X2171580Y-2171580D02*
X3465580Y-3465580D01*
X-9600000Y18211290D02*
X-9475000Y18336290D01*
D15*
X-9600000Y-1854200D02*
X-9600000Y-400000D01*
X10400000Y-11854200D02*
X10400000Y-10400000D01*
X400000Y-1854200D02*
X400000Y-400000D01*
D17*
X400000Y18211290D02*
X0Y18611290D01*
X0Y18611290D02*
X0Y21000000D01*
D15*
X400000Y-400000D02*
X1854190Y-400000D01*
X-9600000Y-11854200D02*
X-9600000Y-10400000D01*
D17*
X2171580Y-12171580D02*
X3465580Y-13465580D01*
X1854190Y8145800D02*
X2171570Y7828420D01*
D15*
X-9600000Y-10400000D02*
X-8145810Y-10400000D01*
D17*
X2004990Y17995010D02*
X2171570Y17828420D01*
X400000Y8145800D02*
X1854190Y8145800D01*
X10400000Y-11854200D02*
X11854190Y-11854200D01*
X400000Y-11854200D02*
X1854190Y-11854200D01*
X-17976360Y-2023650D02*
X-17828430Y-2171580D01*
X400000Y18211290D02*
X525000Y18336290D01*
X-7995010Y17995010D02*
X-7828430Y17828420D01*
X525000Y18336290D02*
X1215940Y18336290D01*
X12171580Y-2171580D02*
X13465580Y-3465580D01*
X12171580Y7828420D02*
X13465580Y6534420D01*
X-17828430Y-12171580D02*
X-16534420Y-13465580D01*
X-17976360Y-12023650D02*
X-17828430Y-12171580D01*
X-9600000Y-1854200D02*
X-8145810Y-1854200D01*
X-9475000Y18336290D02*
X-8784060Y18336290D01*
X1215940Y18336290D02*
X1557220Y17995010D01*
X2171580Y7828420D02*
X3465580Y6534420D01*
X11215940Y18336290D02*
X11557220Y17995010D01*
X-8145810Y-11854200D02*
X-7828430Y-12171580D01*
X-17828430Y-2171580D02*
X-16534420Y-3465580D01*
D15*
X-9600000Y8145800D02*
X-9600000Y9600000D01*
X-9600000Y-400000D02*
X-8145810Y-400000D01*
D17*
X-17828430Y7828420D02*
X-16534420Y6534420D01*
X-17976360Y-2023650D02*
X-17976360Y-400000D01*
D15*
X-9600000Y9600000D02*
X-8145810Y9600000D01*
D17*
X10400000Y-1854200D02*
X11854190Y-1854200D01*
X11854190Y-11854200D02*
X12171570Y-12171580D01*
X-17976360Y7976350D02*
X-17976360Y9600000D01*
X10400000Y18211290D02*
X10525000Y18336290D01*
D15*
X400000Y8145800D02*
X400000Y9600000D01*
D17*
X-8145810Y-1854200D02*
X-7828430Y-2171580D01*
D15*
X400000Y-11854200D02*
X400000Y-10400000D01*
D17*
X1557220Y17995010D02*
X2004990Y17995010D01*
D15*
X10400000Y8145800D02*
X10400000Y9600000D01*
D17*
X400000Y-1854200D02*
X1854190Y-1854200D01*
X12171580Y17828420D02*
X13465580Y16534420D01*
D15*
X400000Y-10400000D02*
X1854190Y-10400000D01*
D16*
X-6534422Y-3465578D02*
G75*
G02*
X-3465578Y-6534422I1534422J-1534422D01*
G01*
X13465578Y-3465578D02*
G75*
G02*
X16534422Y-6534422I1534422J-1534422D01*
G01*
X16534422Y3465578D02*
G75*
G02*
X13465578Y6534422I-1534422J1534422D01*
G01*
X-6534422Y-13465578D02*
G75*
G02*
X-3465578Y-16534422I1534422J-1534422D01*
G01*
X-3465578Y13465578D02*
G75*
G02*
X-6534422Y16534422I-1534422J1534422D01*
G01*
X-13465578Y3465578D02*
G75*
G02*
X-16534422Y6534422I-1534422J1534422D01*
G01*
X-16534422Y-13465578D02*
G75*
G02*
X-13465578Y-16534422I1534422J-1534422D01*
G01*
X-6534422Y6534422D02*
G75*
G02*
X-3465578Y3465578I1534422J-1534422D01*
G01*
X-16534422Y-3465578D02*
G75*
G02*
X-13465578Y-6534422I1534422J-1534422D01*
G01*
X13465578Y6534422D02*
G75*
G02*
X16534422Y3465578I1534422J-1534422D01*
G01*
X3465578Y6534422D02*
G75*
G02*
X6534422Y3465578I1534422J-1534422D01*
G01*
X3465578Y16534422D02*
G75*
G02*
X6534422Y13465578I1534422J-1534422D01*
G01*
X-13465578Y13465578D02*
G75*
G02*
X-16534422Y16534422I-1534422J1534422D01*
G01*
X16534422Y13465578D02*
G75*
G02*
X13465578Y16534422I-1534422J1534422D01*
G01*
X3465578Y-3465578D02*
G75*
G02*
X6534422Y-6534422I1534422J-1534422D01*
G01*
X-13465578Y-6534422D02*
G75*
G02*
X-16534422Y-3465578I-1534422J1534422D01*
G01*
X-6534422Y16534422D02*
G75*
G02*
X-3465578Y13465578I1534422J-1534422D01*
G01*
X6534422Y-16534422D02*
G75*
G02*
X3465578Y-13465578I-1534422J1534422D01*
G01*
X6534422Y-6534422D02*
G75*
G02*
X3465578Y-3465578I-1534422J1534422D01*
G01*
X-16534422Y16534422D02*
G75*
G02*
X-13465578Y13465578I1534422J-1534422D01*
G01*
X16534422Y-16534422D02*
G75*
G02*
X13465578Y-13465578I-1534422J1534422D01*
G01*
X16534422Y-6534422D02*
G75*
G02*
X13465578Y-3465578I-1534422J1534422D01*
G01*
X6534422Y3465578D02*
G75*
G02*
X3465578Y6534422I-1534422J1534422D01*
G01*
X13465578Y16534422D02*
G75*
G02*
X16534422Y13465578I1534422J-1534422D01*
G01*
X13465578Y-13465578D02*
G75*
G02*
X16534422Y-16534422I1534422J-1534422D01*
G01*
X-16534422Y6534422D02*
G75*
G02*
X-13465578Y3465578I1534422J-1534422D01*
G01*
X-3465578Y-6534422D02*
G75*
G02*
X-6534422Y-3465578I-1534422J1534422D01*
G01*
X-3465578Y3465578D02*
G75*
G02*
X-6534422Y6534422I-1534422J1534422D01*
G01*
X6534422Y13465578D02*
G75*
G02*
X3465578Y16534422I-1534422J1534422D01*
G01*
X3465578Y-13465578D02*
G75*
G02*
X6534422Y-16534422I1534422J-1534422D01*
G01*
X-13465578Y-16534422D02*
G75*
G02*
X-16534422Y-13465578I-1534422J1534422D01*
G01*
X-3465578Y-16534422D02*
G75*
G02*
X-6534422Y-13465578I-1534422J1534422D01*
G01*
%TO.N,GND*%
X1663400Y-2793090D02*
X1848790Y-2981400D01*
X1663400Y-12793090D02*
X1848790Y-12981400D01*
X1663400Y7206910D02*
X1848790Y7018610D01*
X-11848800Y12981390D02*
X-11663400Y12793080D01*
X-11664410Y12792680D02*
X-11642280Y12814810D01*
X2793390Y-1663710D02*
X3557090Y-900010D01*
X12793390Y-11663710D02*
X13557090Y-10900010D01*
X-17206610Y-1663710D02*
X-16442910Y-900010D01*
X12792690Y-1663020D02*
X12975770Y-1843270D01*
X2792690Y-1663020D02*
X2975770Y-1843270D01*
D15*
X21000000Y0D02*
X20000000Y0D01*
D16*
X-9100000Y-3557100D02*
X-8336300Y-2793390D01*
X2793390Y8336290D02*
X3557090Y9100000D01*
X-8336600Y-2793090D02*
X-8151210Y-2981400D01*
X-7206610Y-1663710D02*
X-6442910Y-900010D01*
X-8336600Y17206910D02*
X-8151210Y17018610D01*
X2792690Y18336980D02*
X2975770Y18156730D01*
X11663400Y17206910D02*
X11848800Y17018610D01*
X-11642280Y12814810D02*
X-11285310Y12814810D01*
X-18336600Y-12793090D02*
X-18151210Y-12981400D01*
X-12792690Y11240320D02*
X-12791070Y11238710D01*
X-7207310Y-1663020D02*
X-7024230Y-1843270D01*
X12792690Y18335590D02*
X12792690Y18700000D01*
X-8336600Y-12793090D02*
X-8151210Y-12981400D01*
X-9100000Y6442900D02*
X-8336300Y7206610D01*
X11663400Y-12793090D02*
X11848800Y-12981400D01*
X900000Y-3557100D02*
X1663700Y-2793390D01*
X2792690Y8336980D02*
X2975770Y8156730D01*
X-7207310Y18335590D02*
X-7207310Y18700000D01*
X10900000Y-13557100D02*
X11663710Y-12793390D01*
X-17207310Y-11663020D02*
X-17024230Y-11843270D01*
X12792690Y-11663020D02*
X12975770Y-11843270D01*
X11663400Y7206910D02*
X11848800Y7018610D01*
X12793390Y-1663710D02*
X13557090Y-900010D01*
X-12792690Y11240320D02*
X-12792690Y11663010D01*
X-12975770Y11843260D02*
X-12792690Y11663010D01*
X10900000Y16442900D02*
X11663710Y17206610D01*
X-7206610Y8336290D02*
X-6442910Y9100000D01*
X10900000Y6442900D02*
X11663710Y7206610D01*
X2792690Y-11663020D02*
X2975770Y-11843270D01*
X900000Y-13557100D02*
X1663700Y-12793390D01*
X-9100000Y16442900D02*
X-8336300Y17206610D01*
X2793390Y-11663710D02*
X3557090Y-10900010D01*
X-7207310Y-11663020D02*
X-7024230Y-11843270D01*
X-18700000Y7207310D02*
X-18335590Y7207310D01*
X-17207310Y-1663020D02*
X-17024230Y-1843270D01*
X-8336600Y7206910D02*
X-8151210Y7018610D01*
X-17207310Y8336980D02*
X-17024230Y8156730D01*
X-17206610Y8336290D02*
X-16442910Y9100000D01*
X-17206610Y-11663710D02*
X-16442910Y-10900010D01*
X1663400Y17206910D02*
X1848790Y17018610D01*
X12793390Y8336290D02*
X13557090Y9100000D01*
X-18336600Y-2793090D02*
X-18151210Y-2981400D01*
X900000Y6442900D02*
X1663700Y7206610D01*
X11663400Y-2793090D02*
X11848800Y-2981400D01*
X-18700000Y-12792690D02*
X-18335590Y-12792690D01*
X-9100000Y-13557100D02*
X-8336300Y-12793390D01*
X2792690Y18335590D02*
X2792690Y18700000D01*
X900000Y16442900D02*
X1663700Y17206610D01*
X12792690Y8336980D02*
X12975770Y8156730D01*
X-18700000Y-2792690D02*
X-18335590Y-2792690D01*
X-7207310Y18336980D02*
X-7024230Y18156730D01*
X-18336600Y7206910D02*
X-18151210Y7018610D01*
X-7207310Y8336980D02*
X-7024230Y8156730D01*
X10900000Y-3557100D02*
X11663710Y-2793390D01*
X-7206610Y-11663710D02*
X-6442910Y-10900010D01*
X12792690Y18336980D02*
X12975770Y18156730D01*
X-7024230Y8156738D02*
G75*
G02*
X-8157681Y7022758I2024230J-3156738D01*
G01*
X2975770Y8156738D02*
G75*
G02*
X1842319Y7022758I2024230J-3156738D01*
G01*
X12975770Y18156738D02*
G75*
G02*
X11842319Y17022758I2024230J-3156738D01*
G01*
X-17024230Y8156738D02*
G75*
G02*
X-18157681Y7022758I2024230J-3156738D01*
G01*
X2975770Y-1843262D02*
G75*
G02*
X1842319Y-2977242I2024230J-3156738D01*
G01*
X2975770Y18156738D02*
G75*
G02*
X1842319Y17022758I2024230J-3156738D01*
G01*
X-17024230Y-11843262D02*
G75*
G02*
X-18157681Y-12977242I2024230J-3156738D01*
G01*
X12975770Y-1843262D02*
G75*
G02*
X11842319Y-2977242I2024230J-3156738D01*
G01*
X2975770Y-11843262D02*
G75*
G02*
X1842319Y-12977242I2024230J-3156738D01*
G01*
X12975770Y-11843262D02*
G75*
G02*
X11842319Y-12977242I2024230J-3156738D01*
G01*
X12975770Y8156738D02*
G75*
G02*
X11842319Y7022758I2024230J-3156738D01*
G01*
X-7024230Y-11843262D02*
G75*
G02*
X-8157681Y-12977242I2024230J-3156738D01*
G01*
X-12975770Y11843262D02*
G75*
G02*
X-11842319Y12977242I-2024230J3156738D01*
G01*
X-7024230Y-1843262D02*
G75*
G02*
X-8157681Y-2977242I2024230J-3156738D01*
G01*
X-7024230Y18156738D02*
G75*
G02*
X-8157681Y17022758I2024230J-3156738D01*
G01*
X-17024230Y-1843262D02*
G75*
G02*
X-18157681Y-2977242I2024230J-3156738D01*
G01*
%TD*%
%TA.AperFunction,Conductor*%
%TO.N,GND*%
G36*
X-382461Y19980315D02*
G01*
X-336706Y19927511D01*
X-325500Y19876000D01*
X-325500Y18568438D01*
X-303318Y18485650D01*
X-281892Y18448540D01*
X-260465Y18411428D01*
X-260463Y18411426D01*
X-187447Y18338410D01*
X-153962Y18277087D01*
X-152189Y18234545D01*
X-154377Y18217924D01*
X-155250Y18211290D01*
X-136943Y18072234D01*
X-136330Y18067582D01*
X-136329Y18067578D01*
X-80863Y17933668D01*
X-80862Y17933666D01*
X-80861Y17933665D01*
X7379Y17818669D01*
X122375Y17730429D01*
X256291Y17674960D01*
X383280Y17658242D01*
X399999Y17656040D01*
X400000Y17656040D01*
X460216Y17663968D01*
X529250Y17653203D01*
X581506Y17606823D01*
X599340Y17557215D01*
X613670Y17448373D01*
X613671Y17448368D01*
X669137Y17314458D01*
X669138Y17314456D01*
X669139Y17314455D01*
X757379Y17199459D01*
X872375Y17111219D01*
X872376Y17111219D01*
X872377Y17111218D01*
X879922Y17108093D01*
X1006291Y17055750D01*
X1133280Y17039032D01*
X1149999Y17036830D01*
X1150000Y17036830D01*
X1150001Y17036830D01*
X1164977Y17038802D01*
X1293709Y17055750D01*
X1427625Y17111219D01*
X1542621Y17199459D01*
X1542625Y17199464D01*
X1547743Y17204581D01*
X1609066Y17238066D01*
X1635424Y17240900D01*
X1757195Y17240900D01*
X1824234Y17221215D01*
X1844487Y17204969D01*
X1926880Y17123303D01*
X1960636Y17062129D01*
X1955961Y16992416D01*
X1943584Y16967699D01*
X1847666Y16819998D01*
X1674696Y16480525D01*
X1538155Y16124827D01*
X1439543Y15756801D01*
X1439542Y15756794D01*
X1379940Y15380486D01*
X1360000Y15000001D01*
X1360000Y15000000D01*
X1379940Y14619515D01*
X1439542Y14243207D01*
X1439543Y14243200D01*
X1538155Y13875174D01*
X1674696Y13519476D01*
X1847670Y13179996D01*
X2055176Y12860464D01*
X2055178Y12860462D01*
X2294953Y12564365D01*
X2564365Y12294953D01*
X2564369Y12294950D01*
X2860463Y12055177D01*
X3056658Y11927767D01*
X3180000Y11847668D01*
X3519479Y11674695D01*
X3875178Y11538154D01*
X4243201Y11439543D01*
X4619516Y11379940D01*
X4978956Y11361103D01*
X4999999Y11360000D01*
X5000000Y11360000D01*
X5000001Y11360000D01*
X5019941Y11361046D01*
X5380484Y11379940D01*
X5756799Y11439543D01*
X6124822Y11538154D01*
X6480521Y11674695D01*
X6820000Y11847668D01*
X7139538Y12055178D01*
X7435635Y12294953D01*
X7705047Y12564365D01*
X7944822Y12860462D01*
X8152332Y13180000D01*
X8325305Y13519479D01*
X8461846Y13875178D01*
X8560457Y14243201D01*
X8620060Y14619516D01*
X8640000Y15000000D01*
X8620060Y15380484D01*
X8560457Y15756799D01*
X8461846Y16124822D01*
X8325305Y16480521D01*
X8152332Y16820000D01*
X8152329Y16820005D01*
X7944823Y17139537D01*
X7705050Y17435631D01*
X7705047Y17435635D01*
X7435635Y17705047D01*
X7295323Y17818670D01*
X7139536Y17944824D01*
X6820004Y18152330D01*
X6704289Y18211290D01*
X9844750Y18211290D01*
X9863057Y18072234D01*
X9863670Y18067582D01*
X9863671Y18067578D01*
X9919137Y17933668D01*
X9919138Y17933666D01*
X9919139Y17933665D01*
X10007379Y17818669D01*
X10122375Y17730429D01*
X10256291Y17674960D01*
X10383280Y17658242D01*
X10399999Y17656040D01*
X10400000Y17656040D01*
X10460216Y17663968D01*
X10529250Y17653203D01*
X10581506Y17606823D01*
X10599340Y17557215D01*
X10613670Y17448373D01*
X10613671Y17448368D01*
X10669137Y17314458D01*
X10669138Y17314456D01*
X10669139Y17314455D01*
X10757379Y17199459D01*
X10872375Y17111219D01*
X10872376Y17111219D01*
X10872377Y17111218D01*
X10879922Y17108093D01*
X11006291Y17055750D01*
X11133280Y17039032D01*
X11149999Y17036830D01*
X11150000Y17036830D01*
X11150001Y17036830D01*
X11164977Y17038802D01*
X11293709Y17055750D01*
X11427625Y17111219D01*
X11542621Y17199459D01*
X11542625Y17199464D01*
X11547743Y17204581D01*
X11609066Y17238066D01*
X11635424Y17240900D01*
X11757195Y17240900D01*
X11824234Y17221215D01*
X11844487Y17204969D01*
X11926880Y17123303D01*
X11960636Y17062129D01*
X11955961Y16992416D01*
X11943584Y16967699D01*
X11847666Y16819998D01*
X11674696Y16480525D01*
X11538155Y16124827D01*
X11439543Y15756801D01*
X11439542Y15756794D01*
X11379940Y15380486D01*
X11360000Y15000001D01*
X11360000Y15000000D01*
X11379940Y14619515D01*
X11439542Y14243207D01*
X11439543Y14243200D01*
X11538155Y13875174D01*
X11674696Y13519476D01*
X11847670Y13179996D01*
X12055176Y12860464D01*
X12055178Y12860462D01*
X12294953Y12564365D01*
X12564365Y12294953D01*
X12564369Y12294950D01*
X12860463Y12055177D01*
X13056658Y11927767D01*
X13180000Y11847668D01*
X13519479Y11674695D01*
X13875178Y11538154D01*
X14243201Y11439543D01*
X14619516Y11379940D01*
X14978956Y11361103D01*
X14999999Y11360000D01*
X15000000Y11360000D01*
X15000001Y11360000D01*
X15019941Y11361046D01*
X15380484Y11379940D01*
X15756799Y11439543D01*
X16124822Y11538154D01*
X16480521Y11674695D01*
X16820000Y11847668D01*
X17139538Y12055178D01*
X17435635Y12294953D01*
X17705047Y12564365D01*
X17944822Y12860462D01*
X18152332Y13180000D01*
X18325305Y13519479D01*
X18461846Y13875178D01*
X18560457Y14243201D01*
X18620060Y14619516D01*
X18640000Y15000000D01*
X18620060Y15380484D01*
X18560457Y15756799D01*
X18461846Y16124822D01*
X18325305Y16480521D01*
X18152332Y16820000D01*
X18152329Y16820005D01*
X17944823Y17139537D01*
X17705050Y17435631D01*
X17705047Y17435635D01*
X17435635Y17705047D01*
X17295323Y17818670D01*
X17139536Y17944824D01*
X16820004Y18152330D01*
X16480524Y18325304D01*
X16124826Y18461845D01*
X15756800Y18560457D01*
X15756793Y18560458D01*
X15380485Y18620060D01*
X15000001Y18640000D01*
X14999999Y18640000D01*
X14619514Y18620060D01*
X14243206Y18560458D01*
X14243199Y18560457D01*
X13875173Y18461845D01*
X13519475Y18325304D01*
X13179995Y18152330D01*
X13032135Y18056309D01*
X12965190Y18036305D01*
X12898057Y18055671D01*
X12877313Y18072231D01*
X12812144Y18136823D01*
X12811169Y18137802D01*
X12705101Y18245511D01*
X12701103Y18250230D01*
X12658960Y18292372D01*
X12658287Y18293050D01*
X12624185Y18327681D01*
X12619596Y18331736D01*
X12618437Y18332895D01*
X12598734Y18342935D01*
X12586363Y18349238D01*
X12554980Y18372040D01*
X12333324Y18593691D01*
X12308210Y18637196D01*
X12305830Y18636210D01*
X12247252Y18777633D01*
X12247251Y18777634D01*
X12247251Y18777635D01*
X12159011Y18892631D01*
X12044015Y18980871D01*
X12044014Y18980872D01*
X12044012Y18980873D01*
X11910102Y19036339D01*
X11910100Y19036340D01*
X11910099Y19036340D01*
X11838244Y19045800D01*
X11766391Y19055260D01*
X11766389Y19055260D01*
X11622681Y19036340D01*
X11622677Y19036339D01*
X11488767Y18980873D01*
X11373769Y18892631D01*
X11285528Y18777634D01*
X11280933Y18766540D01*
X11269251Y18738338D01*
X11225412Y18683935D01*
X11159118Y18661869D01*
X11154691Y18661790D01*
X10759285Y18661790D01*
X10692246Y18681475D01*
X10683801Y18687413D01*
X10677629Y18692149D01*
X10677623Y18692152D01*
X10543712Y18747619D01*
X10543710Y18747620D01*
X10543709Y18747620D01*
X10433307Y18762155D01*
X10400001Y18766540D01*
X10399999Y18766540D01*
X10256291Y18747620D01*
X10256287Y18747619D01*
X10122377Y18692153D01*
X10007379Y18603911D01*
X9919137Y18488913D01*
X9863671Y18355003D01*
X9863670Y18354999D01*
X9845625Y18217933D01*
X9844750Y18211290D01*
X6704289Y18211290D01*
X6480524Y18325304D01*
X6124826Y18461845D01*
X5756800Y18560457D01*
X5756793Y18560458D01*
X5380485Y18620060D01*
X5000001Y18640000D01*
X4999999Y18640000D01*
X4619514Y18620060D01*
X4243206Y18560458D01*
X4243199Y18560457D01*
X3875173Y18461845D01*
X3519475Y18325304D01*
X3179995Y18152330D01*
X3032135Y18056309D01*
X2965190Y18036305D01*
X2898057Y18055671D01*
X2877313Y18072231D01*
X2812144Y18136823D01*
X2811169Y18137802D01*
X2705101Y18245511D01*
X2701103Y18250230D01*
X2658960Y18292372D01*
X2658287Y18293050D01*
X2624185Y18327681D01*
X2619596Y18331736D01*
X2618437Y18332895D01*
X2594284Y18345202D01*
X2586347Y18349246D01*
X2554963Y18372049D01*
X2333325Y18593687D01*
X2308212Y18637197D01*
X2305831Y18636210D01*
X2253663Y18762155D01*
X2247251Y18777635D01*
X2159011Y18892631D01*
X2044015Y18980871D01*
X2044014Y18980872D01*
X2044012Y18980873D01*
X1910102Y19036339D01*
X1910100Y19036340D01*
X1910099Y19036340D01*
X1838244Y19045800D01*
X1766391Y19055260D01*
X1766389Y19055260D01*
X1622681Y19036340D01*
X1622677Y19036339D01*
X1488767Y18980873D01*
X1373769Y18892631D01*
X1285528Y18777634D01*
X1280933Y18766540D01*
X1269251Y18738338D01*
X1225412Y18683935D01*
X1159118Y18661869D01*
X1154691Y18661790D01*
X759285Y18661790D01*
X692246Y18681475D01*
X683801Y18687413D01*
X677629Y18692149D01*
X677623Y18692152D01*
X543712Y18747619D01*
X543710Y18747620D01*
X543709Y18747620D01*
X528452Y18749629D01*
X433313Y18762155D01*
X369417Y18790422D01*
X330947Y18848747D01*
X325500Y18885094D01*
X325500Y19876000D01*
X345185Y19943039D01*
X397989Y19988794D01*
X449500Y20000000D01*
X14997294Y20000000D01*
X15002702Y19999883D01*
X15430392Y19981209D01*
X15441129Y19980269D01*
X15862874Y19924746D01*
X15873512Y19922871D01*
X16288818Y19830799D01*
X16299258Y19828001D01*
X16704945Y19700089D01*
X16715092Y19696396D01*
X17108098Y19533607D01*
X17117890Y19529041D01*
X17495215Y19332618D01*
X17504555Y19327225D01*
X17840787Y19113022D01*
X17863311Y19098672D01*
X17872172Y19092468D01*
X18209645Y18833516D01*
X18217932Y18826562D01*
X18531542Y18539192D01*
X18539191Y18531543D01*
X18826561Y18217933D01*
X18833515Y18209646D01*
X19092467Y17872173D01*
X19098671Y17863312D01*
X19327216Y17504570D01*
X19332621Y17495208D01*
X19426714Y17314458D01*
X19529037Y17117897D01*
X19533609Y17108093D01*
X19696391Y16715103D01*
X19700091Y16704937D01*
X19827999Y16299263D01*
X19830799Y16288815D01*
X19922868Y15873521D01*
X19924746Y15862867D01*
X19980266Y15441149D01*
X19981209Y15430373D01*
X19999882Y15002703D01*
X20000000Y14997294D01*
X20000000Y-14997293D01*
X19999882Y-15002702D01*
X19981209Y-15430372D01*
X19980266Y-15441148D01*
X19924746Y-15862866D01*
X19922868Y-15873520D01*
X19830799Y-16288814D01*
X19827999Y-16299262D01*
X19700091Y-16704936D01*
X19696391Y-16715102D01*
X19533609Y-17108092D01*
X19529037Y-17117896D01*
X19332625Y-17495201D01*
X19327216Y-17504569D01*
X19098671Y-17863311D01*
X19092467Y-17872172D01*
X18833515Y-18209645D01*
X18826561Y-18217932D01*
X18539191Y-18531542D01*
X18531542Y-18539191D01*
X18217932Y-18826561D01*
X18209645Y-18833515D01*
X17872172Y-19092467D01*
X17863311Y-19098671D01*
X17504569Y-19327216D01*
X17495201Y-19332625D01*
X17117896Y-19529037D01*
X17108092Y-19533609D01*
X16715102Y-19696391D01*
X16704936Y-19700091D01*
X16299262Y-19827999D01*
X16288814Y-19830799D01*
X15873520Y-19922868D01*
X15862866Y-19924746D01*
X15441148Y-19980266D01*
X15430372Y-19981209D01*
X15002703Y-19999882D01*
X14997294Y-20000000D01*
X-14997294Y-20000000D01*
X-15002703Y-19999882D01*
X-15430373Y-19981209D01*
X-15441149Y-19980266D01*
X-15862867Y-19924746D01*
X-15873521Y-19922868D01*
X-16288815Y-19830799D01*
X-16299263Y-19827999D01*
X-16704937Y-19700091D01*
X-16715103Y-19696391D01*
X-17108093Y-19533609D01*
X-17117897Y-19529037D01*
X-17241334Y-19464780D01*
X-17495208Y-19332621D01*
X-17504564Y-19327220D01*
X-17683941Y-19212943D01*
X-17863312Y-19098671D01*
X-17872173Y-19092467D01*
X-18209646Y-18833515D01*
X-18217933Y-18826561D01*
X-18531543Y-18539191D01*
X-18539192Y-18531542D01*
X-18826562Y-18217932D01*
X-18833516Y-18209645D01*
X-19092468Y-17872172D01*
X-19098672Y-17863311D01*
X-19199500Y-17705043D01*
X-19327225Y-17504555D01*
X-19332618Y-17495215D01*
X-19529041Y-17117890D01*
X-19533610Y-17108092D01*
X-19696392Y-16715102D01*
X-19700092Y-16704936D01*
X-19770849Y-16480524D01*
X-19828001Y-16299258D01*
X-19830800Y-16288814D01*
X-19922869Y-15873520D01*
X-19924747Y-15862866D01*
X-19980269Y-15441129D01*
X-19981209Y-15430392D01*
X-19999882Y-15002702D01*
X-20000000Y-14997293D01*
X-20000000Y-11474500D01*
X-19980315Y-11407461D01*
X-19927511Y-11361706D01*
X-19876000Y-11350500D01*
X-19067446Y-11350500D01*
X-19000407Y-11370185D01*
X-18968674Y-11403463D01*
X-18967168Y-11402308D01*
X-18873985Y-11523747D01*
X-18873983Y-11523748D01*
X-18873981Y-11523751D01*
X-18860314Y-11534238D01*
X-18819112Y-11590662D01*
X-18811800Y-11632613D01*
X-18811800Y-12270753D01*
X-18794570Y-12335060D01*
X-18787916Y-12359893D01*
X-18787913Y-12359900D01*
X-18741773Y-12439818D01*
X-18741771Y-12439821D01*
X-18741770Y-12439822D01*
X-18492522Y-12689070D01*
X-18415361Y-12733619D01*
X-18412598Y-12735214D01*
X-18323454Y-12759100D01*
X-18242805Y-12759100D01*
X-18175766Y-12778785D01*
X-18155513Y-12795031D01*
X-18073120Y-12876697D01*
X-18039364Y-12937871D01*
X-18044039Y-13007584D01*
X-18056416Y-13032301D01*
X-18152334Y-13180002D01*
X-18325304Y-13519475D01*
X-18461845Y-13875173D01*
X-18560457Y-14243199D01*
X-18560458Y-14243206D01*
X-18620060Y-14619514D01*
X-18640000Y-14999999D01*
X-18640000Y-15000000D01*
X-18620060Y-15380485D01*
X-18560458Y-15756793D01*
X-18560457Y-15756800D01*
X-18461845Y-16124826D01*
X-18325304Y-16480524D01*
X-18152330Y-16820004D01*
X-17944824Y-17139536D01*
X-17944822Y-17139538D01*
X-17705047Y-17435635D01*
X-17435635Y-17705047D01*
X-17435631Y-17705050D01*
X-17139537Y-17944823D01*
X-16820005Y-18152329D01*
X-16820000Y-18152332D01*
X-16480521Y-18325305D01*
X-16124822Y-18461846D01*
X-15756799Y-18560457D01*
X-15380484Y-18620060D01*
X-15021044Y-18638897D01*
X-15000001Y-18640000D01*
X-15000000Y-18640000D01*
X-14999999Y-18640000D01*
X-14980059Y-18638954D01*
X-14619516Y-18620060D01*
X-14243201Y-18560457D01*
X-13875178Y-18461846D01*
X-13519479Y-18325305D01*
X-13180000Y-18152332D01*
X-12860462Y-17944822D01*
X-12564365Y-17705047D01*
X-12294953Y-17435635D01*
X-12055178Y-17139538D01*
X-11847668Y-16820000D01*
X-11674695Y-16480521D01*
X-11538154Y-16124822D01*
X-11439543Y-15756799D01*
X-11379940Y-15380484D01*
X-11360000Y-15000000D01*
X-11379940Y-14619516D01*
X-11439543Y-14243201D01*
X-11538154Y-13875178D01*
X-11674695Y-13519479D01*
X-11847668Y-13180000D01*
X-11847671Y-13179995D01*
X-12055177Y-12860463D01*
X-12294950Y-12564369D01*
X-12294953Y-12564365D01*
X-12564365Y-12294953D01*
X-12765811Y-12131825D01*
X-12860464Y-12055176D01*
X-13179996Y-11847670D01*
X-13519476Y-11674696D01*
X-13875174Y-11538155D01*
X-14243200Y-11439543D01*
X-14243207Y-11439542D01*
X-14619515Y-11379940D01*
X-14999999Y-11360000D01*
X-15000001Y-11360000D01*
X-15380486Y-11379940D01*
X-15756794Y-11439542D01*
X-15756801Y-11439543D01*
X-16124827Y-11538155D01*
X-16480525Y-11674696D01*
X-16820005Y-11847670D01*
X-16967871Y-11943695D01*
X-17034816Y-11963699D01*
X-17101949Y-11944333D01*
X-17122697Y-11927769D01*
X-17187780Y-11863261D01*
X-17188840Y-11862198D01*
X-17206561Y-11844203D01*
X-17239575Y-11782625D01*
X-17242210Y-11757197D01*
X-17242210Y-11710337D01*
X-17222525Y-11643298D01*
X-17193700Y-11611963D01*
X-17078739Y-11523751D01*
X-16990499Y-11408755D01*
X-16935030Y-11274839D01*
X-16916110Y-11131130D01*
X-16935030Y-10987421D01*
X-16977001Y-10886092D01*
X-16990498Y-10853507D01*
X-16990499Y-10853506D01*
X-16990499Y-10853505D01*
X-17078739Y-10738509D01*
X-17193735Y-10650269D01*
X-17193736Y-10650268D01*
X-17193738Y-10650267D01*
X-17327652Y-10594799D01*
X-17335502Y-10592696D01*
X-17334740Y-10589851D01*
X-17385723Y-10567273D01*
X-17424170Y-10508933D01*
X-17428542Y-10456447D01*
X-17421110Y-10400000D01*
X-17421110Y-10399999D01*
X-10155250Y-10399999D01*
X-10155250Y-10400000D01*
X-10136330Y-10543708D01*
X-10136329Y-10543712D01*
X-10080862Y-10677623D01*
X-10080861Y-10677625D01*
X-9992620Y-10792623D01*
X-9986874Y-10798369D01*
X-9989426Y-10800920D01*
X-9957909Y-10843873D01*
X-9950500Y-10886092D01*
X-9950500Y-11368108D01*
X-9970185Y-11435147D01*
X-9988087Y-11454612D01*
X-9986871Y-11455828D01*
X-9992616Y-11461572D01*
X-10080863Y-11576577D01*
X-10136329Y-11710487D01*
X-10136330Y-11710491D01*
X-10155250Y-11854200D01*
X-10143384Y-11944333D01*
X-10136330Y-11997908D01*
X-10136329Y-11997912D01*
X-10080863Y-12131822D01*
X-10080862Y-12131824D01*
X-10080861Y-12131825D01*
X-9992621Y-12246821D01*
X-9877625Y-12335061D01*
X-9743709Y-12390530D01*
X-9600000Y-12409450D01*
X-9548849Y-12402715D01*
X-9479817Y-12413479D01*
X-9427561Y-12459858D01*
X-9409726Y-12509466D01*
X-9405220Y-12543688D01*
X-9405219Y-12543692D01*
X-9349753Y-12677602D01*
X-9349752Y-12677604D01*
X-9349751Y-12677605D01*
X-9261511Y-12792601D01*
X-9146515Y-12880841D01*
X-9012599Y-12936310D01*
X-8885610Y-12953028D01*
X-8868891Y-12955230D01*
X-8868890Y-12955230D01*
X-8868889Y-12955230D01*
X-8853913Y-12953258D01*
X-8725181Y-12936310D01*
X-8591265Y-12880841D01*
X-8476269Y-12792601D01*
X-8476265Y-12792596D01*
X-8471147Y-12787479D01*
X-8409824Y-12753994D01*
X-8383466Y-12751160D01*
X-8250816Y-12751160D01*
X-8183777Y-12770845D01*
X-8163524Y-12787091D01*
X-8073120Y-12876697D01*
X-8039364Y-12937871D01*
X-8044039Y-13007584D01*
X-8056416Y-13032301D01*
X-8152334Y-13180002D01*
X-8325304Y-13519475D01*
X-8461845Y-13875173D01*
X-8560457Y-14243199D01*
X-8560458Y-14243206D01*
X-8620060Y-14619514D01*
X-8640000Y-14999999D01*
X-8640000Y-15000000D01*
X-8620060Y-15380485D01*
X-8560458Y-15756793D01*
X-8560457Y-15756800D01*
X-8461845Y-16124826D01*
X-8325304Y-16480524D01*
X-8152330Y-16820004D01*
X-7944824Y-17139536D01*
X-7944822Y-17139538D01*
X-7705047Y-17435635D01*
X-7435635Y-17705047D01*
X-7435631Y-17705050D01*
X-7139537Y-17944823D01*
X-6820005Y-18152329D01*
X-6820000Y-18152332D01*
X-6480521Y-18325305D01*
X-6124822Y-18461846D01*
X-5756799Y-18560457D01*
X-5380484Y-18620060D01*
X-5021044Y-18638897D01*
X-5000001Y-18640000D01*
X-5000000Y-18640000D01*
X-4999999Y-18640000D01*
X-4980059Y-18638954D01*
X-4619516Y-18620060D01*
X-4243201Y-18560457D01*
X-3875178Y-18461846D01*
X-3519479Y-18325305D01*
X-3180000Y-18152332D01*
X-2860462Y-17944822D01*
X-2564365Y-17705047D01*
X-2294953Y-17435635D01*
X-2055178Y-17139538D01*
X-1847668Y-16820000D01*
X-1674695Y-16480521D01*
X-1538154Y-16124822D01*
X-1439543Y-15756799D01*
X-1379940Y-15380484D01*
X-1360000Y-15000000D01*
X-1379940Y-14619516D01*
X-1439543Y-14243201D01*
X-1538154Y-13875178D01*
X-1674695Y-13519479D01*
X-1847668Y-13180000D01*
X-1847671Y-13179995D01*
X-2055177Y-12860463D01*
X-2294950Y-12564369D01*
X-2294953Y-12564365D01*
X-2564365Y-12294953D01*
X-2765811Y-12131825D01*
X-2860464Y-12055176D01*
X-3179996Y-11847670D01*
X-3519476Y-11674696D01*
X-3875174Y-11538155D01*
X-4243200Y-11439543D01*
X-4243207Y-11439542D01*
X-4619515Y-11379940D01*
X-4999999Y-11360000D01*
X-5000001Y-11360000D01*
X-5380486Y-11379940D01*
X-5756794Y-11439542D01*
X-5756801Y-11439543D01*
X-6124827Y-11538155D01*
X-6480525Y-11674696D01*
X-6820003Y-11847669D01*
X-6967872Y-11943695D01*
X-7034817Y-11963698D01*
X-7101949Y-11944332D01*
X-7122696Y-11927769D01*
X-7187719Y-11863322D01*
X-7188668Y-11862371D01*
X-7214534Y-11836105D01*
X-7247545Y-11774528D01*
X-7250180Y-11749102D01*
X-7250180Y-11617743D01*
X-7230495Y-11550704D01*
X-7212004Y-11530621D01*
X-7213126Y-11529499D01*
X-7207381Y-11523753D01*
X-7207379Y-11523751D01*
X-7119139Y-11408755D01*
X-7063670Y-11274839D01*
X-7044750Y-11131130D01*
X-7063670Y-10987421D01*
X-7105641Y-10886092D01*
X-7119138Y-10853507D01*
X-7119139Y-10853506D01*
X-7119139Y-10853505D01*
X-7207379Y-10738509D01*
X-7322375Y-10650269D01*
X-7322376Y-10650268D01*
X-7322378Y-10650267D01*
X-7456288Y-10594801D01*
X-7456290Y-10594800D01*
X-7456291Y-10594800D01*
X-7472272Y-10592696D01*
X-7490545Y-10590290D01*
X-7554442Y-10562022D01*
X-7592912Y-10503697D01*
X-7597297Y-10451168D01*
X-7590560Y-10400000D01*
X-7590560Y-10399999D01*
X-155250Y-10399999D01*
X-155250Y-10400000D01*
X-136330Y-10543708D01*
X-136329Y-10543712D01*
X-80862Y-10677623D01*
X-80861Y-10677625D01*
X7380Y-10792623D01*
X13126Y-10798369D01*
X10574Y-10800920D01*
X42091Y-10843873D01*
X49500Y-10886092D01*
X49500Y-11368108D01*
X29815Y-11435147D01*
X11913Y-11454612D01*
X13129Y-11455828D01*
X7384Y-11461572D01*
X-80863Y-11576577D01*
X-136329Y-11710487D01*
X-136330Y-11710491D01*
X-155250Y-11854200D01*
X-143384Y-11944333D01*
X-136330Y-11997908D01*
X-136329Y-11997912D01*
X-80863Y-12131822D01*
X-80862Y-12131824D01*
X-80861Y-12131825D01*
X7379Y-12246821D01*
X122375Y-12335061D01*
X256291Y-12390530D01*
X400000Y-12409450D01*
X451160Y-12402714D01*
X520193Y-12413479D01*
X572450Y-12459858D01*
X590284Y-12509465D01*
X594790Y-12543689D01*
X594791Y-12543692D01*
X650257Y-12677602D01*
X650258Y-12677604D01*
X650259Y-12677605D01*
X738499Y-12792601D01*
X853495Y-12880841D01*
X987411Y-12936310D01*
X1114400Y-12953028D01*
X1131119Y-12955230D01*
X1131120Y-12955230D01*
X1131121Y-12955230D01*
X1146097Y-12953258D01*
X1274829Y-12936310D01*
X1408745Y-12880841D01*
X1523741Y-12792601D01*
X1523745Y-12792596D01*
X1528863Y-12787479D01*
X1590186Y-12753994D01*
X1616544Y-12751160D01*
X1749184Y-12751160D01*
X1816223Y-12770845D01*
X1836476Y-12787091D01*
X1926880Y-12876697D01*
X1960636Y-12937871D01*
X1955961Y-13007584D01*
X1943584Y-13032301D01*
X1847666Y-13180002D01*
X1674696Y-13519475D01*
X1538155Y-13875173D01*
X1439543Y-14243199D01*
X1439542Y-14243206D01*
X1379940Y-14619514D01*
X1360000Y-14999999D01*
X1360000Y-15000000D01*
X1379940Y-15380485D01*
X1439542Y-15756793D01*
X1439543Y-15756800D01*
X1538155Y-16124826D01*
X1674696Y-16480524D01*
X1847670Y-16820004D01*
X2055176Y-17139536D01*
X2055178Y-17139538D01*
X2294953Y-17435635D01*
X2564365Y-17705047D01*
X2564369Y-17705050D01*
X2860463Y-17944823D01*
X3179995Y-18152329D01*
X3180000Y-18152332D01*
X3519479Y-18325305D01*
X3875178Y-18461846D01*
X4243201Y-18560457D01*
X4619516Y-18620060D01*
X4978956Y-18638897D01*
X4999999Y-18640000D01*
X5000000Y-18640000D01*
X5000001Y-18640000D01*
X5019941Y-18638954D01*
X5380484Y-18620060D01*
X5756799Y-18560457D01*
X6124822Y-18461846D01*
X6480521Y-18325305D01*
X6820000Y-18152332D01*
X7139538Y-17944822D01*
X7435635Y-17705047D01*
X7705047Y-17435635D01*
X7944822Y-17139538D01*
X8152332Y-16820000D01*
X8325305Y-16480521D01*
X8461846Y-16124822D01*
X8560457Y-15756799D01*
X8620060Y-15380484D01*
X8640000Y-15000000D01*
X8620060Y-14619516D01*
X8560457Y-14243201D01*
X8461846Y-13875178D01*
X8325305Y-13519479D01*
X8152332Y-13180000D01*
X8152329Y-13179995D01*
X7944823Y-12860463D01*
X7705050Y-12564369D01*
X7705047Y-12564365D01*
X7435635Y-12294953D01*
X7234189Y-12131825D01*
X7139536Y-12055176D01*
X6820004Y-11847670D01*
X6480524Y-11674696D01*
X6124826Y-11538155D01*
X5756800Y-11439543D01*
X5756793Y-11439542D01*
X5380485Y-11379940D01*
X5000001Y-11360000D01*
X4999999Y-11360000D01*
X4619514Y-11379940D01*
X4243206Y-11439542D01*
X4243199Y-11439543D01*
X3875173Y-11538155D01*
X3519475Y-11674696D01*
X3179997Y-11847669D01*
X3032128Y-11943695D01*
X2965183Y-11963698D01*
X2898051Y-11944332D01*
X2877304Y-11927769D01*
X2812597Y-11863635D01*
X2811647Y-11862684D01*
X2785464Y-11836095D01*
X2752454Y-11774516D01*
X2749820Y-11749093D01*
X2749820Y-11617743D01*
X2769505Y-11550704D01*
X2787996Y-11530621D01*
X2786874Y-11529499D01*
X2792619Y-11523753D01*
X2792621Y-11523751D01*
X2880861Y-11408755D01*
X2936330Y-11274839D01*
X2955250Y-11131130D01*
X2936330Y-10987421D01*
X2894359Y-10886092D01*
X2880862Y-10853507D01*
X2880861Y-10853506D01*
X2880861Y-10853505D01*
X2792621Y-10738509D01*
X2677625Y-10650269D01*
X2677624Y-10650268D01*
X2677622Y-10650267D01*
X2543712Y-10594801D01*
X2543710Y-10594800D01*
X2543709Y-10594800D01*
X2527728Y-10592696D01*
X2509455Y-10590290D01*
X2445558Y-10562022D01*
X2407088Y-10503697D01*
X2402703Y-10451168D01*
X2409440Y-10400000D01*
X2409440Y-10399999D01*
X9844750Y-10399999D01*
X9844750Y-10400000D01*
X9863670Y-10543708D01*
X9863671Y-10543712D01*
X9919138Y-10677623D01*
X9919139Y-10677625D01*
X10007380Y-10792623D01*
X10013126Y-10798369D01*
X10010574Y-10800920D01*
X10042091Y-10843873D01*
X10049500Y-10886092D01*
X10049500Y-11368108D01*
X10029815Y-11435147D01*
X10011913Y-11454612D01*
X10013129Y-11455828D01*
X10007384Y-11461572D01*
X9919137Y-11576577D01*
X9863671Y-11710487D01*
X9863670Y-11710491D01*
X9844750Y-11854200D01*
X9856616Y-11944333D01*
X9863670Y-11997908D01*
X9863671Y-11997912D01*
X9919137Y-12131822D01*
X9919138Y-12131824D01*
X9919139Y-12131825D01*
X10007379Y-12246821D01*
X10122375Y-12335061D01*
X10256291Y-12390530D01*
X10400000Y-12409450D01*
X10451160Y-12402714D01*
X10520193Y-12413479D01*
X10572450Y-12459858D01*
X10590284Y-12509465D01*
X10594790Y-12543689D01*
X10594791Y-12543692D01*
X10650257Y-12677602D01*
X10650258Y-12677604D01*
X10650259Y-12677605D01*
X10738499Y-12792601D01*
X10853495Y-12880841D01*
X10987411Y-12936310D01*
X11114400Y-12953028D01*
X11131119Y-12955230D01*
X11131120Y-12955230D01*
X11131121Y-12955230D01*
X11146097Y-12953258D01*
X11274829Y-12936310D01*
X11408745Y-12880841D01*
X11523741Y-12792601D01*
X11523745Y-12792596D01*
X11528863Y-12787479D01*
X11590186Y-12753994D01*
X11616544Y-12751160D01*
X11749184Y-12751160D01*
X11816223Y-12770845D01*
X11836476Y-12787091D01*
X11926880Y-12876697D01*
X11960636Y-12937871D01*
X11955961Y-13007584D01*
X11943584Y-13032301D01*
X11847666Y-13180002D01*
X11674696Y-13519475D01*
X11538155Y-13875173D01*
X11439543Y-14243199D01*
X11439542Y-14243206D01*
X11379940Y-14619514D01*
X11360000Y-14999999D01*
X11360000Y-15000000D01*
X11379940Y-15380485D01*
X11439542Y-15756793D01*
X11439543Y-15756800D01*
X11538155Y-16124826D01*
X11674696Y-16480524D01*
X11847670Y-16820004D01*
X12055176Y-17139536D01*
X12055178Y-17139538D01*
X12294953Y-17435635D01*
X12564365Y-17705047D01*
X12564369Y-17705050D01*
X12860463Y-17944823D01*
X13179995Y-18152329D01*
X13180000Y-18152332D01*
X13519479Y-18325305D01*
X13875178Y-18461846D01*
X14243201Y-18560457D01*
X14619516Y-18620060D01*
X14978956Y-18638897D01*
X14999999Y-18640000D01*
X15000000Y-18640000D01*
X15000001Y-18640000D01*
X15019941Y-18638954D01*
X15380484Y-18620060D01*
X15756799Y-18560457D01*
X16124822Y-18461846D01*
X16480521Y-18325305D01*
X16820000Y-18152332D01*
X17139538Y-17944822D01*
X17435635Y-17705047D01*
X17705047Y-17435635D01*
X17944822Y-17139538D01*
X18152332Y-16820000D01*
X18325305Y-16480521D01*
X18461846Y-16124822D01*
X18560457Y-15756799D01*
X18620060Y-15380484D01*
X18640000Y-15000000D01*
X18620060Y-14619516D01*
X18560457Y-14243201D01*
X18461846Y-13875178D01*
X18325305Y-13519479D01*
X18152332Y-13180000D01*
X18152329Y-13179995D01*
X17944823Y-12860463D01*
X17705050Y-12564369D01*
X17705047Y-12564365D01*
X17435635Y-12294953D01*
X17234189Y-12131825D01*
X17139536Y-12055176D01*
X16820004Y-11847670D01*
X16480524Y-11674696D01*
X16124826Y-11538155D01*
X15756800Y-11439543D01*
X15756793Y-11439542D01*
X15380485Y-11379940D01*
X15000001Y-11360000D01*
X14999999Y-11360000D01*
X14619514Y-11379940D01*
X14243206Y-11439542D01*
X14243199Y-11439543D01*
X13875173Y-11538155D01*
X13519475Y-11674696D01*
X13179997Y-11847669D01*
X13032128Y-11943695D01*
X12965183Y-11963698D01*
X12898051Y-11944332D01*
X12877304Y-11927769D01*
X12812597Y-11863635D01*
X12811647Y-11862684D01*
X12785464Y-11836095D01*
X12752454Y-11774516D01*
X12749820Y-11749093D01*
X12749820Y-11617743D01*
X12769505Y-11550704D01*
X12787996Y-11530621D01*
X12786874Y-11529499D01*
X12792619Y-11523753D01*
X12792621Y-11523751D01*
X12880861Y-11408755D01*
X12936330Y-11274839D01*
X12955250Y-11131130D01*
X12936330Y-10987421D01*
X12894359Y-10886092D01*
X12880862Y-10853507D01*
X12880861Y-10853506D01*
X12880861Y-10853505D01*
X12792621Y-10738509D01*
X12677625Y-10650269D01*
X12677624Y-10650268D01*
X12677622Y-10650267D01*
X12543712Y-10594801D01*
X12543710Y-10594800D01*
X12543709Y-10594800D01*
X12471854Y-10585340D01*
X12400001Y-10575880D01*
X12399999Y-10575880D01*
X12256291Y-10594800D01*
X12256287Y-10594801D01*
X12122377Y-10650267D01*
X12007379Y-10738509D01*
X11919137Y-10853507D01*
X11863671Y-10987417D01*
X11863670Y-10987421D01*
X11844750Y-11131129D01*
X11844750Y-11131130D01*
X11863670Y-11274838D01*
X11863671Y-11274842D01*
X11897804Y-11357248D01*
X11905273Y-11426718D01*
X11873997Y-11489197D01*
X11813908Y-11524848D01*
X11783243Y-11528700D01*
X10905275Y-11528700D01*
X10838236Y-11509015D01*
X10806900Y-11480188D01*
X10792621Y-11461579D01*
X10792618Y-11461576D01*
X10792616Y-11461574D01*
X10786871Y-11455828D01*
X10789387Y-11453311D01*
X10757797Y-11410017D01*
X10750500Y-11368108D01*
X10750500Y-10886092D01*
X10770185Y-10819053D01*
X10788114Y-10799609D01*
X10786874Y-10798369D01*
X10792619Y-10792623D01*
X10792621Y-10792621D01*
X10880861Y-10677625D01*
X10936330Y-10543709D01*
X10955250Y-10400000D01*
X10936330Y-10256291D01*
X10880861Y-10122375D01*
X10792621Y-10007379D01*
X10677625Y-9919139D01*
X10677624Y-9919138D01*
X10677622Y-9919137D01*
X10543712Y-9863671D01*
X10543710Y-9863670D01*
X10543709Y-9863670D01*
X10471854Y-9854210D01*
X10400001Y-9844750D01*
X10399999Y-9844750D01*
X10256291Y-9863670D01*
X10256287Y-9863671D01*
X10122377Y-9919137D01*
X10007379Y-10007379D01*
X9919137Y-10122377D01*
X9863671Y-10256287D01*
X9863670Y-10256291D01*
X9844750Y-10399999D01*
X2409440Y-10399999D01*
X2390520Y-10256291D01*
X2335051Y-10122375D01*
X2246811Y-10007379D01*
X2131815Y-9919139D01*
X2131814Y-9919138D01*
X2131812Y-9919137D01*
X1997902Y-9863671D01*
X1997900Y-9863670D01*
X1997899Y-9863670D01*
X1926044Y-9854210D01*
X1854191Y-9844750D01*
X1854189Y-9844750D01*
X1710481Y-9863670D01*
X1710477Y-9863671D01*
X1576567Y-9919137D01*
X1461562Y-10007384D01*
X1455818Y-10013129D01*
X1453301Y-10010612D01*
X1410007Y-10042203D01*
X1368098Y-10049500D01*
X886092Y-10049500D01*
X819053Y-10029815D01*
X799587Y-10011913D01*
X798372Y-10013129D01*
X792627Y-10007384D01*
X792621Y-10007379D01*
X677625Y-9919139D01*
X677624Y-9919138D01*
X677622Y-9919137D01*
X543712Y-9863671D01*
X543710Y-9863670D01*
X543709Y-9863670D01*
X471854Y-9854210D01*
X400001Y-9844750D01*
X399999Y-9844750D01*
X256291Y-9863670D01*
X256287Y-9863671D01*
X122377Y-9919137D01*
X7379Y-10007379D01*
X-80863Y-10122377D01*
X-136329Y-10256287D01*
X-136330Y-10256291D01*
X-155250Y-10399999D01*
X-7590560Y-10399999D01*
X-7609480Y-10256291D01*
X-7664949Y-10122375D01*
X-7753189Y-10007379D01*
X-7868185Y-9919139D01*
X-7868186Y-9919138D01*
X-7868188Y-9919137D01*
X-8002098Y-9863671D01*
X-8002100Y-9863670D01*
X-8002101Y-9863670D01*
X-8073956Y-9854210D01*
X-8145809Y-9844750D01*
X-8145811Y-9844750D01*
X-8289519Y-9863670D01*
X-8289523Y-9863671D01*
X-8423433Y-9919137D01*
X-8538438Y-10007384D01*
X-8544182Y-10013129D01*
X-8546699Y-10010612D01*
X-8589993Y-10042203D01*
X-8631902Y-10049500D01*
X-9113908Y-10049500D01*
X-9180947Y-10029815D01*
X-9200413Y-10011913D01*
X-9201628Y-10013129D01*
X-9207373Y-10007384D01*
X-9207379Y-10007379D01*
X-9322375Y-9919139D01*
X-9322376Y-9919138D01*
X-9322378Y-9919137D01*
X-9456288Y-9863671D01*
X-9456290Y-9863670D01*
X-9456291Y-9863670D01*
X-9528146Y-9854210D01*
X-9599999Y-9844750D01*
X-9600001Y-9844750D01*
X-9743709Y-9863670D01*
X-9743713Y-9863671D01*
X-9877623Y-9919137D01*
X-9992621Y-10007379D01*
X-10080863Y-10122377D01*
X-10136329Y-10256287D01*
X-10136330Y-10256291D01*
X-10155250Y-10399999D01*
X-17421110Y-10399999D01*
X-17440030Y-10256291D01*
X-17495499Y-10122375D01*
X-17583739Y-10007379D01*
X-17698735Y-9919139D01*
X-17698736Y-9919138D01*
X-17698738Y-9919137D01*
X-17832648Y-9863671D01*
X-17832650Y-9863670D01*
X-17832651Y-9863670D01*
X-17904506Y-9854210D01*
X-17976359Y-9844750D01*
X-17976361Y-9844750D01*
X-18120069Y-9863670D01*
X-18120073Y-9863671D01*
X-18253983Y-9919137D01*
X-18368981Y-10007379D01*
X-18457223Y-10122377D01*
X-18512689Y-10256287D01*
X-18512690Y-10256291D01*
X-18531610Y-10399999D01*
X-18531610Y-10400002D01*
X-18524179Y-10456447D01*
X-18534945Y-10525482D01*
X-18581325Y-10577738D01*
X-18617718Y-10590830D01*
X-18617218Y-10592696D01*
X-18625069Y-10594799D01*
X-18734340Y-10640061D01*
X-18781792Y-10649500D01*
X-19876000Y-10649500D01*
X-19943039Y-10629815D01*
X-19988794Y-10577011D01*
X-20000000Y-10525500D01*
X-20000000Y-1131129D01*
X-19036610Y-1131129D01*
X-19036610Y-1131130D01*
X-19017690Y-1274838D01*
X-19017689Y-1274842D01*
X-18962222Y-1408753D01*
X-18962221Y-1408755D01*
X-18873985Y-1523747D01*
X-18873983Y-1523748D01*
X-18873981Y-1523751D01*
X-18860314Y-1534238D01*
X-18819112Y-1590662D01*
X-18811800Y-1632613D01*
X-18811800Y-2270753D01*
X-18794570Y-2335060D01*
X-18787916Y-2359893D01*
X-18787913Y-2359900D01*
X-18741773Y-2439818D01*
X-18741771Y-2439821D01*
X-18741770Y-2439822D01*
X-18492522Y-2689070D01*
X-18415361Y-2733619D01*
X-18412598Y-2735214D01*
X-18323454Y-2759100D01*
X-18242805Y-2759100D01*
X-18175766Y-2778785D01*
X-18155513Y-2795031D01*
X-18073120Y-2876697D01*
X-18039364Y-2937871D01*
X-18044039Y-3007584D01*
X-18056416Y-3032301D01*
X-18152334Y-3180002D01*
X-18325304Y-3519475D01*
X-18461845Y-3875173D01*
X-18560457Y-4243199D01*
X-18560458Y-4243206D01*
X-18620060Y-4619514D01*
X-18640000Y-4999999D01*
X-18640000Y-5000000D01*
X-18620060Y-5380485D01*
X-18560458Y-5756793D01*
X-18560457Y-5756800D01*
X-18461845Y-6124826D01*
X-18325304Y-6480524D01*
X-18152330Y-6820004D01*
X-17944824Y-7139536D01*
X-17944822Y-7139538D01*
X-17705047Y-7435635D01*
X-17435635Y-7705047D01*
X-17435631Y-7705050D01*
X-17139537Y-7944823D01*
X-16820005Y-8152329D01*
X-16820000Y-8152332D01*
X-16480521Y-8325305D01*
X-16124822Y-8461846D01*
X-15756799Y-8560457D01*
X-15380484Y-8620060D01*
X-15021044Y-8638897D01*
X-15000001Y-8640000D01*
X-15000000Y-8640000D01*
X-14999999Y-8640000D01*
X-14980059Y-8638954D01*
X-14619516Y-8620060D01*
X-14243201Y-8560457D01*
X-13875178Y-8461846D01*
X-13519479Y-8325305D01*
X-13180000Y-8152332D01*
X-12860462Y-7944822D01*
X-12564365Y-7705047D01*
X-12294953Y-7435635D01*
X-12055178Y-7139538D01*
X-11847668Y-6820000D01*
X-11674695Y-6480521D01*
X-11538154Y-6124822D01*
X-11439543Y-5756799D01*
X-11379940Y-5380484D01*
X-11360000Y-5000000D01*
X-11379940Y-4619516D01*
X-11439543Y-4243201D01*
X-11538154Y-3875178D01*
X-11674695Y-3519479D01*
X-11847668Y-3180000D01*
X-11847671Y-3179995D01*
X-12055177Y-2860463D01*
X-12294950Y-2564369D01*
X-12294953Y-2564365D01*
X-12564365Y-2294953D01*
X-12765811Y-2131825D01*
X-12860464Y-2055176D01*
X-13179996Y-1847670D01*
X-13519476Y-1674696D01*
X-13875174Y-1538155D01*
X-14243200Y-1439543D01*
X-14243207Y-1439542D01*
X-14619515Y-1379940D01*
X-14999999Y-1360000D01*
X-15000001Y-1360000D01*
X-15380486Y-1379940D01*
X-15756794Y-1439542D01*
X-15756801Y-1439543D01*
X-16124827Y-1538155D01*
X-16480525Y-1674696D01*
X-16820005Y-1847670D01*
X-16967869Y-1943694D01*
X-17034814Y-1963698D01*
X-17101946Y-1944332D01*
X-17122689Y-1927774D01*
X-17188186Y-1862854D01*
X-17188987Y-1862050D01*
X-17206567Y-1844198D01*
X-17239576Y-1782619D01*
X-17242210Y-1757197D01*
X-17242210Y-1710337D01*
X-17222525Y-1643298D01*
X-17193700Y-1611963D01*
X-17078739Y-1523751D01*
X-16990499Y-1408755D01*
X-16935030Y-1274839D01*
X-16916110Y-1131130D01*
X-16935030Y-987421D01*
X-16977001Y-886092D01*
X-16990498Y-853507D01*
X-16990499Y-853506D01*
X-16990499Y-853505D01*
X-17078739Y-738509D01*
X-17193735Y-650269D01*
X-17193736Y-650268D01*
X-17193738Y-650267D01*
X-17327652Y-594799D01*
X-17335502Y-592696D01*
X-17334740Y-589851D01*
X-17385723Y-567273D01*
X-17424170Y-508933D01*
X-17428542Y-456447D01*
X-17421110Y-400000D01*
X-17421110Y-399999D01*
X-10155250Y-399999D01*
X-10155250Y-400000D01*
X-10136330Y-543708D01*
X-10136329Y-543712D01*
X-10080862Y-677623D01*
X-10080861Y-677625D01*
X-9992620Y-792623D01*
X-9986874Y-798369D01*
X-9989426Y-800920D01*
X-9957909Y-843873D01*
X-9950500Y-886092D01*
X-9950500Y-1368108D01*
X-9970185Y-1435147D01*
X-9988087Y-1454612D01*
X-9986871Y-1455828D01*
X-9992616Y-1461572D01*
X-10080863Y-1576577D01*
X-10136329Y-1710487D01*
X-10136330Y-1710491D01*
X-10155250Y-1854199D01*
X-10155250Y-1854200D01*
X-10136330Y-1997908D01*
X-10136329Y-1997912D01*
X-10080863Y-2131822D01*
X-10080862Y-2131824D01*
X-10080861Y-2131825D01*
X-9992621Y-2246821D01*
X-9877625Y-2335061D01*
X-9743709Y-2390530D01*
X-9600000Y-2409450D01*
X-9549964Y-2402862D01*
X-9480932Y-2413627D01*
X-9428675Y-2460006D01*
X-9410841Y-2509615D01*
X-9405220Y-2552307D01*
X-9405219Y-2552312D01*
X-9349753Y-2686222D01*
X-9349752Y-2686224D01*
X-9349751Y-2686225D01*
X-9261511Y-2801221D01*
X-9146515Y-2889461D01*
X-9012599Y-2944930D01*
X-8885610Y-2961648D01*
X-8868891Y-2963850D01*
X-8868890Y-2963850D01*
X-8868889Y-2963850D01*
X-8853913Y-2961878D01*
X-8725181Y-2944930D01*
X-8591265Y-2889461D01*
X-8476269Y-2801221D01*
X-8476267Y-2801217D01*
X-8476263Y-2801215D01*
X-8470518Y-2795471D01*
X-8468002Y-2797987D01*
X-8424707Y-2766397D01*
X-8382798Y-2759100D01*
X-8242805Y-2759100D01*
X-8175766Y-2778785D01*
X-8155513Y-2795031D01*
X-8073120Y-2876697D01*
X-8039364Y-2937871D01*
X-8044039Y-3007584D01*
X-8056416Y-3032301D01*
X-8152334Y-3180002D01*
X-8325304Y-3519475D01*
X-8461845Y-3875173D01*
X-8560457Y-4243199D01*
X-8560458Y-4243206D01*
X-8620060Y-4619514D01*
X-8640000Y-4999999D01*
X-8640000Y-5000000D01*
X-8620060Y-5380485D01*
X-8560458Y-5756793D01*
X-8560457Y-5756800D01*
X-8461845Y-6124826D01*
X-8325304Y-6480524D01*
X-8152330Y-6820004D01*
X-7944824Y-7139536D01*
X-7944822Y-7139538D01*
X-7705047Y-7435635D01*
X-7435635Y-7705047D01*
X-7435631Y-7705050D01*
X-7139537Y-7944823D01*
X-6820005Y-8152329D01*
X-6820000Y-8152332D01*
X-6480521Y-8325305D01*
X-6124822Y-8461846D01*
X-5756799Y-8560457D01*
X-5380484Y-8620060D01*
X-5021044Y-8638897D01*
X-5000001Y-8640000D01*
X-5000000Y-8640000D01*
X-4999999Y-8640000D01*
X-4980059Y-8638954D01*
X-4619516Y-8620060D01*
X-4243201Y-8560457D01*
X-3875178Y-8461846D01*
X-3519479Y-8325305D01*
X-3180000Y-8152332D01*
X-2860462Y-7944822D01*
X-2564365Y-7705047D01*
X-2294953Y-7435635D01*
X-2055178Y-7139538D01*
X-1847668Y-6820000D01*
X-1674695Y-6480521D01*
X-1538154Y-6124822D01*
X-1439543Y-5756799D01*
X-1379940Y-5380484D01*
X-1360000Y-5000000D01*
X-1379940Y-4619516D01*
X-1439543Y-4243201D01*
X-1538154Y-3875178D01*
X-1674695Y-3519479D01*
X-1847668Y-3180000D01*
X-1847671Y-3179995D01*
X-2055177Y-2860463D01*
X-2294950Y-2564369D01*
X-2294953Y-2564365D01*
X-2564365Y-2294953D01*
X-2765811Y-2131825D01*
X-2860464Y-2055176D01*
X-3179996Y-1847670D01*
X-3519476Y-1674696D01*
X-3875174Y-1538155D01*
X-4243200Y-1439543D01*
X-4243207Y-1439542D01*
X-4619515Y-1379940D01*
X-4999999Y-1360000D01*
X-5000001Y-1360000D01*
X-5380486Y-1379940D01*
X-5756794Y-1439542D01*
X-5756801Y-1439543D01*
X-6124827Y-1538155D01*
X-6480525Y-1674696D01*
X-6820005Y-1847670D01*
X-6967869Y-1943694D01*
X-7034814Y-1963698D01*
X-7101946Y-1944332D01*
X-7122689Y-1927774D01*
X-7188071Y-1862967D01*
X-7188908Y-1862127D01*
X-7214533Y-1836106D01*
X-7247545Y-1774528D01*
X-7250180Y-1749102D01*
X-7250180Y-1617743D01*
X-7230495Y-1550704D01*
X-7212004Y-1530621D01*
X-7213126Y-1529499D01*
X-7207381Y-1523753D01*
X-7207379Y-1523751D01*
X-7119139Y-1408755D01*
X-7063670Y-1274839D01*
X-7044750Y-1131130D01*
X-7063670Y-987421D01*
X-7105641Y-886092D01*
X-7119138Y-853507D01*
X-7119139Y-853506D01*
X-7119139Y-853505D01*
X-7207379Y-738509D01*
X-7322375Y-650269D01*
X-7322376Y-650268D01*
X-7322378Y-650267D01*
X-7456288Y-594801D01*
X-7456290Y-594800D01*
X-7456291Y-594800D01*
X-7472272Y-592696D01*
X-7490545Y-590290D01*
X-7554442Y-562022D01*
X-7592912Y-503697D01*
X-7597297Y-451168D01*
X-7590560Y-400000D01*
X-7590560Y-399999D01*
X-155250Y-399999D01*
X-155250Y-400000D01*
X-136330Y-543708D01*
X-136329Y-543712D01*
X-80862Y-677623D01*
X-80861Y-677625D01*
X7380Y-792623D01*
X13126Y-798369D01*
X10574Y-800920D01*
X42091Y-843873D01*
X49500Y-886092D01*
X49500Y-1368108D01*
X29815Y-1435147D01*
X11913Y-1454612D01*
X13129Y-1455828D01*
X7384Y-1461572D01*
X-80863Y-1576577D01*
X-136329Y-1710487D01*
X-136330Y-1710491D01*
X-155250Y-1854199D01*
X-155250Y-1854200D01*
X-136330Y-1997908D01*
X-136329Y-1997912D01*
X-80863Y-2131822D01*
X-80862Y-2131824D01*
X-80861Y-2131825D01*
X7379Y-2246821D01*
X122375Y-2335061D01*
X256291Y-2390530D01*
X400000Y-2409450D01*
X451160Y-2402714D01*
X520193Y-2413479D01*
X572450Y-2459858D01*
X590284Y-2509465D01*
X594790Y-2543689D01*
X594791Y-2543692D01*
X650257Y-2677602D01*
X650258Y-2677604D01*
X650259Y-2677605D01*
X738499Y-2792601D01*
X853495Y-2880841D01*
X987411Y-2936310D01*
X1114400Y-2953028D01*
X1131119Y-2955230D01*
X1131120Y-2955230D01*
X1131121Y-2955230D01*
X1146097Y-2953258D01*
X1274829Y-2936310D01*
X1408745Y-2880841D01*
X1523741Y-2792601D01*
X1523745Y-2792596D01*
X1528863Y-2787479D01*
X1590186Y-2753994D01*
X1616544Y-2751160D01*
X1749184Y-2751160D01*
X1816223Y-2770845D01*
X1836476Y-2787091D01*
X1926880Y-2876697D01*
X1960636Y-2937871D01*
X1955961Y-3007584D01*
X1943584Y-3032301D01*
X1847666Y-3180002D01*
X1674696Y-3519475D01*
X1538155Y-3875173D01*
X1439543Y-4243199D01*
X1439542Y-4243206D01*
X1379940Y-4619514D01*
X1360000Y-4999999D01*
X1360000Y-5000000D01*
X1379940Y-5380485D01*
X1439542Y-5756793D01*
X1439543Y-5756800D01*
X1538155Y-6124826D01*
X1674696Y-6480524D01*
X1847670Y-6820004D01*
X2055176Y-7139536D01*
X2055178Y-7139538D01*
X2294953Y-7435635D01*
X2564365Y-7705047D01*
X2564369Y-7705050D01*
X2860463Y-7944823D01*
X3179995Y-8152329D01*
X3180000Y-8152332D01*
X3519479Y-8325305D01*
X3875178Y-8461846D01*
X4243201Y-8560457D01*
X4619516Y-8620060D01*
X4978956Y-8638897D01*
X4999999Y-8640000D01*
X5000000Y-8640000D01*
X5000001Y-8640000D01*
X5019941Y-8638954D01*
X5380484Y-8620060D01*
X5756799Y-8560457D01*
X6124822Y-8461846D01*
X6480521Y-8325305D01*
X6820000Y-8152332D01*
X7139538Y-7944822D01*
X7435635Y-7705047D01*
X7705047Y-7435635D01*
X7944822Y-7139538D01*
X8152332Y-6820000D01*
X8325305Y-6480521D01*
X8461846Y-6124822D01*
X8560457Y-5756799D01*
X8620060Y-5380484D01*
X8640000Y-5000000D01*
X8620060Y-4619516D01*
X8560457Y-4243201D01*
X8461846Y-3875178D01*
X8325305Y-3519479D01*
X8152332Y-3180000D01*
X8152329Y-3179995D01*
X7944823Y-2860463D01*
X7705050Y-2564369D01*
X7705047Y-2564365D01*
X7435635Y-2294953D01*
X7234189Y-2131825D01*
X7139536Y-2055176D01*
X6820004Y-1847670D01*
X6480524Y-1674696D01*
X6124826Y-1538155D01*
X5756800Y-1439543D01*
X5756793Y-1439542D01*
X5380485Y-1379940D01*
X5000001Y-1360000D01*
X4999999Y-1360000D01*
X4619514Y-1379940D01*
X4243206Y-1439542D01*
X4243199Y-1439543D01*
X3875173Y-1538155D01*
X3519475Y-1674696D01*
X3179995Y-1847670D01*
X3032132Y-1943693D01*
X2965187Y-1963697D01*
X2898054Y-1944331D01*
X2877304Y-1927766D01*
X2812351Y-1863385D01*
X2811292Y-1862322D01*
X2785468Y-1836098D01*
X2752455Y-1774519D01*
X2749820Y-1749093D01*
X2749820Y-1617743D01*
X2769505Y-1550704D01*
X2787996Y-1530621D01*
X2786874Y-1529499D01*
X2792619Y-1523753D01*
X2792621Y-1523751D01*
X2880861Y-1408755D01*
X2936330Y-1274839D01*
X2955250Y-1131130D01*
X2936330Y-987421D01*
X2894359Y-886092D01*
X2880862Y-853507D01*
X2880861Y-853506D01*
X2880861Y-853505D01*
X2792621Y-738509D01*
X2677625Y-650269D01*
X2677624Y-650268D01*
X2677622Y-650267D01*
X2543712Y-594801D01*
X2543710Y-594800D01*
X2543709Y-594800D01*
X2527728Y-592696D01*
X2509455Y-590290D01*
X2445558Y-562022D01*
X2407088Y-503697D01*
X2402703Y-451168D01*
X2409440Y-400000D01*
X2409440Y-399999D01*
X9844750Y-399999D01*
X9844750Y-400000D01*
X9863670Y-543708D01*
X9863671Y-543712D01*
X9919138Y-677623D01*
X9919139Y-677625D01*
X10007380Y-792623D01*
X10013126Y-798369D01*
X10010574Y-800920D01*
X10042091Y-843873D01*
X10049500Y-886092D01*
X10049500Y-1368108D01*
X10029815Y-1435147D01*
X10011913Y-1454612D01*
X10013129Y-1455828D01*
X10007384Y-1461572D01*
X9919137Y-1576577D01*
X9863671Y-1710487D01*
X9863670Y-1710491D01*
X9844750Y-1854199D01*
X9844750Y-1854200D01*
X9863670Y-1997908D01*
X9863671Y-1997912D01*
X9919137Y-2131822D01*
X9919138Y-2131824D01*
X9919139Y-2131825D01*
X10007379Y-2246821D01*
X10122375Y-2335061D01*
X10256291Y-2390530D01*
X10400000Y-2409450D01*
X10451160Y-2402714D01*
X10520193Y-2413479D01*
X10572450Y-2459858D01*
X10590284Y-2509465D01*
X10594790Y-2543689D01*
X10594791Y-2543692D01*
X10650257Y-2677602D01*
X10650258Y-2677604D01*
X10650259Y-2677605D01*
X10738499Y-2792601D01*
X10853495Y-2880841D01*
X10987411Y-2936310D01*
X11114400Y-2953028D01*
X11131119Y-2955230D01*
X11131120Y-2955230D01*
X11131121Y-2955230D01*
X11146097Y-2953258D01*
X11274829Y-2936310D01*
X11408745Y-2880841D01*
X11523741Y-2792601D01*
X11523745Y-2792596D01*
X11528863Y-2787479D01*
X11590186Y-2753994D01*
X11616544Y-2751160D01*
X11749184Y-2751160D01*
X11816223Y-2770845D01*
X11836476Y-2787091D01*
X11926880Y-2876697D01*
X11960636Y-2937871D01*
X11955961Y-3007584D01*
X11943584Y-3032301D01*
X11847666Y-3180002D01*
X11674696Y-3519475D01*
X11538155Y-3875173D01*
X11439543Y-4243199D01*
X11439542Y-4243206D01*
X11379940Y-4619514D01*
X11360000Y-4999999D01*
X11360000Y-5000000D01*
X11379940Y-5380485D01*
X11439542Y-5756793D01*
X11439543Y-5756800D01*
X11538155Y-6124826D01*
X11674696Y-6480524D01*
X11847670Y-6820004D01*
X12055176Y-7139536D01*
X12055178Y-7139538D01*
X12294953Y-7435635D01*
X12564365Y-7705047D01*
X12564369Y-7705050D01*
X12860463Y-7944823D01*
X13179995Y-8152329D01*
X13180000Y-8152332D01*
X13519479Y-8325305D01*
X13875178Y-8461846D01*
X14243201Y-8560457D01*
X14619516Y-8620060D01*
X14978956Y-8638897D01*
X14999999Y-8640000D01*
X15000000Y-8640000D01*
X15000001Y-8640000D01*
X15019941Y-8638954D01*
X15380484Y-8620060D01*
X15756799Y-8560457D01*
X16124822Y-8461846D01*
X16480521Y-8325305D01*
X16820000Y-8152332D01*
X17139538Y-7944822D01*
X17435635Y-7705047D01*
X17705047Y-7435635D01*
X17944822Y-7139538D01*
X18152332Y-6820000D01*
X18325305Y-6480521D01*
X18461846Y-6124822D01*
X18560457Y-5756799D01*
X18620060Y-5380484D01*
X18640000Y-5000000D01*
X18620060Y-4619516D01*
X18560457Y-4243201D01*
X18461846Y-3875178D01*
X18325305Y-3519479D01*
X18152332Y-3180000D01*
X18152329Y-3179995D01*
X17944823Y-2860463D01*
X17705050Y-2564369D01*
X17705047Y-2564365D01*
X17435635Y-2294953D01*
X17234189Y-2131825D01*
X17139536Y-2055176D01*
X16820004Y-1847670D01*
X16480524Y-1674696D01*
X16124826Y-1538155D01*
X15756800Y-1439543D01*
X15756793Y-1439542D01*
X15380485Y-1379940D01*
X15000001Y-1360000D01*
X14999999Y-1360000D01*
X14619514Y-1379940D01*
X14243206Y-1439542D01*
X14243199Y-1439543D01*
X13875173Y-1538155D01*
X13519475Y-1674696D01*
X13179995Y-1847670D01*
X13032132Y-1943693D01*
X12965187Y-1963697D01*
X12898054Y-1944331D01*
X12877304Y-1927766D01*
X12812351Y-1863385D01*
X12811292Y-1862322D01*
X12785468Y-1836098D01*
X12752455Y-1774519D01*
X12749820Y-1749093D01*
X12749820Y-1617743D01*
X12769505Y-1550704D01*
X12787996Y-1530621D01*
X12786874Y-1529499D01*
X12792619Y-1523753D01*
X12792621Y-1523751D01*
X12880861Y-1408755D01*
X12936330Y-1274839D01*
X12955250Y-1131130D01*
X12936330Y-987421D01*
X12894359Y-886092D01*
X12880862Y-853507D01*
X12880861Y-853506D01*
X12880861Y-853505D01*
X12792621Y-738509D01*
X12677625Y-650269D01*
X12677624Y-650268D01*
X12677622Y-650267D01*
X12543712Y-594801D01*
X12543710Y-594800D01*
X12543709Y-594800D01*
X12471854Y-585340D01*
X12400001Y-575880D01*
X12399999Y-575880D01*
X12256291Y-594800D01*
X12256287Y-594801D01*
X12122377Y-650267D01*
X12007379Y-738509D01*
X11919137Y-853507D01*
X11863671Y-987417D01*
X11863670Y-987421D01*
X11844750Y-1131129D01*
X11844750Y-1131130D01*
X11863670Y-1274838D01*
X11863671Y-1274842D01*
X11897804Y-1357248D01*
X11905273Y-1426718D01*
X11873997Y-1489197D01*
X11813908Y-1524848D01*
X11783243Y-1528700D01*
X10905275Y-1528700D01*
X10838236Y-1509015D01*
X10806900Y-1480188D01*
X10792621Y-1461579D01*
X10792618Y-1461576D01*
X10792616Y-1461574D01*
X10786871Y-1455828D01*
X10789387Y-1453311D01*
X10757797Y-1410017D01*
X10750500Y-1368108D01*
X10750500Y-886092D01*
X10770185Y-819053D01*
X10788114Y-799609D01*
X10786874Y-798369D01*
X10792619Y-792623D01*
X10792621Y-792621D01*
X10880861Y-677625D01*
X10936330Y-543709D01*
X10955250Y-400000D01*
X10936330Y-256291D01*
X10880861Y-122375D01*
X10792621Y-7379D01*
X10677625Y80861D01*
X10677624Y80862D01*
X10677622Y80863D01*
X10543712Y136329D01*
X10543710Y136330D01*
X10543709Y136330D01*
X10471854Y145790D01*
X10400001Y155250D01*
X10399999Y155250D01*
X10256291Y136330D01*
X10256287Y136329D01*
X10122377Y80863D01*
X10007379Y-7379D01*
X9919137Y-122377D01*
X9863671Y-256287D01*
X9863670Y-256291D01*
X9844750Y-399999D01*
X2409440Y-399999D01*
X2390520Y-256291D01*
X2335051Y-122375D01*
X2246811Y-7379D01*
X2131815Y80861D01*
X2131814Y80862D01*
X2131812Y80863D01*
X1997902Y136329D01*
X1997900Y136330D01*
X1997899Y136330D01*
X1926044Y145790D01*
X1854191Y155250D01*
X1854189Y155250D01*
X1710481Y136330D01*
X1710477Y136329D01*
X1576567Y80863D01*
X1461562Y-7384D01*
X1455818Y-13129D01*
X1453301Y-10612D01*
X1410007Y-42203D01*
X1368098Y-49500D01*
X886092Y-49500D01*
X819053Y-29815D01*
X799587Y-11913D01*
X798372Y-13129D01*
X792627Y-7384D01*
X792621Y-7379D01*
X677625Y80861D01*
X677624Y80862D01*
X677622Y80863D01*
X543712Y136329D01*
X543710Y136330D01*
X543709Y136330D01*
X471854Y145790D01*
X400001Y155250D01*
X399999Y155250D01*
X256291Y136330D01*
X256287Y136329D01*
X122377Y80863D01*
X7379Y-7379D01*
X-80863Y-122377D01*
X-136329Y-256287D01*
X-136330Y-256291D01*
X-155250Y-399999D01*
X-7590560Y-399999D01*
X-7609480Y-256291D01*
X-7664949Y-122375D01*
X-7753189Y-7379D01*
X-7868185Y80861D01*
X-7868186Y80862D01*
X-7868188Y80863D01*
X-8002098Y136329D01*
X-8002100Y136330D01*
X-8002101Y136330D01*
X-8073956Y145790D01*
X-8145809Y155250D01*
X-8145811Y155250D01*
X-8289519Y136330D01*
X-8289523Y136329D01*
X-8423433Y80863D01*
X-8538438Y-7384D01*
X-8544182Y-13129D01*
X-8546699Y-10612D01*
X-8589993Y-42203D01*
X-8631902Y-49500D01*
X-9113908Y-49500D01*
X-9180947Y-29815D01*
X-9200413Y-11913D01*
X-9201628Y-13129D01*
X-9207373Y-7384D01*
X-9207379Y-7379D01*
X-9322375Y80861D01*
X-9322376Y80862D01*
X-9322378Y80863D01*
X-9456288Y136329D01*
X-9456290Y136330D01*
X-9456291Y136330D01*
X-9528146Y145790D01*
X-9599999Y155250D01*
X-9600001Y155250D01*
X-9743709Y136330D01*
X-9743713Y136329D01*
X-9877623Y80863D01*
X-9992621Y-7379D01*
X-10080863Y-122377D01*
X-10136329Y-256287D01*
X-10136330Y-256291D01*
X-10155250Y-399999D01*
X-17421110Y-399999D01*
X-17440030Y-256291D01*
X-17495499Y-122375D01*
X-17583739Y-7379D01*
X-17698735Y80861D01*
X-17698736Y80862D01*
X-17698738Y80863D01*
X-17832648Y136329D01*
X-17832650Y136330D01*
X-17832651Y136330D01*
X-17904506Y145790D01*
X-17976359Y155250D01*
X-17976361Y155250D01*
X-18120069Y136330D01*
X-18120073Y136329D01*
X-18253983Y80863D01*
X-18368981Y-7379D01*
X-18457223Y-122377D01*
X-18512689Y-256287D01*
X-18512690Y-256291D01*
X-18531610Y-399999D01*
X-18531610Y-400002D01*
X-18524179Y-456447D01*
X-18534945Y-525482D01*
X-18581325Y-577738D01*
X-18617718Y-590830D01*
X-18617218Y-592696D01*
X-18625069Y-594799D01*
X-18758983Y-650267D01*
X-18873981Y-738509D01*
X-18962223Y-853507D01*
X-19017689Y-987417D01*
X-19017690Y-987421D01*
X-19036610Y-1131129D01*
X-20000000Y-1131129D01*
X-20000000Y8868870D01*
X-19036610Y8868870D01*
X-19021789Y8756292D01*
X-19017690Y8725162D01*
X-19017689Y8725158D01*
X-18962222Y8591247D01*
X-18962221Y8591245D01*
X-18873985Y8476253D01*
X-18873983Y8476252D01*
X-18873981Y8476249D01*
X-18860314Y8465762D01*
X-18819112Y8409338D01*
X-18811800Y8367387D01*
X-18811800Y7729247D01*
X-18794570Y7664940D01*
X-18787916Y7640107D01*
X-18787913Y7640100D01*
X-18741773Y7560182D01*
X-18741771Y7560179D01*
X-18741770Y7560178D01*
X-18492522Y7310930D01*
X-18415361Y7266381D01*
X-18412598Y7264786D01*
X-18323454Y7240900D01*
X-18242805Y7240900D01*
X-18175766Y7221215D01*
X-18155513Y7204969D01*
X-18073120Y7123303D01*
X-18039364Y7062129D01*
X-18044039Y6992416D01*
X-18056416Y6967699D01*
X-18152334Y6819998D01*
X-18325304Y6480525D01*
X-18461845Y6124827D01*
X-18560457Y5756801D01*
X-18560458Y5756794D01*
X-18620060Y5380486D01*
X-18640000Y5000001D01*
X-18640000Y5000000D01*
X-18620060Y4619515D01*
X-18560458Y4243207D01*
X-18560457Y4243200D01*
X-18461845Y3875174D01*
X-18325304Y3519476D01*
X-18152330Y3179996D01*
X-17944824Y2860464D01*
X-17944822Y2860462D01*
X-17705047Y2564365D01*
X-17435635Y2294953D01*
X-17435631Y2294950D01*
X-17139537Y2055177D01*
X-16820005Y1847671D01*
X-16820000Y1847668D01*
X-16480521Y1674695D01*
X-16124822Y1538154D01*
X-15756799Y1439543D01*
X-15380484Y1379940D01*
X-15021044Y1361103D01*
X-15000001Y1360000D01*
X-15000000Y1360000D01*
X-14999999Y1360000D01*
X-14980059Y1361046D01*
X-14619516Y1379940D01*
X-14243201Y1439543D01*
X-13875178Y1538154D01*
X-13519479Y1674695D01*
X-13180000Y1847668D01*
X-12860462Y2055178D01*
X-12564365Y2294953D01*
X-12294953Y2564365D01*
X-12055178Y2860462D01*
X-11847668Y3180000D01*
X-11674695Y3519479D01*
X-11538154Y3875178D01*
X-11439543Y4243201D01*
X-11379940Y4619516D01*
X-11360000Y5000000D01*
X-11379940Y5380484D01*
X-11439543Y5756799D01*
X-11538154Y6124822D01*
X-11674695Y6480521D01*
X-11847668Y6820000D01*
X-11847671Y6820005D01*
X-12055177Y7139537D01*
X-12294950Y7435631D01*
X-12294953Y7435635D01*
X-12564365Y7705047D01*
X-12765811Y7868175D01*
X-12860464Y7944824D01*
X-13179996Y8152330D01*
X-13519476Y8325304D01*
X-13875174Y8461845D01*
X-14243200Y8560457D01*
X-14243207Y8560458D01*
X-14619515Y8620060D01*
X-14999999Y8640000D01*
X-15000001Y8640000D01*
X-15380486Y8620060D01*
X-15756794Y8560458D01*
X-15756801Y8560457D01*
X-16124827Y8461845D01*
X-16480525Y8325304D01*
X-16820005Y8152330D01*
X-16967869Y8056306D01*
X-17034814Y8036302D01*
X-17101946Y8055668D01*
X-17122689Y8072226D01*
X-17188186Y8137146D01*
X-17188987Y8137950D01*
X-17206567Y8155802D01*
X-17239576Y8217381D01*
X-17242210Y8242803D01*
X-17242210Y8289663D01*
X-17222525Y8356702D01*
X-17193700Y8388037D01*
X-17078739Y8476249D01*
X-16990499Y8591245D01*
X-16935030Y8725161D01*
X-16916110Y8868870D01*
X-16935030Y9012579D01*
X-16977001Y9113908D01*
X-16990498Y9146493D01*
X-16990499Y9146494D01*
X-16990499Y9146495D01*
X-17078739Y9261491D01*
X-17193735Y9349731D01*
X-17193736Y9349732D01*
X-17193738Y9349733D01*
X-17327652Y9405201D01*
X-17335502Y9407304D01*
X-17334740Y9410149D01*
X-17385723Y9432727D01*
X-17424170Y9491067D01*
X-17428542Y9543553D01*
X-17421110Y9600000D01*
X-17440030Y9743709D01*
X-17495499Y9877625D01*
X-17583739Y9992621D01*
X-17698735Y10080861D01*
X-17698736Y10080862D01*
X-17698738Y10080863D01*
X-17832648Y10136329D01*
X-17832650Y10136330D01*
X-17832651Y10136330D01*
X-17946395Y10151305D01*
X-17976359Y10155250D01*
X-17976361Y10155250D01*
X-18120069Y10136330D01*
X-18120073Y10136329D01*
X-18253983Y10080863D01*
X-18368981Y9992621D01*
X-18457223Y9877623D01*
X-18512689Y9743713D01*
X-18512690Y9743709D01*
X-18531610Y9600001D01*
X-18531610Y9599998D01*
X-18524179Y9543553D01*
X-18534945Y9474518D01*
X-18581325Y9422262D01*
X-18617718Y9409170D01*
X-18617218Y9407304D01*
X-18625069Y9405201D01*
X-18758983Y9349733D01*
X-18873981Y9261491D01*
X-18962223Y9146493D01*
X-19017689Y9012583D01*
X-19017690Y9012579D01*
X-19032511Y8900001D01*
X-19036610Y8868870D01*
X-20000000Y8868870D01*
X-20000000Y14997294D01*
X-19999941Y15000001D01*
X-18640000Y15000001D01*
X-18640000Y15000000D01*
X-18620060Y14619515D01*
X-18560458Y14243207D01*
X-18560457Y14243200D01*
X-18461845Y13875174D01*
X-18325304Y13519476D01*
X-18152330Y13179996D01*
X-17944824Y12860464D01*
X-17944822Y12860462D01*
X-17705047Y12564365D01*
X-17435635Y12294953D01*
X-17435631Y12294950D01*
X-17139537Y12055177D01*
X-16943342Y11927767D01*
X-16820000Y11847668D01*
X-16480521Y11674695D01*
X-16124822Y11538154D01*
X-15756799Y11439543D01*
X-15380484Y11379940D01*
X-15021044Y11361103D01*
X-15000001Y11360000D01*
X-15000000Y11360000D01*
X-14999999Y11360000D01*
X-14980059Y11361046D01*
X-14619516Y11379940D01*
X-14243201Y11439543D01*
X-13875178Y11538154D01*
X-13519479Y11674695D01*
X-13180000Y11847668D01*
X-13032136Y11943693D01*
X-12965193Y11963696D01*
X-12898060Y11944331D01*
X-12877312Y11927767D01*
X-12812278Y11863309D01*
X-12811328Y11862358D01*
X-12705094Y11754480D01*
X-12701095Y11749763D01*
X-12658984Y11707652D01*
X-12658313Y11706976D01*
X-12624176Y11672311D01*
X-12619588Y11668256D01*
X-10686819Y9735487D01*
X-10653334Y9674164D01*
X-10650500Y9647806D01*
X-10650500Y9386092D01*
X-10670185Y9319053D01*
X-10688087Y9299588D01*
X-10686871Y9298372D01*
X-10692616Y9292628D01*
X-10780863Y9177623D01*
X-10836329Y9043713D01*
X-10836330Y9043709D01*
X-10855250Y8900001D01*
X-10855250Y8900000D01*
X-10836330Y8756292D01*
X-10836329Y8756288D01*
X-10780863Y8622378D01*
X-10780862Y8622376D01*
X-10780861Y8622375D01*
X-10692621Y8507379D01*
X-10577625Y8419139D01*
X-10577624Y8419139D01*
X-10577623Y8419138D01*
X-10532987Y8400650D01*
X-10443709Y8363670D01*
X-10300000Y8344750D01*
X-10286261Y8346559D01*
X-10217227Y8335794D01*
X-10164970Y8289415D01*
X-10146084Y8222147D01*
X-10147136Y8207435D01*
X-10155250Y8145803D01*
X-10155250Y8145800D01*
X-10136330Y8002092D01*
X-10136329Y8002088D01*
X-10080863Y7868178D01*
X-10080862Y7868176D01*
X-10080861Y7868175D01*
X-9992621Y7753179D01*
X-9877625Y7664939D01*
X-9743709Y7609470D01*
X-9600000Y7590550D01*
X-9548849Y7597285D01*
X-9479817Y7586521D01*
X-9427561Y7540142D01*
X-9409726Y7490534D01*
X-9405220Y7456312D01*
X-9405219Y7456308D01*
X-9349753Y7322398D01*
X-9349752Y7322396D01*
X-9349751Y7322395D01*
X-9261511Y7207399D01*
X-9146515Y7119159D01*
X-9012599Y7063690D01*
X-8885610Y7046972D01*
X-8868891Y7044770D01*
X-8868890Y7044770D01*
X-8868889Y7044770D01*
X-8853913Y7046742D01*
X-8725181Y7063690D01*
X-8591265Y7119159D01*
X-8476269Y7207399D01*
X-8476265Y7207404D01*
X-8471147Y7212521D01*
X-8409824Y7246006D01*
X-8383466Y7248840D01*
X-8250816Y7248840D01*
X-8183777Y7229155D01*
X-8163524Y7212909D01*
X-8073120Y7123303D01*
X-8039364Y7062129D01*
X-8044039Y6992416D01*
X-8056416Y6967699D01*
X-8152334Y6819998D01*
X-8325304Y6480525D01*
X-8461845Y6124827D01*
X-8560457Y5756801D01*
X-8560458Y5756794D01*
X-8620060Y5380486D01*
X-8640000Y5000001D01*
X-8640000Y5000000D01*
X-8620060Y4619515D01*
X-8560458Y4243207D01*
X-8560457Y4243200D01*
X-8461845Y3875174D01*
X-8325304Y3519476D01*
X-8152330Y3179996D01*
X-7944824Y2860464D01*
X-7944822Y2860462D01*
X-7705047Y2564365D01*
X-7435635Y2294953D01*
X-7435631Y2294950D01*
X-7139537Y2055177D01*
X-6820005Y1847671D01*
X-6820000Y1847668D01*
X-6480521Y1674695D01*
X-6124822Y1538154D01*
X-5756799Y1439543D01*
X-5380484Y1379940D01*
X-5021044Y1361103D01*
X-5000001Y1360000D01*
X-5000000Y1360000D01*
X-4999999Y1360000D01*
X-4980059Y1361046D01*
X-4619516Y1379940D01*
X-4243201Y1439543D01*
X-3875178Y1538154D01*
X-3519479Y1674695D01*
X-3180000Y1847668D01*
X-2860462Y2055178D01*
X-2564365Y2294953D01*
X-2294953Y2564365D01*
X-2055178Y2860462D01*
X-1847668Y3180000D01*
X-1674695Y3519479D01*
X-1538154Y3875178D01*
X-1439543Y4243201D01*
X-1379940Y4619516D01*
X-1360000Y5000000D01*
X-1379940Y5380484D01*
X-1439543Y5756799D01*
X-1538154Y6124822D01*
X-1674695Y6480521D01*
X-1847668Y6820000D01*
X-1847671Y6820005D01*
X-2055177Y7139537D01*
X-2294950Y7435631D01*
X-2294953Y7435635D01*
X-2564365Y7705047D01*
X-2765811Y7868175D01*
X-2860464Y7944824D01*
X-3179996Y8152330D01*
X-3519476Y8325304D01*
X-3875174Y8461845D01*
X-4243200Y8560457D01*
X-4243207Y8560458D01*
X-4619515Y8620060D01*
X-4999999Y8640000D01*
X-5000001Y8640000D01*
X-5380486Y8620060D01*
X-5756794Y8560458D01*
X-5756801Y8560457D01*
X-6124827Y8461845D01*
X-6480525Y8325304D01*
X-6820005Y8152330D01*
X-6967869Y8056306D01*
X-7034814Y8036302D01*
X-7101946Y8055668D01*
X-7122689Y8072226D01*
X-7188071Y8137033D01*
X-7188908Y8137873D01*
X-7214533Y8163894D01*
X-7247545Y8225472D01*
X-7250180Y8250898D01*
X-7250180Y8382257D01*
X-7230495Y8449296D01*
X-7212004Y8469379D01*
X-7213126Y8470501D01*
X-7207381Y8476247D01*
X-7207379Y8476249D01*
X-7119139Y8591245D01*
X-7063670Y8725161D01*
X-7044750Y8868870D01*
X-7063670Y9012579D01*
X-7105641Y9113908D01*
X-7119138Y9146493D01*
X-7119139Y9146494D01*
X-7119139Y9146495D01*
X-7207379Y9261491D01*
X-7322375Y9349731D01*
X-7322376Y9349732D01*
X-7322378Y9349733D01*
X-7456288Y9405199D01*
X-7456290Y9405200D01*
X-7456291Y9405200D01*
X-7472272Y9407304D01*
X-7490545Y9409710D01*
X-7554442Y9437978D01*
X-7592912Y9496303D01*
X-7597297Y9548832D01*
X-7590560Y9600000D01*
X-7590560Y9600001D01*
X-155250Y9600001D01*
X-155250Y9600000D01*
X-136330Y9456292D01*
X-136329Y9456288D01*
X-80862Y9322377D01*
X-80861Y9322375D01*
X7380Y9207377D01*
X13126Y9201631D01*
X10574Y9199080D01*
X42091Y9156127D01*
X49500Y9113908D01*
X49500Y8631892D01*
X29815Y8564853D01*
X11913Y8545388D01*
X13129Y8544172D01*
X7384Y8538428D01*
X-80863Y8423423D01*
X-136329Y8289513D01*
X-136330Y8289509D01*
X-155250Y8145801D01*
X-155250Y8145800D01*
X-136330Y8002092D01*
X-136329Y8002088D01*
X-80863Y7868178D01*
X-80862Y7868176D01*
X-80861Y7868175D01*
X7379Y7753179D01*
X122375Y7664939D01*
X256291Y7609470D01*
X400000Y7590550D01*
X451160Y7597286D01*
X520193Y7586521D01*
X572450Y7540142D01*
X590284Y7490535D01*
X594790Y7456311D01*
X594791Y7456308D01*
X650257Y7322398D01*
X650258Y7322396D01*
X650259Y7322395D01*
X738499Y7207399D01*
X853495Y7119159D01*
X987411Y7063690D01*
X1114400Y7046972D01*
X1131119Y7044770D01*
X1131120Y7044770D01*
X1131121Y7044770D01*
X1146097Y7046742D01*
X1274829Y7063690D01*
X1408745Y7119159D01*
X1523741Y7207399D01*
X1523745Y7207404D01*
X1528863Y7212521D01*
X1590186Y7246006D01*
X1616544Y7248840D01*
X1749184Y7248840D01*
X1816223Y7229155D01*
X1836476Y7212909D01*
X1926880Y7123303D01*
X1960636Y7062129D01*
X1955961Y6992416D01*
X1943584Y6967699D01*
X1847666Y6819998D01*
X1674696Y6480525D01*
X1538155Y6124827D01*
X1439543Y5756801D01*
X1439542Y5756794D01*
X1379940Y5380486D01*
X1360000Y5000001D01*
X1360000Y5000000D01*
X1379940Y4619515D01*
X1439542Y4243207D01*
X1439543Y4243200D01*
X1538155Y3875174D01*
X1674696Y3519476D01*
X1847670Y3179996D01*
X2055176Y2860464D01*
X2055178Y2860462D01*
X2294953Y2564365D01*
X2564365Y2294953D01*
X2564369Y2294950D01*
X2860463Y2055177D01*
X3179995Y1847671D01*
X3180000Y1847668D01*
X3519479Y1674695D01*
X3875178Y1538154D01*
X4243201Y1439543D01*
X4619516Y1379940D01*
X4978956Y1361103D01*
X4999999Y1360000D01*
X5000000Y1360000D01*
X5000001Y1360000D01*
X5019941Y1361046D01*
X5380484Y1379940D01*
X5756799Y1439543D01*
X6124822Y1538154D01*
X6480521Y1674695D01*
X6820000Y1847668D01*
X7139538Y2055178D01*
X7435635Y2294953D01*
X7705047Y2564365D01*
X7944822Y2860462D01*
X8152332Y3180000D01*
X8325305Y3519479D01*
X8461846Y3875178D01*
X8560457Y4243201D01*
X8620060Y4619516D01*
X8640000Y5000000D01*
X8620060Y5380484D01*
X8560457Y5756799D01*
X8461846Y6124822D01*
X8325305Y6480521D01*
X8152332Y6820000D01*
X8152329Y6820005D01*
X7944823Y7139537D01*
X7705050Y7435631D01*
X7705047Y7435635D01*
X7435635Y7705047D01*
X7234189Y7868175D01*
X7139536Y7944824D01*
X6820004Y8152330D01*
X6480524Y8325304D01*
X6124826Y8461845D01*
X5756800Y8560457D01*
X5756793Y8560458D01*
X5380485Y8620060D01*
X5000001Y8640000D01*
X4999999Y8640000D01*
X4619514Y8620060D01*
X4243206Y8560458D01*
X4243199Y8560457D01*
X3875173Y8461845D01*
X3519475Y8325304D01*
X3179995Y8152330D01*
X3032132Y8056307D01*
X2965187Y8036303D01*
X2898054Y8055669D01*
X2877304Y8072234D01*
X2812351Y8136615D01*
X2811292Y8137678D01*
X2785468Y8163902D01*
X2752455Y8225481D01*
X2749820Y8250907D01*
X2749820Y8382257D01*
X2769505Y8449296D01*
X2787996Y8469379D01*
X2786874Y8470501D01*
X2792619Y8476247D01*
X2792621Y8476249D01*
X2880861Y8591245D01*
X2936330Y8725161D01*
X2955250Y8868870D01*
X2936330Y9012579D01*
X2894359Y9113908D01*
X2880862Y9146493D01*
X2880861Y9146494D01*
X2880861Y9146495D01*
X2792621Y9261491D01*
X2677625Y9349731D01*
X2677624Y9349732D01*
X2677622Y9349733D01*
X2543712Y9405199D01*
X2543710Y9405200D01*
X2543709Y9405200D01*
X2527728Y9407304D01*
X2509455Y9409710D01*
X2445558Y9437978D01*
X2407088Y9496303D01*
X2402703Y9548832D01*
X2409440Y9600000D01*
X2409440Y9600001D01*
X9844750Y9600001D01*
X9844750Y9600000D01*
X9863670Y9456292D01*
X9863671Y9456288D01*
X9919138Y9322377D01*
X9919139Y9322375D01*
X10007380Y9207377D01*
X10013126Y9201631D01*
X10010574Y9199080D01*
X10042091Y9156127D01*
X10049500Y9113908D01*
X10049500Y8631892D01*
X10029815Y8564853D01*
X10011913Y8545388D01*
X10013129Y8544172D01*
X10007384Y8538428D01*
X9919137Y8423423D01*
X9863671Y8289513D01*
X9863670Y8289509D01*
X9844750Y8145801D01*
X9844750Y8145800D01*
X9863670Y8002092D01*
X9863671Y8002088D01*
X9919137Y7868178D01*
X9919138Y7868176D01*
X9919139Y7868175D01*
X10007379Y7753179D01*
X10122375Y7664939D01*
X10256291Y7609470D01*
X10400000Y7590550D01*
X10451160Y7597286D01*
X10520193Y7586521D01*
X10572450Y7540142D01*
X10590284Y7490535D01*
X10594790Y7456311D01*
X10594791Y7456308D01*
X10650257Y7322398D01*
X10650258Y7322396D01*
X10650259Y7322395D01*
X10738499Y7207399D01*
X10853495Y7119159D01*
X10987411Y7063690D01*
X11114400Y7046972D01*
X11131119Y7044770D01*
X11131120Y7044770D01*
X11131121Y7044770D01*
X11146097Y7046742D01*
X11274829Y7063690D01*
X11408745Y7119159D01*
X11523741Y7207399D01*
X11523745Y7207404D01*
X11528863Y7212521D01*
X11590186Y7246006D01*
X11616544Y7248840D01*
X11749184Y7248840D01*
X11816223Y7229155D01*
X11836476Y7212909D01*
X11926880Y7123303D01*
X11960636Y7062129D01*
X11955961Y6992416D01*
X11943584Y6967699D01*
X11847666Y6819998D01*
X11674696Y6480525D01*
X11538155Y6124827D01*
X11439543Y5756801D01*
X11439542Y5756794D01*
X11379940Y5380486D01*
X11360000Y5000001D01*
X11360000Y5000000D01*
X11379940Y4619515D01*
X11439542Y4243207D01*
X11439543Y4243200D01*
X11538155Y3875174D01*
X11674696Y3519476D01*
X11847670Y3179996D01*
X12055176Y2860464D01*
X12055178Y2860462D01*
X12294953Y2564365D01*
X12564365Y2294953D01*
X12564369Y2294950D01*
X12860463Y2055177D01*
X13179995Y1847671D01*
X13180000Y1847668D01*
X13519479Y1674695D01*
X13875178Y1538154D01*
X14243201Y1439543D01*
X14619516Y1379940D01*
X14978956Y1361103D01*
X14999999Y1360000D01*
X15000000Y1360000D01*
X15000001Y1360000D01*
X15019941Y1361046D01*
X15380484Y1379940D01*
X15756799Y1439543D01*
X16124822Y1538154D01*
X16480521Y1674695D01*
X16820000Y1847668D01*
X17139538Y2055178D01*
X17435635Y2294953D01*
X17705047Y2564365D01*
X17944822Y2860462D01*
X18152332Y3180000D01*
X18325305Y3519479D01*
X18461846Y3875178D01*
X18560457Y4243201D01*
X18620060Y4619516D01*
X18640000Y5000000D01*
X18620060Y5380484D01*
X18560457Y5756799D01*
X18461846Y6124822D01*
X18325305Y6480521D01*
X18152332Y6820000D01*
X18152329Y6820005D01*
X17944823Y7139537D01*
X17705050Y7435631D01*
X17705047Y7435635D01*
X17435635Y7705047D01*
X17234189Y7868175D01*
X17139536Y7944824D01*
X16820004Y8152330D01*
X16480524Y8325304D01*
X16124826Y8461845D01*
X15756800Y8560457D01*
X15756793Y8560458D01*
X15380485Y8620060D01*
X15000001Y8640000D01*
X14999999Y8640000D01*
X14619514Y8620060D01*
X14243206Y8560458D01*
X14243199Y8560457D01*
X13875173Y8461845D01*
X13519475Y8325304D01*
X13179995Y8152330D01*
X13032132Y8056307D01*
X12965187Y8036303D01*
X12898054Y8055669D01*
X12877304Y8072234D01*
X12812351Y8136615D01*
X12811292Y8137678D01*
X12785468Y8163902D01*
X12752455Y8225481D01*
X12749820Y8250907D01*
X12749820Y8382257D01*
X12769505Y8449296D01*
X12787996Y8469379D01*
X12786874Y8470501D01*
X12792619Y8476247D01*
X12792621Y8476249D01*
X12880861Y8591245D01*
X12936330Y8725161D01*
X12955250Y8868870D01*
X12936330Y9012579D01*
X12894359Y9113908D01*
X12880862Y9146493D01*
X12880861Y9146494D01*
X12880861Y9146495D01*
X12792621Y9261491D01*
X12677625Y9349731D01*
X12677624Y9349732D01*
X12677622Y9349733D01*
X12543712Y9405199D01*
X12543710Y9405200D01*
X12543709Y9405200D01*
X12471854Y9414660D01*
X12400001Y9424120D01*
X12399999Y9424120D01*
X12256291Y9405200D01*
X12256287Y9405199D01*
X12122377Y9349733D01*
X12007379Y9261491D01*
X11919137Y9146493D01*
X11863671Y9012583D01*
X11863670Y9012579D01*
X11848849Y8900001D01*
X11844750Y8868870D01*
X11859571Y8756292D01*
X11863670Y8725162D01*
X11863671Y8725158D01*
X11897804Y8642752D01*
X11905273Y8573282D01*
X11873997Y8510803D01*
X11813908Y8475152D01*
X11783243Y8471300D01*
X10905275Y8471300D01*
X10838236Y8490985D01*
X10806900Y8519812D01*
X10792621Y8538421D01*
X10792618Y8538424D01*
X10792616Y8538426D01*
X10786871Y8544172D01*
X10789387Y8546689D01*
X10757797Y8589983D01*
X10750500Y8631892D01*
X10750500Y9113908D01*
X10770185Y9180947D01*
X10788114Y9200391D01*
X10786874Y9201631D01*
X10792619Y9207377D01*
X10792621Y9207379D01*
X10880861Y9322375D01*
X10936330Y9456291D01*
X10955250Y9600000D01*
X10936330Y9743709D01*
X10880861Y9877625D01*
X10792621Y9992621D01*
X10677625Y10080861D01*
X10677624Y10080862D01*
X10677622Y10080863D01*
X10543712Y10136329D01*
X10543710Y10136330D01*
X10543709Y10136330D01*
X10429965Y10151305D01*
X10400001Y10155250D01*
X10399999Y10155250D01*
X10256291Y10136330D01*
X10256287Y10136329D01*
X10122377Y10080863D01*
X10007379Y9992621D01*
X9919137Y9877623D01*
X9863671Y9743713D01*
X9863670Y9743709D01*
X9844750Y9600001D01*
X2409440Y9600001D01*
X2390520Y9743709D01*
X2335051Y9877625D01*
X2246811Y9992621D01*
X2131815Y10080861D01*
X2131814Y10080862D01*
X2131812Y10080863D01*
X1997902Y10136329D01*
X1997900Y10136330D01*
X1997899Y10136330D01*
X1884155Y10151305D01*
X1854191Y10155250D01*
X1854189Y10155250D01*
X1710481Y10136330D01*
X1710477Y10136329D01*
X1576567Y10080863D01*
X1461562Y9992616D01*
X1455818Y9986871D01*
X1453301Y9989388D01*
X1410007Y9957797D01*
X1368098Y9950500D01*
X886092Y9950500D01*
X819053Y9970185D01*
X799587Y9988087D01*
X798372Y9986871D01*
X792627Y9992616D01*
X792621Y9992621D01*
X677625Y10080861D01*
X677624Y10080862D01*
X677622Y10080863D01*
X543712Y10136329D01*
X543710Y10136330D01*
X543709Y10136330D01*
X429965Y10151305D01*
X400001Y10155250D01*
X399999Y10155250D01*
X256291Y10136330D01*
X256287Y10136329D01*
X122377Y10080863D01*
X7379Y9992621D01*
X-80863Y9877623D01*
X-136329Y9743713D01*
X-136330Y9743709D01*
X-155250Y9600001D01*
X-7590560Y9600001D01*
X-7609480Y9743709D01*
X-7664949Y9877625D01*
X-7753189Y9992621D01*
X-7868185Y10080861D01*
X-7868186Y10080862D01*
X-7868188Y10080863D01*
X-8002098Y10136329D01*
X-8002100Y10136330D01*
X-8002101Y10136330D01*
X-8115845Y10151305D01*
X-8145809Y10155250D01*
X-8145810Y10155250D01*
X-8152769Y10154334D01*
X-8175778Y10151305D01*
X-8244813Y10162073D01*
X-8297068Y10208454D01*
X-8315952Y10275723D01*
X-8314900Y10290433D01*
X-8313640Y10300000D01*
X-8332560Y10443709D01*
X-8388029Y10577625D01*
X-8476269Y10692621D01*
X-8591265Y10780861D01*
X-8591266Y10780862D01*
X-8591268Y10780863D01*
X-8725178Y10836329D01*
X-8725180Y10836330D01*
X-8725181Y10836330D01*
X-8797036Y10845790D01*
X-8868889Y10855250D01*
X-8868891Y10855250D01*
X-9012599Y10836330D01*
X-9012603Y10836329D01*
X-9146513Y10780863D01*
X-9261518Y10692616D01*
X-9267262Y10686871D01*
X-9269779Y10689388D01*
X-9313073Y10657797D01*
X-9354982Y10650500D01*
X-9647787Y10650500D01*
X-9714826Y10670185D01*
X-9735468Y10686819D01*
X-11666227Y12617569D01*
X-11670418Y12622312D01*
X-11674938Y12626763D01*
X-11706334Y12657681D01*
X-11706901Y12658245D01*
X-11721780Y12673123D01*
X-11725620Y12677138D01*
X-11726268Y12677847D01*
X-11926885Y12876692D01*
X-11960642Y12937866D01*
X-11955967Y13007579D01*
X-11943593Y13032290D01*
X-11847668Y13180000D01*
X-11674695Y13519479D01*
X-11538154Y13875178D01*
X-11439543Y14243201D01*
X-11379940Y14619516D01*
X-11360000Y15000000D01*
X-11379940Y15380484D01*
X-11439543Y15756799D01*
X-11538154Y16124822D01*
X-11674695Y16480521D01*
X-11847668Y16820000D01*
X-11847671Y16820005D01*
X-12055177Y17139537D01*
X-12294950Y17435631D01*
X-12294953Y17435635D01*
X-12564365Y17705047D01*
X-12704677Y17818670D01*
X-12860464Y17944824D01*
X-13179996Y18152330D01*
X-13295711Y18211290D01*
X-10155250Y18211290D01*
X-10136943Y18072234D01*
X-10136330Y18067582D01*
X-10136329Y18067578D01*
X-10080863Y17933668D01*
X-10080862Y17933666D01*
X-10080861Y17933665D01*
X-9992621Y17818669D01*
X-9877625Y17730429D01*
X-9743709Y17674960D01*
X-9616720Y17658242D01*
X-9600001Y17656040D01*
X-9600000Y17656040D01*
X-9539784Y17663968D01*
X-9470750Y17653203D01*
X-9418494Y17606823D01*
X-9400660Y17557215D01*
X-9386330Y17448373D01*
X-9386329Y17448368D01*
X-9330863Y17314458D01*
X-9330862Y17314456D01*
X-9330861Y17314455D01*
X-9242621Y17199459D01*
X-9127625Y17111219D01*
X-9127624Y17111219D01*
X-9127623Y17111218D01*
X-9120078Y17108093D01*
X-8993709Y17055750D01*
X-8866720Y17039032D01*
X-8850001Y17036830D01*
X-8850000Y17036830D01*
X-8849999Y17036830D01*
X-8835023Y17038802D01*
X-8706291Y17055750D01*
X-8572375Y17111219D01*
X-8457379Y17199459D01*
X-8457375Y17199464D01*
X-8452257Y17204581D01*
X-8390934Y17238066D01*
X-8364576Y17240900D01*
X-8242805Y17240900D01*
X-8175766Y17221215D01*
X-8155513Y17204969D01*
X-8073120Y17123303D01*
X-8039364Y17062129D01*
X-8044039Y16992416D01*
X-8056416Y16967699D01*
X-8152334Y16819998D01*
X-8325304Y16480525D01*
X-8461845Y16124827D01*
X-8560457Y15756801D01*
X-8560458Y15756794D01*
X-8620060Y15380486D01*
X-8640000Y15000001D01*
X-8640000Y15000000D01*
X-8620060Y14619515D01*
X-8560458Y14243207D01*
X-8560457Y14243200D01*
X-8461845Y13875174D01*
X-8325304Y13519476D01*
X-8152330Y13179996D01*
X-7944824Y12860464D01*
X-7944822Y12860462D01*
X-7705047Y12564365D01*
X-7435635Y12294953D01*
X-7435631Y12294950D01*
X-7139537Y12055177D01*
X-6943342Y11927767D01*
X-6820000Y11847668D01*
X-6480521Y11674695D01*
X-6124822Y11538154D01*
X-5756799Y11439543D01*
X-5380484Y11379940D01*
X-5021044Y11361103D01*
X-5000001Y11360000D01*
X-5000000Y11360000D01*
X-4999999Y11360000D01*
X-4980059Y11361046D01*
X-4619516Y11379940D01*
X-4243201Y11439543D01*
X-3875178Y11538154D01*
X-3519479Y11674695D01*
X-3180000Y11847668D01*
X-2860462Y12055178D01*
X-2564365Y12294953D01*
X-2294953Y12564365D01*
X-2055178Y12860462D01*
X-1847668Y13180000D01*
X-1674695Y13519479D01*
X-1538154Y13875178D01*
X-1439543Y14243201D01*
X-1379940Y14619516D01*
X-1360000Y15000000D01*
X-1379940Y15380484D01*
X-1439543Y15756799D01*
X-1538154Y16124822D01*
X-1674695Y16480521D01*
X-1847668Y16820000D01*
X-1847671Y16820005D01*
X-2055177Y17139537D01*
X-2294950Y17435631D01*
X-2294953Y17435635D01*
X-2564365Y17705047D01*
X-2704677Y17818670D01*
X-2860464Y17944824D01*
X-3179996Y18152330D01*
X-3519476Y18325304D01*
X-3875174Y18461845D01*
X-4243200Y18560457D01*
X-4243207Y18560458D01*
X-4619515Y18620060D01*
X-4999999Y18640000D01*
X-5000001Y18640000D01*
X-5380486Y18620060D01*
X-5756794Y18560458D01*
X-5756801Y18560457D01*
X-6124827Y18461845D01*
X-6480525Y18325304D01*
X-6819998Y18152334D01*
X-6967864Y18056309D01*
X-7034810Y18036306D01*
X-7101942Y18055672D01*
X-7122689Y18072234D01*
X-7187814Y18136782D01*
X-7188171Y18137136D01*
X-7189147Y18138116D01*
X-7294908Y18245512D01*
X-7298902Y18250225D01*
X-7341024Y18292346D01*
X-7341695Y18293022D01*
X-7375827Y18327682D01*
X-7380413Y18331736D01*
X-7381572Y18332895D01*
X-7413642Y18349236D01*
X-7445027Y18372039D01*
X-7666675Y18593687D01*
X-7691788Y18637197D01*
X-7694169Y18636210D01*
X-7746337Y18762155D01*
X-7752749Y18777635D01*
X-7840989Y18892631D01*
X-7955985Y18980871D01*
X-7955986Y18980872D01*
X-7955988Y18980873D01*
X-8089898Y19036339D01*
X-8089900Y19036340D01*
X-8089901Y19036340D01*
X-8161756Y19045800D01*
X-8233609Y19055260D01*
X-8233611Y19055260D01*
X-8377319Y19036340D01*
X-8377323Y19036339D01*
X-8511233Y18980873D01*
X-8626231Y18892631D01*
X-8714472Y18777634D01*
X-8719067Y18766540D01*
X-8730749Y18738338D01*
X-8774588Y18683935D01*
X-8840882Y18661869D01*
X-8845309Y18661790D01*
X-9240715Y18661790D01*
X-9307754Y18681475D01*
X-9316199Y18687413D01*
X-9322371Y18692149D01*
X-9322377Y18692152D01*
X-9456288Y18747619D01*
X-9456290Y18747620D01*
X-9456291Y18747620D01*
X-9566693Y18762155D01*
X-9599999Y18766540D01*
X-9600001Y18766540D01*
X-9743709Y18747620D01*
X-9743713Y18747619D01*
X-9877623Y18692153D01*
X-9992621Y18603911D01*
X-10080863Y18488913D01*
X-10136329Y18355003D01*
X-10136330Y18354999D01*
X-10154375Y18217933D01*
X-10155250Y18211290D01*
X-13295711Y18211290D01*
X-13519476Y18325304D01*
X-13875174Y18461845D01*
X-14243200Y18560457D01*
X-14243207Y18560458D01*
X-14619515Y18620060D01*
X-14999999Y18640000D01*
X-15000001Y18640000D01*
X-15380486Y18620060D01*
X-15756794Y18560458D01*
X-15756801Y18560457D01*
X-16124827Y18461845D01*
X-16480525Y18325304D01*
X-16820005Y18152330D01*
X-17139537Y17944824D01*
X-17435631Y17705051D01*
X-17435639Y17705044D01*
X-17705044Y17435639D01*
X-17705051Y17435631D01*
X-17944824Y17139537D01*
X-18152330Y16820005D01*
X-18325304Y16480525D01*
X-18461845Y16124827D01*
X-18560457Y15756801D01*
X-18560458Y15756794D01*
X-18620060Y15380486D01*
X-18640000Y15000001D01*
X-19999941Y15000001D01*
X-19999882Y15002703D01*
X-19981209Y15430395D01*
X-19980269Y15441128D01*
X-19924745Y15862879D01*
X-19922872Y15873509D01*
X-19830798Y16288825D01*
X-19828000Y16299263D01*
X-19700087Y16704954D01*
X-19696399Y16715086D01*
X-19533604Y17108108D01*
X-19529046Y17117882D01*
X-19332613Y17495226D01*
X-19327231Y17504547D01*
X-19098666Y17863322D01*
X-19092475Y17872165D01*
X-18833509Y18209655D01*
X-18826571Y18217924D01*
X-18539181Y18531555D01*
X-18531555Y18539181D01*
X-18217924Y18826571D01*
X-18209655Y18833509D01*
X-17872165Y19092475D01*
X-17863322Y19098666D01*
X-17504547Y19327231D01*
X-17495226Y19332613D01*
X-17117882Y19529046D01*
X-17108108Y19533604D01*
X-16715086Y19696399D01*
X-16704954Y19700087D01*
X-16299254Y19828003D01*
X-16288825Y19830798D01*
X-15873509Y19922872D01*
X-15862879Y19924745D01*
X-15441128Y19980269D01*
X-15430395Y19981209D01*
X-15002703Y19999883D01*
X-14997294Y20000000D01*
X-449500Y20000000D01*
X-382461Y19980315D01*
G37*
%TD.AperFunction*%
%TD*%
%TA.AperFunction,NonConductor*%
G36*
X1435137Y9229815D02*
G01*
X1454602Y9211914D01*
X1455818Y9213129D01*
X1461562Y9207385D01*
X1461567Y9207381D01*
X1461569Y9207379D01*
X1576565Y9119139D01*
X1710481Y9063670D01*
X1744733Y9059161D01*
X1808629Y9030895D01*
X1847100Y8972570D01*
X1851486Y8920037D01*
X1848849Y8900001D01*
X1844750Y8868870D01*
X1859571Y8756292D01*
X1863670Y8725162D01*
X1863671Y8725158D01*
X1897804Y8642752D01*
X1905273Y8573282D01*
X1873997Y8510803D01*
X1813908Y8475152D01*
X1783243Y8471300D01*
X905275Y8471300D01*
X838236Y8490985D01*
X806900Y8519812D01*
X792621Y8538421D01*
X792618Y8538424D01*
X792616Y8538426D01*
X786871Y8544172D01*
X789387Y8546689D01*
X757797Y8589983D01*
X750500Y8631892D01*
X750500Y9113908D01*
X770185Y9180947D01*
X788114Y9200391D01*
X786874Y9201631D01*
X798368Y9213125D01*
X799142Y9212351D01*
X799243Y9212459D01*
X799298Y9212501D01*
X800286Y9211207D01*
X800883Y9210610D01*
X844183Y9242203D01*
X886092Y9249500D01*
X1368098Y9249500D01*
X1435137Y9229815D01*
G37*
%TD.AperFunction*%
%TA.AperFunction,NonConductor*%
G36*
X-8564863Y9229815D02*
G01*
X-8545398Y9211914D01*
X-8544182Y9213129D01*
X-8538438Y9207385D01*
X-8538433Y9207381D01*
X-8538431Y9207379D01*
X-8423435Y9119139D01*
X-8289519Y9063670D01*
X-8255267Y9059161D01*
X-8191371Y9030895D01*
X-8152900Y8972570D01*
X-8148514Y8920037D01*
X-8151151Y8900001D01*
X-8155250Y8868870D01*
X-8140429Y8756292D01*
X-8136330Y8725162D01*
X-8136329Y8725158D01*
X-8102196Y8642752D01*
X-8094727Y8573282D01*
X-8126003Y8510803D01*
X-8186092Y8475152D01*
X-8216757Y8471300D01*
X-9094725Y8471300D01*
X-9161764Y8490985D01*
X-9193100Y8519812D01*
X-9207379Y8538421D01*
X-9207382Y8538424D01*
X-9207384Y8538426D01*
X-9213129Y8544172D01*
X-9210613Y8546689D01*
X-9242203Y8589983D01*
X-9249500Y8631892D01*
X-9249500Y9113908D01*
X-9229815Y9180947D01*
X-9211886Y9200391D01*
X-9213126Y9201631D01*
X-9201632Y9213125D01*
X-9200858Y9212351D01*
X-9200757Y9212459D01*
X-9200702Y9212501D01*
X-9199714Y9211207D01*
X-9199117Y9210610D01*
X-9155817Y9242203D01*
X-9113908Y9249500D01*
X-8631902Y9249500D01*
X-8564863Y9229815D01*
G37*
%TD.AperFunction*%
%TA.AperFunction,NonConductor*%
G36*
X1435137Y-770185D02*
G01*
X1454602Y-788086D01*
X1455818Y-786871D01*
X1461562Y-792615D01*
X1461567Y-792619D01*
X1461569Y-792621D01*
X1576565Y-880861D01*
X1710481Y-936330D01*
X1744733Y-940839D01*
X1808629Y-969105D01*
X1847100Y-1027430D01*
X1851486Y-1079963D01*
X1844750Y-1131127D01*
X1844750Y-1131130D01*
X1863670Y-1274838D01*
X1863671Y-1274842D01*
X1897804Y-1357248D01*
X1905273Y-1426718D01*
X1873997Y-1489197D01*
X1813908Y-1524848D01*
X1783243Y-1528700D01*
X905275Y-1528700D01*
X838236Y-1509015D01*
X806900Y-1480188D01*
X792621Y-1461579D01*
X792618Y-1461576D01*
X792616Y-1461574D01*
X786871Y-1455828D01*
X789387Y-1453311D01*
X757797Y-1410017D01*
X750500Y-1368108D01*
X750500Y-886092D01*
X770185Y-819053D01*
X788114Y-799609D01*
X786874Y-798369D01*
X798368Y-786875D01*
X799142Y-787649D01*
X799243Y-787541D01*
X799298Y-787499D01*
X800286Y-788793D01*
X800883Y-789390D01*
X844183Y-757797D01*
X886092Y-750500D01*
X1368098Y-750500D01*
X1435137Y-770185D01*
G37*
%TD.AperFunction*%
%TA.AperFunction,NonConductor*%
G36*
X-8564863Y-770185D02*
G01*
X-8545398Y-788086D01*
X-8544182Y-786871D01*
X-8538438Y-792615D01*
X-8538433Y-792619D01*
X-8538431Y-792621D01*
X-8423435Y-880861D01*
X-8289519Y-936330D01*
X-8255267Y-940839D01*
X-8191371Y-969105D01*
X-8152900Y-1027430D01*
X-8148514Y-1079963D01*
X-8155250Y-1131127D01*
X-8155250Y-1131130D01*
X-8136330Y-1274838D01*
X-8136329Y-1274842D01*
X-8102196Y-1357248D01*
X-8094727Y-1426718D01*
X-8126003Y-1489197D01*
X-8186092Y-1524848D01*
X-8216757Y-1528700D01*
X-9094725Y-1528700D01*
X-9161764Y-1509015D01*
X-9193100Y-1480188D01*
X-9207379Y-1461579D01*
X-9207382Y-1461576D01*
X-9207384Y-1461574D01*
X-9213129Y-1455828D01*
X-9210613Y-1453311D01*
X-9242203Y-1410017D01*
X-9249500Y-1368108D01*
X-9249500Y-886092D01*
X-9229815Y-819053D01*
X-9211886Y-799609D01*
X-9213126Y-798369D01*
X-9201632Y-786875D01*
X-9200858Y-787649D01*
X-9200757Y-787541D01*
X-9200702Y-787499D01*
X-9199714Y-788793D01*
X-9199117Y-789390D01*
X-9155817Y-757797D01*
X-9113908Y-750500D01*
X-8631902Y-750500D01*
X-8564863Y-770185D01*
G37*
%TD.AperFunction*%
%TA.AperFunction,NonConductor*%
G36*
X1435137Y-10770185D02*
G01*
X1454602Y-10788086D01*
X1455818Y-10786871D01*
X1461562Y-10792615D01*
X1461567Y-10792619D01*
X1461569Y-10792621D01*
X1576565Y-10880861D01*
X1710481Y-10936330D01*
X1744733Y-10940839D01*
X1808629Y-10969105D01*
X1847100Y-11027430D01*
X1851486Y-11079963D01*
X1844750Y-11131127D01*
X1844750Y-11131130D01*
X1863670Y-11274838D01*
X1863671Y-11274842D01*
X1897804Y-11357248D01*
X1905273Y-11426718D01*
X1873997Y-11489197D01*
X1813908Y-11524848D01*
X1783243Y-11528700D01*
X905275Y-11528700D01*
X838236Y-11509015D01*
X806900Y-11480188D01*
X792621Y-11461579D01*
X792618Y-11461576D01*
X792616Y-11461574D01*
X786871Y-11455828D01*
X789387Y-11453311D01*
X757797Y-11410017D01*
X750500Y-11368108D01*
X750500Y-10886092D01*
X770185Y-10819053D01*
X788114Y-10799609D01*
X786874Y-10798369D01*
X798368Y-10786875D01*
X799142Y-10787649D01*
X799243Y-10787541D01*
X799298Y-10787499D01*
X800286Y-10788793D01*
X800883Y-10789390D01*
X844183Y-10757797D01*
X886092Y-10750500D01*
X1368098Y-10750500D01*
X1435137Y-10770185D01*
G37*
%TD.AperFunction*%
%TA.AperFunction,NonConductor*%
G36*
X-8564863Y-10770185D02*
G01*
X-8545398Y-10788086D01*
X-8544182Y-10786871D01*
X-8538438Y-10792615D01*
X-8538433Y-10792619D01*
X-8538431Y-10792621D01*
X-8423435Y-10880861D01*
X-8289519Y-10936330D01*
X-8255267Y-10940839D01*
X-8191371Y-10969105D01*
X-8152900Y-11027430D01*
X-8148514Y-11079963D01*
X-8155250Y-11131127D01*
X-8155250Y-11131130D01*
X-8136330Y-11274838D01*
X-8136329Y-11274842D01*
X-8102196Y-11357248D01*
X-8094727Y-11426718D01*
X-8126003Y-11489197D01*
X-8186092Y-11524848D01*
X-8216757Y-11528700D01*
X-9094725Y-11528700D01*
X-9161764Y-11509015D01*
X-9193100Y-11480188D01*
X-9207379Y-11461579D01*
X-9207382Y-11461576D01*
X-9207384Y-11461574D01*
X-9213129Y-11455828D01*
X-9210613Y-11453311D01*
X-9242203Y-11410017D01*
X-9249500Y-11368108D01*
X-9249500Y-10886092D01*
X-9229815Y-10819053D01*
X-9211886Y-10799609D01*
X-9213126Y-10798369D01*
X-9201632Y-10786875D01*
X-9200858Y-10787649D01*
X-9200757Y-10787541D01*
X-9200702Y-10787499D01*
X-9199714Y-10788793D01*
X-9199117Y-10789390D01*
X-9155817Y-10757797D01*
X-9113908Y-10750500D01*
X-8631902Y-10750500D01*
X-8564863Y-10770185D01*
G37*
%TD.AperFunction*%
M02*
