M48
; DRILL file {KiCad 8.0.8} date 2025-02-10T21:53:28+0000
; FORMAT={-:-/ absolute / metric / decimal}
; #@! TF.CreationDate,2025-02-10T21:53:28+00:00
; #@! TF.GenerationSoftware,Kicad,Pcbnew,8.0.8
; #@! TF.FileFunction,Plated,1,4,PTH
FMAT,2
METRIC
; #@! TA.AperFunction,Plated,PTH,ViaDrill
T1C0.200
%
G90
G05
T1
X-18.481Y8.869
X-18.481Y-1.131
X-18.481Y-11.131
X-17.976Y9.6
X-17.976Y-0.4
X-17.976Y-10.4
X-17.471Y8.869
X-17.471Y-1.131
X-17.471Y-11.131
X-10.3Y8.9
X-9.6Y18.211
X-9.6Y9.6
X-9.6Y8.146
X-9.6Y-0.4
X-9.6Y-1.854
X-9.6Y-10.4
X-9.6Y-11.854
X-8.869Y10.3
X-8.869Y7.6
X-8.869Y-2.409
X-8.869Y-12.4
X-8.85Y17.592
X-8.234Y18.5
X-8.146Y9.6
X-8.146Y-0.4
X-8.146Y-10.4
X-7.6Y8.869
X-7.6Y-1.131
X-7.6Y-11.131
X0.4Y18.211
X0.4Y9.6
X0.4Y8.146
X0.4Y-0.4
X0.4Y-1.854
X0.4Y-10.4
X0.4Y-11.854
X1.131Y7.6
X1.131Y-2.4
X1.131Y-12.4
X1.15Y17.592
X1.766Y18.5
X1.854Y9.6
X1.854Y-0.4
X1.854Y-10.4
X2.4Y8.869
X2.4Y-1.131
X2.4Y-11.131
X10.4Y18.211
X10.4Y9.6
X10.4Y8.146
X10.4Y-0.4
X10.4Y-1.854
X10.4Y-10.4
X10.4Y-11.854
X11.131Y7.6
X11.131Y-2.4
X11.131Y-12.4
X11.15Y17.592
X11.766Y18.5
X12.4Y8.869
X12.4Y-1.131
X12.4Y-11.131
M30
