%TF.GenerationSoftware,KiCad,Pcbnew,9.0.7*%
%TF.CreationDate,2026-03-30T19:28:38+01:00*%
%TF.ProjectId,jvm_rgb_led,6a766d5f-7267-4625-9f6c-65642e6b6963,0.7*%
%TF.SameCoordinates,PX50d2eb0PY487ab00*%
%TF.FileFunction,Other,User*%
%FSLAX45Y45*%
G04 Gerber Fmt 4.5, Leading zero omitted, Abs format (unit mm)*
G04 Created by KiCad (PCBNEW 9.0.7) date 2026-03-30 19:28:38*
%MOMM*%
%LPD*%
G01*
G04 APERTURE LIST*
%ADD10C,0.100000*%
%ADD11C,0.009990*%
%ADD12C,0.010820*%
%ADD13C,0.020690*%
%ADD14C,0.030830*%
%ADD15C,0.040690*%
%ADD16C,0.050840*%
%ADD17C,0.010740*%
%ADD18C,0.020680*%
%ADD19C,0.030950*%
%ADD20C,0.040680*%
%ADD21C,0.050650*%
%ADD22C,0.060840*%
%ADD23C,0.070650*%
%ADD24C,0.010710*%
%ADD25C,0.020780*%
%ADD26C,0.030680*%
%ADD27C,0.040800*%
%ADD28C,0.050870*%
%ADD29C,0.060820*%
%ADD30C,0.010830*%
%ADD31C,0.020870*%
%ADD32C,0.030670*%
%ADD33C,0.040760*%
%ADD34C,0.050750*%
%ADD35C,0.040730*%
%ADD36C,0.050790*%
%ADD37C,0.061260*%
%ADD38C,0.070940*%
G04 APERTURE END LIST*
D10*
X-775000Y800000D02*
X775000Y800000D01*
X775000Y-800000D01*
X-775000Y-800000D01*
X-775000Y800000D01*
D11*
%TO.C,GS6*%
X-575000Y800000D02*
X-575000Y800000D01*
D12*
X-575000Y800000D02*
X-575000Y800000D01*
D13*
X-575000Y800000D02*
X-575000Y800000D01*
D14*
X-575000Y800000D02*
X-575000Y800000D01*
D15*
X-575000Y800000D02*
X-575000Y800000D01*
D16*
X-575000Y800000D02*
X-575000Y800000D01*
D11*
%TO.C,GS3*%
X-775000Y350000D02*
X-775000Y350000D01*
D17*
X-775000Y350000D02*
X-775000Y350000D01*
D18*
X-775000Y350000D02*
X-775000Y350000D01*
D19*
X-775000Y350000D02*
X-775000Y350000D01*
D20*
X-775000Y350000D02*
X-775000Y350000D01*
D21*
X-775000Y350000D02*
X-775000Y350000D01*
D22*
X-775000Y350000D02*
X-775000Y350000D01*
D23*
X-775000Y350000D02*
X-775000Y350000D01*
D11*
%TO.C,GS2*%
X-775000Y-300000D02*
X-775000Y-300000D01*
D24*
X-775000Y-300000D02*
X-775000Y-300000D01*
D25*
X-775000Y-300000D02*
X-775000Y-300000D01*
D26*
X-775000Y-300000D02*
X-775000Y-300000D01*
D11*
%TO.C,GS1*%
X-775000Y-50000D02*
X-775000Y-50000D01*
D17*
X-775000Y-50000D02*
X-775000Y-50000D01*
D18*
X-775000Y-50000D02*
X-775000Y-50000D01*
D19*
X-775000Y-50000D02*
X-775000Y-50000D01*
D27*
X-775000Y-50000D02*
X-775000Y-50000D01*
D28*
X-775000Y-50000D02*
X-775000Y-50000D01*
D29*
X-775000Y-50000D02*
X-775000Y-50000D01*
D11*
%TO.C,GS4*%
X-400000Y800000D02*
X-400000Y800000D01*
D30*
X-400000Y800000D02*
X-400000Y800000D01*
D31*
X-400000Y800000D02*
X-400000Y800000D01*
D32*
X-400000Y800000D02*
X-400000Y800000D01*
D33*
X-400000Y800000D02*
X-400000Y800000D01*
D34*
X-400000Y800000D02*
X-400000Y800000D01*
D11*
%TO.C,GS5*%
X-250000Y800000D02*
X-250000Y800000D01*
D30*
X-250000Y800000D02*
X-250000Y800000D01*
D31*
X-250000Y800000D02*
X-250000Y800000D01*
D26*
X-250000Y800000D02*
X-250000Y800000D01*
D35*
X-250000Y800000D02*
X-250000Y800000D01*
D36*
X-250000Y800000D02*
X-250000Y800000D01*
D37*
X-250000Y800000D02*
X-250000Y800000D01*
D38*
X-250000Y800000D02*
X-250000Y800000D01*
%TD*%
M02*
