%TF.GenerationSoftware,KiCad,Pcbnew,9.0.7*%
%TF.CreationDate,2026-03-30T18:33:43+01:00*%
%TF.ProjectId,jvm_rgb_led,6a766d5f-7267-4625-9f6c-65642e6b6963,0.7*%
%TF.SameCoordinates,PX50d2eb0PY487ab00*%
%TF.FileFunction,AssemblyDrawing,Top*%
%FSLAX45Y45*%
G04 Gerber Fmt 4.5, Leading zero omitted, Abs format (unit mm)*
G04 Created by KiCad (PCBNEW 9.0.7) date 2026-03-30 18:33:43*
%MOMM*%
%LPD*%
G01*
G04 APERTURE LIST*
%ADD10C,0.100000*%
%ADD11C,0.120000*%
G04 APERTURE END LIST*
D10*
%TO.C,GS6*%
X-625000Y800000D02*
X-525000Y800000D01*
X-575000Y850000D02*
X-575000Y750000D01*
X-525000Y800000D02*
G75*
G02*
X-625000Y800000I-50000J0D01*
G01*
X-625000Y800000D02*
G75*
G02*
X-525000Y800000I50000J0D01*
G01*
%TO.C,GS3*%
X-825000Y350000D02*
X-725000Y350000D01*
X-775000Y400000D02*
X-775000Y300000D01*
X-725000Y350000D02*
G75*
G02*
X-825000Y350000I-50000J0D01*
G01*
X-825000Y350000D02*
G75*
G02*
X-725000Y350000I50000J0D01*
G01*
%TO.C,C2*%
X-655000Y-260000D02*
X-495000Y-260000D01*
X-495000Y-340000D01*
X-655000Y-340000D01*
X-655000Y-260000D01*
%TO.C,D3*%
X410000Y110000D02*
X410000Y-210000D01*
X410000Y-110000D02*
X510000Y-210000D01*
X410000Y-210000D02*
X690000Y-210000D01*
X690000Y110000D02*
X410000Y110000D01*
X690000Y-210000D02*
X690000Y110000D01*
X662000Y-50000D02*
G75*
G02*
X438000Y-50000I-112000J0D01*
G01*
X438000Y-50000D02*
G75*
G02*
X662000Y-50000I112000J0D01*
G01*
%TO.C,R3*%
X-291250Y520000D02*
X-208750Y520000D01*
X-208750Y680000D01*
X-291250Y680000D01*
X-291250Y520000D01*
%TO.C,U2*%
X-495000Y-155000D02*
X-535000Y-195000D01*
X-655000Y-195000D01*
X-655000Y95000D01*
X-495000Y95000D01*
X-495000Y-155000D01*
%TO.C,GS2*%
X-825000Y-300000D02*
X-725000Y-300000D01*
X-775000Y-250000D02*
X-775000Y-350000D01*
X-725000Y-300000D02*
G75*
G02*
X-825000Y-300000I-50000J0D01*
G01*
X-825000Y-300000D02*
G75*
G02*
X-725000Y-300000I50000J0D01*
G01*
%TO.C,GS1*%
X-825000Y-50000D02*
X-725000Y-50000D01*
X-775000Y0D02*
X-775000Y-100000D01*
X-725000Y-50000D02*
G75*
G02*
X-825000Y-50000I-50000J0D01*
G01*
X-825000Y-50000D02*
G75*
G02*
X-725000Y-50000I50000J0D01*
G01*
%TO.C,GS4*%
X-450000Y800000D02*
X-350000Y800000D01*
X-400000Y850000D02*
X-400000Y750000D01*
X-350000Y800000D02*
G75*
G02*
X-450000Y800000I-50000J0D01*
G01*
X-450000Y800000D02*
G75*
G02*
X-350000Y800000I50000J0D01*
G01*
%TO.C,C1*%
X-260000Y-532500D02*
X-340000Y-532500D01*
X-340000Y-692500D01*
X-260000Y-692500D01*
X-260000Y-532500D01*
%TO.C,R5*%
X630000Y533750D02*
X470000Y533750D01*
X470000Y616250D01*
X630000Y616250D01*
X630000Y533750D01*
%TO.C,R7*%
X630000Y383750D02*
X470000Y383750D01*
X470000Y466250D01*
X630000Y466250D01*
X630000Y383750D01*
%TO.C,R6*%
X630000Y233750D02*
X470000Y233750D01*
X470000Y316250D01*
X630000Y316250D01*
X630000Y233750D01*
%TO.C,D1*%
X-645000Y690000D02*
X-505000Y690000D01*
X-645000Y510000D02*
X-645000Y690000D01*
X-610000Y580000D02*
X-575000Y630000D01*
X-575000Y630000D02*
X-575000Y650000D01*
X-575000Y630000D02*
X-540000Y580000D01*
X-575000Y580000D02*
X-575000Y555000D01*
X-540000Y630000D02*
X-610000Y630000D01*
X-540000Y580000D02*
X-610000Y580000D01*
X-505000Y690000D02*
X-505000Y510000D01*
X-505000Y510000D02*
X-645000Y510000D01*
%TO.C,C3*%
X-655000Y240000D02*
X-495000Y240000D01*
X-495000Y160000D01*
X-655000Y160000D01*
X-655000Y240000D01*
%TO.C,SW1*%
X-120000Y-462500D02*
X270000Y-462500D01*
X-120000Y-762500D02*
X-120000Y-462500D01*
X-120000Y-762500D02*
X270000Y-762500D01*
X270000Y-462500D02*
X270000Y-762500D01*
X165000Y-612500D02*
G75*
G02*
X-15000Y-612500I-90000J0D01*
G01*
X-15000Y-612500D02*
G75*
G02*
X165000Y-612500I90000J0D01*
G01*
%TO.C,R2*%
X-441250Y520000D02*
X-358750Y520000D01*
X-358750Y680000D01*
X-441250Y680000D01*
X-441250Y520000D01*
%TO.C,GS5*%
X-300000Y800000D02*
X-200000Y800000D01*
X-250000Y850000D02*
X-250000Y750000D01*
X-200000Y800000D02*
G75*
G02*
X-300000Y800000I-50000J0D01*
G01*
X-300000Y800000D02*
G75*
G02*
X-200000Y800000I50000J0D01*
G01*
%TO.C,D2*%
X-655000Y-560000D02*
X-655000Y-640000D01*
X-655000Y-640000D02*
X-525000Y-640000D01*
X-525000Y-640000D02*
X-495000Y-610000D01*
X-495000Y-560000D02*
X-655000Y-560000D01*
X-495000Y-610000D02*
X-495000Y-560000D01*
%TO.C,R1*%
X-495000Y308750D02*
X-655000Y308750D01*
X-655000Y391250D01*
X-495000Y391250D01*
X-495000Y308750D01*
%TO.C,R4*%
X-495000Y-491250D02*
X-655000Y-491250D01*
X-655000Y-408750D01*
X-495000Y-408750D01*
X-495000Y-491250D01*
D11*
%TO.C,J1*%
X-128600Y746450D02*
X201600Y746450D01*
X-128600Y390850D02*
X-128600Y746450D01*
X201600Y746450D02*
X328600Y619450D01*
X328600Y619450D02*
X328600Y390850D01*
X328600Y390850D02*
X-128600Y390850D01*
D10*
%TO.C,U1*%
X312500Y-270000D02*
X-237500Y-270000D01*
X-337500Y-170000D01*
X-337500Y170000D01*
X312500Y170000D01*
X312500Y-270000D01*
%TD*%
M02*
