%TF.GenerationSoftware,KiCad,Pcbnew,9.0.7*%
%TF.CreationDate,2026-03-30T19:28:24+01:00*%
%TF.ProjectId,jvm_rgb_strip,6a766d5f-7267-4625-9f73-747269702e6b,0.7*%
%TF.SameCoordinates,PX5335450PY487ab00*%
%TF.FileFunction,Copper,L2,Bot*%
%TF.FilePolarity,Positive*%
%FSLAX45Y45*%
G04 Gerber Fmt 4.5, Leading zero omitted, Abs format (unit mm)*
G04 Created by KiCad (PCBNEW 9.0.7) date 2026-03-30 19:28:24*
%MOMM*%
%LPD*%
G01*
G04 APERTURE LIST*
G04 Aperture macros list*
%AMRoundRect*
0 Rectangle with rounded corners*
0 $1 Rounding radius*
0 $2 $3 $4 $5 $6 $7 $8 $9 X,Y pos of 4 corners*
0 Add a 4 corners polygon primitive as box body*
4,1,4,$2,$3,$4,$5,$6,$7,$8,$9,$2,$3,0*
0 Add four circle primitives for the rounded corners*
1,1,$1+$1,$2,$3*
1,1,$1+$1,$4,$5*
1,1,$1+$1,$6,$7*
1,1,$1+$1,$8,$9*
0 Add four rect primitives between the rounded corners*
20,1,$1+$1,$2,$3,$4,$5,0*
20,1,$1+$1,$4,$5,$6,$7,0*
20,1,$1+$1,$6,$7,$8,$9,0*
20,1,$1+$1,$8,$9,$2,$3,0*%
G04 Aperture macros list end*
%TA.AperFunction,ComponentPad*%
%ADD10RoundRect,0.250000X0.750000X-0.750000X0.750000X0.750000X-0.750000X0.750000X-0.750000X-0.750000X0*%
%TD*%
%TA.AperFunction,ComponentPad*%
%ADD11C,2.000000*%
%TD*%
%TA.AperFunction,ComponentPad*%
%ADD12RoundRect,0.172720X-0.259080X-0.259080X0.259080X-0.259080X0.259080X0.259080X-0.259080X0.259080X0*%
%TD*%
%TA.AperFunction,ComponentPad*%
%ADD13C,0.863600*%
%TD*%
%TA.AperFunction,ViaPad*%
%ADD14C,0.600000*%
%TD*%
%TA.AperFunction,Conductor*%
%ADD15C,0.200000*%
%TD*%
%TA.AperFunction,Conductor*%
%ADD16C,0.400000*%
%TD*%
G04 APERTURE END LIST*
D10*
%TO.P,J2,1,Pin_1*%
%TO.N,Net-(J2-Pin_1)*%
X575000Y-381000D03*
D11*
%TO.P,J2,2,Pin_2*%
%TO.N,Net-(J2-Pin_2)*%
X575000Y0D03*
%TO.P,J2,3,Pin_3*%
%TO.N,GND*%
X575000Y381000D03*
%TD*%
D12*
%TO.P,J1,1,VCC*%
%TO.N,+3V3*%
X-23000Y647390D03*
D13*
%TO.P,J1,2,SWDIO*%
%TO.N,/SWDIO*%
X-23000Y489910D03*
%TO.P,J1,3,GND*%
%TO.N,GND*%
X-150000Y647390D03*
%TO.P,J1,4,SWCLK*%
%TO.N,/SWCLK*%
X-150000Y489910D03*
%TO.P,J1,5,~{RESET}*%
%TO.N,/nRESET*%
X-277000Y647390D03*
%TD*%
D14*
%TO.N,GND*%
X-650000Y-300000D03*
X100000Y730670D03*
X-650000Y200000D03*
X-700000Y-675000D03*
X-275000Y-625000D03*
X-975000Y-175000D03*
X-350000Y575000D03*
%TO.N,+3V3*%
X-355000Y-464014D03*
%TO.N,/nRESET*%
X-296900Y-212500D03*
X-825000Y575000D03*
%TO.N,JD_PWR*%
X565000Y-750000D03*
X-958484Y-354483D03*
%TD*%
D15*
%TO.N,GND*%
X-650000Y275000D02*
X-650000Y200000D01*
X-650000Y200000D02*
X-650000Y-175000D01*
X-650000Y-175000D02*
X-650000Y-300000D01*
D16*
X225330Y730670D02*
X100000Y730670D01*
D15*
X-650000Y-300000D02*
X-650000Y-625000D01*
X-700000Y-675000D02*
X-650000Y-625000D01*
X-975000Y-175000D02*
X-650000Y-175000D01*
D16*
X100000Y730670D02*
X-127786Y730670D01*
D15*
X-350000Y575000D02*
X-650000Y275000D01*
D16*
X-150000Y708456D02*
X-150000Y647390D01*
D15*
X-650000Y-625000D02*
X-275000Y-625000D01*
D16*
X575000Y381000D02*
X225330Y730670D01*
X-127786Y730670D02*
X-150000Y708456D01*
D15*
%TO.N,+3V3*%
X-107200Y563190D02*
X-180354Y563190D01*
X-23000Y647390D02*
X-107200Y563190D01*
X-236900Y-345914D02*
X-355000Y-464014D01*
X-236900Y506644D02*
X-236900Y-345914D01*
X-180354Y563190D02*
X-236900Y506644D01*
%TO.N,/nRESET*%
X-277000Y647390D02*
X-277000Y-192600D01*
X-752610Y647390D02*
X-825000Y575000D01*
X-277000Y-192600D02*
X-296900Y-212500D01*
X-277000Y647390D02*
X-752610Y647390D01*
D16*
%TO.N,JD_PWR*%
X-958484Y-604016D02*
X-958484Y-354483D01*
X565000Y-750000D02*
X-812500Y-750000D01*
X-812500Y-750000D02*
X-958484Y-604016D01*
%TD*%
M02*
