%TF.GenerationSoftware,KiCad,Pcbnew,9.0.7*%
%TF.CreationDate,2026-03-30T18:33:31+01:00*%
%TF.ProjectId,jvm_rgb_strip,6a766d5f-7267-4625-9f73-747269702e6b,0.7*%
%TF.SameCoordinates,PX5335450PY487ab00*%
%TF.FileFunction,Copper,L1,Top*%
%TF.FilePolarity,Positive*%
%FSLAX45Y45*%
G04 Gerber Fmt 4.5, Leading zero omitted, Abs format (unit mm)*
G04 Created by KiCad (PCBNEW 9.0.7) date 2026-03-30 18:33:31*
%MOMM*%
%LPD*%
G01*
G04 APERTURE LIST*
G04 Aperture macros list*
%AMRoundRect*
0 Rectangle with rounded corners*
0 $1 Rounding radius*
0 $2 $3 $4 $5 $6 $7 $8 $9 X,Y pos of 4 corners*
0 Add a 4 corners polygon primitive as box body*
4,1,4,$2,$3,$4,$5,$6,$7,$8,$9,$2,$3,0*
0 Add four circle primitives for the rounded corners*
1,1,$1+$1,$2,$3*
1,1,$1+$1,$4,$5*
1,1,$1+$1,$6,$7*
1,1,$1+$1,$8,$9*
0 Add four rect primitives between the rounded corners*
20,1,$1+$1,$2,$3,$4,$5,0*
20,1,$1+$1,$4,$5,$6,$7,0*
20,1,$1+$1,$6,$7,$8,$9,0*
20,1,$1+$1,$8,$9,$2,$3,0*%
G04 Aperture macros list end*
%TA.AperFunction,SMDPad,CuDef*%
%ADD10C,0.125000*%
%TD*%
%TA.AperFunction,SMDPad,CuDef*%
%ADD11RoundRect,0.225000X-0.225000X-0.250000X0.225000X-0.250000X0.225000X0.250000X-0.225000X0.250000X0*%
%TD*%
%TA.AperFunction,SMDPad,CuDef*%
%ADD12RoundRect,0.237500X0.237500X-0.250000X0.237500X0.250000X-0.237500X0.250000X-0.237500X-0.250000X0*%
%TD*%
%TA.AperFunction,SMDPad,CuDef*%
%ADD13RoundRect,0.150000X0.512500X0.150000X-0.512500X0.150000X-0.512500X-0.150000X0.512500X-0.150000X0*%
%TD*%
%TA.AperFunction,SMDPad,CuDef*%
%ADD14RoundRect,0.225000X-0.250000X0.225000X-0.250000X-0.225000X0.250000X-0.225000X0.250000X0.225000X0*%
%TD*%
%TA.AperFunction,SMDPad,CuDef*%
%ADD15RoundRect,0.250000X-0.325000X-0.450000X0.325000X-0.450000X0.325000X0.450000X-0.325000X0.450000X0*%
%TD*%
%TA.AperFunction,SMDPad,CuDef*%
%ADD16RoundRect,0.250000X-0.250000X0.250000X-0.250000X-0.250000X0.250000X-0.250000X0.250000X0.250000X0*%
%TD*%
%TA.AperFunction,SMDPad,CuDef*%
%ADD17RoundRect,0.237500X-0.250000X-0.237500X0.250000X-0.237500X0.250000X0.237500X-0.250000X0.237500X0*%
%TD*%
%TA.AperFunction,SMDPad,CuDef*%
%ADD18RoundRect,0.250000X-0.275000X-0.750000X0.275000X-0.750000X0.275000X0.750000X-0.275000X0.750000X0*%
%TD*%
%TA.AperFunction,SMDPad,CuDef*%
%ADD19RoundRect,0.237500X0.287500X0.237500X-0.287500X0.237500X-0.287500X-0.237500X0.287500X-0.237500X0*%
%TD*%
%TA.AperFunction,ComponentPad*%
%ADD20RoundRect,0.250000X0.750000X-0.750000X0.750000X0.750000X-0.750000X0.750000X-0.750000X-0.750000X0*%
%TD*%
%TA.AperFunction,ComponentPad*%
%ADD21C,2.000000*%
%TD*%
%TA.AperFunction,SMDPad,CuDef*%
%ADD22RoundRect,0.237500X0.250000X0.237500X-0.250000X0.237500X-0.250000X-0.237500X0.250000X-0.237500X0*%
%TD*%
%TA.AperFunction,ComponentPad*%
%ADD23RoundRect,0.172720X-0.259080X-0.259080X0.259080X-0.259080X0.259080X0.259080X-0.259080X0.259080X0*%
%TD*%
%TA.AperFunction,ComponentPad*%
%ADD24C,0.863600*%
%TD*%
%TA.AperFunction,SMDPad,CuDef*%
%ADD25RoundRect,0.100000X0.100000X-0.637500X0.100000X0.637500X-0.100000X0.637500X-0.100000X-0.637500X0*%
%TD*%
%TA.AperFunction,SMDPad,CuDef*%
%ADD26RoundRect,0.250000X0.545000X0.445000X-0.545000X0.445000X-0.545000X-0.445000X0.545000X-0.445000X0*%
%TD*%
%TA.AperFunction,ViaPad*%
%ADD27C,0.600000*%
%TD*%
%TA.AperFunction,Conductor*%
%ADD28C,0.200000*%
%TD*%
%TA.AperFunction,Conductor*%
%ADD29C,0.400000*%
%TD*%
G04 APERTURE END LIST*
D10*
%TO.P,GS6,1,RESET*%
%TO.N,Net-(D1-K)*%
X-825000Y800000D03*
%TD*%
%TO.P,GS3,1,JD_DATA*%
%TO.N,Net-(GS3-JD_DATA)*%
X-1025000Y350000D03*
%TD*%
D11*
%TO.P,C2,1*%
%TO.N,JD_PWR*%
X-902500Y-300000D03*
%TO.P,C2,2*%
%TO.N,GND*%
X-747500Y-300000D03*
%TD*%
D12*
%TO.P,R3,1*%
%TO.N,/SWDIO*%
X-500000Y508750D03*
%TO.P,R3,2*%
%TO.N,Net-(GS5-SWDIO~^)*%
X-500000Y691250D03*
%TD*%
D13*
%TO.P,U2,1,GND*%
%TO.N,GND*%
X-711250Y-145000D03*
%TO.P,U2,2,VO*%
%TO.N,+3V3*%
X-711250Y45000D03*
%TO.P,U2,3,VI*%
%TO.N,JD_PWR*%
X-938750Y-50000D03*
%TD*%
D10*
%TO.P,GS2,1,GND*%
%TO.N,GND*%
X-1025000Y-300000D03*
%TD*%
%TO.P,GS1,1,JD_PWR*%
%TO.N,JD_PWR*%
X-1025000Y-50000D03*
%TD*%
%TO.P,GS4,1,SWCLK*%
%TO.N,Net-(GS4-SWCLK)*%
X-650000Y800000D03*
%TD*%
D14*
%TO.P,C1,1*%
%TO.N,+3V3*%
X-550000Y-535000D03*
%TO.P,C1,2*%
%TO.N,GND*%
X-550000Y-690000D03*
%TD*%
D11*
%TO.P,C5,1*%
%TO.N,Net-(J2-Pin_2)*%
X747500Y725000D03*
%TO.P,C5,2*%
%TO.N,GND*%
X902500Y725000D03*
%TD*%
D15*
%TO.P,F1,1*%
%TO.N,JD_PWR*%
X672500Y-725000D03*
%TO.P,F1,2*%
%TO.N,Net-(J2-Pin_2)*%
X877500Y-725000D03*
%TD*%
D16*
%TO.P,D1,1,K*%
%TO.N,Net-(D1-K)*%
X-825000Y725000D03*
%TO.P,D1,2,A*%
%TO.N,/nRESET*%
X-825000Y475000D03*
%TD*%
D11*
%TO.P,C3,1*%
%TO.N,+3V3*%
X-902500Y200000D03*
%TO.P,C3,2*%
%TO.N,GND*%
X-747500Y200000D03*
%TD*%
D17*
%TO.P,R5,1*%
%TO.N,/DIN*%
X283750Y-725000D03*
%TO.P,R5,2*%
%TO.N,Net-(J2-Pin_1)*%
X466250Y-725000D03*
%TD*%
D18*
%TO.P,SW1,1,1*%
%TO.N,GND*%
X-397500Y-612500D03*
%TO.P,SW1,2,2*%
%TO.N,/nFLASH*%
X47500Y-612500D03*
%TD*%
D12*
%TO.P,R2,1*%
%TO.N,/SWCLK*%
X-650000Y508750D03*
%TO.P,R2,2*%
%TO.N,Net-(GS4-SWCLK)*%
X-650000Y691250D03*
%TD*%
D10*
%TO.P,GS5,1,SWDIO~^*%
%TO.N,Net-(GS5-SWDIO~^)*%
X-500000Y800000D03*
%TD*%
D19*
%TO.P,D2,1*%
%TO.N,GND*%
X-737500Y-600000D03*
%TO.P,D2,2*%
%TO.N,Net-(D2-Pad2)*%
X-912500Y-600000D03*
%TD*%
D20*
%TO.P,J2,1,Pin_1*%
%TO.N,Net-(J2-Pin_1)*%
X575000Y-381000D03*
D21*
%TO.P,J2,2,Pin_2*%
%TO.N,Net-(J2-Pin_2)*%
X575000Y0D03*
%TO.P,J2,3,Pin_3*%
%TO.N,GND*%
X575000Y381000D03*
%TD*%
D22*
%TO.P,R1,1*%
%TO.N,/JD_DATA_MCU*%
X-733750Y350000D03*
%TO.P,R1,2*%
%TO.N,Net-(GS3-JD_DATA)*%
X-916250Y350000D03*
%TD*%
%TO.P,R4,1*%
%TO.N,/JD_STATUS*%
X-733750Y-450000D03*
%TO.P,R4,2*%
%TO.N,Net-(D2-Pad2)*%
X-916250Y-450000D03*
%TD*%
D23*
%TO.P,J1,1,VCC*%
%TO.N,+3V3*%
X-23000Y647390D03*
D24*
%TO.P,J1,2,SWDIO*%
%TO.N,/SWDIO*%
X-23000Y489910D03*
%TO.P,J1,3,GND*%
%TO.N,GND*%
X-150000Y647390D03*
%TO.P,J1,4,SWCLK*%
%TO.N,/SWCLK*%
X-150000Y489910D03*
%TO.P,J1,5,~{RESET}*%
%TO.N,/nRESET*%
X-277000Y647390D03*
%TD*%
D25*
%TO.P,U1,1,PB7/PB8*%
%TO.N,/JD_STATUS*%
X-555000Y-336250D03*
%TO.P,U1,2,PB9/PC14*%
%TO.N,/nFLASH*%
X-490000Y-336250D03*
%TO.P,U1,3,PC15*%
%TO.N,unconnected-(U1-PC15-Pad3)*%
X-425000Y-336250D03*
%TO.P,U1,4,VDD*%
%TO.N,+3V3*%
X-360000Y-336250D03*
%TO.P,U1,5,VSS*%
%TO.N,GND*%
X-295000Y-336250D03*
%TO.P,U1,6,NRST*%
%TO.N,/nRESET*%
X-230000Y-336250D03*
%TO.P,U1,7,PA0*%
%TO.N,unconnected-(U1-PA0-Pad7)*%
X-165000Y-336250D03*
%TO.P,U1,8,PA1*%
%TO.N,unconnected-(U1-PA1-Pad8)*%
X-100000Y-336250D03*
%TO.P,U1,9,PA2*%
%TO.N,/DIN*%
X-35000Y-336250D03*
%TO.P,U1,10,PA3*%
%TO.N,unconnected-(U1-PA3-Pad10)*%
X30000Y-336250D03*
%TO.P,U1,11,PA4*%
%TO.N,unconnected-(U1-PA4-Pad11)*%
X30000Y236250D03*
%TO.P,U1,12,PA5*%
%TO.N,unconnected-(U1-PA5-Pad12)*%
X-35000Y236250D03*
%TO.P,U1,13,PA6*%
%TO.N,unconnected-(U1-PA6-Pad13)*%
X-100000Y236250D03*
%TO.P,U1,14,PA7*%
%TO.N,unconnected-(U1-PA7-Pad14)*%
X-165000Y236250D03*
%TO.P,U1,15,PA8/PB0/PB1/PB2*%
%TO.N,unconnected-(U1-PA8{slash}PB0{slash}PB1{slash}PB2-Pad15)*%
X-230000Y236250D03*
%TO.P,U1,16,PA9/PA11*%
%TO.N,unconnected-(U1-PA9{slash}PA11-Pad16)*%
X-295000Y236250D03*
%TO.P,U1,17,PA10/PA12*%
%TO.N,unconnected-(U1-PA10{slash}PA12-Pad17)*%
X-360000Y236250D03*
%TO.P,U1,18,PA13*%
%TO.N,/SWDIO*%
X-425000Y236250D03*
%TO.P,U1,19,PA14/PA15*%
%TO.N,/SWCLK*%
X-490000Y236250D03*
%TO.P,U1,20,PB3/PB4/PB5/PB6*%
%TO.N,/JD_DATA_MCU*%
X-555000Y236250D03*
%TD*%
D26*
%TO.P,C4,1*%
%TO.N,Net-(J2-Pin_2)*%
X544000Y725000D03*
%TO.P,C4,2*%
%TO.N,GND*%
X256000Y725000D03*
%TD*%
D27*
%TO.N,GND*%
X-650000Y-300000D03*
X100000Y730670D03*
X-650000Y200000D03*
X-700000Y-675000D03*
X-275000Y-625000D03*
X-975000Y-175000D03*
X-350000Y575000D03*
%TO.N,+3V3*%
X-355000Y-464014D03*
%TO.N,/nRESET*%
X-296900Y-212500D03*
X-825000Y575000D03*
%TO.N,JD_PWR*%
X565000Y-750000D03*
X-958484Y-354483D03*
%TD*%
D28*
%TO.N,GND*%
X-275000Y-625000D02*
X-385000Y-625000D01*
X-1025000Y-300000D02*
X-975000Y-250000D01*
X-349110Y574110D02*
X-350000Y575000D01*
X-472500Y-612500D02*
X-550000Y-690000D01*
X-975000Y-250000D02*
X-975000Y-225000D01*
X-700000Y-675000D02*
X-737500Y-637500D01*
X-737500Y-637500D02*
X-737500Y-600000D01*
X-397500Y-612500D02*
X-472500Y-612500D01*
X-223280Y574110D02*
X-349110Y574110D01*
X-975000Y-225000D02*
X-975000Y-175000D01*
X-650000Y200000D02*
X-747500Y200000D01*
X-711250Y-145000D02*
X-711250Y-263750D01*
X-150000Y647390D02*
X-223280Y574110D01*
D29*
X256000Y725000D02*
X105670Y725000D01*
X902500Y708500D02*
X575000Y381000D01*
D28*
X-385000Y-625000D02*
X-397500Y-612500D01*
X-711250Y-263750D02*
X-747500Y-300000D01*
D29*
X105670Y725000D02*
X100000Y730670D01*
X902500Y725000D02*
X902500Y708500D01*
D28*
X-650000Y-300000D02*
X-747500Y-300000D01*
X-295000Y-510000D02*
X-397500Y-612500D01*
X-295000Y-336250D02*
X-295000Y-510000D01*
%TO.N,+3V3*%
X-902500Y200000D02*
X-747500Y45000D01*
X-385256Y-427243D02*
X-385256Y-433758D01*
X-385256Y-427243D02*
X-360000Y-401987D01*
X-360000Y-205147D02*
X-360000Y-336250D01*
X-610147Y45000D02*
X-360000Y-205147D01*
X-385256Y-433758D02*
X-355000Y-464014D01*
X-455100Y-440100D02*
X-398113Y-440100D01*
X-711250Y45000D02*
X-610147Y45000D01*
X-550000Y-535000D02*
X-455100Y-440100D01*
X-398113Y-440100D02*
X-385256Y-427243D01*
X-360000Y-401987D02*
X-360000Y-336250D01*
X-747500Y45000D02*
X-711250Y45000D01*
%TO.N,Net-(D1-K)*%
X-825000Y705000D02*
X-825000Y800000D01*
%TO.N,/SWDIO*%
X-425000Y412500D02*
X-425000Y236250D01*
X-425000Y433750D02*
X-425000Y412500D01*
X-100410Y412500D02*
X-425000Y412500D01*
X-23000Y489910D02*
X-100410Y412500D01*
X-500000Y508750D02*
X-425000Y433750D01*
%TO.N,/SWCLK*%
X-150000Y489910D02*
X-355597Y489910D01*
X-355597Y489910D02*
X-453287Y587600D01*
X-490000Y348750D02*
X-490000Y236250D01*
X-571150Y587600D02*
X-650000Y508750D01*
X-650000Y508750D02*
X-490000Y348750D01*
X-453287Y587600D02*
X-571150Y587600D01*
%TO.N,/nRESET*%
X-825000Y575000D02*
X-825000Y495000D01*
X-230000Y-262500D02*
X-280000Y-212500D01*
X-230000Y-336250D02*
X-230000Y-262500D01*
X-280000Y-212500D02*
X-296900Y-212500D01*
%TO.N,/JD_STATUS*%
X-733750Y-450000D02*
X-668750Y-450000D01*
X-668750Y-450000D02*
X-555000Y-336250D01*
%TO.N,Net-(D2-Pad2)*%
X-916250Y-596250D02*
X-912500Y-600000D01*
X-916250Y-450000D02*
X-916250Y-596250D01*
D29*
%TO.N,JD_PWR*%
X-902500Y-86250D02*
X-902500Y-300000D01*
X565000Y-750000D02*
X577500Y-737500D01*
X577500Y-737500D02*
X660000Y-737500D01*
D28*
X-938750Y-50000D02*
X-1025000Y-50000D01*
D29*
X-958484Y-354483D02*
X-954483Y-354483D01*
X-938750Y-50000D02*
X-902500Y-86250D01*
X-902500Y-302500D02*
X-902500Y-300000D01*
X660000Y-737500D02*
X672500Y-725000D01*
X-954483Y-354483D02*
X-902500Y-302500D01*
D28*
%TO.N,Net-(GS3-JD_DATA)*%
X-916250Y350000D02*
X-1025000Y350000D01*
%TO.N,/JD_DATA_MCU*%
X-733750Y350000D02*
X-668750Y350000D01*
X-668750Y350000D02*
X-555000Y236250D01*
%TO.N,Net-(GS4-SWCLK)*%
X-650000Y691250D02*
X-650000Y800000D01*
%TO.N,Net-(GS5-SWDIO~^)*%
X-500000Y691250D02*
X-500000Y800000D01*
%TO.N,/nFLASH*%
X-597411Y-765100D02*
X-627600Y-734911D01*
X-527700Y-440100D02*
X-490000Y-402400D01*
X47500Y-612500D02*
X-105100Y-765100D01*
X-490000Y-402400D02*
X-490000Y-336250D01*
X-627600Y-485813D02*
X-581887Y-440100D01*
X-627600Y-734911D02*
X-627600Y-485813D01*
X-581887Y-440100D02*
X-527700Y-440100D01*
X-105100Y-765100D02*
X-597411Y-765100D01*
D29*
%TO.N,Net-(J2-Pin_2)*%
X434900Y615900D02*
X434900Y140100D01*
X747500Y725000D02*
X544000Y725000D01*
X877500Y-302500D02*
X575000Y0D01*
X544000Y725000D02*
X434900Y615900D01*
X877500Y-725000D02*
X877500Y-302500D01*
X434900Y140100D02*
X575000Y0D01*
D28*
%TO.N,Net-(J2-Pin_1)*%
X466250Y-725000D02*
X466250Y-489750D01*
X466250Y-489750D02*
X575000Y-381000D01*
%TO.N,/DIN*%
X283750Y-408750D02*
X283750Y-725000D01*
X80100Y-416887D02*
X80100Y-369900D01*
X125000Y-325000D02*
X200000Y-325000D01*
X80100Y-369900D02*
X125000Y-325000D01*
X3113Y-440100D02*
X56887Y-440100D01*
X56887Y-440100D02*
X80100Y-416887D01*
X-35000Y-336250D02*
X-35000Y-401987D01*
X-35000Y-401987D02*
X3113Y-440100D01*
X125000Y-325000D02*
X125000Y-325000D01*
X200000Y-325000D02*
X283750Y-408750D01*
%TD*%
M02*
