%TF.GenerationSoftware,KiCad,Pcbnew,9.0.7*%
%TF.CreationDate,2026-03-30T19:28:24+01:00*%
%TF.ProjectId,jvm_rgb_strip,6a766d5f-7267-4625-9f73-747269702e6b,0.7*%
%TF.SameCoordinates,PX5335450PY487ab00*%
%TF.FileFunction,Legend,Bot*%
%TF.FilePolarity,Positive*%
%FSLAX45Y45*%
G04 Gerber Fmt 4.5, Leading zero omitted, Abs format (unit mm)*
G04 Created by KiCad (PCBNEW 9.0.7) date 2026-03-30 19:28:24*
%MOMM*%
%LPD*%
G01*
G04 APERTURE LIST*
%ADD10C,0.200000*%
G04 APERTURE END LIST*
D10*
X736722Y15414D02*
X736722Y63033D01*
X736722Y63033D02*
X784341Y67795D01*
X784341Y67795D02*
X779579Y63033D01*
X779579Y63033D02*
X774817Y53509D01*
X774817Y53509D02*
X774817Y29699D01*
X774817Y29699D02*
X779579Y20176D01*
X779579Y20176D02*
X784341Y15414D01*
X784341Y15414D02*
X793865Y10652D01*
X793865Y10652D02*
X817674Y10652D01*
X817674Y10652D02*
X827198Y15414D01*
X827198Y15414D02*
X831960Y20176D01*
X831960Y20176D02*
X836722Y29699D01*
X836722Y29699D02*
X836722Y53509D01*
X836722Y53509D02*
X831960Y63033D01*
X831960Y63033D02*
X827198Y67795D01*
X736722Y-17920D02*
X836722Y-51253D01*
X836722Y-51253D02*
X736722Y-84586D01*
X836722Y-286967D02*
X736722Y-286967D01*
X736722Y-286967D02*
X736722Y-310777D01*
X736722Y-310777D02*
X741484Y-325063D01*
X741484Y-325063D02*
X751008Y-334586D01*
X751008Y-334586D02*
X760531Y-339348D01*
X760531Y-339348D02*
X779579Y-344110D01*
X779579Y-344110D02*
X793865Y-344110D01*
X793865Y-344110D02*
X812912Y-339348D01*
X812912Y-339348D02*
X822436Y-334586D01*
X822436Y-334586D02*
X831960Y-325063D01*
X831960Y-325063D02*
X836722Y-310777D01*
X836722Y-310777D02*
X836722Y-286967D01*
X836722Y-386967D02*
X736722Y-386967D01*
X836722Y-434586D02*
X736722Y-434586D01*
X736722Y-434586D02*
X836722Y-491729D01*
X836722Y-491729D02*
X736722Y-491729D01*
X741484Y460652D02*
X736722Y470176D01*
X736722Y470176D02*
X736722Y484461D01*
X736722Y484461D02*
X741484Y498747D01*
X741484Y498747D02*
X751008Y508271D01*
X751008Y508271D02*
X760531Y513033D01*
X760531Y513033D02*
X779579Y517795D01*
X779579Y517795D02*
X793865Y517795D01*
X793865Y517795D02*
X812912Y513033D01*
X812912Y513033D02*
X822436Y508271D01*
X822436Y508271D02*
X831960Y498747D01*
X831960Y498747D02*
X836722Y484461D01*
X836722Y484461D02*
X836722Y474937D01*
X836722Y474937D02*
X831960Y460652D01*
X831960Y460652D02*
X827198Y455890D01*
X827198Y455890D02*
X793865Y455890D01*
X793865Y455890D02*
X793865Y474937D01*
X836722Y413033D02*
X736722Y413033D01*
X736722Y413033D02*
X836722Y355890D01*
X836722Y355890D02*
X736722Y355890D01*
X836722Y308271D02*
X736722Y308271D01*
X736722Y308271D02*
X736722Y284461D01*
X736722Y284461D02*
X741484Y270176D01*
X741484Y270176D02*
X751008Y260652D01*
X751008Y260652D02*
X760531Y255890D01*
X760531Y255890D02*
X779579Y251128D01*
X779579Y251128D02*
X793865Y251128D01*
X793865Y251128D02*
X812912Y255890D01*
X812912Y255890D02*
X822436Y260652D01*
X822436Y260652D02*
X831960Y270176D01*
X831960Y270176D02*
X836722Y284461D01*
X836722Y284461D02*
X836722Y308271D01*
M02*
