%TF.GenerationSoftware,KiCad,Pcbnew,9.0.0*%
%TF.CreationDate,2025-03-28T13:53:40+00:00*%
%TF.ProjectId,vm_light_sensor_0.2,766d5f6c-6967-4687-945f-73656e736f72,v0.2*%
%TF.SameCoordinates,PX510ff40PY47868c0*%
%TF.FileFunction,AssemblyDrawing,Top*%
%FSLAX45Y45*%
G04 Gerber Fmt 4.5, Leading zero omitted, Abs format (unit mm)*
G04 Created by KiCad (PCBNEW 9.0.0) date 2025-03-28 13:53:40*
%MOMM*%
%LPD*%
G01*
G04 APERTURE LIST*
%ADD10C,0.100000*%
%ADD11C,0.060000*%
G04 APERTURE END LIST*
D10*
%TO.C,GS5*%
X150000Y825000D02*
X250000Y825000D01*
X200000Y875000D02*
X200000Y775000D01*
X250000Y825000D02*
G75*
G02*
X150000Y825000I-50000J0D01*
G01*
X150000Y825000D02*
G75*
G02*
X250000Y825000I50000J0D01*
G01*
%TO.C,GS3*%
X-700000Y250000D02*
X-600000Y250000D01*
X-650000Y300000D02*
X-650000Y200000D01*
X-600000Y250000D02*
G75*
G02*
X-700000Y250000I-50000J0D01*
G01*
X-700000Y250000D02*
G75*
G02*
X-600000Y250000I50000J0D01*
G01*
D11*
%TO.C,R7*%
X-227000Y520000D02*
G75*
G02*
X-233000Y520000I-3000J0D01*
G01*
X-233000Y520000D02*
G75*
G02*
X-227000Y520000I3000J0D01*
G01*
D10*
%TO.C,GS4*%
X-50000Y825000D02*
X50000Y825000D01*
X0Y875000D02*
X0Y775000D01*
X50000Y825000D02*
G75*
G02*
X-50000Y825000I-50000J0D01*
G01*
X-50000Y825000D02*
G75*
G02*
X50000Y825000I50000J0D01*
G01*
D11*
%TO.C,U2*%
X-357000Y137000D02*
G75*
G02*
X-363000Y137000I-3000J0D01*
G01*
X-363000Y137000D02*
G75*
G02*
X-357000Y137000I3000J0D01*
G01*
D10*
%TO.C,GS6*%
X-250000Y825000D02*
X-150000Y825000D01*
X-200000Y875000D02*
X-200000Y775000D01*
X-150000Y825000D02*
G75*
G02*
X-250000Y825000I-50000J0D01*
G01*
X-250000Y825000D02*
G75*
G02*
X-150000Y825000I50000J0D01*
G01*
D11*
%TO.C,D1*%
X-407000Y-480000D02*
G75*
G02*
X-413000Y-480000I-3000J0D01*
G01*
X-413000Y-480000D02*
G75*
G02*
X-407000Y-480000I3000J0D01*
G01*
%TO.C,R6*%
X-387000Y520000D02*
G75*
G02*
X-393000Y520000I-3000J0D01*
G01*
X-393000Y520000D02*
G75*
G02*
X-387000Y520000I3000J0D01*
G01*
%TO.C,C3*%
X-407000Y-220000D02*
G75*
G02*
X-413000Y-220000I-3000J0D01*
G01*
X-413000Y-220000D02*
G75*
G02*
X-407000Y-220000I3000J0D01*
G01*
%TO.C,U1*%
X-320000Y-320000D02*
G75*
G02*
X-326000Y-320000I-3000J0D01*
G01*
X-326000Y-320000D02*
G75*
G02*
X-320000Y-320000I3000J0D01*
G01*
D10*
%TO.C,GS2*%
X-700000Y-250000D02*
X-600000Y-250000D01*
X-650000Y-200000D02*
X-650000Y-300000D01*
X-600000Y-250000D02*
G75*
G02*
X-700000Y-250000I-50000J0D01*
G01*
X-700000Y-250000D02*
G75*
G02*
X-600000Y-250000I50000J0D01*
G01*
D11*
%TO.C,Q1*%
X456000Y404000D02*
G75*
G02*
X450000Y404000I-3000J0D01*
G01*
X450000Y404000D02*
G75*
G02*
X456000Y404000I3000J0D01*
G01*
%TO.C,R5*%
X-397000Y430000D02*
G75*
G02*
X-403000Y430000I-3000J0D01*
G01*
X-403000Y430000D02*
G75*
G02*
X-397000Y430000I3000J0D01*
G01*
%TO.C,R2*%
X526290Y-290000D02*
G75*
G02*
X520290Y-290000I-3000J0D01*
G01*
X520290Y-290000D02*
G75*
G02*
X526290Y-290000I3000J0D01*
G01*
%TO.C,C1*%
X-77000Y-500000D02*
G75*
G02*
X-83000Y-500000I-3000J0D01*
G01*
X-83000Y-500000D02*
G75*
G02*
X-77000Y-500000I3000J0D01*
G01*
D10*
%TO.C,GS1*%
X-700000Y0D02*
X-600000Y0D01*
X-650000Y50000D02*
X-650000Y-50000D01*
X-600000Y0D02*
G75*
G02*
X-700000Y0I-50000J0D01*
G01*
X-700000Y0D02*
G75*
G02*
X-600000Y0I50000J0D01*
G01*
D11*
%TO.C,C2*%
X-397000Y300000D02*
G75*
G02*
X-403000Y300000I-3000J0D01*
G01*
X-403000Y300000D02*
G75*
G02*
X-397000Y300000I3000J0D01*
G01*
%TO.C,R1*%
X-407000Y-350000D02*
G75*
G02*
X-413000Y-350000I-3000J0D01*
G01*
X-413000Y-350000D02*
G75*
G02*
X-407000Y-350000I3000J0D01*
G01*
%TO.C,D2*%
X-662000Y762000D02*
G75*
G02*
X-668000Y762000I-3000J0D01*
G01*
X-668000Y762000D02*
G75*
G02*
X-662000Y762000I3000J0D01*
G01*
%TD*%
M02*
