%TF.GenerationSoftware,KiCad,Pcbnew,9.0.0*%
%TF.CreationDate,2025-03-28T13:53:40+00:00*%
%TF.ProjectId,vm_light_sensor_0.2,766d5f6c-6967-4687-945f-73656e736f72,v0.2*%
%TF.SameCoordinates,PX510ff40PY47868c0*%
%TF.FileFunction,Copper,L2,Bot*%
%TF.FilePolarity,Positive*%
%FSLAX45Y45*%
G04 Gerber Fmt 4.5, Leading zero omitted, Abs format (unit mm)*
G04 Created by KiCad (PCBNEW 9.0.0) date 2025-03-28 13:53:40*
%MOMM*%
%LPD*%
G01*
G04 APERTURE LIST*
G04 Aperture macros list*
%AMRoundRect*
0 Rectangle with rounded corners*
0 $1 Rounding radius*
0 $2 $3 $4 $5 $6 $7 $8 $9 X,Y pos of 4 corners*
0 Add a 4 corners polygon primitive as box body*
4,1,4,$2,$3,$4,$5,$6,$7,$8,$9,$2,$3,0*
0 Add four circle primitives for the rounded corners*
1,1,$1+$1,$2,$3*
1,1,$1+$1,$4,$5*
1,1,$1+$1,$6,$7*
1,1,$1+$1,$8,$9*
0 Add four rect primitives between the rounded corners*
20,1,$1+$1,$2,$3,$4,$5,0*
20,1,$1+$1,$4,$5,$6,$7,0*
20,1,$1+$1,$6,$7,$8,$9,0*
20,1,$1+$1,$8,$9,$2,$3,0*%
G04 Aperture macros list end*
%TA.AperFunction,ComponentPad*%
%ADD10RoundRect,0.172720X-0.259080X-0.259080X0.259080X-0.259080X0.259080X0.259080X-0.259080X0.259080X0*%
%TD*%
%TA.AperFunction,ComponentPad*%
%ADD11C,0.863600*%
%TD*%
%TA.AperFunction,ViaPad*%
%ADD12C,0.450000*%
%TD*%
%TA.AperFunction,ViaPad*%
%ADD13C,0.600000*%
%TD*%
%TA.AperFunction,Conductor*%
%ADD14C,0.200000*%
%TD*%
G04 APERTURE END LIST*
D10*
%TO.P,J1,1,Vcc*%
%TO.N,+3V3*%
X287500Y700000D03*
D11*
%TO.P,J1,2,SWDIO*%
%TO.N,/SWDIO*%
X287500Y542520D03*
%TO.P,J1,3,GND*%
%TO.N,GND*%
X160500Y700000D03*
%TO.P,J1,4,SWDCLK*%
%TO.N,/SWCLK*%
X160500Y542520D03*
%TO.P,J1,5,~{RESET}*%
%TO.N,/nRESET*%
X33500Y700000D03*
%TD*%
D12*
%TO.N,GND*%
X-500000Y200000D03*
X150000Y-450000D03*
X-500000Y-575000D03*
X125000Y-675000D03*
X-500000Y-200000D03*
D13*
X503290Y-385000D03*
D12*
%TO.N,+3V3*%
X-160000Y30000D03*
X-87500Y615800D03*
X-70000Y-600000D03*
%TO.N,/nRESET*%
X0Y-150000D03*
X-550000Y650000D03*
%TD*%
D14*
%TO.N,+3V3*%
X-230000Y-440000D02*
X-230000Y-40000D01*
X-160000Y543300D02*
X-87500Y615800D01*
X-230000Y-40000D02*
X-160000Y30000D01*
X-70000Y-600000D02*
X-230000Y-440000D01*
X-160000Y30000D02*
X-160000Y543300D01*
%TO.N,/nRESET*%
X-17000Y-133000D02*
X0Y-150000D01*
X-502610Y697390D02*
X-17000Y697390D01*
X-550000Y650000D02*
X-502610Y697390D01*
X-17000Y697390D02*
X-17000Y-133000D01*
%TD*%
%TA.AperFunction,Conductor*%
%TO.N,GND*%
G36*
X647783Y822783D02*
G01*
X649950Y817550D01*
X649950Y-817550D01*
X647783Y-822783D01*
X642550Y-824950D01*
X-642550Y-824950D01*
X-647783Y-822783D01*
X-649950Y-817550D01*
X-649950Y655602D01*
X-592550Y655602D01*
X-592550Y644398D01*
X-589651Y633577D01*
X-589650Y633576D01*
X-587922Y630582D01*
X-584049Y623874D01*
X-576126Y615952D01*
X-566424Y610350D01*
X-555602Y607450D01*
X-555602Y607450D01*
X-555602Y607450D01*
X-544398Y607450D01*
X-544398Y607450D01*
X-533576Y610350D01*
X-523874Y615952D01*
X-515951Y623874D01*
X-510350Y633576D01*
X-507450Y644398D01*
X-507450Y644398D01*
X-507450Y646988D01*
X-505283Y652220D01*
X-492330Y665173D01*
X-487098Y667340D01*
X-110947Y667340D01*
X-105715Y665173D01*
X-103547Y659940D01*
X-105715Y654707D01*
X-107247Y653531D01*
X-113626Y649849D01*
X-121548Y641926D01*
X-127150Y632224D01*
X-127150Y632223D01*
X-130050Y621402D01*
X-130050Y618812D01*
X-132217Y613580D01*
X-184046Y561751D01*
X-188002Y554899D01*
X-188002Y554899D01*
X-190050Y547257D01*
X-190050Y63190D01*
X-192217Y57957D01*
X-194048Y56126D01*
X-199650Y46424D01*
X-199650Y46423D01*
X-202550Y35602D01*
X-202550Y33012D01*
X-204717Y27780D01*
X-254046Y-21549D01*
X-258002Y-28401D01*
X-258002Y-28401D01*
X-260050Y-36044D01*
X-260050Y-443956D01*
X-258002Y-451598D01*
X-258002Y-451599D01*
X-254046Y-458451D01*
X-114717Y-597780D01*
X-112550Y-603012D01*
X-112550Y-605602D01*
X-109650Y-616423D01*
X-109650Y-616424D01*
X-109650Y-616424D01*
X-104048Y-626126D01*
X-96126Y-634049D01*
X-86424Y-639650D01*
X-75602Y-642550D01*
X-75602Y-642550D01*
X-75602Y-642550D01*
X-64398Y-642550D01*
X-64398Y-642550D01*
X-53576Y-639650D01*
X-43874Y-634049D01*
X-35952Y-626126D01*
X-30350Y-616424D01*
X-27450Y-605602D01*
X-27450Y-605602D01*
X-27450Y-594398D01*
X-27450Y-594398D01*
X-30350Y-583577D01*
X-30350Y-583576D01*
X-35952Y-573874D01*
X-43874Y-565952D01*
X-53576Y-560350D01*
X-53577Y-560350D01*
X-64398Y-557450D01*
X-64398Y-557450D01*
X-66988Y-557450D01*
X-72220Y-555283D01*
X-197783Y-429720D01*
X-199950Y-424488D01*
X-199950Y-55512D01*
X-197783Y-50280D01*
X-162220Y-14717D01*
X-156988Y-12550D01*
X-154398Y-12550D01*
X-154398Y-12550D01*
X-143576Y-9650D01*
X-133874Y-4048D01*
X-125951Y3874D01*
X-120350Y13576D01*
X-117450Y24398D01*
X-117450Y24398D01*
X-117450Y35602D01*
X-117450Y35602D01*
X-120350Y46423D01*
X-120350Y46424D01*
X-125951Y56126D01*
X-127783Y57957D01*
X-129950Y63190D01*
X-129950Y527788D01*
X-127783Y533020D01*
X-89720Y571083D01*
X-84488Y573250D01*
X-81898Y573250D01*
X-81898Y573250D01*
X-71076Y576150D01*
X-61374Y581752D01*
X-59683Y583443D01*
X-54450Y585610D01*
X-49217Y583443D01*
X-47050Y578210D01*
X-47050Y-136956D01*
X-45002Y-144599D01*
X-45002Y-144599D01*
X-43542Y-147129D01*
X-42550Y-150829D01*
X-42550Y-155602D01*
X-39651Y-166423D01*
X-39650Y-166424D01*
X-39650Y-166424D01*
X-34049Y-176126D01*
X-26126Y-184048D01*
X-16424Y-189650D01*
X-5602Y-192550D01*
X-5602Y-192550D01*
X-5602Y-192550D01*
X5602Y-192550D01*
X5602Y-192550D01*
X16424Y-189650D01*
X26126Y-184048D01*
X34049Y-176126D01*
X39650Y-166424D01*
X42550Y-155602D01*
X42550Y-155602D01*
X42550Y-144398D01*
X42550Y-144398D01*
X39650Y-133577D01*
X39650Y-133576D01*
X34049Y-123874D01*
X26126Y-115951D01*
X20769Y-112858D01*
X16750Y-110538D01*
X13302Y-106045D01*
X13050Y-104129D01*
X13050Y548748D01*
X97270Y548748D01*
X97270Y536293D01*
X99700Y524077D01*
X99700Y524076D01*
X104466Y512570D01*
X104466Y512569D01*
X104466Y512569D01*
X111386Y502213D01*
X120193Y493406D01*
X130549Y486486D01*
X142057Y481720D01*
X154272Y479290D01*
X154273Y479290D01*
X166728Y479290D01*
X166728Y479290D01*
X178943Y481720D01*
X190451Y486486D01*
X200807Y493406D01*
X209614Y502213D01*
X216534Y512569D01*
X217163Y514089D01*
X221168Y518094D01*
X226832Y518094D01*
X230836Y514090D01*
X231466Y512569D01*
X238386Y502213D01*
X247193Y493406D01*
X257549Y486486D01*
X269057Y481720D01*
X281272Y479290D01*
X281273Y479290D01*
X293728Y479290D01*
X293728Y479290D01*
X305944Y481720D01*
X317451Y486486D01*
X327807Y493406D01*
X336614Y502213D01*
X343534Y512569D01*
X348300Y524076D01*
X350730Y536292D01*
X350730Y548748D01*
X348300Y560964D01*
X347974Y561751D01*
X343534Y572470D01*
X336614Y582826D01*
X336614Y582827D01*
X327807Y591634D01*
X317451Y598554D01*
X317451Y598554D01*
X317450Y598554D01*
X305944Y603320D01*
X305943Y603320D01*
X296740Y605151D01*
X293728Y605750D01*
X281272Y605750D01*
X278856Y605269D01*
X269057Y603320D01*
X269056Y603320D01*
X257550Y598554D01*
X247194Y591634D01*
X238386Y582826D01*
X231466Y572471D01*
X230837Y570951D01*
X226832Y566946D01*
X221168Y566946D01*
X217163Y570951D01*
X216534Y572471D01*
X209614Y582826D01*
X209614Y582827D01*
X200807Y591634D01*
X190451Y598554D01*
X190450Y598554D01*
X190148Y598756D01*
X190235Y598885D01*
X186959Y602878D01*
X187514Y608515D01*
X191208Y611863D01*
X204637Y617425D01*
X206485Y618660D01*
X206485Y618660D01*
X160500Y664645D01*
X114515Y618660D01*
X114515Y618660D01*
X116362Y617425D01*
X129791Y611863D01*
X133796Y607858D01*
X133796Y602194D01*
X130779Y598864D01*
X130852Y598756D01*
X120194Y591634D01*
X111386Y582826D01*
X104466Y572470D01*
X99700Y560964D01*
X99700Y560963D01*
X97270Y548748D01*
X13050Y548748D01*
X13050Y630582D01*
X15217Y635815D01*
X20450Y637982D01*
X21894Y637840D01*
X21958Y637827D01*
X27272Y636770D01*
X27272Y636770D01*
X39728Y636770D01*
X39728Y636770D01*
X51943Y639200D01*
X63451Y643966D01*
X73807Y650886D01*
X74660Y651739D01*
X78457Y653312D01*
X125145Y700000D01*
X125145Y700000D01*
X121466Y703678D01*
X132560Y703678D01*
X132560Y696322D01*
X134464Y689216D01*
X138142Y682844D01*
X143344Y677642D01*
X149716Y673964D01*
X156822Y672060D01*
X164178Y672060D01*
X171284Y673964D01*
X177656Y677642D01*
X182858Y682844D01*
X186536Y689216D01*
X188440Y696322D01*
X188440Y700000D01*
X195855Y700000D01*
X222357Y673498D01*
X224447Y669333D01*
X225327Y663295D01*
X230100Y653531D01*
X230797Y652105D01*
X239605Y643298D01*
X250795Y637827D01*
X258050Y636770D01*
X258050Y636770D01*
X316950Y636770D01*
X316950Y636770D01*
X324205Y637827D01*
X335395Y643298D01*
X344203Y652105D01*
X349673Y663295D01*
X350730Y670550D01*
X350730Y729450D01*
X349673Y736705D01*
X344203Y747895D01*
X335395Y756702D01*
X324205Y762173D01*
X316951Y763230D01*
X316950Y763230D01*
X258050Y763230D01*
X258049Y763230D01*
X250795Y762173D01*
X239605Y756702D01*
X230797Y747895D01*
X225327Y736705D01*
X224447Y730668D01*
X222357Y726502D01*
X195855Y700000D01*
X188440Y700000D01*
X188440Y703678D01*
X186536Y710784D01*
X182858Y717156D01*
X177656Y722358D01*
X171284Y726036D01*
X164178Y727940D01*
X156822Y727940D01*
X149716Y726036D01*
X143344Y722358D01*
X138142Y717156D01*
X134464Y710784D01*
X132560Y703678D01*
X121466Y703678D01*
X78318Y746826D01*
X75198Y747773D01*
X74661Y748260D01*
X73807Y749114D01*
X63451Y756034D01*
X63450Y756034D01*
X63450Y756034D01*
X51944Y760800D01*
X51943Y760800D01*
X42740Y762631D01*
X39728Y763230D01*
X27272Y763230D01*
X24856Y762749D01*
X15057Y760800D01*
X15056Y760800D01*
X3550Y756034D01*
X-6806Y749114D01*
X-15614Y740306D01*
X-22014Y730729D01*
X-26723Y727582D01*
X-28167Y727440D01*
X-506566Y727440D01*
X-514209Y725392D01*
X-514209Y725392D01*
X-521061Y721436D01*
X-547780Y694717D01*
X-553012Y692550D01*
X-555602Y692550D01*
X-566423Y689651D01*
X-566424Y689650D01*
X-576126Y684049D01*
X-584049Y676126D01*
X-589650Y666424D01*
X-589651Y666423D01*
X-592550Y655602D01*
X-649950Y655602D01*
X-649950Y781341D01*
X114515Y781341D01*
X160500Y735355D01*
X206485Y781340D01*
X204637Y782575D01*
X187680Y789599D01*
X187679Y789599D01*
X169677Y793180D01*
X151323Y793180D01*
X133321Y789599D01*
X133320Y789599D01*
X116362Y782575D01*
X114515Y781341D01*
X-649950Y781341D01*
X-649950Y817550D01*
X-647783Y822783D01*
X-642550Y824950D01*
X642550Y824950D01*
X647783Y822783D01*
G37*
%TD.AperFunction*%
%TD*%
M02*
