%TF.GenerationSoftware,KiCad,Pcbnew,9.0.0*%
%TF.CreationDate,2025-03-29T13:30:17+00:00*%
%TF.ProjectId,vm_jacdaptor_0.1,766d5f6a-6163-4646-9170-746f725f302e,v0.1*%
%TF.SameCoordinates,PX58b1140PY3fe56c0*%
%TF.FileFunction,AssemblyDrawing,Top*%
%FSLAX45Y45*%
G04 Gerber Fmt 4.5, Leading zero omitted, Abs format (unit mm)*
G04 Created by KiCad (PCBNEW 9.0.0) date 2025-03-29 13:30:17*
%MOMM*%
%LPD*%
G01*
G04 APERTURE LIST*
%ADD10C,0.100000*%
%ADD11C,0.060000*%
G04 APERTURE END LIST*
D10*
%TO.C,GS3*%
X-450000Y-1100000D02*
X-350000Y-1100000D01*
X-400000Y-1050000D02*
X-400000Y-1150000D01*
X-350000Y-1100000D02*
G75*
G02*
X-450000Y-1100000I-50000J0D01*
G01*
X-450000Y-1100000D02*
G75*
G02*
X-350000Y-1100000I50000J0D01*
G01*
%TO.C,GS12*%
X550000Y-1100000D02*
X650000Y-1100000D01*
X600000Y-1050000D02*
X600000Y-1150000D01*
X650000Y-1100000D02*
G75*
G02*
X550000Y-1100000I-50000J0D01*
G01*
X550000Y-1100000D02*
G75*
G02*
X650000Y-1100000I50000J0D01*
G01*
%TO.C,GS5*%
X-250000Y-1100000D02*
X-150000Y-1100000D01*
X-200000Y-1050000D02*
X-200000Y-1150000D01*
X-150000Y-1100000D02*
G75*
G02*
X-250000Y-1100000I-50000J0D01*
G01*
X-250000Y-1100000D02*
G75*
G02*
X-150000Y-1100000I50000J0D01*
G01*
D11*
%TO.C,R4*%
X1713000Y-380000D02*
G75*
G02*
X1707000Y-380000I-3000J0D01*
G01*
X1707000Y-380000D02*
G75*
G02*
X1713000Y-380000I3000J0D01*
G01*
%TO.C,R1*%
X-1577000Y-590000D02*
G75*
G02*
X-1583000Y-590000I-3000J0D01*
G01*
X-1583000Y-590000D02*
G75*
G02*
X-1577000Y-590000I3000J0D01*
G01*
%TO.C,C7*%
X-1262000Y-800000D02*
G75*
G02*
X-1268000Y-800000I-3000J0D01*
G01*
X-1268000Y-800000D02*
G75*
G02*
X-1262000Y-800000I3000J0D01*
G01*
D10*
%TO.C,GS1*%
X-150000Y-1100000D02*
X-50000Y-1100000D01*
X-100000Y-1050000D02*
X-100000Y-1150000D01*
X-50000Y-1100000D02*
G75*
G02*
X-150000Y-1100000I-50000J0D01*
G01*
X-150000Y-1100000D02*
G75*
G02*
X-50000Y-1100000I50000J0D01*
G01*
D11*
%TO.C,U2*%
X2016000Y-330000D02*
G75*
G02*
X2010000Y-330000I-3000J0D01*
G01*
X2010000Y-330000D02*
G75*
G02*
X2016000Y-330000I3000J0D01*
G01*
D10*
%TO.C,GS10*%
X350000Y-1100000D02*
X450000Y-1100000D01*
X400000Y-1050000D02*
X400000Y-1150000D01*
X450000Y-1100000D02*
G75*
G02*
X350000Y-1100000I-50000J0D01*
G01*
X350000Y-1100000D02*
G75*
G02*
X450000Y-1100000I50000J0D01*
G01*
%TO.C,GS7*%
X50000Y-1100000D02*
X150000Y-1100000D01*
X100000Y-1050000D02*
X100000Y-1150000D01*
X150000Y-1100000D02*
G75*
G02*
X50000Y-1100000I-50000J0D01*
G01*
X50000Y-1100000D02*
G75*
G02*
X150000Y-1100000I50000J0D01*
G01*
D11*
%TO.C,C2*%
X-1657000Y-700000D02*
G75*
G02*
X-1663000Y-700000I-3000J0D01*
G01*
X-1663000Y-700000D02*
G75*
G02*
X-1657000Y-700000I3000J0D01*
G01*
%TO.C,R2*%
X-1757000Y-385000D02*
G75*
G02*
X-1763000Y-385000I-3000J0D01*
G01*
X-1763000Y-385000D02*
G75*
G02*
X-1757000Y-385000I3000J0D01*
G01*
%TO.C,L1*%
X-2187000Y-860000D02*
G75*
G02*
X-2193000Y-860000I-3000J0D01*
G01*
X-2193000Y-860000D02*
G75*
G02*
X-2187000Y-860000I3000J0D01*
G01*
D10*
%TO.C,GS6*%
X-50000Y-1100000D02*
X50000Y-1100000D01*
X0Y-1050000D02*
X0Y-1150000D01*
X50000Y-1100000D02*
G75*
G02*
X-50000Y-1100000I-50000J0D01*
G01*
X-50000Y-1100000D02*
G75*
G02*
X50000Y-1100000I50000J0D01*
G01*
D11*
%TO.C,C1*%
X-2117000Y-560000D02*
G75*
G02*
X-2123000Y-560000I-3000J0D01*
G01*
X-2123000Y-560000D02*
G75*
G02*
X-2117000Y-560000I3000J0D01*
G01*
%TO.C,C6*%
X1853000Y-380000D02*
G75*
G02*
X1847000Y-380000I-3000J0D01*
G01*
X1847000Y-380000D02*
G75*
G02*
X1853000Y-380000I3000J0D01*
G01*
D10*
%TO.C,GS4*%
X-350000Y-1100000D02*
X-250000Y-1100000D01*
X-300000Y-1050000D02*
X-300000Y-1150000D01*
X-250000Y-1100000D02*
G75*
G02*
X-350000Y-1100000I-50000J0D01*
G01*
X-350000Y-1100000D02*
G75*
G02*
X-250000Y-1100000I50000J0D01*
G01*
D11*
%TO.C,U3*%
X-1042000Y-685000D02*
G75*
G02*
X-1048000Y-685000I-3000J0D01*
G01*
X-1048000Y-685000D02*
G75*
G02*
X-1042000Y-685000I3000J0D01*
G01*
%TO.C,C5*%
X2373000Y-380000D02*
G75*
G02*
X2367000Y-380000I-3000J0D01*
G01*
X2367000Y-380000D02*
G75*
G02*
X2373000Y-380000I3000J0D01*
G01*
D10*
%TO.C,GS8*%
X150000Y-1100000D02*
X250000Y-1100000D01*
X200000Y-1050000D02*
X200000Y-1150000D01*
X250000Y-1100000D02*
G75*
G02*
X150000Y-1100000I-50000J0D01*
G01*
X150000Y-1100000D02*
G75*
G02*
X250000Y-1100000I50000J0D01*
G01*
D11*
%TO.C,R3*%
X-862000Y-620000D02*
G75*
G02*
X-868000Y-620000I-3000J0D01*
G01*
X-868000Y-620000D02*
G75*
G02*
X-862000Y-620000I3000J0D01*
G01*
%TO.C,C3*%
X-842000Y-720000D02*
G75*
G02*
X-848000Y-720000I-3000J0D01*
G01*
X-848000Y-720000D02*
G75*
G02*
X-842000Y-720000I3000J0D01*
G01*
D10*
%TO.C,GS11*%
X450000Y-1100000D02*
X550000Y-1100000D01*
X500000Y-1050000D02*
X500000Y-1150000D01*
X550000Y-1100000D02*
G75*
G02*
X450000Y-1100000I-50000J0D01*
G01*
X450000Y-1100000D02*
G75*
G02*
X550000Y-1100000I50000J0D01*
G01*
D11*
%TO.C,U1*%
X-1992000Y-850000D02*
G75*
G02*
X-1998000Y-850000I-3000J0D01*
G01*
X-1998000Y-850000D02*
G75*
G02*
X-1992000Y-850000I3000J0D01*
G01*
D10*
%TO.C,GS14*%
X-550000Y-1100000D02*
X-450000Y-1100000D01*
X-500000Y-1050000D02*
X-500000Y-1150000D01*
X-450000Y-1100000D02*
G75*
G02*
X-550000Y-1100000I-50000J0D01*
G01*
X-550000Y-1100000D02*
G75*
G02*
X-450000Y-1100000I50000J0D01*
G01*
%TO.C,GS9*%
X250000Y-1100000D02*
X350000Y-1100000D01*
X300000Y-1050000D02*
X300000Y-1150000D01*
X350000Y-1100000D02*
G75*
G02*
X250000Y-1100000I-50000J0D01*
G01*
X250000Y-1100000D02*
G75*
G02*
X350000Y-1100000I50000J0D01*
G01*
D11*
%TO.C,SW1*%
X-332000Y-1034500D02*
G75*
G02*
X-338000Y-1034500I-3000J0D01*
G01*
X-338000Y-1034500D02*
G75*
G02*
X-332000Y-1034500I3000J0D01*
G01*
D10*
%TO.C,GS2*%
X650000Y-1100000D02*
X750000Y-1100000D01*
X700000Y-1050000D02*
X700000Y-1150000D01*
X750000Y-1100000D02*
G75*
G02*
X650000Y-1100000I-50000J0D01*
G01*
X650000Y-1100000D02*
G75*
G02*
X750000Y-1100000I50000J0D01*
G01*
X-2900000Y1095000D02*
X2900000Y1095000D01*
X2900000Y1105000D02*
G75*
G02*
X2900000Y1095000I0J-5000D01*
G01*
X2900000Y1105000D02*
X-2900000Y1105000D01*
X-2900000Y1105000D02*
G75*
G03*
X-2900000Y1095000I0J-5000D01*
G01*
X2895000Y1100000D02*
X2895000Y-200000D01*
X2905000Y-200000D02*
G75*
G02*
X2895000Y-200000I-5000J0D01*
G01*
X2905000Y-200000D02*
X2905000Y1100000D01*
X2905000Y1100000D02*
G75*
G03*
X2895000Y1100000I-5000J0D01*
G01*
X2900000Y-195000D02*
X-2900000Y-195000D01*
X-2900000Y-205000D02*
G75*
G02*
X-2900000Y-195000I0J5000D01*
G01*
X-2900000Y-205000D02*
X2900000Y-205000D01*
X2900000Y-205000D02*
G75*
G03*
X2900000Y-195000I0J5000D01*
G01*
X-2895000Y-200000D02*
X-2895000Y1100000D01*
X-2905000Y1100000D02*
G75*
G02*
X-2895000Y1100000I5000J0D01*
G01*
X-2905000Y1100000D02*
X-2905000Y-200000D01*
X-2905000Y-200000D02*
G75*
G03*
X-2895000Y-200000I5000J0D01*
G01*
D11*
%TO.C,J1*%
D10*
X-2725000Y-131000D02*
G75*
G02*
X-2735000Y-131000I-5000J0D01*
G01*
X-2735000Y-131000D02*
G75*
G02*
X-2725000Y-131000I5000J0D01*
G01*
X-2729000Y-131000D02*
G75*
G02*
X-2731000Y-131000I-1000J0D01*
G01*
X-2731000Y-131000D02*
G75*
G02*
X-2729000Y-131000I1000J0D01*
G01*
%TO.C,GS13*%
X-650000Y-1100000D02*
X-550000Y-1100000D01*
X-600000Y-1050000D02*
X-600000Y-1150000D01*
X-550000Y-1100000D02*
G75*
G02*
X-650000Y-1100000I-50000J0D01*
G01*
X-650000Y-1100000D02*
G75*
G02*
X-550000Y-1100000I50000J0D01*
G01*
D11*
%TO.C,C4*%
X-812000Y-450000D02*
G75*
G02*
X-818000Y-450000I-3000J0D01*
G01*
X-818000Y-450000D02*
G75*
G02*
X-812000Y-450000I3000J0D01*
G01*
%TO.C,D2*%
X-882000Y-845000D02*
G75*
G02*
X-888000Y-845000I-3000J0D01*
G01*
X-888000Y-845000D02*
G75*
G02*
X-882000Y-845000I3000J0D01*
G01*
%TO.C,D1*%
X1613000Y-600000D02*
G75*
G02*
X1607000Y-600000I-3000J0D01*
G01*
X1607000Y-600000D02*
G75*
G02*
X1613000Y-600000I3000J0D01*
G01*
%TD*%
D10*
X-2905000Y1105000D02*
X2905000Y-205000D01*
X-2905000Y-205000D02*
X2905000Y1105000D01*
M02*
