%TF.GenerationSoftware,KiCad,Pcbnew,9.0.0*%
%TF.CreationDate,2025-04-09T22:06:35+01:00*%
%TF.ProjectId,vm_jacdaptor_0.1,766d5f6a-6163-4646-9170-746f725f302e,v0.1*%
%TF.SameCoordinates,PX58b1140PY3fe56c0*%
%TF.FileFunction,AssemblyDrawing,Bot*%
%FSLAX45Y45*%
G04 Gerber Fmt 4.5, Leading zero omitted, Abs format (unit mm)*
G04 Created by KiCad (PCBNEW 9.0.0) date 2025-04-09 22:06:35*
%MOMM*%
%LPD*%
G01*
G04 APERTURE LIST*
%ADD10C,0.100000*%
G04 APERTURE END LIST*
D10*
%TO.C,GS12*%
X550000Y-1100000D02*
X650000Y-1100000D01*
X600000Y-1150000D02*
X600000Y-1050000D01*
X650000Y-1100000D02*
G75*
G02*
X550000Y-1100000I-50000J0D01*
G01*
X550000Y-1100000D02*
G75*
G02*
X650000Y-1100000I50000J0D01*
G01*
%TO.C,GS5*%
X-250000Y-1100000D02*
X-150000Y-1100000D01*
X-200000Y-1150000D02*
X-200000Y-1050000D01*
X-150000Y-1100000D02*
G75*
G02*
X-250000Y-1100000I-50000J0D01*
G01*
X-250000Y-1100000D02*
G75*
G02*
X-150000Y-1100000I50000J0D01*
G01*
%TO.C,GS10*%
X350000Y-1100000D02*
X450000Y-1100000D01*
X400000Y-1150000D02*
X400000Y-1050000D01*
X450000Y-1100000D02*
G75*
G02*
X350000Y-1100000I-50000J0D01*
G01*
X350000Y-1100000D02*
G75*
G02*
X450000Y-1100000I50000J0D01*
G01*
%TO.C,GS7*%
X50000Y-1100000D02*
X150000Y-1100000D01*
X100000Y-1150000D02*
X100000Y-1050000D01*
X150000Y-1100000D02*
G75*
G02*
X50000Y-1100000I-50000J0D01*
G01*
X50000Y-1100000D02*
G75*
G02*
X150000Y-1100000I50000J0D01*
G01*
%TO.C,GS6*%
X-50000Y-1100000D02*
X50000Y-1100000D01*
X0Y-1150000D02*
X0Y-1050000D01*
X50000Y-1100000D02*
G75*
G02*
X-50000Y-1100000I-50000J0D01*
G01*
X-50000Y-1100000D02*
G75*
G02*
X50000Y-1100000I50000J0D01*
G01*
%TO.C,GS4*%
X-350000Y-1100000D02*
X-250000Y-1100000D01*
X-300000Y-1150000D02*
X-300000Y-1050000D01*
X-250000Y-1100000D02*
G75*
G02*
X-350000Y-1100000I-50000J0D01*
G01*
X-350000Y-1100000D02*
G75*
G02*
X-250000Y-1100000I50000J0D01*
G01*
%TO.C,GS8*%
X150000Y-1100000D02*
X250000Y-1100000D01*
X200000Y-1150000D02*
X200000Y-1050000D01*
X250000Y-1100000D02*
G75*
G02*
X150000Y-1100000I-50000J0D01*
G01*
X150000Y-1100000D02*
G75*
G02*
X250000Y-1100000I50000J0D01*
G01*
%TO.C,GS11*%
X450000Y-1100000D02*
X550000Y-1100000D01*
X500000Y-1150000D02*
X500000Y-1050000D01*
X550000Y-1100000D02*
G75*
G02*
X450000Y-1100000I-50000J0D01*
G01*
X450000Y-1100000D02*
G75*
G02*
X550000Y-1100000I50000J0D01*
G01*
%TO.C,GS9*%
X250000Y-1100000D02*
X350000Y-1100000D01*
X300000Y-1150000D02*
X300000Y-1050000D01*
X350000Y-1100000D02*
G75*
G02*
X250000Y-1100000I-50000J0D01*
G01*
X250000Y-1100000D02*
G75*
G02*
X350000Y-1100000I50000J0D01*
G01*
%TD*%
X-2905000Y1105000D02*
X2905000Y-205000D01*
X-2905000Y-205000D02*
X2905000Y1105000D01*
M02*
