%TF.GenerationSoftware,KiCad,Pcbnew,9.0.0*%
%TF.CreationDate,2025-03-31T12:08:15+01:00*%
%TF.ProjectId,vm_jacdaptor_0.1,766d5f6a-6163-4646-9170-746f725f302e,v0.1*%
%TF.SameCoordinates,PX58b1140PY3fe56c0*%
%TF.FileFunction,Copper,L1,Top*%
%TF.FilePolarity,Positive*%
%FSLAX45Y45*%
G04 Gerber Fmt 4.5, Leading zero omitted, Abs format (unit mm)*
G04 Created by KiCad (PCBNEW 9.0.0) date 2025-03-31 12:08:15*
%MOMM*%
%LPD*%
G01*
G04 APERTURE LIST*
%TA.AperFunction,ComponentPad*%
%ADD10R,1.700000X1.700000*%
%TD*%
%TA.AperFunction,ComponentPad*%
%ADD11O,1.700000X1.700000*%
%TD*%
%TA.AperFunction,SMDPad,CuDef*%
%ADD12C,0.125000*%
%TD*%
%TA.AperFunction,SMDPad,CuDef*%
%ADD13R,0.860000X0.810000*%
%TD*%
%TA.AperFunction,SMDPad,CuDef*%
%ADD14R,0.800000X0.900000*%
%TD*%
%TA.AperFunction,SMDPad,CuDef*%
%ADD15R,1.000000X0.700000*%
%TD*%
%TA.AperFunction,SMDPad,CuDef*%
%ADD16R,0.900000X0.800000*%
%TD*%
%TA.AperFunction,SMDPad,CuDef*%
%ADD17R,0.810000X0.860000*%
%TD*%
%TA.AperFunction,SMDPad,CuDef*%
%ADD18R,3.320000X1.500000*%
%TD*%
%TA.AperFunction,SMDPad,CuDef*%
%ADD19R,1.100000X0.600000*%
%TD*%
%TA.AperFunction,SMDPad,CuDef*%
%ADD20R,0.600000X1.100000*%
%TD*%
%TA.AperFunction,SMDPad,CuDef*%
%ADD21R,2.000000X1.200000*%
%TD*%
%TA.AperFunction,SMDPad,CuDef*%
%ADD22R,0.800000X2.500000*%
%TD*%
%TA.AperFunction,ComponentPad*%
%ADD23O,1.100000X5.500000*%
%TD*%
%TA.AperFunction,SMDPad,CuDef*%
%ADD24R,1.000000X1.200000*%
%TD*%
%TA.AperFunction,SMDPad,CuDef*%
%ADD25R,1.250000X0.700000*%
%TD*%
%TA.AperFunction,ViaPad*%
%ADD26C,0.600000*%
%TD*%
%TA.AperFunction,ViaPad*%
%ADD27C,0.450000*%
%TD*%
%TA.AperFunction,Conductor*%
%ADD28C,0.500000*%
%TD*%
%TA.AperFunction,Conductor*%
%ADD29C,0.250000*%
%TD*%
%TA.AperFunction,Conductor*%
%ADD30C,0.200000*%
%TD*%
G04 APERTURE END LIST*
D10*
%TO.P,J2,1,Pin_1*%
%TO.N,GND*%
X1395000Y-920000D03*
D11*
%TO.P,J2,2,Pin_2*%
%TO.N,/RESET*%
X1649000Y-920000D03*
%TO.P,J2,3,Pin_3*%
%TO.N,/SWCLK*%
X1903000Y-920000D03*
%TO.P,J2,4,Pin_4*%
%TO.N,/JD_DATA*%
X2157000Y-920000D03*
%TO.P,J2,5,Pin_5*%
%TO.N,JD_PWR*%
X2411000Y-920000D03*
%TO.P,J2,6,Pin_6*%
%TO.N,+3V3*%
X2665000Y-920000D03*
%TD*%
D12*
%TO.P,GS3,1,GND*%
%TO.N,GND*%
X-400000Y-1100000D03*
%TD*%
D13*
%TO.P,R4,1*%
%TO.N,/JD_DATA_MCU*%
X1750000Y-385000D03*
%TO.P,R4,2*%
%TO.N,/JD_DATA*%
X1750000Y-535000D03*
%TD*%
%TO.P,R1,1*%
%TO.N,+4V15*%
X-1620000Y-585000D03*
%TO.P,R1,2*%
%TO.N,Net-(U1-FB)*%
X-1620000Y-435000D03*
%TD*%
D14*
%TO.P,C7,1*%
%TO.N,Net-(U3-OUT)*%
X-1255000Y-760000D03*
%TO.P,C7,2*%
%TO.N,GND*%
X-1115000Y-760000D03*
%TD*%
D12*
%TO.P,GS1,1,JD_PWR*%
%TO.N,JD_PWR*%
X-100000Y-1100000D03*
%TD*%
D15*
%TO.P,U2,1,IN*%
%TO.N,Net-(U2-EN)*%
X2030000Y-385000D03*
%TO.P,U2,2,GND*%
%TO.N,GND*%
X2030000Y-480000D03*
%TO.P,U2,3,EN*%
%TO.N,Net-(U2-EN)*%
X2030000Y-575000D03*
%TO.P,U2,4,N/C*%
%TO.N,GND*%
X2270000Y-575000D03*
%TO.P,U2,5,OUT*%
%TO.N,+3V3*%
X2270000Y-385000D03*
%TD*%
D16*
%TO.P,C2,1*%
%TO.N,+4V15*%
X-1620000Y-710000D03*
%TO.P,C2,2*%
%TO.N,GND*%
X-1620000Y-850000D03*
%TD*%
D17*
%TO.P,R2,1*%
%TO.N,Net-(U1-FB)*%
X-1765000Y-425000D03*
%TO.P,R2,2*%
%TO.N,GND*%
X-1915000Y-425000D03*
%TD*%
D18*
%TO.P,L1,1,1*%
%TO.N,+3V3*%
X-2340000Y-577000D03*
%TO.P,L1,2,2*%
%TO.N,Net-(U1-SW)*%
X-2340000Y-843000D03*
%TD*%
D16*
%TO.P,C1,1*%
%TO.N,+3V3*%
X-2080000Y-570000D03*
%TO.P,C1,2*%
%TO.N,GND*%
X-2080000Y-710000D03*
%TD*%
%TO.P,C6,1*%
%TO.N,Net-(U2-EN)*%
X1890000Y-390000D03*
%TO.P,C6,2*%
%TO.N,GND*%
X1890000Y-530000D03*
%TD*%
D19*
%TO.P,U3,1,IN*%
%TO.N,+4V15*%
X-1050000Y-635000D03*
%TO.P,U3,2,GND*%
%TO.N,GND*%
X-1050000Y-540000D03*
%TO.P,U3,3,EN*%
%TO.N,Net-(U3-EN)*%
X-1050000Y-445000D03*
%TO.P,U3,4,~{FAULT}*%
X-1320000Y-445000D03*
%TO.P,U3,5,ILIM*%
%TO.N,+4V15*%
X-1320000Y-540000D03*
%TO.P,U3,6,OUT*%
%TO.N,Net-(U3-OUT)*%
X-1320000Y-635000D03*
%TD*%
D16*
%TO.P,C5,1*%
%TO.N,+3V3*%
X2410000Y-390000D03*
%TO.P,C5,2*%
%TO.N,GND*%
X2410000Y-530000D03*
%TD*%
D13*
%TO.P,R3,1*%
%TO.N,+4V15*%
X-905000Y-615000D03*
%TO.P,R3,2*%
%TO.N,Net-(U3-EN)*%
X-905000Y-465000D03*
%TD*%
D14*
%TO.P,C3,1*%
%TO.N,+4V15*%
X-855000Y-760000D03*
%TO.P,C3,2*%
%TO.N,GND*%
X-995000Y-760000D03*
%TD*%
D20*
%TO.P,U1,1,SW*%
%TO.N,Net-(U1-SW)*%
X-1945000Y-845000D03*
%TO.P,U1,2,GND*%
%TO.N,GND*%
X-1850000Y-845000D03*
%TO.P,U1,3,EN*%
%TO.N,+3V3*%
X-1755000Y-845000D03*
%TO.P,U1,4,FB*%
%TO.N,Net-(U1-FB)*%
X-1755000Y-575000D03*
%TO.P,U1,5,VOUT*%
%TO.N,+4V15*%
X-1850000Y-575000D03*
%TO.P,U1,6,VBAT*%
%TO.N,+3V3*%
X-1945000Y-575000D03*
%TD*%
D12*
%TO.P,GS14,1,RESET*%
%TO.N,/RESET*%
X-500000Y-1100000D03*
%TD*%
D21*
%TO.P,SW1,1,1*%
%TO.N,Net-(D2-Pad1)*%
X-260000Y-964500D03*
%TO.P,SW1,2,2*%
%TO.N,JD_PWR*%
X-260000Y-714500D03*
%TO.P,SW1,3,3*%
%TO.N,Net-(U2-EN)*%
X-260000Y-464500D03*
%TO.P,SW1,4,4*%
%TO.N,unconnected-(SW1-Pad4)*%
X310000Y-964500D03*
%TO.P,SW1,5,5*%
%TO.N,unconnected-(SW1-Pad5)*%
X310000Y-714500D03*
%TO.P,SW1,6,6*%
%TO.N,unconnected-(SW1-Pad6)*%
X310000Y-464500D03*
%TD*%
D12*
%TO.P,GS2,1,JD_DATA*%
%TO.N,/JD_DATA*%
X700000Y-1100000D03*
%TD*%
D22*
%TO.P,J1,1,P3*%
%TO.N,unconnected-(J1-P3-Pad1)*%
X-2476000Y-26000D03*
%TO.P,J1,2,P0*%
%TO.N,/SWCLK*%
X-2349000Y-26000D03*
%TO.P,J1,3,P0*%
X-2222000Y-26000D03*
%TO.P,J1,4,P0*%
X-2095000Y-26000D03*
%TO.P,J1,5,P0*%
X-1968000Y-26000D03*
%TO.P,J1,6,P4*%
%TO.N,unconnected-(J1-P4-Pad6)*%
X-1841000Y-26000D03*
%TO.P,J1,7,P5*%
%TO.N,unconnected-(J1-P5-Pad7)*%
X-1714000Y-26000D03*
%TO.P,J1,8,P6*%
%TO.N,unconnected-(J1-P6-Pad8)*%
X-1587000Y-26000D03*
%TO.P,J1,9,P7*%
%TO.N,unconnected-(J1-P7-Pad9)*%
X-1461000Y-26000D03*
%TO.P,J1,10,P1*%
%TO.N,/RESET*%
X-1334000Y-26000D03*
%TO.P,J1,11,P1*%
X-1206000Y-26000D03*
%TO.P,J1,12,P1*%
X-1079000Y-26000D03*
%TO.P,J1,13,P1*%
X-952000Y-26000D03*
%TO.P,J1,14,P8*%
%TO.N,/SWDIO_0*%
X-825000Y-26000D03*
%TO.P,J1,15,P9*%
%TO.N,/SWDIO_1*%
X-698000Y-26000D03*
%TO.P,J1,16,P10*%
%TO.N,unconnected-(J1-P10-Pad16)*%
X-571000Y-26000D03*
%TO.P,J1,17,P11*%
%TO.N,unconnected-(J1-P11-Pad17)*%
X-444000Y-26000D03*
%TO.P,J1,18,P12*%
%TO.N,/JD_DATA_MCU*%
X-317000Y-26000D03*
%TO.P,J1,19,P2*%
%TO.N,/SWDIO_2*%
X-190000Y-26000D03*
%TO.P,J1,20,P2*%
X-63000Y-26000D03*
%TO.P,J1,21,P2*%
X63000Y-26000D03*
%TO.P,J1,22,P2*%
X190000Y-26000D03*
%TO.P,J1,23,P13*%
%TO.N,/SWDIO_3*%
X317000Y-26000D03*
%TO.P,J1,24,P14*%
%TO.N,/SWDIO_4*%
X445000Y-26000D03*
%TO.P,J1,25,P15*%
%TO.N,/SWDIO_5*%
X572000Y-26000D03*
%TO.P,J1,26,P16*%
%TO.N,/SWDIO_6*%
X699000Y-26000D03*
%TO.P,J1,27,3V3*%
%TO.N,+3V3*%
X826000Y-26000D03*
%TO.P,J1,28,3V3*%
X953000Y-26000D03*
%TO.P,J1,29,3V3*%
X1080000Y-26000D03*
%TO.P,J1,30,3V3*%
X1207000Y-26000D03*
%TO.P,J1,31,3V3*%
X1334000Y-26000D03*
%TO.P,J1,32,3V3*%
X1461000Y-26000D03*
%TO.P,J1,33,P19*%
%TO.N,/SWDIO_7*%
X1588000Y-26000D03*
%TO.P,J1,34,P20*%
%TO.N,/SWDIO_8*%
X1714000Y-26000D03*
%TO.P,J1,35,GND*%
%TO.N,GND*%
X1841000Y-26000D03*
%TO.P,J1,36,GND*%
X1969000Y-26000D03*
%TO.P,J1,37,GND*%
X2096000Y-26000D03*
%TO.P,J1,38,GND*%
X2223000Y-26000D03*
%TO.P,J1,39,GND*%
X2350000Y-26000D03*
%TO.P,J1,40,GND*%
X2477000Y-26000D03*
D23*
%TO.P,J1,41*%
%TO.N,N/C*%
X2700000Y825000D03*
%TO.P,J1,42*%
X-2700000Y825000D03*
%TD*%
D12*
%TO.P,GS13,1,SWCLK*%
%TO.N,/SWCLK*%
X-600000Y-1100000D03*
%TD*%
D16*
%TO.P,C4,1*%
%TO.N,Net-(U3-EN)*%
X-775000Y-460000D03*
%TO.P,C4,2*%
%TO.N,GND*%
X-775000Y-600000D03*
%TD*%
D24*
%TO.P,D2,1*%
%TO.N,Net-(D2-Pad1)*%
X-915000Y-930000D03*
%TO.P,D2,2*%
%TO.N,Net-(U3-OUT)*%
X-1225000Y-930000D03*
%TD*%
D25*
%TO.P,D1,1*%
%TO.N,GND*%
X1590000Y-550000D03*
%TO.P,D1,2*%
%TO.N,+3V3*%
X1590000Y-360000D03*
%TO.P,D1,3*%
%TO.N,/JD_DATA_MCU*%
X1390000Y-455000D03*
%TD*%
D26*
%TO.N,+3V3*%
X-1750000Y-750100D03*
X-2067500Y-367500D03*
D27*
%TO.N,GND*%
X-1465000Y-445000D03*
D26*
X-2006819Y-444689D03*
D27*
X1940000Y-480000D03*
X-335000Y-305000D03*
X-402500Y-1020000D03*
X-745000Y-830000D03*
D26*
X-1930000Y-710000D03*
D27*
X2170000Y-635000D03*
X945000Y-695000D03*
X-1420000Y-245000D03*
X1435000Y-550000D03*
X1140000Y-810000D03*
X-2260000Y-255000D03*
X1020000Y-965000D03*
%TO.N,/JD_DATA*%
X1808099Y-468914D03*
X700000Y-1020000D03*
%TO.N,/SWDIO_1*%
X-700000Y-190000D03*
%TO.N,/SWDIO_2*%
X-60000Y-180000D03*
%TO.N,/SWDIO_3*%
X320000Y-176900D03*
%TO.N,/SWDIO_4*%
X440000Y-176900D03*
%TO.N,/SWDIO_5*%
X570000Y-180000D03*
%TO.N,/SWDIO_6*%
X700000Y-180000D03*
%TO.N,/SWDIO_7*%
X1590000Y-190000D03*
%TO.N,/SWCLK*%
X-6851Y-863829D03*
X-600000Y-1020000D03*
X-1970000Y-190000D03*
X-198693Y-862000D03*
X-600000Y-830000D03*
%TO.N,/RESET*%
X-32782Y-772782D03*
X-500000Y-760000D03*
X-500000Y-1020000D03*
X-152500Y-816322D03*
X-950000Y-190000D03*
%TO.N,/SWDIO_0*%
X-820000Y-190000D03*
%TO.N,/SWDIO_8*%
X1720000Y-190000D03*
%TD*%
D28*
%TO.N,+3V3*%
X-2036900Y-336900D02*
X-637800Y-336900D01*
X-2067500Y-367500D02*
X-2036900Y-336900D01*
X1390059Y-719900D02*
X2464900Y-719900D01*
X2464900Y-719900D02*
X2665000Y-920000D01*
X-2087000Y-577000D02*
X-2080000Y-570000D01*
X2184400Y-299400D02*
X1650600Y-299400D01*
X2275000Y-390000D02*
X2270000Y-385000D01*
X-2080000Y-570000D02*
X-1950000Y-570000D01*
X-384700Y-590000D02*
X-65700Y-590000D01*
D29*
X953000Y-26000D02*
X1080000Y-26000D01*
D28*
X2505000Y-390000D02*
X2665000Y-550000D01*
X-2340000Y-577000D02*
X-2087000Y-577000D01*
X-637800Y-336900D02*
X-384700Y-590000D01*
X2270000Y-385000D02*
X2184400Y-299400D01*
X495700Y-400000D02*
X1070159Y-400000D01*
X-1950000Y-570000D02*
X-1945000Y-575000D01*
X-2580000Y120000D02*
X-2540000Y160000D01*
X1650600Y-299400D02*
X1590000Y-360000D01*
X-2340000Y-577000D02*
X-2340000Y-490000D01*
D29*
X826000Y-26000D02*
X953000Y-26000D01*
X1080000Y-26000D02*
X1207000Y-26000D01*
D28*
X826000Y102200D02*
X826000Y-26000D01*
D29*
X-1755000Y-845000D02*
X-1755000Y-755100D01*
D28*
X-2340000Y-490000D02*
X-2217500Y-367500D01*
D29*
X-2080000Y-380000D02*
X-2067500Y-367500D01*
D28*
X-2217500Y-367500D02*
X-2067500Y-367500D01*
X2665000Y-550000D02*
X2665000Y-920000D01*
D29*
X1207000Y-26000D02*
X1334000Y-26000D01*
D28*
X1461000Y-26000D02*
X1461000Y-231000D01*
X1461000Y-231000D02*
X1590000Y-360000D01*
X455100Y-359400D02*
X495700Y-400000D01*
X1070159Y-400000D02*
X1390059Y-719900D01*
X-65700Y-590000D02*
X164900Y-359400D01*
X-2067500Y-367500D02*
X-2389700Y-367500D01*
X-2389700Y-367500D02*
X-2580000Y-177200D01*
X2410000Y-390000D02*
X2505000Y-390000D01*
D29*
X1334000Y-26000D02*
X1461000Y-26000D01*
D28*
X768200Y160000D02*
X826000Y102200D01*
D29*
X-1755000Y-755100D02*
X-1750000Y-750100D01*
D28*
X-2540000Y160000D02*
X768200Y160000D01*
X164900Y-359400D02*
X455100Y-359400D01*
X2410000Y-390000D02*
X2275000Y-390000D01*
X-2580000Y-177200D02*
X-2580000Y120000D01*
%TO.N,GND*%
X-1890000Y-710000D02*
X-1930000Y-710000D01*
X-995000Y-760000D02*
X-1115000Y-760000D01*
D29*
X2270000Y-575000D02*
X2230000Y-575000D01*
X-835000Y-540000D02*
X-775000Y-600000D01*
X-1050000Y-540000D02*
X-835000Y-540000D01*
D28*
X-1850000Y-750000D02*
X-1890000Y-710000D01*
X-1915000Y-425000D02*
X-1930200Y-440200D01*
X1940000Y-480000D02*
X1890000Y-530000D01*
D29*
X-400000Y-1100000D02*
X-400000Y-1022500D01*
D28*
X-1930200Y-440200D02*
X-2003058Y-440200D01*
X2365000Y-575000D02*
X2410000Y-530000D01*
D29*
X2230000Y-575000D02*
X2170000Y-635000D01*
D28*
X-1850000Y-845000D02*
X-1850000Y-750000D01*
X2030000Y-480000D02*
X1940000Y-480000D01*
X2270000Y-575000D02*
X2365000Y-575000D01*
X-2080000Y-710000D02*
X-1930000Y-710000D01*
D29*
X-400000Y-1022500D02*
X-402500Y-1020000D01*
D28*
%TO.N,+4V15*%
X-1654900Y-675100D02*
X-1620000Y-710000D01*
X-1050000Y-635000D02*
X-925000Y-635000D01*
X-1200000Y-540000D02*
X-1105000Y-635000D01*
X-905000Y-615000D02*
X-905000Y-710000D01*
X-1620000Y-585000D02*
X-1575000Y-540000D01*
X-925000Y-635000D02*
X-905000Y-615000D01*
X-1575000Y-540000D02*
X-1320000Y-540000D01*
X-1320000Y-540000D02*
X-1200000Y-540000D01*
X-1620000Y-585000D02*
X-1620000Y-710000D01*
X-905000Y-710000D02*
X-855000Y-760000D01*
X-1850000Y-575000D02*
X-1850000Y-643934D01*
X-1105000Y-635000D02*
X-1050000Y-635000D01*
X-1818834Y-675100D02*
X-1654900Y-675100D01*
X-1850000Y-643934D02*
X-1818834Y-675100D01*
D29*
%TO.N,Net-(U3-EN)*%
X-925000Y-445000D02*
X-905000Y-465000D01*
X-1050000Y-445000D02*
X-1320000Y-445000D01*
X-1050000Y-445000D02*
X-925000Y-445000D01*
X-905000Y-465000D02*
X-780000Y-465000D01*
X-780000Y-465000D02*
X-775000Y-460000D01*
D28*
%TO.N,Net-(U2-EN)*%
X135905Y-289400D02*
X-39195Y-464500D01*
X2110200Y-575000D02*
X2125100Y-560100D01*
X-39195Y-464500D02*
X-260000Y-464500D01*
X1890000Y-390000D02*
X2025000Y-390000D01*
X2030000Y-575000D02*
X2110200Y-575000D01*
X2110200Y-385000D02*
X2030000Y-385000D01*
X1955100Y-649900D02*
X1419053Y-649900D01*
X2125100Y-399900D02*
X2110200Y-385000D01*
X2030000Y-575000D02*
X1955100Y-649900D01*
X1089154Y-320000D02*
X514695Y-320000D01*
X484095Y-289400D02*
X135905Y-289400D01*
X1419053Y-649900D02*
X1089154Y-320000D01*
X2025000Y-390000D02*
X2030000Y-385000D01*
X2125100Y-560100D02*
X2125100Y-399900D01*
X514695Y-320000D02*
X484095Y-289400D01*
%TO.N,Net-(U3-OUT)*%
X-1255000Y-825000D02*
X-1225000Y-855000D01*
X-1255000Y-760000D02*
X-1255000Y-825000D01*
X-1255000Y-700000D02*
X-1320000Y-635000D01*
X-1225000Y-855000D02*
X-1225000Y-930000D01*
X-1255000Y-760000D02*
X-1255000Y-700000D01*
D29*
%TO.N,/JD_DATA_MCU*%
X-317000Y-111000D02*
X-317000Y-26000D01*
D28*
X1680000Y-455000D02*
X1750000Y-385000D01*
D29*
X507912Y-231900D02*
X112088Y-231900D01*
X112088Y-231900D02*
X93988Y-250000D01*
X-178000Y-250000D02*
X-317000Y-111000D01*
X1185000Y-250000D02*
X526012Y-250000D01*
D28*
X1390000Y-455000D02*
X1680000Y-455000D01*
D29*
X93988Y-250000D02*
X-178000Y-250000D01*
X1390000Y-455000D02*
X1185000Y-250000D01*
X526012Y-250000D02*
X507912Y-231900D01*
D28*
%TO.N,Net-(D2-Pad1)*%
X-294500Y-930000D02*
X-260000Y-964500D01*
X-915000Y-930000D02*
X-294500Y-930000D01*
%TO.N,JD_PWR*%
X104988Y-655012D02*
X190400Y-569600D01*
X-260000Y-714500D02*
X-72960Y-714500D01*
X1044400Y-569600D02*
X1264800Y-790000D01*
X-49230Y-690770D02*
X-13472Y-655012D01*
X-72960Y-714500D02*
X-49230Y-690770D01*
X-13472Y-655012D02*
X104988Y-655012D01*
D30*
X-100000Y-1100000D02*
X-100000Y-741540D01*
D28*
X190400Y-569600D02*
X1044400Y-569600D01*
X2281000Y-790000D02*
X2411000Y-920000D01*
X1264800Y-790000D02*
X2281000Y-790000D01*
D30*
X-100000Y-741540D02*
X-72960Y-714500D01*
D29*
%TO.N,/JD_DATA*%
X700000Y-1020000D02*
X700000Y-1100000D01*
X1808099Y-476900D02*
X1750000Y-535000D01*
X1808099Y-468914D02*
X1808099Y-476900D01*
%TO.N,/SWDIO_1*%
X-700000Y-190000D02*
X-700000Y-28000D01*
X-700000Y-28000D02*
X-698000Y-26000D01*
%TO.N,/SWDIO_2*%
X-63000Y-177000D02*
X-60000Y-180000D01*
X-190000Y-26000D02*
X-63000Y-26000D01*
X63000Y-26000D02*
X190000Y-26000D01*
X-63000Y-26000D02*
X63000Y-26000D01*
X-63000Y-26000D02*
X-63000Y-177000D01*
%TO.N,/SWDIO_3*%
X317000Y-26000D02*
X320000Y-29000D01*
X320000Y-29000D02*
X320000Y-176900D01*
%TO.N,/SWDIO_4*%
X440000Y-31000D02*
X440000Y-176900D01*
X445000Y-26000D02*
X440000Y-31000D01*
%TO.N,/SWDIO_5*%
X572000Y-178000D02*
X570000Y-180000D01*
X572000Y-26000D02*
X572000Y-178000D01*
%TO.N,/SWDIO_6*%
X699000Y-26000D02*
X699000Y-179000D01*
X699000Y-179000D02*
X700000Y-180000D01*
%TO.N,/SWDIO_7*%
X1590000Y-190000D02*
X1590000Y-28000D01*
X1590000Y-28000D02*
X1588000Y-26000D01*
%TO.N,/SWCLK*%
X-600000Y-1100000D02*
X-600000Y-1020000D01*
X-600000Y-830000D02*
X-568000Y-862000D01*
D28*
X-2349000Y-26000D02*
X-2222000Y-26000D01*
X-2095000Y-26000D02*
X-1968000Y-26000D01*
D29*
X-568000Y-862000D02*
X-198693Y-862000D01*
X-1970000Y-28000D02*
X-1968000Y-26000D01*
X1010000Y-855000D02*
X1978Y-855000D01*
X1740200Y-1082800D02*
X1237800Y-1082800D01*
X1903000Y-920000D02*
X1740200Y-1082800D01*
X-1970000Y-190000D02*
X-1970000Y-28000D01*
X1978Y-855000D02*
X-6851Y-863829D01*
D28*
X-2222000Y-26000D02*
X-2095000Y-26000D01*
D29*
X1237800Y-1082800D02*
X1010000Y-855000D01*
%TO.N,/RESET*%
X-149514Y-814325D02*
X-149514Y-814933D01*
X-151812Y-816190D02*
X-151823Y-816202D01*
X-149123Y-815519D02*
X-150974Y-815519D01*
X-500000Y-760000D02*
X-452900Y-807100D01*
X-152232Y-816256D02*
X-152360Y-816256D01*
X1649000Y-920000D02*
X1531400Y-1037600D01*
X-152484Y-816307D02*
X-152500Y-816322D01*
X-212963Y-807100D02*
X-212862Y-807000D01*
X-152395Y-816291D02*
X-152425Y-816291D01*
X-152425Y-816291D02*
X-152441Y-816307D01*
X1030000Y-810000D02*
X4436Y-810000D01*
X-153210Y-807000D02*
X-152500Y-807710D01*
X4436Y-810000D02*
X-32782Y-772782D01*
X-152177Y-816202D02*
X-152232Y-816256D01*
X-151411Y-816016D02*
X-151785Y-816016D01*
X-152500Y-811339D02*
X-149514Y-814325D01*
X-950000Y-28000D02*
X-952000Y-26000D01*
D28*
X-1206000Y-26000D02*
X-1079000Y-26000D01*
D29*
X-212862Y-807000D02*
X-153210Y-807000D01*
X-149072Y-815468D02*
X-149123Y-815519D01*
X-151812Y-816042D02*
X-151812Y-816190D01*
X-151107Y-815711D02*
X-151411Y-816016D01*
X-150974Y-815519D02*
X-151107Y-815653D01*
D28*
X-1079000Y-26000D02*
X-952000Y-26000D01*
D29*
X-151823Y-816202D02*
X-152177Y-816202D01*
X-152441Y-816307D02*
X-152484Y-816307D01*
X-149514Y-814933D02*
X-149072Y-815375D01*
X-950000Y-190000D02*
X-950000Y-28000D01*
X-151785Y-816016D02*
X-151812Y-816042D01*
X-149072Y-815375D02*
X-149072Y-815468D01*
X-152500Y-807710D02*
X-152500Y-811339D01*
X1257600Y-1037600D02*
X1030000Y-810000D01*
D28*
X-1334000Y-26000D02*
X-1206000Y-26000D01*
D29*
X-152360Y-816256D02*
X-152395Y-816291D01*
X-452900Y-807100D02*
X-212963Y-807100D01*
X-500000Y-1100000D02*
X-500000Y-1020000D01*
X-151107Y-815653D02*
X-151107Y-815711D01*
X1531400Y-1037600D02*
X1257600Y-1037600D01*
%TO.N,/SWDIO_0*%
X-820000Y-31000D02*
X-825000Y-26000D01*
X-820000Y-190000D02*
X-820000Y-31000D01*
%TO.N,/SWDIO_8*%
X1720000Y-32000D02*
X1714000Y-26000D01*
X1720000Y-190000D02*
X1720000Y-32000D01*
D28*
%TO.N,Net-(U1-SW)*%
X-2340000Y-843000D02*
X-1947000Y-843000D01*
X-1947000Y-843000D02*
X-1945000Y-845000D01*
D29*
%TO.N,Net-(U1-FB)*%
X-1755000Y-435000D02*
X-1765000Y-425000D01*
X-1755000Y-575000D02*
X-1755000Y-435000D01*
X-1630000Y-425000D02*
X-1620000Y-435000D01*
X-1765000Y-425000D02*
X-1630000Y-425000D01*
%TD*%
%TA.AperFunction,Conductor*%
%TO.N,GND*%
G36*
X-2770040Y1097982D02*
G01*
X-2765465Y1092701D01*
X-2764470Y1085785D01*
X-2766262Y1081109D01*
X-2766221Y1081087D01*
X-2766397Y1080759D01*
X-2766434Y1080661D01*
X-2766508Y1080550D01*
X-2766509Y1080549D01*
X-2772166Y1066892D01*
X-2772166Y1066891D01*
X-2775050Y1052392D01*
X-2775050Y1052392D01*
X-2775050Y597608D01*
X-2775050Y597608D01*
X-2775050Y597608D01*
X-2772166Y583109D01*
X-2772166Y583108D01*
X-2766509Y569451D01*
X-2766508Y569450D01*
X-2758295Y557159D01*
X-2758295Y557158D01*
X-2747842Y546705D01*
X-2747842Y546705D01*
X-2735550Y538492D01*
X-2735549Y538491D01*
X-2721892Y532834D01*
X-2721891Y532834D01*
X-2721891Y532834D01*
X-2721891Y532834D01*
X-2707392Y529950D01*
X-2707392Y529950D01*
X-2692608Y529950D01*
X-2682854Y531890D01*
X-2678109Y532834D01*
X-2664451Y538492D01*
X-2652158Y546705D01*
X-2641705Y557158D01*
X-2633492Y569451D01*
X-2627834Y583109D01*
X-2624950Y597608D01*
X-2624950Y668661D01*
X-1410050Y668661D01*
X-1410050Y651339D01*
X-1407340Y634230D01*
X-1401987Y617756D01*
X-1394123Y602321D01*
X-1383941Y588307D01*
X-1371693Y576059D01*
X-1357679Y565877D01*
X-1342245Y558013D01*
X-1325770Y552660D01*
X-1308661Y549950D01*
X-1308661Y549950D01*
X-1291339Y549950D01*
X-1291339Y549950D01*
X-1274230Y552660D01*
X-1257756Y558013D01*
X-1242321Y565877D01*
X-1228307Y576059D01*
X-1216059Y588307D01*
X-1205877Y602321D01*
X-1198013Y617756D01*
X-1192660Y634230D01*
X-1189950Y651339D01*
X-1189950Y668661D01*
X1189950Y668661D01*
X1189950Y651339D01*
X1192660Y634230D01*
X1198013Y617756D01*
X1205877Y602321D01*
X1216059Y588307D01*
X1228307Y576059D01*
X1242321Y565877D01*
X1257756Y558013D01*
X1274230Y552660D01*
X1291339Y549950D01*
X1291339Y549950D01*
X1308661Y549950D01*
X1308661Y549950D01*
X1325770Y552660D01*
X1342245Y558013D01*
X1357679Y565877D01*
X1371693Y576059D01*
X1383941Y588307D01*
X1394123Y602321D01*
X1401987Y617756D01*
X1407340Y634230D01*
X1410050Y651339D01*
X1410050Y668661D01*
X1407340Y685770D01*
X1401987Y702244D01*
X1394123Y717679D01*
X1383941Y731693D01*
X1371693Y743941D01*
X1357679Y754123D01*
X1342245Y761987D01*
X1325770Y767340D01*
X1325770Y767340D01*
X1325770Y767340D01*
X1312627Y769422D01*
X1308661Y770050D01*
X1291339Y770050D01*
X1287373Y769422D01*
X1274230Y767340D01*
X1257755Y761987D01*
X1242321Y754123D01*
X1234326Y748314D01*
X1228307Y743941D01*
X1228307Y743941D01*
X1228307Y743941D01*
X1216059Y731693D01*
X1216059Y731693D01*
X1216059Y731693D01*
X1211686Y725674D01*
X1205877Y717679D01*
X1198013Y702245D01*
X1192660Y685770D01*
X1189950Y668661D01*
X-1189950Y668661D01*
X-1192660Y685770D01*
X-1198013Y702244D01*
X-1205877Y717679D01*
X-1216059Y731693D01*
X-1228307Y743941D01*
X-1242321Y754123D01*
X-1257756Y761987D01*
X-1274230Y767340D01*
X-1274230Y767340D01*
X-1274230Y767340D01*
X-1287373Y769422D01*
X-1291339Y770050D01*
X-1308661Y770050D01*
X-1312627Y769422D01*
X-1325770Y767340D01*
X-1342245Y761987D01*
X-1357679Y754123D01*
X-1365674Y748314D01*
X-1371693Y743941D01*
X-1371693Y743941D01*
X-1371693Y743941D01*
X-1383941Y731693D01*
X-1383941Y731693D01*
X-1383941Y731693D01*
X-1388314Y725674D01*
X-1394123Y717679D01*
X-1401987Y702245D01*
X-1407340Y685770D01*
X-1410050Y668661D01*
X-2624950Y668661D01*
X-2624950Y1052392D01*
X-2624950Y1052392D01*
X-2627834Y1066891D01*
X-2627834Y1066891D01*
X-2627834Y1066891D01*
X-2627834Y1066892D01*
X-2633491Y1080549D01*
X-2633492Y1080550D01*
X-2633566Y1080661D01*
X-2633587Y1080728D01*
X-2633779Y1081087D01*
X-2633711Y1081124D01*
X-2635654Y1087328D01*
X-2633806Y1094066D01*
X-2628608Y1098736D01*
X-2623256Y1099950D01*
X2623256Y1099950D01*
X2629960Y1097982D01*
X2634535Y1092701D01*
X2635530Y1085785D01*
X2633738Y1081109D01*
X2633779Y1081087D01*
X2633603Y1080759D01*
X2633566Y1080661D01*
X2633492Y1080550D01*
X2633491Y1080549D01*
X2627834Y1066892D01*
X2627834Y1066891D01*
X2624950Y1052392D01*
X2624950Y1052392D01*
X2624950Y597608D01*
X2624950Y597608D01*
X2624950Y597608D01*
X2627834Y583109D01*
X2627834Y583108D01*
X2633491Y569451D01*
X2633492Y569450D01*
X2641705Y557159D01*
X2641705Y557158D01*
X2652158Y546705D01*
X2652158Y546705D01*
X2664450Y538492D01*
X2664451Y538491D01*
X2678108Y532834D01*
X2678109Y532834D01*
X2678109Y532834D01*
X2678109Y532834D01*
X2692608Y529950D01*
X2692608Y529950D01*
X2707392Y529950D01*
X2717146Y531890D01*
X2721891Y532834D01*
X2735550Y538492D01*
X2747842Y546705D01*
X2758295Y557158D01*
X2766508Y569451D01*
X2772166Y583109D01*
X2775050Y597608D01*
X2775050Y1052392D01*
X2775050Y1052392D01*
X2772166Y1066891D01*
X2772166Y1066891D01*
X2772166Y1066891D01*
X2772166Y1066892D01*
X2766509Y1080549D01*
X2766508Y1080550D01*
X2766434Y1080661D01*
X2766413Y1080728D01*
X2766221Y1081087D01*
X2766289Y1081124D01*
X2764346Y1087328D01*
X2766194Y1094066D01*
X2771392Y1098736D01*
X2776744Y1099950D01*
X2887550Y1099950D01*
X2894254Y1097982D01*
X2898829Y1092701D01*
X2899950Y1087550D01*
X2899950Y-1087600D01*
X2897981Y-1094304D01*
X2892701Y-1098879D01*
X2887550Y-1100000D01*
X1798969Y-1100000D01*
X1792265Y-1098032D01*
X1787689Y-1092751D01*
X1786695Y-1085835D01*
X1789598Y-1079480D01*
X1790201Y-1078832D01*
X1849289Y-1019743D01*
X1855422Y-1016395D01*
X1862391Y-1016893D01*
X1862802Y-1017055D01*
X1872358Y-1021013D01*
X1892653Y-1025050D01*
X1892653Y-1025050D01*
X1892653Y-1025050D01*
X1913347Y-1025050D01*
X1913347Y-1025050D01*
X1933642Y-1021013D01*
X1952760Y-1013094D01*
X1969965Y-1001598D01*
X1984598Y-986965D01*
X1996094Y-969760D01*
X2004013Y-950642D01*
X2008050Y-930346D01*
X2008050Y-909653D01*
X2004013Y-889358D01*
X1996094Y-870240D01*
X1996094Y-870240D01*
X1996094Y-870240D01*
X1985469Y-854339D01*
X1983382Y-847671D01*
X1985230Y-840933D01*
X1990428Y-836264D01*
X1995780Y-835050D01*
X2064220Y-835050D01*
X2070924Y-837018D01*
X2075500Y-842299D01*
X2076494Y-849215D01*
X2074531Y-854339D01*
X2063906Y-870240D01*
X2063906Y-870240D01*
X2055987Y-889358D01*
X2055987Y-889359D01*
X2051950Y-909653D01*
X2051950Y-930347D01*
X2055987Y-950641D01*
X2055987Y-950642D01*
X2062594Y-966592D01*
X2063906Y-969760D01*
X2066333Y-973392D01*
X2075402Y-986966D01*
X2090034Y-1001597D01*
X2090034Y-1001598D01*
X2107240Y-1013094D01*
X2126358Y-1021013D01*
X2146653Y-1025050D01*
X2146653Y-1025050D01*
X2146654Y-1025050D01*
X2167347Y-1025050D01*
X2167347Y-1025050D01*
X2187642Y-1021013D01*
X2206760Y-1013094D01*
X2223966Y-1001598D01*
X2238598Y-986965D01*
X2250094Y-969760D01*
X2258013Y-950642D01*
X2262050Y-930346D01*
X2262050Y-909653D01*
X2258013Y-889358D01*
X2250094Y-870240D01*
X2250094Y-870240D01*
X2250094Y-870240D01*
X2239469Y-854339D01*
X2239166Y-853369D01*
X2238500Y-852601D01*
X2238139Y-850091D01*
X2237382Y-847671D01*
X2237650Y-846691D01*
X2237506Y-845685D01*
X2238559Y-843378D01*
X2239230Y-840933D01*
X2239986Y-840254D01*
X2240408Y-839330D01*
X2242542Y-837959D01*
X2244428Y-836264D01*
X2245588Y-836001D01*
X2246286Y-835552D01*
X2249780Y-835050D01*
X2257204Y-835050D01*
X2263907Y-837018D01*
X2265972Y-838682D01*
X2306406Y-879116D01*
X2309754Y-885248D01*
X2309799Y-890303D01*
X2305950Y-909653D01*
X2305950Y-930347D01*
X2309987Y-950641D01*
X2309987Y-950642D01*
X2316594Y-966592D01*
X2317906Y-969760D01*
X2320333Y-973392D01*
X2329402Y-986966D01*
X2344034Y-1001597D01*
X2344035Y-1001598D01*
X2361240Y-1013094D01*
X2380358Y-1021013D01*
X2400653Y-1025050D01*
X2400653Y-1025050D01*
X2400654Y-1025050D01*
X2421347Y-1025050D01*
X2421347Y-1025050D01*
X2441642Y-1021013D01*
X2460760Y-1013094D01*
X2477966Y-1001598D01*
X2492598Y-986965D01*
X2504094Y-969760D01*
X2512013Y-950642D01*
X2516050Y-930346D01*
X2516050Y-909653D01*
X2512013Y-889358D01*
X2504094Y-870240D01*
X2492598Y-853034D01*
X2492598Y-853034D01*
X2477966Y-838402D01*
X2465062Y-829781D01*
X2460760Y-826906D01*
X2459822Y-826517D01*
X2441642Y-818987D01*
X2441641Y-818987D01*
X2421347Y-814950D01*
X2421347Y-814950D01*
X2400654Y-814950D01*
X2396314Y-815813D01*
X2381303Y-818799D01*
X2374344Y-818176D01*
X2370116Y-815405D01*
X2357176Y-802466D01*
X2340828Y-786118D01*
X2337480Y-779986D01*
X2337978Y-773017D01*
X2342165Y-767423D01*
X2348712Y-764982D01*
X2349597Y-764950D01*
X2441104Y-764950D01*
X2447807Y-766918D01*
X2449872Y-768582D01*
X2560405Y-879116D01*
X2563754Y-885248D01*
X2563799Y-890303D01*
X2559950Y-909653D01*
X2559950Y-930347D01*
X2563987Y-950641D01*
X2563987Y-950642D01*
X2570594Y-966592D01*
X2571906Y-969760D01*
X2574333Y-973392D01*
X2583402Y-986966D01*
X2598034Y-1001597D01*
X2598035Y-1001598D01*
X2615240Y-1013094D01*
X2634358Y-1021013D01*
X2654653Y-1025050D01*
X2654653Y-1025050D01*
X2654654Y-1025050D01*
X2675347Y-1025050D01*
X2675347Y-1025050D01*
X2695642Y-1021013D01*
X2714760Y-1013094D01*
X2731966Y-1001598D01*
X2746598Y-986965D01*
X2758094Y-969760D01*
X2766013Y-950642D01*
X2770050Y-930346D01*
X2770050Y-909653D01*
X2766013Y-889358D01*
X2758094Y-870240D01*
X2746598Y-853034D01*
X2746598Y-853034D01*
X2731966Y-838402D01*
X2715561Y-827441D01*
X2711080Y-822080D01*
X2710050Y-817131D01*
X2710050Y-544069D01*
X2710050Y-544069D01*
X2706980Y-532611D01*
X2706980Y-532611D01*
X2702635Y-525086D01*
X2701049Y-522339D01*
X2701049Y-522338D01*
X2532662Y-353951D01*
X2532661Y-353951D01*
X2527525Y-350986D01*
X2522389Y-348020D01*
X2521178Y-347696D01*
X2519967Y-347371D01*
X2519967Y-347371D01*
X2515956Y-346297D01*
X2510931Y-344950D01*
X2510931Y-344950D01*
X2482368Y-344950D01*
X2475664Y-342982D01*
X2472058Y-339439D01*
X2469455Y-335545D01*
X2462823Y-331113D01*
X2462823Y-331113D01*
X2456975Y-329950D01*
X2456975Y-329950D01*
X2363025Y-329950D01*
X2363025Y-329950D01*
X2357177Y-331113D01*
X2357177Y-331113D01*
X2349529Y-336223D01*
X2349308Y-335892D01*
X2345136Y-338170D01*
X2338167Y-337672D01*
X2335604Y-336024D01*
X2335471Y-336223D01*
X2327823Y-331113D01*
X2327823Y-331113D01*
X2321975Y-329950D01*
X2321975Y-329950D01*
X2283797Y-329950D01*
X2277093Y-327982D01*
X2275029Y-326318D01*
X2212062Y-263351D01*
X2212061Y-263351D01*
X2206130Y-259927D01*
X2201789Y-257420D01*
X2200578Y-257096D01*
X2199367Y-256771D01*
X2199367Y-256771D01*
X2195548Y-255748D01*
X2190331Y-254350D01*
X1738430Y-254350D01*
X1731726Y-252381D01*
X1727151Y-247101D01*
X1726157Y-240185D01*
X1729059Y-233830D01*
X1734937Y-230052D01*
X1735218Y-229973D01*
X1736424Y-229650D01*
X1746126Y-224048D01*
X1754048Y-216126D01*
X1759650Y-206424D01*
X1760378Y-203706D01*
X1764015Y-197740D01*
X1770299Y-194687D01*
X1776689Y-195297D01*
X1790262Y-200360D01*
X1790263Y-200360D01*
X1796215Y-201000D01*
X1796217Y-201000D01*
X1816000Y-201000D01*
X1866000Y-201000D01*
X1885783Y-201000D01*
X1885784Y-201000D01*
X1891738Y-200360D01*
X1891738Y-200360D01*
X1900667Y-197029D01*
X1907636Y-196531D01*
X1909333Y-197029D01*
X1918262Y-200360D01*
X1918262Y-200360D01*
X1924215Y-201000D01*
X1924217Y-201000D01*
X1944000Y-201000D01*
X1994000Y-201000D01*
X2013783Y-201000D01*
X2013784Y-201000D01*
X2019737Y-200360D01*
X2019738Y-200360D01*
X2028167Y-197216D01*
X2035136Y-196717D01*
X2036833Y-197216D01*
X2045262Y-200360D01*
X2045263Y-200360D01*
X2051215Y-201000D01*
X2051217Y-201000D01*
X2071000Y-201000D01*
X2121000Y-201000D01*
X2140783Y-201000D01*
X2140784Y-201000D01*
X2146737Y-200360D01*
X2146738Y-200360D01*
X2155167Y-197216D01*
X2162136Y-196717D01*
X2163833Y-197216D01*
X2172262Y-200360D01*
X2172263Y-200360D01*
X2178216Y-201000D01*
X2178217Y-201000D01*
X2198000Y-201000D01*
X2248000Y-201000D01*
X2267783Y-201000D01*
X2267784Y-201000D01*
X2273737Y-200360D01*
X2273738Y-200360D01*
X2282167Y-197216D01*
X2289136Y-196717D01*
X2290833Y-197216D01*
X2299262Y-200360D01*
X2299263Y-200360D01*
X2305216Y-201000D01*
X2305217Y-201000D01*
X2325000Y-201000D01*
X2375000Y-201000D01*
X2394783Y-201000D01*
X2394784Y-201000D01*
X2400737Y-200360D01*
X2400738Y-200360D01*
X2409167Y-197216D01*
X2416136Y-196717D01*
X2417833Y-197216D01*
X2426262Y-200360D01*
X2426263Y-200360D01*
X2432216Y-201000D01*
X2432217Y-201000D01*
X2452000Y-201000D01*
X2502000Y-201000D01*
X2521783Y-201000D01*
X2521784Y-201000D01*
X2527737Y-200360D01*
X2527738Y-200360D01*
X2541209Y-195335D01*
X2541209Y-195335D01*
X2552719Y-186719D01*
X2552719Y-186719D01*
X2561335Y-175209D01*
X2561335Y-175209D01*
X2566360Y-161738D01*
X2566360Y-161737D01*
X2567000Y-155784D01*
X2567000Y-155783D01*
X2567000Y-51000D01*
X2502000Y-51000D01*
X2502000Y-201000D01*
X2452000Y-201000D01*
X2452000Y-51000D01*
X2375000Y-51000D01*
X2375000Y-201000D01*
X2325000Y-201000D01*
X2325000Y-51000D01*
X2248000Y-51000D01*
X2248000Y-201000D01*
X2198000Y-201000D01*
X2198000Y-51000D01*
X2121000Y-51000D01*
X2121000Y-201000D01*
X2071000Y-201000D01*
X2071000Y-51000D01*
X1994000Y-51000D01*
X1994000Y-201000D01*
X1944000Y-201000D01*
X1944000Y-51000D01*
X1866000Y-51000D01*
X1866000Y-201000D01*
X1816000Y-201000D01*
X1816000Y-1000D01*
X1866000Y-1000D01*
X1944000Y-1000D01*
X1994000Y-1000D01*
X2071000Y-1000D01*
X2121000Y-1000D01*
X2198000Y-1000D01*
X2248000Y-1000D01*
X2325000Y-1000D01*
X2375000Y-1000D01*
X2452000Y-1000D01*
X2502000Y-1000D01*
X2567000Y-1000D01*
X2567000Y103783D01*
X2567000Y103784D01*
X2566360Y109737D01*
X2566360Y109738D01*
X2561335Y123209D01*
X2561335Y123209D01*
X2552719Y134719D01*
X2552719Y134719D01*
X2541209Y143335D01*
X2541209Y143336D01*
X2527738Y148360D01*
X2527737Y148360D01*
X2521784Y149000D01*
X2502000Y149000D01*
X2502000Y-1000D01*
X2452000Y-1000D01*
X2452000Y149000D01*
X2432216Y149000D01*
X2426263Y148360D01*
X2426262Y148360D01*
X2417833Y145216D01*
X2410864Y144718D01*
X2409167Y145216D01*
X2400738Y148360D01*
X2400737Y148360D01*
X2394784Y149000D01*
X2375000Y149000D01*
X2375000Y-1000D01*
X2325000Y-1000D01*
X2325000Y149000D01*
X2305216Y149000D01*
X2299263Y148360D01*
X2299262Y148360D01*
X2290833Y145216D01*
X2283864Y144718D01*
X2282167Y145216D01*
X2273738Y148360D01*
X2273737Y148360D01*
X2267784Y149000D01*
X2248000Y149000D01*
X2248000Y-1000D01*
X2198000Y-1000D01*
X2198000Y149000D01*
X2178216Y149000D01*
X2172263Y148360D01*
X2172262Y148360D01*
X2163833Y145216D01*
X2156864Y144718D01*
X2155167Y145216D01*
X2146738Y148360D01*
X2146737Y148360D01*
X2140784Y149000D01*
X2121000Y149000D01*
X2121000Y-1000D01*
X2071000Y-1000D01*
X2071000Y149000D01*
X2051215Y149000D01*
X2045263Y148360D01*
X2045262Y148360D01*
X2036833Y145216D01*
X2029864Y144718D01*
X2028167Y145216D01*
X2019738Y148360D01*
X2019737Y148360D01*
X2013784Y149000D01*
X1994000Y149000D01*
X1994000Y-1000D01*
X1944000Y-1000D01*
X1944000Y149000D01*
X1924215Y149000D01*
X1918263Y148360D01*
X1918262Y148360D01*
X1909333Y145030D01*
X1902364Y144531D01*
X1900667Y145030D01*
X1891738Y148360D01*
X1891737Y148360D01*
X1885784Y149000D01*
X1866000Y149000D01*
X1866000Y-1000D01*
X1816000Y-1000D01*
X1816000Y149000D01*
X1796215Y149000D01*
X1790263Y148360D01*
X1790262Y148360D01*
X1776791Y143336D01*
X1776791Y143335D01*
X1765281Y134719D01*
X1765281Y134719D01*
X1757271Y124019D01*
X1751678Y119832D01*
X1747344Y119050D01*
X1672025Y119050D01*
X1666177Y117887D01*
X1666177Y117887D01*
X1658529Y112777D01*
X1658419Y112942D01*
X1653636Y110330D01*
X1646667Y110828D01*
X1643520Y112851D01*
X1643471Y112777D01*
X1635823Y117887D01*
X1635823Y117887D01*
X1629975Y119050D01*
X1629975Y119050D01*
X1546025Y119050D01*
X1546025Y119050D01*
X1540177Y117887D01*
X1540177Y117887D01*
X1533545Y113455D01*
X1533268Y113179D01*
X1527136Y109830D01*
X1520167Y110328D01*
X1515732Y113179D01*
X1515455Y113455D01*
X1508823Y117887D01*
X1508823Y117887D01*
X1502975Y119050D01*
X1502975Y119050D01*
X1419025Y119050D01*
X1419025Y119050D01*
X1413177Y117887D01*
X1413177Y117887D01*
X1406545Y113455D01*
X1406268Y113179D01*
X1400136Y109830D01*
X1393167Y110328D01*
X1388732Y113179D01*
X1388455Y113455D01*
X1381823Y117887D01*
X1381823Y117887D01*
X1375975Y119050D01*
X1375975Y119050D01*
X1292025Y119050D01*
X1292025Y119050D01*
X1286177Y117887D01*
X1286177Y117887D01*
X1279545Y113455D01*
X1279268Y113179D01*
X1273136Y109830D01*
X1266167Y110328D01*
X1261732Y113179D01*
X1261455Y113455D01*
X1254823Y117887D01*
X1254823Y117887D01*
X1248975Y119050D01*
X1248975Y119050D01*
X1165025Y119050D01*
X1165025Y119050D01*
X1159177Y117887D01*
X1159177Y117887D01*
X1152545Y113455D01*
X1152268Y113179D01*
X1146136Y109830D01*
X1139167Y110328D01*
X1134732Y113179D01*
X1134455Y113455D01*
X1127823Y117887D01*
X1127823Y117887D01*
X1121975Y119050D01*
X1121975Y119050D01*
X1038025Y119050D01*
X1038025Y119050D01*
X1032177Y117887D01*
X1032177Y117887D01*
X1025545Y113455D01*
X1025268Y113179D01*
X1019136Y109830D01*
X1012167Y110328D01*
X1007732Y113179D01*
X1007455Y113455D01*
X1000823Y117887D01*
X1000823Y117887D01*
X994975Y119050D01*
X994975Y119050D01*
X911025Y119050D01*
X911025Y119050D01*
X905177Y117887D01*
X905177Y117887D01*
X898545Y113455D01*
X898268Y113179D01*
X892136Y109830D01*
X885167Y110328D01*
X883030Y111369D01*
X881033Y112590D01*
X880455Y113455D01*
X873823Y117887D01*
X871675Y118314D01*
X869791Y119467D01*
X868868Y120485D01*
X867650Y121122D01*
X865521Y123847D01*
X865461Y123951D01*
X865461Y123951D01*
X862049Y129861D01*
X795861Y196049D01*
X789930Y199473D01*
X785589Y201980D01*
X784378Y202304D01*
X783167Y202629D01*
X783167Y202629D01*
X779348Y203652D01*
X774131Y205050D01*
X-2545931Y205050D01*
X-2552806Y203208D01*
X-2557389Y201980D01*
X-2557389Y201980D01*
X-2561731Y199473D01*
X-2561730Y199473D01*
X-2567661Y196049D01*
X-2567662Y196049D01*
X-2616049Y147662D01*
X-2616049Y147661D01*
X-2621980Y137389D01*
X-2621980Y137388D01*
X-2625050Y125931D01*
X-2625050Y-183131D01*
X-2623096Y-190423D01*
X-2623095Y-190429D01*
X-2621980Y-194588D01*
X-2618648Y-200360D01*
X-2616049Y-204861D01*
X-2417361Y-403549D01*
X-2417361Y-403549D01*
X-2417361Y-403549D01*
X-2413786Y-405613D01*
X-2413786Y-405613D01*
X-2413786Y-405613D01*
X-2407089Y-409480D01*
X-2395631Y-412550D01*
X-2356197Y-412550D01*
X-2349493Y-414518D01*
X-2344917Y-419799D01*
X-2343923Y-426715D01*
X-2346825Y-433070D01*
X-2347428Y-433718D01*
X-2376049Y-462338D01*
X-2376049Y-462339D01*
X-2381980Y-472611D01*
X-2381980Y-472612D01*
X-2381981Y-472615D01*
X-2382021Y-472763D01*
X-2385659Y-478728D01*
X-2391944Y-481779D01*
X-2393997Y-481950D01*
X-2507975Y-481950D01*
X-2513823Y-483113D01*
X-2513823Y-483113D01*
X-2520455Y-487545D01*
X-2524887Y-494177D01*
X-2524887Y-494177D01*
X-2526050Y-500025D01*
X-2526050Y-653975D01*
X-2524887Y-659823D01*
X-2524887Y-659823D01*
X-2520455Y-666455D01*
X-2513823Y-670887D01*
X-2513823Y-670887D01*
X-2507975Y-672050D01*
X-2507975Y-672050D01*
X-2187400Y-672050D01*
X-2180696Y-674019D01*
X-2176121Y-679299D01*
X-2175000Y-684450D01*
X-2175000Y-685000D01*
X-1985000Y-685000D01*
X-1985000Y-665217D01*
X-1985000Y-665217D01*
X-1985155Y-663776D01*
X-1983914Y-656900D01*
X-1979153Y-651786D01*
X-1972826Y-650050D01*
X-1913025Y-650050D01*
X-1911643Y-649775D01*
X-1907303Y-648912D01*
X-1900344Y-649535D01*
X-1894826Y-653821D01*
X-1892907Y-657864D01*
X-1891980Y-661322D01*
X-1891980Y-661323D01*
X-1889807Y-665086D01*
X-1886049Y-671595D01*
X-1846495Y-711149D01*
X-1836223Y-717080D01*
X-1834883Y-717439D01*
X-1833566Y-717792D01*
X-1832551Y-718064D01*
X-1830041Y-718736D01*
X-1824075Y-722373D01*
X-1821022Y-728657D01*
X-1821022Y-728658D01*
X-1821022Y-728658D01*
X-1821109Y-729390D01*
X-1821851Y-735595D01*
X-1824482Y-739482D01*
X-1825000Y-740000D01*
X-1825000Y-950000D01*
X-1815217Y-950000D01*
X-1815216Y-950000D01*
X-1809263Y-949360D01*
X-1809262Y-949360D01*
X-1795791Y-944335D01*
X-1795791Y-944335D01*
X-1784281Y-935719D01*
X-1784281Y-935719D01*
X-1776271Y-925019D01*
X-1770678Y-920832D01*
X-1766344Y-920050D01*
X-1723025Y-920050D01*
X-1723025Y-920050D01*
X-1721551Y-919757D01*
X-1715979Y-918648D01*
X-1715943Y-918828D01*
X-1710472Y-918239D01*
X-1704224Y-921366D01*
X-1702746Y-923011D01*
X-1700719Y-925719D01*
X-1689209Y-934335D01*
X-1689209Y-934335D01*
X-1675738Y-939360D01*
X-1675737Y-939360D01*
X-1669784Y-940000D01*
X-1669783Y-940000D01*
X-1645000Y-940000D01*
X-1595000Y-940000D01*
X-1570217Y-940000D01*
X-1570216Y-940000D01*
X-1564263Y-939360D01*
X-1564262Y-939360D01*
X-1550791Y-934335D01*
X-1550791Y-934335D01*
X-1539281Y-925719D01*
X-1539281Y-925719D01*
X-1530665Y-914209D01*
X-1530665Y-914209D01*
X-1525640Y-900738D01*
X-1525640Y-900737D01*
X-1525000Y-894784D01*
X-1525000Y-894783D01*
X-1525000Y-875000D01*
X-1595000Y-875000D01*
X-1595000Y-940000D01*
X-1645000Y-940000D01*
X-1645000Y-862400D01*
X-1643031Y-855696D01*
X-1637751Y-851121D01*
X-1632600Y-850000D01*
X-1620000Y-850000D01*
X-1620000Y-837400D01*
X-1618031Y-830696D01*
X-1612751Y-826121D01*
X-1607600Y-825000D01*
X-1525000Y-825000D01*
X-1525000Y-805217D01*
X-1525000Y-805215D01*
X-1525640Y-799263D01*
X-1525640Y-799262D01*
X-1530665Y-785791D01*
X-1530665Y-785791D01*
X-1539281Y-774281D01*
X-1539281Y-774281D01*
X-1550526Y-765863D01*
X-1554713Y-760269D01*
X-1555257Y-753517D01*
X-1554950Y-751975D01*
X-1554950Y-668025D01*
X-1554950Y-668025D01*
X-1554950Y-668025D01*
X-1556113Y-662177D01*
X-1556113Y-662177D01*
X-1560545Y-655545D01*
X-1560792Y-655297D01*
X-1561159Y-654625D01*
X-1561223Y-654529D01*
X-1561215Y-654524D01*
X-1564141Y-649165D01*
X-1563642Y-642196D01*
X-1562334Y-639640D01*
X-1560811Y-637360D01*
X-1558113Y-633323D01*
X-1558113Y-633323D01*
X-1556950Y-627475D01*
X-1556950Y-627475D01*
X-1556950Y-597450D01*
X-1554981Y-590746D01*
X-1549701Y-586171D01*
X-1544550Y-585050D01*
X-1406584Y-585050D01*
X-1399880Y-587019D01*
X-1395305Y-592299D01*
X-1394310Y-599215D01*
X-1394422Y-599869D01*
X-1395050Y-603025D01*
X-1395050Y-666975D01*
X-1393887Y-672823D01*
X-1393887Y-672823D01*
X-1389455Y-679455D01*
X-1382823Y-683887D01*
X-1382823Y-683887D01*
X-1376975Y-685050D01*
X-1376975Y-685050D01*
X-1376975Y-685050D01*
X-1338797Y-685050D01*
X-1335853Y-685914D01*
X-1332854Y-686567D01*
X-1332352Y-686942D01*
X-1332093Y-687019D01*
X-1330029Y-688681D01*
X-1318183Y-700527D01*
X-1314835Y-706660D01*
X-1314789Y-711714D01*
X-1315050Y-713025D01*
X-1315050Y-806975D01*
X-1313887Y-812823D01*
X-1313887Y-812823D01*
X-1309455Y-819455D01*
X-1305471Y-822117D01*
X-1300990Y-827479D01*
X-1300729Y-828128D01*
X-1300050Y-829965D01*
X-1300050Y-830931D01*
X-1298235Y-837703D01*
X-1296980Y-842389D01*
X-1292746Y-849722D01*
X-1292381Y-850710D01*
X-1292211Y-853187D01*
X-1291625Y-855600D01*
X-1291973Y-856654D01*
X-1291902Y-857681D01*
X-1292922Y-859536D01*
X-1293421Y-861048D01*
X-1293419Y-861049D01*
X-1293426Y-861065D01*
X-1293701Y-861899D01*
X-1293887Y-862177D01*
X-1293887Y-862177D01*
X-1295050Y-868025D01*
X-1295050Y-991975D01*
X-1293887Y-997823D01*
X-1293887Y-997823D01*
X-1289455Y-1004455D01*
X-1282823Y-1008887D01*
X-1282823Y-1008887D01*
X-1276975Y-1010050D01*
X-1276975Y-1010050D01*
X-1276975Y-1010050D01*
X-1173025Y-1010050D01*
X-1173025Y-1010050D01*
X-1171543Y-1009755D01*
X-1167177Y-1008887D01*
X-1167177Y-1008887D01*
X-1167177Y-1008887D01*
X-1160545Y-1004455D01*
X-1156113Y-997823D01*
X-1156113Y-997823D01*
X-1156113Y-997823D01*
X-1154950Y-991975D01*
X-1154950Y-991975D01*
X-1154950Y-867416D01*
X-1154661Y-867416D01*
X-1153598Y-861767D01*
X-1148800Y-856689D01*
X-1142552Y-855000D01*
X-1140000Y-855000D01*
X-1090000Y-855000D01*
X-1070217Y-855000D01*
X-1070216Y-855000D01*
X-1064262Y-854360D01*
X-1064262Y-854360D01*
X-1059334Y-852521D01*
X-1052364Y-852023D01*
X-1050667Y-852521D01*
X-1045738Y-854360D01*
X-1039784Y-855000D01*
X-1039783Y-855000D01*
X-1020000Y-855000D01*
X-1020000Y-785000D01*
X-1090000Y-785000D01*
X-1090000Y-855000D01*
X-1140000Y-855000D01*
X-1140000Y-772400D01*
X-1138032Y-765696D01*
X-1132751Y-761121D01*
X-1127600Y-760000D01*
X-1115000Y-760000D01*
X-1115000Y-747400D01*
X-1113032Y-740696D01*
X-1107751Y-736121D01*
X-1102600Y-735000D01*
X-1007400Y-735000D01*
X-1000696Y-736968D01*
X-996121Y-742249D01*
X-995000Y-747400D01*
X-995000Y-760000D01*
X-982400Y-760000D01*
X-975696Y-761968D01*
X-971121Y-767249D01*
X-970000Y-772400D01*
X-970000Y-842599D01*
X-971968Y-849303D01*
X-975511Y-852909D01*
X-979455Y-855545D01*
X-983887Y-862177D01*
X-983887Y-862177D01*
X-985050Y-868025D01*
X-985050Y-991975D01*
X-983887Y-997823D01*
X-983887Y-997823D01*
X-979455Y-1004455D01*
X-972823Y-1008887D01*
X-972823Y-1008887D01*
X-966975Y-1010050D01*
X-966975Y-1010050D01*
X-966975Y-1010050D01*
X-863025Y-1010050D01*
X-863025Y-1010050D01*
X-861543Y-1009755D01*
X-857177Y-1008887D01*
X-857177Y-1008887D01*
X-857177Y-1008887D01*
X-850545Y-1004455D01*
X-846113Y-997823D01*
X-846113Y-997823D01*
X-846113Y-997823D01*
X-844950Y-991975D01*
X-844950Y-991975D01*
X-844950Y-987450D01*
X-842981Y-980746D01*
X-837701Y-976171D01*
X-832550Y-975050D01*
X-644658Y-975050D01*
X-637954Y-977018D01*
X-633379Y-982299D01*
X-632384Y-989215D01*
X-633919Y-993650D01*
X-634048Y-993873D01*
X-634049Y-993874D01*
X-636152Y-997517D01*
X-639650Y-1003576D01*
X-639650Y-1003576D01*
X-642550Y-1014398D01*
X-642550Y-1025602D01*
X-639741Y-1036085D01*
X-639650Y-1036424D01*
X-639650Y-1036424D01*
X-634211Y-1045844D01*
X-633796Y-1047393D01*
X-633052Y-1048551D01*
X-632550Y-1052044D01*
X-632550Y-1056880D01*
X-634519Y-1063584D01*
X-636182Y-1065648D01*
X-639668Y-1069134D01*
X-646194Y-1080438D01*
X-646194Y-1080438D01*
X-648973Y-1090809D01*
X-652609Y-1096775D01*
X-658894Y-1099828D01*
X-660950Y-1100000D01*
X-2887550Y-1100000D01*
X-2894254Y-1098032D01*
X-2898829Y-1092751D01*
X-2899950Y-1087600D01*
X-2899950Y-766025D01*
X-2526050Y-766025D01*
X-2526050Y-919975D01*
X-2524887Y-925823D01*
X-2524887Y-925823D01*
X-2520455Y-932455D01*
X-2513823Y-936887D01*
X-2513823Y-936887D01*
X-2507975Y-938050D01*
X-2507975Y-938050D01*
X-2507975Y-938050D01*
X-2172025Y-938050D01*
X-2172025Y-938050D01*
X-2170543Y-937755D01*
X-2166177Y-936887D01*
X-2166177Y-936887D01*
X-2166177Y-936887D01*
X-2159545Y-932455D01*
X-2155113Y-925823D01*
X-2155113Y-925823D01*
X-2155113Y-925823D01*
X-2153965Y-920050D01*
X-2153950Y-919975D01*
X-2153950Y-900450D01*
X-2151982Y-893746D01*
X-2146701Y-889171D01*
X-2141550Y-888050D01*
X-2007450Y-888050D01*
X-2000746Y-890018D01*
X-1996171Y-895299D01*
X-1995050Y-900450D01*
X-1995050Y-901975D01*
X-1993887Y-907823D01*
X-1993887Y-907823D01*
X-1989455Y-914455D01*
X-1982823Y-918887D01*
X-1982823Y-918887D01*
X-1976975Y-920050D01*
X-1976975Y-920050D01*
X-1933656Y-920050D01*
X-1926952Y-922018D01*
X-1923729Y-925019D01*
X-1915719Y-935719D01*
X-1915719Y-935719D01*
X-1904209Y-944335D01*
X-1904209Y-944335D01*
X-1890738Y-949360D01*
X-1890737Y-949360D01*
X-1884784Y-950000D01*
X-1884783Y-950000D01*
X-1875000Y-950000D01*
X-1875000Y-740000D01*
X-1884784Y-740000D01*
X-1890737Y-740640D01*
X-1890738Y-740640D01*
X-1904209Y-745664D01*
X-1904209Y-745665D01*
X-1915719Y-754281D01*
X-1915719Y-754281D01*
X-1923729Y-764981D01*
X-1929322Y-769168D01*
X-1933656Y-769950D01*
X-1972826Y-769950D01*
X-1979530Y-767981D01*
X-1984105Y-762701D01*
X-1985155Y-756224D01*
X-1985000Y-754783D01*
X-1985000Y-754783D01*
X-1985000Y-735000D01*
X-2175000Y-735000D01*
X-2175000Y-735550D01*
X-2176969Y-742254D01*
X-2182249Y-746829D01*
X-2187400Y-747950D01*
X-2507975Y-747950D01*
X-2513823Y-749113D01*
X-2513823Y-749113D01*
X-2520455Y-753545D01*
X-2524887Y-760177D01*
X-2524887Y-760177D01*
X-2526050Y-766025D01*
X-2899950Y-766025D01*
X-2899950Y1087550D01*
X-2897981Y1094254D01*
X-2892701Y1098829D01*
X-2887550Y1099950D01*
X-2776744Y1099950D01*
X-2770040Y1097982D01*
G37*
%TD.AperFunction*%
%TA.AperFunction,Conductor*%
G36*
X998085Y-889518D02*
G01*
X1000149Y-891182D01*
X1187799Y-1078832D01*
X1191148Y-1084964D01*
X1190649Y-1091933D01*
X1186462Y-1097527D01*
X1179916Y-1099968D01*
X1179031Y-1100000D01*
X760950Y-1100000D01*
X754246Y-1098032D01*
X749671Y-1092751D01*
X748973Y-1090809D01*
X748113Y-1087600D01*
X746194Y-1080438D01*
X739668Y-1069134D01*
X736182Y-1065648D01*
X734711Y-1062956D01*
X733052Y-1060374D01*
X732963Y-1059754D01*
X732833Y-1059516D01*
X732550Y-1056880D01*
X732550Y-1052044D01*
X734211Y-1045844D01*
X734959Y-1044550D01*
X739650Y-1036424D01*
X742550Y-1025602D01*
X742550Y-1014398D01*
X739650Y-1003576D01*
X734048Y-993874D01*
X726126Y-985951D01*
X716424Y-980350D01*
X705602Y-977450D01*
X694398Y-977450D01*
X683576Y-980350D01*
X683576Y-980350D01*
X673874Y-985951D01*
X673873Y-985952D01*
X665952Y-993873D01*
X665951Y-993874D01*
X660350Y-1003576D01*
X660350Y-1003576D01*
X657450Y-1014398D01*
X657450Y-1025602D01*
X660259Y-1036085D01*
X660350Y-1036424D01*
X660350Y-1036424D01*
X665789Y-1045844D01*
X666204Y-1047393D01*
X666948Y-1048551D01*
X667450Y-1052044D01*
X667450Y-1056880D01*
X665482Y-1063584D01*
X663818Y-1065648D01*
X660332Y-1069134D01*
X659838Y-1069779D01*
X659681Y-1069658D01*
X655400Y-1073740D01*
X648539Y-1075062D01*
X642052Y-1072465D01*
X639880Y-1070267D01*
X639668Y-1069990D01*
X630438Y-1060760D01*
X630438Y-1060760D01*
X622163Y-1055983D01*
X619134Y-1054234D01*
X619134Y-1054234D01*
X619134Y-1054234D01*
X606526Y-1050856D01*
X593474Y-1050856D01*
X580866Y-1054234D01*
X580866Y-1054234D01*
X569562Y-1060760D01*
X560332Y-1069990D01*
X559838Y-1070634D01*
X554195Y-1074755D01*
X547221Y-1075170D01*
X541128Y-1071749D01*
X540162Y-1070634D01*
X539668Y-1069990D01*
X530438Y-1060760D01*
X530438Y-1060760D01*
X522163Y-1055983D01*
X519134Y-1054234D01*
X519134Y-1054234D01*
X519134Y-1054234D01*
X506526Y-1050856D01*
X493474Y-1050856D01*
X480866Y-1054234D01*
X480865Y-1054234D01*
X469562Y-1060760D01*
X460332Y-1069990D01*
X459838Y-1070634D01*
X454195Y-1074755D01*
X447220Y-1075170D01*
X441744Y-1072338D01*
X440257Y-1071011D01*
X439668Y-1069990D01*
X430438Y-1060760D01*
X425712Y-1058032D01*
X424760Y-1057182D01*
X423561Y-1055255D01*
X421995Y-1053612D01*
X421750Y-1052345D01*
X421069Y-1051250D01*
X421102Y-1048980D01*
X420672Y-1046751D01*
X421152Y-1045554D01*
X421171Y-1044264D01*
X422426Y-1042372D01*
X423269Y-1040265D01*
X424249Y-1039162D01*
X424455Y-1038955D01*
X424455Y-1038955D01*
X428887Y-1032323D01*
X428887Y-1032323D01*
X428887Y-1032323D01*
X430050Y-1026475D01*
X430050Y-1026475D01*
X430050Y-902525D01*
X430019Y-902369D01*
X430026Y-902286D01*
X429990Y-901919D01*
X430060Y-901912D01*
X430642Y-895410D01*
X434928Y-889892D01*
X441517Y-887568D01*
X442181Y-887550D01*
X991381Y-887550D01*
X998085Y-889518D01*
G37*
%TD.AperFunction*%
%TA.AperFunction,Conductor*%
G36*
X-385746Y-977018D02*
G01*
X-381171Y-982299D01*
X-380050Y-987450D01*
X-380050Y-1026475D01*
X-379560Y-1028939D01*
X-380183Y-1035898D01*
X-384469Y-1041416D01*
X-391058Y-1043740D01*
X-391782Y-1043712D01*
X-391782Y-1043750D01*
X-407405Y-1043750D01*
X-421712Y-1047583D01*
X-434538Y-1054989D01*
X-434539Y-1054989D01*
X-445586Y-1066036D01*
X-445795Y-1065827D01*
X-446032Y-1066001D01*
X-447057Y-1067369D01*
X-448795Y-1068018D01*
X-450294Y-1069112D01*
X-452001Y-1069213D01*
X-453603Y-1069811D01*
X-455416Y-1069416D01*
X-457269Y-1069527D01*
X-458795Y-1068682D01*
X-460430Y-1068326D01*
X-463256Y-1066211D01*
X-463818Y-1065648D01*
X-467167Y-1059516D01*
X-467450Y-1056880D01*
X-467450Y-1052044D01*
X-465789Y-1045844D01*
X-465041Y-1044550D01*
X-460350Y-1036424D01*
X-457450Y-1025602D01*
X-457450Y-1014398D01*
X-460350Y-1003576D01*
X-465951Y-993874D01*
X-465952Y-993873D01*
X-466081Y-993650D01*
X-467728Y-986860D01*
X-465443Y-980257D01*
X-459951Y-975938D01*
X-455342Y-975050D01*
X-392450Y-975050D01*
X-385746Y-977018D01*
G37*
%TD.AperFunction*%
%TA.AperFunction,Conductor*%
G36*
X1027307Y-616619D02*
G01*
X1029371Y-618282D01*
X1237139Y-826049D01*
X1247411Y-831980D01*
X1249833Y-832629D01*
X1250810Y-832890D01*
X1253633Y-834611D01*
X1256775Y-836526D01*
X1256775Y-836527D01*
X1256776Y-836527D01*
X1258261Y-839584D01*
X1259828Y-842811D01*
X1259828Y-842812D01*
X1259828Y-842812D01*
X1259828Y-842812D01*
X1260000Y-844868D01*
X1260000Y-895000D01*
X1351699Y-895000D01*
X1348408Y-900701D01*
X1345000Y-913417D01*
X1345000Y-926583D01*
X1348408Y-939299D01*
X1351699Y-945000D01*
X1260000Y-945000D01*
X1260000Y-964031D01*
X1258032Y-970735D01*
X1252751Y-975310D01*
X1245835Y-976305D01*
X1239480Y-973402D01*
X1238832Y-972799D01*
X1049986Y-783954D01*
X1049986Y-783953D01*
X1045396Y-781303D01*
X1042564Y-779668D01*
X1038103Y-778473D01*
X1034285Y-777450D01*
X1034285Y-777450D01*
X442450Y-777450D01*
X435746Y-775481D01*
X431171Y-770201D01*
X430050Y-765050D01*
X430050Y-652525D01*
X430050Y-652525D01*
X428887Y-646677D01*
X428887Y-646677D01*
X424455Y-640045D01*
X420437Y-637360D01*
X415957Y-631999D01*
X415086Y-625067D01*
X418102Y-618764D01*
X424046Y-615092D01*
X427327Y-614650D01*
X1020603Y-614650D01*
X1027307Y-616619D01*
G37*
%TD.AperFunction*%
%TA.AperFunction,Conductor*%
G36*
X-654893Y-383918D02*
G01*
X-652828Y-385582D01*
X-412361Y-626049D01*
X-405431Y-630050D01*
X-402089Y-631980D01*
X-390631Y-635050D01*
X-389579Y-635050D01*
X-387767Y-635652D01*
X-385828Y-636997D01*
X-383669Y-637952D01*
X-383010Y-638951D01*
X-382026Y-639634D01*
X-381122Y-641814D01*
X-379822Y-643785D01*
X-379755Y-645109D01*
X-379349Y-646088D01*
X-379627Y-647634D01*
X-379516Y-649838D01*
X-380050Y-652525D01*
X-380050Y-762150D01*
X-382018Y-768854D01*
X-387299Y-773429D01*
X-392450Y-774550D01*
X-434281Y-774550D01*
X-437225Y-773685D01*
X-440224Y-773033D01*
X-440725Y-772658D01*
X-440985Y-772581D01*
X-443049Y-770918D01*
X-454325Y-759642D01*
X-457534Y-754084D01*
X-460350Y-743576D01*
X-465951Y-733874D01*
X-473874Y-725951D01*
X-480342Y-722217D01*
X-483576Y-720350D01*
X-483576Y-720350D01*
X-483576Y-720350D01*
X-494398Y-717450D01*
X-505602Y-717450D01*
X-516424Y-720350D01*
X-516424Y-720350D01*
X-526126Y-725951D01*
X-526127Y-725952D01*
X-534048Y-733873D01*
X-534049Y-733874D01*
X-539650Y-743576D01*
X-539650Y-743576D01*
X-542550Y-754398D01*
X-542550Y-765602D01*
X-539676Y-776329D01*
X-539650Y-776424D01*
X-539650Y-776424D01*
X-539507Y-776672D01*
X-534049Y-786126D01*
X-526126Y-794048D01*
X-516424Y-799650D01*
X-505916Y-802466D01*
X-504528Y-803267D01*
X-503183Y-803560D01*
X-500358Y-805675D01*
X-497751Y-808282D01*
X-494402Y-814414D01*
X-494901Y-821383D01*
X-499088Y-826976D01*
X-505634Y-829418D01*
X-506519Y-829450D01*
X-546582Y-829450D01*
X-553286Y-827481D01*
X-557861Y-822201D01*
X-558559Y-820259D01*
X-558775Y-819455D01*
X-560350Y-813576D01*
X-565952Y-803874D01*
X-573874Y-795951D01*
X-583576Y-790350D01*
X-594398Y-787450D01*
X-605602Y-787450D01*
X-616424Y-790350D01*
X-616424Y-790350D01*
X-626126Y-795951D01*
X-626127Y-795952D01*
X-634048Y-803873D01*
X-634049Y-803874D01*
X-639650Y-813576D01*
X-639650Y-813576D01*
X-642550Y-824398D01*
X-642550Y-835602D01*
X-639650Y-846424D01*
X-634049Y-856126D01*
X-634048Y-856126D01*
X-626393Y-863782D01*
X-623044Y-869914D01*
X-623543Y-876883D01*
X-627730Y-882477D01*
X-634276Y-884918D01*
X-635161Y-884950D01*
X-832550Y-884950D01*
X-839254Y-882981D01*
X-843829Y-877701D01*
X-844950Y-872550D01*
X-844950Y-868025D01*
X-844950Y-868025D01*
X-846113Y-862177D01*
X-846113Y-862177D01*
X-850545Y-855545D01*
X-857177Y-851113D01*
X-857177Y-851113D01*
X-863025Y-849950D01*
X-863025Y-849950D01*
X-901419Y-849950D01*
X-908123Y-847981D01*
X-912699Y-842701D01*
X-913693Y-835785D01*
X-911347Y-830120D01*
X-910864Y-829475D01*
X-905271Y-825287D01*
X-898517Y-824743D01*
X-896975Y-825050D01*
X-813025Y-825050D01*
X-813025Y-825050D01*
X-811483Y-824743D01*
X-807177Y-823887D01*
X-807177Y-823887D01*
X-807177Y-823887D01*
X-800545Y-819455D01*
X-796113Y-812823D01*
X-796113Y-812823D01*
X-796113Y-812823D01*
X-794950Y-806975D01*
X-794950Y-806975D01*
X-794950Y-713025D01*
X-794950Y-713025D01*
X-796113Y-707177D01*
X-796113Y-707177D01*
X-798896Y-703011D01*
X-800984Y-696344D01*
X-800000Y-692756D01*
X-800000Y-690000D01*
X-750000Y-690000D01*
X-725217Y-690000D01*
X-725216Y-690000D01*
X-719263Y-689360D01*
X-719262Y-689360D01*
X-705791Y-684335D01*
X-705791Y-684335D01*
X-694281Y-675719D01*
X-694281Y-675719D01*
X-685665Y-664209D01*
X-685665Y-664209D01*
X-680640Y-650738D01*
X-680640Y-650737D01*
X-680000Y-644784D01*
X-680000Y-644783D01*
X-680000Y-625000D01*
X-750000Y-625000D01*
X-750000Y-690000D01*
X-800000Y-690000D01*
X-800000Y-612400D01*
X-798031Y-605696D01*
X-792751Y-601121D01*
X-787600Y-600000D01*
X-775000Y-600000D01*
X-775000Y-587400D01*
X-773031Y-580696D01*
X-767751Y-576121D01*
X-762600Y-575000D01*
X-680000Y-575000D01*
X-680000Y-555217D01*
X-680000Y-555216D01*
X-680640Y-549263D01*
X-680640Y-549262D01*
X-685665Y-535791D01*
X-685665Y-535791D01*
X-694281Y-524281D01*
X-694281Y-524281D01*
X-705526Y-515863D01*
X-709713Y-510269D01*
X-710257Y-503517D01*
X-709950Y-501975D01*
X-709950Y-418025D01*
X-709950Y-418025D01*
X-709950Y-418025D01*
X-711113Y-412177D01*
X-711113Y-412177D01*
X-715545Y-405545D01*
X-716869Y-404660D01*
X-721349Y-399299D01*
X-722220Y-392366D01*
X-719204Y-386064D01*
X-713260Y-382392D01*
X-709979Y-381950D01*
X-661597Y-381950D01*
X-654893Y-383918D01*
G37*
%TD.AperFunction*%
%TA.AperFunction,Conductor*%
G36*
X2524363Y-473352D02*
G01*
X2526059Y-474769D01*
X2616318Y-565028D01*
X2619667Y-571161D01*
X2619950Y-573797D01*
X2619950Y-781303D01*
X2617982Y-788007D01*
X2612701Y-792583D01*
X2605785Y-793577D01*
X2599430Y-790675D01*
X2598782Y-790072D01*
X2492562Y-683851D01*
X2492561Y-683851D01*
X2485978Y-680050D01*
X2482289Y-677920D01*
X2478780Y-676980D01*
X2473387Y-675535D01*
X2470831Y-674850D01*
X2470831Y-674850D01*
X2354061Y-674850D01*
X2347357Y-672882D01*
X2342781Y-667601D01*
X2341787Y-660685D01*
X2344689Y-654330D01*
X2346629Y-652523D01*
X2355719Y-645719D01*
X2355719Y-645719D01*
X2364335Y-634209D01*
X2364335Y-634209D01*
X2366626Y-628067D01*
X2370813Y-622473D01*
X2377360Y-620032D01*
X2378244Y-620000D01*
X2385000Y-620000D01*
X2435000Y-620000D01*
X2459783Y-620000D01*
X2459784Y-620000D01*
X2465737Y-619360D01*
X2465738Y-619360D01*
X2479209Y-614335D01*
X2479209Y-614335D01*
X2490719Y-605719D01*
X2490719Y-605719D01*
X2499335Y-594209D01*
X2499335Y-594209D01*
X2504360Y-580738D01*
X2504360Y-580737D01*
X2505000Y-574784D01*
X2505000Y-574783D01*
X2505000Y-555000D01*
X2435000Y-555000D01*
X2435000Y-620000D01*
X2385000Y-620000D01*
X2385000Y-542400D01*
X2386969Y-535696D01*
X2392249Y-531121D01*
X2397400Y-530000D01*
X2410000Y-530000D01*
X2410000Y-517400D01*
X2411969Y-510696D01*
X2417249Y-506121D01*
X2422400Y-505000D01*
X2505000Y-505000D01*
X2505000Y-485217D01*
X2505000Y-485216D01*
X2504962Y-484863D01*
X2506202Y-477987D01*
X2510963Y-472873D01*
X2517733Y-471145D01*
X2524363Y-473352D01*
G37*
%TD.AperFunction*%
%TA.AperFunction,Conductor*%
G36*
X2161933Y-597228D02*
G01*
X2167527Y-601416D01*
X2169968Y-607962D01*
X2170000Y-608847D01*
X2170000Y-614784D01*
X2170640Y-620737D01*
X2170640Y-620738D01*
X2175665Y-634209D01*
X2175665Y-634209D01*
X2184281Y-645719D01*
X2184281Y-645719D01*
X2193371Y-652523D01*
X2197558Y-658117D01*
X2198056Y-665086D01*
X2194708Y-671218D01*
X2188575Y-674567D01*
X2185940Y-674850D01*
X2023796Y-674850D01*
X2017093Y-672882D01*
X2012517Y-667601D01*
X2011523Y-660685D01*
X2014425Y-654330D01*
X2015028Y-653682D01*
X2035028Y-633682D01*
X2041161Y-630333D01*
X2043796Y-630050D01*
X2081975Y-630050D01*
X2081975Y-630050D01*
X2083457Y-629755D01*
X2087823Y-628887D01*
X2087823Y-628887D01*
X2087823Y-628887D01*
X2094455Y-624455D01*
X2094455Y-624455D01*
X2095229Y-623682D01*
X2097311Y-622545D01*
X2099144Y-621039D01*
X2100619Y-620738D01*
X2101361Y-620333D01*
X2102555Y-620134D01*
X2103274Y-620050D01*
X2116131Y-620050D01*
X2125232Y-617611D01*
X2127589Y-616980D01*
X2137861Y-611049D01*
X2148832Y-600078D01*
X2154964Y-596730D01*
X2161933Y-597228D01*
G37*
%TD.AperFunction*%
%TA.AperFunction,Conductor*%
G36*
X1467073Y-508151D02*
G01*
X1467301Y-508127D01*
X1470235Y-509595D01*
X1473220Y-510958D01*
X1473344Y-511151D01*
X1473549Y-511254D01*
X1475223Y-514075D01*
X1476998Y-516836D01*
X1477041Y-517139D01*
X1477115Y-517263D01*
X1477500Y-520330D01*
X1477500Y-525000D01*
X1577600Y-525000D01*
X1584304Y-526969D01*
X1588879Y-532249D01*
X1590000Y-537400D01*
X1590000Y-562600D01*
X1588031Y-569304D01*
X1582751Y-573879D01*
X1577600Y-575000D01*
X1477500Y-575000D01*
X1477500Y-589784D01*
X1477644Y-591124D01*
X1477366Y-592665D01*
X1477589Y-594215D01*
X1476759Y-596033D01*
X1476404Y-598000D01*
X1475337Y-599146D01*
X1474687Y-600570D01*
X1473005Y-601651D01*
X1471643Y-603114D01*
X1470047Y-603552D01*
X1468809Y-604348D01*
X1465315Y-604850D01*
X1442850Y-604850D01*
X1436146Y-602882D01*
X1434082Y-601218D01*
X1364082Y-531218D01*
X1360733Y-525086D01*
X1361232Y-518117D01*
X1365419Y-512523D01*
X1371965Y-510082D01*
X1372850Y-510050D01*
X1454475Y-510050D01*
X1454475Y-510050D01*
X1456442Y-509659D01*
X1460323Y-508887D01*
X1460323Y-508887D01*
X1460323Y-508887D01*
X1460323Y-508887D01*
X1460354Y-508874D01*
X1460428Y-508866D01*
X1461521Y-508648D01*
X1461540Y-508746D01*
X1463617Y-508523D01*
X1466865Y-508056D01*
X1467073Y-508151D01*
G37*
%TD.AperFunction*%
%TA.AperFunction,Conductor*%
G36*
X2183307Y-362022D02*
G01*
X2183518Y-362229D01*
X2196318Y-375028D01*
X2199667Y-381161D01*
X2199950Y-383796D01*
X2199950Y-421975D01*
X2201113Y-427823D01*
X2201113Y-427823D01*
X2205545Y-434455D01*
X2212177Y-438887D01*
X2212177Y-438887D01*
X2218025Y-440050D01*
X2218025Y-440050D01*
X2315162Y-440050D01*
X2321866Y-442018D01*
X2326442Y-447299D01*
X2327436Y-454215D01*
X2325089Y-459881D01*
X2320665Y-465791D01*
X2320665Y-465791D01*
X2315640Y-479262D01*
X2315462Y-480017D01*
X2315246Y-479966D01*
X2313003Y-485381D01*
X2307263Y-489365D01*
X2303348Y-490000D01*
X2295000Y-490000D01*
X2295000Y-562600D01*
X2293032Y-569304D01*
X2287751Y-573879D01*
X2282600Y-575000D01*
X2257400Y-575000D01*
X2250696Y-573032D01*
X2246121Y-567751D01*
X2245000Y-562600D01*
X2245000Y-490000D01*
X2215216Y-490000D01*
X2209263Y-490640D01*
X2209262Y-490640D01*
X2195791Y-495664D01*
X2195791Y-495665D01*
X2189981Y-500014D01*
X2183435Y-502456D01*
X2176607Y-500971D01*
X2171667Y-496030D01*
X2170150Y-490087D01*
X2170150Y-393969D01*
X2170150Y-393969D01*
X2167717Y-384889D01*
X2167717Y-384888D01*
X2167717Y-384888D01*
X2167266Y-383204D01*
X2167080Y-382511D01*
X2164012Y-377197D01*
X2162364Y-370407D01*
X2164650Y-363804D01*
X2170142Y-359485D01*
X2177097Y-358821D01*
X2183307Y-362022D01*
G37*
%TD.AperFunction*%
%TA.AperFunction,Conductor*%
G36*
X-965690Y-516968D02*
G01*
X-963423Y-519196D01*
X-963319Y-519092D01*
X-962455Y-519955D01*
X-955823Y-524387D01*
X-955823Y-524387D01*
X-949975Y-525550D01*
X-949975Y-525550D01*
X-878375Y-525550D01*
X-875431Y-526415D01*
X-872432Y-527067D01*
X-872109Y-527390D01*
X-871671Y-527519D01*
X-869662Y-529837D01*
X-867492Y-532007D01*
X-867395Y-532454D01*
X-867096Y-532799D01*
X-866659Y-535836D01*
X-866007Y-538835D01*
X-866140Y-539447D01*
X-866101Y-539715D01*
X-866757Y-542283D01*
X-868286Y-546383D01*
X-872473Y-551977D01*
X-879019Y-554418D01*
X-879904Y-554450D01*
X-949975Y-554450D01*
X-955823Y-555613D01*
X-955823Y-555613D01*
X-962455Y-560045D01*
X-963319Y-560908D01*
X-963530Y-560697D01*
X-967445Y-563969D01*
X-972394Y-565000D01*
X-1037600Y-565000D01*
X-1044304Y-563032D01*
X-1048879Y-557751D01*
X-1050000Y-552600D01*
X-1050000Y-527400D01*
X-1048031Y-520696D01*
X-1042751Y-516121D01*
X-1037600Y-515000D01*
X-972394Y-515000D01*
X-965690Y-516968D01*
G37*
%TD.AperFunction*%
%TA.AperFunction,Conductor*%
G36*
X-2008690Y-396810D02*
G01*
X-2005500Y-400000D01*
X-1927400Y-400000D01*
X-1920696Y-401968D01*
X-1916121Y-407249D01*
X-1915000Y-412400D01*
X-1915000Y-437600D01*
X-1916968Y-444304D01*
X-1922249Y-448879D01*
X-1927400Y-450000D01*
X-2005500Y-450000D01*
X-2005500Y-472784D01*
X-2004860Y-478737D01*
X-2004860Y-478738D01*
X-1999835Y-492209D01*
X-1999835Y-492209D01*
X-1994901Y-498800D01*
X-1992459Y-505347D01*
X-1992890Y-509587D01*
X-1993423Y-511483D01*
X-1993887Y-512177D01*
X-1994536Y-515442D01*
X-1994667Y-515906D01*
X-1996276Y-518474D01*
X-1997681Y-521160D01*
X-1998112Y-521406D01*
X-1998376Y-521827D01*
X-2001118Y-523117D01*
X-2003752Y-524618D01*
X-2004487Y-524703D01*
X-2004698Y-524803D01*
X-2004998Y-524763D01*
X-2006604Y-524950D01*
X-2007632Y-524950D01*
X-2010941Y-523978D01*
X-2011624Y-523888D01*
X-2011824Y-523719D01*
X-2014336Y-522981D01*
X-2017942Y-519439D01*
X-2020545Y-515545D01*
X-2027177Y-511113D01*
X-2027177Y-511113D01*
X-2033025Y-509950D01*
X-2033025Y-509950D01*
X-2126975Y-509950D01*
X-2126975Y-509950D01*
X-2132823Y-511113D01*
X-2132823Y-511113D01*
X-2134661Y-512341D01*
X-2141329Y-514429D01*
X-2148067Y-512580D01*
X-2152736Y-507382D01*
X-2153950Y-502031D01*
X-2153950Y-500025D01*
X-2153950Y-500025D01*
X-2155113Y-494177D01*
X-2155113Y-494177D01*
X-2159545Y-487545D01*
X-2166177Y-483113D01*
X-2166177Y-483113D01*
X-2172025Y-481950D01*
X-2172025Y-481950D01*
X-2238304Y-481950D01*
X-2245007Y-479981D01*
X-2249583Y-474701D01*
X-2250577Y-467785D01*
X-2247675Y-461430D01*
X-2247072Y-460782D01*
X-2233308Y-447018D01*
X-2202472Y-416182D01*
X-2196339Y-412833D01*
X-2193703Y-412550D01*
X-2092894Y-412550D01*
X-2087625Y-413962D01*
X-2087570Y-413828D01*
X-2086819Y-414139D01*
X-2086819Y-414139D01*
X-2074089Y-417550D01*
X-2074089Y-417550D01*
X-2060911Y-417550D01*
X-2060911Y-417550D01*
X-2048181Y-414139D01*
X-2036769Y-407550D01*
X-2027450Y-398231D01*
X-2027449Y-398230D01*
X-2027296Y-398030D01*
X-2027122Y-397903D01*
X-2026875Y-397657D01*
X-2026837Y-397695D01*
X-2021653Y-393910D01*
X-2014679Y-393494D01*
X-2008690Y-396810D01*
G37*
%TD.AperFunction*%
%TA.AperFunction,Conductor*%
G36*
X-1265667Y-161829D02*
G01*
X-1261232Y-164679D01*
X-1260455Y-165455D01*
X-1253823Y-169887D01*
X-1253823Y-169887D01*
X-1247975Y-171050D01*
X-1247975Y-171050D01*
X-1247975Y-171050D01*
X-1164025Y-171050D01*
X-1164025Y-171050D01*
X-1162036Y-170654D01*
X-1158177Y-169887D01*
X-1158177Y-169887D01*
X-1158177Y-169887D01*
X-1151545Y-165455D01*
X-1151545Y-165455D01*
X-1151268Y-165179D01*
X-1145136Y-161830D01*
X-1138167Y-162329D01*
X-1133732Y-165179D01*
X-1133455Y-165455D01*
X-1126823Y-169887D01*
X-1126823Y-169887D01*
X-1120975Y-171050D01*
X-1120975Y-171050D01*
X-1120975Y-171050D01*
X-1037025Y-171050D01*
X-1037025Y-171050D01*
X-1035036Y-170654D01*
X-1031177Y-169887D01*
X-1031177Y-169887D01*
X-1031177Y-169887D01*
X-1024545Y-165455D01*
X-1024545Y-165455D01*
X-1024268Y-165179D01*
X-1018136Y-161830D01*
X-1011167Y-162329D01*
X-1008551Y-163677D01*
X-1006895Y-164797D01*
X-1006455Y-165455D01*
X-999823Y-169887D01*
X-999185Y-170014D01*
X-997620Y-171073D01*
X-996164Y-172836D01*
X-994383Y-174271D01*
X-993981Y-175478D01*
X-993171Y-176460D01*
X-992899Y-178730D01*
X-992177Y-180900D01*
X-992402Y-182883D01*
X-992340Y-183397D01*
X-992447Y-183618D01*
X-992550Y-184398D01*
X-992550Y-184398D01*
X-992550Y-195602D01*
X-989650Y-206424D01*
X-984048Y-216126D01*
X-976126Y-224048D01*
X-966424Y-229650D01*
X-955602Y-232550D01*
X-955602Y-232550D01*
X-944398Y-232550D01*
X-944398Y-232550D01*
X-933576Y-229650D01*
X-923874Y-224048D01*
X-915951Y-216126D01*
X-910350Y-206424D01*
X-907450Y-195602D01*
X-907450Y-184398D01*
X-907951Y-182528D01*
X-907899Y-180341D01*
X-908323Y-178195D01*
X-907818Y-176917D01*
X-907785Y-175543D01*
X-906559Y-173732D01*
X-905755Y-171697D01*
X-904210Y-170261D01*
X-903869Y-169757D01*
X-903211Y-169250D01*
X-903038Y-169126D01*
X-897545Y-165455D01*
X-897187Y-164920D01*
X-895737Y-163878D01*
X-893353Y-163041D01*
X-891136Y-161830D01*
X-890113Y-161903D01*
X-889145Y-161564D01*
X-886687Y-162148D01*
X-884167Y-162329D01*
X-883131Y-162994D01*
X-882348Y-163181D01*
X-881549Y-164011D01*
X-879732Y-165179D01*
X-879455Y-165455D01*
X-876134Y-167674D01*
X-872823Y-169887D01*
X-872341Y-169983D01*
X-866150Y-173221D01*
X-862693Y-179292D01*
X-862466Y-183762D01*
X-862550Y-184398D01*
X-862550Y-184398D01*
X-862550Y-195602D01*
X-859650Y-206424D01*
X-854048Y-216126D01*
X-846126Y-224048D01*
X-836424Y-229650D01*
X-825602Y-232550D01*
X-825602Y-232550D01*
X-814398Y-232550D01*
X-814398Y-232550D01*
X-803576Y-229650D01*
X-793874Y-224048D01*
X-785951Y-216126D01*
X-780350Y-206424D01*
X-777450Y-195602D01*
X-777450Y-184398D01*
X-778407Y-180828D01*
X-778357Y-178743D01*
X-778795Y-176705D01*
X-778276Y-175321D01*
X-778240Y-173843D01*
X-777072Y-172116D01*
X-776338Y-170164D01*
X-774706Y-168620D01*
X-774324Y-168057D01*
X-773837Y-167674D01*
X-773583Y-167486D01*
X-770545Y-165455D01*
X-770235Y-164991D01*
X-768908Y-164003D01*
X-766442Y-163090D01*
X-764136Y-161830D01*
X-763218Y-161896D01*
X-762355Y-161576D01*
X-759788Y-162141D01*
X-757167Y-162329D01*
X-756246Y-162920D01*
X-755532Y-163078D01*
X-754698Y-163915D01*
X-752732Y-165179D01*
X-752455Y-165455D01*
X-747137Y-169009D01*
X-742657Y-174370D01*
X-741786Y-181302D01*
X-742049Y-182528D01*
X-742550Y-184398D01*
X-742550Y-184398D01*
X-742550Y-195602D01*
X-739650Y-206424D01*
X-734048Y-216126D01*
X-726126Y-224048D01*
X-716424Y-229650D01*
X-705602Y-232550D01*
X-705602Y-232550D01*
X-694398Y-232550D01*
X-694398Y-232550D01*
X-683576Y-229650D01*
X-673874Y-224048D01*
X-665952Y-216126D01*
X-660350Y-206424D01*
X-657450Y-195602D01*
X-657450Y-184398D01*
X-657450Y-184398D01*
X-657556Y-183593D01*
X-657385Y-183570D01*
X-657243Y-177568D01*
X-653327Y-171782D01*
X-652380Y-171073D01*
X-650815Y-170014D01*
X-650177Y-169887D01*
X-643545Y-165455D01*
X-643105Y-164797D01*
X-641449Y-163677D01*
X-639204Y-162959D01*
X-637136Y-161830D01*
X-635938Y-161916D01*
X-634793Y-161550D01*
X-632517Y-162160D01*
X-630167Y-162329D01*
X-628933Y-163121D01*
X-628045Y-163360D01*
X-627318Y-164160D01*
X-625732Y-165179D01*
X-625455Y-165455D01*
X-618823Y-169887D01*
X-618823Y-169887D01*
X-612975Y-171050D01*
X-612975Y-171050D01*
X-612975Y-171050D01*
X-529025Y-171050D01*
X-529025Y-171050D01*
X-527036Y-170654D01*
X-523177Y-169887D01*
X-523177Y-169887D01*
X-523177Y-169887D01*
X-516545Y-165455D01*
X-516545Y-165455D01*
X-516268Y-165179D01*
X-510136Y-161830D01*
X-503167Y-162329D01*
X-498732Y-165179D01*
X-498455Y-165455D01*
X-491823Y-169887D01*
X-491823Y-169887D01*
X-485975Y-171050D01*
X-485975Y-171050D01*
X-485975Y-171050D01*
X-402025Y-171050D01*
X-402025Y-171050D01*
X-400036Y-170654D01*
X-396177Y-169887D01*
X-396177Y-169887D01*
X-396177Y-169887D01*
X-389545Y-165455D01*
X-389545Y-165455D01*
X-389268Y-165179D01*
X-383136Y-161830D01*
X-376167Y-162329D01*
X-371732Y-165179D01*
X-371455Y-165455D01*
X-364823Y-169887D01*
X-364823Y-169887D01*
X-358975Y-171050D01*
X-358975Y-171050D01*
X-358975Y-171050D01*
X-308119Y-171050D01*
X-301415Y-173019D01*
X-299351Y-174682D01*
X-197986Y-276047D01*
X-190564Y-280332D01*
X-182285Y-282550D01*
X49109Y-282550D01*
X55812Y-284519D01*
X60388Y-289799D01*
X61382Y-296715D01*
X58480Y-303070D01*
X57877Y-303718D01*
X-54223Y-415818D01*
X-60356Y-419167D01*
X-62991Y-419450D01*
X-127550Y-419450D01*
X-134254Y-417481D01*
X-138829Y-412201D01*
X-139950Y-407050D01*
X-139950Y-402525D01*
X-139950Y-402525D01*
X-141113Y-396677D01*
X-141113Y-396677D01*
X-145545Y-390045D01*
X-152177Y-385613D01*
X-152177Y-385613D01*
X-158025Y-384450D01*
X-158025Y-384450D01*
X-361975Y-384450D01*
X-361975Y-384450D01*
X-367823Y-385613D01*
X-367823Y-385613D01*
X-374455Y-390045D01*
X-378887Y-396677D01*
X-378887Y-396677D01*
X-380050Y-402525D01*
X-380050Y-501003D01*
X-382018Y-507707D01*
X-387299Y-512283D01*
X-394215Y-513277D01*
X-400570Y-510375D01*
X-401218Y-509772D01*
X-610138Y-300851D01*
X-610139Y-300851D01*
X-618039Y-296290D01*
X-620411Y-294920D01*
X-621622Y-294596D01*
X-622833Y-294271D01*
X-622833Y-294271D01*
X-626652Y-293248D01*
X-631869Y-291850D01*
X-2042831Y-291850D01*
X-2054289Y-294920D01*
X-2055000Y-295331D01*
X-2055000Y-295331D01*
X-2064561Y-300851D01*
X-2064561Y-300851D01*
X-2081399Y-317689D01*
X-2082092Y-318152D01*
X-2082386Y-318575D01*
X-2083805Y-319296D01*
X-2085421Y-320376D01*
X-2086174Y-320688D01*
X-2086819Y-320861D01*
X-2087397Y-321195D01*
X-2088148Y-321506D01*
X-2090190Y-321726D01*
X-2092894Y-322450D01*
X-2365904Y-322450D01*
X-2372607Y-320482D01*
X-2374672Y-318818D01*
X-2501272Y-192218D01*
X-2504620Y-186086D01*
X-2504122Y-179117D01*
X-2499935Y-173523D01*
X-2493388Y-171082D01*
X-2492504Y-171050D01*
X-2434025Y-171050D01*
X-2434025Y-171050D01*
X-2432036Y-170654D01*
X-2428177Y-169887D01*
X-2428177Y-169887D01*
X-2428177Y-169887D01*
X-2421545Y-165455D01*
X-2421545Y-165455D01*
X-2421268Y-165179D01*
X-2415136Y-161830D01*
X-2408167Y-162329D01*
X-2403732Y-165179D01*
X-2403455Y-165455D01*
X-2396823Y-169887D01*
X-2396823Y-169887D01*
X-2390975Y-171050D01*
X-2390975Y-171050D01*
X-2390975Y-171050D01*
X-2307025Y-171050D01*
X-2307025Y-171050D01*
X-2305036Y-170654D01*
X-2301177Y-169887D01*
X-2301177Y-169887D01*
X-2301177Y-169887D01*
X-2294545Y-165455D01*
X-2294545Y-165455D01*
X-2294268Y-165179D01*
X-2288136Y-161830D01*
X-2281167Y-162329D01*
X-2276732Y-165179D01*
X-2276455Y-165455D01*
X-2269823Y-169887D01*
X-2269823Y-169887D01*
X-2263975Y-171050D01*
X-2263975Y-171050D01*
X-2263975Y-171050D01*
X-2180025Y-171050D01*
X-2180025Y-171050D01*
X-2178036Y-170654D01*
X-2174177Y-169887D01*
X-2174177Y-169887D01*
X-2174177Y-169887D01*
X-2167545Y-165455D01*
X-2167545Y-165455D01*
X-2167268Y-165179D01*
X-2161136Y-161830D01*
X-2154167Y-162329D01*
X-2149732Y-165179D01*
X-2149455Y-165455D01*
X-2142823Y-169887D01*
X-2142823Y-169887D01*
X-2136975Y-171050D01*
X-2136975Y-171050D01*
X-2136975Y-171050D01*
X-2053025Y-171050D01*
X-2053025Y-171050D01*
X-2051036Y-170654D01*
X-2047177Y-169887D01*
X-2047177Y-169887D01*
X-2047177Y-169887D01*
X-2040545Y-165455D01*
X-2040545Y-165455D01*
X-2040268Y-165179D01*
X-2034136Y-161830D01*
X-2027167Y-162329D01*
X-2024262Y-163878D01*
X-2022813Y-164920D01*
X-2022455Y-165455D01*
X-2016962Y-169126D01*
X-2016789Y-169250D01*
X-2014766Y-171846D01*
X-2012657Y-174370D01*
X-2012629Y-174588D01*
X-2012494Y-174761D01*
X-2012196Y-178039D01*
X-2011786Y-181302D01*
X-2011865Y-181672D01*
X-2011861Y-181720D01*
X-2011886Y-181767D01*
X-2012049Y-182528D01*
X-2012550Y-184398D01*
X-2012550Y-184398D01*
X-2012550Y-195602D01*
X-2009650Y-206424D01*
X-2004048Y-216126D01*
X-1996126Y-224048D01*
X-1986424Y-229650D01*
X-1975602Y-232550D01*
X-1975602Y-232550D01*
X-1964398Y-232550D01*
X-1964398Y-232550D01*
X-1953576Y-229650D01*
X-1943874Y-224048D01*
X-1935951Y-216126D01*
X-1930350Y-206424D01*
X-1927450Y-195602D01*
X-1927450Y-184398D01*
X-1927450Y-184398D01*
X-1927556Y-183593D01*
X-1927385Y-183570D01*
X-1927243Y-177568D01*
X-1923327Y-171782D01*
X-1922380Y-171073D01*
X-1920815Y-170014D01*
X-1920177Y-169887D01*
X-1913545Y-165455D01*
X-1913105Y-164797D01*
X-1911449Y-163677D01*
X-1909204Y-162959D01*
X-1907136Y-161830D01*
X-1905937Y-161916D01*
X-1904793Y-161550D01*
X-1902517Y-162160D01*
X-1900167Y-162329D01*
X-1898933Y-163121D01*
X-1898044Y-163360D01*
X-1897318Y-164160D01*
X-1895732Y-165179D01*
X-1895455Y-165455D01*
X-1888823Y-169887D01*
X-1888823Y-169887D01*
X-1882975Y-171050D01*
X-1882975Y-171050D01*
X-1882975Y-171050D01*
X-1799025Y-171050D01*
X-1799025Y-171050D01*
X-1797036Y-170654D01*
X-1793177Y-169887D01*
X-1793177Y-169887D01*
X-1793177Y-169887D01*
X-1786545Y-165455D01*
X-1786545Y-165455D01*
X-1786268Y-165179D01*
X-1780136Y-161830D01*
X-1773167Y-162329D01*
X-1768732Y-165179D01*
X-1768455Y-165455D01*
X-1761823Y-169887D01*
X-1761823Y-169887D01*
X-1755975Y-171050D01*
X-1755975Y-171050D01*
X-1755975Y-171050D01*
X-1672025Y-171050D01*
X-1672025Y-171050D01*
X-1670036Y-170654D01*
X-1666177Y-169887D01*
X-1666177Y-169887D01*
X-1666177Y-169887D01*
X-1659545Y-165455D01*
X-1659545Y-165455D01*
X-1659268Y-165179D01*
X-1653136Y-161830D01*
X-1646167Y-162329D01*
X-1641732Y-165179D01*
X-1641455Y-165455D01*
X-1634823Y-169887D01*
X-1634823Y-169887D01*
X-1628975Y-171050D01*
X-1628975Y-171050D01*
X-1628975Y-171050D01*
X-1545025Y-171050D01*
X-1545025Y-171050D01*
X-1543036Y-170654D01*
X-1539177Y-169887D01*
X-1539177Y-169887D01*
X-1539177Y-169887D01*
X-1532545Y-165455D01*
X-1532545Y-165455D01*
X-1531529Y-164777D01*
X-1531419Y-164942D01*
X-1526636Y-162330D01*
X-1519667Y-162829D01*
X-1516520Y-164851D01*
X-1516471Y-164777D01*
X-1508823Y-169887D01*
X-1508823Y-169887D01*
X-1502975Y-171050D01*
X-1502975Y-171050D01*
X-1502975Y-171050D01*
X-1419025Y-171050D01*
X-1419025Y-171050D01*
X-1417036Y-170654D01*
X-1413177Y-169887D01*
X-1413177Y-169887D01*
X-1413177Y-169887D01*
X-1406545Y-165455D01*
X-1406545Y-165455D01*
X-1406268Y-165179D01*
X-1400136Y-161830D01*
X-1393167Y-162329D01*
X-1388732Y-165179D01*
X-1388455Y-165455D01*
X-1381823Y-169887D01*
X-1381823Y-169887D01*
X-1375975Y-171050D01*
X-1375975Y-171050D01*
X-1375975Y-171050D01*
X-1292025Y-171050D01*
X-1292025Y-171050D01*
X-1290036Y-170654D01*
X-1286177Y-169887D01*
X-1286177Y-169887D01*
X-1286177Y-169887D01*
X-1279545Y-165455D01*
X-1279545Y-165455D01*
X-1278768Y-164679D01*
X-1272636Y-161330D01*
X-1265667Y-161829D01*
G37*
%TD.AperFunction*%
%TA.AperFunction,Conductor*%
G36*
X-1393526Y-383918D02*
G01*
X-1388950Y-389199D01*
X-1387956Y-396115D01*
X-1389919Y-401239D01*
X-1393887Y-407177D01*
X-1393887Y-407177D01*
X-1395050Y-413025D01*
X-1395050Y-476975D01*
X-1394422Y-480131D01*
X-1395045Y-487090D01*
X-1399331Y-492608D01*
X-1405920Y-494932D01*
X-1406584Y-494950D01*
X-1545317Y-494950D01*
X-1552020Y-492981D01*
X-1556596Y-487701D01*
X-1557590Y-480785D01*
X-1557478Y-480131D01*
X-1556950Y-477475D01*
X-1556950Y-394350D01*
X-1554981Y-387646D01*
X-1549701Y-383071D01*
X-1544550Y-381950D01*
X-1400229Y-381950D01*
X-1393526Y-383918D01*
G37*
%TD.AperFunction*%
%TD*%
M02*
