%TF.GenerationSoftware,KiCad,Pcbnew,9.0.0*%
%TF.CreationDate,2025-03-29T13:30:17+00:00*%
%TF.ProjectId,vm_jacdaptor_0.1,766d5f6a-6163-4646-9170-746f725f302e,v0.1*%
%TF.SameCoordinates,PX58b1140PY3fe56c0*%
%TF.FileFunction,Copper,L2,Bot*%
%TF.FilePolarity,Positive*%
%FSLAX45Y45*%
G04 Gerber Fmt 4.5, Leading zero omitted, Abs format (unit mm)*
G04 Created by KiCad (PCBNEW 9.0.0) date 2025-03-29 13:30:17*
%MOMM*%
%LPD*%
G01*
G04 APERTURE LIST*
%TA.AperFunction,ComponentPad*%
%ADD10R,1.700000X1.700000*%
%TD*%
%TA.AperFunction,ComponentPad*%
%ADD11O,1.700000X1.700000*%
%TD*%
%TA.AperFunction,ComponentPad*%
%ADD12O,1.100000X5.500000*%
%TD*%
%TA.AperFunction,ViaPad*%
%ADD13C,0.600000*%
%TD*%
%TA.AperFunction,ViaPad*%
%ADD14C,0.450000*%
%TD*%
%TA.AperFunction,Conductor*%
%ADD15C,0.250000*%
%TD*%
%TA.AperFunction,Conductor*%
%ADD16C,0.500000*%
%TD*%
%TA.AperFunction,Conductor*%
%ADD17C,0.200000*%
%TD*%
G04 APERTURE END LIST*
D10*
%TO.P,J2,1,Pin_1*%
%TO.N,GND*%
X1395000Y-920000D03*
D11*
%TO.P,J2,2,Pin_2*%
%TO.N,/RESET*%
X1649000Y-920000D03*
%TO.P,J2,3,Pin_3*%
%TO.N,/SWCLK*%
X1903000Y-920000D03*
%TO.P,J2,4,Pin_4*%
%TO.N,/JD_DATA*%
X2157000Y-920000D03*
%TO.P,J2,5,Pin_5*%
%TO.N,JD_PWR*%
X2411000Y-920000D03*
%TO.P,J2,6,Pin_6*%
%TO.N,+3V3*%
X2665000Y-920000D03*
%TD*%
D12*
%TO.P,J1,41*%
%TO.N,N/C*%
X2700000Y825000D03*
%TO.P,J1,42*%
X-2700000Y825000D03*
%TD*%
D13*
%TO.N,+3V3*%
X-1750000Y-750100D03*
X-2067500Y-367500D03*
D14*
%TO.N,GND*%
X-1465000Y-445000D03*
D13*
X-2006819Y-444689D03*
D14*
X1940000Y-480000D03*
X-335000Y-305000D03*
X-400000Y-1070000D03*
X-745000Y-830000D03*
D13*
X-1930000Y-710000D03*
D14*
X2170000Y-635000D03*
X945000Y-695000D03*
X-1420000Y-245000D03*
X1435000Y-550000D03*
X1140000Y-810000D03*
X-2260000Y-255000D03*
X1020000Y-965000D03*
%TO.N,/JD_DATA*%
X1808099Y-468914D03*
X700000Y-1070000D03*
%TO.N,/SWDIO_1*%
X-700000Y-190000D03*
X-200000Y-1070000D03*
%TO.N,/SWDIO_2*%
X-60000Y-180000D03*
X0Y-1070000D03*
%TO.N,/SWDIO_3*%
X100000Y-1070000D03*
X320000Y-176900D03*
%TO.N,/SWDIO_4*%
X200000Y-1070000D03*
X440000Y-176900D03*
%TO.N,/SWDIO_5*%
X300000Y-1070000D03*
X570000Y-180000D03*
%TO.N,/SWDIO_6*%
X400000Y-1070000D03*
X700000Y-180000D03*
%TO.N,/SWDIO_7*%
X1590000Y-190000D03*
X500000Y-1070000D03*
%TO.N,/SWCLK*%
X-6851Y-863829D03*
X-600000Y-1070000D03*
X-1970000Y-190000D03*
X-198693Y-862000D03*
X-600000Y-830000D03*
%TO.N,/RESET*%
X-32782Y-772782D03*
X-500000Y-760000D03*
X-500000Y-1070000D03*
X-152500Y-816322D03*
X-950000Y-190000D03*
%TO.N,/SWDIO_0*%
X-300000Y-1070000D03*
X-820000Y-190000D03*
%TO.N,/SWDIO_8*%
X1720000Y-190000D03*
X600000Y-1070000D03*
%TD*%
D15*
%TO.N,+3V3*%
X-2067500Y-367500D02*
X-1856140Y-367500D01*
X-1856140Y-367500D02*
X-1732500Y-491140D01*
X-1732500Y-491140D02*
X-1732500Y-712500D01*
X-1750000Y-730000D02*
X-1750000Y-750100D01*
X-1732500Y-712500D02*
X-1750000Y-730000D01*
D16*
%TO.N,GND*%
X-2009261Y-447131D02*
X-2006819Y-444689D01*
X-1947098Y-657098D02*
X-1930000Y-674195D01*
D17*
X2700000Y-600000D02*
X2650000Y-600000D01*
D16*
X-1930000Y-674195D02*
X-1930000Y-710000D01*
X-2009261Y-594934D02*
X-2009261Y-447131D01*
X-2000000Y-710000D02*
X-1947098Y-657098D01*
X-1947098Y-657098D02*
X-2009261Y-594934D01*
D15*
%TO.N,/JD_DATA*%
X1808099Y-571100D02*
X2157000Y-920000D01*
X1301086Y-468914D02*
X1808099Y-468914D01*
X700000Y-1070000D02*
X1301086Y-468914D01*
X1808099Y-468914D02*
X1808099Y-571100D01*
%TO.N,/SWDIO_1*%
X-700000Y-290000D02*
X-700000Y-190000D01*
X-253693Y-884782D02*
X-253693Y-736307D01*
X-200000Y-938475D02*
X-253693Y-884782D01*
X-253693Y-736307D02*
X-700000Y-290000D01*
X-200000Y-1070000D02*
X-200000Y-938475D01*
%TO.N,/SWDIO_2*%
X0Y-1070000D02*
X0Y-934760D01*
X50000Y-680242D02*
X0Y-630242D01*
X0Y-934760D02*
X50000Y-884760D01*
X0Y-630242D02*
X0Y-240000D01*
X50000Y-884760D02*
X50000Y-680242D01*
X0Y-240000D02*
X-60000Y-180000D01*
%TO.N,/SWDIO_3*%
X100000Y-1070000D02*
X100000Y-410000D01*
X320000Y-190000D02*
X320000Y-176900D01*
X100000Y-410000D02*
X320000Y-190000D01*
%TO.N,/SWDIO_4*%
X440000Y-190000D02*
X440000Y-176900D01*
X200000Y-1070000D02*
X200000Y-430000D01*
X200000Y-430000D02*
X440000Y-190000D01*
%TO.N,/SWDIO_5*%
X300000Y-1070000D02*
X300000Y-450000D01*
X300000Y-450000D02*
X570000Y-180000D01*
%TO.N,/SWDIO_6*%
X400000Y-480000D02*
X700000Y-180000D01*
X400000Y-1070000D02*
X400000Y-480000D01*
%TO.N,/SWDIO_7*%
X500000Y-745209D02*
X1055210Y-190000D01*
X1055210Y-190000D02*
X1590000Y-190000D01*
X500000Y-1070000D02*
X500000Y-745209D01*
%TO.N,/SWCLK*%
X-194257Y-862102D02*
X-194356Y-862102D01*
X-167081Y-885000D02*
X-185770Y-866310D01*
X-600000Y-830000D02*
X-810000Y-620000D01*
X-185770Y-866310D02*
X-189344Y-866310D01*
X-13829Y-863829D02*
X-35000Y-885000D01*
X-192916Y-862739D02*
X-193620Y-862739D01*
X-1540000Y-620000D02*
X-1970000Y-190000D01*
X-194458Y-862000D02*
X-198693Y-862000D01*
X-600000Y-1070000D02*
X-600000Y-830000D01*
X-6851Y-863829D02*
X-13829Y-863829D01*
X-35000Y-885000D02*
X-167081Y-885000D01*
X-189344Y-866310D02*
X-192916Y-862739D01*
X-810000Y-620000D02*
X-1540000Y-620000D01*
X-194356Y-862102D02*
X-194458Y-862000D01*
X-193620Y-862739D02*
X-194257Y-862102D01*
%TO.N,/RESET*%
X-73333Y-813333D02*
X-149510Y-813333D01*
X-32782Y-772782D02*
X-73333Y-813333D01*
X-950000Y-310000D02*
X-950000Y-190000D01*
X-149510Y-813333D02*
X-152500Y-816322D01*
X-500000Y-1070000D02*
X-500000Y-760000D01*
X-500000Y-760000D02*
X-950000Y-310000D01*
%TO.N,/SWDIO_0*%
X-300000Y-820000D02*
X-820000Y-300000D01*
X-820000Y-300000D02*
X-820000Y-190000D01*
X-300000Y-1070000D02*
X-300000Y-820000D01*
%TO.N,/SWDIO_8*%
X1526086Y-423914D02*
X1720000Y-230000D01*
X1720000Y-230000D02*
X1720000Y-190000D01*
X600000Y-1070000D02*
X600000Y-880000D01*
X600000Y-880000D02*
X1056086Y-423914D01*
X1056086Y-423914D02*
X1526086Y-423914D01*
%TD*%
%TA.AperFunction,Conductor*%
%TO.N,GND*%
G36*
X-2770040Y1097982D02*
G01*
X-2765465Y1092701D01*
X-2764470Y1085785D01*
X-2766262Y1081109D01*
X-2766221Y1081087D01*
X-2766397Y1080759D01*
X-2766434Y1080661D01*
X-2766508Y1080550D01*
X-2766509Y1080549D01*
X-2772166Y1066892D01*
X-2772166Y1066891D01*
X-2775050Y1052392D01*
X-2775050Y1052392D01*
X-2775050Y597608D01*
X-2775050Y597608D01*
X-2775050Y597608D01*
X-2772166Y583109D01*
X-2772166Y583108D01*
X-2766509Y569451D01*
X-2766508Y569450D01*
X-2758295Y557159D01*
X-2758295Y557158D01*
X-2747842Y546705D01*
X-2747842Y546705D01*
X-2735550Y538492D01*
X-2735549Y538491D01*
X-2721892Y532834D01*
X-2721891Y532834D01*
X-2721891Y532834D01*
X-2721891Y532834D01*
X-2707392Y529950D01*
X-2707392Y529950D01*
X-2692608Y529950D01*
X-2682854Y531890D01*
X-2678109Y532834D01*
X-2664451Y538492D01*
X-2652158Y546705D01*
X-2641705Y557158D01*
X-2633492Y569451D01*
X-2627834Y583109D01*
X-2624950Y597608D01*
X-2624950Y668661D01*
X-1410050Y668661D01*
X-1410050Y651339D01*
X-1407340Y634230D01*
X-1401987Y617756D01*
X-1394123Y602321D01*
X-1383941Y588307D01*
X-1371693Y576059D01*
X-1357679Y565877D01*
X-1342245Y558013D01*
X-1325770Y552660D01*
X-1308661Y549950D01*
X-1308661Y549950D01*
X-1291339Y549950D01*
X-1291339Y549950D01*
X-1274230Y552660D01*
X-1257756Y558013D01*
X-1242321Y565877D01*
X-1228307Y576059D01*
X-1216059Y588307D01*
X-1205877Y602321D01*
X-1198013Y617756D01*
X-1192660Y634230D01*
X-1189950Y651339D01*
X-1189950Y668661D01*
X1189950Y668661D01*
X1189950Y651339D01*
X1192660Y634230D01*
X1198013Y617756D01*
X1205877Y602321D01*
X1216059Y588307D01*
X1228307Y576059D01*
X1242321Y565877D01*
X1257756Y558013D01*
X1274230Y552660D01*
X1291339Y549950D01*
X1291339Y549950D01*
X1308661Y549950D01*
X1308661Y549950D01*
X1325770Y552660D01*
X1342245Y558013D01*
X1357679Y565877D01*
X1371693Y576059D01*
X1383941Y588307D01*
X1394123Y602321D01*
X1401987Y617756D01*
X1407340Y634230D01*
X1410050Y651339D01*
X1410050Y668661D01*
X1407340Y685770D01*
X1401987Y702244D01*
X1394123Y717679D01*
X1383941Y731693D01*
X1371693Y743941D01*
X1357679Y754123D01*
X1342245Y761987D01*
X1325770Y767340D01*
X1325770Y767340D01*
X1325770Y767340D01*
X1312627Y769422D01*
X1308661Y770050D01*
X1291339Y770050D01*
X1287373Y769422D01*
X1274230Y767340D01*
X1257755Y761987D01*
X1242321Y754123D01*
X1234326Y748314D01*
X1228307Y743941D01*
X1228307Y743941D01*
X1228307Y743941D01*
X1216059Y731693D01*
X1216059Y731693D01*
X1216059Y731693D01*
X1211686Y725674D01*
X1205877Y717679D01*
X1198013Y702245D01*
X1192660Y685770D01*
X1189950Y668661D01*
X-1189950Y668661D01*
X-1192660Y685770D01*
X-1198013Y702244D01*
X-1205877Y717679D01*
X-1216059Y731693D01*
X-1228307Y743941D01*
X-1242321Y754123D01*
X-1257756Y761987D01*
X-1274230Y767340D01*
X-1274230Y767340D01*
X-1274230Y767340D01*
X-1287373Y769422D01*
X-1291339Y770050D01*
X-1308661Y770050D01*
X-1312627Y769422D01*
X-1325770Y767340D01*
X-1342245Y761987D01*
X-1357679Y754123D01*
X-1365674Y748314D01*
X-1371693Y743941D01*
X-1371693Y743941D01*
X-1371693Y743941D01*
X-1383941Y731693D01*
X-1383941Y731693D01*
X-1383941Y731693D01*
X-1388314Y725674D01*
X-1394123Y717679D01*
X-1401987Y702245D01*
X-1407340Y685770D01*
X-1410050Y668661D01*
X-2624950Y668661D01*
X-2624950Y1052392D01*
X-2624950Y1052392D01*
X-2627834Y1066891D01*
X-2627834Y1066891D01*
X-2627834Y1066891D01*
X-2627834Y1066892D01*
X-2633491Y1080549D01*
X-2633492Y1080550D01*
X-2633566Y1080661D01*
X-2633587Y1080728D01*
X-2633779Y1081087D01*
X-2633711Y1081124D01*
X-2635654Y1087328D01*
X-2633806Y1094066D01*
X-2628608Y1098736D01*
X-2623256Y1099950D01*
X2623256Y1099950D01*
X2629960Y1097982D01*
X2634535Y1092701D01*
X2635530Y1085785D01*
X2633738Y1081109D01*
X2633779Y1081087D01*
X2633603Y1080759D01*
X2633566Y1080661D01*
X2633492Y1080550D01*
X2633491Y1080549D01*
X2627834Y1066892D01*
X2627834Y1066891D01*
X2624950Y1052392D01*
X2624950Y1052392D01*
X2624950Y597608D01*
X2624950Y597608D01*
X2624950Y597608D01*
X2627834Y583109D01*
X2627834Y583108D01*
X2633491Y569451D01*
X2633492Y569450D01*
X2641705Y557159D01*
X2641705Y557158D01*
X2652158Y546705D01*
X2652158Y546705D01*
X2664450Y538492D01*
X2664451Y538491D01*
X2678108Y532834D01*
X2678109Y532834D01*
X2678109Y532834D01*
X2678109Y532834D01*
X2692608Y529950D01*
X2692608Y529950D01*
X2707392Y529950D01*
X2717146Y531890D01*
X2721891Y532834D01*
X2735550Y538492D01*
X2747842Y546705D01*
X2758295Y557158D01*
X2766508Y569451D01*
X2772166Y583109D01*
X2775050Y597608D01*
X2775050Y1052392D01*
X2775050Y1052392D01*
X2772166Y1066891D01*
X2772166Y1066891D01*
X2772166Y1066891D01*
X2772166Y1066892D01*
X2766509Y1080549D01*
X2766508Y1080550D01*
X2766434Y1080661D01*
X2766413Y1080728D01*
X2766221Y1081087D01*
X2766289Y1081124D01*
X2764346Y1087328D01*
X2766194Y1094066D01*
X2771392Y1098736D01*
X2776744Y1099950D01*
X2887550Y1099950D01*
X2894254Y1097982D01*
X2898829Y1092701D01*
X2899950Y1087550D01*
X2899950Y-1087600D01*
X2897981Y-1094304D01*
X2892701Y-1098879D01*
X2887550Y-1100000D01*
X752172Y-1100000D01*
X749774Y-1099296D01*
X747291Y-1098999D01*
X746479Y-1098328D01*
X745469Y-1098032D01*
X743832Y-1096142D01*
X741903Y-1094550D01*
X741583Y-1093547D01*
X740893Y-1092751D01*
X740537Y-1090277D01*
X739776Y-1087895D01*
X739966Y-1086305D01*
X739899Y-1085835D01*
X740195Y-1084391D01*
X740195Y-1084391D01*
X742466Y-1075916D01*
X745675Y-1070358D01*
X985817Y-830215D01*
X1260000Y-830215D01*
X1260000Y-895000D01*
X1351699Y-895000D01*
X1348408Y-900701D01*
X1345000Y-913417D01*
X1345000Y-926583D01*
X1348408Y-939299D01*
X1351699Y-945000D01*
X1260000Y-945000D01*
X1260000Y-1009784D01*
X1260640Y-1015737D01*
X1260640Y-1015738D01*
X1265665Y-1029209D01*
X1265665Y-1029209D01*
X1274281Y-1040719D01*
X1274281Y-1040719D01*
X1285791Y-1049335D01*
X1285791Y-1049335D01*
X1299262Y-1054360D01*
X1299263Y-1054360D01*
X1305216Y-1055000D01*
X1305217Y-1055000D01*
X1370000Y-1055000D01*
X1370000Y-963301D01*
X1375701Y-966592D01*
X1388417Y-970000D01*
X1401583Y-970000D01*
X1414299Y-966592D01*
X1420000Y-963301D01*
X1420000Y-1055000D01*
X1484783Y-1055000D01*
X1484784Y-1055000D01*
X1490737Y-1054360D01*
X1490738Y-1054360D01*
X1504209Y-1049335D01*
X1504209Y-1049335D01*
X1515719Y-1040719D01*
X1515719Y-1040719D01*
X1524335Y-1029209D01*
X1524335Y-1029209D01*
X1529360Y-1015738D01*
X1529360Y-1015737D01*
X1530000Y-1009784D01*
X1530000Y-1009783D01*
X1530000Y-969556D01*
X1531968Y-962852D01*
X1537249Y-958277D01*
X1544165Y-957283D01*
X1550520Y-960185D01*
X1553856Y-964811D01*
X1554594Y-966592D01*
X1555906Y-969760D01*
X1563570Y-981230D01*
X1567402Y-986966D01*
X1582034Y-1001597D01*
X1582034Y-1001598D01*
X1599240Y-1013094D01*
X1618358Y-1021013D01*
X1635008Y-1024325D01*
X1638653Y-1025050D01*
X1638653Y-1025050D01*
X1638653Y-1025050D01*
X1659347Y-1025050D01*
X1659347Y-1025050D01*
X1679642Y-1021013D01*
X1698760Y-1013094D01*
X1715965Y-1001598D01*
X1730598Y-986965D01*
X1742094Y-969760D01*
X1750013Y-950642D01*
X1754050Y-930346D01*
X1754050Y-909653D01*
X1754050Y-909653D01*
X1797950Y-909653D01*
X1797950Y-930347D01*
X1801987Y-950641D01*
X1801987Y-950642D01*
X1809906Y-969760D01*
X1821402Y-986966D01*
X1836034Y-1001597D01*
X1836034Y-1001598D01*
X1853240Y-1013094D01*
X1872358Y-1021013D01*
X1889008Y-1024325D01*
X1892653Y-1025050D01*
X1892653Y-1025050D01*
X1892653Y-1025050D01*
X1913347Y-1025050D01*
X1913347Y-1025050D01*
X1933642Y-1021013D01*
X1952760Y-1013094D01*
X1969965Y-1001598D01*
X1984598Y-986965D01*
X1996094Y-969760D01*
X2004013Y-950642D01*
X2008050Y-930346D01*
X2008050Y-909653D01*
X2004013Y-889358D01*
X1996094Y-870240D01*
X1984598Y-853034D01*
X1984597Y-853034D01*
X1969966Y-838402D01*
X1955486Y-828727D01*
X1952760Y-826906D01*
X1950852Y-826115D01*
X1933642Y-818987D01*
X1933641Y-818987D01*
X1913347Y-814950D01*
X1913346Y-814950D01*
X1892653Y-814950D01*
X1892653Y-814950D01*
X1872359Y-818987D01*
X1872358Y-818987D01*
X1853240Y-826906D01*
X1836034Y-838402D01*
X1821402Y-853034D01*
X1809906Y-870240D01*
X1801987Y-889358D01*
X1801987Y-889359D01*
X1797950Y-909653D01*
X1754050Y-909653D01*
X1750013Y-889358D01*
X1742094Y-870240D01*
X1730598Y-853034D01*
X1730597Y-853034D01*
X1715966Y-838402D01*
X1701486Y-828727D01*
X1698760Y-826906D01*
X1696852Y-826115D01*
X1679642Y-818987D01*
X1679641Y-818987D01*
X1659347Y-814950D01*
X1659346Y-814950D01*
X1638653Y-814950D01*
X1638653Y-814950D01*
X1618359Y-818987D01*
X1618358Y-818987D01*
X1599240Y-826906D01*
X1582034Y-838402D01*
X1567402Y-853034D01*
X1555906Y-870240D01*
X1553856Y-875189D01*
X1549472Y-880629D01*
X1542843Y-882836D01*
X1536073Y-881108D01*
X1531312Y-875994D01*
X1530000Y-870443D01*
X1530000Y-830217D01*
X1530000Y-830215D01*
X1529360Y-824263D01*
X1529360Y-824262D01*
X1524335Y-810791D01*
X1524335Y-810791D01*
X1515719Y-799281D01*
X1515719Y-799281D01*
X1504209Y-790665D01*
X1504209Y-790664D01*
X1490738Y-785640D01*
X1490737Y-785640D01*
X1484784Y-785000D01*
X1420000Y-785000D01*
X1420000Y-876699D01*
X1414299Y-873407D01*
X1401583Y-870000D01*
X1388417Y-870000D01*
X1375701Y-873407D01*
X1370000Y-876699D01*
X1370000Y-785000D01*
X1305216Y-785000D01*
X1299263Y-785640D01*
X1299262Y-785640D01*
X1285791Y-790664D01*
X1285791Y-790665D01*
X1274281Y-799281D01*
X1274281Y-799281D01*
X1265665Y-810791D01*
X1265665Y-810791D01*
X1260640Y-824262D01*
X1260640Y-824263D01*
X1260000Y-830215D01*
X985817Y-830215D01*
X1310937Y-505096D01*
X1317069Y-501747D01*
X1319705Y-501464D01*
X1763149Y-501464D01*
X1769853Y-503432D01*
X1774429Y-508713D01*
X1775549Y-513864D01*
X1775549Y-575385D01*
X1777768Y-583664D01*
X1777857Y-583818D01*
X1782053Y-591086D01*
X1782053Y-591086D01*
X2057257Y-866289D01*
X2060605Y-872422D01*
X2060107Y-879391D01*
X2059945Y-879803D01*
X2055987Y-889357D01*
X2055987Y-889359D01*
X2051950Y-909653D01*
X2051950Y-930347D01*
X2055987Y-950641D01*
X2055987Y-950642D01*
X2063906Y-969760D01*
X2075402Y-986966D01*
X2090034Y-1001597D01*
X2090034Y-1001598D01*
X2107240Y-1013094D01*
X2126358Y-1021013D01*
X2143008Y-1024325D01*
X2146653Y-1025050D01*
X2146653Y-1025050D01*
X2146654Y-1025050D01*
X2167347Y-1025050D01*
X2167347Y-1025050D01*
X2187642Y-1021013D01*
X2206760Y-1013094D01*
X2223966Y-1001598D01*
X2238598Y-986965D01*
X2250094Y-969760D01*
X2258013Y-950642D01*
X2262050Y-930346D01*
X2262050Y-909653D01*
X2262050Y-909653D01*
X2305950Y-909653D01*
X2305950Y-930347D01*
X2309987Y-950641D01*
X2309987Y-950642D01*
X2317906Y-969760D01*
X2329402Y-986966D01*
X2344034Y-1001597D01*
X2344035Y-1001598D01*
X2361240Y-1013094D01*
X2380358Y-1021013D01*
X2397008Y-1024325D01*
X2400653Y-1025050D01*
X2400653Y-1025050D01*
X2400654Y-1025050D01*
X2421347Y-1025050D01*
X2421347Y-1025050D01*
X2441642Y-1021013D01*
X2460760Y-1013094D01*
X2477966Y-1001598D01*
X2492598Y-986965D01*
X2504094Y-969760D01*
X2512013Y-950642D01*
X2516050Y-930346D01*
X2516050Y-909653D01*
X2516050Y-909653D01*
X2559950Y-909653D01*
X2559950Y-930347D01*
X2563987Y-950641D01*
X2563987Y-950642D01*
X2571906Y-969760D01*
X2583402Y-986966D01*
X2598034Y-1001597D01*
X2598035Y-1001598D01*
X2615240Y-1013094D01*
X2634358Y-1021013D01*
X2651008Y-1024325D01*
X2654653Y-1025050D01*
X2654653Y-1025050D01*
X2654654Y-1025050D01*
X2675347Y-1025050D01*
X2675347Y-1025050D01*
X2695642Y-1021013D01*
X2714760Y-1013094D01*
X2731966Y-1001598D01*
X2746598Y-986965D01*
X2758094Y-969760D01*
X2766013Y-950642D01*
X2770050Y-930346D01*
X2770050Y-909653D01*
X2766013Y-889358D01*
X2758094Y-870240D01*
X2746598Y-853034D01*
X2746598Y-853034D01*
X2731966Y-838402D01*
X2717486Y-828727D01*
X2714760Y-826906D01*
X2712852Y-826115D01*
X2695642Y-818987D01*
X2695641Y-818987D01*
X2675347Y-814950D01*
X2675347Y-814950D01*
X2654654Y-814950D01*
X2654653Y-814950D01*
X2634359Y-818987D01*
X2634358Y-818987D01*
X2615240Y-826906D01*
X2598034Y-838402D01*
X2583402Y-853034D01*
X2571906Y-870240D01*
X2563987Y-889358D01*
X2563987Y-889359D01*
X2559950Y-909653D01*
X2516050Y-909653D01*
X2512013Y-889358D01*
X2504094Y-870240D01*
X2492598Y-853034D01*
X2492598Y-853034D01*
X2477966Y-838402D01*
X2463486Y-828727D01*
X2460760Y-826906D01*
X2458852Y-826115D01*
X2441642Y-818987D01*
X2441641Y-818987D01*
X2421347Y-814950D01*
X2421347Y-814950D01*
X2400654Y-814950D01*
X2400653Y-814950D01*
X2380359Y-818987D01*
X2380358Y-818987D01*
X2361240Y-826906D01*
X2344034Y-838402D01*
X2329402Y-853034D01*
X2317906Y-870240D01*
X2309987Y-889358D01*
X2309987Y-889359D01*
X2305950Y-909653D01*
X2262050Y-909653D01*
X2258013Y-889358D01*
X2250094Y-870240D01*
X2238598Y-853034D01*
X2238598Y-853034D01*
X2223966Y-838402D01*
X2209486Y-828727D01*
X2206760Y-826906D01*
X2204852Y-826115D01*
X2187642Y-818987D01*
X2187641Y-818987D01*
X2167347Y-814950D01*
X2167347Y-814950D01*
X2146654Y-814950D01*
X2146653Y-814950D01*
X2126359Y-818987D01*
X2126358Y-818987D01*
X2116803Y-822945D01*
X2109856Y-823692D01*
X2103608Y-820564D01*
X2103290Y-820257D01*
X1844281Y-561249D01*
X1840933Y-555116D01*
X1840649Y-552481D01*
X1840649Y-500958D01*
X1842311Y-494758D01*
X1843047Y-493483D01*
X1847750Y-485338D01*
X1850649Y-474516D01*
X1850649Y-463312D01*
X1847750Y-452490D01*
X1842148Y-442788D01*
X1834226Y-434865D01*
X1824523Y-429264D01*
X1813701Y-426364D01*
X1802498Y-426364D01*
X1791676Y-429264D01*
X1791675Y-429264D01*
X1782255Y-434703D01*
X1776055Y-436364D01*
X1589605Y-436364D01*
X1582901Y-434395D01*
X1578325Y-429115D01*
X1577331Y-422199D01*
X1580234Y-415844D01*
X1580837Y-415196D01*
X1663051Y-332982D01*
X1746046Y-249986D01*
X1750332Y-242564D01*
X1752550Y-234285D01*
X1752550Y-225715D01*
X1752550Y-222044D01*
X1754211Y-215844D01*
X1759650Y-206424D01*
X1762550Y-195602D01*
X1762550Y-184398D01*
X1759650Y-173576D01*
X1754048Y-163874D01*
X1746126Y-155952D01*
X1736424Y-150350D01*
X1725602Y-147450D01*
X1714398Y-147450D01*
X1703576Y-150350D01*
X1703576Y-150350D01*
X1693874Y-155951D01*
X1693873Y-155952D01*
X1685952Y-163873D01*
X1685951Y-163874D01*
X1680350Y-173576D01*
X1680350Y-173576D01*
X1677450Y-184398D01*
X1677450Y-195602D01*
X1679875Y-204654D01*
X1680350Y-206424D01*
X1680350Y-206424D01*
X1681886Y-209084D01*
X1683533Y-215874D01*
X1681248Y-222477D01*
X1679915Y-224052D01*
X1516235Y-387732D01*
X1510103Y-391081D01*
X1507467Y-391364D01*
X1051801Y-391364D01*
X1043522Y-393582D01*
X1036100Y-397867D01*
X1036099Y-397868D01*
X573954Y-860013D01*
X573953Y-860014D01*
X569668Y-867436D01*
X569668Y-867436D01*
X567450Y-875715D01*
X567450Y-1037956D01*
X567195Y-1038824D01*
X567324Y-1039720D01*
X565789Y-1044156D01*
X560739Y-1052903D01*
X555682Y-1057724D01*
X548821Y-1059046D01*
X542335Y-1056450D01*
X539261Y-1052903D01*
X534211Y-1044156D01*
X534046Y-1043540D01*
X533671Y-1043107D01*
X533370Y-1041015D01*
X532550Y-1037956D01*
X532550Y-763828D01*
X534519Y-757124D01*
X536182Y-755060D01*
X1065060Y-226182D01*
X1071193Y-222833D01*
X1073828Y-222550D01*
X1557956Y-222550D01*
X1564156Y-224211D01*
X1573576Y-229650D01*
X1584398Y-232550D01*
X1584398Y-232550D01*
X1595602Y-232550D01*
X1595602Y-232550D01*
X1606424Y-229650D01*
X1616126Y-224048D01*
X1624048Y-216126D01*
X1629650Y-206424D01*
X1632550Y-195602D01*
X1632550Y-184398D01*
X1629650Y-173576D01*
X1624048Y-163874D01*
X1616126Y-155952D01*
X1606424Y-150350D01*
X1595602Y-147450D01*
X1584398Y-147450D01*
X1573576Y-150350D01*
X1573576Y-150350D01*
X1564156Y-155789D01*
X1557956Y-157450D01*
X1050924Y-157450D01*
X1042645Y-159668D01*
X1035223Y-163954D01*
X1035223Y-163954D01*
X473954Y-725223D01*
X473953Y-725224D01*
X469668Y-732645D01*
X469318Y-733953D01*
X467450Y-740924D01*
X467450Y-1037956D01*
X467195Y-1038824D01*
X467324Y-1039720D01*
X465789Y-1044156D01*
X460739Y-1052903D01*
X455682Y-1057724D01*
X448821Y-1059046D01*
X442335Y-1056450D01*
X439261Y-1052903D01*
X434211Y-1044156D01*
X434046Y-1043540D01*
X433671Y-1043107D01*
X433370Y-1041015D01*
X432550Y-1037956D01*
X432550Y-498619D01*
X434518Y-491915D01*
X436182Y-489851D01*
X565122Y-360911D01*
X700358Y-225675D01*
X705916Y-222466D01*
X716424Y-219650D01*
X726126Y-214048D01*
X734048Y-206126D01*
X739650Y-196424D01*
X742550Y-185602D01*
X742550Y-174398D01*
X739650Y-163576D01*
X734048Y-153874D01*
X726126Y-145952D01*
X716424Y-140350D01*
X705602Y-137450D01*
X694398Y-137450D01*
X683576Y-140350D01*
X683576Y-140350D01*
X673874Y-145951D01*
X673873Y-145952D01*
X665952Y-153873D01*
X665951Y-153874D01*
X660350Y-163576D01*
X660350Y-163576D01*
X657534Y-174084D01*
X654325Y-179642D01*
X632164Y-201804D01*
X626031Y-205152D01*
X619062Y-204654D01*
X613469Y-200466D01*
X611027Y-193920D01*
X611418Y-189827D01*
X612550Y-185602D01*
X612550Y-174398D01*
X609650Y-163576D01*
X604049Y-153874D01*
X596126Y-145952D01*
X586424Y-140350D01*
X575602Y-137450D01*
X564398Y-137450D01*
X553576Y-140350D01*
X553576Y-140350D01*
X543874Y-145951D01*
X543873Y-145952D01*
X535952Y-153873D01*
X535951Y-153874D01*
X530350Y-163576D01*
X530350Y-163576D01*
X527534Y-174084D01*
X524325Y-179642D01*
X501029Y-202938D01*
X494897Y-206287D01*
X487927Y-205788D01*
X482334Y-201601D01*
X479892Y-195055D01*
X480283Y-190961D01*
X482550Y-182502D01*
X482550Y-171298D01*
X479650Y-160476D01*
X474048Y-150774D01*
X466126Y-142852D01*
X459658Y-139117D01*
X456424Y-137250D01*
X456424Y-137250D01*
X456424Y-137250D01*
X445602Y-134350D01*
X434398Y-134350D01*
X423576Y-137250D01*
X423576Y-137250D01*
X413874Y-142851D01*
X413873Y-142852D01*
X405952Y-150773D01*
X405951Y-150774D01*
X400350Y-160476D01*
X400350Y-160476D01*
X397450Y-171298D01*
X397450Y-181381D01*
X396585Y-184325D01*
X395933Y-187324D01*
X395558Y-187825D01*
X395481Y-188085D01*
X393819Y-190149D01*
X383501Y-200466D01*
X381029Y-202938D01*
X374897Y-206287D01*
X367927Y-205788D01*
X362334Y-201601D01*
X359892Y-195055D01*
X360283Y-190961D01*
X362550Y-182502D01*
X362550Y-171298D01*
X359650Y-160476D01*
X354048Y-150774D01*
X346126Y-142852D01*
X339658Y-139117D01*
X336424Y-137250D01*
X336424Y-137250D01*
X336424Y-137250D01*
X325602Y-134350D01*
X314398Y-134350D01*
X303576Y-137250D01*
X303576Y-137250D01*
X293874Y-142851D01*
X293873Y-142852D01*
X285952Y-150773D01*
X285951Y-150774D01*
X280350Y-160476D01*
X280350Y-160476D01*
X277450Y-171298D01*
X277450Y-181381D01*
X275482Y-188085D01*
X273818Y-190149D01*
X73954Y-390013D01*
X73953Y-390014D01*
X69668Y-397436D01*
X69668Y-397436D01*
X67450Y-405715D01*
X67450Y-621723D01*
X66826Y-623848D01*
X66668Y-626057D01*
X65861Y-627135D01*
X65481Y-628427D01*
X63808Y-629877D01*
X62481Y-631650D01*
X61219Y-632121D01*
X60201Y-633003D01*
X58009Y-633318D01*
X55935Y-634092D01*
X54618Y-633806D01*
X53285Y-633997D01*
X51271Y-633077D01*
X49107Y-632607D01*
X47335Y-631280D01*
X46930Y-631095D01*
X46282Y-630492D01*
X36182Y-620392D01*
X32833Y-614259D01*
X32550Y-611623D01*
X32550Y-235715D01*
X32550Y-235715D01*
X30332Y-227436D01*
X30332Y-227436D01*
X26046Y-220014D01*
X-14325Y-179642D01*
X-17534Y-174084D01*
X-20350Y-163576D01*
X-25951Y-153874D01*
X-33874Y-145952D01*
X-43576Y-140350D01*
X-54398Y-137450D01*
X-65602Y-137450D01*
X-76424Y-140350D01*
X-76424Y-140350D01*
X-86126Y-145951D01*
X-86127Y-145952D01*
X-94048Y-153873D01*
X-94049Y-153874D01*
X-99650Y-163576D01*
X-99650Y-163576D01*
X-99650Y-163576D01*
X-102550Y-174398D01*
X-102550Y-185602D01*
X-99650Y-196424D01*
X-94048Y-206126D01*
X-86126Y-214048D01*
X-76424Y-219650D01*
X-65916Y-222466D01*
X-60358Y-225675D01*
X-36182Y-249851D01*
X-32833Y-255983D01*
X-32550Y-258619D01*
X-32550Y-634528D01*
X-30332Y-642806D01*
X-28461Y-646046D01*
X-26046Y-650229D01*
X-26046Y-650229D01*
X13818Y-690093D01*
X17167Y-696226D01*
X17450Y-698861D01*
X17450Y-732903D01*
X15482Y-739607D01*
X10201Y-744182D01*
X3285Y-745176D01*
X-3070Y-742274D01*
X-3718Y-741671D01*
X-6655Y-738733D01*
X-6655Y-738733D01*
X-13124Y-734999D01*
X-16358Y-733132D01*
X-16358Y-733131D01*
X-16358Y-733131D01*
X-27180Y-730232D01*
X-38384Y-730232D01*
X-49205Y-733131D01*
X-49206Y-733132D01*
X-58908Y-738733D01*
X-58908Y-738733D01*
X-66830Y-746655D01*
X-66831Y-746656D01*
X-72432Y-756358D01*
X-72432Y-756358D01*
X-75248Y-766865D01*
X-76049Y-768254D01*
X-76342Y-769599D01*
X-78457Y-772424D01*
X-83184Y-777151D01*
X-89316Y-780499D01*
X-91952Y-780783D01*
X-125634Y-780783D01*
X-131834Y-779122D01*
X-136076Y-776672D01*
X-146898Y-773772D01*
X-158102Y-773772D01*
X-168924Y-776672D01*
X-168924Y-776672D01*
X-178626Y-782274D01*
X-178627Y-782274D01*
X-186548Y-790196D01*
X-186549Y-790196D01*
X-192150Y-799898D01*
X-192150Y-799899D01*
X-195002Y-810541D01*
X-195627Y-811566D01*
X-195826Y-812750D01*
X-197412Y-814494D01*
X-198638Y-816507D01*
X-199836Y-817161D01*
X-200526Y-817920D01*
X-203770Y-819309D01*
X-205534Y-819782D01*
X-212519Y-819615D01*
X-218305Y-815699D01*
X-221055Y-809276D01*
X-221143Y-807804D01*
X-221143Y-732022D01*
X-221143Y-732022D01*
X-223361Y-723743D01*
X-223361Y-723743D01*
X-227646Y-716321D01*
X-663818Y-280149D01*
X-667167Y-274017D01*
X-667450Y-271381D01*
X-667450Y-222044D01*
X-665789Y-215844D01*
X-660350Y-206424D01*
X-657450Y-195602D01*
X-657450Y-184398D01*
X-660350Y-173576D01*
X-665952Y-163874D01*
X-673874Y-155952D01*
X-683576Y-150350D01*
X-694398Y-147450D01*
X-705602Y-147450D01*
X-716424Y-150350D01*
X-716424Y-150350D01*
X-726126Y-155951D01*
X-726127Y-155952D01*
X-734048Y-163873D01*
X-734049Y-163874D01*
X-739650Y-173576D01*
X-739650Y-173576D01*
X-742550Y-184398D01*
X-742550Y-195602D01*
X-740124Y-204654D01*
X-739650Y-206424D01*
X-739650Y-206424D01*
X-734211Y-215844D01*
X-732550Y-222044D01*
X-732550Y-294285D01*
X-730332Y-302564D01*
X-728513Y-305715D01*
X-726046Y-309986D01*
X-726046Y-309986D01*
X-289875Y-746158D01*
X-288405Y-748850D01*
X-286745Y-751432D01*
X-286656Y-752052D01*
X-286526Y-752290D01*
X-286243Y-754926D01*
X-286243Y-757788D01*
X-288212Y-764492D01*
X-293492Y-769067D01*
X-300408Y-770062D01*
X-306763Y-767159D01*
X-307411Y-766556D01*
X-783818Y-290149D01*
X-787167Y-284017D01*
X-787450Y-281381D01*
X-787450Y-222044D01*
X-785789Y-215844D01*
X-780350Y-206424D01*
X-777450Y-195602D01*
X-777450Y-184398D01*
X-780350Y-173576D01*
X-785951Y-163874D01*
X-793874Y-155952D01*
X-803576Y-150350D01*
X-814398Y-147450D01*
X-825602Y-147450D01*
X-836424Y-150350D01*
X-836424Y-150350D01*
X-846126Y-155951D01*
X-846127Y-155952D01*
X-854048Y-163873D01*
X-854049Y-163874D01*
X-859650Y-173576D01*
X-859650Y-173576D01*
X-862550Y-184398D01*
X-862550Y-195602D01*
X-860124Y-204654D01*
X-859650Y-206424D01*
X-859650Y-206424D01*
X-854211Y-215844D01*
X-852550Y-222044D01*
X-852550Y-304285D01*
X-850332Y-312564D01*
X-848189Y-316275D01*
X-846046Y-319986D01*
X-590648Y-575385D01*
X-460520Y-705513D01*
X-336182Y-829851D01*
X-332833Y-835983D01*
X-332550Y-838619D01*
X-332550Y-1037956D01*
X-334211Y-1044156D01*
X-339650Y-1053576D01*
X-339650Y-1053576D01*
X-342550Y-1064398D01*
X-342550Y-1075602D01*
X-340195Y-1084391D01*
X-340361Y-1091376D01*
X-344278Y-1097162D01*
X-350700Y-1099912D01*
X-352172Y-1100000D01*
X-447827Y-1100000D01*
X-454531Y-1098032D01*
X-459107Y-1092751D01*
X-460101Y-1085835D01*
X-459805Y-1084391D01*
X-457450Y-1075602D01*
X-457450Y-1064398D01*
X-460350Y-1053576D01*
X-465789Y-1044156D01*
X-467450Y-1037956D01*
X-467450Y-792044D01*
X-465789Y-785844D01*
X-463727Y-782274D01*
X-460350Y-776424D01*
X-457450Y-765602D01*
X-457450Y-754398D01*
X-460350Y-743576D01*
X-465951Y-733874D01*
X-473874Y-725951D01*
X-477699Y-723743D01*
X-483576Y-720350D01*
X-483576Y-720350D01*
X-488487Y-719034D01*
X-494084Y-717534D01*
X-499642Y-714325D01*
X-913818Y-300149D01*
X-917167Y-294017D01*
X-917450Y-291381D01*
X-917450Y-222044D01*
X-915789Y-215844D01*
X-910350Y-206424D01*
X-907450Y-195602D01*
X-907450Y-184398D01*
X-910350Y-173576D01*
X-915951Y-163874D01*
X-923874Y-155952D01*
X-933576Y-150350D01*
X-944398Y-147450D01*
X-955602Y-147450D01*
X-966424Y-150350D01*
X-966424Y-150350D01*
X-976126Y-155951D01*
X-976127Y-155952D01*
X-984048Y-163873D01*
X-984049Y-163874D01*
X-989650Y-173576D01*
X-989650Y-173576D01*
X-992550Y-184398D01*
X-992550Y-195602D01*
X-990124Y-204654D01*
X-989650Y-206424D01*
X-989650Y-206424D01*
X-984211Y-215844D01*
X-982550Y-222044D01*
X-982550Y-314285D01*
X-980332Y-322564D01*
X-978189Y-326275D01*
X-976046Y-329986D01*
X-976046Y-329986D01*
X-545675Y-760358D01*
X-542466Y-765916D01*
X-542211Y-766865D01*
X-539650Y-776424D01*
X-539650Y-776424D01*
X-534211Y-785844D01*
X-532550Y-792044D01*
X-532550Y-1037956D01*
X-534211Y-1044156D01*
X-539261Y-1052903D01*
X-539701Y-1053321D01*
X-539899Y-1053895D01*
X-542200Y-1055705D01*
X-544318Y-1057724D01*
X-544914Y-1057839D01*
X-545391Y-1058214D01*
X-548305Y-1058492D01*
X-551179Y-1059046D01*
X-551743Y-1058821D01*
X-552347Y-1058878D01*
X-554948Y-1057538D01*
X-557665Y-1056450D01*
X-558156Y-1055884D01*
X-558557Y-1055677D01*
X-560739Y-1052903D01*
X-565789Y-1044156D01*
X-567450Y-1037956D01*
X-567450Y-862044D01*
X-565789Y-855844D01*
X-560350Y-846424D01*
X-557450Y-835602D01*
X-557450Y-824398D01*
X-560350Y-813576D01*
X-565952Y-803874D01*
X-573874Y-795951D01*
X-580641Y-792044D01*
X-583576Y-790350D01*
X-583576Y-790350D01*
X-588487Y-789034D01*
X-594084Y-787534D01*
X-599642Y-784325D01*
X-790014Y-593954D01*
X-790014Y-593954D01*
X-794981Y-591086D01*
X-797436Y-589668D01*
X-801575Y-588559D01*
X-805715Y-587450D01*
X-805715Y-587450D01*
X-1521381Y-587450D01*
X-1528085Y-585482D01*
X-1530149Y-583818D01*
X-1924325Y-189642D01*
X-1927534Y-184084D01*
X-1930350Y-173576D01*
X-1935951Y-163874D01*
X-1943874Y-155952D01*
X-1953576Y-150350D01*
X-1964398Y-147450D01*
X-1975602Y-147450D01*
X-1986424Y-150350D01*
X-1986424Y-150350D01*
X-1996126Y-155951D01*
X-1996127Y-155952D01*
X-2004048Y-163873D01*
X-2004049Y-163874D01*
X-2009650Y-173576D01*
X-2009650Y-173576D01*
X-2012550Y-184398D01*
X-2012550Y-195602D01*
X-2009650Y-206424D01*
X-2004048Y-216126D01*
X-1996126Y-224048D01*
X-1986424Y-229650D01*
X-1975916Y-232466D01*
X-1970358Y-235675D01*
X-1892251Y-313782D01*
X-1888902Y-319914D01*
X-1889401Y-326883D01*
X-1893588Y-332477D01*
X-1900134Y-334918D01*
X-1901019Y-334950D01*
X-2024132Y-334950D01*
X-2030836Y-332982D01*
X-2032900Y-331318D01*
X-2036768Y-327450D01*
X-2036769Y-327450D01*
X-2042475Y-324155D01*
X-2048181Y-320861D01*
X-2054546Y-319155D01*
X-2060911Y-317450D01*
X-2074089Y-317450D01*
X-2086819Y-320861D01*
X-2098231Y-327450D01*
X-2098232Y-327450D01*
X-2107550Y-336768D01*
X-2107550Y-336769D01*
X-2114139Y-348181D01*
X-2117550Y-360911D01*
X-2117550Y-374089D01*
X-2114139Y-386819D01*
X-2112294Y-390014D01*
X-2107550Y-398231D01*
X-2098231Y-407550D01*
X-2086819Y-414139D01*
X-2074089Y-417550D01*
X-2074089Y-417550D01*
X-2060911Y-417550D01*
X-2060911Y-417550D01*
X-2048181Y-414139D01*
X-2036769Y-407550D01*
X-2032900Y-403682D01*
X-2026768Y-400333D01*
X-2024132Y-400050D01*
X-1874758Y-400050D01*
X-1868055Y-402018D01*
X-1865990Y-403682D01*
X-1768682Y-500990D01*
X-1765333Y-507123D01*
X-1765050Y-509758D01*
X-1765050Y-693837D01*
X-1767018Y-700541D01*
X-1771250Y-704576D01*
X-1780731Y-710050D01*
X-1780732Y-710050D01*
X-1790050Y-719368D01*
X-1790050Y-719369D01*
X-1796639Y-730781D01*
X-1798770Y-738733D01*
X-1800050Y-743511D01*
X-1800050Y-756689D01*
X-1799067Y-760358D01*
X-1796639Y-769419D01*
X-1794126Y-773772D01*
X-1790050Y-780832D01*
X-1780731Y-790150D01*
X-1769319Y-796739D01*
X-1756589Y-800150D01*
X-1756589Y-800150D01*
X-1743411Y-800150D01*
X-1743411Y-800150D01*
X-1730681Y-796739D01*
X-1719269Y-790150D01*
X-1709950Y-780832D01*
X-1703361Y-769419D01*
X-1699950Y-756689D01*
X-1699950Y-743511D01*
X-1702733Y-733123D01*
X-1702567Y-726139D01*
X-1702212Y-725169D01*
X-1702169Y-725065D01*
X-1702168Y-725064D01*
X-1699950Y-716785D01*
X-1699950Y-536019D01*
X-1697981Y-529315D01*
X-1692701Y-524740D01*
X-1685785Y-523745D01*
X-1679430Y-526648D01*
X-1678782Y-527251D01*
X-1566047Y-639986D01*
X-1566046Y-639986D01*
X-1559986Y-646047D01*
X-1559986Y-646047D01*
X-1559986Y-646047D01*
X-1552743Y-650228D01*
X-1552564Y-650332D01*
X-1544285Y-652550D01*
X-828619Y-652550D01*
X-821915Y-654519D01*
X-819851Y-656182D01*
X-645675Y-830358D01*
X-645212Y-831051D01*
X-644788Y-831345D01*
X-644067Y-832764D01*
X-642987Y-834380D01*
X-642550Y-835436D01*
X-642550Y-835602D01*
X-639650Y-846424D01*
X-634049Y-856126D01*
X-633931Y-856244D01*
X-633494Y-857299D01*
X-633274Y-859341D01*
X-632550Y-862044D01*
X-632550Y-1037956D01*
X-634211Y-1044156D01*
X-639650Y-1053576D01*
X-639650Y-1053576D01*
X-642550Y-1064398D01*
X-642550Y-1075602D01*
X-640195Y-1084391D01*
X-640361Y-1091376D01*
X-644278Y-1097162D01*
X-650700Y-1099912D01*
X-652173Y-1100000D01*
X-2887550Y-1100000D01*
X-2894254Y-1098032D01*
X-2898829Y-1092751D01*
X-2899950Y-1087600D01*
X-2899950Y1087550D01*
X-2897981Y1094254D01*
X-2892701Y1098829D01*
X-2887550Y1099950D01*
X-2776744Y1099950D01*
X-2770040Y1097982D01*
G37*
%TD.AperFunction*%
%TA.AperFunction,Conductor*%
G36*
X1244271Y-458432D02*
G01*
X1248847Y-463713D01*
X1249841Y-470629D01*
X1246939Y-476984D01*
X1246335Y-477632D01*
X699642Y-1024325D01*
X694084Y-1027534D01*
X683576Y-1030350D01*
X683576Y-1030350D01*
X673874Y-1035951D01*
X673873Y-1035952D01*
X665952Y-1043873D01*
X665951Y-1043874D01*
X660739Y-1052903D01*
X660299Y-1053322D01*
X660101Y-1053895D01*
X657800Y-1055704D01*
X655682Y-1057724D01*
X655086Y-1057839D01*
X654609Y-1058214D01*
X651695Y-1058493D01*
X648821Y-1059046D01*
X648258Y-1058821D01*
X647653Y-1058878D01*
X645052Y-1057537D01*
X642335Y-1056450D01*
X641845Y-1055884D01*
X641443Y-1055677D01*
X639261Y-1052903D01*
X634211Y-1044156D01*
X632550Y-1037956D01*
X632550Y-898619D01*
X634519Y-891915D01*
X636182Y-889851D01*
X1065937Y-460096D01*
X1072069Y-456747D01*
X1074705Y-456464D01*
X1237567Y-456464D01*
X1244271Y-458432D01*
G37*
%TD.AperFunction*%
%TD*%
M02*
