%TF.GenerationSoftware,KiCad,Pcbnew,9.0.4*%
%TF.CreationDate,2025-10-01T23:03:59+01:00*%
%TF.ProjectId,vm_rgb_led,766d5f72-6762-45f6-9c65-642e6b696361,0.4*%
%TF.SameCoordinates,PX518a060PY47868c0*%
%TF.FileFunction,AssemblyDrawing,Top*%
%FSLAX45Y45*%
G04 Gerber Fmt 4.5, Leading zero omitted, Abs format (unit mm)*
G04 Created by KiCad (PCBNEW 9.0.4) date 2025-10-01 23:03:59*
%MOMM*%
%LPD*%
G01*
G04 APERTURE LIST*
%ADD10C,0.100000*%
%ADD11C,0.120000*%
%ADD12C,0.075000*%
G04 APERTURE END LIST*
D10*
X100000Y820000D02*
X200000Y820000D01*
X200000Y830000D02*
G75*
G02*
X200000Y820000I0J-5000D01*
G01*
X200000Y830000D02*
X100000Y830000D01*
X100000Y830000D02*
G75*
G03*
X100000Y820000I0J-5000D01*
G01*
X145000Y875000D02*
X145000Y775000D01*
X155000Y775000D02*
G75*
G02*
X145000Y775000I-5000J0D01*
G01*
X155000Y775000D02*
X155000Y875000D01*
X155000Y875000D02*
G75*
G03*
X145000Y875000I-5000J0D01*
G01*
%TO.C,GS5*%
X200000Y825000D02*
G75*
G02*
X100000Y825000I-50000J0D01*
G01*
X100000Y825000D02*
G75*
G02*
X200000Y825000I50000J0D01*
G01*
X200000Y825000D02*
G75*
G02*
X100000Y825000I-50000J0D01*
G01*
X100000Y825000D02*
G75*
G02*
X200000Y825000I50000J0D01*
G01*
X-750000Y245000D02*
X-650000Y245000D01*
X-650000Y255000D02*
G75*
G02*
X-650000Y245000I0J-5000D01*
G01*
X-650000Y255000D02*
X-750000Y255000D01*
X-750000Y255000D02*
G75*
G03*
X-750000Y245000I0J-5000D01*
G01*
X-705000Y300000D02*
X-705000Y200000D01*
X-695000Y200000D02*
G75*
G02*
X-705000Y200000I-5000J0D01*
G01*
X-695000Y200000D02*
X-695000Y300000D01*
X-695000Y300000D02*
G75*
G03*
X-705000Y300000I-5000J0D01*
G01*
%TO.C,GS3*%
X-650000Y250000D02*
G75*
G02*
X-750000Y250000I-50000J0D01*
G01*
X-750000Y250000D02*
G75*
G02*
X-650000Y250000I50000J0D01*
G01*
X-650000Y250000D02*
G75*
G02*
X-750000Y250000I-50000J0D01*
G01*
X-750000Y250000D02*
G75*
G02*
X-650000Y250000I50000J0D01*
G01*
D11*
%TO.C,J1*%
X-118100Y799060D02*
X212100Y799060D01*
X-118100Y443460D02*
X-118100Y799060D01*
X212100Y799060D02*
X339100Y672060D01*
X339100Y672060D02*
X339100Y443460D01*
X339100Y443460D02*
X-118100Y443460D01*
D10*
X-100000Y820000D02*
X0Y820000D01*
X0Y830000D02*
G75*
G02*
X0Y820000I0J-5000D01*
G01*
X0Y830000D02*
X-100000Y830000D01*
X-100000Y830000D02*
G75*
G03*
X-100000Y820000I0J-5000D01*
G01*
X-55000Y875000D02*
X-55000Y775000D01*
X-45000Y775000D02*
G75*
G02*
X-55000Y775000I-5000J0D01*
G01*
X-45000Y775000D02*
X-45000Y875000D01*
X-45000Y875000D02*
G75*
G03*
X-55000Y875000I-5000J0D01*
G01*
%TO.C,GS4*%
X0Y825000D02*
G75*
G02*
X-100000Y825000I-50000J0D01*
G01*
X-100000Y825000D02*
G75*
G02*
X0Y825000I50000J0D01*
G01*
X0Y825000D02*
G75*
G02*
X-100000Y825000I-50000J0D01*
G01*
X-100000Y825000D02*
G75*
G02*
X0Y825000I50000J0D01*
G01*
%TO.C,U2*%
D12*
X-433750Y182500D02*
G75*
G02*
X-441250Y182500I-3750J0D01*
G01*
X-441250Y182500D02*
G75*
G02*
X-433750Y182500I3750J0D01*
G01*
D10*
X-300000Y820000D02*
X-200000Y820000D01*
X-200000Y830000D02*
G75*
G02*
X-200000Y820000I0J-5000D01*
G01*
X-200000Y830000D02*
X-300000Y830000D01*
X-300000Y830000D02*
G75*
G03*
X-300000Y820000I0J-5000D01*
G01*
X-255000Y875000D02*
X-255000Y775000D01*
X-245000Y775000D02*
G75*
G02*
X-255000Y775000I-5000J0D01*
G01*
X-245000Y775000D02*
X-245000Y875000D01*
X-245000Y875000D02*
G75*
G03*
X-255000Y875000I-5000J0D01*
G01*
%TO.C,GS6*%
X-200000Y825000D02*
G75*
G02*
X-300000Y825000I-50000J0D01*
G01*
X-300000Y825000D02*
G75*
G02*
X-200000Y825000I50000J0D01*
G01*
X-200000Y825000D02*
G75*
G02*
X-300000Y825000I-50000J0D01*
G01*
X-300000Y825000D02*
G75*
G02*
X-200000Y825000I50000J0D01*
G01*
%TO.C,D1*%
D12*
X-653750Y-467500D02*
G75*
G02*
X-661250Y-467500I-3750J0D01*
G01*
X-661250Y-467500D02*
G75*
G02*
X-653750Y-467500I3750J0D01*
G01*
%TO.C,U1*%
X-369250Y-287500D02*
G75*
G02*
X-376750Y-287500I-3750J0D01*
G01*
X-376750Y-287500D02*
G75*
G02*
X-369250Y-287500I3750J0D01*
G01*
D10*
X-750000Y-255000D02*
X-650000Y-255000D01*
X-650000Y-245000D02*
G75*
G02*
X-650000Y-255000I0J-5000D01*
G01*
X-650000Y-245000D02*
X-750000Y-245000D01*
X-750000Y-245000D02*
G75*
G03*
X-750000Y-255000I0J-5000D01*
G01*
X-705000Y-200000D02*
X-705000Y-300000D01*
X-695000Y-300000D02*
G75*
G02*
X-705000Y-300000I-5000J0D01*
G01*
X-695000Y-300000D02*
X-695000Y-200000D01*
X-695000Y-200000D02*
G75*
G03*
X-705000Y-200000I-5000J0D01*
G01*
%TO.C,GS2*%
X-650000Y-250000D02*
G75*
G02*
X-750000Y-250000I-50000J0D01*
G01*
X-750000Y-250000D02*
G75*
G02*
X-650000Y-250000I50000J0D01*
G01*
X-650000Y-250000D02*
G75*
G02*
X-750000Y-250000I-50000J0D01*
G01*
X-750000Y-250000D02*
G75*
G02*
X-650000Y-250000I50000J0D01*
G01*
X-750000Y-5000D02*
X-650000Y-5000D01*
X-650000Y5000D02*
G75*
G02*
X-650000Y-5000I0J-5000D01*
G01*
X-650000Y5000D02*
X-750000Y5000D01*
X-750000Y5000D02*
G75*
G03*
X-750000Y-5000I0J-5000D01*
G01*
X-705000Y50000D02*
X-705000Y-50000D01*
X-695000Y-50000D02*
G75*
G02*
X-705000Y-50000I-5000J0D01*
G01*
X-695000Y-50000D02*
X-695000Y50000D01*
X-695000Y50000D02*
G75*
G03*
X-705000Y50000I-5000J0D01*
G01*
%TO.C,GS1*%
X-650000Y0D02*
G75*
G02*
X-750000Y0I-50000J0D01*
G01*
X-750000Y0D02*
G75*
G02*
X-650000Y0I50000J0D01*
G01*
X-650000Y0D02*
G75*
G02*
X-750000Y0I-50000J0D01*
G01*
X-750000Y0D02*
G75*
G02*
X-650000Y0I50000J0D01*
G01*
%TO.C,D2*%
D12*
X-596250Y800000D02*
G75*
G02*
X-603750Y800000I-3750J0D01*
G01*
X-603750Y800000D02*
G75*
G02*
X-596250Y800000I3750J0D01*
G01*
%TO.C,D3*%
X411250Y-127500D02*
G75*
G02*
X403750Y-127500I-3750J0D01*
G01*
X403750Y-127500D02*
G75*
G02*
X411250Y-127500I3750J0D01*
G01*
%TD*%
D10*
X95000Y880000D02*
X205000Y770000D01*
X95000Y770000D02*
X205000Y880000D01*
X-755000Y305000D02*
X-645000Y195000D01*
X-755000Y195000D02*
X-645000Y305000D01*
X-105000Y880000D02*
X5000Y770000D01*
X-105000Y770000D02*
X5000Y880000D01*
X-305000Y880000D02*
X-195000Y770000D01*
X-305000Y770000D02*
X-195000Y880000D01*
X-755000Y-195000D02*
X-645000Y-305000D01*
X-755000Y-305000D02*
X-645000Y-195000D01*
X-755000Y55000D02*
X-645000Y-55000D01*
X-755000Y-55000D02*
X-645000Y55000D01*
M02*
