%TF.GenerationSoftware,KiCad,Pcbnew,9.0.4*%
%TF.CreationDate,2025-10-01T23:03:59+01:00*%
%TF.ProjectId,vm_rgb_led,766d5f72-6762-45f6-9c65-642e6b696361,0.4*%
%TF.SameCoordinates,PX518a060PY47868c0*%
%TF.FileFunction,Soldermask,Top*%
%TF.FilePolarity,Negative*%
%FSLAX45Y45*%
G04 Gerber Fmt 4.5, Leading zero omitted, Abs format (unit mm)*
G04 Created by KiCad (PCBNEW 9.0.4) date 2025-10-01 23:03:59*
%MOMM*%
%LPD*%
G01*
G04 APERTURE LIST*
G04 Aperture macros list*
%AMRoundRect*
0 Rectangle with rounded corners*
0 $1 Rounding radius*
0 $2 $3 $4 $5 $6 $7 $8 $9 X,Y pos of 4 corners*
0 Add a 4 corners polygon primitive as box body*
4,1,4,$2,$3,$4,$5,$6,$7,$8,$9,$2,$3,0*
0 Add four circle primitives for the rounded corners*
1,1,$1+$1,$2,$3*
1,1,$1+$1,$4,$5*
1,1,$1+$1,$6,$7*
1,1,$1+$1,$8,$9*
0 Add four rect primitives between the rounded corners*
20,1,$1+$1,$2,$3,$4,$5,0*
20,1,$1+$1,$4,$5,$6,$7,0*
20,1,$1+$1,$6,$7,$8,$9,0*
20,1,$1+$1,$8,$9,$2,$3,0*%
G04 Aperture macros list end*
%ADD10RoundRect,0.172720X-0.259080X-0.259080X0.259080X-0.259080X0.259080X0.259080X-0.259080X0.259080X0*%
%ADD11C,0.863600*%
%ADD12R,0.860000X0.810000*%
%ADD13R,0.700000X1.000000*%
%ADD14R,0.800000X0.800000*%
%ADD15R,0.800000X0.900000*%
%ADD16O,0.360000X1.740000*%
%ADD17R,1.230000X1.360000*%
%ADD18R,0.810000X0.860000*%
%ADD19R,0.750000X1.000000*%
%ADD20R,0.800000X0.700000*%
G04 APERTURE END LIST*
D10*
%TO.C,J1*%
X237500Y700000D03*
D11*
X237500Y542520D03*
X110500Y700000D03*
X110500Y542520D03*
X-16500Y700000D03*
%TD*%
D12*
%TO.C,R7*%
X-320000Y525000D03*
X-320000Y675000D03*
%TD*%
D13*
%TO.C,U2*%
X-465000Y120000D03*
X-560000Y120000D03*
X-655000Y120000D03*
X-655000Y-120000D03*
X-465000Y-120000D03*
%TD*%
D14*
%TO.C,D1*%
X-455000Y-520000D03*
X-625000Y-520000D03*
%TD*%
D12*
%TO.C,R6*%
X-480000Y525000D03*
X-480000Y675000D03*
%TD*%
D15*
%TO.C,C3*%
X-470000Y-260000D03*
X-610000Y-260000D03*
%TD*%
D16*
%TO.C,U1*%
X-341000Y-287000D03*
X-276000Y-287000D03*
X-211000Y-287000D03*
X-146000Y-287000D03*
X-80000Y-287000D03*
X-15000Y-287000D03*
X50000Y-287000D03*
X115000Y-287000D03*
X180000Y-287000D03*
X245000Y-287000D03*
X245000Y287000D03*
X180000Y287000D03*
X115000Y287000D03*
X50000Y287000D03*
X-15000Y287000D03*
X-80000Y287000D03*
X-146000Y287000D03*
X-211000Y287000D03*
X-276000Y287000D03*
X-341000Y287000D03*
%TD*%
D17*
%TO.C,SW1*%
X170000Y-680000D03*
X-266000Y-680000D03*
%TD*%
D18*
%TO.C,R4*%
X600000Y10000D03*
X450000Y10000D03*
%TD*%
%TO.C,R3*%
X600000Y130000D03*
X450000Y130000D03*
%TD*%
%TO.C,R5*%
X-455000Y390000D03*
X-605000Y390000D03*
%TD*%
D15*
%TO.C,C1*%
X-120000Y-460000D03*
X20000Y-460000D03*
%TD*%
D18*
%TO.C,R2*%
X600000Y250000D03*
X450000Y250000D03*
%TD*%
D15*
%TO.C,C2*%
X-460000Y260000D03*
X-600000Y260000D03*
%TD*%
D18*
%TO.C,R1*%
X-465000Y-390000D03*
X-615000Y-390000D03*
%TD*%
D19*
%TO.C,D2*%
X-650000Y757000D03*
X-650000Y523000D03*
%TD*%
D20*
%TO.C,D3*%
X440000Y-175000D03*
X610000Y-175000D03*
X610000Y-285000D03*
X440000Y-285000D03*
%TD*%
M02*
