%TF.GenerationSoftware,KiCad,Pcbnew,9.0.6-9.0.6~ubuntu22.04.1*%
%TF.CreationDate,2026-01-23T17:01:18+00:00*%
%TF.ProjectId,vm_rgb_led,766d5f72-6762-45f6-9c65-642e6b696361,0.4*%
%TF.SameCoordinates,PX518a060PY47868c0*%
%TF.FileFunction,Other,User*%
%FSLAX45Y45*%
G04 Gerber Fmt 4.5, Leading zero omitted, Abs format (unit mm)*
G04 Created by KiCad (PCBNEW 9.0.6-9.0.6~ubuntu22.04.1) date 2026-01-23 17:01:18*
%MOMM*%
%LPD*%
G01*
G04 APERTURE LIST*
%ADD10C,0.100000*%
%ADD11C,0.009990*%
%ADD12C,0.010830*%
%ADD13C,0.020870*%
%ADD14C,0.030680*%
%ADD15C,0.040730*%
%ADD16C,0.050790*%
%ADD17C,0.061260*%
%ADD18C,0.070940*%
%ADD19C,0.010740*%
%ADD20C,0.020680*%
%ADD21C,0.030950*%
%ADD22C,0.040680*%
%ADD23C,0.050650*%
%ADD24C,0.060840*%
%ADD25C,0.070650*%
%ADD26C,0.030670*%
%ADD27C,0.040760*%
%ADD28C,0.050750*%
%ADD29C,0.010820*%
%ADD30C,0.020690*%
%ADD31C,0.030830*%
%ADD32C,0.040690*%
%ADD33C,0.050840*%
%ADD34C,0.010710*%
%ADD35C,0.020780*%
%ADD36C,0.040800*%
%ADD37C,0.050870*%
%ADD38C,0.060820*%
G04 APERTURE END LIST*
D10*
X-700000Y825000D02*
X700000Y825000D01*
X700000Y-825000D01*
X-700000Y-825000D01*
X-700000Y825000D01*
D11*
%TO.C,GS5*%
X150000Y825000D02*
X150000Y825000D01*
D12*
X150000Y825000D02*
X150000Y825000D01*
D13*
X150000Y825000D02*
X150000Y825000D01*
D14*
X150000Y825000D02*
X150000Y825000D01*
D15*
X150000Y825000D02*
X150000Y825000D01*
D16*
X150000Y825000D02*
X150000Y825000D01*
D17*
X150000Y825000D02*
X150000Y825000D01*
D18*
X150000Y825000D02*
X150000Y825000D01*
D11*
%TO.C,GS3*%
X-700000Y250000D02*
X-700000Y250000D01*
D19*
X-700000Y250000D02*
X-700000Y250000D01*
D20*
X-700000Y250000D02*
X-700000Y250000D01*
D21*
X-700000Y250000D02*
X-700000Y250000D01*
D22*
X-700000Y250000D02*
X-700000Y250000D01*
D23*
X-700000Y250000D02*
X-700000Y250000D01*
D24*
X-700000Y250000D02*
X-700000Y250000D01*
D25*
X-700000Y250000D02*
X-700000Y250000D01*
D11*
%TO.C,GS4*%
X-50000Y825000D02*
X-50000Y825000D01*
D12*
X-50000Y825000D02*
X-50000Y825000D01*
D13*
X-50000Y825000D02*
X-50000Y825000D01*
D26*
X-50000Y825000D02*
X-50000Y825000D01*
D27*
X-50000Y825000D02*
X-50000Y825000D01*
D28*
X-50000Y825000D02*
X-50000Y825000D01*
D11*
%TO.C,GS6*%
X-250000Y825000D02*
X-250000Y825000D01*
D29*
X-250000Y825000D02*
X-250000Y825000D01*
D30*
X-250000Y825000D02*
X-250000Y825000D01*
D31*
X-250000Y825000D02*
X-250000Y825000D01*
D32*
X-250000Y825000D02*
X-250000Y825000D01*
D33*
X-250000Y825000D02*
X-250000Y825000D01*
D11*
%TO.C,GS2*%
X-700000Y-250000D02*
X-700000Y-250000D01*
D34*
X-700000Y-250000D02*
X-700000Y-250000D01*
D35*
X-700000Y-250000D02*
X-700000Y-250000D01*
D14*
X-700000Y-250000D02*
X-700000Y-250000D01*
D11*
%TO.C,GS1*%
X-700000Y0D02*
X-700000Y0D01*
D19*
X-700000Y0D02*
X-700000Y0D01*
D20*
X-700000Y0D02*
X-700000Y0D01*
D21*
X-700000Y0D02*
X-700000Y0D01*
D36*
X-700000Y0D02*
X-700000Y0D01*
D37*
X-700000Y0D02*
X-700000Y0D01*
D38*
X-700000Y0D02*
X-700000Y0D01*
%TD*%
M02*
