%TF.GenerationSoftware,KiCad,Pcbnew,9.0.7*%
%TF.CreationDate,2026-03-08T19:17:48+00:00*%
%TF.ProjectId,kittenbot_servo,6b697474-656e-4626-9f74-5f736572766f,0.6*%
%TF.SameCoordinates,PX8d24d00PY36d6160*%
%TF.FileFunction,Soldermask,Top*%
%TF.FilePolarity,Negative*%
%FSLAX45Y45*%
G04 Gerber Fmt 4.5, Leading zero omitted, Abs format (unit mm)*
G04 Created by KiCad (PCBNEW 9.0.7) date 2026-03-08 19:17:48*
%MOMM*%
%LPD*%
G01*
G04 APERTURE LIST*
%ADD10C,2.500000*%
%ADD11C,0.000000*%
G04 APERTURE END LIST*
%TO.C,MH3*%
D10*
X-875000Y-1500000D02*
G75*
G02*
X-1125000Y-1500000I-125000J0D01*
G01*
X-1125000Y-1500000D02*
G75*
G02*
X-875000Y-1500000I125000J0D01*
G01*
%TO.C,MH4*%
X1125000Y-1500000D02*
G75*
G02*
X875000Y-1500000I-125000J0D01*
G01*
X875000Y-1500000D02*
G75*
G02*
X1125000Y-1500000I125000J0D01*
G01*
%TO.C,MH2*%
X1125000Y1500000D02*
G75*
G02*
X875000Y1500000I-125000J0D01*
G01*
X875000Y1500000D02*
G75*
G02*
X1125000Y1500000I125000J0D01*
G01*
D11*
%TO.C,MH1*%
G36*
X-750000Y1500000D02*
G01*
X-750493Y1500000D01*
X-750493Y1484302D01*
X-754428Y1453155D01*
X-762236Y1422746D01*
X-773793Y1393555D01*
X-788918Y1366043D01*
X-807372Y1340644D01*
X-828863Y1317758D01*
X-853054Y1297746D01*
X-879562Y1280923D01*
X-907969Y1267556D01*
X-937827Y1257854D01*
X-968667Y1251971D01*
X-1000000Y1250000D01*
X-1250000Y1250000D01*
X-1250000Y1500000D01*
X-1249507Y1500000D01*
X-1249507Y1515698D01*
X-1245572Y1546845D01*
X-1237764Y1577254D01*
X-1226207Y1606445D01*
X-1211082Y1633957D01*
X-1192628Y1659356D01*
X-1171137Y1682242D01*
X-1146946Y1702254D01*
X-1120438Y1719077D01*
X-1092031Y1732444D01*
X-1062173Y1742146D01*
X-1031333Y1748029D01*
X-1000000Y1750000D01*
X-750000Y1750000D01*
X-750000Y1500000D01*
G37*
%TD*%
M02*
