%TF.GenerationSoftware,KiCad,Pcbnew,9.0.7*%
%TF.CreationDate,2026-03-04T13:17:48+00:00*%
%TF.ProjectId,kittenbot_servo,6b697474-656e-4626-9f74-5f736572766f,0.6*%
%TF.SameCoordinates,PX8d24d00PY36d6160*%
%TF.FileFunction,Legend,Top*%
%TF.FilePolarity,Positive*%
%FSLAX45Y45*%
G04 Gerber Fmt 4.5, Leading zero omitted, Abs format (unit mm)*
G04 Created by KiCad (PCBNEW 9.0.7) date 2026-03-04 13:17:48*
%MOMM*%
%LPD*%
G01*
G04 APERTURE LIST*
%ADD10C,0.200000*%
%ADD11C,0.010000*%
%ADD12C,0.000000*%
G04 APERTURE END LIST*
D10*
X-750000Y1725000D02*
X-750000Y1700000D01*
X-815000Y427000D02*
X-815000Y497000D01*
X-1400000Y247000D02*
X-1400000Y-247000D01*
X1250000Y1200000D02*
X1250000Y200000D01*
X-1000000Y-1750000D02*
G75*
G02*
X-1250000Y-1500000I-80J249920D01*
G01*
X-775000Y1750000D02*
G75*
G02*
X-750000Y1725000I80J-24920D01*
G01*
X1250000Y1200000D02*
X1250000Y1500000D01*
X1000000Y1750000D02*
X-525000Y1750000D01*
X-914800Y-597000D02*
X-1150000Y-597000D01*
X-1320000Y-327000D02*
G75*
G02*
X-1400000Y-247000I-110J79890D01*
G01*
X-1250000Y-697000D02*
G75*
G02*
X-1150000Y-597000I100040J-40D01*
G01*
X-1150000Y597000D02*
X-914800Y597000D01*
X-775000Y1750000D02*
X-1000000Y1750000D01*
X-1250000Y1500000D02*
G75*
G02*
X-1000000Y1750000I249920J80D01*
G01*
X-1150000Y597000D02*
G75*
G02*
X-1250000Y697000I40J100040D01*
G01*
X-550000Y1700000D02*
X-550000Y1725000D01*
X-1400000Y247000D02*
G75*
G02*
X-1320000Y327000I79890J110D01*
G01*
X-914800Y597000D02*
G75*
G02*
X-815000Y497000I100J-99700D01*
G01*
X-815000Y427000D02*
G75*
G02*
X-914800Y327000I-100040J40D01*
G01*
X-550000Y1725000D02*
G75*
G02*
X-525000Y1750000I24920J80D01*
G01*
X-1250000Y-1197000D02*
X-1250000Y-1500000D01*
X-1250000Y-697000D02*
X-1250000Y-1197000D01*
X-1320000Y-327000D02*
X-915000Y-327000D01*
X-550000Y1700000D02*
G75*
G02*
X-750000Y1700000I-100000J0D01*
G01*
X1000000Y1750000D02*
G75*
G02*
X1250000Y1500000I80J-249920D01*
G01*
X1250000Y200000D02*
X1250000Y-1200000D01*
X-814800Y-497000D02*
G75*
G02*
X-914800Y-597000I-100040J40D01*
G01*
X-1250000Y1500000D02*
X-1250000Y1197000D01*
X-1250000Y1197000D02*
X-1250000Y697000D01*
X-915000Y-327000D02*
G75*
G02*
X-815000Y-427000I-40J-100040D01*
G01*
X1250000Y-1500000D02*
X1250000Y-1200000D01*
X-1000000Y-1750000D02*
X1000000Y-1750000D01*
X-914800Y327000D02*
X-1320000Y327000D01*
X1250000Y-1500000D02*
G75*
G02*
X1000000Y-1750000I-249920J-80D01*
G01*
X-814800Y-497000D02*
X-815000Y-427000D01*
D11*
%TO.C,MH3*%
X-692851Y-1336314D02*
X-691177Y-1336947D01*
X-689615Y-1338091D01*
X-688092Y-1339811D01*
X-686539Y-1342173D01*
X-684884Y-1345243D01*
X-684868Y-1345274D01*
X-679128Y-1357433D01*
X-673786Y-1370198D01*
X-668874Y-1383469D01*
X-664426Y-1397147D01*
X-660477Y-1411131D01*
X-657060Y-1425322D01*
X-655819Y-1431186D01*
X-654738Y-1437134D01*
X-654047Y-1442447D01*
X-653741Y-1447182D01*
X-653817Y-1451392D01*
X-654204Y-1454751D01*
X-655653Y-1461094D01*
X-657791Y-1467072D01*
X-660593Y-1472650D01*
X-664036Y-1477793D01*
X-668095Y-1482465D01*
X-672746Y-1486632D01*
X-677967Y-1490258D01*
X-678798Y-1490754D01*
X-684069Y-1493383D01*
X-689693Y-1495354D01*
X-695561Y-1496656D01*
X-701567Y-1497278D01*
X-707604Y-1497210D01*
X-713566Y-1496440D01*
X-719346Y-1494959D01*
X-719727Y-1494833D01*
X-725333Y-1492541D01*
X-730628Y-1489561D01*
X-735544Y-1485960D01*
X-740011Y-1481804D01*
X-743962Y-1477159D01*
X-747327Y-1472094D01*
X-750038Y-1466674D01*
X-750906Y-1464474D01*
X-751361Y-1463045D01*
X-751914Y-1461022D01*
X-752518Y-1458594D01*
X-753128Y-1455946D01*
X-753696Y-1453267D01*
X-753705Y-1453223D01*
X-755868Y-1443250D01*
X-758227Y-1433873D01*
X-760838Y-1424908D01*
X-763759Y-1416168D01*
X-767043Y-1407470D01*
X-768998Y-1402700D01*
X-770366Y-1399250D01*
X-771304Y-1396367D01*
X-771816Y-1393955D01*
X-771909Y-1391919D01*
X-771588Y-1390163D01*
X-770857Y-1388591D01*
X-769862Y-1387263D01*
X-768967Y-1386337D01*
X-767996Y-1385570D01*
X-766811Y-1384896D01*
X-765271Y-1384249D01*
X-763240Y-1383560D01*
X-760578Y-1382763D01*
X-760489Y-1382738D01*
X-754810Y-1380969D01*
X-749637Y-1379065D01*
X-744683Y-1376912D01*
X-741377Y-1375293D01*
X-733863Y-1371019D01*
X-726705Y-1366067D01*
X-719976Y-1360499D01*
X-713747Y-1354378D01*
X-708093Y-1347769D01*
X-705316Y-1344036D01*
X-703123Y-1341157D01*
X-701090Y-1338982D01*
X-699144Y-1337457D01*
X-697212Y-1336529D01*
X-695222Y-1336143D01*
X-694706Y-1336125D01*
X-692851Y-1336314D01*
G36*
X-692851Y-1336314D02*
G01*
X-691177Y-1336947D01*
X-689615Y-1338091D01*
X-688092Y-1339811D01*
X-686539Y-1342173D01*
X-684884Y-1345243D01*
X-684868Y-1345274D01*
X-679128Y-1357433D01*
X-673786Y-1370198D01*
X-668874Y-1383469D01*
X-664426Y-1397147D01*
X-660477Y-1411131D01*
X-657060Y-1425322D01*
X-655819Y-1431186D01*
X-654738Y-1437134D01*
X-654047Y-1442447D01*
X-653741Y-1447182D01*
X-653817Y-1451392D01*
X-654204Y-1454751D01*
X-655653Y-1461094D01*
X-657791Y-1467072D01*
X-660593Y-1472650D01*
X-664036Y-1477793D01*
X-668095Y-1482465D01*
X-672746Y-1486632D01*
X-677967Y-1490258D01*
X-678798Y-1490754D01*
X-684069Y-1493383D01*
X-689693Y-1495354D01*
X-695561Y-1496656D01*
X-701567Y-1497278D01*
X-707604Y-1497210D01*
X-713566Y-1496440D01*
X-719346Y-1494959D01*
X-719727Y-1494833D01*
X-725333Y-1492541D01*
X-730628Y-1489561D01*
X-735544Y-1485960D01*
X-740011Y-1481804D01*
X-743962Y-1477159D01*
X-747327Y-1472094D01*
X-750038Y-1466674D01*
X-750906Y-1464474D01*
X-751361Y-1463045D01*
X-751914Y-1461022D01*
X-752518Y-1458594D01*
X-753128Y-1455946D01*
X-753696Y-1453267D01*
X-753705Y-1453223D01*
X-755868Y-1443250D01*
X-758227Y-1433873D01*
X-760838Y-1424908D01*
X-763759Y-1416168D01*
X-767043Y-1407470D01*
X-768998Y-1402700D01*
X-770366Y-1399250D01*
X-771304Y-1396367D01*
X-771816Y-1393955D01*
X-771909Y-1391919D01*
X-771588Y-1390163D01*
X-770857Y-1388591D01*
X-769862Y-1387263D01*
X-768967Y-1386337D01*
X-767996Y-1385570D01*
X-766811Y-1384896D01*
X-765271Y-1384249D01*
X-763240Y-1383560D01*
X-760578Y-1382763D01*
X-760489Y-1382738D01*
X-754810Y-1380969D01*
X-749637Y-1379065D01*
X-744683Y-1376912D01*
X-741377Y-1375293D01*
X-733863Y-1371019D01*
X-726705Y-1366067D01*
X-719976Y-1360499D01*
X-713747Y-1354378D01*
X-708093Y-1347769D01*
X-705316Y-1344036D01*
X-703123Y-1341157D01*
X-701090Y-1338982D01*
X-699144Y-1337457D01*
X-697212Y-1336529D01*
X-695222Y-1336143D01*
X-694706Y-1336125D01*
X-692851Y-1336314D01*
G37*
X-946938Y-1153954D02*
X-944770Y-1153991D01*
X-942673Y-1154092D01*
X-940549Y-1154271D01*
X-938296Y-1154545D01*
X-935815Y-1154931D01*
X-933004Y-1155444D01*
X-929763Y-1156100D01*
X-925992Y-1156916D01*
X-921591Y-1157908D01*
X-919752Y-1158330D01*
X-908411Y-1161181D01*
X-896793Y-1164561D01*
X-885084Y-1168402D01*
X-873470Y-1172638D01*
X-862136Y-1177202D01*
X-851269Y-1182028D01*
X-844152Y-1185469D01*
X-841399Y-1186917D01*
X-839296Y-1188197D01*
X-837739Y-1189388D01*
X-836624Y-1190572D01*
X-835847Y-1191830D01*
X-835760Y-1192016D01*
X-835162Y-1193819D01*
X-835167Y-1195502D01*
X-835563Y-1196926D01*
X-836648Y-1198897D01*
X-838480Y-1200922D01*
X-841018Y-1202956D01*
X-841497Y-1203286D01*
X-848820Y-1208694D01*
X-855567Y-1214614D01*
X-861713Y-1221018D01*
X-867235Y-1227877D01*
X-872107Y-1235161D01*
X-876307Y-1242840D01*
X-878858Y-1248495D01*
X-880092Y-1251614D01*
X-881214Y-1254754D01*
X-882289Y-1258116D01*
X-883383Y-1261903D01*
X-884268Y-1265197D01*
X-884800Y-1267021D01*
X-885341Y-1268326D01*
X-886025Y-1269376D01*
X-886770Y-1270218D01*
X-888327Y-1271562D01*
X-889965Y-1272370D01*
X-891796Y-1272647D01*
X-893930Y-1272396D01*
X-896475Y-1271622D01*
X-898718Y-1270703D01*
X-910770Y-1265758D01*
X-923199Y-1261430D01*
X-936063Y-1257700D01*
X-949421Y-1254550D01*
X-952489Y-1253922D01*
X-955957Y-1253212D01*
X-958795Y-1252580D01*
X-961157Y-1251983D01*
X-963196Y-1251376D01*
X-965067Y-1250713D01*
X-966923Y-1249950D01*
X-968307Y-1249327D01*
X-973605Y-1246453D01*
X-978512Y-1242939D01*
X-982970Y-1238857D01*
X-986923Y-1234280D01*
X-990313Y-1229280D01*
X-993084Y-1223932D01*
X-995177Y-1218307D01*
X-996342Y-1213575D01*
X-997154Y-1207299D01*
X-997208Y-1201136D01*
X-996535Y-1195135D01*
X-995170Y-1189343D01*
X-993143Y-1183810D01*
X-990487Y-1178585D01*
X-987235Y-1173714D01*
X-983420Y-1169248D01*
X-979074Y-1165235D01*
X-974230Y-1161723D01*
X-968920Y-1158760D01*
X-963176Y-1156396D01*
X-957031Y-1154679D01*
X-956860Y-1154642D01*
X-955092Y-1154324D01*
X-953168Y-1154111D01*
X-950898Y-1153992D01*
X-948093Y-1153951D01*
X-946938Y-1153954D01*
G36*
X-946938Y-1153954D02*
G01*
X-944770Y-1153991D01*
X-942673Y-1154092D01*
X-940549Y-1154271D01*
X-938296Y-1154545D01*
X-935815Y-1154931D01*
X-933004Y-1155444D01*
X-929763Y-1156100D01*
X-925992Y-1156916D01*
X-921591Y-1157908D01*
X-919752Y-1158330D01*
X-908411Y-1161181D01*
X-896793Y-1164561D01*
X-885084Y-1168402D01*
X-873470Y-1172638D01*
X-862136Y-1177202D01*
X-851269Y-1182028D01*
X-844152Y-1185469D01*
X-841399Y-1186917D01*
X-839296Y-1188197D01*
X-837739Y-1189388D01*
X-836624Y-1190572D01*
X-835847Y-1191830D01*
X-835760Y-1192016D01*
X-835162Y-1193819D01*
X-835167Y-1195502D01*
X-835563Y-1196926D01*
X-836648Y-1198897D01*
X-838480Y-1200922D01*
X-841018Y-1202956D01*
X-841497Y-1203286D01*
X-848820Y-1208694D01*
X-855567Y-1214614D01*
X-861713Y-1221018D01*
X-867235Y-1227877D01*
X-872107Y-1235161D01*
X-876307Y-1242840D01*
X-878858Y-1248495D01*
X-880092Y-1251614D01*
X-881214Y-1254754D01*
X-882289Y-1258116D01*
X-883383Y-1261903D01*
X-884268Y-1265197D01*
X-884800Y-1267021D01*
X-885341Y-1268326D01*
X-886025Y-1269376D01*
X-886770Y-1270218D01*
X-888327Y-1271562D01*
X-889965Y-1272370D01*
X-891796Y-1272647D01*
X-893930Y-1272396D01*
X-896475Y-1271622D01*
X-898718Y-1270703D01*
X-910770Y-1265758D01*
X-923199Y-1261430D01*
X-936063Y-1257700D01*
X-949421Y-1254550D01*
X-952489Y-1253922D01*
X-955957Y-1253212D01*
X-958795Y-1252580D01*
X-961157Y-1251983D01*
X-963196Y-1251376D01*
X-965067Y-1250713D01*
X-966923Y-1249950D01*
X-968307Y-1249327D01*
X-973605Y-1246453D01*
X-978512Y-1242939D01*
X-982970Y-1238857D01*
X-986923Y-1234280D01*
X-990313Y-1229280D01*
X-993084Y-1223932D01*
X-995177Y-1218307D01*
X-996342Y-1213575D01*
X-997154Y-1207299D01*
X-997208Y-1201136D01*
X-996535Y-1195135D01*
X-995170Y-1189343D01*
X-993143Y-1183810D01*
X-990487Y-1178585D01*
X-987235Y-1173714D01*
X-983420Y-1169248D01*
X-979074Y-1165235D01*
X-974230Y-1161723D01*
X-968920Y-1158760D01*
X-963176Y-1156396D01*
X-957031Y-1154679D01*
X-956860Y-1154642D01*
X-955092Y-1154324D01*
X-953168Y-1154111D01*
X-950898Y-1153992D01*
X-948093Y-1153951D01*
X-946938Y-1153954D01*
G37*
X-811371Y-1249694D02*
X-810369Y-1249970D01*
X-809780Y-1250189D01*
X-809181Y-1250487D01*
X-808509Y-1250918D01*
X-807700Y-1251540D01*
X-806691Y-1252407D01*
X-805419Y-1253575D01*
X-803820Y-1255101D01*
X-801832Y-1257040D01*
X-799392Y-1259448D01*
X-797416Y-1261408D01*
X-786601Y-1272143D01*
X-775984Y-1261623D01*
X-773128Y-1258815D01*
X-770552Y-1256327D01*
X-768307Y-1254206D01*
X-766443Y-1252497D01*
X-765008Y-1251246D01*
X-764051Y-1250499D01*
X-763780Y-1250335D01*
X-761965Y-1249771D01*
X-759765Y-1249545D01*
X-757494Y-1249653D01*
X-755468Y-1250091D01*
X-754615Y-1250449D01*
X-752692Y-1251814D01*
X-751014Y-1253651D01*
X-749889Y-1255583D01*
X-749482Y-1257170D01*
X-749319Y-1259169D01*
X-749400Y-1261237D01*
X-749724Y-1263032D01*
X-749909Y-1263569D01*
X-750400Y-1264321D01*
X-751465Y-1265601D01*
X-753093Y-1267402D01*
X-755276Y-1269711D01*
X-758003Y-1272519D01*
X-761267Y-1275817D01*
X-761306Y-1275856D01*
X-772089Y-1286667D01*
X-761506Y-1297297D01*
X-758412Y-1300424D01*
X-755861Y-1303043D01*
X-753819Y-1305193D01*
X-752253Y-1306909D01*
X-751128Y-1308231D01*
X-750410Y-1309194D01*
X-750117Y-1309703D01*
X-749410Y-1312134D01*
X-749301Y-1314793D01*
X-749782Y-1317391D01*
X-750322Y-1318744D01*
X-751888Y-1321065D01*
X-753950Y-1322787D01*
X-756213Y-1323793D01*
X-757982Y-1324231D01*
X-759484Y-1324335D01*
X-761084Y-1324101D01*
X-762418Y-1323747D01*
X-762993Y-1323560D01*
X-763556Y-1323312D01*
X-764171Y-1322950D01*
X-764901Y-1322416D01*
X-765807Y-1321658D01*
X-766952Y-1320620D01*
X-768398Y-1319246D01*
X-770209Y-1317482D01*
X-772445Y-1315272D01*
X-775171Y-1312563D01*
X-775587Y-1312148D01*
X-786601Y-1301179D01*
X-797614Y-1312148D01*
X-800412Y-1314931D01*
X-802712Y-1317205D01*
X-804577Y-1319027D01*
X-806070Y-1320452D01*
X-807253Y-1321533D01*
X-808188Y-1322327D01*
X-808938Y-1322888D01*
X-809565Y-1323271D01*
X-810132Y-1323531D01*
X-810701Y-1323723D01*
X-810783Y-1323747D01*
X-812661Y-1324212D01*
X-814190Y-1324338D01*
X-815737Y-1324128D01*
X-816989Y-1323793D01*
X-819454Y-1322669D01*
X-821442Y-1320960D01*
X-822886Y-1318761D01*
X-823717Y-1316165D01*
X-823898Y-1314080D01*
X-823875Y-1312964D01*
X-823780Y-1311968D01*
X-823563Y-1311023D01*
X-823176Y-1310061D01*
X-822569Y-1309013D01*
X-821691Y-1307812D01*
X-820495Y-1306390D01*
X-818929Y-1304679D01*
X-816946Y-1302610D01*
X-814494Y-1300115D01*
X-811696Y-1297297D01*
X-801113Y-1286667D01*
X-811879Y-1275856D01*
X-815119Y-1272581D01*
X-817795Y-1269828D01*
X-819923Y-1267579D01*
X-821522Y-1265816D01*
X-822607Y-1264520D01*
X-823195Y-1263673D01*
X-823276Y-1263508D01*
X-823863Y-1261116D01*
X-823841Y-1258511D01*
X-823255Y-1255934D01*
X-822150Y-1253622D01*
X-821205Y-1252407D01*
X-819186Y-1250828D01*
X-816756Y-1249823D01*
X-814092Y-1249432D01*
X-811371Y-1249694D01*
G36*
X-811371Y-1249694D02*
G01*
X-810369Y-1249970D01*
X-809780Y-1250189D01*
X-809181Y-1250487D01*
X-808509Y-1250918D01*
X-807700Y-1251540D01*
X-806691Y-1252407D01*
X-805419Y-1253575D01*
X-803820Y-1255101D01*
X-801832Y-1257040D01*
X-799392Y-1259448D01*
X-797416Y-1261408D01*
X-786601Y-1272143D01*
X-775984Y-1261623D01*
X-773128Y-1258815D01*
X-770552Y-1256327D01*
X-768307Y-1254206D01*
X-766443Y-1252497D01*
X-765008Y-1251246D01*
X-764051Y-1250499D01*
X-763780Y-1250335D01*
X-761965Y-1249771D01*
X-759765Y-1249545D01*
X-757494Y-1249653D01*
X-755468Y-1250091D01*
X-754615Y-1250449D01*
X-752692Y-1251814D01*
X-751014Y-1253651D01*
X-749889Y-1255583D01*
X-749482Y-1257170D01*
X-749319Y-1259169D01*
X-749400Y-1261237D01*
X-749724Y-1263032D01*
X-749909Y-1263569D01*
X-750400Y-1264321D01*
X-751465Y-1265601D01*
X-753093Y-1267402D01*
X-755276Y-1269711D01*
X-758003Y-1272519D01*
X-761267Y-1275817D01*
X-761306Y-1275856D01*
X-772089Y-1286667D01*
X-761506Y-1297297D01*
X-758412Y-1300424D01*
X-755861Y-1303043D01*
X-753819Y-1305193D01*
X-752253Y-1306909D01*
X-751128Y-1308231D01*
X-750410Y-1309194D01*
X-750117Y-1309703D01*
X-749410Y-1312134D01*
X-749301Y-1314793D01*
X-749782Y-1317391D01*
X-750322Y-1318744D01*
X-751888Y-1321065D01*
X-753950Y-1322787D01*
X-756213Y-1323793D01*
X-757982Y-1324231D01*
X-759484Y-1324335D01*
X-761084Y-1324101D01*
X-762418Y-1323747D01*
X-762993Y-1323560D01*
X-763556Y-1323312D01*
X-764171Y-1322950D01*
X-764901Y-1322416D01*
X-765807Y-1321658D01*
X-766952Y-1320620D01*
X-768398Y-1319246D01*
X-770209Y-1317482D01*
X-772445Y-1315272D01*
X-775171Y-1312563D01*
X-775587Y-1312148D01*
X-786601Y-1301179D01*
X-797614Y-1312148D01*
X-800412Y-1314931D01*
X-802712Y-1317205D01*
X-804577Y-1319027D01*
X-806070Y-1320452D01*
X-807253Y-1321533D01*
X-808188Y-1322327D01*
X-808938Y-1322888D01*
X-809565Y-1323271D01*
X-810132Y-1323531D01*
X-810701Y-1323723D01*
X-810783Y-1323747D01*
X-812661Y-1324212D01*
X-814190Y-1324338D01*
X-815737Y-1324128D01*
X-816989Y-1323793D01*
X-819454Y-1322669D01*
X-821442Y-1320960D01*
X-822886Y-1318761D01*
X-823717Y-1316165D01*
X-823898Y-1314080D01*
X-823875Y-1312964D01*
X-823780Y-1311968D01*
X-823563Y-1311023D01*
X-823176Y-1310061D01*
X-822569Y-1309013D01*
X-821691Y-1307812D01*
X-820495Y-1306390D01*
X-818929Y-1304679D01*
X-816946Y-1302610D01*
X-814494Y-1300115D01*
X-811696Y-1297297D01*
X-801113Y-1286667D01*
X-811879Y-1275856D01*
X-815119Y-1272581D01*
X-817795Y-1269828D01*
X-819923Y-1267579D01*
X-821522Y-1265816D01*
X-822607Y-1264520D01*
X-823195Y-1263673D01*
X-823276Y-1263508D01*
X-823863Y-1261116D01*
X-823841Y-1258511D01*
X-823255Y-1255934D01*
X-822150Y-1253622D01*
X-821205Y-1252407D01*
X-819186Y-1250828D01*
X-816756Y-1249823D01*
X-814092Y-1249432D01*
X-811371Y-1249694D01*
G37*
%TO.C,MH4*%
X951195Y-1153549D02*
X954554Y-1153936D01*
X960897Y-1155385D01*
X966875Y-1157522D01*
X972453Y-1160325D01*
X977596Y-1163767D01*
X982268Y-1167826D01*
X986435Y-1172478D01*
X990061Y-1177698D01*
X990557Y-1178529D01*
X993186Y-1183801D01*
X995157Y-1189424D01*
X996459Y-1195292D01*
X997081Y-1201299D01*
X997013Y-1207336D01*
X996243Y-1213298D01*
X994762Y-1219077D01*
X994636Y-1219459D01*
X992344Y-1225065D01*
X989364Y-1230360D01*
X985763Y-1235275D01*
X981607Y-1239743D01*
X976962Y-1243693D01*
X971897Y-1247059D01*
X966477Y-1249770D01*
X964276Y-1250637D01*
X962848Y-1251092D01*
X960825Y-1251645D01*
X958397Y-1252250D01*
X955749Y-1252860D01*
X953070Y-1253428D01*
X953026Y-1253437D01*
X943053Y-1255599D01*
X933676Y-1257958D01*
X924711Y-1260570D01*
X915971Y-1263490D01*
X907273Y-1266775D01*
X902503Y-1268730D01*
X899053Y-1270098D01*
X896169Y-1271036D01*
X893758Y-1271548D01*
X891722Y-1271641D01*
X889966Y-1271319D01*
X888394Y-1270589D01*
X887066Y-1269594D01*
X886139Y-1268699D01*
X885373Y-1267728D01*
X884699Y-1266542D01*
X884052Y-1265003D01*
X883363Y-1262972D01*
X882566Y-1260309D01*
X882541Y-1260221D01*
X880772Y-1254542D01*
X878868Y-1249369D01*
X876715Y-1244414D01*
X875096Y-1241108D01*
X870822Y-1233595D01*
X865869Y-1226437D01*
X860301Y-1219707D01*
X854181Y-1213479D01*
X847571Y-1207824D01*
X843839Y-1205048D01*
X840959Y-1202855D01*
X838784Y-1200821D01*
X837260Y-1198875D01*
X836332Y-1196943D01*
X835946Y-1194954D01*
X835928Y-1194437D01*
X836117Y-1192582D01*
X836750Y-1190909D01*
X837894Y-1189346D01*
X839614Y-1187824D01*
X841976Y-1186270D01*
X845046Y-1184615D01*
X845077Y-1184599D01*
X857236Y-1178860D01*
X870001Y-1173517D01*
X883272Y-1168605D01*
X896949Y-1164158D01*
X910934Y-1160209D01*
X925125Y-1156791D01*
X930989Y-1155550D01*
X936937Y-1154469D01*
X942250Y-1153778D01*
X946985Y-1153472D01*
X951195Y-1153549D01*
G36*
X951195Y-1153549D02*
G01*
X954554Y-1153936D01*
X960897Y-1155385D01*
X966875Y-1157522D01*
X972453Y-1160325D01*
X977596Y-1163767D01*
X982268Y-1167826D01*
X986435Y-1172478D01*
X990061Y-1177698D01*
X990557Y-1178529D01*
X993186Y-1183801D01*
X995157Y-1189424D01*
X996459Y-1195292D01*
X997081Y-1201299D01*
X997013Y-1207336D01*
X996243Y-1213298D01*
X994762Y-1219077D01*
X994636Y-1219459D01*
X992344Y-1225065D01*
X989364Y-1230360D01*
X985763Y-1235275D01*
X981607Y-1239743D01*
X976962Y-1243693D01*
X971897Y-1247059D01*
X966477Y-1249770D01*
X964276Y-1250637D01*
X962848Y-1251092D01*
X960825Y-1251645D01*
X958397Y-1252250D01*
X955749Y-1252860D01*
X953070Y-1253428D01*
X953026Y-1253437D01*
X943053Y-1255599D01*
X933676Y-1257958D01*
X924711Y-1260570D01*
X915971Y-1263490D01*
X907273Y-1266775D01*
X902503Y-1268730D01*
X899053Y-1270098D01*
X896169Y-1271036D01*
X893758Y-1271548D01*
X891722Y-1271641D01*
X889966Y-1271319D01*
X888394Y-1270589D01*
X887066Y-1269594D01*
X886139Y-1268699D01*
X885373Y-1267728D01*
X884699Y-1266542D01*
X884052Y-1265003D01*
X883363Y-1262972D01*
X882566Y-1260309D01*
X882541Y-1260221D01*
X880772Y-1254542D01*
X878868Y-1249369D01*
X876715Y-1244414D01*
X875096Y-1241108D01*
X870822Y-1233595D01*
X865869Y-1226437D01*
X860301Y-1219707D01*
X854181Y-1213479D01*
X847571Y-1207824D01*
X843839Y-1205048D01*
X840959Y-1202855D01*
X838784Y-1200821D01*
X837260Y-1198875D01*
X836332Y-1196943D01*
X835946Y-1194954D01*
X835928Y-1194437D01*
X836117Y-1192582D01*
X836750Y-1190909D01*
X837894Y-1189346D01*
X839614Y-1187824D01*
X841976Y-1186270D01*
X845046Y-1184615D01*
X845077Y-1184599D01*
X857236Y-1178860D01*
X870001Y-1173517D01*
X883272Y-1168605D01*
X896949Y-1164158D01*
X910934Y-1160209D01*
X925125Y-1156791D01*
X930989Y-1155550D01*
X936937Y-1154469D01*
X942250Y-1153778D01*
X946985Y-1153472D01*
X951195Y-1153549D01*
G37*
X695305Y-1334899D02*
X696729Y-1335294D01*
X698700Y-1336380D01*
X700725Y-1338212D01*
X702759Y-1340750D01*
X703089Y-1341228D01*
X708497Y-1348552D01*
X714417Y-1355298D01*
X720821Y-1361445D01*
X727680Y-1366966D01*
X734963Y-1371839D01*
X742643Y-1376038D01*
X748298Y-1378589D01*
X751417Y-1379824D01*
X754556Y-1380946D01*
X757918Y-1382021D01*
X761706Y-1383114D01*
X765000Y-1384000D01*
X766824Y-1384531D01*
X768129Y-1385073D01*
X769179Y-1385757D01*
X770021Y-1386502D01*
X771365Y-1388058D01*
X772173Y-1389697D01*
X772449Y-1391528D01*
X772199Y-1393661D01*
X771425Y-1396206D01*
X770506Y-1398449D01*
X765561Y-1410501D01*
X761233Y-1422930D01*
X757503Y-1435794D01*
X754353Y-1449152D01*
X753725Y-1452220D01*
X753014Y-1455688D01*
X752383Y-1458527D01*
X751786Y-1460888D01*
X751178Y-1462928D01*
X750515Y-1464799D01*
X749752Y-1466655D01*
X749130Y-1468039D01*
X746256Y-1473337D01*
X742742Y-1478244D01*
X738659Y-1482702D01*
X734082Y-1486655D01*
X729083Y-1490045D01*
X723735Y-1492815D01*
X718110Y-1494909D01*
X713378Y-1496073D01*
X707102Y-1496886D01*
X700939Y-1496939D01*
X694938Y-1496267D01*
X689146Y-1494901D01*
X683613Y-1492874D01*
X678387Y-1490219D01*
X673517Y-1486967D01*
X669051Y-1483152D01*
X665038Y-1478806D01*
X661525Y-1473961D01*
X658563Y-1468651D01*
X656199Y-1462907D01*
X654482Y-1456763D01*
X654445Y-1456592D01*
X654127Y-1454823D01*
X653914Y-1452899D01*
X653795Y-1450629D01*
X653754Y-1447824D01*
X653757Y-1446670D01*
X653794Y-1444501D01*
X653895Y-1442405D01*
X654074Y-1440281D01*
X654348Y-1438028D01*
X654734Y-1435546D01*
X655247Y-1432735D01*
X655903Y-1429494D01*
X656719Y-1425724D01*
X657711Y-1421322D01*
X658133Y-1419484D01*
X660984Y-1408142D01*
X664364Y-1396525D01*
X668205Y-1384816D01*
X672441Y-1373202D01*
X677005Y-1361868D01*
X681831Y-1351000D01*
X685272Y-1343884D01*
X686720Y-1341131D01*
X688000Y-1339028D01*
X689191Y-1337471D01*
X690375Y-1336355D01*
X691633Y-1335578D01*
X691819Y-1335491D01*
X693622Y-1334894D01*
X695305Y-1334899D01*
G36*
X695305Y-1334899D02*
G01*
X696729Y-1335294D01*
X698700Y-1336380D01*
X700725Y-1338212D01*
X702759Y-1340750D01*
X703089Y-1341228D01*
X708497Y-1348552D01*
X714417Y-1355298D01*
X720821Y-1361445D01*
X727680Y-1366966D01*
X734963Y-1371839D01*
X742643Y-1376038D01*
X748298Y-1378589D01*
X751417Y-1379824D01*
X754556Y-1380946D01*
X757918Y-1382021D01*
X761706Y-1383114D01*
X765000Y-1384000D01*
X766824Y-1384531D01*
X768129Y-1385073D01*
X769179Y-1385757D01*
X770021Y-1386502D01*
X771365Y-1388058D01*
X772173Y-1389697D01*
X772449Y-1391528D01*
X772199Y-1393661D01*
X771425Y-1396206D01*
X770506Y-1398449D01*
X765561Y-1410501D01*
X761233Y-1422930D01*
X757503Y-1435794D01*
X754353Y-1449152D01*
X753725Y-1452220D01*
X753014Y-1455688D01*
X752383Y-1458527D01*
X751786Y-1460888D01*
X751178Y-1462928D01*
X750515Y-1464799D01*
X749752Y-1466655D01*
X749130Y-1468039D01*
X746256Y-1473337D01*
X742742Y-1478244D01*
X738659Y-1482702D01*
X734082Y-1486655D01*
X729083Y-1490045D01*
X723735Y-1492815D01*
X718110Y-1494909D01*
X713378Y-1496073D01*
X707102Y-1496886D01*
X700939Y-1496939D01*
X694938Y-1496267D01*
X689146Y-1494901D01*
X683613Y-1492874D01*
X678387Y-1490219D01*
X673517Y-1486967D01*
X669051Y-1483152D01*
X665038Y-1478806D01*
X661525Y-1473961D01*
X658563Y-1468651D01*
X656199Y-1462907D01*
X654482Y-1456763D01*
X654445Y-1456592D01*
X654127Y-1454823D01*
X653914Y-1452899D01*
X653795Y-1450629D01*
X653754Y-1447824D01*
X653757Y-1446670D01*
X653794Y-1444501D01*
X653895Y-1442405D01*
X654074Y-1440281D01*
X654348Y-1438028D01*
X654734Y-1435546D01*
X655247Y-1432735D01*
X655903Y-1429494D01*
X656719Y-1425724D01*
X657711Y-1421322D01*
X658133Y-1419484D01*
X660984Y-1408142D01*
X664364Y-1396525D01*
X668205Y-1384816D01*
X672441Y-1373202D01*
X677005Y-1361868D01*
X681831Y-1351000D01*
X685272Y-1343884D01*
X686720Y-1341131D01*
X688000Y-1339028D01*
X689191Y-1337471D01*
X690375Y-1336355D01*
X691633Y-1335578D01*
X691819Y-1335491D01*
X693622Y-1334894D01*
X695305Y-1334899D01*
G37*
X816166Y-1246567D02*
X817064Y-1246767D01*
X820067Y-1247991D01*
X822565Y-1249781D01*
X824501Y-1252059D01*
X825820Y-1254745D01*
X826464Y-1257762D01*
X826491Y-1259912D01*
X826445Y-1260663D01*
X826385Y-1261350D01*
X826280Y-1262008D01*
X826101Y-1262672D01*
X825814Y-1263379D01*
X825389Y-1264165D01*
X824796Y-1265064D01*
X824001Y-1266113D01*
X822975Y-1267347D01*
X821685Y-1268802D01*
X820102Y-1270514D01*
X818192Y-1272519D01*
X815926Y-1274852D01*
X813272Y-1277549D01*
X810199Y-1280645D01*
X806675Y-1284177D01*
X802670Y-1288180D01*
X798151Y-1292690D01*
X795520Y-1295315D01*
X790864Y-1299961D01*
X786735Y-1304077D01*
X783097Y-1307698D01*
X779917Y-1310856D01*
X777160Y-1313584D01*
X774791Y-1315914D01*
X772776Y-1317881D01*
X771080Y-1319515D01*
X769669Y-1320851D01*
X768509Y-1321921D01*
X767564Y-1322758D01*
X766800Y-1323394D01*
X766183Y-1323864D01*
X765678Y-1324198D01*
X765251Y-1324431D01*
X764867Y-1324596D01*
X764649Y-1324673D01*
X761496Y-1325345D01*
X758405Y-1325284D01*
X755483Y-1324531D01*
X752836Y-1323125D01*
X750571Y-1321106D01*
X748951Y-1318804D01*
X748392Y-1317723D01*
X748046Y-1316772D01*
X747862Y-1315700D01*
X747791Y-1314258D01*
X747782Y-1312923D01*
X747816Y-1310969D01*
X747947Y-1309551D01*
X748218Y-1308412D01*
X748670Y-1307298D01*
X748732Y-1307168D01*
X748998Y-1306725D01*
X749474Y-1306092D01*
X750189Y-1305239D01*
X751172Y-1304135D01*
X752452Y-1302750D01*
X754058Y-1301055D01*
X756019Y-1299020D01*
X758364Y-1296613D01*
X761122Y-1293805D01*
X764322Y-1290566D01*
X767994Y-1286865D01*
X772166Y-1282673D01*
X776868Y-1277959D01*
X777902Y-1276923D01*
X782579Y-1272242D01*
X786732Y-1268091D01*
X790393Y-1264439D01*
X793598Y-1261253D01*
X796379Y-1258501D01*
X798771Y-1256149D01*
X800808Y-1254165D01*
X802523Y-1252517D01*
X803951Y-1251172D01*
X805125Y-1250097D01*
X806080Y-1249260D01*
X806848Y-1248628D01*
X807465Y-1248169D01*
X807964Y-1247849D01*
X808339Y-1247655D01*
X810896Y-1246802D01*
X813605Y-1246429D01*
X816166Y-1246567D01*
G36*
X816166Y-1246567D02*
G01*
X817064Y-1246767D01*
X820067Y-1247991D01*
X822565Y-1249781D01*
X824501Y-1252059D01*
X825820Y-1254745D01*
X826464Y-1257762D01*
X826491Y-1259912D01*
X826445Y-1260663D01*
X826385Y-1261350D01*
X826280Y-1262008D01*
X826101Y-1262672D01*
X825814Y-1263379D01*
X825389Y-1264165D01*
X824796Y-1265064D01*
X824001Y-1266113D01*
X822975Y-1267347D01*
X821685Y-1268802D01*
X820102Y-1270514D01*
X818192Y-1272519D01*
X815926Y-1274852D01*
X813272Y-1277549D01*
X810199Y-1280645D01*
X806675Y-1284177D01*
X802670Y-1288180D01*
X798151Y-1292690D01*
X795520Y-1295315D01*
X790864Y-1299961D01*
X786735Y-1304077D01*
X783097Y-1307698D01*
X779917Y-1310856D01*
X777160Y-1313584D01*
X774791Y-1315914D01*
X772776Y-1317881D01*
X771080Y-1319515D01*
X769669Y-1320851D01*
X768509Y-1321921D01*
X767564Y-1322758D01*
X766800Y-1323394D01*
X766183Y-1323864D01*
X765678Y-1324198D01*
X765251Y-1324431D01*
X764867Y-1324596D01*
X764649Y-1324673D01*
X761496Y-1325345D01*
X758405Y-1325284D01*
X755483Y-1324531D01*
X752836Y-1323125D01*
X750571Y-1321106D01*
X748951Y-1318804D01*
X748392Y-1317723D01*
X748046Y-1316772D01*
X747862Y-1315700D01*
X747791Y-1314258D01*
X747782Y-1312923D01*
X747816Y-1310969D01*
X747947Y-1309551D01*
X748218Y-1308412D01*
X748670Y-1307298D01*
X748732Y-1307168D01*
X748998Y-1306725D01*
X749474Y-1306092D01*
X750189Y-1305239D01*
X751172Y-1304135D01*
X752452Y-1302750D01*
X754058Y-1301055D01*
X756019Y-1299020D01*
X758364Y-1296613D01*
X761122Y-1293805D01*
X764322Y-1290566D01*
X767994Y-1286865D01*
X772166Y-1282673D01*
X776868Y-1277959D01*
X777902Y-1276923D01*
X782579Y-1272242D01*
X786732Y-1268091D01*
X790393Y-1264439D01*
X793598Y-1261253D01*
X796379Y-1258501D01*
X798771Y-1256149D01*
X800808Y-1254165D01*
X802523Y-1252517D01*
X803951Y-1251172D01*
X805125Y-1250097D01*
X806080Y-1249260D01*
X806848Y-1248628D01*
X807465Y-1248169D01*
X807964Y-1247849D01*
X808339Y-1247655D01*
X810896Y-1246802D01*
X813605Y-1246429D01*
X816166Y-1246567D01*
G37*
D12*
%TO.C,*%
G36*
X-850500Y43545D02*
G01*
X-840146Y38483D01*
X-831997Y30334D01*
X-826935Y19980D01*
X-825480Y9990D01*
X-825480Y-9990D01*
X-826935Y-19980D01*
X-831997Y-30333D01*
X-840146Y-38483D01*
X-850500Y-43544D01*
X-860490Y-45000D01*
X-1295470Y-45000D01*
X-1305460Y-43544D01*
X-1315814Y-38483D01*
X-1323963Y-30333D01*
X-1329025Y-19980D01*
X-1330480Y-9990D01*
X-1330480Y9990D01*
X-1329025Y19980D01*
X-1323963Y30334D01*
X-1315814Y38483D01*
X-1305460Y43545D01*
X-1295470Y45000D01*
X-860490Y45000D01*
X-850500Y43545D01*
G37*
G36*
X-850500Y-83455D02*
G01*
X-840146Y-88517D01*
X-831997Y-96666D01*
X-826935Y-107020D01*
X-825480Y-117010D01*
X-825480Y-136990D01*
X-826935Y-146980D01*
X-831997Y-157333D01*
X-840146Y-165483D01*
X-850500Y-170544D01*
X-860490Y-172000D01*
X-1295470Y-172000D01*
X-1305460Y-170544D01*
X-1315814Y-165483D01*
X-1323963Y-157333D01*
X-1329025Y-146980D01*
X-1330480Y-136990D01*
X-1330480Y-117010D01*
X-1329025Y-107020D01*
X-1323963Y-96666D01*
X-1315814Y-88517D01*
X-1305460Y-83455D01*
X-1295470Y-82000D01*
X-860490Y-82000D01*
X-850500Y-83455D01*
G37*
G36*
X-850500Y170545D02*
G01*
X-840146Y165483D01*
X-831997Y157334D01*
X-826935Y146980D01*
X-825480Y136990D01*
X-825480Y117010D01*
X-826935Y107020D01*
X-831997Y96667D01*
X-840146Y88517D01*
X-850500Y83456D01*
X-860490Y82000D01*
X-1245470Y82000D01*
X-1255460Y83456D01*
X-1265814Y88517D01*
X-1273963Y96667D01*
X-1279025Y107020D01*
X-1280480Y117010D01*
X-1280480Y136990D01*
X-1279025Y146980D01*
X-1273963Y157334D01*
X-1265814Y165483D01*
X-1255460Y170545D01*
X-1245470Y172000D01*
X-860490Y172000D01*
X-850500Y170545D01*
G37*
D11*
%TO.C,MH2*%
X707585Y1497561D02*
X713547Y1496791D01*
X719327Y1495310D01*
X719708Y1495184D01*
X725314Y1492892D01*
X730609Y1489912D01*
X735525Y1486311D01*
X739992Y1482155D01*
X743943Y1477510D01*
X747308Y1472445D01*
X750019Y1467025D01*
X750887Y1464824D01*
X751342Y1463396D01*
X751895Y1461373D01*
X752500Y1458945D01*
X753109Y1456297D01*
X753677Y1453618D01*
X753686Y1453574D01*
X755849Y1443601D01*
X758208Y1434224D01*
X760820Y1425259D01*
X763740Y1416519D01*
X767024Y1407821D01*
X768979Y1403051D01*
X770347Y1399601D01*
X771285Y1396717D01*
X771798Y1394306D01*
X771890Y1392270D01*
X771569Y1390514D01*
X770838Y1388942D01*
X769843Y1387614D01*
X768948Y1386688D01*
X767977Y1385921D01*
X766792Y1385247D01*
X765252Y1384600D01*
X763221Y1383911D01*
X760559Y1383114D01*
X760470Y1383089D01*
X754791Y1381320D01*
X749618Y1379416D01*
X744664Y1377263D01*
X741358Y1375644D01*
X733844Y1371370D01*
X726686Y1366418D01*
X719957Y1360850D01*
X713728Y1354729D01*
X708074Y1348119D01*
X705297Y1344387D01*
X703104Y1341508D01*
X701071Y1339332D01*
X699125Y1337808D01*
X697193Y1336880D01*
X695203Y1336494D01*
X694687Y1336476D01*
X692832Y1336665D01*
X691158Y1337298D01*
X689596Y1338442D01*
X688073Y1340162D01*
X686520Y1342524D01*
X684865Y1345594D01*
X684849Y1345625D01*
X679109Y1357784D01*
X673767Y1370549D01*
X668855Y1383820D01*
X664407Y1397498D01*
X660458Y1411482D01*
X657041Y1425673D01*
X655800Y1431537D01*
X654719Y1437485D01*
X654028Y1442798D01*
X653722Y1447533D01*
X653798Y1451743D01*
X654185Y1455102D01*
X655634Y1461445D01*
X657772Y1467423D01*
X660574Y1473001D01*
X664017Y1478144D01*
X668076Y1482816D01*
X672727Y1486983D01*
X677948Y1490609D01*
X678779Y1491105D01*
X684050Y1493734D01*
X689674Y1495705D01*
X695542Y1497007D01*
X701548Y1497629D01*
X707585Y1497561D01*
G36*
X707585Y1497561D02*
G01*
X713547Y1496791D01*
X719327Y1495310D01*
X719708Y1495184D01*
X725314Y1492892D01*
X730609Y1489912D01*
X735525Y1486311D01*
X739992Y1482155D01*
X743943Y1477510D01*
X747308Y1472445D01*
X750019Y1467025D01*
X750887Y1464824D01*
X751342Y1463396D01*
X751895Y1461373D01*
X752500Y1458945D01*
X753109Y1456297D01*
X753677Y1453618D01*
X753686Y1453574D01*
X755849Y1443601D01*
X758208Y1434224D01*
X760820Y1425259D01*
X763740Y1416519D01*
X767024Y1407821D01*
X768979Y1403051D01*
X770347Y1399601D01*
X771285Y1396717D01*
X771798Y1394306D01*
X771890Y1392270D01*
X771569Y1390514D01*
X770838Y1388942D01*
X769843Y1387614D01*
X768948Y1386688D01*
X767977Y1385921D01*
X766792Y1385247D01*
X765252Y1384600D01*
X763221Y1383911D01*
X760559Y1383114D01*
X760470Y1383089D01*
X754791Y1381320D01*
X749618Y1379416D01*
X744664Y1377263D01*
X741358Y1375644D01*
X733844Y1371370D01*
X726686Y1366418D01*
X719957Y1360850D01*
X713728Y1354729D01*
X708074Y1348119D01*
X705297Y1344387D01*
X703104Y1341508D01*
X701071Y1339332D01*
X699125Y1337808D01*
X697193Y1336880D01*
X695203Y1336494D01*
X694687Y1336476D01*
X692832Y1336665D01*
X691158Y1337298D01*
X689596Y1338442D01*
X688073Y1340162D01*
X686520Y1342524D01*
X684865Y1345594D01*
X684849Y1345625D01*
X679109Y1357784D01*
X673767Y1370549D01*
X668855Y1383820D01*
X664407Y1397498D01*
X660458Y1411482D01*
X657041Y1425673D01*
X655800Y1431537D01*
X654719Y1437485D01*
X654028Y1442798D01*
X653722Y1447533D01*
X653798Y1451743D01*
X654185Y1455102D01*
X655634Y1461445D01*
X657772Y1467423D01*
X660574Y1473001D01*
X664017Y1478144D01*
X668076Y1482816D01*
X672727Y1486983D01*
X677948Y1490609D01*
X678779Y1491105D01*
X684050Y1493734D01*
X689674Y1495705D01*
X695542Y1497007D01*
X701548Y1497629D01*
X707585Y1497561D01*
G37*
X760913Y1326993D02*
X761599Y1326933D01*
X762257Y1326829D01*
X762922Y1326649D01*
X763629Y1326362D01*
X764414Y1325938D01*
X765313Y1325344D01*
X766362Y1324549D01*
X767597Y1323523D01*
X769052Y1322233D01*
X770764Y1320650D01*
X772769Y1318741D01*
X775102Y1316475D01*
X777798Y1313821D01*
X780895Y1310747D01*
X784427Y1307223D01*
X788430Y1303218D01*
X792940Y1298699D01*
X795565Y1296068D01*
X800210Y1291412D01*
X804327Y1287283D01*
X807948Y1283645D01*
X811106Y1280465D01*
X813833Y1277708D01*
X816164Y1275339D01*
X818130Y1273324D01*
X819765Y1271628D01*
X821100Y1270217D01*
X822170Y1269057D01*
X823007Y1268112D01*
X823644Y1267348D01*
X824113Y1266731D01*
X824448Y1266226D01*
X824681Y1265799D01*
X824845Y1265415D01*
X824922Y1265197D01*
X825594Y1262044D01*
X825534Y1258953D01*
X824780Y1256031D01*
X823374Y1253384D01*
X821355Y1251119D01*
X819054Y1249499D01*
X817972Y1248941D01*
X817021Y1248594D01*
X815949Y1248410D01*
X814507Y1248339D01*
X813172Y1248330D01*
X811218Y1248364D01*
X809800Y1248495D01*
X808662Y1248766D01*
X807548Y1249218D01*
X807418Y1249280D01*
X806975Y1249546D01*
X806342Y1250022D01*
X805488Y1250737D01*
X804384Y1251720D01*
X803000Y1253000D01*
X801305Y1254606D01*
X799269Y1256567D01*
X796862Y1258912D01*
X794054Y1261670D01*
X790815Y1264870D01*
X787115Y1268542D01*
X782922Y1272714D01*
X778209Y1277416D01*
X777173Y1278450D01*
X772491Y1283127D01*
X768341Y1287280D01*
X764689Y1290941D01*
X761503Y1294146D01*
X758750Y1296927D01*
X756398Y1299319D01*
X754415Y1301356D01*
X752766Y1303071D01*
X751421Y1304499D01*
X750346Y1305673D01*
X749509Y1306628D01*
X748877Y1307396D01*
X748418Y1308013D01*
X748099Y1308512D01*
X747904Y1308887D01*
X747052Y1311444D01*
X746679Y1314153D01*
X746816Y1316714D01*
X747017Y1317612D01*
X748241Y1320615D01*
X750031Y1323113D01*
X752308Y1325050D01*
X754995Y1326368D01*
X758011Y1327012D01*
X760161Y1327039D01*
X760913Y1326993D01*
G36*
X760913Y1326993D02*
G01*
X761599Y1326933D01*
X762257Y1326829D01*
X762922Y1326649D01*
X763629Y1326362D01*
X764414Y1325938D01*
X765313Y1325344D01*
X766362Y1324549D01*
X767597Y1323523D01*
X769052Y1322233D01*
X770764Y1320650D01*
X772769Y1318741D01*
X775102Y1316475D01*
X777798Y1313821D01*
X780895Y1310747D01*
X784427Y1307223D01*
X788430Y1303218D01*
X792940Y1298699D01*
X795565Y1296068D01*
X800210Y1291412D01*
X804327Y1287283D01*
X807948Y1283645D01*
X811106Y1280465D01*
X813833Y1277708D01*
X816164Y1275339D01*
X818130Y1273324D01*
X819765Y1271628D01*
X821100Y1270217D01*
X822170Y1269057D01*
X823007Y1268112D01*
X823644Y1267348D01*
X824113Y1266731D01*
X824448Y1266226D01*
X824681Y1265799D01*
X824845Y1265415D01*
X824922Y1265197D01*
X825594Y1262044D01*
X825534Y1258953D01*
X824780Y1256031D01*
X823374Y1253384D01*
X821355Y1251119D01*
X819054Y1249499D01*
X817972Y1248941D01*
X817021Y1248594D01*
X815949Y1248410D01*
X814507Y1248339D01*
X813172Y1248330D01*
X811218Y1248364D01*
X809800Y1248495D01*
X808662Y1248766D01*
X807548Y1249218D01*
X807418Y1249280D01*
X806975Y1249546D01*
X806342Y1250022D01*
X805488Y1250737D01*
X804384Y1251720D01*
X803000Y1253000D01*
X801305Y1254606D01*
X799269Y1256567D01*
X796862Y1258912D01*
X794054Y1261670D01*
X790815Y1264870D01*
X787115Y1268542D01*
X782922Y1272714D01*
X778209Y1277416D01*
X777173Y1278450D01*
X772491Y1283127D01*
X768341Y1287280D01*
X764689Y1290941D01*
X761503Y1294146D01*
X758750Y1296927D01*
X756398Y1299319D01*
X754415Y1301356D01*
X752766Y1303071D01*
X751421Y1304499D01*
X750346Y1305673D01*
X749509Y1306628D01*
X748877Y1307396D01*
X748418Y1308013D01*
X748099Y1308512D01*
X747904Y1308887D01*
X747052Y1311444D01*
X746679Y1314153D01*
X746816Y1316714D01*
X747017Y1317612D01*
X748241Y1320615D01*
X750031Y1323113D01*
X752308Y1325050D01*
X754995Y1326368D01*
X758011Y1327012D01*
X760161Y1327039D01*
X760913Y1326993D01*
G37*
X893911Y1272747D02*
X896456Y1271973D01*
X898699Y1271054D01*
X910751Y1266109D01*
X923180Y1261781D01*
X936044Y1258051D01*
X949402Y1254901D01*
X952470Y1254273D01*
X955938Y1253563D01*
X958776Y1252931D01*
X961138Y1252334D01*
X963177Y1251726D01*
X965048Y1251064D01*
X966905Y1250301D01*
X968288Y1249678D01*
X973586Y1246804D01*
X978493Y1243290D01*
X982952Y1239208D01*
X986904Y1234630D01*
X990294Y1229631D01*
X993065Y1224283D01*
X995158Y1218658D01*
X996323Y1213926D01*
X997135Y1207650D01*
X997189Y1201487D01*
X996517Y1195486D01*
X995151Y1189694D01*
X993124Y1184161D01*
X990468Y1178935D01*
X987217Y1174065D01*
X983402Y1169599D01*
X979056Y1165586D01*
X974211Y1162073D01*
X968901Y1159111D01*
X963157Y1156747D01*
X957012Y1155030D01*
X956841Y1154993D01*
X955073Y1154675D01*
X953149Y1154462D01*
X950879Y1154343D01*
X948074Y1154302D01*
X946919Y1154305D01*
X944751Y1154342D01*
X942654Y1154443D01*
X940530Y1154622D01*
X938277Y1154896D01*
X935796Y1155282D01*
X932985Y1155795D01*
X929744Y1156451D01*
X925973Y1157267D01*
X921572Y1158259D01*
X919733Y1158681D01*
X908392Y1161532D01*
X896774Y1164912D01*
X885065Y1168753D01*
X873451Y1172989D01*
X862118Y1177553D01*
X851250Y1182379D01*
X844133Y1185820D01*
X841380Y1187268D01*
X839277Y1188548D01*
X837720Y1189739D01*
X836605Y1190923D01*
X835828Y1192181D01*
X835741Y1192367D01*
X835143Y1194170D01*
X835148Y1195853D01*
X835544Y1197277D01*
X836629Y1199248D01*
X838461Y1201273D01*
X840999Y1203307D01*
X841478Y1203637D01*
X848801Y1209045D01*
X855548Y1214965D01*
X861694Y1221369D01*
X867216Y1228228D01*
X872088Y1235511D01*
X876288Y1243191D01*
X878839Y1248846D01*
X880073Y1251965D01*
X881195Y1255104D01*
X882270Y1258467D01*
X883364Y1262254D01*
X884249Y1265548D01*
X884781Y1267372D01*
X885322Y1268677D01*
X886006Y1269727D01*
X886751Y1270569D01*
X888308Y1271913D01*
X889946Y1272721D01*
X891777Y1272997D01*
X893911Y1272747D01*
G36*
X893911Y1272747D02*
G01*
X896456Y1271973D01*
X898699Y1271054D01*
X910751Y1266109D01*
X923180Y1261781D01*
X936044Y1258051D01*
X949402Y1254901D01*
X952470Y1254273D01*
X955938Y1253563D01*
X958776Y1252931D01*
X961138Y1252334D01*
X963177Y1251726D01*
X965048Y1251064D01*
X966905Y1250301D01*
X968288Y1249678D01*
X973586Y1246804D01*
X978493Y1243290D01*
X982952Y1239208D01*
X986904Y1234630D01*
X990294Y1229631D01*
X993065Y1224283D01*
X995158Y1218658D01*
X996323Y1213926D01*
X997135Y1207650D01*
X997189Y1201487D01*
X996517Y1195486D01*
X995151Y1189694D01*
X993124Y1184161D01*
X990468Y1178935D01*
X987217Y1174065D01*
X983402Y1169599D01*
X979056Y1165586D01*
X974211Y1162073D01*
X968901Y1159111D01*
X963157Y1156747D01*
X957012Y1155030D01*
X956841Y1154993D01*
X955073Y1154675D01*
X953149Y1154462D01*
X950879Y1154343D01*
X948074Y1154302D01*
X946919Y1154305D01*
X944751Y1154342D01*
X942654Y1154443D01*
X940530Y1154622D01*
X938277Y1154896D01*
X935796Y1155282D01*
X932985Y1155795D01*
X929744Y1156451D01*
X925973Y1157267D01*
X921572Y1158259D01*
X919733Y1158681D01*
X908392Y1161532D01*
X896774Y1164912D01*
X885065Y1168753D01*
X873451Y1172989D01*
X862118Y1177553D01*
X851250Y1182379D01*
X844133Y1185820D01*
X841380Y1187268D01*
X839277Y1188548D01*
X837720Y1189739D01*
X836605Y1190923D01*
X835828Y1192181D01*
X835741Y1192367D01*
X835143Y1194170D01*
X835148Y1195853D01*
X835544Y1197277D01*
X836629Y1199248D01*
X838461Y1201273D01*
X840999Y1203307D01*
X841478Y1203637D01*
X848801Y1209045D01*
X855548Y1214965D01*
X861694Y1221369D01*
X867216Y1228228D01*
X872088Y1235511D01*
X876288Y1243191D01*
X878839Y1248846D01*
X880073Y1251965D01*
X881195Y1255104D01*
X882270Y1258467D01*
X883364Y1262254D01*
X884249Y1265548D01*
X884781Y1267372D01*
X885322Y1268677D01*
X886006Y1269727D01*
X886751Y1270569D01*
X888308Y1271913D01*
X889946Y1272721D01*
X891777Y1272997D01*
X893911Y1272747D01*
G37*
%TO.C,MH1*%
X-889984Y1271069D02*
X-888412Y1270338D01*
X-887084Y1269343D01*
X-886157Y1268448D01*
X-885391Y1267477D01*
X-884717Y1266292D01*
X-884070Y1264752D01*
X-883381Y1262721D01*
X-882584Y1260059D01*
X-882559Y1259970D01*
X-880790Y1254291D01*
X-878886Y1249118D01*
X-876733Y1244164D01*
X-875114Y1240858D01*
X-870840Y1233344D01*
X-865887Y1226186D01*
X-860319Y1219457D01*
X-854199Y1213228D01*
X-847589Y1207574D01*
X-843857Y1204797D01*
X-840977Y1202604D01*
X-838802Y1200571D01*
X-837278Y1198625D01*
X-836350Y1196693D01*
X-835964Y1194703D01*
X-835946Y1194187D01*
X-836135Y1192332D01*
X-836768Y1190658D01*
X-837912Y1189096D01*
X-839632Y1187573D01*
X-841994Y1186020D01*
X-845064Y1184365D01*
X-845095Y1184349D01*
X-857254Y1178609D01*
X-870019Y1173266D01*
X-883290Y1168355D01*
X-896967Y1163907D01*
X-910952Y1159958D01*
X-925143Y1156541D01*
X-931007Y1155300D01*
X-936955Y1154219D01*
X-942268Y1153528D01*
X-947003Y1153222D01*
X-951213Y1153298D01*
X-954572Y1153685D01*
X-960915Y1155134D01*
X-966893Y1157272D01*
X-972471Y1160074D01*
X-977614Y1163516D01*
X-982286Y1167576D01*
X-986453Y1172227D01*
X-990079Y1177448D01*
X-990575Y1178279D01*
X-993204Y1183550D01*
X-995175Y1189173D01*
X-996477Y1195042D01*
X-997099Y1201048D01*
X-997031Y1207085D01*
X-996261Y1213047D01*
X-994780Y1218827D01*
X-994654Y1219208D01*
X-992362Y1224814D01*
X-989382Y1230109D01*
X-985781Y1235025D01*
X-981625Y1239492D01*
X-976980Y1243443D01*
X-971915Y1246808D01*
X-966495Y1249519D01*
X-964294Y1250387D01*
X-962866Y1250842D01*
X-960843Y1251395D01*
X-958415Y1251999D01*
X-955767Y1252609D01*
X-953088Y1253177D01*
X-953044Y1253186D01*
X-943071Y1255349D01*
X-933694Y1257708D01*
X-924729Y1260319D01*
X-915989Y1263240D01*
X-907291Y1266524D01*
X-902521Y1268479D01*
X-899071Y1269847D01*
X-896187Y1270785D01*
X-893776Y1271297D01*
X-891740Y1271390D01*
X-889984Y1271069D01*
G36*
X-889984Y1271069D02*
G01*
X-888412Y1270338D01*
X-887084Y1269343D01*
X-886157Y1268448D01*
X-885391Y1267477D01*
X-884717Y1266292D01*
X-884070Y1264752D01*
X-883381Y1262721D01*
X-882584Y1260059D01*
X-882559Y1259970D01*
X-880790Y1254291D01*
X-878886Y1249118D01*
X-876733Y1244164D01*
X-875114Y1240858D01*
X-870840Y1233344D01*
X-865887Y1226186D01*
X-860319Y1219457D01*
X-854199Y1213228D01*
X-847589Y1207574D01*
X-843857Y1204797D01*
X-840977Y1202604D01*
X-838802Y1200571D01*
X-837278Y1198625D01*
X-836350Y1196693D01*
X-835964Y1194703D01*
X-835946Y1194187D01*
X-836135Y1192332D01*
X-836768Y1190658D01*
X-837912Y1189096D01*
X-839632Y1187573D01*
X-841994Y1186020D01*
X-845064Y1184365D01*
X-845095Y1184349D01*
X-857254Y1178609D01*
X-870019Y1173266D01*
X-883290Y1168355D01*
X-896967Y1163907D01*
X-910952Y1159958D01*
X-925143Y1156541D01*
X-931007Y1155300D01*
X-936955Y1154219D01*
X-942268Y1153528D01*
X-947003Y1153222D01*
X-951213Y1153298D01*
X-954572Y1153685D01*
X-960915Y1155134D01*
X-966893Y1157272D01*
X-972471Y1160074D01*
X-977614Y1163516D01*
X-982286Y1167576D01*
X-986453Y1172227D01*
X-990079Y1177448D01*
X-990575Y1178279D01*
X-993204Y1183550D01*
X-995175Y1189173D01*
X-996477Y1195042D01*
X-997099Y1201048D01*
X-997031Y1207085D01*
X-996261Y1213047D01*
X-994780Y1218827D01*
X-994654Y1219208D01*
X-992362Y1224814D01*
X-989382Y1230109D01*
X-985781Y1235025D01*
X-981625Y1239492D01*
X-976980Y1243443D01*
X-971915Y1246808D01*
X-966495Y1249519D01*
X-964294Y1250387D01*
X-962866Y1250842D01*
X-960843Y1251395D01*
X-958415Y1251999D01*
X-955767Y1252609D01*
X-953088Y1253177D01*
X-953044Y1253186D01*
X-943071Y1255349D01*
X-933694Y1257708D01*
X-924729Y1260319D01*
X-915989Y1263240D01*
X-907291Y1266524D01*
X-902521Y1268479D01*
X-899071Y1269847D01*
X-896187Y1270785D01*
X-893776Y1271297D01*
X-891740Y1271390D01*
X-889984Y1271069D01*
G37*
X-694956Y1496016D02*
X-689164Y1494650D01*
X-683631Y1492623D01*
X-678405Y1489968D01*
X-673535Y1486716D01*
X-669069Y1482901D01*
X-665056Y1478555D01*
X-661543Y1473711D01*
X-658581Y1468400D01*
X-656217Y1462657D01*
X-654500Y1456512D01*
X-654463Y1456341D01*
X-654145Y1454573D01*
X-653932Y1452649D01*
X-653813Y1450379D01*
X-653772Y1447574D01*
X-653775Y1446419D01*
X-653812Y1444251D01*
X-653913Y1442154D01*
X-654092Y1440030D01*
X-654366Y1437777D01*
X-654752Y1435295D01*
X-655265Y1432484D01*
X-655921Y1429244D01*
X-656737Y1425473D01*
X-657729Y1421072D01*
X-658151Y1419233D01*
X-661002Y1407892D01*
X-664382Y1396274D01*
X-668223Y1384565D01*
X-672459Y1372951D01*
X-677023Y1361617D01*
X-681849Y1350750D01*
X-685290Y1343633D01*
X-686738Y1340880D01*
X-688018Y1338777D01*
X-689209Y1337220D01*
X-690393Y1336105D01*
X-691651Y1335328D01*
X-691837Y1335241D01*
X-693640Y1334643D01*
X-695323Y1334648D01*
X-696747Y1335044D01*
X-698718Y1336129D01*
X-700743Y1337961D01*
X-702777Y1340499D01*
X-703107Y1340978D01*
X-708515Y1348301D01*
X-714435Y1355048D01*
X-720839Y1361194D01*
X-727698Y1366716D01*
X-734981Y1371588D01*
X-742661Y1375788D01*
X-748316Y1378339D01*
X-751435Y1379573D01*
X-754574Y1380695D01*
X-757936Y1381770D01*
X-761724Y1382864D01*
X-765018Y1383749D01*
X-766842Y1384281D01*
X-768147Y1384822D01*
X-769197Y1385506D01*
X-770039Y1386251D01*
X-771383Y1387808D01*
X-772191Y1389446D01*
X-772467Y1391277D01*
X-772217Y1393411D01*
X-771443Y1395956D01*
X-770524Y1398199D01*
X-765579Y1410251D01*
X-761251Y1422680D01*
X-757521Y1435544D01*
X-754371Y1448901D01*
X-753743Y1451970D01*
X-753032Y1455438D01*
X-752401Y1458276D01*
X-751804Y1460638D01*
X-751196Y1462677D01*
X-750533Y1464548D01*
X-749770Y1466404D01*
X-749148Y1467788D01*
X-746274Y1473086D01*
X-742760Y1477993D01*
X-738677Y1482451D01*
X-734100Y1486404D01*
X-729101Y1489794D01*
X-723753Y1492565D01*
X-718128Y1494658D01*
X-713396Y1495823D01*
X-707120Y1496635D01*
X-700957Y1496689D01*
X-694956Y1496016D01*
G36*
X-694956Y1496016D02*
G01*
X-689164Y1494650D01*
X-683631Y1492623D01*
X-678405Y1489968D01*
X-673535Y1486716D01*
X-669069Y1482901D01*
X-665056Y1478555D01*
X-661543Y1473711D01*
X-658581Y1468400D01*
X-656217Y1462657D01*
X-654500Y1456512D01*
X-654463Y1456341D01*
X-654145Y1454573D01*
X-653932Y1452649D01*
X-653813Y1450379D01*
X-653772Y1447574D01*
X-653775Y1446419D01*
X-653812Y1444251D01*
X-653913Y1442154D01*
X-654092Y1440030D01*
X-654366Y1437777D01*
X-654752Y1435295D01*
X-655265Y1432484D01*
X-655921Y1429244D01*
X-656737Y1425473D01*
X-657729Y1421072D01*
X-658151Y1419233D01*
X-661002Y1407892D01*
X-664382Y1396274D01*
X-668223Y1384565D01*
X-672459Y1372951D01*
X-677023Y1361617D01*
X-681849Y1350750D01*
X-685290Y1343633D01*
X-686738Y1340880D01*
X-688018Y1338777D01*
X-689209Y1337220D01*
X-690393Y1336105D01*
X-691651Y1335328D01*
X-691837Y1335241D01*
X-693640Y1334643D01*
X-695323Y1334648D01*
X-696747Y1335044D01*
X-698718Y1336129D01*
X-700743Y1337961D01*
X-702777Y1340499D01*
X-703107Y1340978D01*
X-708515Y1348301D01*
X-714435Y1355048D01*
X-720839Y1361194D01*
X-727698Y1366716D01*
X-734981Y1371588D01*
X-742661Y1375788D01*
X-748316Y1378339D01*
X-751435Y1379573D01*
X-754574Y1380695D01*
X-757936Y1381770D01*
X-761724Y1382864D01*
X-765018Y1383749D01*
X-766842Y1384281D01*
X-768147Y1384822D01*
X-769197Y1385506D01*
X-770039Y1386251D01*
X-771383Y1387808D01*
X-772191Y1389446D01*
X-772467Y1391277D01*
X-772217Y1393411D01*
X-771443Y1395956D01*
X-770524Y1398199D01*
X-765579Y1410251D01*
X-761251Y1422680D01*
X-757521Y1435544D01*
X-754371Y1448901D01*
X-753743Y1451970D01*
X-753032Y1455438D01*
X-752401Y1458276D01*
X-751804Y1460638D01*
X-751196Y1462677D01*
X-750533Y1464548D01*
X-749770Y1466404D01*
X-749148Y1467788D01*
X-746274Y1473086D01*
X-742760Y1477993D01*
X-738677Y1482451D01*
X-734100Y1486404D01*
X-729101Y1489794D01*
X-723753Y1492565D01*
X-718128Y1494658D01*
X-713396Y1495823D01*
X-707120Y1496635D01*
X-700957Y1496689D01*
X-694956Y1496016D01*
G37*
X-749308Y1346221D02*
X-747600Y1346154D01*
X-746248Y1346027D01*
X-745180Y1345834D01*
X-744324Y1345570D01*
X-743607Y1345228D01*
X-742955Y1344804D01*
X-742296Y1344291D01*
X-741969Y1344023D01*
X-740882Y1342872D01*
X-739850Y1341353D01*
X-739020Y1339731D01*
X-738538Y1338271D01*
X-738473Y1337697D01*
X-738386Y1337112D01*
X-738137Y1335836D01*
X-737744Y1333949D01*
X-737225Y1331533D01*
X-736596Y1328668D01*
X-735876Y1325435D01*
X-735083Y1321917D01*
X-734306Y1318511D01*
X-733243Y1313850D01*
X-732357Y1309890D01*
X-731637Y1306564D01*
X-731074Y1303802D01*
X-730658Y1301536D01*
X-730377Y1299695D01*
X-730223Y1298211D01*
X-730184Y1297015D01*
X-730250Y1296037D01*
X-730412Y1295210D01*
X-730660Y1294462D01*
X-730733Y1294281D01*
X-731915Y1292274D01*
X-733606Y1290449D01*
X-735459Y1289143D01*
X-737295Y1288511D01*
X-739520Y1288243D01*
X-741816Y1288340D01*
X-743870Y1288800D01*
X-744652Y1289138D01*
X-746260Y1290239D01*
X-747798Y1291715D01*
X-749013Y1293302D01*
X-749492Y1294220D01*
X-749726Y1294965D01*
X-750095Y1296345D01*
X-750567Y1298222D01*
X-751105Y1300457D01*
X-751676Y1302912D01*
X-751768Y1303317D01*
X-752314Y1305706D01*
X-752804Y1307815D01*
X-753209Y1309529D01*
X-753503Y1310730D01*
X-753657Y1311302D01*
X-753670Y1311333D01*
X-753939Y1311076D01*
X-754612Y1310298D01*
X-755603Y1309101D01*
X-756827Y1307590D01*
X-757617Y1306598D01*
X-767578Y1294685D01*
X-778137Y1283292D01*
X-789295Y1272421D01*
X-801051Y1262071D01*
X-807038Y1257183D01*
X-808749Y1255794D01*
X-810191Y1254568D01*
X-811271Y1253592D01*
X-811893Y1252950D01*
X-811999Y1252735D01*
X-811541Y1252566D01*
X-810428Y1252238D01*
X-808777Y1251783D01*
X-806705Y1251233D01*
X-804327Y1250619D01*
X-803362Y1250374D01*
X-800267Y1249588D01*
X-797837Y1248954D01*
X-795966Y1248431D01*
X-794549Y1247982D01*
X-793480Y1247567D01*
X-792653Y1247149D01*
X-791962Y1246688D01*
X-791302Y1246146D01*
X-790952Y1245834D01*
X-789229Y1243788D01*
X-788161Y1241455D01*
X-787731Y1238965D01*
X-787919Y1236452D01*
X-788707Y1234046D01*
X-790076Y1231878D01*
X-792008Y1230080D01*
X-793291Y1229304D01*
X-794404Y1228801D01*
X-795519Y1228470D01*
X-796747Y1228320D01*
X-798196Y1228360D01*
X-799978Y1228598D01*
X-802203Y1229043D01*
X-804981Y1229705D01*
X-807926Y1230460D01*
X-810751Y1231197D01*
X-814135Y1232077D01*
X-817870Y1233046D01*
X-821746Y1234049D01*
X-825556Y1235033D01*
X-828934Y1235904D01*
X-832622Y1236861D01*
X-835625Y1237670D01*
X-838030Y1238366D01*
X-839923Y1238987D01*
X-841391Y1239569D01*
X-842521Y1240150D01*
X-843400Y1240766D01*
X-844114Y1241455D01*
X-844749Y1242253D01*
X-845130Y1242800D01*
X-845526Y1243408D01*
X-845857Y1244002D01*
X-846124Y1244651D01*
X-846330Y1245426D01*
X-846477Y1246394D01*
X-846566Y1247626D01*
X-846600Y1249190D01*
X-846580Y1251156D01*
X-846509Y1253592D01*
X-846388Y1256568D01*
X-846220Y1260154D01*
X-846007Y1264418D01*
X-845844Y1267594D01*
X-845633Y1271579D01*
X-845421Y1275361D01*
X-845214Y1278860D01*
X-845016Y1281994D01*
X-844833Y1284681D01*
X-844672Y1286839D01*
X-844536Y1288388D01*
X-844431Y1289245D01*
X-844411Y1289339D01*
X-843415Y1291668D01*
X-841858Y1293572D01*
X-839870Y1295014D01*
X-837582Y1295958D01*
X-835125Y1296366D01*
X-832631Y1296202D01*
X-830229Y1295428D01*
X-828051Y1294009D01*
X-828000Y1293964D01*
X-826562Y1292360D01*
X-825446Y1290489D01*
X-825390Y1290363D01*
X-825069Y1289578D01*
X-824840Y1288852D01*
X-824695Y1288044D01*
X-824624Y1287012D01*
X-824616Y1285614D01*
X-824662Y1283708D01*
X-824753Y1281153D01*
X-824754Y1281121D01*
X-824856Y1278606D01*
X-824971Y1276169D01*
X-825087Y1274002D01*
X-825196Y1272297D01*
X-825264Y1271451D01*
X-825361Y1270457D01*
X-825382Y1269758D01*
X-825251Y1269381D01*
X-824891Y1269352D01*
X-824224Y1269700D01*
X-823175Y1270451D01*
X-821667Y1271633D01*
X-819623Y1273272D01*
X-819237Y1273581D01*
X-810930Y1280523D01*
X-802721Y1287926D01*
X-794731Y1295668D01*
X-787081Y1303625D01*
X-779889Y1311674D01*
X-773276Y1319694D01*
X-770015Y1323933D01*
X-768864Y1325470D01*
X-772421Y1325216D01*
X-774125Y1325120D01*
X-776370Y1325029D01*
X-778903Y1324952D01*
X-781471Y1324898D01*
X-782328Y1324885D01*
X-784846Y1324868D01*
X-786716Y1324895D01*
X-788083Y1324978D01*
X-789093Y1325127D01*
X-789889Y1325355D01*
X-790265Y1325507D01*
X-792545Y1326924D01*
X-794390Y1328897D01*
X-795694Y1331266D01*
X-796351Y1333866D01*
X-796409Y1334897D01*
X-796046Y1337470D01*
X-795030Y1339898D01*
X-793475Y1342009D01*
X-791493Y1343631D01*
X-790362Y1344210D01*
X-789878Y1344400D01*
X-789359Y1344564D01*
X-788736Y1344707D01*
X-787945Y1344833D01*
X-786917Y1344948D01*
X-785587Y1345055D01*
X-783887Y1345159D01*
X-781750Y1345264D01*
X-779110Y1345375D01*
X-775901Y1345495D01*
X-772055Y1345631D01*
X-767505Y1345785D01*
X-765749Y1345844D01*
X-761165Y1345995D01*
X-757302Y1346115D01*
X-754086Y1346196D01*
X-751446Y1346233D01*
X-749308Y1346221D01*
G36*
X-749308Y1346221D02*
G01*
X-747600Y1346154D01*
X-746248Y1346027D01*
X-745180Y1345834D01*
X-744324Y1345570D01*
X-743607Y1345228D01*
X-742955Y1344804D01*
X-742296Y1344291D01*
X-741969Y1344023D01*
X-740882Y1342872D01*
X-739850Y1341353D01*
X-739020Y1339731D01*
X-738538Y1338271D01*
X-738473Y1337697D01*
X-738386Y1337112D01*
X-738137Y1335836D01*
X-737744Y1333949D01*
X-737225Y1331533D01*
X-736596Y1328668D01*
X-735876Y1325435D01*
X-735083Y1321917D01*
X-734306Y1318511D01*
X-733243Y1313850D01*
X-732357Y1309890D01*
X-731637Y1306564D01*
X-731074Y1303802D01*
X-730658Y1301536D01*
X-730377Y1299695D01*
X-730223Y1298211D01*
X-730184Y1297015D01*
X-730250Y1296037D01*
X-730412Y1295210D01*
X-730660Y1294462D01*
X-730733Y1294281D01*
X-731915Y1292274D01*
X-733606Y1290449D01*
X-735459Y1289143D01*
X-737295Y1288511D01*
X-739520Y1288243D01*
X-741816Y1288340D01*
X-743870Y1288800D01*
X-744652Y1289138D01*
X-746260Y1290239D01*
X-747798Y1291715D01*
X-749013Y1293302D01*
X-749492Y1294220D01*
X-749726Y1294965D01*
X-750095Y1296345D01*
X-750567Y1298222D01*
X-751105Y1300457D01*
X-751676Y1302912D01*
X-751768Y1303317D01*
X-752314Y1305706D01*
X-752804Y1307815D01*
X-753209Y1309529D01*
X-753503Y1310730D01*
X-753657Y1311302D01*
X-753670Y1311333D01*
X-753939Y1311076D01*
X-754612Y1310298D01*
X-755603Y1309101D01*
X-756827Y1307590D01*
X-757617Y1306598D01*
X-767578Y1294685D01*
X-778137Y1283292D01*
X-789295Y1272421D01*
X-801051Y1262071D01*
X-807038Y1257183D01*
X-808749Y1255794D01*
X-810191Y1254568D01*
X-811271Y1253592D01*
X-811893Y1252950D01*
X-811999Y1252735D01*
X-811541Y1252566D01*
X-810428Y1252238D01*
X-808777Y1251783D01*
X-806705Y1251233D01*
X-804327Y1250619D01*
X-803362Y1250374D01*
X-800267Y1249588D01*
X-797837Y1248954D01*
X-795966Y1248431D01*
X-794549Y1247982D01*
X-793480Y1247567D01*
X-792653Y1247149D01*
X-791962Y1246688D01*
X-791302Y1246146D01*
X-790952Y1245834D01*
X-789229Y1243788D01*
X-788161Y1241455D01*
X-787731Y1238965D01*
X-787919Y1236452D01*
X-788707Y1234046D01*
X-790076Y1231878D01*
X-792008Y1230080D01*
X-793291Y1229304D01*
X-794404Y1228801D01*
X-795519Y1228470D01*
X-796747Y1228320D01*
X-798196Y1228360D01*
X-799978Y1228598D01*
X-802203Y1229043D01*
X-804981Y1229705D01*
X-807926Y1230460D01*
X-810751Y1231197D01*
X-814135Y1232077D01*
X-817870Y1233046D01*
X-821746Y1234049D01*
X-825556Y1235033D01*
X-828934Y1235904D01*
X-832622Y1236861D01*
X-835625Y1237670D01*
X-838030Y1238366D01*
X-839923Y1238987D01*
X-841391Y1239569D01*
X-842521Y1240150D01*
X-843400Y1240766D01*
X-844114Y1241455D01*
X-844749Y1242253D01*
X-845130Y1242800D01*
X-845526Y1243408D01*
X-845857Y1244002D01*
X-846124Y1244651D01*
X-846330Y1245426D01*
X-846477Y1246394D01*
X-846566Y1247626D01*
X-846600Y1249190D01*
X-846580Y1251156D01*
X-846509Y1253592D01*
X-846388Y1256568D01*
X-846220Y1260154D01*
X-846007Y1264418D01*
X-845844Y1267594D01*
X-845633Y1271579D01*
X-845421Y1275361D01*
X-845214Y1278860D01*
X-845016Y1281994D01*
X-844833Y1284681D01*
X-844672Y1286839D01*
X-844536Y1288388D01*
X-844431Y1289245D01*
X-844411Y1289339D01*
X-843415Y1291668D01*
X-841858Y1293572D01*
X-839870Y1295014D01*
X-837582Y1295958D01*
X-835125Y1296366D01*
X-832631Y1296202D01*
X-830229Y1295428D01*
X-828051Y1294009D01*
X-828000Y1293964D01*
X-826562Y1292360D01*
X-825446Y1290489D01*
X-825390Y1290363D01*
X-825069Y1289578D01*
X-824840Y1288852D01*
X-824695Y1288044D01*
X-824624Y1287012D01*
X-824616Y1285614D01*
X-824662Y1283708D01*
X-824753Y1281153D01*
X-824754Y1281121D01*
X-824856Y1278606D01*
X-824971Y1276169D01*
X-825087Y1274002D01*
X-825196Y1272297D01*
X-825264Y1271451D01*
X-825361Y1270457D01*
X-825382Y1269758D01*
X-825251Y1269381D01*
X-824891Y1269352D01*
X-824224Y1269700D01*
X-823175Y1270451D01*
X-821667Y1271633D01*
X-819623Y1273272D01*
X-819237Y1273581D01*
X-810930Y1280523D01*
X-802721Y1287926D01*
X-794731Y1295668D01*
X-787081Y1303625D01*
X-779889Y1311674D01*
X-773276Y1319694D01*
X-770015Y1323933D01*
X-768864Y1325470D01*
X-772421Y1325216D01*
X-774125Y1325120D01*
X-776370Y1325029D01*
X-778903Y1324952D01*
X-781471Y1324898D01*
X-782328Y1324885D01*
X-784846Y1324868D01*
X-786716Y1324895D01*
X-788083Y1324978D01*
X-789093Y1325127D01*
X-789889Y1325355D01*
X-790265Y1325507D01*
X-792545Y1326924D01*
X-794390Y1328897D01*
X-795694Y1331266D01*
X-796351Y1333866D01*
X-796409Y1334897D01*
X-796046Y1337470D01*
X-795030Y1339898D01*
X-793475Y1342009D01*
X-791493Y1343631D01*
X-790362Y1344210D01*
X-789878Y1344400D01*
X-789359Y1344564D01*
X-788736Y1344707D01*
X-787945Y1344833D01*
X-786917Y1344948D01*
X-785587Y1345055D01*
X-783887Y1345159D01*
X-781750Y1345264D01*
X-779110Y1345375D01*
X-775901Y1345495D01*
X-772055Y1345631D01*
X-767505Y1345785D01*
X-765749Y1345844D01*
X-761165Y1345995D01*
X-757302Y1346115D01*
X-754086Y1346196D01*
X-751446Y1346233D01*
X-749308Y1346221D01*
G37*
%TD*%
M02*
