%TF.GenerationSoftware,KiCad,Pcbnew,9.0.7*%
%TF.CreationDate,2026-03-04T13:17:48+00:00*%
%TF.ProjectId,kittenbot_servo,6b697474-656e-4626-9f74-5f736572766f,0.6*%
%TF.SameCoordinates,PX8d24d00PY36d6160*%
%TF.FileFunction,Legend,Bot*%
%TF.FilePolarity,Positive*%
%FSLAX45Y45*%
G04 Gerber Fmt 4.5, Leading zero omitted, Abs format (unit mm)*
G04 Created by KiCad (PCBNEW 9.0.7) date 2026-03-04 13:17:48*
%MOMM*%
%LPD*%
G01*
G04 APERTURE LIST*
%ADD10C,0.010000*%
G04 APERTURE END LIST*
D10*
%TO.C,MH3*%
X-692851Y-1336314D02*
X-691177Y-1336947D01*
X-689615Y-1338091D01*
X-688092Y-1339811D01*
X-686539Y-1342173D01*
X-684884Y-1345243D01*
X-684868Y-1345274D01*
X-679128Y-1357433D01*
X-673786Y-1370198D01*
X-668874Y-1383469D01*
X-664426Y-1397147D01*
X-660477Y-1411131D01*
X-657060Y-1425322D01*
X-655819Y-1431186D01*
X-654738Y-1437134D01*
X-654047Y-1442447D01*
X-653741Y-1447182D01*
X-653817Y-1451392D01*
X-654204Y-1454751D01*
X-655653Y-1461094D01*
X-657791Y-1467072D01*
X-660593Y-1472650D01*
X-664036Y-1477793D01*
X-668095Y-1482465D01*
X-672746Y-1486632D01*
X-677967Y-1490258D01*
X-678798Y-1490754D01*
X-684069Y-1493383D01*
X-689693Y-1495354D01*
X-695561Y-1496656D01*
X-701567Y-1497278D01*
X-707604Y-1497210D01*
X-713566Y-1496440D01*
X-719346Y-1494959D01*
X-719727Y-1494833D01*
X-725333Y-1492541D01*
X-730628Y-1489561D01*
X-735544Y-1485960D01*
X-740011Y-1481804D01*
X-743962Y-1477159D01*
X-747327Y-1472094D01*
X-750038Y-1466674D01*
X-750906Y-1464474D01*
X-751361Y-1463045D01*
X-751914Y-1461022D01*
X-752518Y-1458594D01*
X-753128Y-1455946D01*
X-753696Y-1453267D01*
X-753705Y-1453223D01*
X-755868Y-1443250D01*
X-758227Y-1433873D01*
X-760838Y-1424908D01*
X-763759Y-1416168D01*
X-767043Y-1407470D01*
X-768998Y-1402700D01*
X-770366Y-1399250D01*
X-771304Y-1396367D01*
X-771816Y-1393955D01*
X-771909Y-1391919D01*
X-771588Y-1390163D01*
X-770857Y-1388591D01*
X-769862Y-1387263D01*
X-768967Y-1386337D01*
X-767996Y-1385570D01*
X-766811Y-1384896D01*
X-765271Y-1384249D01*
X-763240Y-1383560D01*
X-760578Y-1382763D01*
X-760489Y-1382738D01*
X-754810Y-1380969D01*
X-749637Y-1379065D01*
X-744683Y-1376912D01*
X-741377Y-1375293D01*
X-733863Y-1371019D01*
X-726705Y-1366067D01*
X-719976Y-1360499D01*
X-713747Y-1354378D01*
X-708093Y-1347769D01*
X-705316Y-1344036D01*
X-703123Y-1341157D01*
X-701090Y-1338982D01*
X-699144Y-1337457D01*
X-697212Y-1336529D01*
X-695222Y-1336143D01*
X-694706Y-1336125D01*
X-692851Y-1336314D01*
G36*
X-692851Y-1336314D02*
G01*
X-691177Y-1336947D01*
X-689615Y-1338091D01*
X-688092Y-1339811D01*
X-686539Y-1342173D01*
X-684884Y-1345243D01*
X-684868Y-1345274D01*
X-679128Y-1357433D01*
X-673786Y-1370198D01*
X-668874Y-1383469D01*
X-664426Y-1397147D01*
X-660477Y-1411131D01*
X-657060Y-1425322D01*
X-655819Y-1431186D01*
X-654738Y-1437134D01*
X-654047Y-1442447D01*
X-653741Y-1447182D01*
X-653817Y-1451392D01*
X-654204Y-1454751D01*
X-655653Y-1461094D01*
X-657791Y-1467072D01*
X-660593Y-1472650D01*
X-664036Y-1477793D01*
X-668095Y-1482465D01*
X-672746Y-1486632D01*
X-677967Y-1490258D01*
X-678798Y-1490754D01*
X-684069Y-1493383D01*
X-689693Y-1495354D01*
X-695561Y-1496656D01*
X-701567Y-1497278D01*
X-707604Y-1497210D01*
X-713566Y-1496440D01*
X-719346Y-1494959D01*
X-719727Y-1494833D01*
X-725333Y-1492541D01*
X-730628Y-1489561D01*
X-735544Y-1485960D01*
X-740011Y-1481804D01*
X-743962Y-1477159D01*
X-747327Y-1472094D01*
X-750038Y-1466674D01*
X-750906Y-1464474D01*
X-751361Y-1463045D01*
X-751914Y-1461022D01*
X-752518Y-1458594D01*
X-753128Y-1455946D01*
X-753696Y-1453267D01*
X-753705Y-1453223D01*
X-755868Y-1443250D01*
X-758227Y-1433873D01*
X-760838Y-1424908D01*
X-763759Y-1416168D01*
X-767043Y-1407470D01*
X-768998Y-1402700D01*
X-770366Y-1399250D01*
X-771304Y-1396367D01*
X-771816Y-1393955D01*
X-771909Y-1391919D01*
X-771588Y-1390163D01*
X-770857Y-1388591D01*
X-769862Y-1387263D01*
X-768967Y-1386337D01*
X-767996Y-1385570D01*
X-766811Y-1384896D01*
X-765271Y-1384249D01*
X-763240Y-1383560D01*
X-760578Y-1382763D01*
X-760489Y-1382738D01*
X-754810Y-1380969D01*
X-749637Y-1379065D01*
X-744683Y-1376912D01*
X-741377Y-1375293D01*
X-733863Y-1371019D01*
X-726705Y-1366067D01*
X-719976Y-1360499D01*
X-713747Y-1354378D01*
X-708093Y-1347769D01*
X-705316Y-1344036D01*
X-703123Y-1341157D01*
X-701090Y-1338982D01*
X-699144Y-1337457D01*
X-697212Y-1336529D01*
X-695222Y-1336143D01*
X-694706Y-1336125D01*
X-692851Y-1336314D01*
G37*
X-946938Y-1153954D02*
X-944770Y-1153991D01*
X-942673Y-1154092D01*
X-940549Y-1154271D01*
X-938296Y-1154545D01*
X-935815Y-1154931D01*
X-933004Y-1155444D01*
X-929763Y-1156100D01*
X-925992Y-1156916D01*
X-921591Y-1157908D01*
X-919752Y-1158330D01*
X-908411Y-1161181D01*
X-896793Y-1164561D01*
X-885084Y-1168402D01*
X-873470Y-1172638D01*
X-862136Y-1177202D01*
X-851269Y-1182028D01*
X-844152Y-1185469D01*
X-841399Y-1186917D01*
X-839296Y-1188197D01*
X-837739Y-1189388D01*
X-836624Y-1190572D01*
X-835847Y-1191830D01*
X-835760Y-1192016D01*
X-835162Y-1193819D01*
X-835167Y-1195502D01*
X-835563Y-1196926D01*
X-836648Y-1198897D01*
X-838480Y-1200922D01*
X-841018Y-1202956D01*
X-841497Y-1203286D01*
X-848820Y-1208694D01*
X-855567Y-1214614D01*
X-861713Y-1221018D01*
X-867235Y-1227877D01*
X-872107Y-1235161D01*
X-876307Y-1242840D01*
X-878858Y-1248495D01*
X-880092Y-1251614D01*
X-881214Y-1254754D01*
X-882289Y-1258116D01*
X-883383Y-1261903D01*
X-884268Y-1265197D01*
X-884800Y-1267021D01*
X-885341Y-1268326D01*
X-886025Y-1269376D01*
X-886770Y-1270218D01*
X-888327Y-1271562D01*
X-889965Y-1272370D01*
X-891796Y-1272647D01*
X-893930Y-1272396D01*
X-896475Y-1271622D01*
X-898718Y-1270703D01*
X-910770Y-1265758D01*
X-923199Y-1261430D01*
X-936063Y-1257700D01*
X-949421Y-1254550D01*
X-952489Y-1253922D01*
X-955957Y-1253212D01*
X-958795Y-1252580D01*
X-961157Y-1251983D01*
X-963196Y-1251376D01*
X-965067Y-1250713D01*
X-966923Y-1249950D01*
X-968307Y-1249327D01*
X-973605Y-1246453D01*
X-978512Y-1242939D01*
X-982970Y-1238857D01*
X-986923Y-1234280D01*
X-990313Y-1229280D01*
X-993084Y-1223932D01*
X-995177Y-1218307D01*
X-996342Y-1213575D01*
X-997154Y-1207299D01*
X-997208Y-1201136D01*
X-996535Y-1195135D01*
X-995170Y-1189343D01*
X-993143Y-1183810D01*
X-990487Y-1178585D01*
X-987235Y-1173714D01*
X-983420Y-1169248D01*
X-979074Y-1165235D01*
X-974230Y-1161723D01*
X-968920Y-1158760D01*
X-963176Y-1156396D01*
X-957031Y-1154679D01*
X-956860Y-1154642D01*
X-955092Y-1154324D01*
X-953168Y-1154111D01*
X-950898Y-1153992D01*
X-948093Y-1153951D01*
X-946938Y-1153954D01*
G36*
X-946938Y-1153954D02*
G01*
X-944770Y-1153991D01*
X-942673Y-1154092D01*
X-940549Y-1154271D01*
X-938296Y-1154545D01*
X-935815Y-1154931D01*
X-933004Y-1155444D01*
X-929763Y-1156100D01*
X-925992Y-1156916D01*
X-921591Y-1157908D01*
X-919752Y-1158330D01*
X-908411Y-1161181D01*
X-896793Y-1164561D01*
X-885084Y-1168402D01*
X-873470Y-1172638D01*
X-862136Y-1177202D01*
X-851269Y-1182028D01*
X-844152Y-1185469D01*
X-841399Y-1186917D01*
X-839296Y-1188197D01*
X-837739Y-1189388D01*
X-836624Y-1190572D01*
X-835847Y-1191830D01*
X-835760Y-1192016D01*
X-835162Y-1193819D01*
X-835167Y-1195502D01*
X-835563Y-1196926D01*
X-836648Y-1198897D01*
X-838480Y-1200922D01*
X-841018Y-1202956D01*
X-841497Y-1203286D01*
X-848820Y-1208694D01*
X-855567Y-1214614D01*
X-861713Y-1221018D01*
X-867235Y-1227877D01*
X-872107Y-1235161D01*
X-876307Y-1242840D01*
X-878858Y-1248495D01*
X-880092Y-1251614D01*
X-881214Y-1254754D01*
X-882289Y-1258116D01*
X-883383Y-1261903D01*
X-884268Y-1265197D01*
X-884800Y-1267021D01*
X-885341Y-1268326D01*
X-886025Y-1269376D01*
X-886770Y-1270218D01*
X-888327Y-1271562D01*
X-889965Y-1272370D01*
X-891796Y-1272647D01*
X-893930Y-1272396D01*
X-896475Y-1271622D01*
X-898718Y-1270703D01*
X-910770Y-1265758D01*
X-923199Y-1261430D01*
X-936063Y-1257700D01*
X-949421Y-1254550D01*
X-952489Y-1253922D01*
X-955957Y-1253212D01*
X-958795Y-1252580D01*
X-961157Y-1251983D01*
X-963196Y-1251376D01*
X-965067Y-1250713D01*
X-966923Y-1249950D01*
X-968307Y-1249327D01*
X-973605Y-1246453D01*
X-978512Y-1242939D01*
X-982970Y-1238857D01*
X-986923Y-1234280D01*
X-990313Y-1229280D01*
X-993084Y-1223932D01*
X-995177Y-1218307D01*
X-996342Y-1213575D01*
X-997154Y-1207299D01*
X-997208Y-1201136D01*
X-996535Y-1195135D01*
X-995170Y-1189343D01*
X-993143Y-1183810D01*
X-990487Y-1178585D01*
X-987235Y-1173714D01*
X-983420Y-1169248D01*
X-979074Y-1165235D01*
X-974230Y-1161723D01*
X-968920Y-1158760D01*
X-963176Y-1156396D01*
X-957031Y-1154679D01*
X-956860Y-1154642D01*
X-955092Y-1154324D01*
X-953168Y-1154111D01*
X-950898Y-1153992D01*
X-948093Y-1153951D01*
X-946938Y-1153954D01*
G37*
X-811371Y-1249694D02*
X-810369Y-1249970D01*
X-809780Y-1250189D01*
X-809181Y-1250487D01*
X-808509Y-1250918D01*
X-807700Y-1251540D01*
X-806691Y-1252407D01*
X-805419Y-1253575D01*
X-803820Y-1255101D01*
X-801832Y-1257040D01*
X-799392Y-1259448D01*
X-797416Y-1261408D01*
X-786601Y-1272143D01*
X-775984Y-1261623D01*
X-773128Y-1258815D01*
X-770552Y-1256327D01*
X-768307Y-1254206D01*
X-766443Y-1252497D01*
X-765008Y-1251246D01*
X-764051Y-1250499D01*
X-763780Y-1250335D01*
X-761965Y-1249771D01*
X-759765Y-1249545D01*
X-757494Y-1249653D01*
X-755468Y-1250091D01*
X-754615Y-1250449D01*
X-752692Y-1251814D01*
X-751014Y-1253651D01*
X-749889Y-1255583D01*
X-749482Y-1257170D01*
X-749319Y-1259169D01*
X-749400Y-1261237D01*
X-749724Y-1263032D01*
X-749909Y-1263569D01*
X-750400Y-1264321D01*
X-751465Y-1265601D01*
X-753093Y-1267402D01*
X-755276Y-1269711D01*
X-758003Y-1272519D01*
X-761267Y-1275817D01*
X-761306Y-1275856D01*
X-772089Y-1286667D01*
X-761506Y-1297297D01*
X-758412Y-1300424D01*
X-755861Y-1303043D01*
X-753819Y-1305193D01*
X-752253Y-1306909D01*
X-751128Y-1308231D01*
X-750410Y-1309194D01*
X-750117Y-1309703D01*
X-749410Y-1312134D01*
X-749301Y-1314793D01*
X-749782Y-1317391D01*
X-750322Y-1318744D01*
X-751888Y-1321065D01*
X-753950Y-1322787D01*
X-756213Y-1323793D01*
X-757982Y-1324231D01*
X-759484Y-1324335D01*
X-761084Y-1324101D01*
X-762418Y-1323747D01*
X-762993Y-1323560D01*
X-763556Y-1323312D01*
X-764171Y-1322950D01*
X-764901Y-1322416D01*
X-765807Y-1321658D01*
X-766952Y-1320620D01*
X-768398Y-1319246D01*
X-770209Y-1317482D01*
X-772445Y-1315272D01*
X-775171Y-1312563D01*
X-775587Y-1312148D01*
X-786601Y-1301179D01*
X-797614Y-1312148D01*
X-800412Y-1314931D01*
X-802712Y-1317205D01*
X-804577Y-1319027D01*
X-806070Y-1320452D01*
X-807253Y-1321533D01*
X-808188Y-1322327D01*
X-808938Y-1322888D01*
X-809565Y-1323271D01*
X-810132Y-1323531D01*
X-810701Y-1323723D01*
X-810783Y-1323747D01*
X-812661Y-1324212D01*
X-814190Y-1324338D01*
X-815737Y-1324128D01*
X-816989Y-1323793D01*
X-819454Y-1322669D01*
X-821442Y-1320960D01*
X-822886Y-1318761D01*
X-823717Y-1316165D01*
X-823898Y-1314080D01*
X-823875Y-1312964D01*
X-823780Y-1311968D01*
X-823563Y-1311023D01*
X-823176Y-1310061D01*
X-822569Y-1309013D01*
X-821691Y-1307812D01*
X-820495Y-1306390D01*
X-818929Y-1304679D01*
X-816946Y-1302610D01*
X-814494Y-1300115D01*
X-811696Y-1297297D01*
X-801113Y-1286667D01*
X-811879Y-1275856D01*
X-815119Y-1272581D01*
X-817795Y-1269828D01*
X-819923Y-1267579D01*
X-821522Y-1265816D01*
X-822607Y-1264520D01*
X-823195Y-1263673D01*
X-823276Y-1263508D01*
X-823863Y-1261116D01*
X-823841Y-1258511D01*
X-823255Y-1255934D01*
X-822150Y-1253622D01*
X-821205Y-1252407D01*
X-819186Y-1250828D01*
X-816756Y-1249823D01*
X-814092Y-1249432D01*
X-811371Y-1249694D01*
G36*
X-811371Y-1249694D02*
G01*
X-810369Y-1249970D01*
X-809780Y-1250189D01*
X-809181Y-1250487D01*
X-808509Y-1250918D01*
X-807700Y-1251540D01*
X-806691Y-1252407D01*
X-805419Y-1253575D01*
X-803820Y-1255101D01*
X-801832Y-1257040D01*
X-799392Y-1259448D01*
X-797416Y-1261408D01*
X-786601Y-1272143D01*
X-775984Y-1261623D01*
X-773128Y-1258815D01*
X-770552Y-1256327D01*
X-768307Y-1254206D01*
X-766443Y-1252497D01*
X-765008Y-1251246D01*
X-764051Y-1250499D01*
X-763780Y-1250335D01*
X-761965Y-1249771D01*
X-759765Y-1249545D01*
X-757494Y-1249653D01*
X-755468Y-1250091D01*
X-754615Y-1250449D01*
X-752692Y-1251814D01*
X-751014Y-1253651D01*
X-749889Y-1255583D01*
X-749482Y-1257170D01*
X-749319Y-1259169D01*
X-749400Y-1261237D01*
X-749724Y-1263032D01*
X-749909Y-1263569D01*
X-750400Y-1264321D01*
X-751465Y-1265601D01*
X-753093Y-1267402D01*
X-755276Y-1269711D01*
X-758003Y-1272519D01*
X-761267Y-1275817D01*
X-761306Y-1275856D01*
X-772089Y-1286667D01*
X-761506Y-1297297D01*
X-758412Y-1300424D01*
X-755861Y-1303043D01*
X-753819Y-1305193D01*
X-752253Y-1306909D01*
X-751128Y-1308231D01*
X-750410Y-1309194D01*
X-750117Y-1309703D01*
X-749410Y-1312134D01*
X-749301Y-1314793D01*
X-749782Y-1317391D01*
X-750322Y-1318744D01*
X-751888Y-1321065D01*
X-753950Y-1322787D01*
X-756213Y-1323793D01*
X-757982Y-1324231D01*
X-759484Y-1324335D01*
X-761084Y-1324101D01*
X-762418Y-1323747D01*
X-762993Y-1323560D01*
X-763556Y-1323312D01*
X-764171Y-1322950D01*
X-764901Y-1322416D01*
X-765807Y-1321658D01*
X-766952Y-1320620D01*
X-768398Y-1319246D01*
X-770209Y-1317482D01*
X-772445Y-1315272D01*
X-775171Y-1312563D01*
X-775587Y-1312148D01*
X-786601Y-1301179D01*
X-797614Y-1312148D01*
X-800412Y-1314931D01*
X-802712Y-1317205D01*
X-804577Y-1319027D01*
X-806070Y-1320452D01*
X-807253Y-1321533D01*
X-808188Y-1322327D01*
X-808938Y-1322888D01*
X-809565Y-1323271D01*
X-810132Y-1323531D01*
X-810701Y-1323723D01*
X-810783Y-1323747D01*
X-812661Y-1324212D01*
X-814190Y-1324338D01*
X-815737Y-1324128D01*
X-816989Y-1323793D01*
X-819454Y-1322669D01*
X-821442Y-1320960D01*
X-822886Y-1318761D01*
X-823717Y-1316165D01*
X-823898Y-1314080D01*
X-823875Y-1312964D01*
X-823780Y-1311968D01*
X-823563Y-1311023D01*
X-823176Y-1310061D01*
X-822569Y-1309013D01*
X-821691Y-1307812D01*
X-820495Y-1306390D01*
X-818929Y-1304679D01*
X-816946Y-1302610D01*
X-814494Y-1300115D01*
X-811696Y-1297297D01*
X-801113Y-1286667D01*
X-811879Y-1275856D01*
X-815119Y-1272581D01*
X-817795Y-1269828D01*
X-819923Y-1267579D01*
X-821522Y-1265816D01*
X-822607Y-1264520D01*
X-823195Y-1263673D01*
X-823276Y-1263508D01*
X-823863Y-1261116D01*
X-823841Y-1258511D01*
X-823255Y-1255934D01*
X-822150Y-1253622D01*
X-821205Y-1252407D01*
X-819186Y-1250828D01*
X-816756Y-1249823D01*
X-814092Y-1249432D01*
X-811371Y-1249694D01*
G37*
%TO.C,MH4*%
X951231Y-1153710D02*
X954590Y-1154097D01*
X960934Y-1155546D01*
X966912Y-1157684D01*
X972490Y-1160486D01*
X977632Y-1163928D01*
X982304Y-1167987D01*
X986471Y-1172639D01*
X990098Y-1177859D01*
X990593Y-1178690D01*
X993223Y-1183962D01*
X995194Y-1189585D01*
X996496Y-1195453D01*
X997118Y-1201460D01*
X997049Y-1207497D01*
X996280Y-1213459D01*
X994799Y-1219238D01*
X994672Y-1219620D01*
X992381Y-1225226D01*
X989401Y-1230521D01*
X985799Y-1235436D01*
X981643Y-1239904D01*
X976999Y-1243854D01*
X971934Y-1247220D01*
X966514Y-1249931D01*
X964313Y-1250798D01*
X962884Y-1251253D01*
X960862Y-1251806D01*
X958434Y-1252411D01*
X955786Y-1253021D01*
X953107Y-1253589D01*
X953063Y-1253598D01*
X943090Y-1255760D01*
X933713Y-1258120D01*
X924747Y-1260731D01*
X916008Y-1263651D01*
X907310Y-1266936D01*
X902540Y-1268891D01*
X899089Y-1270259D01*
X896206Y-1271197D01*
X893794Y-1271709D01*
X891758Y-1271802D01*
X890003Y-1271480D01*
X888431Y-1270750D01*
X887103Y-1269755D01*
X886176Y-1268860D01*
X885409Y-1267889D01*
X884736Y-1266703D01*
X884088Y-1265164D01*
X883400Y-1263133D01*
X882603Y-1260470D01*
X882577Y-1260382D01*
X880809Y-1254703D01*
X878904Y-1249530D01*
X876752Y-1244575D01*
X875132Y-1241269D01*
X870858Y-1233756D01*
X865906Y-1226598D01*
X860338Y-1219868D01*
X854218Y-1213640D01*
X847608Y-1207985D01*
X843876Y-1205209D01*
X840996Y-1203016D01*
X838821Y-1200982D01*
X837296Y-1199036D01*
X836368Y-1197105D01*
X835983Y-1195115D01*
X835964Y-1194598D01*
X836153Y-1192743D01*
X836787Y-1191070D01*
X837930Y-1189507D01*
X839650Y-1187985D01*
X842012Y-1186431D01*
X845083Y-1184776D01*
X845114Y-1184761D01*
X857273Y-1179021D01*
X870037Y-1173678D01*
X883308Y-1168766D01*
X896986Y-1164319D01*
X910970Y-1160370D01*
X925162Y-1156953D01*
X931026Y-1155711D01*
X936974Y-1154631D01*
X942287Y-1153939D01*
X947021Y-1153634D01*
X951231Y-1153710D01*
G36*
X951231Y-1153710D02*
G01*
X954590Y-1154097D01*
X960934Y-1155546D01*
X966912Y-1157684D01*
X972490Y-1160486D01*
X977632Y-1163928D01*
X982304Y-1167987D01*
X986471Y-1172639D01*
X990098Y-1177859D01*
X990593Y-1178690D01*
X993223Y-1183962D01*
X995194Y-1189585D01*
X996496Y-1195453D01*
X997118Y-1201460D01*
X997049Y-1207497D01*
X996280Y-1213459D01*
X994799Y-1219238D01*
X994672Y-1219620D01*
X992381Y-1225226D01*
X989401Y-1230521D01*
X985799Y-1235436D01*
X981643Y-1239904D01*
X976999Y-1243854D01*
X971934Y-1247220D01*
X966514Y-1249931D01*
X964313Y-1250798D01*
X962884Y-1251253D01*
X960862Y-1251806D01*
X958434Y-1252411D01*
X955786Y-1253021D01*
X953107Y-1253589D01*
X953063Y-1253598D01*
X943090Y-1255760D01*
X933713Y-1258120D01*
X924747Y-1260731D01*
X916008Y-1263651D01*
X907310Y-1266936D01*
X902540Y-1268891D01*
X899089Y-1270259D01*
X896206Y-1271197D01*
X893794Y-1271709D01*
X891758Y-1271802D01*
X890003Y-1271480D01*
X888431Y-1270750D01*
X887103Y-1269755D01*
X886176Y-1268860D01*
X885409Y-1267889D01*
X884736Y-1266703D01*
X884088Y-1265164D01*
X883400Y-1263133D01*
X882603Y-1260470D01*
X882577Y-1260382D01*
X880809Y-1254703D01*
X878904Y-1249530D01*
X876752Y-1244575D01*
X875132Y-1241269D01*
X870858Y-1233756D01*
X865906Y-1226598D01*
X860338Y-1219868D01*
X854218Y-1213640D01*
X847608Y-1207985D01*
X843876Y-1205209D01*
X840996Y-1203016D01*
X838821Y-1200982D01*
X837296Y-1199036D01*
X836368Y-1197105D01*
X835983Y-1195115D01*
X835964Y-1194598D01*
X836153Y-1192743D01*
X836787Y-1191070D01*
X837930Y-1189507D01*
X839650Y-1187985D01*
X842012Y-1186431D01*
X845083Y-1184776D01*
X845114Y-1184761D01*
X857273Y-1179021D01*
X870037Y-1173678D01*
X883308Y-1168766D01*
X896986Y-1164319D01*
X910970Y-1160370D01*
X925162Y-1156953D01*
X931026Y-1155711D01*
X936974Y-1154631D01*
X942287Y-1153939D01*
X947021Y-1153634D01*
X951231Y-1153710D01*
G37*
X695341Y-1335060D02*
X696765Y-1335455D01*
X698737Y-1336541D01*
X700761Y-1338373D01*
X702796Y-1340911D01*
X703126Y-1341390D01*
X708533Y-1348713D01*
X714454Y-1355460D01*
X720858Y-1361606D01*
X727716Y-1367127D01*
X735000Y-1372000D01*
X742680Y-1376199D01*
X748335Y-1378750D01*
X751454Y-1379985D01*
X754593Y-1381107D01*
X757955Y-1382182D01*
X761743Y-1383275D01*
X765037Y-1384161D01*
X766861Y-1384692D01*
X768166Y-1385234D01*
X769216Y-1385918D01*
X770058Y-1386663D01*
X771402Y-1388219D01*
X772210Y-1389858D01*
X772486Y-1391689D01*
X772235Y-1393822D01*
X771462Y-1396367D01*
X770542Y-1398610D01*
X765598Y-1410662D01*
X761270Y-1423091D01*
X757540Y-1435955D01*
X754390Y-1449313D01*
X753761Y-1452381D01*
X753051Y-1455850D01*
X752420Y-1458688D01*
X751823Y-1461050D01*
X751215Y-1463089D01*
X750552Y-1464960D01*
X749789Y-1466816D01*
X749167Y-1468200D01*
X746293Y-1473498D01*
X742778Y-1478405D01*
X738696Y-1482863D01*
X734119Y-1486816D01*
X729120Y-1490206D01*
X723771Y-1492976D01*
X718147Y-1495070D01*
X713415Y-1496234D01*
X707139Y-1497047D01*
X700976Y-1497100D01*
X694974Y-1496428D01*
X689183Y-1495062D01*
X683650Y-1493035D01*
X678424Y-1490380D01*
X673554Y-1487128D01*
X669088Y-1483313D01*
X665074Y-1478967D01*
X661562Y-1474123D01*
X658600Y-1468812D01*
X656236Y-1463068D01*
X654518Y-1456924D01*
X654481Y-1456753D01*
X654163Y-1454984D01*
X653951Y-1453060D01*
X653831Y-1450790D01*
X653791Y-1447986D01*
X653793Y-1446831D01*
X653831Y-1444662D01*
X653931Y-1442566D01*
X654111Y-1440442D01*
X654385Y-1438189D01*
X654770Y-1435707D01*
X655283Y-1432896D01*
X655940Y-1429655D01*
X656756Y-1425885D01*
X657748Y-1421483D01*
X658169Y-1419645D01*
X661021Y-1408304D01*
X664400Y-1396686D01*
X668241Y-1384977D01*
X672477Y-1373363D01*
X677041Y-1362029D01*
X681867Y-1351162D01*
X685308Y-1344045D01*
X686757Y-1341292D01*
X688036Y-1339189D01*
X689228Y-1337632D01*
X690412Y-1336516D01*
X691670Y-1335740D01*
X691856Y-1335652D01*
X693659Y-1335055D01*
X695341Y-1335060D01*
G36*
X695341Y-1335060D02*
G01*
X696765Y-1335455D01*
X698737Y-1336541D01*
X700761Y-1338373D01*
X702796Y-1340911D01*
X703126Y-1341390D01*
X708533Y-1348713D01*
X714454Y-1355460D01*
X720858Y-1361606D01*
X727716Y-1367127D01*
X735000Y-1372000D01*
X742680Y-1376199D01*
X748335Y-1378750D01*
X751454Y-1379985D01*
X754593Y-1381107D01*
X757955Y-1382182D01*
X761743Y-1383275D01*
X765037Y-1384161D01*
X766861Y-1384692D01*
X768166Y-1385234D01*
X769216Y-1385918D01*
X770058Y-1386663D01*
X771402Y-1388219D01*
X772210Y-1389858D01*
X772486Y-1391689D01*
X772235Y-1393822D01*
X771462Y-1396367D01*
X770542Y-1398610D01*
X765598Y-1410662D01*
X761270Y-1423091D01*
X757540Y-1435955D01*
X754390Y-1449313D01*
X753761Y-1452381D01*
X753051Y-1455850D01*
X752420Y-1458688D01*
X751823Y-1461050D01*
X751215Y-1463089D01*
X750552Y-1464960D01*
X749789Y-1466816D01*
X749167Y-1468200D01*
X746293Y-1473498D01*
X742778Y-1478405D01*
X738696Y-1482863D01*
X734119Y-1486816D01*
X729120Y-1490206D01*
X723771Y-1492976D01*
X718147Y-1495070D01*
X713415Y-1496234D01*
X707139Y-1497047D01*
X700976Y-1497100D01*
X694974Y-1496428D01*
X689183Y-1495062D01*
X683650Y-1493035D01*
X678424Y-1490380D01*
X673554Y-1487128D01*
X669088Y-1483313D01*
X665074Y-1478967D01*
X661562Y-1474123D01*
X658600Y-1468812D01*
X656236Y-1463068D01*
X654518Y-1456924D01*
X654481Y-1456753D01*
X654163Y-1454984D01*
X653951Y-1453060D01*
X653831Y-1450790D01*
X653791Y-1447986D01*
X653793Y-1446831D01*
X653831Y-1444662D01*
X653931Y-1442566D01*
X654111Y-1440442D01*
X654385Y-1438189D01*
X654770Y-1435707D01*
X655283Y-1432896D01*
X655940Y-1429655D01*
X656756Y-1425885D01*
X657748Y-1421483D01*
X658169Y-1419645D01*
X661021Y-1408304D01*
X664400Y-1396686D01*
X668241Y-1384977D01*
X672477Y-1373363D01*
X677041Y-1362029D01*
X681867Y-1351162D01*
X685308Y-1344045D01*
X686757Y-1341292D01*
X688036Y-1339189D01*
X689228Y-1337632D01*
X690412Y-1336516D01*
X691670Y-1335740D01*
X691856Y-1335652D01*
X693659Y-1335055D01*
X695341Y-1335060D01*
G37*
X816203Y-1246728D02*
X817101Y-1246928D01*
X820104Y-1248152D01*
X822602Y-1249942D01*
X824538Y-1252220D01*
X825857Y-1254906D01*
X826501Y-1257923D01*
X826528Y-1260073D01*
X826481Y-1260824D01*
X826421Y-1261511D01*
X826317Y-1262169D01*
X826137Y-1262833D01*
X825851Y-1263540D01*
X825426Y-1264326D01*
X824832Y-1265225D01*
X824038Y-1266274D01*
X823011Y-1267508D01*
X821722Y-1268963D01*
X820138Y-1270676D01*
X818229Y-1272680D01*
X815963Y-1275013D01*
X813309Y-1277710D01*
X810236Y-1280806D01*
X806712Y-1284338D01*
X802706Y-1288341D01*
X798188Y-1292851D01*
X795557Y-1295476D01*
X790901Y-1300122D01*
X786771Y-1304238D01*
X783134Y-1307859D01*
X779953Y-1311017D01*
X777196Y-1313745D01*
X774827Y-1316076D01*
X772812Y-1318042D01*
X771117Y-1319676D01*
X769706Y-1321012D01*
X768545Y-1322082D01*
X767600Y-1322919D01*
X766837Y-1323555D01*
X766220Y-1324025D01*
X765715Y-1324359D01*
X765287Y-1324593D01*
X764903Y-1324757D01*
X764685Y-1324834D01*
X761532Y-1325506D01*
X758441Y-1325445D01*
X755519Y-1324692D01*
X752872Y-1323286D01*
X750608Y-1321267D01*
X748988Y-1318965D01*
X748429Y-1317884D01*
X748083Y-1316933D01*
X747899Y-1315861D01*
X747828Y-1314419D01*
X747818Y-1313084D01*
X747853Y-1311130D01*
X747984Y-1309712D01*
X748255Y-1308574D01*
X748707Y-1307459D01*
X748768Y-1307329D01*
X749035Y-1306886D01*
X749511Y-1306253D01*
X750226Y-1305400D01*
X751209Y-1304296D01*
X752489Y-1302912D01*
X754094Y-1301216D01*
X756055Y-1299181D01*
X758400Y-1296774D01*
X761158Y-1293966D01*
X764359Y-1290727D01*
X768030Y-1287026D01*
X772203Y-1282834D01*
X776904Y-1278120D01*
X777938Y-1277085D01*
X782616Y-1272403D01*
X786768Y-1268252D01*
X790430Y-1264600D01*
X793634Y-1261414D01*
X796416Y-1258662D01*
X798808Y-1256310D01*
X800845Y-1254326D01*
X802560Y-1252678D01*
X803988Y-1251333D01*
X805162Y-1250258D01*
X806116Y-1249421D01*
X806885Y-1248789D01*
X807502Y-1248330D01*
X808000Y-1248010D01*
X808376Y-1247816D01*
X810932Y-1246963D01*
X813642Y-1246590D01*
X816203Y-1246728D01*
G36*
X816203Y-1246728D02*
G01*
X817101Y-1246928D01*
X820104Y-1248152D01*
X822602Y-1249942D01*
X824538Y-1252220D01*
X825857Y-1254906D01*
X826501Y-1257923D01*
X826528Y-1260073D01*
X826481Y-1260824D01*
X826421Y-1261511D01*
X826317Y-1262169D01*
X826137Y-1262833D01*
X825851Y-1263540D01*
X825426Y-1264326D01*
X824832Y-1265225D01*
X824038Y-1266274D01*
X823011Y-1267508D01*
X821722Y-1268963D01*
X820138Y-1270676D01*
X818229Y-1272680D01*
X815963Y-1275013D01*
X813309Y-1277710D01*
X810236Y-1280806D01*
X806712Y-1284338D01*
X802706Y-1288341D01*
X798188Y-1292851D01*
X795557Y-1295476D01*
X790901Y-1300122D01*
X786771Y-1304238D01*
X783134Y-1307859D01*
X779953Y-1311017D01*
X777196Y-1313745D01*
X774827Y-1316076D01*
X772812Y-1318042D01*
X771117Y-1319676D01*
X769706Y-1321012D01*
X768545Y-1322082D01*
X767600Y-1322919D01*
X766837Y-1323555D01*
X766220Y-1324025D01*
X765715Y-1324359D01*
X765287Y-1324593D01*
X764903Y-1324757D01*
X764685Y-1324834D01*
X761532Y-1325506D01*
X758441Y-1325445D01*
X755519Y-1324692D01*
X752872Y-1323286D01*
X750608Y-1321267D01*
X748988Y-1318965D01*
X748429Y-1317884D01*
X748083Y-1316933D01*
X747899Y-1315861D01*
X747828Y-1314419D01*
X747818Y-1313084D01*
X747853Y-1311130D01*
X747984Y-1309712D01*
X748255Y-1308574D01*
X748707Y-1307459D01*
X748768Y-1307329D01*
X749035Y-1306886D01*
X749511Y-1306253D01*
X750226Y-1305400D01*
X751209Y-1304296D01*
X752489Y-1302912D01*
X754094Y-1301216D01*
X756055Y-1299181D01*
X758400Y-1296774D01*
X761158Y-1293966D01*
X764359Y-1290727D01*
X768030Y-1287026D01*
X772203Y-1282834D01*
X776904Y-1278120D01*
X777938Y-1277085D01*
X782616Y-1272403D01*
X786768Y-1268252D01*
X790430Y-1264600D01*
X793634Y-1261414D01*
X796416Y-1258662D01*
X798808Y-1256310D01*
X800845Y-1254326D01*
X802560Y-1252678D01*
X803988Y-1251333D01*
X805162Y-1250258D01*
X806116Y-1249421D01*
X806885Y-1248789D01*
X807502Y-1248330D01*
X808000Y-1248010D01*
X808376Y-1247816D01*
X810932Y-1246963D01*
X813642Y-1246590D01*
X816203Y-1246728D01*
G37*
%TO.C,MH2*%
X707557Y1497289D02*
X713519Y1496520D01*
X719298Y1495039D01*
X719680Y1494912D01*
X725286Y1492621D01*
X730581Y1489641D01*
X735496Y1486039D01*
X739964Y1481883D01*
X743915Y1477239D01*
X747280Y1472174D01*
X749991Y1466754D01*
X750859Y1464553D01*
X751314Y1463124D01*
X751867Y1461102D01*
X752471Y1458674D01*
X753081Y1456026D01*
X753649Y1453347D01*
X753658Y1453303D01*
X755821Y1443330D01*
X758180Y1433953D01*
X760791Y1424987D01*
X763711Y1416248D01*
X766996Y1407550D01*
X768951Y1402780D01*
X770319Y1399329D01*
X771257Y1396446D01*
X771769Y1394034D01*
X771862Y1391999D01*
X771541Y1390243D01*
X770810Y1388671D01*
X769815Y1387343D01*
X768920Y1386416D01*
X767949Y1385650D01*
X766763Y1384976D01*
X765224Y1384328D01*
X763193Y1383640D01*
X760531Y1382843D01*
X760442Y1382817D01*
X754763Y1381049D01*
X749590Y1379144D01*
X744636Y1376992D01*
X741329Y1375372D01*
X733816Y1371099D01*
X726658Y1366146D01*
X719929Y1360578D01*
X713700Y1354458D01*
X708045Y1347848D01*
X705269Y1344116D01*
X703076Y1341236D01*
X701043Y1339061D01*
X699096Y1337537D01*
X697165Y1336609D01*
X695175Y1336223D01*
X694659Y1336205D01*
X692804Y1336393D01*
X691130Y1337027D01*
X689568Y1338170D01*
X688045Y1339890D01*
X686492Y1342252D01*
X684837Y1345323D01*
X684821Y1345354D01*
X679081Y1357513D01*
X673738Y1370278D01*
X668827Y1383549D01*
X664379Y1397226D01*
X660430Y1411210D01*
X657013Y1425402D01*
X655772Y1431266D01*
X654691Y1437214D01*
X654000Y1442527D01*
X653694Y1447261D01*
X653770Y1451471D01*
X654157Y1454830D01*
X655606Y1461174D01*
X657744Y1467152D01*
X660546Y1472730D01*
X663988Y1477872D01*
X668048Y1482544D01*
X672699Y1486711D01*
X677920Y1490338D01*
X678751Y1490833D01*
X684022Y1493463D01*
X689645Y1495434D01*
X695514Y1496736D01*
X701520Y1497358D01*
X707557Y1497289D01*
G36*
X707557Y1497289D02*
G01*
X713519Y1496520D01*
X719298Y1495039D01*
X719680Y1494912D01*
X725286Y1492621D01*
X730581Y1489641D01*
X735496Y1486039D01*
X739964Y1481883D01*
X743915Y1477239D01*
X747280Y1472174D01*
X749991Y1466754D01*
X750859Y1464553D01*
X751314Y1463124D01*
X751867Y1461102D01*
X752471Y1458674D01*
X753081Y1456026D01*
X753649Y1453347D01*
X753658Y1453303D01*
X755821Y1443330D01*
X758180Y1433953D01*
X760791Y1424987D01*
X763711Y1416248D01*
X766996Y1407550D01*
X768951Y1402780D01*
X770319Y1399329D01*
X771257Y1396446D01*
X771769Y1394034D01*
X771862Y1391999D01*
X771541Y1390243D01*
X770810Y1388671D01*
X769815Y1387343D01*
X768920Y1386416D01*
X767949Y1385650D01*
X766763Y1384976D01*
X765224Y1384328D01*
X763193Y1383640D01*
X760531Y1382843D01*
X760442Y1382817D01*
X754763Y1381049D01*
X749590Y1379144D01*
X744636Y1376992D01*
X741329Y1375372D01*
X733816Y1371099D01*
X726658Y1366146D01*
X719929Y1360578D01*
X713700Y1354458D01*
X708045Y1347848D01*
X705269Y1344116D01*
X703076Y1341236D01*
X701043Y1339061D01*
X699096Y1337537D01*
X697165Y1336609D01*
X695175Y1336223D01*
X694659Y1336205D01*
X692804Y1336393D01*
X691130Y1337027D01*
X689568Y1338170D01*
X688045Y1339890D01*
X686492Y1342252D01*
X684837Y1345323D01*
X684821Y1345354D01*
X679081Y1357513D01*
X673738Y1370278D01*
X668827Y1383549D01*
X664379Y1397226D01*
X660430Y1411210D01*
X657013Y1425402D01*
X655772Y1431266D01*
X654691Y1437214D01*
X654000Y1442527D01*
X653694Y1447261D01*
X653770Y1451471D01*
X654157Y1454830D01*
X655606Y1461174D01*
X657744Y1467152D01*
X660546Y1472730D01*
X663988Y1477872D01*
X668048Y1482544D01*
X672699Y1486711D01*
X677920Y1490338D01*
X678751Y1490833D01*
X684022Y1493463D01*
X689645Y1495434D01*
X695514Y1496736D01*
X701520Y1497358D01*
X707557Y1497289D01*
G37*
X760884Y1326721D02*
X761571Y1326661D01*
X762229Y1326557D01*
X762894Y1326377D01*
X763601Y1326091D01*
X764386Y1325666D01*
X765285Y1325072D01*
X766334Y1324278D01*
X767568Y1323251D01*
X769024Y1321962D01*
X770736Y1320378D01*
X772740Y1318469D01*
X775073Y1316203D01*
X777770Y1313549D01*
X780867Y1310476D01*
X784399Y1306952D01*
X788402Y1302946D01*
X792911Y1298428D01*
X795537Y1295797D01*
X800182Y1291141D01*
X804299Y1287011D01*
X807919Y1283374D01*
X811077Y1280193D01*
X813805Y1277436D01*
X816136Y1275067D01*
X818102Y1273052D01*
X819736Y1271357D01*
X821072Y1269946D01*
X822142Y1268785D01*
X822979Y1267841D01*
X823616Y1267077D01*
X824085Y1266460D01*
X824420Y1265955D01*
X824653Y1265528D01*
X824817Y1265143D01*
X824894Y1264926D01*
X825566Y1261772D01*
X825505Y1258681D01*
X824752Y1255759D01*
X823346Y1253112D01*
X821327Y1250848D01*
X819025Y1249228D01*
X817944Y1248669D01*
X816993Y1248323D01*
X815921Y1248139D01*
X814479Y1248068D01*
X813144Y1248058D01*
X811190Y1248093D01*
X809772Y1248224D01*
X808634Y1248495D01*
X807519Y1248947D01*
X807389Y1249008D01*
X806946Y1249275D01*
X806313Y1249751D01*
X805460Y1250466D01*
X804356Y1251449D01*
X802972Y1252729D01*
X801277Y1254334D01*
X799241Y1256295D01*
X796834Y1258640D01*
X794026Y1261398D01*
X790787Y1264599D01*
X787086Y1268271D01*
X782894Y1272443D01*
X778180Y1277144D01*
X777145Y1278179D01*
X772463Y1282856D01*
X768313Y1287008D01*
X764661Y1290670D01*
X761475Y1293875D01*
X758722Y1296656D01*
X756370Y1299048D01*
X754386Y1301085D01*
X752738Y1302800D01*
X751393Y1304228D01*
X750318Y1305402D01*
X749481Y1306356D01*
X748849Y1307125D01*
X748390Y1307742D01*
X748071Y1308240D01*
X747876Y1308616D01*
X747023Y1311172D01*
X746651Y1313882D01*
X746788Y1316443D01*
X746988Y1317341D01*
X748212Y1320344D01*
X750003Y1322842D01*
X752280Y1324778D01*
X754967Y1326097D01*
X757983Y1326741D01*
X760133Y1326768D01*
X760884Y1326721D01*
G36*
X760884Y1326721D02*
G01*
X761571Y1326661D01*
X762229Y1326557D01*
X762894Y1326377D01*
X763601Y1326091D01*
X764386Y1325666D01*
X765285Y1325072D01*
X766334Y1324278D01*
X767568Y1323251D01*
X769024Y1321962D01*
X770736Y1320378D01*
X772740Y1318469D01*
X775073Y1316203D01*
X777770Y1313549D01*
X780867Y1310476D01*
X784399Y1306952D01*
X788402Y1302946D01*
X792911Y1298428D01*
X795537Y1295797D01*
X800182Y1291141D01*
X804299Y1287011D01*
X807919Y1283374D01*
X811077Y1280193D01*
X813805Y1277436D01*
X816136Y1275067D01*
X818102Y1273052D01*
X819736Y1271357D01*
X821072Y1269946D01*
X822142Y1268785D01*
X822979Y1267841D01*
X823616Y1267077D01*
X824085Y1266460D01*
X824420Y1265955D01*
X824653Y1265528D01*
X824817Y1265143D01*
X824894Y1264926D01*
X825566Y1261772D01*
X825505Y1258681D01*
X824752Y1255759D01*
X823346Y1253112D01*
X821327Y1250848D01*
X819025Y1249228D01*
X817944Y1248669D01*
X816993Y1248323D01*
X815921Y1248139D01*
X814479Y1248068D01*
X813144Y1248058D01*
X811190Y1248093D01*
X809772Y1248224D01*
X808634Y1248495D01*
X807519Y1248947D01*
X807389Y1249008D01*
X806946Y1249275D01*
X806313Y1249751D01*
X805460Y1250466D01*
X804356Y1251449D01*
X802972Y1252729D01*
X801277Y1254334D01*
X799241Y1256295D01*
X796834Y1258640D01*
X794026Y1261398D01*
X790787Y1264599D01*
X787086Y1268271D01*
X782894Y1272443D01*
X778180Y1277144D01*
X777145Y1278179D01*
X772463Y1282856D01*
X768313Y1287008D01*
X764661Y1290670D01*
X761475Y1293875D01*
X758722Y1296656D01*
X756370Y1299048D01*
X754386Y1301085D01*
X752738Y1302800D01*
X751393Y1304228D01*
X750318Y1305402D01*
X749481Y1306356D01*
X748849Y1307125D01*
X748390Y1307742D01*
X748071Y1308240D01*
X747876Y1308616D01*
X747023Y1311172D01*
X746651Y1313882D01*
X746788Y1316443D01*
X746988Y1317341D01*
X748212Y1320344D01*
X750003Y1322842D01*
X752280Y1324778D01*
X754967Y1326097D01*
X757983Y1326741D01*
X760133Y1326768D01*
X760884Y1326721D01*
G37*
X893882Y1272475D02*
X896428Y1271702D01*
X898671Y1270782D01*
X910723Y1265838D01*
X923152Y1261510D01*
X936016Y1257780D01*
X949373Y1254630D01*
X952442Y1254001D01*
X955910Y1253291D01*
X958748Y1252660D01*
X961110Y1252063D01*
X963149Y1251455D01*
X965020Y1250792D01*
X966876Y1250029D01*
X968260Y1249407D01*
X973558Y1246533D01*
X978465Y1243018D01*
X982923Y1238936D01*
X986876Y1234359D01*
X990266Y1229360D01*
X993037Y1224011D01*
X995130Y1218387D01*
X996295Y1213655D01*
X997107Y1207379D01*
X997161Y1201216D01*
X996488Y1195214D01*
X995122Y1189423D01*
X993095Y1183890D01*
X990440Y1178664D01*
X987188Y1173794D01*
X983373Y1169328D01*
X979027Y1165314D01*
X974183Y1161802D01*
X968872Y1158840D01*
X963129Y1156476D01*
X956984Y1154758D01*
X956813Y1154721D01*
X955045Y1154403D01*
X953121Y1154191D01*
X950851Y1154071D01*
X948046Y1154031D01*
X946891Y1154033D01*
X944723Y1154071D01*
X942626Y1154171D01*
X940502Y1154351D01*
X938249Y1154625D01*
X935767Y1155010D01*
X932956Y1155523D01*
X929716Y1156180D01*
X925945Y1156996D01*
X921544Y1157988D01*
X919705Y1158409D01*
X908364Y1161261D01*
X896746Y1164640D01*
X885037Y1168481D01*
X873423Y1172717D01*
X862089Y1177281D01*
X851222Y1182107D01*
X844105Y1185548D01*
X841352Y1186997D01*
X839249Y1188276D01*
X837692Y1189468D01*
X836577Y1190652D01*
X835800Y1191910D01*
X835712Y1192096D01*
X835115Y1193899D01*
X835120Y1195581D01*
X835516Y1197005D01*
X836601Y1198977D01*
X838433Y1201001D01*
X840971Y1203036D01*
X841450Y1203366D01*
X848773Y1208773D01*
X855520Y1214694D01*
X861666Y1221098D01*
X867188Y1227956D01*
X872060Y1235240D01*
X876260Y1242920D01*
X878810Y1248575D01*
X880045Y1251694D01*
X881167Y1254833D01*
X882242Y1258195D01*
X883336Y1261983D01*
X884221Y1265277D01*
X884752Y1267101D01*
X885294Y1268406D01*
X885978Y1269456D01*
X886723Y1270298D01*
X888279Y1271642D01*
X889918Y1272450D01*
X891749Y1272726D01*
X893882Y1272475D01*
G36*
X893882Y1272475D02*
G01*
X896428Y1271702D01*
X898671Y1270782D01*
X910723Y1265838D01*
X923152Y1261510D01*
X936016Y1257780D01*
X949373Y1254630D01*
X952442Y1254001D01*
X955910Y1253291D01*
X958748Y1252660D01*
X961110Y1252063D01*
X963149Y1251455D01*
X965020Y1250792D01*
X966876Y1250029D01*
X968260Y1249407D01*
X973558Y1246533D01*
X978465Y1243018D01*
X982923Y1238936D01*
X986876Y1234359D01*
X990266Y1229360D01*
X993037Y1224011D01*
X995130Y1218387D01*
X996295Y1213655D01*
X997107Y1207379D01*
X997161Y1201216D01*
X996488Y1195214D01*
X995122Y1189423D01*
X993095Y1183890D01*
X990440Y1178664D01*
X987188Y1173794D01*
X983373Y1169328D01*
X979027Y1165314D01*
X974183Y1161802D01*
X968872Y1158840D01*
X963129Y1156476D01*
X956984Y1154758D01*
X956813Y1154721D01*
X955045Y1154403D01*
X953121Y1154191D01*
X950851Y1154071D01*
X948046Y1154031D01*
X946891Y1154033D01*
X944723Y1154071D01*
X942626Y1154171D01*
X940502Y1154351D01*
X938249Y1154625D01*
X935767Y1155010D01*
X932956Y1155523D01*
X929716Y1156180D01*
X925945Y1156996D01*
X921544Y1157988D01*
X919705Y1158409D01*
X908364Y1161261D01*
X896746Y1164640D01*
X885037Y1168481D01*
X873423Y1172717D01*
X862089Y1177281D01*
X851222Y1182107D01*
X844105Y1185548D01*
X841352Y1186997D01*
X839249Y1188276D01*
X837692Y1189468D01*
X836577Y1190652D01*
X835800Y1191910D01*
X835712Y1192096D01*
X835115Y1193899D01*
X835120Y1195581D01*
X835516Y1197005D01*
X836601Y1198977D01*
X838433Y1201001D01*
X840971Y1203036D01*
X841450Y1203366D01*
X848773Y1208773D01*
X855520Y1214694D01*
X861666Y1221098D01*
X867188Y1227956D01*
X872060Y1235240D01*
X876260Y1242920D01*
X878810Y1248575D01*
X880045Y1251694D01*
X881167Y1254833D01*
X882242Y1258195D01*
X883336Y1261983D01*
X884221Y1265277D01*
X884752Y1267101D01*
X885294Y1268406D01*
X885978Y1269456D01*
X886723Y1270298D01*
X888279Y1271642D01*
X889918Y1272450D01*
X891749Y1272726D01*
X893882Y1272475D01*
G37*
%TO.C,MH1*%
X-889984Y1271069D02*
X-888412Y1270338D01*
X-887084Y1269343D01*
X-886157Y1268448D01*
X-885391Y1267477D01*
X-884717Y1266292D01*
X-884070Y1264752D01*
X-883381Y1262721D01*
X-882584Y1260059D01*
X-882559Y1259970D01*
X-880790Y1254291D01*
X-878886Y1249118D01*
X-876733Y1244164D01*
X-875114Y1240858D01*
X-870840Y1233344D01*
X-865887Y1226186D01*
X-860319Y1219457D01*
X-854199Y1213228D01*
X-847589Y1207574D01*
X-843857Y1204797D01*
X-840977Y1202604D01*
X-838802Y1200571D01*
X-837278Y1198625D01*
X-836350Y1196693D01*
X-835964Y1194703D01*
X-835946Y1194187D01*
X-836135Y1192332D01*
X-836768Y1190658D01*
X-837912Y1189096D01*
X-839632Y1187573D01*
X-841994Y1186020D01*
X-845064Y1184365D01*
X-845095Y1184349D01*
X-857254Y1178609D01*
X-870019Y1173266D01*
X-883290Y1168355D01*
X-896967Y1163907D01*
X-910952Y1159958D01*
X-925143Y1156541D01*
X-931007Y1155300D01*
X-936955Y1154219D01*
X-942268Y1153528D01*
X-947003Y1153222D01*
X-951213Y1153298D01*
X-954572Y1153685D01*
X-960915Y1155134D01*
X-966893Y1157272D01*
X-972471Y1160074D01*
X-977614Y1163516D01*
X-982286Y1167576D01*
X-986453Y1172227D01*
X-990079Y1177448D01*
X-990575Y1178279D01*
X-993204Y1183550D01*
X-995175Y1189173D01*
X-996477Y1195042D01*
X-997099Y1201048D01*
X-997031Y1207085D01*
X-996261Y1213047D01*
X-994780Y1218827D01*
X-994654Y1219208D01*
X-992362Y1224814D01*
X-989382Y1230109D01*
X-985781Y1235025D01*
X-981625Y1239492D01*
X-976980Y1243443D01*
X-971915Y1246808D01*
X-966495Y1249519D01*
X-964294Y1250387D01*
X-962866Y1250842D01*
X-960843Y1251395D01*
X-958415Y1251999D01*
X-955767Y1252609D01*
X-953088Y1253177D01*
X-953044Y1253186D01*
X-943071Y1255349D01*
X-933694Y1257708D01*
X-924729Y1260319D01*
X-915989Y1263240D01*
X-907291Y1266524D01*
X-902521Y1268479D01*
X-899071Y1269847D01*
X-896187Y1270785D01*
X-893776Y1271297D01*
X-891740Y1271390D01*
X-889984Y1271069D01*
G36*
X-889984Y1271069D02*
G01*
X-888412Y1270338D01*
X-887084Y1269343D01*
X-886157Y1268448D01*
X-885391Y1267477D01*
X-884717Y1266292D01*
X-884070Y1264752D01*
X-883381Y1262721D01*
X-882584Y1260059D01*
X-882559Y1259970D01*
X-880790Y1254291D01*
X-878886Y1249118D01*
X-876733Y1244164D01*
X-875114Y1240858D01*
X-870840Y1233344D01*
X-865887Y1226186D01*
X-860319Y1219457D01*
X-854199Y1213228D01*
X-847589Y1207574D01*
X-843857Y1204797D01*
X-840977Y1202604D01*
X-838802Y1200571D01*
X-837278Y1198625D01*
X-836350Y1196693D01*
X-835964Y1194703D01*
X-835946Y1194187D01*
X-836135Y1192332D01*
X-836768Y1190658D01*
X-837912Y1189096D01*
X-839632Y1187573D01*
X-841994Y1186020D01*
X-845064Y1184365D01*
X-845095Y1184349D01*
X-857254Y1178609D01*
X-870019Y1173266D01*
X-883290Y1168355D01*
X-896967Y1163907D01*
X-910952Y1159958D01*
X-925143Y1156541D01*
X-931007Y1155300D01*
X-936955Y1154219D01*
X-942268Y1153528D01*
X-947003Y1153222D01*
X-951213Y1153298D01*
X-954572Y1153685D01*
X-960915Y1155134D01*
X-966893Y1157272D01*
X-972471Y1160074D01*
X-977614Y1163516D01*
X-982286Y1167576D01*
X-986453Y1172227D01*
X-990079Y1177448D01*
X-990575Y1178279D01*
X-993204Y1183550D01*
X-995175Y1189173D01*
X-996477Y1195042D01*
X-997099Y1201048D01*
X-997031Y1207085D01*
X-996261Y1213047D01*
X-994780Y1218827D01*
X-994654Y1219208D01*
X-992362Y1224814D01*
X-989382Y1230109D01*
X-985781Y1235025D01*
X-981625Y1239492D01*
X-976980Y1243443D01*
X-971915Y1246808D01*
X-966495Y1249519D01*
X-964294Y1250387D01*
X-962866Y1250842D01*
X-960843Y1251395D01*
X-958415Y1251999D01*
X-955767Y1252609D01*
X-953088Y1253177D01*
X-953044Y1253186D01*
X-943071Y1255349D01*
X-933694Y1257708D01*
X-924729Y1260319D01*
X-915989Y1263240D01*
X-907291Y1266524D01*
X-902521Y1268479D01*
X-899071Y1269847D01*
X-896187Y1270785D01*
X-893776Y1271297D01*
X-891740Y1271390D01*
X-889984Y1271069D01*
G37*
X-694956Y1496016D02*
X-689164Y1494650D01*
X-683631Y1492623D01*
X-678405Y1489968D01*
X-673535Y1486716D01*
X-669069Y1482901D01*
X-665056Y1478555D01*
X-661543Y1473711D01*
X-658581Y1468400D01*
X-656217Y1462657D01*
X-654500Y1456512D01*
X-654463Y1456341D01*
X-654145Y1454573D01*
X-653932Y1452649D01*
X-653813Y1450379D01*
X-653772Y1447574D01*
X-653775Y1446419D01*
X-653812Y1444251D01*
X-653913Y1442154D01*
X-654092Y1440030D01*
X-654366Y1437777D01*
X-654752Y1435295D01*
X-655265Y1432484D01*
X-655921Y1429244D01*
X-656737Y1425473D01*
X-657729Y1421072D01*
X-658151Y1419233D01*
X-661002Y1407892D01*
X-664382Y1396274D01*
X-668223Y1384565D01*
X-672459Y1372951D01*
X-677023Y1361617D01*
X-681849Y1350750D01*
X-685290Y1343633D01*
X-686738Y1340880D01*
X-688018Y1338777D01*
X-689209Y1337220D01*
X-690393Y1336105D01*
X-691651Y1335328D01*
X-691837Y1335241D01*
X-693640Y1334643D01*
X-695323Y1334648D01*
X-696747Y1335044D01*
X-698718Y1336129D01*
X-700743Y1337961D01*
X-702777Y1340499D01*
X-703107Y1340978D01*
X-708515Y1348301D01*
X-714435Y1355048D01*
X-720839Y1361194D01*
X-727698Y1366716D01*
X-734981Y1371588D01*
X-742661Y1375788D01*
X-748316Y1378339D01*
X-751435Y1379573D01*
X-754574Y1380695D01*
X-757936Y1381770D01*
X-761724Y1382864D01*
X-765018Y1383749D01*
X-766842Y1384281D01*
X-768147Y1384822D01*
X-769197Y1385506D01*
X-770039Y1386251D01*
X-771383Y1387808D01*
X-772191Y1389446D01*
X-772467Y1391277D01*
X-772217Y1393411D01*
X-771443Y1395956D01*
X-770524Y1398199D01*
X-765579Y1410251D01*
X-761251Y1422680D01*
X-757521Y1435544D01*
X-754371Y1448901D01*
X-753743Y1451970D01*
X-753032Y1455438D01*
X-752401Y1458276D01*
X-751804Y1460638D01*
X-751196Y1462677D01*
X-750533Y1464548D01*
X-749770Y1466404D01*
X-749148Y1467788D01*
X-746274Y1473086D01*
X-742760Y1477993D01*
X-738677Y1482451D01*
X-734100Y1486404D01*
X-729101Y1489794D01*
X-723753Y1492565D01*
X-718128Y1494658D01*
X-713396Y1495823D01*
X-707120Y1496635D01*
X-700957Y1496689D01*
X-694956Y1496016D01*
G36*
X-694956Y1496016D02*
G01*
X-689164Y1494650D01*
X-683631Y1492623D01*
X-678405Y1489968D01*
X-673535Y1486716D01*
X-669069Y1482901D01*
X-665056Y1478555D01*
X-661543Y1473711D01*
X-658581Y1468400D01*
X-656217Y1462657D01*
X-654500Y1456512D01*
X-654463Y1456341D01*
X-654145Y1454573D01*
X-653932Y1452649D01*
X-653813Y1450379D01*
X-653772Y1447574D01*
X-653775Y1446419D01*
X-653812Y1444251D01*
X-653913Y1442154D01*
X-654092Y1440030D01*
X-654366Y1437777D01*
X-654752Y1435295D01*
X-655265Y1432484D01*
X-655921Y1429244D01*
X-656737Y1425473D01*
X-657729Y1421072D01*
X-658151Y1419233D01*
X-661002Y1407892D01*
X-664382Y1396274D01*
X-668223Y1384565D01*
X-672459Y1372951D01*
X-677023Y1361617D01*
X-681849Y1350750D01*
X-685290Y1343633D01*
X-686738Y1340880D01*
X-688018Y1338777D01*
X-689209Y1337220D01*
X-690393Y1336105D01*
X-691651Y1335328D01*
X-691837Y1335241D01*
X-693640Y1334643D01*
X-695323Y1334648D01*
X-696747Y1335044D01*
X-698718Y1336129D01*
X-700743Y1337961D01*
X-702777Y1340499D01*
X-703107Y1340978D01*
X-708515Y1348301D01*
X-714435Y1355048D01*
X-720839Y1361194D01*
X-727698Y1366716D01*
X-734981Y1371588D01*
X-742661Y1375788D01*
X-748316Y1378339D01*
X-751435Y1379573D01*
X-754574Y1380695D01*
X-757936Y1381770D01*
X-761724Y1382864D01*
X-765018Y1383749D01*
X-766842Y1384281D01*
X-768147Y1384822D01*
X-769197Y1385506D01*
X-770039Y1386251D01*
X-771383Y1387808D01*
X-772191Y1389446D01*
X-772467Y1391277D01*
X-772217Y1393411D01*
X-771443Y1395956D01*
X-770524Y1398199D01*
X-765579Y1410251D01*
X-761251Y1422680D01*
X-757521Y1435544D01*
X-754371Y1448901D01*
X-753743Y1451970D01*
X-753032Y1455438D01*
X-752401Y1458276D01*
X-751804Y1460638D01*
X-751196Y1462677D01*
X-750533Y1464548D01*
X-749770Y1466404D01*
X-749148Y1467788D01*
X-746274Y1473086D01*
X-742760Y1477993D01*
X-738677Y1482451D01*
X-734100Y1486404D01*
X-729101Y1489794D01*
X-723753Y1492565D01*
X-718128Y1494658D01*
X-713396Y1495823D01*
X-707120Y1496635D01*
X-700957Y1496689D01*
X-694956Y1496016D01*
G37*
X-749308Y1346221D02*
X-747600Y1346154D01*
X-746248Y1346027D01*
X-745180Y1345834D01*
X-744324Y1345570D01*
X-743607Y1345228D01*
X-742955Y1344804D01*
X-742296Y1344291D01*
X-741969Y1344023D01*
X-740882Y1342872D01*
X-739850Y1341353D01*
X-739020Y1339731D01*
X-738538Y1338271D01*
X-738473Y1337697D01*
X-738386Y1337112D01*
X-738137Y1335836D01*
X-737744Y1333949D01*
X-737225Y1331533D01*
X-736596Y1328668D01*
X-735876Y1325435D01*
X-735083Y1321917D01*
X-734306Y1318511D01*
X-733243Y1313850D01*
X-732357Y1309890D01*
X-731637Y1306564D01*
X-731074Y1303802D01*
X-730658Y1301536D01*
X-730377Y1299695D01*
X-730223Y1298211D01*
X-730184Y1297015D01*
X-730250Y1296037D01*
X-730412Y1295210D01*
X-730660Y1294462D01*
X-730733Y1294281D01*
X-731915Y1292274D01*
X-733606Y1290449D01*
X-735459Y1289143D01*
X-737295Y1288511D01*
X-739520Y1288243D01*
X-741816Y1288340D01*
X-743870Y1288800D01*
X-744652Y1289138D01*
X-746260Y1290239D01*
X-747798Y1291715D01*
X-749013Y1293302D01*
X-749492Y1294220D01*
X-749726Y1294965D01*
X-750095Y1296345D01*
X-750567Y1298222D01*
X-751105Y1300457D01*
X-751676Y1302912D01*
X-751768Y1303317D01*
X-752314Y1305706D01*
X-752804Y1307815D01*
X-753209Y1309529D01*
X-753503Y1310730D01*
X-753657Y1311302D01*
X-753670Y1311333D01*
X-753939Y1311076D01*
X-754612Y1310298D01*
X-755603Y1309101D01*
X-756827Y1307590D01*
X-757617Y1306598D01*
X-767578Y1294685D01*
X-778137Y1283292D01*
X-789295Y1272421D01*
X-801051Y1262071D01*
X-807038Y1257183D01*
X-808749Y1255794D01*
X-810191Y1254568D01*
X-811271Y1253592D01*
X-811893Y1252950D01*
X-811999Y1252735D01*
X-811541Y1252566D01*
X-810428Y1252238D01*
X-808777Y1251783D01*
X-806705Y1251233D01*
X-804327Y1250619D01*
X-803362Y1250374D01*
X-800267Y1249588D01*
X-797837Y1248954D01*
X-795966Y1248431D01*
X-794549Y1247982D01*
X-793480Y1247567D01*
X-792653Y1247149D01*
X-791962Y1246688D01*
X-791302Y1246146D01*
X-790952Y1245834D01*
X-789229Y1243788D01*
X-788161Y1241455D01*
X-787731Y1238965D01*
X-787919Y1236452D01*
X-788707Y1234046D01*
X-790076Y1231878D01*
X-792008Y1230080D01*
X-793291Y1229304D01*
X-794404Y1228801D01*
X-795519Y1228470D01*
X-796747Y1228320D01*
X-798196Y1228360D01*
X-799978Y1228598D01*
X-802203Y1229043D01*
X-804981Y1229705D01*
X-807926Y1230460D01*
X-810751Y1231197D01*
X-814135Y1232077D01*
X-817870Y1233046D01*
X-821746Y1234049D01*
X-825556Y1235033D01*
X-828934Y1235904D01*
X-832622Y1236861D01*
X-835625Y1237670D01*
X-838030Y1238366D01*
X-839923Y1238987D01*
X-841391Y1239569D01*
X-842521Y1240150D01*
X-843400Y1240766D01*
X-844114Y1241455D01*
X-844749Y1242253D01*
X-845130Y1242800D01*
X-845526Y1243408D01*
X-845857Y1244002D01*
X-846124Y1244651D01*
X-846330Y1245426D01*
X-846477Y1246394D01*
X-846566Y1247626D01*
X-846600Y1249190D01*
X-846580Y1251156D01*
X-846509Y1253592D01*
X-846388Y1256568D01*
X-846220Y1260154D01*
X-846007Y1264418D01*
X-845844Y1267594D01*
X-845633Y1271579D01*
X-845421Y1275361D01*
X-845214Y1278860D01*
X-845016Y1281994D01*
X-844833Y1284681D01*
X-844672Y1286839D01*
X-844536Y1288388D01*
X-844431Y1289245D01*
X-844411Y1289339D01*
X-843415Y1291668D01*
X-841858Y1293572D01*
X-839870Y1295014D01*
X-837582Y1295958D01*
X-835125Y1296366D01*
X-832631Y1296202D01*
X-830229Y1295428D01*
X-828051Y1294009D01*
X-828000Y1293964D01*
X-826562Y1292360D01*
X-825446Y1290489D01*
X-825390Y1290363D01*
X-825069Y1289578D01*
X-824840Y1288852D01*
X-824695Y1288044D01*
X-824624Y1287012D01*
X-824616Y1285614D01*
X-824662Y1283708D01*
X-824753Y1281153D01*
X-824754Y1281121D01*
X-824856Y1278606D01*
X-824971Y1276169D01*
X-825087Y1274002D01*
X-825196Y1272297D01*
X-825264Y1271451D01*
X-825361Y1270457D01*
X-825382Y1269758D01*
X-825251Y1269381D01*
X-824891Y1269352D01*
X-824224Y1269700D01*
X-823175Y1270451D01*
X-821667Y1271633D01*
X-819623Y1273272D01*
X-819237Y1273581D01*
X-810930Y1280523D01*
X-802721Y1287926D01*
X-794731Y1295668D01*
X-787081Y1303625D01*
X-779889Y1311674D01*
X-773276Y1319694D01*
X-770015Y1323933D01*
X-768864Y1325470D01*
X-772421Y1325216D01*
X-774125Y1325120D01*
X-776370Y1325029D01*
X-778903Y1324952D01*
X-781471Y1324898D01*
X-782328Y1324885D01*
X-784846Y1324868D01*
X-786716Y1324895D01*
X-788083Y1324978D01*
X-789093Y1325127D01*
X-789889Y1325355D01*
X-790265Y1325507D01*
X-792545Y1326924D01*
X-794390Y1328897D01*
X-795694Y1331266D01*
X-796351Y1333866D01*
X-796409Y1334897D01*
X-796046Y1337470D01*
X-795030Y1339898D01*
X-793475Y1342009D01*
X-791493Y1343631D01*
X-790362Y1344210D01*
X-789878Y1344400D01*
X-789359Y1344564D01*
X-788736Y1344707D01*
X-787945Y1344833D01*
X-786917Y1344948D01*
X-785587Y1345055D01*
X-783887Y1345159D01*
X-781750Y1345264D01*
X-779110Y1345375D01*
X-775901Y1345495D01*
X-772055Y1345631D01*
X-767505Y1345785D01*
X-765749Y1345844D01*
X-761165Y1345995D01*
X-757302Y1346115D01*
X-754086Y1346196D01*
X-751446Y1346233D01*
X-749308Y1346221D01*
G36*
X-749308Y1346221D02*
G01*
X-747600Y1346154D01*
X-746248Y1346027D01*
X-745180Y1345834D01*
X-744324Y1345570D01*
X-743607Y1345228D01*
X-742955Y1344804D01*
X-742296Y1344291D01*
X-741969Y1344023D01*
X-740882Y1342872D01*
X-739850Y1341353D01*
X-739020Y1339731D01*
X-738538Y1338271D01*
X-738473Y1337697D01*
X-738386Y1337112D01*
X-738137Y1335836D01*
X-737744Y1333949D01*
X-737225Y1331533D01*
X-736596Y1328668D01*
X-735876Y1325435D01*
X-735083Y1321917D01*
X-734306Y1318511D01*
X-733243Y1313850D01*
X-732357Y1309890D01*
X-731637Y1306564D01*
X-731074Y1303802D01*
X-730658Y1301536D01*
X-730377Y1299695D01*
X-730223Y1298211D01*
X-730184Y1297015D01*
X-730250Y1296037D01*
X-730412Y1295210D01*
X-730660Y1294462D01*
X-730733Y1294281D01*
X-731915Y1292274D01*
X-733606Y1290449D01*
X-735459Y1289143D01*
X-737295Y1288511D01*
X-739520Y1288243D01*
X-741816Y1288340D01*
X-743870Y1288800D01*
X-744652Y1289138D01*
X-746260Y1290239D01*
X-747798Y1291715D01*
X-749013Y1293302D01*
X-749492Y1294220D01*
X-749726Y1294965D01*
X-750095Y1296345D01*
X-750567Y1298222D01*
X-751105Y1300457D01*
X-751676Y1302912D01*
X-751768Y1303317D01*
X-752314Y1305706D01*
X-752804Y1307815D01*
X-753209Y1309529D01*
X-753503Y1310730D01*
X-753657Y1311302D01*
X-753670Y1311333D01*
X-753939Y1311076D01*
X-754612Y1310298D01*
X-755603Y1309101D01*
X-756827Y1307590D01*
X-757617Y1306598D01*
X-767578Y1294685D01*
X-778137Y1283292D01*
X-789295Y1272421D01*
X-801051Y1262071D01*
X-807038Y1257183D01*
X-808749Y1255794D01*
X-810191Y1254568D01*
X-811271Y1253592D01*
X-811893Y1252950D01*
X-811999Y1252735D01*
X-811541Y1252566D01*
X-810428Y1252238D01*
X-808777Y1251783D01*
X-806705Y1251233D01*
X-804327Y1250619D01*
X-803362Y1250374D01*
X-800267Y1249588D01*
X-797837Y1248954D01*
X-795966Y1248431D01*
X-794549Y1247982D01*
X-793480Y1247567D01*
X-792653Y1247149D01*
X-791962Y1246688D01*
X-791302Y1246146D01*
X-790952Y1245834D01*
X-789229Y1243788D01*
X-788161Y1241455D01*
X-787731Y1238965D01*
X-787919Y1236452D01*
X-788707Y1234046D01*
X-790076Y1231878D01*
X-792008Y1230080D01*
X-793291Y1229304D01*
X-794404Y1228801D01*
X-795519Y1228470D01*
X-796747Y1228320D01*
X-798196Y1228360D01*
X-799978Y1228598D01*
X-802203Y1229043D01*
X-804981Y1229705D01*
X-807926Y1230460D01*
X-810751Y1231197D01*
X-814135Y1232077D01*
X-817870Y1233046D01*
X-821746Y1234049D01*
X-825556Y1235033D01*
X-828934Y1235904D01*
X-832622Y1236861D01*
X-835625Y1237670D01*
X-838030Y1238366D01*
X-839923Y1238987D01*
X-841391Y1239569D01*
X-842521Y1240150D01*
X-843400Y1240766D01*
X-844114Y1241455D01*
X-844749Y1242253D01*
X-845130Y1242800D01*
X-845526Y1243408D01*
X-845857Y1244002D01*
X-846124Y1244651D01*
X-846330Y1245426D01*
X-846477Y1246394D01*
X-846566Y1247626D01*
X-846600Y1249190D01*
X-846580Y1251156D01*
X-846509Y1253592D01*
X-846388Y1256568D01*
X-846220Y1260154D01*
X-846007Y1264418D01*
X-845844Y1267594D01*
X-845633Y1271579D01*
X-845421Y1275361D01*
X-845214Y1278860D01*
X-845016Y1281994D01*
X-844833Y1284681D01*
X-844672Y1286839D01*
X-844536Y1288388D01*
X-844431Y1289245D01*
X-844411Y1289339D01*
X-843415Y1291668D01*
X-841858Y1293572D01*
X-839870Y1295014D01*
X-837582Y1295958D01*
X-835125Y1296366D01*
X-832631Y1296202D01*
X-830229Y1295428D01*
X-828051Y1294009D01*
X-828000Y1293964D01*
X-826562Y1292360D01*
X-825446Y1290489D01*
X-825390Y1290363D01*
X-825069Y1289578D01*
X-824840Y1288852D01*
X-824695Y1288044D01*
X-824624Y1287012D01*
X-824616Y1285614D01*
X-824662Y1283708D01*
X-824753Y1281153D01*
X-824754Y1281121D01*
X-824856Y1278606D01*
X-824971Y1276169D01*
X-825087Y1274002D01*
X-825196Y1272297D01*
X-825264Y1271451D01*
X-825361Y1270457D01*
X-825382Y1269758D01*
X-825251Y1269381D01*
X-824891Y1269352D01*
X-824224Y1269700D01*
X-823175Y1270451D01*
X-821667Y1271633D01*
X-819623Y1273272D01*
X-819237Y1273581D01*
X-810930Y1280523D01*
X-802721Y1287926D01*
X-794731Y1295668D01*
X-787081Y1303625D01*
X-779889Y1311674D01*
X-773276Y1319694D01*
X-770015Y1323933D01*
X-768864Y1325470D01*
X-772421Y1325216D01*
X-774125Y1325120D01*
X-776370Y1325029D01*
X-778903Y1324952D01*
X-781471Y1324898D01*
X-782328Y1324885D01*
X-784846Y1324868D01*
X-786716Y1324895D01*
X-788083Y1324978D01*
X-789093Y1325127D01*
X-789889Y1325355D01*
X-790265Y1325507D01*
X-792545Y1326924D01*
X-794390Y1328897D01*
X-795694Y1331266D01*
X-796351Y1333866D01*
X-796409Y1334897D01*
X-796046Y1337470D01*
X-795030Y1339898D01*
X-793475Y1342009D01*
X-791493Y1343631D01*
X-790362Y1344210D01*
X-789878Y1344400D01*
X-789359Y1344564D01*
X-788736Y1344707D01*
X-787945Y1344833D01*
X-786917Y1344948D01*
X-785587Y1345055D01*
X-783887Y1345159D01*
X-781750Y1345264D01*
X-779110Y1345375D01*
X-775901Y1345495D01*
X-772055Y1345631D01*
X-767505Y1345785D01*
X-765749Y1345844D01*
X-761165Y1345995D01*
X-757302Y1346115D01*
X-754086Y1346196D01*
X-751446Y1346233D01*
X-749308Y1346221D01*
G37*
%TD*%
M02*
