%TF.GenerationSoftware,KiCad,Pcbnew,9.0.7*%
%TF.CreationDate,2026-03-30T18:33:12+01:00*%
%TF.ProjectId,jvm_rgb_ring,6a766d5f-7267-4625-9f72-696e672e6b69,0.7*%
%TF.SameCoordinates,PX4eeaa30PY487ab00*%
%TF.FileFunction,AssemblyDrawing,Top*%
%FSLAX45Y45*%
G04 Gerber Fmt 4.5, Leading zero omitted, Abs format (unit mm)*
G04 Created by KiCad (PCBNEW 9.0.7) date 2026-03-30 18:33:12*
%MOMM*%
%LPD*%
G01*
G04 APERTURE LIST*
%ADD10C,0.100000*%
%ADD11C,0.120000*%
G04 APERTURE END LIST*
D10*
%TO.C,C9*%
X-450147Y-1099216D02*
X-563284Y-1212353D01*
X-619853Y-1155784D01*
X-506716Y-1042647D01*
X-450147Y-1099216D01*
%TO.C,GS6*%
X-1500000Y900000D02*
X-1500000Y800000D01*
X-1450000Y850000D02*
X-1550000Y850000D01*
X-1450000Y850000D02*
G75*
G02*
X-1550000Y850000I-50000J0D01*
G01*
X-1550000Y850000D02*
G75*
G02*
X-1450000Y850000I50000J0D01*
G01*
%TO.C,GS3*%
X-1550000Y550000D02*
X-1450000Y550000D01*
X-1500000Y600000D02*
X-1500000Y500000D01*
X-1450000Y550000D02*
G75*
G02*
X-1550000Y550000I-50000J0D01*
G01*
X-1550000Y550000D02*
G75*
G02*
X-1450000Y550000I50000J0D01*
G01*
%TO.C,C2*%
X-455000Y-260000D02*
X-295000Y-260000D01*
X-295000Y-340000D01*
X-455000Y-340000D01*
X-455000Y-260000D01*
%TO.C,D7*%
X-250000Y-942500D02*
X-250000Y-1442500D01*
X-250000Y-1042500D02*
X-150000Y-942500D01*
X-250000Y-1442500D02*
X250000Y-1442500D01*
X250000Y-942500D02*
X-250000Y-942500D01*
X250000Y-1442500D02*
X250000Y-942500D01*
X200000Y-1192500D02*
G75*
G02*
X-200000Y-1192500I-200000J0D01*
G01*
X-200000Y-1192500D02*
G75*
G02*
X200000Y-1192500I200000J0D01*
G01*
%TO.C,R3*%
X-91250Y520000D02*
X-8750Y520000D01*
X-8750Y680000D01*
X-91250Y680000D01*
X-91250Y520000D01*
%TO.C,D10*%
X-1196778Y843225D02*
X-843225Y489671D01*
X-843225Y1196778D02*
X-1196778Y843225D01*
X-843225Y489671D02*
X-489671Y843225D01*
X-560382Y913936D02*
X-560382Y772514D01*
X-489671Y843225D02*
X-843225Y1196778D01*
X-643225Y843225D02*
G75*
G02*
X-1043225Y843225I-200000J0D01*
G01*
X-1043225Y843225D02*
G75*
G02*
X-643225Y843225I200000J0D01*
G01*
%TO.C,U2*%
X-295000Y-155000D02*
X-335000Y-195000D01*
X-455000Y-195000D01*
X-455000Y95000D01*
X-295000Y95000D01*
X-295000Y-155000D01*
%TO.C,C10*%
X-1261227Y-377500D02*
X-1101227Y-377500D01*
X-1101227Y-457500D01*
X-1261227Y-457500D01*
X-1261227Y-377500D01*
%TO.C,GS2*%
X-1550000Y400000D02*
X-1450000Y400000D01*
X-1500000Y450000D02*
X-1500000Y350000D01*
X-1450000Y400000D02*
G75*
G02*
X-1550000Y400000I-50000J0D01*
G01*
X-1550000Y400000D02*
G75*
G02*
X-1450000Y400000I50000J0D01*
G01*
%TO.C,GS1*%
X-1550000Y700000D02*
X-1450000Y700000D01*
X-1500000Y750000D02*
X-1500000Y650000D01*
X-1450000Y700000D02*
G75*
G02*
X-1550000Y700000I-50000J0D01*
G01*
X-1550000Y700000D02*
G75*
G02*
X-1450000Y700000I50000J0D01*
G01*
%TO.C,C4*%
X-385000Y1262500D02*
X-465000Y1262500D01*
X-465000Y1102500D01*
X-385000Y1102500D01*
X-385000Y1262500D01*
%TO.C,GS4*%
X-1550000Y1000000D02*
X-1450000Y1000000D01*
X-1500000Y950000D02*
X-1500000Y1050000D01*
X-1450000Y1000000D02*
G75*
G02*
X-1550000Y1000000I-50000J0D01*
G01*
X-1550000Y1000000D02*
G75*
G02*
X-1450000Y1000000I50000J0D01*
G01*
%TO.C,C5*%
X619853Y1160784D02*
X506716Y1047647D01*
X450147Y1104216D01*
X563284Y1217353D01*
X619853Y1160784D01*
%TO.C,R6*%
X805000Y183750D02*
X645000Y183750D01*
X645000Y266250D01*
X805000Y266250D01*
X805000Y183750D01*
%TO.C,C1*%
X-60000Y-532500D02*
X-140000Y-532500D01*
X-140000Y-692500D01*
X-60000Y-692500D01*
X-60000Y-532500D01*
%TO.C,C8*%
X385000Y-1257500D02*
X465000Y-1257500D01*
X465000Y-1097500D01*
X385000Y-1097500D01*
X385000Y-1257500D01*
%TO.C,D1*%
X-445000Y690000D02*
X-305000Y690000D01*
X-445000Y510000D02*
X-445000Y690000D01*
X-410000Y580000D02*
X-375000Y630000D01*
X-375000Y630000D02*
X-375000Y650000D01*
X-375000Y630000D02*
X-340000Y580000D01*
X-375000Y580000D02*
X-375000Y555000D01*
X-340000Y630000D02*
X-410000Y630000D01*
X-340000Y580000D02*
X-410000Y580000D01*
X-305000Y690000D02*
X-305000Y510000D01*
X-305000Y510000D02*
X-445000Y510000D01*
%TO.C,C3*%
X-455000Y240000D02*
X-295000Y240000D01*
X-295000Y160000D01*
X-455000Y160000D01*
X-455000Y240000D01*
%TO.C,C6*%
X1265000Y377500D02*
X1105000Y377500D01*
X1105000Y457500D01*
X1265000Y457500D01*
X1265000Y377500D01*
%TO.C,D5*%
X942500Y250000D02*
X942500Y-250000D01*
X942500Y-250000D02*
X1442500Y-250000D01*
X1042500Y-250000D02*
X942500Y-150000D01*
X1442500Y250000D02*
X942500Y250000D01*
X1442500Y-250000D02*
X1442500Y250000D01*
X1392500Y0D02*
G75*
G02*
X992500Y0I-200000J0D01*
G01*
X992500Y0D02*
G75*
G02*
X1392500Y0I200000J0D01*
G01*
%TO.C,SW1*%
X80000Y-462500D02*
X470000Y-462500D01*
X80000Y-762500D02*
X80000Y-462500D01*
X80000Y-762500D02*
X470000Y-762500D01*
X470000Y-462500D02*
X470000Y-762500D01*
X365000Y-612500D02*
G75*
G02*
X185000Y-612500I-90000J0D01*
G01*
X185000Y-612500D02*
G75*
G02*
X365000Y-612500I90000J0D01*
G01*
%TO.C,D8*%
X-1196778Y-843225D02*
X-843225Y-1196778D01*
X-913936Y-560382D02*
X-772514Y-560382D01*
X-843225Y-489671D02*
X-1196778Y-843225D01*
X-843225Y-1196778D02*
X-489671Y-843225D01*
X-489671Y-843225D02*
X-843225Y-489671D01*
X-643225Y-843225D02*
G75*
G02*
X-1043225Y-843225I-200000J0D01*
G01*
X-1043225Y-843225D02*
G75*
G02*
X-643225Y-843225I200000J0D01*
G01*
%TO.C,R2*%
X-241250Y520000D02*
X-158750Y520000D01*
X-158750Y680000D01*
X-241250Y680000D01*
X-241250Y520000D01*
%TO.C,D9*%
X-1442500Y250000D02*
X-1442500Y-250000D01*
X-1442500Y-250000D02*
X-942500Y-250000D01*
X-1042500Y250000D02*
X-942500Y150000D01*
X-942500Y250000D02*
X-1442500Y250000D01*
X-942500Y-250000D02*
X-942500Y250000D01*
X-992500Y0D02*
G75*
G02*
X-1392500Y0I-200000J0D01*
G01*
X-1392500Y0D02*
G75*
G02*
X-992500Y0I200000J0D01*
G01*
%TO.C,Q1*%
X870000Y-17500D02*
X870000Y-115000D01*
X580000Y-115000D01*
X580000Y15000D01*
X837500Y15000D01*
X870000Y-17500D01*
%TO.C,C11*%
X-1040147Y504216D02*
X-1096716Y447647D01*
X-1209853Y560784D01*
X-1153284Y617353D01*
X-1040147Y504216D01*
%TO.C,D4*%
X489671Y843225D02*
X843225Y489671D01*
X843225Y1196778D02*
X489671Y843225D01*
X843225Y489671D02*
X1196778Y843225D01*
X913935Y560382D02*
X772514Y560382D01*
X1196778Y843225D02*
X843225Y1196778D01*
X1043225Y843225D02*
G75*
G02*
X643225Y843225I-200000J0D01*
G01*
X643225Y843225D02*
G75*
G02*
X1043225Y843225I200000J0D01*
G01*
%TO.C,GS5*%
X-1550000Y1150000D02*
X-1450000Y1150000D01*
X-1500000Y1100000D02*
X-1500000Y1200000D01*
X-1450000Y1150000D02*
G75*
G02*
X-1550000Y1150000I-50000J0D01*
G01*
X-1550000Y1150000D02*
G75*
G02*
X-1450000Y1150000I50000J0D01*
G01*
%TO.C,D2*%
X-455000Y-560000D02*
X-455000Y-640000D01*
X-455000Y-640000D02*
X-325000Y-640000D01*
X-325000Y-640000D02*
X-295000Y-610000D01*
X-295000Y-560000D02*
X-455000Y-560000D01*
X-295000Y-610000D02*
X-295000Y-560000D01*
%TO.C,C7*%
X1219853Y-565784D02*
X1163284Y-622353D01*
X1050147Y-509216D01*
X1106716Y-452647D01*
X1219853Y-565784D01*
%TO.C,R1*%
X-295000Y308750D02*
X-455000Y308750D01*
X-455000Y391250D01*
X-295000Y391250D01*
X-295000Y308750D01*
%TO.C,D3*%
X-250000Y1442500D02*
X-250000Y942500D01*
X-250000Y942500D02*
X250000Y942500D01*
X250000Y1442500D02*
X-250000Y1442500D01*
X250000Y1042500D02*
X150000Y942500D01*
X250000Y942500D02*
X250000Y1442500D01*
X200000Y1192500D02*
G75*
G02*
X-200000Y1192500I-200000J0D01*
G01*
X-200000Y1192500D02*
G75*
G02*
X200000Y1192500I200000J0D01*
G01*
%TO.C,D6*%
X489671Y-843225D02*
X843225Y-1196778D01*
X560382Y-913935D02*
X560382Y-772514D01*
X843225Y-489671D02*
X489671Y-843225D01*
X843225Y-1196778D02*
X1196778Y-843225D01*
X1196778Y-843225D02*
X843225Y-489671D01*
X1043225Y-843225D02*
G75*
G02*
X643225Y-843225I-200000J0D01*
G01*
X643225Y-843225D02*
G75*
G02*
X1043225Y-843225I200000J0D01*
G01*
%TO.C,R4*%
X-295000Y-491250D02*
X-455000Y-491250D01*
X-455000Y-408750D01*
X-295000Y-408750D01*
X-295000Y-491250D01*
D11*
%TO.C,J1*%
X71400Y746450D02*
X401600Y746450D01*
X71400Y390850D02*
X71400Y746450D01*
X401600Y746450D02*
X528600Y619450D01*
X528600Y619450D02*
X528600Y390850D01*
X528600Y390850D02*
X71400Y390850D01*
D10*
%TO.C,U1*%
X512500Y-270000D02*
X-37500Y-270000D01*
X-137500Y-170000D01*
X-137500Y170000D01*
X512500Y170000D01*
X512500Y-270000D01*
%TO.C,R5*%
X645000Y-283750D02*
X805000Y-283750D01*
X805000Y-366250D01*
X645000Y-366250D01*
X645000Y-283750D01*
%TD*%
M02*
