%TF.GenerationSoftware,KiCad,Pcbnew,9.0.7*%
%TF.CreationDate,2026-03-30T19:28:04+01:00*%
%TF.ProjectId,jvm_rgb_ring,6a766d5f-7267-4625-9f72-696e672e6b69,0.7*%
%TF.SameCoordinates,PX4eeaa30PY487ab00*%
%TF.FileFunction,Paste,Top*%
%TF.FilePolarity,Positive*%
%FSLAX45Y45*%
G04 Gerber Fmt 4.5, Leading zero omitted, Abs format (unit mm)*
G04 Created by KiCad (PCBNEW 9.0.7) date 2026-03-30 19:28:04*
%MOMM*%
%LPD*%
G01*
G04 APERTURE LIST*
G04 Aperture macros list*
%AMRoundRect*
0 Rectangle with rounded corners*
0 $1 Rounding radius*
0 $2 $3 $4 $5 $6 $7 $8 $9 X,Y pos of 4 corners*
0 Add a 4 corners polygon primitive as box body*
4,1,4,$2,$3,$4,$5,$6,$7,$8,$9,$2,$3,0*
0 Add four circle primitives for the rounded corners*
1,1,$1+$1,$2,$3*
1,1,$1+$1,$4,$5*
1,1,$1+$1,$6,$7*
1,1,$1+$1,$8,$9*
0 Add four rect primitives between the rounded corners*
20,1,$1+$1,$2,$3,$4,$5,0*
20,1,$1+$1,$4,$5,$6,$7,0*
20,1,$1+$1,$6,$7,$8,$9,0*
20,1,$1+$1,$8,$9,$2,$3,0*%
G04 Aperture macros list end*
%ADD10RoundRect,0.225000X0.017678X-0.335876X0.335876X-0.017678X-0.017678X0.335876X-0.335876X0.017678X0*%
%ADD11RoundRect,0.225000X-0.225000X-0.250000X0.225000X-0.250000X0.225000X0.250000X-0.225000X0.250000X0*%
%ADD12RoundRect,0.090000X0.660000X0.360000X-0.660000X0.360000X-0.660000X-0.360000X0.660000X-0.360000X0*%
%ADD13RoundRect,0.237500X0.237500X-0.250000X0.237500X0.250000X-0.237500X0.250000X-0.237500X-0.250000X0*%
%ADD14RoundRect,0.090000X-0.212132X-0.721249X0.721249X0.212132X0.212132X0.721249X-0.721249X-0.212132X0*%
%ADD15RoundRect,0.150000X0.512500X0.150000X-0.512500X0.150000X-0.512500X-0.150000X0.512500X-0.150000X0*%
%ADD16RoundRect,0.225000X-0.250000X0.225000X-0.250000X-0.225000X0.250000X-0.225000X0.250000X0.225000X0*%
%ADD17RoundRect,0.225000X-0.017678X0.335876X-0.335876X0.017678X0.017678X-0.335876X0.335876X-0.017678X0*%
%ADD18RoundRect,0.237500X0.250000X0.237500X-0.250000X0.237500X-0.250000X-0.237500X0.250000X-0.237500X0*%
%ADD19RoundRect,0.225000X0.250000X-0.225000X0.250000X0.225000X-0.250000X0.225000X-0.250000X-0.225000X0*%
%ADD20RoundRect,0.250000X-0.250000X0.250000X-0.250000X-0.250000X0.250000X-0.250000X0.250000X0.250000X0*%
%ADD21RoundRect,0.225000X0.225000X0.250000X-0.225000X0.250000X-0.225000X-0.250000X0.225000X-0.250000X0*%
%ADD22RoundRect,0.090000X-0.360000X0.660000X-0.360000X-0.660000X0.360000X-0.660000X0.360000X0.660000X0*%
%ADD23RoundRect,0.250000X-0.275000X-0.750000X0.275000X-0.750000X0.275000X0.750000X-0.275000X0.750000X0*%
%ADD24RoundRect,0.090000X0.721249X-0.212132X-0.212132X0.721249X-0.721249X0.212132X0.212132X-0.721249X0*%
%ADD25RoundRect,0.090000X0.360000X-0.660000X0.360000X0.660000X-0.360000X0.660000X-0.360000X-0.660000X0*%
%ADD26RoundRect,0.150000X-0.150000X0.587500X-0.150000X-0.587500X0.150000X-0.587500X0.150000X0.587500X0*%
%ADD27RoundRect,0.225000X-0.335876X-0.017678X-0.017678X-0.335876X0.335876X0.017678X0.017678X0.335876X0*%
%ADD28RoundRect,0.090000X-0.721249X0.212132X0.212132X-0.721249X0.721249X-0.212132X-0.212132X0.721249X0*%
%ADD29RoundRect,0.237500X0.287500X0.237500X-0.287500X0.237500X-0.287500X-0.237500X0.287500X-0.237500X0*%
%ADD30RoundRect,0.225000X0.335876X0.017678X0.017678X0.335876X-0.335876X-0.017678X-0.017678X-0.335876X0*%
%ADD31RoundRect,0.090000X-0.660000X-0.360000X0.660000X-0.360000X0.660000X0.360000X-0.660000X0.360000X0*%
%ADD32RoundRect,0.090000X0.212132X0.721249X-0.721249X-0.212132X-0.212132X-0.721249X0.721249X0.212132X0*%
%ADD33RoundRect,0.100000X0.100000X-0.637500X0.100000X0.637500X-0.100000X0.637500X-0.100000X-0.637500X0*%
%ADD34RoundRect,0.237500X-0.250000X-0.237500X0.250000X-0.237500X0.250000X0.237500X-0.250000X0.237500X0*%
G04 APERTURE END LIST*
D10*
%TO.C,C9*%
X-589801Y-1182301D03*
X-480199Y-1072699D03*
%TD*%
D11*
%TO.C,C2*%
X-452500Y-300000D03*
X-297500Y-300000D03*
%TD*%
D12*
%TO.C,D7*%
X245000Y-1357500D03*
X245000Y-1027500D03*
X-245000Y-1027500D03*
X-245000Y-1357500D03*
%TD*%
D13*
%TO.C,R3*%
X-50000Y508750D03*
X-50000Y691250D03*
%TD*%
D14*
%TO.C,D10*%
X-1133139Y786656D03*
X-899793Y553311D03*
X-553311Y899793D03*
X-786656Y1133139D03*
%TD*%
D15*
%TO.C,U2*%
X-261250Y-145000D03*
X-261250Y45000D03*
X-488750Y-50000D03*
%TD*%
D11*
%TO.C,C10*%
X-1258727Y-417500D03*
X-1103727Y-417500D03*
%TD*%
D16*
%TO.C,C4*%
X-425000Y1260000D03*
X-425000Y1105000D03*
%TD*%
D17*
%TO.C,C5*%
X589801Y1187301D03*
X480199Y1077699D03*
%TD*%
D18*
%TO.C,R6*%
X816250Y225000D03*
X633750Y225000D03*
%TD*%
D16*
%TO.C,C1*%
X-100000Y-535000D03*
X-100000Y-690000D03*
%TD*%
D19*
%TO.C,C8*%
X425000Y-1255000D03*
X425000Y-1100000D03*
%TD*%
D20*
%TO.C,D1*%
X-375000Y725000D03*
X-375000Y475000D03*
%TD*%
D11*
%TO.C,C3*%
X-452500Y200000D03*
X-297500Y200000D03*
%TD*%
D21*
%TO.C,C6*%
X1262500Y417500D03*
X1107500Y417500D03*
%TD*%
D22*
%TO.C,D5*%
X1357500Y245000D03*
X1027500Y245000D03*
X1027500Y-245000D03*
X1357500Y-245000D03*
%TD*%
D23*
%TO.C,SW1*%
X52500Y-612500D03*
X497500Y-612500D03*
%TD*%
D24*
%TO.C,D8*%
X-786656Y-1133139D03*
X-553311Y-899793D03*
X-899793Y-553311D03*
X-1133139Y-786656D03*
%TD*%
D13*
%TO.C,R2*%
X-200000Y508750D03*
X-200000Y691250D03*
%TD*%
D25*
%TO.C,D9*%
X-1357500Y-245000D03*
X-1027500Y-245000D03*
X-1027500Y245000D03*
X-1357500Y245000D03*
%TD*%
D26*
%TO.C,Q1*%
X820000Y43750D03*
X630000Y43750D03*
X725000Y-143750D03*
%TD*%
D27*
%TO.C,C11*%
X-1179801Y587301D03*
X-1070199Y477699D03*
%TD*%
D28*
%TO.C,D4*%
X786656Y1133139D03*
X553311Y899793D03*
X899793Y553311D03*
X1133139Y786656D03*
%TD*%
D29*
%TO.C,D2*%
X-287500Y-600000D03*
X-462500Y-600000D03*
%TD*%
D30*
%TO.C,C7*%
X1189801Y-592301D03*
X1080199Y-482699D03*
%TD*%
D18*
%TO.C,R1*%
X-283750Y350000D03*
X-466250Y350000D03*
%TD*%
D31*
%TO.C,D3*%
X-245000Y1357500D03*
X-245000Y1027500D03*
X245000Y1027500D03*
X245000Y1357500D03*
%TD*%
D32*
%TO.C,D6*%
X1133139Y-786656D03*
X899793Y-553311D03*
X553311Y-899793D03*
X786656Y-1133139D03*
%TD*%
D18*
%TO.C,R4*%
X-283750Y-450000D03*
X-466250Y-450000D03*
%TD*%
D33*
%TO.C,U1*%
X-105000Y-336250D03*
X-40000Y-336250D03*
X25000Y-336250D03*
X90000Y-336250D03*
X155000Y-336250D03*
X220000Y-336250D03*
X285000Y-336250D03*
X350000Y-336250D03*
X415000Y-336250D03*
X480000Y-336250D03*
X480000Y236250D03*
X415000Y236250D03*
X350000Y236250D03*
X285000Y236250D03*
X220000Y236250D03*
X155000Y236250D03*
X90000Y236250D03*
X25000Y236250D03*
X-40000Y236250D03*
X-105000Y236250D03*
%TD*%
D34*
%TO.C,R5*%
X633750Y-325000D03*
X816250Y-325000D03*
%TD*%
M02*
