%TF.GenerationSoftware,KiCad,Pcbnew,9.0.7*%
%TF.CreationDate,2026-03-30T18:33:12+01:00*%
%TF.ProjectId,jvm_rgb_ring,6a766d5f-7267-4625-9f72-696e672e6b69,0.7*%
%TF.SameCoordinates,PX4eeaa30PY487ab00*%
%TF.FileFunction,Copper,L2,Bot*%
%TF.FilePolarity,Positive*%
%FSLAX45Y45*%
G04 Gerber Fmt 4.5, Leading zero omitted, Abs format (unit mm)*
G04 Created by KiCad (PCBNEW 9.0.7) date 2026-03-30 18:33:12*
%MOMM*%
%LPD*%
G01*
G04 APERTURE LIST*
G04 Aperture macros list*
%AMRoundRect*
0 Rectangle with rounded corners*
0 $1 Rounding radius*
0 $2 $3 $4 $5 $6 $7 $8 $9 X,Y pos of 4 corners*
0 Add a 4 corners polygon primitive as box body*
4,1,4,$2,$3,$4,$5,$6,$7,$8,$9,$2,$3,0*
0 Add four circle primitives for the rounded corners*
1,1,$1+$1,$2,$3*
1,1,$1+$1,$4,$5*
1,1,$1+$1,$6,$7*
1,1,$1+$1,$8,$9*
0 Add four rect primitives between the rounded corners*
20,1,$1+$1,$2,$3,$4,$5,0*
20,1,$1+$1,$4,$5,$6,$7,0*
20,1,$1+$1,$6,$7,$8,$9,0*
20,1,$1+$1,$8,$9,$2,$3,0*%
G04 Aperture macros list end*
%TA.AperFunction,ComponentPad*%
%ADD10RoundRect,0.172720X-0.259080X-0.259080X0.259080X-0.259080X0.259080X0.259080X-0.259080X0.259080X0*%
%TD*%
%TA.AperFunction,ComponentPad*%
%ADD11C,0.863600*%
%TD*%
%TA.AperFunction,ViaPad*%
%ADD12C,0.600000*%
%TD*%
%TA.AperFunction,Conductor*%
%ADD13C,0.200000*%
%TD*%
G04 APERTURE END LIST*
D10*
%TO.P,J1,1,VCC*%
%TO.N,+3V3*%
X427000Y647390D03*
D11*
%TO.P,J1,2,SWDIO*%
%TO.N,/SWDIO*%
X427000Y489910D03*
%TO.P,J1,3,GND*%
%TO.N,GND*%
X300000Y647390D03*
%TO.P,J1,4,SWCLK*%
%TO.N,/SWCLK*%
X300000Y489910D03*
%TO.P,J1,5,~{RESET}*%
%TO.N,/nRESET*%
X173000Y647390D03*
%TD*%
D12*
%TO.N,GND*%
X-1112500Y250000D03*
X-200000Y-300000D03*
X-200000Y200000D03*
X-1350000Y400000D03*
X-245000Y-775000D03*
X175000Y-625000D03*
X100000Y575000D03*
%TO.N,+3V3*%
X95000Y-464014D03*
%TO.N,Net-(D1-K)*%
X-1362500Y850000D03*
X-375000Y837500D03*
%TO.N,/nRESET*%
X153100Y-212500D03*
X-375000Y575000D03*
%TO.N,Net-(D3-DIN)*%
X25000Y1337500D03*
X25000Y1100000D03*
%TO.N,JD_PWR*%
X-1179801Y62500D03*
X-1025000Y62500D03*
X650000Y400000D03*
X1189801Y77301D03*
%TO.N,Net-(GS3-JD_DATA)*%
X-1350000Y550000D03*
X-887500Y350000D03*
%TO.N,Net-(GS4-SWCLK)*%
X-200000Y800000D03*
X-1362500Y1000000D03*
%TO.N,Net-(GS5-SWDIO~^)*%
X-1362500Y1150000D03*
X-50000Y800000D03*
%TO.N,Net-(D3-DOUT)*%
X1075000Y712500D03*
X-112500Y1025000D03*
%TO.N,Net-(D4-DOUT)*%
X1250000Y-250000D03*
X650000Y812500D03*
%TO.N,Net-(D5-DOUT)*%
X1025000Y112500D03*
X725000Y-1062500D03*
%TO.N,Net-(D6-DOUT)*%
X-237500Y-1262500D03*
X812500Y-650000D03*
%TO.N,Net-(D7-DOUT)*%
X112500Y-1025000D03*
X-1062500Y-712500D03*
%TO.N,Net-(D8-DOUT)*%
X-1250000Y250000D03*
X-650000Y-812500D03*
%TO.N,Net-(D10-DIN)*%
X-712500Y1075000D03*
X-1025000Y-125000D03*
%TD*%
D13*
%TO.N,GND*%
X-200000Y275000D02*
X-200000Y200000D01*
X-1350000Y400000D02*
X-1262500Y400000D01*
X-200000Y-625000D02*
X-245000Y-670000D01*
X-200000Y200000D02*
X-200000Y-175000D01*
X-200000Y-175000D02*
X-200000Y-300000D01*
X-200000Y-300000D02*
X-200000Y-625000D01*
X-1262500Y400000D02*
X-1112500Y250000D01*
X100000Y575000D02*
X-200000Y275000D01*
X-245000Y-670000D02*
X-245000Y-775000D01*
X-200000Y-625000D02*
X175000Y-625000D01*
%TO.N,+3V3*%
X342800Y563190D02*
X269646Y563190D01*
X427000Y647390D02*
X342800Y563190D01*
X213100Y-345914D02*
X95000Y-464014D01*
X213100Y506644D02*
X213100Y-345914D01*
X269646Y563190D02*
X213100Y506644D01*
%TO.N,Net-(D1-K)*%
X-375000Y837500D02*
X-672600Y1135100D01*
X-672600Y1135100D02*
X-1077400Y1135100D01*
X-1077400Y1135100D02*
X-1362500Y850000D01*
%TO.N,/nRESET*%
X173000Y647390D02*
X173000Y-192600D01*
X-302610Y647390D02*
X-375000Y575000D01*
X173000Y-192600D02*
X153100Y-212500D01*
X173000Y647390D02*
X-302610Y647390D01*
%TO.N,Net-(D3-DIN)*%
X25000Y1337500D02*
X25000Y1100000D01*
%TO.N,JD_PWR*%
X867102Y400000D02*
X1189801Y77301D01*
X-1025000Y62500D02*
X-1179801Y62500D01*
X650000Y400000D02*
X867102Y400000D01*
%TO.N,Net-(GS3-JD_DATA)*%
X-1350000Y550000D02*
X-1325000Y550000D01*
X-1125000Y350000D02*
X-887500Y350000D01*
X-1325000Y550000D02*
X-1125000Y350000D01*
%TO.N,Net-(GS4-SWCLK)*%
X-200000Y800000D02*
X-575100Y1175100D01*
X-575100Y1175100D02*
X-1187400Y1175100D01*
X-1187400Y1175100D02*
X-1362500Y1000000D01*
%TO.N,Net-(GS5-SWDIO~^)*%
X-50000Y800000D02*
X-465100Y1215100D01*
X-1297400Y1215100D02*
X-1362500Y1150000D01*
X-465100Y1215100D02*
X-1297400Y1215100D01*
%TO.N,Net-(D3-DOUT)*%
X762500Y1025000D02*
X1075000Y712500D01*
X-112500Y1025000D02*
X762500Y1025000D01*
%TO.N,Net-(D4-DOUT)*%
X650000Y812500D02*
X1250000Y212500D01*
X1250000Y212500D02*
X1250000Y-250000D01*
%TO.N,Net-(D5-DOUT)*%
X750000Y-1062500D02*
X725000Y-1062500D01*
X1025000Y-787500D02*
X750000Y-1062500D01*
X1025000Y112500D02*
X1025000Y-787500D01*
%TO.N,Net-(D6-DOUT)*%
X187500Y-1275000D02*
X-225000Y-1275000D01*
X-225000Y-1275000D02*
X-237500Y-1262500D01*
X812500Y-650000D02*
X187500Y-1275000D01*
%TO.N,Net-(D7-DOUT)*%
X112500Y-1025000D02*
X-750000Y-1025000D01*
X-750000Y-1025000D02*
X-1062500Y-712500D01*
%TO.N,Net-(D8-DOUT)*%
X-650000Y-812500D02*
X-1250000Y-212500D01*
X-1250000Y-212500D02*
X-1250000Y250000D01*
%TO.N,Net-(D10-DIN)*%
X-712500Y187500D02*
X-712500Y1075000D01*
X-1025000Y-125000D02*
X-712500Y187500D01*
%TD*%
M02*
