M48
; DRILL file {KiCad 9.0.7} date 2026-03-30T18:33:12+0100
; FORMAT={-:-/ absolute / metric / decimal}
; #@! TF.CreationDate,2026-03-30T18:33:12+01:00
; #@! TF.GenerationSoftware,Kicad,Pcbnew,9.0.7
; #@! TF.FileFunction,Plated,1,2,PTH
FMAT,2
METRIC
; #@! TA.AperFunction,Plated,PTH,ViaDrill
T1C0.300
; #@! TA.AperFunction,Plated,PTH,ComponentDrill
T2C0.559
%
G90
G05
T1
X-13.625Y11.5
X-13.625Y10.0
X-13.625Y8.5
X-13.5Y5.5
X-13.5Y4.0
X-12.5Y2.5
X-11.798Y0.625
X-11.125Y2.5
X-10.625Y-7.125
X-10.25Y0.625
X-10.25Y-1.25
X-8.875Y3.5
X-7.125Y10.75
X-6.5Y-8.125
X-3.75Y8.375
X-3.75Y5.75
X-2.45Y-7.75
X-2.375Y-12.625
X-2.0Y8.0
X-2.0Y2.0
X-2.0Y-3.0
X-1.125Y10.25
X-0.5Y8.0
X0.25Y13.375
X0.25Y11.0
X0.95Y-4.64
X1.0Y5.75
X1.125Y-10.25
X1.531Y-2.125
X1.75Y-6.25
X6.5Y8.125
X6.5Y4.0
X7.25Y-10.625
X8.125Y-6.5
X10.25Y1.125
X10.75Y7.125
X11.898Y0.773
X12.5Y-2.5
T2
X1.73Y6.474
X3.0Y6.474
X3.0Y4.899
X4.27Y6.474
X4.27Y4.899
M30
