%TF.GenerationSoftware,KiCad,Pcbnew,9.0.5*%
%TF.CreationDate,2025-10-03T12:10:43+01:00*%
%TF.ProjectId,mm_keycap_button,6d6d5f6b-6579-4636-9170-5f627574746f,0.4*%
%TF.SameCoordinates,PX8d24d00PY36d6160*%
%TF.FileFunction,Legend,Top*%
%TF.FilePolarity,Positive*%
%FSLAX45Y45*%
G04 Gerber Fmt 4.5, Leading zero omitted, Abs format (unit mm)*
G04 Created by KiCad (PCBNEW 9.0.5) date 2025-10-03 12:10:43*
%MOMM*%
%LPD*%
G01*
G04 APERTURE LIST*
%ADD10C,0.200000*%
%ADD11C,0.010000*%
G04 APERTURE END LIST*
D10*
X-1250000Y1225000D02*
X-1250000Y1200000D01*
X-1315000Y427000D02*
X-1315000Y497000D01*
X-1900000Y247000D02*
X-1900000Y-247000D01*
X1409800Y330000D02*
G75*
G02*
X1310000Y430000I-100J99700D01*
G01*
X-1500000Y-1250000D02*
G75*
G02*
X-1750000Y-1000000I-80J249920D01*
G01*
X-1275000Y1250000D02*
G75*
G02*
X-1250000Y1225000I80J-24920D01*
G01*
X1750000Y700000D02*
X1750000Y1000000D01*
X1500000Y1250000D02*
X-1025000Y1250000D01*
X1650000Y-600000D02*
X1410000Y-600000D01*
X1820000Y330000D02*
G75*
G02*
X1900000Y250000I110J-79890D01*
G01*
X-1414800Y-597000D02*
X-1650000Y-597000D01*
X-1820000Y-327000D02*
G75*
G02*
X-1900000Y-247000I-110J79890D01*
G01*
X-1750000Y-697000D02*
G75*
G02*
X-1650000Y-597000I100040J-40D01*
G01*
X-1650000Y597000D02*
X-1414800Y597000D01*
X1650000Y-600000D02*
G75*
G02*
X1750000Y-700000I-40J-100040D01*
G01*
X-1275000Y1250000D02*
X-1500000Y1250000D01*
X-1750000Y1000000D02*
G75*
G02*
X-1500000Y1250000I249920J80D01*
G01*
X-1650000Y597000D02*
G75*
G02*
X-1750000Y697000I40J100040D01*
G01*
X-1050000Y1200000D02*
X-1050000Y1225000D01*
X-1900000Y247000D02*
G75*
G02*
X-1820000Y327000I79890J110D01*
G01*
X1900000Y-250000D02*
X1900000Y250000D01*
X-1414800Y597000D02*
G75*
G02*
X-1315000Y497000I100J-99700D01*
G01*
X-1315000Y427000D02*
G75*
G02*
X-1414800Y327000I-100040J40D01*
G01*
X1310000Y500000D02*
G75*
G02*
X1410000Y600000I100040J-40D01*
G01*
X1820000Y330000D02*
X1409800Y330000D01*
X-1050000Y1225000D02*
G75*
G02*
X-1025000Y1250000I24920J80D01*
G01*
X-1750000Y-697000D02*
X-1750000Y-1000000D01*
X1410000Y-330000D02*
X1820000Y-330000D01*
X1410000Y-600000D02*
G75*
G02*
X1310000Y-500000I40J100040D01*
G01*
X1750000Y700000D02*
G75*
G02*
X1650000Y600000I-100040J40D01*
G01*
X-1820000Y-327000D02*
X-1415000Y-327000D01*
X-1050000Y1200000D02*
G75*
G02*
X-1250000Y1200000I-100000J0D01*
G01*
X1500000Y1250000D02*
G75*
G02*
X1750000Y1000000I80J-249920D01*
G01*
X-1314800Y-497000D02*
G75*
G02*
X-1414800Y-597000I-100040J40D01*
G01*
X-1750000Y1000000D02*
X-1750000Y697000D01*
X-1415000Y-327000D02*
G75*
G02*
X-1315000Y-427000I-40J-100040D01*
G01*
X1750000Y-1000000D02*
X1750000Y-700000D01*
X1410000Y600000D02*
X1650000Y600000D01*
X1310000Y-430000D02*
X1310000Y-500000D01*
X-1500000Y-1250000D02*
X1500000Y-1250000D01*
X-1414800Y327000D02*
X-1820000Y327000D01*
X1750000Y-1000000D02*
G75*
G02*
X1500000Y-1250000I-249920J-80D01*
G01*
X1310000Y500000D02*
X1310000Y430000D01*
X1310000Y-430000D02*
G75*
G02*
X1410000Y-330000I99870J130D01*
G01*
X-1314800Y-497000D02*
X-1315000Y-427000D01*
X1900000Y-250000D02*
G75*
G02*
X1820000Y-330000I-79890J-110D01*
G01*
D11*
%TO.C,MH3*%
X-1192931Y-836394D02*
X-1191257Y-837027D01*
X-1189695Y-838171D01*
X-1188172Y-839891D01*
X-1186619Y-842253D01*
X-1184964Y-845323D01*
X-1184948Y-845354D01*
X-1179208Y-857513D01*
X-1173866Y-870278D01*
X-1168954Y-883549D01*
X-1164506Y-897227D01*
X-1160557Y-911211D01*
X-1157140Y-925402D01*
X-1155899Y-931266D01*
X-1154818Y-937214D01*
X-1154127Y-942527D01*
X-1153821Y-947262D01*
X-1153897Y-951472D01*
X-1154284Y-954831D01*
X-1155733Y-961174D01*
X-1157871Y-967152D01*
X-1160673Y-972730D01*
X-1164116Y-977873D01*
X-1168175Y-982545D01*
X-1172826Y-986712D01*
X-1178047Y-990338D01*
X-1178878Y-990834D01*
X-1184149Y-993463D01*
X-1189773Y-995434D01*
X-1195641Y-996736D01*
X-1201647Y-997358D01*
X-1207684Y-997290D01*
X-1213646Y-996520D01*
X-1219426Y-995039D01*
X-1219807Y-994913D01*
X-1225413Y-992621D01*
X-1230708Y-989641D01*
X-1235624Y-986040D01*
X-1240091Y-981884D01*
X-1244042Y-977239D01*
X-1247407Y-972174D01*
X-1250118Y-966754D01*
X-1250986Y-964554D01*
X-1251441Y-963125D01*
X-1251994Y-961102D01*
X-1252599Y-958674D01*
X-1253208Y-956026D01*
X-1253776Y-953347D01*
X-1253785Y-953303D01*
X-1255948Y-943330D01*
X-1258307Y-933953D01*
X-1260919Y-924988D01*
X-1263839Y-916248D01*
X-1267123Y-907550D01*
X-1269078Y-902780D01*
X-1270446Y-899330D01*
X-1271384Y-896446D01*
X-1271897Y-894035D01*
X-1271989Y-891999D01*
X-1271668Y-890243D01*
X-1270937Y-888671D01*
X-1269942Y-887343D01*
X-1269047Y-886417D01*
X-1268076Y-885650D01*
X-1266891Y-884976D01*
X-1265351Y-884329D01*
X-1263320Y-883640D01*
X-1260658Y-882843D01*
X-1260569Y-882818D01*
X-1254890Y-881049D01*
X-1249717Y-879145D01*
X-1244763Y-876992D01*
X-1241457Y-875373D01*
X-1233943Y-871099D01*
X-1226785Y-866147D01*
X-1220056Y-860579D01*
X-1213827Y-854458D01*
X-1208173Y-847848D01*
X-1205396Y-844116D01*
X-1203203Y-841237D01*
X-1201170Y-839061D01*
X-1199224Y-837537D01*
X-1197292Y-836609D01*
X-1195302Y-836223D01*
X-1194786Y-836205D01*
X-1192931Y-836394D01*
G36*
X-1192931Y-836394D02*
G01*
X-1191257Y-837027D01*
X-1189695Y-838171D01*
X-1188172Y-839891D01*
X-1186619Y-842253D01*
X-1184964Y-845323D01*
X-1184948Y-845354D01*
X-1179208Y-857513D01*
X-1173866Y-870278D01*
X-1168954Y-883549D01*
X-1164506Y-897227D01*
X-1160557Y-911211D01*
X-1157140Y-925402D01*
X-1155899Y-931266D01*
X-1154818Y-937214D01*
X-1154127Y-942527D01*
X-1153821Y-947262D01*
X-1153897Y-951472D01*
X-1154284Y-954831D01*
X-1155733Y-961174D01*
X-1157871Y-967152D01*
X-1160673Y-972730D01*
X-1164116Y-977873D01*
X-1168175Y-982545D01*
X-1172826Y-986712D01*
X-1178047Y-990338D01*
X-1178878Y-990834D01*
X-1184149Y-993463D01*
X-1189773Y-995434D01*
X-1195641Y-996736D01*
X-1201647Y-997358D01*
X-1207684Y-997290D01*
X-1213646Y-996520D01*
X-1219426Y-995039D01*
X-1219807Y-994913D01*
X-1225413Y-992621D01*
X-1230708Y-989641D01*
X-1235624Y-986040D01*
X-1240091Y-981884D01*
X-1244042Y-977239D01*
X-1247407Y-972174D01*
X-1250118Y-966754D01*
X-1250986Y-964554D01*
X-1251441Y-963125D01*
X-1251994Y-961102D01*
X-1252599Y-958674D01*
X-1253208Y-956026D01*
X-1253776Y-953347D01*
X-1253785Y-953303D01*
X-1255948Y-943330D01*
X-1258307Y-933953D01*
X-1260919Y-924988D01*
X-1263839Y-916248D01*
X-1267123Y-907550D01*
X-1269078Y-902780D01*
X-1270446Y-899330D01*
X-1271384Y-896446D01*
X-1271897Y-894035D01*
X-1271989Y-891999D01*
X-1271668Y-890243D01*
X-1270937Y-888671D01*
X-1269942Y-887343D01*
X-1269047Y-886417D01*
X-1268076Y-885650D01*
X-1266891Y-884976D01*
X-1265351Y-884329D01*
X-1263320Y-883640D01*
X-1260658Y-882843D01*
X-1260569Y-882818D01*
X-1254890Y-881049D01*
X-1249717Y-879145D01*
X-1244763Y-876992D01*
X-1241457Y-875373D01*
X-1233943Y-871099D01*
X-1226785Y-866147D01*
X-1220056Y-860579D01*
X-1213827Y-854458D01*
X-1208173Y-847848D01*
X-1205396Y-844116D01*
X-1203203Y-841237D01*
X-1201170Y-839061D01*
X-1199224Y-837537D01*
X-1197292Y-836609D01*
X-1195302Y-836223D01*
X-1194786Y-836205D01*
X-1192931Y-836394D01*
G37*
X-1447018Y-654034D02*
X-1444850Y-654071D01*
X-1442753Y-654172D01*
X-1440629Y-654351D01*
X-1438376Y-654625D01*
X-1435895Y-655011D01*
X-1433084Y-655524D01*
X-1429843Y-656180D01*
X-1426072Y-656996D01*
X-1421671Y-657988D01*
X-1419832Y-658410D01*
X-1408491Y-661261D01*
X-1396873Y-664641D01*
X-1385164Y-668482D01*
X-1373550Y-672718D01*
X-1362217Y-677282D01*
X-1351349Y-682108D01*
X-1344232Y-685549D01*
X-1341479Y-686997D01*
X-1339376Y-688277D01*
X-1337819Y-689468D01*
X-1336704Y-690652D01*
X-1335927Y-691910D01*
X-1335840Y-692096D01*
X-1335242Y-693899D01*
X-1335247Y-695582D01*
X-1335643Y-697006D01*
X-1336728Y-698977D01*
X-1338560Y-701002D01*
X-1341098Y-703036D01*
X-1341577Y-703366D01*
X-1348900Y-708774D01*
X-1355647Y-714694D01*
X-1361793Y-721098D01*
X-1367315Y-727957D01*
X-1372187Y-735240D01*
X-1376387Y-742920D01*
X-1378938Y-748575D01*
X-1380172Y-751694D01*
X-1381294Y-754833D01*
X-1382369Y-758196D01*
X-1383463Y-761983D01*
X-1384348Y-765277D01*
X-1384880Y-767101D01*
X-1385421Y-768406D01*
X-1386105Y-769456D01*
X-1386850Y-770298D01*
X-1388407Y-771642D01*
X-1390045Y-772450D01*
X-1391876Y-772726D01*
X-1394010Y-772476D01*
X-1396555Y-771702D01*
X-1398798Y-770783D01*
X-1410850Y-765838D01*
X-1423279Y-761510D01*
X-1436143Y-757780D01*
X-1449501Y-754630D01*
X-1452569Y-754002D01*
X-1456037Y-753292D01*
X-1458875Y-752660D01*
X-1461237Y-752063D01*
X-1463276Y-751455D01*
X-1465147Y-750793D01*
X-1467003Y-750030D01*
X-1468387Y-749407D01*
X-1473685Y-746533D01*
X-1478592Y-743019D01*
X-1483050Y-738937D01*
X-1487003Y-734359D01*
X-1490393Y-729360D01*
X-1493164Y-724012D01*
X-1495257Y-718387D01*
X-1496422Y-713655D01*
X-1497234Y-707379D01*
X-1497288Y-701216D01*
X-1496615Y-695215D01*
X-1495250Y-689423D01*
X-1493223Y-683890D01*
X-1490567Y-678665D01*
X-1487315Y-673794D01*
X-1483500Y-669328D01*
X-1479154Y-665315D01*
X-1474310Y-661803D01*
X-1469000Y-658840D01*
X-1463256Y-656476D01*
X-1457111Y-654759D01*
X-1456940Y-654722D01*
X-1455172Y-654404D01*
X-1453248Y-654191D01*
X-1450978Y-654072D01*
X-1448173Y-654031D01*
X-1447018Y-654034D01*
G36*
X-1447018Y-654034D02*
G01*
X-1444850Y-654071D01*
X-1442753Y-654172D01*
X-1440629Y-654351D01*
X-1438376Y-654625D01*
X-1435895Y-655011D01*
X-1433084Y-655524D01*
X-1429843Y-656180D01*
X-1426072Y-656996D01*
X-1421671Y-657988D01*
X-1419832Y-658410D01*
X-1408491Y-661261D01*
X-1396873Y-664641D01*
X-1385164Y-668482D01*
X-1373550Y-672718D01*
X-1362217Y-677282D01*
X-1351349Y-682108D01*
X-1344232Y-685549D01*
X-1341479Y-686997D01*
X-1339376Y-688277D01*
X-1337819Y-689468D01*
X-1336704Y-690652D01*
X-1335927Y-691910D01*
X-1335840Y-692096D01*
X-1335242Y-693899D01*
X-1335247Y-695582D01*
X-1335643Y-697006D01*
X-1336728Y-698977D01*
X-1338560Y-701002D01*
X-1341098Y-703036D01*
X-1341577Y-703366D01*
X-1348900Y-708774D01*
X-1355647Y-714694D01*
X-1361793Y-721098D01*
X-1367315Y-727957D01*
X-1372187Y-735240D01*
X-1376387Y-742920D01*
X-1378938Y-748575D01*
X-1380172Y-751694D01*
X-1381294Y-754833D01*
X-1382369Y-758196D01*
X-1383463Y-761983D01*
X-1384348Y-765277D01*
X-1384880Y-767101D01*
X-1385421Y-768406D01*
X-1386105Y-769456D01*
X-1386850Y-770298D01*
X-1388407Y-771642D01*
X-1390045Y-772450D01*
X-1391876Y-772726D01*
X-1394010Y-772476D01*
X-1396555Y-771702D01*
X-1398798Y-770783D01*
X-1410850Y-765838D01*
X-1423279Y-761510D01*
X-1436143Y-757780D01*
X-1449501Y-754630D01*
X-1452569Y-754002D01*
X-1456037Y-753292D01*
X-1458875Y-752660D01*
X-1461237Y-752063D01*
X-1463276Y-751455D01*
X-1465147Y-750793D01*
X-1467003Y-750030D01*
X-1468387Y-749407D01*
X-1473685Y-746533D01*
X-1478592Y-743019D01*
X-1483050Y-738937D01*
X-1487003Y-734359D01*
X-1490393Y-729360D01*
X-1493164Y-724012D01*
X-1495257Y-718387D01*
X-1496422Y-713655D01*
X-1497234Y-707379D01*
X-1497288Y-701216D01*
X-1496615Y-695215D01*
X-1495250Y-689423D01*
X-1493223Y-683890D01*
X-1490567Y-678665D01*
X-1487315Y-673794D01*
X-1483500Y-669328D01*
X-1479154Y-665315D01*
X-1474310Y-661803D01*
X-1469000Y-658840D01*
X-1463256Y-656476D01*
X-1457111Y-654759D01*
X-1456940Y-654722D01*
X-1455172Y-654404D01*
X-1453248Y-654191D01*
X-1450978Y-654072D01*
X-1448173Y-654031D01*
X-1447018Y-654034D01*
G37*
X-1311451Y-749774D02*
X-1310449Y-750050D01*
X-1309860Y-750269D01*
X-1309261Y-750567D01*
X-1308589Y-750998D01*
X-1307780Y-751620D01*
X-1306771Y-752487D01*
X-1305499Y-753655D01*
X-1303900Y-755181D01*
X-1301913Y-757120D01*
X-1299472Y-759528D01*
X-1297496Y-761488D01*
X-1286681Y-772223D01*
X-1276065Y-761703D01*
X-1273208Y-758894D01*
X-1270632Y-756407D01*
X-1268388Y-754286D01*
X-1266523Y-752577D01*
X-1265088Y-751326D01*
X-1264131Y-750579D01*
X-1263860Y-750415D01*
X-1262045Y-749851D01*
X-1259845Y-749625D01*
X-1257574Y-749733D01*
X-1255548Y-750171D01*
X-1254695Y-750529D01*
X-1252772Y-751894D01*
X-1251094Y-753731D01*
X-1249969Y-755663D01*
X-1249562Y-757250D01*
X-1249400Y-759249D01*
X-1249480Y-761317D01*
X-1249804Y-763112D01*
X-1249989Y-763649D01*
X-1250481Y-764400D01*
X-1251545Y-765681D01*
X-1253173Y-767481D01*
X-1255356Y-769791D01*
X-1258084Y-772599D01*
X-1261347Y-775897D01*
X-1261386Y-775936D01*
X-1272169Y-786747D01*
X-1261586Y-797377D01*
X-1258492Y-800504D01*
X-1255941Y-803123D01*
X-1253900Y-805272D01*
X-1252333Y-806989D01*
X-1251208Y-808311D01*
X-1250490Y-809274D01*
X-1250197Y-809783D01*
X-1249490Y-812214D01*
X-1249381Y-814873D01*
X-1249862Y-817471D01*
X-1250402Y-818824D01*
X-1251968Y-821145D01*
X-1254030Y-822867D01*
X-1256293Y-823873D01*
X-1258062Y-824311D01*
X-1259564Y-824415D01*
X-1261164Y-824181D01*
X-1262499Y-823827D01*
X-1263073Y-823640D01*
X-1263636Y-823392D01*
X-1264251Y-823029D01*
X-1264981Y-822496D01*
X-1265887Y-821738D01*
X-1267032Y-820699D01*
X-1268478Y-819326D01*
X-1270289Y-817562D01*
X-1272525Y-815352D01*
X-1275251Y-812643D01*
X-1275667Y-812228D01*
X-1286681Y-801259D01*
X-1297694Y-812228D01*
X-1300492Y-815010D01*
X-1302792Y-817285D01*
X-1304657Y-819107D01*
X-1306150Y-820532D01*
X-1307333Y-821613D01*
X-1308268Y-822407D01*
X-1309018Y-822967D01*
X-1309645Y-823350D01*
X-1310212Y-823611D01*
X-1310781Y-823803D01*
X-1310863Y-823827D01*
X-1312741Y-824292D01*
X-1314270Y-824418D01*
X-1315817Y-824208D01*
X-1317069Y-823873D01*
X-1319535Y-822749D01*
X-1321523Y-821040D01*
X-1322966Y-818841D01*
X-1323797Y-816245D01*
X-1323978Y-814160D01*
X-1323955Y-813044D01*
X-1323860Y-812048D01*
X-1323643Y-811103D01*
X-1323256Y-810141D01*
X-1322649Y-809093D01*
X-1321771Y-807892D01*
X-1320575Y-806470D01*
X-1319009Y-804759D01*
X-1317026Y-802689D01*
X-1314574Y-800195D01*
X-1311776Y-797377D01*
X-1301193Y-786747D01*
X-1311959Y-775936D01*
X-1315199Y-772661D01*
X-1317875Y-769908D01*
X-1320003Y-767659D01*
X-1321602Y-765896D01*
X-1322687Y-764600D01*
X-1323275Y-763753D01*
X-1323356Y-763588D01*
X-1323943Y-761196D01*
X-1323921Y-758591D01*
X-1323335Y-756014D01*
X-1322230Y-753702D01*
X-1321285Y-752487D01*
X-1319266Y-750908D01*
X-1316836Y-749903D01*
X-1314172Y-749512D01*
X-1311451Y-749774D01*
G36*
X-1311451Y-749774D02*
G01*
X-1310449Y-750050D01*
X-1309860Y-750269D01*
X-1309261Y-750567D01*
X-1308589Y-750998D01*
X-1307780Y-751620D01*
X-1306771Y-752487D01*
X-1305499Y-753655D01*
X-1303900Y-755181D01*
X-1301913Y-757120D01*
X-1299472Y-759528D01*
X-1297496Y-761488D01*
X-1286681Y-772223D01*
X-1276065Y-761703D01*
X-1273208Y-758894D01*
X-1270632Y-756407D01*
X-1268388Y-754286D01*
X-1266523Y-752577D01*
X-1265088Y-751326D01*
X-1264131Y-750579D01*
X-1263860Y-750415D01*
X-1262045Y-749851D01*
X-1259845Y-749625D01*
X-1257574Y-749733D01*
X-1255548Y-750171D01*
X-1254695Y-750529D01*
X-1252772Y-751894D01*
X-1251094Y-753731D01*
X-1249969Y-755663D01*
X-1249562Y-757250D01*
X-1249400Y-759249D01*
X-1249480Y-761317D01*
X-1249804Y-763112D01*
X-1249989Y-763649D01*
X-1250481Y-764400D01*
X-1251545Y-765681D01*
X-1253173Y-767481D01*
X-1255356Y-769791D01*
X-1258084Y-772599D01*
X-1261347Y-775897D01*
X-1261386Y-775936D01*
X-1272169Y-786747D01*
X-1261586Y-797377D01*
X-1258492Y-800504D01*
X-1255941Y-803123D01*
X-1253900Y-805272D01*
X-1252333Y-806989D01*
X-1251208Y-808311D01*
X-1250490Y-809274D01*
X-1250197Y-809783D01*
X-1249490Y-812214D01*
X-1249381Y-814873D01*
X-1249862Y-817471D01*
X-1250402Y-818824D01*
X-1251968Y-821145D01*
X-1254030Y-822867D01*
X-1256293Y-823873D01*
X-1258062Y-824311D01*
X-1259564Y-824415D01*
X-1261164Y-824181D01*
X-1262499Y-823827D01*
X-1263073Y-823640D01*
X-1263636Y-823392D01*
X-1264251Y-823029D01*
X-1264981Y-822496D01*
X-1265887Y-821738D01*
X-1267032Y-820699D01*
X-1268478Y-819326D01*
X-1270289Y-817562D01*
X-1272525Y-815352D01*
X-1275251Y-812643D01*
X-1275667Y-812228D01*
X-1286681Y-801259D01*
X-1297694Y-812228D01*
X-1300492Y-815010D01*
X-1302792Y-817285D01*
X-1304657Y-819107D01*
X-1306150Y-820532D01*
X-1307333Y-821613D01*
X-1308268Y-822407D01*
X-1309018Y-822967D01*
X-1309645Y-823350D01*
X-1310212Y-823611D01*
X-1310781Y-823803D01*
X-1310863Y-823827D01*
X-1312741Y-824292D01*
X-1314270Y-824418D01*
X-1315817Y-824208D01*
X-1317069Y-823873D01*
X-1319535Y-822749D01*
X-1321523Y-821040D01*
X-1322966Y-818841D01*
X-1323797Y-816245D01*
X-1323978Y-814160D01*
X-1323955Y-813044D01*
X-1323860Y-812048D01*
X-1323643Y-811103D01*
X-1323256Y-810141D01*
X-1322649Y-809093D01*
X-1321771Y-807892D01*
X-1320575Y-806470D01*
X-1319009Y-804759D01*
X-1317026Y-802689D01*
X-1314574Y-800195D01*
X-1311776Y-797377D01*
X-1301193Y-786747D01*
X-1311959Y-775936D01*
X-1315199Y-772661D01*
X-1317875Y-769908D01*
X-1320003Y-767659D01*
X-1321602Y-765896D01*
X-1322687Y-764600D01*
X-1323275Y-763753D01*
X-1323356Y-763588D01*
X-1323943Y-761196D01*
X-1323921Y-758591D01*
X-1323335Y-756014D01*
X-1322230Y-753702D01*
X-1321285Y-752487D01*
X-1319266Y-750908D01*
X-1316836Y-749903D01*
X-1314172Y-749512D01*
X-1311451Y-749774D01*
G37*
%TO.C,MH4*%
X1451195Y-653549D02*
X1454554Y-653936D01*
X1460897Y-655385D01*
X1466875Y-657522D01*
X1472453Y-660325D01*
X1477596Y-663767D01*
X1482268Y-667826D01*
X1486435Y-672478D01*
X1490061Y-677698D01*
X1490557Y-678529D01*
X1493186Y-683801D01*
X1495157Y-689424D01*
X1496459Y-695292D01*
X1497081Y-701298D01*
X1497013Y-707336D01*
X1496243Y-713298D01*
X1494762Y-719077D01*
X1494636Y-719459D01*
X1492344Y-725065D01*
X1489364Y-730360D01*
X1485763Y-735275D01*
X1481607Y-739742D01*
X1476962Y-743693D01*
X1471897Y-747058D01*
X1466477Y-749770D01*
X1464276Y-750637D01*
X1462848Y-751092D01*
X1460825Y-751645D01*
X1458397Y-752250D01*
X1455749Y-752860D01*
X1453070Y-753428D01*
X1453026Y-753437D01*
X1443053Y-755599D01*
X1433676Y-757958D01*
X1424711Y-760570D01*
X1415971Y-763490D01*
X1407273Y-766775D01*
X1402503Y-768730D01*
X1399053Y-770098D01*
X1396169Y-771035D01*
X1393758Y-771548D01*
X1391722Y-771641D01*
X1389966Y-771319D01*
X1388394Y-770589D01*
X1387066Y-769594D01*
X1386140Y-768699D01*
X1385373Y-767728D01*
X1384699Y-766542D01*
X1384052Y-765003D01*
X1383363Y-762972D01*
X1382566Y-760309D01*
X1382541Y-760221D01*
X1380772Y-754542D01*
X1378868Y-749368D01*
X1376715Y-744414D01*
X1375096Y-741108D01*
X1370822Y-733595D01*
X1365870Y-726437D01*
X1360302Y-719707D01*
X1354181Y-713479D01*
X1347571Y-707824D01*
X1343839Y-705048D01*
X1340960Y-702855D01*
X1338784Y-700821D01*
X1337260Y-698875D01*
X1336332Y-696943D01*
X1335946Y-694954D01*
X1335928Y-694437D01*
X1336117Y-692582D01*
X1336750Y-690909D01*
X1337894Y-689346D01*
X1339614Y-687824D01*
X1341976Y-686270D01*
X1345046Y-684615D01*
X1345077Y-684599D01*
X1357236Y-678860D01*
X1370001Y-673517D01*
X1383272Y-668605D01*
X1396950Y-664158D01*
X1410934Y-660209D01*
X1425125Y-656791D01*
X1430989Y-655550D01*
X1436937Y-654469D01*
X1442250Y-653778D01*
X1446985Y-653472D01*
X1451195Y-653549D01*
G36*
X1451195Y-653549D02*
G01*
X1454554Y-653936D01*
X1460897Y-655385D01*
X1466875Y-657522D01*
X1472453Y-660325D01*
X1477596Y-663767D01*
X1482268Y-667826D01*
X1486435Y-672478D01*
X1490061Y-677698D01*
X1490557Y-678529D01*
X1493186Y-683801D01*
X1495157Y-689424D01*
X1496459Y-695292D01*
X1497081Y-701298D01*
X1497013Y-707336D01*
X1496243Y-713298D01*
X1494762Y-719077D01*
X1494636Y-719459D01*
X1492344Y-725065D01*
X1489364Y-730360D01*
X1485763Y-735275D01*
X1481607Y-739742D01*
X1476962Y-743693D01*
X1471897Y-747058D01*
X1466477Y-749770D01*
X1464276Y-750637D01*
X1462848Y-751092D01*
X1460825Y-751645D01*
X1458397Y-752250D01*
X1455749Y-752860D01*
X1453070Y-753428D01*
X1453026Y-753437D01*
X1443053Y-755599D01*
X1433676Y-757958D01*
X1424711Y-760570D01*
X1415971Y-763490D01*
X1407273Y-766775D01*
X1402503Y-768730D01*
X1399053Y-770098D01*
X1396169Y-771035D01*
X1393758Y-771548D01*
X1391722Y-771641D01*
X1389966Y-771319D01*
X1388394Y-770589D01*
X1387066Y-769594D01*
X1386140Y-768699D01*
X1385373Y-767728D01*
X1384699Y-766542D01*
X1384052Y-765003D01*
X1383363Y-762972D01*
X1382566Y-760309D01*
X1382541Y-760221D01*
X1380772Y-754542D01*
X1378868Y-749368D01*
X1376715Y-744414D01*
X1375096Y-741108D01*
X1370822Y-733595D01*
X1365870Y-726437D01*
X1360302Y-719707D01*
X1354181Y-713479D01*
X1347571Y-707824D01*
X1343839Y-705048D01*
X1340960Y-702855D01*
X1338784Y-700821D01*
X1337260Y-698875D01*
X1336332Y-696943D01*
X1335946Y-694954D01*
X1335928Y-694437D01*
X1336117Y-692582D01*
X1336750Y-690909D01*
X1337894Y-689346D01*
X1339614Y-687824D01*
X1341976Y-686270D01*
X1345046Y-684615D01*
X1345077Y-684599D01*
X1357236Y-678860D01*
X1370001Y-673517D01*
X1383272Y-668605D01*
X1396950Y-664158D01*
X1410934Y-660209D01*
X1425125Y-656791D01*
X1430989Y-655550D01*
X1436937Y-654469D01*
X1442250Y-653778D01*
X1446985Y-653472D01*
X1451195Y-653549D01*
G37*
X1195305Y-834899D02*
X1196729Y-835294D01*
X1198700Y-836380D01*
X1200725Y-838212D01*
X1202759Y-840750D01*
X1203089Y-841228D01*
X1208497Y-848552D01*
X1214417Y-855298D01*
X1220821Y-861445D01*
X1227680Y-866966D01*
X1234963Y-871839D01*
X1242643Y-876038D01*
X1248298Y-878589D01*
X1251417Y-879824D01*
X1254556Y-880946D01*
X1257919Y-882021D01*
X1261706Y-883114D01*
X1265000Y-884000D01*
X1266824Y-884531D01*
X1268129Y-885073D01*
X1269179Y-885756D01*
X1270021Y-886502D01*
X1271365Y-888058D01*
X1272173Y-889697D01*
X1272449Y-891528D01*
X1272199Y-893661D01*
X1271425Y-896206D01*
X1270506Y-898449D01*
X1265561Y-910501D01*
X1261233Y-922930D01*
X1257503Y-935794D01*
X1254353Y-949152D01*
X1253725Y-952220D01*
X1253015Y-955688D01*
X1252383Y-958527D01*
X1251786Y-960888D01*
X1251178Y-962928D01*
X1250516Y-964799D01*
X1249753Y-966655D01*
X1249130Y-968039D01*
X1246256Y-973337D01*
X1242742Y-978244D01*
X1238660Y-982702D01*
X1234082Y-986655D01*
X1229083Y-990045D01*
X1223735Y-992815D01*
X1218110Y-994909D01*
X1213378Y-996073D01*
X1207102Y-996886D01*
X1200939Y-996939D01*
X1194938Y-996267D01*
X1189146Y-994901D01*
X1183613Y-992874D01*
X1178387Y-990219D01*
X1173517Y-986967D01*
X1169051Y-983152D01*
X1165038Y-978806D01*
X1161525Y-973961D01*
X1158563Y-968651D01*
X1156199Y-962907D01*
X1154482Y-956763D01*
X1154445Y-956592D01*
X1154127Y-954823D01*
X1153914Y-952899D01*
X1153795Y-950629D01*
X1153754Y-947824D01*
X1153757Y-946670D01*
X1153794Y-944501D01*
X1153895Y-942405D01*
X1154074Y-940281D01*
X1154348Y-938028D01*
X1154734Y-935546D01*
X1155247Y-932735D01*
X1155903Y-929494D01*
X1156719Y-925724D01*
X1157711Y-921322D01*
X1158133Y-919484D01*
X1160984Y-908142D01*
X1164364Y-896525D01*
X1168205Y-884816D01*
X1172441Y-873202D01*
X1177005Y-861868D01*
X1181831Y-851000D01*
X1185272Y-843883D01*
X1186720Y-841131D01*
X1188000Y-839028D01*
X1189191Y-837470D01*
X1190375Y-836355D01*
X1191633Y-835578D01*
X1191819Y-835491D01*
X1193622Y-834894D01*
X1195305Y-834899D01*
G36*
X1195305Y-834899D02*
G01*
X1196729Y-835294D01*
X1198700Y-836380D01*
X1200725Y-838212D01*
X1202759Y-840750D01*
X1203089Y-841228D01*
X1208497Y-848552D01*
X1214417Y-855298D01*
X1220821Y-861445D01*
X1227680Y-866966D01*
X1234963Y-871839D01*
X1242643Y-876038D01*
X1248298Y-878589D01*
X1251417Y-879824D01*
X1254556Y-880946D01*
X1257919Y-882021D01*
X1261706Y-883114D01*
X1265000Y-884000D01*
X1266824Y-884531D01*
X1268129Y-885073D01*
X1269179Y-885756D01*
X1270021Y-886502D01*
X1271365Y-888058D01*
X1272173Y-889697D01*
X1272449Y-891528D01*
X1272199Y-893661D01*
X1271425Y-896206D01*
X1270506Y-898449D01*
X1265561Y-910501D01*
X1261233Y-922930D01*
X1257503Y-935794D01*
X1254353Y-949152D01*
X1253725Y-952220D01*
X1253015Y-955688D01*
X1252383Y-958527D01*
X1251786Y-960888D01*
X1251178Y-962928D01*
X1250516Y-964799D01*
X1249753Y-966655D01*
X1249130Y-968039D01*
X1246256Y-973337D01*
X1242742Y-978244D01*
X1238660Y-982702D01*
X1234082Y-986655D01*
X1229083Y-990045D01*
X1223735Y-992815D01*
X1218110Y-994909D01*
X1213378Y-996073D01*
X1207102Y-996886D01*
X1200939Y-996939D01*
X1194938Y-996267D01*
X1189146Y-994901D01*
X1183613Y-992874D01*
X1178387Y-990219D01*
X1173517Y-986967D01*
X1169051Y-983152D01*
X1165038Y-978806D01*
X1161525Y-973961D01*
X1158563Y-968651D01*
X1156199Y-962907D01*
X1154482Y-956763D01*
X1154445Y-956592D01*
X1154127Y-954823D01*
X1153914Y-952899D01*
X1153795Y-950629D01*
X1153754Y-947824D01*
X1153757Y-946670D01*
X1153794Y-944501D01*
X1153895Y-942405D01*
X1154074Y-940281D01*
X1154348Y-938028D01*
X1154734Y-935546D01*
X1155247Y-932735D01*
X1155903Y-929494D01*
X1156719Y-925724D01*
X1157711Y-921322D01*
X1158133Y-919484D01*
X1160984Y-908142D01*
X1164364Y-896525D01*
X1168205Y-884816D01*
X1172441Y-873202D01*
X1177005Y-861868D01*
X1181831Y-851000D01*
X1185272Y-843883D01*
X1186720Y-841131D01*
X1188000Y-839028D01*
X1189191Y-837470D01*
X1190375Y-836355D01*
X1191633Y-835578D01*
X1191819Y-835491D01*
X1193622Y-834894D01*
X1195305Y-834899D01*
G37*
X1316166Y-746567D02*
X1317064Y-746767D01*
X1320067Y-747991D01*
X1322565Y-749781D01*
X1324502Y-752059D01*
X1325820Y-754745D01*
X1326464Y-757762D01*
X1326491Y-759911D01*
X1326445Y-760663D01*
X1326385Y-761350D01*
X1326281Y-762008D01*
X1326101Y-762672D01*
X1325814Y-763379D01*
X1325390Y-764165D01*
X1324796Y-765064D01*
X1324001Y-766113D01*
X1322975Y-767347D01*
X1321685Y-768802D01*
X1320102Y-770514D01*
X1318193Y-772519D01*
X1315927Y-774852D01*
X1313273Y-777549D01*
X1310199Y-780645D01*
X1306675Y-784177D01*
X1302670Y-788180D01*
X1298151Y-792690D01*
X1295520Y-795315D01*
X1290864Y-799960D01*
X1286735Y-804077D01*
X1283097Y-807698D01*
X1279917Y-810856D01*
X1277160Y-813584D01*
X1274791Y-815914D01*
X1272776Y-817880D01*
X1271080Y-819515D01*
X1269669Y-820851D01*
X1268509Y-821921D01*
X1267564Y-822758D01*
X1266800Y-823394D01*
X1266183Y-823864D01*
X1265678Y-824198D01*
X1265251Y-824431D01*
X1264867Y-824595D01*
X1264649Y-824672D01*
X1261496Y-825344D01*
X1258405Y-825284D01*
X1255483Y-824531D01*
X1252836Y-823125D01*
X1250571Y-821105D01*
X1248951Y-818804D01*
X1248393Y-817723D01*
X1248046Y-816771D01*
X1247862Y-815700D01*
X1247791Y-814258D01*
X1247782Y-812923D01*
X1247816Y-810969D01*
X1247947Y-809551D01*
X1248218Y-808412D01*
X1248670Y-807298D01*
X1248732Y-807168D01*
X1248998Y-806725D01*
X1249474Y-806092D01*
X1250189Y-805238D01*
X1251172Y-804135D01*
X1252452Y-802750D01*
X1254058Y-801055D01*
X1256019Y-799019D01*
X1258364Y-796613D01*
X1261122Y-793805D01*
X1264322Y-790565D01*
X1267994Y-786865D01*
X1272166Y-782673D01*
X1276868Y-777959D01*
X1277902Y-776923D01*
X1282579Y-772242D01*
X1286732Y-768091D01*
X1290393Y-764439D01*
X1293598Y-761253D01*
X1296379Y-758501D01*
X1298771Y-756149D01*
X1300808Y-754165D01*
X1302523Y-752517D01*
X1303951Y-751172D01*
X1305125Y-750097D01*
X1306080Y-749260D01*
X1306848Y-748628D01*
X1307465Y-748169D01*
X1307964Y-747849D01*
X1308339Y-747654D01*
X1310896Y-746802D01*
X1313605Y-746429D01*
X1316166Y-746567D01*
G36*
X1316166Y-746567D02*
G01*
X1317064Y-746767D01*
X1320067Y-747991D01*
X1322565Y-749781D01*
X1324502Y-752059D01*
X1325820Y-754745D01*
X1326464Y-757762D01*
X1326491Y-759911D01*
X1326445Y-760663D01*
X1326385Y-761350D01*
X1326281Y-762008D01*
X1326101Y-762672D01*
X1325814Y-763379D01*
X1325390Y-764165D01*
X1324796Y-765064D01*
X1324001Y-766113D01*
X1322975Y-767347D01*
X1321685Y-768802D01*
X1320102Y-770514D01*
X1318193Y-772519D01*
X1315927Y-774852D01*
X1313273Y-777549D01*
X1310199Y-780645D01*
X1306675Y-784177D01*
X1302670Y-788180D01*
X1298151Y-792690D01*
X1295520Y-795315D01*
X1290864Y-799960D01*
X1286735Y-804077D01*
X1283097Y-807698D01*
X1279917Y-810856D01*
X1277160Y-813584D01*
X1274791Y-815914D01*
X1272776Y-817880D01*
X1271080Y-819515D01*
X1269669Y-820851D01*
X1268509Y-821921D01*
X1267564Y-822758D01*
X1266800Y-823394D01*
X1266183Y-823864D01*
X1265678Y-824198D01*
X1265251Y-824431D01*
X1264867Y-824595D01*
X1264649Y-824672D01*
X1261496Y-825344D01*
X1258405Y-825284D01*
X1255483Y-824531D01*
X1252836Y-823125D01*
X1250571Y-821105D01*
X1248951Y-818804D01*
X1248393Y-817723D01*
X1248046Y-816771D01*
X1247862Y-815700D01*
X1247791Y-814258D01*
X1247782Y-812923D01*
X1247816Y-810969D01*
X1247947Y-809551D01*
X1248218Y-808412D01*
X1248670Y-807298D01*
X1248732Y-807168D01*
X1248998Y-806725D01*
X1249474Y-806092D01*
X1250189Y-805238D01*
X1251172Y-804135D01*
X1252452Y-802750D01*
X1254058Y-801055D01*
X1256019Y-799019D01*
X1258364Y-796613D01*
X1261122Y-793805D01*
X1264322Y-790565D01*
X1267994Y-786865D01*
X1272166Y-782673D01*
X1276868Y-777959D01*
X1277902Y-776923D01*
X1282579Y-772242D01*
X1286732Y-768091D01*
X1290393Y-764439D01*
X1293598Y-761253D01*
X1296379Y-758501D01*
X1298771Y-756149D01*
X1300808Y-754165D01*
X1302523Y-752517D01*
X1303951Y-751172D01*
X1305125Y-750097D01*
X1306080Y-749260D01*
X1306848Y-748628D01*
X1307465Y-748169D01*
X1307964Y-747849D01*
X1308339Y-747654D01*
X1310896Y-746802D01*
X1313605Y-746429D01*
X1316166Y-746567D01*
G37*
%TO.C,MH2*%
X1207586Y997561D02*
X1213547Y996791D01*
X1219327Y995310D01*
X1219708Y995184D01*
X1225314Y992892D01*
X1230609Y989912D01*
X1235525Y986311D01*
X1239992Y982155D01*
X1243943Y977510D01*
X1247308Y972445D01*
X1250019Y967025D01*
X1250887Y964824D01*
X1251342Y963396D01*
X1251895Y961373D01*
X1252500Y958945D01*
X1253109Y956297D01*
X1253677Y953618D01*
X1253686Y953574D01*
X1255849Y943601D01*
X1258208Y934224D01*
X1260820Y925259D01*
X1263740Y916519D01*
X1267024Y907821D01*
X1268980Y903051D01*
X1270348Y899601D01*
X1271285Y896717D01*
X1271798Y894306D01*
X1271890Y892270D01*
X1271569Y890514D01*
X1270838Y888942D01*
X1269843Y887614D01*
X1268948Y886687D01*
X1267977Y885921D01*
X1266792Y885247D01*
X1265253Y884600D01*
X1263221Y883911D01*
X1260559Y883114D01*
X1260470Y883089D01*
X1254791Y881320D01*
X1249618Y879416D01*
X1244664Y877263D01*
X1241358Y875644D01*
X1233844Y871370D01*
X1226687Y866417D01*
X1219957Y860849D01*
X1213728Y854729D01*
X1208074Y848119D01*
X1205298Y844387D01*
X1203104Y841507D01*
X1201071Y839332D01*
X1199125Y837808D01*
X1197193Y836880D01*
X1195203Y836494D01*
X1194687Y836476D01*
X1192832Y836665D01*
X1191158Y837298D01*
X1189596Y838442D01*
X1188073Y840162D01*
X1186520Y842524D01*
X1184865Y845594D01*
X1184849Y845625D01*
X1179109Y857784D01*
X1173767Y870549D01*
X1168855Y883820D01*
X1164407Y897497D01*
X1160458Y911482D01*
X1157041Y925673D01*
X1155800Y931537D01*
X1154719Y937485D01*
X1154028Y942798D01*
X1153722Y947533D01*
X1153798Y951743D01*
X1154185Y955102D01*
X1155634Y961445D01*
X1157772Y967423D01*
X1160574Y973001D01*
X1164017Y978144D01*
X1168076Y982816D01*
X1172727Y986983D01*
X1177948Y990609D01*
X1178779Y991105D01*
X1184050Y993734D01*
X1189674Y995705D01*
X1195542Y997007D01*
X1201548Y997629D01*
X1207586Y997561D01*
G36*
X1207586Y997561D02*
G01*
X1213547Y996791D01*
X1219327Y995310D01*
X1219708Y995184D01*
X1225314Y992892D01*
X1230609Y989912D01*
X1235525Y986311D01*
X1239992Y982155D01*
X1243943Y977510D01*
X1247308Y972445D01*
X1250019Y967025D01*
X1250887Y964824D01*
X1251342Y963396D01*
X1251895Y961373D01*
X1252500Y958945D01*
X1253109Y956297D01*
X1253677Y953618D01*
X1253686Y953574D01*
X1255849Y943601D01*
X1258208Y934224D01*
X1260820Y925259D01*
X1263740Y916519D01*
X1267024Y907821D01*
X1268980Y903051D01*
X1270348Y899601D01*
X1271285Y896717D01*
X1271798Y894306D01*
X1271890Y892270D01*
X1271569Y890514D01*
X1270838Y888942D01*
X1269843Y887614D01*
X1268948Y886687D01*
X1267977Y885921D01*
X1266792Y885247D01*
X1265253Y884600D01*
X1263221Y883911D01*
X1260559Y883114D01*
X1260470Y883089D01*
X1254791Y881320D01*
X1249618Y879416D01*
X1244664Y877263D01*
X1241358Y875644D01*
X1233844Y871370D01*
X1226687Y866417D01*
X1219957Y860849D01*
X1213728Y854729D01*
X1208074Y848119D01*
X1205298Y844387D01*
X1203104Y841507D01*
X1201071Y839332D01*
X1199125Y837808D01*
X1197193Y836880D01*
X1195203Y836494D01*
X1194687Y836476D01*
X1192832Y836665D01*
X1191158Y837298D01*
X1189596Y838442D01*
X1188073Y840162D01*
X1186520Y842524D01*
X1184865Y845594D01*
X1184849Y845625D01*
X1179109Y857784D01*
X1173767Y870549D01*
X1168855Y883820D01*
X1164407Y897497D01*
X1160458Y911482D01*
X1157041Y925673D01*
X1155800Y931537D01*
X1154719Y937485D01*
X1154028Y942798D01*
X1153722Y947533D01*
X1153798Y951743D01*
X1154185Y955102D01*
X1155634Y961445D01*
X1157772Y967423D01*
X1160574Y973001D01*
X1164017Y978144D01*
X1168076Y982816D01*
X1172727Y986983D01*
X1177948Y990609D01*
X1178779Y991105D01*
X1184050Y993734D01*
X1189674Y995705D01*
X1195542Y997007D01*
X1201548Y997629D01*
X1207586Y997561D01*
G37*
X1260913Y826993D02*
X1261599Y826933D01*
X1262257Y826828D01*
X1262922Y826649D01*
X1263629Y826362D01*
X1264414Y825937D01*
X1265313Y825344D01*
X1266362Y824549D01*
X1267597Y823523D01*
X1269052Y822233D01*
X1270764Y820650D01*
X1272769Y818740D01*
X1275102Y816474D01*
X1277798Y813820D01*
X1280895Y810747D01*
X1284427Y807223D01*
X1288430Y803218D01*
X1292940Y798699D01*
X1295565Y796068D01*
X1300210Y791412D01*
X1304327Y787283D01*
X1307948Y783645D01*
X1311106Y780465D01*
X1313833Y777708D01*
X1316164Y775339D01*
X1318130Y773324D01*
X1319765Y771628D01*
X1321101Y770217D01*
X1322170Y769057D01*
X1323007Y768112D01*
X1323644Y767348D01*
X1324113Y766731D01*
X1324448Y766226D01*
X1324681Y765799D01*
X1324845Y765415D01*
X1324922Y765197D01*
X1325594Y762044D01*
X1325534Y758953D01*
X1324780Y756031D01*
X1323374Y753384D01*
X1321355Y751119D01*
X1319054Y749499D01*
X1317972Y748940D01*
X1317021Y748594D01*
X1315950Y748410D01*
X1314507Y748339D01*
X1313172Y748330D01*
X1311218Y748364D01*
X1309800Y748495D01*
X1308662Y748766D01*
X1307548Y749218D01*
X1307418Y749280D01*
X1306975Y749546D01*
X1306342Y750022D01*
X1305488Y750737D01*
X1304384Y751720D01*
X1303000Y753000D01*
X1301305Y754606D01*
X1299269Y756567D01*
X1296862Y758912D01*
X1294054Y761670D01*
X1290815Y764870D01*
X1287115Y768542D01*
X1282923Y772714D01*
X1278209Y777416D01*
X1277173Y778450D01*
X1272491Y783127D01*
X1268341Y787280D01*
X1264689Y790941D01*
X1261503Y794146D01*
X1258750Y796927D01*
X1256398Y799319D01*
X1254415Y801356D01*
X1252767Y803071D01*
X1251421Y804499D01*
X1250347Y805673D01*
X1249509Y806628D01*
X1248878Y807396D01*
X1248418Y808013D01*
X1248099Y808512D01*
X1247904Y808887D01*
X1247052Y811444D01*
X1246679Y814153D01*
X1246817Y816714D01*
X1247017Y817612D01*
X1248241Y820615D01*
X1250031Y823113D01*
X1252309Y825049D01*
X1254995Y826368D01*
X1258011Y827012D01*
X1260161Y827039D01*
X1260913Y826993D01*
G36*
X1260913Y826993D02*
G01*
X1261599Y826933D01*
X1262257Y826828D01*
X1262922Y826649D01*
X1263629Y826362D01*
X1264414Y825937D01*
X1265313Y825344D01*
X1266362Y824549D01*
X1267597Y823523D01*
X1269052Y822233D01*
X1270764Y820650D01*
X1272769Y818740D01*
X1275102Y816474D01*
X1277798Y813820D01*
X1280895Y810747D01*
X1284427Y807223D01*
X1288430Y803218D01*
X1292940Y798699D01*
X1295565Y796068D01*
X1300210Y791412D01*
X1304327Y787283D01*
X1307948Y783645D01*
X1311106Y780465D01*
X1313833Y777708D01*
X1316164Y775339D01*
X1318130Y773324D01*
X1319765Y771628D01*
X1321101Y770217D01*
X1322170Y769057D01*
X1323007Y768112D01*
X1323644Y767348D01*
X1324113Y766731D01*
X1324448Y766226D01*
X1324681Y765799D01*
X1324845Y765415D01*
X1324922Y765197D01*
X1325594Y762044D01*
X1325534Y758953D01*
X1324780Y756031D01*
X1323374Y753384D01*
X1321355Y751119D01*
X1319054Y749499D01*
X1317972Y748940D01*
X1317021Y748594D01*
X1315950Y748410D01*
X1314507Y748339D01*
X1313172Y748330D01*
X1311218Y748364D01*
X1309800Y748495D01*
X1308662Y748766D01*
X1307548Y749218D01*
X1307418Y749280D01*
X1306975Y749546D01*
X1306342Y750022D01*
X1305488Y750737D01*
X1304384Y751720D01*
X1303000Y753000D01*
X1301305Y754606D01*
X1299269Y756567D01*
X1296862Y758912D01*
X1294054Y761670D01*
X1290815Y764870D01*
X1287115Y768542D01*
X1282923Y772714D01*
X1278209Y777416D01*
X1277173Y778450D01*
X1272491Y783127D01*
X1268341Y787280D01*
X1264689Y790941D01*
X1261503Y794146D01*
X1258750Y796927D01*
X1256398Y799319D01*
X1254415Y801356D01*
X1252767Y803071D01*
X1251421Y804499D01*
X1250347Y805673D01*
X1249509Y806628D01*
X1248878Y807396D01*
X1248418Y808013D01*
X1248099Y808512D01*
X1247904Y808887D01*
X1247052Y811444D01*
X1246679Y814153D01*
X1246817Y816714D01*
X1247017Y817612D01*
X1248241Y820615D01*
X1250031Y823113D01*
X1252309Y825049D01*
X1254995Y826368D01*
X1258011Y827012D01*
X1260161Y827039D01*
X1260913Y826993D01*
G37*
X1393911Y772747D02*
X1396456Y771973D01*
X1398699Y771054D01*
X1410751Y766109D01*
X1423180Y761781D01*
X1436044Y758051D01*
X1449402Y754901D01*
X1452470Y754273D01*
X1455938Y753562D01*
X1458776Y752931D01*
X1461138Y752334D01*
X1463177Y751726D01*
X1465048Y751063D01*
X1466905Y750300D01*
X1468288Y749678D01*
X1473586Y746804D01*
X1478493Y743290D01*
X1482952Y739207D01*
X1486904Y734630D01*
X1490294Y729631D01*
X1493065Y724283D01*
X1495158Y718658D01*
X1496323Y713926D01*
X1497135Y707650D01*
X1497189Y701487D01*
X1496517Y695486D01*
X1495151Y689694D01*
X1493124Y684161D01*
X1490468Y678935D01*
X1487217Y674065D01*
X1483402Y669599D01*
X1479056Y665586D01*
X1474211Y662073D01*
X1468901Y659111D01*
X1463157Y656747D01*
X1457012Y655030D01*
X1456841Y654993D01*
X1455073Y654675D01*
X1453149Y654462D01*
X1450879Y654343D01*
X1448074Y654302D01*
X1446919Y654305D01*
X1444751Y654342D01*
X1442654Y654443D01*
X1440530Y654622D01*
X1438277Y654896D01*
X1435796Y655282D01*
X1432985Y655795D01*
X1429744Y656451D01*
X1425973Y657267D01*
X1421572Y658259D01*
X1419733Y658681D01*
X1408392Y661532D01*
X1396774Y664912D01*
X1385065Y668753D01*
X1373451Y672989D01*
X1362118Y677553D01*
X1351250Y682379D01*
X1344133Y685820D01*
X1341380Y687268D01*
X1339277Y688548D01*
X1337720Y689739D01*
X1336605Y690923D01*
X1335828Y692181D01*
X1335741Y692367D01*
X1335143Y694170D01*
X1335148Y695853D01*
X1335544Y697277D01*
X1336629Y699248D01*
X1338461Y701273D01*
X1340999Y703307D01*
X1341478Y703637D01*
X1348801Y709045D01*
X1355548Y714965D01*
X1361694Y721369D01*
X1367216Y728228D01*
X1372088Y735511D01*
X1376288Y743191D01*
X1378839Y748846D01*
X1380073Y751965D01*
X1381195Y755104D01*
X1382270Y758466D01*
X1383364Y762254D01*
X1384250Y765548D01*
X1384781Y767372D01*
X1385322Y768677D01*
X1386006Y769727D01*
X1386751Y770569D01*
X1388308Y771913D01*
X1389946Y772721D01*
X1391778Y772997D01*
X1393911Y772747D01*
G36*
X1393911Y772747D02*
G01*
X1396456Y771973D01*
X1398699Y771054D01*
X1410751Y766109D01*
X1423180Y761781D01*
X1436044Y758051D01*
X1449402Y754901D01*
X1452470Y754273D01*
X1455938Y753562D01*
X1458776Y752931D01*
X1461138Y752334D01*
X1463177Y751726D01*
X1465048Y751063D01*
X1466905Y750300D01*
X1468288Y749678D01*
X1473586Y746804D01*
X1478493Y743290D01*
X1482952Y739207D01*
X1486904Y734630D01*
X1490294Y729631D01*
X1493065Y724283D01*
X1495158Y718658D01*
X1496323Y713926D01*
X1497135Y707650D01*
X1497189Y701487D01*
X1496517Y695486D01*
X1495151Y689694D01*
X1493124Y684161D01*
X1490468Y678935D01*
X1487217Y674065D01*
X1483402Y669599D01*
X1479056Y665586D01*
X1474211Y662073D01*
X1468901Y659111D01*
X1463157Y656747D01*
X1457012Y655030D01*
X1456841Y654993D01*
X1455073Y654675D01*
X1453149Y654462D01*
X1450879Y654343D01*
X1448074Y654302D01*
X1446919Y654305D01*
X1444751Y654342D01*
X1442654Y654443D01*
X1440530Y654622D01*
X1438277Y654896D01*
X1435796Y655282D01*
X1432985Y655795D01*
X1429744Y656451D01*
X1425973Y657267D01*
X1421572Y658259D01*
X1419733Y658681D01*
X1408392Y661532D01*
X1396774Y664912D01*
X1385065Y668753D01*
X1373451Y672989D01*
X1362118Y677553D01*
X1351250Y682379D01*
X1344133Y685820D01*
X1341380Y687268D01*
X1339277Y688548D01*
X1337720Y689739D01*
X1336605Y690923D01*
X1335828Y692181D01*
X1335741Y692367D01*
X1335143Y694170D01*
X1335148Y695853D01*
X1335544Y697277D01*
X1336629Y699248D01*
X1338461Y701273D01*
X1340999Y703307D01*
X1341478Y703637D01*
X1348801Y709045D01*
X1355548Y714965D01*
X1361694Y721369D01*
X1367216Y728228D01*
X1372088Y735511D01*
X1376288Y743191D01*
X1378839Y748846D01*
X1380073Y751965D01*
X1381195Y755104D01*
X1382270Y758466D01*
X1383364Y762254D01*
X1384250Y765548D01*
X1384781Y767372D01*
X1385322Y768677D01*
X1386006Y769727D01*
X1386751Y770569D01*
X1388308Y771913D01*
X1389946Y772721D01*
X1391778Y772997D01*
X1393911Y772747D01*
G37*
%TO.C,MH1*%
X-1389984Y771069D02*
X-1388412Y770338D01*
X-1387084Y769343D01*
X-1386158Y768448D01*
X-1385391Y767477D01*
X-1384717Y766292D01*
X-1384070Y764752D01*
X-1383381Y762721D01*
X-1382584Y760059D01*
X-1382559Y759970D01*
X-1380790Y754291D01*
X-1378886Y749118D01*
X-1376733Y744164D01*
X-1375114Y740858D01*
X-1370840Y733344D01*
X-1365888Y726186D01*
X-1360320Y719457D01*
X-1354199Y713228D01*
X-1347589Y707574D01*
X-1343857Y704797D01*
X-1340978Y702604D01*
X-1338802Y700571D01*
X-1337278Y698625D01*
X-1336350Y696693D01*
X-1335964Y694703D01*
X-1335946Y694187D01*
X-1336135Y692332D01*
X-1336768Y690658D01*
X-1337912Y689096D01*
X-1339632Y687573D01*
X-1341994Y686020D01*
X-1345064Y684365D01*
X-1345095Y684349D01*
X-1357254Y678609D01*
X-1370019Y673267D01*
X-1383290Y668355D01*
X-1396968Y663907D01*
X-1410952Y659958D01*
X-1425143Y656541D01*
X-1431007Y655300D01*
X-1436955Y654219D01*
X-1442268Y653528D01*
X-1447003Y653222D01*
X-1451213Y653298D01*
X-1454572Y653685D01*
X-1460915Y655134D01*
X-1466893Y657272D01*
X-1472471Y660074D01*
X-1477614Y663517D01*
X-1482286Y667576D01*
X-1486453Y672227D01*
X-1490079Y677448D01*
X-1490575Y678279D01*
X-1493204Y683550D01*
X-1495175Y689174D01*
X-1496477Y695042D01*
X-1497099Y701048D01*
X-1497031Y707085D01*
X-1496261Y713047D01*
X-1494780Y718827D01*
X-1494654Y719208D01*
X-1492362Y724814D01*
X-1489382Y730109D01*
X-1485781Y735025D01*
X-1481625Y739492D01*
X-1476980Y743443D01*
X-1471915Y746808D01*
X-1466495Y749519D01*
X-1464294Y750387D01*
X-1462866Y750842D01*
X-1460843Y751395D01*
X-1458415Y751999D01*
X-1455767Y752609D01*
X-1453088Y753177D01*
X-1453044Y753186D01*
X-1443071Y755349D01*
X-1433694Y757708D01*
X-1424729Y760319D01*
X-1415989Y763240D01*
X-1407291Y766524D01*
X-1402521Y768479D01*
X-1399071Y769847D01*
X-1396187Y770785D01*
X-1393776Y771297D01*
X-1391740Y771390D01*
X-1389984Y771069D01*
G36*
X-1389984Y771069D02*
G01*
X-1388412Y770338D01*
X-1387084Y769343D01*
X-1386158Y768448D01*
X-1385391Y767477D01*
X-1384717Y766292D01*
X-1384070Y764752D01*
X-1383381Y762721D01*
X-1382584Y760059D01*
X-1382559Y759970D01*
X-1380790Y754291D01*
X-1378886Y749118D01*
X-1376733Y744164D01*
X-1375114Y740858D01*
X-1370840Y733344D01*
X-1365888Y726186D01*
X-1360320Y719457D01*
X-1354199Y713228D01*
X-1347589Y707574D01*
X-1343857Y704797D01*
X-1340978Y702604D01*
X-1338802Y700571D01*
X-1337278Y698625D01*
X-1336350Y696693D01*
X-1335964Y694703D01*
X-1335946Y694187D01*
X-1336135Y692332D01*
X-1336768Y690658D01*
X-1337912Y689096D01*
X-1339632Y687573D01*
X-1341994Y686020D01*
X-1345064Y684365D01*
X-1345095Y684349D01*
X-1357254Y678609D01*
X-1370019Y673267D01*
X-1383290Y668355D01*
X-1396968Y663907D01*
X-1410952Y659958D01*
X-1425143Y656541D01*
X-1431007Y655300D01*
X-1436955Y654219D01*
X-1442268Y653528D01*
X-1447003Y653222D01*
X-1451213Y653298D01*
X-1454572Y653685D01*
X-1460915Y655134D01*
X-1466893Y657272D01*
X-1472471Y660074D01*
X-1477614Y663517D01*
X-1482286Y667576D01*
X-1486453Y672227D01*
X-1490079Y677448D01*
X-1490575Y678279D01*
X-1493204Y683550D01*
X-1495175Y689174D01*
X-1496477Y695042D01*
X-1497099Y701048D01*
X-1497031Y707085D01*
X-1496261Y713047D01*
X-1494780Y718827D01*
X-1494654Y719208D01*
X-1492362Y724814D01*
X-1489382Y730109D01*
X-1485781Y735025D01*
X-1481625Y739492D01*
X-1476980Y743443D01*
X-1471915Y746808D01*
X-1466495Y749519D01*
X-1464294Y750387D01*
X-1462866Y750842D01*
X-1460843Y751395D01*
X-1458415Y751999D01*
X-1455767Y752609D01*
X-1453088Y753177D01*
X-1453044Y753186D01*
X-1443071Y755349D01*
X-1433694Y757708D01*
X-1424729Y760319D01*
X-1415989Y763240D01*
X-1407291Y766524D01*
X-1402521Y768479D01*
X-1399071Y769847D01*
X-1396187Y770785D01*
X-1393776Y771297D01*
X-1391740Y771390D01*
X-1389984Y771069D01*
G37*
X-1194956Y996016D02*
X-1189164Y994651D01*
X-1183631Y992624D01*
X-1178405Y989968D01*
X-1173535Y986716D01*
X-1169069Y982901D01*
X-1165056Y978555D01*
X-1161543Y973711D01*
X-1158581Y968401D01*
X-1156217Y962657D01*
X-1154500Y956512D01*
X-1154463Y956341D01*
X-1154145Y954573D01*
X-1153932Y952649D01*
X-1153813Y950379D01*
X-1153772Y947574D01*
X-1153775Y946419D01*
X-1153812Y944251D01*
X-1153913Y942154D01*
X-1154092Y940030D01*
X-1154366Y937777D01*
X-1154752Y935296D01*
X-1155265Y932485D01*
X-1155921Y929244D01*
X-1156737Y925473D01*
X-1157729Y921072D01*
X-1158151Y919233D01*
X-1161002Y907892D01*
X-1164382Y896274D01*
X-1168223Y884565D01*
X-1172459Y872951D01*
X-1177023Y861617D01*
X-1181849Y850750D01*
X-1185290Y843633D01*
X-1186738Y840880D01*
X-1188018Y838777D01*
X-1189209Y837220D01*
X-1190393Y836105D01*
X-1191651Y835328D01*
X-1191837Y835241D01*
X-1193640Y834643D01*
X-1195323Y834648D01*
X-1196747Y835044D01*
X-1198718Y836129D01*
X-1200743Y837961D01*
X-1202777Y840499D01*
X-1203107Y840978D01*
X-1208515Y848301D01*
X-1214435Y855048D01*
X-1220839Y861194D01*
X-1227698Y866716D01*
X-1234981Y871588D01*
X-1242661Y875788D01*
X-1248316Y878339D01*
X-1251435Y879573D01*
X-1254574Y880695D01*
X-1257937Y881770D01*
X-1261724Y882864D01*
X-1265018Y883749D01*
X-1266842Y884281D01*
X-1268147Y884822D01*
X-1269197Y885506D01*
X-1270039Y886251D01*
X-1271383Y887808D01*
X-1272191Y889446D01*
X-1272467Y891277D01*
X-1272217Y893411D01*
X-1271443Y895956D01*
X-1270524Y898199D01*
X-1265579Y910251D01*
X-1261251Y922680D01*
X-1257521Y935544D01*
X-1254371Y948902D01*
X-1253743Y951970D01*
X-1253033Y955438D01*
X-1252401Y958276D01*
X-1251804Y960638D01*
X-1251196Y962677D01*
X-1250534Y964548D01*
X-1249771Y966404D01*
X-1249148Y967788D01*
X-1246274Y973086D01*
X-1242760Y977993D01*
X-1238678Y982451D01*
X-1234100Y986404D01*
X-1229101Y989794D01*
X-1223753Y992565D01*
X-1218128Y994658D01*
X-1213396Y995823D01*
X-1207120Y996635D01*
X-1200957Y996689D01*
X-1194956Y996016D01*
G36*
X-1194956Y996016D02*
G01*
X-1189164Y994651D01*
X-1183631Y992624D01*
X-1178405Y989968D01*
X-1173535Y986716D01*
X-1169069Y982901D01*
X-1165056Y978555D01*
X-1161543Y973711D01*
X-1158581Y968401D01*
X-1156217Y962657D01*
X-1154500Y956512D01*
X-1154463Y956341D01*
X-1154145Y954573D01*
X-1153932Y952649D01*
X-1153813Y950379D01*
X-1153772Y947574D01*
X-1153775Y946419D01*
X-1153812Y944251D01*
X-1153913Y942154D01*
X-1154092Y940030D01*
X-1154366Y937777D01*
X-1154752Y935296D01*
X-1155265Y932485D01*
X-1155921Y929244D01*
X-1156737Y925473D01*
X-1157729Y921072D01*
X-1158151Y919233D01*
X-1161002Y907892D01*
X-1164382Y896274D01*
X-1168223Y884565D01*
X-1172459Y872951D01*
X-1177023Y861617D01*
X-1181849Y850750D01*
X-1185290Y843633D01*
X-1186738Y840880D01*
X-1188018Y838777D01*
X-1189209Y837220D01*
X-1190393Y836105D01*
X-1191651Y835328D01*
X-1191837Y835241D01*
X-1193640Y834643D01*
X-1195323Y834648D01*
X-1196747Y835044D01*
X-1198718Y836129D01*
X-1200743Y837961D01*
X-1202777Y840499D01*
X-1203107Y840978D01*
X-1208515Y848301D01*
X-1214435Y855048D01*
X-1220839Y861194D01*
X-1227698Y866716D01*
X-1234981Y871588D01*
X-1242661Y875788D01*
X-1248316Y878339D01*
X-1251435Y879573D01*
X-1254574Y880695D01*
X-1257937Y881770D01*
X-1261724Y882864D01*
X-1265018Y883749D01*
X-1266842Y884281D01*
X-1268147Y884822D01*
X-1269197Y885506D01*
X-1270039Y886251D01*
X-1271383Y887808D01*
X-1272191Y889446D01*
X-1272467Y891277D01*
X-1272217Y893411D01*
X-1271443Y895956D01*
X-1270524Y898199D01*
X-1265579Y910251D01*
X-1261251Y922680D01*
X-1257521Y935544D01*
X-1254371Y948902D01*
X-1253743Y951970D01*
X-1253033Y955438D01*
X-1252401Y958276D01*
X-1251804Y960638D01*
X-1251196Y962677D01*
X-1250534Y964548D01*
X-1249771Y966404D01*
X-1249148Y967788D01*
X-1246274Y973086D01*
X-1242760Y977993D01*
X-1238678Y982451D01*
X-1234100Y986404D01*
X-1229101Y989794D01*
X-1223753Y992565D01*
X-1218128Y994658D01*
X-1213396Y995823D01*
X-1207120Y996635D01*
X-1200957Y996689D01*
X-1194956Y996016D01*
G37*
X-1249308Y846221D02*
X-1247600Y846154D01*
X-1246248Y846027D01*
X-1245180Y845834D01*
X-1244324Y845570D01*
X-1243607Y845228D01*
X-1242955Y844804D01*
X-1242296Y844291D01*
X-1241969Y844023D01*
X-1240882Y842872D01*
X-1239850Y841353D01*
X-1239020Y839731D01*
X-1238538Y838271D01*
X-1238473Y837697D01*
X-1238386Y837112D01*
X-1238138Y835836D01*
X-1237745Y833949D01*
X-1237225Y831533D01*
X-1236596Y828668D01*
X-1235877Y825435D01*
X-1235083Y821917D01*
X-1234306Y818511D01*
X-1233243Y813850D01*
X-1232357Y809890D01*
X-1231637Y806564D01*
X-1231075Y803802D01*
X-1230658Y801536D01*
X-1230377Y799695D01*
X-1230223Y798211D01*
X-1230184Y797015D01*
X-1230251Y796037D01*
X-1230413Y795210D01*
X-1230660Y794462D01*
X-1230733Y794281D01*
X-1231915Y792274D01*
X-1233607Y790449D01*
X-1235459Y789143D01*
X-1237296Y788511D01*
X-1239520Y788243D01*
X-1241816Y788340D01*
X-1243870Y788800D01*
X-1244652Y789138D01*
X-1246260Y790239D01*
X-1247798Y791715D01*
X-1249013Y793302D01*
X-1249492Y794220D01*
X-1249726Y794965D01*
X-1250095Y796345D01*
X-1250567Y798222D01*
X-1251105Y800457D01*
X-1251676Y802912D01*
X-1251768Y803317D01*
X-1252314Y805706D01*
X-1252804Y807815D01*
X-1253209Y809529D01*
X-1253503Y810730D01*
X-1253657Y811302D01*
X-1253670Y811333D01*
X-1253939Y811076D01*
X-1254612Y810298D01*
X-1255603Y809101D01*
X-1256827Y807590D01*
X-1257617Y806598D01*
X-1267578Y794685D01*
X-1278137Y783292D01*
X-1289295Y772421D01*
X-1301051Y762071D01*
X-1307038Y757183D01*
X-1308749Y755794D01*
X-1310192Y754568D01*
X-1311271Y753592D01*
X-1311894Y752950D01*
X-1311999Y752735D01*
X-1311541Y752566D01*
X-1310428Y752238D01*
X-1308777Y751783D01*
X-1306705Y751233D01*
X-1304328Y750619D01*
X-1303362Y750374D01*
X-1300267Y749588D01*
X-1297837Y748954D01*
X-1295967Y748431D01*
X-1294549Y747982D01*
X-1293480Y747567D01*
X-1292653Y747149D01*
X-1291962Y746688D01*
X-1291302Y746146D01*
X-1290952Y745834D01*
X-1289229Y743788D01*
X-1288161Y741455D01*
X-1287731Y738965D01*
X-1287919Y736452D01*
X-1288707Y734046D01*
X-1290076Y731878D01*
X-1292008Y730080D01*
X-1293291Y729304D01*
X-1294404Y728801D01*
X-1295519Y728470D01*
X-1296747Y728320D01*
X-1298196Y728360D01*
X-1299978Y728598D01*
X-1302203Y729043D01*
X-1304982Y729705D01*
X-1307926Y730460D01*
X-1310751Y731197D01*
X-1314135Y732077D01*
X-1317870Y733046D01*
X-1321747Y734049D01*
X-1325556Y735033D01*
X-1328934Y735904D01*
X-1332622Y736861D01*
X-1335625Y737670D01*
X-1338030Y738366D01*
X-1339923Y738987D01*
X-1341391Y739569D01*
X-1342521Y740150D01*
X-1343400Y740766D01*
X-1344114Y741455D01*
X-1344750Y742253D01*
X-1345130Y742800D01*
X-1345526Y743408D01*
X-1345857Y744002D01*
X-1346124Y744651D01*
X-1346330Y745426D01*
X-1346477Y746394D01*
X-1346566Y747626D01*
X-1346600Y749190D01*
X-1346580Y751156D01*
X-1346509Y753592D01*
X-1346388Y756568D01*
X-1346220Y760154D01*
X-1346007Y764418D01*
X-1345844Y767594D01*
X-1345633Y771579D01*
X-1345421Y775361D01*
X-1345214Y778860D01*
X-1345016Y781994D01*
X-1344834Y784681D01*
X-1344672Y786839D01*
X-1344536Y788388D01*
X-1344431Y789245D01*
X-1344411Y789339D01*
X-1343415Y791668D01*
X-1341858Y793572D01*
X-1339870Y795014D01*
X-1337582Y795958D01*
X-1335125Y796366D01*
X-1332631Y796202D01*
X-1330229Y795428D01*
X-1328051Y794009D01*
X-1328000Y793964D01*
X-1326562Y792360D01*
X-1325446Y790489D01*
X-1325390Y790363D01*
X-1325069Y789578D01*
X-1324840Y788852D01*
X-1324695Y788044D01*
X-1324624Y787012D01*
X-1324616Y785614D01*
X-1324662Y783708D01*
X-1324753Y781153D01*
X-1324754Y781121D01*
X-1324856Y778606D01*
X-1324971Y776169D01*
X-1325087Y774002D01*
X-1325196Y772297D01*
X-1325264Y771451D01*
X-1325361Y770457D01*
X-1325382Y769758D01*
X-1325251Y769381D01*
X-1324891Y769352D01*
X-1324224Y769700D01*
X-1323175Y770451D01*
X-1321667Y771633D01*
X-1319623Y773272D01*
X-1319237Y773581D01*
X-1310930Y780523D01*
X-1302721Y787926D01*
X-1294731Y795668D01*
X-1287081Y803625D01*
X-1279889Y811674D01*
X-1273276Y819694D01*
X-1270015Y823933D01*
X-1268864Y825470D01*
X-1272421Y825216D01*
X-1274125Y825120D01*
X-1276370Y825029D01*
X-1278903Y824952D01*
X-1281471Y824898D01*
X-1282328Y824885D01*
X-1284846Y824868D01*
X-1286716Y824895D01*
X-1288083Y824978D01*
X-1289093Y825127D01*
X-1289889Y825355D01*
X-1290265Y825507D01*
X-1292545Y826924D01*
X-1294390Y828897D01*
X-1295694Y831266D01*
X-1296351Y833866D01*
X-1296409Y834897D01*
X-1296046Y837470D01*
X-1295030Y839898D01*
X-1293476Y842009D01*
X-1291493Y843631D01*
X-1290362Y844210D01*
X-1289878Y844400D01*
X-1289359Y844564D01*
X-1288737Y844707D01*
X-1287945Y844833D01*
X-1286917Y844948D01*
X-1285587Y845055D01*
X-1283887Y845159D01*
X-1281750Y845264D01*
X-1279111Y845375D01*
X-1275901Y845495D01*
X-1272055Y845631D01*
X-1267505Y845785D01*
X-1265749Y845844D01*
X-1261165Y845995D01*
X-1257302Y846115D01*
X-1254087Y846196D01*
X-1251446Y846233D01*
X-1249308Y846221D01*
G36*
X-1249308Y846221D02*
G01*
X-1247600Y846154D01*
X-1246248Y846027D01*
X-1245180Y845834D01*
X-1244324Y845570D01*
X-1243607Y845228D01*
X-1242955Y844804D01*
X-1242296Y844291D01*
X-1241969Y844023D01*
X-1240882Y842872D01*
X-1239850Y841353D01*
X-1239020Y839731D01*
X-1238538Y838271D01*
X-1238473Y837697D01*
X-1238386Y837112D01*
X-1238138Y835836D01*
X-1237745Y833949D01*
X-1237225Y831533D01*
X-1236596Y828668D01*
X-1235877Y825435D01*
X-1235083Y821917D01*
X-1234306Y818511D01*
X-1233243Y813850D01*
X-1232357Y809890D01*
X-1231637Y806564D01*
X-1231075Y803802D01*
X-1230658Y801536D01*
X-1230377Y799695D01*
X-1230223Y798211D01*
X-1230184Y797015D01*
X-1230251Y796037D01*
X-1230413Y795210D01*
X-1230660Y794462D01*
X-1230733Y794281D01*
X-1231915Y792274D01*
X-1233607Y790449D01*
X-1235459Y789143D01*
X-1237296Y788511D01*
X-1239520Y788243D01*
X-1241816Y788340D01*
X-1243870Y788800D01*
X-1244652Y789138D01*
X-1246260Y790239D01*
X-1247798Y791715D01*
X-1249013Y793302D01*
X-1249492Y794220D01*
X-1249726Y794965D01*
X-1250095Y796345D01*
X-1250567Y798222D01*
X-1251105Y800457D01*
X-1251676Y802912D01*
X-1251768Y803317D01*
X-1252314Y805706D01*
X-1252804Y807815D01*
X-1253209Y809529D01*
X-1253503Y810730D01*
X-1253657Y811302D01*
X-1253670Y811333D01*
X-1253939Y811076D01*
X-1254612Y810298D01*
X-1255603Y809101D01*
X-1256827Y807590D01*
X-1257617Y806598D01*
X-1267578Y794685D01*
X-1278137Y783292D01*
X-1289295Y772421D01*
X-1301051Y762071D01*
X-1307038Y757183D01*
X-1308749Y755794D01*
X-1310192Y754568D01*
X-1311271Y753592D01*
X-1311894Y752950D01*
X-1311999Y752735D01*
X-1311541Y752566D01*
X-1310428Y752238D01*
X-1308777Y751783D01*
X-1306705Y751233D01*
X-1304328Y750619D01*
X-1303362Y750374D01*
X-1300267Y749588D01*
X-1297837Y748954D01*
X-1295967Y748431D01*
X-1294549Y747982D01*
X-1293480Y747567D01*
X-1292653Y747149D01*
X-1291962Y746688D01*
X-1291302Y746146D01*
X-1290952Y745834D01*
X-1289229Y743788D01*
X-1288161Y741455D01*
X-1287731Y738965D01*
X-1287919Y736452D01*
X-1288707Y734046D01*
X-1290076Y731878D01*
X-1292008Y730080D01*
X-1293291Y729304D01*
X-1294404Y728801D01*
X-1295519Y728470D01*
X-1296747Y728320D01*
X-1298196Y728360D01*
X-1299978Y728598D01*
X-1302203Y729043D01*
X-1304982Y729705D01*
X-1307926Y730460D01*
X-1310751Y731197D01*
X-1314135Y732077D01*
X-1317870Y733046D01*
X-1321747Y734049D01*
X-1325556Y735033D01*
X-1328934Y735904D01*
X-1332622Y736861D01*
X-1335625Y737670D01*
X-1338030Y738366D01*
X-1339923Y738987D01*
X-1341391Y739569D01*
X-1342521Y740150D01*
X-1343400Y740766D01*
X-1344114Y741455D01*
X-1344750Y742253D01*
X-1345130Y742800D01*
X-1345526Y743408D01*
X-1345857Y744002D01*
X-1346124Y744651D01*
X-1346330Y745426D01*
X-1346477Y746394D01*
X-1346566Y747626D01*
X-1346600Y749190D01*
X-1346580Y751156D01*
X-1346509Y753592D01*
X-1346388Y756568D01*
X-1346220Y760154D01*
X-1346007Y764418D01*
X-1345844Y767594D01*
X-1345633Y771579D01*
X-1345421Y775361D01*
X-1345214Y778860D01*
X-1345016Y781994D01*
X-1344834Y784681D01*
X-1344672Y786839D01*
X-1344536Y788388D01*
X-1344431Y789245D01*
X-1344411Y789339D01*
X-1343415Y791668D01*
X-1341858Y793572D01*
X-1339870Y795014D01*
X-1337582Y795958D01*
X-1335125Y796366D01*
X-1332631Y796202D01*
X-1330229Y795428D01*
X-1328051Y794009D01*
X-1328000Y793964D01*
X-1326562Y792360D01*
X-1325446Y790489D01*
X-1325390Y790363D01*
X-1325069Y789578D01*
X-1324840Y788852D01*
X-1324695Y788044D01*
X-1324624Y787012D01*
X-1324616Y785614D01*
X-1324662Y783708D01*
X-1324753Y781153D01*
X-1324754Y781121D01*
X-1324856Y778606D01*
X-1324971Y776169D01*
X-1325087Y774002D01*
X-1325196Y772297D01*
X-1325264Y771451D01*
X-1325361Y770457D01*
X-1325382Y769758D01*
X-1325251Y769381D01*
X-1324891Y769352D01*
X-1324224Y769700D01*
X-1323175Y770451D01*
X-1321667Y771633D01*
X-1319623Y773272D01*
X-1319237Y773581D01*
X-1310930Y780523D01*
X-1302721Y787926D01*
X-1294731Y795668D01*
X-1287081Y803625D01*
X-1279889Y811674D01*
X-1273276Y819694D01*
X-1270015Y823933D01*
X-1268864Y825470D01*
X-1272421Y825216D01*
X-1274125Y825120D01*
X-1276370Y825029D01*
X-1278903Y824952D01*
X-1281471Y824898D01*
X-1282328Y824885D01*
X-1284846Y824868D01*
X-1286716Y824895D01*
X-1288083Y824978D01*
X-1289093Y825127D01*
X-1289889Y825355D01*
X-1290265Y825507D01*
X-1292545Y826924D01*
X-1294390Y828897D01*
X-1295694Y831266D01*
X-1296351Y833866D01*
X-1296409Y834897D01*
X-1296046Y837470D01*
X-1295030Y839898D01*
X-1293476Y842009D01*
X-1291493Y843631D01*
X-1290362Y844210D01*
X-1289878Y844400D01*
X-1289359Y844564D01*
X-1288737Y844707D01*
X-1287945Y844833D01*
X-1286917Y844948D01*
X-1285587Y845055D01*
X-1283887Y845159D01*
X-1281750Y845264D01*
X-1279111Y845375D01*
X-1275901Y845495D01*
X-1272055Y845631D01*
X-1267505Y845785D01*
X-1265749Y845844D01*
X-1261165Y845995D01*
X-1257302Y846115D01*
X-1254087Y846196D01*
X-1251446Y846233D01*
X-1249308Y846221D01*
G37*
%TD*%
M02*
