%TF.GenerationSoftware,KiCad,Pcbnew,9.0.6-9.0.6~ubuntu22.04.1*%
%TF.CreationDate,2026-01-23T17:01:12+00:00*%
%TF.ProjectId,mm_keycap_button,6d6d5f6b-6579-4636-9170-5f627574746f,0.4*%
%TF.SameCoordinates,PX8d24d00PY36d6160*%
%TF.FileFunction,Legend,Bot*%
%TF.FilePolarity,Positive*%
%FSLAX45Y45*%
G04 Gerber Fmt 4.5, Leading zero omitted, Abs format (unit mm)*
G04 Created by KiCad (PCBNEW 9.0.6-9.0.6~ubuntu22.04.1) date 2026-01-23 17:01:12*
%MOMM*%
%LPD*%
G01*
G04 APERTURE LIST*
%ADD10C,0.010000*%
G04 APERTURE END LIST*
D10*
%TO.C,MH3*%
X-1192931Y-836394D02*
X-1191257Y-837027D01*
X-1189695Y-838171D01*
X-1188172Y-839891D01*
X-1186619Y-842253D01*
X-1184964Y-845323D01*
X-1184948Y-845354D01*
X-1179208Y-857513D01*
X-1173866Y-870278D01*
X-1168954Y-883549D01*
X-1164506Y-897227D01*
X-1160557Y-911211D01*
X-1157140Y-925402D01*
X-1155899Y-931266D01*
X-1154818Y-937214D01*
X-1154127Y-942527D01*
X-1153821Y-947262D01*
X-1153897Y-951472D01*
X-1154284Y-954831D01*
X-1155733Y-961174D01*
X-1157871Y-967152D01*
X-1160673Y-972730D01*
X-1164116Y-977873D01*
X-1168175Y-982545D01*
X-1172826Y-986712D01*
X-1178047Y-990338D01*
X-1178878Y-990834D01*
X-1184149Y-993463D01*
X-1189773Y-995434D01*
X-1195641Y-996736D01*
X-1201647Y-997358D01*
X-1207684Y-997290D01*
X-1213646Y-996520D01*
X-1219426Y-995039D01*
X-1219807Y-994913D01*
X-1225413Y-992621D01*
X-1230708Y-989641D01*
X-1235624Y-986040D01*
X-1240091Y-981884D01*
X-1244042Y-977239D01*
X-1247407Y-972174D01*
X-1250118Y-966754D01*
X-1250986Y-964554D01*
X-1251441Y-963125D01*
X-1251994Y-961102D01*
X-1252599Y-958674D01*
X-1253208Y-956026D01*
X-1253776Y-953347D01*
X-1253785Y-953303D01*
X-1255948Y-943330D01*
X-1258307Y-933953D01*
X-1260919Y-924988D01*
X-1263839Y-916248D01*
X-1267123Y-907550D01*
X-1269078Y-902780D01*
X-1270446Y-899330D01*
X-1271384Y-896446D01*
X-1271897Y-894035D01*
X-1271989Y-891999D01*
X-1271668Y-890243D01*
X-1270937Y-888671D01*
X-1269942Y-887343D01*
X-1269047Y-886417D01*
X-1268076Y-885650D01*
X-1266891Y-884976D01*
X-1265351Y-884329D01*
X-1263320Y-883640D01*
X-1260658Y-882843D01*
X-1260569Y-882818D01*
X-1254890Y-881049D01*
X-1249717Y-879145D01*
X-1244763Y-876992D01*
X-1241457Y-875373D01*
X-1233943Y-871099D01*
X-1226785Y-866147D01*
X-1220056Y-860579D01*
X-1213827Y-854458D01*
X-1208173Y-847848D01*
X-1205396Y-844116D01*
X-1203203Y-841237D01*
X-1201170Y-839061D01*
X-1199224Y-837537D01*
X-1197292Y-836609D01*
X-1195302Y-836223D01*
X-1194786Y-836205D01*
X-1192931Y-836394D01*
G36*
X-1192931Y-836394D02*
G01*
X-1191257Y-837027D01*
X-1189695Y-838171D01*
X-1188172Y-839891D01*
X-1186619Y-842253D01*
X-1184964Y-845323D01*
X-1184948Y-845354D01*
X-1179208Y-857513D01*
X-1173866Y-870278D01*
X-1168954Y-883549D01*
X-1164506Y-897227D01*
X-1160557Y-911211D01*
X-1157140Y-925402D01*
X-1155899Y-931266D01*
X-1154818Y-937214D01*
X-1154127Y-942527D01*
X-1153821Y-947262D01*
X-1153897Y-951472D01*
X-1154284Y-954831D01*
X-1155733Y-961174D01*
X-1157871Y-967152D01*
X-1160673Y-972730D01*
X-1164116Y-977873D01*
X-1168175Y-982545D01*
X-1172826Y-986712D01*
X-1178047Y-990338D01*
X-1178878Y-990834D01*
X-1184149Y-993463D01*
X-1189773Y-995434D01*
X-1195641Y-996736D01*
X-1201647Y-997358D01*
X-1207684Y-997290D01*
X-1213646Y-996520D01*
X-1219426Y-995039D01*
X-1219807Y-994913D01*
X-1225413Y-992621D01*
X-1230708Y-989641D01*
X-1235624Y-986040D01*
X-1240091Y-981884D01*
X-1244042Y-977239D01*
X-1247407Y-972174D01*
X-1250118Y-966754D01*
X-1250986Y-964554D01*
X-1251441Y-963125D01*
X-1251994Y-961102D01*
X-1252599Y-958674D01*
X-1253208Y-956026D01*
X-1253776Y-953347D01*
X-1253785Y-953303D01*
X-1255948Y-943330D01*
X-1258307Y-933953D01*
X-1260919Y-924988D01*
X-1263839Y-916248D01*
X-1267123Y-907550D01*
X-1269078Y-902780D01*
X-1270446Y-899330D01*
X-1271384Y-896446D01*
X-1271897Y-894035D01*
X-1271989Y-891999D01*
X-1271668Y-890243D01*
X-1270937Y-888671D01*
X-1269942Y-887343D01*
X-1269047Y-886417D01*
X-1268076Y-885650D01*
X-1266891Y-884976D01*
X-1265351Y-884329D01*
X-1263320Y-883640D01*
X-1260658Y-882843D01*
X-1260569Y-882818D01*
X-1254890Y-881049D01*
X-1249717Y-879145D01*
X-1244763Y-876992D01*
X-1241457Y-875373D01*
X-1233943Y-871099D01*
X-1226785Y-866147D01*
X-1220056Y-860579D01*
X-1213827Y-854458D01*
X-1208173Y-847848D01*
X-1205396Y-844116D01*
X-1203203Y-841237D01*
X-1201170Y-839061D01*
X-1199224Y-837537D01*
X-1197292Y-836609D01*
X-1195302Y-836223D01*
X-1194786Y-836205D01*
X-1192931Y-836394D01*
G37*
X-1447018Y-654034D02*
X-1444850Y-654071D01*
X-1442753Y-654172D01*
X-1440629Y-654351D01*
X-1438376Y-654625D01*
X-1435895Y-655011D01*
X-1433084Y-655524D01*
X-1429843Y-656180D01*
X-1426072Y-656996D01*
X-1421671Y-657988D01*
X-1419832Y-658410D01*
X-1408491Y-661261D01*
X-1396873Y-664641D01*
X-1385164Y-668482D01*
X-1373550Y-672718D01*
X-1362217Y-677282D01*
X-1351349Y-682108D01*
X-1344232Y-685549D01*
X-1341479Y-686997D01*
X-1339376Y-688277D01*
X-1337819Y-689468D01*
X-1336704Y-690652D01*
X-1335927Y-691910D01*
X-1335840Y-692096D01*
X-1335242Y-693899D01*
X-1335247Y-695582D01*
X-1335643Y-697006D01*
X-1336728Y-698977D01*
X-1338560Y-701002D01*
X-1341098Y-703036D01*
X-1341577Y-703366D01*
X-1348900Y-708774D01*
X-1355647Y-714694D01*
X-1361793Y-721098D01*
X-1367315Y-727957D01*
X-1372187Y-735240D01*
X-1376387Y-742920D01*
X-1378938Y-748575D01*
X-1380172Y-751694D01*
X-1381294Y-754833D01*
X-1382369Y-758196D01*
X-1383463Y-761983D01*
X-1384348Y-765277D01*
X-1384880Y-767101D01*
X-1385421Y-768406D01*
X-1386105Y-769456D01*
X-1386850Y-770298D01*
X-1388407Y-771642D01*
X-1390045Y-772450D01*
X-1391876Y-772726D01*
X-1394010Y-772476D01*
X-1396555Y-771702D01*
X-1398798Y-770783D01*
X-1410850Y-765838D01*
X-1423279Y-761510D01*
X-1436143Y-757780D01*
X-1449501Y-754630D01*
X-1452569Y-754002D01*
X-1456037Y-753292D01*
X-1458875Y-752660D01*
X-1461237Y-752063D01*
X-1463276Y-751455D01*
X-1465147Y-750793D01*
X-1467003Y-750030D01*
X-1468387Y-749407D01*
X-1473685Y-746533D01*
X-1478592Y-743019D01*
X-1483050Y-738937D01*
X-1487003Y-734359D01*
X-1490393Y-729360D01*
X-1493164Y-724012D01*
X-1495257Y-718387D01*
X-1496422Y-713655D01*
X-1497234Y-707379D01*
X-1497288Y-701216D01*
X-1496615Y-695215D01*
X-1495250Y-689423D01*
X-1493223Y-683890D01*
X-1490567Y-678665D01*
X-1487315Y-673794D01*
X-1483500Y-669328D01*
X-1479154Y-665315D01*
X-1474310Y-661803D01*
X-1469000Y-658840D01*
X-1463256Y-656476D01*
X-1457111Y-654759D01*
X-1456940Y-654722D01*
X-1455172Y-654404D01*
X-1453248Y-654191D01*
X-1450978Y-654072D01*
X-1448173Y-654031D01*
X-1447018Y-654034D01*
G36*
X-1447018Y-654034D02*
G01*
X-1444850Y-654071D01*
X-1442753Y-654172D01*
X-1440629Y-654351D01*
X-1438376Y-654625D01*
X-1435895Y-655011D01*
X-1433084Y-655524D01*
X-1429843Y-656180D01*
X-1426072Y-656996D01*
X-1421671Y-657988D01*
X-1419832Y-658410D01*
X-1408491Y-661261D01*
X-1396873Y-664641D01*
X-1385164Y-668482D01*
X-1373550Y-672718D01*
X-1362217Y-677282D01*
X-1351349Y-682108D01*
X-1344232Y-685549D01*
X-1341479Y-686997D01*
X-1339376Y-688277D01*
X-1337819Y-689468D01*
X-1336704Y-690652D01*
X-1335927Y-691910D01*
X-1335840Y-692096D01*
X-1335242Y-693899D01*
X-1335247Y-695582D01*
X-1335643Y-697006D01*
X-1336728Y-698977D01*
X-1338560Y-701002D01*
X-1341098Y-703036D01*
X-1341577Y-703366D01*
X-1348900Y-708774D01*
X-1355647Y-714694D01*
X-1361793Y-721098D01*
X-1367315Y-727957D01*
X-1372187Y-735240D01*
X-1376387Y-742920D01*
X-1378938Y-748575D01*
X-1380172Y-751694D01*
X-1381294Y-754833D01*
X-1382369Y-758196D01*
X-1383463Y-761983D01*
X-1384348Y-765277D01*
X-1384880Y-767101D01*
X-1385421Y-768406D01*
X-1386105Y-769456D01*
X-1386850Y-770298D01*
X-1388407Y-771642D01*
X-1390045Y-772450D01*
X-1391876Y-772726D01*
X-1394010Y-772476D01*
X-1396555Y-771702D01*
X-1398798Y-770783D01*
X-1410850Y-765838D01*
X-1423279Y-761510D01*
X-1436143Y-757780D01*
X-1449501Y-754630D01*
X-1452569Y-754002D01*
X-1456037Y-753292D01*
X-1458875Y-752660D01*
X-1461237Y-752063D01*
X-1463276Y-751455D01*
X-1465147Y-750793D01*
X-1467003Y-750030D01*
X-1468387Y-749407D01*
X-1473685Y-746533D01*
X-1478592Y-743019D01*
X-1483050Y-738937D01*
X-1487003Y-734359D01*
X-1490393Y-729360D01*
X-1493164Y-724012D01*
X-1495257Y-718387D01*
X-1496422Y-713655D01*
X-1497234Y-707379D01*
X-1497288Y-701216D01*
X-1496615Y-695215D01*
X-1495250Y-689423D01*
X-1493223Y-683890D01*
X-1490567Y-678665D01*
X-1487315Y-673794D01*
X-1483500Y-669328D01*
X-1479154Y-665315D01*
X-1474310Y-661803D01*
X-1469000Y-658840D01*
X-1463256Y-656476D01*
X-1457111Y-654759D01*
X-1456940Y-654722D01*
X-1455172Y-654404D01*
X-1453248Y-654191D01*
X-1450978Y-654072D01*
X-1448173Y-654031D01*
X-1447018Y-654034D01*
G37*
X-1311451Y-749774D02*
X-1310449Y-750050D01*
X-1309860Y-750269D01*
X-1309261Y-750567D01*
X-1308589Y-750998D01*
X-1307780Y-751620D01*
X-1306771Y-752487D01*
X-1305499Y-753655D01*
X-1303900Y-755181D01*
X-1301913Y-757120D01*
X-1299472Y-759528D01*
X-1297496Y-761488D01*
X-1286681Y-772223D01*
X-1276065Y-761703D01*
X-1273208Y-758894D01*
X-1270632Y-756407D01*
X-1268388Y-754286D01*
X-1266523Y-752577D01*
X-1265088Y-751326D01*
X-1264131Y-750579D01*
X-1263860Y-750415D01*
X-1262045Y-749851D01*
X-1259845Y-749625D01*
X-1257574Y-749733D01*
X-1255548Y-750171D01*
X-1254695Y-750529D01*
X-1252772Y-751894D01*
X-1251094Y-753731D01*
X-1249969Y-755663D01*
X-1249562Y-757250D01*
X-1249400Y-759249D01*
X-1249480Y-761317D01*
X-1249804Y-763112D01*
X-1249989Y-763649D01*
X-1250481Y-764400D01*
X-1251545Y-765681D01*
X-1253173Y-767481D01*
X-1255356Y-769791D01*
X-1258084Y-772599D01*
X-1261347Y-775897D01*
X-1261386Y-775936D01*
X-1272169Y-786747D01*
X-1261586Y-797377D01*
X-1258492Y-800504D01*
X-1255941Y-803123D01*
X-1253900Y-805272D01*
X-1252333Y-806989D01*
X-1251208Y-808311D01*
X-1250490Y-809274D01*
X-1250197Y-809783D01*
X-1249490Y-812214D01*
X-1249381Y-814873D01*
X-1249862Y-817471D01*
X-1250402Y-818824D01*
X-1251968Y-821145D01*
X-1254030Y-822867D01*
X-1256293Y-823873D01*
X-1258062Y-824311D01*
X-1259564Y-824415D01*
X-1261164Y-824181D01*
X-1262499Y-823827D01*
X-1263073Y-823640D01*
X-1263636Y-823392D01*
X-1264251Y-823029D01*
X-1264981Y-822496D01*
X-1265887Y-821738D01*
X-1267032Y-820699D01*
X-1268478Y-819326D01*
X-1270289Y-817562D01*
X-1272525Y-815352D01*
X-1275251Y-812643D01*
X-1275667Y-812228D01*
X-1286681Y-801259D01*
X-1297694Y-812228D01*
X-1300492Y-815010D01*
X-1302792Y-817285D01*
X-1304657Y-819107D01*
X-1306150Y-820532D01*
X-1307333Y-821613D01*
X-1308268Y-822407D01*
X-1309018Y-822967D01*
X-1309645Y-823350D01*
X-1310212Y-823611D01*
X-1310781Y-823803D01*
X-1310863Y-823827D01*
X-1312741Y-824292D01*
X-1314270Y-824418D01*
X-1315817Y-824208D01*
X-1317069Y-823873D01*
X-1319535Y-822749D01*
X-1321523Y-821040D01*
X-1322966Y-818841D01*
X-1323797Y-816245D01*
X-1323978Y-814160D01*
X-1323955Y-813044D01*
X-1323860Y-812048D01*
X-1323643Y-811103D01*
X-1323256Y-810141D01*
X-1322649Y-809093D01*
X-1321771Y-807892D01*
X-1320575Y-806470D01*
X-1319009Y-804759D01*
X-1317026Y-802689D01*
X-1314574Y-800195D01*
X-1311776Y-797377D01*
X-1301193Y-786747D01*
X-1311959Y-775936D01*
X-1315199Y-772661D01*
X-1317875Y-769908D01*
X-1320003Y-767659D01*
X-1321602Y-765896D01*
X-1322687Y-764600D01*
X-1323275Y-763753D01*
X-1323356Y-763588D01*
X-1323943Y-761196D01*
X-1323921Y-758591D01*
X-1323335Y-756014D01*
X-1322230Y-753702D01*
X-1321285Y-752487D01*
X-1319266Y-750908D01*
X-1316836Y-749903D01*
X-1314172Y-749512D01*
X-1311451Y-749774D01*
G36*
X-1311451Y-749774D02*
G01*
X-1310449Y-750050D01*
X-1309860Y-750269D01*
X-1309261Y-750567D01*
X-1308589Y-750998D01*
X-1307780Y-751620D01*
X-1306771Y-752487D01*
X-1305499Y-753655D01*
X-1303900Y-755181D01*
X-1301913Y-757120D01*
X-1299472Y-759528D01*
X-1297496Y-761488D01*
X-1286681Y-772223D01*
X-1276065Y-761703D01*
X-1273208Y-758894D01*
X-1270632Y-756407D01*
X-1268388Y-754286D01*
X-1266523Y-752577D01*
X-1265088Y-751326D01*
X-1264131Y-750579D01*
X-1263860Y-750415D01*
X-1262045Y-749851D01*
X-1259845Y-749625D01*
X-1257574Y-749733D01*
X-1255548Y-750171D01*
X-1254695Y-750529D01*
X-1252772Y-751894D01*
X-1251094Y-753731D01*
X-1249969Y-755663D01*
X-1249562Y-757250D01*
X-1249400Y-759249D01*
X-1249480Y-761317D01*
X-1249804Y-763112D01*
X-1249989Y-763649D01*
X-1250481Y-764400D01*
X-1251545Y-765681D01*
X-1253173Y-767481D01*
X-1255356Y-769791D01*
X-1258084Y-772599D01*
X-1261347Y-775897D01*
X-1261386Y-775936D01*
X-1272169Y-786747D01*
X-1261586Y-797377D01*
X-1258492Y-800504D01*
X-1255941Y-803123D01*
X-1253900Y-805272D01*
X-1252333Y-806989D01*
X-1251208Y-808311D01*
X-1250490Y-809274D01*
X-1250197Y-809783D01*
X-1249490Y-812214D01*
X-1249381Y-814873D01*
X-1249862Y-817471D01*
X-1250402Y-818824D01*
X-1251968Y-821145D01*
X-1254030Y-822867D01*
X-1256293Y-823873D01*
X-1258062Y-824311D01*
X-1259564Y-824415D01*
X-1261164Y-824181D01*
X-1262499Y-823827D01*
X-1263073Y-823640D01*
X-1263636Y-823392D01*
X-1264251Y-823029D01*
X-1264981Y-822496D01*
X-1265887Y-821738D01*
X-1267032Y-820699D01*
X-1268478Y-819326D01*
X-1270289Y-817562D01*
X-1272525Y-815352D01*
X-1275251Y-812643D01*
X-1275667Y-812228D01*
X-1286681Y-801259D01*
X-1297694Y-812228D01*
X-1300492Y-815010D01*
X-1302792Y-817285D01*
X-1304657Y-819107D01*
X-1306150Y-820532D01*
X-1307333Y-821613D01*
X-1308268Y-822407D01*
X-1309018Y-822967D01*
X-1309645Y-823350D01*
X-1310212Y-823611D01*
X-1310781Y-823803D01*
X-1310863Y-823827D01*
X-1312741Y-824292D01*
X-1314270Y-824418D01*
X-1315817Y-824208D01*
X-1317069Y-823873D01*
X-1319535Y-822749D01*
X-1321523Y-821040D01*
X-1322966Y-818841D01*
X-1323797Y-816245D01*
X-1323978Y-814160D01*
X-1323955Y-813044D01*
X-1323860Y-812048D01*
X-1323643Y-811103D01*
X-1323256Y-810141D01*
X-1322649Y-809093D01*
X-1321771Y-807892D01*
X-1320575Y-806470D01*
X-1319009Y-804759D01*
X-1317026Y-802689D01*
X-1314574Y-800195D01*
X-1311776Y-797377D01*
X-1301193Y-786747D01*
X-1311959Y-775936D01*
X-1315199Y-772661D01*
X-1317875Y-769908D01*
X-1320003Y-767659D01*
X-1321602Y-765896D01*
X-1322687Y-764600D01*
X-1323275Y-763753D01*
X-1323356Y-763588D01*
X-1323943Y-761196D01*
X-1323921Y-758591D01*
X-1323335Y-756014D01*
X-1322230Y-753702D01*
X-1321285Y-752487D01*
X-1319266Y-750908D01*
X-1316836Y-749903D01*
X-1314172Y-749512D01*
X-1311451Y-749774D01*
G37*
%TO.C,MH4*%
X1451231Y-653710D02*
X1454590Y-654097D01*
X1460934Y-655546D01*
X1466912Y-657684D01*
X1472490Y-660486D01*
X1477632Y-663928D01*
X1482304Y-667987D01*
X1486471Y-672639D01*
X1490098Y-677859D01*
X1490593Y-678690D01*
X1493223Y-683962D01*
X1495194Y-689585D01*
X1496496Y-695453D01*
X1497118Y-701460D01*
X1497049Y-707497D01*
X1496280Y-713459D01*
X1494799Y-719238D01*
X1494672Y-719620D01*
X1492381Y-725226D01*
X1489401Y-730521D01*
X1485799Y-735436D01*
X1481643Y-739904D01*
X1476999Y-743854D01*
X1471934Y-747220D01*
X1466514Y-749931D01*
X1464313Y-750798D01*
X1462884Y-751253D01*
X1460862Y-751806D01*
X1458434Y-752411D01*
X1455786Y-753021D01*
X1453107Y-753589D01*
X1453063Y-753598D01*
X1443090Y-755760D01*
X1433713Y-758119D01*
X1424747Y-760731D01*
X1416008Y-763651D01*
X1407310Y-766936D01*
X1402540Y-768891D01*
X1399089Y-770259D01*
X1396206Y-771197D01*
X1393794Y-771709D01*
X1391759Y-771802D01*
X1390003Y-771480D01*
X1388431Y-770750D01*
X1387103Y-769755D01*
X1386176Y-768860D01*
X1385410Y-767889D01*
X1384736Y-766703D01*
X1384088Y-765164D01*
X1383400Y-763133D01*
X1382603Y-760470D01*
X1382577Y-760382D01*
X1380809Y-754703D01*
X1378904Y-749530D01*
X1376752Y-744575D01*
X1375132Y-741269D01*
X1370859Y-733756D01*
X1365906Y-726598D01*
X1360338Y-719868D01*
X1354218Y-713640D01*
X1347608Y-707985D01*
X1343876Y-705209D01*
X1340996Y-703016D01*
X1338821Y-700982D01*
X1337297Y-699036D01*
X1336369Y-697105D01*
X1335983Y-695115D01*
X1335965Y-694598D01*
X1336153Y-692743D01*
X1336787Y-691070D01*
X1337930Y-689507D01*
X1339650Y-687985D01*
X1342012Y-686431D01*
X1345083Y-684776D01*
X1345114Y-684761D01*
X1357273Y-679021D01*
X1370038Y-673678D01*
X1383309Y-668766D01*
X1396986Y-664319D01*
X1410970Y-660370D01*
X1425162Y-656953D01*
X1431026Y-655711D01*
X1436974Y-654631D01*
X1442287Y-653939D01*
X1447021Y-653634D01*
X1451231Y-653710D01*
G36*
X1451231Y-653710D02*
G01*
X1454590Y-654097D01*
X1460934Y-655546D01*
X1466912Y-657684D01*
X1472490Y-660486D01*
X1477632Y-663928D01*
X1482304Y-667987D01*
X1486471Y-672639D01*
X1490098Y-677859D01*
X1490593Y-678690D01*
X1493223Y-683962D01*
X1495194Y-689585D01*
X1496496Y-695453D01*
X1497118Y-701460D01*
X1497049Y-707497D01*
X1496280Y-713459D01*
X1494799Y-719238D01*
X1494672Y-719620D01*
X1492381Y-725226D01*
X1489401Y-730521D01*
X1485799Y-735436D01*
X1481643Y-739904D01*
X1476999Y-743854D01*
X1471934Y-747220D01*
X1466514Y-749931D01*
X1464313Y-750798D01*
X1462884Y-751253D01*
X1460862Y-751806D01*
X1458434Y-752411D01*
X1455786Y-753021D01*
X1453107Y-753589D01*
X1453063Y-753598D01*
X1443090Y-755760D01*
X1433713Y-758119D01*
X1424747Y-760731D01*
X1416008Y-763651D01*
X1407310Y-766936D01*
X1402540Y-768891D01*
X1399089Y-770259D01*
X1396206Y-771197D01*
X1393794Y-771709D01*
X1391759Y-771802D01*
X1390003Y-771480D01*
X1388431Y-770750D01*
X1387103Y-769755D01*
X1386176Y-768860D01*
X1385410Y-767889D01*
X1384736Y-766703D01*
X1384088Y-765164D01*
X1383400Y-763133D01*
X1382603Y-760470D01*
X1382577Y-760382D01*
X1380809Y-754703D01*
X1378904Y-749530D01*
X1376752Y-744575D01*
X1375132Y-741269D01*
X1370859Y-733756D01*
X1365906Y-726598D01*
X1360338Y-719868D01*
X1354218Y-713640D01*
X1347608Y-707985D01*
X1343876Y-705209D01*
X1340996Y-703016D01*
X1338821Y-700982D01*
X1337297Y-699036D01*
X1336369Y-697105D01*
X1335983Y-695115D01*
X1335965Y-694598D01*
X1336153Y-692743D01*
X1336787Y-691070D01*
X1337930Y-689507D01*
X1339650Y-687985D01*
X1342012Y-686431D01*
X1345083Y-684776D01*
X1345114Y-684761D01*
X1357273Y-679021D01*
X1370038Y-673678D01*
X1383309Y-668766D01*
X1396986Y-664319D01*
X1410970Y-660370D01*
X1425162Y-656953D01*
X1431026Y-655711D01*
X1436974Y-654631D01*
X1442287Y-653939D01*
X1447021Y-653634D01*
X1451231Y-653710D01*
G37*
X1195341Y-835060D02*
X1196765Y-835455D01*
X1198737Y-836541D01*
X1200761Y-838373D01*
X1202796Y-840911D01*
X1203126Y-841389D01*
X1208533Y-848713D01*
X1214454Y-855459D01*
X1220858Y-861606D01*
X1227716Y-867127D01*
X1235000Y-872000D01*
X1242680Y-876199D01*
X1248335Y-878750D01*
X1251454Y-879985D01*
X1254593Y-881107D01*
X1257955Y-882182D01*
X1261743Y-883275D01*
X1265037Y-884161D01*
X1266861Y-884692D01*
X1268166Y-885234D01*
X1269216Y-885918D01*
X1270058Y-886663D01*
X1271402Y-888219D01*
X1272210Y-889858D01*
X1272486Y-891689D01*
X1272235Y-893822D01*
X1271462Y-896367D01*
X1270542Y-898610D01*
X1265598Y-910662D01*
X1261270Y-923091D01*
X1257540Y-935955D01*
X1254390Y-949313D01*
X1253761Y-952381D01*
X1253051Y-955850D01*
X1252420Y-958688D01*
X1251823Y-961050D01*
X1251215Y-963089D01*
X1250552Y-964960D01*
X1249789Y-966816D01*
X1249167Y-968200D01*
X1246293Y-973498D01*
X1242778Y-978405D01*
X1238696Y-982863D01*
X1234119Y-986816D01*
X1229120Y-990206D01*
X1223771Y-992976D01*
X1218147Y-995070D01*
X1213415Y-996234D01*
X1207139Y-997047D01*
X1200976Y-997100D01*
X1194974Y-996428D01*
X1189183Y-995062D01*
X1183650Y-993035D01*
X1178424Y-990380D01*
X1173554Y-987128D01*
X1169088Y-983313D01*
X1165074Y-978967D01*
X1161562Y-974123D01*
X1158600Y-968812D01*
X1156236Y-963068D01*
X1154518Y-956924D01*
X1154481Y-956753D01*
X1154163Y-954984D01*
X1153951Y-953060D01*
X1153831Y-950790D01*
X1153791Y-947986D01*
X1153793Y-946831D01*
X1153831Y-944662D01*
X1153931Y-942566D01*
X1154111Y-940442D01*
X1154385Y-938189D01*
X1154770Y-935707D01*
X1155283Y-932896D01*
X1155940Y-929655D01*
X1156756Y-925885D01*
X1157748Y-921483D01*
X1158169Y-919645D01*
X1161021Y-908304D01*
X1164400Y-896686D01*
X1168241Y-884977D01*
X1172477Y-873363D01*
X1177041Y-862029D01*
X1181867Y-851161D01*
X1185308Y-844045D01*
X1186757Y-841292D01*
X1188036Y-839189D01*
X1189228Y-837632D01*
X1190412Y-836516D01*
X1191670Y-835739D01*
X1191856Y-835652D01*
X1193659Y-835055D01*
X1195341Y-835060D01*
G36*
X1195341Y-835060D02*
G01*
X1196765Y-835455D01*
X1198737Y-836541D01*
X1200761Y-838373D01*
X1202796Y-840911D01*
X1203126Y-841389D01*
X1208533Y-848713D01*
X1214454Y-855459D01*
X1220858Y-861606D01*
X1227716Y-867127D01*
X1235000Y-872000D01*
X1242680Y-876199D01*
X1248335Y-878750D01*
X1251454Y-879985D01*
X1254593Y-881107D01*
X1257955Y-882182D01*
X1261743Y-883275D01*
X1265037Y-884161D01*
X1266861Y-884692D01*
X1268166Y-885234D01*
X1269216Y-885918D01*
X1270058Y-886663D01*
X1271402Y-888219D01*
X1272210Y-889858D01*
X1272486Y-891689D01*
X1272235Y-893822D01*
X1271462Y-896367D01*
X1270542Y-898610D01*
X1265598Y-910662D01*
X1261270Y-923091D01*
X1257540Y-935955D01*
X1254390Y-949313D01*
X1253761Y-952381D01*
X1253051Y-955850D01*
X1252420Y-958688D01*
X1251823Y-961050D01*
X1251215Y-963089D01*
X1250552Y-964960D01*
X1249789Y-966816D01*
X1249167Y-968200D01*
X1246293Y-973498D01*
X1242778Y-978405D01*
X1238696Y-982863D01*
X1234119Y-986816D01*
X1229120Y-990206D01*
X1223771Y-992976D01*
X1218147Y-995070D01*
X1213415Y-996234D01*
X1207139Y-997047D01*
X1200976Y-997100D01*
X1194974Y-996428D01*
X1189183Y-995062D01*
X1183650Y-993035D01*
X1178424Y-990380D01*
X1173554Y-987128D01*
X1169088Y-983313D01*
X1165074Y-978967D01*
X1161562Y-974123D01*
X1158600Y-968812D01*
X1156236Y-963068D01*
X1154518Y-956924D01*
X1154481Y-956753D01*
X1154163Y-954984D01*
X1153951Y-953060D01*
X1153831Y-950790D01*
X1153791Y-947986D01*
X1153793Y-946831D01*
X1153831Y-944662D01*
X1153931Y-942566D01*
X1154111Y-940442D01*
X1154385Y-938189D01*
X1154770Y-935707D01*
X1155283Y-932896D01*
X1155940Y-929655D01*
X1156756Y-925885D01*
X1157748Y-921483D01*
X1158169Y-919645D01*
X1161021Y-908304D01*
X1164400Y-896686D01*
X1168241Y-884977D01*
X1172477Y-873363D01*
X1177041Y-862029D01*
X1181867Y-851161D01*
X1185308Y-844045D01*
X1186757Y-841292D01*
X1188036Y-839189D01*
X1189228Y-837632D01*
X1190412Y-836516D01*
X1191670Y-835739D01*
X1191856Y-835652D01*
X1193659Y-835055D01*
X1195341Y-835060D01*
G37*
X1316203Y-746728D02*
X1317101Y-746928D01*
X1320104Y-748152D01*
X1322602Y-749942D01*
X1324538Y-752220D01*
X1325857Y-754906D01*
X1326501Y-757923D01*
X1326528Y-760073D01*
X1326481Y-760824D01*
X1326421Y-761511D01*
X1326317Y-762169D01*
X1326137Y-762833D01*
X1325851Y-763540D01*
X1325426Y-764326D01*
X1324832Y-765225D01*
X1324038Y-766274D01*
X1323011Y-767508D01*
X1321722Y-768963D01*
X1320138Y-770675D01*
X1318229Y-772680D01*
X1315963Y-775013D01*
X1313309Y-777710D01*
X1310236Y-780806D01*
X1306712Y-784338D01*
X1302706Y-788341D01*
X1298188Y-792851D01*
X1295557Y-795476D01*
X1290901Y-800122D01*
X1286771Y-804238D01*
X1283134Y-807859D01*
X1279953Y-811017D01*
X1277196Y-813745D01*
X1274827Y-816075D01*
X1272812Y-818042D01*
X1271117Y-819676D01*
X1269706Y-821012D01*
X1268545Y-822082D01*
X1267601Y-822919D01*
X1266837Y-823555D01*
X1266220Y-824025D01*
X1265715Y-824359D01*
X1265288Y-824592D01*
X1264903Y-824757D01*
X1264686Y-824834D01*
X1261532Y-825506D01*
X1258441Y-825445D01*
X1255519Y-824692D01*
X1252872Y-823286D01*
X1250608Y-821267D01*
X1248988Y-818965D01*
X1248429Y-817884D01*
X1248083Y-816933D01*
X1247899Y-815861D01*
X1247828Y-814419D01*
X1247818Y-813084D01*
X1247853Y-811130D01*
X1247984Y-809712D01*
X1248255Y-808573D01*
X1248707Y-807459D01*
X1248768Y-807329D01*
X1249035Y-806886D01*
X1249511Y-806253D01*
X1250226Y-805400D01*
X1251209Y-804296D01*
X1252489Y-802911D01*
X1254094Y-801216D01*
X1256055Y-799181D01*
X1258400Y-796774D01*
X1261158Y-793966D01*
X1264359Y-790727D01*
X1268031Y-787026D01*
X1272203Y-782834D01*
X1276904Y-778120D01*
X1277939Y-777084D01*
X1282616Y-772403D01*
X1286768Y-768252D01*
X1290430Y-764600D01*
X1293635Y-761414D01*
X1296416Y-758662D01*
X1298808Y-756310D01*
X1300845Y-754326D01*
X1302560Y-752678D01*
X1303988Y-751333D01*
X1305162Y-750258D01*
X1306116Y-749421D01*
X1306885Y-748789D01*
X1307502Y-748330D01*
X1308000Y-748010D01*
X1308376Y-747816D01*
X1310932Y-746963D01*
X1313642Y-746590D01*
X1316203Y-746728D01*
G36*
X1316203Y-746728D02*
G01*
X1317101Y-746928D01*
X1320104Y-748152D01*
X1322602Y-749942D01*
X1324538Y-752220D01*
X1325857Y-754906D01*
X1326501Y-757923D01*
X1326528Y-760073D01*
X1326481Y-760824D01*
X1326421Y-761511D01*
X1326317Y-762169D01*
X1326137Y-762833D01*
X1325851Y-763540D01*
X1325426Y-764326D01*
X1324832Y-765225D01*
X1324038Y-766274D01*
X1323011Y-767508D01*
X1321722Y-768963D01*
X1320138Y-770675D01*
X1318229Y-772680D01*
X1315963Y-775013D01*
X1313309Y-777710D01*
X1310236Y-780806D01*
X1306712Y-784338D01*
X1302706Y-788341D01*
X1298188Y-792851D01*
X1295557Y-795476D01*
X1290901Y-800122D01*
X1286771Y-804238D01*
X1283134Y-807859D01*
X1279953Y-811017D01*
X1277196Y-813745D01*
X1274827Y-816075D01*
X1272812Y-818042D01*
X1271117Y-819676D01*
X1269706Y-821012D01*
X1268545Y-822082D01*
X1267601Y-822919D01*
X1266837Y-823555D01*
X1266220Y-824025D01*
X1265715Y-824359D01*
X1265288Y-824592D01*
X1264903Y-824757D01*
X1264686Y-824834D01*
X1261532Y-825506D01*
X1258441Y-825445D01*
X1255519Y-824692D01*
X1252872Y-823286D01*
X1250608Y-821267D01*
X1248988Y-818965D01*
X1248429Y-817884D01*
X1248083Y-816933D01*
X1247899Y-815861D01*
X1247828Y-814419D01*
X1247818Y-813084D01*
X1247853Y-811130D01*
X1247984Y-809712D01*
X1248255Y-808573D01*
X1248707Y-807459D01*
X1248768Y-807329D01*
X1249035Y-806886D01*
X1249511Y-806253D01*
X1250226Y-805400D01*
X1251209Y-804296D01*
X1252489Y-802911D01*
X1254094Y-801216D01*
X1256055Y-799181D01*
X1258400Y-796774D01*
X1261158Y-793966D01*
X1264359Y-790727D01*
X1268031Y-787026D01*
X1272203Y-782834D01*
X1276904Y-778120D01*
X1277939Y-777084D01*
X1282616Y-772403D01*
X1286768Y-768252D01*
X1290430Y-764600D01*
X1293635Y-761414D01*
X1296416Y-758662D01*
X1298808Y-756310D01*
X1300845Y-754326D01*
X1302560Y-752678D01*
X1303988Y-751333D01*
X1305162Y-750258D01*
X1306116Y-749421D01*
X1306885Y-748789D01*
X1307502Y-748330D01*
X1308000Y-748010D01*
X1308376Y-747816D01*
X1310932Y-746963D01*
X1313642Y-746590D01*
X1316203Y-746728D01*
G37*
%TO.C,MH2*%
X1207557Y997289D02*
X1213519Y996520D01*
X1219299Y995039D01*
X1219680Y994912D01*
X1225286Y992621D01*
X1230581Y989641D01*
X1235497Y986039D01*
X1239964Y981883D01*
X1243915Y977239D01*
X1247280Y972174D01*
X1249991Y966754D01*
X1250859Y964553D01*
X1251314Y963124D01*
X1251867Y961102D01*
X1252471Y958674D01*
X1253081Y956026D01*
X1253649Y953347D01*
X1253658Y953303D01*
X1255821Y943330D01*
X1258180Y933953D01*
X1260791Y924987D01*
X1263712Y916248D01*
X1266996Y907550D01*
X1268951Y902780D01*
X1270319Y899329D01*
X1271257Y896446D01*
X1271769Y894034D01*
X1271862Y891998D01*
X1271541Y890243D01*
X1270810Y888671D01*
X1269815Y887343D01*
X1268920Y886416D01*
X1267949Y885649D01*
X1266764Y884976D01*
X1265224Y884328D01*
X1263193Y883640D01*
X1260531Y882843D01*
X1260442Y882817D01*
X1254763Y881049D01*
X1249590Y879144D01*
X1244636Y876992D01*
X1241330Y875372D01*
X1233816Y871098D01*
X1226658Y866146D01*
X1219929Y860578D01*
X1213700Y854458D01*
X1208046Y847848D01*
X1205269Y844116D01*
X1203076Y841236D01*
X1201043Y839061D01*
X1199097Y837536D01*
X1197165Y836608D01*
X1195175Y836223D01*
X1194659Y836204D01*
X1192804Y836393D01*
X1191130Y837027D01*
X1189568Y838170D01*
X1188045Y839890D01*
X1186492Y842252D01*
X1184837Y845323D01*
X1184821Y845354D01*
X1179081Y857513D01*
X1173738Y870277D01*
X1168827Y883548D01*
X1164379Y897226D01*
X1160430Y911210D01*
X1157013Y925402D01*
X1155772Y931266D01*
X1154691Y937214D01*
X1154000Y942527D01*
X1153694Y947261D01*
X1153770Y951471D01*
X1154157Y954830D01*
X1155606Y961174D01*
X1157744Y967152D01*
X1160546Y972730D01*
X1163988Y977872D01*
X1168048Y982544D01*
X1172699Y986711D01*
X1177920Y990338D01*
X1178751Y990833D01*
X1184022Y993463D01*
X1189645Y995434D01*
X1195514Y996736D01*
X1201520Y997358D01*
X1207557Y997289D01*
G36*
X1207557Y997289D02*
G01*
X1213519Y996520D01*
X1219299Y995039D01*
X1219680Y994912D01*
X1225286Y992621D01*
X1230581Y989641D01*
X1235497Y986039D01*
X1239964Y981883D01*
X1243915Y977239D01*
X1247280Y972174D01*
X1249991Y966754D01*
X1250859Y964553D01*
X1251314Y963124D01*
X1251867Y961102D01*
X1252471Y958674D01*
X1253081Y956026D01*
X1253649Y953347D01*
X1253658Y953303D01*
X1255821Y943330D01*
X1258180Y933953D01*
X1260791Y924987D01*
X1263712Y916248D01*
X1266996Y907550D01*
X1268951Y902780D01*
X1270319Y899329D01*
X1271257Y896446D01*
X1271769Y894034D01*
X1271862Y891998D01*
X1271541Y890243D01*
X1270810Y888671D01*
X1269815Y887343D01*
X1268920Y886416D01*
X1267949Y885649D01*
X1266764Y884976D01*
X1265224Y884328D01*
X1263193Y883640D01*
X1260531Y882843D01*
X1260442Y882817D01*
X1254763Y881049D01*
X1249590Y879144D01*
X1244636Y876992D01*
X1241330Y875372D01*
X1233816Y871098D01*
X1226658Y866146D01*
X1219929Y860578D01*
X1213700Y854458D01*
X1208046Y847848D01*
X1205269Y844116D01*
X1203076Y841236D01*
X1201043Y839061D01*
X1199097Y837536D01*
X1197165Y836608D01*
X1195175Y836223D01*
X1194659Y836204D01*
X1192804Y836393D01*
X1191130Y837027D01*
X1189568Y838170D01*
X1188045Y839890D01*
X1186492Y842252D01*
X1184837Y845323D01*
X1184821Y845354D01*
X1179081Y857513D01*
X1173738Y870277D01*
X1168827Y883548D01*
X1164379Y897226D01*
X1160430Y911210D01*
X1157013Y925402D01*
X1155772Y931266D01*
X1154691Y937214D01*
X1154000Y942527D01*
X1153694Y947261D01*
X1153770Y951471D01*
X1154157Y954830D01*
X1155606Y961174D01*
X1157744Y967152D01*
X1160546Y972730D01*
X1163988Y977872D01*
X1168048Y982544D01*
X1172699Y986711D01*
X1177920Y990338D01*
X1178751Y990833D01*
X1184022Y993463D01*
X1189645Y995434D01*
X1195514Y996736D01*
X1201520Y997358D01*
X1207557Y997289D01*
G37*
X1260884Y826721D02*
X1261571Y826661D01*
X1262229Y826557D01*
X1262894Y826377D01*
X1263601Y826091D01*
X1264386Y825666D01*
X1265285Y825072D01*
X1266334Y824278D01*
X1267568Y823251D01*
X1269024Y821962D01*
X1270736Y820378D01*
X1272741Y818469D01*
X1275073Y816203D01*
X1277770Y813549D01*
X1280867Y810476D01*
X1284399Y806952D01*
X1288402Y802946D01*
X1292912Y798428D01*
X1295537Y795797D01*
X1300182Y791141D01*
X1304299Y787011D01*
X1307919Y783374D01*
X1311077Y780193D01*
X1313805Y777436D01*
X1316136Y775067D01*
X1318102Y773052D01*
X1319737Y771357D01*
X1321072Y769946D01*
X1322142Y768785D01*
X1322979Y767840D01*
X1323616Y767077D01*
X1324085Y766460D01*
X1324420Y765955D01*
X1324653Y765527D01*
X1324817Y765143D01*
X1324894Y764925D01*
X1325566Y761772D01*
X1325505Y758681D01*
X1324752Y755759D01*
X1323346Y753112D01*
X1321327Y750848D01*
X1319026Y749228D01*
X1317944Y748669D01*
X1316993Y748323D01*
X1315921Y748139D01*
X1314479Y748068D01*
X1313144Y748058D01*
X1311190Y748093D01*
X1309772Y748224D01*
X1308634Y748495D01*
X1307519Y748947D01*
X1307390Y749008D01*
X1306947Y749275D01*
X1306313Y749751D01*
X1305460Y750466D01*
X1304356Y751449D01*
X1302972Y752729D01*
X1301277Y754334D01*
X1299241Y756295D01*
X1296834Y758640D01*
X1294026Y761398D01*
X1290787Y764599D01*
X1287086Y768270D01*
X1282894Y772443D01*
X1278181Y777144D01*
X1277145Y778178D01*
X1272463Y782856D01*
X1268313Y787008D01*
X1264661Y790670D01*
X1261475Y793874D01*
X1258722Y796656D01*
X1256370Y799048D01*
X1254386Y801085D01*
X1252738Y802800D01*
X1251393Y804228D01*
X1250318Y805402D01*
X1249481Y806356D01*
X1248849Y807125D01*
X1248390Y807742D01*
X1248071Y808240D01*
X1247876Y808616D01*
X1247023Y811172D01*
X1246651Y813882D01*
X1246788Y816443D01*
X1246988Y817341D01*
X1248212Y820344D01*
X1250003Y822842D01*
X1252280Y824778D01*
X1254967Y826097D01*
X1257983Y826741D01*
X1260133Y826768D01*
X1260884Y826721D01*
G36*
X1260884Y826721D02*
G01*
X1261571Y826661D01*
X1262229Y826557D01*
X1262894Y826377D01*
X1263601Y826091D01*
X1264386Y825666D01*
X1265285Y825072D01*
X1266334Y824278D01*
X1267568Y823251D01*
X1269024Y821962D01*
X1270736Y820378D01*
X1272741Y818469D01*
X1275073Y816203D01*
X1277770Y813549D01*
X1280867Y810476D01*
X1284399Y806952D01*
X1288402Y802946D01*
X1292912Y798428D01*
X1295537Y795797D01*
X1300182Y791141D01*
X1304299Y787011D01*
X1307919Y783374D01*
X1311077Y780193D01*
X1313805Y777436D01*
X1316136Y775067D01*
X1318102Y773052D01*
X1319737Y771357D01*
X1321072Y769946D01*
X1322142Y768785D01*
X1322979Y767840D01*
X1323616Y767077D01*
X1324085Y766460D01*
X1324420Y765955D01*
X1324653Y765527D01*
X1324817Y765143D01*
X1324894Y764925D01*
X1325566Y761772D01*
X1325505Y758681D01*
X1324752Y755759D01*
X1323346Y753112D01*
X1321327Y750848D01*
X1319026Y749228D01*
X1317944Y748669D01*
X1316993Y748323D01*
X1315921Y748139D01*
X1314479Y748068D01*
X1313144Y748058D01*
X1311190Y748093D01*
X1309772Y748224D01*
X1308634Y748495D01*
X1307519Y748947D01*
X1307390Y749008D01*
X1306947Y749275D01*
X1306313Y749751D01*
X1305460Y750466D01*
X1304356Y751449D01*
X1302972Y752729D01*
X1301277Y754334D01*
X1299241Y756295D01*
X1296834Y758640D01*
X1294026Y761398D01*
X1290787Y764599D01*
X1287086Y768270D01*
X1282894Y772443D01*
X1278181Y777144D01*
X1277145Y778178D01*
X1272463Y782856D01*
X1268313Y787008D01*
X1264661Y790670D01*
X1261475Y793874D01*
X1258722Y796656D01*
X1256370Y799048D01*
X1254386Y801085D01*
X1252738Y802800D01*
X1251393Y804228D01*
X1250318Y805402D01*
X1249481Y806356D01*
X1248849Y807125D01*
X1248390Y807742D01*
X1248071Y808240D01*
X1247876Y808616D01*
X1247023Y811172D01*
X1246651Y813882D01*
X1246788Y816443D01*
X1246988Y817341D01*
X1248212Y820344D01*
X1250003Y822842D01*
X1252280Y824778D01*
X1254967Y826097D01*
X1257983Y826741D01*
X1260133Y826768D01*
X1260884Y826721D01*
G37*
X1393883Y772475D02*
X1396428Y771702D01*
X1398671Y770782D01*
X1410723Y765838D01*
X1423152Y761510D01*
X1436016Y757780D01*
X1449373Y754630D01*
X1452442Y754001D01*
X1455910Y753291D01*
X1458748Y752660D01*
X1461110Y752063D01*
X1463149Y751455D01*
X1465020Y750792D01*
X1466876Y750029D01*
X1468260Y749407D01*
X1473558Y746533D01*
X1478465Y743018D01*
X1482923Y738936D01*
X1486876Y734359D01*
X1490266Y729360D01*
X1493037Y724011D01*
X1495130Y718387D01*
X1496295Y713655D01*
X1497107Y707379D01*
X1497161Y701216D01*
X1496488Y695214D01*
X1495122Y689423D01*
X1493095Y683890D01*
X1490440Y678664D01*
X1487188Y673794D01*
X1483373Y669328D01*
X1479027Y665314D01*
X1474183Y661802D01*
X1468872Y658840D01*
X1463129Y656476D01*
X1456984Y654758D01*
X1456813Y654721D01*
X1455045Y654403D01*
X1453121Y654191D01*
X1450851Y654071D01*
X1448046Y654031D01*
X1446891Y654033D01*
X1444723Y654071D01*
X1442626Y654171D01*
X1440502Y654351D01*
X1438249Y654625D01*
X1435767Y655010D01*
X1432956Y655523D01*
X1429716Y656180D01*
X1425945Y656996D01*
X1421544Y657988D01*
X1419705Y658409D01*
X1408364Y661261D01*
X1396746Y664640D01*
X1385037Y668481D01*
X1373423Y672717D01*
X1362089Y677281D01*
X1351222Y682107D01*
X1344105Y685548D01*
X1341352Y686997D01*
X1339249Y688276D01*
X1337692Y689468D01*
X1336577Y690652D01*
X1335800Y691910D01*
X1335713Y692096D01*
X1335115Y693899D01*
X1335120Y695581D01*
X1335516Y697005D01*
X1336601Y698977D01*
X1338433Y701001D01*
X1340971Y703036D01*
X1341450Y703366D01*
X1348773Y708773D01*
X1355520Y714694D01*
X1361666Y721098D01*
X1367188Y727956D01*
X1372060Y735240D01*
X1376260Y742920D01*
X1378811Y748575D01*
X1380045Y751694D01*
X1381167Y754833D01*
X1382242Y758195D01*
X1383336Y761983D01*
X1384221Y765277D01*
X1384753Y767101D01*
X1385294Y768406D01*
X1385978Y769456D01*
X1386723Y770298D01*
X1388280Y771642D01*
X1389918Y772450D01*
X1391749Y772726D01*
X1393883Y772475D01*
G36*
X1393883Y772475D02*
G01*
X1396428Y771702D01*
X1398671Y770782D01*
X1410723Y765838D01*
X1423152Y761510D01*
X1436016Y757780D01*
X1449373Y754630D01*
X1452442Y754001D01*
X1455910Y753291D01*
X1458748Y752660D01*
X1461110Y752063D01*
X1463149Y751455D01*
X1465020Y750792D01*
X1466876Y750029D01*
X1468260Y749407D01*
X1473558Y746533D01*
X1478465Y743018D01*
X1482923Y738936D01*
X1486876Y734359D01*
X1490266Y729360D01*
X1493037Y724011D01*
X1495130Y718387D01*
X1496295Y713655D01*
X1497107Y707379D01*
X1497161Y701216D01*
X1496488Y695214D01*
X1495122Y689423D01*
X1493095Y683890D01*
X1490440Y678664D01*
X1487188Y673794D01*
X1483373Y669328D01*
X1479027Y665314D01*
X1474183Y661802D01*
X1468872Y658840D01*
X1463129Y656476D01*
X1456984Y654758D01*
X1456813Y654721D01*
X1455045Y654403D01*
X1453121Y654191D01*
X1450851Y654071D01*
X1448046Y654031D01*
X1446891Y654033D01*
X1444723Y654071D01*
X1442626Y654171D01*
X1440502Y654351D01*
X1438249Y654625D01*
X1435767Y655010D01*
X1432956Y655523D01*
X1429716Y656180D01*
X1425945Y656996D01*
X1421544Y657988D01*
X1419705Y658409D01*
X1408364Y661261D01*
X1396746Y664640D01*
X1385037Y668481D01*
X1373423Y672717D01*
X1362089Y677281D01*
X1351222Y682107D01*
X1344105Y685548D01*
X1341352Y686997D01*
X1339249Y688276D01*
X1337692Y689468D01*
X1336577Y690652D01*
X1335800Y691910D01*
X1335713Y692096D01*
X1335115Y693899D01*
X1335120Y695581D01*
X1335516Y697005D01*
X1336601Y698977D01*
X1338433Y701001D01*
X1340971Y703036D01*
X1341450Y703366D01*
X1348773Y708773D01*
X1355520Y714694D01*
X1361666Y721098D01*
X1367188Y727956D01*
X1372060Y735240D01*
X1376260Y742920D01*
X1378811Y748575D01*
X1380045Y751694D01*
X1381167Y754833D01*
X1382242Y758195D01*
X1383336Y761983D01*
X1384221Y765277D01*
X1384753Y767101D01*
X1385294Y768406D01*
X1385978Y769456D01*
X1386723Y770298D01*
X1388280Y771642D01*
X1389918Y772450D01*
X1391749Y772726D01*
X1393883Y772475D01*
G37*
%TO.C,MH1*%
X-1389984Y771069D02*
X-1388412Y770338D01*
X-1387084Y769343D01*
X-1386158Y768448D01*
X-1385391Y767477D01*
X-1384717Y766292D01*
X-1384070Y764752D01*
X-1383381Y762721D01*
X-1382584Y760059D01*
X-1382559Y759970D01*
X-1380790Y754291D01*
X-1378886Y749118D01*
X-1376733Y744164D01*
X-1375114Y740858D01*
X-1370840Y733344D01*
X-1365888Y726186D01*
X-1360320Y719457D01*
X-1354199Y713228D01*
X-1347589Y707574D01*
X-1343857Y704797D01*
X-1340978Y702604D01*
X-1338802Y700571D01*
X-1337278Y698625D01*
X-1336350Y696693D01*
X-1335964Y694703D01*
X-1335946Y694187D01*
X-1336135Y692332D01*
X-1336768Y690658D01*
X-1337912Y689096D01*
X-1339632Y687573D01*
X-1341994Y686020D01*
X-1345064Y684365D01*
X-1345095Y684349D01*
X-1357254Y678609D01*
X-1370019Y673267D01*
X-1383290Y668355D01*
X-1396968Y663907D01*
X-1410952Y659958D01*
X-1425143Y656541D01*
X-1431007Y655300D01*
X-1436955Y654219D01*
X-1442268Y653528D01*
X-1447003Y653222D01*
X-1451213Y653298D01*
X-1454572Y653685D01*
X-1460915Y655134D01*
X-1466893Y657272D01*
X-1472471Y660074D01*
X-1477614Y663517D01*
X-1482286Y667576D01*
X-1486453Y672227D01*
X-1490079Y677448D01*
X-1490575Y678279D01*
X-1493204Y683550D01*
X-1495175Y689174D01*
X-1496477Y695042D01*
X-1497099Y701048D01*
X-1497031Y707085D01*
X-1496261Y713047D01*
X-1494780Y718827D01*
X-1494654Y719208D01*
X-1492362Y724814D01*
X-1489382Y730109D01*
X-1485781Y735025D01*
X-1481625Y739492D01*
X-1476980Y743443D01*
X-1471915Y746808D01*
X-1466495Y749519D01*
X-1464294Y750387D01*
X-1462866Y750842D01*
X-1460843Y751395D01*
X-1458415Y751999D01*
X-1455767Y752609D01*
X-1453088Y753177D01*
X-1453044Y753186D01*
X-1443071Y755349D01*
X-1433694Y757708D01*
X-1424729Y760319D01*
X-1415989Y763240D01*
X-1407291Y766524D01*
X-1402521Y768479D01*
X-1399071Y769847D01*
X-1396187Y770785D01*
X-1393776Y771297D01*
X-1391740Y771390D01*
X-1389984Y771069D01*
G36*
X-1389984Y771069D02*
G01*
X-1388412Y770338D01*
X-1387084Y769343D01*
X-1386158Y768448D01*
X-1385391Y767477D01*
X-1384717Y766292D01*
X-1384070Y764752D01*
X-1383381Y762721D01*
X-1382584Y760059D01*
X-1382559Y759970D01*
X-1380790Y754291D01*
X-1378886Y749118D01*
X-1376733Y744164D01*
X-1375114Y740858D01*
X-1370840Y733344D01*
X-1365888Y726186D01*
X-1360320Y719457D01*
X-1354199Y713228D01*
X-1347589Y707574D01*
X-1343857Y704797D01*
X-1340978Y702604D01*
X-1338802Y700571D01*
X-1337278Y698625D01*
X-1336350Y696693D01*
X-1335964Y694703D01*
X-1335946Y694187D01*
X-1336135Y692332D01*
X-1336768Y690658D01*
X-1337912Y689096D01*
X-1339632Y687573D01*
X-1341994Y686020D01*
X-1345064Y684365D01*
X-1345095Y684349D01*
X-1357254Y678609D01*
X-1370019Y673267D01*
X-1383290Y668355D01*
X-1396968Y663907D01*
X-1410952Y659958D01*
X-1425143Y656541D01*
X-1431007Y655300D01*
X-1436955Y654219D01*
X-1442268Y653528D01*
X-1447003Y653222D01*
X-1451213Y653298D01*
X-1454572Y653685D01*
X-1460915Y655134D01*
X-1466893Y657272D01*
X-1472471Y660074D01*
X-1477614Y663517D01*
X-1482286Y667576D01*
X-1486453Y672227D01*
X-1490079Y677448D01*
X-1490575Y678279D01*
X-1493204Y683550D01*
X-1495175Y689174D01*
X-1496477Y695042D01*
X-1497099Y701048D01*
X-1497031Y707085D01*
X-1496261Y713047D01*
X-1494780Y718827D01*
X-1494654Y719208D01*
X-1492362Y724814D01*
X-1489382Y730109D01*
X-1485781Y735025D01*
X-1481625Y739492D01*
X-1476980Y743443D01*
X-1471915Y746808D01*
X-1466495Y749519D01*
X-1464294Y750387D01*
X-1462866Y750842D01*
X-1460843Y751395D01*
X-1458415Y751999D01*
X-1455767Y752609D01*
X-1453088Y753177D01*
X-1453044Y753186D01*
X-1443071Y755349D01*
X-1433694Y757708D01*
X-1424729Y760319D01*
X-1415989Y763240D01*
X-1407291Y766524D01*
X-1402521Y768479D01*
X-1399071Y769847D01*
X-1396187Y770785D01*
X-1393776Y771297D01*
X-1391740Y771390D01*
X-1389984Y771069D01*
G37*
X-1194956Y996016D02*
X-1189164Y994651D01*
X-1183631Y992624D01*
X-1178405Y989968D01*
X-1173535Y986716D01*
X-1169069Y982901D01*
X-1165056Y978555D01*
X-1161543Y973711D01*
X-1158581Y968401D01*
X-1156217Y962657D01*
X-1154500Y956512D01*
X-1154463Y956341D01*
X-1154145Y954573D01*
X-1153932Y952649D01*
X-1153813Y950379D01*
X-1153772Y947574D01*
X-1153775Y946419D01*
X-1153812Y944251D01*
X-1153913Y942154D01*
X-1154092Y940030D01*
X-1154366Y937777D01*
X-1154752Y935296D01*
X-1155265Y932485D01*
X-1155921Y929244D01*
X-1156737Y925473D01*
X-1157729Y921072D01*
X-1158151Y919233D01*
X-1161002Y907892D01*
X-1164382Y896274D01*
X-1168223Y884565D01*
X-1172459Y872951D01*
X-1177023Y861617D01*
X-1181849Y850750D01*
X-1185290Y843633D01*
X-1186738Y840880D01*
X-1188018Y838777D01*
X-1189209Y837220D01*
X-1190393Y836105D01*
X-1191651Y835328D01*
X-1191837Y835241D01*
X-1193640Y834643D01*
X-1195323Y834648D01*
X-1196747Y835044D01*
X-1198718Y836129D01*
X-1200743Y837961D01*
X-1202777Y840499D01*
X-1203107Y840978D01*
X-1208515Y848301D01*
X-1214435Y855048D01*
X-1220839Y861194D01*
X-1227698Y866716D01*
X-1234981Y871588D01*
X-1242661Y875788D01*
X-1248316Y878339D01*
X-1251435Y879573D01*
X-1254574Y880695D01*
X-1257937Y881770D01*
X-1261724Y882864D01*
X-1265018Y883749D01*
X-1266842Y884281D01*
X-1268147Y884822D01*
X-1269197Y885506D01*
X-1270039Y886251D01*
X-1271383Y887808D01*
X-1272191Y889446D01*
X-1272467Y891277D01*
X-1272217Y893411D01*
X-1271443Y895956D01*
X-1270524Y898199D01*
X-1265579Y910251D01*
X-1261251Y922680D01*
X-1257521Y935544D01*
X-1254371Y948902D01*
X-1253743Y951970D01*
X-1253033Y955438D01*
X-1252401Y958276D01*
X-1251804Y960638D01*
X-1251196Y962677D01*
X-1250534Y964548D01*
X-1249771Y966404D01*
X-1249148Y967788D01*
X-1246274Y973086D01*
X-1242760Y977993D01*
X-1238678Y982451D01*
X-1234100Y986404D01*
X-1229101Y989794D01*
X-1223753Y992565D01*
X-1218128Y994658D01*
X-1213396Y995823D01*
X-1207120Y996635D01*
X-1200957Y996689D01*
X-1194956Y996016D01*
G36*
X-1194956Y996016D02*
G01*
X-1189164Y994651D01*
X-1183631Y992624D01*
X-1178405Y989968D01*
X-1173535Y986716D01*
X-1169069Y982901D01*
X-1165056Y978555D01*
X-1161543Y973711D01*
X-1158581Y968401D01*
X-1156217Y962657D01*
X-1154500Y956512D01*
X-1154463Y956341D01*
X-1154145Y954573D01*
X-1153932Y952649D01*
X-1153813Y950379D01*
X-1153772Y947574D01*
X-1153775Y946419D01*
X-1153812Y944251D01*
X-1153913Y942154D01*
X-1154092Y940030D01*
X-1154366Y937777D01*
X-1154752Y935296D01*
X-1155265Y932485D01*
X-1155921Y929244D01*
X-1156737Y925473D01*
X-1157729Y921072D01*
X-1158151Y919233D01*
X-1161002Y907892D01*
X-1164382Y896274D01*
X-1168223Y884565D01*
X-1172459Y872951D01*
X-1177023Y861617D01*
X-1181849Y850750D01*
X-1185290Y843633D01*
X-1186738Y840880D01*
X-1188018Y838777D01*
X-1189209Y837220D01*
X-1190393Y836105D01*
X-1191651Y835328D01*
X-1191837Y835241D01*
X-1193640Y834643D01*
X-1195323Y834648D01*
X-1196747Y835044D01*
X-1198718Y836129D01*
X-1200743Y837961D01*
X-1202777Y840499D01*
X-1203107Y840978D01*
X-1208515Y848301D01*
X-1214435Y855048D01*
X-1220839Y861194D01*
X-1227698Y866716D01*
X-1234981Y871588D01*
X-1242661Y875788D01*
X-1248316Y878339D01*
X-1251435Y879573D01*
X-1254574Y880695D01*
X-1257937Y881770D01*
X-1261724Y882864D01*
X-1265018Y883749D01*
X-1266842Y884281D01*
X-1268147Y884822D01*
X-1269197Y885506D01*
X-1270039Y886251D01*
X-1271383Y887808D01*
X-1272191Y889446D01*
X-1272467Y891277D01*
X-1272217Y893411D01*
X-1271443Y895956D01*
X-1270524Y898199D01*
X-1265579Y910251D01*
X-1261251Y922680D01*
X-1257521Y935544D01*
X-1254371Y948902D01*
X-1253743Y951970D01*
X-1253033Y955438D01*
X-1252401Y958276D01*
X-1251804Y960638D01*
X-1251196Y962677D01*
X-1250534Y964548D01*
X-1249771Y966404D01*
X-1249148Y967788D01*
X-1246274Y973086D01*
X-1242760Y977993D01*
X-1238678Y982451D01*
X-1234100Y986404D01*
X-1229101Y989794D01*
X-1223753Y992565D01*
X-1218128Y994658D01*
X-1213396Y995823D01*
X-1207120Y996635D01*
X-1200957Y996689D01*
X-1194956Y996016D01*
G37*
X-1249308Y846221D02*
X-1247600Y846154D01*
X-1246248Y846027D01*
X-1245180Y845834D01*
X-1244324Y845570D01*
X-1243607Y845228D01*
X-1242955Y844804D01*
X-1242296Y844291D01*
X-1241969Y844023D01*
X-1240882Y842872D01*
X-1239850Y841353D01*
X-1239020Y839731D01*
X-1238538Y838271D01*
X-1238473Y837697D01*
X-1238386Y837112D01*
X-1238138Y835836D01*
X-1237745Y833949D01*
X-1237225Y831533D01*
X-1236596Y828668D01*
X-1235877Y825435D01*
X-1235083Y821917D01*
X-1234306Y818511D01*
X-1233243Y813850D01*
X-1232357Y809890D01*
X-1231637Y806564D01*
X-1231075Y803802D01*
X-1230658Y801536D01*
X-1230377Y799695D01*
X-1230223Y798211D01*
X-1230184Y797015D01*
X-1230251Y796037D01*
X-1230413Y795210D01*
X-1230660Y794462D01*
X-1230733Y794281D01*
X-1231915Y792274D01*
X-1233607Y790449D01*
X-1235459Y789143D01*
X-1237296Y788511D01*
X-1239520Y788243D01*
X-1241816Y788340D01*
X-1243870Y788800D01*
X-1244652Y789138D01*
X-1246260Y790239D01*
X-1247798Y791715D01*
X-1249013Y793302D01*
X-1249492Y794220D01*
X-1249726Y794965D01*
X-1250095Y796345D01*
X-1250567Y798222D01*
X-1251105Y800457D01*
X-1251676Y802912D01*
X-1251768Y803317D01*
X-1252314Y805706D01*
X-1252804Y807815D01*
X-1253209Y809529D01*
X-1253503Y810730D01*
X-1253657Y811302D01*
X-1253670Y811333D01*
X-1253939Y811076D01*
X-1254612Y810298D01*
X-1255603Y809101D01*
X-1256827Y807590D01*
X-1257617Y806598D01*
X-1267578Y794685D01*
X-1278137Y783292D01*
X-1289295Y772421D01*
X-1301051Y762071D01*
X-1307038Y757183D01*
X-1308749Y755794D01*
X-1310192Y754568D01*
X-1311271Y753592D01*
X-1311894Y752950D01*
X-1311999Y752735D01*
X-1311541Y752566D01*
X-1310428Y752238D01*
X-1308777Y751783D01*
X-1306705Y751233D01*
X-1304328Y750619D01*
X-1303362Y750374D01*
X-1300267Y749588D01*
X-1297837Y748954D01*
X-1295967Y748431D01*
X-1294549Y747982D01*
X-1293480Y747567D01*
X-1292653Y747149D01*
X-1291962Y746688D01*
X-1291302Y746146D01*
X-1290952Y745834D01*
X-1289229Y743788D01*
X-1288161Y741455D01*
X-1287731Y738965D01*
X-1287919Y736452D01*
X-1288707Y734046D01*
X-1290076Y731878D01*
X-1292008Y730080D01*
X-1293291Y729304D01*
X-1294404Y728801D01*
X-1295519Y728470D01*
X-1296747Y728320D01*
X-1298196Y728360D01*
X-1299978Y728598D01*
X-1302203Y729043D01*
X-1304982Y729705D01*
X-1307926Y730460D01*
X-1310751Y731197D01*
X-1314135Y732077D01*
X-1317870Y733046D01*
X-1321747Y734049D01*
X-1325556Y735033D01*
X-1328934Y735904D01*
X-1332622Y736861D01*
X-1335625Y737670D01*
X-1338030Y738366D01*
X-1339923Y738987D01*
X-1341391Y739569D01*
X-1342521Y740150D01*
X-1343400Y740766D01*
X-1344114Y741455D01*
X-1344750Y742253D01*
X-1345130Y742800D01*
X-1345526Y743408D01*
X-1345857Y744002D01*
X-1346124Y744651D01*
X-1346330Y745426D01*
X-1346477Y746394D01*
X-1346566Y747626D01*
X-1346600Y749190D01*
X-1346580Y751156D01*
X-1346509Y753592D01*
X-1346388Y756568D01*
X-1346220Y760154D01*
X-1346007Y764418D01*
X-1345844Y767594D01*
X-1345633Y771579D01*
X-1345421Y775361D01*
X-1345214Y778860D01*
X-1345016Y781994D01*
X-1344834Y784681D01*
X-1344672Y786839D01*
X-1344536Y788388D01*
X-1344431Y789245D01*
X-1344411Y789339D01*
X-1343415Y791668D01*
X-1341858Y793572D01*
X-1339870Y795014D01*
X-1337582Y795958D01*
X-1335125Y796366D01*
X-1332631Y796202D01*
X-1330229Y795428D01*
X-1328051Y794009D01*
X-1328000Y793964D01*
X-1326562Y792360D01*
X-1325446Y790489D01*
X-1325390Y790363D01*
X-1325069Y789578D01*
X-1324840Y788852D01*
X-1324695Y788044D01*
X-1324624Y787012D01*
X-1324616Y785614D01*
X-1324662Y783708D01*
X-1324753Y781153D01*
X-1324754Y781121D01*
X-1324856Y778606D01*
X-1324971Y776169D01*
X-1325087Y774002D01*
X-1325196Y772297D01*
X-1325264Y771451D01*
X-1325361Y770457D01*
X-1325382Y769758D01*
X-1325251Y769381D01*
X-1324891Y769352D01*
X-1324224Y769700D01*
X-1323175Y770451D01*
X-1321667Y771633D01*
X-1319623Y773272D01*
X-1319237Y773581D01*
X-1310930Y780523D01*
X-1302721Y787926D01*
X-1294731Y795668D01*
X-1287081Y803625D01*
X-1279889Y811674D01*
X-1273276Y819694D01*
X-1270015Y823933D01*
X-1268864Y825470D01*
X-1272421Y825216D01*
X-1274125Y825120D01*
X-1276370Y825029D01*
X-1278903Y824952D01*
X-1281471Y824898D01*
X-1282328Y824885D01*
X-1284846Y824868D01*
X-1286716Y824895D01*
X-1288083Y824978D01*
X-1289093Y825127D01*
X-1289889Y825355D01*
X-1290265Y825507D01*
X-1292545Y826924D01*
X-1294390Y828897D01*
X-1295694Y831266D01*
X-1296351Y833866D01*
X-1296409Y834897D01*
X-1296046Y837470D01*
X-1295030Y839898D01*
X-1293476Y842009D01*
X-1291493Y843631D01*
X-1290362Y844210D01*
X-1289878Y844400D01*
X-1289359Y844564D01*
X-1288737Y844707D01*
X-1287945Y844833D01*
X-1286917Y844948D01*
X-1285587Y845055D01*
X-1283887Y845159D01*
X-1281750Y845264D01*
X-1279111Y845375D01*
X-1275901Y845495D01*
X-1272055Y845631D01*
X-1267505Y845785D01*
X-1265749Y845844D01*
X-1261165Y845995D01*
X-1257302Y846115D01*
X-1254087Y846196D01*
X-1251446Y846233D01*
X-1249308Y846221D01*
G36*
X-1249308Y846221D02*
G01*
X-1247600Y846154D01*
X-1246248Y846027D01*
X-1245180Y845834D01*
X-1244324Y845570D01*
X-1243607Y845228D01*
X-1242955Y844804D01*
X-1242296Y844291D01*
X-1241969Y844023D01*
X-1240882Y842872D01*
X-1239850Y841353D01*
X-1239020Y839731D01*
X-1238538Y838271D01*
X-1238473Y837697D01*
X-1238386Y837112D01*
X-1238138Y835836D01*
X-1237745Y833949D01*
X-1237225Y831533D01*
X-1236596Y828668D01*
X-1235877Y825435D01*
X-1235083Y821917D01*
X-1234306Y818511D01*
X-1233243Y813850D01*
X-1232357Y809890D01*
X-1231637Y806564D01*
X-1231075Y803802D01*
X-1230658Y801536D01*
X-1230377Y799695D01*
X-1230223Y798211D01*
X-1230184Y797015D01*
X-1230251Y796037D01*
X-1230413Y795210D01*
X-1230660Y794462D01*
X-1230733Y794281D01*
X-1231915Y792274D01*
X-1233607Y790449D01*
X-1235459Y789143D01*
X-1237296Y788511D01*
X-1239520Y788243D01*
X-1241816Y788340D01*
X-1243870Y788800D01*
X-1244652Y789138D01*
X-1246260Y790239D01*
X-1247798Y791715D01*
X-1249013Y793302D01*
X-1249492Y794220D01*
X-1249726Y794965D01*
X-1250095Y796345D01*
X-1250567Y798222D01*
X-1251105Y800457D01*
X-1251676Y802912D01*
X-1251768Y803317D01*
X-1252314Y805706D01*
X-1252804Y807815D01*
X-1253209Y809529D01*
X-1253503Y810730D01*
X-1253657Y811302D01*
X-1253670Y811333D01*
X-1253939Y811076D01*
X-1254612Y810298D01*
X-1255603Y809101D01*
X-1256827Y807590D01*
X-1257617Y806598D01*
X-1267578Y794685D01*
X-1278137Y783292D01*
X-1289295Y772421D01*
X-1301051Y762071D01*
X-1307038Y757183D01*
X-1308749Y755794D01*
X-1310192Y754568D01*
X-1311271Y753592D01*
X-1311894Y752950D01*
X-1311999Y752735D01*
X-1311541Y752566D01*
X-1310428Y752238D01*
X-1308777Y751783D01*
X-1306705Y751233D01*
X-1304328Y750619D01*
X-1303362Y750374D01*
X-1300267Y749588D01*
X-1297837Y748954D01*
X-1295967Y748431D01*
X-1294549Y747982D01*
X-1293480Y747567D01*
X-1292653Y747149D01*
X-1291962Y746688D01*
X-1291302Y746146D01*
X-1290952Y745834D01*
X-1289229Y743788D01*
X-1288161Y741455D01*
X-1287731Y738965D01*
X-1287919Y736452D01*
X-1288707Y734046D01*
X-1290076Y731878D01*
X-1292008Y730080D01*
X-1293291Y729304D01*
X-1294404Y728801D01*
X-1295519Y728470D01*
X-1296747Y728320D01*
X-1298196Y728360D01*
X-1299978Y728598D01*
X-1302203Y729043D01*
X-1304982Y729705D01*
X-1307926Y730460D01*
X-1310751Y731197D01*
X-1314135Y732077D01*
X-1317870Y733046D01*
X-1321747Y734049D01*
X-1325556Y735033D01*
X-1328934Y735904D01*
X-1332622Y736861D01*
X-1335625Y737670D01*
X-1338030Y738366D01*
X-1339923Y738987D01*
X-1341391Y739569D01*
X-1342521Y740150D01*
X-1343400Y740766D01*
X-1344114Y741455D01*
X-1344750Y742253D01*
X-1345130Y742800D01*
X-1345526Y743408D01*
X-1345857Y744002D01*
X-1346124Y744651D01*
X-1346330Y745426D01*
X-1346477Y746394D01*
X-1346566Y747626D01*
X-1346600Y749190D01*
X-1346580Y751156D01*
X-1346509Y753592D01*
X-1346388Y756568D01*
X-1346220Y760154D01*
X-1346007Y764418D01*
X-1345844Y767594D01*
X-1345633Y771579D01*
X-1345421Y775361D01*
X-1345214Y778860D01*
X-1345016Y781994D01*
X-1344834Y784681D01*
X-1344672Y786839D01*
X-1344536Y788388D01*
X-1344431Y789245D01*
X-1344411Y789339D01*
X-1343415Y791668D01*
X-1341858Y793572D01*
X-1339870Y795014D01*
X-1337582Y795958D01*
X-1335125Y796366D01*
X-1332631Y796202D01*
X-1330229Y795428D01*
X-1328051Y794009D01*
X-1328000Y793964D01*
X-1326562Y792360D01*
X-1325446Y790489D01*
X-1325390Y790363D01*
X-1325069Y789578D01*
X-1324840Y788852D01*
X-1324695Y788044D01*
X-1324624Y787012D01*
X-1324616Y785614D01*
X-1324662Y783708D01*
X-1324753Y781153D01*
X-1324754Y781121D01*
X-1324856Y778606D01*
X-1324971Y776169D01*
X-1325087Y774002D01*
X-1325196Y772297D01*
X-1325264Y771451D01*
X-1325361Y770457D01*
X-1325382Y769758D01*
X-1325251Y769381D01*
X-1324891Y769352D01*
X-1324224Y769700D01*
X-1323175Y770451D01*
X-1321667Y771633D01*
X-1319623Y773272D01*
X-1319237Y773581D01*
X-1310930Y780523D01*
X-1302721Y787926D01*
X-1294731Y795668D01*
X-1287081Y803625D01*
X-1279889Y811674D01*
X-1273276Y819694D01*
X-1270015Y823933D01*
X-1268864Y825470D01*
X-1272421Y825216D01*
X-1274125Y825120D01*
X-1276370Y825029D01*
X-1278903Y824952D01*
X-1281471Y824898D01*
X-1282328Y824885D01*
X-1284846Y824868D01*
X-1286716Y824895D01*
X-1288083Y824978D01*
X-1289093Y825127D01*
X-1289889Y825355D01*
X-1290265Y825507D01*
X-1292545Y826924D01*
X-1294390Y828897D01*
X-1295694Y831266D01*
X-1296351Y833866D01*
X-1296409Y834897D01*
X-1296046Y837470D01*
X-1295030Y839898D01*
X-1293476Y842009D01*
X-1291493Y843631D01*
X-1290362Y844210D01*
X-1289878Y844400D01*
X-1289359Y844564D01*
X-1288737Y844707D01*
X-1287945Y844833D01*
X-1286917Y844948D01*
X-1285587Y845055D01*
X-1283887Y845159D01*
X-1281750Y845264D01*
X-1279111Y845375D01*
X-1275901Y845495D01*
X-1272055Y845631D01*
X-1267505Y845785D01*
X-1265749Y845844D01*
X-1261165Y845995D01*
X-1257302Y846115D01*
X-1254087Y846196D01*
X-1251446Y846233D01*
X-1249308Y846221D01*
G37*
%TD*%
M02*
