%TF.GenerationSoftware,KiCad,Pcbnew,9.0.6-9.0.6~ubuntu22.04.1*%
%TF.CreationDate,2026-01-23T17:01:12+00:00*%
%TF.ProjectId,mm_keycap_button,6d6d5f6b-6579-4636-9170-5f627574746f,0.4*%
%TF.SameCoordinates,PX8d24d00PY36d6160*%
%TF.FileFunction,Other,User*%
%FSLAX45Y45*%
G04 Gerber Fmt 4.5, Leading zero omitted, Abs format (unit mm)*
G04 Created by KiCad (PCBNEW 9.0.6-9.0.6~ubuntu22.04.1) date 2026-01-23 17:01:12*
%MOMM*%
%LPD*%
G01*
G04 APERTURE LIST*
%ADD10C,0.100000*%
%ADD11C,0.009990*%
%ADD12C,0.010740*%
%ADD13C,0.020680*%
%ADD14C,0.030950*%
%ADD15C,0.040680*%
%ADD16C,0.050650*%
%ADD17C,0.060840*%
%ADD18C,0.070650*%
%ADD19C,0.010710*%
%ADD20C,0.020780*%
%ADD21C,0.030680*%
G04 APERTURE END LIST*
D10*
X-1900000Y1400000D02*
X1900000Y1400000D01*
X1900000Y-1400000D01*
X-1900000Y-1400000D01*
X-1900000Y1400000D01*
D11*
%TO.C,GS1*%
X-1900000Y1000000D02*
X-1900000Y1000000D01*
D12*
X-1900000Y1000000D02*
X-1900000Y1000000D01*
D13*
X-1900000Y1000000D02*
X-1900000Y1000000D01*
D14*
X-1900000Y1000000D02*
X-1900000Y1000000D01*
D15*
X-1900000Y1000000D02*
X-1900000Y1000000D01*
D16*
X-1900000Y1000000D02*
X-1900000Y1000000D01*
D17*
X-1900000Y1000000D02*
X-1900000Y1000000D01*
D18*
X-1900000Y1000000D02*
X-1900000Y1000000D01*
D11*
%TO.C,GS2*%
X1900000Y-1000000D02*
X1900000Y-1000000D01*
D19*
X1900000Y-1000000D02*
X1900000Y-1000000D01*
D20*
X1900000Y-1000000D02*
X1900000Y-1000000D01*
D21*
X1900000Y-1000000D02*
X1900000Y-1000000D01*
D11*
%TO.C,GS3*%
X-1500000Y-1400000D02*
X-1500000Y-1400000D01*
D12*
X-1500000Y-1400000D02*
X-1500000Y-1400000D01*
D13*
X-1500000Y-1400000D02*
X-1500000Y-1400000D01*
D14*
X-1500000Y-1400000D02*
X-1500000Y-1400000D01*
D15*
X-1500000Y-1400000D02*
X-1500000Y-1400000D01*
D16*
X-1500000Y-1400000D02*
X-1500000Y-1400000D01*
D17*
X-1500000Y-1400000D02*
X-1500000Y-1400000D01*
D18*
X-1500000Y-1400000D02*
X-1500000Y-1400000D01*
%TD*%
M02*
