%TF.GenerationSoftware,KiCad,Pcbnew,9.0.7*%
%TF.CreationDate,2026-03-30T18:33:52+01:00*%
%TF.ProjectId,jvm_rotary_button,6a766d5f-726f-4746-9172-795f62757474,0.7*%
%TF.SameCoordinates,PX564eba0PY487ab00*%
%TF.FileFunction,Soldermask,Top*%
%TF.FilePolarity,Negative*%
%FSLAX45Y45*%
G04 Gerber Fmt 4.5, Leading zero omitted, Abs format (unit mm)*
G04 Created by KiCad (PCBNEW 9.0.7) date 2026-03-30 18:33:52*
%MOMM*%
%LPD*%
G01*
G04 APERTURE LIST*
G04 Aperture macros list*
%AMRoundRect*
0 Rectangle with rounded corners*
0 $1 Rounding radius*
0 $2 $3 $4 $5 $6 $7 $8 $9 X,Y pos of 4 corners*
0 Add a 4 corners polygon primitive as box body*
4,1,4,$2,$3,$4,$5,$6,$7,$8,$9,$2,$3,0*
0 Add four circle primitives for the rounded corners*
1,1,$1+$1,$2,$3*
1,1,$1+$1,$4,$5*
1,1,$1+$1,$6,$7*
1,1,$1+$1,$8,$9*
0 Add four rect primitives between the rounded corners*
20,1,$1+$1,$2,$3,$4,$5,0*
20,1,$1+$1,$4,$5,$6,$7,0*
20,1,$1+$1,$6,$7,$8,$9,0*
20,1,$1+$1,$8,$9,$2,$3,0*%
G04 Aperture macros list end*
%ADD10RoundRect,0.225000X-0.225000X-0.250000X0.225000X-0.250000X0.225000X0.250000X-0.225000X0.250000X0*%
%ADD11RoundRect,0.237500X0.300000X0.237500X-0.300000X0.237500X-0.300000X-0.237500X0.300000X-0.237500X0*%
%ADD12RoundRect,0.237500X-0.250000X-0.237500X0.250000X-0.237500X0.250000X0.237500X-0.250000X0.237500X0*%
%ADD13RoundRect,0.237500X0.237500X-0.250000X0.237500X0.250000X-0.237500X0.250000X-0.237500X-0.250000X0*%
%ADD14RoundRect,0.150000X0.512500X0.150000X-0.512500X0.150000X-0.512500X-0.150000X0.512500X-0.150000X0*%
%ADD15O,2.900000X3.200000*%
%ADD16C,1.700000*%
%ADD17RoundRect,0.225000X-0.250000X0.225000X-0.250000X-0.225000X0.250000X-0.225000X0.250000X0.225000X0*%
%ADD18RoundRect,0.250000X-0.250000X0.250000X-0.250000X-0.250000X0.250000X-0.250000X0.250000X0.250000X0*%
%ADD19RoundRect,0.237500X0.250000X0.237500X-0.250000X0.237500X-0.250000X-0.237500X0.250000X-0.237500X0*%
%ADD20RoundRect,0.250000X-0.275000X-0.750000X0.275000X-0.750000X0.275000X0.750000X-0.275000X0.750000X0*%
%ADD21RoundRect,0.237500X0.287500X0.237500X-0.287500X0.237500X-0.287500X-0.237500X0.287500X-0.237500X0*%
%ADD22RoundRect,0.172720X-0.259080X-0.259080X0.259080X-0.259080X0.259080X0.259080X-0.259080X0.259080X0*%
%ADD23C,0.863600*%
%ADD24RoundRect,0.100000X0.100000X-0.637500X0.100000X0.637500X-0.100000X0.637500X-0.100000X-0.637500X0*%
G04 APERTURE END LIST*
D10*
%TO.C,C2*%
X-1227500Y-300000D03*
X-1072500Y-300000D03*
%TD*%
D11*
%TO.C,C4*%
X111250Y775000D03*
X-61250Y775000D03*
%TD*%
D12*
%TO.C,R8*%
X271250Y625000D03*
X453750Y625000D03*
%TD*%
D13*
%TO.C,R3*%
X-825000Y508750D03*
X-825000Y691250D03*
%TD*%
D14*
%TO.C,U2*%
X-1036250Y-145000D03*
X-1036250Y45000D03*
X-1263750Y-50000D03*
%TD*%
D15*
%TO.C,SW2*%
X1166500Y-2500D03*
X41500Y-2500D03*
D16*
X1158500Y-417500D03*
X48500Y-417500D03*
X1158500Y412500D03*
X603500Y-687500D03*
X8500Y342500D03*
%TD*%
D17*
%TO.C,C1*%
X-875000Y-535000D03*
X-875000Y-690000D03*
%TD*%
D12*
%TO.C,R6*%
X271250Y775000D03*
X453750Y775000D03*
%TD*%
D11*
%TO.C,C5*%
X111250Y625000D03*
X-61250Y625000D03*
%TD*%
D18*
%TO.C,D1*%
X-1150000Y725000D03*
X-1150000Y475000D03*
%TD*%
D10*
%TO.C,C3*%
X-1227500Y200000D03*
X-1072500Y200000D03*
%TD*%
D19*
%TO.C,R5*%
X791250Y775000D03*
X608750Y775000D03*
%TD*%
D20*
%TO.C,SW1*%
X-722500Y-612500D03*
X-277500Y-612500D03*
%TD*%
D13*
%TO.C,R2*%
X-975000Y508750D03*
X-975000Y691250D03*
%TD*%
D21*
%TO.C,D2*%
X-1062500Y-600000D03*
X-1237500Y-600000D03*
%TD*%
D19*
%TO.C,R1*%
X-1058750Y350000D03*
X-1241250Y350000D03*
%TD*%
%TO.C,R7*%
X791250Y625000D03*
X608750Y625000D03*
%TD*%
%TO.C,R4*%
X-1058750Y-450000D03*
X-1241250Y-450000D03*
%TD*%
D22*
%TO.C,J1*%
X-348000Y647390D03*
D23*
X-348000Y489910D03*
X-475000Y647390D03*
X-475000Y489910D03*
X-602000Y647390D03*
%TD*%
D24*
%TO.C,U1*%
X-880000Y-336250D03*
X-815000Y-336250D03*
X-750000Y-336250D03*
X-685000Y-336250D03*
X-620000Y-336250D03*
X-555000Y-336250D03*
X-490000Y-336250D03*
X-425000Y-336250D03*
X-360000Y-336250D03*
X-295000Y-336250D03*
X-295000Y236250D03*
X-360000Y236250D03*
X-425000Y236250D03*
X-490000Y236250D03*
X-555000Y236250D03*
X-620000Y236250D03*
X-685000Y236250D03*
X-750000Y236250D03*
X-815000Y236250D03*
X-880000Y236250D03*
%TD*%
M02*
