%TF.GenerationSoftware,KiCad,Pcbnew,9.0.7*%
%TF.CreationDate,2026-03-30T19:28:46+01:00*%
%TF.ProjectId,jvm_rotary_button,6a766d5f-726f-4746-9172-795f62757474,0.7*%
%TF.SameCoordinates,PX564eba0PY487ab00*%
%TF.FileFunction,Copper,L2,Bot*%
%TF.FilePolarity,Positive*%
%FSLAX45Y45*%
G04 Gerber Fmt 4.5, Leading zero omitted, Abs format (unit mm)*
G04 Created by KiCad (PCBNEW 9.0.7) date 2026-03-30 19:28:46*
%MOMM*%
%LPD*%
G01*
G04 APERTURE LIST*
G04 Aperture macros list*
%AMRoundRect*
0 Rectangle with rounded corners*
0 $1 Rounding radius*
0 $2 $3 $4 $5 $6 $7 $8 $9 X,Y pos of 4 corners*
0 Add a 4 corners polygon primitive as box body*
4,1,4,$2,$3,$4,$5,$6,$7,$8,$9,$2,$3,0*
0 Add four circle primitives for the rounded corners*
1,1,$1+$1,$2,$3*
1,1,$1+$1,$4,$5*
1,1,$1+$1,$6,$7*
1,1,$1+$1,$8,$9*
0 Add four rect primitives between the rounded corners*
20,1,$1+$1,$2,$3,$4,$5,0*
20,1,$1+$1,$4,$5,$6,$7,0*
20,1,$1+$1,$6,$7,$8,$9,0*
20,1,$1+$1,$8,$9,$2,$3,0*%
G04 Aperture macros list end*
%TA.AperFunction,ComponentPad*%
%ADD10O,2.900000X3.200000*%
%TD*%
%TA.AperFunction,ComponentPad*%
%ADD11C,1.700000*%
%TD*%
%TA.AperFunction,ComponentPad*%
%ADD12RoundRect,0.172720X-0.259080X-0.259080X0.259080X-0.259080X0.259080X0.259080X-0.259080X0.259080X0*%
%TD*%
%TA.AperFunction,ComponentPad*%
%ADD13C,0.863600*%
%TD*%
%TA.AperFunction,ViaPad*%
%ADD14C,0.600000*%
%TD*%
%TA.AperFunction,Conductor*%
%ADD15C,0.200000*%
%TD*%
G04 APERTURE END LIST*
D10*
%TO.P,SW2,*%
%TO.N,*%
X1166500Y-2500D03*
X41500Y-2500D03*
D11*
%TO.P,SW2,A,A*%
%TO.N,Net-(R5-Pad2)*%
X1158500Y-417500D03*
%TO.P,SW2,B,B*%
%TO.N,Net-(R7-Pad2)*%
X48500Y-417500D03*
%TO.P,SW2,C,C*%
%TO.N,GND*%
X1158500Y412500D03*
%TO.P,SW2,S1,S1*%
%TO.N,/ROT_SW*%
X603500Y-687500D03*
%TO.P,SW2,S2,S2*%
%TO.N,GND*%
X8500Y342500D03*
%TD*%
D12*
%TO.P,J1,1,VCC*%
%TO.N,+3V3*%
X-348000Y647390D03*
D13*
%TO.P,J1,2,SWDIO*%
%TO.N,/SWDIO*%
X-348000Y489910D03*
%TO.P,J1,3,GND*%
%TO.N,GND*%
X-475000Y647390D03*
%TO.P,J1,4,SWCLK*%
%TO.N,/SWCLK*%
X-475000Y489910D03*
%TO.P,J1,5,~{RESET}*%
%TO.N,/nRESET*%
X-602000Y647390D03*
%TD*%
D14*
%TO.N,GND*%
X-975000Y-300000D03*
X-975000Y200000D03*
X-1062500Y-712500D03*
X-600000Y-625000D03*
X-1300000Y-175000D03*
X-675000Y575000D03*
%TO.N,+3V3*%
X-680000Y-464014D03*
X900000Y625000D03*
X-150000Y700000D03*
%TO.N,/nRESET*%
X-621900Y-212500D03*
X-1150000Y575000D03*
%TD*%
D15*
%TO.N,GND*%
X-975000Y275000D02*
X-975000Y200000D01*
X-255523Y720670D02*
X-401720Y720670D01*
X-975000Y-625000D02*
X-1062500Y-712500D01*
X-975000Y200000D02*
X-975000Y-175000D01*
X-174853Y640000D02*
X-255523Y720670D01*
X-975000Y-175000D02*
X-975000Y-300000D01*
X-975000Y-300000D02*
X-975000Y-625000D01*
X1158500Y412500D02*
X78500Y412500D01*
X-174853Y525853D02*
X-174853Y640000D01*
X78500Y412500D02*
X8500Y342500D01*
X-1300000Y-175000D02*
X-975000Y-175000D01*
X-675000Y575000D02*
X-975000Y275000D01*
X8500Y342500D02*
X-174853Y525853D01*
X-975000Y-625000D02*
X-600000Y-625000D01*
X-401720Y720670D02*
X-475000Y647390D01*
%TO.N,+3V3*%
X-432200Y563190D02*
X-505354Y563190D01*
X-348000Y647390D02*
X-432200Y563190D01*
X-561900Y-345914D02*
X-680000Y-464014D01*
X900000Y625000D02*
X825000Y700000D01*
X-561900Y506644D02*
X-561900Y-345914D01*
X-505354Y563190D02*
X-561900Y506644D01*
X825000Y700000D02*
X-150000Y700000D01*
%TO.N,/nRESET*%
X-602000Y647390D02*
X-602000Y-192600D01*
X-1077610Y647390D02*
X-1150000Y575000D01*
X-602000Y-192600D02*
X-621900Y-212500D01*
X-602000Y647390D02*
X-1077610Y647390D01*
%TD*%
M02*
