%TF.GenerationSoftware,KiCad,Pcbnew,9.0.6-9.0.6~ubuntu22.04.1*%
%TF.CreationDate,2026-01-23T17:02:09+00:00*%
%TF.ProjectId,vm_i2c_motion_sensor,766d5f69-3263-45f6-9d6f-74696f6e5f73,0.1*%
%TF.SameCoordinates,PX4bd12e0PY44300e0*%
%TF.FileFunction,Copper,L1,Top*%
%TF.FilePolarity,Positive*%
%FSLAX45Y45*%
G04 Gerber Fmt 4.5, Leading zero omitted, Abs format (unit mm)*
G04 Created by KiCad (PCBNEW 9.0.6-9.0.6~ubuntu22.04.1) date 2026-01-23 17:02:09*
%MOMM*%
%LPD*%
G01*
G04 APERTURE LIST*
G04 Aperture macros list*
%AMRoundRect*
0 Rectangle with rounded corners*
0 $1 Rounding radius*
0 $2 $3 $4 $5 $6 $7 $8 $9 X,Y pos of 4 corners*
0 Add a 4 corners polygon primitive as box body*
4,1,4,$2,$3,$4,$5,$6,$7,$8,$9,$2,$3,0*
0 Add four circle primitives for the rounded corners*
1,1,$1+$1,$2,$3*
1,1,$1+$1,$4,$5*
1,1,$1+$1,$6,$7*
1,1,$1+$1,$8,$9*
0 Add four rect primitives between the rounded corners*
20,1,$1+$1,$2,$3,$4,$5,0*
20,1,$1+$1,$4,$5,$6,$7,0*
20,1,$1+$1,$6,$7,$8,$9,0*
20,1,$1+$1,$8,$9,$2,$3,0*%
G04 Aperture macros list end*
%TA.AperFunction,SMDPad,CuDef*%
%ADD10R,0.900000X0.800000*%
%TD*%
%TA.AperFunction,SMDPad,CuDef*%
%ADD11C,0.125000*%
%TD*%
%TA.AperFunction,SMDPad,CuDef*%
%ADD12R,0.800000X0.900000*%
%TD*%
%TA.AperFunction,SMDPad,CuDef*%
%ADD13RoundRect,0.087500X-0.225000X-0.087500X0.225000X-0.087500X0.225000X0.087500X-0.225000X0.087500X0*%
%TD*%
%TA.AperFunction,SMDPad,CuDef*%
%ADD14RoundRect,0.087500X-0.087500X-0.225000X0.087500X-0.225000X0.087500X0.225000X-0.087500X0.225000X0*%
%TD*%
%TA.AperFunction,ViaPad*%
%ADD15C,0.600000*%
%TD*%
%TA.AperFunction,ViaPad*%
%ADD16C,0.450000*%
%TD*%
%TA.AperFunction,Conductor*%
%ADD17C,0.200000*%
%TD*%
G04 APERTURE END LIST*
D10*
%TO.P,C1,1*%
%TO.N,+3V3*%
X190000Y40000D03*
%TO.P,C1,2*%
%TO.N,GND*%
X190000Y180000D03*
%TD*%
D11*
%TO.P,GS2,1,GND*%
%TO.N,GND*%
X-300000Y50000D03*
%TD*%
%TO.P,GS1,1,+3V3*%
%TO.N,+3V3*%
X-300000Y-100000D03*
%TD*%
%TO.P,GS3,1,SCL*%
%TO.N,/SCL*%
X0Y300000D03*
%TD*%
%TO.P,GS4,1,SDA*%
%TO.N,/SDA*%
X-150000Y300000D03*
%TD*%
D12*
%TO.P,C2,1*%
%TO.N,+3V3*%
X-220000Y-200000D03*
%TO.P,C2,2*%
%TO.N,GND*%
X-80000Y-200000D03*
%TD*%
D13*
%TO.P,U1,1,SDO/SA0*%
%TO.N,GND*%
X-196250Y125000D03*
%TO.P,U1,2,SDX*%
X-196250Y75000D03*
%TO.P,U1,3,SCX*%
X-196250Y25000D03*
%TO.P,U1,4,INT1*%
%TO.N,unconnected-(U1-INT1-Pad4)*%
X-196250Y-25000D03*
D14*
%TO.P,U1,5,VDDIO*%
%TO.N,+3V3*%
X-130000Y-41250D03*
%TO.P,U1,6,GND*%
%TO.N,GND*%
X-80000Y-41250D03*
%TO.P,U1,7,GND*%
X-30000Y-41250D03*
D13*
%TO.P,U1,8,VDD*%
%TO.N,+3V3*%
X36250Y-25000D03*
%TO.P,U1,9,INT2*%
%TO.N,unconnected-(U1-INT2-Pad9)*%
X36250Y25000D03*
%TO.P,U1,10,NC*%
%TO.N,unconnected-(U1-NC-Pad10)*%
X36250Y75000D03*
%TO.P,U1,11,NC*%
%TO.N,unconnected-(U1-NC-Pad11)*%
X36250Y125000D03*
D14*
%TO.P,U1,12,CS*%
%TO.N,+3V3*%
X-30000Y141250D03*
%TO.P,U1,13,SCL*%
%TO.N,/SCL*%
X-80000Y141250D03*
%TO.P,U1,14,SDA*%
%TO.N,/SDA*%
X-130000Y141250D03*
%TD*%
D15*
%TO.N,GND*%
X12500Y-175100D03*
D16*
X-200000Y225000D03*
X116636Y205295D03*
%TD*%
D17*
%TO.N,GND*%
X-200000Y225000D02*
X-200000Y128750D01*
X12500Y-175100D02*
X-12400Y-200000D01*
X-270000Y50000D02*
X-245000Y75000D01*
X-80000Y-41250D02*
X-80000Y-4815D01*
X-200000Y128750D02*
X-196250Y125000D01*
X-196250Y25000D02*
X-196250Y75000D01*
X-196250Y125000D02*
X-196250Y75000D01*
X-300000Y50000D02*
X-270000Y50000D01*
X-245000Y75000D02*
X-196250Y75000D01*
X-12400Y-200000D02*
X-80000Y-200000D01*
X-30000Y-41250D02*
X-80000Y-41250D01*
X141931Y180000D02*
X116636Y205295D01*
X-109815Y25000D02*
X-196250Y25000D01*
X-80000Y-4815D02*
X-109815Y25000D01*
X190000Y180000D02*
X141931Y180000D01*
%TO.N,+3V3*%
X100000Y147685D02*
X100000Y40000D01*
X75185Y172500D02*
X100000Y147685D01*
X-30000Y141250D02*
X-30000Y172500D01*
X-130000Y-41250D02*
X-130000Y-100000D01*
X100000Y40000D02*
X100000Y-25000D01*
X-127400Y-102600D02*
X-130000Y-100000D01*
X-30000Y172500D02*
X75185Y172500D01*
X67400Y-102600D02*
X-127400Y-102600D01*
X-220000Y-200000D02*
X-130000Y-110000D01*
X100000Y-25000D02*
X100000Y-70000D01*
X100000Y40000D02*
X190000Y40000D01*
X-300000Y-100000D02*
X-130000Y-100000D01*
X36250Y-25000D02*
X100000Y-25000D01*
X-130000Y-110000D02*
X-130000Y-41250D01*
X100000Y-70000D02*
X67400Y-102600D01*
%TO.N,/SCL*%
X-80000Y180000D02*
X-80000Y141250D01*
X0Y300000D02*
X0Y260000D01*
X0Y260000D02*
X-80000Y180000D01*
%TO.N,/SDA*%
X-150000Y300000D02*
X-150000Y250000D01*
X-150000Y250000D02*
X-130000Y230000D01*
X-130000Y230000D02*
X-130000Y141250D01*
%TD*%
M02*
