%TF.GenerationSoftware,KiCad,Pcbnew,9.0.0*%
%TF.CreationDate,2025-03-28T14:33:02+00:00*%
%TF.ProjectId,vm_rotary_button_0.2,766d5f72-6f74-4617-9279-5f627574746f,v0.2*%
%TF.SameCoordinates,PX5742de0PY47868c0*%
%TF.FileFunction,Copper,L2,Bot*%
%TF.FilePolarity,Positive*%
%FSLAX45Y45*%
G04 Gerber Fmt 4.5, Leading zero omitted, Abs format (unit mm)*
G04 Created by KiCad (PCBNEW 9.0.0) date 2025-03-28 14:33:02*
%MOMM*%
%LPD*%
G01*
G04 APERTURE LIST*
G04 Aperture macros list*
%AMRoundRect*
0 Rectangle with rounded corners*
0 $1 Rounding radius*
0 $2 $3 $4 $5 $6 $7 $8 $9 X,Y pos of 4 corners*
0 Add a 4 corners polygon primitive as box body*
4,1,4,$2,$3,$4,$5,$6,$7,$8,$9,$2,$3,0*
0 Add four circle primitives for the rounded corners*
1,1,$1+$1,$2,$3*
1,1,$1+$1,$4,$5*
1,1,$1+$1,$6,$7*
1,1,$1+$1,$8,$9*
0 Add four rect primitives between the rounded corners*
20,1,$1+$1,$2,$3,$4,$5,0*
20,1,$1+$1,$4,$5,$6,$7,0*
20,1,$1+$1,$6,$7,$8,$9,0*
20,1,$1+$1,$8,$9,$2,$3,0*%
G04 Aperture macros list end*
%TA.AperFunction,ComponentPad*%
%ADD10RoundRect,0.172720X-0.259080X-0.259080X0.259080X-0.259080X0.259080X0.259080X-0.259080X0.259080X0*%
%TD*%
%TA.AperFunction,ComponentPad*%
%ADD11C,0.863600*%
%TD*%
%TA.AperFunction,ComponentPad*%
%ADD12O,2.900000X3.200000*%
%TD*%
%TA.AperFunction,ComponentPad*%
%ADD13C,1.700000*%
%TD*%
%TA.AperFunction,ViaPad*%
%ADD14C,0.450000*%
%TD*%
%TA.AperFunction,Conductor*%
%ADD15C,0.200000*%
%TD*%
G04 APERTURE END LIST*
D10*
%TO.P,J1,1,Vcc*%
%TO.N,+3V3*%
X-362500Y700000D03*
D11*
%TO.P,J1,2,SWDIO*%
%TO.N,/SWDIO*%
X-362500Y542520D03*
%TO.P,J1,3,GND*%
%TO.N,GND*%
X-489500Y700000D03*
%TO.P,J1,4,SWDCLK*%
%TO.N,/SWCLK*%
X-489500Y542520D03*
%TO.P,J1,5,~{RESET}*%
%TO.N,/nRESET*%
X-616500Y700000D03*
%TD*%
D12*
%TO.P,SW2,6,6*%
%TO.N,unconnected-(SW2-Pad6)*%
X1110100Y-45000D03*
%TO.P,SW2,7,7*%
%TO.N,unconnected-(SW2-Pad7)*%
X-14900Y-45000D03*
D13*
%TO.P,SW2,A,A*%
%TO.N,Net-(R11-Pad2)*%
X1102100Y-460000D03*
%TO.P,SW2,B,B*%
%TO.N,Net-(R10-Pad2)*%
X-7900Y-460000D03*
%TO.P,SW2,C,C*%
%TO.N,GND*%
X1102100Y370000D03*
%TO.P,SW2,D,D*%
%TO.N,/ROT_SW*%
X-47900Y300000D03*
%TO.P,SW2,E,E*%
%TO.N,GND*%
X547100Y-730000D03*
%TD*%
D14*
%TO.N,GND*%
X562100Y-560000D03*
X-1150000Y200000D03*
X-500000Y-450000D03*
X-1150000Y-575000D03*
X-525000Y-675000D03*
X-1150000Y-200000D03*
X92100Y410000D03*
X922100Y360000D03*
X392100Y690000D03*
%TO.N,+3V3*%
X-810000Y30000D03*
X-737500Y615800D03*
X-720000Y-600000D03*
%TO.N,/nRESET*%
X-650000Y-150000D03*
X-1200000Y650000D03*
%TD*%
D15*
%TO.N,+3V3*%
X-880000Y-440000D02*
X-880000Y-40000D01*
X-810000Y543300D02*
X-737500Y615800D01*
X-880000Y-40000D02*
X-810000Y30000D01*
X-720000Y-600000D02*
X-880000Y-440000D01*
X-810000Y30000D02*
X-810000Y543300D01*
%TO.N,/nRESET*%
X-667000Y-133000D02*
X-650000Y-150000D01*
X-1152610Y697390D02*
X-667000Y697390D01*
X-1200000Y650000D02*
X-1152610Y697390D01*
X-667000Y697390D02*
X-667000Y-133000D01*
%TD*%
%TA.AperFunction,Conductor*%
%TO.N,GND*%
G36*
X1297783Y822783D02*
G01*
X1299950Y817550D01*
X1299950Y-817550D01*
X1297783Y-822783D01*
X1292550Y-824950D01*
X659507Y-824950D01*
X654275Y-822783D01*
X652107Y-817550D01*
X653521Y-813200D01*
X662562Y-800756D01*
X662562Y-800755D01*
X672209Y-781822D01*
X672210Y-781822D01*
X678776Y-761614D01*
X678776Y-761612D01*
X682100Y-740625D01*
X682100Y-719375D01*
X678776Y-698388D01*
X678776Y-698386D01*
X672210Y-678178D01*
X672209Y-678178D01*
X662562Y-659245D01*
X662563Y-659245D01*
X658627Y-653828D01*
X597437Y-715018D01*
X596022Y-709736D01*
X589110Y-697765D01*
X579335Y-687990D01*
X567364Y-681079D01*
X562081Y-679663D01*
X623272Y-618473D01*
X617856Y-614538D01*
X617855Y-614538D01*
X598922Y-604891D01*
X598922Y-604890D01*
X578714Y-598324D01*
X578712Y-598324D01*
X557725Y-595000D01*
X536475Y-595000D01*
X515488Y-598324D01*
X515486Y-598324D01*
X495278Y-604890D01*
X476345Y-614537D01*
X470928Y-618473D01*
X532118Y-679663D01*
X526836Y-681079D01*
X514865Y-687990D01*
X505090Y-697765D01*
X498178Y-709736D01*
X496763Y-715018D01*
X435573Y-653828D01*
X431637Y-659245D01*
X421990Y-678179D01*
X415424Y-698386D01*
X415424Y-698388D01*
X412100Y-719375D01*
X412100Y-740625D01*
X415424Y-761612D01*
X415424Y-761614D01*
X421990Y-781822D01*
X421991Y-781822D01*
X431637Y-800755D01*
X431638Y-800756D01*
X440679Y-813200D01*
X442002Y-818708D01*
X439042Y-823537D01*
X434693Y-824950D01*
X-1292550Y-824950D01*
X-1297783Y-822783D01*
X-1299950Y-817550D01*
X-1299950Y655602D01*
X-1242550Y655602D01*
X-1242550Y644398D01*
X-1239651Y633577D01*
X-1239650Y633576D01*
X-1237922Y630582D01*
X-1234049Y623874D01*
X-1226126Y615952D01*
X-1216424Y610350D01*
X-1205602Y607450D01*
X-1205602Y607450D01*
X-1205602Y607450D01*
X-1194398Y607450D01*
X-1194398Y607450D01*
X-1183576Y610350D01*
X-1173874Y615952D01*
X-1165952Y623874D01*
X-1160350Y633576D01*
X-1157450Y644398D01*
X-1157450Y644398D01*
X-1157450Y646988D01*
X-1155283Y652220D01*
X-1142330Y665173D01*
X-1137098Y667340D01*
X-760947Y667340D01*
X-755715Y665173D01*
X-753547Y659940D01*
X-755715Y654707D01*
X-757247Y653531D01*
X-763626Y649849D01*
X-771548Y641926D01*
X-777150Y632224D01*
X-777150Y632223D01*
X-780050Y621402D01*
X-780050Y618812D01*
X-782217Y613580D01*
X-834046Y561751D01*
X-838002Y554899D01*
X-838002Y554899D01*
X-840050Y547257D01*
X-840050Y63190D01*
X-842217Y57957D01*
X-844048Y56126D01*
X-849650Y46424D01*
X-849650Y46423D01*
X-852550Y35602D01*
X-852550Y33012D01*
X-854717Y27780D01*
X-904046Y-21549D01*
X-908002Y-28401D01*
X-908002Y-28401D01*
X-910050Y-36044D01*
X-910050Y-443956D01*
X-908002Y-451598D01*
X-908002Y-451599D01*
X-904046Y-458451D01*
X-764717Y-597780D01*
X-762550Y-603012D01*
X-762550Y-605602D01*
X-759650Y-616423D01*
X-759650Y-616424D01*
X-759650Y-616424D01*
X-754048Y-626126D01*
X-746126Y-634049D01*
X-736424Y-639650D01*
X-725602Y-642550D01*
X-725602Y-642550D01*
X-725602Y-642550D01*
X-714398Y-642550D01*
X-714398Y-642550D01*
X-703576Y-639650D01*
X-693874Y-634049D01*
X-685952Y-626126D01*
X-680350Y-616424D01*
X-677450Y-605602D01*
X-677450Y-605602D01*
X-677450Y-594398D01*
X-677450Y-594398D01*
X-680350Y-583577D01*
X-680350Y-583576D01*
X-685952Y-573874D01*
X-693874Y-565952D01*
X-695435Y-565050D01*
X-703576Y-560350D01*
X-703577Y-560350D01*
X-714398Y-557450D01*
X-714398Y-557450D01*
X-716988Y-557450D01*
X-722220Y-555283D01*
X-827849Y-449653D01*
X-112950Y-449653D01*
X-112950Y-470346D01*
X-108913Y-490641D01*
X-108913Y-490642D01*
X-100994Y-509760D01*
X-89498Y-526966D01*
X-74866Y-541598D01*
X-57660Y-553094D01*
X-38542Y-561013D01*
X-18247Y-565050D01*
X-18246Y-565050D01*
X2446Y-565050D01*
X2447Y-565050D01*
X22742Y-561013D01*
X41860Y-553094D01*
X59065Y-541598D01*
X73698Y-526966D01*
X85194Y-509760D01*
X93113Y-490642D01*
X97150Y-470346D01*
X97150Y-449653D01*
X997050Y-449653D01*
X997050Y-470346D01*
X1001087Y-490641D01*
X1001087Y-490642D01*
X1009006Y-509760D01*
X1020502Y-526966D01*
X1035134Y-541598D01*
X1052340Y-553094D01*
X1071458Y-561013D01*
X1091754Y-565050D01*
X1091754Y-565050D01*
X1112446Y-565050D01*
X1112447Y-565050D01*
X1132742Y-561013D01*
X1151860Y-553094D01*
X1169066Y-541598D01*
X1183698Y-526966D01*
X1195194Y-509760D01*
X1203113Y-490642D01*
X1207150Y-470346D01*
X1207150Y-449653D01*
X1203113Y-429358D01*
X1195194Y-410240D01*
X1183698Y-393034D01*
X1169066Y-378402D01*
X1151860Y-366906D01*
X1132742Y-358987D01*
X1132741Y-358987D01*
X1117452Y-355945D01*
X1112447Y-354950D01*
X1091754Y-354950D01*
X1087739Y-355749D01*
X1071459Y-358987D01*
X1071458Y-358987D01*
X1052340Y-366906D01*
X1035134Y-378402D01*
X1035134Y-378402D01*
X1020502Y-393034D01*
X1020502Y-393034D01*
X1009006Y-410240D01*
X1001087Y-429358D01*
X1001087Y-429359D01*
X997050Y-449653D01*
X97150Y-449653D01*
X93113Y-429358D01*
X85194Y-410240D01*
X73698Y-393034D01*
X59065Y-378402D01*
X41860Y-366906D01*
X22742Y-358987D01*
X22741Y-358987D01*
X7452Y-355945D01*
X2447Y-354950D01*
X-18247Y-354950D01*
X-22261Y-355749D01*
X-38541Y-358987D01*
X-38542Y-358987D01*
X-57660Y-366906D01*
X-74866Y-378402D01*
X-74866Y-378402D01*
X-89498Y-393034D01*
X-89498Y-393034D01*
X-100994Y-410240D01*
X-108913Y-429358D01*
X-108913Y-429359D01*
X-112950Y-449653D01*
X-827849Y-449653D01*
X-847783Y-429720D01*
X-849950Y-424488D01*
X-849950Y-55512D01*
X-847783Y-50280D01*
X-812220Y-14717D01*
X-806988Y-12550D01*
X-804398Y-12550D01*
X-804398Y-12550D01*
X-793576Y-9650D01*
X-783874Y-4048D01*
X-775951Y3874D01*
X-770350Y13576D01*
X-767450Y24398D01*
X-767450Y24398D01*
X-767450Y35602D01*
X-767450Y35602D01*
X-770350Y46423D01*
X-770350Y46424D01*
X-775951Y56126D01*
X-777783Y57957D01*
X-779950Y63190D01*
X-779950Y527788D01*
X-777783Y533020D01*
X-739720Y571083D01*
X-734488Y573250D01*
X-731898Y573250D01*
X-731898Y573250D01*
X-721076Y576150D01*
X-711374Y581752D01*
X-709683Y583443D01*
X-704450Y585610D01*
X-699217Y583443D01*
X-697050Y578210D01*
X-697050Y-136956D01*
X-695002Y-144599D01*
X-695002Y-144599D01*
X-693542Y-147129D01*
X-692550Y-150829D01*
X-692550Y-155602D01*
X-689651Y-166423D01*
X-689650Y-166424D01*
X-689650Y-166424D01*
X-684049Y-176126D01*
X-676126Y-184048D01*
X-666424Y-189650D01*
X-655602Y-192550D01*
X-655602Y-192550D01*
X-655602Y-192550D01*
X-644398Y-192550D01*
X-644398Y-192550D01*
X-633576Y-189650D01*
X-623874Y-184048D01*
X-615952Y-176126D01*
X-610350Y-166424D01*
X-607450Y-155602D01*
X-607450Y-155602D01*
X-607450Y-144398D01*
X-607450Y-144398D01*
X-610350Y-133577D01*
X-610350Y-133576D01*
X-615952Y-123874D01*
X-623874Y-115951D01*
X-629232Y-112858D01*
X-633250Y-110538D01*
X-636698Y-106045D01*
X-636950Y-104129D01*
X-636950Y-17010D01*
X-179950Y-17010D01*
X-179950Y-72990D01*
X-175886Y-98649D01*
X-175886Y-98650D01*
X-167858Y-123357D01*
X-167858Y-123357D01*
X-156064Y-146505D01*
X-156063Y-146505D01*
X-140794Y-167522D01*
X-140793Y-167523D01*
X-122423Y-185893D01*
X-122423Y-185893D01*
X-122422Y-185893D01*
X-113260Y-192550D01*
X-101405Y-201163D01*
X-78257Y-212958D01*
X-78257Y-212958D01*
X-78257Y-212958D01*
X-53550Y-220986D01*
X-53550Y-220986D01*
X-53549Y-220986D01*
X-36443Y-223695D01*
X-27890Y-225050D01*
X-27890Y-225050D01*
X-1910Y-225050D01*
X4505Y-224034D01*
X23749Y-220986D01*
X23750Y-220986D01*
X23750Y-220986D01*
X34967Y-217341D01*
X48457Y-212958D01*
X71605Y-201163D01*
X92623Y-185893D01*
X110993Y-167523D01*
X126263Y-146505D01*
X138058Y-123357D01*
X146086Y-98649D01*
X150150Y-72990D01*
X150150Y-17010D01*
X150150Y-17010D01*
X945050Y-17010D01*
X945050Y-72990D01*
X949114Y-98649D01*
X949114Y-98650D01*
X957142Y-123357D01*
X957142Y-123357D01*
X968936Y-146505D01*
X968937Y-146505D01*
X984206Y-167522D01*
X984207Y-167523D01*
X1002577Y-185893D01*
X1002577Y-185893D01*
X1002577Y-185893D01*
X1011739Y-192550D01*
X1023595Y-201163D01*
X1046743Y-212958D01*
X1046743Y-212958D01*
X1046743Y-212958D01*
X1071450Y-220986D01*
X1071450Y-220986D01*
X1071451Y-220986D01*
X1088557Y-223695D01*
X1097110Y-225050D01*
X1097110Y-225050D01*
X1123090Y-225050D01*
X1129505Y-224034D01*
X1148749Y-220986D01*
X1148750Y-220986D01*
X1148750Y-220986D01*
X1159967Y-217341D01*
X1173457Y-212958D01*
X1196605Y-201163D01*
X1217623Y-185893D01*
X1235993Y-167523D01*
X1251263Y-146505D01*
X1263058Y-123357D01*
X1271086Y-98649D01*
X1275150Y-72990D01*
X1275150Y-17010D01*
X1274787Y-14717D01*
X1273097Y-4048D01*
X1271086Y8649D01*
X1271086Y8650D01*
X1271086Y8650D01*
X1263058Y33357D01*
X1263058Y33357D01*
X1261914Y35602D01*
X1251263Y56505D01*
X1250208Y57957D01*
X1235993Y77523D01*
X1235993Y77523D01*
X1235993Y77523D01*
X1217623Y95893D01*
X1217623Y95893D01*
X1217622Y95893D01*
X1196605Y111163D01*
X1196605Y111164D01*
X1173457Y122958D01*
X1173457Y122958D01*
X1148750Y130986D01*
X1148749Y130986D01*
X1123090Y135050D01*
X1123090Y135050D01*
X1097110Y135050D01*
X1097110Y135050D01*
X1071451Y130986D01*
X1071450Y130986D01*
X1046743Y122958D01*
X1046743Y122958D01*
X1023595Y111164D01*
X1023595Y111163D01*
X1002577Y95893D01*
X984206Y77523D01*
X968937Y56505D01*
X968936Y56505D01*
X957142Y33357D01*
X957142Y33357D01*
X949114Y8650D01*
X949114Y8649D01*
X945050Y-17010D01*
X150150Y-17010D01*
X149787Y-14717D01*
X148097Y-4048D01*
X146086Y8649D01*
X146086Y8650D01*
X146086Y8650D01*
X138058Y33357D01*
X138058Y33357D01*
X136914Y35602D01*
X126263Y56505D01*
X125208Y57957D01*
X110993Y77523D01*
X110993Y77523D01*
X110993Y77523D01*
X92623Y95893D01*
X92623Y95893D01*
X92622Y95893D01*
X71605Y111163D01*
X71605Y111164D01*
X48457Y122958D01*
X48457Y122958D01*
X23750Y130986D01*
X23749Y130986D01*
X-1910Y135050D01*
X-1910Y135050D01*
X-27890Y135050D01*
X-27890Y135050D01*
X-53549Y130986D01*
X-53550Y130986D01*
X-78257Y122958D01*
X-78257Y122958D01*
X-101405Y111164D01*
X-101405Y111163D01*
X-122422Y95893D01*
X-140794Y77523D01*
X-156063Y56505D01*
X-156064Y56505D01*
X-167858Y33357D01*
X-167858Y33357D01*
X-175886Y8650D01*
X-175886Y8649D01*
X-179950Y-17010D01*
X-636950Y-17010D01*
X-636950Y310347D01*
X-152950Y310347D01*
X-152950Y289654D01*
X-148913Y269359D01*
X-148913Y269358D01*
X-140994Y250240D01*
X-133032Y238324D01*
X-129498Y233034D01*
X-114865Y218402D01*
X-97660Y206906D01*
X-78542Y198987D01*
X-58246Y194950D01*
X-58246Y194950D01*
X-37554Y194950D01*
X-37554Y194950D01*
X-17258Y198987D01*
X1860Y206906D01*
X19066Y218402D01*
X33698Y233034D01*
X45194Y250240D01*
X53113Y269358D01*
X57150Y289654D01*
X57150Y310347D01*
X53113Y330642D01*
X45194Y349760D01*
X33698Y366965D01*
X20038Y380625D01*
X967100Y380625D01*
X967100Y359375D01*
X970424Y338388D01*
X970424Y338386D01*
X976990Y318178D01*
X976991Y318178D01*
X986637Y299245D01*
X986638Y299244D01*
X990573Y293828D01*
X1051763Y355019D01*
X1053179Y349736D01*
X1060090Y337765D01*
X1069865Y327990D01*
X1081836Y321079D01*
X1087118Y319663D01*
X1025928Y258473D01*
X1031345Y254538D01*
X1050278Y244891D01*
X1050278Y244890D01*
X1070486Y238324D01*
X1070488Y238324D01*
X1091475Y235000D01*
X1112725Y235000D01*
X1133712Y238324D01*
X1133714Y238324D01*
X1153922Y244890D01*
X1153922Y244891D01*
X1172855Y254538D01*
X1172856Y254538D01*
X1178272Y258473D01*
X1178272Y258473D01*
X1117082Y319663D01*
X1122364Y321079D01*
X1134335Y327990D01*
X1144110Y337765D01*
X1151022Y349736D01*
X1152437Y355018D01*
X1213627Y293828D01*
X1213627Y293828D01*
X1217562Y299244D01*
X1217562Y299245D01*
X1227209Y318178D01*
X1227210Y318178D01*
X1233776Y338386D01*
X1233776Y338388D01*
X1237100Y359375D01*
X1237100Y380625D01*
X1233776Y401612D01*
X1233776Y401614D01*
X1227210Y421822D01*
X1227209Y421822D01*
X1217562Y440755D01*
X1217563Y440755D01*
X1213627Y446172D01*
X1152437Y384982D01*
X1151022Y390264D01*
X1144110Y402235D01*
X1134335Y412010D01*
X1122364Y418921D01*
X1117081Y420337D01*
X1178272Y481527D01*
X1172856Y485462D01*
X1172855Y485462D01*
X1153922Y495109D01*
X1153922Y495110D01*
X1133714Y501676D01*
X1133712Y501676D01*
X1112725Y505000D01*
X1091475Y505000D01*
X1070488Y501676D01*
X1070486Y501676D01*
X1050279Y495110D01*
X1031345Y485463D01*
X1025928Y481527D01*
X1087118Y420337D01*
X1081836Y418921D01*
X1069865Y412010D01*
X1060090Y402235D01*
X1053179Y390264D01*
X1051763Y384982D01*
X990573Y446172D01*
X986637Y440755D01*
X976990Y421821D01*
X970424Y401614D01*
X970424Y401612D01*
X967100Y380625D01*
X20038Y380625D01*
X19066Y381598D01*
X1860Y393094D01*
X-17258Y401013D01*
X-17259Y401013D01*
X-32548Y404054D01*
X-37554Y405050D01*
X-58246Y405050D01*
X-62261Y404251D01*
X-78541Y401013D01*
X-78542Y401013D01*
X-97660Y393094D01*
X-114865Y381598D01*
X-114866Y381598D01*
X-129498Y366966D01*
X-129498Y366965D01*
X-140994Y349760D01*
X-148913Y330642D01*
X-148913Y330641D01*
X-152950Y310347D01*
X-636950Y310347D01*
X-636950Y548748D01*
X-552730Y548748D01*
X-552730Y536293D01*
X-550300Y524077D01*
X-550300Y524076D01*
X-545534Y512570D01*
X-540476Y505000D01*
X-538614Y502213D01*
X-529807Y493406D01*
X-519451Y486486D01*
X-519450Y486486D01*
X-519450Y486486D01*
X-516978Y485462D01*
X-507943Y481720D01*
X-495728Y479290D01*
X-495727Y479290D01*
X-483272Y479290D01*
X-483272Y479290D01*
X-471056Y481720D01*
X-459549Y486486D01*
X-449193Y493406D01*
X-440386Y502213D01*
X-433466Y512569D01*
X-432837Y514089D01*
X-428832Y518094D01*
X-423168Y518094D01*
X-419163Y514090D01*
X-418534Y512570D01*
X-418534Y512569D01*
X-413476Y505000D01*
X-411614Y502213D01*
X-402807Y493406D01*
X-392451Y486486D01*
X-392450Y486486D01*
X-392450Y486486D01*
X-389978Y485462D01*
X-380943Y481720D01*
X-368728Y479290D01*
X-368727Y479290D01*
X-356272Y479290D01*
X-356272Y479290D01*
X-344057Y481720D01*
X-332549Y486486D01*
X-322193Y493406D01*
X-313386Y502213D01*
X-306466Y512569D01*
X-301700Y524076D01*
X-299270Y536292D01*
X-299270Y548748D01*
X-301700Y560964D01*
X-302026Y561751D01*
X-306466Y572470D01*
X-313386Y582826D01*
X-313386Y582827D01*
X-322193Y591634D01*
X-332549Y598554D01*
X-332550Y598554D01*
X-332550Y598554D01*
X-344056Y603320D01*
X-344057Y603320D01*
X-353260Y605151D01*
X-356272Y605750D01*
X-368728Y605750D01*
X-371144Y605269D01*
X-380943Y603320D01*
X-380944Y603320D01*
X-392450Y598554D01*
X-402806Y591634D01*
X-411614Y582826D01*
X-418534Y572471D01*
X-419163Y570951D01*
X-423168Y566946D01*
X-428832Y566946D01*
X-432837Y570951D01*
X-433466Y572471D01*
X-440386Y582826D01*
X-440386Y582827D01*
X-449193Y591634D01*
X-459549Y598554D01*
X-459549Y598554D01*
X-459852Y598756D01*
X-459765Y598885D01*
X-463041Y602878D01*
X-462486Y608515D01*
X-458792Y611863D01*
X-445363Y617425D01*
X-443515Y618660D01*
X-443515Y618660D01*
X-489500Y664645D01*
X-535485Y618660D01*
X-535485Y618660D01*
X-533638Y617425D01*
X-520208Y611863D01*
X-516204Y607858D01*
X-516204Y602194D01*
X-519221Y598864D01*
X-519148Y598756D01*
X-529806Y591634D01*
X-538614Y582826D01*
X-545534Y572470D01*
X-550300Y560964D01*
X-550300Y560963D01*
X-552730Y548748D01*
X-636950Y548748D01*
X-636950Y630582D01*
X-634783Y635815D01*
X-629550Y637982D01*
X-628106Y637840D01*
X-628042Y637827D01*
X-622728Y636770D01*
X-622728Y636770D01*
X-610273Y636770D01*
X-610272Y636770D01*
X-598057Y639200D01*
X-586549Y643966D01*
X-576193Y650886D01*
X-575340Y651739D01*
X-571543Y653312D01*
X-524855Y700000D01*
X-524855Y700000D01*
X-528534Y703678D01*
X-517440Y703678D01*
X-517440Y696322D01*
X-515536Y689216D01*
X-511858Y682844D01*
X-506656Y677642D01*
X-500284Y673964D01*
X-493178Y672060D01*
X-485822Y672060D01*
X-478716Y673964D01*
X-472344Y677642D01*
X-467142Y682844D01*
X-463464Y689216D01*
X-461560Y696322D01*
X-461560Y700000D01*
X-454145Y700000D01*
X-427643Y673498D01*
X-425553Y669333D01*
X-424673Y663295D01*
X-419900Y653531D01*
X-419202Y652105D01*
X-410395Y643298D01*
X-399205Y637827D01*
X-391950Y636770D01*
X-391950Y636770D01*
X-333050Y636770D01*
X-333050Y636770D01*
X-325795Y637827D01*
X-314605Y643298D01*
X-305798Y652105D01*
X-300327Y663295D01*
X-299270Y670550D01*
X-299270Y729450D01*
X-300327Y736705D01*
X-305798Y747895D01*
X-314605Y756702D01*
X-325795Y762173D01*
X-333049Y763230D01*
X-333050Y763230D01*
X-391950Y763230D01*
X-391951Y763230D01*
X-399205Y762173D01*
X-410395Y756702D01*
X-419202Y747895D01*
X-424673Y736705D01*
X-425553Y730668D01*
X-427643Y726502D01*
X-454145Y700000D01*
X-461560Y700000D01*
X-461560Y703678D01*
X-463464Y710784D01*
X-467142Y717156D01*
X-472344Y722358D01*
X-478716Y726036D01*
X-485822Y727940D01*
X-493178Y727940D01*
X-500284Y726036D01*
X-506656Y722358D01*
X-511858Y717156D01*
X-515536Y710784D01*
X-517440Y703678D01*
X-528534Y703678D01*
X-571682Y746826D01*
X-574802Y747773D01*
X-575339Y748260D01*
X-576193Y749114D01*
X-586549Y756034D01*
X-586550Y756034D01*
X-586550Y756034D01*
X-598056Y760800D01*
X-598057Y760800D01*
X-607260Y762631D01*
X-610272Y763230D01*
X-622728Y763230D01*
X-625144Y762749D01*
X-634943Y760800D01*
X-634944Y760800D01*
X-646450Y756034D01*
X-656806Y749114D01*
X-665614Y740306D01*
X-672014Y730729D01*
X-676723Y727582D01*
X-678167Y727440D01*
X-1156566Y727440D01*
X-1164209Y725392D01*
X-1164209Y725392D01*
X-1171061Y721436D01*
X-1197780Y694717D01*
X-1203012Y692550D01*
X-1205602Y692550D01*
X-1216423Y689651D01*
X-1216424Y689650D01*
X-1226126Y684049D01*
X-1234049Y676126D01*
X-1239650Y666424D01*
X-1239651Y666423D01*
X-1242550Y655602D01*
X-1299950Y655602D01*
X-1299950Y781341D01*
X-535485Y781341D01*
X-489500Y735355D01*
X-443515Y781340D01*
X-445363Y782575D01*
X-462320Y789599D01*
X-462321Y789599D01*
X-480323Y793180D01*
X-498677Y793180D01*
X-516679Y789599D01*
X-516680Y789599D01*
X-533638Y782575D01*
X-535485Y781341D01*
X-1299950Y781341D01*
X-1299950Y817550D01*
X-1297783Y822783D01*
X-1292550Y824950D01*
X1292550Y824950D01*
X1297783Y822783D01*
G37*
%TD.AperFunction*%
%TD*%
M02*
