%TF.GenerationSoftware,KiCad,Pcbnew,9.0.6-9.0.6~ubuntu22.04.1*%
%TF.CreationDate,2026-01-23T17:02:44+00:00*%
%TF.ProjectId,vm_keycap_button,766d5f6b-6579-4636-9170-5f627574746f,0.4*%
%TF.SameCoordinates,PX5742de0PY47868c0*%
%TF.FileFunction,Paste,Top*%
%TF.FilePolarity,Positive*%
%FSLAX45Y45*%
G04 Gerber Fmt 4.5, Leading zero omitted, Abs format (unit mm)*
G04 Created by KiCad (PCBNEW 9.0.6-9.0.6~ubuntu22.04.1) date 2026-01-23 17:02:44*
%MOMM*%
%LPD*%
G01*
G04 APERTURE LIST*
%ADD10R,0.860000X0.810000*%
%ADD11R,0.700000X1.000000*%
%ADD12R,0.800000X0.800000*%
%ADD13R,0.800000X0.900000*%
%ADD14O,0.360000X1.740000*%
%ADD15R,1.230000X1.360000*%
%ADD16R,0.810000X0.860000*%
%ADD17R,0.750000X1.000000*%
G04 APERTURE END LIST*
D10*
%TO.C,R7*%
X-920000Y525000D03*
X-920000Y675000D03*
%TD*%
D11*
%TO.C,U2*%
X-1065000Y120000D03*
X-1160000Y120000D03*
X-1255000Y120000D03*
X-1255000Y-120000D03*
X-1065000Y-120000D03*
%TD*%
D12*
%TO.C,D1*%
X-1055000Y-520000D03*
X-1225000Y-520000D03*
%TD*%
D10*
%TO.C,R6*%
X-1080000Y525000D03*
X-1080000Y675000D03*
%TD*%
D13*
%TO.C,C3*%
X-1070000Y-260000D03*
X-1210000Y-260000D03*
%TD*%
D14*
%TO.C,U1*%
X-941000Y-287000D03*
X-876000Y-287000D03*
X-811000Y-287000D03*
X-746000Y-287000D03*
X-680000Y-287000D03*
X-615000Y-287000D03*
X-550000Y-287000D03*
X-485000Y-287000D03*
X-420000Y-287000D03*
X-355000Y-287000D03*
X-355000Y287000D03*
X-420000Y287000D03*
X-485000Y287000D03*
X-550000Y287000D03*
X-615000Y287000D03*
X-680000Y287000D03*
X-746000Y287000D03*
X-811000Y287000D03*
X-876000Y287000D03*
X-941000Y287000D03*
%TD*%
D15*
%TO.C,SW1*%
X-430000Y-680000D03*
X-866000Y-680000D03*
%TD*%
D16*
%TO.C,R5*%
X-1055000Y390000D03*
X-1205000Y390000D03*
%TD*%
D13*
%TO.C,C1*%
X-720000Y-460000D03*
X-580000Y-460000D03*
%TD*%
%TO.C,C2*%
X-1060000Y260000D03*
X-1200000Y260000D03*
%TD*%
D16*
%TO.C,R1*%
X-1065000Y-390000D03*
X-1215000Y-390000D03*
%TD*%
D17*
%TO.C,D2*%
X-1250000Y757000D03*
X-1250000Y523000D03*
%TD*%
M02*
