%TF.GenerationSoftware,KiCad,Pcbnew,8.0.8*%
%TF.CreationDate,2025-02-14T13:18:34+00:00*%
%TF.ProjectId,jacdac_ground_mh_0.1,6a616364-6163-45f6-9772-6f756e645f6d,v0.1*%
%TF.SameCoordinates,PX8d24d00PY36d6160*%
%TF.FileFunction,Legend,Top*%
%TF.FilePolarity,Positive*%
%FSLAX46Y46*%
G04 Gerber Fmt 4.6, Leading zero omitted, Abs format (unit mm)*
G04 Created by KiCad (PCBNEW 8.0.8) date 2025-02-14 13:18:34*
%MOMM*%
%LPD*%
G01*
G04 APERTURE LIST*
%ADD10C,0.010000*%
G04 APERTURE END LIST*
D10*
%TO.C,MH2*%
X-1060893Y-2272534D02*
X-1035441Y-2280269D01*
X-1013010Y-2289464D01*
X-892491Y-2338908D01*
X-768202Y-2382190D01*
X-639560Y-2419490D01*
X-505983Y-2450990D01*
X-475302Y-2457274D01*
X-440619Y-2464375D01*
X-412238Y-2470687D01*
X-388620Y-2476659D01*
X-368225Y-2482736D01*
X-349516Y-2489365D01*
X-330954Y-2496995D01*
X-317116Y-2503219D01*
X-264135Y-2531958D01*
X-215068Y-2567103D01*
X-170484Y-2607925D01*
X-130955Y-2653696D01*
X-97055Y-2703688D01*
X-69352Y-2757172D01*
X-48418Y-2813419D01*
X-36771Y-2860739D01*
X-28647Y-2923498D01*
X-28110Y-2985127D01*
X-34834Y-3045142D01*
X-48493Y-3103058D01*
X-68763Y-3158387D01*
X-95318Y-3210647D01*
X-127834Y-3259349D01*
X-165984Y-3304009D01*
X-209444Y-3344145D01*
X-257889Y-3379266D01*
X-310993Y-3408890D01*
X-368431Y-3432531D01*
X-429878Y-3449703D01*
X-431588Y-3450072D01*
X-449270Y-3453254D01*
X-468512Y-3455378D01*
X-491211Y-3456575D01*
X-519259Y-3456976D01*
X-530807Y-3456954D01*
X-552492Y-3456577D01*
X-573455Y-3455573D01*
X-594698Y-3453780D01*
X-617226Y-3451037D01*
X-642043Y-3447182D01*
X-670153Y-3442053D01*
X-702560Y-3435490D01*
X-740267Y-3427330D01*
X-784280Y-3417411D01*
X-802666Y-3413192D01*
X-916079Y-3384680D01*
X-1032258Y-3350885D01*
X-1149346Y-3312474D01*
X-1265487Y-3270114D01*
X-1378824Y-3224472D01*
X-1487500Y-3176213D01*
X-1558669Y-3141803D01*
X-1586196Y-3127318D01*
X-1607227Y-3114524D01*
X-1622799Y-3102610D01*
X-1633951Y-3090768D01*
X-1641720Y-3078188D01*
X-1642593Y-3076331D01*
X-1648568Y-3058297D01*
X-1648516Y-3041473D01*
X-1644561Y-3027232D01*
X-1633707Y-3007520D01*
X-1615385Y-2987273D01*
X-1590006Y-2966928D01*
X-1585220Y-2963627D01*
X-1511988Y-2909553D01*
X-1444520Y-2850349D01*
X-1383058Y-2786308D01*
X-1327842Y-2717722D01*
X-1279116Y-2644886D01*
X-1237121Y-2568090D01*
X-1211613Y-2511540D01*
X-1199268Y-2480349D01*
X-1188048Y-2448956D01*
X-1177298Y-2415335D01*
X-1166361Y-2377458D01*
X-1157506Y-2344520D01*
X-1152193Y-2326277D01*
X-1146778Y-2313228D01*
X-1139939Y-2302728D01*
X-1132486Y-2294308D01*
X-1116923Y-2280868D01*
X-1100536Y-2272789D01*
X-1082225Y-2270026D01*
X-1060893Y-2272534D01*
G36*
X-1060893Y-2272534D02*
G01*
X-1035441Y-2280269D01*
X-1013010Y-2289464D01*
X-892491Y-2338908D01*
X-768202Y-2382190D01*
X-639560Y-2419490D01*
X-505983Y-2450990D01*
X-475302Y-2457274D01*
X-440619Y-2464375D01*
X-412238Y-2470687D01*
X-388620Y-2476659D01*
X-368225Y-2482736D01*
X-349516Y-2489365D01*
X-330954Y-2496995D01*
X-317116Y-2503219D01*
X-264135Y-2531958D01*
X-215068Y-2567103D01*
X-170484Y-2607925D01*
X-130955Y-2653696D01*
X-97055Y-2703688D01*
X-69352Y-2757172D01*
X-48418Y-2813419D01*
X-36771Y-2860739D01*
X-28647Y-2923498D01*
X-28110Y-2985127D01*
X-34834Y-3045142D01*
X-48493Y-3103058D01*
X-68763Y-3158387D01*
X-95318Y-3210647D01*
X-127834Y-3259349D01*
X-165984Y-3304009D01*
X-209444Y-3344145D01*
X-257889Y-3379266D01*
X-310993Y-3408890D01*
X-368431Y-3432531D01*
X-429878Y-3449703D01*
X-431588Y-3450072D01*
X-449270Y-3453254D01*
X-468512Y-3455378D01*
X-491211Y-3456575D01*
X-519259Y-3456976D01*
X-530807Y-3456954D01*
X-552492Y-3456577D01*
X-573455Y-3455573D01*
X-594698Y-3453780D01*
X-617226Y-3451037D01*
X-642043Y-3447182D01*
X-670153Y-3442053D01*
X-702560Y-3435490D01*
X-740267Y-3427330D01*
X-784280Y-3417411D01*
X-802666Y-3413192D01*
X-916079Y-3384680D01*
X-1032258Y-3350885D01*
X-1149346Y-3312474D01*
X-1265487Y-3270114D01*
X-1378824Y-3224472D01*
X-1487500Y-3176213D01*
X-1558669Y-3141803D01*
X-1586196Y-3127318D01*
X-1607227Y-3114524D01*
X-1622799Y-3102610D01*
X-1633951Y-3090768D01*
X-1641720Y-3078188D01*
X-1642593Y-3076331D01*
X-1648568Y-3058297D01*
X-1648516Y-3041473D01*
X-1644561Y-3027232D01*
X-1633707Y-3007520D01*
X-1615385Y-2987273D01*
X-1590006Y-2966928D01*
X-1585220Y-2963627D01*
X-1511988Y-2909553D01*
X-1444520Y-2850349D01*
X-1383058Y-2786308D01*
X-1327842Y-2717722D01*
X-1279116Y-2644886D01*
X-1237121Y-2568090D01*
X-1211613Y-2511540D01*
X-1199268Y-2480349D01*
X-1188048Y-2448956D01*
X-1177298Y-2415335D01*
X-1166361Y-2377458D01*
X-1157506Y-2344520D01*
X-1152193Y-2326277D01*
X-1146778Y-2313228D01*
X-1139939Y-2302728D01*
X-1132486Y-2294308D01*
X-1116923Y-2280868D01*
X-1100536Y-2272789D01*
X-1082225Y-2270026D01*
X-1060893Y-2272534D01*
G37*
X-2390874Y-1730074D02*
X-2384007Y-1730673D01*
X-2377428Y-1731715D01*
X-2370782Y-1733512D01*
X-2363711Y-1736378D01*
X-2355858Y-1740625D01*
X-2346866Y-1746564D01*
X-2336377Y-1754509D01*
X-2324034Y-1764773D01*
X-2309481Y-1777666D01*
X-2292360Y-1793503D01*
X-2272313Y-1812595D01*
X-2248984Y-1835255D01*
X-2222016Y-1861794D01*
X-2191051Y-1892527D01*
X-2155732Y-1927767D01*
X-2115702Y-1967823D01*
X-2070603Y-2013009D01*
X-2044352Y-2039317D01*
X-1997898Y-2085878D01*
X-1956732Y-2127174D01*
X-1920524Y-2163549D01*
X-1888944Y-2195352D01*
X-1861666Y-2222924D01*
X-1838360Y-2246612D01*
X-1818699Y-2266762D01*
X-1802354Y-2283718D01*
X-1788995Y-2297826D01*
X-1778296Y-2309432D01*
X-1769927Y-2318881D01*
X-1763561Y-2326518D01*
X-1758868Y-2332688D01*
X-1755521Y-2337737D01*
X-1753190Y-2342010D01*
X-1751549Y-2345853D01*
X-1750779Y-2348031D01*
X-1744059Y-2379563D01*
X-1744664Y-2410473D01*
X-1752197Y-2439694D01*
X-1766258Y-2466162D01*
X-1786449Y-2488810D01*
X-1809463Y-2505010D01*
X-1820277Y-2510595D01*
X-1829789Y-2514059D01*
X-1840505Y-2515897D01*
X-1854928Y-2516609D01*
X-1868276Y-2516703D01*
X-1887816Y-2516359D01*
X-1901998Y-2515046D01*
X-1913380Y-2512340D01*
X-1924523Y-2507820D01*
X-1925823Y-2507203D01*
X-1930252Y-2504539D01*
X-1936584Y-2499777D01*
X-1945119Y-2492626D01*
X-1956157Y-2482798D01*
X-1970000Y-2470000D01*
X-1986951Y-2453943D01*
X-2007309Y-2434334D01*
X-2031378Y-2410884D01*
X-2059457Y-2383303D01*
X-2091849Y-2351298D01*
X-2128854Y-2314581D01*
X-2170775Y-2272859D01*
X-2217913Y-2225843D01*
X-2228270Y-2215501D01*
X-2275087Y-2168727D01*
X-2316592Y-2127202D01*
X-2353112Y-2090587D01*
X-2384972Y-2058541D01*
X-2412498Y-2030728D01*
X-2436017Y-2006807D01*
X-2455855Y-1986439D01*
X-2472335Y-1969286D01*
X-2485787Y-1955008D01*
X-2496535Y-1943266D01*
X-2504906Y-1933722D01*
X-2511225Y-1926036D01*
X-2515818Y-1919870D01*
X-2519012Y-1914884D01*
X-2520959Y-1911128D01*
X-2529484Y-1885564D01*
X-2533212Y-1858467D01*
X-2531835Y-1832856D01*
X-2529834Y-1823876D01*
X-2517594Y-1793848D01*
X-2499692Y-1768870D01*
X-2476915Y-1749505D01*
X-2450051Y-1736320D01*
X-2419888Y-1729878D01*
X-2398389Y-1729606D01*
X-2390874Y-1730074D01*
G36*
X-2390874Y-1730074D02*
G01*
X-2384007Y-1730673D01*
X-2377428Y-1731715D01*
X-2370782Y-1733512D01*
X-2363711Y-1736378D01*
X-2355858Y-1740625D01*
X-2346866Y-1746564D01*
X-2336377Y-1754509D01*
X-2324034Y-1764773D01*
X-2309481Y-1777666D01*
X-2292360Y-1793503D01*
X-2272313Y-1812595D01*
X-2248984Y-1835255D01*
X-2222016Y-1861794D01*
X-2191051Y-1892527D01*
X-2155732Y-1927767D01*
X-2115702Y-1967823D01*
X-2070603Y-2013009D01*
X-2044352Y-2039317D01*
X-1997898Y-2085878D01*
X-1956732Y-2127174D01*
X-1920524Y-2163549D01*
X-1888944Y-2195352D01*
X-1861666Y-2222924D01*
X-1838360Y-2246612D01*
X-1818699Y-2266762D01*
X-1802354Y-2283718D01*
X-1788995Y-2297826D01*
X-1778296Y-2309432D01*
X-1769927Y-2318881D01*
X-1763561Y-2326518D01*
X-1758868Y-2332688D01*
X-1755521Y-2337737D01*
X-1753190Y-2342010D01*
X-1751549Y-2345853D01*
X-1750779Y-2348031D01*
X-1744059Y-2379563D01*
X-1744664Y-2410473D01*
X-1752197Y-2439694D01*
X-1766258Y-2466162D01*
X-1786449Y-2488810D01*
X-1809463Y-2505010D01*
X-1820277Y-2510595D01*
X-1829789Y-2514059D01*
X-1840505Y-2515897D01*
X-1854928Y-2516609D01*
X-1868276Y-2516703D01*
X-1887816Y-2516359D01*
X-1901998Y-2515046D01*
X-1913380Y-2512340D01*
X-1924523Y-2507820D01*
X-1925823Y-2507203D01*
X-1930252Y-2504539D01*
X-1936584Y-2499777D01*
X-1945119Y-2492626D01*
X-1956157Y-2482798D01*
X-1970000Y-2470000D01*
X-1986951Y-2453943D01*
X-2007309Y-2434334D01*
X-2031378Y-2410884D01*
X-2059457Y-2383303D01*
X-2091849Y-2351298D01*
X-2128854Y-2314581D01*
X-2170775Y-2272859D01*
X-2217913Y-2225843D01*
X-2228270Y-2215501D01*
X-2275087Y-2168727D01*
X-2316592Y-2127202D01*
X-2353112Y-2090587D01*
X-2384972Y-2058541D01*
X-2412498Y-2030728D01*
X-2436017Y-2006807D01*
X-2455855Y-1986439D01*
X-2472335Y-1969286D01*
X-2485787Y-1955008D01*
X-2496535Y-1943266D01*
X-2504906Y-1933722D01*
X-2511225Y-1926036D01*
X-2515818Y-1919870D01*
X-2519012Y-1914884D01*
X-2520959Y-1911128D01*
X-2529484Y-1885564D01*
X-2533212Y-1858467D01*
X-2531835Y-1832856D01*
X-2529834Y-1823876D01*
X-2517594Y-1793848D01*
X-2499692Y-1768870D01*
X-2476915Y-1749505D01*
X-2450051Y-1736320D01*
X-2419888Y-1729878D01*
X-2398389Y-1729606D01*
X-2390874Y-1730074D01*
G37*
X-2924145Y-24393D02*
X-2864527Y-32088D01*
X-2806733Y-46900D01*
X-2802916Y-48162D01*
X-2746858Y-71076D01*
X-2693909Y-100876D01*
X-2644753Y-136891D01*
X-2600079Y-178455D01*
X-2560572Y-224897D01*
X-2526919Y-275550D01*
X-2499806Y-329746D01*
X-2491132Y-351755D01*
X-2486582Y-366044D01*
X-2481051Y-386266D01*
X-2475004Y-410550D01*
X-2468907Y-437026D01*
X-2463226Y-463820D01*
X-2463138Y-464259D01*
X-2441511Y-563988D01*
X-2417920Y-657756D01*
X-2391804Y-747411D01*
X-2362604Y-834806D01*
X-2329757Y-921789D01*
X-2310205Y-969487D01*
X-2296524Y-1003994D01*
X-2287149Y-1032826D01*
X-2282024Y-1056943D01*
X-2281096Y-1077301D01*
X-2284311Y-1094860D01*
X-2291616Y-1110580D01*
X-2301568Y-1123860D01*
X-2310517Y-1133125D01*
X-2320227Y-1140791D01*
X-2332083Y-1147527D01*
X-2347475Y-1154003D01*
X-2367788Y-1160890D01*
X-2394411Y-1168857D01*
X-2395297Y-1169113D01*
X-2452088Y-1186797D01*
X-2503818Y-1205842D01*
X-2553363Y-1227369D01*
X-2586423Y-1243563D01*
X-2661557Y-1286301D01*
X-2733135Y-1335825D01*
X-2800431Y-1391505D01*
X-2862716Y-1452708D01*
X-2919263Y-1518806D01*
X-2947024Y-1556127D01*
X-2968958Y-1584925D01*
X-2989292Y-1606676D01*
X-3008753Y-1621921D01*
X-3028070Y-1631201D01*
X-3047967Y-1635060D01*
X-3053132Y-1635241D01*
X-3071683Y-1633353D01*
X-3088417Y-1627019D01*
X-3104042Y-1615583D01*
X-3119267Y-1598384D01*
X-3134802Y-1574762D01*
X-3151353Y-1544060D01*
X-3151510Y-1543748D01*
X-3208907Y-1422159D01*
X-3262334Y-1294511D01*
X-3311453Y-1161800D01*
X-3355927Y-1025025D01*
X-3395419Y-885181D01*
X-3429590Y-743267D01*
X-3442003Y-684627D01*
X-3452810Y-625150D01*
X-3459723Y-572016D01*
X-3462780Y-524674D01*
X-3462019Y-482571D01*
X-3458149Y-448984D01*
X-3443656Y-385549D01*
X-3422279Y-325767D01*
X-3394260Y-269989D01*
X-3359834Y-218563D01*
X-3319243Y-171841D01*
X-3272726Y-130173D01*
X-3220521Y-93908D01*
X-3212211Y-88954D01*
X-3159496Y-62660D01*
X-3103264Y-42950D01*
X-3044582Y-29930D01*
X-2984519Y-23709D01*
X-2924145Y-24393D01*
G36*
X-2924145Y-24393D02*
G01*
X-2864527Y-32088D01*
X-2806733Y-46900D01*
X-2802916Y-48162D01*
X-2746858Y-71076D01*
X-2693909Y-100876D01*
X-2644753Y-136891D01*
X-2600079Y-178455D01*
X-2560572Y-224897D01*
X-2526919Y-275550D01*
X-2499806Y-329746D01*
X-2491132Y-351755D01*
X-2486582Y-366044D01*
X-2481051Y-386266D01*
X-2475004Y-410550D01*
X-2468907Y-437026D01*
X-2463226Y-463820D01*
X-2463138Y-464259D01*
X-2441511Y-563988D01*
X-2417920Y-657756D01*
X-2391804Y-747411D01*
X-2362604Y-834806D01*
X-2329757Y-921789D01*
X-2310205Y-969487D01*
X-2296524Y-1003994D01*
X-2287149Y-1032826D01*
X-2282024Y-1056943D01*
X-2281096Y-1077301D01*
X-2284311Y-1094860D01*
X-2291616Y-1110580D01*
X-2301568Y-1123860D01*
X-2310517Y-1133125D01*
X-2320227Y-1140791D01*
X-2332083Y-1147527D01*
X-2347475Y-1154003D01*
X-2367788Y-1160890D01*
X-2394411Y-1168857D01*
X-2395297Y-1169113D01*
X-2452088Y-1186797D01*
X-2503818Y-1205842D01*
X-2553363Y-1227369D01*
X-2586423Y-1243563D01*
X-2661557Y-1286301D01*
X-2733135Y-1335825D01*
X-2800431Y-1391505D01*
X-2862716Y-1452708D01*
X-2919263Y-1518806D01*
X-2947024Y-1556127D01*
X-2968958Y-1584925D01*
X-2989292Y-1606676D01*
X-3008753Y-1621921D01*
X-3028070Y-1631201D01*
X-3047967Y-1635060D01*
X-3053132Y-1635241D01*
X-3071683Y-1633353D01*
X-3088417Y-1627019D01*
X-3104042Y-1615583D01*
X-3119267Y-1598384D01*
X-3134802Y-1574762D01*
X-3151353Y-1544060D01*
X-3151510Y-1543748D01*
X-3208907Y-1422159D01*
X-3262334Y-1294511D01*
X-3311453Y-1161800D01*
X-3355927Y-1025025D01*
X-3395419Y-885181D01*
X-3429590Y-743267D01*
X-3442003Y-684627D01*
X-3452810Y-625150D01*
X-3459723Y-572016D01*
X-3462780Y-524674D01*
X-3462019Y-482571D01*
X-3458149Y-448984D01*
X-3443656Y-385549D01*
X-3422279Y-325767D01*
X-3394260Y-269989D01*
X-3359834Y-218563D01*
X-3319243Y-171841D01*
X-3272726Y-130173D01*
X-3220521Y-93908D01*
X-3212211Y-88954D01*
X-3159496Y-62660D01*
X-3103264Y-42950D01*
X-3044582Y-29930D01*
X-2984519Y-23709D01*
X-2924145Y-24393D01*
G37*
%TD*%
M02*
