%TF.GenerationSoftware,KiCad,Pcbnew,8.0.8*%
%TF.CreationDate,2025-02-14T13:28:02+00:00*%
%TF.ProjectId,jacdac_data_mh_0.1,6a616364-6163-45f6-9461-74615f6d685f,v0.1*%
%TF.SameCoordinates,PX8d24d00PY36d6160*%
%TF.FileFunction,Legend,Top*%
%TF.FilePolarity,Positive*%
%FSLAX46Y46*%
G04 Gerber Fmt 4.6, Leading zero omitted, Abs format (unit mm)*
G04 Created by KiCad (PCBNEW 8.0.8) date 2025-02-14 13:28:02*
%MOMM*%
%LPD*%
G01*
G04 APERTURE LIST*
%ADD10C,0.010000*%
G04 APERTURE END LIST*
D10*
%TO.C,MH1*%
X1100160Y-2289313D02*
X1115880Y-2296618D01*
X1129160Y-2306569D01*
X1138425Y-2315519D01*
X1146091Y-2325229D01*
X1152827Y-2337085D01*
X1159303Y-2352476D01*
X1166190Y-2372790D01*
X1174157Y-2399413D01*
X1174413Y-2400299D01*
X1192097Y-2457090D01*
X1211142Y-2508821D01*
X1232669Y-2558364D01*
X1248863Y-2591425D01*
X1291601Y-2666559D01*
X1341125Y-2738137D01*
X1396805Y-2805433D01*
X1458009Y-2867718D01*
X1524106Y-2924265D01*
X1561427Y-2952027D01*
X1590225Y-2973960D01*
X1611976Y-2994294D01*
X1627221Y-3013756D01*
X1636501Y-3033072D01*
X1640360Y-3052969D01*
X1640541Y-3058134D01*
X1638653Y-3076685D01*
X1632320Y-3093419D01*
X1620882Y-3109044D01*
X1603684Y-3124269D01*
X1580062Y-3139804D01*
X1549359Y-3156355D01*
X1549048Y-3156512D01*
X1427459Y-3213909D01*
X1299811Y-3267336D01*
X1167101Y-3316455D01*
X1030325Y-3360929D01*
X890481Y-3400420D01*
X748567Y-3434592D01*
X689927Y-3447006D01*
X630450Y-3457812D01*
X577317Y-3464725D01*
X529974Y-3467782D01*
X487871Y-3467021D01*
X454284Y-3463151D01*
X390849Y-3448657D01*
X331067Y-3427282D01*
X275289Y-3399261D01*
X223863Y-3364836D01*
X177141Y-3324245D01*
X135473Y-3277728D01*
X99208Y-3225523D01*
X94255Y-3217213D01*
X67959Y-3164498D01*
X48249Y-3108266D01*
X35230Y-3049584D01*
X29009Y-2989521D01*
X29693Y-2929147D01*
X37388Y-2869529D01*
X52200Y-2811735D01*
X53462Y-2807918D01*
X76376Y-2751860D01*
X106176Y-2698910D01*
X142191Y-2649755D01*
X183754Y-2605081D01*
X230197Y-2565574D01*
X280849Y-2531921D01*
X335046Y-2504808D01*
X357055Y-2496134D01*
X371344Y-2491584D01*
X391566Y-2486053D01*
X415849Y-2480006D01*
X442326Y-2473909D01*
X469120Y-2468228D01*
X469559Y-2468140D01*
X569287Y-2446513D01*
X663056Y-2422922D01*
X752711Y-2396806D01*
X840106Y-2367605D01*
X927089Y-2334759D01*
X974786Y-2315207D01*
X1009294Y-2301527D01*
X1038125Y-2292151D01*
X1062243Y-2287026D01*
X1082601Y-2286098D01*
X1100160Y-2289313D01*
G36*
X1100160Y-2289313D02*
G01*
X1115880Y-2296618D01*
X1129160Y-2306569D01*
X1138425Y-2315519D01*
X1146091Y-2325229D01*
X1152827Y-2337085D01*
X1159303Y-2352476D01*
X1166190Y-2372790D01*
X1174157Y-2399413D01*
X1174413Y-2400299D01*
X1192097Y-2457090D01*
X1211142Y-2508821D01*
X1232669Y-2558364D01*
X1248863Y-2591425D01*
X1291601Y-2666559D01*
X1341125Y-2738137D01*
X1396805Y-2805433D01*
X1458009Y-2867718D01*
X1524106Y-2924265D01*
X1561427Y-2952027D01*
X1590225Y-2973960D01*
X1611976Y-2994294D01*
X1627221Y-3013756D01*
X1636501Y-3033072D01*
X1640360Y-3052969D01*
X1640541Y-3058134D01*
X1638653Y-3076685D01*
X1632320Y-3093419D01*
X1620882Y-3109044D01*
X1603684Y-3124269D01*
X1580062Y-3139804D01*
X1549359Y-3156355D01*
X1549048Y-3156512D01*
X1427459Y-3213909D01*
X1299811Y-3267336D01*
X1167101Y-3316455D01*
X1030325Y-3360929D01*
X890481Y-3400420D01*
X748567Y-3434592D01*
X689927Y-3447006D01*
X630450Y-3457812D01*
X577317Y-3464725D01*
X529974Y-3467782D01*
X487871Y-3467021D01*
X454284Y-3463151D01*
X390849Y-3448657D01*
X331067Y-3427282D01*
X275289Y-3399261D01*
X223863Y-3364836D01*
X177141Y-3324245D01*
X135473Y-3277728D01*
X99208Y-3225523D01*
X94255Y-3217213D01*
X67959Y-3164498D01*
X48249Y-3108266D01*
X35230Y-3049584D01*
X29009Y-2989521D01*
X29693Y-2929147D01*
X37388Y-2869529D01*
X52200Y-2811735D01*
X53462Y-2807918D01*
X76376Y-2751860D01*
X106176Y-2698910D01*
X142191Y-2649755D01*
X183754Y-2605081D01*
X230197Y-2565574D01*
X280849Y-2531921D01*
X335046Y-2504808D01*
X357055Y-2496134D01*
X371344Y-2491584D01*
X391566Y-2486053D01*
X415849Y-2480006D01*
X442326Y-2473909D01*
X469120Y-2468228D01*
X469559Y-2468140D01*
X569287Y-2446513D01*
X663056Y-2422922D01*
X752711Y-2396806D01*
X840106Y-2367605D01*
X927089Y-2334759D01*
X974786Y-2315207D01*
X1009294Y-2301527D01*
X1038125Y-2292151D01*
X1062243Y-2287026D01*
X1082601Y-2286098D01*
X1100160Y-2289313D01*
G37*
X3050442Y-39836D02*
X3108358Y-53495D01*
X3163687Y-73765D01*
X3215946Y-100320D01*
X3264649Y-132836D01*
X3309310Y-170986D01*
X3349445Y-214446D01*
X3384567Y-262891D01*
X3414190Y-315995D01*
X3437832Y-373433D01*
X3455003Y-434881D01*
X3455372Y-436590D01*
X3458554Y-454272D01*
X3460678Y-473514D01*
X3461875Y-496213D01*
X3462277Y-524261D01*
X3462254Y-535809D01*
X3461877Y-557494D01*
X3460873Y-578457D01*
X3459080Y-599700D01*
X3456337Y-622228D01*
X3452482Y-647044D01*
X3447353Y-675155D01*
X3440790Y-707562D01*
X3432630Y-745269D01*
X3422711Y-789282D01*
X3418493Y-807668D01*
X3389980Y-921081D01*
X3356185Y-1037260D01*
X3317774Y-1154348D01*
X3275414Y-1270489D01*
X3229772Y-1383826D01*
X3181513Y-1492502D01*
X3147103Y-1563670D01*
X3132618Y-1591197D01*
X3119824Y-1612229D01*
X3107910Y-1627801D01*
X3096068Y-1638953D01*
X3083488Y-1646722D01*
X3081631Y-1647595D01*
X3063597Y-1653570D01*
X3046773Y-1653518D01*
X3032532Y-1649563D01*
X3012820Y-1638709D01*
X2992573Y-1620388D01*
X2972229Y-1595008D01*
X2968927Y-1590222D01*
X2914853Y-1516990D01*
X2855649Y-1449522D01*
X2791608Y-1388061D01*
X2723022Y-1332844D01*
X2650186Y-1284118D01*
X2573390Y-1242123D01*
X2516840Y-1216615D01*
X2485649Y-1204270D01*
X2454256Y-1193050D01*
X2420635Y-1182300D01*
X2382758Y-1171363D01*
X2349820Y-1162507D01*
X2331576Y-1157195D01*
X2318529Y-1151780D01*
X2308028Y-1144941D01*
X2299607Y-1137488D01*
X2286168Y-1121925D01*
X2278089Y-1105538D01*
X2275326Y-1087227D01*
X2277833Y-1065895D01*
X2285569Y-1040443D01*
X2294764Y-1018012D01*
X2344208Y-897493D01*
X2387490Y-773204D01*
X2424790Y-644562D01*
X2456290Y-510985D01*
X2462574Y-480304D01*
X2469675Y-445622D01*
X2475987Y-417240D01*
X2481959Y-393621D01*
X2488036Y-373227D01*
X2494665Y-354519D01*
X2502295Y-335956D01*
X2508519Y-322118D01*
X2537258Y-269137D01*
X2572404Y-220070D01*
X2613225Y-175486D01*
X2658996Y-135958D01*
X2708988Y-102057D01*
X2762472Y-74354D01*
X2818719Y-53420D01*
X2866040Y-41773D01*
X2928797Y-33649D01*
X2990427Y-33112D01*
X3050442Y-39836D01*
G36*
X3050442Y-39836D02*
G01*
X3108358Y-53495D01*
X3163687Y-73765D01*
X3215946Y-100320D01*
X3264649Y-132836D01*
X3309310Y-170986D01*
X3349445Y-214446D01*
X3384567Y-262891D01*
X3414190Y-315995D01*
X3437832Y-373433D01*
X3455003Y-434881D01*
X3455372Y-436590D01*
X3458554Y-454272D01*
X3460678Y-473514D01*
X3461875Y-496213D01*
X3462277Y-524261D01*
X3462254Y-535809D01*
X3461877Y-557494D01*
X3460873Y-578457D01*
X3459080Y-599700D01*
X3456337Y-622228D01*
X3452482Y-647044D01*
X3447353Y-675155D01*
X3440790Y-707562D01*
X3432630Y-745269D01*
X3422711Y-789282D01*
X3418493Y-807668D01*
X3389980Y-921081D01*
X3356185Y-1037260D01*
X3317774Y-1154348D01*
X3275414Y-1270489D01*
X3229772Y-1383826D01*
X3181513Y-1492502D01*
X3147103Y-1563670D01*
X3132618Y-1591197D01*
X3119824Y-1612229D01*
X3107910Y-1627801D01*
X3096068Y-1638953D01*
X3083488Y-1646722D01*
X3081631Y-1647595D01*
X3063597Y-1653570D01*
X3046773Y-1653518D01*
X3032532Y-1649563D01*
X3012820Y-1638709D01*
X2992573Y-1620388D01*
X2972229Y-1595008D01*
X2968927Y-1590222D01*
X2914853Y-1516990D01*
X2855649Y-1449522D01*
X2791608Y-1388061D01*
X2723022Y-1332844D01*
X2650186Y-1284118D01*
X2573390Y-1242123D01*
X2516840Y-1216615D01*
X2485649Y-1204270D01*
X2454256Y-1193050D01*
X2420635Y-1182300D01*
X2382758Y-1171363D01*
X2349820Y-1162507D01*
X2331576Y-1157195D01*
X2318529Y-1151780D01*
X2308028Y-1144941D01*
X2299607Y-1137488D01*
X2286168Y-1121925D01*
X2278089Y-1105538D01*
X2275326Y-1087227D01*
X2277833Y-1065895D01*
X2285569Y-1040443D01*
X2294764Y-1018012D01*
X2344208Y-897493D01*
X2387490Y-773204D01*
X2424790Y-644562D01*
X2456290Y-510985D01*
X2462574Y-480304D01*
X2469675Y-445622D01*
X2475987Y-417240D01*
X2481959Y-393621D01*
X2488036Y-373227D01*
X2494665Y-354519D01*
X2502295Y-335956D01*
X2508519Y-322118D01*
X2537258Y-269137D01*
X2572404Y-220070D01*
X2613225Y-175486D01*
X2658996Y-135958D01*
X2708988Y-102057D01*
X2762472Y-74354D01*
X2818719Y-53420D01*
X2866040Y-41773D01*
X2928797Y-33649D01*
X2990427Y-33112D01*
X3050442Y-39836D01*
G37*
X2506920Y-1537789D02*
X2524004Y-1538456D01*
X2537521Y-1539727D01*
X2548196Y-1541657D01*
X2556759Y-1544302D01*
X2563935Y-1547719D01*
X2570452Y-1551961D01*
X2577038Y-1557087D01*
X2580310Y-1559771D01*
X2591182Y-1571281D01*
X2601500Y-1586471D01*
X2609802Y-1602690D01*
X2614622Y-1617290D01*
X2615269Y-1623034D01*
X2616138Y-1628876D01*
X2618625Y-1641640D01*
X2622555Y-1660509D01*
X2627751Y-1684676D01*
X2634036Y-1713325D01*
X2641235Y-1745646D01*
X2649171Y-1780827D01*
X2656941Y-1814890D01*
X2667571Y-1861505D01*
X2676432Y-1901097D01*
X2683626Y-1934357D01*
X2689255Y-1961976D01*
X2693422Y-1984644D01*
X2696227Y-2003052D01*
X2697773Y-2017891D01*
X2698162Y-2029853D01*
X2697495Y-2039627D01*
X2695875Y-2047905D01*
X2693403Y-2055378D01*
X2692668Y-2057192D01*
X2680853Y-2077258D01*
X2663935Y-2095510D01*
X2645410Y-2108568D01*
X2627045Y-2114888D01*
X2604802Y-2117567D01*
X2581836Y-2116604D01*
X2561301Y-2111996D01*
X2553482Y-2108621D01*
X2537399Y-2097608D01*
X2522024Y-2082848D01*
X2509871Y-2066980D01*
X2505076Y-2057796D01*
X2502744Y-2050354D01*
X2499048Y-2036553D01*
X2494333Y-2017780D01*
X2488949Y-1995427D01*
X2483244Y-1970883D01*
X2482321Y-1966827D01*
X2476860Y-1942943D01*
X2471963Y-1921850D01*
X2467909Y-1904713D01*
X2464974Y-1892702D01*
X2463433Y-1886982D01*
X2463301Y-1886675D01*
X2460612Y-1889243D01*
X2453880Y-1897024D01*
X2443969Y-1908987D01*
X2431735Y-1924104D01*
X2423827Y-1934016D01*
X2324222Y-2053151D01*
X2218626Y-2167079D01*
X2107048Y-2275793D01*
X1989494Y-2379287D01*
X1929617Y-2428166D01*
X1912511Y-2442065D01*
X1898085Y-2454320D01*
X1887287Y-2464083D01*
X1881065Y-2470502D01*
X1880007Y-2472652D01*
X1884594Y-2474341D01*
X1895723Y-2477619D01*
X1912229Y-2482170D01*
X1932951Y-2487673D01*
X1956725Y-2493811D01*
X1966378Y-2496259D01*
X1997328Y-2504116D01*
X2021628Y-2510464D01*
X2040335Y-2515690D01*
X2054506Y-2520182D01*
X2065198Y-2524327D01*
X2073470Y-2528509D01*
X2080379Y-2533118D01*
X2086982Y-2538540D01*
X2090481Y-2541660D01*
X2107713Y-2562121D01*
X2118389Y-2585454D01*
X2122693Y-2610346D01*
X2120813Y-2635481D01*
X2112933Y-2659544D01*
X2099241Y-2681221D01*
X2079921Y-2699197D01*
X2067093Y-2706964D01*
X2055959Y-2711996D01*
X2044807Y-2715303D01*
X2032534Y-2716803D01*
X2018037Y-2716403D01*
X2000216Y-2714021D01*
X1977966Y-2709567D01*
X1950185Y-2702955D01*
X1920737Y-2695400D01*
X1892494Y-2688031D01*
X1858652Y-2679231D01*
X1821302Y-2669543D01*
X1782535Y-2659509D01*
X1744442Y-2649669D01*
X1710660Y-2640964D01*
X1673781Y-2631388D01*
X1643751Y-2623305D01*
X1619704Y-2616342D01*
X1600773Y-2610134D01*
X1586090Y-2604310D01*
X1574788Y-2598500D01*
X1566002Y-2592336D01*
X1558863Y-2585449D01*
X1552505Y-2577469D01*
X1548704Y-2572003D01*
X1544741Y-2565925D01*
X1541432Y-2559984D01*
X1538757Y-2553486D01*
X1536696Y-2545741D01*
X1535230Y-2536056D01*
X1534338Y-2523739D01*
X1534001Y-2508099D01*
X1534198Y-2488443D01*
X1534910Y-2464079D01*
X1536117Y-2434316D01*
X1537797Y-2398461D01*
X1539934Y-2355822D01*
X1541562Y-2324063D01*
X1543671Y-2284215D01*
X1545790Y-2246387D01*
X1547864Y-2211397D01*
X1549840Y-2180060D01*
X1551665Y-2153191D01*
X1553284Y-2131606D01*
X1554644Y-2116121D01*
X1555691Y-2107551D01*
X1555892Y-2106609D01*
X1565848Y-2083321D01*
X1581422Y-2064282D01*
X1601302Y-2049859D01*
X1624180Y-2040423D01*
X1648747Y-2036341D01*
X1673694Y-2037983D01*
X1697711Y-2045718D01*
X1719490Y-2059915D01*
X1719997Y-2060359D01*
X1734382Y-2076402D01*
X1745543Y-2095112D01*
X1746099Y-2096370D01*
X1749311Y-2104224D01*
X1751596Y-2111482D01*
X1753046Y-2119562D01*
X1753762Y-2129882D01*
X1753840Y-2143861D01*
X1753377Y-2162918D01*
X1752474Y-2188471D01*
X1752462Y-2188793D01*
X1751438Y-2213944D01*
X1750293Y-2238310D01*
X1749128Y-2259978D01*
X1748043Y-2277032D01*
X1747359Y-2285494D01*
X1746390Y-2295432D01*
X1746178Y-2302423D01*
X1747490Y-2306195D01*
X1751094Y-2306478D01*
X1757757Y-2302999D01*
X1768246Y-2295487D01*
X1783329Y-2283672D01*
X1803774Y-2267282D01*
X1807628Y-2264188D01*
X1890704Y-2194767D01*
X1972790Y-2120736D01*
X2052686Y-2043323D01*
X2129193Y-1963755D01*
X2201108Y-1883259D01*
X2267236Y-1803063D01*
X2299846Y-1760672D01*
X2311362Y-1745302D01*
X2275792Y-1747836D01*
X2258749Y-1748799D01*
X2236298Y-1749708D01*
X2210969Y-1750478D01*
X2185292Y-1751025D01*
X2176722Y-1751149D01*
X2151540Y-1751319D01*
X2132838Y-1751049D01*
X2119166Y-1750223D01*
X2109074Y-1748730D01*
X2101111Y-1746454D01*
X2097347Y-1744932D01*
X2074547Y-1730762D01*
X2056098Y-1711027D01*
X2043059Y-1687345D01*
X2036489Y-1661336D01*
X2035909Y-1651028D01*
X2039543Y-1625305D01*
X2049696Y-1601021D01*
X2065245Y-1579907D01*
X2085066Y-1563692D01*
X2096379Y-1557900D01*
X2101217Y-1556005D01*
X2106413Y-1554364D01*
X2112635Y-1552933D01*
X2120551Y-1551667D01*
X2130827Y-1550520D01*
X2144132Y-1549450D01*
X2161133Y-1548412D01*
X2182499Y-1547361D01*
X2208895Y-1546254D01*
X2240990Y-1545046D01*
X2279453Y-1543693D01*
X2324949Y-1542150D01*
X2342510Y-1541562D01*
X2388348Y-1540046D01*
X2426981Y-1538854D01*
X2459135Y-1538044D01*
X2485539Y-1537669D01*
X2506920Y-1537789D01*
G36*
X2506920Y-1537789D02*
G01*
X2524004Y-1538456D01*
X2537521Y-1539727D01*
X2548196Y-1541657D01*
X2556759Y-1544302D01*
X2563935Y-1547719D01*
X2570452Y-1551961D01*
X2577038Y-1557087D01*
X2580310Y-1559771D01*
X2591182Y-1571281D01*
X2601500Y-1586471D01*
X2609802Y-1602690D01*
X2614622Y-1617290D01*
X2615269Y-1623034D01*
X2616138Y-1628876D01*
X2618625Y-1641640D01*
X2622555Y-1660509D01*
X2627751Y-1684676D01*
X2634036Y-1713325D01*
X2641235Y-1745646D01*
X2649171Y-1780827D01*
X2656941Y-1814890D01*
X2667571Y-1861505D01*
X2676432Y-1901097D01*
X2683626Y-1934357D01*
X2689255Y-1961976D01*
X2693422Y-1984644D01*
X2696227Y-2003052D01*
X2697773Y-2017891D01*
X2698162Y-2029853D01*
X2697495Y-2039627D01*
X2695875Y-2047905D01*
X2693403Y-2055378D01*
X2692668Y-2057192D01*
X2680853Y-2077258D01*
X2663935Y-2095510D01*
X2645410Y-2108568D01*
X2627045Y-2114888D01*
X2604802Y-2117567D01*
X2581836Y-2116604D01*
X2561301Y-2111996D01*
X2553482Y-2108621D01*
X2537399Y-2097608D01*
X2522024Y-2082848D01*
X2509871Y-2066980D01*
X2505076Y-2057796D01*
X2502744Y-2050354D01*
X2499048Y-2036553D01*
X2494333Y-2017780D01*
X2488949Y-1995427D01*
X2483244Y-1970883D01*
X2482321Y-1966827D01*
X2476860Y-1942943D01*
X2471963Y-1921850D01*
X2467909Y-1904713D01*
X2464974Y-1892702D01*
X2463433Y-1886982D01*
X2463301Y-1886675D01*
X2460612Y-1889243D01*
X2453880Y-1897024D01*
X2443969Y-1908987D01*
X2431735Y-1924104D01*
X2423827Y-1934016D01*
X2324222Y-2053151D01*
X2218626Y-2167079D01*
X2107048Y-2275793D01*
X1989494Y-2379287D01*
X1929617Y-2428166D01*
X1912511Y-2442065D01*
X1898085Y-2454320D01*
X1887287Y-2464083D01*
X1881065Y-2470502D01*
X1880007Y-2472652D01*
X1884594Y-2474341D01*
X1895723Y-2477619D01*
X1912229Y-2482170D01*
X1932951Y-2487673D01*
X1956725Y-2493811D01*
X1966378Y-2496259D01*
X1997328Y-2504116D01*
X2021628Y-2510464D01*
X2040335Y-2515690D01*
X2054506Y-2520182D01*
X2065198Y-2524327D01*
X2073470Y-2528509D01*
X2080379Y-2533118D01*
X2086982Y-2538540D01*
X2090481Y-2541660D01*
X2107713Y-2562121D01*
X2118389Y-2585454D01*
X2122693Y-2610346D01*
X2120813Y-2635481D01*
X2112933Y-2659544D01*
X2099241Y-2681221D01*
X2079921Y-2699197D01*
X2067093Y-2706964D01*
X2055959Y-2711996D01*
X2044807Y-2715303D01*
X2032534Y-2716803D01*
X2018037Y-2716403D01*
X2000216Y-2714021D01*
X1977966Y-2709567D01*
X1950185Y-2702955D01*
X1920737Y-2695400D01*
X1892494Y-2688031D01*
X1858652Y-2679231D01*
X1821302Y-2669543D01*
X1782535Y-2659509D01*
X1744442Y-2649669D01*
X1710660Y-2640964D01*
X1673781Y-2631388D01*
X1643751Y-2623305D01*
X1619704Y-2616342D01*
X1600773Y-2610134D01*
X1586090Y-2604310D01*
X1574788Y-2598500D01*
X1566002Y-2592336D01*
X1558863Y-2585449D01*
X1552505Y-2577469D01*
X1548704Y-2572003D01*
X1544741Y-2565925D01*
X1541432Y-2559984D01*
X1538757Y-2553486D01*
X1536696Y-2545741D01*
X1535230Y-2536056D01*
X1534338Y-2523739D01*
X1534001Y-2508099D01*
X1534198Y-2488443D01*
X1534910Y-2464079D01*
X1536117Y-2434316D01*
X1537797Y-2398461D01*
X1539934Y-2355822D01*
X1541562Y-2324063D01*
X1543671Y-2284215D01*
X1545790Y-2246387D01*
X1547864Y-2211397D01*
X1549840Y-2180060D01*
X1551665Y-2153191D01*
X1553284Y-2131606D01*
X1554644Y-2116121D01*
X1555691Y-2107551D01*
X1555892Y-2106609D01*
X1565848Y-2083321D01*
X1581422Y-2064282D01*
X1601302Y-2049859D01*
X1624180Y-2040423D01*
X1648747Y-2036341D01*
X1673694Y-2037983D01*
X1697711Y-2045718D01*
X1719490Y-2059915D01*
X1719997Y-2060359D01*
X1734382Y-2076402D01*
X1745543Y-2095112D01*
X1746099Y-2096370D01*
X1749311Y-2104224D01*
X1751596Y-2111482D01*
X1753046Y-2119562D01*
X1753762Y-2129882D01*
X1753840Y-2143861D01*
X1753377Y-2162918D01*
X1752474Y-2188471D01*
X1752462Y-2188793D01*
X1751438Y-2213944D01*
X1750293Y-2238310D01*
X1749128Y-2259978D01*
X1748043Y-2277032D01*
X1747359Y-2285494D01*
X1746390Y-2295432D01*
X1746178Y-2302423D01*
X1747490Y-2306195D01*
X1751094Y-2306478D01*
X1757757Y-2302999D01*
X1768246Y-2295487D01*
X1783329Y-2283672D01*
X1803774Y-2267282D01*
X1807628Y-2264188D01*
X1890704Y-2194767D01*
X1972790Y-2120736D01*
X2052686Y-2043323D01*
X2129193Y-1963755D01*
X2201108Y-1883259D01*
X2267236Y-1803063D01*
X2299846Y-1760672D01*
X2311362Y-1745302D01*
X2275792Y-1747836D01*
X2258749Y-1748799D01*
X2236298Y-1749708D01*
X2210969Y-1750478D01*
X2185292Y-1751025D01*
X2176722Y-1751149D01*
X2151540Y-1751319D01*
X2132838Y-1751049D01*
X2119166Y-1750223D01*
X2109074Y-1748730D01*
X2101111Y-1746454D01*
X2097347Y-1744932D01*
X2074547Y-1730762D01*
X2056098Y-1711027D01*
X2043059Y-1687345D01*
X2036489Y-1661336D01*
X2035909Y-1651028D01*
X2039543Y-1625305D01*
X2049696Y-1601021D01*
X2065245Y-1579907D01*
X2085066Y-1563692D01*
X2096379Y-1557900D01*
X2101217Y-1556005D01*
X2106413Y-1554364D01*
X2112635Y-1552933D01*
X2120551Y-1551667D01*
X2130827Y-1550520D01*
X2144132Y-1549450D01*
X2161133Y-1548412D01*
X2182499Y-1547361D01*
X2208895Y-1546254D01*
X2240990Y-1545046D01*
X2279453Y-1543693D01*
X2324949Y-1542150D01*
X2342510Y-1541562D01*
X2388348Y-1540046D01*
X2426981Y-1538854D01*
X2459135Y-1538044D01*
X2485539Y-1537669D01*
X2506920Y-1537789D01*
G37*
%TD*%
M02*
