%TF.GenerationSoftware,KiCad,Pcbnew,8.0.8*%
%TF.CreationDate,2025-01-29T17:06:01+00:00*%
%TF.ProjectId,ec30_3x3_l_mh_0.1,65633330-5f33-4783-935f-6c5f6d685f30,v0.1*%
%TF.SameCoordinates,PX8d24d00PY36d6160*%
%TF.FileFunction,Soldermask,Top*%
%TF.FilePolarity,Negative*%
%FSLAX46Y46*%
G04 Gerber Fmt 4.6, Leading zero omitted, Abs format (unit mm)*
G04 Created by KiCad (PCBNEW 8.0.8) date 2025-01-29 17:06:01*
%MOMM*%
%LPD*%
G01*
G04 APERTURE LIST*
%ADD10C,2.500000*%
%ADD11C,0.000000*%
G04 APERTURE END LIST*
%TO.C,MH3*%
D10*
X-13750800Y-15000800D02*
G75*
G02*
X-16250800Y-15000800I-1250000J0D01*
G01*
X-16250800Y-15000800D02*
G75*
G02*
X-13750800Y-15000800I1250000J0D01*
G01*
%TO.C,MH4*%
X16250000Y-14999999D02*
G75*
G02*
X13750000Y-14999999I-1250000J0D01*
G01*
X13750000Y-14999999D02*
G75*
G02*
X16250000Y-14999999I1250000J0D01*
G01*
%TO.C,MH2*%
X16250000Y15000000D02*
G75*
G02*
X13750000Y15000000I-1250000J0D01*
G01*
X13750000Y15000000D02*
G75*
G02*
X16250000Y15000000I1250000J0D01*
G01*
D11*
%TO.C,MH1*%
G36*
X-12500000Y15000001D02*
G01*
X-12504933Y15000001D01*
X-12504933Y14843025D01*
X-12544282Y14531548D01*
X-12622359Y14227459D01*
X-12737932Y13935553D01*
X-12889180Y13660434D01*
X-13073717Y13406441D01*
X-13288632Y13177579D01*
X-13530537Y12977459D01*
X-13795616Y12809234D01*
X-14079689Y12675560D01*
X-14378275Y12578543D01*
X-14686667Y12519714D01*
X-15000000Y12500001D01*
X-17500000Y12500001D01*
X-17500000Y15000001D01*
X-17495067Y15000001D01*
X-17495067Y15156977D01*
X-17455718Y15468454D01*
X-17377641Y15772543D01*
X-17262068Y16064449D01*
X-17110820Y16339568D01*
X-16926283Y16593561D01*
X-16711368Y16822423D01*
X-16469463Y17022543D01*
X-16204384Y17190768D01*
X-15920311Y17324442D01*
X-15621725Y17421459D01*
X-15313333Y17480288D01*
X-15000000Y17500001D01*
X-12500000Y17500001D01*
X-12500000Y15000001D01*
G37*
%TD*%
M02*
