%TF.GenerationSoftware,KiCad,Pcbnew,9.0.7*%
%TF.CreationDate,2026-03-04T13:17:10+00:00*%
%TF.ProjectId,jvm_rgb_ring,6a766d5f-7267-4625-9f72-696e672e6b69,0.5*%
%TF.SameCoordinates,PX4f64b50PY4749830*%
%TF.FileFunction,AssemblyDrawing,Top*%
%FSLAX45Y45*%
G04 Gerber Fmt 4.5, Leading zero omitted, Abs format (unit mm)*
G04 Created by KiCad (PCBNEW 9.0.7) date 2026-03-04 13:17:10*
%MOMM*%
%LPD*%
G01*
G04 APERTURE LIST*
%ADD10C,0.100000*%
%ADD11C,0.120000*%
%ADD12C,0.075000*%
G04 APERTURE END LIST*
D10*
%TO.C,GS5*%
X325000Y1500000D02*
X425000Y1500000D01*
X375000Y1550000D02*
X375000Y1450000D01*
X425000Y1500000D02*
G75*
G02*
X325000Y1500000I-50000J0D01*
G01*
X325000Y1500000D02*
G75*
G02*
X425000Y1500000I50000J0D01*
G01*
%TO.C,GS3*%
X-1550000Y225000D02*
X-1450000Y225000D01*
X-1500000Y275000D02*
X-1500000Y175000D01*
X-1450000Y225000D02*
G75*
G02*
X-1550000Y225000I-50000J0D01*
G01*
X-1550000Y225000D02*
G75*
G02*
X-1450000Y225000I50000J0D01*
G01*
D11*
%TO.C,J1*%
X41900Y719060D02*
X372100Y719060D01*
X41900Y363460D02*
X41900Y719060D01*
X372100Y719060D02*
X499100Y592060D01*
X499100Y592060D02*
X499100Y363460D01*
X499100Y363460D02*
X41900Y363460D01*
%TO.C,LED4*%
D12*
X479161Y-928110D02*
G75*
G02*
X471661Y-928110I-3750J0D01*
G01*
X471661Y-928110D02*
G75*
G02*
X479161Y-928110I3750J0D01*
G01*
D10*
%TO.C,GS4*%
X125000Y1500000D02*
X225000Y1500000D01*
X175000Y1550000D02*
X175000Y1450000D01*
X225000Y1500000D02*
G75*
G02*
X125000Y1500000I-50000J0D01*
G01*
X125000Y1500000D02*
G75*
G02*
X225000Y1500000I50000J0D01*
G01*
%TO.C,LED8*%
D12*
X-468361Y917439D02*
G75*
G02*
X-475861Y917439I-3750J0D01*
G01*
X-475861Y917439D02*
G75*
G02*
X-468361Y917439I3750J0D01*
G01*
%TO.C,U2*%
X-273750Y102500D02*
G75*
G02*
X-281250Y102500I-3750J0D01*
G01*
X-281250Y102500D02*
G75*
G02*
X-273750Y102500I3750J0D01*
G01*
D10*
%TO.C,GS6*%
X-75000Y1500000D02*
X25000Y1500000D01*
X-25000Y1550000D02*
X-25000Y1450000D01*
X25000Y1500000D02*
G75*
G02*
X-75000Y1500000I-50000J0D01*
G01*
X-75000Y1500000D02*
G75*
G02*
X25000Y1500000I50000J0D01*
G01*
%TO.C,D1*%
D12*
X-493750Y-547500D02*
G75*
G02*
X-501250Y-547500I-3750J0D01*
G01*
X-501250Y-547500D02*
G75*
G02*
X-493750Y-547500I3750J0D01*
G01*
%TO.C,LED3*%
X992900Y-322835D02*
G75*
G02*
X985400Y-322835I-3750J0D01*
G01*
X985400Y-322835D02*
G75*
G02*
X992900Y-322835I3750J0D01*
G01*
%TO.C,Q1*%
X556250Y-105000D02*
G75*
G02*
X548750Y-105000I-3750J0D01*
G01*
X548750Y-105000D02*
G75*
G02*
X556250Y-105000I3750J0D01*
G01*
%TO.C,U1*%
X-209250Y-367500D02*
G75*
G02*
X-216750Y-367500I-3750J0D01*
G01*
X-216750Y-367500D02*
G75*
G02*
X-209250Y-367500I3750J0D01*
G01*
%TO.C,LED5*%
X-312100Y-992835D02*
G75*
G02*
X-319600Y-992835I-3750J0D01*
G01*
X-319600Y-992835D02*
G75*
G02*
X-312100Y-992835I3750J0D01*
G01*
%TO.C,LED2*%
X928174Y468426D02*
G75*
G02*
X920674Y468426I-3750J0D01*
G01*
X920674Y468426D02*
G75*
G02*
X928174Y468426I3750J0D01*
G01*
%TO.C,LED7*%
X-982100Y312165D02*
G75*
G02*
X-989600Y312165I-3750J0D01*
G01*
X-989600Y312165D02*
G75*
G02*
X-982100Y312165I3750J0D01*
G01*
D10*
%TO.C,GS2*%
X-1550000Y-275000D02*
X-1450000Y-275000D01*
X-1500000Y-225000D02*
X-1500000Y-325000D01*
X-1450000Y-275000D02*
G75*
G02*
X-1550000Y-275000I-50000J0D01*
G01*
X-1550000Y-275000D02*
G75*
G02*
X-1450000Y-275000I50000J0D01*
G01*
%TO.C,LED1*%
D12*
X322900Y982165D02*
G75*
G02*
X315400Y982165I-3750J0D01*
G01*
X315400Y982165D02*
G75*
G02*
X322900Y982165I3750J0D01*
G01*
%TO.C,LED6*%
X-917374Y-479097D02*
G75*
G02*
X-924874Y-479097I-3750J0D01*
G01*
X-924874Y-479097D02*
G75*
G02*
X-917374Y-479097I3750J0D01*
G01*
D10*
%TO.C,GS1*%
X-1550000Y-25000D02*
X-1450000Y-25000D01*
X-1500000Y25000D02*
X-1500000Y-75000D01*
X-1450000Y-25000D02*
G75*
G02*
X-1550000Y-25000I-50000J0D01*
G01*
X-1550000Y-25000D02*
G75*
G02*
X-1450000Y-25000I50000J0D01*
G01*
%TO.C,D2*%
D12*
X-436250Y720000D02*
G75*
G02*
X-443750Y720000I-3750J0D01*
G01*
X-443750Y720000D02*
G75*
G02*
X-436250Y720000I3750J0D01*
G01*
%TD*%
M02*
