%TF.GenerationSoftware,KiCad,Pcbnew,9.0.7*%
%TF.CreationDate,2026-03-30T18:33:28+01:00*%
%TF.ProjectId,jvm_light_sensor,6a766d5f-6c69-4676-9874-5f73656e736f,0.7*%
%TF.SameCoordinates,PX501bd00PY487ab00*%
%TF.FileFunction,AssemblyDrawing,Top*%
%FSLAX45Y45*%
G04 Gerber Fmt 4.5, Leading zero omitted, Abs format (unit mm)*
G04 Created by KiCad (PCBNEW 9.0.7) date 2026-03-30 18:33:28*
%MOMM*%
%LPD*%
G01*
G04 APERTURE LIST*
%ADD10C,0.100000*%
%ADD11C,0.120000*%
G04 APERTURE END LIST*
D10*
%TO.C,GS6*%
X-550000Y800000D02*
X-450000Y800000D01*
X-500000Y850000D02*
X-500000Y750000D01*
X-450000Y800000D02*
G75*
G02*
X-550000Y800000I-50000J0D01*
G01*
X-550000Y800000D02*
G75*
G02*
X-450000Y800000I50000J0D01*
G01*
%TO.C,GS3*%
X-750000Y350000D02*
X-650000Y350000D01*
X-700000Y400000D02*
X-700000Y300000D01*
X-650000Y350000D02*
G75*
G02*
X-750000Y350000I-50000J0D01*
G01*
X-750000Y350000D02*
G75*
G02*
X-650000Y350000I50000J0D01*
G01*
%TO.C,C2*%
X-580000Y-260000D02*
X-420000Y-260000D01*
X-420000Y-340000D01*
X-580000Y-340000D01*
X-580000Y-260000D01*
%TO.C,Q1*%
X495000Y110000D02*
X495000Y-210000D01*
X495000Y-210000D02*
X655000Y-210000D01*
X615000Y110000D02*
X495000Y110000D01*
X655000Y70000D02*
X615000Y110000D01*
X655000Y-210000D02*
X655000Y70000D01*
%TO.C,R3*%
X-216250Y520000D02*
X-133750Y520000D01*
X-133750Y680000D01*
X-216250Y680000D01*
X-216250Y520000D01*
%TO.C,U2*%
X-420000Y-155000D02*
X-460000Y-195000D01*
X-580000Y-195000D01*
X-580000Y95000D01*
X-420000Y95000D01*
X-420000Y-155000D01*
%TO.C,GS2*%
X-750000Y-300000D02*
X-650000Y-300000D01*
X-700000Y-250000D02*
X-700000Y-350000D01*
X-650000Y-300000D02*
G75*
G02*
X-750000Y-300000I-50000J0D01*
G01*
X-750000Y-300000D02*
G75*
G02*
X-650000Y-300000I50000J0D01*
G01*
%TO.C,GS1*%
X-750000Y-50000D02*
X-650000Y-50000D01*
X-700000Y0D02*
X-700000Y-100000D01*
X-650000Y-50000D02*
G75*
G02*
X-750000Y-50000I-50000J0D01*
G01*
X-750000Y-50000D02*
G75*
G02*
X-650000Y-50000I50000J0D01*
G01*
%TO.C,GS4*%
X-375000Y800000D02*
X-275000Y800000D01*
X-325000Y850000D02*
X-325000Y750000D01*
X-275000Y800000D02*
G75*
G02*
X-375000Y800000I-50000J0D01*
G01*
X-375000Y800000D02*
G75*
G02*
X-275000Y800000I50000J0D01*
G01*
%TO.C,C1*%
X-185000Y-532500D02*
X-265000Y-532500D01*
X-265000Y-692500D01*
X-185000Y-692500D01*
X-185000Y-532500D01*
%TO.C,R5*%
X616250Y-395000D02*
X533750Y-395000D01*
X533750Y-555000D01*
X616250Y-555000D01*
X616250Y-395000D01*
%TO.C,D1*%
X-570000Y690000D02*
X-430000Y690000D01*
X-570000Y510000D02*
X-570000Y690000D01*
X-535000Y580000D02*
X-500000Y630000D01*
X-500000Y630000D02*
X-500000Y650000D01*
X-500000Y630000D02*
X-465000Y580000D01*
X-500000Y580000D02*
X-500000Y555000D01*
X-465000Y630000D02*
X-535000Y630000D01*
X-465000Y580000D02*
X-535000Y580000D01*
X-430000Y690000D02*
X-430000Y510000D01*
X-430000Y510000D02*
X-570000Y510000D01*
%TO.C,C3*%
X-580000Y240000D02*
X-420000Y240000D01*
X-420000Y160000D01*
X-580000Y160000D01*
X-580000Y240000D01*
%TO.C,SW1*%
X-45000Y-462500D02*
X345000Y-462500D01*
X-45000Y-762500D02*
X-45000Y-462500D01*
X-45000Y-762500D02*
X345000Y-762500D01*
X345000Y-462500D02*
X345000Y-762500D01*
X240000Y-612500D02*
G75*
G02*
X60000Y-612500I-90000J0D01*
G01*
X60000Y-612500D02*
G75*
G02*
X240000Y-612500I90000J0D01*
G01*
%TO.C,R2*%
X-366250Y520000D02*
X-283750Y520000D01*
X-283750Y680000D01*
X-366250Y680000D01*
X-366250Y520000D01*
%TO.C,GS5*%
X-225000Y800000D02*
X-125000Y800000D01*
X-175000Y850000D02*
X-175000Y750000D01*
X-125000Y800000D02*
G75*
G02*
X-225000Y800000I-50000J0D01*
G01*
X-225000Y800000D02*
G75*
G02*
X-125000Y800000I50000J0D01*
G01*
%TO.C,D2*%
X-580000Y-560000D02*
X-580000Y-640000D01*
X-580000Y-640000D02*
X-450000Y-640000D01*
X-450000Y-640000D02*
X-420000Y-610000D01*
X-420000Y-560000D02*
X-580000Y-560000D01*
X-420000Y-610000D02*
X-420000Y-560000D01*
%TO.C,R1*%
X-420000Y308750D02*
X-580000Y308750D01*
X-580000Y391250D01*
X-420000Y391250D01*
X-420000Y308750D01*
%TO.C,R4*%
X-420000Y-491250D02*
X-580000Y-491250D01*
X-580000Y-408750D01*
X-420000Y-408750D01*
X-420000Y-491250D01*
D11*
%TO.C,J1*%
X-53600Y746450D02*
X276600Y746450D01*
X-53600Y390850D02*
X-53600Y746450D01*
X276600Y746450D02*
X403600Y619450D01*
X403600Y619450D02*
X403600Y390850D01*
X403600Y390850D02*
X-53600Y390850D01*
D10*
%TO.C,U1*%
X387500Y-270000D02*
X-162500Y-270000D01*
X-262500Y-170000D01*
X-262500Y170000D01*
X387500Y170000D01*
X387500Y-270000D01*
%TD*%
M02*
