%TF.GenerationSoftware,KiCad,Pcbnew,9.0.7*%
%TF.CreationDate,2026-03-30T19:28:21+01:00*%
%TF.ProjectId,jvm_light_sensor,6a766d5f-6c69-4676-9874-5f73656e736f,0.7*%
%TF.SameCoordinates,PX501bd00PY487ab00*%
%TF.FileFunction,Soldermask,Top*%
%TF.FilePolarity,Negative*%
%FSLAX45Y45*%
G04 Gerber Fmt 4.5, Leading zero omitted, Abs format (unit mm)*
G04 Created by KiCad (PCBNEW 9.0.7) date 2026-03-30 19:28:21*
%MOMM*%
%LPD*%
G01*
G04 APERTURE LIST*
G04 Aperture macros list*
%AMRoundRect*
0 Rectangle with rounded corners*
0 $1 Rounding radius*
0 $2 $3 $4 $5 $6 $7 $8 $9 X,Y pos of 4 corners*
0 Add a 4 corners polygon primitive as box body*
4,1,4,$2,$3,$4,$5,$6,$7,$8,$9,$2,$3,0*
0 Add four circle primitives for the rounded corners*
1,1,$1+$1,$2,$3*
1,1,$1+$1,$4,$5*
1,1,$1+$1,$6,$7*
1,1,$1+$1,$8,$9*
0 Add four rect primitives between the rounded corners*
20,1,$1+$1,$2,$3,$4,$5,0*
20,1,$1+$1,$4,$5,$6,$7,0*
20,1,$1+$1,$6,$7,$8,$9,0*
20,1,$1+$1,$8,$9,$2,$3,0*%
G04 Aperture macros list end*
%ADD10RoundRect,0.225000X-0.225000X-0.250000X0.225000X-0.250000X0.225000X0.250000X-0.225000X0.250000X0*%
%ADD11RoundRect,0.250001X-0.624999X0.462499X-0.624999X-0.462499X0.624999X-0.462499X0.624999X0.462499X0*%
%ADD12RoundRect,0.237500X0.237500X-0.250000X0.237500X0.250000X-0.237500X0.250000X-0.237500X-0.250000X0*%
%ADD13RoundRect,0.150000X0.512500X0.150000X-0.512500X0.150000X-0.512500X-0.150000X0.512500X-0.150000X0*%
%ADD14RoundRect,0.225000X-0.250000X0.225000X-0.250000X-0.225000X0.250000X-0.225000X0.250000X0.225000X0*%
%ADD15RoundRect,0.237500X-0.237500X0.250000X-0.237500X-0.250000X0.237500X-0.250000X0.237500X0.250000X0*%
%ADD16RoundRect,0.250000X-0.250000X0.250000X-0.250000X-0.250000X0.250000X-0.250000X0.250000X0.250000X0*%
%ADD17RoundRect,0.250000X-0.275000X-0.750000X0.275000X-0.750000X0.275000X0.750000X-0.275000X0.750000X0*%
%ADD18RoundRect,0.237500X0.287500X0.237500X-0.287500X0.237500X-0.287500X-0.237500X0.287500X-0.237500X0*%
%ADD19RoundRect,0.237500X0.250000X0.237500X-0.250000X0.237500X-0.250000X-0.237500X0.250000X-0.237500X0*%
%ADD20RoundRect,0.172720X-0.259080X-0.259080X0.259080X-0.259080X0.259080X0.259080X-0.259080X0.259080X0*%
%ADD21C,0.863600*%
%ADD22RoundRect,0.100000X0.100000X-0.637500X0.100000X0.637500X-0.100000X0.637500X-0.100000X-0.637500X0*%
G04 APERTURE END LIST*
D10*
%TO.C,C2*%
X-577500Y-300000D03*
X-422500Y-300000D03*
%TD*%
D11*
%TO.C,Q1*%
X575000Y98750D03*
X575000Y-198750D03*
%TD*%
D12*
%TO.C,R3*%
X-175000Y508750D03*
X-175000Y691250D03*
%TD*%
D13*
%TO.C,U2*%
X-386250Y-145000D03*
X-386250Y45000D03*
X-613750Y-50000D03*
%TD*%
D14*
%TO.C,C1*%
X-225000Y-535000D03*
X-225000Y-690000D03*
%TD*%
D15*
%TO.C,R5*%
X575000Y-383750D03*
X575000Y-566250D03*
%TD*%
D16*
%TO.C,D1*%
X-500000Y725000D03*
X-500000Y475000D03*
%TD*%
D10*
%TO.C,C3*%
X-577500Y200000D03*
X-422500Y200000D03*
%TD*%
D17*
%TO.C,SW1*%
X-72500Y-612500D03*
X372500Y-612500D03*
%TD*%
D12*
%TO.C,R2*%
X-325000Y508750D03*
X-325000Y691250D03*
%TD*%
D18*
%TO.C,D2*%
X-412500Y-600000D03*
X-587500Y-600000D03*
%TD*%
D19*
%TO.C,R1*%
X-408750Y350000D03*
X-591250Y350000D03*
%TD*%
%TO.C,R4*%
X-408750Y-450000D03*
X-591250Y-450000D03*
%TD*%
D20*
%TO.C,J1*%
X302000Y647390D03*
D21*
X302000Y489910D03*
X175000Y647390D03*
X175000Y489910D03*
X48000Y647390D03*
%TD*%
D22*
%TO.C,U1*%
X-230000Y-336250D03*
X-165000Y-336250D03*
X-100000Y-336250D03*
X-35000Y-336250D03*
X30000Y-336250D03*
X95000Y-336250D03*
X160000Y-336250D03*
X225000Y-336250D03*
X290000Y-336250D03*
X355000Y-336250D03*
X355000Y236250D03*
X290000Y236250D03*
X225000Y236250D03*
X160000Y236250D03*
X95000Y236250D03*
X30000Y236250D03*
X-35000Y236250D03*
X-100000Y236250D03*
X-165000Y236250D03*
X-230000Y236250D03*
%TD*%
M02*
