%TF.GenerationSoftware,KiCad,Pcbnew,9.0.7*%
%TF.CreationDate,2026-03-30T18:33:28+01:00*%
%TF.ProjectId,jvm_light_sensor,6a766d5f-6c69-4676-9874-5f73656e736f,0.7*%
%TF.SameCoordinates,PX501bd00PY487ab00*%
%TF.FileFunction,Legend,Top*%
%TF.FilePolarity,Positive*%
%FSLAX45Y45*%
G04 Gerber Fmt 4.5, Leading zero omitted, Abs format (unit mm)*
G04 Created by KiCad (PCBNEW 9.0.7) date 2026-03-30 18:33:28*
%MOMM*%
%LPD*%
G01*
G04 APERTURE LIST*
%ADD10C,0.150000*%
%ADD11C,0.120000*%
G04 APERTURE END LIST*
D10*
X-605846Y-709429D02*
X-598227Y-709429D01*
X-598227Y-709429D02*
X-590608Y-713239D01*
X-590608Y-713239D02*
X-586798Y-717048D01*
X-586798Y-717048D02*
X-582989Y-724668D01*
X-582989Y-724668D02*
X-579179Y-739906D01*
X-579179Y-739906D02*
X-579179Y-758953D01*
X-579179Y-758953D02*
X-582989Y-774191D01*
X-582989Y-774191D02*
X-586798Y-781810D01*
X-586798Y-781810D02*
X-590608Y-785620D01*
X-590608Y-785620D02*
X-598227Y-789429D01*
X-598227Y-789429D02*
X-605846Y-789429D01*
X-605846Y-789429D02*
X-613465Y-785620D01*
X-613465Y-785620D02*
X-617275Y-781810D01*
X-617275Y-781810D02*
X-621084Y-774191D01*
X-621084Y-774191D02*
X-624894Y-758953D01*
X-624894Y-758953D02*
X-624894Y-739906D01*
X-624894Y-739906D02*
X-621084Y-724668D01*
X-621084Y-724668D02*
X-617275Y-717048D01*
X-617275Y-717048D02*
X-613465Y-713239D01*
X-613465Y-713239D02*
X-605846Y-709429D01*
X-544894Y-781810D02*
X-541084Y-785620D01*
X-541084Y-785620D02*
X-544894Y-789429D01*
X-544894Y-789429D02*
X-548703Y-785620D01*
X-548703Y-785620D02*
X-544894Y-781810D01*
X-544894Y-781810D02*
X-544894Y-789429D01*
X-514417Y-709429D02*
X-461084Y-709429D01*
X-461084Y-709429D02*
X-495370Y-789429D01*
D11*
%TO.C,C2*%
X-514058Y-249000D02*
X-485942Y-249000D01*
X-514058Y-351000D02*
X-485942Y-351000D01*
%TO.C,Q1*%
X461500Y196000D02*
X461500Y-210000D01*
X688500Y196000D02*
X461500Y196000D01*
X688500Y-210000D02*
X688500Y196000D01*
%TO.C,R3*%
X-227250Y574528D02*
X-227250Y625472D01*
X-122750Y574528D02*
X-122750Y625472D01*
%TO.C,U2*%
X-591000Y106000D02*
X-409000Y106000D01*
X-591000Y6000D02*
X-591000Y106000D01*
X-591000Y-206000D02*
X-591000Y-106000D01*
X-409000Y106000D02*
X-409000Y101000D01*
X-409000Y-11000D02*
X-409000Y-89000D01*
X-409000Y-201000D02*
X-409000Y-206000D01*
X-409000Y-206000D02*
X-591000Y-206000D01*
X-355000Y-88000D02*
X-379000Y-55000D01*
X-331000Y-55000D01*
X-355000Y-88000D01*
G36*
X-355000Y-88000D02*
G01*
X-379000Y-55000D01*
X-331000Y-55000D01*
X-355000Y-88000D01*
G37*
%TO.C,C1*%
X-276000Y-598442D02*
X-276000Y-626558D01*
X-174000Y-598442D02*
X-174000Y-626558D01*
%TO.C,R5*%
X522750Y-449528D02*
X522750Y-500472D01*
X627250Y-449528D02*
X627250Y-500472D01*
%TO.C,D1*%
X-585000Y801000D02*
X-585000Y475000D01*
X-415000Y801000D02*
X-585000Y801000D01*
X-415000Y801000D02*
X-415000Y475000D01*
%TO.C,C3*%
X-514058Y251000D02*
X-485942Y251000D01*
X-514058Y149000D02*
X-485942Y149000D01*
%TO.C,SW1*%
X-60000Y-447500D02*
X360000Y-447500D01*
X-60000Y-486500D02*
X-60000Y-447500D01*
X-60000Y-738500D02*
X-60000Y-777500D01*
X-60000Y-777500D02*
X360000Y-777500D01*
X360000Y-447500D02*
X360000Y-486500D01*
X360000Y-777500D02*
X360000Y-738500D01*
%TO.C,R2*%
X-377250Y574528D02*
X-377250Y625472D01*
X-272750Y574528D02*
X-272750Y625472D01*
%TO.C,D2*%
X-580000Y-673500D02*
X-334000Y-673500D01*
X-334000Y-526500D02*
X-580000Y-526500D01*
X-334000Y-673500D02*
X-334000Y-526500D01*
%TO.C,R1*%
X-474528Y402250D02*
X-525472Y402250D01*
X-474528Y297750D02*
X-525472Y297750D01*
%TO.C,R4*%
X-474528Y-397750D02*
X-525472Y-397750D01*
X-474528Y-502250D02*
X-525472Y-502250D01*
%TO.C,U1*%
X-276000Y-281000D02*
X-276000Y181000D01*
X401000Y181000D02*
X401000Y-281000D01*
X-206500Y-469000D02*
X-254500Y-469000D01*
X-230500Y-436000D01*
X-206500Y-469000D01*
G36*
X-206500Y-469000D02*
G01*
X-254500Y-469000D01*
X-230500Y-436000D01*
X-206500Y-469000D01*
G37*
%TD*%
M02*
