%TF.GenerationSoftware,KiCad,Pcbnew,8.0.8*%
%TF.CreationDate,2025-01-29T17:06:48+00:00*%
%TF.ProjectId,ec30_5x2_lr_mh_0.1,65633330-5f35-4783-925f-6c725f6d685f,v0.1*%
%TF.SameCoordinates,PX8d24d00PY36d6160*%
%TF.FileFunction,Legend,Bot*%
%TF.FilePolarity,Positive*%
%FSLAX46Y46*%
G04 Gerber Fmt 4.6, Leading zero omitted, Abs format (unit mm)*
G04 Created by KiCad (PCBNEW 8.0.8) date 2025-01-29 17:06:48*
%MOMM*%
%LPD*%
G01*
G04 APERTURE LIST*
%ADD10C,0.010000*%
G04 APERTURE END LIST*
D10*
%TO.C,MH3*%
X-21929306Y-8363938D02*
X-21912572Y-8370271D01*
X-21896947Y-8381708D01*
X-21881722Y-8398907D01*
X-21866187Y-8422529D01*
X-21849636Y-8453232D01*
X-21849479Y-8453543D01*
X-21792082Y-8575132D01*
X-21738655Y-8702780D01*
X-21689536Y-8835490D01*
X-21645062Y-8972266D01*
X-21605571Y-9112110D01*
X-21571399Y-9254024D01*
X-21558986Y-9312664D01*
X-21548179Y-9372141D01*
X-21541266Y-9425275D01*
X-21538209Y-9472617D01*
X-21538970Y-9514720D01*
X-21542840Y-9548307D01*
X-21557333Y-9611742D01*
X-21578709Y-9671524D01*
X-21606730Y-9727302D01*
X-21641155Y-9778728D01*
X-21681746Y-9825450D01*
X-21728263Y-9867118D01*
X-21780468Y-9903383D01*
X-21788778Y-9908337D01*
X-21841493Y-9934632D01*
X-21897725Y-9954342D01*
X-21956407Y-9967361D01*
X-22016470Y-9973582D01*
X-22076844Y-9972898D01*
X-22136462Y-9965203D01*
X-22194256Y-9950391D01*
X-22198073Y-9949129D01*
X-22254131Y-9926215D01*
X-22307081Y-9896415D01*
X-22356236Y-9860400D01*
X-22400910Y-9818837D01*
X-22440417Y-9772394D01*
X-22474070Y-9721741D01*
X-22501183Y-9667545D01*
X-22509857Y-9645536D01*
X-22514407Y-9631247D01*
X-22519938Y-9611025D01*
X-22525985Y-9586741D01*
X-22532082Y-9560265D01*
X-22537763Y-9533471D01*
X-22537851Y-9533032D01*
X-22559478Y-9433303D01*
X-22583069Y-9339535D01*
X-22609185Y-9249880D01*
X-22638386Y-9162485D01*
X-22671232Y-9075502D01*
X-22690784Y-9027805D01*
X-22704464Y-8993297D01*
X-22713840Y-8964465D01*
X-22718965Y-8940348D01*
X-22719893Y-8919990D01*
X-22716678Y-8902431D01*
X-22709373Y-8886711D01*
X-22699422Y-8873431D01*
X-22690472Y-8864166D01*
X-22680762Y-8856500D01*
X-22668906Y-8849764D01*
X-22653514Y-8843288D01*
X-22633201Y-8836401D01*
X-22606578Y-8828434D01*
X-22605692Y-8828178D01*
X-22548901Y-8810494D01*
X-22497170Y-8791449D01*
X-22447627Y-8769922D01*
X-22414566Y-8753728D01*
X-22339432Y-8710990D01*
X-22267854Y-8661466D01*
X-22200558Y-8605786D01*
X-22138273Y-8544582D01*
X-22081726Y-8478485D01*
X-22053964Y-8441164D01*
X-22032031Y-8412366D01*
X-22011697Y-8390615D01*
X-21992236Y-8375370D01*
X-21972919Y-8366090D01*
X-21953022Y-8362231D01*
X-21947857Y-8362050D01*
X-21929306Y-8363938D01*
G36*
X-21929306Y-8363938D02*
G01*
X-21912572Y-8370271D01*
X-21896947Y-8381708D01*
X-21881722Y-8398907D01*
X-21866187Y-8422529D01*
X-21849636Y-8453232D01*
X-21849479Y-8453543D01*
X-21792082Y-8575132D01*
X-21738655Y-8702780D01*
X-21689536Y-8835490D01*
X-21645062Y-8972266D01*
X-21605571Y-9112110D01*
X-21571399Y-9254024D01*
X-21558986Y-9312664D01*
X-21548179Y-9372141D01*
X-21541266Y-9425275D01*
X-21538209Y-9472617D01*
X-21538970Y-9514720D01*
X-21542840Y-9548307D01*
X-21557333Y-9611742D01*
X-21578709Y-9671524D01*
X-21606730Y-9727302D01*
X-21641155Y-9778728D01*
X-21681746Y-9825450D01*
X-21728263Y-9867118D01*
X-21780468Y-9903383D01*
X-21788778Y-9908337D01*
X-21841493Y-9934632D01*
X-21897725Y-9954342D01*
X-21956407Y-9967361D01*
X-22016470Y-9973582D01*
X-22076844Y-9972898D01*
X-22136462Y-9965203D01*
X-22194256Y-9950391D01*
X-22198073Y-9949129D01*
X-22254131Y-9926215D01*
X-22307081Y-9896415D01*
X-22356236Y-9860400D01*
X-22400910Y-9818837D01*
X-22440417Y-9772394D01*
X-22474070Y-9721741D01*
X-22501183Y-9667545D01*
X-22509857Y-9645536D01*
X-22514407Y-9631247D01*
X-22519938Y-9611025D01*
X-22525985Y-9586741D01*
X-22532082Y-9560265D01*
X-22537763Y-9533471D01*
X-22537851Y-9533032D01*
X-22559478Y-9433303D01*
X-22583069Y-9339535D01*
X-22609185Y-9249880D01*
X-22638386Y-9162485D01*
X-22671232Y-9075502D01*
X-22690784Y-9027805D01*
X-22704464Y-8993297D01*
X-22713840Y-8964465D01*
X-22718965Y-8940348D01*
X-22719893Y-8919990D01*
X-22716678Y-8902431D01*
X-22709373Y-8886711D01*
X-22699422Y-8873431D01*
X-22690472Y-8864166D01*
X-22680762Y-8856500D01*
X-22668906Y-8849764D01*
X-22653514Y-8843288D01*
X-22633201Y-8836401D01*
X-22606578Y-8828434D01*
X-22605692Y-8828178D01*
X-22548901Y-8810494D01*
X-22497170Y-8791449D01*
X-22447627Y-8769922D01*
X-22414566Y-8753728D01*
X-22339432Y-8710990D01*
X-22267854Y-8661466D01*
X-22200558Y-8605786D01*
X-22138273Y-8544582D01*
X-22081726Y-8478485D01*
X-22053964Y-8441164D01*
X-22032031Y-8412366D01*
X-22011697Y-8390615D01*
X-21992236Y-8375370D01*
X-21972919Y-8366090D01*
X-21953022Y-8362231D01*
X-21947857Y-8362050D01*
X-21929306Y-8363938D01*
G37*
X-24470182Y-6540337D02*
X-24448497Y-6540714D01*
X-24427534Y-6541718D01*
X-24406291Y-6543511D01*
X-24383763Y-6546254D01*
X-24358946Y-6550109D01*
X-24330836Y-6555238D01*
X-24298429Y-6561801D01*
X-24260722Y-6569961D01*
X-24216709Y-6579880D01*
X-24198323Y-6584098D01*
X-24084910Y-6612611D01*
X-23968731Y-6646406D01*
X-23851643Y-6684817D01*
X-23735502Y-6727177D01*
X-23622165Y-6772819D01*
X-23513489Y-6821078D01*
X-23442320Y-6855488D01*
X-23414793Y-6869973D01*
X-23393762Y-6882767D01*
X-23378190Y-6894681D01*
X-23367038Y-6906523D01*
X-23359269Y-6919103D01*
X-23358396Y-6920960D01*
X-23352421Y-6938994D01*
X-23352473Y-6955818D01*
X-23356428Y-6970059D01*
X-23367282Y-6989771D01*
X-23385603Y-7010018D01*
X-23410983Y-7030363D01*
X-23415769Y-7033664D01*
X-23489001Y-7087738D01*
X-23556469Y-7146942D01*
X-23617931Y-7210983D01*
X-23673147Y-7279569D01*
X-23721873Y-7352405D01*
X-23763868Y-7429201D01*
X-23789376Y-7485751D01*
X-23801721Y-7516942D01*
X-23812941Y-7548335D01*
X-23823691Y-7581956D01*
X-23834628Y-7619833D01*
X-23843484Y-7652771D01*
X-23848796Y-7671014D01*
X-23854211Y-7684062D01*
X-23861050Y-7694563D01*
X-23868503Y-7702984D01*
X-23884066Y-7716423D01*
X-23900453Y-7724502D01*
X-23918764Y-7727265D01*
X-23940096Y-7724757D01*
X-23965548Y-7717022D01*
X-23987979Y-7707827D01*
X-24108498Y-7658383D01*
X-24232787Y-7615101D01*
X-24361429Y-7577801D01*
X-24495006Y-7546301D01*
X-24525687Y-7540017D01*
X-24560370Y-7532916D01*
X-24588751Y-7526604D01*
X-24612370Y-7520632D01*
X-24632764Y-7514555D01*
X-24651473Y-7507926D01*
X-24670035Y-7500296D01*
X-24683873Y-7494072D01*
X-24736854Y-7465333D01*
X-24785921Y-7430188D01*
X-24830505Y-7389366D01*
X-24870033Y-7343595D01*
X-24903934Y-7293603D01*
X-24931637Y-7240119D01*
X-24952571Y-7183872D01*
X-24964218Y-7136552D01*
X-24972342Y-7073793D01*
X-24972879Y-7012164D01*
X-24966155Y-6952149D01*
X-24952496Y-6894233D01*
X-24932226Y-6838904D01*
X-24905671Y-6786645D01*
X-24873155Y-6737942D01*
X-24835005Y-6693281D01*
X-24791545Y-6653146D01*
X-24743100Y-6618025D01*
X-24689996Y-6588401D01*
X-24632558Y-6564760D01*
X-24571111Y-6547588D01*
X-24569401Y-6547219D01*
X-24551719Y-6544037D01*
X-24532477Y-6541913D01*
X-24509778Y-6540716D01*
X-24481730Y-6540314D01*
X-24470182Y-6540337D01*
G36*
X-24470182Y-6540337D02*
G01*
X-24448497Y-6540714D01*
X-24427534Y-6541718D01*
X-24406291Y-6543511D01*
X-24383763Y-6546254D01*
X-24358946Y-6550109D01*
X-24330836Y-6555238D01*
X-24298429Y-6561801D01*
X-24260722Y-6569961D01*
X-24216709Y-6579880D01*
X-24198323Y-6584098D01*
X-24084910Y-6612611D01*
X-23968731Y-6646406D01*
X-23851643Y-6684817D01*
X-23735502Y-6727177D01*
X-23622165Y-6772819D01*
X-23513489Y-6821078D01*
X-23442320Y-6855488D01*
X-23414793Y-6869973D01*
X-23393762Y-6882767D01*
X-23378190Y-6894681D01*
X-23367038Y-6906523D01*
X-23359269Y-6919103D01*
X-23358396Y-6920960D01*
X-23352421Y-6938994D01*
X-23352473Y-6955818D01*
X-23356428Y-6970059D01*
X-23367282Y-6989771D01*
X-23385603Y-7010018D01*
X-23410983Y-7030363D01*
X-23415769Y-7033664D01*
X-23489001Y-7087738D01*
X-23556469Y-7146942D01*
X-23617931Y-7210983D01*
X-23673147Y-7279569D01*
X-23721873Y-7352405D01*
X-23763868Y-7429201D01*
X-23789376Y-7485751D01*
X-23801721Y-7516942D01*
X-23812941Y-7548335D01*
X-23823691Y-7581956D01*
X-23834628Y-7619833D01*
X-23843484Y-7652771D01*
X-23848796Y-7671014D01*
X-23854211Y-7684062D01*
X-23861050Y-7694563D01*
X-23868503Y-7702984D01*
X-23884066Y-7716423D01*
X-23900453Y-7724502D01*
X-23918764Y-7727265D01*
X-23940096Y-7724757D01*
X-23965548Y-7717022D01*
X-23987979Y-7707827D01*
X-24108498Y-7658383D01*
X-24232787Y-7615101D01*
X-24361429Y-7577801D01*
X-24495006Y-7546301D01*
X-24525687Y-7540017D01*
X-24560370Y-7532916D01*
X-24588751Y-7526604D01*
X-24612370Y-7520632D01*
X-24632764Y-7514555D01*
X-24651473Y-7507926D01*
X-24670035Y-7500296D01*
X-24683873Y-7494072D01*
X-24736854Y-7465333D01*
X-24785921Y-7430188D01*
X-24830505Y-7389366D01*
X-24870033Y-7343595D01*
X-24903934Y-7293603D01*
X-24931637Y-7240119D01*
X-24952571Y-7183872D01*
X-24964218Y-7136552D01*
X-24972342Y-7073793D01*
X-24972879Y-7012164D01*
X-24966155Y-6952149D01*
X-24952496Y-6894233D01*
X-24932226Y-6838904D01*
X-24905671Y-6786645D01*
X-24873155Y-6737942D01*
X-24835005Y-6693281D01*
X-24791545Y-6653146D01*
X-24743100Y-6618025D01*
X-24689996Y-6588401D01*
X-24632558Y-6564760D01*
X-24571111Y-6547588D01*
X-24569401Y-6547219D01*
X-24551719Y-6544037D01*
X-24532477Y-6541913D01*
X-24509778Y-6540716D01*
X-24481730Y-6540314D01*
X-24470182Y-6540337D01*
G37*
X-23114506Y-7497744D02*
X-23104489Y-7500501D01*
X-23098602Y-7502693D01*
X-23092612Y-7505668D01*
X-23085887Y-7509983D01*
X-23077796Y-7516197D01*
X-23067706Y-7524868D01*
X-23054986Y-7536554D01*
X-23039003Y-7551814D01*
X-23019125Y-7571204D01*
X-22994721Y-7595283D01*
X-22974957Y-7614880D01*
X-22866811Y-7722233D01*
X-22760645Y-7617032D01*
X-22732077Y-7588945D01*
X-22706322Y-7564069D01*
X-22683875Y-7542858D01*
X-22665228Y-7525771D01*
X-22650876Y-7513264D01*
X-22641313Y-7505793D01*
X-22638604Y-7504147D01*
X-22620453Y-7498507D01*
X-22598447Y-7496247D01*
X-22575738Y-7497328D01*
X-22555479Y-7501711D01*
X-22546947Y-7505289D01*
X-22527717Y-7518943D01*
X-22510939Y-7537314D01*
X-22499689Y-7556627D01*
X-22495621Y-7572497D01*
X-22493995Y-7592489D01*
X-22494804Y-7613173D01*
X-22498038Y-7631121D01*
X-22499893Y-7636489D01*
X-22504805Y-7644005D01*
X-22515448Y-7656814D01*
X-22531730Y-7674815D01*
X-22553556Y-7697908D01*
X-22580835Y-7725992D01*
X-22613473Y-7758967D01*
X-22613864Y-7759359D01*
X-22721687Y-7867473D01*
X-22615858Y-7973774D01*
X-22584916Y-8005038D01*
X-22559409Y-8031231D01*
X-22538995Y-8052725D01*
X-22523333Y-8069893D01*
X-22512080Y-8083107D01*
X-22504896Y-8092739D01*
X-22501973Y-8097831D01*
X-22494904Y-8122144D01*
X-22493808Y-8148731D01*
X-22498620Y-8174713D01*
X-22504024Y-8188237D01*
X-22519679Y-8211452D01*
X-22540303Y-8228674D01*
X-22562926Y-8238733D01*
X-22580623Y-8243114D01*
X-22595638Y-8244148D01*
X-22611644Y-8241809D01*
X-22624985Y-8238271D01*
X-22630727Y-8236399D01*
X-22636361Y-8233923D01*
X-22642513Y-8230295D01*
X-22649807Y-8224964D01*
X-22658867Y-8217380D01*
X-22670317Y-8206995D01*
X-22684782Y-8193256D01*
X-22702886Y-8175616D01*
X-22725253Y-8153524D01*
X-22752507Y-8126430D01*
X-22756674Y-8122280D01*
X-22866807Y-8012589D01*
X-22976940Y-8122280D01*
X-23004916Y-8150105D01*
X-23027918Y-8172853D01*
X-23046571Y-8191073D01*
X-23061500Y-8205316D01*
X-23073328Y-8216130D01*
X-23082679Y-8224066D01*
X-23090179Y-8229675D01*
X-23096451Y-8233505D01*
X-23102120Y-8236106D01*
X-23107810Y-8238029D01*
X-23108629Y-8238271D01*
X-23127410Y-8242924D01*
X-23142701Y-8244183D01*
X-23158173Y-8242078D01*
X-23170688Y-8238733D01*
X-23195345Y-8227492D01*
X-23215225Y-8210402D01*
X-23229656Y-8188407D01*
X-23237966Y-8162452D01*
X-23239782Y-8141598D01*
X-23239548Y-8130444D01*
X-23238597Y-8120482D01*
X-23236433Y-8111030D01*
X-23232561Y-8101407D01*
X-23226487Y-8090932D01*
X-23217714Y-8078924D01*
X-23205748Y-8064703D01*
X-23190094Y-8047586D01*
X-23170256Y-8026895D01*
X-23145740Y-8001946D01*
X-23117756Y-7973774D01*
X-23011927Y-7867473D01*
X-23119589Y-7759359D01*
X-23151989Y-7726607D01*
X-23178747Y-7699078D01*
X-23200033Y-7676590D01*
X-23216016Y-7658958D01*
X-23226867Y-7646000D01*
X-23232753Y-7637530D01*
X-23233560Y-7635877D01*
X-23239427Y-7611956D01*
X-23239209Y-7585914D01*
X-23233352Y-7560140D01*
X-23222301Y-7537024D01*
X-23212846Y-7524873D01*
X-23192656Y-7509080D01*
X-23168362Y-7499030D01*
X-23141724Y-7495120D01*
X-23114506Y-7497744D01*
G36*
X-23114506Y-7497744D02*
G01*
X-23104489Y-7500501D01*
X-23098602Y-7502693D01*
X-23092612Y-7505668D01*
X-23085887Y-7509983D01*
X-23077796Y-7516197D01*
X-23067706Y-7524868D01*
X-23054986Y-7536554D01*
X-23039003Y-7551814D01*
X-23019125Y-7571204D01*
X-22994721Y-7595283D01*
X-22974957Y-7614880D01*
X-22866811Y-7722233D01*
X-22760645Y-7617032D01*
X-22732077Y-7588945D01*
X-22706322Y-7564069D01*
X-22683875Y-7542858D01*
X-22665228Y-7525771D01*
X-22650876Y-7513264D01*
X-22641313Y-7505793D01*
X-22638604Y-7504147D01*
X-22620453Y-7498507D01*
X-22598447Y-7496247D01*
X-22575738Y-7497328D01*
X-22555479Y-7501711D01*
X-22546947Y-7505289D01*
X-22527717Y-7518943D01*
X-22510939Y-7537314D01*
X-22499689Y-7556627D01*
X-22495621Y-7572497D01*
X-22493995Y-7592489D01*
X-22494804Y-7613173D01*
X-22498038Y-7631121D01*
X-22499893Y-7636489D01*
X-22504805Y-7644005D01*
X-22515448Y-7656814D01*
X-22531730Y-7674815D01*
X-22553556Y-7697908D01*
X-22580835Y-7725992D01*
X-22613473Y-7758967D01*
X-22613864Y-7759359D01*
X-22721687Y-7867473D01*
X-22615858Y-7973774D01*
X-22584916Y-8005038D01*
X-22559409Y-8031231D01*
X-22538995Y-8052725D01*
X-22523333Y-8069893D01*
X-22512080Y-8083107D01*
X-22504896Y-8092739D01*
X-22501973Y-8097831D01*
X-22494904Y-8122144D01*
X-22493808Y-8148731D01*
X-22498620Y-8174713D01*
X-22504024Y-8188237D01*
X-22519679Y-8211452D01*
X-22540303Y-8228674D01*
X-22562926Y-8238733D01*
X-22580623Y-8243114D01*
X-22595638Y-8244148D01*
X-22611644Y-8241809D01*
X-22624985Y-8238271D01*
X-22630727Y-8236399D01*
X-22636361Y-8233923D01*
X-22642513Y-8230295D01*
X-22649807Y-8224964D01*
X-22658867Y-8217380D01*
X-22670317Y-8206995D01*
X-22684782Y-8193256D01*
X-22702886Y-8175616D01*
X-22725253Y-8153524D01*
X-22752507Y-8126430D01*
X-22756674Y-8122280D01*
X-22866807Y-8012589D01*
X-22976940Y-8122280D01*
X-23004916Y-8150105D01*
X-23027918Y-8172853D01*
X-23046571Y-8191073D01*
X-23061500Y-8205316D01*
X-23073328Y-8216130D01*
X-23082679Y-8224066D01*
X-23090179Y-8229675D01*
X-23096451Y-8233505D01*
X-23102120Y-8236106D01*
X-23107810Y-8238029D01*
X-23108629Y-8238271D01*
X-23127410Y-8242924D01*
X-23142701Y-8244183D01*
X-23158173Y-8242078D01*
X-23170688Y-8238733D01*
X-23195345Y-8227492D01*
X-23215225Y-8210402D01*
X-23229656Y-8188407D01*
X-23237966Y-8162452D01*
X-23239782Y-8141598D01*
X-23239548Y-8130444D01*
X-23238597Y-8120482D01*
X-23236433Y-8111030D01*
X-23232561Y-8101407D01*
X-23226487Y-8090932D01*
X-23217714Y-8078924D01*
X-23205748Y-8064703D01*
X-23190094Y-8047586D01*
X-23170256Y-8026895D01*
X-23145740Y-8001946D01*
X-23117756Y-7973774D01*
X-23011927Y-7867473D01*
X-23119589Y-7759359D01*
X-23151989Y-7726607D01*
X-23178747Y-7699078D01*
X-23200033Y-7676590D01*
X-23216016Y-7658958D01*
X-23226867Y-7646000D01*
X-23232753Y-7637530D01*
X-23233560Y-7635877D01*
X-23239427Y-7611956D01*
X-23239209Y-7585914D01*
X-23233352Y-7560140D01*
X-23222301Y-7537024D01*
X-23212846Y-7524873D01*
X-23192656Y-7509080D01*
X-23168362Y-7499030D01*
X-23141724Y-7495120D01*
X-23114506Y-7497744D01*
G37*
%TO.C,MH4*%
X24512315Y-6537096D02*
X24545902Y-6540966D01*
X24609337Y-6555459D01*
X24669119Y-6576835D01*
X24724897Y-6604856D01*
X24776323Y-6639281D01*
X24823045Y-6679872D01*
X24864713Y-6726389D01*
X24900978Y-6778594D01*
X24905932Y-6786904D01*
X24932227Y-6839619D01*
X24951937Y-6895851D01*
X24964956Y-6954533D01*
X24971177Y-7014596D01*
X24970493Y-7074970D01*
X24962798Y-7134588D01*
X24947986Y-7192382D01*
X24946724Y-7196199D01*
X24923810Y-7252257D01*
X24894010Y-7305207D01*
X24857995Y-7354362D01*
X24816432Y-7399036D01*
X24769989Y-7438543D01*
X24719336Y-7472196D01*
X24665140Y-7499309D01*
X24643131Y-7507983D01*
X24628842Y-7512533D01*
X24608620Y-7518064D01*
X24584336Y-7524111D01*
X24557860Y-7530208D01*
X24531066Y-7535889D01*
X24530627Y-7535977D01*
X24430898Y-7557604D01*
X24337130Y-7581195D01*
X24247475Y-7607311D01*
X24160080Y-7636512D01*
X24073097Y-7669358D01*
X24025400Y-7688910D01*
X23990892Y-7702590D01*
X23962060Y-7711966D01*
X23937943Y-7717091D01*
X23917585Y-7718019D01*
X23900026Y-7714804D01*
X23884306Y-7707499D01*
X23871026Y-7697548D01*
X23861761Y-7688598D01*
X23854095Y-7678888D01*
X23847359Y-7667032D01*
X23840883Y-7651640D01*
X23833996Y-7631327D01*
X23826029Y-7604704D01*
X23825773Y-7603818D01*
X23808089Y-7547027D01*
X23789044Y-7495296D01*
X23767517Y-7445753D01*
X23751323Y-7412692D01*
X23708585Y-7337558D01*
X23659061Y-7265980D01*
X23603381Y-7198684D01*
X23542177Y-7136399D01*
X23476080Y-7079852D01*
X23438759Y-7052090D01*
X23409961Y-7030157D01*
X23388210Y-7009823D01*
X23372965Y-6990362D01*
X23363685Y-6971045D01*
X23359826Y-6951148D01*
X23359645Y-6945983D01*
X23361533Y-6927432D01*
X23367866Y-6910698D01*
X23379303Y-6895073D01*
X23396502Y-6879848D01*
X23420124Y-6864313D01*
X23450827Y-6847762D01*
X23451138Y-6847605D01*
X23572727Y-6790208D01*
X23700375Y-6736781D01*
X23833085Y-6687662D01*
X23969861Y-6643188D01*
X24109705Y-6603697D01*
X24251619Y-6569525D01*
X24310259Y-6557112D01*
X24369736Y-6546305D01*
X24422870Y-6539392D01*
X24470212Y-6536335D01*
X24512315Y-6537096D01*
G36*
X24512315Y-6537096D02*
G01*
X24545902Y-6540966D01*
X24609337Y-6555459D01*
X24669119Y-6576835D01*
X24724897Y-6604856D01*
X24776323Y-6639281D01*
X24823045Y-6679872D01*
X24864713Y-6726389D01*
X24900978Y-6778594D01*
X24905932Y-6786904D01*
X24932227Y-6839619D01*
X24951937Y-6895851D01*
X24964956Y-6954533D01*
X24971177Y-7014596D01*
X24970493Y-7074970D01*
X24962798Y-7134588D01*
X24947986Y-7192382D01*
X24946724Y-7196199D01*
X24923810Y-7252257D01*
X24894010Y-7305207D01*
X24857995Y-7354362D01*
X24816432Y-7399036D01*
X24769989Y-7438543D01*
X24719336Y-7472196D01*
X24665140Y-7499309D01*
X24643131Y-7507983D01*
X24628842Y-7512533D01*
X24608620Y-7518064D01*
X24584336Y-7524111D01*
X24557860Y-7530208D01*
X24531066Y-7535889D01*
X24530627Y-7535977D01*
X24430898Y-7557604D01*
X24337130Y-7581195D01*
X24247475Y-7607311D01*
X24160080Y-7636512D01*
X24073097Y-7669358D01*
X24025400Y-7688910D01*
X23990892Y-7702590D01*
X23962060Y-7711966D01*
X23937943Y-7717091D01*
X23917585Y-7718019D01*
X23900026Y-7714804D01*
X23884306Y-7707499D01*
X23871026Y-7697548D01*
X23861761Y-7688598D01*
X23854095Y-7678888D01*
X23847359Y-7667032D01*
X23840883Y-7651640D01*
X23833996Y-7631327D01*
X23826029Y-7604704D01*
X23825773Y-7603818D01*
X23808089Y-7547027D01*
X23789044Y-7495296D01*
X23767517Y-7445753D01*
X23751323Y-7412692D01*
X23708585Y-7337558D01*
X23659061Y-7265980D01*
X23603381Y-7198684D01*
X23542177Y-7136399D01*
X23476080Y-7079852D01*
X23438759Y-7052090D01*
X23409961Y-7030157D01*
X23388210Y-7009823D01*
X23372965Y-6990362D01*
X23363685Y-6971045D01*
X23359826Y-6951148D01*
X23359645Y-6945983D01*
X23361533Y-6927432D01*
X23367866Y-6910698D01*
X23379303Y-6895073D01*
X23396502Y-6879848D01*
X23420124Y-6864313D01*
X23450827Y-6847762D01*
X23451138Y-6847605D01*
X23572727Y-6790208D01*
X23700375Y-6736781D01*
X23833085Y-6687662D01*
X23969861Y-6643188D01*
X24109705Y-6603697D01*
X24251619Y-6569525D01*
X24310259Y-6557112D01*
X24369736Y-6546305D01*
X24422870Y-6539392D01*
X24470212Y-6536335D01*
X24512315Y-6537096D01*
G37*
X21953413Y-8350599D02*
X21967654Y-8354554D01*
X21987366Y-8365408D01*
X22007613Y-8383729D01*
X22027958Y-8409109D01*
X22031259Y-8413895D01*
X22085333Y-8487127D01*
X22144537Y-8554595D01*
X22208578Y-8616057D01*
X22277164Y-8671273D01*
X22350000Y-8719999D01*
X22426796Y-8761994D01*
X22483346Y-8787502D01*
X22514537Y-8799847D01*
X22545930Y-8811067D01*
X22579551Y-8821817D01*
X22617428Y-8832754D01*
X22650366Y-8841610D01*
X22668609Y-8846922D01*
X22681657Y-8852337D01*
X22692158Y-8859176D01*
X22700579Y-8866629D01*
X22714018Y-8882192D01*
X22722097Y-8898579D01*
X22724860Y-8916890D01*
X22722352Y-8938222D01*
X22714617Y-8963674D01*
X22705422Y-8986105D01*
X22655978Y-9106624D01*
X22612696Y-9230913D01*
X22575396Y-9359555D01*
X22543896Y-9493132D01*
X22537612Y-9523813D01*
X22530511Y-9558496D01*
X22524199Y-9586877D01*
X22518227Y-9610496D01*
X22512150Y-9630890D01*
X22505521Y-9649599D01*
X22497891Y-9668161D01*
X22491667Y-9681999D01*
X22462928Y-9734980D01*
X22427783Y-9784047D01*
X22386961Y-9828631D01*
X22341190Y-9868159D01*
X22291198Y-9902060D01*
X22237714Y-9929763D01*
X22181467Y-9950697D01*
X22134147Y-9962344D01*
X22071388Y-9970468D01*
X22009759Y-9971005D01*
X21949744Y-9964281D01*
X21891828Y-9950622D01*
X21836499Y-9930352D01*
X21784240Y-9903797D01*
X21735537Y-9871281D01*
X21690876Y-9833131D01*
X21650741Y-9789671D01*
X21615620Y-9741226D01*
X21585996Y-9688122D01*
X21562355Y-9630684D01*
X21545183Y-9569237D01*
X21544814Y-9567527D01*
X21541632Y-9549845D01*
X21539508Y-9530603D01*
X21538311Y-9507904D01*
X21537909Y-9479856D01*
X21537932Y-9468308D01*
X21538309Y-9446623D01*
X21539313Y-9425660D01*
X21541106Y-9404417D01*
X21543849Y-9381889D01*
X21547704Y-9357072D01*
X21552833Y-9328962D01*
X21559396Y-9296555D01*
X21567556Y-9258848D01*
X21577475Y-9214835D01*
X21581693Y-9196449D01*
X21610206Y-9083036D01*
X21644001Y-8966857D01*
X21682412Y-8849769D01*
X21724772Y-8733628D01*
X21770414Y-8620291D01*
X21818673Y-8511615D01*
X21853083Y-8440446D01*
X21867568Y-8412919D01*
X21880362Y-8391888D01*
X21892276Y-8376316D01*
X21904118Y-8365164D01*
X21916698Y-8357395D01*
X21918555Y-8356522D01*
X21936589Y-8350547D01*
X21953413Y-8350599D01*
G36*
X21953413Y-8350599D02*
G01*
X21967654Y-8354554D01*
X21987366Y-8365408D01*
X22007613Y-8383729D01*
X22027958Y-8409109D01*
X22031259Y-8413895D01*
X22085333Y-8487127D01*
X22144537Y-8554595D01*
X22208578Y-8616057D01*
X22277164Y-8671273D01*
X22350000Y-8719999D01*
X22426796Y-8761994D01*
X22483346Y-8787502D01*
X22514537Y-8799847D01*
X22545930Y-8811067D01*
X22579551Y-8821817D01*
X22617428Y-8832754D01*
X22650366Y-8841610D01*
X22668609Y-8846922D01*
X22681657Y-8852337D01*
X22692158Y-8859176D01*
X22700579Y-8866629D01*
X22714018Y-8882192D01*
X22722097Y-8898579D01*
X22724860Y-8916890D01*
X22722352Y-8938222D01*
X22714617Y-8963674D01*
X22705422Y-8986105D01*
X22655978Y-9106624D01*
X22612696Y-9230913D01*
X22575396Y-9359555D01*
X22543896Y-9493132D01*
X22537612Y-9523813D01*
X22530511Y-9558496D01*
X22524199Y-9586877D01*
X22518227Y-9610496D01*
X22512150Y-9630890D01*
X22505521Y-9649599D01*
X22497891Y-9668161D01*
X22491667Y-9681999D01*
X22462928Y-9734980D01*
X22427783Y-9784047D01*
X22386961Y-9828631D01*
X22341190Y-9868159D01*
X22291198Y-9902060D01*
X22237714Y-9929763D01*
X22181467Y-9950697D01*
X22134147Y-9962344D01*
X22071388Y-9970468D01*
X22009759Y-9971005D01*
X21949744Y-9964281D01*
X21891828Y-9950622D01*
X21836499Y-9930352D01*
X21784240Y-9903797D01*
X21735537Y-9871281D01*
X21690876Y-9833131D01*
X21650741Y-9789671D01*
X21615620Y-9741226D01*
X21585996Y-9688122D01*
X21562355Y-9630684D01*
X21545183Y-9569237D01*
X21544814Y-9567527D01*
X21541632Y-9549845D01*
X21539508Y-9530603D01*
X21538311Y-9507904D01*
X21537909Y-9479856D01*
X21537932Y-9468308D01*
X21538309Y-9446623D01*
X21539313Y-9425660D01*
X21541106Y-9404417D01*
X21543849Y-9381889D01*
X21547704Y-9357072D01*
X21552833Y-9328962D01*
X21559396Y-9296555D01*
X21567556Y-9258848D01*
X21577475Y-9214835D01*
X21581693Y-9196449D01*
X21610206Y-9083036D01*
X21644001Y-8966857D01*
X21682412Y-8849769D01*
X21724772Y-8733628D01*
X21770414Y-8620291D01*
X21818673Y-8511615D01*
X21853083Y-8440446D01*
X21867568Y-8412919D01*
X21880362Y-8391888D01*
X21892276Y-8376316D01*
X21904118Y-8365164D01*
X21916698Y-8357395D01*
X21918555Y-8356522D01*
X21936589Y-8350547D01*
X21953413Y-8350599D01*
G37*
X23162030Y-7467280D02*
X23171010Y-7469281D01*
X23201038Y-7481521D01*
X23226016Y-7499423D01*
X23245381Y-7522200D01*
X23258566Y-7549064D01*
X23265008Y-7579227D01*
X23265280Y-7600726D01*
X23264812Y-7608241D01*
X23264213Y-7615108D01*
X23263171Y-7621687D01*
X23261374Y-7628333D01*
X23258508Y-7635404D01*
X23254261Y-7643257D01*
X23248322Y-7652249D01*
X23240377Y-7662738D01*
X23230113Y-7675081D01*
X23217220Y-7689634D01*
X23201383Y-7706755D01*
X23182291Y-7726802D01*
X23159631Y-7750131D01*
X23133091Y-7777099D01*
X23102358Y-7808064D01*
X23067119Y-7843383D01*
X23027063Y-7883414D01*
X22981877Y-7928512D01*
X22955569Y-7954763D01*
X22909008Y-8001216D01*
X22867712Y-8042383D01*
X22831336Y-8078591D01*
X22799534Y-8110171D01*
X22771962Y-8137449D01*
X22748274Y-8160755D01*
X22728124Y-8180416D01*
X22711168Y-8196762D01*
X22697060Y-8210120D01*
X22685454Y-8220819D01*
X22676005Y-8229188D01*
X22668368Y-8235554D01*
X22662198Y-8240247D01*
X22657149Y-8243594D01*
X22652875Y-8245925D01*
X22649033Y-8247566D01*
X22646855Y-8248336D01*
X22615323Y-8255056D01*
X22584413Y-8254451D01*
X22555192Y-8246918D01*
X22528724Y-8232857D01*
X22506076Y-8212666D01*
X22489876Y-8189652D01*
X22484291Y-8178838D01*
X22480827Y-8169326D01*
X22478989Y-8158610D01*
X22478277Y-8144187D01*
X22478183Y-8130839D01*
X22478527Y-8111299D01*
X22479840Y-8097117D01*
X22482546Y-8085735D01*
X22487066Y-8074591D01*
X22487682Y-8073292D01*
X22490347Y-8068862D01*
X22495109Y-8062531D01*
X22502260Y-8053996D01*
X22512088Y-8042958D01*
X22524886Y-8029115D01*
X22540944Y-8012164D01*
X22560552Y-7991806D01*
X22584002Y-7967737D01*
X22611583Y-7939658D01*
X22643588Y-7907266D01*
X22680305Y-7870261D01*
X22722027Y-7828340D01*
X22769043Y-7781202D01*
X22779385Y-7770845D01*
X22826159Y-7724028D01*
X22867684Y-7682523D01*
X22904299Y-7646003D01*
X22936345Y-7614143D01*
X22964158Y-7586617D01*
X22988079Y-7563098D01*
X23008447Y-7543261D01*
X23025600Y-7526780D01*
X23039878Y-7513328D01*
X23051620Y-7502580D01*
X23061164Y-7494209D01*
X23068850Y-7487890D01*
X23075016Y-7483297D01*
X23080002Y-7480103D01*
X23083758Y-7478156D01*
X23109322Y-7469631D01*
X23136419Y-7465903D01*
X23162030Y-7467280D01*
G36*
X23162030Y-7467280D02*
G01*
X23171010Y-7469281D01*
X23201038Y-7481521D01*
X23226016Y-7499423D01*
X23245381Y-7522200D01*
X23258566Y-7549064D01*
X23265008Y-7579227D01*
X23265280Y-7600726D01*
X23264812Y-7608241D01*
X23264213Y-7615108D01*
X23263171Y-7621687D01*
X23261374Y-7628333D01*
X23258508Y-7635404D01*
X23254261Y-7643257D01*
X23248322Y-7652249D01*
X23240377Y-7662738D01*
X23230113Y-7675081D01*
X23217220Y-7689634D01*
X23201383Y-7706755D01*
X23182291Y-7726802D01*
X23159631Y-7750131D01*
X23133091Y-7777099D01*
X23102358Y-7808064D01*
X23067119Y-7843383D01*
X23027063Y-7883414D01*
X22981877Y-7928512D01*
X22955569Y-7954763D01*
X22909008Y-8001216D01*
X22867712Y-8042383D01*
X22831336Y-8078591D01*
X22799534Y-8110171D01*
X22771962Y-8137449D01*
X22748274Y-8160755D01*
X22728124Y-8180416D01*
X22711168Y-8196762D01*
X22697060Y-8210120D01*
X22685454Y-8220819D01*
X22676005Y-8229188D01*
X22668368Y-8235554D01*
X22662198Y-8240247D01*
X22657149Y-8243594D01*
X22652875Y-8245925D01*
X22649033Y-8247566D01*
X22646855Y-8248336D01*
X22615323Y-8255056D01*
X22584413Y-8254451D01*
X22555192Y-8246918D01*
X22528724Y-8232857D01*
X22506076Y-8212666D01*
X22489876Y-8189652D01*
X22484291Y-8178838D01*
X22480827Y-8169326D01*
X22478989Y-8158610D01*
X22478277Y-8144187D01*
X22478183Y-8130839D01*
X22478527Y-8111299D01*
X22479840Y-8097117D01*
X22482546Y-8085735D01*
X22487066Y-8074591D01*
X22487682Y-8073292D01*
X22490347Y-8068862D01*
X22495109Y-8062531D01*
X22502260Y-8053996D01*
X22512088Y-8042958D01*
X22524886Y-8029115D01*
X22540944Y-8012164D01*
X22560552Y-7991806D01*
X22584002Y-7967737D01*
X22611583Y-7939658D01*
X22643588Y-7907266D01*
X22680305Y-7870261D01*
X22722027Y-7828340D01*
X22769043Y-7781202D01*
X22779385Y-7770845D01*
X22826159Y-7724028D01*
X22867684Y-7682523D01*
X22904299Y-7646003D01*
X22936345Y-7614143D01*
X22964158Y-7586617D01*
X22988079Y-7563098D01*
X23008447Y-7543261D01*
X23025600Y-7526780D01*
X23039878Y-7513328D01*
X23051620Y-7502580D01*
X23061164Y-7494209D01*
X23068850Y-7487890D01*
X23075016Y-7483297D01*
X23080002Y-7480103D01*
X23083758Y-7478156D01*
X23109322Y-7469631D01*
X23136419Y-7465903D01*
X23162030Y-7467280D01*
G37*
%TO.C,MH2*%
X22075573Y9972893D02*
X22135191Y9965198D01*
X22192985Y9950386D01*
X22196802Y9949124D01*
X22252860Y9926210D01*
X22305810Y9896410D01*
X22354965Y9860395D01*
X22399639Y9818832D01*
X22439146Y9772389D01*
X22472799Y9721736D01*
X22499912Y9667540D01*
X22508586Y9645531D01*
X22513136Y9631242D01*
X22518667Y9611020D01*
X22524714Y9586736D01*
X22530811Y9560260D01*
X22536492Y9533466D01*
X22536580Y9533027D01*
X22558207Y9433298D01*
X22581798Y9339530D01*
X22607914Y9249875D01*
X22637115Y9162480D01*
X22669961Y9075497D01*
X22689513Y9027800D01*
X22703193Y8993292D01*
X22712569Y8964460D01*
X22717694Y8940343D01*
X22718622Y8919985D01*
X22715407Y8902426D01*
X22708102Y8886706D01*
X22698151Y8873426D01*
X22689201Y8864161D01*
X22679491Y8856495D01*
X22667635Y8849759D01*
X22652243Y8843283D01*
X22631930Y8836396D01*
X22605307Y8828429D01*
X22604421Y8828173D01*
X22547630Y8810489D01*
X22495899Y8791444D01*
X22446356Y8769917D01*
X22413295Y8753723D01*
X22338161Y8710985D01*
X22266583Y8661461D01*
X22199287Y8605781D01*
X22137002Y8544577D01*
X22080455Y8478480D01*
X22052693Y8441159D01*
X22030760Y8412361D01*
X22010426Y8390610D01*
X21990965Y8375365D01*
X21971648Y8366085D01*
X21951751Y8362226D01*
X21946586Y8362045D01*
X21928035Y8363933D01*
X21911301Y8370266D01*
X21895676Y8381703D01*
X21880451Y8398902D01*
X21864916Y8422524D01*
X21848365Y8453227D01*
X21848208Y8453538D01*
X21790811Y8575127D01*
X21737384Y8702775D01*
X21688265Y8835485D01*
X21643791Y8972261D01*
X21604300Y9112105D01*
X21570128Y9254019D01*
X21557715Y9312659D01*
X21546908Y9372136D01*
X21539995Y9425270D01*
X21536938Y9472612D01*
X21537699Y9514715D01*
X21541569Y9548302D01*
X21556062Y9611737D01*
X21577438Y9671519D01*
X21605459Y9727297D01*
X21639884Y9778723D01*
X21680475Y9825445D01*
X21726992Y9867113D01*
X21779197Y9903378D01*
X21787507Y9908332D01*
X21840222Y9934627D01*
X21896454Y9954337D01*
X21955136Y9967356D01*
X22015199Y9973577D01*
X22075573Y9972893D01*
G36*
X22075573Y9972893D02*
G01*
X22135191Y9965198D01*
X22192985Y9950386D01*
X22196802Y9949124D01*
X22252860Y9926210D01*
X22305810Y9896410D01*
X22354965Y9860395D01*
X22399639Y9818832D01*
X22439146Y9772389D01*
X22472799Y9721736D01*
X22499912Y9667540D01*
X22508586Y9645531D01*
X22513136Y9631242D01*
X22518667Y9611020D01*
X22524714Y9586736D01*
X22530811Y9560260D01*
X22536492Y9533466D01*
X22536580Y9533027D01*
X22558207Y9433298D01*
X22581798Y9339530D01*
X22607914Y9249875D01*
X22637115Y9162480D01*
X22669961Y9075497D01*
X22689513Y9027800D01*
X22703193Y8993292D01*
X22712569Y8964460D01*
X22717694Y8940343D01*
X22718622Y8919985D01*
X22715407Y8902426D01*
X22708102Y8886706D01*
X22698151Y8873426D01*
X22689201Y8864161D01*
X22679491Y8856495D01*
X22667635Y8849759D01*
X22652243Y8843283D01*
X22631930Y8836396D01*
X22605307Y8828429D01*
X22604421Y8828173D01*
X22547630Y8810489D01*
X22495899Y8791444D01*
X22446356Y8769917D01*
X22413295Y8753723D01*
X22338161Y8710985D01*
X22266583Y8661461D01*
X22199287Y8605781D01*
X22137002Y8544577D01*
X22080455Y8478480D01*
X22052693Y8441159D01*
X22030760Y8412361D01*
X22010426Y8390610D01*
X21990965Y8375365D01*
X21971648Y8366085D01*
X21951751Y8362226D01*
X21946586Y8362045D01*
X21928035Y8363933D01*
X21911301Y8370266D01*
X21895676Y8381703D01*
X21880451Y8398902D01*
X21864916Y8422524D01*
X21848365Y8453227D01*
X21848208Y8453538D01*
X21790811Y8575127D01*
X21737384Y8702775D01*
X21688265Y8835485D01*
X21643791Y8972261D01*
X21604300Y9112105D01*
X21570128Y9254019D01*
X21557715Y9312659D01*
X21546908Y9372136D01*
X21539995Y9425270D01*
X21536938Y9472612D01*
X21537699Y9514715D01*
X21541569Y9548302D01*
X21556062Y9611737D01*
X21577438Y9671519D01*
X21605459Y9727297D01*
X21639884Y9778723D01*
X21680475Y9825445D01*
X21726992Y9867113D01*
X21779197Y9903378D01*
X21787507Y9908332D01*
X21840222Y9934627D01*
X21896454Y9954337D01*
X21955136Y9967356D01*
X22015199Y9973577D01*
X22075573Y9972893D01*
G37*
X22608844Y8267212D02*
X22615711Y8266613D01*
X22622290Y8265571D01*
X22628936Y8263774D01*
X22636007Y8260908D01*
X22643860Y8256661D01*
X22652852Y8250722D01*
X22663341Y8242777D01*
X22675684Y8232513D01*
X22690237Y8219620D01*
X22707358Y8203783D01*
X22727405Y8184691D01*
X22750734Y8162031D01*
X22777702Y8135491D01*
X22808667Y8104758D01*
X22843986Y8069519D01*
X22884017Y8029463D01*
X22929115Y7984277D01*
X22955366Y7957969D01*
X23001819Y7911408D01*
X23042986Y7870112D01*
X23079194Y7833736D01*
X23110774Y7801934D01*
X23138052Y7774362D01*
X23161358Y7750674D01*
X23181019Y7730524D01*
X23197365Y7713568D01*
X23210723Y7699460D01*
X23221422Y7687854D01*
X23229791Y7678405D01*
X23236157Y7670768D01*
X23240850Y7664598D01*
X23244197Y7659549D01*
X23246528Y7655275D01*
X23248169Y7651433D01*
X23248939Y7649255D01*
X23255659Y7617723D01*
X23255054Y7586813D01*
X23247521Y7557592D01*
X23233460Y7531124D01*
X23213269Y7508476D01*
X23190255Y7492276D01*
X23179441Y7486691D01*
X23169929Y7483227D01*
X23159213Y7481389D01*
X23144790Y7480677D01*
X23131442Y7480583D01*
X23111902Y7480927D01*
X23097720Y7482240D01*
X23086338Y7484946D01*
X23075194Y7489466D01*
X23073895Y7490082D01*
X23069465Y7492747D01*
X23063134Y7497509D01*
X23054599Y7504660D01*
X23043561Y7514488D01*
X23029718Y7527286D01*
X23012767Y7543344D01*
X22992409Y7562952D01*
X22968340Y7586402D01*
X22940261Y7613983D01*
X22907869Y7645988D01*
X22870864Y7682705D01*
X22828943Y7724427D01*
X22781805Y7771443D01*
X22771448Y7781785D01*
X22724631Y7828559D01*
X22683126Y7870084D01*
X22646606Y7906699D01*
X22614746Y7938745D01*
X22587220Y7966558D01*
X22563701Y7990479D01*
X22543864Y8010847D01*
X22527383Y8028000D01*
X22513931Y8042278D01*
X22503183Y8054020D01*
X22494812Y8063564D01*
X22488493Y8071250D01*
X22483900Y8077416D01*
X22480706Y8082402D01*
X22478759Y8086158D01*
X22470234Y8111722D01*
X22466506Y8138819D01*
X22467883Y8164430D01*
X22469884Y8173410D01*
X22482124Y8203438D01*
X22500026Y8228416D01*
X22522803Y8247781D01*
X22549667Y8260966D01*
X22579830Y8267408D01*
X22601329Y8267680D01*
X22608844Y8267212D01*
G36*
X22608844Y8267212D02*
G01*
X22615711Y8266613D01*
X22622290Y8265571D01*
X22628936Y8263774D01*
X22636007Y8260908D01*
X22643860Y8256661D01*
X22652852Y8250722D01*
X22663341Y8242777D01*
X22675684Y8232513D01*
X22690237Y8219620D01*
X22707358Y8203783D01*
X22727405Y8184691D01*
X22750734Y8162031D01*
X22777702Y8135491D01*
X22808667Y8104758D01*
X22843986Y8069519D01*
X22884017Y8029463D01*
X22929115Y7984277D01*
X22955366Y7957969D01*
X23001819Y7911408D01*
X23042986Y7870112D01*
X23079194Y7833736D01*
X23110774Y7801934D01*
X23138052Y7774362D01*
X23161358Y7750674D01*
X23181019Y7730524D01*
X23197365Y7713568D01*
X23210723Y7699460D01*
X23221422Y7687854D01*
X23229791Y7678405D01*
X23236157Y7670768D01*
X23240850Y7664598D01*
X23244197Y7659549D01*
X23246528Y7655275D01*
X23248169Y7651433D01*
X23248939Y7649255D01*
X23255659Y7617723D01*
X23255054Y7586813D01*
X23247521Y7557592D01*
X23233460Y7531124D01*
X23213269Y7508476D01*
X23190255Y7492276D01*
X23179441Y7486691D01*
X23169929Y7483227D01*
X23159213Y7481389D01*
X23144790Y7480677D01*
X23131442Y7480583D01*
X23111902Y7480927D01*
X23097720Y7482240D01*
X23086338Y7484946D01*
X23075194Y7489466D01*
X23073895Y7490082D01*
X23069465Y7492747D01*
X23063134Y7497509D01*
X23054599Y7504660D01*
X23043561Y7514488D01*
X23029718Y7527286D01*
X23012767Y7543344D01*
X22992409Y7562952D01*
X22968340Y7586402D01*
X22940261Y7613983D01*
X22907869Y7645988D01*
X22870864Y7682705D01*
X22828943Y7724427D01*
X22781805Y7771443D01*
X22771448Y7781785D01*
X22724631Y7828559D01*
X22683126Y7870084D01*
X22646606Y7906699D01*
X22614746Y7938745D01*
X22587220Y7966558D01*
X22563701Y7990479D01*
X22543864Y8010847D01*
X22527383Y8028000D01*
X22513931Y8042278D01*
X22503183Y8054020D01*
X22494812Y8063564D01*
X22488493Y8071250D01*
X22483900Y8077416D01*
X22480706Y8082402D01*
X22478759Y8086158D01*
X22470234Y8111722D01*
X22466506Y8138819D01*
X22467883Y8164430D01*
X22469884Y8173410D01*
X22482124Y8203438D01*
X22500026Y8228416D01*
X22522803Y8247781D01*
X22549667Y8260966D01*
X22579830Y8267408D01*
X22601329Y8267680D01*
X22608844Y8267212D01*
G37*
X23938825Y7724752D02*
X23964277Y7717017D01*
X23986708Y7707822D01*
X24107227Y7658378D01*
X24231516Y7615096D01*
X24360158Y7577796D01*
X24493735Y7546296D01*
X24524416Y7540012D01*
X24559099Y7532911D01*
X24587480Y7526599D01*
X24611099Y7520627D01*
X24631493Y7514550D01*
X24650202Y7507921D01*
X24668764Y7500291D01*
X24682602Y7494067D01*
X24735583Y7465328D01*
X24784650Y7430183D01*
X24829234Y7389361D01*
X24868762Y7343590D01*
X24902663Y7293598D01*
X24930366Y7240114D01*
X24951300Y7183867D01*
X24962947Y7136547D01*
X24971071Y7073788D01*
X24971608Y7012159D01*
X24964884Y6952144D01*
X24951225Y6894228D01*
X24930955Y6838899D01*
X24904400Y6786640D01*
X24871884Y6737937D01*
X24833734Y6693276D01*
X24790274Y6653141D01*
X24741829Y6618020D01*
X24688725Y6588396D01*
X24631287Y6564755D01*
X24569840Y6547583D01*
X24568130Y6547214D01*
X24550448Y6544032D01*
X24531206Y6541908D01*
X24508507Y6540711D01*
X24480459Y6540309D01*
X24468911Y6540332D01*
X24447226Y6540709D01*
X24426263Y6541713D01*
X24405020Y6543506D01*
X24382492Y6546249D01*
X24357675Y6550104D01*
X24329565Y6555233D01*
X24297158Y6561796D01*
X24259451Y6569956D01*
X24215438Y6579875D01*
X24197052Y6584093D01*
X24083639Y6612606D01*
X23967460Y6646401D01*
X23850372Y6684812D01*
X23734231Y6727172D01*
X23620894Y6772814D01*
X23512218Y6821073D01*
X23441049Y6855483D01*
X23413522Y6869968D01*
X23392491Y6882762D01*
X23376919Y6894676D01*
X23365767Y6906518D01*
X23357998Y6919098D01*
X23357125Y6920955D01*
X23351150Y6938989D01*
X23351202Y6955813D01*
X23355157Y6970054D01*
X23366011Y6989766D01*
X23384332Y7010013D01*
X23409712Y7030358D01*
X23414498Y7033659D01*
X23487730Y7087733D01*
X23555198Y7146937D01*
X23616660Y7210978D01*
X23671876Y7279564D01*
X23720602Y7352400D01*
X23762597Y7429196D01*
X23788105Y7485746D01*
X23800450Y7516937D01*
X23811670Y7548330D01*
X23822420Y7581951D01*
X23833357Y7619828D01*
X23842213Y7652766D01*
X23847525Y7671009D01*
X23852940Y7684057D01*
X23859779Y7694558D01*
X23867232Y7702979D01*
X23882795Y7716418D01*
X23899182Y7724497D01*
X23917493Y7727260D01*
X23938825Y7724752D01*
G36*
X23938825Y7724752D02*
G01*
X23964277Y7717017D01*
X23986708Y7707822D01*
X24107227Y7658378D01*
X24231516Y7615096D01*
X24360158Y7577796D01*
X24493735Y7546296D01*
X24524416Y7540012D01*
X24559099Y7532911D01*
X24587480Y7526599D01*
X24611099Y7520627D01*
X24631493Y7514550D01*
X24650202Y7507921D01*
X24668764Y7500291D01*
X24682602Y7494067D01*
X24735583Y7465328D01*
X24784650Y7430183D01*
X24829234Y7389361D01*
X24868762Y7343590D01*
X24902663Y7293598D01*
X24930366Y7240114D01*
X24951300Y7183867D01*
X24962947Y7136547D01*
X24971071Y7073788D01*
X24971608Y7012159D01*
X24964884Y6952144D01*
X24951225Y6894228D01*
X24930955Y6838899D01*
X24904400Y6786640D01*
X24871884Y6737937D01*
X24833734Y6693276D01*
X24790274Y6653141D01*
X24741829Y6618020D01*
X24688725Y6588396D01*
X24631287Y6564755D01*
X24569840Y6547583D01*
X24568130Y6547214D01*
X24550448Y6544032D01*
X24531206Y6541908D01*
X24508507Y6540711D01*
X24480459Y6540309D01*
X24468911Y6540332D01*
X24447226Y6540709D01*
X24426263Y6541713D01*
X24405020Y6543506D01*
X24382492Y6546249D01*
X24357675Y6550104D01*
X24329565Y6555233D01*
X24297158Y6561796D01*
X24259451Y6569956D01*
X24215438Y6579875D01*
X24197052Y6584093D01*
X24083639Y6612606D01*
X23967460Y6646401D01*
X23850372Y6684812D01*
X23734231Y6727172D01*
X23620894Y6772814D01*
X23512218Y6821073D01*
X23441049Y6855483D01*
X23413522Y6869968D01*
X23392491Y6882762D01*
X23376919Y6894676D01*
X23365767Y6906518D01*
X23357998Y6919098D01*
X23357125Y6920955D01*
X23351150Y6938989D01*
X23351202Y6955813D01*
X23355157Y6970054D01*
X23366011Y6989766D01*
X23384332Y7010013D01*
X23409712Y7030358D01*
X23414498Y7033659D01*
X23487730Y7087733D01*
X23555198Y7146937D01*
X23616660Y7210978D01*
X23671876Y7279564D01*
X23720602Y7352400D01*
X23762597Y7429196D01*
X23788105Y7485746D01*
X23800450Y7516937D01*
X23811670Y7548330D01*
X23822420Y7581951D01*
X23833357Y7619828D01*
X23842213Y7652766D01*
X23847525Y7671009D01*
X23852940Y7684057D01*
X23859779Y7694558D01*
X23867232Y7702979D01*
X23882795Y7716418D01*
X23899182Y7724497D01*
X23917493Y7727260D01*
X23938825Y7724752D01*
G37*
%TO.C,MH1*%
X-23899840Y7710688D02*
X-23884120Y7703383D01*
X-23870840Y7693432D01*
X-23861575Y7684482D01*
X-23853909Y7674772D01*
X-23847173Y7662916D01*
X-23840697Y7647524D01*
X-23833810Y7627211D01*
X-23825843Y7600588D01*
X-23825587Y7599702D01*
X-23807903Y7542911D01*
X-23788858Y7491180D01*
X-23767331Y7441637D01*
X-23751137Y7408576D01*
X-23708399Y7333442D01*
X-23658875Y7261864D01*
X-23603195Y7194568D01*
X-23541991Y7132283D01*
X-23475894Y7075736D01*
X-23438573Y7047974D01*
X-23409775Y7026041D01*
X-23388024Y7005707D01*
X-23372779Y6986246D01*
X-23363499Y6966929D01*
X-23359640Y6947032D01*
X-23359459Y6941867D01*
X-23361347Y6923316D01*
X-23367680Y6906582D01*
X-23379117Y6890957D01*
X-23396316Y6875732D01*
X-23419938Y6860197D01*
X-23450641Y6843646D01*
X-23450952Y6843489D01*
X-23572541Y6786092D01*
X-23700189Y6732665D01*
X-23832899Y6683546D01*
X-23969675Y6639072D01*
X-24109519Y6599581D01*
X-24251433Y6565409D01*
X-24310073Y6552996D01*
X-24369550Y6542189D01*
X-24422684Y6535276D01*
X-24470026Y6532219D01*
X-24512129Y6532980D01*
X-24545716Y6536850D01*
X-24609151Y6551343D01*
X-24668933Y6572719D01*
X-24724711Y6600740D01*
X-24776137Y6635165D01*
X-24822859Y6675756D01*
X-24864527Y6722273D01*
X-24900792Y6774478D01*
X-24905746Y6782788D01*
X-24932041Y6835503D01*
X-24951751Y6891735D01*
X-24964770Y6950417D01*
X-24970991Y7010480D01*
X-24970307Y7070854D01*
X-24962612Y7130472D01*
X-24947800Y7188266D01*
X-24946538Y7192083D01*
X-24923624Y7248141D01*
X-24893824Y7301091D01*
X-24857809Y7350246D01*
X-24816246Y7394920D01*
X-24769803Y7434427D01*
X-24719150Y7468080D01*
X-24664954Y7495193D01*
X-24642945Y7503867D01*
X-24628656Y7508417D01*
X-24608434Y7513948D01*
X-24584150Y7519995D01*
X-24557674Y7526092D01*
X-24530880Y7531773D01*
X-24530441Y7531861D01*
X-24430712Y7553488D01*
X-24336944Y7577079D01*
X-24247289Y7603195D01*
X-24159894Y7632396D01*
X-24072911Y7665242D01*
X-24025214Y7684794D01*
X-23990706Y7698474D01*
X-23961874Y7707850D01*
X-23937757Y7712975D01*
X-23917399Y7713903D01*
X-23899840Y7710688D01*
G36*
X-23899840Y7710688D02*
G01*
X-23884120Y7703383D01*
X-23870840Y7693432D01*
X-23861575Y7684482D01*
X-23853909Y7674772D01*
X-23847173Y7662916D01*
X-23840697Y7647524D01*
X-23833810Y7627211D01*
X-23825843Y7600588D01*
X-23825587Y7599702D01*
X-23807903Y7542911D01*
X-23788858Y7491180D01*
X-23767331Y7441637D01*
X-23751137Y7408576D01*
X-23708399Y7333442D01*
X-23658875Y7261864D01*
X-23603195Y7194568D01*
X-23541991Y7132283D01*
X-23475894Y7075736D01*
X-23438573Y7047974D01*
X-23409775Y7026041D01*
X-23388024Y7005707D01*
X-23372779Y6986246D01*
X-23363499Y6966929D01*
X-23359640Y6947032D01*
X-23359459Y6941867D01*
X-23361347Y6923316D01*
X-23367680Y6906582D01*
X-23379117Y6890957D01*
X-23396316Y6875732D01*
X-23419938Y6860197D01*
X-23450641Y6843646D01*
X-23450952Y6843489D01*
X-23572541Y6786092D01*
X-23700189Y6732665D01*
X-23832899Y6683546D01*
X-23969675Y6639072D01*
X-24109519Y6599581D01*
X-24251433Y6565409D01*
X-24310073Y6552996D01*
X-24369550Y6542189D01*
X-24422684Y6535276D01*
X-24470026Y6532219D01*
X-24512129Y6532980D01*
X-24545716Y6536850D01*
X-24609151Y6551343D01*
X-24668933Y6572719D01*
X-24724711Y6600740D01*
X-24776137Y6635165D01*
X-24822859Y6675756D01*
X-24864527Y6722273D01*
X-24900792Y6774478D01*
X-24905746Y6782788D01*
X-24932041Y6835503D01*
X-24951751Y6891735D01*
X-24964770Y6950417D01*
X-24970991Y7010480D01*
X-24970307Y7070854D01*
X-24962612Y7130472D01*
X-24947800Y7188266D01*
X-24946538Y7192083D01*
X-24923624Y7248141D01*
X-24893824Y7301091D01*
X-24857809Y7350246D01*
X-24816246Y7394920D01*
X-24769803Y7434427D01*
X-24719150Y7468080D01*
X-24664954Y7495193D01*
X-24642945Y7503867D01*
X-24628656Y7508417D01*
X-24608434Y7513948D01*
X-24584150Y7519995D01*
X-24557674Y7526092D01*
X-24530880Y7531773D01*
X-24530441Y7531861D01*
X-24430712Y7553488D01*
X-24336944Y7577079D01*
X-24247289Y7603195D01*
X-24159894Y7632396D01*
X-24072911Y7665242D01*
X-24025214Y7684794D01*
X-23990706Y7698474D01*
X-23961874Y7707850D01*
X-23937757Y7712975D01*
X-23917399Y7713903D01*
X-23899840Y7710688D01*
G37*
X-21949558Y9960165D02*
X-21891642Y9946506D01*
X-21836313Y9926236D01*
X-21784054Y9899681D01*
X-21735351Y9867165D01*
X-21690690Y9829015D01*
X-21650555Y9785555D01*
X-21615434Y9737110D01*
X-21585810Y9684006D01*
X-21562169Y9626568D01*
X-21544997Y9565121D01*
X-21544628Y9563411D01*
X-21541446Y9545729D01*
X-21539322Y9526487D01*
X-21538125Y9503788D01*
X-21537723Y9475740D01*
X-21537746Y9464192D01*
X-21538123Y9442507D01*
X-21539127Y9421544D01*
X-21540920Y9400301D01*
X-21543663Y9377773D01*
X-21547518Y9352956D01*
X-21552647Y9324846D01*
X-21559210Y9292439D01*
X-21567370Y9254732D01*
X-21577289Y9210719D01*
X-21581507Y9192333D01*
X-21610020Y9078920D01*
X-21643815Y8962741D01*
X-21682226Y8845653D01*
X-21724586Y8729512D01*
X-21770228Y8616175D01*
X-21818487Y8507499D01*
X-21852897Y8436330D01*
X-21867382Y8408803D01*
X-21880176Y8387772D01*
X-21892090Y8372200D01*
X-21903932Y8361048D01*
X-21916512Y8353279D01*
X-21918369Y8352406D01*
X-21936403Y8346431D01*
X-21953227Y8346483D01*
X-21967468Y8350438D01*
X-21987180Y8361292D01*
X-22007427Y8379613D01*
X-22027772Y8404993D01*
X-22031073Y8409779D01*
X-22085147Y8483011D01*
X-22144351Y8550479D01*
X-22208392Y8611941D01*
X-22276978Y8667157D01*
X-22349814Y8715883D01*
X-22426610Y8757878D01*
X-22483160Y8783386D01*
X-22514351Y8795731D01*
X-22545744Y8806951D01*
X-22579365Y8817701D01*
X-22617242Y8828638D01*
X-22650180Y8837494D01*
X-22668423Y8842806D01*
X-22681471Y8848221D01*
X-22691972Y8855060D01*
X-22700393Y8862513D01*
X-22713832Y8878076D01*
X-22721911Y8894463D01*
X-22724674Y8912774D01*
X-22722166Y8934106D01*
X-22714431Y8959558D01*
X-22705236Y8981989D01*
X-22655792Y9102508D01*
X-22612510Y9226797D01*
X-22575210Y9355439D01*
X-22543710Y9489016D01*
X-22537426Y9519697D01*
X-22530325Y9554380D01*
X-22524013Y9582761D01*
X-22518041Y9606380D01*
X-22511964Y9626774D01*
X-22505335Y9645483D01*
X-22497705Y9664045D01*
X-22491481Y9677883D01*
X-22462742Y9730864D01*
X-22427597Y9779931D01*
X-22386775Y9824515D01*
X-22341004Y9864043D01*
X-22291012Y9897944D01*
X-22237528Y9925647D01*
X-22181281Y9946581D01*
X-22133961Y9958228D01*
X-22071202Y9966352D01*
X-22009573Y9966889D01*
X-21949558Y9960165D01*
G36*
X-21949558Y9960165D02*
G01*
X-21891642Y9946506D01*
X-21836313Y9926236D01*
X-21784054Y9899681D01*
X-21735351Y9867165D01*
X-21690690Y9829015D01*
X-21650555Y9785555D01*
X-21615434Y9737110D01*
X-21585810Y9684006D01*
X-21562169Y9626568D01*
X-21544997Y9565121D01*
X-21544628Y9563411D01*
X-21541446Y9545729D01*
X-21539322Y9526487D01*
X-21538125Y9503788D01*
X-21537723Y9475740D01*
X-21537746Y9464192D01*
X-21538123Y9442507D01*
X-21539127Y9421544D01*
X-21540920Y9400301D01*
X-21543663Y9377773D01*
X-21547518Y9352956D01*
X-21552647Y9324846D01*
X-21559210Y9292439D01*
X-21567370Y9254732D01*
X-21577289Y9210719D01*
X-21581507Y9192333D01*
X-21610020Y9078920D01*
X-21643815Y8962741D01*
X-21682226Y8845653D01*
X-21724586Y8729512D01*
X-21770228Y8616175D01*
X-21818487Y8507499D01*
X-21852897Y8436330D01*
X-21867382Y8408803D01*
X-21880176Y8387772D01*
X-21892090Y8372200D01*
X-21903932Y8361048D01*
X-21916512Y8353279D01*
X-21918369Y8352406D01*
X-21936403Y8346431D01*
X-21953227Y8346483D01*
X-21967468Y8350438D01*
X-21987180Y8361292D01*
X-22007427Y8379613D01*
X-22027772Y8404993D01*
X-22031073Y8409779D01*
X-22085147Y8483011D01*
X-22144351Y8550479D01*
X-22208392Y8611941D01*
X-22276978Y8667157D01*
X-22349814Y8715883D01*
X-22426610Y8757878D01*
X-22483160Y8783386D01*
X-22514351Y8795731D01*
X-22545744Y8806951D01*
X-22579365Y8817701D01*
X-22617242Y8828638D01*
X-22650180Y8837494D01*
X-22668423Y8842806D01*
X-22681471Y8848221D01*
X-22691972Y8855060D01*
X-22700393Y8862513D01*
X-22713832Y8878076D01*
X-22721911Y8894463D01*
X-22724674Y8912774D01*
X-22722166Y8934106D01*
X-22714431Y8959558D01*
X-22705236Y8981989D01*
X-22655792Y9102508D01*
X-22612510Y9226797D01*
X-22575210Y9355439D01*
X-22543710Y9489016D01*
X-22537426Y9519697D01*
X-22530325Y9554380D01*
X-22524013Y9582761D01*
X-22518041Y9606380D01*
X-22511964Y9626774D01*
X-22505335Y9645483D01*
X-22497705Y9664045D01*
X-22491481Y9677883D01*
X-22462742Y9730864D01*
X-22427597Y9779931D01*
X-22386775Y9824515D01*
X-22341004Y9864043D01*
X-22291012Y9897944D01*
X-22237528Y9925647D01*
X-22181281Y9946581D01*
X-22133961Y9958228D01*
X-22071202Y9966352D01*
X-22009573Y9966889D01*
X-21949558Y9960165D01*
G37*
X-22493080Y8462212D02*
X-22475996Y8461545D01*
X-22462479Y8460274D01*
X-22451804Y8458344D01*
X-22443241Y8455699D01*
X-22436066Y8452282D01*
X-22429548Y8448040D01*
X-22422962Y8442914D01*
X-22419690Y8440230D01*
X-22408818Y8428720D01*
X-22398500Y8413530D01*
X-22390198Y8397311D01*
X-22385378Y8382711D01*
X-22384731Y8376967D01*
X-22383862Y8371125D01*
X-22381375Y8358362D01*
X-22377445Y8339492D01*
X-22372249Y8315326D01*
X-22365964Y8286676D01*
X-22358765Y8254355D01*
X-22350829Y8219174D01*
X-22343059Y8185111D01*
X-22332429Y8138496D01*
X-22323568Y8098904D01*
X-22316374Y8065644D01*
X-22310745Y8038025D01*
X-22306578Y8015357D01*
X-22303773Y7996949D01*
X-22302227Y7982110D01*
X-22301838Y7970148D01*
X-22302505Y7960374D01*
X-22304125Y7952096D01*
X-22306597Y7944623D01*
X-22307332Y7942809D01*
X-22319147Y7922743D01*
X-22336065Y7904491D01*
X-22354590Y7891433D01*
X-22372955Y7885113D01*
X-22395198Y7882434D01*
X-22418164Y7883397D01*
X-22438699Y7888005D01*
X-22446518Y7891379D01*
X-22462601Y7902393D01*
X-22477976Y7917153D01*
X-22490130Y7933021D01*
X-22494924Y7942205D01*
X-22497256Y7949647D01*
X-22500953Y7963448D01*
X-22505667Y7982221D01*
X-22511051Y8004574D01*
X-22516756Y8029118D01*
X-22517679Y8033174D01*
X-22523140Y8057057D01*
X-22528037Y8078151D01*
X-22532091Y8095288D01*
X-22535027Y8107299D01*
X-22536567Y8113019D01*
X-22536699Y8113326D01*
X-22539388Y8110758D01*
X-22546119Y8102977D01*
X-22556031Y8091013D01*
X-22568266Y8075897D01*
X-22576173Y8065985D01*
X-22675778Y7946850D01*
X-22781374Y7832921D01*
X-22892952Y7724207D01*
X-23010506Y7620714D01*
X-23070383Y7571835D01*
X-23087489Y7557937D01*
X-23101915Y7545681D01*
X-23112713Y7535919D01*
X-23118935Y7529499D01*
X-23119992Y7527349D01*
X-23115406Y7525660D01*
X-23104277Y7522381D01*
X-23087771Y7517831D01*
X-23067049Y7512328D01*
X-23043275Y7506190D01*
X-23033622Y7503742D01*
X-23002672Y7495885D01*
X-22978372Y7489537D01*
X-22959665Y7484311D01*
X-22945494Y7479819D01*
X-22934802Y7475675D01*
X-22926530Y7471492D01*
X-22919621Y7466883D01*
X-22913018Y7461461D01*
X-22909519Y7458341D01*
X-22892287Y7437880D01*
X-22881611Y7414547D01*
X-22877307Y7389655D01*
X-22879187Y7364520D01*
X-22887067Y7340457D01*
X-22900759Y7318780D01*
X-22920078Y7300804D01*
X-22932907Y7293037D01*
X-22944041Y7288006D01*
X-22955193Y7284698D01*
X-22967466Y7283199D01*
X-22981962Y7283598D01*
X-22999784Y7285980D01*
X-23022034Y7290434D01*
X-23049815Y7297046D01*
X-23079262Y7304601D01*
X-23107506Y7311970D01*
X-23141348Y7320770D01*
X-23178698Y7330458D01*
X-23217465Y7340493D01*
X-23255558Y7350332D01*
X-23289340Y7359037D01*
X-23326219Y7368613D01*
X-23356249Y7376697D01*
X-23380296Y7383659D01*
X-23399227Y7389867D01*
X-23413910Y7395692D01*
X-23425212Y7401501D01*
X-23433998Y7407665D01*
X-23441137Y7414552D01*
X-23447495Y7422532D01*
X-23451296Y7427998D01*
X-23455259Y7434076D01*
X-23458568Y7440017D01*
X-23461243Y7446515D01*
X-23463304Y7454260D01*
X-23464770Y7463945D01*
X-23465662Y7476262D01*
X-23465999Y7491902D01*
X-23465802Y7511558D01*
X-23465090Y7535922D01*
X-23463883Y7565685D01*
X-23462202Y7601540D01*
X-23460066Y7644179D01*
X-23458438Y7675937D01*
X-23456329Y7715786D01*
X-23454210Y7753614D01*
X-23452136Y7788604D01*
X-23450160Y7819941D01*
X-23448335Y7846810D01*
X-23446716Y7868395D01*
X-23445356Y7883880D01*
X-23444309Y7892450D01*
X-23444109Y7893392D01*
X-23434152Y7916680D01*
X-23418578Y7935719D01*
X-23398698Y7950142D01*
X-23375820Y7959578D01*
X-23351253Y7963660D01*
X-23326306Y7962018D01*
X-23302289Y7954283D01*
X-23280510Y7940086D01*
X-23280003Y7939643D01*
X-23265619Y7923599D01*
X-23254457Y7904889D01*
X-23253901Y7903631D01*
X-23250688Y7895777D01*
X-23248404Y7888519D01*
X-23246954Y7880439D01*
X-23246238Y7870119D01*
X-23246160Y7856140D01*
X-23246622Y7837083D01*
X-23247526Y7811530D01*
X-23247538Y7811208D01*
X-23248562Y7786057D01*
X-23249707Y7761691D01*
X-23250872Y7740023D01*
X-23251957Y7722969D01*
X-23252641Y7714507D01*
X-23253610Y7704569D01*
X-23253823Y7697578D01*
X-23252510Y7693806D01*
X-23248906Y7693523D01*
X-23242243Y7697002D01*
X-23231754Y7704514D01*
X-23216671Y7716329D01*
X-23196226Y7732719D01*
X-23192372Y7735812D01*
X-23109296Y7805234D01*
X-23027210Y7879265D01*
X-22947314Y7956678D01*
X-22870808Y8036246D01*
X-22798892Y8116742D01*
X-22732764Y8196938D01*
X-22700154Y8239329D01*
X-22688638Y8254699D01*
X-22724208Y8252165D01*
X-22741251Y8251202D01*
X-22763702Y8250293D01*
X-22789031Y8249523D01*
X-22814708Y8248976D01*
X-22823278Y8248853D01*
X-22848460Y8248682D01*
X-22867162Y8248952D01*
X-22880834Y8249778D01*
X-22890926Y8251272D01*
X-22898890Y8253547D01*
X-22902653Y8255069D01*
X-22925453Y8269239D01*
X-22943902Y8288974D01*
X-22956941Y8312656D01*
X-22963511Y8338665D01*
X-22964091Y8348973D01*
X-22960457Y8374696D01*
X-22950304Y8398980D01*
X-22934755Y8420094D01*
X-22914934Y8436309D01*
X-22903621Y8442101D01*
X-22898783Y8443996D01*
X-22893587Y8445637D01*
X-22887365Y8447068D01*
X-22879449Y8448335D01*
X-22869173Y8449481D01*
X-22855868Y8450551D01*
X-22838867Y8451589D01*
X-22817501Y8452640D01*
X-22791105Y8453747D01*
X-22759009Y8454955D01*
X-22720547Y8456308D01*
X-22675051Y8457851D01*
X-22657490Y8458439D01*
X-22611652Y8459955D01*
X-22573019Y8461147D01*
X-22540865Y8461957D01*
X-22514461Y8462331D01*
X-22493080Y8462212D01*
G36*
X-22493080Y8462212D02*
G01*
X-22475996Y8461545D01*
X-22462479Y8460274D01*
X-22451804Y8458344D01*
X-22443241Y8455699D01*
X-22436066Y8452282D01*
X-22429548Y8448040D01*
X-22422962Y8442914D01*
X-22419690Y8440230D01*
X-22408818Y8428720D01*
X-22398500Y8413530D01*
X-22390198Y8397311D01*
X-22385378Y8382711D01*
X-22384731Y8376967D01*
X-22383862Y8371125D01*
X-22381375Y8358362D01*
X-22377445Y8339492D01*
X-22372249Y8315326D01*
X-22365964Y8286676D01*
X-22358765Y8254355D01*
X-22350829Y8219174D01*
X-22343059Y8185111D01*
X-22332429Y8138496D01*
X-22323568Y8098904D01*
X-22316374Y8065644D01*
X-22310745Y8038025D01*
X-22306578Y8015357D01*
X-22303773Y7996949D01*
X-22302227Y7982110D01*
X-22301838Y7970148D01*
X-22302505Y7960374D01*
X-22304125Y7952096D01*
X-22306597Y7944623D01*
X-22307332Y7942809D01*
X-22319147Y7922743D01*
X-22336065Y7904491D01*
X-22354590Y7891433D01*
X-22372955Y7885113D01*
X-22395198Y7882434D01*
X-22418164Y7883397D01*
X-22438699Y7888005D01*
X-22446518Y7891379D01*
X-22462601Y7902393D01*
X-22477976Y7917153D01*
X-22490130Y7933021D01*
X-22494924Y7942205D01*
X-22497256Y7949647D01*
X-22500953Y7963448D01*
X-22505667Y7982221D01*
X-22511051Y8004574D01*
X-22516756Y8029118D01*
X-22517679Y8033174D01*
X-22523140Y8057057D01*
X-22528037Y8078151D01*
X-22532091Y8095288D01*
X-22535027Y8107299D01*
X-22536567Y8113019D01*
X-22536699Y8113326D01*
X-22539388Y8110758D01*
X-22546119Y8102977D01*
X-22556031Y8091013D01*
X-22568266Y8075897D01*
X-22576173Y8065985D01*
X-22675778Y7946850D01*
X-22781374Y7832921D01*
X-22892952Y7724207D01*
X-23010506Y7620714D01*
X-23070383Y7571835D01*
X-23087489Y7557937D01*
X-23101915Y7545681D01*
X-23112713Y7535919D01*
X-23118935Y7529499D01*
X-23119992Y7527349D01*
X-23115406Y7525660D01*
X-23104277Y7522381D01*
X-23087771Y7517831D01*
X-23067049Y7512328D01*
X-23043275Y7506190D01*
X-23033622Y7503742D01*
X-23002672Y7495885D01*
X-22978372Y7489537D01*
X-22959665Y7484311D01*
X-22945494Y7479819D01*
X-22934802Y7475675D01*
X-22926530Y7471492D01*
X-22919621Y7466883D01*
X-22913018Y7461461D01*
X-22909519Y7458341D01*
X-22892287Y7437880D01*
X-22881611Y7414547D01*
X-22877307Y7389655D01*
X-22879187Y7364520D01*
X-22887067Y7340457D01*
X-22900759Y7318780D01*
X-22920078Y7300804D01*
X-22932907Y7293037D01*
X-22944041Y7288006D01*
X-22955193Y7284698D01*
X-22967466Y7283199D01*
X-22981962Y7283598D01*
X-22999784Y7285980D01*
X-23022034Y7290434D01*
X-23049815Y7297046D01*
X-23079262Y7304601D01*
X-23107506Y7311970D01*
X-23141348Y7320770D01*
X-23178698Y7330458D01*
X-23217465Y7340493D01*
X-23255558Y7350332D01*
X-23289340Y7359037D01*
X-23326219Y7368613D01*
X-23356249Y7376697D01*
X-23380296Y7383659D01*
X-23399227Y7389867D01*
X-23413910Y7395692D01*
X-23425212Y7401501D01*
X-23433998Y7407665D01*
X-23441137Y7414552D01*
X-23447495Y7422532D01*
X-23451296Y7427998D01*
X-23455259Y7434076D01*
X-23458568Y7440017D01*
X-23461243Y7446515D01*
X-23463304Y7454260D01*
X-23464770Y7463945D01*
X-23465662Y7476262D01*
X-23465999Y7491902D01*
X-23465802Y7511558D01*
X-23465090Y7535922D01*
X-23463883Y7565685D01*
X-23462202Y7601540D01*
X-23460066Y7644179D01*
X-23458438Y7675937D01*
X-23456329Y7715786D01*
X-23454210Y7753614D01*
X-23452136Y7788604D01*
X-23450160Y7819941D01*
X-23448335Y7846810D01*
X-23446716Y7868395D01*
X-23445356Y7883880D01*
X-23444309Y7892450D01*
X-23444109Y7893392D01*
X-23434152Y7916680D01*
X-23418578Y7935719D01*
X-23398698Y7950142D01*
X-23375820Y7959578D01*
X-23351253Y7963660D01*
X-23326306Y7962018D01*
X-23302289Y7954283D01*
X-23280510Y7940086D01*
X-23280003Y7939643D01*
X-23265619Y7923599D01*
X-23254457Y7904889D01*
X-23253901Y7903631D01*
X-23250688Y7895777D01*
X-23248404Y7888519D01*
X-23246954Y7880439D01*
X-23246238Y7870119D01*
X-23246160Y7856140D01*
X-23246622Y7837083D01*
X-23247526Y7811530D01*
X-23247538Y7811208D01*
X-23248562Y7786057D01*
X-23249707Y7761691D01*
X-23250872Y7740023D01*
X-23251957Y7722969D01*
X-23252641Y7714507D01*
X-23253610Y7704569D01*
X-23253823Y7697578D01*
X-23252510Y7693806D01*
X-23248906Y7693523D01*
X-23242243Y7697002D01*
X-23231754Y7704514D01*
X-23216671Y7716329D01*
X-23196226Y7732719D01*
X-23192372Y7735812D01*
X-23109296Y7805234D01*
X-23027210Y7879265D01*
X-22947314Y7956678D01*
X-22870808Y8036246D01*
X-22798892Y8116742D01*
X-22732764Y8196938D01*
X-22700154Y8239329D01*
X-22688638Y8254699D01*
X-22724208Y8252165D01*
X-22741251Y8251202D01*
X-22763702Y8250293D01*
X-22789031Y8249523D01*
X-22814708Y8248976D01*
X-22823278Y8248853D01*
X-22848460Y8248682D01*
X-22867162Y8248952D01*
X-22880834Y8249778D01*
X-22890926Y8251272D01*
X-22898890Y8253547D01*
X-22902653Y8255069D01*
X-22925453Y8269239D01*
X-22943902Y8288974D01*
X-22956941Y8312656D01*
X-22963511Y8338665D01*
X-22964091Y8348973D01*
X-22960457Y8374696D01*
X-22950304Y8398980D01*
X-22934755Y8420094D01*
X-22914934Y8436309D01*
X-22903621Y8442101D01*
X-22898783Y8443996D01*
X-22893587Y8445637D01*
X-22887365Y8447068D01*
X-22879449Y8448335D01*
X-22869173Y8449481D01*
X-22855868Y8450551D01*
X-22838867Y8451589D01*
X-22817501Y8452640D01*
X-22791105Y8453747D01*
X-22759009Y8454955D01*
X-22720547Y8456308D01*
X-22675051Y8457851D01*
X-22657490Y8458439D01*
X-22611652Y8459955D01*
X-22573019Y8461147D01*
X-22540865Y8461957D01*
X-22514461Y8462331D01*
X-22493080Y8462212D01*
G37*
%TD*%
M02*
