%TF.GenerationSoftware,KiCad,Pcbnew,8.0.8*%
%TF.CreationDate,2025-01-29T17:06:48+00:00*%
%TF.ProjectId,ec30_5x2_lr_mh_0.1,65633330-5f35-4783-925f-6c725f6d685f,v0.1*%
%TF.SameCoordinates,PX8d24d00PY36d6160*%
%TF.FileFunction,Legend,Top*%
%TF.FilePolarity,Positive*%
%FSLAX46Y46*%
G04 Gerber Fmt 4.6, Leading zero omitted, Abs format (unit mm)*
G04 Created by KiCad (PCBNEW 8.0.8) date 2025-01-29 17:06:48*
%MOMM*%
%LPD*%
G01*
G04 APERTURE LIST*
%ADD10C,0.200000*%
%ADD11C,0.000000*%
%ADD12C,0.010000*%
G04 APERTURE END LIST*
D10*
X-22500000Y12250000D02*
X-22500000Y12000000D01*
X-23150000Y4270000D02*
X-23150000Y4970000D01*
X-29000000Y2470001D02*
X-29000000Y-2470000D01*
X24098000Y3300000D02*
G75*
G02*
X23100004Y4300001I-1000J997000D01*
G01*
X-25000000Y-12500000D02*
G75*
G02*
X-27500000Y-10000000I-800J2499200D01*
G01*
X-22750000Y12500000D02*
G75*
G02*
X-22500000Y12250000I800J-249200D01*
G01*
X27500000Y7000000D02*
X27500000Y10000000D01*
X25000000Y12500000D02*
X-20250000Y12500000D01*
X26500000Y-6000000D02*
X24100000Y-6000000D01*
X28200000Y3300000D02*
G75*
G02*
X29000000Y2500000I1100J-798900D01*
G01*
X-24148000Y-5969999D02*
X-26500000Y-5969999D01*
X-28200000Y-3269999D02*
G75*
G02*
X-28999999Y-2470000I-1100J798899D01*
G01*
X-27500000Y-6969999D02*
G75*
G02*
X-26500000Y-5970000I1000400J-401D01*
G01*
X-26500000Y5970000D02*
X-24148000Y5970000D01*
X26500000Y-6000000D02*
G75*
G02*
X27500000Y-7000000I-400J-1000400D01*
G01*
X-22750000Y12500000D02*
X-25000000Y12500000D01*
X-27500000Y10000000D02*
G75*
G02*
X-25000000Y12500000I2499200J800D01*
G01*
X-26500000Y5970000D02*
G75*
G02*
X-27500000Y6970000I400J1000400D01*
G01*
X-20500000Y12000000D02*
X-20500000Y12250000D01*
X-29000000Y2470001D02*
G75*
G02*
X-28200000Y3270000I798900J1099D01*
G01*
X29000000Y-2500000D02*
X29000000Y2500000D01*
X-24148000Y5970000D02*
G75*
G02*
X-23150004Y4970000I1000J-997000D01*
G01*
X-23150000Y4270000D02*
G75*
G02*
X-24148000Y3270003I-1000400J400D01*
G01*
X23100000Y5000000D02*
G75*
G02*
X24100000Y6000000I1000400J-400D01*
G01*
X28200000Y3300000D02*
X24098000Y3300000D01*
X-20500000Y12250000D02*
G75*
G02*
X-20250000Y12500000I249200J800D01*
G01*
X-27500000Y-6969999D02*
X-27500000Y-10000000D01*
X24100000Y-3299999D02*
X28200000Y-3299999D01*
X24100000Y-6000000D02*
G75*
G02*
X23100000Y-5000000I400J1000400D01*
G01*
X27500000Y7000000D02*
G75*
G02*
X26500000Y6000000I-1000400J400D01*
G01*
X-28200000Y-3269999D02*
X-24150000Y-3269999D01*
X-20500000Y12000000D02*
G75*
G02*
X-22500000Y12000000I-1000000J0D01*
G01*
X25000000Y12500000D02*
G75*
G02*
X27500000Y10000000I800J-2499200D01*
G01*
X-23148000Y-4969999D02*
G75*
G02*
X-24148000Y-5970000I-1000400J399D01*
G01*
X-27500000Y10000000D02*
X-27500000Y6970000D01*
X-24150000Y-3269999D02*
G75*
G02*
X-23149999Y-4269999I-400J-1000401D01*
G01*
X27500000Y-10000000D02*
X27500000Y-7000000D01*
X24100000Y6000000D02*
X26500000Y6000000D01*
X23100000Y-4300000D02*
X23100000Y-5000000D01*
X-25000000Y-12500000D02*
X25000000Y-12500000D01*
X-24148000Y3270000D02*
X-28200000Y3270000D01*
X27500000Y-10000000D02*
G75*
G02*
X25000000Y-12500000I-2499200J-800D01*
G01*
X23100000Y5000000D02*
X23100000Y4300001D01*
X23100000Y-4300000D02*
G75*
G02*
X24100000Y-3300000I998700J1300D01*
G01*
X-23148000Y-4969999D02*
X-23150000Y-4269999D01*
X29000000Y-2500000D02*
G75*
G02*
X28200000Y-3300000I-798900J-1100D01*
G01*
D11*
%TO.C,*%
G36*
X27554596Y-834554D02*
G01*
X27658135Y-885171D01*
X27739628Y-966664D01*
X27790245Y-1070203D01*
X27804800Y-1170099D01*
X27804800Y-1369899D01*
X27790245Y-1469795D01*
X27739628Y-1573334D01*
X27658135Y-1654827D01*
X27554596Y-1705444D01*
X27454700Y-1719999D01*
X23604900Y-1719999D01*
X23505004Y-1705444D01*
X23401465Y-1654827D01*
X23319972Y-1573334D01*
X23269355Y-1469795D01*
X23254800Y-1369899D01*
X23254800Y-1170099D01*
X23269355Y-1070203D01*
X23319972Y-966664D01*
X23401465Y-885171D01*
X23505004Y-834554D01*
X23604900Y-819999D01*
X27454700Y-819999D01*
X27554596Y-834554D01*
G37*
G36*
X28054596Y1705446D02*
G01*
X28158135Y1654829D01*
X28239628Y1573336D01*
X28290245Y1469797D01*
X28304800Y1369901D01*
X28304800Y1170101D01*
X28290245Y1070205D01*
X28239628Y966666D01*
X28158135Y885173D01*
X28054596Y834556D01*
X27954700Y820001D01*
X23604900Y820001D01*
X23505004Y834556D01*
X23401465Y885173D01*
X23319972Y966666D01*
X23269355Y1070205D01*
X23254800Y1170101D01*
X23254800Y1369901D01*
X23269355Y1469797D01*
X23319972Y1573336D01*
X23401465Y1654829D01*
X23505004Y1705446D01*
X23604900Y1720001D01*
X27954700Y1720001D01*
X28054596Y1705446D01*
G37*
G36*
X28054596Y435446D02*
G01*
X28158135Y384829D01*
X28239628Y303336D01*
X28290245Y199797D01*
X28304800Y99901D01*
X28304800Y-99899D01*
X28290245Y-199795D01*
X28239628Y-303334D01*
X28158135Y-384827D01*
X28054596Y-435444D01*
X27954700Y-449999D01*
X23604900Y-449999D01*
X23505004Y-435444D01*
X23401465Y-384827D01*
X23319972Y-303334D01*
X23269355Y-199795D01*
X23254800Y-99899D01*
X23254800Y99901D01*
X23269355Y199797D01*
X23319972Y303336D01*
X23401465Y384829D01*
X23505004Y435446D01*
X23604900Y450001D01*
X27954700Y450001D01*
X28054596Y435446D01*
G37*
D12*
%TO.C,MH3*%
X-21929306Y-8363938D02*
X-21912572Y-8370271D01*
X-21896947Y-8381708D01*
X-21881722Y-8398907D01*
X-21866187Y-8422529D01*
X-21849636Y-8453232D01*
X-21849479Y-8453543D01*
X-21792082Y-8575132D01*
X-21738655Y-8702780D01*
X-21689536Y-8835490D01*
X-21645062Y-8972266D01*
X-21605571Y-9112110D01*
X-21571399Y-9254024D01*
X-21558986Y-9312664D01*
X-21548179Y-9372141D01*
X-21541266Y-9425275D01*
X-21538209Y-9472617D01*
X-21538970Y-9514720D01*
X-21542840Y-9548307D01*
X-21557333Y-9611742D01*
X-21578709Y-9671524D01*
X-21606730Y-9727302D01*
X-21641155Y-9778728D01*
X-21681746Y-9825450D01*
X-21728263Y-9867118D01*
X-21780468Y-9903383D01*
X-21788778Y-9908337D01*
X-21841493Y-9934632D01*
X-21897725Y-9954342D01*
X-21956407Y-9967361D01*
X-22016470Y-9973582D01*
X-22076844Y-9972898D01*
X-22136462Y-9965203D01*
X-22194256Y-9950391D01*
X-22198073Y-9949129D01*
X-22254131Y-9926215D01*
X-22307081Y-9896415D01*
X-22356236Y-9860400D01*
X-22400910Y-9818837D01*
X-22440417Y-9772394D01*
X-22474070Y-9721741D01*
X-22501183Y-9667545D01*
X-22509857Y-9645536D01*
X-22514407Y-9631247D01*
X-22519938Y-9611025D01*
X-22525985Y-9586741D01*
X-22532082Y-9560265D01*
X-22537763Y-9533471D01*
X-22537851Y-9533032D01*
X-22559478Y-9433303D01*
X-22583069Y-9339535D01*
X-22609185Y-9249880D01*
X-22638386Y-9162485D01*
X-22671232Y-9075502D01*
X-22690784Y-9027805D01*
X-22704464Y-8993297D01*
X-22713840Y-8964465D01*
X-22718965Y-8940348D01*
X-22719893Y-8919990D01*
X-22716678Y-8902431D01*
X-22709373Y-8886711D01*
X-22699422Y-8873431D01*
X-22690472Y-8864166D01*
X-22680762Y-8856500D01*
X-22668906Y-8849764D01*
X-22653514Y-8843288D01*
X-22633201Y-8836401D01*
X-22606578Y-8828434D01*
X-22605692Y-8828178D01*
X-22548901Y-8810494D01*
X-22497170Y-8791449D01*
X-22447627Y-8769922D01*
X-22414566Y-8753728D01*
X-22339432Y-8710990D01*
X-22267854Y-8661466D01*
X-22200558Y-8605786D01*
X-22138273Y-8544582D01*
X-22081726Y-8478485D01*
X-22053964Y-8441164D01*
X-22032031Y-8412366D01*
X-22011697Y-8390615D01*
X-21992236Y-8375370D01*
X-21972919Y-8366090D01*
X-21953022Y-8362231D01*
X-21947857Y-8362050D01*
X-21929306Y-8363938D01*
G36*
X-21929306Y-8363938D02*
G01*
X-21912572Y-8370271D01*
X-21896947Y-8381708D01*
X-21881722Y-8398907D01*
X-21866187Y-8422529D01*
X-21849636Y-8453232D01*
X-21849479Y-8453543D01*
X-21792082Y-8575132D01*
X-21738655Y-8702780D01*
X-21689536Y-8835490D01*
X-21645062Y-8972266D01*
X-21605571Y-9112110D01*
X-21571399Y-9254024D01*
X-21558986Y-9312664D01*
X-21548179Y-9372141D01*
X-21541266Y-9425275D01*
X-21538209Y-9472617D01*
X-21538970Y-9514720D01*
X-21542840Y-9548307D01*
X-21557333Y-9611742D01*
X-21578709Y-9671524D01*
X-21606730Y-9727302D01*
X-21641155Y-9778728D01*
X-21681746Y-9825450D01*
X-21728263Y-9867118D01*
X-21780468Y-9903383D01*
X-21788778Y-9908337D01*
X-21841493Y-9934632D01*
X-21897725Y-9954342D01*
X-21956407Y-9967361D01*
X-22016470Y-9973582D01*
X-22076844Y-9972898D01*
X-22136462Y-9965203D01*
X-22194256Y-9950391D01*
X-22198073Y-9949129D01*
X-22254131Y-9926215D01*
X-22307081Y-9896415D01*
X-22356236Y-9860400D01*
X-22400910Y-9818837D01*
X-22440417Y-9772394D01*
X-22474070Y-9721741D01*
X-22501183Y-9667545D01*
X-22509857Y-9645536D01*
X-22514407Y-9631247D01*
X-22519938Y-9611025D01*
X-22525985Y-9586741D01*
X-22532082Y-9560265D01*
X-22537763Y-9533471D01*
X-22537851Y-9533032D01*
X-22559478Y-9433303D01*
X-22583069Y-9339535D01*
X-22609185Y-9249880D01*
X-22638386Y-9162485D01*
X-22671232Y-9075502D01*
X-22690784Y-9027805D01*
X-22704464Y-8993297D01*
X-22713840Y-8964465D01*
X-22718965Y-8940348D01*
X-22719893Y-8919990D01*
X-22716678Y-8902431D01*
X-22709373Y-8886711D01*
X-22699422Y-8873431D01*
X-22690472Y-8864166D01*
X-22680762Y-8856500D01*
X-22668906Y-8849764D01*
X-22653514Y-8843288D01*
X-22633201Y-8836401D01*
X-22606578Y-8828434D01*
X-22605692Y-8828178D01*
X-22548901Y-8810494D01*
X-22497170Y-8791449D01*
X-22447627Y-8769922D01*
X-22414566Y-8753728D01*
X-22339432Y-8710990D01*
X-22267854Y-8661466D01*
X-22200558Y-8605786D01*
X-22138273Y-8544582D01*
X-22081726Y-8478485D01*
X-22053964Y-8441164D01*
X-22032031Y-8412366D01*
X-22011697Y-8390615D01*
X-21992236Y-8375370D01*
X-21972919Y-8366090D01*
X-21953022Y-8362231D01*
X-21947857Y-8362050D01*
X-21929306Y-8363938D01*
G37*
X-24470182Y-6540337D02*
X-24448497Y-6540714D01*
X-24427534Y-6541718D01*
X-24406291Y-6543511D01*
X-24383763Y-6546254D01*
X-24358946Y-6550109D01*
X-24330836Y-6555238D01*
X-24298429Y-6561801D01*
X-24260722Y-6569961D01*
X-24216709Y-6579880D01*
X-24198323Y-6584098D01*
X-24084910Y-6612611D01*
X-23968731Y-6646406D01*
X-23851643Y-6684817D01*
X-23735502Y-6727177D01*
X-23622165Y-6772819D01*
X-23513489Y-6821078D01*
X-23442320Y-6855488D01*
X-23414793Y-6869973D01*
X-23393762Y-6882767D01*
X-23378190Y-6894681D01*
X-23367038Y-6906523D01*
X-23359269Y-6919103D01*
X-23358396Y-6920960D01*
X-23352421Y-6938994D01*
X-23352473Y-6955818D01*
X-23356428Y-6970059D01*
X-23367282Y-6989771D01*
X-23385603Y-7010018D01*
X-23410983Y-7030363D01*
X-23415769Y-7033664D01*
X-23489001Y-7087738D01*
X-23556469Y-7146942D01*
X-23617931Y-7210983D01*
X-23673147Y-7279569D01*
X-23721873Y-7352405D01*
X-23763868Y-7429201D01*
X-23789376Y-7485751D01*
X-23801721Y-7516942D01*
X-23812941Y-7548335D01*
X-23823691Y-7581956D01*
X-23834628Y-7619833D01*
X-23843484Y-7652771D01*
X-23848796Y-7671014D01*
X-23854211Y-7684062D01*
X-23861050Y-7694563D01*
X-23868503Y-7702984D01*
X-23884066Y-7716423D01*
X-23900453Y-7724502D01*
X-23918764Y-7727265D01*
X-23940096Y-7724757D01*
X-23965548Y-7717022D01*
X-23987979Y-7707827D01*
X-24108498Y-7658383D01*
X-24232787Y-7615101D01*
X-24361429Y-7577801D01*
X-24495006Y-7546301D01*
X-24525687Y-7540017D01*
X-24560370Y-7532916D01*
X-24588751Y-7526604D01*
X-24612370Y-7520632D01*
X-24632764Y-7514555D01*
X-24651473Y-7507926D01*
X-24670035Y-7500296D01*
X-24683873Y-7494072D01*
X-24736854Y-7465333D01*
X-24785921Y-7430188D01*
X-24830505Y-7389366D01*
X-24870033Y-7343595D01*
X-24903934Y-7293603D01*
X-24931637Y-7240119D01*
X-24952571Y-7183872D01*
X-24964218Y-7136552D01*
X-24972342Y-7073793D01*
X-24972879Y-7012164D01*
X-24966155Y-6952149D01*
X-24952496Y-6894233D01*
X-24932226Y-6838904D01*
X-24905671Y-6786645D01*
X-24873155Y-6737942D01*
X-24835005Y-6693281D01*
X-24791545Y-6653146D01*
X-24743100Y-6618025D01*
X-24689996Y-6588401D01*
X-24632558Y-6564760D01*
X-24571111Y-6547588D01*
X-24569401Y-6547219D01*
X-24551719Y-6544037D01*
X-24532477Y-6541913D01*
X-24509778Y-6540716D01*
X-24481730Y-6540314D01*
X-24470182Y-6540337D01*
G36*
X-24470182Y-6540337D02*
G01*
X-24448497Y-6540714D01*
X-24427534Y-6541718D01*
X-24406291Y-6543511D01*
X-24383763Y-6546254D01*
X-24358946Y-6550109D01*
X-24330836Y-6555238D01*
X-24298429Y-6561801D01*
X-24260722Y-6569961D01*
X-24216709Y-6579880D01*
X-24198323Y-6584098D01*
X-24084910Y-6612611D01*
X-23968731Y-6646406D01*
X-23851643Y-6684817D01*
X-23735502Y-6727177D01*
X-23622165Y-6772819D01*
X-23513489Y-6821078D01*
X-23442320Y-6855488D01*
X-23414793Y-6869973D01*
X-23393762Y-6882767D01*
X-23378190Y-6894681D01*
X-23367038Y-6906523D01*
X-23359269Y-6919103D01*
X-23358396Y-6920960D01*
X-23352421Y-6938994D01*
X-23352473Y-6955818D01*
X-23356428Y-6970059D01*
X-23367282Y-6989771D01*
X-23385603Y-7010018D01*
X-23410983Y-7030363D01*
X-23415769Y-7033664D01*
X-23489001Y-7087738D01*
X-23556469Y-7146942D01*
X-23617931Y-7210983D01*
X-23673147Y-7279569D01*
X-23721873Y-7352405D01*
X-23763868Y-7429201D01*
X-23789376Y-7485751D01*
X-23801721Y-7516942D01*
X-23812941Y-7548335D01*
X-23823691Y-7581956D01*
X-23834628Y-7619833D01*
X-23843484Y-7652771D01*
X-23848796Y-7671014D01*
X-23854211Y-7684062D01*
X-23861050Y-7694563D01*
X-23868503Y-7702984D01*
X-23884066Y-7716423D01*
X-23900453Y-7724502D01*
X-23918764Y-7727265D01*
X-23940096Y-7724757D01*
X-23965548Y-7717022D01*
X-23987979Y-7707827D01*
X-24108498Y-7658383D01*
X-24232787Y-7615101D01*
X-24361429Y-7577801D01*
X-24495006Y-7546301D01*
X-24525687Y-7540017D01*
X-24560370Y-7532916D01*
X-24588751Y-7526604D01*
X-24612370Y-7520632D01*
X-24632764Y-7514555D01*
X-24651473Y-7507926D01*
X-24670035Y-7500296D01*
X-24683873Y-7494072D01*
X-24736854Y-7465333D01*
X-24785921Y-7430188D01*
X-24830505Y-7389366D01*
X-24870033Y-7343595D01*
X-24903934Y-7293603D01*
X-24931637Y-7240119D01*
X-24952571Y-7183872D01*
X-24964218Y-7136552D01*
X-24972342Y-7073793D01*
X-24972879Y-7012164D01*
X-24966155Y-6952149D01*
X-24952496Y-6894233D01*
X-24932226Y-6838904D01*
X-24905671Y-6786645D01*
X-24873155Y-6737942D01*
X-24835005Y-6693281D01*
X-24791545Y-6653146D01*
X-24743100Y-6618025D01*
X-24689996Y-6588401D01*
X-24632558Y-6564760D01*
X-24571111Y-6547588D01*
X-24569401Y-6547219D01*
X-24551719Y-6544037D01*
X-24532477Y-6541913D01*
X-24509778Y-6540716D01*
X-24481730Y-6540314D01*
X-24470182Y-6540337D01*
G37*
X-23114506Y-7497744D02*
X-23104489Y-7500501D01*
X-23098602Y-7502693D01*
X-23092612Y-7505668D01*
X-23085887Y-7509983D01*
X-23077796Y-7516197D01*
X-23067706Y-7524868D01*
X-23054986Y-7536554D01*
X-23039003Y-7551814D01*
X-23019125Y-7571204D01*
X-22994721Y-7595283D01*
X-22974957Y-7614880D01*
X-22866811Y-7722233D01*
X-22760645Y-7617032D01*
X-22732077Y-7588945D01*
X-22706322Y-7564069D01*
X-22683875Y-7542858D01*
X-22665228Y-7525771D01*
X-22650876Y-7513264D01*
X-22641313Y-7505793D01*
X-22638604Y-7504147D01*
X-22620453Y-7498507D01*
X-22598447Y-7496247D01*
X-22575738Y-7497328D01*
X-22555479Y-7501711D01*
X-22546947Y-7505289D01*
X-22527717Y-7518943D01*
X-22510939Y-7537314D01*
X-22499689Y-7556627D01*
X-22495621Y-7572497D01*
X-22493995Y-7592489D01*
X-22494804Y-7613173D01*
X-22498038Y-7631121D01*
X-22499893Y-7636489D01*
X-22504805Y-7644005D01*
X-22515448Y-7656814D01*
X-22531730Y-7674815D01*
X-22553556Y-7697908D01*
X-22580835Y-7725992D01*
X-22613473Y-7758967D01*
X-22613864Y-7759359D01*
X-22721687Y-7867473D01*
X-22615858Y-7973774D01*
X-22584916Y-8005038D01*
X-22559409Y-8031231D01*
X-22538995Y-8052725D01*
X-22523333Y-8069893D01*
X-22512080Y-8083107D01*
X-22504896Y-8092739D01*
X-22501973Y-8097831D01*
X-22494904Y-8122144D01*
X-22493808Y-8148731D01*
X-22498620Y-8174713D01*
X-22504024Y-8188237D01*
X-22519679Y-8211452D01*
X-22540303Y-8228674D01*
X-22562926Y-8238733D01*
X-22580623Y-8243114D01*
X-22595638Y-8244148D01*
X-22611644Y-8241809D01*
X-22624985Y-8238271D01*
X-22630727Y-8236399D01*
X-22636361Y-8233923D01*
X-22642513Y-8230295D01*
X-22649807Y-8224964D01*
X-22658867Y-8217380D01*
X-22670317Y-8206995D01*
X-22684782Y-8193256D01*
X-22702886Y-8175616D01*
X-22725253Y-8153524D01*
X-22752507Y-8126430D01*
X-22756674Y-8122280D01*
X-22866807Y-8012589D01*
X-22976940Y-8122280D01*
X-23004916Y-8150105D01*
X-23027918Y-8172853D01*
X-23046571Y-8191073D01*
X-23061500Y-8205316D01*
X-23073328Y-8216130D01*
X-23082679Y-8224066D01*
X-23090179Y-8229675D01*
X-23096451Y-8233505D01*
X-23102120Y-8236106D01*
X-23107810Y-8238029D01*
X-23108629Y-8238271D01*
X-23127410Y-8242924D01*
X-23142701Y-8244183D01*
X-23158173Y-8242078D01*
X-23170688Y-8238733D01*
X-23195345Y-8227492D01*
X-23215225Y-8210402D01*
X-23229656Y-8188407D01*
X-23237966Y-8162452D01*
X-23239782Y-8141598D01*
X-23239548Y-8130444D01*
X-23238597Y-8120482D01*
X-23236433Y-8111030D01*
X-23232561Y-8101407D01*
X-23226487Y-8090932D01*
X-23217714Y-8078924D01*
X-23205748Y-8064703D01*
X-23190094Y-8047586D01*
X-23170256Y-8026895D01*
X-23145740Y-8001946D01*
X-23117756Y-7973774D01*
X-23011927Y-7867473D01*
X-23119589Y-7759359D01*
X-23151989Y-7726607D01*
X-23178747Y-7699078D01*
X-23200033Y-7676590D01*
X-23216016Y-7658958D01*
X-23226867Y-7646000D01*
X-23232753Y-7637530D01*
X-23233560Y-7635877D01*
X-23239427Y-7611956D01*
X-23239209Y-7585914D01*
X-23233352Y-7560140D01*
X-23222301Y-7537024D01*
X-23212846Y-7524873D01*
X-23192656Y-7509080D01*
X-23168362Y-7499030D01*
X-23141724Y-7495120D01*
X-23114506Y-7497744D01*
G36*
X-23114506Y-7497744D02*
G01*
X-23104489Y-7500501D01*
X-23098602Y-7502693D01*
X-23092612Y-7505668D01*
X-23085887Y-7509983D01*
X-23077796Y-7516197D01*
X-23067706Y-7524868D01*
X-23054986Y-7536554D01*
X-23039003Y-7551814D01*
X-23019125Y-7571204D01*
X-22994721Y-7595283D01*
X-22974957Y-7614880D01*
X-22866811Y-7722233D01*
X-22760645Y-7617032D01*
X-22732077Y-7588945D01*
X-22706322Y-7564069D01*
X-22683875Y-7542858D01*
X-22665228Y-7525771D01*
X-22650876Y-7513264D01*
X-22641313Y-7505793D01*
X-22638604Y-7504147D01*
X-22620453Y-7498507D01*
X-22598447Y-7496247D01*
X-22575738Y-7497328D01*
X-22555479Y-7501711D01*
X-22546947Y-7505289D01*
X-22527717Y-7518943D01*
X-22510939Y-7537314D01*
X-22499689Y-7556627D01*
X-22495621Y-7572497D01*
X-22493995Y-7592489D01*
X-22494804Y-7613173D01*
X-22498038Y-7631121D01*
X-22499893Y-7636489D01*
X-22504805Y-7644005D01*
X-22515448Y-7656814D01*
X-22531730Y-7674815D01*
X-22553556Y-7697908D01*
X-22580835Y-7725992D01*
X-22613473Y-7758967D01*
X-22613864Y-7759359D01*
X-22721687Y-7867473D01*
X-22615858Y-7973774D01*
X-22584916Y-8005038D01*
X-22559409Y-8031231D01*
X-22538995Y-8052725D01*
X-22523333Y-8069893D01*
X-22512080Y-8083107D01*
X-22504896Y-8092739D01*
X-22501973Y-8097831D01*
X-22494904Y-8122144D01*
X-22493808Y-8148731D01*
X-22498620Y-8174713D01*
X-22504024Y-8188237D01*
X-22519679Y-8211452D01*
X-22540303Y-8228674D01*
X-22562926Y-8238733D01*
X-22580623Y-8243114D01*
X-22595638Y-8244148D01*
X-22611644Y-8241809D01*
X-22624985Y-8238271D01*
X-22630727Y-8236399D01*
X-22636361Y-8233923D01*
X-22642513Y-8230295D01*
X-22649807Y-8224964D01*
X-22658867Y-8217380D01*
X-22670317Y-8206995D01*
X-22684782Y-8193256D01*
X-22702886Y-8175616D01*
X-22725253Y-8153524D01*
X-22752507Y-8126430D01*
X-22756674Y-8122280D01*
X-22866807Y-8012589D01*
X-22976940Y-8122280D01*
X-23004916Y-8150105D01*
X-23027918Y-8172853D01*
X-23046571Y-8191073D01*
X-23061500Y-8205316D01*
X-23073328Y-8216130D01*
X-23082679Y-8224066D01*
X-23090179Y-8229675D01*
X-23096451Y-8233505D01*
X-23102120Y-8236106D01*
X-23107810Y-8238029D01*
X-23108629Y-8238271D01*
X-23127410Y-8242924D01*
X-23142701Y-8244183D01*
X-23158173Y-8242078D01*
X-23170688Y-8238733D01*
X-23195345Y-8227492D01*
X-23215225Y-8210402D01*
X-23229656Y-8188407D01*
X-23237966Y-8162452D01*
X-23239782Y-8141598D01*
X-23239548Y-8130444D01*
X-23238597Y-8120482D01*
X-23236433Y-8111030D01*
X-23232561Y-8101407D01*
X-23226487Y-8090932D01*
X-23217714Y-8078924D01*
X-23205748Y-8064703D01*
X-23190094Y-8047586D01*
X-23170256Y-8026895D01*
X-23145740Y-8001946D01*
X-23117756Y-7973774D01*
X-23011927Y-7867473D01*
X-23119589Y-7759359D01*
X-23151989Y-7726607D01*
X-23178747Y-7699078D01*
X-23200033Y-7676590D01*
X-23216016Y-7658958D01*
X-23226867Y-7646000D01*
X-23232753Y-7637530D01*
X-23233560Y-7635877D01*
X-23239427Y-7611956D01*
X-23239209Y-7585914D01*
X-23233352Y-7560140D01*
X-23222301Y-7537024D01*
X-23212846Y-7524873D01*
X-23192656Y-7509080D01*
X-23168362Y-7499030D01*
X-23141724Y-7495120D01*
X-23114506Y-7497744D01*
G37*
%TO.C,MH4*%
X24511949Y-6535485D02*
X24545536Y-6539355D01*
X24608971Y-6553848D01*
X24668753Y-6575224D01*
X24724531Y-6603245D01*
X24775957Y-6637670D01*
X24822679Y-6678261D01*
X24864347Y-6724778D01*
X24900612Y-6776983D01*
X24905566Y-6785293D01*
X24931861Y-6838008D01*
X24951571Y-6894240D01*
X24964590Y-6952922D01*
X24970811Y-7012985D01*
X24970127Y-7073359D01*
X24962432Y-7132977D01*
X24947620Y-7190771D01*
X24946358Y-7194588D01*
X24923444Y-7250646D01*
X24893644Y-7303596D01*
X24857629Y-7352751D01*
X24816066Y-7397425D01*
X24769623Y-7436932D01*
X24718970Y-7470585D01*
X24664774Y-7497698D01*
X24642765Y-7506372D01*
X24628476Y-7510922D01*
X24608254Y-7516453D01*
X24583970Y-7522500D01*
X24557494Y-7528597D01*
X24530700Y-7534278D01*
X24530261Y-7534366D01*
X24430532Y-7555993D01*
X24336764Y-7579584D01*
X24247109Y-7605700D01*
X24159714Y-7634901D01*
X24072731Y-7667747D01*
X24025034Y-7687299D01*
X23990526Y-7700979D01*
X23961694Y-7710355D01*
X23937577Y-7715480D01*
X23917219Y-7716408D01*
X23899660Y-7713193D01*
X23883940Y-7705888D01*
X23870660Y-7695937D01*
X23861395Y-7686987D01*
X23853729Y-7677277D01*
X23846993Y-7665421D01*
X23840517Y-7650029D01*
X23833630Y-7629716D01*
X23825663Y-7603093D01*
X23825407Y-7602207D01*
X23807723Y-7545416D01*
X23788678Y-7493685D01*
X23767151Y-7444142D01*
X23750957Y-7411081D01*
X23708219Y-7335947D01*
X23658695Y-7264369D01*
X23603015Y-7197073D01*
X23541811Y-7134788D01*
X23475714Y-7078241D01*
X23438393Y-7050479D01*
X23409595Y-7028546D01*
X23387844Y-7008212D01*
X23372599Y-6988751D01*
X23363319Y-6969434D01*
X23359460Y-6949537D01*
X23359279Y-6944372D01*
X23361167Y-6925821D01*
X23367500Y-6909087D01*
X23378937Y-6893462D01*
X23396136Y-6878237D01*
X23419758Y-6862702D01*
X23450461Y-6846151D01*
X23450772Y-6845994D01*
X23572361Y-6788597D01*
X23700009Y-6735170D01*
X23832719Y-6686051D01*
X23969495Y-6641577D01*
X24109339Y-6602086D01*
X24251253Y-6567914D01*
X24309893Y-6555501D01*
X24369370Y-6544694D01*
X24422504Y-6537781D01*
X24469846Y-6534724D01*
X24511949Y-6535485D01*
G36*
X24511949Y-6535485D02*
G01*
X24545536Y-6539355D01*
X24608971Y-6553848D01*
X24668753Y-6575224D01*
X24724531Y-6603245D01*
X24775957Y-6637670D01*
X24822679Y-6678261D01*
X24864347Y-6724778D01*
X24900612Y-6776983D01*
X24905566Y-6785293D01*
X24931861Y-6838008D01*
X24951571Y-6894240D01*
X24964590Y-6952922D01*
X24970811Y-7012985D01*
X24970127Y-7073359D01*
X24962432Y-7132977D01*
X24947620Y-7190771D01*
X24946358Y-7194588D01*
X24923444Y-7250646D01*
X24893644Y-7303596D01*
X24857629Y-7352751D01*
X24816066Y-7397425D01*
X24769623Y-7436932D01*
X24718970Y-7470585D01*
X24664774Y-7497698D01*
X24642765Y-7506372D01*
X24628476Y-7510922D01*
X24608254Y-7516453D01*
X24583970Y-7522500D01*
X24557494Y-7528597D01*
X24530700Y-7534278D01*
X24530261Y-7534366D01*
X24430532Y-7555993D01*
X24336764Y-7579584D01*
X24247109Y-7605700D01*
X24159714Y-7634901D01*
X24072731Y-7667747D01*
X24025034Y-7687299D01*
X23990526Y-7700979D01*
X23961694Y-7710355D01*
X23937577Y-7715480D01*
X23917219Y-7716408D01*
X23899660Y-7713193D01*
X23883940Y-7705888D01*
X23870660Y-7695937D01*
X23861395Y-7686987D01*
X23853729Y-7677277D01*
X23846993Y-7665421D01*
X23840517Y-7650029D01*
X23833630Y-7629716D01*
X23825663Y-7603093D01*
X23825407Y-7602207D01*
X23807723Y-7545416D01*
X23788678Y-7493685D01*
X23767151Y-7444142D01*
X23750957Y-7411081D01*
X23708219Y-7335947D01*
X23658695Y-7264369D01*
X23603015Y-7197073D01*
X23541811Y-7134788D01*
X23475714Y-7078241D01*
X23438393Y-7050479D01*
X23409595Y-7028546D01*
X23387844Y-7008212D01*
X23372599Y-6988751D01*
X23363319Y-6969434D01*
X23359460Y-6949537D01*
X23359279Y-6944372D01*
X23361167Y-6925821D01*
X23367500Y-6909087D01*
X23378937Y-6893462D01*
X23396136Y-6878237D01*
X23419758Y-6862702D01*
X23450461Y-6846151D01*
X23450772Y-6845994D01*
X23572361Y-6788597D01*
X23700009Y-6735170D01*
X23832719Y-6686051D01*
X23969495Y-6641577D01*
X24109339Y-6602086D01*
X24251253Y-6567914D01*
X24309893Y-6555501D01*
X24369370Y-6544694D01*
X24422504Y-6537781D01*
X24469846Y-6534724D01*
X24511949Y-6535485D01*
G37*
X21953047Y-8348988D02*
X21967288Y-8352943D01*
X21987000Y-8363797D01*
X22007247Y-8382118D01*
X22027592Y-8407498D01*
X22030893Y-8412284D01*
X22084967Y-8485516D01*
X22144171Y-8552984D01*
X22208212Y-8614446D01*
X22276798Y-8669662D01*
X22349634Y-8718388D01*
X22426430Y-8760383D01*
X22482980Y-8785891D01*
X22514171Y-8798236D01*
X22545564Y-8809456D01*
X22579185Y-8820206D01*
X22617062Y-8831143D01*
X22650000Y-8839999D01*
X22668243Y-8845311D01*
X22681291Y-8850726D01*
X22691792Y-8857565D01*
X22700213Y-8865018D01*
X22713652Y-8880581D01*
X22721731Y-8896968D01*
X22724494Y-8915279D01*
X22721986Y-8936611D01*
X22714251Y-8962063D01*
X22705056Y-8984494D01*
X22655612Y-9105013D01*
X22612330Y-9229302D01*
X22575030Y-9357944D01*
X22543530Y-9491521D01*
X22537246Y-9522202D01*
X22530145Y-9556885D01*
X22523833Y-9585266D01*
X22517861Y-9608885D01*
X22511784Y-9629279D01*
X22505155Y-9647988D01*
X22497525Y-9666550D01*
X22491301Y-9680388D01*
X22462562Y-9733369D01*
X22427417Y-9782436D01*
X22386595Y-9827020D01*
X22340824Y-9866548D01*
X22290832Y-9900449D01*
X22237348Y-9928152D01*
X22181101Y-9949086D01*
X22133781Y-9960733D01*
X22071022Y-9968857D01*
X22009393Y-9969394D01*
X21949378Y-9962670D01*
X21891462Y-9949011D01*
X21836133Y-9928741D01*
X21783874Y-9902186D01*
X21735171Y-9869670D01*
X21690510Y-9831520D01*
X21650375Y-9788060D01*
X21615254Y-9739615D01*
X21585630Y-9686511D01*
X21561989Y-9629073D01*
X21544817Y-9567626D01*
X21544448Y-9565916D01*
X21541266Y-9548234D01*
X21539142Y-9528992D01*
X21537945Y-9506293D01*
X21537543Y-9478245D01*
X21537566Y-9466697D01*
X21537943Y-9445012D01*
X21538947Y-9424049D01*
X21540740Y-9402806D01*
X21543483Y-9380278D01*
X21547338Y-9355461D01*
X21552467Y-9327351D01*
X21559030Y-9294944D01*
X21567190Y-9257237D01*
X21577109Y-9213224D01*
X21581327Y-9194838D01*
X21609840Y-9081425D01*
X21643635Y-8965246D01*
X21682046Y-8848158D01*
X21724406Y-8732017D01*
X21770048Y-8618680D01*
X21818307Y-8510004D01*
X21852717Y-8438835D01*
X21867202Y-8411308D01*
X21879996Y-8390277D01*
X21891910Y-8374705D01*
X21903752Y-8363553D01*
X21916332Y-8355784D01*
X21918189Y-8354911D01*
X21936223Y-8348936D01*
X21953047Y-8348988D01*
G36*
X21953047Y-8348988D02*
G01*
X21967288Y-8352943D01*
X21987000Y-8363797D01*
X22007247Y-8382118D01*
X22027592Y-8407498D01*
X22030893Y-8412284D01*
X22084967Y-8485516D01*
X22144171Y-8552984D01*
X22208212Y-8614446D01*
X22276798Y-8669662D01*
X22349634Y-8718388D01*
X22426430Y-8760383D01*
X22482980Y-8785891D01*
X22514171Y-8798236D01*
X22545564Y-8809456D01*
X22579185Y-8820206D01*
X22617062Y-8831143D01*
X22650000Y-8839999D01*
X22668243Y-8845311D01*
X22681291Y-8850726D01*
X22691792Y-8857565D01*
X22700213Y-8865018D01*
X22713652Y-8880581D01*
X22721731Y-8896968D01*
X22724494Y-8915279D01*
X22721986Y-8936611D01*
X22714251Y-8962063D01*
X22705056Y-8984494D01*
X22655612Y-9105013D01*
X22612330Y-9229302D01*
X22575030Y-9357944D01*
X22543530Y-9491521D01*
X22537246Y-9522202D01*
X22530145Y-9556885D01*
X22523833Y-9585266D01*
X22517861Y-9608885D01*
X22511784Y-9629279D01*
X22505155Y-9647988D01*
X22497525Y-9666550D01*
X22491301Y-9680388D01*
X22462562Y-9733369D01*
X22427417Y-9782436D01*
X22386595Y-9827020D01*
X22340824Y-9866548D01*
X22290832Y-9900449D01*
X22237348Y-9928152D01*
X22181101Y-9949086D01*
X22133781Y-9960733D01*
X22071022Y-9968857D01*
X22009393Y-9969394D01*
X21949378Y-9962670D01*
X21891462Y-9949011D01*
X21836133Y-9928741D01*
X21783874Y-9902186D01*
X21735171Y-9869670D01*
X21690510Y-9831520D01*
X21650375Y-9788060D01*
X21615254Y-9739615D01*
X21585630Y-9686511D01*
X21561989Y-9629073D01*
X21544817Y-9567626D01*
X21544448Y-9565916D01*
X21541266Y-9548234D01*
X21539142Y-9528992D01*
X21537945Y-9506293D01*
X21537543Y-9478245D01*
X21537566Y-9466697D01*
X21537943Y-9445012D01*
X21538947Y-9424049D01*
X21540740Y-9402806D01*
X21543483Y-9380278D01*
X21547338Y-9355461D01*
X21552467Y-9327351D01*
X21559030Y-9294944D01*
X21567190Y-9257237D01*
X21577109Y-9213224D01*
X21581327Y-9194838D01*
X21609840Y-9081425D01*
X21643635Y-8965246D01*
X21682046Y-8848158D01*
X21724406Y-8732017D01*
X21770048Y-8618680D01*
X21818307Y-8510004D01*
X21852717Y-8438835D01*
X21867202Y-8411308D01*
X21879996Y-8390277D01*
X21891910Y-8374705D01*
X21903752Y-8363553D01*
X21916332Y-8355784D01*
X21918189Y-8354911D01*
X21936223Y-8348936D01*
X21953047Y-8348988D01*
G37*
X23161664Y-7465669D02*
X23170644Y-7467670D01*
X23200672Y-7479910D01*
X23225650Y-7497812D01*
X23245015Y-7520589D01*
X23258200Y-7547453D01*
X23264642Y-7577616D01*
X23264914Y-7599115D01*
X23264446Y-7606630D01*
X23263847Y-7613497D01*
X23262805Y-7620076D01*
X23261008Y-7626722D01*
X23258142Y-7633793D01*
X23253895Y-7641646D01*
X23247956Y-7650638D01*
X23240011Y-7661127D01*
X23229747Y-7673470D01*
X23216854Y-7688023D01*
X23201017Y-7705144D01*
X23181925Y-7725191D01*
X23159265Y-7748520D01*
X23132725Y-7775488D01*
X23101992Y-7806453D01*
X23066753Y-7841772D01*
X23026697Y-7881803D01*
X22981511Y-7926901D01*
X22955203Y-7953152D01*
X22908642Y-7999605D01*
X22867346Y-8040772D01*
X22830970Y-8076980D01*
X22799168Y-8108560D01*
X22771596Y-8135838D01*
X22747908Y-8159144D01*
X22727758Y-8178805D01*
X22710802Y-8195151D01*
X22696694Y-8208509D01*
X22685088Y-8219208D01*
X22675639Y-8227577D01*
X22668002Y-8233943D01*
X22661832Y-8238636D01*
X22656783Y-8241983D01*
X22652509Y-8244314D01*
X22648667Y-8245955D01*
X22646489Y-8246725D01*
X22614957Y-8253445D01*
X22584047Y-8252840D01*
X22554826Y-8245307D01*
X22528358Y-8231246D01*
X22505710Y-8211055D01*
X22489510Y-8188041D01*
X22483925Y-8177227D01*
X22480461Y-8167715D01*
X22478623Y-8156999D01*
X22477911Y-8142576D01*
X22477817Y-8129228D01*
X22478161Y-8109688D01*
X22479474Y-8095506D01*
X22482180Y-8084124D01*
X22486700Y-8072980D01*
X22487316Y-8071681D01*
X22489981Y-8067251D01*
X22494743Y-8060920D01*
X22501894Y-8052385D01*
X22511722Y-8041347D01*
X22524520Y-8027504D01*
X22540578Y-8010553D01*
X22560186Y-7990195D01*
X22583636Y-7966126D01*
X22611217Y-7938047D01*
X22643222Y-7905655D01*
X22679939Y-7868650D01*
X22721661Y-7826729D01*
X22768677Y-7779591D01*
X22779019Y-7769234D01*
X22825793Y-7722417D01*
X22867318Y-7680912D01*
X22903933Y-7644392D01*
X22935979Y-7612532D01*
X22963792Y-7585006D01*
X22987713Y-7561487D01*
X23008081Y-7541650D01*
X23025234Y-7525169D01*
X23039512Y-7511717D01*
X23051254Y-7500969D01*
X23060798Y-7492598D01*
X23068484Y-7486279D01*
X23074650Y-7481686D01*
X23079636Y-7478492D01*
X23083392Y-7476545D01*
X23108956Y-7468020D01*
X23136053Y-7464292D01*
X23161664Y-7465669D01*
G36*
X23161664Y-7465669D02*
G01*
X23170644Y-7467670D01*
X23200672Y-7479910D01*
X23225650Y-7497812D01*
X23245015Y-7520589D01*
X23258200Y-7547453D01*
X23264642Y-7577616D01*
X23264914Y-7599115D01*
X23264446Y-7606630D01*
X23263847Y-7613497D01*
X23262805Y-7620076D01*
X23261008Y-7626722D01*
X23258142Y-7633793D01*
X23253895Y-7641646D01*
X23247956Y-7650638D01*
X23240011Y-7661127D01*
X23229747Y-7673470D01*
X23216854Y-7688023D01*
X23201017Y-7705144D01*
X23181925Y-7725191D01*
X23159265Y-7748520D01*
X23132725Y-7775488D01*
X23101992Y-7806453D01*
X23066753Y-7841772D01*
X23026697Y-7881803D01*
X22981511Y-7926901D01*
X22955203Y-7953152D01*
X22908642Y-7999605D01*
X22867346Y-8040772D01*
X22830970Y-8076980D01*
X22799168Y-8108560D01*
X22771596Y-8135838D01*
X22747908Y-8159144D01*
X22727758Y-8178805D01*
X22710802Y-8195151D01*
X22696694Y-8208509D01*
X22685088Y-8219208D01*
X22675639Y-8227577D01*
X22668002Y-8233943D01*
X22661832Y-8238636D01*
X22656783Y-8241983D01*
X22652509Y-8244314D01*
X22648667Y-8245955D01*
X22646489Y-8246725D01*
X22614957Y-8253445D01*
X22584047Y-8252840D01*
X22554826Y-8245307D01*
X22528358Y-8231246D01*
X22505710Y-8211055D01*
X22489510Y-8188041D01*
X22483925Y-8177227D01*
X22480461Y-8167715D01*
X22478623Y-8156999D01*
X22477911Y-8142576D01*
X22477817Y-8129228D01*
X22478161Y-8109688D01*
X22479474Y-8095506D01*
X22482180Y-8084124D01*
X22486700Y-8072980D01*
X22487316Y-8071681D01*
X22489981Y-8067251D01*
X22494743Y-8060920D01*
X22501894Y-8052385D01*
X22511722Y-8041347D01*
X22524520Y-8027504D01*
X22540578Y-8010553D01*
X22560186Y-7990195D01*
X22583636Y-7966126D01*
X22611217Y-7938047D01*
X22643222Y-7905655D01*
X22679939Y-7868650D01*
X22721661Y-7826729D01*
X22768677Y-7779591D01*
X22779019Y-7769234D01*
X22825793Y-7722417D01*
X22867318Y-7680912D01*
X22903933Y-7644392D01*
X22935979Y-7612532D01*
X22963792Y-7585006D01*
X22987713Y-7561487D01*
X23008081Y-7541650D01*
X23025234Y-7525169D01*
X23039512Y-7511717D01*
X23051254Y-7500969D01*
X23060798Y-7492598D01*
X23068484Y-7486279D01*
X23074650Y-7481686D01*
X23079636Y-7478492D01*
X23083392Y-7476545D01*
X23108956Y-7468020D01*
X23136053Y-7464292D01*
X23161664Y-7465669D01*
G37*
D11*
%TO.C,*%
G36*
X-23505004Y435446D02*
G01*
X-23401465Y384829D01*
X-23319972Y303336D01*
X-23269355Y199797D01*
X-23254800Y99901D01*
X-23254800Y-99899D01*
X-23269355Y-199795D01*
X-23319972Y-303334D01*
X-23401465Y-384827D01*
X-23505004Y-435444D01*
X-23604900Y-449999D01*
X-27954700Y-449999D01*
X-28054596Y-435444D01*
X-28158135Y-384827D01*
X-28239628Y-303334D01*
X-28290245Y-199795D01*
X-28304800Y-99899D01*
X-28304800Y99901D01*
X-28290245Y199797D01*
X-28239628Y303336D01*
X-28158135Y384829D01*
X-28054596Y435446D01*
X-27954700Y450001D01*
X-23604900Y450001D01*
X-23505004Y435446D01*
G37*
G36*
X-23505004Y-834554D02*
G01*
X-23401465Y-885171D01*
X-23319972Y-966664D01*
X-23269355Y-1070203D01*
X-23254800Y-1170099D01*
X-23254800Y-1369899D01*
X-23269355Y-1469795D01*
X-23319972Y-1573334D01*
X-23401465Y-1654827D01*
X-23505004Y-1705444D01*
X-23604900Y-1719999D01*
X-27954700Y-1719999D01*
X-28054596Y-1705444D01*
X-28158135Y-1654827D01*
X-28239628Y-1573334D01*
X-28290245Y-1469795D01*
X-28304800Y-1369899D01*
X-28304800Y-1170099D01*
X-28290245Y-1070203D01*
X-28239628Y-966664D01*
X-28158135Y-885171D01*
X-28054596Y-834554D01*
X-27954700Y-819999D01*
X-23604900Y-819999D01*
X-23505004Y-834554D01*
G37*
G36*
X-23505004Y1705446D02*
G01*
X-23401465Y1654829D01*
X-23319972Y1573336D01*
X-23269355Y1469797D01*
X-23254800Y1369901D01*
X-23254800Y1170101D01*
X-23269355Y1070205D01*
X-23319972Y966666D01*
X-23401465Y885173D01*
X-23505004Y834556D01*
X-23604900Y820001D01*
X-27454700Y820001D01*
X-27554596Y834556D01*
X-27658135Y885173D01*
X-27739628Y966666D01*
X-27790245Y1070205D01*
X-27804800Y1170101D01*
X-27804800Y1369901D01*
X-27790245Y1469797D01*
X-27739628Y1573336D01*
X-27658135Y1654829D01*
X-27554596Y1705446D01*
X-27454700Y1720001D01*
X-23604900Y1720001D01*
X-23505004Y1705446D01*
G37*
D12*
%TO.C,MH2*%
X22075855Y9975607D02*
X22135473Y9967912D01*
X22193267Y9953100D01*
X22197084Y9951838D01*
X22253142Y9928924D01*
X22306092Y9899124D01*
X22355247Y9863109D01*
X22399921Y9821546D01*
X22439428Y9775103D01*
X22473081Y9724450D01*
X22500194Y9670254D01*
X22508868Y9648245D01*
X22513418Y9633956D01*
X22518949Y9613734D01*
X22524996Y9589450D01*
X22531093Y9562974D01*
X22536774Y9536180D01*
X22536862Y9535741D01*
X22558489Y9436012D01*
X22582080Y9342244D01*
X22608196Y9252589D01*
X22637397Y9165194D01*
X22670243Y9078211D01*
X22689795Y9030514D01*
X22703475Y8996006D01*
X22712851Y8967174D01*
X22717976Y8943057D01*
X22718904Y8922699D01*
X22715689Y8905140D01*
X22708384Y8889420D01*
X22698433Y8876140D01*
X22689483Y8866875D01*
X22679773Y8859209D01*
X22667917Y8852473D01*
X22652525Y8845997D01*
X22632212Y8839110D01*
X22605589Y8831143D01*
X22604703Y8830887D01*
X22547912Y8813203D01*
X22496181Y8794158D01*
X22446638Y8772631D01*
X22413577Y8756437D01*
X22338443Y8713699D01*
X22266865Y8664175D01*
X22199569Y8608495D01*
X22137284Y8547291D01*
X22080737Y8481194D01*
X22052975Y8443873D01*
X22031042Y8415075D01*
X22010708Y8393324D01*
X21991247Y8378079D01*
X21971930Y8368799D01*
X21952033Y8364940D01*
X21946868Y8364759D01*
X21928317Y8366647D01*
X21911583Y8372980D01*
X21895958Y8384417D01*
X21880733Y8401616D01*
X21865198Y8425238D01*
X21848647Y8455941D01*
X21848490Y8456252D01*
X21791093Y8577841D01*
X21737666Y8705489D01*
X21688547Y8838199D01*
X21644073Y8974975D01*
X21604582Y9114819D01*
X21570410Y9256733D01*
X21557997Y9315373D01*
X21547190Y9374850D01*
X21540277Y9427984D01*
X21537220Y9475326D01*
X21537981Y9517429D01*
X21541851Y9551016D01*
X21556344Y9614451D01*
X21577720Y9674233D01*
X21605741Y9730011D01*
X21640166Y9781437D01*
X21680757Y9828159D01*
X21727274Y9869827D01*
X21779479Y9906092D01*
X21787789Y9911046D01*
X21840504Y9937341D01*
X21896736Y9957051D01*
X21955418Y9970070D01*
X22015481Y9976291D01*
X22075855Y9975607D01*
G36*
X22075855Y9975607D02*
G01*
X22135473Y9967912D01*
X22193267Y9953100D01*
X22197084Y9951838D01*
X22253142Y9928924D01*
X22306092Y9899124D01*
X22355247Y9863109D01*
X22399921Y9821546D01*
X22439428Y9775103D01*
X22473081Y9724450D01*
X22500194Y9670254D01*
X22508868Y9648245D01*
X22513418Y9633956D01*
X22518949Y9613734D01*
X22524996Y9589450D01*
X22531093Y9562974D01*
X22536774Y9536180D01*
X22536862Y9535741D01*
X22558489Y9436012D01*
X22582080Y9342244D01*
X22608196Y9252589D01*
X22637397Y9165194D01*
X22670243Y9078211D01*
X22689795Y9030514D01*
X22703475Y8996006D01*
X22712851Y8967174D01*
X22717976Y8943057D01*
X22718904Y8922699D01*
X22715689Y8905140D01*
X22708384Y8889420D01*
X22698433Y8876140D01*
X22689483Y8866875D01*
X22679773Y8859209D01*
X22667917Y8852473D01*
X22652525Y8845997D01*
X22632212Y8839110D01*
X22605589Y8831143D01*
X22604703Y8830887D01*
X22547912Y8813203D01*
X22496181Y8794158D01*
X22446638Y8772631D01*
X22413577Y8756437D01*
X22338443Y8713699D01*
X22266865Y8664175D01*
X22199569Y8608495D01*
X22137284Y8547291D01*
X22080737Y8481194D01*
X22052975Y8443873D01*
X22031042Y8415075D01*
X22010708Y8393324D01*
X21991247Y8378079D01*
X21971930Y8368799D01*
X21952033Y8364940D01*
X21946868Y8364759D01*
X21928317Y8366647D01*
X21911583Y8372980D01*
X21895958Y8384417D01*
X21880733Y8401616D01*
X21865198Y8425238D01*
X21848647Y8455941D01*
X21848490Y8456252D01*
X21791093Y8577841D01*
X21737666Y8705489D01*
X21688547Y8838199D01*
X21644073Y8974975D01*
X21604582Y9114819D01*
X21570410Y9256733D01*
X21557997Y9315373D01*
X21547190Y9374850D01*
X21540277Y9427984D01*
X21537220Y9475326D01*
X21537981Y9517429D01*
X21541851Y9551016D01*
X21556344Y9614451D01*
X21577720Y9674233D01*
X21605741Y9730011D01*
X21640166Y9781437D01*
X21680757Y9828159D01*
X21727274Y9869827D01*
X21779479Y9906092D01*
X21787789Y9911046D01*
X21840504Y9937341D01*
X21896736Y9957051D01*
X21955418Y9970070D01*
X22015481Y9976291D01*
X22075855Y9975607D01*
G37*
X22609126Y8269926D02*
X22615993Y8269327D01*
X22622572Y8268285D01*
X22629218Y8266488D01*
X22636289Y8263622D01*
X22644142Y8259375D01*
X22653134Y8253436D01*
X22663623Y8245491D01*
X22675966Y8235227D01*
X22690519Y8222334D01*
X22707640Y8206497D01*
X22727687Y8187405D01*
X22751016Y8164745D01*
X22777984Y8138205D01*
X22808949Y8107472D01*
X22844268Y8072233D01*
X22884299Y8032177D01*
X22929397Y7986991D01*
X22955648Y7960683D01*
X23002101Y7914122D01*
X23043268Y7872826D01*
X23079476Y7836450D01*
X23111056Y7804648D01*
X23138334Y7777076D01*
X23161640Y7753388D01*
X23181301Y7733238D01*
X23197647Y7716282D01*
X23211005Y7702174D01*
X23221704Y7690568D01*
X23230073Y7681119D01*
X23236439Y7673482D01*
X23241132Y7667312D01*
X23244479Y7662263D01*
X23246810Y7657989D01*
X23248451Y7654147D01*
X23249221Y7651969D01*
X23255941Y7620437D01*
X23255336Y7589527D01*
X23247803Y7560306D01*
X23233742Y7533838D01*
X23213551Y7511190D01*
X23190537Y7494990D01*
X23179723Y7489405D01*
X23170211Y7485941D01*
X23159495Y7484103D01*
X23145072Y7483391D01*
X23131724Y7483297D01*
X23112184Y7483641D01*
X23098002Y7484954D01*
X23086620Y7487660D01*
X23075476Y7492180D01*
X23074177Y7492796D01*
X23069747Y7495461D01*
X23063416Y7500223D01*
X23054881Y7507374D01*
X23043843Y7517202D01*
X23030000Y7530000D01*
X23013049Y7546058D01*
X22992691Y7565666D01*
X22968622Y7589116D01*
X22940543Y7616697D01*
X22908151Y7648702D01*
X22871146Y7685419D01*
X22829225Y7727141D01*
X22782087Y7774157D01*
X22771730Y7784499D01*
X22724913Y7831273D01*
X22683408Y7872798D01*
X22646888Y7909413D01*
X22615028Y7941459D01*
X22587502Y7969272D01*
X22563983Y7993193D01*
X22544146Y8013561D01*
X22527665Y8030714D01*
X22514213Y8044992D01*
X22503465Y8056734D01*
X22495094Y8066278D01*
X22488775Y8073964D01*
X22484182Y8080130D01*
X22480988Y8085116D01*
X22479041Y8088872D01*
X22470516Y8114436D01*
X22466788Y8141533D01*
X22468165Y8167144D01*
X22470166Y8176124D01*
X22482406Y8206152D01*
X22500308Y8231130D01*
X22523085Y8250495D01*
X22549949Y8263680D01*
X22580112Y8270122D01*
X22601611Y8270394D01*
X22609126Y8269926D01*
G36*
X22609126Y8269926D02*
G01*
X22615993Y8269327D01*
X22622572Y8268285D01*
X22629218Y8266488D01*
X22636289Y8263622D01*
X22644142Y8259375D01*
X22653134Y8253436D01*
X22663623Y8245491D01*
X22675966Y8235227D01*
X22690519Y8222334D01*
X22707640Y8206497D01*
X22727687Y8187405D01*
X22751016Y8164745D01*
X22777984Y8138205D01*
X22808949Y8107472D01*
X22844268Y8072233D01*
X22884299Y8032177D01*
X22929397Y7986991D01*
X22955648Y7960683D01*
X23002101Y7914122D01*
X23043268Y7872826D01*
X23079476Y7836450D01*
X23111056Y7804648D01*
X23138334Y7777076D01*
X23161640Y7753388D01*
X23181301Y7733238D01*
X23197647Y7716282D01*
X23211005Y7702174D01*
X23221704Y7690568D01*
X23230073Y7681119D01*
X23236439Y7673482D01*
X23241132Y7667312D01*
X23244479Y7662263D01*
X23246810Y7657989D01*
X23248451Y7654147D01*
X23249221Y7651969D01*
X23255941Y7620437D01*
X23255336Y7589527D01*
X23247803Y7560306D01*
X23233742Y7533838D01*
X23213551Y7511190D01*
X23190537Y7494990D01*
X23179723Y7489405D01*
X23170211Y7485941D01*
X23159495Y7484103D01*
X23145072Y7483391D01*
X23131724Y7483297D01*
X23112184Y7483641D01*
X23098002Y7484954D01*
X23086620Y7487660D01*
X23075476Y7492180D01*
X23074177Y7492796D01*
X23069747Y7495461D01*
X23063416Y7500223D01*
X23054881Y7507374D01*
X23043843Y7517202D01*
X23030000Y7530000D01*
X23013049Y7546058D01*
X22992691Y7565666D01*
X22968622Y7589116D01*
X22940543Y7616697D01*
X22908151Y7648702D01*
X22871146Y7685419D01*
X22829225Y7727141D01*
X22782087Y7774157D01*
X22771730Y7784499D01*
X22724913Y7831273D01*
X22683408Y7872798D01*
X22646888Y7909413D01*
X22615028Y7941459D01*
X22587502Y7969272D01*
X22563983Y7993193D01*
X22544146Y8013561D01*
X22527665Y8030714D01*
X22514213Y8044992D01*
X22503465Y8056734D01*
X22495094Y8066278D01*
X22488775Y8073964D01*
X22484182Y8080130D01*
X22480988Y8085116D01*
X22479041Y8088872D01*
X22470516Y8114436D01*
X22466788Y8141533D01*
X22468165Y8167144D01*
X22470166Y8176124D01*
X22482406Y8206152D01*
X22500308Y8231130D01*
X22523085Y8250495D01*
X22549949Y8263680D01*
X22580112Y8270122D01*
X22601611Y8270394D01*
X22609126Y8269926D01*
G37*
X23939107Y7727466D02*
X23964559Y7719731D01*
X23986990Y7710536D01*
X24107509Y7661092D01*
X24231798Y7617810D01*
X24360440Y7580510D01*
X24494017Y7549010D01*
X24524698Y7542726D01*
X24559381Y7535625D01*
X24587762Y7529313D01*
X24611381Y7523341D01*
X24631775Y7517264D01*
X24650484Y7510635D01*
X24669046Y7503005D01*
X24682884Y7496781D01*
X24735865Y7468042D01*
X24784932Y7432897D01*
X24829516Y7392075D01*
X24869044Y7346304D01*
X24902945Y7296312D01*
X24930648Y7242828D01*
X24951582Y7186581D01*
X24963229Y7139261D01*
X24971353Y7076502D01*
X24971890Y7014873D01*
X24965166Y6954858D01*
X24951507Y6896942D01*
X24931237Y6841613D01*
X24904682Y6789354D01*
X24872166Y6740651D01*
X24834016Y6695990D01*
X24790556Y6655855D01*
X24742111Y6620734D01*
X24689007Y6591110D01*
X24631569Y6567469D01*
X24570122Y6550297D01*
X24568412Y6549928D01*
X24550730Y6546746D01*
X24531488Y6544622D01*
X24508789Y6543425D01*
X24480741Y6543023D01*
X24469193Y6543046D01*
X24447508Y6543423D01*
X24426545Y6544427D01*
X24405302Y6546220D01*
X24382774Y6548963D01*
X24357957Y6552818D01*
X24329847Y6557947D01*
X24297440Y6564510D01*
X24259733Y6572670D01*
X24215720Y6582589D01*
X24197334Y6586807D01*
X24083921Y6615320D01*
X23967742Y6649115D01*
X23850654Y6687526D01*
X23734513Y6729886D01*
X23621176Y6775528D01*
X23512500Y6823787D01*
X23441331Y6858197D01*
X23413804Y6872682D01*
X23392773Y6885476D01*
X23377201Y6897390D01*
X23366049Y6909232D01*
X23358280Y6921812D01*
X23357407Y6923669D01*
X23351432Y6941703D01*
X23351484Y6958527D01*
X23355439Y6972768D01*
X23366293Y6992480D01*
X23384614Y7012727D01*
X23409994Y7033072D01*
X23414780Y7036373D01*
X23488012Y7090447D01*
X23555480Y7149651D01*
X23616942Y7213692D01*
X23672158Y7282278D01*
X23720884Y7355114D01*
X23762879Y7431910D01*
X23788387Y7488460D01*
X23800732Y7519651D01*
X23811952Y7551044D01*
X23822702Y7584665D01*
X23833639Y7622542D01*
X23842495Y7655480D01*
X23847807Y7673723D01*
X23853222Y7686771D01*
X23860061Y7697272D01*
X23867514Y7705693D01*
X23883077Y7719132D01*
X23899464Y7727211D01*
X23917775Y7729974D01*
X23939107Y7727466D01*
G36*
X23939107Y7727466D02*
G01*
X23964559Y7719731D01*
X23986990Y7710536D01*
X24107509Y7661092D01*
X24231798Y7617810D01*
X24360440Y7580510D01*
X24494017Y7549010D01*
X24524698Y7542726D01*
X24559381Y7535625D01*
X24587762Y7529313D01*
X24611381Y7523341D01*
X24631775Y7517264D01*
X24650484Y7510635D01*
X24669046Y7503005D01*
X24682884Y7496781D01*
X24735865Y7468042D01*
X24784932Y7432897D01*
X24829516Y7392075D01*
X24869044Y7346304D01*
X24902945Y7296312D01*
X24930648Y7242828D01*
X24951582Y7186581D01*
X24963229Y7139261D01*
X24971353Y7076502D01*
X24971890Y7014873D01*
X24965166Y6954858D01*
X24951507Y6896942D01*
X24931237Y6841613D01*
X24904682Y6789354D01*
X24872166Y6740651D01*
X24834016Y6695990D01*
X24790556Y6655855D01*
X24742111Y6620734D01*
X24689007Y6591110D01*
X24631569Y6567469D01*
X24570122Y6550297D01*
X24568412Y6549928D01*
X24550730Y6546746D01*
X24531488Y6544622D01*
X24508789Y6543425D01*
X24480741Y6543023D01*
X24469193Y6543046D01*
X24447508Y6543423D01*
X24426545Y6544427D01*
X24405302Y6546220D01*
X24382774Y6548963D01*
X24357957Y6552818D01*
X24329847Y6557947D01*
X24297440Y6564510D01*
X24259733Y6572670D01*
X24215720Y6582589D01*
X24197334Y6586807D01*
X24083921Y6615320D01*
X23967742Y6649115D01*
X23850654Y6687526D01*
X23734513Y6729886D01*
X23621176Y6775528D01*
X23512500Y6823787D01*
X23441331Y6858197D01*
X23413804Y6872682D01*
X23392773Y6885476D01*
X23377201Y6897390D01*
X23366049Y6909232D01*
X23358280Y6921812D01*
X23357407Y6923669D01*
X23351432Y6941703D01*
X23351484Y6958527D01*
X23355439Y6972768D01*
X23366293Y6992480D01*
X23384614Y7012727D01*
X23409994Y7033072D01*
X23414780Y7036373D01*
X23488012Y7090447D01*
X23555480Y7149651D01*
X23616942Y7213692D01*
X23672158Y7282278D01*
X23720884Y7355114D01*
X23762879Y7431910D01*
X23788387Y7488460D01*
X23800732Y7519651D01*
X23811952Y7551044D01*
X23822702Y7584665D01*
X23833639Y7622542D01*
X23842495Y7655480D01*
X23847807Y7673723D01*
X23853222Y7686771D01*
X23860061Y7697272D01*
X23867514Y7705693D01*
X23883077Y7719132D01*
X23899464Y7727211D01*
X23917775Y7729974D01*
X23939107Y7727466D01*
G37*
%TO.C,MH1*%
X-23899840Y7710688D02*
X-23884120Y7703383D01*
X-23870840Y7693432D01*
X-23861575Y7684482D01*
X-23853909Y7674772D01*
X-23847173Y7662916D01*
X-23840697Y7647524D01*
X-23833810Y7627211D01*
X-23825843Y7600588D01*
X-23825587Y7599702D01*
X-23807903Y7542911D01*
X-23788858Y7491180D01*
X-23767331Y7441637D01*
X-23751137Y7408576D01*
X-23708399Y7333442D01*
X-23658875Y7261864D01*
X-23603195Y7194568D01*
X-23541991Y7132283D01*
X-23475894Y7075736D01*
X-23438573Y7047974D01*
X-23409775Y7026041D01*
X-23388024Y7005707D01*
X-23372779Y6986246D01*
X-23363499Y6966929D01*
X-23359640Y6947032D01*
X-23359459Y6941867D01*
X-23361347Y6923316D01*
X-23367680Y6906582D01*
X-23379117Y6890957D01*
X-23396316Y6875732D01*
X-23419938Y6860197D01*
X-23450641Y6843646D01*
X-23450952Y6843489D01*
X-23572541Y6786092D01*
X-23700189Y6732665D01*
X-23832899Y6683546D01*
X-23969675Y6639072D01*
X-24109519Y6599581D01*
X-24251433Y6565409D01*
X-24310073Y6552996D01*
X-24369550Y6542189D01*
X-24422684Y6535276D01*
X-24470026Y6532219D01*
X-24512129Y6532980D01*
X-24545716Y6536850D01*
X-24609151Y6551343D01*
X-24668933Y6572719D01*
X-24724711Y6600740D01*
X-24776137Y6635165D01*
X-24822859Y6675756D01*
X-24864527Y6722273D01*
X-24900792Y6774478D01*
X-24905746Y6782788D01*
X-24932041Y6835503D01*
X-24951751Y6891735D01*
X-24964770Y6950417D01*
X-24970991Y7010480D01*
X-24970307Y7070854D01*
X-24962612Y7130472D01*
X-24947800Y7188266D01*
X-24946538Y7192083D01*
X-24923624Y7248141D01*
X-24893824Y7301091D01*
X-24857809Y7350246D01*
X-24816246Y7394920D01*
X-24769803Y7434427D01*
X-24719150Y7468080D01*
X-24664954Y7495193D01*
X-24642945Y7503867D01*
X-24628656Y7508417D01*
X-24608434Y7513948D01*
X-24584150Y7519995D01*
X-24557674Y7526092D01*
X-24530880Y7531773D01*
X-24530441Y7531861D01*
X-24430712Y7553488D01*
X-24336944Y7577079D01*
X-24247289Y7603195D01*
X-24159894Y7632396D01*
X-24072911Y7665242D01*
X-24025214Y7684794D01*
X-23990706Y7698474D01*
X-23961874Y7707850D01*
X-23937757Y7712975D01*
X-23917399Y7713903D01*
X-23899840Y7710688D01*
G36*
X-23899840Y7710688D02*
G01*
X-23884120Y7703383D01*
X-23870840Y7693432D01*
X-23861575Y7684482D01*
X-23853909Y7674772D01*
X-23847173Y7662916D01*
X-23840697Y7647524D01*
X-23833810Y7627211D01*
X-23825843Y7600588D01*
X-23825587Y7599702D01*
X-23807903Y7542911D01*
X-23788858Y7491180D01*
X-23767331Y7441637D01*
X-23751137Y7408576D01*
X-23708399Y7333442D01*
X-23658875Y7261864D01*
X-23603195Y7194568D01*
X-23541991Y7132283D01*
X-23475894Y7075736D01*
X-23438573Y7047974D01*
X-23409775Y7026041D01*
X-23388024Y7005707D01*
X-23372779Y6986246D01*
X-23363499Y6966929D01*
X-23359640Y6947032D01*
X-23359459Y6941867D01*
X-23361347Y6923316D01*
X-23367680Y6906582D01*
X-23379117Y6890957D01*
X-23396316Y6875732D01*
X-23419938Y6860197D01*
X-23450641Y6843646D01*
X-23450952Y6843489D01*
X-23572541Y6786092D01*
X-23700189Y6732665D01*
X-23832899Y6683546D01*
X-23969675Y6639072D01*
X-24109519Y6599581D01*
X-24251433Y6565409D01*
X-24310073Y6552996D01*
X-24369550Y6542189D01*
X-24422684Y6535276D01*
X-24470026Y6532219D01*
X-24512129Y6532980D01*
X-24545716Y6536850D01*
X-24609151Y6551343D01*
X-24668933Y6572719D01*
X-24724711Y6600740D01*
X-24776137Y6635165D01*
X-24822859Y6675756D01*
X-24864527Y6722273D01*
X-24900792Y6774478D01*
X-24905746Y6782788D01*
X-24932041Y6835503D01*
X-24951751Y6891735D01*
X-24964770Y6950417D01*
X-24970991Y7010480D01*
X-24970307Y7070854D01*
X-24962612Y7130472D01*
X-24947800Y7188266D01*
X-24946538Y7192083D01*
X-24923624Y7248141D01*
X-24893824Y7301091D01*
X-24857809Y7350246D01*
X-24816246Y7394920D01*
X-24769803Y7434427D01*
X-24719150Y7468080D01*
X-24664954Y7495193D01*
X-24642945Y7503867D01*
X-24628656Y7508417D01*
X-24608434Y7513948D01*
X-24584150Y7519995D01*
X-24557674Y7526092D01*
X-24530880Y7531773D01*
X-24530441Y7531861D01*
X-24430712Y7553488D01*
X-24336944Y7577079D01*
X-24247289Y7603195D01*
X-24159894Y7632396D01*
X-24072911Y7665242D01*
X-24025214Y7684794D01*
X-23990706Y7698474D01*
X-23961874Y7707850D01*
X-23937757Y7712975D01*
X-23917399Y7713903D01*
X-23899840Y7710688D01*
G37*
X-21949558Y9960165D02*
X-21891642Y9946506D01*
X-21836313Y9926236D01*
X-21784054Y9899681D01*
X-21735351Y9867165D01*
X-21690690Y9829015D01*
X-21650555Y9785555D01*
X-21615434Y9737110D01*
X-21585810Y9684006D01*
X-21562169Y9626568D01*
X-21544997Y9565121D01*
X-21544628Y9563411D01*
X-21541446Y9545729D01*
X-21539322Y9526487D01*
X-21538125Y9503788D01*
X-21537723Y9475740D01*
X-21537746Y9464192D01*
X-21538123Y9442507D01*
X-21539127Y9421544D01*
X-21540920Y9400301D01*
X-21543663Y9377773D01*
X-21547518Y9352956D01*
X-21552647Y9324846D01*
X-21559210Y9292439D01*
X-21567370Y9254732D01*
X-21577289Y9210719D01*
X-21581507Y9192333D01*
X-21610020Y9078920D01*
X-21643815Y8962741D01*
X-21682226Y8845653D01*
X-21724586Y8729512D01*
X-21770228Y8616175D01*
X-21818487Y8507499D01*
X-21852897Y8436330D01*
X-21867382Y8408803D01*
X-21880176Y8387772D01*
X-21892090Y8372200D01*
X-21903932Y8361048D01*
X-21916512Y8353279D01*
X-21918369Y8352406D01*
X-21936403Y8346431D01*
X-21953227Y8346483D01*
X-21967468Y8350438D01*
X-21987180Y8361292D01*
X-22007427Y8379613D01*
X-22027772Y8404993D01*
X-22031073Y8409779D01*
X-22085147Y8483011D01*
X-22144351Y8550479D01*
X-22208392Y8611941D01*
X-22276978Y8667157D01*
X-22349814Y8715883D01*
X-22426610Y8757878D01*
X-22483160Y8783386D01*
X-22514351Y8795731D01*
X-22545744Y8806951D01*
X-22579365Y8817701D01*
X-22617242Y8828638D01*
X-22650180Y8837494D01*
X-22668423Y8842806D01*
X-22681471Y8848221D01*
X-22691972Y8855060D01*
X-22700393Y8862513D01*
X-22713832Y8878076D01*
X-22721911Y8894463D01*
X-22724674Y8912774D01*
X-22722166Y8934106D01*
X-22714431Y8959558D01*
X-22705236Y8981989D01*
X-22655792Y9102508D01*
X-22612510Y9226797D01*
X-22575210Y9355439D01*
X-22543710Y9489016D01*
X-22537426Y9519697D01*
X-22530325Y9554380D01*
X-22524013Y9582761D01*
X-22518041Y9606380D01*
X-22511964Y9626774D01*
X-22505335Y9645483D01*
X-22497705Y9664045D01*
X-22491481Y9677883D01*
X-22462742Y9730864D01*
X-22427597Y9779931D01*
X-22386775Y9824515D01*
X-22341004Y9864043D01*
X-22291012Y9897944D01*
X-22237528Y9925647D01*
X-22181281Y9946581D01*
X-22133961Y9958228D01*
X-22071202Y9966352D01*
X-22009573Y9966889D01*
X-21949558Y9960165D01*
G36*
X-21949558Y9960165D02*
G01*
X-21891642Y9946506D01*
X-21836313Y9926236D01*
X-21784054Y9899681D01*
X-21735351Y9867165D01*
X-21690690Y9829015D01*
X-21650555Y9785555D01*
X-21615434Y9737110D01*
X-21585810Y9684006D01*
X-21562169Y9626568D01*
X-21544997Y9565121D01*
X-21544628Y9563411D01*
X-21541446Y9545729D01*
X-21539322Y9526487D01*
X-21538125Y9503788D01*
X-21537723Y9475740D01*
X-21537746Y9464192D01*
X-21538123Y9442507D01*
X-21539127Y9421544D01*
X-21540920Y9400301D01*
X-21543663Y9377773D01*
X-21547518Y9352956D01*
X-21552647Y9324846D01*
X-21559210Y9292439D01*
X-21567370Y9254732D01*
X-21577289Y9210719D01*
X-21581507Y9192333D01*
X-21610020Y9078920D01*
X-21643815Y8962741D01*
X-21682226Y8845653D01*
X-21724586Y8729512D01*
X-21770228Y8616175D01*
X-21818487Y8507499D01*
X-21852897Y8436330D01*
X-21867382Y8408803D01*
X-21880176Y8387772D01*
X-21892090Y8372200D01*
X-21903932Y8361048D01*
X-21916512Y8353279D01*
X-21918369Y8352406D01*
X-21936403Y8346431D01*
X-21953227Y8346483D01*
X-21967468Y8350438D01*
X-21987180Y8361292D01*
X-22007427Y8379613D01*
X-22027772Y8404993D01*
X-22031073Y8409779D01*
X-22085147Y8483011D01*
X-22144351Y8550479D01*
X-22208392Y8611941D01*
X-22276978Y8667157D01*
X-22349814Y8715883D01*
X-22426610Y8757878D01*
X-22483160Y8783386D01*
X-22514351Y8795731D01*
X-22545744Y8806951D01*
X-22579365Y8817701D01*
X-22617242Y8828638D01*
X-22650180Y8837494D01*
X-22668423Y8842806D01*
X-22681471Y8848221D01*
X-22691972Y8855060D01*
X-22700393Y8862513D01*
X-22713832Y8878076D01*
X-22721911Y8894463D01*
X-22724674Y8912774D01*
X-22722166Y8934106D01*
X-22714431Y8959558D01*
X-22705236Y8981989D01*
X-22655792Y9102508D01*
X-22612510Y9226797D01*
X-22575210Y9355439D01*
X-22543710Y9489016D01*
X-22537426Y9519697D01*
X-22530325Y9554380D01*
X-22524013Y9582761D01*
X-22518041Y9606380D01*
X-22511964Y9626774D01*
X-22505335Y9645483D01*
X-22497705Y9664045D01*
X-22491481Y9677883D01*
X-22462742Y9730864D01*
X-22427597Y9779931D01*
X-22386775Y9824515D01*
X-22341004Y9864043D01*
X-22291012Y9897944D01*
X-22237528Y9925647D01*
X-22181281Y9946581D01*
X-22133961Y9958228D01*
X-22071202Y9966352D01*
X-22009573Y9966889D01*
X-21949558Y9960165D01*
G37*
X-22493080Y8462212D02*
X-22475996Y8461545D01*
X-22462479Y8460274D01*
X-22451804Y8458344D01*
X-22443241Y8455699D01*
X-22436066Y8452282D01*
X-22429548Y8448040D01*
X-22422962Y8442914D01*
X-22419690Y8440230D01*
X-22408818Y8428720D01*
X-22398500Y8413530D01*
X-22390198Y8397311D01*
X-22385378Y8382711D01*
X-22384731Y8376967D01*
X-22383862Y8371125D01*
X-22381375Y8358362D01*
X-22377445Y8339492D01*
X-22372249Y8315326D01*
X-22365964Y8286676D01*
X-22358765Y8254355D01*
X-22350829Y8219174D01*
X-22343059Y8185111D01*
X-22332429Y8138496D01*
X-22323568Y8098904D01*
X-22316374Y8065644D01*
X-22310745Y8038025D01*
X-22306578Y8015357D01*
X-22303773Y7996949D01*
X-22302227Y7982110D01*
X-22301838Y7970148D01*
X-22302505Y7960374D01*
X-22304125Y7952096D01*
X-22306597Y7944623D01*
X-22307332Y7942809D01*
X-22319147Y7922743D01*
X-22336065Y7904491D01*
X-22354590Y7891433D01*
X-22372955Y7885113D01*
X-22395198Y7882434D01*
X-22418164Y7883397D01*
X-22438699Y7888005D01*
X-22446518Y7891379D01*
X-22462601Y7902393D01*
X-22477976Y7917153D01*
X-22490130Y7933021D01*
X-22494924Y7942205D01*
X-22497256Y7949647D01*
X-22500953Y7963448D01*
X-22505667Y7982221D01*
X-22511051Y8004574D01*
X-22516756Y8029118D01*
X-22517679Y8033174D01*
X-22523140Y8057057D01*
X-22528037Y8078151D01*
X-22532091Y8095288D01*
X-22535027Y8107299D01*
X-22536567Y8113019D01*
X-22536699Y8113326D01*
X-22539388Y8110758D01*
X-22546119Y8102977D01*
X-22556031Y8091013D01*
X-22568266Y8075897D01*
X-22576173Y8065985D01*
X-22675778Y7946850D01*
X-22781374Y7832921D01*
X-22892952Y7724207D01*
X-23010506Y7620714D01*
X-23070383Y7571835D01*
X-23087489Y7557937D01*
X-23101915Y7545681D01*
X-23112713Y7535919D01*
X-23118935Y7529499D01*
X-23119992Y7527349D01*
X-23115406Y7525660D01*
X-23104277Y7522381D01*
X-23087771Y7517831D01*
X-23067049Y7512328D01*
X-23043275Y7506190D01*
X-23033622Y7503742D01*
X-23002672Y7495885D01*
X-22978372Y7489537D01*
X-22959665Y7484311D01*
X-22945494Y7479819D01*
X-22934802Y7475675D01*
X-22926530Y7471492D01*
X-22919621Y7466883D01*
X-22913018Y7461461D01*
X-22909519Y7458341D01*
X-22892287Y7437880D01*
X-22881611Y7414547D01*
X-22877307Y7389655D01*
X-22879187Y7364520D01*
X-22887067Y7340457D01*
X-22900759Y7318780D01*
X-22920078Y7300804D01*
X-22932907Y7293037D01*
X-22944041Y7288006D01*
X-22955193Y7284698D01*
X-22967466Y7283199D01*
X-22981962Y7283598D01*
X-22999784Y7285980D01*
X-23022034Y7290434D01*
X-23049815Y7297046D01*
X-23079262Y7304601D01*
X-23107506Y7311970D01*
X-23141348Y7320770D01*
X-23178698Y7330458D01*
X-23217465Y7340493D01*
X-23255558Y7350332D01*
X-23289340Y7359037D01*
X-23326219Y7368613D01*
X-23356249Y7376697D01*
X-23380296Y7383659D01*
X-23399227Y7389867D01*
X-23413910Y7395692D01*
X-23425212Y7401501D01*
X-23433998Y7407665D01*
X-23441137Y7414552D01*
X-23447495Y7422532D01*
X-23451296Y7427998D01*
X-23455259Y7434076D01*
X-23458568Y7440017D01*
X-23461243Y7446515D01*
X-23463304Y7454260D01*
X-23464770Y7463945D01*
X-23465662Y7476262D01*
X-23465999Y7491902D01*
X-23465802Y7511558D01*
X-23465090Y7535922D01*
X-23463883Y7565685D01*
X-23462202Y7601540D01*
X-23460066Y7644179D01*
X-23458438Y7675937D01*
X-23456329Y7715786D01*
X-23454210Y7753614D01*
X-23452136Y7788604D01*
X-23450160Y7819941D01*
X-23448335Y7846810D01*
X-23446716Y7868395D01*
X-23445356Y7883880D01*
X-23444309Y7892450D01*
X-23444109Y7893392D01*
X-23434152Y7916680D01*
X-23418578Y7935719D01*
X-23398698Y7950142D01*
X-23375820Y7959578D01*
X-23351253Y7963660D01*
X-23326306Y7962018D01*
X-23302289Y7954283D01*
X-23280510Y7940086D01*
X-23280003Y7939643D01*
X-23265619Y7923599D01*
X-23254457Y7904889D01*
X-23253901Y7903631D01*
X-23250688Y7895777D01*
X-23248404Y7888519D01*
X-23246954Y7880439D01*
X-23246238Y7870119D01*
X-23246160Y7856140D01*
X-23246622Y7837083D01*
X-23247526Y7811530D01*
X-23247538Y7811208D01*
X-23248562Y7786057D01*
X-23249707Y7761691D01*
X-23250872Y7740023D01*
X-23251957Y7722969D01*
X-23252641Y7714507D01*
X-23253610Y7704569D01*
X-23253823Y7697578D01*
X-23252510Y7693806D01*
X-23248906Y7693523D01*
X-23242243Y7697002D01*
X-23231754Y7704514D01*
X-23216671Y7716329D01*
X-23196226Y7732719D01*
X-23192372Y7735812D01*
X-23109296Y7805234D01*
X-23027210Y7879265D01*
X-22947314Y7956678D01*
X-22870808Y8036246D01*
X-22798892Y8116742D01*
X-22732764Y8196938D01*
X-22700154Y8239329D01*
X-22688638Y8254699D01*
X-22724208Y8252165D01*
X-22741251Y8251202D01*
X-22763702Y8250293D01*
X-22789031Y8249523D01*
X-22814708Y8248976D01*
X-22823278Y8248853D01*
X-22848460Y8248682D01*
X-22867162Y8248952D01*
X-22880834Y8249778D01*
X-22890926Y8251272D01*
X-22898890Y8253547D01*
X-22902653Y8255069D01*
X-22925453Y8269239D01*
X-22943902Y8288974D01*
X-22956941Y8312656D01*
X-22963511Y8338665D01*
X-22964091Y8348973D01*
X-22960457Y8374696D01*
X-22950304Y8398980D01*
X-22934755Y8420094D01*
X-22914934Y8436309D01*
X-22903621Y8442101D01*
X-22898783Y8443996D01*
X-22893587Y8445637D01*
X-22887365Y8447068D01*
X-22879449Y8448335D01*
X-22869173Y8449481D01*
X-22855868Y8450551D01*
X-22838867Y8451589D01*
X-22817501Y8452640D01*
X-22791105Y8453747D01*
X-22759009Y8454955D01*
X-22720547Y8456308D01*
X-22675051Y8457851D01*
X-22657490Y8458439D01*
X-22611652Y8459955D01*
X-22573019Y8461147D01*
X-22540865Y8461957D01*
X-22514461Y8462331D01*
X-22493080Y8462212D01*
G36*
X-22493080Y8462212D02*
G01*
X-22475996Y8461545D01*
X-22462479Y8460274D01*
X-22451804Y8458344D01*
X-22443241Y8455699D01*
X-22436066Y8452282D01*
X-22429548Y8448040D01*
X-22422962Y8442914D01*
X-22419690Y8440230D01*
X-22408818Y8428720D01*
X-22398500Y8413530D01*
X-22390198Y8397311D01*
X-22385378Y8382711D01*
X-22384731Y8376967D01*
X-22383862Y8371125D01*
X-22381375Y8358362D01*
X-22377445Y8339492D01*
X-22372249Y8315326D01*
X-22365964Y8286676D01*
X-22358765Y8254355D01*
X-22350829Y8219174D01*
X-22343059Y8185111D01*
X-22332429Y8138496D01*
X-22323568Y8098904D01*
X-22316374Y8065644D01*
X-22310745Y8038025D01*
X-22306578Y8015357D01*
X-22303773Y7996949D01*
X-22302227Y7982110D01*
X-22301838Y7970148D01*
X-22302505Y7960374D01*
X-22304125Y7952096D01*
X-22306597Y7944623D01*
X-22307332Y7942809D01*
X-22319147Y7922743D01*
X-22336065Y7904491D01*
X-22354590Y7891433D01*
X-22372955Y7885113D01*
X-22395198Y7882434D01*
X-22418164Y7883397D01*
X-22438699Y7888005D01*
X-22446518Y7891379D01*
X-22462601Y7902393D01*
X-22477976Y7917153D01*
X-22490130Y7933021D01*
X-22494924Y7942205D01*
X-22497256Y7949647D01*
X-22500953Y7963448D01*
X-22505667Y7982221D01*
X-22511051Y8004574D01*
X-22516756Y8029118D01*
X-22517679Y8033174D01*
X-22523140Y8057057D01*
X-22528037Y8078151D01*
X-22532091Y8095288D01*
X-22535027Y8107299D01*
X-22536567Y8113019D01*
X-22536699Y8113326D01*
X-22539388Y8110758D01*
X-22546119Y8102977D01*
X-22556031Y8091013D01*
X-22568266Y8075897D01*
X-22576173Y8065985D01*
X-22675778Y7946850D01*
X-22781374Y7832921D01*
X-22892952Y7724207D01*
X-23010506Y7620714D01*
X-23070383Y7571835D01*
X-23087489Y7557937D01*
X-23101915Y7545681D01*
X-23112713Y7535919D01*
X-23118935Y7529499D01*
X-23119992Y7527349D01*
X-23115406Y7525660D01*
X-23104277Y7522381D01*
X-23087771Y7517831D01*
X-23067049Y7512328D01*
X-23043275Y7506190D01*
X-23033622Y7503742D01*
X-23002672Y7495885D01*
X-22978372Y7489537D01*
X-22959665Y7484311D01*
X-22945494Y7479819D01*
X-22934802Y7475675D01*
X-22926530Y7471492D01*
X-22919621Y7466883D01*
X-22913018Y7461461D01*
X-22909519Y7458341D01*
X-22892287Y7437880D01*
X-22881611Y7414547D01*
X-22877307Y7389655D01*
X-22879187Y7364520D01*
X-22887067Y7340457D01*
X-22900759Y7318780D01*
X-22920078Y7300804D01*
X-22932907Y7293037D01*
X-22944041Y7288006D01*
X-22955193Y7284698D01*
X-22967466Y7283199D01*
X-22981962Y7283598D01*
X-22999784Y7285980D01*
X-23022034Y7290434D01*
X-23049815Y7297046D01*
X-23079262Y7304601D01*
X-23107506Y7311970D01*
X-23141348Y7320770D01*
X-23178698Y7330458D01*
X-23217465Y7340493D01*
X-23255558Y7350332D01*
X-23289340Y7359037D01*
X-23326219Y7368613D01*
X-23356249Y7376697D01*
X-23380296Y7383659D01*
X-23399227Y7389867D01*
X-23413910Y7395692D01*
X-23425212Y7401501D01*
X-23433998Y7407665D01*
X-23441137Y7414552D01*
X-23447495Y7422532D01*
X-23451296Y7427998D01*
X-23455259Y7434076D01*
X-23458568Y7440017D01*
X-23461243Y7446515D01*
X-23463304Y7454260D01*
X-23464770Y7463945D01*
X-23465662Y7476262D01*
X-23465999Y7491902D01*
X-23465802Y7511558D01*
X-23465090Y7535922D01*
X-23463883Y7565685D01*
X-23462202Y7601540D01*
X-23460066Y7644179D01*
X-23458438Y7675937D01*
X-23456329Y7715786D01*
X-23454210Y7753614D01*
X-23452136Y7788604D01*
X-23450160Y7819941D01*
X-23448335Y7846810D01*
X-23446716Y7868395D01*
X-23445356Y7883880D01*
X-23444309Y7892450D01*
X-23444109Y7893392D01*
X-23434152Y7916680D01*
X-23418578Y7935719D01*
X-23398698Y7950142D01*
X-23375820Y7959578D01*
X-23351253Y7963660D01*
X-23326306Y7962018D01*
X-23302289Y7954283D01*
X-23280510Y7940086D01*
X-23280003Y7939643D01*
X-23265619Y7923599D01*
X-23254457Y7904889D01*
X-23253901Y7903631D01*
X-23250688Y7895777D01*
X-23248404Y7888519D01*
X-23246954Y7880439D01*
X-23246238Y7870119D01*
X-23246160Y7856140D01*
X-23246622Y7837083D01*
X-23247526Y7811530D01*
X-23247538Y7811208D01*
X-23248562Y7786057D01*
X-23249707Y7761691D01*
X-23250872Y7740023D01*
X-23251957Y7722969D01*
X-23252641Y7714507D01*
X-23253610Y7704569D01*
X-23253823Y7697578D01*
X-23252510Y7693806D01*
X-23248906Y7693523D01*
X-23242243Y7697002D01*
X-23231754Y7704514D01*
X-23216671Y7716329D01*
X-23196226Y7732719D01*
X-23192372Y7735812D01*
X-23109296Y7805234D01*
X-23027210Y7879265D01*
X-22947314Y7956678D01*
X-22870808Y8036246D01*
X-22798892Y8116742D01*
X-22732764Y8196938D01*
X-22700154Y8239329D01*
X-22688638Y8254699D01*
X-22724208Y8252165D01*
X-22741251Y8251202D01*
X-22763702Y8250293D01*
X-22789031Y8249523D01*
X-22814708Y8248976D01*
X-22823278Y8248853D01*
X-22848460Y8248682D01*
X-22867162Y8248952D01*
X-22880834Y8249778D01*
X-22890926Y8251272D01*
X-22898890Y8253547D01*
X-22902653Y8255069D01*
X-22925453Y8269239D01*
X-22943902Y8288974D01*
X-22956941Y8312656D01*
X-22963511Y8338665D01*
X-22964091Y8348973D01*
X-22960457Y8374696D01*
X-22950304Y8398980D01*
X-22934755Y8420094D01*
X-22914934Y8436309D01*
X-22903621Y8442101D01*
X-22898783Y8443996D01*
X-22893587Y8445637D01*
X-22887365Y8447068D01*
X-22879449Y8448335D01*
X-22869173Y8449481D01*
X-22855868Y8450551D01*
X-22838867Y8451589D01*
X-22817501Y8452640D01*
X-22791105Y8453747D01*
X-22759009Y8454955D01*
X-22720547Y8456308D01*
X-22675051Y8457851D01*
X-22657490Y8458439D01*
X-22611652Y8459955D01*
X-22573019Y8461147D01*
X-22540865Y8461957D01*
X-22514461Y8462331D01*
X-22493080Y8462212D01*
G37*
%TD*%
M02*
