%TF.GenerationSoftware,KiCad,Pcbnew,8.0.8*%
%TF.CreationDate,2025-01-29T17:03:44+00:00*%
%TF.ProjectId,ec30_2x4_l2_mh_0.1,65633330-5f32-4783-945f-6c325f6d685f,v0.1*%
%TF.SameCoordinates,PX8d24d00PY36d6160*%
%TF.FileFunction,Legend,Bot*%
%TF.FilePolarity,Positive*%
%FSLAX46Y46*%
G04 Gerber Fmt 4.6, Leading zero omitted, Abs format (unit mm)*
G04 Created by KiCad (PCBNEW 8.0.8) date 2025-01-29 17:03:44*
%MOMM*%
%LPD*%
G01*
G04 APERTURE LIST*
%ADD10C,0.010000*%
G04 APERTURE END LIST*
D10*
%TO.C,MH3*%
X-6928506Y-18363138D02*
X-6911772Y-18369471D01*
X-6896147Y-18380908D01*
X-6880922Y-18398107D01*
X-6865387Y-18421729D01*
X-6848836Y-18452432D01*
X-6848679Y-18452743D01*
X-6791282Y-18574332D01*
X-6737855Y-18701980D01*
X-6688736Y-18834690D01*
X-6644262Y-18971466D01*
X-6604771Y-19111310D01*
X-6570599Y-19253224D01*
X-6558186Y-19311864D01*
X-6547379Y-19371341D01*
X-6540466Y-19424475D01*
X-6537409Y-19471817D01*
X-6538170Y-19513920D01*
X-6542040Y-19547507D01*
X-6556533Y-19610942D01*
X-6577909Y-19670724D01*
X-6605930Y-19726502D01*
X-6640355Y-19777928D01*
X-6680946Y-19824650D01*
X-6727463Y-19866318D01*
X-6779668Y-19902583D01*
X-6787978Y-19907537D01*
X-6840693Y-19933832D01*
X-6896925Y-19953542D01*
X-6955607Y-19966561D01*
X-7015670Y-19972782D01*
X-7076044Y-19972098D01*
X-7135662Y-19964403D01*
X-7193456Y-19949591D01*
X-7197273Y-19948329D01*
X-7253331Y-19925415D01*
X-7306281Y-19895615D01*
X-7355436Y-19859600D01*
X-7400110Y-19818037D01*
X-7439617Y-19771594D01*
X-7473270Y-19720941D01*
X-7500383Y-19666745D01*
X-7509057Y-19644736D01*
X-7513607Y-19630447D01*
X-7519138Y-19610225D01*
X-7525185Y-19585941D01*
X-7531282Y-19559465D01*
X-7536963Y-19532671D01*
X-7537051Y-19532232D01*
X-7558678Y-19432503D01*
X-7582269Y-19338735D01*
X-7608385Y-19249080D01*
X-7637586Y-19161685D01*
X-7670432Y-19074702D01*
X-7689984Y-19027005D01*
X-7703664Y-18992497D01*
X-7713040Y-18963665D01*
X-7718165Y-18939548D01*
X-7719093Y-18919190D01*
X-7715878Y-18901631D01*
X-7708573Y-18885911D01*
X-7698622Y-18872631D01*
X-7689672Y-18863366D01*
X-7679962Y-18855700D01*
X-7668106Y-18848964D01*
X-7652714Y-18842488D01*
X-7632401Y-18835601D01*
X-7605778Y-18827634D01*
X-7604892Y-18827378D01*
X-7548101Y-18809694D01*
X-7496370Y-18790649D01*
X-7446827Y-18769122D01*
X-7413766Y-18752928D01*
X-7338632Y-18710190D01*
X-7267054Y-18660666D01*
X-7199758Y-18604986D01*
X-7137473Y-18543782D01*
X-7080926Y-18477685D01*
X-7053164Y-18440364D01*
X-7031231Y-18411566D01*
X-7010897Y-18389815D01*
X-6991436Y-18374570D01*
X-6972119Y-18365290D01*
X-6952222Y-18361431D01*
X-6947057Y-18361250D01*
X-6928506Y-18363138D01*
G36*
X-6928506Y-18363138D02*
G01*
X-6911772Y-18369471D01*
X-6896147Y-18380908D01*
X-6880922Y-18398107D01*
X-6865387Y-18421729D01*
X-6848836Y-18452432D01*
X-6848679Y-18452743D01*
X-6791282Y-18574332D01*
X-6737855Y-18701980D01*
X-6688736Y-18834690D01*
X-6644262Y-18971466D01*
X-6604771Y-19111310D01*
X-6570599Y-19253224D01*
X-6558186Y-19311864D01*
X-6547379Y-19371341D01*
X-6540466Y-19424475D01*
X-6537409Y-19471817D01*
X-6538170Y-19513920D01*
X-6542040Y-19547507D01*
X-6556533Y-19610942D01*
X-6577909Y-19670724D01*
X-6605930Y-19726502D01*
X-6640355Y-19777928D01*
X-6680946Y-19824650D01*
X-6727463Y-19866318D01*
X-6779668Y-19902583D01*
X-6787978Y-19907537D01*
X-6840693Y-19933832D01*
X-6896925Y-19953542D01*
X-6955607Y-19966561D01*
X-7015670Y-19972782D01*
X-7076044Y-19972098D01*
X-7135662Y-19964403D01*
X-7193456Y-19949591D01*
X-7197273Y-19948329D01*
X-7253331Y-19925415D01*
X-7306281Y-19895615D01*
X-7355436Y-19859600D01*
X-7400110Y-19818037D01*
X-7439617Y-19771594D01*
X-7473270Y-19720941D01*
X-7500383Y-19666745D01*
X-7509057Y-19644736D01*
X-7513607Y-19630447D01*
X-7519138Y-19610225D01*
X-7525185Y-19585941D01*
X-7531282Y-19559465D01*
X-7536963Y-19532671D01*
X-7537051Y-19532232D01*
X-7558678Y-19432503D01*
X-7582269Y-19338735D01*
X-7608385Y-19249080D01*
X-7637586Y-19161685D01*
X-7670432Y-19074702D01*
X-7689984Y-19027005D01*
X-7703664Y-18992497D01*
X-7713040Y-18963665D01*
X-7718165Y-18939548D01*
X-7719093Y-18919190D01*
X-7715878Y-18901631D01*
X-7708573Y-18885911D01*
X-7698622Y-18872631D01*
X-7689672Y-18863366D01*
X-7679962Y-18855700D01*
X-7668106Y-18848964D01*
X-7652714Y-18842488D01*
X-7632401Y-18835601D01*
X-7605778Y-18827634D01*
X-7604892Y-18827378D01*
X-7548101Y-18809694D01*
X-7496370Y-18790649D01*
X-7446827Y-18769122D01*
X-7413766Y-18752928D01*
X-7338632Y-18710190D01*
X-7267054Y-18660666D01*
X-7199758Y-18604986D01*
X-7137473Y-18543782D01*
X-7080926Y-18477685D01*
X-7053164Y-18440364D01*
X-7031231Y-18411566D01*
X-7010897Y-18389815D01*
X-6991436Y-18374570D01*
X-6972119Y-18365290D01*
X-6952222Y-18361431D01*
X-6947057Y-18361250D01*
X-6928506Y-18363138D01*
G37*
X-9469382Y-16539537D02*
X-9447697Y-16539914D01*
X-9426734Y-16540918D01*
X-9405491Y-16542711D01*
X-9382963Y-16545454D01*
X-9358146Y-16549309D01*
X-9330036Y-16554438D01*
X-9297629Y-16561001D01*
X-9259922Y-16569161D01*
X-9215909Y-16579080D01*
X-9197523Y-16583298D01*
X-9084110Y-16611811D01*
X-8967931Y-16645606D01*
X-8850843Y-16684017D01*
X-8734702Y-16726377D01*
X-8621365Y-16772019D01*
X-8512689Y-16820278D01*
X-8441520Y-16854688D01*
X-8413993Y-16869173D01*
X-8392962Y-16881967D01*
X-8377390Y-16893881D01*
X-8366238Y-16905723D01*
X-8358469Y-16918303D01*
X-8357596Y-16920160D01*
X-8351621Y-16938194D01*
X-8351673Y-16955018D01*
X-8355628Y-16969259D01*
X-8366482Y-16988971D01*
X-8384803Y-17009218D01*
X-8410183Y-17029563D01*
X-8414969Y-17032864D01*
X-8488201Y-17086938D01*
X-8555669Y-17146142D01*
X-8617131Y-17210183D01*
X-8672347Y-17278769D01*
X-8721073Y-17351605D01*
X-8763068Y-17428401D01*
X-8788576Y-17484951D01*
X-8800921Y-17516142D01*
X-8812141Y-17547535D01*
X-8822891Y-17581156D01*
X-8833828Y-17619033D01*
X-8842684Y-17651971D01*
X-8847996Y-17670214D01*
X-8853411Y-17683262D01*
X-8860250Y-17693763D01*
X-8867703Y-17702184D01*
X-8883266Y-17715623D01*
X-8899653Y-17723702D01*
X-8917964Y-17726465D01*
X-8939296Y-17723957D01*
X-8964748Y-17716222D01*
X-8987179Y-17707027D01*
X-9107698Y-17657583D01*
X-9231987Y-17614301D01*
X-9360629Y-17577001D01*
X-9494206Y-17545501D01*
X-9524887Y-17539217D01*
X-9559570Y-17532116D01*
X-9587951Y-17525804D01*
X-9611570Y-17519832D01*
X-9631964Y-17513755D01*
X-9650673Y-17507126D01*
X-9669235Y-17499496D01*
X-9683073Y-17493272D01*
X-9736054Y-17464533D01*
X-9785121Y-17429388D01*
X-9829705Y-17388566D01*
X-9869233Y-17342795D01*
X-9903134Y-17292803D01*
X-9930837Y-17239319D01*
X-9951771Y-17183072D01*
X-9963418Y-17135752D01*
X-9971542Y-17072993D01*
X-9972079Y-17011364D01*
X-9965355Y-16951349D01*
X-9951696Y-16893433D01*
X-9931426Y-16838104D01*
X-9904871Y-16785845D01*
X-9872355Y-16737142D01*
X-9834205Y-16692481D01*
X-9790745Y-16652346D01*
X-9742300Y-16617225D01*
X-9689196Y-16587601D01*
X-9631758Y-16563960D01*
X-9570311Y-16546788D01*
X-9568601Y-16546419D01*
X-9550919Y-16543237D01*
X-9531677Y-16541113D01*
X-9508978Y-16539916D01*
X-9480930Y-16539514D01*
X-9469382Y-16539537D01*
G36*
X-9469382Y-16539537D02*
G01*
X-9447697Y-16539914D01*
X-9426734Y-16540918D01*
X-9405491Y-16542711D01*
X-9382963Y-16545454D01*
X-9358146Y-16549309D01*
X-9330036Y-16554438D01*
X-9297629Y-16561001D01*
X-9259922Y-16569161D01*
X-9215909Y-16579080D01*
X-9197523Y-16583298D01*
X-9084110Y-16611811D01*
X-8967931Y-16645606D01*
X-8850843Y-16684017D01*
X-8734702Y-16726377D01*
X-8621365Y-16772019D01*
X-8512689Y-16820278D01*
X-8441520Y-16854688D01*
X-8413993Y-16869173D01*
X-8392962Y-16881967D01*
X-8377390Y-16893881D01*
X-8366238Y-16905723D01*
X-8358469Y-16918303D01*
X-8357596Y-16920160D01*
X-8351621Y-16938194D01*
X-8351673Y-16955018D01*
X-8355628Y-16969259D01*
X-8366482Y-16988971D01*
X-8384803Y-17009218D01*
X-8410183Y-17029563D01*
X-8414969Y-17032864D01*
X-8488201Y-17086938D01*
X-8555669Y-17146142D01*
X-8617131Y-17210183D01*
X-8672347Y-17278769D01*
X-8721073Y-17351605D01*
X-8763068Y-17428401D01*
X-8788576Y-17484951D01*
X-8800921Y-17516142D01*
X-8812141Y-17547535D01*
X-8822891Y-17581156D01*
X-8833828Y-17619033D01*
X-8842684Y-17651971D01*
X-8847996Y-17670214D01*
X-8853411Y-17683262D01*
X-8860250Y-17693763D01*
X-8867703Y-17702184D01*
X-8883266Y-17715623D01*
X-8899653Y-17723702D01*
X-8917964Y-17726465D01*
X-8939296Y-17723957D01*
X-8964748Y-17716222D01*
X-8987179Y-17707027D01*
X-9107698Y-17657583D01*
X-9231987Y-17614301D01*
X-9360629Y-17577001D01*
X-9494206Y-17545501D01*
X-9524887Y-17539217D01*
X-9559570Y-17532116D01*
X-9587951Y-17525804D01*
X-9611570Y-17519832D01*
X-9631964Y-17513755D01*
X-9650673Y-17507126D01*
X-9669235Y-17499496D01*
X-9683073Y-17493272D01*
X-9736054Y-17464533D01*
X-9785121Y-17429388D01*
X-9829705Y-17388566D01*
X-9869233Y-17342795D01*
X-9903134Y-17292803D01*
X-9930837Y-17239319D01*
X-9951771Y-17183072D01*
X-9963418Y-17135752D01*
X-9971542Y-17072993D01*
X-9972079Y-17011364D01*
X-9965355Y-16951349D01*
X-9951696Y-16893433D01*
X-9931426Y-16838104D01*
X-9904871Y-16785845D01*
X-9872355Y-16737142D01*
X-9834205Y-16692481D01*
X-9790745Y-16652346D01*
X-9742300Y-16617225D01*
X-9689196Y-16587601D01*
X-9631758Y-16563960D01*
X-9570311Y-16546788D01*
X-9568601Y-16546419D01*
X-9550919Y-16543237D01*
X-9531677Y-16541113D01*
X-9508978Y-16539916D01*
X-9480930Y-16539514D01*
X-9469382Y-16539537D01*
G37*
X-8113706Y-17496944D02*
X-8103689Y-17499701D01*
X-8097802Y-17501893D01*
X-8091812Y-17504868D01*
X-8085087Y-17509183D01*
X-8076996Y-17515397D01*
X-8066906Y-17524068D01*
X-8054186Y-17535754D01*
X-8038203Y-17551014D01*
X-8018325Y-17570404D01*
X-7993921Y-17594483D01*
X-7974157Y-17614080D01*
X-7866011Y-17721433D01*
X-7759845Y-17616232D01*
X-7731277Y-17588145D01*
X-7705522Y-17563269D01*
X-7683075Y-17542058D01*
X-7664428Y-17524971D01*
X-7650076Y-17512464D01*
X-7640513Y-17504993D01*
X-7637804Y-17503347D01*
X-7619653Y-17497707D01*
X-7597647Y-17495447D01*
X-7574938Y-17496528D01*
X-7554679Y-17500911D01*
X-7546147Y-17504489D01*
X-7526917Y-17518143D01*
X-7510139Y-17536514D01*
X-7498889Y-17555827D01*
X-7494821Y-17571697D01*
X-7493195Y-17591689D01*
X-7494004Y-17612373D01*
X-7497238Y-17630321D01*
X-7499093Y-17635689D01*
X-7504005Y-17643205D01*
X-7514648Y-17656014D01*
X-7530930Y-17674015D01*
X-7552756Y-17697108D01*
X-7580035Y-17725192D01*
X-7612673Y-17758167D01*
X-7613064Y-17758559D01*
X-7720887Y-17866673D01*
X-7615058Y-17972974D01*
X-7584116Y-18004238D01*
X-7558609Y-18030431D01*
X-7538195Y-18051925D01*
X-7522533Y-18069093D01*
X-7511280Y-18082307D01*
X-7504096Y-18091939D01*
X-7501173Y-18097031D01*
X-7494104Y-18121344D01*
X-7493008Y-18147931D01*
X-7497820Y-18173913D01*
X-7503224Y-18187437D01*
X-7518879Y-18210652D01*
X-7539503Y-18227874D01*
X-7562126Y-18237933D01*
X-7579823Y-18242314D01*
X-7594838Y-18243348D01*
X-7610844Y-18241009D01*
X-7624185Y-18237471D01*
X-7629927Y-18235599D01*
X-7635561Y-18233123D01*
X-7641713Y-18229495D01*
X-7649007Y-18224164D01*
X-7658067Y-18216580D01*
X-7669517Y-18206195D01*
X-7683982Y-18192456D01*
X-7702086Y-18174816D01*
X-7724453Y-18152724D01*
X-7751707Y-18125630D01*
X-7755874Y-18121480D01*
X-7866007Y-18011789D01*
X-7976140Y-18121480D01*
X-8004116Y-18149305D01*
X-8027118Y-18172053D01*
X-8045771Y-18190273D01*
X-8060700Y-18204516D01*
X-8072528Y-18215330D01*
X-8081879Y-18223266D01*
X-8089379Y-18228875D01*
X-8095651Y-18232705D01*
X-8101320Y-18235306D01*
X-8107010Y-18237229D01*
X-8107829Y-18237471D01*
X-8126610Y-18242124D01*
X-8141901Y-18243383D01*
X-8157373Y-18241278D01*
X-8169888Y-18237933D01*
X-8194545Y-18226692D01*
X-8214425Y-18209602D01*
X-8228856Y-18187607D01*
X-8237166Y-18161652D01*
X-8238982Y-18140798D01*
X-8238748Y-18129644D01*
X-8237797Y-18119682D01*
X-8235633Y-18110230D01*
X-8231761Y-18100607D01*
X-8225687Y-18090132D01*
X-8216914Y-18078124D01*
X-8204948Y-18063903D01*
X-8189294Y-18046786D01*
X-8169456Y-18026095D01*
X-8144940Y-18001146D01*
X-8116956Y-17972974D01*
X-8011127Y-17866673D01*
X-8118789Y-17758559D01*
X-8151189Y-17725807D01*
X-8177947Y-17698278D01*
X-8199233Y-17675790D01*
X-8215216Y-17658158D01*
X-8226067Y-17645200D01*
X-8231953Y-17636730D01*
X-8232760Y-17635077D01*
X-8238627Y-17611156D01*
X-8238409Y-17585114D01*
X-8232552Y-17559340D01*
X-8221501Y-17536224D01*
X-8212046Y-17524073D01*
X-8191856Y-17508280D01*
X-8167562Y-17498230D01*
X-8140924Y-17494320D01*
X-8113706Y-17496944D01*
G36*
X-8113706Y-17496944D02*
G01*
X-8103689Y-17499701D01*
X-8097802Y-17501893D01*
X-8091812Y-17504868D01*
X-8085087Y-17509183D01*
X-8076996Y-17515397D01*
X-8066906Y-17524068D01*
X-8054186Y-17535754D01*
X-8038203Y-17551014D01*
X-8018325Y-17570404D01*
X-7993921Y-17594483D01*
X-7974157Y-17614080D01*
X-7866011Y-17721433D01*
X-7759845Y-17616232D01*
X-7731277Y-17588145D01*
X-7705522Y-17563269D01*
X-7683075Y-17542058D01*
X-7664428Y-17524971D01*
X-7650076Y-17512464D01*
X-7640513Y-17504993D01*
X-7637804Y-17503347D01*
X-7619653Y-17497707D01*
X-7597647Y-17495447D01*
X-7574938Y-17496528D01*
X-7554679Y-17500911D01*
X-7546147Y-17504489D01*
X-7526917Y-17518143D01*
X-7510139Y-17536514D01*
X-7498889Y-17555827D01*
X-7494821Y-17571697D01*
X-7493195Y-17591689D01*
X-7494004Y-17612373D01*
X-7497238Y-17630321D01*
X-7499093Y-17635689D01*
X-7504005Y-17643205D01*
X-7514648Y-17656014D01*
X-7530930Y-17674015D01*
X-7552756Y-17697108D01*
X-7580035Y-17725192D01*
X-7612673Y-17758167D01*
X-7613064Y-17758559D01*
X-7720887Y-17866673D01*
X-7615058Y-17972974D01*
X-7584116Y-18004238D01*
X-7558609Y-18030431D01*
X-7538195Y-18051925D01*
X-7522533Y-18069093D01*
X-7511280Y-18082307D01*
X-7504096Y-18091939D01*
X-7501173Y-18097031D01*
X-7494104Y-18121344D01*
X-7493008Y-18147931D01*
X-7497820Y-18173913D01*
X-7503224Y-18187437D01*
X-7518879Y-18210652D01*
X-7539503Y-18227874D01*
X-7562126Y-18237933D01*
X-7579823Y-18242314D01*
X-7594838Y-18243348D01*
X-7610844Y-18241009D01*
X-7624185Y-18237471D01*
X-7629927Y-18235599D01*
X-7635561Y-18233123D01*
X-7641713Y-18229495D01*
X-7649007Y-18224164D01*
X-7658067Y-18216580D01*
X-7669517Y-18206195D01*
X-7683982Y-18192456D01*
X-7702086Y-18174816D01*
X-7724453Y-18152724D01*
X-7751707Y-18125630D01*
X-7755874Y-18121480D01*
X-7866007Y-18011789D01*
X-7976140Y-18121480D01*
X-8004116Y-18149305D01*
X-8027118Y-18172053D01*
X-8045771Y-18190273D01*
X-8060700Y-18204516D01*
X-8072528Y-18215330D01*
X-8081879Y-18223266D01*
X-8089379Y-18228875D01*
X-8095651Y-18232705D01*
X-8101320Y-18235306D01*
X-8107010Y-18237229D01*
X-8107829Y-18237471D01*
X-8126610Y-18242124D01*
X-8141901Y-18243383D01*
X-8157373Y-18241278D01*
X-8169888Y-18237933D01*
X-8194545Y-18226692D01*
X-8214425Y-18209602D01*
X-8228856Y-18187607D01*
X-8237166Y-18161652D01*
X-8238982Y-18140798D01*
X-8238748Y-18129644D01*
X-8237797Y-18119682D01*
X-8235633Y-18110230D01*
X-8231761Y-18100607D01*
X-8225687Y-18090132D01*
X-8216914Y-18078124D01*
X-8204948Y-18063903D01*
X-8189294Y-18046786D01*
X-8169456Y-18026095D01*
X-8144940Y-18001146D01*
X-8116956Y-17972974D01*
X-8011127Y-17866673D01*
X-8118789Y-17758559D01*
X-8151189Y-17725807D01*
X-8177947Y-17698278D01*
X-8199233Y-17675790D01*
X-8215216Y-17658158D01*
X-8226067Y-17645200D01*
X-8231953Y-17636730D01*
X-8232760Y-17635077D01*
X-8238627Y-17611156D01*
X-8238409Y-17585114D01*
X-8232552Y-17559340D01*
X-8221501Y-17536224D01*
X-8212046Y-17524073D01*
X-8191856Y-17508280D01*
X-8167562Y-17498230D01*
X-8140924Y-17494320D01*
X-8113706Y-17496944D01*
G37*
%TO.C,MH4*%
X9512315Y-16537097D02*
X9545902Y-16540967D01*
X9609337Y-16555460D01*
X9669119Y-16576836D01*
X9724897Y-16604857D01*
X9776323Y-16639282D01*
X9823045Y-16679873D01*
X9864713Y-16726390D01*
X9900978Y-16778595D01*
X9905932Y-16786905D01*
X9932227Y-16839620D01*
X9951937Y-16895852D01*
X9964956Y-16954534D01*
X9971177Y-17014597D01*
X9970493Y-17074971D01*
X9962798Y-17134589D01*
X9947986Y-17192383D01*
X9946724Y-17196200D01*
X9923810Y-17252258D01*
X9894010Y-17305208D01*
X9857995Y-17354363D01*
X9816432Y-17399037D01*
X9769989Y-17438544D01*
X9719336Y-17472197D01*
X9665140Y-17499310D01*
X9643131Y-17507984D01*
X9628842Y-17512534D01*
X9608620Y-17518065D01*
X9584336Y-17524112D01*
X9557860Y-17530209D01*
X9531066Y-17535890D01*
X9530627Y-17535978D01*
X9430898Y-17557605D01*
X9337130Y-17581196D01*
X9247475Y-17607312D01*
X9160080Y-17636513D01*
X9073097Y-17669359D01*
X9025400Y-17688911D01*
X8990892Y-17702591D01*
X8962060Y-17711967D01*
X8937943Y-17717092D01*
X8917585Y-17718020D01*
X8900026Y-17714805D01*
X8884306Y-17707500D01*
X8871026Y-17697549D01*
X8861761Y-17688599D01*
X8854095Y-17678889D01*
X8847359Y-17667033D01*
X8840883Y-17651641D01*
X8833996Y-17631328D01*
X8826029Y-17604705D01*
X8825773Y-17603819D01*
X8808089Y-17547028D01*
X8789044Y-17495297D01*
X8767517Y-17445754D01*
X8751323Y-17412693D01*
X8708585Y-17337559D01*
X8659061Y-17265981D01*
X8603381Y-17198685D01*
X8542177Y-17136400D01*
X8476080Y-17079853D01*
X8438759Y-17052091D01*
X8409961Y-17030158D01*
X8388210Y-17009824D01*
X8372965Y-16990363D01*
X8363685Y-16971046D01*
X8359826Y-16951149D01*
X8359645Y-16945984D01*
X8361533Y-16927433D01*
X8367866Y-16910699D01*
X8379303Y-16895074D01*
X8396502Y-16879849D01*
X8420124Y-16864314D01*
X8450827Y-16847763D01*
X8451138Y-16847606D01*
X8572727Y-16790209D01*
X8700375Y-16736782D01*
X8833085Y-16687663D01*
X8969861Y-16643189D01*
X9109705Y-16603698D01*
X9251619Y-16569526D01*
X9310259Y-16557113D01*
X9369736Y-16546306D01*
X9422870Y-16539393D01*
X9470212Y-16536336D01*
X9512315Y-16537097D01*
G36*
X9512315Y-16537097D02*
G01*
X9545902Y-16540967D01*
X9609337Y-16555460D01*
X9669119Y-16576836D01*
X9724897Y-16604857D01*
X9776323Y-16639282D01*
X9823045Y-16679873D01*
X9864713Y-16726390D01*
X9900978Y-16778595D01*
X9905932Y-16786905D01*
X9932227Y-16839620D01*
X9951937Y-16895852D01*
X9964956Y-16954534D01*
X9971177Y-17014597D01*
X9970493Y-17074971D01*
X9962798Y-17134589D01*
X9947986Y-17192383D01*
X9946724Y-17196200D01*
X9923810Y-17252258D01*
X9894010Y-17305208D01*
X9857995Y-17354363D01*
X9816432Y-17399037D01*
X9769989Y-17438544D01*
X9719336Y-17472197D01*
X9665140Y-17499310D01*
X9643131Y-17507984D01*
X9628842Y-17512534D01*
X9608620Y-17518065D01*
X9584336Y-17524112D01*
X9557860Y-17530209D01*
X9531066Y-17535890D01*
X9530627Y-17535978D01*
X9430898Y-17557605D01*
X9337130Y-17581196D01*
X9247475Y-17607312D01*
X9160080Y-17636513D01*
X9073097Y-17669359D01*
X9025400Y-17688911D01*
X8990892Y-17702591D01*
X8962060Y-17711967D01*
X8937943Y-17717092D01*
X8917585Y-17718020D01*
X8900026Y-17714805D01*
X8884306Y-17707500D01*
X8871026Y-17697549D01*
X8861761Y-17688599D01*
X8854095Y-17678889D01*
X8847359Y-17667033D01*
X8840883Y-17651641D01*
X8833996Y-17631328D01*
X8826029Y-17604705D01*
X8825773Y-17603819D01*
X8808089Y-17547028D01*
X8789044Y-17495297D01*
X8767517Y-17445754D01*
X8751323Y-17412693D01*
X8708585Y-17337559D01*
X8659061Y-17265981D01*
X8603381Y-17198685D01*
X8542177Y-17136400D01*
X8476080Y-17079853D01*
X8438759Y-17052091D01*
X8409961Y-17030158D01*
X8388210Y-17009824D01*
X8372965Y-16990363D01*
X8363685Y-16971046D01*
X8359826Y-16951149D01*
X8359645Y-16945984D01*
X8361533Y-16927433D01*
X8367866Y-16910699D01*
X8379303Y-16895074D01*
X8396502Y-16879849D01*
X8420124Y-16864314D01*
X8450827Y-16847763D01*
X8451138Y-16847606D01*
X8572727Y-16790209D01*
X8700375Y-16736782D01*
X8833085Y-16687663D01*
X8969861Y-16643189D01*
X9109705Y-16603698D01*
X9251619Y-16569526D01*
X9310259Y-16557113D01*
X9369736Y-16546306D01*
X9422870Y-16539393D01*
X9470212Y-16536336D01*
X9512315Y-16537097D01*
G37*
X6953413Y-18350600D02*
X6967654Y-18354555D01*
X6987366Y-18365409D01*
X7007613Y-18383730D01*
X7027958Y-18409110D01*
X7031259Y-18413896D01*
X7085333Y-18487128D01*
X7144537Y-18554596D01*
X7208578Y-18616058D01*
X7277164Y-18671274D01*
X7350000Y-18720000D01*
X7426796Y-18761995D01*
X7483346Y-18787503D01*
X7514537Y-18799848D01*
X7545930Y-18811068D01*
X7579551Y-18821818D01*
X7617428Y-18832755D01*
X7650366Y-18841611D01*
X7668609Y-18846923D01*
X7681657Y-18852338D01*
X7692158Y-18859177D01*
X7700579Y-18866630D01*
X7714018Y-18882193D01*
X7722097Y-18898580D01*
X7724860Y-18916891D01*
X7722352Y-18938223D01*
X7714617Y-18963675D01*
X7705422Y-18986106D01*
X7655978Y-19106625D01*
X7612696Y-19230914D01*
X7575396Y-19359556D01*
X7543896Y-19493133D01*
X7537612Y-19523814D01*
X7530511Y-19558497D01*
X7524199Y-19586878D01*
X7518227Y-19610497D01*
X7512150Y-19630891D01*
X7505521Y-19649600D01*
X7497891Y-19668162D01*
X7491667Y-19682000D01*
X7462928Y-19734981D01*
X7427783Y-19784048D01*
X7386961Y-19828632D01*
X7341190Y-19868160D01*
X7291198Y-19902061D01*
X7237714Y-19929764D01*
X7181467Y-19950698D01*
X7134147Y-19962345D01*
X7071388Y-19970469D01*
X7009759Y-19971006D01*
X6949744Y-19964282D01*
X6891828Y-19950623D01*
X6836499Y-19930353D01*
X6784240Y-19903798D01*
X6735537Y-19871282D01*
X6690876Y-19833132D01*
X6650741Y-19789672D01*
X6615620Y-19741227D01*
X6585996Y-19688123D01*
X6562355Y-19630685D01*
X6545183Y-19569238D01*
X6544814Y-19567528D01*
X6541632Y-19549846D01*
X6539508Y-19530604D01*
X6538311Y-19507905D01*
X6537909Y-19479857D01*
X6537932Y-19468309D01*
X6538309Y-19446624D01*
X6539313Y-19425661D01*
X6541106Y-19404418D01*
X6543849Y-19381890D01*
X6547704Y-19357073D01*
X6552833Y-19328963D01*
X6559396Y-19296556D01*
X6567556Y-19258849D01*
X6577475Y-19214836D01*
X6581693Y-19196450D01*
X6610206Y-19083037D01*
X6644001Y-18966858D01*
X6682412Y-18849770D01*
X6724772Y-18733629D01*
X6770414Y-18620292D01*
X6818673Y-18511616D01*
X6853083Y-18440447D01*
X6867568Y-18412920D01*
X6880362Y-18391889D01*
X6892276Y-18376317D01*
X6904118Y-18365165D01*
X6916698Y-18357396D01*
X6918555Y-18356523D01*
X6936589Y-18350548D01*
X6953413Y-18350600D01*
G36*
X6953413Y-18350600D02*
G01*
X6967654Y-18354555D01*
X6987366Y-18365409D01*
X7007613Y-18383730D01*
X7027958Y-18409110D01*
X7031259Y-18413896D01*
X7085333Y-18487128D01*
X7144537Y-18554596D01*
X7208578Y-18616058D01*
X7277164Y-18671274D01*
X7350000Y-18720000D01*
X7426796Y-18761995D01*
X7483346Y-18787503D01*
X7514537Y-18799848D01*
X7545930Y-18811068D01*
X7579551Y-18821818D01*
X7617428Y-18832755D01*
X7650366Y-18841611D01*
X7668609Y-18846923D01*
X7681657Y-18852338D01*
X7692158Y-18859177D01*
X7700579Y-18866630D01*
X7714018Y-18882193D01*
X7722097Y-18898580D01*
X7724860Y-18916891D01*
X7722352Y-18938223D01*
X7714617Y-18963675D01*
X7705422Y-18986106D01*
X7655978Y-19106625D01*
X7612696Y-19230914D01*
X7575396Y-19359556D01*
X7543896Y-19493133D01*
X7537612Y-19523814D01*
X7530511Y-19558497D01*
X7524199Y-19586878D01*
X7518227Y-19610497D01*
X7512150Y-19630891D01*
X7505521Y-19649600D01*
X7497891Y-19668162D01*
X7491667Y-19682000D01*
X7462928Y-19734981D01*
X7427783Y-19784048D01*
X7386961Y-19828632D01*
X7341190Y-19868160D01*
X7291198Y-19902061D01*
X7237714Y-19929764D01*
X7181467Y-19950698D01*
X7134147Y-19962345D01*
X7071388Y-19970469D01*
X7009759Y-19971006D01*
X6949744Y-19964282D01*
X6891828Y-19950623D01*
X6836499Y-19930353D01*
X6784240Y-19903798D01*
X6735537Y-19871282D01*
X6690876Y-19833132D01*
X6650741Y-19789672D01*
X6615620Y-19741227D01*
X6585996Y-19688123D01*
X6562355Y-19630685D01*
X6545183Y-19569238D01*
X6544814Y-19567528D01*
X6541632Y-19549846D01*
X6539508Y-19530604D01*
X6538311Y-19507905D01*
X6537909Y-19479857D01*
X6537932Y-19468309D01*
X6538309Y-19446624D01*
X6539313Y-19425661D01*
X6541106Y-19404418D01*
X6543849Y-19381890D01*
X6547704Y-19357073D01*
X6552833Y-19328963D01*
X6559396Y-19296556D01*
X6567556Y-19258849D01*
X6577475Y-19214836D01*
X6581693Y-19196450D01*
X6610206Y-19083037D01*
X6644001Y-18966858D01*
X6682412Y-18849770D01*
X6724772Y-18733629D01*
X6770414Y-18620292D01*
X6818673Y-18511616D01*
X6853083Y-18440447D01*
X6867568Y-18412920D01*
X6880362Y-18391889D01*
X6892276Y-18376317D01*
X6904118Y-18365165D01*
X6916698Y-18357396D01*
X6918555Y-18356523D01*
X6936589Y-18350548D01*
X6953413Y-18350600D01*
G37*
X8162030Y-17467281D02*
X8171010Y-17469282D01*
X8201038Y-17481522D01*
X8226016Y-17499424D01*
X8245381Y-17522201D01*
X8258566Y-17549065D01*
X8265008Y-17579228D01*
X8265280Y-17600727D01*
X8264812Y-17608242D01*
X8264213Y-17615109D01*
X8263171Y-17621688D01*
X8261374Y-17628334D01*
X8258508Y-17635405D01*
X8254261Y-17643258D01*
X8248322Y-17652250D01*
X8240377Y-17662739D01*
X8230113Y-17675082D01*
X8217220Y-17689635D01*
X8201383Y-17706756D01*
X8182291Y-17726803D01*
X8159631Y-17750132D01*
X8133091Y-17777100D01*
X8102358Y-17808065D01*
X8067119Y-17843384D01*
X8027063Y-17883415D01*
X7981877Y-17928513D01*
X7955569Y-17954764D01*
X7909008Y-18001217D01*
X7867712Y-18042384D01*
X7831336Y-18078592D01*
X7799534Y-18110172D01*
X7771962Y-18137450D01*
X7748274Y-18160756D01*
X7728124Y-18180417D01*
X7711168Y-18196763D01*
X7697060Y-18210121D01*
X7685454Y-18220820D01*
X7676005Y-18229189D01*
X7668368Y-18235555D01*
X7662198Y-18240248D01*
X7657149Y-18243595D01*
X7652875Y-18245926D01*
X7649033Y-18247567D01*
X7646855Y-18248337D01*
X7615323Y-18255057D01*
X7584413Y-18254452D01*
X7555192Y-18246919D01*
X7528724Y-18232858D01*
X7506076Y-18212667D01*
X7489876Y-18189653D01*
X7484291Y-18178839D01*
X7480827Y-18169327D01*
X7478989Y-18158611D01*
X7478277Y-18144188D01*
X7478183Y-18130840D01*
X7478527Y-18111300D01*
X7479840Y-18097118D01*
X7482546Y-18085736D01*
X7487066Y-18074592D01*
X7487682Y-18073293D01*
X7490347Y-18068863D01*
X7495109Y-18062532D01*
X7502260Y-18053997D01*
X7512088Y-18042959D01*
X7524886Y-18029116D01*
X7540944Y-18012165D01*
X7560552Y-17991807D01*
X7584002Y-17967738D01*
X7611583Y-17939659D01*
X7643588Y-17907267D01*
X7680305Y-17870262D01*
X7722027Y-17828341D01*
X7769043Y-17781203D01*
X7779385Y-17770846D01*
X7826159Y-17724029D01*
X7867684Y-17682524D01*
X7904299Y-17646004D01*
X7936345Y-17614144D01*
X7964158Y-17586618D01*
X7988079Y-17563099D01*
X8008447Y-17543262D01*
X8025600Y-17526781D01*
X8039878Y-17513329D01*
X8051620Y-17502581D01*
X8061164Y-17494210D01*
X8068850Y-17487891D01*
X8075016Y-17483298D01*
X8080002Y-17480104D01*
X8083758Y-17478157D01*
X8109322Y-17469632D01*
X8136419Y-17465904D01*
X8162030Y-17467281D01*
G36*
X8162030Y-17467281D02*
G01*
X8171010Y-17469282D01*
X8201038Y-17481522D01*
X8226016Y-17499424D01*
X8245381Y-17522201D01*
X8258566Y-17549065D01*
X8265008Y-17579228D01*
X8265280Y-17600727D01*
X8264812Y-17608242D01*
X8264213Y-17615109D01*
X8263171Y-17621688D01*
X8261374Y-17628334D01*
X8258508Y-17635405D01*
X8254261Y-17643258D01*
X8248322Y-17652250D01*
X8240377Y-17662739D01*
X8230113Y-17675082D01*
X8217220Y-17689635D01*
X8201383Y-17706756D01*
X8182291Y-17726803D01*
X8159631Y-17750132D01*
X8133091Y-17777100D01*
X8102358Y-17808065D01*
X8067119Y-17843384D01*
X8027063Y-17883415D01*
X7981877Y-17928513D01*
X7955569Y-17954764D01*
X7909008Y-18001217D01*
X7867712Y-18042384D01*
X7831336Y-18078592D01*
X7799534Y-18110172D01*
X7771962Y-18137450D01*
X7748274Y-18160756D01*
X7728124Y-18180417D01*
X7711168Y-18196763D01*
X7697060Y-18210121D01*
X7685454Y-18220820D01*
X7676005Y-18229189D01*
X7668368Y-18235555D01*
X7662198Y-18240248D01*
X7657149Y-18243595D01*
X7652875Y-18245926D01*
X7649033Y-18247567D01*
X7646855Y-18248337D01*
X7615323Y-18255057D01*
X7584413Y-18254452D01*
X7555192Y-18246919D01*
X7528724Y-18232858D01*
X7506076Y-18212667D01*
X7489876Y-18189653D01*
X7484291Y-18178839D01*
X7480827Y-18169327D01*
X7478989Y-18158611D01*
X7478277Y-18144188D01*
X7478183Y-18130840D01*
X7478527Y-18111300D01*
X7479840Y-18097118D01*
X7482546Y-18085736D01*
X7487066Y-18074592D01*
X7487682Y-18073293D01*
X7490347Y-18068863D01*
X7495109Y-18062532D01*
X7502260Y-18053997D01*
X7512088Y-18042959D01*
X7524886Y-18029116D01*
X7540944Y-18012165D01*
X7560552Y-17991807D01*
X7584002Y-17967738D01*
X7611583Y-17939659D01*
X7643588Y-17907267D01*
X7680305Y-17870262D01*
X7722027Y-17828341D01*
X7769043Y-17781203D01*
X7779385Y-17770846D01*
X7826159Y-17724029D01*
X7867684Y-17682524D01*
X7904299Y-17646004D01*
X7936345Y-17614144D01*
X7964158Y-17586618D01*
X7988079Y-17563099D01*
X8008447Y-17543262D01*
X8025600Y-17526781D01*
X8039878Y-17513329D01*
X8051620Y-17502581D01*
X8061164Y-17494210D01*
X8068850Y-17487891D01*
X8075016Y-17483298D01*
X8080002Y-17480104D01*
X8083758Y-17478157D01*
X8109322Y-17469632D01*
X8136419Y-17465904D01*
X8162030Y-17467281D01*
G37*
%TO.C,MH2*%
X7075573Y19972893D02*
X7135191Y19965198D01*
X7192985Y19950386D01*
X7196802Y19949124D01*
X7252860Y19926210D01*
X7305810Y19896410D01*
X7354965Y19860395D01*
X7399639Y19818832D01*
X7439146Y19772389D01*
X7472799Y19721736D01*
X7499912Y19667540D01*
X7508586Y19645531D01*
X7513136Y19631242D01*
X7518667Y19611020D01*
X7524714Y19586736D01*
X7530811Y19560260D01*
X7536492Y19533466D01*
X7536580Y19533027D01*
X7558207Y19433298D01*
X7581798Y19339530D01*
X7607914Y19249875D01*
X7637115Y19162480D01*
X7669961Y19075497D01*
X7689513Y19027800D01*
X7703193Y18993292D01*
X7712569Y18964460D01*
X7717694Y18940343D01*
X7718622Y18919985D01*
X7715407Y18902426D01*
X7708102Y18886706D01*
X7698151Y18873426D01*
X7689201Y18864161D01*
X7679491Y18856495D01*
X7667635Y18849759D01*
X7652243Y18843283D01*
X7631930Y18836396D01*
X7605307Y18828429D01*
X7604421Y18828173D01*
X7547630Y18810489D01*
X7495899Y18791444D01*
X7446356Y18769917D01*
X7413295Y18753723D01*
X7338161Y18710985D01*
X7266583Y18661461D01*
X7199287Y18605781D01*
X7137002Y18544577D01*
X7080455Y18478480D01*
X7052693Y18441159D01*
X7030760Y18412361D01*
X7010426Y18390610D01*
X6990965Y18375365D01*
X6971648Y18366085D01*
X6951751Y18362226D01*
X6946586Y18362045D01*
X6928035Y18363933D01*
X6911301Y18370266D01*
X6895676Y18381703D01*
X6880451Y18398902D01*
X6864916Y18422524D01*
X6848365Y18453227D01*
X6848208Y18453538D01*
X6790811Y18575127D01*
X6737384Y18702775D01*
X6688265Y18835485D01*
X6643791Y18972261D01*
X6604300Y19112105D01*
X6570128Y19254019D01*
X6557715Y19312659D01*
X6546908Y19372136D01*
X6539995Y19425270D01*
X6536938Y19472612D01*
X6537699Y19514715D01*
X6541569Y19548302D01*
X6556062Y19611737D01*
X6577438Y19671519D01*
X6605459Y19727297D01*
X6639884Y19778723D01*
X6680475Y19825445D01*
X6726992Y19867113D01*
X6779197Y19903378D01*
X6787507Y19908332D01*
X6840222Y19934627D01*
X6896454Y19954337D01*
X6955136Y19967356D01*
X7015199Y19973577D01*
X7075573Y19972893D01*
G36*
X7075573Y19972893D02*
G01*
X7135191Y19965198D01*
X7192985Y19950386D01*
X7196802Y19949124D01*
X7252860Y19926210D01*
X7305810Y19896410D01*
X7354965Y19860395D01*
X7399639Y19818832D01*
X7439146Y19772389D01*
X7472799Y19721736D01*
X7499912Y19667540D01*
X7508586Y19645531D01*
X7513136Y19631242D01*
X7518667Y19611020D01*
X7524714Y19586736D01*
X7530811Y19560260D01*
X7536492Y19533466D01*
X7536580Y19533027D01*
X7558207Y19433298D01*
X7581798Y19339530D01*
X7607914Y19249875D01*
X7637115Y19162480D01*
X7669961Y19075497D01*
X7689513Y19027800D01*
X7703193Y18993292D01*
X7712569Y18964460D01*
X7717694Y18940343D01*
X7718622Y18919985D01*
X7715407Y18902426D01*
X7708102Y18886706D01*
X7698151Y18873426D01*
X7689201Y18864161D01*
X7679491Y18856495D01*
X7667635Y18849759D01*
X7652243Y18843283D01*
X7631930Y18836396D01*
X7605307Y18828429D01*
X7604421Y18828173D01*
X7547630Y18810489D01*
X7495899Y18791444D01*
X7446356Y18769917D01*
X7413295Y18753723D01*
X7338161Y18710985D01*
X7266583Y18661461D01*
X7199287Y18605781D01*
X7137002Y18544577D01*
X7080455Y18478480D01*
X7052693Y18441159D01*
X7030760Y18412361D01*
X7010426Y18390610D01*
X6990965Y18375365D01*
X6971648Y18366085D01*
X6951751Y18362226D01*
X6946586Y18362045D01*
X6928035Y18363933D01*
X6911301Y18370266D01*
X6895676Y18381703D01*
X6880451Y18398902D01*
X6864916Y18422524D01*
X6848365Y18453227D01*
X6848208Y18453538D01*
X6790811Y18575127D01*
X6737384Y18702775D01*
X6688265Y18835485D01*
X6643791Y18972261D01*
X6604300Y19112105D01*
X6570128Y19254019D01*
X6557715Y19312659D01*
X6546908Y19372136D01*
X6539995Y19425270D01*
X6536938Y19472612D01*
X6537699Y19514715D01*
X6541569Y19548302D01*
X6556062Y19611737D01*
X6577438Y19671519D01*
X6605459Y19727297D01*
X6639884Y19778723D01*
X6680475Y19825445D01*
X6726992Y19867113D01*
X6779197Y19903378D01*
X6787507Y19908332D01*
X6840222Y19934627D01*
X6896454Y19954337D01*
X6955136Y19967356D01*
X7015199Y19973577D01*
X7075573Y19972893D01*
G37*
X7608844Y18267212D02*
X7615711Y18266613D01*
X7622290Y18265571D01*
X7628936Y18263774D01*
X7636007Y18260908D01*
X7643860Y18256661D01*
X7652852Y18250722D01*
X7663341Y18242777D01*
X7675684Y18232513D01*
X7690237Y18219620D01*
X7707358Y18203783D01*
X7727405Y18184691D01*
X7750734Y18162031D01*
X7777702Y18135491D01*
X7808667Y18104758D01*
X7843986Y18069519D01*
X7884017Y18029463D01*
X7929115Y17984277D01*
X7955366Y17957969D01*
X8001819Y17911408D01*
X8042986Y17870112D01*
X8079194Y17833736D01*
X8110774Y17801934D01*
X8138052Y17774362D01*
X8161358Y17750674D01*
X8181019Y17730524D01*
X8197365Y17713568D01*
X8210723Y17699460D01*
X8221422Y17687854D01*
X8229791Y17678405D01*
X8236157Y17670768D01*
X8240850Y17664598D01*
X8244197Y17659549D01*
X8246528Y17655275D01*
X8248169Y17651433D01*
X8248939Y17649255D01*
X8255659Y17617723D01*
X8255054Y17586813D01*
X8247521Y17557592D01*
X8233460Y17531124D01*
X8213269Y17508476D01*
X8190255Y17492276D01*
X8179441Y17486691D01*
X8169929Y17483227D01*
X8159213Y17481389D01*
X8144790Y17480677D01*
X8131442Y17480583D01*
X8111902Y17480927D01*
X8097720Y17482240D01*
X8086338Y17484946D01*
X8075194Y17489466D01*
X8073895Y17490082D01*
X8069465Y17492747D01*
X8063134Y17497509D01*
X8054599Y17504660D01*
X8043561Y17514488D01*
X8029718Y17527286D01*
X8012767Y17543344D01*
X7992409Y17562952D01*
X7968340Y17586402D01*
X7940261Y17613983D01*
X7907869Y17645988D01*
X7870864Y17682705D01*
X7828943Y17724427D01*
X7781805Y17771443D01*
X7771448Y17781785D01*
X7724631Y17828559D01*
X7683126Y17870084D01*
X7646606Y17906699D01*
X7614746Y17938745D01*
X7587220Y17966558D01*
X7563701Y17990479D01*
X7543864Y18010847D01*
X7527383Y18028000D01*
X7513931Y18042278D01*
X7503183Y18054020D01*
X7494812Y18063564D01*
X7488493Y18071250D01*
X7483900Y18077416D01*
X7480706Y18082402D01*
X7478759Y18086158D01*
X7470234Y18111722D01*
X7466506Y18138819D01*
X7467883Y18164430D01*
X7469884Y18173410D01*
X7482124Y18203438D01*
X7500026Y18228416D01*
X7522803Y18247781D01*
X7549667Y18260966D01*
X7579830Y18267408D01*
X7601329Y18267680D01*
X7608844Y18267212D01*
G36*
X7608844Y18267212D02*
G01*
X7615711Y18266613D01*
X7622290Y18265571D01*
X7628936Y18263774D01*
X7636007Y18260908D01*
X7643860Y18256661D01*
X7652852Y18250722D01*
X7663341Y18242777D01*
X7675684Y18232513D01*
X7690237Y18219620D01*
X7707358Y18203783D01*
X7727405Y18184691D01*
X7750734Y18162031D01*
X7777702Y18135491D01*
X7808667Y18104758D01*
X7843986Y18069519D01*
X7884017Y18029463D01*
X7929115Y17984277D01*
X7955366Y17957969D01*
X8001819Y17911408D01*
X8042986Y17870112D01*
X8079194Y17833736D01*
X8110774Y17801934D01*
X8138052Y17774362D01*
X8161358Y17750674D01*
X8181019Y17730524D01*
X8197365Y17713568D01*
X8210723Y17699460D01*
X8221422Y17687854D01*
X8229791Y17678405D01*
X8236157Y17670768D01*
X8240850Y17664598D01*
X8244197Y17659549D01*
X8246528Y17655275D01*
X8248169Y17651433D01*
X8248939Y17649255D01*
X8255659Y17617723D01*
X8255054Y17586813D01*
X8247521Y17557592D01*
X8233460Y17531124D01*
X8213269Y17508476D01*
X8190255Y17492276D01*
X8179441Y17486691D01*
X8169929Y17483227D01*
X8159213Y17481389D01*
X8144790Y17480677D01*
X8131442Y17480583D01*
X8111902Y17480927D01*
X8097720Y17482240D01*
X8086338Y17484946D01*
X8075194Y17489466D01*
X8073895Y17490082D01*
X8069465Y17492747D01*
X8063134Y17497509D01*
X8054599Y17504660D01*
X8043561Y17514488D01*
X8029718Y17527286D01*
X8012767Y17543344D01*
X7992409Y17562952D01*
X7968340Y17586402D01*
X7940261Y17613983D01*
X7907869Y17645988D01*
X7870864Y17682705D01*
X7828943Y17724427D01*
X7781805Y17771443D01*
X7771448Y17781785D01*
X7724631Y17828559D01*
X7683126Y17870084D01*
X7646606Y17906699D01*
X7614746Y17938745D01*
X7587220Y17966558D01*
X7563701Y17990479D01*
X7543864Y18010847D01*
X7527383Y18028000D01*
X7513931Y18042278D01*
X7503183Y18054020D01*
X7494812Y18063564D01*
X7488493Y18071250D01*
X7483900Y18077416D01*
X7480706Y18082402D01*
X7478759Y18086158D01*
X7470234Y18111722D01*
X7466506Y18138819D01*
X7467883Y18164430D01*
X7469884Y18173410D01*
X7482124Y18203438D01*
X7500026Y18228416D01*
X7522803Y18247781D01*
X7549667Y18260966D01*
X7579830Y18267408D01*
X7601329Y18267680D01*
X7608844Y18267212D01*
G37*
X8938825Y17724752D02*
X8964277Y17717017D01*
X8986708Y17707822D01*
X9107227Y17658378D01*
X9231516Y17615096D01*
X9360158Y17577796D01*
X9493735Y17546296D01*
X9524416Y17540012D01*
X9559099Y17532911D01*
X9587480Y17526599D01*
X9611099Y17520627D01*
X9631493Y17514550D01*
X9650202Y17507921D01*
X9668764Y17500291D01*
X9682602Y17494067D01*
X9735583Y17465328D01*
X9784650Y17430183D01*
X9829234Y17389361D01*
X9868762Y17343590D01*
X9902663Y17293598D01*
X9930366Y17240114D01*
X9951300Y17183867D01*
X9962947Y17136547D01*
X9971071Y17073788D01*
X9971608Y17012159D01*
X9964884Y16952144D01*
X9951225Y16894228D01*
X9930955Y16838899D01*
X9904400Y16786640D01*
X9871884Y16737937D01*
X9833734Y16693276D01*
X9790274Y16653141D01*
X9741829Y16618020D01*
X9688725Y16588396D01*
X9631287Y16564755D01*
X9569840Y16547583D01*
X9568130Y16547214D01*
X9550448Y16544032D01*
X9531206Y16541908D01*
X9508507Y16540711D01*
X9480459Y16540309D01*
X9468911Y16540332D01*
X9447226Y16540709D01*
X9426263Y16541713D01*
X9405020Y16543506D01*
X9382492Y16546249D01*
X9357675Y16550104D01*
X9329565Y16555233D01*
X9297158Y16561796D01*
X9259451Y16569956D01*
X9215438Y16579875D01*
X9197052Y16584093D01*
X9083639Y16612606D01*
X8967460Y16646401D01*
X8850372Y16684812D01*
X8734231Y16727172D01*
X8620894Y16772814D01*
X8512218Y16821073D01*
X8441049Y16855483D01*
X8413522Y16869968D01*
X8392491Y16882762D01*
X8376919Y16894676D01*
X8365767Y16906518D01*
X8357998Y16919098D01*
X8357125Y16920955D01*
X8351150Y16938989D01*
X8351202Y16955813D01*
X8355157Y16970054D01*
X8366011Y16989766D01*
X8384332Y17010013D01*
X8409712Y17030358D01*
X8414498Y17033659D01*
X8487730Y17087733D01*
X8555198Y17146937D01*
X8616660Y17210978D01*
X8671876Y17279564D01*
X8720602Y17352400D01*
X8762597Y17429196D01*
X8788105Y17485746D01*
X8800450Y17516937D01*
X8811670Y17548330D01*
X8822420Y17581951D01*
X8833357Y17619828D01*
X8842213Y17652766D01*
X8847525Y17671009D01*
X8852940Y17684057D01*
X8859779Y17694558D01*
X8867232Y17702979D01*
X8882795Y17716418D01*
X8899182Y17724497D01*
X8917493Y17727260D01*
X8938825Y17724752D01*
G36*
X8938825Y17724752D02*
G01*
X8964277Y17717017D01*
X8986708Y17707822D01*
X9107227Y17658378D01*
X9231516Y17615096D01*
X9360158Y17577796D01*
X9493735Y17546296D01*
X9524416Y17540012D01*
X9559099Y17532911D01*
X9587480Y17526599D01*
X9611099Y17520627D01*
X9631493Y17514550D01*
X9650202Y17507921D01*
X9668764Y17500291D01*
X9682602Y17494067D01*
X9735583Y17465328D01*
X9784650Y17430183D01*
X9829234Y17389361D01*
X9868762Y17343590D01*
X9902663Y17293598D01*
X9930366Y17240114D01*
X9951300Y17183867D01*
X9962947Y17136547D01*
X9971071Y17073788D01*
X9971608Y17012159D01*
X9964884Y16952144D01*
X9951225Y16894228D01*
X9930955Y16838899D01*
X9904400Y16786640D01*
X9871884Y16737937D01*
X9833734Y16693276D01*
X9790274Y16653141D01*
X9741829Y16618020D01*
X9688725Y16588396D01*
X9631287Y16564755D01*
X9569840Y16547583D01*
X9568130Y16547214D01*
X9550448Y16544032D01*
X9531206Y16541908D01*
X9508507Y16540711D01*
X9480459Y16540309D01*
X9468911Y16540332D01*
X9447226Y16540709D01*
X9426263Y16541713D01*
X9405020Y16543506D01*
X9382492Y16546249D01*
X9357675Y16550104D01*
X9329565Y16555233D01*
X9297158Y16561796D01*
X9259451Y16569956D01*
X9215438Y16579875D01*
X9197052Y16584093D01*
X9083639Y16612606D01*
X8967460Y16646401D01*
X8850372Y16684812D01*
X8734231Y16727172D01*
X8620894Y16772814D01*
X8512218Y16821073D01*
X8441049Y16855483D01*
X8413522Y16869968D01*
X8392491Y16882762D01*
X8376919Y16894676D01*
X8365767Y16906518D01*
X8357998Y16919098D01*
X8357125Y16920955D01*
X8351150Y16938989D01*
X8351202Y16955813D01*
X8355157Y16970054D01*
X8366011Y16989766D01*
X8384332Y17010013D01*
X8409712Y17030358D01*
X8414498Y17033659D01*
X8487730Y17087733D01*
X8555198Y17146937D01*
X8616660Y17210978D01*
X8671876Y17279564D01*
X8720602Y17352400D01*
X8762597Y17429196D01*
X8788105Y17485746D01*
X8800450Y17516937D01*
X8811670Y17548330D01*
X8822420Y17581951D01*
X8833357Y17619828D01*
X8842213Y17652766D01*
X8847525Y17671009D01*
X8852940Y17684057D01*
X8859779Y17694558D01*
X8867232Y17702979D01*
X8882795Y17716418D01*
X8899182Y17724497D01*
X8917493Y17727260D01*
X8938825Y17724752D01*
G37*
%TO.C,MH1*%
X-8899840Y17710687D02*
X-8884120Y17703382D01*
X-8870840Y17693431D01*
X-8861575Y17684481D01*
X-8853909Y17674771D01*
X-8847173Y17662915D01*
X-8840697Y17647523D01*
X-8833810Y17627210D01*
X-8825843Y17600587D01*
X-8825587Y17599701D01*
X-8807903Y17542910D01*
X-8788858Y17491179D01*
X-8767331Y17441636D01*
X-8751137Y17408575D01*
X-8708399Y17333441D01*
X-8658875Y17261863D01*
X-8603195Y17194567D01*
X-8541991Y17132282D01*
X-8475894Y17075735D01*
X-8438573Y17047973D01*
X-8409775Y17026040D01*
X-8388024Y17005706D01*
X-8372779Y16986245D01*
X-8363499Y16966928D01*
X-8359640Y16947031D01*
X-8359459Y16941866D01*
X-8361347Y16923315D01*
X-8367680Y16906581D01*
X-8379117Y16890956D01*
X-8396316Y16875731D01*
X-8419938Y16860196D01*
X-8450641Y16843645D01*
X-8450952Y16843488D01*
X-8572541Y16786091D01*
X-8700189Y16732664D01*
X-8832899Y16683545D01*
X-8969675Y16639071D01*
X-9109519Y16599580D01*
X-9251433Y16565408D01*
X-9310073Y16552995D01*
X-9369550Y16542188D01*
X-9422684Y16535275D01*
X-9470026Y16532218D01*
X-9512129Y16532979D01*
X-9545716Y16536849D01*
X-9609151Y16551342D01*
X-9668933Y16572718D01*
X-9724711Y16600739D01*
X-9776137Y16635164D01*
X-9822859Y16675755D01*
X-9864527Y16722272D01*
X-9900792Y16774477D01*
X-9905746Y16782787D01*
X-9932041Y16835502D01*
X-9951751Y16891734D01*
X-9964770Y16950416D01*
X-9970991Y17010479D01*
X-9970307Y17070853D01*
X-9962612Y17130471D01*
X-9947800Y17188265D01*
X-9946538Y17192082D01*
X-9923624Y17248140D01*
X-9893824Y17301090D01*
X-9857809Y17350245D01*
X-9816246Y17394919D01*
X-9769803Y17434426D01*
X-9719150Y17468079D01*
X-9664954Y17495192D01*
X-9642945Y17503866D01*
X-9628656Y17508416D01*
X-9608434Y17513947D01*
X-9584150Y17519994D01*
X-9557674Y17526091D01*
X-9530880Y17531772D01*
X-9530441Y17531860D01*
X-9430712Y17553487D01*
X-9336944Y17577078D01*
X-9247289Y17603194D01*
X-9159894Y17632395D01*
X-9072911Y17665241D01*
X-9025214Y17684793D01*
X-8990706Y17698473D01*
X-8961874Y17707849D01*
X-8937757Y17712974D01*
X-8917399Y17713902D01*
X-8899840Y17710687D01*
G36*
X-8899840Y17710687D02*
G01*
X-8884120Y17703382D01*
X-8870840Y17693431D01*
X-8861575Y17684481D01*
X-8853909Y17674771D01*
X-8847173Y17662915D01*
X-8840697Y17647523D01*
X-8833810Y17627210D01*
X-8825843Y17600587D01*
X-8825587Y17599701D01*
X-8807903Y17542910D01*
X-8788858Y17491179D01*
X-8767331Y17441636D01*
X-8751137Y17408575D01*
X-8708399Y17333441D01*
X-8658875Y17261863D01*
X-8603195Y17194567D01*
X-8541991Y17132282D01*
X-8475894Y17075735D01*
X-8438573Y17047973D01*
X-8409775Y17026040D01*
X-8388024Y17005706D01*
X-8372779Y16986245D01*
X-8363499Y16966928D01*
X-8359640Y16947031D01*
X-8359459Y16941866D01*
X-8361347Y16923315D01*
X-8367680Y16906581D01*
X-8379117Y16890956D01*
X-8396316Y16875731D01*
X-8419938Y16860196D01*
X-8450641Y16843645D01*
X-8450952Y16843488D01*
X-8572541Y16786091D01*
X-8700189Y16732664D01*
X-8832899Y16683545D01*
X-8969675Y16639071D01*
X-9109519Y16599580D01*
X-9251433Y16565408D01*
X-9310073Y16552995D01*
X-9369550Y16542188D01*
X-9422684Y16535275D01*
X-9470026Y16532218D01*
X-9512129Y16532979D01*
X-9545716Y16536849D01*
X-9609151Y16551342D01*
X-9668933Y16572718D01*
X-9724711Y16600739D01*
X-9776137Y16635164D01*
X-9822859Y16675755D01*
X-9864527Y16722272D01*
X-9900792Y16774477D01*
X-9905746Y16782787D01*
X-9932041Y16835502D01*
X-9951751Y16891734D01*
X-9964770Y16950416D01*
X-9970991Y17010479D01*
X-9970307Y17070853D01*
X-9962612Y17130471D01*
X-9947800Y17188265D01*
X-9946538Y17192082D01*
X-9923624Y17248140D01*
X-9893824Y17301090D01*
X-9857809Y17350245D01*
X-9816246Y17394919D01*
X-9769803Y17434426D01*
X-9719150Y17468079D01*
X-9664954Y17495192D01*
X-9642945Y17503866D01*
X-9628656Y17508416D01*
X-9608434Y17513947D01*
X-9584150Y17519994D01*
X-9557674Y17526091D01*
X-9530880Y17531772D01*
X-9530441Y17531860D01*
X-9430712Y17553487D01*
X-9336944Y17577078D01*
X-9247289Y17603194D01*
X-9159894Y17632395D01*
X-9072911Y17665241D01*
X-9025214Y17684793D01*
X-8990706Y17698473D01*
X-8961874Y17707849D01*
X-8937757Y17712974D01*
X-8917399Y17713902D01*
X-8899840Y17710687D01*
G37*
X-6949558Y19960164D02*
X-6891642Y19946505D01*
X-6836313Y19926235D01*
X-6784054Y19899680D01*
X-6735351Y19867164D01*
X-6690690Y19829014D01*
X-6650555Y19785554D01*
X-6615434Y19737109D01*
X-6585810Y19684005D01*
X-6562169Y19626567D01*
X-6544997Y19565120D01*
X-6544628Y19563410D01*
X-6541446Y19545728D01*
X-6539322Y19526486D01*
X-6538125Y19503787D01*
X-6537723Y19475739D01*
X-6537746Y19464191D01*
X-6538123Y19442506D01*
X-6539127Y19421543D01*
X-6540920Y19400300D01*
X-6543663Y19377772D01*
X-6547518Y19352955D01*
X-6552647Y19324845D01*
X-6559210Y19292438D01*
X-6567370Y19254731D01*
X-6577289Y19210718D01*
X-6581507Y19192332D01*
X-6610020Y19078919D01*
X-6643815Y18962740D01*
X-6682226Y18845652D01*
X-6724586Y18729511D01*
X-6770228Y18616174D01*
X-6818487Y18507498D01*
X-6852897Y18436329D01*
X-6867382Y18408802D01*
X-6880176Y18387771D01*
X-6892090Y18372199D01*
X-6903932Y18361047D01*
X-6916512Y18353278D01*
X-6918369Y18352405D01*
X-6936403Y18346430D01*
X-6953227Y18346482D01*
X-6967468Y18350437D01*
X-6987180Y18361291D01*
X-7007427Y18379612D01*
X-7027772Y18404992D01*
X-7031073Y18409778D01*
X-7085147Y18483010D01*
X-7144351Y18550478D01*
X-7208392Y18611940D01*
X-7276978Y18667156D01*
X-7349814Y18715882D01*
X-7426610Y18757877D01*
X-7483160Y18783385D01*
X-7514351Y18795730D01*
X-7545744Y18806950D01*
X-7579365Y18817700D01*
X-7617242Y18828637D01*
X-7650180Y18837493D01*
X-7668423Y18842805D01*
X-7681471Y18848220D01*
X-7691972Y18855059D01*
X-7700393Y18862512D01*
X-7713832Y18878075D01*
X-7721911Y18894462D01*
X-7724674Y18912773D01*
X-7722166Y18934105D01*
X-7714431Y18959557D01*
X-7705236Y18981988D01*
X-7655792Y19102507D01*
X-7612510Y19226796D01*
X-7575210Y19355438D01*
X-7543710Y19489015D01*
X-7537426Y19519696D01*
X-7530325Y19554379D01*
X-7524013Y19582760D01*
X-7518041Y19606379D01*
X-7511964Y19626773D01*
X-7505335Y19645482D01*
X-7497705Y19664044D01*
X-7491481Y19677882D01*
X-7462742Y19730863D01*
X-7427597Y19779930D01*
X-7386775Y19824514D01*
X-7341004Y19864042D01*
X-7291012Y19897943D01*
X-7237528Y19925646D01*
X-7181281Y19946580D01*
X-7133961Y19958227D01*
X-7071202Y19966351D01*
X-7009573Y19966888D01*
X-6949558Y19960164D01*
G36*
X-6949558Y19960164D02*
G01*
X-6891642Y19946505D01*
X-6836313Y19926235D01*
X-6784054Y19899680D01*
X-6735351Y19867164D01*
X-6690690Y19829014D01*
X-6650555Y19785554D01*
X-6615434Y19737109D01*
X-6585810Y19684005D01*
X-6562169Y19626567D01*
X-6544997Y19565120D01*
X-6544628Y19563410D01*
X-6541446Y19545728D01*
X-6539322Y19526486D01*
X-6538125Y19503787D01*
X-6537723Y19475739D01*
X-6537746Y19464191D01*
X-6538123Y19442506D01*
X-6539127Y19421543D01*
X-6540920Y19400300D01*
X-6543663Y19377772D01*
X-6547518Y19352955D01*
X-6552647Y19324845D01*
X-6559210Y19292438D01*
X-6567370Y19254731D01*
X-6577289Y19210718D01*
X-6581507Y19192332D01*
X-6610020Y19078919D01*
X-6643815Y18962740D01*
X-6682226Y18845652D01*
X-6724586Y18729511D01*
X-6770228Y18616174D01*
X-6818487Y18507498D01*
X-6852897Y18436329D01*
X-6867382Y18408802D01*
X-6880176Y18387771D01*
X-6892090Y18372199D01*
X-6903932Y18361047D01*
X-6916512Y18353278D01*
X-6918369Y18352405D01*
X-6936403Y18346430D01*
X-6953227Y18346482D01*
X-6967468Y18350437D01*
X-6987180Y18361291D01*
X-7007427Y18379612D01*
X-7027772Y18404992D01*
X-7031073Y18409778D01*
X-7085147Y18483010D01*
X-7144351Y18550478D01*
X-7208392Y18611940D01*
X-7276978Y18667156D01*
X-7349814Y18715882D01*
X-7426610Y18757877D01*
X-7483160Y18783385D01*
X-7514351Y18795730D01*
X-7545744Y18806950D01*
X-7579365Y18817700D01*
X-7617242Y18828637D01*
X-7650180Y18837493D01*
X-7668423Y18842805D01*
X-7681471Y18848220D01*
X-7691972Y18855059D01*
X-7700393Y18862512D01*
X-7713832Y18878075D01*
X-7721911Y18894462D01*
X-7724674Y18912773D01*
X-7722166Y18934105D01*
X-7714431Y18959557D01*
X-7705236Y18981988D01*
X-7655792Y19102507D01*
X-7612510Y19226796D01*
X-7575210Y19355438D01*
X-7543710Y19489015D01*
X-7537426Y19519696D01*
X-7530325Y19554379D01*
X-7524013Y19582760D01*
X-7518041Y19606379D01*
X-7511964Y19626773D01*
X-7505335Y19645482D01*
X-7497705Y19664044D01*
X-7491481Y19677882D01*
X-7462742Y19730863D01*
X-7427597Y19779930D01*
X-7386775Y19824514D01*
X-7341004Y19864042D01*
X-7291012Y19897943D01*
X-7237528Y19925646D01*
X-7181281Y19946580D01*
X-7133961Y19958227D01*
X-7071202Y19966351D01*
X-7009573Y19966888D01*
X-6949558Y19960164D01*
G37*
X-7493080Y18462211D02*
X-7475996Y18461544D01*
X-7462479Y18460273D01*
X-7451804Y18458343D01*
X-7443241Y18455698D01*
X-7436066Y18452281D01*
X-7429548Y18448039D01*
X-7422962Y18442913D01*
X-7419690Y18440229D01*
X-7408818Y18428719D01*
X-7398500Y18413529D01*
X-7390198Y18397310D01*
X-7385378Y18382710D01*
X-7384731Y18376966D01*
X-7383862Y18371124D01*
X-7381375Y18358361D01*
X-7377445Y18339491D01*
X-7372249Y18315325D01*
X-7365964Y18286675D01*
X-7358765Y18254354D01*
X-7350829Y18219173D01*
X-7343059Y18185110D01*
X-7332429Y18138495D01*
X-7323568Y18098903D01*
X-7316374Y18065643D01*
X-7310745Y18038024D01*
X-7306578Y18015356D01*
X-7303773Y17996948D01*
X-7302227Y17982109D01*
X-7301838Y17970147D01*
X-7302505Y17960373D01*
X-7304125Y17952095D01*
X-7306597Y17944622D01*
X-7307332Y17942808D01*
X-7319147Y17922742D01*
X-7336065Y17904490D01*
X-7354590Y17891432D01*
X-7372955Y17885112D01*
X-7395198Y17882433D01*
X-7418164Y17883396D01*
X-7438699Y17888004D01*
X-7446518Y17891378D01*
X-7462601Y17902392D01*
X-7477976Y17917152D01*
X-7490130Y17933020D01*
X-7494924Y17942204D01*
X-7497256Y17949646D01*
X-7500953Y17963447D01*
X-7505667Y17982220D01*
X-7511051Y18004573D01*
X-7516756Y18029117D01*
X-7517679Y18033173D01*
X-7523140Y18057056D01*
X-7528037Y18078150D01*
X-7532091Y18095287D01*
X-7535027Y18107298D01*
X-7536567Y18113018D01*
X-7536699Y18113325D01*
X-7539388Y18110757D01*
X-7546119Y18102976D01*
X-7556031Y18091012D01*
X-7568266Y18075896D01*
X-7576173Y18065984D01*
X-7675778Y17946849D01*
X-7781374Y17832920D01*
X-7892952Y17724206D01*
X-8010506Y17620713D01*
X-8070383Y17571834D01*
X-8087489Y17557936D01*
X-8101915Y17545680D01*
X-8112713Y17535918D01*
X-8118935Y17529498D01*
X-8119992Y17527348D01*
X-8115406Y17525659D01*
X-8104277Y17522380D01*
X-8087771Y17517830D01*
X-8067049Y17512327D01*
X-8043275Y17506189D01*
X-8033622Y17503741D01*
X-8002672Y17495884D01*
X-7978372Y17489536D01*
X-7959665Y17484310D01*
X-7945494Y17479818D01*
X-7934802Y17475674D01*
X-7926530Y17471491D01*
X-7919621Y17466882D01*
X-7913018Y17461460D01*
X-7909519Y17458340D01*
X-7892287Y17437879D01*
X-7881611Y17414546D01*
X-7877307Y17389654D01*
X-7879187Y17364519D01*
X-7887067Y17340456D01*
X-7900759Y17318779D01*
X-7920078Y17300803D01*
X-7932907Y17293036D01*
X-7944041Y17288005D01*
X-7955193Y17284697D01*
X-7967466Y17283198D01*
X-7981962Y17283597D01*
X-7999784Y17285979D01*
X-8022034Y17290433D01*
X-8049815Y17297045D01*
X-8079262Y17304600D01*
X-8107506Y17311969D01*
X-8141348Y17320769D01*
X-8178698Y17330457D01*
X-8217465Y17340492D01*
X-8255558Y17350331D01*
X-8289340Y17359036D01*
X-8326219Y17368612D01*
X-8356249Y17376696D01*
X-8380296Y17383658D01*
X-8399227Y17389866D01*
X-8413910Y17395691D01*
X-8425212Y17401500D01*
X-8433998Y17407664D01*
X-8441137Y17414551D01*
X-8447495Y17422531D01*
X-8451296Y17427997D01*
X-8455259Y17434075D01*
X-8458568Y17440016D01*
X-8461243Y17446514D01*
X-8463304Y17454259D01*
X-8464770Y17463944D01*
X-8465662Y17476261D01*
X-8465999Y17491901D01*
X-8465802Y17511557D01*
X-8465090Y17535921D01*
X-8463883Y17565684D01*
X-8462202Y17601539D01*
X-8460066Y17644178D01*
X-8458438Y17675936D01*
X-8456329Y17715785D01*
X-8454210Y17753613D01*
X-8452136Y17788603D01*
X-8450160Y17819940D01*
X-8448335Y17846809D01*
X-8446716Y17868394D01*
X-8445356Y17883879D01*
X-8444309Y17892449D01*
X-8444109Y17893391D01*
X-8434152Y17916679D01*
X-8418578Y17935718D01*
X-8398698Y17950141D01*
X-8375820Y17959577D01*
X-8351253Y17963659D01*
X-8326306Y17962017D01*
X-8302289Y17954282D01*
X-8280510Y17940085D01*
X-8280003Y17939642D01*
X-8265619Y17923598D01*
X-8254457Y17904888D01*
X-8253901Y17903630D01*
X-8250688Y17895776D01*
X-8248404Y17888518D01*
X-8246954Y17880438D01*
X-8246238Y17870118D01*
X-8246160Y17856139D01*
X-8246622Y17837082D01*
X-8247526Y17811529D01*
X-8247538Y17811207D01*
X-8248562Y17786056D01*
X-8249707Y17761690D01*
X-8250872Y17740022D01*
X-8251957Y17722968D01*
X-8252641Y17714506D01*
X-8253610Y17704568D01*
X-8253823Y17697577D01*
X-8252510Y17693805D01*
X-8248906Y17693522D01*
X-8242243Y17697001D01*
X-8231754Y17704513D01*
X-8216671Y17716328D01*
X-8196226Y17732718D01*
X-8192372Y17735811D01*
X-8109296Y17805233D01*
X-8027210Y17879264D01*
X-7947314Y17956677D01*
X-7870808Y18036245D01*
X-7798892Y18116741D01*
X-7732764Y18196937D01*
X-7700154Y18239328D01*
X-7688638Y18254698D01*
X-7724208Y18252164D01*
X-7741251Y18251201D01*
X-7763702Y18250292D01*
X-7789031Y18249522D01*
X-7814708Y18248975D01*
X-7823278Y18248852D01*
X-7848460Y18248681D01*
X-7867162Y18248951D01*
X-7880834Y18249777D01*
X-7890926Y18251271D01*
X-7898890Y18253546D01*
X-7902653Y18255068D01*
X-7925453Y18269238D01*
X-7943902Y18288973D01*
X-7956941Y18312655D01*
X-7963511Y18338664D01*
X-7964091Y18348972D01*
X-7960457Y18374695D01*
X-7950304Y18398979D01*
X-7934755Y18420093D01*
X-7914934Y18436308D01*
X-7903621Y18442100D01*
X-7898783Y18443995D01*
X-7893587Y18445636D01*
X-7887365Y18447067D01*
X-7879449Y18448334D01*
X-7869173Y18449480D01*
X-7855868Y18450550D01*
X-7838867Y18451588D01*
X-7817501Y18452639D01*
X-7791105Y18453746D01*
X-7759009Y18454954D01*
X-7720547Y18456307D01*
X-7675051Y18457850D01*
X-7657490Y18458438D01*
X-7611652Y18459954D01*
X-7573019Y18461146D01*
X-7540865Y18461956D01*
X-7514461Y18462330D01*
X-7493080Y18462211D01*
G36*
X-7493080Y18462211D02*
G01*
X-7475996Y18461544D01*
X-7462479Y18460273D01*
X-7451804Y18458343D01*
X-7443241Y18455698D01*
X-7436066Y18452281D01*
X-7429548Y18448039D01*
X-7422962Y18442913D01*
X-7419690Y18440229D01*
X-7408818Y18428719D01*
X-7398500Y18413529D01*
X-7390198Y18397310D01*
X-7385378Y18382710D01*
X-7384731Y18376966D01*
X-7383862Y18371124D01*
X-7381375Y18358361D01*
X-7377445Y18339491D01*
X-7372249Y18315325D01*
X-7365964Y18286675D01*
X-7358765Y18254354D01*
X-7350829Y18219173D01*
X-7343059Y18185110D01*
X-7332429Y18138495D01*
X-7323568Y18098903D01*
X-7316374Y18065643D01*
X-7310745Y18038024D01*
X-7306578Y18015356D01*
X-7303773Y17996948D01*
X-7302227Y17982109D01*
X-7301838Y17970147D01*
X-7302505Y17960373D01*
X-7304125Y17952095D01*
X-7306597Y17944622D01*
X-7307332Y17942808D01*
X-7319147Y17922742D01*
X-7336065Y17904490D01*
X-7354590Y17891432D01*
X-7372955Y17885112D01*
X-7395198Y17882433D01*
X-7418164Y17883396D01*
X-7438699Y17888004D01*
X-7446518Y17891378D01*
X-7462601Y17902392D01*
X-7477976Y17917152D01*
X-7490130Y17933020D01*
X-7494924Y17942204D01*
X-7497256Y17949646D01*
X-7500953Y17963447D01*
X-7505667Y17982220D01*
X-7511051Y18004573D01*
X-7516756Y18029117D01*
X-7517679Y18033173D01*
X-7523140Y18057056D01*
X-7528037Y18078150D01*
X-7532091Y18095287D01*
X-7535027Y18107298D01*
X-7536567Y18113018D01*
X-7536699Y18113325D01*
X-7539388Y18110757D01*
X-7546119Y18102976D01*
X-7556031Y18091012D01*
X-7568266Y18075896D01*
X-7576173Y18065984D01*
X-7675778Y17946849D01*
X-7781374Y17832920D01*
X-7892952Y17724206D01*
X-8010506Y17620713D01*
X-8070383Y17571834D01*
X-8087489Y17557936D01*
X-8101915Y17545680D01*
X-8112713Y17535918D01*
X-8118935Y17529498D01*
X-8119992Y17527348D01*
X-8115406Y17525659D01*
X-8104277Y17522380D01*
X-8087771Y17517830D01*
X-8067049Y17512327D01*
X-8043275Y17506189D01*
X-8033622Y17503741D01*
X-8002672Y17495884D01*
X-7978372Y17489536D01*
X-7959665Y17484310D01*
X-7945494Y17479818D01*
X-7934802Y17475674D01*
X-7926530Y17471491D01*
X-7919621Y17466882D01*
X-7913018Y17461460D01*
X-7909519Y17458340D01*
X-7892287Y17437879D01*
X-7881611Y17414546D01*
X-7877307Y17389654D01*
X-7879187Y17364519D01*
X-7887067Y17340456D01*
X-7900759Y17318779D01*
X-7920078Y17300803D01*
X-7932907Y17293036D01*
X-7944041Y17288005D01*
X-7955193Y17284697D01*
X-7967466Y17283198D01*
X-7981962Y17283597D01*
X-7999784Y17285979D01*
X-8022034Y17290433D01*
X-8049815Y17297045D01*
X-8079262Y17304600D01*
X-8107506Y17311969D01*
X-8141348Y17320769D01*
X-8178698Y17330457D01*
X-8217465Y17340492D01*
X-8255558Y17350331D01*
X-8289340Y17359036D01*
X-8326219Y17368612D01*
X-8356249Y17376696D01*
X-8380296Y17383658D01*
X-8399227Y17389866D01*
X-8413910Y17395691D01*
X-8425212Y17401500D01*
X-8433998Y17407664D01*
X-8441137Y17414551D01*
X-8447495Y17422531D01*
X-8451296Y17427997D01*
X-8455259Y17434075D01*
X-8458568Y17440016D01*
X-8461243Y17446514D01*
X-8463304Y17454259D01*
X-8464770Y17463944D01*
X-8465662Y17476261D01*
X-8465999Y17491901D01*
X-8465802Y17511557D01*
X-8465090Y17535921D01*
X-8463883Y17565684D01*
X-8462202Y17601539D01*
X-8460066Y17644178D01*
X-8458438Y17675936D01*
X-8456329Y17715785D01*
X-8454210Y17753613D01*
X-8452136Y17788603D01*
X-8450160Y17819940D01*
X-8448335Y17846809D01*
X-8446716Y17868394D01*
X-8445356Y17883879D01*
X-8444309Y17892449D01*
X-8444109Y17893391D01*
X-8434152Y17916679D01*
X-8418578Y17935718D01*
X-8398698Y17950141D01*
X-8375820Y17959577D01*
X-8351253Y17963659D01*
X-8326306Y17962017D01*
X-8302289Y17954282D01*
X-8280510Y17940085D01*
X-8280003Y17939642D01*
X-8265619Y17923598D01*
X-8254457Y17904888D01*
X-8253901Y17903630D01*
X-8250688Y17895776D01*
X-8248404Y17888518D01*
X-8246954Y17880438D01*
X-8246238Y17870118D01*
X-8246160Y17856139D01*
X-8246622Y17837082D01*
X-8247526Y17811529D01*
X-8247538Y17811207D01*
X-8248562Y17786056D01*
X-8249707Y17761690D01*
X-8250872Y17740022D01*
X-8251957Y17722968D01*
X-8252641Y17714506D01*
X-8253610Y17704568D01*
X-8253823Y17697577D01*
X-8252510Y17693805D01*
X-8248906Y17693522D01*
X-8242243Y17697001D01*
X-8231754Y17704513D01*
X-8216671Y17716328D01*
X-8196226Y17732718D01*
X-8192372Y17735811D01*
X-8109296Y17805233D01*
X-8027210Y17879264D01*
X-7947314Y17956677D01*
X-7870808Y18036245D01*
X-7798892Y18116741D01*
X-7732764Y18196937D01*
X-7700154Y18239328D01*
X-7688638Y18254698D01*
X-7724208Y18252164D01*
X-7741251Y18251201D01*
X-7763702Y18250292D01*
X-7789031Y18249522D01*
X-7814708Y18248975D01*
X-7823278Y18248852D01*
X-7848460Y18248681D01*
X-7867162Y18248951D01*
X-7880834Y18249777D01*
X-7890926Y18251271D01*
X-7898890Y18253546D01*
X-7902653Y18255068D01*
X-7925453Y18269238D01*
X-7943902Y18288973D01*
X-7956941Y18312655D01*
X-7963511Y18338664D01*
X-7964091Y18348972D01*
X-7960457Y18374695D01*
X-7950304Y18398979D01*
X-7934755Y18420093D01*
X-7914934Y18436308D01*
X-7903621Y18442100D01*
X-7898783Y18443995D01*
X-7893587Y18445636D01*
X-7887365Y18447067D01*
X-7879449Y18448334D01*
X-7869173Y18449480D01*
X-7855868Y18450550D01*
X-7838867Y18451588D01*
X-7817501Y18452639D01*
X-7791105Y18453746D01*
X-7759009Y18454954D01*
X-7720547Y18456307D01*
X-7675051Y18457850D01*
X-7657490Y18458438D01*
X-7611652Y18459954D01*
X-7573019Y18461146D01*
X-7540865Y18461956D01*
X-7514461Y18462330D01*
X-7493080Y18462211D01*
G37*
%TD*%
M02*
