%TF.GenerationSoftware,KiCad,Pcbnew,8.0.8*%
%TF.CreationDate,2025-01-29T17:03:44+00:00*%
%TF.ProjectId,ec30_2x4_l2_mh_0.1,65633330-5f32-4783-945f-6c325f6d685f,v0.1*%
%TF.SameCoordinates,PX8d24d00PY36d6160*%
%TF.FileFunction,Legend,Top*%
%TF.FilePolarity,Positive*%
%FSLAX46Y46*%
G04 Gerber Fmt 4.6, Leading zero omitted, Abs format (unit mm)*
G04 Created by KiCad (PCBNEW 8.0.8) date 2025-01-29 17:03:44*
%MOMM*%
%LPD*%
G01*
G04 APERTURE LIST*
%ADD10C,0.200000*%
%ADD11C,0.000000*%
%ADD12C,0.010000*%
G04 APERTURE END LIST*
D10*
X-7500000Y22250000D02*
X-7500000Y22000000D01*
X-8150000Y14270000D02*
X-8150000Y14970000D01*
X-11500000Y-4066008D02*
G75*
G02*
X-12500008Y-3066008I400J1000408D01*
G01*
X-14000000Y12470001D02*
X-14000000Y7530000D01*
X12500000Y17000000D02*
X12500000Y5500000D01*
X-10000000Y-22500000D02*
G75*
G02*
X-12500000Y-20000000I-800J2499200D01*
G01*
X-7750000Y22500000D02*
G75*
G02*
X-7500000Y22250000I800J-249200D01*
G01*
X-14000000Y-7566007D02*
G75*
G02*
X-13200000Y-6766000I798900J1107D01*
G01*
X12500000Y-5700000D02*
X12500000Y-5000000D01*
X12500000Y17000000D02*
X12500000Y20000000D01*
X10000000Y22500000D02*
X-5250000Y22500000D01*
X-9148000Y4030001D02*
X-11500000Y4030001D01*
X11692885Y-4000000D02*
G75*
G02*
X12500034Y-5000000I-216385J-1000400D01*
G01*
X-13200000Y6730001D02*
G75*
G02*
X-13999999Y7530000I-1100J798899D01*
G01*
X-12500000Y3030001D02*
G75*
G02*
X-11500000Y4030000I1000400J-401D01*
G01*
X-11500000Y15970000D02*
X-9148000Y15970000D01*
X-8150000Y-5766008D02*
X-8150000Y-5066008D01*
X-7750000Y22500000D02*
X-10000000Y22500000D01*
X-12500000Y20000000D02*
G75*
G02*
X-10000000Y22500000I2499200J800D01*
G01*
X-11500000Y15970000D02*
G75*
G02*
X-12500000Y16970000I400J1000400D01*
G01*
X-5500000Y22000000D02*
X-5500000Y22250000D01*
X-14000000Y12470001D02*
G75*
G02*
X-13200000Y13270000I798900J1099D01*
G01*
X-9148000Y15970000D02*
G75*
G02*
X-8150004Y14970000I1000J-997000D01*
G01*
X-8150000Y-5766008D02*
G75*
G02*
X-9148000Y-6765997I-1000400J408D01*
G01*
X-9150000Y-13306007D02*
G75*
G02*
X-8150007Y-14306007I-400J-1000393D01*
G01*
X-8150000Y14270000D02*
G75*
G02*
X-9148000Y13270003I-1000400J400D01*
G01*
X-8148000Y-15006007D02*
X-8150000Y-14306007D01*
X-5500000Y22250000D02*
G75*
G02*
X-5250000Y22500000I249200J800D01*
G01*
X-12500000Y-16969999D02*
X-12500000Y-20000000D01*
X-12500000Y3030001D02*
X-12500000Y-3066008D01*
X-9148000Y-16006007D02*
X-11500000Y-16006007D01*
X-13200000Y6730001D02*
X-9150000Y6730001D01*
X-5500000Y22000000D02*
G75*
G02*
X-7500000Y22000000I-1000000J0D01*
G01*
X10000000Y22500000D02*
G75*
G02*
X12500000Y20000000I800J-2499200D01*
G01*
X-8148000Y5030001D02*
G75*
G02*
X-9148000Y4030000I-1000400J399D01*
G01*
X-14000000Y-7566007D02*
X-14000000Y-12506008D01*
X-12500000Y20000000D02*
X-12500000Y16970000D01*
X-9150000Y6730001D02*
G75*
G02*
X-8149999Y5730001I-400J-1000401D01*
G01*
X12500000Y-20000000D02*
X12500000Y-5500000D01*
X12500000Y5000000D02*
X12500000Y5700000D01*
X-13200000Y-13306007D02*
X-9150000Y-13306007D01*
X-10000000Y-22500000D02*
X10000000Y-22500000D01*
X-9148000Y13270000D02*
X-13200000Y13270000D01*
X10900000Y3000000D02*
G75*
G02*
X11692877Y4000033I1027600J-400D01*
G01*
X-12500000Y-17006007D02*
G75*
G02*
X-11500000Y-16006000I1000400J-393D01*
G01*
X12500000Y-20000000D02*
G75*
G02*
X10000000Y-22500000I-2499200J-800D01*
G01*
X-9148000Y-4066008D02*
G75*
G02*
X-8150012Y-5066008I1000J-996992D01*
G01*
X-8148000Y-15006007D02*
G75*
G02*
X-9148000Y-16006000I-1000400J407D01*
G01*
X-9148000Y-6766008D02*
X-13200000Y-6766008D01*
X10900000Y-3000000D02*
X10900000Y3000000D01*
X11692885Y-4000000D02*
G75*
G02*
X10899957Y-3000000I234615J1000400D01*
G01*
X-8148000Y5030001D02*
X-8150000Y5730001D01*
X-13200000Y-13306007D02*
G75*
G02*
X-14000007Y-12506008I-1100J798907D01*
G01*
X12500000Y5000000D02*
G75*
G02*
X11692894Y3999956I-1023600J400D01*
G01*
X-11500000Y-4066008D02*
X-9148000Y-4066008D01*
D11*
%TO.C,*%
G36*
X-8505004Y-9600562D02*
G01*
X-8401465Y-9651179D01*
X-8319972Y-9732672D01*
X-8269355Y-9836211D01*
X-8254800Y-9936107D01*
X-8254800Y-10135907D01*
X-8269355Y-10235803D01*
X-8319972Y-10339342D01*
X-8401465Y-10420835D01*
X-8505004Y-10471452D01*
X-8604900Y-10486007D01*
X-12954700Y-10486007D01*
X-13054596Y-10471452D01*
X-13158135Y-10420835D01*
X-13239628Y-10339342D01*
X-13290245Y-10235803D01*
X-13304800Y-10135907D01*
X-13304800Y-9936107D01*
X-13290245Y-9836211D01*
X-13239628Y-9732672D01*
X-13158135Y-9651179D01*
X-13054596Y-9600562D01*
X-12954700Y-9586007D01*
X-8604900Y-9586007D01*
X-8505004Y-9600562D01*
G37*
G36*
X-8505004Y-10870562D02*
G01*
X-8401465Y-10921179D01*
X-8319972Y-11002672D01*
X-8269355Y-11106211D01*
X-8254800Y-11206107D01*
X-8254800Y-11405907D01*
X-8269355Y-11505803D01*
X-8319972Y-11609342D01*
X-8401465Y-11690835D01*
X-8505004Y-11741452D01*
X-8604900Y-11756007D01*
X-12954700Y-11756007D01*
X-13054596Y-11741452D01*
X-13158135Y-11690835D01*
X-13239628Y-11609342D01*
X-13290245Y-11505803D01*
X-13304800Y-11405907D01*
X-13304800Y-11206107D01*
X-13290245Y-11106211D01*
X-13239628Y-11002672D01*
X-13158135Y-10921179D01*
X-13054596Y-10870562D01*
X-12954700Y-10856007D01*
X-8604900Y-10856007D01*
X-8505004Y-10870562D01*
G37*
G36*
X-8505004Y-8330562D02*
G01*
X-8401465Y-8381179D01*
X-8319972Y-8462672D01*
X-8269355Y-8566211D01*
X-8254800Y-8666107D01*
X-8254800Y-8865907D01*
X-8269355Y-8965803D01*
X-8319972Y-9069342D01*
X-8401465Y-9150835D01*
X-8505004Y-9201452D01*
X-8604900Y-9216007D01*
X-12454700Y-9216007D01*
X-12554596Y-9201452D01*
X-12658135Y-9150835D01*
X-12739628Y-9069342D01*
X-12790245Y-8965803D01*
X-12804800Y-8865907D01*
X-12804800Y-8666107D01*
X-12790245Y-8566211D01*
X-12739628Y-8462672D01*
X-12658135Y-8381179D01*
X-12554596Y-8330562D01*
X-12454700Y-8316007D01*
X-8604900Y-8316007D01*
X-8505004Y-8330562D01*
G37*
D12*
%TO.C,MH3*%
X-6928506Y-18363138D02*
X-6911772Y-18369471D01*
X-6896147Y-18380908D01*
X-6880922Y-18398107D01*
X-6865387Y-18421729D01*
X-6848836Y-18452432D01*
X-6848679Y-18452743D01*
X-6791282Y-18574332D01*
X-6737855Y-18701980D01*
X-6688736Y-18834690D01*
X-6644262Y-18971466D01*
X-6604771Y-19111310D01*
X-6570599Y-19253224D01*
X-6558186Y-19311864D01*
X-6547379Y-19371341D01*
X-6540466Y-19424475D01*
X-6537409Y-19471817D01*
X-6538170Y-19513920D01*
X-6542040Y-19547507D01*
X-6556533Y-19610942D01*
X-6577909Y-19670724D01*
X-6605930Y-19726502D01*
X-6640355Y-19777928D01*
X-6680946Y-19824650D01*
X-6727463Y-19866318D01*
X-6779668Y-19902583D01*
X-6787978Y-19907537D01*
X-6840693Y-19933832D01*
X-6896925Y-19953542D01*
X-6955607Y-19966561D01*
X-7015670Y-19972782D01*
X-7076044Y-19972098D01*
X-7135662Y-19964403D01*
X-7193456Y-19949591D01*
X-7197273Y-19948329D01*
X-7253331Y-19925415D01*
X-7306281Y-19895615D01*
X-7355436Y-19859600D01*
X-7400110Y-19818037D01*
X-7439617Y-19771594D01*
X-7473270Y-19720941D01*
X-7500383Y-19666745D01*
X-7509057Y-19644736D01*
X-7513607Y-19630447D01*
X-7519138Y-19610225D01*
X-7525185Y-19585941D01*
X-7531282Y-19559465D01*
X-7536963Y-19532671D01*
X-7537051Y-19532232D01*
X-7558678Y-19432503D01*
X-7582269Y-19338735D01*
X-7608385Y-19249080D01*
X-7637586Y-19161685D01*
X-7670432Y-19074702D01*
X-7689984Y-19027005D01*
X-7703664Y-18992497D01*
X-7713040Y-18963665D01*
X-7718165Y-18939548D01*
X-7719093Y-18919190D01*
X-7715878Y-18901631D01*
X-7708573Y-18885911D01*
X-7698622Y-18872631D01*
X-7689672Y-18863366D01*
X-7679962Y-18855700D01*
X-7668106Y-18848964D01*
X-7652714Y-18842488D01*
X-7632401Y-18835601D01*
X-7605778Y-18827634D01*
X-7604892Y-18827378D01*
X-7548101Y-18809694D01*
X-7496370Y-18790649D01*
X-7446827Y-18769122D01*
X-7413766Y-18752928D01*
X-7338632Y-18710190D01*
X-7267054Y-18660666D01*
X-7199758Y-18604986D01*
X-7137473Y-18543782D01*
X-7080926Y-18477685D01*
X-7053164Y-18440364D01*
X-7031231Y-18411566D01*
X-7010897Y-18389815D01*
X-6991436Y-18374570D01*
X-6972119Y-18365290D01*
X-6952222Y-18361431D01*
X-6947057Y-18361250D01*
X-6928506Y-18363138D01*
G36*
X-6928506Y-18363138D02*
G01*
X-6911772Y-18369471D01*
X-6896147Y-18380908D01*
X-6880922Y-18398107D01*
X-6865387Y-18421729D01*
X-6848836Y-18452432D01*
X-6848679Y-18452743D01*
X-6791282Y-18574332D01*
X-6737855Y-18701980D01*
X-6688736Y-18834690D01*
X-6644262Y-18971466D01*
X-6604771Y-19111310D01*
X-6570599Y-19253224D01*
X-6558186Y-19311864D01*
X-6547379Y-19371341D01*
X-6540466Y-19424475D01*
X-6537409Y-19471817D01*
X-6538170Y-19513920D01*
X-6542040Y-19547507D01*
X-6556533Y-19610942D01*
X-6577909Y-19670724D01*
X-6605930Y-19726502D01*
X-6640355Y-19777928D01*
X-6680946Y-19824650D01*
X-6727463Y-19866318D01*
X-6779668Y-19902583D01*
X-6787978Y-19907537D01*
X-6840693Y-19933832D01*
X-6896925Y-19953542D01*
X-6955607Y-19966561D01*
X-7015670Y-19972782D01*
X-7076044Y-19972098D01*
X-7135662Y-19964403D01*
X-7193456Y-19949591D01*
X-7197273Y-19948329D01*
X-7253331Y-19925415D01*
X-7306281Y-19895615D01*
X-7355436Y-19859600D01*
X-7400110Y-19818037D01*
X-7439617Y-19771594D01*
X-7473270Y-19720941D01*
X-7500383Y-19666745D01*
X-7509057Y-19644736D01*
X-7513607Y-19630447D01*
X-7519138Y-19610225D01*
X-7525185Y-19585941D01*
X-7531282Y-19559465D01*
X-7536963Y-19532671D01*
X-7537051Y-19532232D01*
X-7558678Y-19432503D01*
X-7582269Y-19338735D01*
X-7608385Y-19249080D01*
X-7637586Y-19161685D01*
X-7670432Y-19074702D01*
X-7689984Y-19027005D01*
X-7703664Y-18992497D01*
X-7713040Y-18963665D01*
X-7718165Y-18939548D01*
X-7719093Y-18919190D01*
X-7715878Y-18901631D01*
X-7708573Y-18885911D01*
X-7698622Y-18872631D01*
X-7689672Y-18863366D01*
X-7679962Y-18855700D01*
X-7668106Y-18848964D01*
X-7652714Y-18842488D01*
X-7632401Y-18835601D01*
X-7605778Y-18827634D01*
X-7604892Y-18827378D01*
X-7548101Y-18809694D01*
X-7496370Y-18790649D01*
X-7446827Y-18769122D01*
X-7413766Y-18752928D01*
X-7338632Y-18710190D01*
X-7267054Y-18660666D01*
X-7199758Y-18604986D01*
X-7137473Y-18543782D01*
X-7080926Y-18477685D01*
X-7053164Y-18440364D01*
X-7031231Y-18411566D01*
X-7010897Y-18389815D01*
X-6991436Y-18374570D01*
X-6972119Y-18365290D01*
X-6952222Y-18361431D01*
X-6947057Y-18361250D01*
X-6928506Y-18363138D01*
G37*
X-9469382Y-16539537D02*
X-9447697Y-16539914D01*
X-9426734Y-16540918D01*
X-9405491Y-16542711D01*
X-9382963Y-16545454D01*
X-9358146Y-16549309D01*
X-9330036Y-16554438D01*
X-9297629Y-16561001D01*
X-9259922Y-16569161D01*
X-9215909Y-16579080D01*
X-9197523Y-16583298D01*
X-9084110Y-16611811D01*
X-8967931Y-16645606D01*
X-8850843Y-16684017D01*
X-8734702Y-16726377D01*
X-8621365Y-16772019D01*
X-8512689Y-16820278D01*
X-8441520Y-16854688D01*
X-8413993Y-16869173D01*
X-8392962Y-16881967D01*
X-8377390Y-16893881D01*
X-8366238Y-16905723D01*
X-8358469Y-16918303D01*
X-8357596Y-16920160D01*
X-8351621Y-16938194D01*
X-8351673Y-16955018D01*
X-8355628Y-16969259D01*
X-8366482Y-16988971D01*
X-8384803Y-17009218D01*
X-8410183Y-17029563D01*
X-8414969Y-17032864D01*
X-8488201Y-17086938D01*
X-8555669Y-17146142D01*
X-8617131Y-17210183D01*
X-8672347Y-17278769D01*
X-8721073Y-17351605D01*
X-8763068Y-17428401D01*
X-8788576Y-17484951D01*
X-8800921Y-17516142D01*
X-8812141Y-17547535D01*
X-8822891Y-17581156D01*
X-8833828Y-17619033D01*
X-8842684Y-17651971D01*
X-8847996Y-17670214D01*
X-8853411Y-17683262D01*
X-8860250Y-17693763D01*
X-8867703Y-17702184D01*
X-8883266Y-17715623D01*
X-8899653Y-17723702D01*
X-8917964Y-17726465D01*
X-8939296Y-17723957D01*
X-8964748Y-17716222D01*
X-8987179Y-17707027D01*
X-9107698Y-17657583D01*
X-9231987Y-17614301D01*
X-9360629Y-17577001D01*
X-9494206Y-17545501D01*
X-9524887Y-17539217D01*
X-9559570Y-17532116D01*
X-9587951Y-17525804D01*
X-9611570Y-17519832D01*
X-9631964Y-17513755D01*
X-9650673Y-17507126D01*
X-9669235Y-17499496D01*
X-9683073Y-17493272D01*
X-9736054Y-17464533D01*
X-9785121Y-17429388D01*
X-9829705Y-17388566D01*
X-9869233Y-17342795D01*
X-9903134Y-17292803D01*
X-9930837Y-17239319D01*
X-9951771Y-17183072D01*
X-9963418Y-17135752D01*
X-9971542Y-17072993D01*
X-9972079Y-17011364D01*
X-9965355Y-16951349D01*
X-9951696Y-16893433D01*
X-9931426Y-16838104D01*
X-9904871Y-16785845D01*
X-9872355Y-16737142D01*
X-9834205Y-16692481D01*
X-9790745Y-16652346D01*
X-9742300Y-16617225D01*
X-9689196Y-16587601D01*
X-9631758Y-16563960D01*
X-9570311Y-16546788D01*
X-9568601Y-16546419D01*
X-9550919Y-16543237D01*
X-9531677Y-16541113D01*
X-9508978Y-16539916D01*
X-9480930Y-16539514D01*
X-9469382Y-16539537D01*
G36*
X-9469382Y-16539537D02*
G01*
X-9447697Y-16539914D01*
X-9426734Y-16540918D01*
X-9405491Y-16542711D01*
X-9382963Y-16545454D01*
X-9358146Y-16549309D01*
X-9330036Y-16554438D01*
X-9297629Y-16561001D01*
X-9259922Y-16569161D01*
X-9215909Y-16579080D01*
X-9197523Y-16583298D01*
X-9084110Y-16611811D01*
X-8967931Y-16645606D01*
X-8850843Y-16684017D01*
X-8734702Y-16726377D01*
X-8621365Y-16772019D01*
X-8512689Y-16820278D01*
X-8441520Y-16854688D01*
X-8413993Y-16869173D01*
X-8392962Y-16881967D01*
X-8377390Y-16893881D01*
X-8366238Y-16905723D01*
X-8358469Y-16918303D01*
X-8357596Y-16920160D01*
X-8351621Y-16938194D01*
X-8351673Y-16955018D01*
X-8355628Y-16969259D01*
X-8366482Y-16988971D01*
X-8384803Y-17009218D01*
X-8410183Y-17029563D01*
X-8414969Y-17032864D01*
X-8488201Y-17086938D01*
X-8555669Y-17146142D01*
X-8617131Y-17210183D01*
X-8672347Y-17278769D01*
X-8721073Y-17351605D01*
X-8763068Y-17428401D01*
X-8788576Y-17484951D01*
X-8800921Y-17516142D01*
X-8812141Y-17547535D01*
X-8822891Y-17581156D01*
X-8833828Y-17619033D01*
X-8842684Y-17651971D01*
X-8847996Y-17670214D01*
X-8853411Y-17683262D01*
X-8860250Y-17693763D01*
X-8867703Y-17702184D01*
X-8883266Y-17715623D01*
X-8899653Y-17723702D01*
X-8917964Y-17726465D01*
X-8939296Y-17723957D01*
X-8964748Y-17716222D01*
X-8987179Y-17707027D01*
X-9107698Y-17657583D01*
X-9231987Y-17614301D01*
X-9360629Y-17577001D01*
X-9494206Y-17545501D01*
X-9524887Y-17539217D01*
X-9559570Y-17532116D01*
X-9587951Y-17525804D01*
X-9611570Y-17519832D01*
X-9631964Y-17513755D01*
X-9650673Y-17507126D01*
X-9669235Y-17499496D01*
X-9683073Y-17493272D01*
X-9736054Y-17464533D01*
X-9785121Y-17429388D01*
X-9829705Y-17388566D01*
X-9869233Y-17342795D01*
X-9903134Y-17292803D01*
X-9930837Y-17239319D01*
X-9951771Y-17183072D01*
X-9963418Y-17135752D01*
X-9971542Y-17072993D01*
X-9972079Y-17011364D01*
X-9965355Y-16951349D01*
X-9951696Y-16893433D01*
X-9931426Y-16838104D01*
X-9904871Y-16785845D01*
X-9872355Y-16737142D01*
X-9834205Y-16692481D01*
X-9790745Y-16652346D01*
X-9742300Y-16617225D01*
X-9689196Y-16587601D01*
X-9631758Y-16563960D01*
X-9570311Y-16546788D01*
X-9568601Y-16546419D01*
X-9550919Y-16543237D01*
X-9531677Y-16541113D01*
X-9508978Y-16539916D01*
X-9480930Y-16539514D01*
X-9469382Y-16539537D01*
G37*
X-8113706Y-17496944D02*
X-8103689Y-17499701D01*
X-8097802Y-17501893D01*
X-8091812Y-17504868D01*
X-8085087Y-17509183D01*
X-8076996Y-17515397D01*
X-8066906Y-17524068D01*
X-8054186Y-17535754D01*
X-8038203Y-17551014D01*
X-8018325Y-17570404D01*
X-7993921Y-17594483D01*
X-7974157Y-17614080D01*
X-7866011Y-17721433D01*
X-7759845Y-17616232D01*
X-7731277Y-17588145D01*
X-7705522Y-17563269D01*
X-7683075Y-17542058D01*
X-7664428Y-17524971D01*
X-7650076Y-17512464D01*
X-7640513Y-17504993D01*
X-7637804Y-17503347D01*
X-7619653Y-17497707D01*
X-7597647Y-17495447D01*
X-7574938Y-17496528D01*
X-7554679Y-17500911D01*
X-7546147Y-17504489D01*
X-7526917Y-17518143D01*
X-7510139Y-17536514D01*
X-7498889Y-17555827D01*
X-7494821Y-17571697D01*
X-7493195Y-17591689D01*
X-7494004Y-17612373D01*
X-7497238Y-17630321D01*
X-7499093Y-17635689D01*
X-7504005Y-17643205D01*
X-7514648Y-17656014D01*
X-7530930Y-17674015D01*
X-7552756Y-17697108D01*
X-7580035Y-17725192D01*
X-7612673Y-17758167D01*
X-7613064Y-17758559D01*
X-7720887Y-17866673D01*
X-7615058Y-17972974D01*
X-7584116Y-18004238D01*
X-7558609Y-18030431D01*
X-7538195Y-18051925D01*
X-7522533Y-18069093D01*
X-7511280Y-18082307D01*
X-7504096Y-18091939D01*
X-7501173Y-18097031D01*
X-7494104Y-18121344D01*
X-7493008Y-18147931D01*
X-7497820Y-18173913D01*
X-7503224Y-18187437D01*
X-7518879Y-18210652D01*
X-7539503Y-18227874D01*
X-7562126Y-18237933D01*
X-7579823Y-18242314D01*
X-7594838Y-18243348D01*
X-7610844Y-18241009D01*
X-7624185Y-18237471D01*
X-7629927Y-18235599D01*
X-7635561Y-18233123D01*
X-7641713Y-18229495D01*
X-7649007Y-18224164D01*
X-7658067Y-18216580D01*
X-7669517Y-18206195D01*
X-7683982Y-18192456D01*
X-7702086Y-18174816D01*
X-7724453Y-18152724D01*
X-7751707Y-18125630D01*
X-7755874Y-18121480D01*
X-7866007Y-18011789D01*
X-7976140Y-18121480D01*
X-8004116Y-18149305D01*
X-8027118Y-18172053D01*
X-8045771Y-18190273D01*
X-8060700Y-18204516D01*
X-8072528Y-18215330D01*
X-8081879Y-18223266D01*
X-8089379Y-18228875D01*
X-8095651Y-18232705D01*
X-8101320Y-18235306D01*
X-8107010Y-18237229D01*
X-8107829Y-18237471D01*
X-8126610Y-18242124D01*
X-8141901Y-18243383D01*
X-8157373Y-18241278D01*
X-8169888Y-18237933D01*
X-8194545Y-18226692D01*
X-8214425Y-18209602D01*
X-8228856Y-18187607D01*
X-8237166Y-18161652D01*
X-8238982Y-18140798D01*
X-8238748Y-18129644D01*
X-8237797Y-18119682D01*
X-8235633Y-18110230D01*
X-8231761Y-18100607D01*
X-8225687Y-18090132D01*
X-8216914Y-18078124D01*
X-8204948Y-18063903D01*
X-8189294Y-18046786D01*
X-8169456Y-18026095D01*
X-8144940Y-18001146D01*
X-8116956Y-17972974D01*
X-8011127Y-17866673D01*
X-8118789Y-17758559D01*
X-8151189Y-17725807D01*
X-8177947Y-17698278D01*
X-8199233Y-17675790D01*
X-8215216Y-17658158D01*
X-8226067Y-17645200D01*
X-8231953Y-17636730D01*
X-8232760Y-17635077D01*
X-8238627Y-17611156D01*
X-8238409Y-17585114D01*
X-8232552Y-17559340D01*
X-8221501Y-17536224D01*
X-8212046Y-17524073D01*
X-8191856Y-17508280D01*
X-8167562Y-17498230D01*
X-8140924Y-17494320D01*
X-8113706Y-17496944D01*
G36*
X-8113706Y-17496944D02*
G01*
X-8103689Y-17499701D01*
X-8097802Y-17501893D01*
X-8091812Y-17504868D01*
X-8085087Y-17509183D01*
X-8076996Y-17515397D01*
X-8066906Y-17524068D01*
X-8054186Y-17535754D01*
X-8038203Y-17551014D01*
X-8018325Y-17570404D01*
X-7993921Y-17594483D01*
X-7974157Y-17614080D01*
X-7866011Y-17721433D01*
X-7759845Y-17616232D01*
X-7731277Y-17588145D01*
X-7705522Y-17563269D01*
X-7683075Y-17542058D01*
X-7664428Y-17524971D01*
X-7650076Y-17512464D01*
X-7640513Y-17504993D01*
X-7637804Y-17503347D01*
X-7619653Y-17497707D01*
X-7597647Y-17495447D01*
X-7574938Y-17496528D01*
X-7554679Y-17500911D01*
X-7546147Y-17504489D01*
X-7526917Y-17518143D01*
X-7510139Y-17536514D01*
X-7498889Y-17555827D01*
X-7494821Y-17571697D01*
X-7493195Y-17591689D01*
X-7494004Y-17612373D01*
X-7497238Y-17630321D01*
X-7499093Y-17635689D01*
X-7504005Y-17643205D01*
X-7514648Y-17656014D01*
X-7530930Y-17674015D01*
X-7552756Y-17697108D01*
X-7580035Y-17725192D01*
X-7612673Y-17758167D01*
X-7613064Y-17758559D01*
X-7720887Y-17866673D01*
X-7615058Y-17972974D01*
X-7584116Y-18004238D01*
X-7558609Y-18030431D01*
X-7538195Y-18051925D01*
X-7522533Y-18069093D01*
X-7511280Y-18082307D01*
X-7504096Y-18091939D01*
X-7501173Y-18097031D01*
X-7494104Y-18121344D01*
X-7493008Y-18147931D01*
X-7497820Y-18173913D01*
X-7503224Y-18187437D01*
X-7518879Y-18210652D01*
X-7539503Y-18227874D01*
X-7562126Y-18237933D01*
X-7579823Y-18242314D01*
X-7594838Y-18243348D01*
X-7610844Y-18241009D01*
X-7624185Y-18237471D01*
X-7629927Y-18235599D01*
X-7635561Y-18233123D01*
X-7641713Y-18229495D01*
X-7649007Y-18224164D01*
X-7658067Y-18216580D01*
X-7669517Y-18206195D01*
X-7683982Y-18192456D01*
X-7702086Y-18174816D01*
X-7724453Y-18152724D01*
X-7751707Y-18125630D01*
X-7755874Y-18121480D01*
X-7866007Y-18011789D01*
X-7976140Y-18121480D01*
X-8004116Y-18149305D01*
X-8027118Y-18172053D01*
X-8045771Y-18190273D01*
X-8060700Y-18204516D01*
X-8072528Y-18215330D01*
X-8081879Y-18223266D01*
X-8089379Y-18228875D01*
X-8095651Y-18232705D01*
X-8101320Y-18235306D01*
X-8107010Y-18237229D01*
X-8107829Y-18237471D01*
X-8126610Y-18242124D01*
X-8141901Y-18243383D01*
X-8157373Y-18241278D01*
X-8169888Y-18237933D01*
X-8194545Y-18226692D01*
X-8214425Y-18209602D01*
X-8228856Y-18187607D01*
X-8237166Y-18161652D01*
X-8238982Y-18140798D01*
X-8238748Y-18129644D01*
X-8237797Y-18119682D01*
X-8235633Y-18110230D01*
X-8231761Y-18100607D01*
X-8225687Y-18090132D01*
X-8216914Y-18078124D01*
X-8204948Y-18063903D01*
X-8189294Y-18046786D01*
X-8169456Y-18026095D01*
X-8144940Y-18001146D01*
X-8116956Y-17972974D01*
X-8011127Y-17866673D01*
X-8118789Y-17758559D01*
X-8151189Y-17725807D01*
X-8177947Y-17698278D01*
X-8199233Y-17675790D01*
X-8215216Y-17658158D01*
X-8226067Y-17645200D01*
X-8231953Y-17636730D01*
X-8232760Y-17635077D01*
X-8238627Y-17611156D01*
X-8238409Y-17585114D01*
X-8232552Y-17559340D01*
X-8221501Y-17536224D01*
X-8212046Y-17524073D01*
X-8191856Y-17508280D01*
X-8167562Y-17498230D01*
X-8140924Y-17494320D01*
X-8113706Y-17496944D01*
G37*
%TO.C,MH4*%
X9511949Y-16535486D02*
X9545536Y-16539356D01*
X9608971Y-16553849D01*
X9668753Y-16575225D01*
X9724531Y-16603246D01*
X9775957Y-16637671D01*
X9822679Y-16678262D01*
X9864347Y-16724779D01*
X9900612Y-16776984D01*
X9905566Y-16785294D01*
X9931861Y-16838009D01*
X9951571Y-16894241D01*
X9964590Y-16952923D01*
X9970811Y-17012986D01*
X9970127Y-17073360D01*
X9962432Y-17132978D01*
X9947620Y-17190772D01*
X9946358Y-17194589D01*
X9923444Y-17250647D01*
X9893644Y-17303597D01*
X9857629Y-17352752D01*
X9816066Y-17397426D01*
X9769623Y-17436933D01*
X9718970Y-17470586D01*
X9664774Y-17497699D01*
X9642765Y-17506373D01*
X9628476Y-17510923D01*
X9608254Y-17516454D01*
X9583970Y-17522501D01*
X9557494Y-17528598D01*
X9530700Y-17534279D01*
X9530261Y-17534367D01*
X9430532Y-17555994D01*
X9336764Y-17579585D01*
X9247109Y-17605701D01*
X9159714Y-17634902D01*
X9072731Y-17667748D01*
X9025034Y-17687300D01*
X8990526Y-17700980D01*
X8961694Y-17710356D01*
X8937577Y-17715481D01*
X8917219Y-17716409D01*
X8899660Y-17713194D01*
X8883940Y-17705889D01*
X8870660Y-17695938D01*
X8861395Y-17686988D01*
X8853729Y-17677278D01*
X8846993Y-17665422D01*
X8840517Y-17650030D01*
X8833630Y-17629717D01*
X8825663Y-17603094D01*
X8825407Y-17602208D01*
X8807723Y-17545417D01*
X8788678Y-17493686D01*
X8767151Y-17444143D01*
X8750957Y-17411082D01*
X8708219Y-17335948D01*
X8658695Y-17264370D01*
X8603015Y-17197074D01*
X8541811Y-17134789D01*
X8475714Y-17078242D01*
X8438393Y-17050480D01*
X8409595Y-17028547D01*
X8387844Y-17008213D01*
X8372599Y-16988752D01*
X8363319Y-16969435D01*
X8359460Y-16949538D01*
X8359279Y-16944373D01*
X8361167Y-16925822D01*
X8367500Y-16909088D01*
X8378937Y-16893463D01*
X8396136Y-16878238D01*
X8419758Y-16862703D01*
X8450461Y-16846152D01*
X8450772Y-16845995D01*
X8572361Y-16788598D01*
X8700009Y-16735171D01*
X8832719Y-16686052D01*
X8969495Y-16641578D01*
X9109339Y-16602087D01*
X9251253Y-16567915D01*
X9309893Y-16555502D01*
X9369370Y-16544695D01*
X9422504Y-16537782D01*
X9469846Y-16534725D01*
X9511949Y-16535486D01*
G36*
X9511949Y-16535486D02*
G01*
X9545536Y-16539356D01*
X9608971Y-16553849D01*
X9668753Y-16575225D01*
X9724531Y-16603246D01*
X9775957Y-16637671D01*
X9822679Y-16678262D01*
X9864347Y-16724779D01*
X9900612Y-16776984D01*
X9905566Y-16785294D01*
X9931861Y-16838009D01*
X9951571Y-16894241D01*
X9964590Y-16952923D01*
X9970811Y-17012986D01*
X9970127Y-17073360D01*
X9962432Y-17132978D01*
X9947620Y-17190772D01*
X9946358Y-17194589D01*
X9923444Y-17250647D01*
X9893644Y-17303597D01*
X9857629Y-17352752D01*
X9816066Y-17397426D01*
X9769623Y-17436933D01*
X9718970Y-17470586D01*
X9664774Y-17497699D01*
X9642765Y-17506373D01*
X9628476Y-17510923D01*
X9608254Y-17516454D01*
X9583970Y-17522501D01*
X9557494Y-17528598D01*
X9530700Y-17534279D01*
X9530261Y-17534367D01*
X9430532Y-17555994D01*
X9336764Y-17579585D01*
X9247109Y-17605701D01*
X9159714Y-17634902D01*
X9072731Y-17667748D01*
X9025034Y-17687300D01*
X8990526Y-17700980D01*
X8961694Y-17710356D01*
X8937577Y-17715481D01*
X8917219Y-17716409D01*
X8899660Y-17713194D01*
X8883940Y-17705889D01*
X8870660Y-17695938D01*
X8861395Y-17686988D01*
X8853729Y-17677278D01*
X8846993Y-17665422D01*
X8840517Y-17650030D01*
X8833630Y-17629717D01*
X8825663Y-17603094D01*
X8825407Y-17602208D01*
X8807723Y-17545417D01*
X8788678Y-17493686D01*
X8767151Y-17444143D01*
X8750957Y-17411082D01*
X8708219Y-17335948D01*
X8658695Y-17264370D01*
X8603015Y-17197074D01*
X8541811Y-17134789D01*
X8475714Y-17078242D01*
X8438393Y-17050480D01*
X8409595Y-17028547D01*
X8387844Y-17008213D01*
X8372599Y-16988752D01*
X8363319Y-16969435D01*
X8359460Y-16949538D01*
X8359279Y-16944373D01*
X8361167Y-16925822D01*
X8367500Y-16909088D01*
X8378937Y-16893463D01*
X8396136Y-16878238D01*
X8419758Y-16862703D01*
X8450461Y-16846152D01*
X8450772Y-16845995D01*
X8572361Y-16788598D01*
X8700009Y-16735171D01*
X8832719Y-16686052D01*
X8969495Y-16641578D01*
X9109339Y-16602087D01*
X9251253Y-16567915D01*
X9309893Y-16555502D01*
X9369370Y-16544695D01*
X9422504Y-16537782D01*
X9469846Y-16534725D01*
X9511949Y-16535486D01*
G37*
X6953047Y-18348989D02*
X6967288Y-18352944D01*
X6987000Y-18363798D01*
X7007247Y-18382119D01*
X7027592Y-18407499D01*
X7030893Y-18412285D01*
X7084967Y-18485517D01*
X7144171Y-18552985D01*
X7208212Y-18614447D01*
X7276798Y-18669663D01*
X7349634Y-18718389D01*
X7426430Y-18760384D01*
X7482980Y-18785892D01*
X7514171Y-18798237D01*
X7545564Y-18809457D01*
X7579185Y-18820207D01*
X7617062Y-18831144D01*
X7650000Y-18840000D01*
X7668243Y-18845312D01*
X7681291Y-18850727D01*
X7691792Y-18857566D01*
X7700213Y-18865019D01*
X7713652Y-18880582D01*
X7721731Y-18896969D01*
X7724494Y-18915280D01*
X7721986Y-18936612D01*
X7714251Y-18962064D01*
X7705056Y-18984495D01*
X7655612Y-19105014D01*
X7612330Y-19229303D01*
X7575030Y-19357945D01*
X7543530Y-19491522D01*
X7537246Y-19522203D01*
X7530145Y-19556886D01*
X7523833Y-19585267D01*
X7517861Y-19608886D01*
X7511784Y-19629280D01*
X7505155Y-19647989D01*
X7497525Y-19666551D01*
X7491301Y-19680389D01*
X7462562Y-19733370D01*
X7427417Y-19782437D01*
X7386595Y-19827021D01*
X7340824Y-19866549D01*
X7290832Y-19900450D01*
X7237348Y-19928153D01*
X7181101Y-19949087D01*
X7133781Y-19960734D01*
X7071022Y-19968858D01*
X7009393Y-19969395D01*
X6949378Y-19962671D01*
X6891462Y-19949012D01*
X6836133Y-19928742D01*
X6783874Y-19902187D01*
X6735171Y-19869671D01*
X6690510Y-19831521D01*
X6650375Y-19788061D01*
X6615254Y-19739616D01*
X6585630Y-19686512D01*
X6561989Y-19629074D01*
X6544817Y-19567627D01*
X6544448Y-19565917D01*
X6541266Y-19548235D01*
X6539142Y-19528993D01*
X6537945Y-19506294D01*
X6537543Y-19478246D01*
X6537566Y-19466698D01*
X6537943Y-19445013D01*
X6538947Y-19424050D01*
X6540740Y-19402807D01*
X6543483Y-19380279D01*
X6547338Y-19355462D01*
X6552467Y-19327352D01*
X6559030Y-19294945D01*
X6567190Y-19257238D01*
X6577109Y-19213225D01*
X6581327Y-19194839D01*
X6609840Y-19081426D01*
X6643635Y-18965247D01*
X6682046Y-18848159D01*
X6724406Y-18732018D01*
X6770048Y-18618681D01*
X6818307Y-18510005D01*
X6852717Y-18438836D01*
X6867202Y-18411309D01*
X6879996Y-18390278D01*
X6891910Y-18374706D01*
X6903752Y-18363554D01*
X6916332Y-18355785D01*
X6918189Y-18354912D01*
X6936223Y-18348937D01*
X6953047Y-18348989D01*
G36*
X6953047Y-18348989D02*
G01*
X6967288Y-18352944D01*
X6987000Y-18363798D01*
X7007247Y-18382119D01*
X7027592Y-18407499D01*
X7030893Y-18412285D01*
X7084967Y-18485517D01*
X7144171Y-18552985D01*
X7208212Y-18614447D01*
X7276798Y-18669663D01*
X7349634Y-18718389D01*
X7426430Y-18760384D01*
X7482980Y-18785892D01*
X7514171Y-18798237D01*
X7545564Y-18809457D01*
X7579185Y-18820207D01*
X7617062Y-18831144D01*
X7650000Y-18840000D01*
X7668243Y-18845312D01*
X7681291Y-18850727D01*
X7691792Y-18857566D01*
X7700213Y-18865019D01*
X7713652Y-18880582D01*
X7721731Y-18896969D01*
X7724494Y-18915280D01*
X7721986Y-18936612D01*
X7714251Y-18962064D01*
X7705056Y-18984495D01*
X7655612Y-19105014D01*
X7612330Y-19229303D01*
X7575030Y-19357945D01*
X7543530Y-19491522D01*
X7537246Y-19522203D01*
X7530145Y-19556886D01*
X7523833Y-19585267D01*
X7517861Y-19608886D01*
X7511784Y-19629280D01*
X7505155Y-19647989D01*
X7497525Y-19666551D01*
X7491301Y-19680389D01*
X7462562Y-19733370D01*
X7427417Y-19782437D01*
X7386595Y-19827021D01*
X7340824Y-19866549D01*
X7290832Y-19900450D01*
X7237348Y-19928153D01*
X7181101Y-19949087D01*
X7133781Y-19960734D01*
X7071022Y-19968858D01*
X7009393Y-19969395D01*
X6949378Y-19962671D01*
X6891462Y-19949012D01*
X6836133Y-19928742D01*
X6783874Y-19902187D01*
X6735171Y-19869671D01*
X6690510Y-19831521D01*
X6650375Y-19788061D01*
X6615254Y-19739616D01*
X6585630Y-19686512D01*
X6561989Y-19629074D01*
X6544817Y-19567627D01*
X6544448Y-19565917D01*
X6541266Y-19548235D01*
X6539142Y-19528993D01*
X6537945Y-19506294D01*
X6537543Y-19478246D01*
X6537566Y-19466698D01*
X6537943Y-19445013D01*
X6538947Y-19424050D01*
X6540740Y-19402807D01*
X6543483Y-19380279D01*
X6547338Y-19355462D01*
X6552467Y-19327352D01*
X6559030Y-19294945D01*
X6567190Y-19257238D01*
X6577109Y-19213225D01*
X6581327Y-19194839D01*
X6609840Y-19081426D01*
X6643635Y-18965247D01*
X6682046Y-18848159D01*
X6724406Y-18732018D01*
X6770048Y-18618681D01*
X6818307Y-18510005D01*
X6852717Y-18438836D01*
X6867202Y-18411309D01*
X6879996Y-18390278D01*
X6891910Y-18374706D01*
X6903752Y-18363554D01*
X6916332Y-18355785D01*
X6918189Y-18354912D01*
X6936223Y-18348937D01*
X6953047Y-18348989D01*
G37*
X8161664Y-17465670D02*
X8170644Y-17467671D01*
X8200672Y-17479911D01*
X8225650Y-17497813D01*
X8245015Y-17520590D01*
X8258200Y-17547454D01*
X8264642Y-17577617D01*
X8264914Y-17599116D01*
X8264446Y-17606631D01*
X8263847Y-17613498D01*
X8262805Y-17620077D01*
X8261008Y-17626723D01*
X8258142Y-17633794D01*
X8253895Y-17641647D01*
X8247956Y-17650639D01*
X8240011Y-17661128D01*
X8229747Y-17673471D01*
X8216854Y-17688024D01*
X8201017Y-17705145D01*
X8181925Y-17725192D01*
X8159265Y-17748521D01*
X8132725Y-17775489D01*
X8101992Y-17806454D01*
X8066753Y-17841773D01*
X8026697Y-17881804D01*
X7981511Y-17926902D01*
X7955203Y-17953153D01*
X7908642Y-17999606D01*
X7867346Y-18040773D01*
X7830970Y-18076981D01*
X7799168Y-18108561D01*
X7771596Y-18135839D01*
X7747908Y-18159145D01*
X7727758Y-18178806D01*
X7710802Y-18195152D01*
X7696694Y-18208510D01*
X7685088Y-18219209D01*
X7675639Y-18227578D01*
X7668002Y-18233944D01*
X7661832Y-18238637D01*
X7656783Y-18241984D01*
X7652509Y-18244315D01*
X7648667Y-18245956D01*
X7646489Y-18246726D01*
X7614957Y-18253446D01*
X7584047Y-18252841D01*
X7554826Y-18245308D01*
X7528358Y-18231247D01*
X7505710Y-18211056D01*
X7489510Y-18188042D01*
X7483925Y-18177228D01*
X7480461Y-18167716D01*
X7478623Y-18157000D01*
X7477911Y-18142577D01*
X7477817Y-18129229D01*
X7478161Y-18109689D01*
X7479474Y-18095507D01*
X7482180Y-18084125D01*
X7486700Y-18072981D01*
X7487316Y-18071682D01*
X7489981Y-18067252D01*
X7494743Y-18060921D01*
X7501894Y-18052386D01*
X7511722Y-18041348D01*
X7524520Y-18027505D01*
X7540578Y-18010554D01*
X7560186Y-17990196D01*
X7583636Y-17966127D01*
X7611217Y-17938048D01*
X7643222Y-17905656D01*
X7679939Y-17868651D01*
X7721661Y-17826730D01*
X7768677Y-17779592D01*
X7779019Y-17769235D01*
X7825793Y-17722418D01*
X7867318Y-17680913D01*
X7903933Y-17644393D01*
X7935979Y-17612533D01*
X7963792Y-17585007D01*
X7987713Y-17561488D01*
X8008081Y-17541651D01*
X8025234Y-17525170D01*
X8039512Y-17511718D01*
X8051254Y-17500970D01*
X8060798Y-17492599D01*
X8068484Y-17486280D01*
X8074650Y-17481687D01*
X8079636Y-17478493D01*
X8083392Y-17476546D01*
X8108956Y-17468021D01*
X8136053Y-17464293D01*
X8161664Y-17465670D01*
G36*
X8161664Y-17465670D02*
G01*
X8170644Y-17467671D01*
X8200672Y-17479911D01*
X8225650Y-17497813D01*
X8245015Y-17520590D01*
X8258200Y-17547454D01*
X8264642Y-17577617D01*
X8264914Y-17599116D01*
X8264446Y-17606631D01*
X8263847Y-17613498D01*
X8262805Y-17620077D01*
X8261008Y-17626723D01*
X8258142Y-17633794D01*
X8253895Y-17641647D01*
X8247956Y-17650639D01*
X8240011Y-17661128D01*
X8229747Y-17673471D01*
X8216854Y-17688024D01*
X8201017Y-17705145D01*
X8181925Y-17725192D01*
X8159265Y-17748521D01*
X8132725Y-17775489D01*
X8101992Y-17806454D01*
X8066753Y-17841773D01*
X8026697Y-17881804D01*
X7981511Y-17926902D01*
X7955203Y-17953153D01*
X7908642Y-17999606D01*
X7867346Y-18040773D01*
X7830970Y-18076981D01*
X7799168Y-18108561D01*
X7771596Y-18135839D01*
X7747908Y-18159145D01*
X7727758Y-18178806D01*
X7710802Y-18195152D01*
X7696694Y-18208510D01*
X7685088Y-18219209D01*
X7675639Y-18227578D01*
X7668002Y-18233944D01*
X7661832Y-18238637D01*
X7656783Y-18241984D01*
X7652509Y-18244315D01*
X7648667Y-18245956D01*
X7646489Y-18246726D01*
X7614957Y-18253446D01*
X7584047Y-18252841D01*
X7554826Y-18245308D01*
X7528358Y-18231247D01*
X7505710Y-18211056D01*
X7489510Y-18188042D01*
X7483925Y-18177228D01*
X7480461Y-18167716D01*
X7478623Y-18157000D01*
X7477911Y-18142577D01*
X7477817Y-18129229D01*
X7478161Y-18109689D01*
X7479474Y-18095507D01*
X7482180Y-18084125D01*
X7486700Y-18072981D01*
X7487316Y-18071682D01*
X7489981Y-18067252D01*
X7494743Y-18060921D01*
X7501894Y-18052386D01*
X7511722Y-18041348D01*
X7524520Y-18027505D01*
X7540578Y-18010554D01*
X7560186Y-17990196D01*
X7583636Y-17966127D01*
X7611217Y-17938048D01*
X7643222Y-17905656D01*
X7679939Y-17868651D01*
X7721661Y-17826730D01*
X7768677Y-17779592D01*
X7779019Y-17769235D01*
X7825793Y-17722418D01*
X7867318Y-17680913D01*
X7903933Y-17644393D01*
X7935979Y-17612533D01*
X7963792Y-17585007D01*
X7987713Y-17561488D01*
X8008081Y-17541651D01*
X8025234Y-17525170D01*
X8039512Y-17511718D01*
X8051254Y-17500970D01*
X8060798Y-17492599D01*
X8068484Y-17486280D01*
X8074650Y-17481687D01*
X8079636Y-17478493D01*
X8083392Y-17476546D01*
X8108956Y-17468021D01*
X8136053Y-17464293D01*
X8161664Y-17465670D01*
G37*
D11*
%TO.C,*%
G36*
X-8505004Y10435446D02*
G01*
X-8401465Y10384829D01*
X-8319972Y10303336D01*
X-8269355Y10199797D01*
X-8254800Y10099901D01*
X-8254800Y9900101D01*
X-8269355Y9800205D01*
X-8319972Y9696666D01*
X-8401465Y9615173D01*
X-8505004Y9564556D01*
X-8604900Y9550001D01*
X-12954700Y9550001D01*
X-13054596Y9564556D01*
X-13158135Y9615173D01*
X-13239628Y9696666D01*
X-13290245Y9800205D01*
X-13304800Y9900101D01*
X-13304800Y10099901D01*
X-13290245Y10199797D01*
X-13239628Y10303336D01*
X-13158135Y10384829D01*
X-13054596Y10435446D01*
X-12954700Y10450001D01*
X-8604900Y10450001D01*
X-8505004Y10435446D01*
G37*
G36*
X-8505004Y9165446D02*
G01*
X-8401465Y9114829D01*
X-8319972Y9033336D01*
X-8269355Y8929797D01*
X-8254800Y8829901D01*
X-8254800Y8630101D01*
X-8269355Y8530205D01*
X-8319972Y8426666D01*
X-8401465Y8345173D01*
X-8505004Y8294556D01*
X-8604900Y8280001D01*
X-12954700Y8280001D01*
X-13054596Y8294556D01*
X-13158135Y8345173D01*
X-13239628Y8426666D01*
X-13290245Y8530205D01*
X-13304800Y8630101D01*
X-13304800Y8829901D01*
X-13290245Y8929797D01*
X-13239628Y9033336D01*
X-13158135Y9114829D01*
X-13054596Y9165446D01*
X-12954700Y9180001D01*
X-8604900Y9180001D01*
X-8505004Y9165446D01*
G37*
G36*
X-8505004Y11705446D02*
G01*
X-8401465Y11654829D01*
X-8319972Y11573336D01*
X-8269355Y11469797D01*
X-8254800Y11369901D01*
X-8254800Y11170101D01*
X-8269355Y11070205D01*
X-8319972Y10966666D01*
X-8401465Y10885173D01*
X-8505004Y10834556D01*
X-8604900Y10820001D01*
X-12454700Y10820001D01*
X-12554596Y10834556D01*
X-12658135Y10885173D01*
X-12739628Y10966666D01*
X-12790245Y11070205D01*
X-12804800Y11170101D01*
X-12804800Y11369901D01*
X-12790245Y11469797D01*
X-12739628Y11573336D01*
X-12658135Y11654829D01*
X-12554596Y11705446D01*
X-12454700Y11720001D01*
X-8604900Y11720001D01*
X-8505004Y11705446D01*
G37*
D12*
%TO.C,MH2*%
X7075855Y19975607D02*
X7135473Y19967912D01*
X7193267Y19953100D01*
X7197084Y19951838D01*
X7253142Y19928924D01*
X7306092Y19899124D01*
X7355247Y19863109D01*
X7399921Y19821546D01*
X7439428Y19775103D01*
X7473081Y19724450D01*
X7500194Y19670254D01*
X7508868Y19648245D01*
X7513418Y19633956D01*
X7518949Y19613734D01*
X7524996Y19589450D01*
X7531093Y19562974D01*
X7536774Y19536180D01*
X7536862Y19535741D01*
X7558489Y19436012D01*
X7582080Y19342244D01*
X7608196Y19252589D01*
X7637397Y19165194D01*
X7670243Y19078211D01*
X7689795Y19030514D01*
X7703475Y18996006D01*
X7712851Y18967174D01*
X7717976Y18943057D01*
X7718904Y18922699D01*
X7715689Y18905140D01*
X7708384Y18889420D01*
X7698433Y18876140D01*
X7689483Y18866875D01*
X7679773Y18859209D01*
X7667917Y18852473D01*
X7652525Y18845997D01*
X7632212Y18839110D01*
X7605589Y18831143D01*
X7604703Y18830887D01*
X7547912Y18813203D01*
X7496181Y18794158D01*
X7446638Y18772631D01*
X7413577Y18756437D01*
X7338443Y18713699D01*
X7266865Y18664175D01*
X7199569Y18608495D01*
X7137284Y18547291D01*
X7080737Y18481194D01*
X7052975Y18443873D01*
X7031042Y18415075D01*
X7010708Y18393324D01*
X6991247Y18378079D01*
X6971930Y18368799D01*
X6952033Y18364940D01*
X6946868Y18364759D01*
X6928317Y18366647D01*
X6911583Y18372980D01*
X6895958Y18384417D01*
X6880733Y18401616D01*
X6865198Y18425238D01*
X6848647Y18455941D01*
X6848490Y18456252D01*
X6791093Y18577841D01*
X6737666Y18705489D01*
X6688547Y18838199D01*
X6644073Y18974975D01*
X6604582Y19114819D01*
X6570410Y19256733D01*
X6557997Y19315373D01*
X6547190Y19374850D01*
X6540277Y19427984D01*
X6537220Y19475326D01*
X6537981Y19517429D01*
X6541851Y19551016D01*
X6556344Y19614451D01*
X6577720Y19674233D01*
X6605741Y19730011D01*
X6640166Y19781437D01*
X6680757Y19828159D01*
X6727274Y19869827D01*
X6779479Y19906092D01*
X6787789Y19911046D01*
X6840504Y19937341D01*
X6896736Y19957051D01*
X6955418Y19970070D01*
X7015481Y19976291D01*
X7075855Y19975607D01*
G36*
X7075855Y19975607D02*
G01*
X7135473Y19967912D01*
X7193267Y19953100D01*
X7197084Y19951838D01*
X7253142Y19928924D01*
X7306092Y19899124D01*
X7355247Y19863109D01*
X7399921Y19821546D01*
X7439428Y19775103D01*
X7473081Y19724450D01*
X7500194Y19670254D01*
X7508868Y19648245D01*
X7513418Y19633956D01*
X7518949Y19613734D01*
X7524996Y19589450D01*
X7531093Y19562974D01*
X7536774Y19536180D01*
X7536862Y19535741D01*
X7558489Y19436012D01*
X7582080Y19342244D01*
X7608196Y19252589D01*
X7637397Y19165194D01*
X7670243Y19078211D01*
X7689795Y19030514D01*
X7703475Y18996006D01*
X7712851Y18967174D01*
X7717976Y18943057D01*
X7718904Y18922699D01*
X7715689Y18905140D01*
X7708384Y18889420D01*
X7698433Y18876140D01*
X7689483Y18866875D01*
X7679773Y18859209D01*
X7667917Y18852473D01*
X7652525Y18845997D01*
X7632212Y18839110D01*
X7605589Y18831143D01*
X7604703Y18830887D01*
X7547912Y18813203D01*
X7496181Y18794158D01*
X7446638Y18772631D01*
X7413577Y18756437D01*
X7338443Y18713699D01*
X7266865Y18664175D01*
X7199569Y18608495D01*
X7137284Y18547291D01*
X7080737Y18481194D01*
X7052975Y18443873D01*
X7031042Y18415075D01*
X7010708Y18393324D01*
X6991247Y18378079D01*
X6971930Y18368799D01*
X6952033Y18364940D01*
X6946868Y18364759D01*
X6928317Y18366647D01*
X6911583Y18372980D01*
X6895958Y18384417D01*
X6880733Y18401616D01*
X6865198Y18425238D01*
X6848647Y18455941D01*
X6848490Y18456252D01*
X6791093Y18577841D01*
X6737666Y18705489D01*
X6688547Y18838199D01*
X6644073Y18974975D01*
X6604582Y19114819D01*
X6570410Y19256733D01*
X6557997Y19315373D01*
X6547190Y19374850D01*
X6540277Y19427984D01*
X6537220Y19475326D01*
X6537981Y19517429D01*
X6541851Y19551016D01*
X6556344Y19614451D01*
X6577720Y19674233D01*
X6605741Y19730011D01*
X6640166Y19781437D01*
X6680757Y19828159D01*
X6727274Y19869827D01*
X6779479Y19906092D01*
X6787789Y19911046D01*
X6840504Y19937341D01*
X6896736Y19957051D01*
X6955418Y19970070D01*
X7015481Y19976291D01*
X7075855Y19975607D01*
G37*
X7609126Y18269926D02*
X7615993Y18269327D01*
X7622572Y18268285D01*
X7629218Y18266488D01*
X7636289Y18263622D01*
X7644142Y18259375D01*
X7653134Y18253436D01*
X7663623Y18245491D01*
X7675966Y18235227D01*
X7690519Y18222334D01*
X7707640Y18206497D01*
X7727687Y18187405D01*
X7751016Y18164745D01*
X7777984Y18138205D01*
X7808949Y18107472D01*
X7844268Y18072233D01*
X7884299Y18032177D01*
X7929397Y17986991D01*
X7955648Y17960683D01*
X8002101Y17914122D01*
X8043268Y17872826D01*
X8079476Y17836450D01*
X8111056Y17804648D01*
X8138334Y17777076D01*
X8161640Y17753388D01*
X8181301Y17733238D01*
X8197647Y17716282D01*
X8211005Y17702174D01*
X8221704Y17690568D01*
X8230073Y17681119D01*
X8236439Y17673482D01*
X8241132Y17667312D01*
X8244479Y17662263D01*
X8246810Y17657989D01*
X8248451Y17654147D01*
X8249221Y17651969D01*
X8255941Y17620437D01*
X8255336Y17589527D01*
X8247803Y17560306D01*
X8233742Y17533838D01*
X8213551Y17511190D01*
X8190537Y17494990D01*
X8179723Y17489405D01*
X8170211Y17485941D01*
X8159495Y17484103D01*
X8145072Y17483391D01*
X8131724Y17483297D01*
X8112184Y17483641D01*
X8098002Y17484954D01*
X8086620Y17487660D01*
X8075476Y17492180D01*
X8074177Y17492796D01*
X8069747Y17495461D01*
X8063416Y17500223D01*
X8054881Y17507374D01*
X8043843Y17517202D01*
X8030000Y17530000D01*
X8013049Y17546058D01*
X7992691Y17565666D01*
X7968622Y17589116D01*
X7940543Y17616697D01*
X7908151Y17648702D01*
X7871146Y17685419D01*
X7829225Y17727141D01*
X7782087Y17774157D01*
X7771730Y17784499D01*
X7724913Y17831273D01*
X7683408Y17872798D01*
X7646888Y17909413D01*
X7615028Y17941459D01*
X7587502Y17969272D01*
X7563983Y17993193D01*
X7544146Y18013561D01*
X7527665Y18030714D01*
X7514213Y18044992D01*
X7503465Y18056734D01*
X7495094Y18066278D01*
X7488775Y18073964D01*
X7484182Y18080130D01*
X7480988Y18085116D01*
X7479041Y18088872D01*
X7470516Y18114436D01*
X7466788Y18141533D01*
X7468165Y18167144D01*
X7470166Y18176124D01*
X7482406Y18206152D01*
X7500308Y18231130D01*
X7523085Y18250495D01*
X7549949Y18263680D01*
X7580112Y18270122D01*
X7601611Y18270394D01*
X7609126Y18269926D01*
G36*
X7609126Y18269926D02*
G01*
X7615993Y18269327D01*
X7622572Y18268285D01*
X7629218Y18266488D01*
X7636289Y18263622D01*
X7644142Y18259375D01*
X7653134Y18253436D01*
X7663623Y18245491D01*
X7675966Y18235227D01*
X7690519Y18222334D01*
X7707640Y18206497D01*
X7727687Y18187405D01*
X7751016Y18164745D01*
X7777984Y18138205D01*
X7808949Y18107472D01*
X7844268Y18072233D01*
X7884299Y18032177D01*
X7929397Y17986991D01*
X7955648Y17960683D01*
X8002101Y17914122D01*
X8043268Y17872826D01*
X8079476Y17836450D01*
X8111056Y17804648D01*
X8138334Y17777076D01*
X8161640Y17753388D01*
X8181301Y17733238D01*
X8197647Y17716282D01*
X8211005Y17702174D01*
X8221704Y17690568D01*
X8230073Y17681119D01*
X8236439Y17673482D01*
X8241132Y17667312D01*
X8244479Y17662263D01*
X8246810Y17657989D01*
X8248451Y17654147D01*
X8249221Y17651969D01*
X8255941Y17620437D01*
X8255336Y17589527D01*
X8247803Y17560306D01*
X8233742Y17533838D01*
X8213551Y17511190D01*
X8190537Y17494990D01*
X8179723Y17489405D01*
X8170211Y17485941D01*
X8159495Y17484103D01*
X8145072Y17483391D01*
X8131724Y17483297D01*
X8112184Y17483641D01*
X8098002Y17484954D01*
X8086620Y17487660D01*
X8075476Y17492180D01*
X8074177Y17492796D01*
X8069747Y17495461D01*
X8063416Y17500223D01*
X8054881Y17507374D01*
X8043843Y17517202D01*
X8030000Y17530000D01*
X8013049Y17546058D01*
X7992691Y17565666D01*
X7968622Y17589116D01*
X7940543Y17616697D01*
X7908151Y17648702D01*
X7871146Y17685419D01*
X7829225Y17727141D01*
X7782087Y17774157D01*
X7771730Y17784499D01*
X7724913Y17831273D01*
X7683408Y17872798D01*
X7646888Y17909413D01*
X7615028Y17941459D01*
X7587502Y17969272D01*
X7563983Y17993193D01*
X7544146Y18013561D01*
X7527665Y18030714D01*
X7514213Y18044992D01*
X7503465Y18056734D01*
X7495094Y18066278D01*
X7488775Y18073964D01*
X7484182Y18080130D01*
X7480988Y18085116D01*
X7479041Y18088872D01*
X7470516Y18114436D01*
X7466788Y18141533D01*
X7468165Y18167144D01*
X7470166Y18176124D01*
X7482406Y18206152D01*
X7500308Y18231130D01*
X7523085Y18250495D01*
X7549949Y18263680D01*
X7580112Y18270122D01*
X7601611Y18270394D01*
X7609126Y18269926D01*
G37*
X8939107Y17727466D02*
X8964559Y17719731D01*
X8986990Y17710536D01*
X9107509Y17661092D01*
X9231798Y17617810D01*
X9360440Y17580510D01*
X9494017Y17549010D01*
X9524698Y17542726D01*
X9559381Y17535625D01*
X9587762Y17529313D01*
X9611381Y17523341D01*
X9631775Y17517264D01*
X9650484Y17510635D01*
X9669046Y17503005D01*
X9682884Y17496781D01*
X9735865Y17468042D01*
X9784932Y17432897D01*
X9829516Y17392075D01*
X9869044Y17346304D01*
X9902945Y17296312D01*
X9930648Y17242828D01*
X9951582Y17186581D01*
X9963229Y17139261D01*
X9971353Y17076502D01*
X9971890Y17014873D01*
X9965166Y16954858D01*
X9951507Y16896942D01*
X9931237Y16841613D01*
X9904682Y16789354D01*
X9872166Y16740651D01*
X9834016Y16695990D01*
X9790556Y16655855D01*
X9742111Y16620734D01*
X9689007Y16591110D01*
X9631569Y16567469D01*
X9570122Y16550297D01*
X9568412Y16549928D01*
X9550730Y16546746D01*
X9531488Y16544622D01*
X9508789Y16543425D01*
X9480741Y16543023D01*
X9469193Y16543046D01*
X9447508Y16543423D01*
X9426545Y16544427D01*
X9405302Y16546220D01*
X9382774Y16548963D01*
X9357957Y16552818D01*
X9329847Y16557947D01*
X9297440Y16564510D01*
X9259733Y16572670D01*
X9215720Y16582589D01*
X9197334Y16586807D01*
X9083921Y16615320D01*
X8967742Y16649115D01*
X8850654Y16687526D01*
X8734513Y16729886D01*
X8621176Y16775528D01*
X8512500Y16823787D01*
X8441331Y16858197D01*
X8413804Y16872682D01*
X8392773Y16885476D01*
X8377201Y16897390D01*
X8366049Y16909232D01*
X8358280Y16921812D01*
X8357407Y16923669D01*
X8351432Y16941703D01*
X8351484Y16958527D01*
X8355439Y16972768D01*
X8366293Y16992480D01*
X8384614Y17012727D01*
X8409994Y17033072D01*
X8414780Y17036373D01*
X8488012Y17090447D01*
X8555480Y17149651D01*
X8616942Y17213692D01*
X8672158Y17282278D01*
X8720884Y17355114D01*
X8762879Y17431910D01*
X8788387Y17488460D01*
X8800732Y17519651D01*
X8811952Y17551044D01*
X8822702Y17584665D01*
X8833639Y17622542D01*
X8842495Y17655480D01*
X8847807Y17673723D01*
X8853222Y17686771D01*
X8860061Y17697272D01*
X8867514Y17705693D01*
X8883077Y17719132D01*
X8899464Y17727211D01*
X8917775Y17729974D01*
X8939107Y17727466D01*
G36*
X8939107Y17727466D02*
G01*
X8964559Y17719731D01*
X8986990Y17710536D01*
X9107509Y17661092D01*
X9231798Y17617810D01*
X9360440Y17580510D01*
X9494017Y17549010D01*
X9524698Y17542726D01*
X9559381Y17535625D01*
X9587762Y17529313D01*
X9611381Y17523341D01*
X9631775Y17517264D01*
X9650484Y17510635D01*
X9669046Y17503005D01*
X9682884Y17496781D01*
X9735865Y17468042D01*
X9784932Y17432897D01*
X9829516Y17392075D01*
X9869044Y17346304D01*
X9902945Y17296312D01*
X9930648Y17242828D01*
X9951582Y17186581D01*
X9963229Y17139261D01*
X9971353Y17076502D01*
X9971890Y17014873D01*
X9965166Y16954858D01*
X9951507Y16896942D01*
X9931237Y16841613D01*
X9904682Y16789354D01*
X9872166Y16740651D01*
X9834016Y16695990D01*
X9790556Y16655855D01*
X9742111Y16620734D01*
X9689007Y16591110D01*
X9631569Y16567469D01*
X9570122Y16550297D01*
X9568412Y16549928D01*
X9550730Y16546746D01*
X9531488Y16544622D01*
X9508789Y16543425D01*
X9480741Y16543023D01*
X9469193Y16543046D01*
X9447508Y16543423D01*
X9426545Y16544427D01*
X9405302Y16546220D01*
X9382774Y16548963D01*
X9357957Y16552818D01*
X9329847Y16557947D01*
X9297440Y16564510D01*
X9259733Y16572670D01*
X9215720Y16582589D01*
X9197334Y16586807D01*
X9083921Y16615320D01*
X8967742Y16649115D01*
X8850654Y16687526D01*
X8734513Y16729886D01*
X8621176Y16775528D01*
X8512500Y16823787D01*
X8441331Y16858197D01*
X8413804Y16872682D01*
X8392773Y16885476D01*
X8377201Y16897390D01*
X8366049Y16909232D01*
X8358280Y16921812D01*
X8357407Y16923669D01*
X8351432Y16941703D01*
X8351484Y16958527D01*
X8355439Y16972768D01*
X8366293Y16992480D01*
X8384614Y17012727D01*
X8409994Y17033072D01*
X8414780Y17036373D01*
X8488012Y17090447D01*
X8555480Y17149651D01*
X8616942Y17213692D01*
X8672158Y17282278D01*
X8720884Y17355114D01*
X8762879Y17431910D01*
X8788387Y17488460D01*
X8800732Y17519651D01*
X8811952Y17551044D01*
X8822702Y17584665D01*
X8833639Y17622542D01*
X8842495Y17655480D01*
X8847807Y17673723D01*
X8853222Y17686771D01*
X8860061Y17697272D01*
X8867514Y17705693D01*
X8883077Y17719132D01*
X8899464Y17727211D01*
X8917775Y17729974D01*
X8939107Y17727466D01*
G37*
%TO.C,MH1*%
X-8899840Y17710687D02*
X-8884120Y17703382D01*
X-8870840Y17693431D01*
X-8861575Y17684481D01*
X-8853909Y17674771D01*
X-8847173Y17662915D01*
X-8840697Y17647523D01*
X-8833810Y17627210D01*
X-8825843Y17600587D01*
X-8825587Y17599701D01*
X-8807903Y17542910D01*
X-8788858Y17491179D01*
X-8767331Y17441636D01*
X-8751137Y17408575D01*
X-8708399Y17333441D01*
X-8658875Y17261863D01*
X-8603195Y17194567D01*
X-8541991Y17132282D01*
X-8475894Y17075735D01*
X-8438573Y17047973D01*
X-8409775Y17026040D01*
X-8388024Y17005706D01*
X-8372779Y16986245D01*
X-8363499Y16966928D01*
X-8359640Y16947031D01*
X-8359459Y16941866D01*
X-8361347Y16923315D01*
X-8367680Y16906581D01*
X-8379117Y16890956D01*
X-8396316Y16875731D01*
X-8419938Y16860196D01*
X-8450641Y16843645D01*
X-8450952Y16843488D01*
X-8572541Y16786091D01*
X-8700189Y16732664D01*
X-8832899Y16683545D01*
X-8969675Y16639071D01*
X-9109519Y16599580D01*
X-9251433Y16565408D01*
X-9310073Y16552995D01*
X-9369550Y16542188D01*
X-9422684Y16535275D01*
X-9470026Y16532218D01*
X-9512129Y16532979D01*
X-9545716Y16536849D01*
X-9609151Y16551342D01*
X-9668933Y16572718D01*
X-9724711Y16600739D01*
X-9776137Y16635164D01*
X-9822859Y16675755D01*
X-9864527Y16722272D01*
X-9900792Y16774477D01*
X-9905746Y16782787D01*
X-9932041Y16835502D01*
X-9951751Y16891734D01*
X-9964770Y16950416D01*
X-9970991Y17010479D01*
X-9970307Y17070853D01*
X-9962612Y17130471D01*
X-9947800Y17188265D01*
X-9946538Y17192082D01*
X-9923624Y17248140D01*
X-9893824Y17301090D01*
X-9857809Y17350245D01*
X-9816246Y17394919D01*
X-9769803Y17434426D01*
X-9719150Y17468079D01*
X-9664954Y17495192D01*
X-9642945Y17503866D01*
X-9628656Y17508416D01*
X-9608434Y17513947D01*
X-9584150Y17519994D01*
X-9557674Y17526091D01*
X-9530880Y17531772D01*
X-9530441Y17531860D01*
X-9430712Y17553487D01*
X-9336944Y17577078D01*
X-9247289Y17603194D01*
X-9159894Y17632395D01*
X-9072911Y17665241D01*
X-9025214Y17684793D01*
X-8990706Y17698473D01*
X-8961874Y17707849D01*
X-8937757Y17712974D01*
X-8917399Y17713902D01*
X-8899840Y17710687D01*
G36*
X-8899840Y17710687D02*
G01*
X-8884120Y17703382D01*
X-8870840Y17693431D01*
X-8861575Y17684481D01*
X-8853909Y17674771D01*
X-8847173Y17662915D01*
X-8840697Y17647523D01*
X-8833810Y17627210D01*
X-8825843Y17600587D01*
X-8825587Y17599701D01*
X-8807903Y17542910D01*
X-8788858Y17491179D01*
X-8767331Y17441636D01*
X-8751137Y17408575D01*
X-8708399Y17333441D01*
X-8658875Y17261863D01*
X-8603195Y17194567D01*
X-8541991Y17132282D01*
X-8475894Y17075735D01*
X-8438573Y17047973D01*
X-8409775Y17026040D01*
X-8388024Y17005706D01*
X-8372779Y16986245D01*
X-8363499Y16966928D01*
X-8359640Y16947031D01*
X-8359459Y16941866D01*
X-8361347Y16923315D01*
X-8367680Y16906581D01*
X-8379117Y16890956D01*
X-8396316Y16875731D01*
X-8419938Y16860196D01*
X-8450641Y16843645D01*
X-8450952Y16843488D01*
X-8572541Y16786091D01*
X-8700189Y16732664D01*
X-8832899Y16683545D01*
X-8969675Y16639071D01*
X-9109519Y16599580D01*
X-9251433Y16565408D01*
X-9310073Y16552995D01*
X-9369550Y16542188D01*
X-9422684Y16535275D01*
X-9470026Y16532218D01*
X-9512129Y16532979D01*
X-9545716Y16536849D01*
X-9609151Y16551342D01*
X-9668933Y16572718D01*
X-9724711Y16600739D01*
X-9776137Y16635164D01*
X-9822859Y16675755D01*
X-9864527Y16722272D01*
X-9900792Y16774477D01*
X-9905746Y16782787D01*
X-9932041Y16835502D01*
X-9951751Y16891734D01*
X-9964770Y16950416D01*
X-9970991Y17010479D01*
X-9970307Y17070853D01*
X-9962612Y17130471D01*
X-9947800Y17188265D01*
X-9946538Y17192082D01*
X-9923624Y17248140D01*
X-9893824Y17301090D01*
X-9857809Y17350245D01*
X-9816246Y17394919D01*
X-9769803Y17434426D01*
X-9719150Y17468079D01*
X-9664954Y17495192D01*
X-9642945Y17503866D01*
X-9628656Y17508416D01*
X-9608434Y17513947D01*
X-9584150Y17519994D01*
X-9557674Y17526091D01*
X-9530880Y17531772D01*
X-9530441Y17531860D01*
X-9430712Y17553487D01*
X-9336944Y17577078D01*
X-9247289Y17603194D01*
X-9159894Y17632395D01*
X-9072911Y17665241D01*
X-9025214Y17684793D01*
X-8990706Y17698473D01*
X-8961874Y17707849D01*
X-8937757Y17712974D01*
X-8917399Y17713902D01*
X-8899840Y17710687D01*
G37*
X-6949558Y19960164D02*
X-6891642Y19946505D01*
X-6836313Y19926235D01*
X-6784054Y19899680D01*
X-6735351Y19867164D01*
X-6690690Y19829014D01*
X-6650555Y19785554D01*
X-6615434Y19737109D01*
X-6585810Y19684005D01*
X-6562169Y19626567D01*
X-6544997Y19565120D01*
X-6544628Y19563410D01*
X-6541446Y19545728D01*
X-6539322Y19526486D01*
X-6538125Y19503787D01*
X-6537723Y19475739D01*
X-6537746Y19464191D01*
X-6538123Y19442506D01*
X-6539127Y19421543D01*
X-6540920Y19400300D01*
X-6543663Y19377772D01*
X-6547518Y19352955D01*
X-6552647Y19324845D01*
X-6559210Y19292438D01*
X-6567370Y19254731D01*
X-6577289Y19210718D01*
X-6581507Y19192332D01*
X-6610020Y19078919D01*
X-6643815Y18962740D01*
X-6682226Y18845652D01*
X-6724586Y18729511D01*
X-6770228Y18616174D01*
X-6818487Y18507498D01*
X-6852897Y18436329D01*
X-6867382Y18408802D01*
X-6880176Y18387771D01*
X-6892090Y18372199D01*
X-6903932Y18361047D01*
X-6916512Y18353278D01*
X-6918369Y18352405D01*
X-6936403Y18346430D01*
X-6953227Y18346482D01*
X-6967468Y18350437D01*
X-6987180Y18361291D01*
X-7007427Y18379612D01*
X-7027772Y18404992D01*
X-7031073Y18409778D01*
X-7085147Y18483010D01*
X-7144351Y18550478D01*
X-7208392Y18611940D01*
X-7276978Y18667156D01*
X-7349814Y18715882D01*
X-7426610Y18757877D01*
X-7483160Y18783385D01*
X-7514351Y18795730D01*
X-7545744Y18806950D01*
X-7579365Y18817700D01*
X-7617242Y18828637D01*
X-7650180Y18837493D01*
X-7668423Y18842805D01*
X-7681471Y18848220D01*
X-7691972Y18855059D01*
X-7700393Y18862512D01*
X-7713832Y18878075D01*
X-7721911Y18894462D01*
X-7724674Y18912773D01*
X-7722166Y18934105D01*
X-7714431Y18959557D01*
X-7705236Y18981988D01*
X-7655792Y19102507D01*
X-7612510Y19226796D01*
X-7575210Y19355438D01*
X-7543710Y19489015D01*
X-7537426Y19519696D01*
X-7530325Y19554379D01*
X-7524013Y19582760D01*
X-7518041Y19606379D01*
X-7511964Y19626773D01*
X-7505335Y19645482D01*
X-7497705Y19664044D01*
X-7491481Y19677882D01*
X-7462742Y19730863D01*
X-7427597Y19779930D01*
X-7386775Y19824514D01*
X-7341004Y19864042D01*
X-7291012Y19897943D01*
X-7237528Y19925646D01*
X-7181281Y19946580D01*
X-7133961Y19958227D01*
X-7071202Y19966351D01*
X-7009573Y19966888D01*
X-6949558Y19960164D01*
G36*
X-6949558Y19960164D02*
G01*
X-6891642Y19946505D01*
X-6836313Y19926235D01*
X-6784054Y19899680D01*
X-6735351Y19867164D01*
X-6690690Y19829014D01*
X-6650555Y19785554D01*
X-6615434Y19737109D01*
X-6585810Y19684005D01*
X-6562169Y19626567D01*
X-6544997Y19565120D01*
X-6544628Y19563410D01*
X-6541446Y19545728D01*
X-6539322Y19526486D01*
X-6538125Y19503787D01*
X-6537723Y19475739D01*
X-6537746Y19464191D01*
X-6538123Y19442506D01*
X-6539127Y19421543D01*
X-6540920Y19400300D01*
X-6543663Y19377772D01*
X-6547518Y19352955D01*
X-6552647Y19324845D01*
X-6559210Y19292438D01*
X-6567370Y19254731D01*
X-6577289Y19210718D01*
X-6581507Y19192332D01*
X-6610020Y19078919D01*
X-6643815Y18962740D01*
X-6682226Y18845652D01*
X-6724586Y18729511D01*
X-6770228Y18616174D01*
X-6818487Y18507498D01*
X-6852897Y18436329D01*
X-6867382Y18408802D01*
X-6880176Y18387771D01*
X-6892090Y18372199D01*
X-6903932Y18361047D01*
X-6916512Y18353278D01*
X-6918369Y18352405D01*
X-6936403Y18346430D01*
X-6953227Y18346482D01*
X-6967468Y18350437D01*
X-6987180Y18361291D01*
X-7007427Y18379612D01*
X-7027772Y18404992D01*
X-7031073Y18409778D01*
X-7085147Y18483010D01*
X-7144351Y18550478D01*
X-7208392Y18611940D01*
X-7276978Y18667156D01*
X-7349814Y18715882D01*
X-7426610Y18757877D01*
X-7483160Y18783385D01*
X-7514351Y18795730D01*
X-7545744Y18806950D01*
X-7579365Y18817700D01*
X-7617242Y18828637D01*
X-7650180Y18837493D01*
X-7668423Y18842805D01*
X-7681471Y18848220D01*
X-7691972Y18855059D01*
X-7700393Y18862512D01*
X-7713832Y18878075D01*
X-7721911Y18894462D01*
X-7724674Y18912773D01*
X-7722166Y18934105D01*
X-7714431Y18959557D01*
X-7705236Y18981988D01*
X-7655792Y19102507D01*
X-7612510Y19226796D01*
X-7575210Y19355438D01*
X-7543710Y19489015D01*
X-7537426Y19519696D01*
X-7530325Y19554379D01*
X-7524013Y19582760D01*
X-7518041Y19606379D01*
X-7511964Y19626773D01*
X-7505335Y19645482D01*
X-7497705Y19664044D01*
X-7491481Y19677882D01*
X-7462742Y19730863D01*
X-7427597Y19779930D01*
X-7386775Y19824514D01*
X-7341004Y19864042D01*
X-7291012Y19897943D01*
X-7237528Y19925646D01*
X-7181281Y19946580D01*
X-7133961Y19958227D01*
X-7071202Y19966351D01*
X-7009573Y19966888D01*
X-6949558Y19960164D01*
G37*
X-7493080Y18462211D02*
X-7475996Y18461544D01*
X-7462479Y18460273D01*
X-7451804Y18458343D01*
X-7443241Y18455698D01*
X-7436066Y18452281D01*
X-7429548Y18448039D01*
X-7422962Y18442913D01*
X-7419690Y18440229D01*
X-7408818Y18428719D01*
X-7398500Y18413529D01*
X-7390198Y18397310D01*
X-7385378Y18382710D01*
X-7384731Y18376966D01*
X-7383862Y18371124D01*
X-7381375Y18358361D01*
X-7377445Y18339491D01*
X-7372249Y18315325D01*
X-7365964Y18286675D01*
X-7358765Y18254354D01*
X-7350829Y18219173D01*
X-7343059Y18185110D01*
X-7332429Y18138495D01*
X-7323568Y18098903D01*
X-7316374Y18065643D01*
X-7310745Y18038024D01*
X-7306578Y18015356D01*
X-7303773Y17996948D01*
X-7302227Y17982109D01*
X-7301838Y17970147D01*
X-7302505Y17960373D01*
X-7304125Y17952095D01*
X-7306597Y17944622D01*
X-7307332Y17942808D01*
X-7319147Y17922742D01*
X-7336065Y17904490D01*
X-7354590Y17891432D01*
X-7372955Y17885112D01*
X-7395198Y17882433D01*
X-7418164Y17883396D01*
X-7438699Y17888004D01*
X-7446518Y17891378D01*
X-7462601Y17902392D01*
X-7477976Y17917152D01*
X-7490130Y17933020D01*
X-7494924Y17942204D01*
X-7497256Y17949646D01*
X-7500953Y17963447D01*
X-7505667Y17982220D01*
X-7511051Y18004573D01*
X-7516756Y18029117D01*
X-7517679Y18033173D01*
X-7523140Y18057056D01*
X-7528037Y18078150D01*
X-7532091Y18095287D01*
X-7535027Y18107298D01*
X-7536567Y18113018D01*
X-7536699Y18113325D01*
X-7539388Y18110757D01*
X-7546119Y18102976D01*
X-7556031Y18091012D01*
X-7568266Y18075896D01*
X-7576173Y18065984D01*
X-7675778Y17946849D01*
X-7781374Y17832920D01*
X-7892952Y17724206D01*
X-8010506Y17620713D01*
X-8070383Y17571834D01*
X-8087489Y17557936D01*
X-8101915Y17545680D01*
X-8112713Y17535918D01*
X-8118935Y17529498D01*
X-8119992Y17527348D01*
X-8115406Y17525659D01*
X-8104277Y17522380D01*
X-8087771Y17517830D01*
X-8067049Y17512327D01*
X-8043275Y17506189D01*
X-8033622Y17503741D01*
X-8002672Y17495884D01*
X-7978372Y17489536D01*
X-7959665Y17484310D01*
X-7945494Y17479818D01*
X-7934802Y17475674D01*
X-7926530Y17471491D01*
X-7919621Y17466882D01*
X-7913018Y17461460D01*
X-7909519Y17458340D01*
X-7892287Y17437879D01*
X-7881611Y17414546D01*
X-7877307Y17389654D01*
X-7879187Y17364519D01*
X-7887067Y17340456D01*
X-7900759Y17318779D01*
X-7920078Y17300803D01*
X-7932907Y17293036D01*
X-7944041Y17288005D01*
X-7955193Y17284697D01*
X-7967466Y17283198D01*
X-7981962Y17283597D01*
X-7999784Y17285979D01*
X-8022034Y17290433D01*
X-8049815Y17297045D01*
X-8079262Y17304600D01*
X-8107506Y17311969D01*
X-8141348Y17320769D01*
X-8178698Y17330457D01*
X-8217465Y17340492D01*
X-8255558Y17350331D01*
X-8289340Y17359036D01*
X-8326219Y17368612D01*
X-8356249Y17376696D01*
X-8380296Y17383658D01*
X-8399227Y17389866D01*
X-8413910Y17395691D01*
X-8425212Y17401500D01*
X-8433998Y17407664D01*
X-8441137Y17414551D01*
X-8447495Y17422531D01*
X-8451296Y17427997D01*
X-8455259Y17434075D01*
X-8458568Y17440016D01*
X-8461243Y17446514D01*
X-8463304Y17454259D01*
X-8464770Y17463944D01*
X-8465662Y17476261D01*
X-8465999Y17491901D01*
X-8465802Y17511557D01*
X-8465090Y17535921D01*
X-8463883Y17565684D01*
X-8462202Y17601539D01*
X-8460066Y17644178D01*
X-8458438Y17675936D01*
X-8456329Y17715785D01*
X-8454210Y17753613D01*
X-8452136Y17788603D01*
X-8450160Y17819940D01*
X-8448335Y17846809D01*
X-8446716Y17868394D01*
X-8445356Y17883879D01*
X-8444309Y17892449D01*
X-8444109Y17893391D01*
X-8434152Y17916679D01*
X-8418578Y17935718D01*
X-8398698Y17950141D01*
X-8375820Y17959577D01*
X-8351253Y17963659D01*
X-8326306Y17962017D01*
X-8302289Y17954282D01*
X-8280510Y17940085D01*
X-8280003Y17939642D01*
X-8265619Y17923598D01*
X-8254457Y17904888D01*
X-8253901Y17903630D01*
X-8250688Y17895776D01*
X-8248404Y17888518D01*
X-8246954Y17880438D01*
X-8246238Y17870118D01*
X-8246160Y17856139D01*
X-8246622Y17837082D01*
X-8247526Y17811529D01*
X-8247538Y17811207D01*
X-8248562Y17786056D01*
X-8249707Y17761690D01*
X-8250872Y17740022D01*
X-8251957Y17722968D01*
X-8252641Y17714506D01*
X-8253610Y17704568D01*
X-8253823Y17697577D01*
X-8252510Y17693805D01*
X-8248906Y17693522D01*
X-8242243Y17697001D01*
X-8231754Y17704513D01*
X-8216671Y17716328D01*
X-8196226Y17732718D01*
X-8192372Y17735811D01*
X-8109296Y17805233D01*
X-8027210Y17879264D01*
X-7947314Y17956677D01*
X-7870808Y18036245D01*
X-7798892Y18116741D01*
X-7732764Y18196937D01*
X-7700154Y18239328D01*
X-7688638Y18254698D01*
X-7724208Y18252164D01*
X-7741251Y18251201D01*
X-7763702Y18250292D01*
X-7789031Y18249522D01*
X-7814708Y18248975D01*
X-7823278Y18248852D01*
X-7848460Y18248681D01*
X-7867162Y18248951D01*
X-7880834Y18249777D01*
X-7890926Y18251271D01*
X-7898890Y18253546D01*
X-7902653Y18255068D01*
X-7925453Y18269238D01*
X-7943902Y18288973D01*
X-7956941Y18312655D01*
X-7963511Y18338664D01*
X-7964091Y18348972D01*
X-7960457Y18374695D01*
X-7950304Y18398979D01*
X-7934755Y18420093D01*
X-7914934Y18436308D01*
X-7903621Y18442100D01*
X-7898783Y18443995D01*
X-7893587Y18445636D01*
X-7887365Y18447067D01*
X-7879449Y18448334D01*
X-7869173Y18449480D01*
X-7855868Y18450550D01*
X-7838867Y18451588D01*
X-7817501Y18452639D01*
X-7791105Y18453746D01*
X-7759009Y18454954D01*
X-7720547Y18456307D01*
X-7675051Y18457850D01*
X-7657490Y18458438D01*
X-7611652Y18459954D01*
X-7573019Y18461146D01*
X-7540865Y18461956D01*
X-7514461Y18462330D01*
X-7493080Y18462211D01*
G36*
X-7493080Y18462211D02*
G01*
X-7475996Y18461544D01*
X-7462479Y18460273D01*
X-7451804Y18458343D01*
X-7443241Y18455698D01*
X-7436066Y18452281D01*
X-7429548Y18448039D01*
X-7422962Y18442913D01*
X-7419690Y18440229D01*
X-7408818Y18428719D01*
X-7398500Y18413529D01*
X-7390198Y18397310D01*
X-7385378Y18382710D01*
X-7384731Y18376966D01*
X-7383862Y18371124D01*
X-7381375Y18358361D01*
X-7377445Y18339491D01*
X-7372249Y18315325D01*
X-7365964Y18286675D01*
X-7358765Y18254354D01*
X-7350829Y18219173D01*
X-7343059Y18185110D01*
X-7332429Y18138495D01*
X-7323568Y18098903D01*
X-7316374Y18065643D01*
X-7310745Y18038024D01*
X-7306578Y18015356D01*
X-7303773Y17996948D01*
X-7302227Y17982109D01*
X-7301838Y17970147D01*
X-7302505Y17960373D01*
X-7304125Y17952095D01*
X-7306597Y17944622D01*
X-7307332Y17942808D01*
X-7319147Y17922742D01*
X-7336065Y17904490D01*
X-7354590Y17891432D01*
X-7372955Y17885112D01*
X-7395198Y17882433D01*
X-7418164Y17883396D01*
X-7438699Y17888004D01*
X-7446518Y17891378D01*
X-7462601Y17902392D01*
X-7477976Y17917152D01*
X-7490130Y17933020D01*
X-7494924Y17942204D01*
X-7497256Y17949646D01*
X-7500953Y17963447D01*
X-7505667Y17982220D01*
X-7511051Y18004573D01*
X-7516756Y18029117D01*
X-7517679Y18033173D01*
X-7523140Y18057056D01*
X-7528037Y18078150D01*
X-7532091Y18095287D01*
X-7535027Y18107298D01*
X-7536567Y18113018D01*
X-7536699Y18113325D01*
X-7539388Y18110757D01*
X-7546119Y18102976D01*
X-7556031Y18091012D01*
X-7568266Y18075896D01*
X-7576173Y18065984D01*
X-7675778Y17946849D01*
X-7781374Y17832920D01*
X-7892952Y17724206D01*
X-8010506Y17620713D01*
X-8070383Y17571834D01*
X-8087489Y17557936D01*
X-8101915Y17545680D01*
X-8112713Y17535918D01*
X-8118935Y17529498D01*
X-8119992Y17527348D01*
X-8115406Y17525659D01*
X-8104277Y17522380D01*
X-8087771Y17517830D01*
X-8067049Y17512327D01*
X-8043275Y17506189D01*
X-8033622Y17503741D01*
X-8002672Y17495884D01*
X-7978372Y17489536D01*
X-7959665Y17484310D01*
X-7945494Y17479818D01*
X-7934802Y17475674D01*
X-7926530Y17471491D01*
X-7919621Y17466882D01*
X-7913018Y17461460D01*
X-7909519Y17458340D01*
X-7892287Y17437879D01*
X-7881611Y17414546D01*
X-7877307Y17389654D01*
X-7879187Y17364519D01*
X-7887067Y17340456D01*
X-7900759Y17318779D01*
X-7920078Y17300803D01*
X-7932907Y17293036D01*
X-7944041Y17288005D01*
X-7955193Y17284697D01*
X-7967466Y17283198D01*
X-7981962Y17283597D01*
X-7999784Y17285979D01*
X-8022034Y17290433D01*
X-8049815Y17297045D01*
X-8079262Y17304600D01*
X-8107506Y17311969D01*
X-8141348Y17320769D01*
X-8178698Y17330457D01*
X-8217465Y17340492D01*
X-8255558Y17350331D01*
X-8289340Y17359036D01*
X-8326219Y17368612D01*
X-8356249Y17376696D01*
X-8380296Y17383658D01*
X-8399227Y17389866D01*
X-8413910Y17395691D01*
X-8425212Y17401500D01*
X-8433998Y17407664D01*
X-8441137Y17414551D01*
X-8447495Y17422531D01*
X-8451296Y17427997D01*
X-8455259Y17434075D01*
X-8458568Y17440016D01*
X-8461243Y17446514D01*
X-8463304Y17454259D01*
X-8464770Y17463944D01*
X-8465662Y17476261D01*
X-8465999Y17491901D01*
X-8465802Y17511557D01*
X-8465090Y17535921D01*
X-8463883Y17565684D01*
X-8462202Y17601539D01*
X-8460066Y17644178D01*
X-8458438Y17675936D01*
X-8456329Y17715785D01*
X-8454210Y17753613D01*
X-8452136Y17788603D01*
X-8450160Y17819940D01*
X-8448335Y17846809D01*
X-8446716Y17868394D01*
X-8445356Y17883879D01*
X-8444309Y17892449D01*
X-8444109Y17893391D01*
X-8434152Y17916679D01*
X-8418578Y17935718D01*
X-8398698Y17950141D01*
X-8375820Y17959577D01*
X-8351253Y17963659D01*
X-8326306Y17962017D01*
X-8302289Y17954282D01*
X-8280510Y17940085D01*
X-8280003Y17939642D01*
X-8265619Y17923598D01*
X-8254457Y17904888D01*
X-8253901Y17903630D01*
X-8250688Y17895776D01*
X-8248404Y17888518D01*
X-8246954Y17880438D01*
X-8246238Y17870118D01*
X-8246160Y17856139D01*
X-8246622Y17837082D01*
X-8247526Y17811529D01*
X-8247538Y17811207D01*
X-8248562Y17786056D01*
X-8249707Y17761690D01*
X-8250872Y17740022D01*
X-8251957Y17722968D01*
X-8252641Y17714506D01*
X-8253610Y17704568D01*
X-8253823Y17697577D01*
X-8252510Y17693805D01*
X-8248906Y17693522D01*
X-8242243Y17697001D01*
X-8231754Y17704513D01*
X-8216671Y17716328D01*
X-8196226Y17732718D01*
X-8192372Y17735811D01*
X-8109296Y17805233D01*
X-8027210Y17879264D01*
X-7947314Y17956677D01*
X-7870808Y18036245D01*
X-7798892Y18116741D01*
X-7732764Y18196937D01*
X-7700154Y18239328D01*
X-7688638Y18254698D01*
X-7724208Y18252164D01*
X-7741251Y18251201D01*
X-7763702Y18250292D01*
X-7789031Y18249522D01*
X-7814708Y18248975D01*
X-7823278Y18248852D01*
X-7848460Y18248681D01*
X-7867162Y18248951D01*
X-7880834Y18249777D01*
X-7890926Y18251271D01*
X-7898890Y18253546D01*
X-7902653Y18255068D01*
X-7925453Y18269238D01*
X-7943902Y18288973D01*
X-7956941Y18312655D01*
X-7963511Y18338664D01*
X-7964091Y18348972D01*
X-7960457Y18374695D01*
X-7950304Y18398979D01*
X-7934755Y18420093D01*
X-7914934Y18436308D01*
X-7903621Y18442100D01*
X-7898783Y18443995D01*
X-7893587Y18445636D01*
X-7887365Y18447067D01*
X-7879449Y18448334D01*
X-7869173Y18449480D01*
X-7855868Y18450550D01*
X-7838867Y18451588D01*
X-7817501Y18452639D01*
X-7791105Y18453746D01*
X-7759009Y18454954D01*
X-7720547Y18456307D01*
X-7675051Y18457850D01*
X-7657490Y18458438D01*
X-7611652Y18459954D01*
X-7573019Y18461146D01*
X-7540865Y18461956D01*
X-7514461Y18462330D01*
X-7493080Y18462211D01*
G37*
%TD*%
M02*
