%TF.GenerationSoftware,KiCad,Pcbnew,9.0.5*%
%TF.CreationDate,2025-10-03T12:11:04+01:00*%
%TF.ProjectId,mm_light_sensor,6d6d5f6c-6967-4687-945f-73656e736f72,v0.4*%
%TF.SameCoordinates,PX8d24d00PY36d6160*%
%TF.FileFunction,Legend,Top*%
%TF.FilePolarity,Positive*%
%FSLAX45Y45*%
G04 Gerber Fmt 4.5, Leading zero omitted, Abs format (unit mm)*
G04 Created by KiCad (PCBNEW 9.0.5) date 2025-10-03 12:11:04*
%MOMM*%
%LPD*%
G01*
G04 APERTURE LIST*
%ADD10C,0.200000*%
%ADD11C,0.010000*%
G04 APERTURE END LIST*
D10*
X-750000Y1225000D02*
X-750000Y1200000D01*
X-815000Y427000D02*
X-815000Y497000D01*
X-1400000Y247000D02*
X-1400000Y-247000D01*
X909800Y330000D02*
G75*
G02*
X810000Y430000I-100J99700D01*
G01*
X-1000000Y-1250000D02*
G75*
G02*
X-1250000Y-1000000I-80J249920D01*
G01*
X-775000Y1250000D02*
G75*
G02*
X-750000Y1225000I80J-24920D01*
G01*
X1250000Y700000D02*
X1250000Y1000000D01*
X1000000Y1250000D02*
X-525000Y1250000D01*
X1150000Y-600000D02*
X910000Y-600000D01*
X1320000Y330000D02*
G75*
G02*
X1400000Y250000I110J-79890D01*
G01*
X-914800Y-597000D02*
X-1150000Y-597000D01*
X-1320000Y-327000D02*
G75*
G02*
X-1400000Y-247000I-110J79890D01*
G01*
X-1250000Y-697000D02*
G75*
G02*
X-1150000Y-597000I100040J-40D01*
G01*
X-1150000Y597000D02*
X-914800Y597000D01*
X1150000Y-600000D02*
G75*
G02*
X1250000Y-700000I-40J-100040D01*
G01*
X-775000Y1250000D02*
X-1000000Y1250000D01*
X-1250000Y1000000D02*
G75*
G02*
X-1000000Y1250000I249920J80D01*
G01*
X-1150000Y597000D02*
G75*
G02*
X-1250000Y697000I40J100040D01*
G01*
X-550000Y1200000D02*
X-550000Y1225000D01*
X-1400000Y247000D02*
G75*
G02*
X-1320000Y327000I79890J110D01*
G01*
X1400000Y-250000D02*
X1400000Y250000D01*
X-914800Y597000D02*
G75*
G02*
X-815000Y497000I100J-99700D01*
G01*
X-815000Y427000D02*
G75*
G02*
X-914800Y327000I-100040J40D01*
G01*
X810000Y500000D02*
G75*
G02*
X910000Y600000I100040J-40D01*
G01*
X1320000Y330000D02*
X909800Y330000D01*
X-550000Y1225000D02*
G75*
G02*
X-525000Y1250000I24920J80D01*
G01*
X-1250000Y-697000D02*
X-1250000Y-1000000D01*
X910000Y-330000D02*
X1320000Y-330000D01*
X910000Y-600000D02*
G75*
G02*
X810000Y-500000I40J100040D01*
G01*
X1250000Y700000D02*
G75*
G02*
X1150000Y600000I-100040J40D01*
G01*
X-1320000Y-327000D02*
X-915000Y-327000D01*
X-550000Y1200000D02*
G75*
G02*
X-750000Y1200000I-100000J0D01*
G01*
X1000000Y1250000D02*
G75*
G02*
X1250000Y1000000I80J-249920D01*
G01*
X-814800Y-497000D02*
G75*
G02*
X-914800Y-597000I-100040J40D01*
G01*
X-1250000Y1000000D02*
X-1250000Y697000D01*
X-915000Y-327000D02*
G75*
G02*
X-815000Y-427000I-40J-100040D01*
G01*
X1250000Y-1000000D02*
X1250000Y-700000D01*
X910000Y600000D02*
X1150000Y600000D01*
X810000Y-430000D02*
X810000Y-500000D01*
X-1000000Y-1250000D02*
X1000000Y-1250000D01*
X-914800Y327000D02*
X-1320000Y327000D01*
X1250000Y-1000000D02*
G75*
G02*
X1000000Y-1250000I-249920J-80D01*
G01*
X810000Y500000D02*
X810000Y430000D01*
X810000Y-430000D02*
G75*
G02*
X910000Y-330000I99870J130D01*
G01*
X-814800Y-497000D02*
X-815000Y-427000D01*
X1400000Y-250000D02*
G75*
G02*
X1320000Y-330000I-79890J-110D01*
G01*
D11*
%TO.C,MH3*%
X-692931Y-836394D02*
X-691257Y-837027D01*
X-689695Y-838171D01*
X-688172Y-839891D01*
X-686619Y-842253D01*
X-684964Y-845323D01*
X-684948Y-845354D01*
X-679208Y-857513D01*
X-673866Y-870278D01*
X-668954Y-883549D01*
X-664506Y-897227D01*
X-660557Y-911211D01*
X-657140Y-925402D01*
X-655899Y-931266D01*
X-654818Y-937214D01*
X-654127Y-942527D01*
X-653821Y-947262D01*
X-653897Y-951472D01*
X-654284Y-954831D01*
X-655733Y-961174D01*
X-657871Y-967152D01*
X-660673Y-972730D01*
X-664116Y-977873D01*
X-668175Y-982545D01*
X-672826Y-986712D01*
X-678047Y-990338D01*
X-678878Y-990834D01*
X-684149Y-993463D01*
X-689773Y-995434D01*
X-695641Y-996736D01*
X-701647Y-997358D01*
X-707684Y-997290D01*
X-713646Y-996520D01*
X-719426Y-995039D01*
X-719807Y-994913D01*
X-725413Y-992621D01*
X-730708Y-989641D01*
X-735624Y-986040D01*
X-740091Y-981884D01*
X-744042Y-977239D01*
X-747407Y-972174D01*
X-750118Y-966754D01*
X-750986Y-964554D01*
X-751441Y-963125D01*
X-751994Y-961102D01*
X-752598Y-958674D01*
X-753208Y-956026D01*
X-753776Y-953347D01*
X-753785Y-953303D01*
X-755948Y-943330D01*
X-758307Y-933953D01*
X-760918Y-924988D01*
X-763839Y-916248D01*
X-767123Y-907550D01*
X-769078Y-902780D01*
X-770446Y-899330D01*
X-771384Y-896446D01*
X-771896Y-894035D01*
X-771989Y-891999D01*
X-771668Y-890243D01*
X-770937Y-888671D01*
X-769942Y-887343D01*
X-769047Y-886417D01*
X-768076Y-885650D01*
X-766891Y-884976D01*
X-765351Y-884329D01*
X-763320Y-883640D01*
X-760658Y-882843D01*
X-760569Y-882818D01*
X-754890Y-881049D01*
X-749717Y-879145D01*
X-744763Y-876992D01*
X-741457Y-875373D01*
X-733943Y-871099D01*
X-726785Y-866147D01*
X-720056Y-860579D01*
X-713827Y-854458D01*
X-708173Y-847848D01*
X-705396Y-844116D01*
X-703203Y-841237D01*
X-701170Y-839061D01*
X-699224Y-837537D01*
X-697292Y-836609D01*
X-695302Y-836223D01*
X-694786Y-836205D01*
X-692931Y-836394D01*
G36*
X-692931Y-836394D02*
G01*
X-691257Y-837027D01*
X-689695Y-838171D01*
X-688172Y-839891D01*
X-686619Y-842253D01*
X-684964Y-845323D01*
X-684948Y-845354D01*
X-679208Y-857513D01*
X-673866Y-870278D01*
X-668954Y-883549D01*
X-664506Y-897227D01*
X-660557Y-911211D01*
X-657140Y-925402D01*
X-655899Y-931266D01*
X-654818Y-937214D01*
X-654127Y-942527D01*
X-653821Y-947262D01*
X-653897Y-951472D01*
X-654284Y-954831D01*
X-655733Y-961174D01*
X-657871Y-967152D01*
X-660673Y-972730D01*
X-664116Y-977873D01*
X-668175Y-982545D01*
X-672826Y-986712D01*
X-678047Y-990338D01*
X-678878Y-990834D01*
X-684149Y-993463D01*
X-689773Y-995434D01*
X-695641Y-996736D01*
X-701647Y-997358D01*
X-707684Y-997290D01*
X-713646Y-996520D01*
X-719426Y-995039D01*
X-719807Y-994913D01*
X-725413Y-992621D01*
X-730708Y-989641D01*
X-735624Y-986040D01*
X-740091Y-981884D01*
X-744042Y-977239D01*
X-747407Y-972174D01*
X-750118Y-966754D01*
X-750986Y-964554D01*
X-751441Y-963125D01*
X-751994Y-961102D01*
X-752598Y-958674D01*
X-753208Y-956026D01*
X-753776Y-953347D01*
X-753785Y-953303D01*
X-755948Y-943330D01*
X-758307Y-933953D01*
X-760918Y-924988D01*
X-763839Y-916248D01*
X-767123Y-907550D01*
X-769078Y-902780D01*
X-770446Y-899330D01*
X-771384Y-896446D01*
X-771896Y-894035D01*
X-771989Y-891999D01*
X-771668Y-890243D01*
X-770937Y-888671D01*
X-769942Y-887343D01*
X-769047Y-886417D01*
X-768076Y-885650D01*
X-766891Y-884976D01*
X-765351Y-884329D01*
X-763320Y-883640D01*
X-760658Y-882843D01*
X-760569Y-882818D01*
X-754890Y-881049D01*
X-749717Y-879145D01*
X-744763Y-876992D01*
X-741457Y-875373D01*
X-733943Y-871099D01*
X-726785Y-866147D01*
X-720056Y-860579D01*
X-713827Y-854458D01*
X-708173Y-847848D01*
X-705396Y-844116D01*
X-703203Y-841237D01*
X-701170Y-839061D01*
X-699224Y-837537D01*
X-697292Y-836609D01*
X-695302Y-836223D01*
X-694786Y-836205D01*
X-692931Y-836394D01*
G37*
X-947018Y-654034D02*
X-944850Y-654071D01*
X-942753Y-654172D01*
X-940629Y-654351D01*
X-938376Y-654625D01*
X-935895Y-655011D01*
X-933084Y-655524D01*
X-929843Y-656180D01*
X-926072Y-656996D01*
X-921671Y-657988D01*
X-919832Y-658410D01*
X-908491Y-661261D01*
X-896873Y-664641D01*
X-885164Y-668482D01*
X-873550Y-672718D01*
X-862216Y-677282D01*
X-851349Y-682108D01*
X-844232Y-685549D01*
X-841479Y-686997D01*
X-839376Y-688277D01*
X-837819Y-689468D01*
X-836704Y-690652D01*
X-835927Y-691910D01*
X-835840Y-692096D01*
X-835242Y-693899D01*
X-835247Y-695582D01*
X-835643Y-697006D01*
X-836728Y-698977D01*
X-838560Y-701002D01*
X-841098Y-703036D01*
X-841577Y-703366D01*
X-848900Y-708774D01*
X-855647Y-714694D01*
X-861793Y-721098D01*
X-867315Y-727957D01*
X-872187Y-735240D01*
X-876387Y-742920D01*
X-878938Y-748575D01*
X-880172Y-751694D01*
X-881294Y-754833D01*
X-882369Y-758196D01*
X-883463Y-761983D01*
X-884348Y-765277D01*
X-884880Y-767101D01*
X-885421Y-768406D01*
X-886105Y-769456D01*
X-886850Y-770298D01*
X-888407Y-771642D01*
X-890045Y-772450D01*
X-891876Y-772726D01*
X-894010Y-772476D01*
X-896555Y-771702D01*
X-898798Y-770783D01*
X-910850Y-765838D01*
X-923279Y-761510D01*
X-936143Y-757780D01*
X-949501Y-754630D01*
X-952569Y-754002D01*
X-956037Y-753292D01*
X-958875Y-752660D01*
X-961237Y-752063D01*
X-963276Y-751455D01*
X-965147Y-750793D01*
X-967003Y-750030D01*
X-968387Y-749407D01*
X-973685Y-746533D01*
X-978592Y-743019D01*
X-983050Y-738937D01*
X-987003Y-734359D01*
X-990393Y-729360D01*
X-993164Y-724012D01*
X-995257Y-718387D01*
X-996422Y-713655D01*
X-997234Y-707379D01*
X-997288Y-701216D01*
X-996615Y-695215D01*
X-995250Y-689423D01*
X-993223Y-683890D01*
X-990567Y-678665D01*
X-987315Y-673794D01*
X-983500Y-669328D01*
X-979154Y-665315D01*
X-974310Y-661803D01*
X-969000Y-658840D01*
X-963256Y-656476D01*
X-957111Y-654759D01*
X-956940Y-654722D01*
X-955172Y-654404D01*
X-953248Y-654191D01*
X-950978Y-654072D01*
X-948173Y-654031D01*
X-947018Y-654034D01*
G36*
X-947018Y-654034D02*
G01*
X-944850Y-654071D01*
X-942753Y-654172D01*
X-940629Y-654351D01*
X-938376Y-654625D01*
X-935895Y-655011D01*
X-933084Y-655524D01*
X-929843Y-656180D01*
X-926072Y-656996D01*
X-921671Y-657988D01*
X-919832Y-658410D01*
X-908491Y-661261D01*
X-896873Y-664641D01*
X-885164Y-668482D01*
X-873550Y-672718D01*
X-862216Y-677282D01*
X-851349Y-682108D01*
X-844232Y-685549D01*
X-841479Y-686997D01*
X-839376Y-688277D01*
X-837819Y-689468D01*
X-836704Y-690652D01*
X-835927Y-691910D01*
X-835840Y-692096D01*
X-835242Y-693899D01*
X-835247Y-695582D01*
X-835643Y-697006D01*
X-836728Y-698977D01*
X-838560Y-701002D01*
X-841098Y-703036D01*
X-841577Y-703366D01*
X-848900Y-708774D01*
X-855647Y-714694D01*
X-861793Y-721098D01*
X-867315Y-727957D01*
X-872187Y-735240D01*
X-876387Y-742920D01*
X-878938Y-748575D01*
X-880172Y-751694D01*
X-881294Y-754833D01*
X-882369Y-758196D01*
X-883463Y-761983D01*
X-884348Y-765277D01*
X-884880Y-767101D01*
X-885421Y-768406D01*
X-886105Y-769456D01*
X-886850Y-770298D01*
X-888407Y-771642D01*
X-890045Y-772450D01*
X-891876Y-772726D01*
X-894010Y-772476D01*
X-896555Y-771702D01*
X-898798Y-770783D01*
X-910850Y-765838D01*
X-923279Y-761510D01*
X-936143Y-757780D01*
X-949501Y-754630D01*
X-952569Y-754002D01*
X-956037Y-753292D01*
X-958875Y-752660D01*
X-961237Y-752063D01*
X-963276Y-751455D01*
X-965147Y-750793D01*
X-967003Y-750030D01*
X-968387Y-749407D01*
X-973685Y-746533D01*
X-978592Y-743019D01*
X-983050Y-738937D01*
X-987003Y-734359D01*
X-990393Y-729360D01*
X-993164Y-724012D01*
X-995257Y-718387D01*
X-996422Y-713655D01*
X-997234Y-707379D01*
X-997288Y-701216D01*
X-996615Y-695215D01*
X-995250Y-689423D01*
X-993223Y-683890D01*
X-990567Y-678665D01*
X-987315Y-673794D01*
X-983500Y-669328D01*
X-979154Y-665315D01*
X-974310Y-661803D01*
X-969000Y-658840D01*
X-963256Y-656476D01*
X-957111Y-654759D01*
X-956940Y-654722D01*
X-955172Y-654404D01*
X-953248Y-654191D01*
X-950978Y-654072D01*
X-948173Y-654031D01*
X-947018Y-654034D01*
G37*
X-811451Y-749774D02*
X-810449Y-750050D01*
X-809860Y-750269D01*
X-809261Y-750567D01*
X-808589Y-750998D01*
X-807780Y-751620D01*
X-806771Y-752487D01*
X-805499Y-753655D01*
X-803900Y-755181D01*
X-801912Y-757120D01*
X-799472Y-759528D01*
X-797496Y-761488D01*
X-786681Y-772223D01*
X-776064Y-761703D01*
X-773208Y-758894D01*
X-770632Y-756407D01*
X-768387Y-754286D01*
X-766523Y-752577D01*
X-765088Y-751326D01*
X-764131Y-750579D01*
X-763860Y-750415D01*
X-762045Y-749851D01*
X-759845Y-749625D01*
X-757574Y-749733D01*
X-755548Y-750171D01*
X-754695Y-750529D01*
X-752772Y-751894D01*
X-751094Y-753731D01*
X-749969Y-755663D01*
X-749562Y-757250D01*
X-749399Y-759249D01*
X-749480Y-761317D01*
X-749804Y-763112D01*
X-749989Y-763649D01*
X-750480Y-764400D01*
X-751545Y-765681D01*
X-753173Y-767481D01*
X-755356Y-769791D01*
X-758083Y-772599D01*
X-761347Y-775897D01*
X-761386Y-775936D01*
X-772169Y-786747D01*
X-761586Y-797377D01*
X-758492Y-800504D01*
X-755941Y-803123D01*
X-753899Y-805272D01*
X-752333Y-806989D01*
X-751208Y-808311D01*
X-750490Y-809274D01*
X-750197Y-809783D01*
X-749490Y-812214D01*
X-749381Y-814873D01*
X-749862Y-817471D01*
X-750402Y-818824D01*
X-751968Y-821145D01*
X-754030Y-822867D01*
X-756293Y-823873D01*
X-758062Y-824311D01*
X-759564Y-824415D01*
X-761164Y-824181D01*
X-762498Y-823827D01*
X-763073Y-823640D01*
X-763636Y-823392D01*
X-764251Y-823029D01*
X-764981Y-822496D01*
X-765887Y-821738D01*
X-767032Y-820699D01*
X-768478Y-819326D01*
X-770289Y-817562D01*
X-772525Y-815352D01*
X-775251Y-812643D01*
X-775667Y-812228D01*
X-786681Y-801259D01*
X-797694Y-812228D01*
X-800492Y-815010D01*
X-802792Y-817285D01*
X-804657Y-819107D01*
X-806150Y-820532D01*
X-807333Y-821613D01*
X-808268Y-822407D01*
X-809018Y-822967D01*
X-809645Y-823350D01*
X-810212Y-823611D01*
X-810781Y-823803D01*
X-810863Y-823827D01*
X-812741Y-824292D01*
X-814270Y-824418D01*
X-815817Y-824208D01*
X-817069Y-823873D01*
X-819534Y-822749D01*
X-821522Y-821040D01*
X-822966Y-818841D01*
X-823797Y-816245D01*
X-823978Y-814160D01*
X-823955Y-813044D01*
X-823860Y-812048D01*
X-823643Y-811103D01*
X-823256Y-810141D01*
X-822649Y-809093D01*
X-821771Y-807892D01*
X-820575Y-806470D01*
X-819009Y-804759D01*
X-817026Y-802689D01*
X-814574Y-800195D01*
X-811776Y-797377D01*
X-801193Y-786747D01*
X-811959Y-775936D01*
X-815199Y-772661D01*
X-817875Y-769908D01*
X-820003Y-767659D01*
X-821602Y-765896D01*
X-822687Y-764600D01*
X-823275Y-763753D01*
X-823356Y-763588D01*
X-823943Y-761196D01*
X-823921Y-758591D01*
X-823335Y-756014D01*
X-822230Y-753702D01*
X-821285Y-752487D01*
X-819266Y-750908D01*
X-816836Y-749903D01*
X-814172Y-749512D01*
X-811451Y-749774D01*
G36*
X-811451Y-749774D02*
G01*
X-810449Y-750050D01*
X-809860Y-750269D01*
X-809261Y-750567D01*
X-808589Y-750998D01*
X-807780Y-751620D01*
X-806771Y-752487D01*
X-805499Y-753655D01*
X-803900Y-755181D01*
X-801912Y-757120D01*
X-799472Y-759528D01*
X-797496Y-761488D01*
X-786681Y-772223D01*
X-776064Y-761703D01*
X-773208Y-758894D01*
X-770632Y-756407D01*
X-768387Y-754286D01*
X-766523Y-752577D01*
X-765088Y-751326D01*
X-764131Y-750579D01*
X-763860Y-750415D01*
X-762045Y-749851D01*
X-759845Y-749625D01*
X-757574Y-749733D01*
X-755548Y-750171D01*
X-754695Y-750529D01*
X-752772Y-751894D01*
X-751094Y-753731D01*
X-749969Y-755663D01*
X-749562Y-757250D01*
X-749399Y-759249D01*
X-749480Y-761317D01*
X-749804Y-763112D01*
X-749989Y-763649D01*
X-750480Y-764400D01*
X-751545Y-765681D01*
X-753173Y-767481D01*
X-755356Y-769791D01*
X-758083Y-772599D01*
X-761347Y-775897D01*
X-761386Y-775936D01*
X-772169Y-786747D01*
X-761586Y-797377D01*
X-758492Y-800504D01*
X-755941Y-803123D01*
X-753899Y-805272D01*
X-752333Y-806989D01*
X-751208Y-808311D01*
X-750490Y-809274D01*
X-750197Y-809783D01*
X-749490Y-812214D01*
X-749381Y-814873D01*
X-749862Y-817471D01*
X-750402Y-818824D01*
X-751968Y-821145D01*
X-754030Y-822867D01*
X-756293Y-823873D01*
X-758062Y-824311D01*
X-759564Y-824415D01*
X-761164Y-824181D01*
X-762498Y-823827D01*
X-763073Y-823640D01*
X-763636Y-823392D01*
X-764251Y-823029D01*
X-764981Y-822496D01*
X-765887Y-821738D01*
X-767032Y-820699D01*
X-768478Y-819326D01*
X-770289Y-817562D01*
X-772525Y-815352D01*
X-775251Y-812643D01*
X-775667Y-812228D01*
X-786681Y-801259D01*
X-797694Y-812228D01*
X-800492Y-815010D01*
X-802792Y-817285D01*
X-804657Y-819107D01*
X-806150Y-820532D01*
X-807333Y-821613D01*
X-808268Y-822407D01*
X-809018Y-822967D01*
X-809645Y-823350D01*
X-810212Y-823611D01*
X-810781Y-823803D01*
X-810863Y-823827D01*
X-812741Y-824292D01*
X-814270Y-824418D01*
X-815817Y-824208D01*
X-817069Y-823873D01*
X-819534Y-822749D01*
X-821522Y-821040D01*
X-822966Y-818841D01*
X-823797Y-816245D01*
X-823978Y-814160D01*
X-823955Y-813044D01*
X-823860Y-812048D01*
X-823643Y-811103D01*
X-823256Y-810141D01*
X-822649Y-809093D01*
X-821771Y-807892D01*
X-820575Y-806470D01*
X-819009Y-804759D01*
X-817026Y-802689D01*
X-814574Y-800195D01*
X-811776Y-797377D01*
X-801193Y-786747D01*
X-811959Y-775936D01*
X-815199Y-772661D01*
X-817875Y-769908D01*
X-820003Y-767659D01*
X-821602Y-765896D01*
X-822687Y-764600D01*
X-823275Y-763753D01*
X-823356Y-763588D01*
X-823943Y-761196D01*
X-823921Y-758591D01*
X-823335Y-756014D01*
X-822230Y-753702D01*
X-821285Y-752487D01*
X-819266Y-750908D01*
X-816836Y-749903D01*
X-814172Y-749512D01*
X-811451Y-749774D01*
G37*
%TO.C,MH4*%
X951195Y-653549D02*
X954554Y-653936D01*
X960897Y-655385D01*
X966875Y-657522D01*
X972453Y-660325D01*
X977596Y-663767D01*
X982268Y-667826D01*
X986435Y-672478D01*
X990061Y-677698D01*
X990557Y-678529D01*
X993186Y-683801D01*
X995157Y-689424D01*
X996459Y-695292D01*
X997081Y-701298D01*
X997013Y-707336D01*
X996243Y-713298D01*
X994762Y-719077D01*
X994636Y-719459D01*
X992344Y-725065D01*
X989364Y-730360D01*
X985763Y-735275D01*
X981607Y-739742D01*
X976962Y-743693D01*
X971897Y-747058D01*
X966477Y-749770D01*
X964276Y-750637D01*
X962848Y-751092D01*
X960825Y-751645D01*
X958397Y-752250D01*
X955749Y-752860D01*
X953070Y-753428D01*
X953026Y-753437D01*
X943053Y-755599D01*
X933676Y-757958D01*
X924711Y-760570D01*
X915971Y-763490D01*
X907273Y-766775D01*
X902503Y-768730D01*
X899053Y-770098D01*
X896169Y-771035D01*
X893758Y-771548D01*
X891722Y-771641D01*
X889966Y-771319D01*
X888394Y-770589D01*
X887066Y-769594D01*
X886139Y-768699D01*
X885373Y-767728D01*
X884699Y-766542D01*
X884052Y-765003D01*
X883363Y-762972D01*
X882566Y-760309D01*
X882541Y-760221D01*
X880772Y-754542D01*
X878868Y-749368D01*
X876715Y-744414D01*
X875096Y-741108D01*
X870822Y-733595D01*
X865869Y-726437D01*
X860301Y-719707D01*
X854181Y-713479D01*
X847571Y-707824D01*
X843839Y-705048D01*
X840959Y-702855D01*
X838784Y-700821D01*
X837260Y-698875D01*
X836332Y-696943D01*
X835946Y-694954D01*
X835928Y-694437D01*
X836117Y-692582D01*
X836750Y-690909D01*
X837894Y-689346D01*
X839614Y-687824D01*
X841976Y-686270D01*
X845046Y-684615D01*
X845077Y-684599D01*
X857236Y-678860D01*
X870001Y-673517D01*
X883272Y-668605D01*
X896949Y-664158D01*
X910934Y-660209D01*
X925125Y-656791D01*
X930989Y-655550D01*
X936937Y-654469D01*
X942250Y-653778D01*
X946985Y-653472D01*
X951195Y-653549D01*
G36*
X951195Y-653549D02*
G01*
X954554Y-653936D01*
X960897Y-655385D01*
X966875Y-657522D01*
X972453Y-660325D01*
X977596Y-663767D01*
X982268Y-667826D01*
X986435Y-672478D01*
X990061Y-677698D01*
X990557Y-678529D01*
X993186Y-683801D01*
X995157Y-689424D01*
X996459Y-695292D01*
X997081Y-701298D01*
X997013Y-707336D01*
X996243Y-713298D01*
X994762Y-719077D01*
X994636Y-719459D01*
X992344Y-725065D01*
X989364Y-730360D01*
X985763Y-735275D01*
X981607Y-739742D01*
X976962Y-743693D01*
X971897Y-747058D01*
X966477Y-749770D01*
X964276Y-750637D01*
X962848Y-751092D01*
X960825Y-751645D01*
X958397Y-752250D01*
X955749Y-752860D01*
X953070Y-753428D01*
X953026Y-753437D01*
X943053Y-755599D01*
X933676Y-757958D01*
X924711Y-760570D01*
X915971Y-763490D01*
X907273Y-766775D01*
X902503Y-768730D01*
X899053Y-770098D01*
X896169Y-771035D01*
X893758Y-771548D01*
X891722Y-771641D01*
X889966Y-771319D01*
X888394Y-770589D01*
X887066Y-769594D01*
X886139Y-768699D01*
X885373Y-767728D01*
X884699Y-766542D01*
X884052Y-765003D01*
X883363Y-762972D01*
X882566Y-760309D01*
X882541Y-760221D01*
X880772Y-754542D01*
X878868Y-749368D01*
X876715Y-744414D01*
X875096Y-741108D01*
X870822Y-733595D01*
X865869Y-726437D01*
X860301Y-719707D01*
X854181Y-713479D01*
X847571Y-707824D01*
X843839Y-705048D01*
X840959Y-702855D01*
X838784Y-700821D01*
X837260Y-698875D01*
X836332Y-696943D01*
X835946Y-694954D01*
X835928Y-694437D01*
X836117Y-692582D01*
X836750Y-690909D01*
X837894Y-689346D01*
X839614Y-687824D01*
X841976Y-686270D01*
X845046Y-684615D01*
X845077Y-684599D01*
X857236Y-678860D01*
X870001Y-673517D01*
X883272Y-668605D01*
X896949Y-664158D01*
X910934Y-660209D01*
X925125Y-656791D01*
X930989Y-655550D01*
X936937Y-654469D01*
X942250Y-653778D01*
X946985Y-653472D01*
X951195Y-653549D01*
G37*
X695305Y-834899D02*
X696729Y-835294D01*
X698700Y-836380D01*
X700725Y-838212D01*
X702759Y-840750D01*
X703089Y-841228D01*
X708497Y-848552D01*
X714417Y-855298D01*
X720821Y-861445D01*
X727680Y-866966D01*
X734963Y-871839D01*
X742643Y-876038D01*
X748298Y-878589D01*
X751417Y-879824D01*
X754556Y-880946D01*
X757918Y-882021D01*
X761706Y-883114D01*
X765000Y-884000D01*
X766824Y-884531D01*
X768129Y-885073D01*
X769179Y-885756D01*
X770021Y-886502D01*
X771365Y-888058D01*
X772173Y-889697D01*
X772449Y-891528D01*
X772199Y-893661D01*
X771425Y-896206D01*
X770506Y-898449D01*
X765561Y-910501D01*
X761233Y-922930D01*
X757503Y-935794D01*
X754353Y-949152D01*
X753725Y-952220D01*
X753014Y-955688D01*
X752383Y-958527D01*
X751786Y-960888D01*
X751178Y-962928D01*
X750515Y-964799D01*
X749752Y-966655D01*
X749130Y-968039D01*
X746256Y-973337D01*
X742742Y-978244D01*
X738659Y-982702D01*
X734082Y-986655D01*
X729083Y-990045D01*
X723735Y-992815D01*
X718110Y-994909D01*
X713378Y-996073D01*
X707102Y-996886D01*
X700939Y-996939D01*
X694938Y-996267D01*
X689146Y-994901D01*
X683613Y-992874D01*
X678387Y-990219D01*
X673517Y-986967D01*
X669051Y-983152D01*
X665038Y-978806D01*
X661525Y-973961D01*
X658563Y-968651D01*
X656199Y-962907D01*
X654482Y-956763D01*
X654445Y-956592D01*
X654127Y-954823D01*
X653914Y-952899D01*
X653795Y-950629D01*
X653754Y-947824D01*
X653757Y-946670D01*
X653794Y-944501D01*
X653895Y-942405D01*
X654074Y-940281D01*
X654348Y-938028D01*
X654734Y-935546D01*
X655247Y-932735D01*
X655903Y-929494D01*
X656719Y-925724D01*
X657711Y-921322D01*
X658133Y-919484D01*
X660984Y-908142D01*
X664364Y-896525D01*
X668205Y-884816D01*
X672441Y-873202D01*
X677005Y-861868D01*
X681831Y-851000D01*
X685272Y-843883D01*
X686720Y-841131D01*
X688000Y-839028D01*
X689191Y-837470D01*
X690375Y-836355D01*
X691633Y-835578D01*
X691819Y-835491D01*
X693622Y-834894D01*
X695305Y-834899D01*
G36*
X695305Y-834899D02*
G01*
X696729Y-835294D01*
X698700Y-836380D01*
X700725Y-838212D01*
X702759Y-840750D01*
X703089Y-841228D01*
X708497Y-848552D01*
X714417Y-855298D01*
X720821Y-861445D01*
X727680Y-866966D01*
X734963Y-871839D01*
X742643Y-876038D01*
X748298Y-878589D01*
X751417Y-879824D01*
X754556Y-880946D01*
X757918Y-882021D01*
X761706Y-883114D01*
X765000Y-884000D01*
X766824Y-884531D01*
X768129Y-885073D01*
X769179Y-885756D01*
X770021Y-886502D01*
X771365Y-888058D01*
X772173Y-889697D01*
X772449Y-891528D01*
X772199Y-893661D01*
X771425Y-896206D01*
X770506Y-898449D01*
X765561Y-910501D01*
X761233Y-922930D01*
X757503Y-935794D01*
X754353Y-949152D01*
X753725Y-952220D01*
X753014Y-955688D01*
X752383Y-958527D01*
X751786Y-960888D01*
X751178Y-962928D01*
X750515Y-964799D01*
X749752Y-966655D01*
X749130Y-968039D01*
X746256Y-973337D01*
X742742Y-978244D01*
X738659Y-982702D01*
X734082Y-986655D01*
X729083Y-990045D01*
X723735Y-992815D01*
X718110Y-994909D01*
X713378Y-996073D01*
X707102Y-996886D01*
X700939Y-996939D01*
X694938Y-996267D01*
X689146Y-994901D01*
X683613Y-992874D01*
X678387Y-990219D01*
X673517Y-986967D01*
X669051Y-983152D01*
X665038Y-978806D01*
X661525Y-973961D01*
X658563Y-968651D01*
X656199Y-962907D01*
X654482Y-956763D01*
X654445Y-956592D01*
X654127Y-954823D01*
X653914Y-952899D01*
X653795Y-950629D01*
X653754Y-947824D01*
X653757Y-946670D01*
X653794Y-944501D01*
X653895Y-942405D01*
X654074Y-940281D01*
X654348Y-938028D01*
X654734Y-935546D01*
X655247Y-932735D01*
X655903Y-929494D01*
X656719Y-925724D01*
X657711Y-921322D01*
X658133Y-919484D01*
X660984Y-908142D01*
X664364Y-896525D01*
X668205Y-884816D01*
X672441Y-873202D01*
X677005Y-861868D01*
X681831Y-851000D01*
X685272Y-843883D01*
X686720Y-841131D01*
X688000Y-839028D01*
X689191Y-837470D01*
X690375Y-836355D01*
X691633Y-835578D01*
X691819Y-835491D01*
X693622Y-834894D01*
X695305Y-834899D01*
G37*
X816166Y-746567D02*
X817064Y-746767D01*
X820067Y-747991D01*
X822565Y-749781D01*
X824501Y-752059D01*
X825820Y-754745D01*
X826464Y-757762D01*
X826491Y-759911D01*
X826445Y-760663D01*
X826385Y-761350D01*
X826280Y-762008D01*
X826101Y-762672D01*
X825814Y-763379D01*
X825389Y-764165D01*
X824796Y-765064D01*
X824001Y-766113D01*
X822975Y-767347D01*
X821685Y-768802D01*
X820102Y-770514D01*
X818192Y-772519D01*
X815926Y-774852D01*
X813272Y-777549D01*
X810199Y-780645D01*
X806675Y-784177D01*
X802670Y-788180D01*
X798151Y-792690D01*
X795520Y-795315D01*
X790864Y-799960D01*
X786735Y-804077D01*
X783097Y-807698D01*
X779917Y-810856D01*
X777160Y-813584D01*
X774791Y-815914D01*
X772776Y-817880D01*
X771080Y-819515D01*
X769669Y-820851D01*
X768509Y-821921D01*
X767564Y-822758D01*
X766800Y-823394D01*
X766183Y-823864D01*
X765678Y-824198D01*
X765251Y-824431D01*
X764867Y-824595D01*
X764649Y-824672D01*
X761496Y-825344D01*
X758405Y-825284D01*
X755483Y-824531D01*
X752836Y-823125D01*
X750571Y-821105D01*
X748951Y-818804D01*
X748392Y-817723D01*
X748046Y-816771D01*
X747862Y-815700D01*
X747791Y-814258D01*
X747782Y-812923D01*
X747816Y-810969D01*
X747947Y-809551D01*
X748218Y-808412D01*
X748670Y-807298D01*
X748732Y-807168D01*
X748998Y-806725D01*
X749474Y-806092D01*
X750189Y-805238D01*
X751172Y-804135D01*
X752452Y-802750D01*
X754058Y-801055D01*
X756019Y-799019D01*
X758364Y-796613D01*
X761122Y-793805D01*
X764322Y-790565D01*
X767994Y-786865D01*
X772166Y-782673D01*
X776868Y-777959D01*
X777902Y-776923D01*
X782579Y-772242D01*
X786732Y-768091D01*
X790393Y-764439D01*
X793598Y-761253D01*
X796379Y-758501D01*
X798771Y-756149D01*
X800808Y-754165D01*
X802523Y-752517D01*
X803951Y-751172D01*
X805125Y-750097D01*
X806080Y-749260D01*
X806848Y-748628D01*
X807465Y-748169D01*
X807964Y-747849D01*
X808339Y-747654D01*
X810896Y-746802D01*
X813605Y-746429D01*
X816166Y-746567D01*
G36*
X816166Y-746567D02*
G01*
X817064Y-746767D01*
X820067Y-747991D01*
X822565Y-749781D01*
X824501Y-752059D01*
X825820Y-754745D01*
X826464Y-757762D01*
X826491Y-759911D01*
X826445Y-760663D01*
X826385Y-761350D01*
X826280Y-762008D01*
X826101Y-762672D01*
X825814Y-763379D01*
X825389Y-764165D01*
X824796Y-765064D01*
X824001Y-766113D01*
X822975Y-767347D01*
X821685Y-768802D01*
X820102Y-770514D01*
X818192Y-772519D01*
X815926Y-774852D01*
X813272Y-777549D01*
X810199Y-780645D01*
X806675Y-784177D01*
X802670Y-788180D01*
X798151Y-792690D01*
X795520Y-795315D01*
X790864Y-799960D01*
X786735Y-804077D01*
X783097Y-807698D01*
X779917Y-810856D01*
X777160Y-813584D01*
X774791Y-815914D01*
X772776Y-817880D01*
X771080Y-819515D01*
X769669Y-820851D01*
X768509Y-821921D01*
X767564Y-822758D01*
X766800Y-823394D01*
X766183Y-823864D01*
X765678Y-824198D01*
X765251Y-824431D01*
X764867Y-824595D01*
X764649Y-824672D01*
X761496Y-825344D01*
X758405Y-825284D01*
X755483Y-824531D01*
X752836Y-823125D01*
X750571Y-821105D01*
X748951Y-818804D01*
X748392Y-817723D01*
X748046Y-816771D01*
X747862Y-815700D01*
X747791Y-814258D01*
X747782Y-812923D01*
X747816Y-810969D01*
X747947Y-809551D01*
X748218Y-808412D01*
X748670Y-807298D01*
X748732Y-807168D01*
X748998Y-806725D01*
X749474Y-806092D01*
X750189Y-805238D01*
X751172Y-804135D01*
X752452Y-802750D01*
X754058Y-801055D01*
X756019Y-799019D01*
X758364Y-796613D01*
X761122Y-793805D01*
X764322Y-790565D01*
X767994Y-786865D01*
X772166Y-782673D01*
X776868Y-777959D01*
X777902Y-776923D01*
X782579Y-772242D01*
X786732Y-768091D01*
X790393Y-764439D01*
X793598Y-761253D01*
X796379Y-758501D01*
X798771Y-756149D01*
X800808Y-754165D01*
X802523Y-752517D01*
X803951Y-751172D01*
X805125Y-750097D01*
X806080Y-749260D01*
X806848Y-748628D01*
X807465Y-748169D01*
X807964Y-747849D01*
X808339Y-747654D01*
X810896Y-746802D01*
X813605Y-746429D01*
X816166Y-746567D01*
G37*
%TO.C,MH2*%
X707585Y997561D02*
X713547Y996791D01*
X719327Y995310D01*
X719708Y995184D01*
X725314Y992892D01*
X730609Y989912D01*
X735525Y986311D01*
X739992Y982155D01*
X743943Y977510D01*
X747308Y972445D01*
X750019Y967025D01*
X750887Y964824D01*
X751342Y963396D01*
X751895Y961373D01*
X752500Y958945D01*
X753109Y956297D01*
X753677Y953618D01*
X753686Y953574D01*
X755849Y943601D01*
X758208Y934224D01*
X760820Y925259D01*
X763740Y916519D01*
X767024Y907821D01*
X768979Y903051D01*
X770347Y899601D01*
X771285Y896717D01*
X771798Y894306D01*
X771890Y892270D01*
X771569Y890514D01*
X770838Y888942D01*
X769843Y887614D01*
X768948Y886687D01*
X767977Y885921D01*
X766792Y885247D01*
X765252Y884600D01*
X763221Y883911D01*
X760559Y883114D01*
X760470Y883089D01*
X754791Y881320D01*
X749618Y879416D01*
X744664Y877263D01*
X741358Y875644D01*
X733844Y871370D01*
X726686Y866417D01*
X719957Y860849D01*
X713728Y854729D01*
X708074Y848119D01*
X705297Y844387D01*
X703104Y841507D01*
X701071Y839332D01*
X699125Y837808D01*
X697193Y836880D01*
X695203Y836494D01*
X694687Y836476D01*
X692832Y836665D01*
X691158Y837298D01*
X689596Y838442D01*
X688073Y840162D01*
X686520Y842524D01*
X684865Y845594D01*
X684849Y845625D01*
X679109Y857784D01*
X673767Y870549D01*
X668855Y883820D01*
X664407Y897497D01*
X660458Y911482D01*
X657041Y925673D01*
X655800Y931537D01*
X654719Y937485D01*
X654028Y942798D01*
X653722Y947533D01*
X653798Y951743D01*
X654185Y955102D01*
X655634Y961445D01*
X657772Y967423D01*
X660574Y973001D01*
X664017Y978144D01*
X668076Y982816D01*
X672727Y986983D01*
X677948Y990609D01*
X678779Y991105D01*
X684050Y993734D01*
X689674Y995705D01*
X695542Y997007D01*
X701548Y997629D01*
X707585Y997561D01*
G36*
X707585Y997561D02*
G01*
X713547Y996791D01*
X719327Y995310D01*
X719708Y995184D01*
X725314Y992892D01*
X730609Y989912D01*
X735525Y986311D01*
X739992Y982155D01*
X743943Y977510D01*
X747308Y972445D01*
X750019Y967025D01*
X750887Y964824D01*
X751342Y963396D01*
X751895Y961373D01*
X752500Y958945D01*
X753109Y956297D01*
X753677Y953618D01*
X753686Y953574D01*
X755849Y943601D01*
X758208Y934224D01*
X760820Y925259D01*
X763740Y916519D01*
X767024Y907821D01*
X768979Y903051D01*
X770347Y899601D01*
X771285Y896717D01*
X771798Y894306D01*
X771890Y892270D01*
X771569Y890514D01*
X770838Y888942D01*
X769843Y887614D01*
X768948Y886687D01*
X767977Y885921D01*
X766792Y885247D01*
X765252Y884600D01*
X763221Y883911D01*
X760559Y883114D01*
X760470Y883089D01*
X754791Y881320D01*
X749618Y879416D01*
X744664Y877263D01*
X741358Y875644D01*
X733844Y871370D01*
X726686Y866417D01*
X719957Y860849D01*
X713728Y854729D01*
X708074Y848119D01*
X705297Y844387D01*
X703104Y841507D01*
X701071Y839332D01*
X699125Y837808D01*
X697193Y836880D01*
X695203Y836494D01*
X694687Y836476D01*
X692832Y836665D01*
X691158Y837298D01*
X689596Y838442D01*
X688073Y840162D01*
X686520Y842524D01*
X684865Y845594D01*
X684849Y845625D01*
X679109Y857784D01*
X673767Y870549D01*
X668855Y883820D01*
X664407Y897497D01*
X660458Y911482D01*
X657041Y925673D01*
X655800Y931537D01*
X654719Y937485D01*
X654028Y942798D01*
X653722Y947533D01*
X653798Y951743D01*
X654185Y955102D01*
X655634Y961445D01*
X657772Y967423D01*
X660574Y973001D01*
X664017Y978144D01*
X668076Y982816D01*
X672727Y986983D01*
X677948Y990609D01*
X678779Y991105D01*
X684050Y993734D01*
X689674Y995705D01*
X695542Y997007D01*
X701548Y997629D01*
X707585Y997561D01*
G37*
X760913Y826993D02*
X761599Y826933D01*
X762257Y826828D01*
X762922Y826649D01*
X763629Y826362D01*
X764414Y825937D01*
X765313Y825344D01*
X766362Y824549D01*
X767597Y823523D01*
X769052Y822233D01*
X770764Y820650D01*
X772769Y818740D01*
X775102Y816474D01*
X777798Y813820D01*
X780895Y810747D01*
X784427Y807223D01*
X788430Y803218D01*
X792940Y798699D01*
X795565Y796068D01*
X800210Y791412D01*
X804327Y787283D01*
X807948Y783645D01*
X811106Y780465D01*
X813833Y777708D01*
X816164Y775339D01*
X818130Y773324D01*
X819765Y771628D01*
X821100Y770217D01*
X822170Y769057D01*
X823007Y768112D01*
X823644Y767348D01*
X824113Y766731D01*
X824448Y766226D01*
X824681Y765799D01*
X824845Y765415D01*
X824922Y765197D01*
X825594Y762044D01*
X825534Y758953D01*
X824780Y756031D01*
X823374Y753384D01*
X821355Y751119D01*
X819054Y749499D01*
X817972Y748940D01*
X817021Y748594D01*
X815949Y748410D01*
X814507Y748339D01*
X813172Y748330D01*
X811218Y748364D01*
X809800Y748495D01*
X808662Y748766D01*
X807548Y749218D01*
X807418Y749280D01*
X806975Y749546D01*
X806342Y750022D01*
X805488Y750737D01*
X804384Y751720D01*
X803000Y753000D01*
X801305Y754606D01*
X799269Y756567D01*
X796862Y758912D01*
X794054Y761670D01*
X790815Y764870D01*
X787115Y768542D01*
X782922Y772714D01*
X778209Y777416D01*
X777173Y778450D01*
X772491Y783127D01*
X768341Y787280D01*
X764689Y790941D01*
X761503Y794146D01*
X758750Y796927D01*
X756398Y799319D01*
X754415Y801356D01*
X752766Y803071D01*
X751421Y804499D01*
X750346Y805673D01*
X749509Y806628D01*
X748877Y807396D01*
X748418Y808013D01*
X748099Y808512D01*
X747904Y808887D01*
X747052Y811444D01*
X746679Y814153D01*
X746816Y816714D01*
X747017Y817612D01*
X748241Y820615D01*
X750031Y823113D01*
X752308Y825049D01*
X754995Y826368D01*
X758011Y827012D01*
X760161Y827039D01*
X760913Y826993D01*
G36*
X760913Y826993D02*
G01*
X761599Y826933D01*
X762257Y826828D01*
X762922Y826649D01*
X763629Y826362D01*
X764414Y825937D01*
X765313Y825344D01*
X766362Y824549D01*
X767597Y823523D01*
X769052Y822233D01*
X770764Y820650D01*
X772769Y818740D01*
X775102Y816474D01*
X777798Y813820D01*
X780895Y810747D01*
X784427Y807223D01*
X788430Y803218D01*
X792940Y798699D01*
X795565Y796068D01*
X800210Y791412D01*
X804327Y787283D01*
X807948Y783645D01*
X811106Y780465D01*
X813833Y777708D01*
X816164Y775339D01*
X818130Y773324D01*
X819765Y771628D01*
X821100Y770217D01*
X822170Y769057D01*
X823007Y768112D01*
X823644Y767348D01*
X824113Y766731D01*
X824448Y766226D01*
X824681Y765799D01*
X824845Y765415D01*
X824922Y765197D01*
X825594Y762044D01*
X825534Y758953D01*
X824780Y756031D01*
X823374Y753384D01*
X821355Y751119D01*
X819054Y749499D01*
X817972Y748940D01*
X817021Y748594D01*
X815949Y748410D01*
X814507Y748339D01*
X813172Y748330D01*
X811218Y748364D01*
X809800Y748495D01*
X808662Y748766D01*
X807548Y749218D01*
X807418Y749280D01*
X806975Y749546D01*
X806342Y750022D01*
X805488Y750737D01*
X804384Y751720D01*
X803000Y753000D01*
X801305Y754606D01*
X799269Y756567D01*
X796862Y758912D01*
X794054Y761670D01*
X790815Y764870D01*
X787115Y768542D01*
X782922Y772714D01*
X778209Y777416D01*
X777173Y778450D01*
X772491Y783127D01*
X768341Y787280D01*
X764689Y790941D01*
X761503Y794146D01*
X758750Y796927D01*
X756398Y799319D01*
X754415Y801356D01*
X752766Y803071D01*
X751421Y804499D01*
X750346Y805673D01*
X749509Y806628D01*
X748877Y807396D01*
X748418Y808013D01*
X748099Y808512D01*
X747904Y808887D01*
X747052Y811444D01*
X746679Y814153D01*
X746816Y816714D01*
X747017Y817612D01*
X748241Y820615D01*
X750031Y823113D01*
X752308Y825049D01*
X754995Y826368D01*
X758011Y827012D01*
X760161Y827039D01*
X760913Y826993D01*
G37*
X893911Y772747D02*
X896456Y771973D01*
X898699Y771054D01*
X910751Y766109D01*
X923180Y761781D01*
X936044Y758051D01*
X949402Y754901D01*
X952470Y754273D01*
X955938Y753562D01*
X958776Y752931D01*
X961138Y752334D01*
X963177Y751726D01*
X965048Y751063D01*
X966905Y750300D01*
X968288Y749678D01*
X973586Y746804D01*
X978493Y743290D01*
X982952Y739207D01*
X986904Y734630D01*
X990294Y729631D01*
X993065Y724283D01*
X995158Y718658D01*
X996323Y713926D01*
X997135Y707650D01*
X997189Y701487D01*
X996517Y695486D01*
X995151Y689694D01*
X993124Y684161D01*
X990468Y678935D01*
X987217Y674065D01*
X983402Y669599D01*
X979056Y665586D01*
X974211Y662073D01*
X968901Y659111D01*
X963157Y656747D01*
X957012Y655030D01*
X956841Y654993D01*
X955073Y654675D01*
X953149Y654462D01*
X950879Y654343D01*
X948074Y654302D01*
X946919Y654305D01*
X944751Y654342D01*
X942654Y654443D01*
X940530Y654622D01*
X938277Y654896D01*
X935796Y655282D01*
X932985Y655795D01*
X929744Y656451D01*
X925973Y657267D01*
X921572Y658259D01*
X919733Y658681D01*
X908392Y661532D01*
X896774Y664912D01*
X885065Y668753D01*
X873451Y672989D01*
X862118Y677553D01*
X851250Y682379D01*
X844133Y685820D01*
X841380Y687268D01*
X839277Y688548D01*
X837720Y689739D01*
X836605Y690923D01*
X835828Y692181D01*
X835741Y692367D01*
X835143Y694170D01*
X835148Y695853D01*
X835544Y697277D01*
X836629Y699248D01*
X838461Y701273D01*
X840999Y703307D01*
X841478Y703637D01*
X848801Y709045D01*
X855548Y714965D01*
X861694Y721369D01*
X867216Y728228D01*
X872088Y735511D01*
X876288Y743191D01*
X878839Y748846D01*
X880073Y751965D01*
X881195Y755104D01*
X882270Y758466D01*
X883364Y762254D01*
X884249Y765548D01*
X884781Y767372D01*
X885322Y768677D01*
X886006Y769727D01*
X886751Y770569D01*
X888308Y771913D01*
X889946Y772721D01*
X891777Y772997D01*
X893911Y772747D01*
G36*
X893911Y772747D02*
G01*
X896456Y771973D01*
X898699Y771054D01*
X910751Y766109D01*
X923180Y761781D01*
X936044Y758051D01*
X949402Y754901D01*
X952470Y754273D01*
X955938Y753562D01*
X958776Y752931D01*
X961138Y752334D01*
X963177Y751726D01*
X965048Y751063D01*
X966905Y750300D01*
X968288Y749678D01*
X973586Y746804D01*
X978493Y743290D01*
X982952Y739207D01*
X986904Y734630D01*
X990294Y729631D01*
X993065Y724283D01*
X995158Y718658D01*
X996323Y713926D01*
X997135Y707650D01*
X997189Y701487D01*
X996517Y695486D01*
X995151Y689694D01*
X993124Y684161D01*
X990468Y678935D01*
X987217Y674065D01*
X983402Y669599D01*
X979056Y665586D01*
X974211Y662073D01*
X968901Y659111D01*
X963157Y656747D01*
X957012Y655030D01*
X956841Y654993D01*
X955073Y654675D01*
X953149Y654462D01*
X950879Y654343D01*
X948074Y654302D01*
X946919Y654305D01*
X944751Y654342D01*
X942654Y654443D01*
X940530Y654622D01*
X938277Y654896D01*
X935796Y655282D01*
X932985Y655795D01*
X929744Y656451D01*
X925973Y657267D01*
X921572Y658259D01*
X919733Y658681D01*
X908392Y661532D01*
X896774Y664912D01*
X885065Y668753D01*
X873451Y672989D01*
X862118Y677553D01*
X851250Y682379D01*
X844133Y685820D01*
X841380Y687268D01*
X839277Y688548D01*
X837720Y689739D01*
X836605Y690923D01*
X835828Y692181D01*
X835741Y692367D01*
X835143Y694170D01*
X835148Y695853D01*
X835544Y697277D01*
X836629Y699248D01*
X838461Y701273D01*
X840999Y703307D01*
X841478Y703637D01*
X848801Y709045D01*
X855548Y714965D01*
X861694Y721369D01*
X867216Y728228D01*
X872088Y735511D01*
X876288Y743191D01*
X878839Y748846D01*
X880073Y751965D01*
X881195Y755104D01*
X882270Y758466D01*
X883364Y762254D01*
X884249Y765548D01*
X884781Y767372D01*
X885322Y768677D01*
X886006Y769727D01*
X886751Y770569D01*
X888308Y771913D01*
X889946Y772721D01*
X891777Y772997D01*
X893911Y772747D01*
G37*
%TO.C,MH1*%
X-889984Y771069D02*
X-888412Y770338D01*
X-887084Y769343D01*
X-886157Y768448D01*
X-885391Y767477D01*
X-884717Y766292D01*
X-884070Y764752D01*
X-883381Y762721D01*
X-882584Y760059D01*
X-882559Y759970D01*
X-880790Y754291D01*
X-878886Y749118D01*
X-876733Y744164D01*
X-875114Y740858D01*
X-870840Y733344D01*
X-865887Y726186D01*
X-860319Y719457D01*
X-854199Y713228D01*
X-847589Y707574D01*
X-843857Y704797D01*
X-840977Y702604D01*
X-838802Y700571D01*
X-837278Y698625D01*
X-836350Y696693D01*
X-835964Y694703D01*
X-835946Y694187D01*
X-836135Y692332D01*
X-836768Y690658D01*
X-837912Y689096D01*
X-839632Y687573D01*
X-841994Y686020D01*
X-845064Y684365D01*
X-845095Y684349D01*
X-857254Y678609D01*
X-870019Y673267D01*
X-883290Y668355D01*
X-896967Y663907D01*
X-910952Y659958D01*
X-925143Y656541D01*
X-931007Y655300D01*
X-936955Y654219D01*
X-942268Y653528D01*
X-947003Y653222D01*
X-951213Y653298D01*
X-954572Y653685D01*
X-960915Y655134D01*
X-966893Y657272D01*
X-972471Y660074D01*
X-977614Y663517D01*
X-982286Y667576D01*
X-986453Y672227D01*
X-990079Y677448D01*
X-990575Y678279D01*
X-993204Y683550D01*
X-995175Y689174D01*
X-996477Y695042D01*
X-997099Y701048D01*
X-997031Y707085D01*
X-996261Y713047D01*
X-994780Y718827D01*
X-994654Y719208D01*
X-992362Y724814D01*
X-989382Y730109D01*
X-985781Y735025D01*
X-981625Y739492D01*
X-976980Y743443D01*
X-971915Y746808D01*
X-966495Y749519D01*
X-964294Y750387D01*
X-962866Y750842D01*
X-960843Y751395D01*
X-958415Y751999D01*
X-955767Y752609D01*
X-953088Y753177D01*
X-953044Y753186D01*
X-943071Y755349D01*
X-933694Y757708D01*
X-924729Y760319D01*
X-915989Y763240D01*
X-907291Y766524D01*
X-902521Y768479D01*
X-899071Y769847D01*
X-896187Y770785D01*
X-893776Y771297D01*
X-891740Y771390D01*
X-889984Y771069D01*
G36*
X-889984Y771069D02*
G01*
X-888412Y770338D01*
X-887084Y769343D01*
X-886157Y768448D01*
X-885391Y767477D01*
X-884717Y766292D01*
X-884070Y764752D01*
X-883381Y762721D01*
X-882584Y760059D01*
X-882559Y759970D01*
X-880790Y754291D01*
X-878886Y749118D01*
X-876733Y744164D01*
X-875114Y740858D01*
X-870840Y733344D01*
X-865887Y726186D01*
X-860319Y719457D01*
X-854199Y713228D01*
X-847589Y707574D01*
X-843857Y704797D01*
X-840977Y702604D01*
X-838802Y700571D01*
X-837278Y698625D01*
X-836350Y696693D01*
X-835964Y694703D01*
X-835946Y694187D01*
X-836135Y692332D01*
X-836768Y690658D01*
X-837912Y689096D01*
X-839632Y687573D01*
X-841994Y686020D01*
X-845064Y684365D01*
X-845095Y684349D01*
X-857254Y678609D01*
X-870019Y673267D01*
X-883290Y668355D01*
X-896967Y663907D01*
X-910952Y659958D01*
X-925143Y656541D01*
X-931007Y655300D01*
X-936955Y654219D01*
X-942268Y653528D01*
X-947003Y653222D01*
X-951213Y653298D01*
X-954572Y653685D01*
X-960915Y655134D01*
X-966893Y657272D01*
X-972471Y660074D01*
X-977614Y663517D01*
X-982286Y667576D01*
X-986453Y672227D01*
X-990079Y677448D01*
X-990575Y678279D01*
X-993204Y683550D01*
X-995175Y689174D01*
X-996477Y695042D01*
X-997099Y701048D01*
X-997031Y707085D01*
X-996261Y713047D01*
X-994780Y718827D01*
X-994654Y719208D01*
X-992362Y724814D01*
X-989382Y730109D01*
X-985781Y735025D01*
X-981625Y739492D01*
X-976980Y743443D01*
X-971915Y746808D01*
X-966495Y749519D01*
X-964294Y750387D01*
X-962866Y750842D01*
X-960843Y751395D01*
X-958415Y751999D01*
X-955767Y752609D01*
X-953088Y753177D01*
X-953044Y753186D01*
X-943071Y755349D01*
X-933694Y757708D01*
X-924729Y760319D01*
X-915989Y763240D01*
X-907291Y766524D01*
X-902521Y768479D01*
X-899071Y769847D01*
X-896187Y770785D01*
X-893776Y771297D01*
X-891740Y771390D01*
X-889984Y771069D01*
G37*
X-694956Y996016D02*
X-689164Y994651D01*
X-683631Y992624D01*
X-678405Y989968D01*
X-673535Y986716D01*
X-669069Y982901D01*
X-665056Y978555D01*
X-661543Y973711D01*
X-658581Y968401D01*
X-656217Y962657D01*
X-654500Y956512D01*
X-654463Y956341D01*
X-654145Y954573D01*
X-653932Y952649D01*
X-653813Y950379D01*
X-653772Y947574D01*
X-653775Y946419D01*
X-653812Y944251D01*
X-653913Y942154D01*
X-654092Y940030D01*
X-654366Y937777D01*
X-654752Y935296D01*
X-655265Y932485D01*
X-655921Y929244D01*
X-656737Y925473D01*
X-657729Y921072D01*
X-658151Y919233D01*
X-661002Y907892D01*
X-664382Y896274D01*
X-668223Y884565D01*
X-672459Y872951D01*
X-677023Y861617D01*
X-681849Y850750D01*
X-685290Y843633D01*
X-686738Y840880D01*
X-688018Y838777D01*
X-689209Y837220D01*
X-690393Y836105D01*
X-691651Y835328D01*
X-691837Y835241D01*
X-693640Y834643D01*
X-695323Y834648D01*
X-696747Y835044D01*
X-698718Y836129D01*
X-700743Y837961D01*
X-702777Y840499D01*
X-703107Y840978D01*
X-708515Y848301D01*
X-714435Y855048D01*
X-720839Y861194D01*
X-727698Y866716D01*
X-734981Y871588D01*
X-742661Y875788D01*
X-748316Y878339D01*
X-751435Y879573D01*
X-754574Y880695D01*
X-757936Y881770D01*
X-761724Y882864D01*
X-765018Y883749D01*
X-766842Y884281D01*
X-768147Y884822D01*
X-769197Y885506D01*
X-770039Y886251D01*
X-771383Y887808D01*
X-772191Y889446D01*
X-772467Y891277D01*
X-772217Y893411D01*
X-771443Y895956D01*
X-770524Y898199D01*
X-765579Y910251D01*
X-761251Y922680D01*
X-757521Y935544D01*
X-754371Y948902D01*
X-753743Y951970D01*
X-753032Y955438D01*
X-752401Y958276D01*
X-751804Y960638D01*
X-751196Y962677D01*
X-750533Y964548D01*
X-749770Y966404D01*
X-749148Y967788D01*
X-746274Y973086D01*
X-742760Y977993D01*
X-738677Y982451D01*
X-734100Y986404D01*
X-729101Y989794D01*
X-723753Y992565D01*
X-718128Y994658D01*
X-713396Y995823D01*
X-707120Y996635D01*
X-700957Y996689D01*
X-694956Y996016D01*
G36*
X-694956Y996016D02*
G01*
X-689164Y994651D01*
X-683631Y992624D01*
X-678405Y989968D01*
X-673535Y986716D01*
X-669069Y982901D01*
X-665056Y978555D01*
X-661543Y973711D01*
X-658581Y968401D01*
X-656217Y962657D01*
X-654500Y956512D01*
X-654463Y956341D01*
X-654145Y954573D01*
X-653932Y952649D01*
X-653813Y950379D01*
X-653772Y947574D01*
X-653775Y946419D01*
X-653812Y944251D01*
X-653913Y942154D01*
X-654092Y940030D01*
X-654366Y937777D01*
X-654752Y935296D01*
X-655265Y932485D01*
X-655921Y929244D01*
X-656737Y925473D01*
X-657729Y921072D01*
X-658151Y919233D01*
X-661002Y907892D01*
X-664382Y896274D01*
X-668223Y884565D01*
X-672459Y872951D01*
X-677023Y861617D01*
X-681849Y850750D01*
X-685290Y843633D01*
X-686738Y840880D01*
X-688018Y838777D01*
X-689209Y837220D01*
X-690393Y836105D01*
X-691651Y835328D01*
X-691837Y835241D01*
X-693640Y834643D01*
X-695323Y834648D01*
X-696747Y835044D01*
X-698718Y836129D01*
X-700743Y837961D01*
X-702777Y840499D01*
X-703107Y840978D01*
X-708515Y848301D01*
X-714435Y855048D01*
X-720839Y861194D01*
X-727698Y866716D01*
X-734981Y871588D01*
X-742661Y875788D01*
X-748316Y878339D01*
X-751435Y879573D01*
X-754574Y880695D01*
X-757936Y881770D01*
X-761724Y882864D01*
X-765018Y883749D01*
X-766842Y884281D01*
X-768147Y884822D01*
X-769197Y885506D01*
X-770039Y886251D01*
X-771383Y887808D01*
X-772191Y889446D01*
X-772467Y891277D01*
X-772217Y893411D01*
X-771443Y895956D01*
X-770524Y898199D01*
X-765579Y910251D01*
X-761251Y922680D01*
X-757521Y935544D01*
X-754371Y948902D01*
X-753743Y951970D01*
X-753032Y955438D01*
X-752401Y958276D01*
X-751804Y960638D01*
X-751196Y962677D01*
X-750533Y964548D01*
X-749770Y966404D01*
X-749148Y967788D01*
X-746274Y973086D01*
X-742760Y977993D01*
X-738677Y982451D01*
X-734100Y986404D01*
X-729101Y989794D01*
X-723753Y992565D01*
X-718128Y994658D01*
X-713396Y995823D01*
X-707120Y996635D01*
X-700957Y996689D01*
X-694956Y996016D01*
G37*
X-749308Y846221D02*
X-747600Y846154D01*
X-746248Y846027D01*
X-745180Y845834D01*
X-744324Y845570D01*
X-743607Y845228D01*
X-742955Y844804D01*
X-742296Y844291D01*
X-741969Y844023D01*
X-740882Y842872D01*
X-739850Y841353D01*
X-739020Y839731D01*
X-738538Y838271D01*
X-738473Y837697D01*
X-738386Y837112D01*
X-738137Y835836D01*
X-737744Y833949D01*
X-737225Y831533D01*
X-736596Y828668D01*
X-735876Y825435D01*
X-735083Y821917D01*
X-734306Y818511D01*
X-733243Y813850D01*
X-732357Y809890D01*
X-731637Y806564D01*
X-731074Y803802D01*
X-730658Y801536D01*
X-730377Y799695D01*
X-730223Y798211D01*
X-730184Y797015D01*
X-730250Y796037D01*
X-730412Y795210D01*
X-730660Y794462D01*
X-730733Y794281D01*
X-731915Y792274D01*
X-733606Y790449D01*
X-735459Y789143D01*
X-737295Y788511D01*
X-739520Y788243D01*
X-741816Y788340D01*
X-743870Y788800D01*
X-744652Y789138D01*
X-746260Y790239D01*
X-747798Y791715D01*
X-749013Y793302D01*
X-749492Y794220D01*
X-749726Y794965D01*
X-750095Y796345D01*
X-750567Y798222D01*
X-751105Y800457D01*
X-751676Y802912D01*
X-751768Y803317D01*
X-752314Y805706D01*
X-752804Y807815D01*
X-753209Y809529D01*
X-753503Y810730D01*
X-753657Y811302D01*
X-753670Y811333D01*
X-753939Y811076D01*
X-754612Y810298D01*
X-755603Y809101D01*
X-756827Y807590D01*
X-757617Y806598D01*
X-767578Y794685D01*
X-778137Y783292D01*
X-789295Y772421D01*
X-801051Y762071D01*
X-807038Y757183D01*
X-808749Y755794D01*
X-810191Y754568D01*
X-811271Y753592D01*
X-811893Y752950D01*
X-811999Y752735D01*
X-811541Y752566D01*
X-810428Y752238D01*
X-808777Y751783D01*
X-806705Y751233D01*
X-804327Y750619D01*
X-803362Y750374D01*
X-800267Y749588D01*
X-797837Y748954D01*
X-795966Y748431D01*
X-794549Y747982D01*
X-793480Y747567D01*
X-792653Y747149D01*
X-791962Y746688D01*
X-791302Y746146D01*
X-790952Y745834D01*
X-789229Y743788D01*
X-788161Y741455D01*
X-787731Y738965D01*
X-787919Y736452D01*
X-788707Y734046D01*
X-790076Y731878D01*
X-792008Y730080D01*
X-793291Y729304D01*
X-794404Y728801D01*
X-795519Y728470D01*
X-796747Y728320D01*
X-798196Y728360D01*
X-799978Y728598D01*
X-802203Y729043D01*
X-804981Y729705D01*
X-807926Y730460D01*
X-810751Y731197D01*
X-814135Y732077D01*
X-817870Y733046D01*
X-821746Y734049D01*
X-825556Y735033D01*
X-828934Y735904D01*
X-832622Y736861D01*
X-835625Y737670D01*
X-838030Y738366D01*
X-839923Y738987D01*
X-841391Y739569D01*
X-842521Y740150D01*
X-843400Y740766D01*
X-844114Y741455D01*
X-844749Y742253D01*
X-845130Y742800D01*
X-845526Y743408D01*
X-845857Y744002D01*
X-846124Y744651D01*
X-846330Y745426D01*
X-846477Y746394D01*
X-846566Y747626D01*
X-846600Y749190D01*
X-846580Y751156D01*
X-846509Y753592D01*
X-846388Y756568D01*
X-846220Y760154D01*
X-846007Y764418D01*
X-845844Y767594D01*
X-845633Y771579D01*
X-845421Y775361D01*
X-845214Y778860D01*
X-845016Y781994D01*
X-844833Y784681D01*
X-844672Y786839D01*
X-844536Y788388D01*
X-844431Y789245D01*
X-844411Y789339D01*
X-843415Y791668D01*
X-841858Y793572D01*
X-839870Y795014D01*
X-837582Y795958D01*
X-835125Y796366D01*
X-832631Y796202D01*
X-830229Y795428D01*
X-828051Y794009D01*
X-828000Y793964D01*
X-826562Y792360D01*
X-825446Y790489D01*
X-825390Y790363D01*
X-825069Y789578D01*
X-824840Y788852D01*
X-824695Y788044D01*
X-824624Y787012D01*
X-824616Y785614D01*
X-824662Y783708D01*
X-824753Y781153D01*
X-824754Y781121D01*
X-824856Y778606D01*
X-824971Y776169D01*
X-825087Y774002D01*
X-825196Y772297D01*
X-825264Y771451D01*
X-825361Y770457D01*
X-825382Y769758D01*
X-825251Y769381D01*
X-824891Y769352D01*
X-824224Y769700D01*
X-823175Y770451D01*
X-821667Y771633D01*
X-819623Y773272D01*
X-819237Y773581D01*
X-810930Y780523D01*
X-802721Y787926D01*
X-794731Y795668D01*
X-787081Y803625D01*
X-779889Y811674D01*
X-773276Y819694D01*
X-770015Y823933D01*
X-768864Y825470D01*
X-772421Y825216D01*
X-774125Y825120D01*
X-776370Y825029D01*
X-778903Y824952D01*
X-781471Y824898D01*
X-782328Y824885D01*
X-784846Y824868D01*
X-786716Y824895D01*
X-788083Y824978D01*
X-789093Y825127D01*
X-789889Y825355D01*
X-790265Y825507D01*
X-792545Y826924D01*
X-794390Y828897D01*
X-795694Y831266D01*
X-796351Y833866D01*
X-796409Y834897D01*
X-796046Y837470D01*
X-795030Y839898D01*
X-793475Y842009D01*
X-791493Y843631D01*
X-790362Y844210D01*
X-789878Y844400D01*
X-789359Y844564D01*
X-788736Y844707D01*
X-787945Y844833D01*
X-786917Y844948D01*
X-785587Y845055D01*
X-783887Y845159D01*
X-781750Y845264D01*
X-779110Y845375D01*
X-775901Y845495D01*
X-772055Y845631D01*
X-767505Y845785D01*
X-765749Y845844D01*
X-761165Y845995D01*
X-757302Y846115D01*
X-754086Y846196D01*
X-751446Y846233D01*
X-749308Y846221D01*
G36*
X-749308Y846221D02*
G01*
X-747600Y846154D01*
X-746248Y846027D01*
X-745180Y845834D01*
X-744324Y845570D01*
X-743607Y845228D01*
X-742955Y844804D01*
X-742296Y844291D01*
X-741969Y844023D01*
X-740882Y842872D01*
X-739850Y841353D01*
X-739020Y839731D01*
X-738538Y838271D01*
X-738473Y837697D01*
X-738386Y837112D01*
X-738137Y835836D01*
X-737744Y833949D01*
X-737225Y831533D01*
X-736596Y828668D01*
X-735876Y825435D01*
X-735083Y821917D01*
X-734306Y818511D01*
X-733243Y813850D01*
X-732357Y809890D01*
X-731637Y806564D01*
X-731074Y803802D01*
X-730658Y801536D01*
X-730377Y799695D01*
X-730223Y798211D01*
X-730184Y797015D01*
X-730250Y796037D01*
X-730412Y795210D01*
X-730660Y794462D01*
X-730733Y794281D01*
X-731915Y792274D01*
X-733606Y790449D01*
X-735459Y789143D01*
X-737295Y788511D01*
X-739520Y788243D01*
X-741816Y788340D01*
X-743870Y788800D01*
X-744652Y789138D01*
X-746260Y790239D01*
X-747798Y791715D01*
X-749013Y793302D01*
X-749492Y794220D01*
X-749726Y794965D01*
X-750095Y796345D01*
X-750567Y798222D01*
X-751105Y800457D01*
X-751676Y802912D01*
X-751768Y803317D01*
X-752314Y805706D01*
X-752804Y807815D01*
X-753209Y809529D01*
X-753503Y810730D01*
X-753657Y811302D01*
X-753670Y811333D01*
X-753939Y811076D01*
X-754612Y810298D01*
X-755603Y809101D01*
X-756827Y807590D01*
X-757617Y806598D01*
X-767578Y794685D01*
X-778137Y783292D01*
X-789295Y772421D01*
X-801051Y762071D01*
X-807038Y757183D01*
X-808749Y755794D01*
X-810191Y754568D01*
X-811271Y753592D01*
X-811893Y752950D01*
X-811999Y752735D01*
X-811541Y752566D01*
X-810428Y752238D01*
X-808777Y751783D01*
X-806705Y751233D01*
X-804327Y750619D01*
X-803362Y750374D01*
X-800267Y749588D01*
X-797837Y748954D01*
X-795966Y748431D01*
X-794549Y747982D01*
X-793480Y747567D01*
X-792653Y747149D01*
X-791962Y746688D01*
X-791302Y746146D01*
X-790952Y745834D01*
X-789229Y743788D01*
X-788161Y741455D01*
X-787731Y738965D01*
X-787919Y736452D01*
X-788707Y734046D01*
X-790076Y731878D01*
X-792008Y730080D01*
X-793291Y729304D01*
X-794404Y728801D01*
X-795519Y728470D01*
X-796747Y728320D01*
X-798196Y728360D01*
X-799978Y728598D01*
X-802203Y729043D01*
X-804981Y729705D01*
X-807926Y730460D01*
X-810751Y731197D01*
X-814135Y732077D01*
X-817870Y733046D01*
X-821746Y734049D01*
X-825556Y735033D01*
X-828934Y735904D01*
X-832622Y736861D01*
X-835625Y737670D01*
X-838030Y738366D01*
X-839923Y738987D01*
X-841391Y739569D01*
X-842521Y740150D01*
X-843400Y740766D01*
X-844114Y741455D01*
X-844749Y742253D01*
X-845130Y742800D01*
X-845526Y743408D01*
X-845857Y744002D01*
X-846124Y744651D01*
X-846330Y745426D01*
X-846477Y746394D01*
X-846566Y747626D01*
X-846600Y749190D01*
X-846580Y751156D01*
X-846509Y753592D01*
X-846388Y756568D01*
X-846220Y760154D01*
X-846007Y764418D01*
X-845844Y767594D01*
X-845633Y771579D01*
X-845421Y775361D01*
X-845214Y778860D01*
X-845016Y781994D01*
X-844833Y784681D01*
X-844672Y786839D01*
X-844536Y788388D01*
X-844431Y789245D01*
X-844411Y789339D01*
X-843415Y791668D01*
X-841858Y793572D01*
X-839870Y795014D01*
X-837582Y795958D01*
X-835125Y796366D01*
X-832631Y796202D01*
X-830229Y795428D01*
X-828051Y794009D01*
X-828000Y793964D01*
X-826562Y792360D01*
X-825446Y790489D01*
X-825390Y790363D01*
X-825069Y789578D01*
X-824840Y788852D01*
X-824695Y788044D01*
X-824624Y787012D01*
X-824616Y785614D01*
X-824662Y783708D01*
X-824753Y781153D01*
X-824754Y781121D01*
X-824856Y778606D01*
X-824971Y776169D01*
X-825087Y774002D01*
X-825196Y772297D01*
X-825264Y771451D01*
X-825361Y770457D01*
X-825382Y769758D01*
X-825251Y769381D01*
X-824891Y769352D01*
X-824224Y769700D01*
X-823175Y770451D01*
X-821667Y771633D01*
X-819623Y773272D01*
X-819237Y773581D01*
X-810930Y780523D01*
X-802721Y787926D01*
X-794731Y795668D01*
X-787081Y803625D01*
X-779889Y811674D01*
X-773276Y819694D01*
X-770015Y823933D01*
X-768864Y825470D01*
X-772421Y825216D01*
X-774125Y825120D01*
X-776370Y825029D01*
X-778903Y824952D01*
X-781471Y824898D01*
X-782328Y824885D01*
X-784846Y824868D01*
X-786716Y824895D01*
X-788083Y824978D01*
X-789093Y825127D01*
X-789889Y825355D01*
X-790265Y825507D01*
X-792545Y826924D01*
X-794390Y828897D01*
X-795694Y831266D01*
X-796351Y833866D01*
X-796409Y834897D01*
X-796046Y837470D01*
X-795030Y839898D01*
X-793475Y842009D01*
X-791493Y843631D01*
X-790362Y844210D01*
X-789878Y844400D01*
X-789359Y844564D01*
X-788736Y844707D01*
X-787945Y844833D01*
X-786917Y844948D01*
X-785587Y845055D01*
X-783887Y845159D01*
X-781750Y845264D01*
X-779110Y845375D01*
X-775901Y845495D01*
X-772055Y845631D01*
X-767505Y845785D01*
X-765749Y845844D01*
X-761165Y845995D01*
X-757302Y846115D01*
X-754086Y846196D01*
X-751446Y846233D01*
X-749308Y846221D01*
G37*
%TD*%
M02*
