%TF.GenerationSoftware,KiCad,Pcbnew,9.0.4*%
%TF.CreationDate,2025-10-01T23:04:06+01:00*%
%TF.ProjectId,mm_light_sensor,6d6d5f6c-6967-4687-945f-73656e736f72,v0.4*%
%TF.SameCoordinates,PX8d24d00PY36d6160*%
%TF.FileFunction,Legend,Bot*%
%TF.FilePolarity,Positive*%
%FSLAX45Y45*%
G04 Gerber Fmt 4.5, Leading zero omitted, Abs format (unit mm)*
G04 Created by KiCad (PCBNEW 9.0.4) date 2025-10-01 23:04:06*
%MOMM*%
%LPD*%
G01*
G04 APERTURE LIST*
%ADD10C,0.010000*%
G04 APERTURE END LIST*
D10*
%TO.C,MH3*%
X-692931Y-836394D02*
X-691257Y-837027D01*
X-689695Y-838171D01*
X-688172Y-839891D01*
X-686619Y-842253D01*
X-684964Y-845323D01*
X-684948Y-845354D01*
X-679208Y-857513D01*
X-673866Y-870278D01*
X-668954Y-883549D01*
X-664506Y-897227D01*
X-660557Y-911211D01*
X-657140Y-925402D01*
X-655899Y-931266D01*
X-654818Y-937214D01*
X-654127Y-942527D01*
X-653821Y-947262D01*
X-653897Y-951472D01*
X-654284Y-954831D01*
X-655733Y-961174D01*
X-657871Y-967152D01*
X-660673Y-972730D01*
X-664116Y-977873D01*
X-668175Y-982545D01*
X-672826Y-986712D01*
X-678047Y-990338D01*
X-678878Y-990834D01*
X-684149Y-993463D01*
X-689773Y-995434D01*
X-695641Y-996736D01*
X-701647Y-997358D01*
X-707684Y-997290D01*
X-713646Y-996520D01*
X-719426Y-995039D01*
X-719807Y-994913D01*
X-725413Y-992621D01*
X-730708Y-989641D01*
X-735624Y-986040D01*
X-740091Y-981884D01*
X-744042Y-977239D01*
X-747407Y-972174D01*
X-750118Y-966754D01*
X-750986Y-964554D01*
X-751441Y-963125D01*
X-751994Y-961102D01*
X-752598Y-958674D01*
X-753208Y-956026D01*
X-753776Y-953347D01*
X-753785Y-953303D01*
X-755948Y-943330D01*
X-758307Y-933953D01*
X-760918Y-924988D01*
X-763839Y-916248D01*
X-767123Y-907550D01*
X-769078Y-902780D01*
X-770446Y-899330D01*
X-771384Y-896446D01*
X-771896Y-894035D01*
X-771989Y-891999D01*
X-771668Y-890243D01*
X-770937Y-888671D01*
X-769942Y-887343D01*
X-769047Y-886417D01*
X-768076Y-885650D01*
X-766891Y-884976D01*
X-765351Y-884329D01*
X-763320Y-883640D01*
X-760658Y-882843D01*
X-760569Y-882818D01*
X-754890Y-881049D01*
X-749717Y-879145D01*
X-744763Y-876992D01*
X-741457Y-875373D01*
X-733943Y-871099D01*
X-726785Y-866147D01*
X-720056Y-860579D01*
X-713827Y-854458D01*
X-708173Y-847848D01*
X-705396Y-844116D01*
X-703203Y-841237D01*
X-701170Y-839061D01*
X-699224Y-837537D01*
X-697292Y-836609D01*
X-695302Y-836223D01*
X-694786Y-836205D01*
X-692931Y-836394D01*
G36*
X-692931Y-836394D02*
G01*
X-691257Y-837027D01*
X-689695Y-838171D01*
X-688172Y-839891D01*
X-686619Y-842253D01*
X-684964Y-845323D01*
X-684948Y-845354D01*
X-679208Y-857513D01*
X-673866Y-870278D01*
X-668954Y-883549D01*
X-664506Y-897227D01*
X-660557Y-911211D01*
X-657140Y-925402D01*
X-655899Y-931266D01*
X-654818Y-937214D01*
X-654127Y-942527D01*
X-653821Y-947262D01*
X-653897Y-951472D01*
X-654284Y-954831D01*
X-655733Y-961174D01*
X-657871Y-967152D01*
X-660673Y-972730D01*
X-664116Y-977873D01*
X-668175Y-982545D01*
X-672826Y-986712D01*
X-678047Y-990338D01*
X-678878Y-990834D01*
X-684149Y-993463D01*
X-689773Y-995434D01*
X-695641Y-996736D01*
X-701647Y-997358D01*
X-707684Y-997290D01*
X-713646Y-996520D01*
X-719426Y-995039D01*
X-719807Y-994913D01*
X-725413Y-992621D01*
X-730708Y-989641D01*
X-735624Y-986040D01*
X-740091Y-981884D01*
X-744042Y-977239D01*
X-747407Y-972174D01*
X-750118Y-966754D01*
X-750986Y-964554D01*
X-751441Y-963125D01*
X-751994Y-961102D01*
X-752598Y-958674D01*
X-753208Y-956026D01*
X-753776Y-953347D01*
X-753785Y-953303D01*
X-755948Y-943330D01*
X-758307Y-933953D01*
X-760918Y-924988D01*
X-763839Y-916248D01*
X-767123Y-907550D01*
X-769078Y-902780D01*
X-770446Y-899330D01*
X-771384Y-896446D01*
X-771896Y-894035D01*
X-771989Y-891999D01*
X-771668Y-890243D01*
X-770937Y-888671D01*
X-769942Y-887343D01*
X-769047Y-886417D01*
X-768076Y-885650D01*
X-766891Y-884976D01*
X-765351Y-884329D01*
X-763320Y-883640D01*
X-760658Y-882843D01*
X-760569Y-882818D01*
X-754890Y-881049D01*
X-749717Y-879145D01*
X-744763Y-876992D01*
X-741457Y-875373D01*
X-733943Y-871099D01*
X-726785Y-866147D01*
X-720056Y-860579D01*
X-713827Y-854458D01*
X-708173Y-847848D01*
X-705396Y-844116D01*
X-703203Y-841237D01*
X-701170Y-839061D01*
X-699224Y-837537D01*
X-697292Y-836609D01*
X-695302Y-836223D01*
X-694786Y-836205D01*
X-692931Y-836394D01*
G37*
X-947018Y-654034D02*
X-944850Y-654071D01*
X-942753Y-654172D01*
X-940629Y-654351D01*
X-938376Y-654625D01*
X-935895Y-655011D01*
X-933084Y-655524D01*
X-929843Y-656180D01*
X-926072Y-656996D01*
X-921671Y-657988D01*
X-919832Y-658410D01*
X-908491Y-661261D01*
X-896873Y-664641D01*
X-885164Y-668482D01*
X-873550Y-672718D01*
X-862216Y-677282D01*
X-851349Y-682108D01*
X-844232Y-685549D01*
X-841479Y-686997D01*
X-839376Y-688277D01*
X-837819Y-689468D01*
X-836704Y-690652D01*
X-835927Y-691910D01*
X-835840Y-692096D01*
X-835242Y-693899D01*
X-835247Y-695582D01*
X-835643Y-697006D01*
X-836728Y-698977D01*
X-838560Y-701002D01*
X-841098Y-703036D01*
X-841577Y-703366D01*
X-848900Y-708774D01*
X-855647Y-714694D01*
X-861793Y-721098D01*
X-867315Y-727957D01*
X-872187Y-735240D01*
X-876387Y-742920D01*
X-878938Y-748575D01*
X-880172Y-751694D01*
X-881294Y-754833D01*
X-882369Y-758196D01*
X-883463Y-761983D01*
X-884348Y-765277D01*
X-884880Y-767101D01*
X-885421Y-768406D01*
X-886105Y-769456D01*
X-886850Y-770298D01*
X-888407Y-771642D01*
X-890045Y-772450D01*
X-891876Y-772726D01*
X-894010Y-772476D01*
X-896555Y-771702D01*
X-898798Y-770783D01*
X-910850Y-765838D01*
X-923279Y-761510D01*
X-936143Y-757780D01*
X-949501Y-754630D01*
X-952569Y-754002D01*
X-956037Y-753292D01*
X-958875Y-752660D01*
X-961237Y-752063D01*
X-963276Y-751455D01*
X-965147Y-750793D01*
X-967003Y-750030D01*
X-968387Y-749407D01*
X-973685Y-746533D01*
X-978592Y-743019D01*
X-983050Y-738937D01*
X-987003Y-734359D01*
X-990393Y-729360D01*
X-993164Y-724012D01*
X-995257Y-718387D01*
X-996422Y-713655D01*
X-997234Y-707379D01*
X-997288Y-701216D01*
X-996615Y-695215D01*
X-995250Y-689423D01*
X-993223Y-683890D01*
X-990567Y-678665D01*
X-987315Y-673794D01*
X-983500Y-669328D01*
X-979154Y-665315D01*
X-974310Y-661803D01*
X-969000Y-658840D01*
X-963256Y-656476D01*
X-957111Y-654759D01*
X-956940Y-654722D01*
X-955172Y-654404D01*
X-953248Y-654191D01*
X-950978Y-654072D01*
X-948173Y-654031D01*
X-947018Y-654034D01*
G36*
X-947018Y-654034D02*
G01*
X-944850Y-654071D01*
X-942753Y-654172D01*
X-940629Y-654351D01*
X-938376Y-654625D01*
X-935895Y-655011D01*
X-933084Y-655524D01*
X-929843Y-656180D01*
X-926072Y-656996D01*
X-921671Y-657988D01*
X-919832Y-658410D01*
X-908491Y-661261D01*
X-896873Y-664641D01*
X-885164Y-668482D01*
X-873550Y-672718D01*
X-862216Y-677282D01*
X-851349Y-682108D01*
X-844232Y-685549D01*
X-841479Y-686997D01*
X-839376Y-688277D01*
X-837819Y-689468D01*
X-836704Y-690652D01*
X-835927Y-691910D01*
X-835840Y-692096D01*
X-835242Y-693899D01*
X-835247Y-695582D01*
X-835643Y-697006D01*
X-836728Y-698977D01*
X-838560Y-701002D01*
X-841098Y-703036D01*
X-841577Y-703366D01*
X-848900Y-708774D01*
X-855647Y-714694D01*
X-861793Y-721098D01*
X-867315Y-727957D01*
X-872187Y-735240D01*
X-876387Y-742920D01*
X-878938Y-748575D01*
X-880172Y-751694D01*
X-881294Y-754833D01*
X-882369Y-758196D01*
X-883463Y-761983D01*
X-884348Y-765277D01*
X-884880Y-767101D01*
X-885421Y-768406D01*
X-886105Y-769456D01*
X-886850Y-770298D01*
X-888407Y-771642D01*
X-890045Y-772450D01*
X-891876Y-772726D01*
X-894010Y-772476D01*
X-896555Y-771702D01*
X-898798Y-770783D01*
X-910850Y-765838D01*
X-923279Y-761510D01*
X-936143Y-757780D01*
X-949501Y-754630D01*
X-952569Y-754002D01*
X-956037Y-753292D01*
X-958875Y-752660D01*
X-961237Y-752063D01*
X-963276Y-751455D01*
X-965147Y-750793D01*
X-967003Y-750030D01*
X-968387Y-749407D01*
X-973685Y-746533D01*
X-978592Y-743019D01*
X-983050Y-738937D01*
X-987003Y-734359D01*
X-990393Y-729360D01*
X-993164Y-724012D01*
X-995257Y-718387D01*
X-996422Y-713655D01*
X-997234Y-707379D01*
X-997288Y-701216D01*
X-996615Y-695215D01*
X-995250Y-689423D01*
X-993223Y-683890D01*
X-990567Y-678665D01*
X-987315Y-673794D01*
X-983500Y-669328D01*
X-979154Y-665315D01*
X-974310Y-661803D01*
X-969000Y-658840D01*
X-963256Y-656476D01*
X-957111Y-654759D01*
X-956940Y-654722D01*
X-955172Y-654404D01*
X-953248Y-654191D01*
X-950978Y-654072D01*
X-948173Y-654031D01*
X-947018Y-654034D01*
G37*
X-811451Y-749774D02*
X-810449Y-750050D01*
X-809860Y-750269D01*
X-809261Y-750567D01*
X-808589Y-750998D01*
X-807780Y-751620D01*
X-806771Y-752487D01*
X-805499Y-753655D01*
X-803900Y-755181D01*
X-801912Y-757120D01*
X-799472Y-759528D01*
X-797496Y-761488D01*
X-786681Y-772223D01*
X-776064Y-761703D01*
X-773208Y-758894D01*
X-770632Y-756407D01*
X-768387Y-754286D01*
X-766523Y-752577D01*
X-765088Y-751326D01*
X-764131Y-750579D01*
X-763860Y-750415D01*
X-762045Y-749851D01*
X-759845Y-749625D01*
X-757574Y-749733D01*
X-755548Y-750171D01*
X-754695Y-750529D01*
X-752772Y-751894D01*
X-751094Y-753731D01*
X-749969Y-755663D01*
X-749562Y-757250D01*
X-749399Y-759249D01*
X-749480Y-761317D01*
X-749804Y-763112D01*
X-749989Y-763649D01*
X-750480Y-764400D01*
X-751545Y-765681D01*
X-753173Y-767481D01*
X-755356Y-769791D01*
X-758083Y-772599D01*
X-761347Y-775897D01*
X-761386Y-775936D01*
X-772169Y-786747D01*
X-761586Y-797377D01*
X-758492Y-800504D01*
X-755941Y-803123D01*
X-753899Y-805272D01*
X-752333Y-806989D01*
X-751208Y-808311D01*
X-750490Y-809274D01*
X-750197Y-809783D01*
X-749490Y-812214D01*
X-749381Y-814873D01*
X-749862Y-817471D01*
X-750402Y-818824D01*
X-751968Y-821145D01*
X-754030Y-822867D01*
X-756293Y-823873D01*
X-758062Y-824311D01*
X-759564Y-824415D01*
X-761164Y-824181D01*
X-762498Y-823827D01*
X-763073Y-823640D01*
X-763636Y-823392D01*
X-764251Y-823029D01*
X-764981Y-822496D01*
X-765887Y-821738D01*
X-767032Y-820699D01*
X-768478Y-819326D01*
X-770289Y-817562D01*
X-772525Y-815352D01*
X-775251Y-812643D01*
X-775667Y-812228D01*
X-786681Y-801259D01*
X-797694Y-812228D01*
X-800492Y-815010D01*
X-802792Y-817285D01*
X-804657Y-819107D01*
X-806150Y-820532D01*
X-807333Y-821613D01*
X-808268Y-822407D01*
X-809018Y-822967D01*
X-809645Y-823350D01*
X-810212Y-823611D01*
X-810781Y-823803D01*
X-810863Y-823827D01*
X-812741Y-824292D01*
X-814270Y-824418D01*
X-815817Y-824208D01*
X-817069Y-823873D01*
X-819534Y-822749D01*
X-821522Y-821040D01*
X-822966Y-818841D01*
X-823797Y-816245D01*
X-823978Y-814160D01*
X-823955Y-813044D01*
X-823860Y-812048D01*
X-823643Y-811103D01*
X-823256Y-810141D01*
X-822649Y-809093D01*
X-821771Y-807892D01*
X-820575Y-806470D01*
X-819009Y-804759D01*
X-817026Y-802689D01*
X-814574Y-800195D01*
X-811776Y-797377D01*
X-801193Y-786747D01*
X-811959Y-775936D01*
X-815199Y-772661D01*
X-817875Y-769908D01*
X-820003Y-767659D01*
X-821602Y-765896D01*
X-822687Y-764600D01*
X-823275Y-763753D01*
X-823356Y-763588D01*
X-823943Y-761196D01*
X-823921Y-758591D01*
X-823335Y-756014D01*
X-822230Y-753702D01*
X-821285Y-752487D01*
X-819266Y-750908D01*
X-816836Y-749903D01*
X-814172Y-749512D01*
X-811451Y-749774D01*
G36*
X-811451Y-749774D02*
G01*
X-810449Y-750050D01*
X-809860Y-750269D01*
X-809261Y-750567D01*
X-808589Y-750998D01*
X-807780Y-751620D01*
X-806771Y-752487D01*
X-805499Y-753655D01*
X-803900Y-755181D01*
X-801912Y-757120D01*
X-799472Y-759528D01*
X-797496Y-761488D01*
X-786681Y-772223D01*
X-776064Y-761703D01*
X-773208Y-758894D01*
X-770632Y-756407D01*
X-768387Y-754286D01*
X-766523Y-752577D01*
X-765088Y-751326D01*
X-764131Y-750579D01*
X-763860Y-750415D01*
X-762045Y-749851D01*
X-759845Y-749625D01*
X-757574Y-749733D01*
X-755548Y-750171D01*
X-754695Y-750529D01*
X-752772Y-751894D01*
X-751094Y-753731D01*
X-749969Y-755663D01*
X-749562Y-757250D01*
X-749399Y-759249D01*
X-749480Y-761317D01*
X-749804Y-763112D01*
X-749989Y-763649D01*
X-750480Y-764400D01*
X-751545Y-765681D01*
X-753173Y-767481D01*
X-755356Y-769791D01*
X-758083Y-772599D01*
X-761347Y-775897D01*
X-761386Y-775936D01*
X-772169Y-786747D01*
X-761586Y-797377D01*
X-758492Y-800504D01*
X-755941Y-803123D01*
X-753899Y-805272D01*
X-752333Y-806989D01*
X-751208Y-808311D01*
X-750490Y-809274D01*
X-750197Y-809783D01*
X-749490Y-812214D01*
X-749381Y-814873D01*
X-749862Y-817471D01*
X-750402Y-818824D01*
X-751968Y-821145D01*
X-754030Y-822867D01*
X-756293Y-823873D01*
X-758062Y-824311D01*
X-759564Y-824415D01*
X-761164Y-824181D01*
X-762498Y-823827D01*
X-763073Y-823640D01*
X-763636Y-823392D01*
X-764251Y-823029D01*
X-764981Y-822496D01*
X-765887Y-821738D01*
X-767032Y-820699D01*
X-768478Y-819326D01*
X-770289Y-817562D01*
X-772525Y-815352D01*
X-775251Y-812643D01*
X-775667Y-812228D01*
X-786681Y-801259D01*
X-797694Y-812228D01*
X-800492Y-815010D01*
X-802792Y-817285D01*
X-804657Y-819107D01*
X-806150Y-820532D01*
X-807333Y-821613D01*
X-808268Y-822407D01*
X-809018Y-822967D01*
X-809645Y-823350D01*
X-810212Y-823611D01*
X-810781Y-823803D01*
X-810863Y-823827D01*
X-812741Y-824292D01*
X-814270Y-824418D01*
X-815817Y-824208D01*
X-817069Y-823873D01*
X-819534Y-822749D01*
X-821522Y-821040D01*
X-822966Y-818841D01*
X-823797Y-816245D01*
X-823978Y-814160D01*
X-823955Y-813044D01*
X-823860Y-812048D01*
X-823643Y-811103D01*
X-823256Y-810141D01*
X-822649Y-809093D01*
X-821771Y-807892D01*
X-820575Y-806470D01*
X-819009Y-804759D01*
X-817026Y-802689D01*
X-814574Y-800195D01*
X-811776Y-797377D01*
X-801193Y-786747D01*
X-811959Y-775936D01*
X-815199Y-772661D01*
X-817875Y-769908D01*
X-820003Y-767659D01*
X-821602Y-765896D01*
X-822687Y-764600D01*
X-823275Y-763753D01*
X-823356Y-763588D01*
X-823943Y-761196D01*
X-823921Y-758591D01*
X-823335Y-756014D01*
X-822230Y-753702D01*
X-821285Y-752487D01*
X-819266Y-750908D01*
X-816836Y-749903D01*
X-814172Y-749512D01*
X-811451Y-749774D01*
G37*
%TO.C,MH4*%
X951231Y-653710D02*
X954590Y-654097D01*
X960934Y-655546D01*
X966912Y-657684D01*
X972490Y-660486D01*
X977632Y-663928D01*
X982304Y-667987D01*
X986471Y-672639D01*
X990098Y-677859D01*
X990593Y-678690D01*
X993223Y-683962D01*
X995194Y-689585D01*
X996496Y-695453D01*
X997118Y-701460D01*
X997049Y-707497D01*
X996280Y-713459D01*
X994799Y-719238D01*
X994672Y-719620D01*
X992381Y-725226D01*
X989401Y-730521D01*
X985799Y-735436D01*
X981643Y-739904D01*
X976999Y-743854D01*
X971934Y-747220D01*
X966514Y-749931D01*
X964313Y-750798D01*
X962884Y-751253D01*
X960862Y-751806D01*
X958434Y-752411D01*
X955786Y-753021D01*
X953107Y-753589D01*
X953063Y-753598D01*
X943090Y-755760D01*
X933713Y-758119D01*
X924747Y-760731D01*
X916008Y-763651D01*
X907310Y-766936D01*
X902540Y-768891D01*
X899089Y-770259D01*
X896206Y-771197D01*
X893794Y-771709D01*
X891758Y-771802D01*
X890003Y-771480D01*
X888431Y-770750D01*
X887103Y-769755D01*
X886176Y-768860D01*
X885409Y-767889D01*
X884736Y-766703D01*
X884088Y-765164D01*
X883400Y-763133D01*
X882603Y-760470D01*
X882577Y-760382D01*
X880809Y-754703D01*
X878904Y-749530D01*
X876752Y-744575D01*
X875132Y-741269D01*
X870858Y-733756D01*
X865906Y-726598D01*
X860338Y-719868D01*
X854218Y-713640D01*
X847608Y-707985D01*
X843876Y-705209D01*
X840996Y-703016D01*
X838821Y-700982D01*
X837296Y-699036D01*
X836368Y-697105D01*
X835983Y-695115D01*
X835964Y-694598D01*
X836153Y-692743D01*
X836787Y-691070D01*
X837930Y-689507D01*
X839650Y-687985D01*
X842012Y-686431D01*
X845083Y-684776D01*
X845114Y-684761D01*
X857273Y-679021D01*
X870037Y-673678D01*
X883308Y-668766D01*
X896986Y-664319D01*
X910970Y-660370D01*
X925162Y-656953D01*
X931026Y-655711D01*
X936974Y-654631D01*
X942287Y-653939D01*
X947021Y-653634D01*
X951231Y-653710D01*
G36*
X951231Y-653710D02*
G01*
X954590Y-654097D01*
X960934Y-655546D01*
X966912Y-657684D01*
X972490Y-660486D01*
X977632Y-663928D01*
X982304Y-667987D01*
X986471Y-672639D01*
X990098Y-677859D01*
X990593Y-678690D01*
X993223Y-683962D01*
X995194Y-689585D01*
X996496Y-695453D01*
X997118Y-701460D01*
X997049Y-707497D01*
X996280Y-713459D01*
X994799Y-719238D01*
X994672Y-719620D01*
X992381Y-725226D01*
X989401Y-730521D01*
X985799Y-735436D01*
X981643Y-739904D01*
X976999Y-743854D01*
X971934Y-747220D01*
X966514Y-749931D01*
X964313Y-750798D01*
X962884Y-751253D01*
X960862Y-751806D01*
X958434Y-752411D01*
X955786Y-753021D01*
X953107Y-753589D01*
X953063Y-753598D01*
X943090Y-755760D01*
X933713Y-758119D01*
X924747Y-760731D01*
X916008Y-763651D01*
X907310Y-766936D01*
X902540Y-768891D01*
X899089Y-770259D01*
X896206Y-771197D01*
X893794Y-771709D01*
X891758Y-771802D01*
X890003Y-771480D01*
X888431Y-770750D01*
X887103Y-769755D01*
X886176Y-768860D01*
X885409Y-767889D01*
X884736Y-766703D01*
X884088Y-765164D01*
X883400Y-763133D01*
X882603Y-760470D01*
X882577Y-760382D01*
X880809Y-754703D01*
X878904Y-749530D01*
X876752Y-744575D01*
X875132Y-741269D01*
X870858Y-733756D01*
X865906Y-726598D01*
X860338Y-719868D01*
X854218Y-713640D01*
X847608Y-707985D01*
X843876Y-705209D01*
X840996Y-703016D01*
X838821Y-700982D01*
X837296Y-699036D01*
X836368Y-697105D01*
X835983Y-695115D01*
X835964Y-694598D01*
X836153Y-692743D01*
X836787Y-691070D01*
X837930Y-689507D01*
X839650Y-687985D01*
X842012Y-686431D01*
X845083Y-684776D01*
X845114Y-684761D01*
X857273Y-679021D01*
X870037Y-673678D01*
X883308Y-668766D01*
X896986Y-664319D01*
X910970Y-660370D01*
X925162Y-656953D01*
X931026Y-655711D01*
X936974Y-654631D01*
X942287Y-653939D01*
X947021Y-653634D01*
X951231Y-653710D01*
G37*
X695341Y-835060D02*
X696765Y-835455D01*
X698737Y-836541D01*
X700761Y-838373D01*
X702796Y-840911D01*
X703126Y-841389D01*
X708533Y-848713D01*
X714454Y-855459D01*
X720858Y-861606D01*
X727716Y-867127D01*
X735000Y-872000D01*
X742680Y-876199D01*
X748335Y-878750D01*
X751454Y-879985D01*
X754593Y-881107D01*
X757955Y-882182D01*
X761743Y-883275D01*
X765037Y-884161D01*
X766861Y-884692D01*
X768166Y-885234D01*
X769216Y-885918D01*
X770058Y-886663D01*
X771402Y-888219D01*
X772210Y-889858D01*
X772486Y-891689D01*
X772235Y-893822D01*
X771462Y-896367D01*
X770542Y-898610D01*
X765598Y-910662D01*
X761270Y-923091D01*
X757540Y-935955D01*
X754390Y-949313D01*
X753761Y-952381D01*
X753051Y-955850D01*
X752420Y-958688D01*
X751823Y-961050D01*
X751215Y-963089D01*
X750552Y-964960D01*
X749789Y-966816D01*
X749167Y-968200D01*
X746293Y-973498D01*
X742778Y-978405D01*
X738696Y-982863D01*
X734119Y-986816D01*
X729120Y-990206D01*
X723771Y-992976D01*
X718147Y-995070D01*
X713415Y-996234D01*
X707139Y-997047D01*
X700976Y-997100D01*
X694974Y-996428D01*
X689183Y-995062D01*
X683650Y-993035D01*
X678424Y-990380D01*
X673554Y-987128D01*
X669088Y-983313D01*
X665074Y-978967D01*
X661562Y-974123D01*
X658600Y-968812D01*
X656236Y-963068D01*
X654518Y-956924D01*
X654481Y-956753D01*
X654163Y-954984D01*
X653951Y-953060D01*
X653831Y-950790D01*
X653791Y-947986D01*
X653793Y-946831D01*
X653831Y-944662D01*
X653931Y-942566D01*
X654111Y-940442D01*
X654385Y-938189D01*
X654770Y-935707D01*
X655283Y-932896D01*
X655940Y-929655D01*
X656756Y-925885D01*
X657748Y-921483D01*
X658169Y-919645D01*
X661021Y-908304D01*
X664400Y-896686D01*
X668241Y-884977D01*
X672477Y-873363D01*
X677041Y-862029D01*
X681867Y-851161D01*
X685308Y-844045D01*
X686757Y-841292D01*
X688036Y-839189D01*
X689228Y-837632D01*
X690412Y-836516D01*
X691670Y-835739D01*
X691856Y-835652D01*
X693659Y-835055D01*
X695341Y-835060D01*
G36*
X695341Y-835060D02*
G01*
X696765Y-835455D01*
X698737Y-836541D01*
X700761Y-838373D01*
X702796Y-840911D01*
X703126Y-841389D01*
X708533Y-848713D01*
X714454Y-855459D01*
X720858Y-861606D01*
X727716Y-867127D01*
X735000Y-872000D01*
X742680Y-876199D01*
X748335Y-878750D01*
X751454Y-879985D01*
X754593Y-881107D01*
X757955Y-882182D01*
X761743Y-883275D01*
X765037Y-884161D01*
X766861Y-884692D01*
X768166Y-885234D01*
X769216Y-885918D01*
X770058Y-886663D01*
X771402Y-888219D01*
X772210Y-889858D01*
X772486Y-891689D01*
X772235Y-893822D01*
X771462Y-896367D01*
X770542Y-898610D01*
X765598Y-910662D01*
X761270Y-923091D01*
X757540Y-935955D01*
X754390Y-949313D01*
X753761Y-952381D01*
X753051Y-955850D01*
X752420Y-958688D01*
X751823Y-961050D01*
X751215Y-963089D01*
X750552Y-964960D01*
X749789Y-966816D01*
X749167Y-968200D01*
X746293Y-973498D01*
X742778Y-978405D01*
X738696Y-982863D01*
X734119Y-986816D01*
X729120Y-990206D01*
X723771Y-992976D01*
X718147Y-995070D01*
X713415Y-996234D01*
X707139Y-997047D01*
X700976Y-997100D01*
X694974Y-996428D01*
X689183Y-995062D01*
X683650Y-993035D01*
X678424Y-990380D01*
X673554Y-987128D01*
X669088Y-983313D01*
X665074Y-978967D01*
X661562Y-974123D01*
X658600Y-968812D01*
X656236Y-963068D01*
X654518Y-956924D01*
X654481Y-956753D01*
X654163Y-954984D01*
X653951Y-953060D01*
X653831Y-950790D01*
X653791Y-947986D01*
X653793Y-946831D01*
X653831Y-944662D01*
X653931Y-942566D01*
X654111Y-940442D01*
X654385Y-938189D01*
X654770Y-935707D01*
X655283Y-932896D01*
X655940Y-929655D01*
X656756Y-925885D01*
X657748Y-921483D01*
X658169Y-919645D01*
X661021Y-908304D01*
X664400Y-896686D01*
X668241Y-884977D01*
X672477Y-873363D01*
X677041Y-862029D01*
X681867Y-851161D01*
X685308Y-844045D01*
X686757Y-841292D01*
X688036Y-839189D01*
X689228Y-837632D01*
X690412Y-836516D01*
X691670Y-835739D01*
X691856Y-835652D01*
X693659Y-835055D01*
X695341Y-835060D01*
G37*
X816203Y-746728D02*
X817101Y-746928D01*
X820104Y-748152D01*
X822602Y-749942D01*
X824538Y-752220D01*
X825857Y-754906D01*
X826501Y-757923D01*
X826528Y-760073D01*
X826481Y-760824D01*
X826421Y-761511D01*
X826317Y-762169D01*
X826137Y-762833D01*
X825851Y-763540D01*
X825426Y-764326D01*
X824832Y-765225D01*
X824038Y-766274D01*
X823011Y-767508D01*
X821722Y-768963D01*
X820138Y-770675D01*
X818229Y-772680D01*
X815963Y-775013D01*
X813309Y-777710D01*
X810236Y-780806D01*
X806712Y-784338D01*
X802706Y-788341D01*
X798188Y-792851D01*
X795557Y-795476D01*
X790901Y-800122D01*
X786771Y-804238D01*
X783134Y-807859D01*
X779953Y-811017D01*
X777196Y-813745D01*
X774827Y-816075D01*
X772812Y-818042D01*
X771117Y-819676D01*
X769706Y-821012D01*
X768545Y-822082D01*
X767600Y-822919D01*
X766837Y-823555D01*
X766220Y-824025D01*
X765715Y-824359D01*
X765287Y-824592D01*
X764903Y-824757D01*
X764685Y-824834D01*
X761532Y-825506D01*
X758441Y-825445D01*
X755519Y-824692D01*
X752872Y-823286D01*
X750608Y-821267D01*
X748988Y-818965D01*
X748429Y-817884D01*
X748083Y-816933D01*
X747899Y-815861D01*
X747828Y-814419D01*
X747818Y-813084D01*
X747853Y-811130D01*
X747984Y-809712D01*
X748255Y-808573D01*
X748707Y-807459D01*
X748768Y-807329D01*
X749035Y-806886D01*
X749511Y-806253D01*
X750226Y-805400D01*
X751209Y-804296D01*
X752489Y-802911D01*
X754094Y-801216D01*
X756055Y-799181D01*
X758400Y-796774D01*
X761158Y-793966D01*
X764359Y-790727D01*
X768030Y-787026D01*
X772203Y-782834D01*
X776904Y-778120D01*
X777938Y-777084D01*
X782616Y-772403D01*
X786768Y-768252D01*
X790430Y-764600D01*
X793634Y-761414D01*
X796416Y-758662D01*
X798808Y-756310D01*
X800845Y-754326D01*
X802560Y-752678D01*
X803988Y-751333D01*
X805162Y-750258D01*
X806116Y-749421D01*
X806885Y-748789D01*
X807502Y-748330D01*
X808000Y-748010D01*
X808376Y-747816D01*
X810932Y-746963D01*
X813642Y-746590D01*
X816203Y-746728D01*
G36*
X816203Y-746728D02*
G01*
X817101Y-746928D01*
X820104Y-748152D01*
X822602Y-749942D01*
X824538Y-752220D01*
X825857Y-754906D01*
X826501Y-757923D01*
X826528Y-760073D01*
X826481Y-760824D01*
X826421Y-761511D01*
X826317Y-762169D01*
X826137Y-762833D01*
X825851Y-763540D01*
X825426Y-764326D01*
X824832Y-765225D01*
X824038Y-766274D01*
X823011Y-767508D01*
X821722Y-768963D01*
X820138Y-770675D01*
X818229Y-772680D01*
X815963Y-775013D01*
X813309Y-777710D01*
X810236Y-780806D01*
X806712Y-784338D01*
X802706Y-788341D01*
X798188Y-792851D01*
X795557Y-795476D01*
X790901Y-800122D01*
X786771Y-804238D01*
X783134Y-807859D01*
X779953Y-811017D01*
X777196Y-813745D01*
X774827Y-816075D01*
X772812Y-818042D01*
X771117Y-819676D01*
X769706Y-821012D01*
X768545Y-822082D01*
X767600Y-822919D01*
X766837Y-823555D01*
X766220Y-824025D01*
X765715Y-824359D01*
X765287Y-824592D01*
X764903Y-824757D01*
X764685Y-824834D01*
X761532Y-825506D01*
X758441Y-825445D01*
X755519Y-824692D01*
X752872Y-823286D01*
X750608Y-821267D01*
X748988Y-818965D01*
X748429Y-817884D01*
X748083Y-816933D01*
X747899Y-815861D01*
X747828Y-814419D01*
X747818Y-813084D01*
X747853Y-811130D01*
X747984Y-809712D01*
X748255Y-808573D01*
X748707Y-807459D01*
X748768Y-807329D01*
X749035Y-806886D01*
X749511Y-806253D01*
X750226Y-805400D01*
X751209Y-804296D01*
X752489Y-802911D01*
X754094Y-801216D01*
X756055Y-799181D01*
X758400Y-796774D01*
X761158Y-793966D01*
X764359Y-790727D01*
X768030Y-787026D01*
X772203Y-782834D01*
X776904Y-778120D01*
X777938Y-777084D01*
X782616Y-772403D01*
X786768Y-768252D01*
X790430Y-764600D01*
X793634Y-761414D01*
X796416Y-758662D01*
X798808Y-756310D01*
X800845Y-754326D01*
X802560Y-752678D01*
X803988Y-751333D01*
X805162Y-750258D01*
X806116Y-749421D01*
X806885Y-748789D01*
X807502Y-748330D01*
X808000Y-748010D01*
X808376Y-747816D01*
X810932Y-746963D01*
X813642Y-746590D01*
X816203Y-746728D01*
G37*
%TO.C,MH2*%
X707557Y997289D02*
X713519Y996520D01*
X719298Y995039D01*
X719680Y994912D01*
X725286Y992621D01*
X730581Y989641D01*
X735496Y986039D01*
X739964Y981883D01*
X743915Y977239D01*
X747280Y972174D01*
X749991Y966754D01*
X750859Y964553D01*
X751314Y963124D01*
X751867Y961102D01*
X752471Y958674D01*
X753081Y956026D01*
X753649Y953347D01*
X753658Y953303D01*
X755821Y943330D01*
X758180Y933953D01*
X760791Y924987D01*
X763711Y916248D01*
X766996Y907550D01*
X768951Y902780D01*
X770319Y899329D01*
X771257Y896446D01*
X771769Y894034D01*
X771862Y891998D01*
X771541Y890243D01*
X770810Y888671D01*
X769815Y887343D01*
X768920Y886416D01*
X767949Y885649D01*
X766763Y884976D01*
X765224Y884328D01*
X763193Y883640D01*
X760531Y882843D01*
X760442Y882817D01*
X754763Y881049D01*
X749590Y879144D01*
X744636Y876992D01*
X741329Y875372D01*
X733816Y871098D01*
X726658Y866146D01*
X719929Y860578D01*
X713700Y854458D01*
X708045Y847848D01*
X705269Y844116D01*
X703076Y841236D01*
X701043Y839061D01*
X699096Y837536D01*
X697165Y836608D01*
X695175Y836223D01*
X694659Y836204D01*
X692804Y836393D01*
X691130Y837027D01*
X689568Y838170D01*
X688045Y839890D01*
X686492Y842252D01*
X684837Y845323D01*
X684821Y845354D01*
X679081Y857513D01*
X673738Y870277D01*
X668827Y883548D01*
X664379Y897226D01*
X660430Y911210D01*
X657013Y925402D01*
X655772Y931266D01*
X654691Y937214D01*
X654000Y942527D01*
X653694Y947261D01*
X653770Y951471D01*
X654157Y954830D01*
X655606Y961174D01*
X657744Y967152D01*
X660546Y972730D01*
X663988Y977872D01*
X668048Y982544D01*
X672699Y986711D01*
X677920Y990338D01*
X678751Y990833D01*
X684022Y993463D01*
X689645Y995434D01*
X695514Y996736D01*
X701520Y997358D01*
X707557Y997289D01*
G36*
X707557Y997289D02*
G01*
X713519Y996520D01*
X719298Y995039D01*
X719680Y994912D01*
X725286Y992621D01*
X730581Y989641D01*
X735496Y986039D01*
X739964Y981883D01*
X743915Y977239D01*
X747280Y972174D01*
X749991Y966754D01*
X750859Y964553D01*
X751314Y963124D01*
X751867Y961102D01*
X752471Y958674D01*
X753081Y956026D01*
X753649Y953347D01*
X753658Y953303D01*
X755821Y943330D01*
X758180Y933953D01*
X760791Y924987D01*
X763711Y916248D01*
X766996Y907550D01*
X768951Y902780D01*
X770319Y899329D01*
X771257Y896446D01*
X771769Y894034D01*
X771862Y891998D01*
X771541Y890243D01*
X770810Y888671D01*
X769815Y887343D01*
X768920Y886416D01*
X767949Y885649D01*
X766763Y884976D01*
X765224Y884328D01*
X763193Y883640D01*
X760531Y882843D01*
X760442Y882817D01*
X754763Y881049D01*
X749590Y879144D01*
X744636Y876992D01*
X741329Y875372D01*
X733816Y871098D01*
X726658Y866146D01*
X719929Y860578D01*
X713700Y854458D01*
X708045Y847848D01*
X705269Y844116D01*
X703076Y841236D01*
X701043Y839061D01*
X699096Y837536D01*
X697165Y836608D01*
X695175Y836223D01*
X694659Y836204D01*
X692804Y836393D01*
X691130Y837027D01*
X689568Y838170D01*
X688045Y839890D01*
X686492Y842252D01*
X684837Y845323D01*
X684821Y845354D01*
X679081Y857513D01*
X673738Y870277D01*
X668827Y883548D01*
X664379Y897226D01*
X660430Y911210D01*
X657013Y925402D01*
X655772Y931266D01*
X654691Y937214D01*
X654000Y942527D01*
X653694Y947261D01*
X653770Y951471D01*
X654157Y954830D01*
X655606Y961174D01*
X657744Y967152D01*
X660546Y972730D01*
X663988Y977872D01*
X668048Y982544D01*
X672699Y986711D01*
X677920Y990338D01*
X678751Y990833D01*
X684022Y993463D01*
X689645Y995434D01*
X695514Y996736D01*
X701520Y997358D01*
X707557Y997289D01*
G37*
X760884Y826721D02*
X761571Y826661D01*
X762229Y826557D01*
X762894Y826377D01*
X763601Y826091D01*
X764386Y825666D01*
X765285Y825072D01*
X766334Y824278D01*
X767568Y823251D01*
X769024Y821962D01*
X770736Y820378D01*
X772740Y818469D01*
X775073Y816203D01*
X777770Y813549D01*
X780867Y810476D01*
X784399Y806952D01*
X788402Y802946D01*
X792911Y798428D01*
X795537Y795797D01*
X800182Y791141D01*
X804299Y787011D01*
X807919Y783374D01*
X811077Y780193D01*
X813805Y777436D01*
X816136Y775067D01*
X818102Y773052D01*
X819736Y771357D01*
X821072Y769946D01*
X822142Y768785D01*
X822979Y767840D01*
X823616Y767077D01*
X824085Y766460D01*
X824420Y765955D01*
X824653Y765527D01*
X824817Y765143D01*
X824894Y764925D01*
X825566Y761772D01*
X825505Y758681D01*
X824752Y755759D01*
X823346Y753112D01*
X821327Y750848D01*
X819025Y749228D01*
X817944Y748669D01*
X816993Y748323D01*
X815921Y748139D01*
X814479Y748068D01*
X813144Y748058D01*
X811190Y748093D01*
X809772Y748224D01*
X808634Y748495D01*
X807519Y748947D01*
X807389Y749008D01*
X806946Y749275D01*
X806313Y749751D01*
X805460Y750466D01*
X804356Y751449D01*
X802972Y752729D01*
X801277Y754334D01*
X799241Y756295D01*
X796834Y758640D01*
X794026Y761398D01*
X790787Y764599D01*
X787086Y768270D01*
X782894Y772443D01*
X778180Y777144D01*
X777145Y778178D01*
X772463Y782856D01*
X768313Y787008D01*
X764661Y790670D01*
X761475Y793874D01*
X758722Y796656D01*
X756370Y799048D01*
X754386Y801085D01*
X752738Y802800D01*
X751393Y804228D01*
X750318Y805402D01*
X749481Y806356D01*
X748849Y807125D01*
X748390Y807742D01*
X748071Y808240D01*
X747876Y808616D01*
X747023Y811172D01*
X746651Y813882D01*
X746788Y816443D01*
X746988Y817341D01*
X748212Y820344D01*
X750003Y822842D01*
X752280Y824778D01*
X754967Y826097D01*
X757983Y826741D01*
X760133Y826768D01*
X760884Y826721D01*
G36*
X760884Y826721D02*
G01*
X761571Y826661D01*
X762229Y826557D01*
X762894Y826377D01*
X763601Y826091D01*
X764386Y825666D01*
X765285Y825072D01*
X766334Y824278D01*
X767568Y823251D01*
X769024Y821962D01*
X770736Y820378D01*
X772740Y818469D01*
X775073Y816203D01*
X777770Y813549D01*
X780867Y810476D01*
X784399Y806952D01*
X788402Y802946D01*
X792911Y798428D01*
X795537Y795797D01*
X800182Y791141D01*
X804299Y787011D01*
X807919Y783374D01*
X811077Y780193D01*
X813805Y777436D01*
X816136Y775067D01*
X818102Y773052D01*
X819736Y771357D01*
X821072Y769946D01*
X822142Y768785D01*
X822979Y767840D01*
X823616Y767077D01*
X824085Y766460D01*
X824420Y765955D01*
X824653Y765527D01*
X824817Y765143D01*
X824894Y764925D01*
X825566Y761772D01*
X825505Y758681D01*
X824752Y755759D01*
X823346Y753112D01*
X821327Y750848D01*
X819025Y749228D01*
X817944Y748669D01*
X816993Y748323D01*
X815921Y748139D01*
X814479Y748068D01*
X813144Y748058D01*
X811190Y748093D01*
X809772Y748224D01*
X808634Y748495D01*
X807519Y748947D01*
X807389Y749008D01*
X806946Y749275D01*
X806313Y749751D01*
X805460Y750466D01*
X804356Y751449D01*
X802972Y752729D01*
X801277Y754334D01*
X799241Y756295D01*
X796834Y758640D01*
X794026Y761398D01*
X790787Y764599D01*
X787086Y768270D01*
X782894Y772443D01*
X778180Y777144D01*
X777145Y778178D01*
X772463Y782856D01*
X768313Y787008D01*
X764661Y790670D01*
X761475Y793874D01*
X758722Y796656D01*
X756370Y799048D01*
X754386Y801085D01*
X752738Y802800D01*
X751393Y804228D01*
X750318Y805402D01*
X749481Y806356D01*
X748849Y807125D01*
X748390Y807742D01*
X748071Y808240D01*
X747876Y808616D01*
X747023Y811172D01*
X746651Y813882D01*
X746788Y816443D01*
X746988Y817341D01*
X748212Y820344D01*
X750003Y822842D01*
X752280Y824778D01*
X754967Y826097D01*
X757983Y826741D01*
X760133Y826768D01*
X760884Y826721D01*
G37*
X893882Y772475D02*
X896428Y771702D01*
X898671Y770782D01*
X910723Y765838D01*
X923152Y761510D01*
X936016Y757780D01*
X949373Y754630D01*
X952442Y754001D01*
X955910Y753291D01*
X958748Y752660D01*
X961110Y752063D01*
X963149Y751455D01*
X965020Y750792D01*
X966876Y750029D01*
X968260Y749407D01*
X973558Y746533D01*
X978465Y743018D01*
X982923Y738936D01*
X986876Y734359D01*
X990266Y729360D01*
X993037Y724011D01*
X995130Y718387D01*
X996295Y713655D01*
X997107Y707379D01*
X997161Y701216D01*
X996488Y695214D01*
X995122Y689423D01*
X993095Y683890D01*
X990440Y678664D01*
X987188Y673794D01*
X983373Y669328D01*
X979027Y665314D01*
X974183Y661802D01*
X968872Y658840D01*
X963129Y656476D01*
X956984Y654758D01*
X956813Y654721D01*
X955045Y654403D01*
X953121Y654191D01*
X950851Y654071D01*
X948046Y654031D01*
X946891Y654033D01*
X944723Y654071D01*
X942626Y654171D01*
X940502Y654351D01*
X938249Y654625D01*
X935767Y655010D01*
X932956Y655523D01*
X929716Y656180D01*
X925945Y656996D01*
X921544Y657988D01*
X919705Y658409D01*
X908364Y661261D01*
X896746Y664640D01*
X885037Y668481D01*
X873423Y672717D01*
X862089Y677281D01*
X851222Y682107D01*
X844105Y685548D01*
X841352Y686997D01*
X839249Y688276D01*
X837692Y689468D01*
X836577Y690652D01*
X835800Y691910D01*
X835712Y692096D01*
X835115Y693899D01*
X835120Y695581D01*
X835516Y697005D01*
X836601Y698977D01*
X838433Y701001D01*
X840971Y703036D01*
X841450Y703366D01*
X848773Y708773D01*
X855520Y714694D01*
X861666Y721098D01*
X867188Y727956D01*
X872060Y735240D01*
X876260Y742920D01*
X878810Y748575D01*
X880045Y751694D01*
X881167Y754833D01*
X882242Y758195D01*
X883336Y761983D01*
X884221Y765277D01*
X884752Y767101D01*
X885294Y768406D01*
X885978Y769456D01*
X886723Y770298D01*
X888279Y771642D01*
X889918Y772450D01*
X891749Y772726D01*
X893882Y772475D01*
G36*
X893882Y772475D02*
G01*
X896428Y771702D01*
X898671Y770782D01*
X910723Y765838D01*
X923152Y761510D01*
X936016Y757780D01*
X949373Y754630D01*
X952442Y754001D01*
X955910Y753291D01*
X958748Y752660D01*
X961110Y752063D01*
X963149Y751455D01*
X965020Y750792D01*
X966876Y750029D01*
X968260Y749407D01*
X973558Y746533D01*
X978465Y743018D01*
X982923Y738936D01*
X986876Y734359D01*
X990266Y729360D01*
X993037Y724011D01*
X995130Y718387D01*
X996295Y713655D01*
X997107Y707379D01*
X997161Y701216D01*
X996488Y695214D01*
X995122Y689423D01*
X993095Y683890D01*
X990440Y678664D01*
X987188Y673794D01*
X983373Y669328D01*
X979027Y665314D01*
X974183Y661802D01*
X968872Y658840D01*
X963129Y656476D01*
X956984Y654758D01*
X956813Y654721D01*
X955045Y654403D01*
X953121Y654191D01*
X950851Y654071D01*
X948046Y654031D01*
X946891Y654033D01*
X944723Y654071D01*
X942626Y654171D01*
X940502Y654351D01*
X938249Y654625D01*
X935767Y655010D01*
X932956Y655523D01*
X929716Y656180D01*
X925945Y656996D01*
X921544Y657988D01*
X919705Y658409D01*
X908364Y661261D01*
X896746Y664640D01*
X885037Y668481D01*
X873423Y672717D01*
X862089Y677281D01*
X851222Y682107D01*
X844105Y685548D01*
X841352Y686997D01*
X839249Y688276D01*
X837692Y689468D01*
X836577Y690652D01*
X835800Y691910D01*
X835712Y692096D01*
X835115Y693899D01*
X835120Y695581D01*
X835516Y697005D01*
X836601Y698977D01*
X838433Y701001D01*
X840971Y703036D01*
X841450Y703366D01*
X848773Y708773D01*
X855520Y714694D01*
X861666Y721098D01*
X867188Y727956D01*
X872060Y735240D01*
X876260Y742920D01*
X878810Y748575D01*
X880045Y751694D01*
X881167Y754833D01*
X882242Y758195D01*
X883336Y761983D01*
X884221Y765277D01*
X884752Y767101D01*
X885294Y768406D01*
X885978Y769456D01*
X886723Y770298D01*
X888279Y771642D01*
X889918Y772450D01*
X891749Y772726D01*
X893882Y772475D01*
G37*
%TO.C,MH1*%
X-889984Y771069D02*
X-888412Y770338D01*
X-887084Y769343D01*
X-886157Y768448D01*
X-885391Y767477D01*
X-884717Y766292D01*
X-884070Y764752D01*
X-883381Y762721D01*
X-882584Y760059D01*
X-882559Y759970D01*
X-880790Y754291D01*
X-878886Y749118D01*
X-876733Y744164D01*
X-875114Y740858D01*
X-870840Y733344D01*
X-865887Y726186D01*
X-860319Y719457D01*
X-854199Y713228D01*
X-847589Y707574D01*
X-843857Y704797D01*
X-840977Y702604D01*
X-838802Y700571D01*
X-837278Y698625D01*
X-836350Y696693D01*
X-835964Y694703D01*
X-835946Y694187D01*
X-836135Y692332D01*
X-836768Y690658D01*
X-837912Y689096D01*
X-839632Y687573D01*
X-841994Y686020D01*
X-845064Y684365D01*
X-845095Y684349D01*
X-857254Y678609D01*
X-870019Y673267D01*
X-883290Y668355D01*
X-896967Y663907D01*
X-910952Y659958D01*
X-925143Y656541D01*
X-931007Y655300D01*
X-936955Y654219D01*
X-942268Y653528D01*
X-947003Y653222D01*
X-951213Y653298D01*
X-954572Y653685D01*
X-960915Y655134D01*
X-966893Y657272D01*
X-972471Y660074D01*
X-977614Y663517D01*
X-982286Y667576D01*
X-986453Y672227D01*
X-990079Y677448D01*
X-990575Y678279D01*
X-993204Y683550D01*
X-995175Y689174D01*
X-996477Y695042D01*
X-997099Y701048D01*
X-997031Y707085D01*
X-996261Y713047D01*
X-994780Y718827D01*
X-994654Y719208D01*
X-992362Y724814D01*
X-989382Y730109D01*
X-985781Y735025D01*
X-981625Y739492D01*
X-976980Y743443D01*
X-971915Y746808D01*
X-966495Y749519D01*
X-964294Y750387D01*
X-962866Y750842D01*
X-960843Y751395D01*
X-958415Y751999D01*
X-955767Y752609D01*
X-953088Y753177D01*
X-953044Y753186D01*
X-943071Y755349D01*
X-933694Y757708D01*
X-924729Y760319D01*
X-915989Y763240D01*
X-907291Y766524D01*
X-902521Y768479D01*
X-899071Y769847D01*
X-896187Y770785D01*
X-893776Y771297D01*
X-891740Y771390D01*
X-889984Y771069D01*
G36*
X-889984Y771069D02*
G01*
X-888412Y770338D01*
X-887084Y769343D01*
X-886157Y768448D01*
X-885391Y767477D01*
X-884717Y766292D01*
X-884070Y764752D01*
X-883381Y762721D01*
X-882584Y760059D01*
X-882559Y759970D01*
X-880790Y754291D01*
X-878886Y749118D01*
X-876733Y744164D01*
X-875114Y740858D01*
X-870840Y733344D01*
X-865887Y726186D01*
X-860319Y719457D01*
X-854199Y713228D01*
X-847589Y707574D01*
X-843857Y704797D01*
X-840977Y702604D01*
X-838802Y700571D01*
X-837278Y698625D01*
X-836350Y696693D01*
X-835964Y694703D01*
X-835946Y694187D01*
X-836135Y692332D01*
X-836768Y690658D01*
X-837912Y689096D01*
X-839632Y687573D01*
X-841994Y686020D01*
X-845064Y684365D01*
X-845095Y684349D01*
X-857254Y678609D01*
X-870019Y673267D01*
X-883290Y668355D01*
X-896967Y663907D01*
X-910952Y659958D01*
X-925143Y656541D01*
X-931007Y655300D01*
X-936955Y654219D01*
X-942268Y653528D01*
X-947003Y653222D01*
X-951213Y653298D01*
X-954572Y653685D01*
X-960915Y655134D01*
X-966893Y657272D01*
X-972471Y660074D01*
X-977614Y663517D01*
X-982286Y667576D01*
X-986453Y672227D01*
X-990079Y677448D01*
X-990575Y678279D01*
X-993204Y683550D01*
X-995175Y689174D01*
X-996477Y695042D01*
X-997099Y701048D01*
X-997031Y707085D01*
X-996261Y713047D01*
X-994780Y718827D01*
X-994654Y719208D01*
X-992362Y724814D01*
X-989382Y730109D01*
X-985781Y735025D01*
X-981625Y739492D01*
X-976980Y743443D01*
X-971915Y746808D01*
X-966495Y749519D01*
X-964294Y750387D01*
X-962866Y750842D01*
X-960843Y751395D01*
X-958415Y751999D01*
X-955767Y752609D01*
X-953088Y753177D01*
X-953044Y753186D01*
X-943071Y755349D01*
X-933694Y757708D01*
X-924729Y760319D01*
X-915989Y763240D01*
X-907291Y766524D01*
X-902521Y768479D01*
X-899071Y769847D01*
X-896187Y770785D01*
X-893776Y771297D01*
X-891740Y771390D01*
X-889984Y771069D01*
G37*
X-694956Y996016D02*
X-689164Y994651D01*
X-683631Y992624D01*
X-678405Y989968D01*
X-673535Y986716D01*
X-669069Y982901D01*
X-665056Y978555D01*
X-661543Y973711D01*
X-658581Y968401D01*
X-656217Y962657D01*
X-654500Y956512D01*
X-654463Y956341D01*
X-654145Y954573D01*
X-653932Y952649D01*
X-653813Y950379D01*
X-653772Y947574D01*
X-653775Y946419D01*
X-653812Y944251D01*
X-653913Y942154D01*
X-654092Y940030D01*
X-654366Y937777D01*
X-654752Y935296D01*
X-655265Y932485D01*
X-655921Y929244D01*
X-656737Y925473D01*
X-657729Y921072D01*
X-658151Y919233D01*
X-661002Y907892D01*
X-664382Y896274D01*
X-668223Y884565D01*
X-672459Y872951D01*
X-677023Y861617D01*
X-681849Y850750D01*
X-685290Y843633D01*
X-686738Y840880D01*
X-688018Y838777D01*
X-689209Y837220D01*
X-690393Y836105D01*
X-691651Y835328D01*
X-691837Y835241D01*
X-693640Y834643D01*
X-695323Y834648D01*
X-696747Y835044D01*
X-698718Y836129D01*
X-700743Y837961D01*
X-702777Y840499D01*
X-703107Y840978D01*
X-708515Y848301D01*
X-714435Y855048D01*
X-720839Y861194D01*
X-727698Y866716D01*
X-734981Y871588D01*
X-742661Y875788D01*
X-748316Y878339D01*
X-751435Y879573D01*
X-754574Y880695D01*
X-757936Y881770D01*
X-761724Y882864D01*
X-765018Y883749D01*
X-766842Y884281D01*
X-768147Y884822D01*
X-769197Y885506D01*
X-770039Y886251D01*
X-771383Y887808D01*
X-772191Y889446D01*
X-772467Y891277D01*
X-772217Y893411D01*
X-771443Y895956D01*
X-770524Y898199D01*
X-765579Y910251D01*
X-761251Y922680D01*
X-757521Y935544D01*
X-754371Y948902D01*
X-753743Y951970D01*
X-753032Y955438D01*
X-752401Y958276D01*
X-751804Y960638D01*
X-751196Y962677D01*
X-750533Y964548D01*
X-749770Y966404D01*
X-749148Y967788D01*
X-746274Y973086D01*
X-742760Y977993D01*
X-738677Y982451D01*
X-734100Y986404D01*
X-729101Y989794D01*
X-723753Y992565D01*
X-718128Y994658D01*
X-713396Y995823D01*
X-707120Y996635D01*
X-700957Y996689D01*
X-694956Y996016D01*
G36*
X-694956Y996016D02*
G01*
X-689164Y994651D01*
X-683631Y992624D01*
X-678405Y989968D01*
X-673535Y986716D01*
X-669069Y982901D01*
X-665056Y978555D01*
X-661543Y973711D01*
X-658581Y968401D01*
X-656217Y962657D01*
X-654500Y956512D01*
X-654463Y956341D01*
X-654145Y954573D01*
X-653932Y952649D01*
X-653813Y950379D01*
X-653772Y947574D01*
X-653775Y946419D01*
X-653812Y944251D01*
X-653913Y942154D01*
X-654092Y940030D01*
X-654366Y937777D01*
X-654752Y935296D01*
X-655265Y932485D01*
X-655921Y929244D01*
X-656737Y925473D01*
X-657729Y921072D01*
X-658151Y919233D01*
X-661002Y907892D01*
X-664382Y896274D01*
X-668223Y884565D01*
X-672459Y872951D01*
X-677023Y861617D01*
X-681849Y850750D01*
X-685290Y843633D01*
X-686738Y840880D01*
X-688018Y838777D01*
X-689209Y837220D01*
X-690393Y836105D01*
X-691651Y835328D01*
X-691837Y835241D01*
X-693640Y834643D01*
X-695323Y834648D01*
X-696747Y835044D01*
X-698718Y836129D01*
X-700743Y837961D01*
X-702777Y840499D01*
X-703107Y840978D01*
X-708515Y848301D01*
X-714435Y855048D01*
X-720839Y861194D01*
X-727698Y866716D01*
X-734981Y871588D01*
X-742661Y875788D01*
X-748316Y878339D01*
X-751435Y879573D01*
X-754574Y880695D01*
X-757936Y881770D01*
X-761724Y882864D01*
X-765018Y883749D01*
X-766842Y884281D01*
X-768147Y884822D01*
X-769197Y885506D01*
X-770039Y886251D01*
X-771383Y887808D01*
X-772191Y889446D01*
X-772467Y891277D01*
X-772217Y893411D01*
X-771443Y895956D01*
X-770524Y898199D01*
X-765579Y910251D01*
X-761251Y922680D01*
X-757521Y935544D01*
X-754371Y948902D01*
X-753743Y951970D01*
X-753032Y955438D01*
X-752401Y958276D01*
X-751804Y960638D01*
X-751196Y962677D01*
X-750533Y964548D01*
X-749770Y966404D01*
X-749148Y967788D01*
X-746274Y973086D01*
X-742760Y977993D01*
X-738677Y982451D01*
X-734100Y986404D01*
X-729101Y989794D01*
X-723753Y992565D01*
X-718128Y994658D01*
X-713396Y995823D01*
X-707120Y996635D01*
X-700957Y996689D01*
X-694956Y996016D01*
G37*
X-749308Y846221D02*
X-747600Y846154D01*
X-746248Y846027D01*
X-745180Y845834D01*
X-744324Y845570D01*
X-743607Y845228D01*
X-742955Y844804D01*
X-742296Y844291D01*
X-741969Y844023D01*
X-740882Y842872D01*
X-739850Y841353D01*
X-739020Y839731D01*
X-738538Y838271D01*
X-738473Y837697D01*
X-738386Y837112D01*
X-738137Y835836D01*
X-737744Y833949D01*
X-737225Y831533D01*
X-736596Y828668D01*
X-735876Y825435D01*
X-735083Y821917D01*
X-734306Y818511D01*
X-733243Y813850D01*
X-732357Y809890D01*
X-731637Y806564D01*
X-731074Y803802D01*
X-730658Y801536D01*
X-730377Y799695D01*
X-730223Y798211D01*
X-730184Y797015D01*
X-730250Y796037D01*
X-730412Y795210D01*
X-730660Y794462D01*
X-730733Y794281D01*
X-731915Y792274D01*
X-733606Y790449D01*
X-735459Y789143D01*
X-737295Y788511D01*
X-739520Y788243D01*
X-741816Y788340D01*
X-743870Y788800D01*
X-744652Y789138D01*
X-746260Y790239D01*
X-747798Y791715D01*
X-749013Y793302D01*
X-749492Y794220D01*
X-749726Y794965D01*
X-750095Y796345D01*
X-750567Y798222D01*
X-751105Y800457D01*
X-751676Y802912D01*
X-751768Y803317D01*
X-752314Y805706D01*
X-752804Y807815D01*
X-753209Y809529D01*
X-753503Y810730D01*
X-753657Y811302D01*
X-753670Y811333D01*
X-753939Y811076D01*
X-754612Y810298D01*
X-755603Y809101D01*
X-756827Y807590D01*
X-757617Y806598D01*
X-767578Y794685D01*
X-778137Y783292D01*
X-789295Y772421D01*
X-801051Y762071D01*
X-807038Y757183D01*
X-808749Y755794D01*
X-810191Y754568D01*
X-811271Y753592D01*
X-811893Y752950D01*
X-811999Y752735D01*
X-811541Y752566D01*
X-810428Y752238D01*
X-808777Y751783D01*
X-806705Y751233D01*
X-804327Y750619D01*
X-803362Y750374D01*
X-800267Y749588D01*
X-797837Y748954D01*
X-795966Y748431D01*
X-794549Y747982D01*
X-793480Y747567D01*
X-792653Y747149D01*
X-791962Y746688D01*
X-791302Y746146D01*
X-790952Y745834D01*
X-789229Y743788D01*
X-788161Y741455D01*
X-787731Y738965D01*
X-787919Y736452D01*
X-788707Y734046D01*
X-790076Y731878D01*
X-792008Y730080D01*
X-793291Y729304D01*
X-794404Y728801D01*
X-795519Y728470D01*
X-796747Y728320D01*
X-798196Y728360D01*
X-799978Y728598D01*
X-802203Y729043D01*
X-804981Y729705D01*
X-807926Y730460D01*
X-810751Y731197D01*
X-814135Y732077D01*
X-817870Y733046D01*
X-821746Y734049D01*
X-825556Y735033D01*
X-828934Y735904D01*
X-832622Y736861D01*
X-835625Y737670D01*
X-838030Y738366D01*
X-839923Y738987D01*
X-841391Y739569D01*
X-842521Y740150D01*
X-843400Y740766D01*
X-844114Y741455D01*
X-844749Y742253D01*
X-845130Y742800D01*
X-845526Y743408D01*
X-845857Y744002D01*
X-846124Y744651D01*
X-846330Y745426D01*
X-846477Y746394D01*
X-846566Y747626D01*
X-846600Y749190D01*
X-846580Y751156D01*
X-846509Y753592D01*
X-846388Y756568D01*
X-846220Y760154D01*
X-846007Y764418D01*
X-845844Y767594D01*
X-845633Y771579D01*
X-845421Y775361D01*
X-845214Y778860D01*
X-845016Y781994D01*
X-844833Y784681D01*
X-844672Y786839D01*
X-844536Y788388D01*
X-844431Y789245D01*
X-844411Y789339D01*
X-843415Y791668D01*
X-841858Y793572D01*
X-839870Y795014D01*
X-837582Y795958D01*
X-835125Y796366D01*
X-832631Y796202D01*
X-830229Y795428D01*
X-828051Y794009D01*
X-828000Y793964D01*
X-826562Y792360D01*
X-825446Y790489D01*
X-825390Y790363D01*
X-825069Y789578D01*
X-824840Y788852D01*
X-824695Y788044D01*
X-824624Y787012D01*
X-824616Y785614D01*
X-824662Y783708D01*
X-824753Y781153D01*
X-824754Y781121D01*
X-824856Y778606D01*
X-824971Y776169D01*
X-825087Y774002D01*
X-825196Y772297D01*
X-825264Y771451D01*
X-825361Y770457D01*
X-825382Y769758D01*
X-825251Y769381D01*
X-824891Y769352D01*
X-824224Y769700D01*
X-823175Y770451D01*
X-821667Y771633D01*
X-819623Y773272D01*
X-819237Y773581D01*
X-810930Y780523D01*
X-802721Y787926D01*
X-794731Y795668D01*
X-787081Y803625D01*
X-779889Y811674D01*
X-773276Y819694D01*
X-770015Y823933D01*
X-768864Y825470D01*
X-772421Y825216D01*
X-774125Y825120D01*
X-776370Y825029D01*
X-778903Y824952D01*
X-781471Y824898D01*
X-782328Y824885D01*
X-784846Y824868D01*
X-786716Y824895D01*
X-788083Y824978D01*
X-789093Y825127D01*
X-789889Y825355D01*
X-790265Y825507D01*
X-792545Y826924D01*
X-794390Y828897D01*
X-795694Y831266D01*
X-796351Y833866D01*
X-796409Y834897D01*
X-796046Y837470D01*
X-795030Y839898D01*
X-793475Y842009D01*
X-791493Y843631D01*
X-790362Y844210D01*
X-789878Y844400D01*
X-789359Y844564D01*
X-788736Y844707D01*
X-787945Y844833D01*
X-786917Y844948D01*
X-785587Y845055D01*
X-783887Y845159D01*
X-781750Y845264D01*
X-779110Y845375D01*
X-775901Y845495D01*
X-772055Y845631D01*
X-767505Y845785D01*
X-765749Y845844D01*
X-761165Y845995D01*
X-757302Y846115D01*
X-754086Y846196D01*
X-751446Y846233D01*
X-749308Y846221D01*
G36*
X-749308Y846221D02*
G01*
X-747600Y846154D01*
X-746248Y846027D01*
X-745180Y845834D01*
X-744324Y845570D01*
X-743607Y845228D01*
X-742955Y844804D01*
X-742296Y844291D01*
X-741969Y844023D01*
X-740882Y842872D01*
X-739850Y841353D01*
X-739020Y839731D01*
X-738538Y838271D01*
X-738473Y837697D01*
X-738386Y837112D01*
X-738137Y835836D01*
X-737744Y833949D01*
X-737225Y831533D01*
X-736596Y828668D01*
X-735876Y825435D01*
X-735083Y821917D01*
X-734306Y818511D01*
X-733243Y813850D01*
X-732357Y809890D01*
X-731637Y806564D01*
X-731074Y803802D01*
X-730658Y801536D01*
X-730377Y799695D01*
X-730223Y798211D01*
X-730184Y797015D01*
X-730250Y796037D01*
X-730412Y795210D01*
X-730660Y794462D01*
X-730733Y794281D01*
X-731915Y792274D01*
X-733606Y790449D01*
X-735459Y789143D01*
X-737295Y788511D01*
X-739520Y788243D01*
X-741816Y788340D01*
X-743870Y788800D01*
X-744652Y789138D01*
X-746260Y790239D01*
X-747798Y791715D01*
X-749013Y793302D01*
X-749492Y794220D01*
X-749726Y794965D01*
X-750095Y796345D01*
X-750567Y798222D01*
X-751105Y800457D01*
X-751676Y802912D01*
X-751768Y803317D01*
X-752314Y805706D01*
X-752804Y807815D01*
X-753209Y809529D01*
X-753503Y810730D01*
X-753657Y811302D01*
X-753670Y811333D01*
X-753939Y811076D01*
X-754612Y810298D01*
X-755603Y809101D01*
X-756827Y807590D01*
X-757617Y806598D01*
X-767578Y794685D01*
X-778137Y783292D01*
X-789295Y772421D01*
X-801051Y762071D01*
X-807038Y757183D01*
X-808749Y755794D01*
X-810191Y754568D01*
X-811271Y753592D01*
X-811893Y752950D01*
X-811999Y752735D01*
X-811541Y752566D01*
X-810428Y752238D01*
X-808777Y751783D01*
X-806705Y751233D01*
X-804327Y750619D01*
X-803362Y750374D01*
X-800267Y749588D01*
X-797837Y748954D01*
X-795966Y748431D01*
X-794549Y747982D01*
X-793480Y747567D01*
X-792653Y747149D01*
X-791962Y746688D01*
X-791302Y746146D01*
X-790952Y745834D01*
X-789229Y743788D01*
X-788161Y741455D01*
X-787731Y738965D01*
X-787919Y736452D01*
X-788707Y734046D01*
X-790076Y731878D01*
X-792008Y730080D01*
X-793291Y729304D01*
X-794404Y728801D01*
X-795519Y728470D01*
X-796747Y728320D01*
X-798196Y728360D01*
X-799978Y728598D01*
X-802203Y729043D01*
X-804981Y729705D01*
X-807926Y730460D01*
X-810751Y731197D01*
X-814135Y732077D01*
X-817870Y733046D01*
X-821746Y734049D01*
X-825556Y735033D01*
X-828934Y735904D01*
X-832622Y736861D01*
X-835625Y737670D01*
X-838030Y738366D01*
X-839923Y738987D01*
X-841391Y739569D01*
X-842521Y740150D01*
X-843400Y740766D01*
X-844114Y741455D01*
X-844749Y742253D01*
X-845130Y742800D01*
X-845526Y743408D01*
X-845857Y744002D01*
X-846124Y744651D01*
X-846330Y745426D01*
X-846477Y746394D01*
X-846566Y747626D01*
X-846600Y749190D01*
X-846580Y751156D01*
X-846509Y753592D01*
X-846388Y756568D01*
X-846220Y760154D01*
X-846007Y764418D01*
X-845844Y767594D01*
X-845633Y771579D01*
X-845421Y775361D01*
X-845214Y778860D01*
X-845016Y781994D01*
X-844833Y784681D01*
X-844672Y786839D01*
X-844536Y788388D01*
X-844431Y789245D01*
X-844411Y789339D01*
X-843415Y791668D01*
X-841858Y793572D01*
X-839870Y795014D01*
X-837582Y795958D01*
X-835125Y796366D01*
X-832631Y796202D01*
X-830229Y795428D01*
X-828051Y794009D01*
X-828000Y793964D01*
X-826562Y792360D01*
X-825446Y790489D01*
X-825390Y790363D01*
X-825069Y789578D01*
X-824840Y788852D01*
X-824695Y788044D01*
X-824624Y787012D01*
X-824616Y785614D01*
X-824662Y783708D01*
X-824753Y781153D01*
X-824754Y781121D01*
X-824856Y778606D01*
X-824971Y776169D01*
X-825087Y774002D01*
X-825196Y772297D01*
X-825264Y771451D01*
X-825361Y770457D01*
X-825382Y769758D01*
X-825251Y769381D01*
X-824891Y769352D01*
X-824224Y769700D01*
X-823175Y770451D01*
X-821667Y771633D01*
X-819623Y773272D01*
X-819237Y773581D01*
X-810930Y780523D01*
X-802721Y787926D01*
X-794731Y795668D01*
X-787081Y803625D01*
X-779889Y811674D01*
X-773276Y819694D01*
X-770015Y823933D01*
X-768864Y825470D01*
X-772421Y825216D01*
X-774125Y825120D01*
X-776370Y825029D01*
X-778903Y824952D01*
X-781471Y824898D01*
X-782328Y824885D01*
X-784846Y824868D01*
X-786716Y824895D01*
X-788083Y824978D01*
X-789093Y825127D01*
X-789889Y825355D01*
X-790265Y825507D01*
X-792545Y826924D01*
X-794390Y828897D01*
X-795694Y831266D01*
X-796351Y833866D01*
X-796409Y834897D01*
X-796046Y837470D01*
X-795030Y839898D01*
X-793475Y842009D01*
X-791493Y843631D01*
X-790362Y844210D01*
X-789878Y844400D01*
X-789359Y844564D01*
X-788736Y844707D01*
X-787945Y844833D01*
X-786917Y844948D01*
X-785587Y845055D01*
X-783887Y845159D01*
X-781750Y845264D01*
X-779110Y845375D01*
X-775901Y845495D01*
X-772055Y845631D01*
X-767505Y845785D01*
X-765749Y845844D01*
X-761165Y845995D01*
X-757302Y846115D01*
X-754086Y846196D01*
X-751446Y846233D01*
X-749308Y846221D01*
G37*
%TD*%
M02*
