G04 #@! TF.GenerationSoftware,KiCad,Pcbnew,9.0.0*
G04 #@! TF.CreationDate,2025-03-28T12:53:33+00:00*
G04 #@! TF.ProjectId,vm_rgb_ring_0.2,766d5f72-6762-45f7-9269-6e675f302e32,v0.2*
G04 #@! TF.SameCoordinates,PX4f64b50PY4749830*
G04 #@! TF.FileFunction,AssemblyDrawing,Top*
%FSLAX45Y45*%
G04 Gerber Fmt 4.5, Leading zero omitted, Abs format (unit mm)*
G04 Created by KiCad (PCBNEW 9.0.0) date 2025-03-28 12:53:33*
%MOMM*%
%LPD*%
G01*
G04 APERTURE LIST*
%ADD10C,0.150000*%
%ADD11C,0.060000*%
%ADD12C,0.100000*%
%ADD13C,0.120000*%
G04 APERTURE END LIST*
D10*
X415720Y1623810D02*
X420482Y1638095D01*
X420482Y1638095D02*
X420482Y1661905D01*
X420482Y1661905D02*
X415720Y1671429D01*
X415720Y1671429D02*
X410958Y1676190D01*
X410958Y1676190D02*
X401434Y1680952D01*
X401434Y1680952D02*
X391910Y1680952D01*
X391910Y1680952D02*
X382387Y1676190D01*
X382387Y1676190D02*
X377625Y1671429D01*
X377625Y1671429D02*
X372863Y1661905D01*
X372863Y1661905D02*
X368101Y1642857D01*
X368101Y1642857D02*
X363339Y1633333D01*
X363339Y1633333D02*
X358577Y1628571D01*
X358577Y1628571D02*
X349053Y1623810D01*
X349053Y1623810D02*
X339530Y1623810D01*
X339530Y1623810D02*
X330006Y1628571D01*
X330006Y1628571D02*
X325244Y1633333D01*
X325244Y1633333D02*
X320482Y1642857D01*
X320482Y1642857D02*
X320482Y1666667D01*
X320482Y1666667D02*
X325244Y1680952D01*
X320482Y1714286D02*
X420482Y1738095D01*
X420482Y1738095D02*
X349053Y1757143D01*
X349053Y1757143D02*
X420482Y1776190D01*
X420482Y1776190D02*
X320482Y1800000D01*
X420482Y1838095D02*
X320482Y1838095D01*
X320482Y1838095D02*
X320482Y1861905D01*
X320482Y1861905D02*
X325244Y1876190D01*
X325244Y1876190D02*
X334768Y1885714D01*
X334768Y1885714D02*
X344291Y1890476D01*
X344291Y1890476D02*
X363339Y1895238D01*
X363339Y1895238D02*
X377625Y1895238D01*
X377625Y1895238D02*
X396672Y1890476D01*
X396672Y1890476D02*
X406196Y1885714D01*
X406196Y1885714D02*
X415720Y1876190D01*
X415720Y1876190D02*
X420482Y1861905D01*
X420482Y1861905D02*
X420482Y1838095D01*
X420482Y1938095D02*
X320482Y1938095D01*
X320482Y2004762D02*
X320482Y2023809D01*
X320482Y2023809D02*
X325244Y2033333D01*
X325244Y2033333D02*
X334768Y2042857D01*
X334768Y2042857D02*
X353815Y2047619D01*
X353815Y2047619D02*
X387148Y2047619D01*
X387148Y2047619D02*
X406196Y2042857D01*
X406196Y2042857D02*
X415720Y2033333D01*
X415720Y2033333D02*
X420482Y2023809D01*
X420482Y2023809D02*
X420482Y2004762D01*
X420482Y2004762D02*
X415720Y1995238D01*
X415720Y1995238D02*
X406196Y1985714D01*
X406196Y1985714D02*
X387148Y1980952D01*
X387148Y1980952D02*
X353815Y1980952D01*
X353815Y1980952D02*
X334768Y1985714D01*
X334768Y1985714D02*
X325244Y1995238D01*
X325244Y1995238D02*
X320482Y2004762D01*
X382387Y2076190D02*
X377625Y2080952D01*
X377625Y2080952D02*
X372863Y2090476D01*
X372863Y2090476D02*
X382387Y2109524D01*
X382387Y2109524D02*
X377625Y2119048D01*
X377625Y2119048D02*
X372863Y2123810D01*
X330006Y2147619D02*
X315720Y2166667D01*
X315720Y2166667D02*
X330006Y2185714D01*
X-2172619Y279518D02*
X-2172619Y208090D01*
X-2172619Y208090D02*
X-2177381Y193804D01*
X-2177381Y193804D02*
X-2186905Y184280D01*
X-2186905Y184280D02*
X-2201191Y179518D01*
X-2201191Y179518D02*
X-2210714Y179518D01*
X-2125000Y179518D02*
X-2125000Y279518D01*
X-2125000Y279518D02*
X-2101191Y279518D01*
X-2101191Y279518D02*
X-2086905Y274756D01*
X-2086905Y274756D02*
X-2077381Y265232D01*
X-2077381Y265232D02*
X-2072619Y255709D01*
X-2072619Y255709D02*
X-2067857Y236661D01*
X-2067857Y236661D02*
X-2067857Y222375D01*
X-2067857Y222375D02*
X-2072619Y203328D01*
X-2072619Y203328D02*
X-2077381Y193804D01*
X-2077381Y193804D02*
X-2086905Y184280D01*
X-2086905Y184280D02*
X-2101191Y179518D01*
X-2101191Y179518D02*
X-2125000Y179518D01*
X-2048809Y169994D02*
X-1972619Y169994D01*
X-1948809Y179518D02*
X-1948809Y279518D01*
X-1948809Y279518D02*
X-1925000Y279518D01*
X-1925000Y279518D02*
X-1910714Y274756D01*
X-1910714Y274756D02*
X-1901190Y265232D01*
X-1901190Y265232D02*
X-1896429Y255709D01*
X-1896429Y255709D02*
X-1891667Y236661D01*
X-1891667Y236661D02*
X-1891667Y222375D01*
X-1891667Y222375D02*
X-1896429Y203328D01*
X-1896429Y203328D02*
X-1901190Y193804D01*
X-1901190Y193804D02*
X-1910714Y184280D01*
X-1910714Y184280D02*
X-1925000Y179518D01*
X-1925000Y179518D02*
X-1948809Y179518D01*
X-1853571Y208090D02*
X-1805952Y208090D01*
X-1863095Y179518D02*
X-1829762Y279518D01*
X-1829762Y279518D02*
X-1796429Y179518D01*
X-1777381Y279518D02*
X-1720238Y279518D01*
X-1748809Y179518D02*
X-1748809Y279518D01*
X-1691667Y208090D02*
X-1644048Y208090D01*
X-1701190Y179518D02*
X-1667857Y279518D01*
X-1667857Y279518D02*
X-1634524Y179518D01*
X215720Y1623810D02*
X220482Y1638095D01*
X220482Y1638095D02*
X220482Y1661905D01*
X220482Y1661905D02*
X215720Y1671429D01*
X215720Y1671429D02*
X210958Y1676190D01*
X210958Y1676190D02*
X201434Y1680952D01*
X201434Y1680952D02*
X191910Y1680952D01*
X191910Y1680952D02*
X182387Y1676190D01*
X182387Y1676190D02*
X177625Y1671429D01*
X177625Y1671429D02*
X172863Y1661905D01*
X172863Y1661905D02*
X168101Y1642857D01*
X168101Y1642857D02*
X163339Y1633333D01*
X163339Y1633333D02*
X158577Y1628571D01*
X158577Y1628571D02*
X149053Y1623810D01*
X149053Y1623810D02*
X139530Y1623810D01*
X139530Y1623810D02*
X130006Y1628571D01*
X130006Y1628571D02*
X125244Y1633333D01*
X125244Y1633333D02*
X120482Y1642857D01*
X120482Y1642857D02*
X120482Y1666667D01*
X120482Y1666667D02*
X125244Y1680952D01*
X120482Y1714286D02*
X220482Y1738095D01*
X220482Y1738095D02*
X149053Y1757143D01*
X149053Y1757143D02*
X220482Y1776190D01*
X220482Y1776190D02*
X120482Y1800000D01*
X210958Y1895238D02*
X215720Y1890476D01*
X215720Y1890476D02*
X220482Y1876190D01*
X220482Y1876190D02*
X220482Y1866667D01*
X220482Y1866667D02*
X215720Y1852381D01*
X215720Y1852381D02*
X206196Y1842857D01*
X206196Y1842857D02*
X196672Y1838095D01*
X196672Y1838095D02*
X177625Y1833333D01*
X177625Y1833333D02*
X163339Y1833333D01*
X163339Y1833333D02*
X144291Y1838095D01*
X144291Y1838095D02*
X134768Y1842857D01*
X134768Y1842857D02*
X125244Y1852381D01*
X125244Y1852381D02*
X120482Y1866667D01*
X120482Y1866667D02*
X120482Y1876190D01*
X120482Y1876190D02*
X125244Y1890476D01*
X125244Y1890476D02*
X130006Y1895238D01*
X220482Y1985714D02*
X220482Y1938095D01*
X220482Y1938095D02*
X120482Y1938095D01*
X220482Y2019048D02*
X120482Y2019048D01*
X220482Y2076190D02*
X163339Y2033333D01*
X120482Y2076190D02*
X177625Y2019048D01*
X20482Y1679762D02*
X-27137Y1646429D01*
X20482Y1622619D02*
X-79518Y1622619D01*
X-79518Y1622619D02*
X-79518Y1660714D01*
X-79518Y1660714D02*
X-74756Y1670238D01*
X-74756Y1670238D02*
X-69994Y1675000D01*
X-69994Y1675000D02*
X-60470Y1679762D01*
X-60470Y1679762D02*
X-46185Y1679762D01*
X-46185Y1679762D02*
X-36661Y1675000D01*
X-36661Y1675000D02*
X-31899Y1670238D01*
X-31899Y1670238D02*
X-27137Y1660714D01*
X-27137Y1660714D02*
X-27137Y1622619D01*
X-31899Y1722619D02*
X-31899Y1755952D01*
X20482Y1770238D02*
X20482Y1722619D01*
X20482Y1722619D02*
X-79518Y1722619D01*
X-79518Y1722619D02*
X-79518Y1770238D01*
X15720Y1808333D02*
X20482Y1822619D01*
X20482Y1822619D02*
X20482Y1846429D01*
X20482Y1846429D02*
X15720Y1855952D01*
X15720Y1855952D02*
X10958Y1860714D01*
X10958Y1860714D02*
X1434Y1865476D01*
X1434Y1865476D02*
X-8090Y1865476D01*
X-8090Y1865476D02*
X-17613Y1860714D01*
X-17613Y1860714D02*
X-22375Y1855952D01*
X-22375Y1855952D02*
X-27137Y1846429D01*
X-27137Y1846429D02*
X-31899Y1827381D01*
X-31899Y1827381D02*
X-36661Y1817857D01*
X-36661Y1817857D02*
X-41423Y1813095D01*
X-41423Y1813095D02*
X-50947Y1808333D01*
X-50947Y1808333D02*
X-60470Y1808333D01*
X-60470Y1808333D02*
X-69994Y1813095D01*
X-69994Y1813095D02*
X-74756Y1817857D01*
X-74756Y1817857D02*
X-79518Y1827381D01*
X-79518Y1827381D02*
X-79518Y1851190D01*
X-79518Y1851190D02*
X-74756Y1865476D01*
X-31899Y1908333D02*
X-31899Y1941667D01*
X20482Y1955952D02*
X20482Y1908333D01*
X20482Y1908333D02*
X-79518Y1908333D01*
X-79518Y1908333D02*
X-79518Y1955952D01*
X-79518Y1984524D02*
X-79518Y2041667D01*
X20482Y2013095D02*
X-79518Y2013095D01*
X-1851190Y-225244D02*
X-1860714Y-220482D01*
X-1860714Y-220482D02*
X-1875000Y-220482D01*
X-1875000Y-220482D02*
X-1889286Y-225244D01*
X-1889286Y-225244D02*
X-1898809Y-234768D01*
X-1898809Y-234768D02*
X-1903571Y-244291D01*
X-1903571Y-244291D02*
X-1908333Y-263339D01*
X-1908333Y-263339D02*
X-1908333Y-277625D01*
X-1908333Y-277625D02*
X-1903571Y-296672D01*
X-1903571Y-296672D02*
X-1898809Y-306196D01*
X-1898809Y-306196D02*
X-1889286Y-315720D01*
X-1889286Y-315720D02*
X-1875000Y-320482D01*
X-1875000Y-320482D02*
X-1865476Y-320482D01*
X-1865476Y-320482D02*
X-1851190Y-315720D01*
X-1851190Y-315720D02*
X-1846429Y-310958D01*
X-1846429Y-310958D02*
X-1846429Y-277625D01*
X-1846429Y-277625D02*
X-1865476Y-277625D01*
X-1803571Y-320482D02*
X-1803571Y-220482D01*
X-1803571Y-220482D02*
X-1746429Y-320482D01*
X-1746429Y-320482D02*
X-1746429Y-220482D01*
X-1698809Y-320482D02*
X-1698809Y-220482D01*
X-1698809Y-220482D02*
X-1675000Y-220482D01*
X-1675000Y-220482D02*
X-1660714Y-225244D01*
X-1660714Y-225244D02*
X-1651190Y-234768D01*
X-1651190Y-234768D02*
X-1646429Y-244291D01*
X-1646429Y-244291D02*
X-1641667Y-263339D01*
X-1641667Y-263339D02*
X-1641667Y-277625D01*
X-1641667Y-277625D02*
X-1646429Y-296672D01*
X-1646429Y-296672D02*
X-1651190Y-306196D01*
X-1651190Y-306196D02*
X-1660714Y-315720D01*
X-1660714Y-315720D02*
X-1675000Y-320482D01*
X-1675000Y-320482D02*
X-1698809Y-320482D01*
X-2130952Y29518D02*
X-2130952Y-41910D01*
X-2130952Y-41910D02*
X-2135714Y-56196D01*
X-2135714Y-56196D02*
X-2145238Y-65720D01*
X-2145238Y-65720D02*
X-2159524Y-70482D01*
X-2159524Y-70482D02*
X-2169048Y-70482D01*
X-2083333Y-70482D02*
X-2083333Y29518D01*
X-2083333Y29518D02*
X-2059524Y29518D01*
X-2059524Y29518D02*
X-2045238Y24756D01*
X-2045238Y24756D02*
X-2035714Y15232D01*
X-2035714Y15232D02*
X-2030952Y5709D01*
X-2030952Y5709D02*
X-2026190Y-13339D01*
X-2026190Y-13339D02*
X-2026190Y-27625D01*
X-2026190Y-27625D02*
X-2030952Y-46672D01*
X-2030952Y-46672D02*
X-2035714Y-56196D01*
X-2035714Y-56196D02*
X-2045238Y-65720D01*
X-2045238Y-65720D02*
X-2059524Y-70482D01*
X-2059524Y-70482D02*
X-2083333Y-70482D01*
X-2007143Y-80006D02*
X-1930952Y-80006D01*
X-1907143Y-70482D02*
X-1907143Y29518D01*
X-1907143Y29518D02*
X-1869048Y29518D01*
X-1869048Y29518D02*
X-1859524Y24756D01*
X-1859524Y24756D02*
X-1854762Y19994D01*
X-1854762Y19994D02*
X-1850000Y10471D01*
X-1850000Y10471D02*
X-1850000Y-3815D01*
X-1850000Y-3815D02*
X-1854762Y-13339D01*
X-1854762Y-13339D02*
X-1859524Y-18101D01*
X-1859524Y-18101D02*
X-1869048Y-22863D01*
X-1869048Y-22863D02*
X-1907143Y-22863D01*
X-1816667Y29518D02*
X-1792857Y-70482D01*
X-1792857Y-70482D02*
X-1773809Y947D01*
X-1773809Y947D02*
X-1754762Y-70482D01*
X-1754762Y-70482D02*
X-1730952Y29518D01*
X-1635714Y-70482D02*
X-1669048Y-22863D01*
X-1692857Y-70482D02*
X-1692857Y29518D01*
X-1692857Y29518D02*
X-1654762Y29518D01*
X-1654762Y29518D02*
X-1645238Y24756D01*
X-1645238Y24756D02*
X-1640476Y19994D01*
X-1640476Y19994D02*
X-1635714Y10471D01*
X-1635714Y10471D02*
X-1635714Y-3815D01*
X-1635714Y-3815D02*
X-1640476Y-13339D01*
X-1640476Y-13339D02*
X-1645238Y-18101D01*
X-1645238Y-18101D02*
X-1654762Y-22863D01*
X-1654762Y-22863D02*
X-1692857Y-22863D01*
D11*
X-452341Y1287748D02*
G75*
G02*
X-458341Y1287748I-3000J0D01*
G01*
X-458341Y1287748D02*
G75*
G02*
X-452341Y1287748I3000J0D01*
G01*
D12*
X325000Y1500000D02*
X425000Y1500000D01*
X375000Y1550000D02*
X375000Y1450000D01*
X425000Y1500000D02*
G75*
G02*
X325000Y1500000I-50000J0D01*
G01*
X325000Y1500000D02*
G75*
G02*
X425000Y1500000I50000J0D01*
G01*
X-1550000Y225000D02*
X-1450000Y225000D01*
X-1500000Y275000D02*
X-1500000Y175000D01*
X-1450000Y225000D02*
G75*
G02*
X-1550000Y225000I-50000J0D01*
G01*
X-1550000Y225000D02*
G75*
G02*
X-1450000Y225000I50000J0D01*
G01*
D13*
X41900Y719060D02*
X372100Y719060D01*
X41900Y363460D02*
X41900Y719060D01*
X372100Y719060D02*
X499100Y592060D01*
X499100Y592060D02*
X499100Y363460D01*
X499100Y363460D02*
X41900Y363460D01*
D11*
X-117000Y440000D02*
G75*
G02*
X-123000Y440000I-3000J0D01*
G01*
X-123000Y440000D02*
G75*
G02*
X-117000Y440000I3000J0D01*
G01*
X496089Y-878612D02*
G75*
G02*
X490089Y-878612I-3000J0D01*
G01*
X490089Y-878612D02*
G75*
G02*
X496089Y-878612I3000J0D01*
G01*
X460506Y-1300000D02*
G75*
G02*
X454506Y-1300000I-3000J0D01*
G01*
X454506Y-1300000D02*
G75*
G02*
X460506Y-1300000I3000J0D01*
G01*
D12*
X125000Y1500000D02*
X225000Y1500000D01*
X175000Y1550000D02*
X175000Y1450000D01*
X225000Y1500000D02*
G75*
G02*
X125000Y1500000I-50000J0D01*
G01*
X125000Y1500000D02*
G75*
G02*
X225000Y1500000I50000J0D01*
G01*
D11*
X-486789Y867941D02*
G75*
G02*
X-492789Y867941I-3000J0D01*
G01*
X-492789Y867941D02*
G75*
G02*
X-486789Y867941I3000J0D01*
G01*
X-247000Y57000D02*
G75*
G02*
X-253000Y57000I-3000J0D01*
G01*
X-253000Y57000D02*
G75*
G02*
X-247000Y57000I3000J0D01*
G01*
D12*
X-75000Y1500000D02*
X25000Y1500000D01*
X-25000Y1550000D02*
X-25000Y1450000D01*
X25000Y1500000D02*
G75*
G02*
X-75000Y1500000I-50000J0D01*
G01*
X-75000Y1500000D02*
G75*
G02*
X25000Y1500000I50000J0D01*
G01*
D11*
X-297000Y-560000D02*
G75*
G02*
X-303000Y-560000I-3000J0D01*
G01*
X-303000Y-560000D02*
G75*
G02*
X-297000Y-560000I3000J0D01*
G01*
X-277000Y440000D02*
G75*
G02*
X-283000Y440000I-3000J0D01*
G01*
X-283000Y440000D02*
G75*
G02*
X-277000Y440000I3000J0D01*
G01*
X969650Y-275335D02*
G75*
G02*
X963650Y-275335I-3000J0D01*
G01*
X963650Y-275335D02*
G75*
G02*
X969650Y-275335I3000J0D01*
G01*
X606787Y1235355D02*
G75*
G02*
X600787Y1235355I-3000J0D01*
G01*
X600787Y1235355D02*
G75*
G02*
X606787Y1235355I3000J0D01*
G01*
X553000Y-70000D02*
G75*
G02*
X547000Y-70000I-3000J0D01*
G01*
X547000Y-70000D02*
G75*
G02*
X553000Y-70000I3000J0D01*
G01*
X-297000Y-300000D02*
G75*
G02*
X-303000Y-300000I-3000J0D01*
G01*
X-303000Y-300000D02*
G75*
G02*
X-297000Y-300000I3000J0D01*
G01*
X613000Y-240000D02*
G75*
G02*
X607000Y-240000I-3000J0D01*
G01*
X607000Y-240000D02*
G75*
G02*
X613000Y-240000I3000J0D01*
G01*
X-210000Y-400000D02*
G75*
G02*
X-216000Y-400000I-3000J0D01*
G01*
X-216000Y-400000D02*
G75*
G02*
X-210000Y-400000I3000J0D01*
G01*
X-265350Y-970335D02*
G75*
G02*
X-271350Y-970335I-3000J0D01*
G01*
X-271350Y-970335D02*
G75*
G02*
X-265350Y-970335I3000J0D01*
G01*
X-1286163Y-459171D02*
G75*
G02*
X-1292163Y-459171I-3000J0D01*
G01*
X-1292163Y-459171D02*
G75*
G02*
X-1286163Y-459171I3000J0D01*
G01*
X1237127Y-595648D02*
G75*
G02*
X1231127Y-595648I-3000J0D01*
G01*
X1231127Y-595648D02*
G75*
G02*
X1237127Y-595648I3000J0D01*
G01*
X877927Y486104D02*
G75*
G02*
X871927Y486104I-3000J0D01*
G01*
X871927Y486104D02*
G75*
G02*
X877927Y486104I3000J0D01*
G01*
X1294061Y449918D02*
G75*
G02*
X1288061Y449918I-3000J0D01*
G01*
X1288061Y449918D02*
G75*
G02*
X1294061Y449918I3000J0D01*
G01*
X-960350Y264665D02*
G75*
G02*
X-966350Y264665I-3000J0D01*
G01*
X-966350Y264665D02*
G75*
G02*
X-960350Y264665I3000J0D01*
G01*
D12*
X-1550000Y-275000D02*
X-1450000Y-275000D01*
X-1500000Y-225000D02*
X-1500000Y-325000D01*
X-1450000Y-275000D02*
G75*
G02*
X-1550000Y-275000I-50000J0D01*
G01*
X-1550000Y-275000D02*
G75*
G02*
X-1450000Y-275000I50000J0D01*
G01*
D11*
X-287000Y350000D02*
G75*
G02*
X-293000Y350000I-3000J0D01*
G01*
X-293000Y350000D02*
G75*
G02*
X-287000Y350000I3000J0D01*
G01*
X274650Y959665D02*
G75*
G02*
X268650Y959665I-3000J0D01*
G01*
X268650Y959665D02*
G75*
G02*
X274650Y959665I3000J0D01*
G01*
X33000Y-580000D02*
G75*
G02*
X27000Y-580000I-3000J0D01*
G01*
X27000Y-580000D02*
G75*
G02*
X33000Y-580000I3000J0D01*
G01*
X-868627Y-496774D02*
G75*
G02*
X-874627Y-496774I-3000J0D01*
G01*
X-874627Y-496774D02*
G75*
G02*
X-868627Y-496774I3000J0D01*
G01*
X-1232349Y586858D02*
G75*
G02*
X-1238349Y586858I-3000J0D01*
G01*
X-1238349Y586858D02*
G75*
G02*
X-1232349Y586858I3000J0D01*
G01*
D12*
X-1550000Y-25000D02*
X-1450000Y-25000D01*
X-1500000Y25000D02*
X-1500000Y-75000D01*
X-1450000Y-25000D02*
G75*
G02*
X-1550000Y-25000I-50000J0D01*
G01*
X-1550000Y-25000D02*
G75*
G02*
X-1450000Y-25000I50000J0D01*
G01*
D11*
X-287000Y220000D02*
G75*
G02*
X-293000Y220000I-3000J0D01*
G01*
X-293000Y220000D02*
G75*
G02*
X-287000Y220000I3000J0D01*
G01*
X-297000Y-430000D02*
G75*
G02*
X-303000Y-430000I-3000J0D01*
G01*
X-303000Y-430000D02*
G75*
G02*
X-297000Y-430000I3000J0D01*
G01*
X783000Y340000D02*
G75*
G02*
X777000Y340000I-3000J0D01*
G01*
X777000Y340000D02*
G75*
G02*
X783000Y340000I3000J0D01*
G01*
X-589567Y-1240351D02*
G75*
G02*
X-595567Y-1240351I-3000J0D01*
G01*
X-595567Y-1240351D02*
G75*
G02*
X-589567Y-1240351I3000J0D01*
G01*
X-552000Y682000D02*
G75*
G02*
X-558000Y682000I-3000J0D01*
G01*
X-558000Y682000D02*
G75*
G02*
X-552000Y682000I3000J0D01*
G01*
M02*
