G04 #@! TF.GenerationSoftware,KiCad,Pcbnew,9.0.0*
G04 #@! TF.CreationDate,2025-03-28T12:53:33+00:00*
G04 #@! TF.ProjectId,vm_rgb_ring_0.2,766d5f72-6762-45f7-9269-6e675f302e32,v0.2*
G04 #@! TF.SameCoordinates,PX4f64b50PY4749830*
G04 #@! TF.FileFunction,Paste,Top*
G04 #@! TF.FilePolarity,Positive*
%FSLAX45Y45*%
G04 Gerber Fmt 4.5, Leading zero omitted, Abs format (unit mm)*
G04 Created by KiCad (PCBNEW 9.0.0) date 2025-03-28 12:53:33*
%MOMM*%
%LPD*%
G01*
G04 APERTURE LIST*
G04 Aperture macros list*
%AMRotRect*
0 Rectangle, with rotation*
0 The origin of the aperture is its center*
0 $1 length*
0 $2 width*
0 $3 Rotation angle, in degrees counterclockwise*
0 Add horizontal line*
21,1,$1,$2,0,0,$3*%
G04 Aperture macros list end*
%ADD10R,0.900000X0.800000*%
%ADD11R,0.860000X0.810000*%
%ADD12RotRect,1.500000X1.000000X45.000000*%
%ADD13RotRect,1.500000X1.000000X225.000000*%
%ADD14R,0.700000X1.000000*%
%ADD15R,0.800000X0.800000*%
%ADD16R,1.000000X1.500000*%
%ADD17RotRect,0.800000X0.900000X225.000000*%
%ADD18R,0.700000X1.250000*%
%ADD19R,0.800000X0.900000*%
%ADD20R,0.810000X0.860000*%
%ADD21O,0.360000X1.740000*%
%ADD22R,1.500000X1.000000*%
%ADD23RotRect,0.800000X0.900000X135.000000*%
%ADD24RotRect,1.500000X1.000000X135.000000*%
%ADD25R,1.230000X1.360000*%
%ADD26RotRect,1.500000X1.000000X315.000000*%
%ADD27RotRect,0.800000X0.900000X315.000000*%
%ADD28RotRect,0.800000X0.900000X45.000000*%
%ADD29R,0.750000X1.000000*%
G04 APERTURE END LIST*
D10*
X-415341Y1277748D03*
X-415341Y1137748D03*
D11*
X-160000Y445000D03*
X-160000Y595000D03*
D12*
X567335Y-924574D03*
X800681Y-1157919D03*
X1154234Y-804366D03*
X920889Y-571021D03*
D10*
X417506Y-1290000D03*
X417506Y-1150000D03*
D13*
X-564035Y913903D03*
X-797381Y1147249D03*
X-1150934Y793695D03*
X-917589Y560350D03*
D14*
X-305000Y40000D03*
X-400000Y40000D03*
X-495000Y40000D03*
X-495000Y-200000D03*
X-305000Y-200000D03*
D15*
X-295000Y-600000D03*
X-465000Y-600000D03*
D11*
X-320000Y445000D03*
X-320000Y595000D03*
D16*
X1051650Y-255335D03*
X1381650Y-255335D03*
X1381650Y244665D03*
X1051650Y244665D03*
D17*
X625000Y1200000D03*
X526005Y1101005D03*
D18*
X600000Y-50000D03*
X790000Y-50000D03*
X695000Y150000D03*
D19*
X-310000Y-340000D03*
X-450000Y-340000D03*
D20*
X615000Y-200000D03*
X765000Y-200000D03*
D21*
X-181000Y-367000D03*
X-116000Y-367000D03*
X-51000Y-367000D03*
X14000Y-367000D03*
X80000Y-367000D03*
X145000Y-367000D03*
X210000Y-367000D03*
X275000Y-367000D03*
X340000Y-367000D03*
X405000Y-367000D03*
X405000Y207000D03*
X340000Y207000D03*
X275000Y207000D03*
X210000Y207000D03*
X145000Y207000D03*
X80000Y207000D03*
X14000Y207000D03*
X-51000Y207000D03*
X-116000Y207000D03*
X-181000Y207000D03*
D22*
X-248350Y-1055335D03*
X-248350Y-1385335D03*
X251650Y-1385335D03*
X251650Y-1055335D03*
D19*
X-1279163Y-419171D03*
X-1139163Y-419171D03*
D23*
X1198772Y-616861D03*
X1099777Y-517866D03*
D24*
X920889Y560350D03*
X1154234Y793695D03*
X800681Y1147249D03*
X567335Y913903D03*
D19*
X1281061Y409918D03*
X1141061Y409918D03*
D16*
X-1048350Y244665D03*
X-1378350Y244665D03*
X-1378350Y-255335D03*
X-1048350Y-255335D03*
D25*
X330000Y-760000D03*
X-106000Y-760000D03*
D20*
X-295000Y310000D03*
X-445000Y310000D03*
D22*
X251650Y1044665D03*
X251650Y1374665D03*
X-248350Y1374665D03*
X-248350Y1044665D03*
D19*
X40000Y-540000D03*
X180000Y-540000D03*
D26*
X-917589Y-571021D03*
X-1150934Y-804366D03*
X-797381Y-1157919D03*
X-564035Y-924574D03*
D27*
X-1199994Y608071D03*
X-1100999Y509076D03*
D19*
X-300000Y180000D03*
X-440000Y180000D03*
D20*
X-305000Y-470000D03*
X-455000Y-470000D03*
X775000Y300000D03*
X625000Y300000D03*
D28*
X-613780Y-1204996D03*
X-514785Y-1106001D03*
D29*
X-490000Y677000D03*
X-490000Y443000D03*
M02*
