%TF.GenerationSoftware,KiCad,Pcbnew,9.0.0*%
%TF.CreationDate,2025-04-22T14:22:18+01:00*%
%TF.ProjectId,vm_keycap_button_0.3,766d5f6b-6579-4636-9170-5f627574746f,v0.3*%
%TF.SameCoordinates,PX5742de0PY47868c0*%
%TF.FileFunction,Soldermask,Top*%
%TF.FilePolarity,Negative*%
%FSLAX45Y45*%
G04 Gerber Fmt 4.5, Leading zero omitted, Abs format (unit mm)*
G04 Created by KiCad (PCBNEW 9.0.0) date 2025-04-22 14:22:18*
%MOMM*%
%LPD*%
G01*
G04 APERTURE LIST*
G04 Aperture macros list*
%AMRoundRect*
0 Rectangle with rounded corners*
0 $1 Rounding radius*
0 $2 $3 $4 $5 $6 $7 $8 $9 X,Y pos of 4 corners*
0 Add a 4 corners polygon primitive as box body*
4,1,4,$2,$3,$4,$5,$6,$7,$8,$9,$2,$3,0*
0 Add four circle primitives for the rounded corners*
1,1,$1+$1,$2,$3*
1,1,$1+$1,$4,$5*
1,1,$1+$1,$6,$7*
1,1,$1+$1,$8,$9*
0 Add four rect primitives between the rounded corners*
20,1,$1+$1,$2,$3,$4,$5,0*
20,1,$1+$1,$4,$5,$6,$7,0*
20,1,$1+$1,$6,$7,$8,$9,0*
20,1,$1+$1,$8,$9,$2,$3,0*%
G04 Aperture macros list end*
%ADD10RoundRect,0.172720X-0.259080X-0.259080X0.259080X-0.259080X0.259080X0.259080X-0.259080X0.259080X0*%
%ADD11C,0.863600*%
%ADD12R,0.860000X0.810000*%
%ADD13C,1.750000*%
%ADD14C,4.000000*%
%ADD15C,2.500000*%
%ADD16R,0.700000X1.000000*%
%ADD17R,0.800000X0.800000*%
%ADD18R,0.800000X0.900000*%
%ADD19O,0.360000X1.740000*%
%ADD20R,1.230000X1.360000*%
%ADD21R,0.810000X0.860000*%
%ADD22R,0.750000X1.000000*%
G04 APERTURE END LIST*
D10*
%TO.C,J1*%
X-362500Y700000D03*
D11*
X-362500Y542520D03*
X-489500Y700000D03*
X-489500Y542520D03*
X-616500Y700000D03*
%TD*%
D12*
%TO.C,R7*%
X-920000Y525000D03*
X-920000Y675000D03*
%TD*%
D13*
%TO.C,SW2*%
X142000Y0D03*
D14*
X650000Y0D03*
D13*
X1158000Y0D03*
D15*
X269000Y254000D03*
X904000Y508000D03*
%TD*%
D16*
%TO.C,U2*%
X-1065000Y120000D03*
X-1160000Y120000D03*
X-1255000Y120000D03*
X-1255000Y-120000D03*
X-1065000Y-120000D03*
%TD*%
D17*
%TO.C,D1*%
X-1055000Y-520000D03*
X-1225000Y-520000D03*
%TD*%
D12*
%TO.C,R6*%
X-1080000Y525000D03*
X-1080000Y675000D03*
%TD*%
D18*
%TO.C,C3*%
X-1070000Y-260000D03*
X-1210000Y-260000D03*
%TD*%
D19*
%TO.C,U1*%
X-941000Y-287000D03*
X-876000Y-287000D03*
X-811000Y-287000D03*
X-746000Y-287000D03*
X-680000Y-287000D03*
X-615000Y-287000D03*
X-550000Y-287000D03*
X-485000Y-287000D03*
X-420000Y-287000D03*
X-355000Y-287000D03*
X-355000Y287000D03*
X-420000Y287000D03*
X-485000Y287000D03*
X-550000Y287000D03*
X-615000Y287000D03*
X-680000Y287000D03*
X-746000Y287000D03*
X-811000Y287000D03*
X-876000Y287000D03*
X-941000Y287000D03*
%TD*%
D20*
%TO.C,SW1*%
X-430000Y-680000D03*
X-866000Y-680000D03*
%TD*%
D21*
%TO.C,R5*%
X-1055000Y390000D03*
X-1205000Y390000D03*
%TD*%
D18*
%TO.C,C1*%
X-720000Y-460000D03*
X-580000Y-460000D03*
%TD*%
%TO.C,C2*%
X-1060000Y260000D03*
X-1200000Y260000D03*
%TD*%
D21*
%TO.C,R1*%
X-1065000Y-390000D03*
X-1215000Y-390000D03*
%TD*%
D22*
%TO.C,D2*%
X-1250000Y757000D03*
X-1250000Y523000D03*
%TD*%
M02*
