%TF.GenerationSoftware,KiCad,Pcbnew,9.0.0*%
%TF.CreationDate,2025-04-22T14:32:57+01:00*%
%TF.ProjectId,vm_jacdaptor_0.2,766d5f6a-6163-4646-9170-746f725f302e,v0.2*%
%TF.SameCoordinates,PX58b1140PY3fe56c0*%
%TF.FileFunction,Legend,Top*%
%TF.FilePolarity,Positive*%
%FSLAX45Y45*%
G04 Gerber Fmt 4.5, Leading zero omitted, Abs format (unit mm)*
G04 Created by KiCad (PCBNEW 9.0.0) date 2025-04-22 14:32:57*
%MOMM*%
%LPD*%
G01*
G04 APERTURE LIST*
%ADD10C,0.200000*%
%ADD11C,0.100000*%
%ADD12C,0.150000*%
%ADD13C,0.075000*%
G04 APERTURE END LIST*
D10*
X540000Y-640000D02*
X540000Y-800000D01*
D11*
X580000Y-640000D02*
X500000Y-640000D01*
X540000Y-600000D01*
X580000Y-640000D01*
G36*
X580000Y-640000D02*
G01*
X500000Y-640000D01*
X540000Y-600000D01*
X580000Y-640000D01*
G37*
X540000Y-840000D02*
X500000Y-800000D01*
X580000Y-800000D01*
X540000Y-840000D01*
G36*
X540000Y-840000D02*
G01*
X500000Y-800000D01*
X580000Y-800000D01*
X540000Y-840000D01*
G37*
X770000Y-700000D02*
X850000Y-700000D01*
X730000Y-820000D01*
X790000Y-710000D01*
X710000Y-710000D01*
X810000Y-600000D01*
X770000Y-700000D01*
G36*
X770000Y-700000D02*
G01*
X850000Y-700000D01*
X730000Y-820000D01*
X790000Y-710000D01*
X710000Y-710000D01*
X810000Y-600000D01*
X770000Y-700000D01*
G37*
D10*
X505804Y-911722D02*
X505804Y-983150D01*
X505804Y-983150D02*
X501042Y-997436D01*
X501042Y-997436D02*
X491518Y-1006960D01*
X491518Y-1006960D02*
X477233Y-1011722D01*
X477233Y-1011722D02*
X467709Y-1011722D01*
X596280Y-1011722D02*
X596280Y-959341D01*
X596280Y-959341D02*
X591519Y-949817D01*
X591519Y-949817D02*
X581995Y-945055D01*
X581995Y-945055D02*
X562947Y-945055D01*
X562947Y-945055D02*
X553423Y-949817D01*
X596280Y-1006960D02*
X586757Y-1011722D01*
X586757Y-1011722D02*
X562947Y-1011722D01*
X562947Y-1011722D02*
X553423Y-1006960D01*
X553423Y-1006960D02*
X548661Y-997436D01*
X548661Y-997436D02*
X548661Y-987912D01*
X548661Y-987912D02*
X553423Y-978388D01*
X553423Y-978388D02*
X562947Y-973627D01*
X562947Y-973627D02*
X586757Y-973627D01*
X586757Y-973627D02*
X596280Y-968865D01*
X686757Y-1006960D02*
X677233Y-1011722D01*
X677233Y-1011722D02*
X658185Y-1011722D01*
X658185Y-1011722D02*
X648661Y-1006960D01*
X648661Y-1006960D02*
X643900Y-1002198D01*
X643900Y-1002198D02*
X639138Y-992674D01*
X639138Y-992674D02*
X639138Y-964103D01*
X639138Y-964103D02*
X643900Y-954579D01*
X643900Y-954579D02*
X648661Y-949817D01*
X648661Y-949817D02*
X658185Y-945055D01*
X658185Y-945055D02*
X677233Y-945055D01*
X677233Y-945055D02*
X686757Y-949817D01*
X772471Y-1011722D02*
X772471Y-911722D01*
X772471Y-1006960D02*
X762947Y-1011722D01*
X762947Y-1011722D02*
X743899Y-1011722D01*
X743899Y-1011722D02*
X734376Y-1006960D01*
X734376Y-1006960D02*
X729614Y-1002198D01*
X729614Y-1002198D02*
X724852Y-992674D01*
X724852Y-992674D02*
X724852Y-964103D01*
X724852Y-964103D02*
X729614Y-954579D01*
X729614Y-954579D02*
X734376Y-949817D01*
X734376Y-949817D02*
X743899Y-945055D01*
X743899Y-945055D02*
X762947Y-945055D01*
X762947Y-945055D02*
X772471Y-949817D01*
X862947Y-1011722D02*
X862947Y-959341D01*
X862947Y-959341D02*
X858185Y-949817D01*
X858185Y-949817D02*
X848661Y-945055D01*
X848661Y-945055D02*
X829614Y-945055D01*
X829614Y-945055D02*
X820090Y-949817D01*
X862947Y-1006960D02*
X853423Y-1011722D01*
X853423Y-1011722D02*
X829614Y-1011722D01*
X829614Y-1011722D02*
X820090Y-1006960D01*
X820090Y-1006960D02*
X815328Y-997436D01*
X815328Y-997436D02*
X815328Y-987912D01*
X815328Y-987912D02*
X820090Y-978388D01*
X820090Y-978388D02*
X829614Y-973627D01*
X829614Y-973627D02*
X853423Y-973627D01*
X853423Y-973627D02*
X862947Y-968865D01*
X953423Y-1006960D02*
X943899Y-1011722D01*
X943899Y-1011722D02*
X924852Y-1011722D01*
X924852Y-1011722D02*
X915328Y-1006960D01*
X915328Y-1006960D02*
X910566Y-1002198D01*
X910566Y-1002198D02*
X905804Y-992674D01*
X905804Y-992674D02*
X905804Y-964103D01*
X905804Y-964103D02*
X910566Y-954579D01*
X910566Y-954579D02*
X915328Y-949817D01*
X915328Y-949817D02*
X924852Y-945055D01*
X924852Y-945055D02*
X943899Y-945055D01*
X943899Y-945055D02*
X953423Y-949817D01*
X477233Y-511722D02*
X477233Y-445055D01*
X477233Y-454579D02*
X481995Y-449817D01*
X481995Y-449817D02*
X491518Y-445055D01*
X491518Y-445055D02*
X505804Y-445055D01*
X505804Y-445055D02*
X515328Y-449817D01*
X515328Y-449817D02*
X520090Y-459341D01*
X520090Y-459341D02*
X520090Y-511722D01*
X520090Y-459341D02*
X524852Y-449817D01*
X524852Y-449817D02*
X534376Y-445055D01*
X534376Y-445055D02*
X548661Y-445055D01*
X548661Y-445055D02*
X558185Y-449817D01*
X558185Y-449817D02*
X562947Y-459341D01*
X562947Y-459341D02*
X562947Y-511722D01*
X610566Y-511722D02*
X610566Y-445055D01*
X610566Y-411722D02*
X605804Y-416484D01*
X605804Y-416484D02*
X610566Y-421246D01*
X610566Y-421246D02*
X615328Y-416484D01*
X615328Y-416484D02*
X610566Y-411722D01*
X610566Y-411722D02*
X610566Y-421246D01*
X701042Y-506960D02*
X691518Y-511722D01*
X691518Y-511722D02*
X672471Y-511722D01*
X672471Y-511722D02*
X662947Y-506960D01*
X662947Y-506960D02*
X658185Y-502198D01*
X658185Y-502198D02*
X653423Y-492674D01*
X653423Y-492674D02*
X653423Y-464103D01*
X653423Y-464103D02*
X658185Y-454579D01*
X658185Y-454579D02*
X662947Y-449817D01*
X662947Y-449817D02*
X672471Y-445055D01*
X672471Y-445055D02*
X691518Y-445055D01*
X691518Y-445055D02*
X701042Y-449817D01*
X743899Y-511722D02*
X743899Y-445055D01*
X743899Y-464103D02*
X748661Y-454579D01*
X748661Y-454579D02*
X753423Y-449817D01*
X753423Y-449817D02*
X762947Y-445055D01*
X762947Y-445055D02*
X772471Y-445055D01*
X820090Y-511722D02*
X810566Y-506960D01*
X810566Y-506960D02*
X805804Y-502198D01*
X805804Y-502198D02*
X801042Y-492674D01*
X801042Y-492674D02*
X801042Y-464103D01*
X801042Y-464103D02*
X805804Y-454579D01*
X805804Y-454579D02*
X810566Y-449817D01*
X810566Y-449817D02*
X820090Y-445055D01*
X820090Y-445055D02*
X834376Y-445055D01*
X834376Y-445055D02*
X843899Y-449817D01*
X843899Y-449817D02*
X848661Y-454579D01*
X848661Y-454579D02*
X853423Y-464103D01*
X853423Y-464103D02*
X853423Y-492674D01*
X853423Y-492674D02*
X848661Y-502198D01*
X848661Y-502198D02*
X843899Y-506960D01*
X843899Y-506960D02*
X834376Y-511722D01*
X834376Y-511722D02*
X820090Y-511722D01*
X896280Y-502198D02*
X901042Y-506960D01*
X901042Y-506960D02*
X896280Y-511722D01*
X896280Y-511722D02*
X891518Y-506960D01*
X891518Y-506960D02*
X896280Y-502198D01*
X896280Y-502198D02*
X896280Y-511722D01*
X896280Y-449817D02*
X901042Y-454579D01*
X901042Y-454579D02*
X896280Y-459341D01*
X896280Y-459341D02*
X891518Y-454579D01*
X891518Y-454579D02*
X896280Y-449817D01*
X896280Y-449817D02*
X896280Y-459341D01*
X943899Y-511722D02*
X943899Y-411722D01*
X943899Y-449817D02*
X953423Y-445055D01*
X953423Y-445055D02*
X972471Y-445055D01*
X972471Y-445055D02*
X981995Y-449817D01*
X981995Y-449817D02*
X986756Y-454579D01*
X986756Y-454579D02*
X991518Y-464103D01*
X991518Y-464103D02*
X991518Y-492674D01*
X991518Y-492674D02*
X986756Y-502198D01*
X986756Y-502198D02*
X981995Y-506960D01*
X981995Y-506960D02*
X972471Y-511722D01*
X972471Y-511722D02*
X953423Y-511722D01*
X953423Y-511722D02*
X943899Y-506960D01*
X1034376Y-511722D02*
X1034376Y-445055D01*
X1034376Y-411722D02*
X1029614Y-416484D01*
X1029614Y-416484D02*
X1034376Y-421246D01*
X1034376Y-421246D02*
X1039137Y-416484D01*
X1039137Y-416484D02*
X1034376Y-411722D01*
X1034376Y-411722D02*
X1034376Y-421246D01*
X1067709Y-445055D02*
X1105804Y-445055D01*
X1081995Y-411722D02*
X1081995Y-497436D01*
X1081995Y-497436D02*
X1086757Y-506960D01*
X1086757Y-506960D02*
X1096280Y-511722D01*
X1096280Y-511722D02*
X1105804Y-511722D01*
X-2793985Y-936722D02*
X-2784461Y-936722D01*
X-2784461Y-936722D02*
X-2774938Y-941484D01*
X-2774938Y-941484D02*
X-2770176Y-946246D01*
X-2770176Y-946246D02*
X-2765414Y-955769D01*
X-2765414Y-955769D02*
X-2760652Y-974817D01*
X-2760652Y-974817D02*
X-2760652Y-998627D01*
X-2760652Y-998627D02*
X-2765414Y-1017674D01*
X-2765414Y-1017674D02*
X-2770176Y-1027198D01*
X-2770176Y-1027198D02*
X-2774938Y-1031960D01*
X-2774938Y-1031960D02*
X-2784461Y-1036722D01*
X-2784461Y-1036722D02*
X-2793985Y-1036722D01*
X-2793985Y-1036722D02*
X-2803509Y-1031960D01*
X-2803509Y-1031960D02*
X-2808271Y-1027198D01*
X-2808271Y-1027198D02*
X-2813033Y-1017674D01*
X-2813033Y-1017674D02*
X-2817795Y-998627D01*
X-2817795Y-998627D02*
X-2817795Y-974817D01*
X-2817795Y-974817D02*
X-2813033Y-955769D01*
X-2813033Y-955769D02*
X-2808271Y-946246D01*
X-2808271Y-946246D02*
X-2803509Y-941484D01*
X-2803509Y-941484D02*
X-2793985Y-936722D01*
X-2717795Y-1027198D02*
X-2713033Y-1031960D01*
X-2713033Y-1031960D02*
X-2717795Y-1036722D01*
X-2717795Y-1036722D02*
X-2722557Y-1031960D01*
X-2722557Y-1031960D02*
X-2717795Y-1027198D01*
X-2717795Y-1027198D02*
X-2717795Y-1036722D01*
X-2674938Y-946246D02*
X-2670176Y-941484D01*
X-2670176Y-941484D02*
X-2660652Y-936722D01*
X-2660652Y-936722D02*
X-2636842Y-936722D01*
X-2636842Y-936722D02*
X-2627319Y-941484D01*
X-2627319Y-941484D02*
X-2622557Y-946246D01*
X-2622557Y-946246D02*
X-2617795Y-955769D01*
X-2617795Y-955769D02*
X-2617795Y-965293D01*
X-2617795Y-965293D02*
X-2622557Y-979579D01*
X-2622557Y-979579D02*
X-2679699Y-1036722D01*
X-2679699Y-1036722D02*
X-2617795Y-1036722D01*
%TO.C,U2*%
D12*
X2207500Y-357500D02*
X2092500Y-357500D01*
X2092500Y-602500D01*
X2207500Y-602500D01*
X2207500Y-357500D01*
D13*
X1971250Y-357500D02*
G75*
G02*
X1963750Y-357500I-3750J0D01*
G01*
X1963750Y-357500D02*
G75*
G02*
X1971250Y-357500I3750J0D01*
G01*
X2116250Y-377500D02*
G75*
G02*
X2108750Y-377500I-3750J0D01*
G01*
X2108750Y-377500D02*
G75*
G02*
X2116250Y-377500I3750J0D01*
G01*
%TO.C,U3*%
D12*
X-1252500Y-422500D02*
X-1117500Y-422500D01*
X-1117500Y-657500D01*
X-1252500Y-657500D01*
X-1252500Y-422500D01*
D13*
X-1133750Y-637500D02*
G75*
G02*
X-1141250Y-637500I-3750J0D01*
G01*
X-1141250Y-637500D02*
G75*
G02*
X-1133750Y-637500I3750J0D01*
G01*
X-998750Y-677500D02*
G75*
G02*
X-1006250Y-677500I-3750J0D01*
G01*
X-1006250Y-677500D02*
G75*
G02*
X-998750Y-677500I3750J0D01*
G01*
%TO.C,U1*%
D12*
X-1732500Y-642500D02*
X-1967500Y-642500D01*
X-1967500Y-777500D01*
X-1732500Y-777500D01*
X-1732500Y-642500D01*
D13*
X-1983750Y-892500D02*
G75*
G02*
X-1991250Y-892500I-3750J0D01*
G01*
X-1991250Y-892500D02*
G75*
G02*
X-1983750Y-892500I3750J0D01*
G01*
X-1943750Y-757500D02*
G75*
G02*
X-1951250Y-757500I-3750J0D01*
G01*
X-1951250Y-757500D02*
G75*
G02*
X-1943750Y-757500I3750J0D01*
G01*
%TO.C,SW1*%
X-368750Y-1017000D02*
G75*
G02*
X-376250Y-1017000I-3750J0D01*
G01*
X-376250Y-1017000D02*
G75*
G02*
X-368750Y-1017000I3750J0D01*
G01*
D12*
%TO.C,D2*%
X-1097500Y-897500D02*
X-1097500Y-962500D01*
X-1097500Y-930000D02*
X-1137500Y-930000D01*
X-1042500Y-930000D02*
X-1097500Y-897500D01*
X-1042500Y-930000D02*
X-1097500Y-962500D01*
X-1037500Y-897500D02*
X-1037500Y-962500D01*
X-1000000Y-930000D02*
X-1040000Y-930000D01*
D13*
X-868750Y-1002500D02*
G75*
G02*
X-876250Y-1002500I-3750J0D01*
G01*
X-876250Y-1002500D02*
G75*
G02*
X-868750Y-1002500I3750J0D01*
G01*
D12*
%TO.C,D1*%
X1440000Y-355000D02*
X1440000Y-407500D01*
X1440000Y-355000D02*
X1515000Y-355000D01*
X1440000Y-502500D02*
X1440000Y-555000D01*
X1440000Y-555000D02*
X1515000Y-555000D01*
X1540000Y-407500D02*
X1540000Y-502500D01*
D13*
X1518750Y-535000D02*
G75*
G02*
X1511250Y-535000I-3750J0D01*
G01*
X1511250Y-535000D02*
G75*
G02*
X1518750Y-535000I3750J0D01*
G01*
X1648750Y-597500D02*
G75*
G02*
X1641250Y-597500I-3750J0D01*
G01*
X1641250Y-597500D02*
G75*
G02*
X1648750Y-597500I3750J0D01*
G01*
%TD*%
M02*
