%TF.GenerationSoftware,KiCad,Pcbnew,9.0.0*%
%TF.CreationDate,2025-04-22T14:32:58+01:00*%
%TF.ProjectId,vm_jacdaptor_0.2,766d5f6a-6163-4646-9170-746f725f302e,v0.2*%
%TF.SameCoordinates,PX58b1140PY3fe56c0*%
%TF.FileFunction,AssemblyDrawing,Top*%
%FSLAX45Y45*%
G04 Gerber Fmt 4.5, Leading zero omitted, Abs format (unit mm)*
G04 Created by KiCad (PCBNEW 9.0.0) date 2025-04-22 14:32:58*
%MOMM*%
%LPD*%
G01*
G04 APERTURE LIST*
%ADD10C,0.100000*%
%ADD11C,0.075000*%
%ADD12C,0.060000*%
G04 APERTURE END LIST*
D10*
%TO.C,J2*%
X1268000Y-793000D02*
X2792000Y-793000D01*
X1268000Y-983500D02*
X1268000Y-793000D01*
X1331500Y-1047000D02*
X1268000Y-983500D01*
X2792000Y-793000D02*
X2792000Y-1047000D01*
X2792000Y-1047000D02*
X1331500Y-1047000D01*
X-450000Y-1105000D02*
X-350000Y-1105000D01*
X-350000Y-1095000D02*
G75*
G02*
X-350000Y-1105000I0J-5000D01*
G01*
X-350000Y-1095000D02*
X-450000Y-1095000D01*
X-450000Y-1095000D02*
G75*
G03*
X-450000Y-1105000I0J-5000D01*
G01*
X-405000Y-1050000D02*
X-405000Y-1150000D01*
X-395000Y-1150000D02*
G75*
G02*
X-405000Y-1150000I-5000J0D01*
G01*
X-395000Y-1150000D02*
X-395000Y-1050000D01*
X-395000Y-1050000D02*
G75*
G03*
X-405000Y-1050000I-5000J0D01*
G01*
%TO.C,GS3*%
X-350000Y-1100000D02*
G75*
G02*
X-450000Y-1100000I-50000J0D01*
G01*
X-450000Y-1100000D02*
G75*
G02*
X-350000Y-1100000I50000J0D01*
G01*
X-350000Y-1100000D02*
G75*
G02*
X-450000Y-1100000I-50000J0D01*
G01*
X-450000Y-1100000D02*
G75*
G02*
X-350000Y-1100000I50000J0D01*
G01*
X-150000Y-1105000D02*
X-50000Y-1105000D01*
X-50000Y-1095000D02*
G75*
G02*
X-50000Y-1105000I0J-5000D01*
G01*
X-50000Y-1095000D02*
X-150000Y-1095000D01*
X-150000Y-1095000D02*
G75*
G03*
X-150000Y-1105000I0J-5000D01*
G01*
X-105000Y-1050000D02*
X-105000Y-1150000D01*
X-95000Y-1150000D02*
G75*
G02*
X-105000Y-1150000I-5000J0D01*
G01*
X-95000Y-1150000D02*
X-95000Y-1050000D01*
X-95000Y-1050000D02*
G75*
G03*
X-105000Y-1050000I-5000J0D01*
G01*
%TO.C,GS1*%
X-50000Y-1100000D02*
G75*
G02*
X-150000Y-1100000I-50000J0D01*
G01*
X-150000Y-1100000D02*
G75*
G02*
X-50000Y-1100000I50000J0D01*
G01*
X-50000Y-1100000D02*
G75*
G02*
X-150000Y-1100000I-50000J0D01*
G01*
X-150000Y-1100000D02*
G75*
G02*
X-50000Y-1100000I50000J0D01*
G01*
%TO.C,U2*%
D11*
X1971250Y-357500D02*
G75*
G02*
X1963750Y-357500I-3750J0D01*
G01*
X1963750Y-357500D02*
G75*
G02*
X1971250Y-357500I3750J0D01*
G01*
%TO.C,U3*%
X-998750Y-677500D02*
G75*
G02*
X-1006250Y-677500I-3750J0D01*
G01*
X-1006250Y-677500D02*
G75*
G02*
X-998750Y-677500I3750J0D01*
G01*
%TO.C,U1*%
X-1983750Y-892500D02*
G75*
G02*
X-1991250Y-892500I-3750J0D01*
G01*
X-1991250Y-892500D02*
G75*
G02*
X-1983750Y-892500I3750J0D01*
G01*
D10*
X-550000Y-1105000D02*
X-450000Y-1105000D01*
X-450000Y-1095000D02*
G75*
G02*
X-450000Y-1105000I0J-5000D01*
G01*
X-450000Y-1095000D02*
X-550000Y-1095000D01*
X-550000Y-1095000D02*
G75*
G03*
X-550000Y-1105000I0J-5000D01*
G01*
X-505000Y-1050000D02*
X-505000Y-1150000D01*
X-495000Y-1150000D02*
G75*
G02*
X-505000Y-1150000I-5000J0D01*
G01*
X-495000Y-1150000D02*
X-495000Y-1050000D01*
X-495000Y-1050000D02*
G75*
G03*
X-505000Y-1050000I-5000J0D01*
G01*
%TO.C,GS14*%
X-450000Y-1100000D02*
G75*
G02*
X-550000Y-1100000I-50000J0D01*
G01*
X-550000Y-1100000D02*
G75*
G02*
X-450000Y-1100000I50000J0D01*
G01*
X-450000Y-1100000D02*
G75*
G02*
X-550000Y-1100000I-50000J0D01*
G01*
X-550000Y-1100000D02*
G75*
G02*
X-450000Y-1100000I50000J0D01*
G01*
%TO.C,SW1*%
D11*
X-368750Y-1017000D02*
G75*
G02*
X-376250Y-1017000I-3750J0D01*
G01*
X-376250Y-1017000D02*
G75*
G02*
X-368750Y-1017000I3750J0D01*
G01*
D10*
X650000Y-1105000D02*
X750000Y-1105000D01*
X750000Y-1095000D02*
G75*
G02*
X750000Y-1105000I0J-5000D01*
G01*
X750000Y-1095000D02*
X650000Y-1095000D01*
X650000Y-1095000D02*
G75*
G03*
X650000Y-1105000I0J-5000D01*
G01*
X695000Y-1050000D02*
X695000Y-1150000D01*
X705000Y-1150000D02*
G75*
G02*
X695000Y-1150000I-5000J0D01*
G01*
X705000Y-1150000D02*
X705000Y-1050000D01*
X705000Y-1050000D02*
G75*
G03*
X695000Y-1050000I-5000J0D01*
G01*
%TO.C,GS2*%
X750000Y-1100000D02*
G75*
G02*
X650000Y-1100000I-50000J0D01*
G01*
X650000Y-1100000D02*
G75*
G02*
X750000Y-1100000I50000J0D01*
G01*
X750000Y-1100000D02*
G75*
G02*
X650000Y-1100000I-50000J0D01*
G01*
X650000Y-1100000D02*
G75*
G02*
X750000Y-1100000I50000J0D01*
G01*
%TO.C,J1*%
X-2900000Y1100000D02*
X2900000Y1100000D01*
X2900000Y-200000D01*
X-2900000Y-200000D01*
X-2900000Y1100000D01*
D12*
X-2727000Y-131000D02*
G75*
G02*
X-2733000Y-131000I-3000J0D01*
G01*
X-2733000Y-131000D02*
G75*
G02*
X-2727000Y-131000I3000J0D01*
G01*
D10*
X-650000Y-1105000D02*
X-550000Y-1105000D01*
X-550000Y-1095000D02*
G75*
G02*
X-550000Y-1105000I0J-5000D01*
G01*
X-550000Y-1095000D02*
X-650000Y-1095000D01*
X-650000Y-1095000D02*
G75*
G03*
X-650000Y-1105000I0J-5000D01*
G01*
X-605000Y-1050000D02*
X-605000Y-1150000D01*
X-595000Y-1150000D02*
G75*
G02*
X-605000Y-1150000I-5000J0D01*
G01*
X-595000Y-1150000D02*
X-595000Y-1050000D01*
X-595000Y-1050000D02*
G75*
G03*
X-605000Y-1050000I-5000J0D01*
G01*
%TO.C,GS13*%
X-550000Y-1100000D02*
G75*
G02*
X-650000Y-1100000I-50000J0D01*
G01*
X-650000Y-1100000D02*
G75*
G02*
X-550000Y-1100000I50000J0D01*
G01*
X-550000Y-1100000D02*
G75*
G02*
X-650000Y-1100000I-50000J0D01*
G01*
X-650000Y-1100000D02*
G75*
G02*
X-550000Y-1100000I50000J0D01*
G01*
%TO.C,D2*%
D11*
X-868750Y-1002500D02*
G75*
G02*
X-876250Y-1002500I-3750J0D01*
G01*
X-876250Y-1002500D02*
G75*
G02*
X-868750Y-1002500I3750J0D01*
G01*
%TO.C,D1*%
X1648750Y-597500D02*
G75*
G02*
X1641250Y-597500I-3750J0D01*
G01*
X1641250Y-597500D02*
G75*
G02*
X1648750Y-597500I3750J0D01*
G01*
%TD*%
D10*
X-455000Y-1045000D02*
X-345000Y-1155000D01*
X-455000Y-1155000D02*
X-345000Y-1045000D01*
X-155000Y-1045000D02*
X-45000Y-1155000D01*
X-155000Y-1155000D02*
X-45000Y-1045000D01*
X-555000Y-1045000D02*
X-445000Y-1155000D01*
X-555000Y-1155000D02*
X-445000Y-1045000D01*
X645000Y-1045000D02*
X755000Y-1155000D01*
X645000Y-1155000D02*
X755000Y-1045000D01*
X-655000Y-1045000D02*
X-545000Y-1155000D01*
X-655000Y-1155000D02*
X-545000Y-1045000D01*
X545000Y-1045000D02*
X655000Y-1155000D01*
X545000Y-1155000D02*
X655000Y-1045000D01*
X-255000Y-1045000D02*
X-145000Y-1155000D01*
X-255000Y-1155000D02*
X-145000Y-1045000D01*
X345000Y-1045000D02*
X455000Y-1155000D01*
X345000Y-1155000D02*
X455000Y-1045000D01*
X45000Y-1045000D02*
X155000Y-1155000D01*
X45000Y-1155000D02*
X155000Y-1045000D01*
X-55000Y-1045000D02*
X55000Y-1155000D01*
X-55000Y-1155000D02*
X55000Y-1045000D01*
X-355000Y-1045000D02*
X-245000Y-1155000D01*
X-355000Y-1155000D02*
X-245000Y-1045000D01*
X145000Y-1045000D02*
X255000Y-1155000D01*
X145000Y-1155000D02*
X255000Y-1045000D01*
X445000Y-1045000D02*
X555000Y-1155000D01*
X445000Y-1155000D02*
X555000Y-1045000D01*
X245000Y-1045000D02*
X355000Y-1155000D01*
X245000Y-1155000D02*
X355000Y-1045000D01*
M02*
