%TF.GenerationSoftware,KiCad,Pcbnew,9.0.6-9.0.6~ubuntu22.04.1*%
%TF.CreationDate,2026-01-23T17:02:39+00:00*%
%TF.ProjectId,vm_i2c_temperature_sensor,766d5f69-3263-45f7-9465-6d7065726174,0.1*%
%TF.SameCoordinates,PX4aa0010PY44300e0*%
%TF.FileFunction,Copper,L1,Top*%
%TF.FilePolarity,Positive*%
%FSLAX45Y45*%
G04 Gerber Fmt 4.5, Leading zero omitted, Abs format (unit mm)*
G04 Created by KiCad (PCBNEW 9.0.6-9.0.6~ubuntu22.04.1) date 2026-01-23 17:02:39*
%MOMM*%
%LPD*%
G01*
G04 APERTURE LIST*
%TA.AperFunction,SMDPad,CuDef*%
%ADD10C,0.125000*%
%TD*%
%TA.AperFunction,SMDPad,CuDef*%
%ADD11R,0.800000X0.900000*%
%TD*%
%TA.AperFunction,SMDPad,CuDef*%
%ADD12O,0.360000X0.610000*%
%TD*%
%TA.AperFunction,SMDPad,CuDef*%
%ADD13R,1.600000X1.000000*%
%TD*%
%TA.AperFunction,Conductor*%
%ADD14C,0.200000*%
%TD*%
G04 APERTURE END LIST*
D10*
%TO.P,GS4,1,SDA*%
%TO.N,/SDA*%
X-175000Y100000D03*
%TD*%
D11*
%TO.P,C1,1*%
%TO.N,+3V3*%
X-55000Y203000D03*
%TO.P,C1,2*%
%TO.N,GND*%
X85000Y203000D03*
%TD*%
D10*
%TO.P,GS2,1,GND*%
%TO.N,GND*%
X100000Y300000D03*
%TD*%
%TO.P,GS1,1,+3V3*%
%TO.N,+3V3*%
X-50000Y300000D03*
%TD*%
D12*
%TO.P,U2,1,SCL*%
%TO.N,/SCL*%
X-65000Y-103000D03*
%TO.P,U2,2,GND*%
%TO.N,GND*%
X0Y-103000D03*
%TO.P,U2,3,ALERT*%
X65000Y-103000D03*
%TO.P,U2,4,ADD0*%
X65000Y103000D03*
%TO.P,U2,5,V+*%
%TO.N,+3V3*%
X0Y103000D03*
%TO.P,U2,6,SDA*%
%TO.N,/SDA*%
X-65000Y103000D03*
D13*
%TO.P,U2,7*%
%TO.N,N/C*%
X0Y0D03*
%TD*%
D10*
%TO.P,GS3,1,SCL*%
%TO.N,/SCL*%
X-175000Y-100000D03*
%TD*%
D14*
%TO.N,GND*%
X85000Y203000D02*
X85000Y123000D01*
X100000Y300000D02*
X100000Y218000D01*
X100000Y218000D02*
X85000Y203000D01*
X85000Y123000D02*
X65000Y103000D01*
X97000Y-103000D02*
X65000Y-103000D01*
X65000Y103000D02*
X87200Y103000D01*
X87200Y103000D02*
X110100Y80100D01*
X110100Y80100D02*
X110100Y-89900D01*
X110100Y-89900D02*
X97000Y-103000D01*
X65000Y-103000D02*
X0Y-103000D01*
%TO.N,+3V3*%
X-55000Y203000D02*
X0Y148000D01*
X-50000Y208000D02*
X-55000Y203000D01*
X0Y148000D02*
X0Y103000D01*
X-50000Y300000D02*
X-50000Y208000D01*
%TO.N,/SCL*%
X-175000Y-100000D02*
X-68000Y-100000D01*
X-68000Y-100000D02*
X-65000Y-103000D01*
%TO.N,/SDA*%
X-175000Y100000D02*
X-68000Y100000D01*
X-68000Y100000D02*
X-65000Y103000D01*
%TD*%
M02*
