%TF.GenerationSoftware,KiCad,Pcbnew,9.0.5*%
%TF.CreationDate,2025-10-23T01:23:54+01:00*%
%TF.ProjectId,vm_i2c_temperature_sensor,766d5f69-3263-45f7-9465-6d7065726174,0.1*%
%TF.SameCoordinates,PX4aa0010PY44300e0*%
%TF.FileFunction,Legend,Top*%
%TF.FilePolarity,Positive*%
%FSLAX45Y45*%
G04 Gerber Fmt 4.5, Leading zero omitted, Abs format (unit mm)*
G04 Created by KiCad (PCBNEW 9.0.5) date 2025-10-23 01:23:54*
%MOMM*%
%LPD*%
G01*
G04 APERTURE LIST*
%ADD10C,0.200000*%
%ADD11C,0.150000*%
G04 APERTURE END LIST*
D10*
X-68985Y-161722D02*
X-59461Y-161722D01*
X-59461Y-161722D02*
X-49937Y-166484D01*
X-49937Y-166484D02*
X-45176Y-171246D01*
X-45176Y-171246D02*
X-40414Y-180769D01*
X-40414Y-180769D02*
X-35652Y-199817D01*
X-35652Y-199817D02*
X-35652Y-223627D01*
X-35652Y-223627D02*
X-40414Y-242674D01*
X-40414Y-242674D02*
X-45176Y-252198D01*
X-45176Y-252198D02*
X-49937Y-256960D01*
X-49937Y-256960D02*
X-59461Y-261722D01*
X-59461Y-261722D02*
X-68985Y-261722D01*
X-68985Y-261722D02*
X-78509Y-256960D01*
X-78509Y-256960D02*
X-83271Y-252198D01*
X-83271Y-252198D02*
X-88033Y-242674D01*
X-88033Y-242674D02*
X-92795Y-223627D01*
X-92795Y-223627D02*
X-92795Y-199817D01*
X-92795Y-199817D02*
X-88033Y-180769D01*
X-88033Y-180769D02*
X-83271Y-171246D01*
X-83271Y-171246D02*
X-78509Y-166484D01*
X-78509Y-166484D02*
X-68985Y-161722D01*
X7205Y-252198D02*
X11967Y-256960D01*
X11967Y-256960D02*
X7205Y-261722D01*
X7205Y-261722D02*
X2444Y-256960D01*
X2444Y-256960D02*
X7205Y-252198D01*
X7205Y-252198D02*
X7205Y-261722D01*
X107205Y-261722D02*
X50062Y-261722D01*
X78634Y-261722D02*
X78634Y-161722D01*
X78634Y-161722D02*
X69110Y-176008D01*
X69110Y-176008D02*
X59586Y-185531D01*
X59586Y-185531D02*
X50062Y-190293D01*
D11*
%TO.C,U2*%
X-98000Y-105000D02*
G75*
G02*
X-112000Y-105000I-7000J0D01*
G01*
X-112000Y-105000D02*
G75*
G02*
X-98000Y-105000I7000J0D01*
G01*
%TD*%
M02*
