%TF.GenerationSoftware,KiCad,Pcbnew,9.0.7*%
%TF.CreationDate,2026-03-31T13:30:57+01:00*%
%TF.ProjectId,jvm_accelerometer,6a766d5f-6163-4636-956c-65726f6d6574,0.7*%
%TF.SameCoordinates,PX51c70f0PY487ab00*%
%TF.FileFunction,Paste,Top*%
%TF.FilePolarity,Positive*%
%FSLAX45Y45*%
G04 Gerber Fmt 4.5, Leading zero omitted, Abs format (unit mm)*
G04 Created by KiCad (PCBNEW 9.0.7) date 2026-03-31 13:30:57*
%MOMM*%
%LPD*%
G01*
G04 APERTURE LIST*
G04 Aperture macros list*
%AMRoundRect*
0 Rectangle with rounded corners*
0 $1 Rounding radius*
0 $2 $3 $4 $5 $6 $7 $8 $9 X,Y pos of 4 corners*
0 Add a 4 corners polygon primitive as box body*
4,1,4,$2,$3,$4,$5,$6,$7,$8,$9,$2,$3,0*
0 Add four circle primitives for the rounded corners*
1,1,$1+$1,$2,$3*
1,1,$1+$1,$4,$5*
1,1,$1+$1,$6,$7*
1,1,$1+$1,$8,$9*
0 Add four rect primitives between the rounded corners*
20,1,$1+$1,$2,$3,$4,$5,0*
20,1,$1+$1,$4,$5,$6,$7,0*
20,1,$1+$1,$6,$7,$8,$9,0*
20,1,$1+$1,$8,$9,$2,$3,0*%
G04 Aperture macros list end*
%ADD10RoundRect,0.062500X-0.075000X-0.062500X0.075000X-0.062500X0.075000X0.062500X-0.075000X0.062500X0*%
%ADD11RoundRect,0.062500X-0.062500X-0.075000X0.062500X-0.075000X0.062500X0.075000X-0.062500X0.075000X0*%
%ADD12RoundRect,0.225000X-0.225000X-0.250000X0.225000X-0.250000X0.225000X0.250000X-0.225000X0.250000X0*%
%ADD13RoundRect,0.237500X-0.250000X-0.237500X0.250000X-0.237500X0.250000X0.237500X-0.250000X0.237500X0*%
%ADD14RoundRect,0.237500X0.237500X-0.250000X0.237500X0.250000X-0.237500X0.250000X-0.237500X-0.250000X0*%
%ADD15RoundRect,0.150000X0.512500X0.150000X-0.512500X0.150000X-0.512500X-0.150000X0.512500X-0.150000X0*%
%ADD16RoundRect,0.225000X-0.250000X0.225000X-0.250000X-0.225000X0.250000X-0.225000X0.250000X0.225000X0*%
%ADD17RoundRect,0.250000X-0.250000X0.250000X-0.250000X-0.250000X0.250000X-0.250000X0.250000X0.250000X0*%
%ADD18RoundRect,0.250000X-0.275000X-0.750000X0.275000X-0.750000X0.275000X0.750000X-0.275000X0.750000X0*%
%ADD19RoundRect,0.237500X0.287500X0.237500X-0.287500X0.237500X-0.287500X-0.237500X0.287500X-0.237500X0*%
%ADD20RoundRect,0.225000X0.225000X0.250000X-0.225000X0.250000X-0.225000X-0.250000X0.225000X-0.250000X0*%
%ADD21RoundRect,0.237500X0.250000X0.237500X-0.250000X0.237500X-0.250000X-0.237500X0.250000X-0.237500X0*%
%ADD22RoundRect,0.100000X0.100000X-0.637500X0.100000X0.637500X-0.100000X0.637500X-0.100000X-0.637500X0*%
G04 APERTURE END LIST*
D10*
%TO.C,U3*%
X448750Y25000D03*
X448750Y-25000D03*
X448750Y-75000D03*
X448750Y-125000D03*
D11*
X500000Y-126250D03*
X550000Y-126250D03*
D10*
X601250Y-125000D03*
X601250Y-75000D03*
X601250Y-25000D03*
X601250Y25000D03*
D11*
X550000Y26250D03*
X500000Y26250D03*
%TD*%
D12*
%TO.C,C2*%
X-752500Y-300000D03*
X-597500Y-300000D03*
%TD*%
D13*
%TO.C,R5*%
X433750Y350000D03*
X616250Y350000D03*
%TD*%
D14*
%TO.C,R3*%
X-350000Y508750D03*
X-350000Y691250D03*
%TD*%
D15*
%TO.C,U2*%
X-561250Y-145000D03*
X-561250Y45000D03*
X-788750Y-50000D03*
%TD*%
D16*
%TO.C,C1*%
X-400000Y-535000D03*
X-400000Y-690000D03*
%TD*%
D17*
%TO.C,D1*%
X-675000Y725000D03*
X-675000Y475000D03*
%TD*%
D12*
%TO.C,C3*%
X-752500Y200000D03*
X-597500Y200000D03*
%TD*%
D18*
%TO.C,SW1*%
X-247500Y-612500D03*
X197500Y-612500D03*
%TD*%
D14*
%TO.C,R2*%
X-500000Y508750D03*
X-500000Y691250D03*
%TD*%
D16*
%TO.C,C4*%
X762500Y27500D03*
X762500Y-127500D03*
%TD*%
D13*
%TO.C,R6*%
X433750Y200000D03*
X616250Y200000D03*
%TD*%
D19*
%TO.C,D2*%
X-587500Y-600000D03*
X-762500Y-600000D03*
%TD*%
D20*
%TO.C,C5*%
X602500Y-287500D03*
X447500Y-287500D03*
%TD*%
D21*
%TO.C,R1*%
X-583750Y350000D03*
X-766250Y350000D03*
%TD*%
%TO.C,R4*%
X-583750Y-450000D03*
X-766250Y-450000D03*
%TD*%
D22*
%TO.C,U1*%
X-405000Y-336250D03*
X-340000Y-336250D03*
X-275000Y-336250D03*
X-210000Y-336250D03*
X-145000Y-336250D03*
X-80000Y-336250D03*
X-15000Y-336250D03*
X50000Y-336250D03*
X115000Y-336250D03*
X180000Y-336250D03*
X180000Y236250D03*
X115000Y236250D03*
X50000Y236250D03*
X-15000Y236250D03*
X-80000Y236250D03*
X-145000Y236250D03*
X-210000Y236250D03*
X-275000Y236250D03*
X-340000Y236250D03*
X-405000Y236250D03*
%TD*%
M02*
