%TF.GenerationSoftware,KiCad,Pcbnew,9.0.7*%
%TF.CreationDate,2026-03-31T13:30:57+01:00*%
%TF.ProjectId,jvm_accelerometer,6a766d5f-6163-4636-956c-65726f6d6574,0.7*%
%TF.SameCoordinates,PX51c70f0PY487ab00*%
%TF.FileFunction,AssemblyDrawing,Top*%
%FSLAX45Y45*%
G04 Gerber Fmt 4.5, Leading zero omitted, Abs format (unit mm)*
G04 Created by KiCad (PCBNEW 9.0.7) date 2026-03-31 13:30:57*
%MOMM*%
%LPD*%
G01*
G04 APERTURE LIST*
%ADD10C,0.100000*%
%ADD11C,0.120000*%
G04 APERTURE END LIST*
D10*
%TO.C,U3*%
X625000Y-150000D02*
X425000Y-150000D01*
X425000Y0D01*
X475000Y50000D01*
X625000Y50000D01*
X625000Y-150000D01*
%TO.C,GS6*%
X-725000Y800000D02*
X-625000Y800000D01*
X-675000Y850000D02*
X-675000Y750000D01*
X-625000Y800000D02*
G75*
G02*
X-725000Y800000I-50000J0D01*
G01*
X-725000Y800000D02*
G75*
G02*
X-625000Y800000I50000J0D01*
G01*
%TO.C,GS3*%
X-925000Y350000D02*
X-825000Y350000D01*
X-875000Y400000D02*
X-875000Y300000D01*
X-825000Y350000D02*
G75*
G02*
X-925000Y350000I-50000J0D01*
G01*
X-925000Y350000D02*
G75*
G02*
X-825000Y350000I50000J0D01*
G01*
%TO.C,C2*%
X-755000Y-260000D02*
X-595000Y-260000D01*
X-595000Y-340000D01*
X-755000Y-340000D01*
X-755000Y-260000D01*
%TO.C,R5*%
X445000Y391250D02*
X605000Y391250D01*
X605000Y308750D01*
X445000Y308750D01*
X445000Y391250D01*
%TO.C,R3*%
X-391250Y520000D02*
X-308750Y520000D01*
X-308750Y680000D01*
X-391250Y680000D01*
X-391250Y520000D01*
%TO.C,U2*%
X-595000Y-155000D02*
X-635000Y-195000D01*
X-755000Y-195000D01*
X-755000Y95000D01*
X-595000Y95000D01*
X-595000Y-155000D01*
%TO.C,GS2*%
X-925000Y-300000D02*
X-825000Y-300000D01*
X-875000Y-250000D02*
X-875000Y-350000D01*
X-825000Y-300000D02*
G75*
G02*
X-925000Y-300000I-50000J0D01*
G01*
X-925000Y-300000D02*
G75*
G02*
X-825000Y-300000I50000J0D01*
G01*
%TO.C,GS1*%
X-925000Y-50000D02*
X-825000Y-50000D01*
X-875000Y0D02*
X-875000Y-100000D01*
X-825000Y-50000D02*
G75*
G02*
X-925000Y-50000I-50000J0D01*
G01*
X-925000Y-50000D02*
G75*
G02*
X-825000Y-50000I50000J0D01*
G01*
%TO.C,GS4*%
X-550000Y800000D02*
X-450000Y800000D01*
X-500000Y850000D02*
X-500000Y750000D01*
X-450000Y800000D02*
G75*
G02*
X-550000Y800000I-50000J0D01*
G01*
X-550000Y800000D02*
G75*
G02*
X-450000Y800000I50000J0D01*
G01*
%TO.C,C1*%
X-360000Y-532500D02*
X-440000Y-532500D01*
X-440000Y-692500D01*
X-360000Y-692500D01*
X-360000Y-532500D01*
%TO.C,D1*%
X-745000Y690000D02*
X-605000Y690000D01*
X-745000Y510000D02*
X-745000Y690000D01*
X-710000Y580000D02*
X-675000Y630000D01*
X-675000Y630000D02*
X-675000Y650000D01*
X-675000Y630000D02*
X-640000Y580000D01*
X-675000Y580000D02*
X-675000Y555000D01*
X-640000Y630000D02*
X-710000Y630000D01*
X-640000Y580000D02*
X-710000Y580000D01*
X-605000Y690000D02*
X-605000Y510000D01*
X-605000Y510000D02*
X-745000Y510000D01*
%TO.C,C3*%
X-755000Y240000D02*
X-595000Y240000D01*
X-595000Y160000D01*
X-755000Y160000D01*
X-755000Y240000D01*
%TO.C,SW1*%
X-220000Y-462500D02*
X170000Y-462500D01*
X-220000Y-762500D02*
X-220000Y-462500D01*
X-220000Y-762500D02*
X170000Y-762500D01*
X170000Y-462500D02*
X170000Y-762500D01*
X65000Y-612500D02*
G75*
G02*
X-115000Y-612500I-90000J0D01*
G01*
X-115000Y-612500D02*
G75*
G02*
X65000Y-612500I90000J0D01*
G01*
%TO.C,R2*%
X-541250Y520000D02*
X-458750Y520000D01*
X-458750Y680000D01*
X-541250Y680000D01*
X-541250Y520000D01*
%TO.C,C4*%
X802500Y30000D02*
X722500Y30000D01*
X722500Y-130000D01*
X802500Y-130000D01*
X802500Y30000D01*
%TO.C,R6*%
X445000Y241250D02*
X605000Y241250D01*
X605000Y158750D01*
X445000Y158750D01*
X445000Y241250D01*
%TO.C,GS5*%
X-400000Y800000D02*
X-300000Y800000D01*
X-350000Y850000D02*
X-350000Y750000D01*
X-300000Y800000D02*
G75*
G02*
X-400000Y800000I-50000J0D01*
G01*
X-400000Y800000D02*
G75*
G02*
X-300000Y800000I50000J0D01*
G01*
%TO.C,D2*%
X-755000Y-560000D02*
X-755000Y-640000D01*
X-755000Y-640000D02*
X-625000Y-640000D01*
X-625000Y-640000D02*
X-595000Y-610000D01*
X-595000Y-560000D02*
X-755000Y-560000D01*
X-595000Y-610000D02*
X-595000Y-560000D01*
%TO.C,C5*%
X605000Y-327500D02*
X445000Y-327500D01*
X445000Y-247500D01*
X605000Y-247500D01*
X605000Y-327500D01*
%TO.C,R1*%
X-595000Y308750D02*
X-755000Y308750D01*
X-755000Y391250D01*
X-595000Y391250D01*
X-595000Y308750D01*
%TO.C,R4*%
X-595000Y-491250D02*
X-755000Y-491250D01*
X-755000Y-408750D01*
X-595000Y-408750D01*
X-595000Y-491250D01*
D11*
%TO.C,J1*%
X-228600Y746450D02*
X101600Y746450D01*
X-228600Y390850D02*
X-228600Y746450D01*
X101600Y746450D02*
X228600Y619450D01*
X228600Y619450D02*
X228600Y390850D01*
X228600Y390850D02*
X-228600Y390850D01*
D10*
%TO.C,U1*%
X212500Y-270000D02*
X-337500Y-270000D01*
X-437500Y-170000D01*
X-437500Y170000D01*
X212500Y170000D01*
X212500Y-270000D01*
%TD*%
M02*
