%TF.GenerationSoftware,KiCad,Pcbnew,9.0.7*%
%TF.CreationDate,2026-03-31T14:20:00+01:00*%
%TF.ProjectId,kittenbot_power,6b697474-656e-4626-9f74-5f706f776572,0.5*%
%TF.SameCoordinates,PX8d24d00PY36d6160*%
%TF.FileFunction,Legend,Top*%
%TF.FilePolarity,Positive*%
%FSLAX45Y45*%
G04 Gerber Fmt 4.5, Leading zero omitted, Abs format (unit mm)*
G04 Created by KiCad (PCBNEW 9.0.7) date 2026-03-31 14:20:00*
%MOMM*%
%LPD*%
G01*
G04 APERTURE LIST*
%ADD10C,0.200000*%
%ADD11C,0.000000*%
%ADD12C,0.010000*%
G04 APERTURE END LIST*
D10*
X-750000Y2225000D02*
X-750000Y2200000D01*
X-815000Y1427000D02*
X-815000Y1497000D01*
X-1150000Y-406601D02*
G75*
G02*
X-1250001Y-306601I40J100041D01*
G01*
X-1400000Y1247000D02*
X-1400000Y753000D01*
X1250000Y1700000D02*
X1250000Y550000D01*
X-1000000Y-2250000D02*
G75*
G02*
X-1250000Y-2000000I-80J249920D01*
G01*
X-775000Y2250000D02*
G75*
G02*
X-750000Y2225000I80J-24920D01*
G01*
X-1400000Y-756601D02*
G75*
G02*
X-1320000Y-676600I79890J111D01*
G01*
X1250000Y-570000D02*
X1250000Y-500000D01*
X1250000Y1700000D02*
X1250000Y2000000D01*
X1000000Y2250000D02*
X-525000Y2250000D01*
X-914800Y403000D02*
X-1150000Y403000D01*
X1169289Y-400000D02*
G75*
G02*
X1250003Y-500000I-21639J-100040D01*
G01*
X-1320000Y673000D02*
G75*
G02*
X-1400000Y753000I-110J79890D01*
G01*
X-1250000Y303000D02*
G75*
G02*
X-1150000Y403000I100040J-40D01*
G01*
X-1150000Y1597000D02*
X-914800Y1597000D01*
X-815000Y-576601D02*
X-815000Y-506601D01*
X-775000Y2250000D02*
X-1000000Y2250000D01*
X-1250000Y2000000D02*
G75*
G02*
X-1000000Y2250000I249920J80D01*
G01*
X-1150000Y1597000D02*
G75*
G02*
X-1250000Y1697000I40J100040D01*
G01*
X-550000Y2200000D02*
X-550000Y2225000D01*
X-1400000Y1247000D02*
G75*
G02*
X-1320000Y1327000I79890J110D01*
G01*
X-914800Y1597000D02*
G75*
G02*
X-815000Y1497000I100J-99700D01*
G01*
X-815000Y-576601D02*
G75*
G02*
X-914800Y-676600I-100040J41D01*
G01*
X-915000Y-1330601D02*
G75*
G02*
X-815001Y-1430601I-40J-100039D01*
G01*
X-815000Y1427000D02*
G75*
G02*
X-914800Y1327000I-100040J40D01*
G01*
X-814800Y-1500601D02*
X-815000Y-1430601D01*
X-550000Y2225000D02*
G75*
G02*
X-525000Y2250000I24920J80D01*
G01*
X-1250000Y-1697000D02*
X-1250000Y-2000000D01*
X-1250000Y303000D02*
X-1250000Y-306601D01*
X-914800Y-1600601D02*
X-1150000Y-1600601D01*
X-1320000Y673000D02*
X-915000Y673000D01*
X-550000Y2200000D02*
G75*
G02*
X-750000Y2200000I-100000J0D01*
G01*
X1000000Y2250000D02*
G75*
G02*
X1250000Y2000000I80J-249920D01*
G01*
X-814800Y503000D02*
G75*
G02*
X-914800Y403000I-100040J40D01*
G01*
X-1400000Y-756601D02*
X-1400000Y-1250601D01*
X-1250000Y2000000D02*
X-1250000Y1697000D01*
X-915000Y673000D02*
G75*
G02*
X-815000Y573000I-40J-100040D01*
G01*
X1250000Y-2000000D02*
X1250000Y-550000D01*
X1250000Y500000D02*
X1250000Y570000D01*
X-1320000Y-1330601D02*
X-915000Y-1330601D01*
X-1000000Y-2250000D02*
X1000000Y-2250000D01*
X-914800Y1327000D02*
X-1320000Y1327000D01*
X1090000Y300000D02*
G75*
G02*
X1169288Y400003I102760J-40D01*
G01*
X-1250000Y-1700601D02*
G75*
G02*
X-1150000Y-1600600I100040J-39D01*
G01*
X1250000Y-2000000D02*
G75*
G02*
X1000000Y-2250000I-249920J-80D01*
G01*
X-914800Y-406601D02*
G75*
G02*
X-815001Y-506601I100J-99699D01*
G01*
X-814800Y-1500601D02*
G75*
G02*
X-914800Y-1600600I-100040J41D01*
G01*
X-914800Y-676601D02*
X-1320000Y-676601D01*
X1090000Y-300000D02*
X1090000Y300000D01*
X1169289Y-400000D02*
G75*
G02*
X1089996Y-300000I23462J100040D01*
G01*
X-814800Y503000D02*
X-815000Y573000D01*
X-1320000Y-1330601D02*
G75*
G02*
X-1400001Y-1250601I-110J79891D01*
G01*
X1250000Y500000D02*
G75*
G02*
X1169289Y399996I-102360J40D01*
G01*
X-1150000Y-406601D02*
X-914800Y-406601D01*
D11*
%TO.C,*%
G36*
X-850500Y-960056D02*
G01*
X-840146Y-965118D01*
X-831997Y-973267D01*
X-826935Y-983621D01*
X-825480Y-993611D01*
X-825480Y-1013591D01*
X-826935Y-1023580D01*
X-831997Y-1033934D01*
X-840146Y-1042083D01*
X-850500Y-1047145D01*
X-860490Y-1048601D01*
X-1295470Y-1048601D01*
X-1305460Y-1047145D01*
X-1315814Y-1042083D01*
X-1323963Y-1033934D01*
X-1329025Y-1023580D01*
X-1330480Y-1013591D01*
X-1330480Y-993611D01*
X-1329025Y-983621D01*
X-1323963Y-973267D01*
X-1315814Y-965118D01*
X-1305460Y-960056D01*
X-1295470Y-958601D01*
X-860490Y-958601D01*
X-850500Y-960056D01*
G37*
G36*
X-850500Y-1087056D02*
G01*
X-840146Y-1092118D01*
X-831997Y-1100267D01*
X-826935Y-1110621D01*
X-825480Y-1120611D01*
X-825480Y-1140591D01*
X-826935Y-1150580D01*
X-831997Y-1160934D01*
X-840146Y-1169084D01*
X-850500Y-1174145D01*
X-860490Y-1175601D01*
X-1295470Y-1175601D01*
X-1305460Y-1174145D01*
X-1315814Y-1169084D01*
X-1323963Y-1160934D01*
X-1329025Y-1150580D01*
X-1330480Y-1140591D01*
X-1330480Y-1120611D01*
X-1329025Y-1110621D01*
X-1323963Y-1100267D01*
X-1315814Y-1092118D01*
X-1305460Y-1087056D01*
X-1295470Y-1085601D01*
X-860490Y-1085601D01*
X-850500Y-1087056D01*
G37*
G36*
X-850500Y-833056D02*
G01*
X-840146Y-838118D01*
X-831997Y-846267D01*
X-826935Y-856621D01*
X-825480Y-866611D01*
X-825480Y-886591D01*
X-826935Y-896580D01*
X-831997Y-906934D01*
X-840146Y-915083D01*
X-850500Y-920145D01*
X-860490Y-921601D01*
X-1245470Y-921601D01*
X-1255460Y-920145D01*
X-1265814Y-915083D01*
X-1273963Y-906934D01*
X-1279025Y-896580D01*
X-1280480Y-886591D01*
X-1280480Y-866611D01*
X-1279025Y-856621D01*
X-1273963Y-846267D01*
X-1265814Y-838118D01*
X-1255460Y-833056D01*
X-1245470Y-831601D01*
X-860490Y-831601D01*
X-850500Y-833056D01*
G37*
D12*
%TO.C,MH3*%
X-692851Y-1836314D02*
X-691177Y-1836947D01*
X-689615Y-1838091D01*
X-688092Y-1839811D01*
X-686539Y-1842173D01*
X-684884Y-1845243D01*
X-684868Y-1845274D01*
X-679128Y-1857433D01*
X-673786Y-1870198D01*
X-668874Y-1883469D01*
X-664426Y-1897147D01*
X-660477Y-1911131D01*
X-657060Y-1925322D01*
X-655819Y-1931186D01*
X-654738Y-1937134D01*
X-654047Y-1942447D01*
X-653741Y-1947182D01*
X-653817Y-1951392D01*
X-654204Y-1954751D01*
X-655653Y-1961094D01*
X-657791Y-1967072D01*
X-660593Y-1972650D01*
X-664036Y-1977793D01*
X-668095Y-1982465D01*
X-672746Y-1986632D01*
X-677967Y-1990258D01*
X-678798Y-1990754D01*
X-684069Y-1993383D01*
X-689693Y-1995354D01*
X-695561Y-1996656D01*
X-701567Y-1997278D01*
X-707604Y-1997210D01*
X-713566Y-1996440D01*
X-719346Y-1994959D01*
X-719727Y-1994833D01*
X-725333Y-1992541D01*
X-730628Y-1989561D01*
X-735544Y-1985960D01*
X-740011Y-1981804D01*
X-743962Y-1977159D01*
X-747327Y-1972094D01*
X-750038Y-1966674D01*
X-750906Y-1964474D01*
X-751361Y-1963045D01*
X-751914Y-1961022D01*
X-752518Y-1958594D01*
X-753128Y-1955946D01*
X-753696Y-1953267D01*
X-753705Y-1953223D01*
X-755868Y-1943250D01*
X-758227Y-1933873D01*
X-760838Y-1924908D01*
X-763759Y-1916168D01*
X-767043Y-1907470D01*
X-768998Y-1902700D01*
X-770366Y-1899250D01*
X-771304Y-1896366D01*
X-771816Y-1893955D01*
X-771909Y-1891919D01*
X-771588Y-1890163D01*
X-770857Y-1888591D01*
X-769862Y-1887263D01*
X-768967Y-1886337D01*
X-767996Y-1885570D01*
X-766811Y-1884896D01*
X-765271Y-1884249D01*
X-763240Y-1883560D01*
X-760578Y-1882763D01*
X-760489Y-1882738D01*
X-754810Y-1880969D01*
X-749637Y-1879065D01*
X-744683Y-1876912D01*
X-741377Y-1875293D01*
X-733863Y-1871019D01*
X-726705Y-1866067D01*
X-719976Y-1860499D01*
X-713747Y-1854378D01*
X-708093Y-1847768D01*
X-705316Y-1844036D01*
X-703123Y-1841157D01*
X-701090Y-1838981D01*
X-699144Y-1837457D01*
X-697212Y-1836529D01*
X-695222Y-1836143D01*
X-694706Y-1836125D01*
X-692851Y-1836314D01*
G36*
X-692851Y-1836314D02*
G01*
X-691177Y-1836947D01*
X-689615Y-1838091D01*
X-688092Y-1839811D01*
X-686539Y-1842173D01*
X-684884Y-1845243D01*
X-684868Y-1845274D01*
X-679128Y-1857433D01*
X-673786Y-1870198D01*
X-668874Y-1883469D01*
X-664426Y-1897147D01*
X-660477Y-1911131D01*
X-657060Y-1925322D01*
X-655819Y-1931186D01*
X-654738Y-1937134D01*
X-654047Y-1942447D01*
X-653741Y-1947182D01*
X-653817Y-1951392D01*
X-654204Y-1954751D01*
X-655653Y-1961094D01*
X-657791Y-1967072D01*
X-660593Y-1972650D01*
X-664036Y-1977793D01*
X-668095Y-1982465D01*
X-672746Y-1986632D01*
X-677967Y-1990258D01*
X-678798Y-1990754D01*
X-684069Y-1993383D01*
X-689693Y-1995354D01*
X-695561Y-1996656D01*
X-701567Y-1997278D01*
X-707604Y-1997210D01*
X-713566Y-1996440D01*
X-719346Y-1994959D01*
X-719727Y-1994833D01*
X-725333Y-1992541D01*
X-730628Y-1989561D01*
X-735544Y-1985960D01*
X-740011Y-1981804D01*
X-743962Y-1977159D01*
X-747327Y-1972094D01*
X-750038Y-1966674D01*
X-750906Y-1964474D01*
X-751361Y-1963045D01*
X-751914Y-1961022D01*
X-752518Y-1958594D01*
X-753128Y-1955946D01*
X-753696Y-1953267D01*
X-753705Y-1953223D01*
X-755868Y-1943250D01*
X-758227Y-1933873D01*
X-760838Y-1924908D01*
X-763759Y-1916168D01*
X-767043Y-1907470D01*
X-768998Y-1902700D01*
X-770366Y-1899250D01*
X-771304Y-1896366D01*
X-771816Y-1893955D01*
X-771909Y-1891919D01*
X-771588Y-1890163D01*
X-770857Y-1888591D01*
X-769862Y-1887263D01*
X-768967Y-1886337D01*
X-767996Y-1885570D01*
X-766811Y-1884896D01*
X-765271Y-1884249D01*
X-763240Y-1883560D01*
X-760578Y-1882763D01*
X-760489Y-1882738D01*
X-754810Y-1880969D01*
X-749637Y-1879065D01*
X-744683Y-1876912D01*
X-741377Y-1875293D01*
X-733863Y-1871019D01*
X-726705Y-1866067D01*
X-719976Y-1860499D01*
X-713747Y-1854378D01*
X-708093Y-1847768D01*
X-705316Y-1844036D01*
X-703123Y-1841157D01*
X-701090Y-1838981D01*
X-699144Y-1837457D01*
X-697212Y-1836529D01*
X-695222Y-1836143D01*
X-694706Y-1836125D01*
X-692851Y-1836314D01*
G37*
X-946938Y-1653954D02*
X-944770Y-1653991D01*
X-942673Y-1654092D01*
X-940549Y-1654271D01*
X-938296Y-1654545D01*
X-935815Y-1654931D01*
X-933004Y-1655444D01*
X-929763Y-1656100D01*
X-925992Y-1656916D01*
X-921591Y-1657908D01*
X-919752Y-1658330D01*
X-908411Y-1661181D01*
X-896793Y-1664561D01*
X-885084Y-1668402D01*
X-873470Y-1672638D01*
X-862136Y-1677202D01*
X-851269Y-1682028D01*
X-844152Y-1685469D01*
X-841399Y-1686917D01*
X-839296Y-1688197D01*
X-837739Y-1689388D01*
X-836624Y-1690572D01*
X-835847Y-1691830D01*
X-835760Y-1692016D01*
X-835162Y-1693819D01*
X-835167Y-1695502D01*
X-835563Y-1696926D01*
X-836648Y-1698897D01*
X-838480Y-1700922D01*
X-841018Y-1702956D01*
X-841497Y-1703286D01*
X-848820Y-1708694D01*
X-855567Y-1714614D01*
X-861713Y-1721018D01*
X-867235Y-1727877D01*
X-872107Y-1735160D01*
X-876307Y-1742840D01*
X-878858Y-1748495D01*
X-880092Y-1751614D01*
X-881214Y-1754753D01*
X-882289Y-1758116D01*
X-883383Y-1761903D01*
X-884268Y-1765197D01*
X-884800Y-1767021D01*
X-885341Y-1768326D01*
X-886025Y-1769376D01*
X-886770Y-1770218D01*
X-888327Y-1771562D01*
X-889965Y-1772370D01*
X-891796Y-1772646D01*
X-893930Y-1772396D01*
X-896475Y-1771622D01*
X-898718Y-1770703D01*
X-910770Y-1765758D01*
X-923199Y-1761430D01*
X-936063Y-1757700D01*
X-949421Y-1754550D01*
X-952489Y-1753922D01*
X-955957Y-1753212D01*
X-958795Y-1752580D01*
X-961157Y-1751983D01*
X-963196Y-1751375D01*
X-965067Y-1750713D01*
X-966923Y-1749950D01*
X-968307Y-1749327D01*
X-973605Y-1746453D01*
X-978512Y-1742939D01*
X-982970Y-1738857D01*
X-986923Y-1734279D01*
X-990313Y-1729280D01*
X-993084Y-1723932D01*
X-995177Y-1718307D01*
X-996342Y-1713575D01*
X-997154Y-1707299D01*
X-997208Y-1701136D01*
X-996535Y-1695135D01*
X-995170Y-1689343D01*
X-993143Y-1683810D01*
X-990487Y-1678584D01*
X-987235Y-1673714D01*
X-983420Y-1669248D01*
X-979074Y-1665235D01*
X-974230Y-1661722D01*
X-968920Y-1658760D01*
X-963176Y-1656396D01*
X-957031Y-1654679D01*
X-956860Y-1654642D01*
X-955092Y-1654324D01*
X-953168Y-1654111D01*
X-950898Y-1653992D01*
X-948093Y-1653951D01*
X-946938Y-1653954D01*
G36*
X-946938Y-1653954D02*
G01*
X-944770Y-1653991D01*
X-942673Y-1654092D01*
X-940549Y-1654271D01*
X-938296Y-1654545D01*
X-935815Y-1654931D01*
X-933004Y-1655444D01*
X-929763Y-1656100D01*
X-925992Y-1656916D01*
X-921591Y-1657908D01*
X-919752Y-1658330D01*
X-908411Y-1661181D01*
X-896793Y-1664561D01*
X-885084Y-1668402D01*
X-873470Y-1672638D01*
X-862136Y-1677202D01*
X-851269Y-1682028D01*
X-844152Y-1685469D01*
X-841399Y-1686917D01*
X-839296Y-1688197D01*
X-837739Y-1689388D01*
X-836624Y-1690572D01*
X-835847Y-1691830D01*
X-835760Y-1692016D01*
X-835162Y-1693819D01*
X-835167Y-1695502D01*
X-835563Y-1696926D01*
X-836648Y-1698897D01*
X-838480Y-1700922D01*
X-841018Y-1702956D01*
X-841497Y-1703286D01*
X-848820Y-1708694D01*
X-855567Y-1714614D01*
X-861713Y-1721018D01*
X-867235Y-1727877D01*
X-872107Y-1735160D01*
X-876307Y-1742840D01*
X-878858Y-1748495D01*
X-880092Y-1751614D01*
X-881214Y-1754753D01*
X-882289Y-1758116D01*
X-883383Y-1761903D01*
X-884268Y-1765197D01*
X-884800Y-1767021D01*
X-885341Y-1768326D01*
X-886025Y-1769376D01*
X-886770Y-1770218D01*
X-888327Y-1771562D01*
X-889965Y-1772370D01*
X-891796Y-1772646D01*
X-893930Y-1772396D01*
X-896475Y-1771622D01*
X-898718Y-1770703D01*
X-910770Y-1765758D01*
X-923199Y-1761430D01*
X-936063Y-1757700D01*
X-949421Y-1754550D01*
X-952489Y-1753922D01*
X-955957Y-1753212D01*
X-958795Y-1752580D01*
X-961157Y-1751983D01*
X-963196Y-1751375D01*
X-965067Y-1750713D01*
X-966923Y-1749950D01*
X-968307Y-1749327D01*
X-973605Y-1746453D01*
X-978512Y-1742939D01*
X-982970Y-1738857D01*
X-986923Y-1734279D01*
X-990313Y-1729280D01*
X-993084Y-1723932D01*
X-995177Y-1718307D01*
X-996342Y-1713575D01*
X-997154Y-1707299D01*
X-997208Y-1701136D01*
X-996535Y-1695135D01*
X-995170Y-1689343D01*
X-993143Y-1683810D01*
X-990487Y-1678584D01*
X-987235Y-1673714D01*
X-983420Y-1669248D01*
X-979074Y-1665235D01*
X-974230Y-1661722D01*
X-968920Y-1658760D01*
X-963176Y-1656396D01*
X-957031Y-1654679D01*
X-956860Y-1654642D01*
X-955092Y-1654324D01*
X-953168Y-1654111D01*
X-950898Y-1653992D01*
X-948093Y-1653951D01*
X-946938Y-1653954D01*
G37*
X-811371Y-1749694D02*
X-810369Y-1749970D01*
X-809780Y-1750189D01*
X-809181Y-1750487D01*
X-808509Y-1750918D01*
X-807700Y-1751540D01*
X-806691Y-1752407D01*
X-805419Y-1753575D01*
X-803820Y-1755101D01*
X-801832Y-1757040D01*
X-799392Y-1759448D01*
X-797416Y-1761408D01*
X-786601Y-1772143D01*
X-775984Y-1761623D01*
X-773128Y-1758814D01*
X-770552Y-1756327D01*
X-768307Y-1754206D01*
X-766443Y-1752497D01*
X-765008Y-1751246D01*
X-764051Y-1750499D01*
X-763780Y-1750335D01*
X-761965Y-1749771D01*
X-759765Y-1749545D01*
X-757494Y-1749653D01*
X-755468Y-1750091D01*
X-754615Y-1750449D01*
X-752692Y-1751814D01*
X-751014Y-1753651D01*
X-749889Y-1755583D01*
X-749482Y-1757170D01*
X-749319Y-1759169D01*
X-749400Y-1761237D01*
X-749724Y-1763032D01*
X-749909Y-1763569D01*
X-750400Y-1764320D01*
X-751465Y-1765601D01*
X-753093Y-1767401D01*
X-755276Y-1769711D01*
X-758003Y-1772519D01*
X-761267Y-1775817D01*
X-761306Y-1775856D01*
X-772089Y-1786667D01*
X-761506Y-1797297D01*
X-758412Y-1800424D01*
X-755861Y-1803043D01*
X-753819Y-1805192D01*
X-752253Y-1806909D01*
X-751128Y-1808231D01*
X-750410Y-1809194D01*
X-750117Y-1809703D01*
X-749410Y-1812134D01*
X-749301Y-1814793D01*
X-749782Y-1817391D01*
X-750322Y-1818744D01*
X-751888Y-1821065D01*
X-753950Y-1822787D01*
X-756213Y-1823793D01*
X-757982Y-1824231D01*
X-759484Y-1824335D01*
X-761084Y-1824101D01*
X-762418Y-1823747D01*
X-762993Y-1823560D01*
X-763556Y-1823312D01*
X-764171Y-1822949D01*
X-764901Y-1822416D01*
X-765807Y-1821658D01*
X-766952Y-1820619D01*
X-768398Y-1819246D01*
X-770209Y-1817482D01*
X-772445Y-1815272D01*
X-775171Y-1812563D01*
X-775587Y-1812148D01*
X-786601Y-1801179D01*
X-797614Y-1812148D01*
X-800412Y-1814930D01*
X-802712Y-1817205D01*
X-804577Y-1819027D01*
X-806070Y-1820452D01*
X-807253Y-1821533D01*
X-808188Y-1822327D01*
X-808938Y-1822887D01*
X-809565Y-1823270D01*
X-810132Y-1823531D01*
X-810701Y-1823723D01*
X-810783Y-1823747D01*
X-812661Y-1824212D01*
X-814190Y-1824338D01*
X-815737Y-1824128D01*
X-816989Y-1823793D01*
X-819454Y-1822669D01*
X-821442Y-1820960D01*
X-822886Y-1818761D01*
X-823717Y-1816165D01*
X-823898Y-1814080D01*
X-823875Y-1812964D01*
X-823780Y-1811968D01*
X-823563Y-1811023D01*
X-823176Y-1810061D01*
X-822569Y-1809013D01*
X-821691Y-1807812D01*
X-820495Y-1806390D01*
X-818929Y-1804679D01*
X-816946Y-1802609D01*
X-814494Y-1800115D01*
X-811696Y-1797297D01*
X-801113Y-1786667D01*
X-811879Y-1775856D01*
X-815119Y-1772581D01*
X-817795Y-1769828D01*
X-819923Y-1767579D01*
X-821522Y-1765816D01*
X-822607Y-1764520D01*
X-823195Y-1763673D01*
X-823276Y-1763508D01*
X-823863Y-1761116D01*
X-823841Y-1758511D01*
X-823255Y-1755934D01*
X-822150Y-1753622D01*
X-821205Y-1752407D01*
X-819186Y-1750828D01*
X-816756Y-1749823D01*
X-814092Y-1749432D01*
X-811371Y-1749694D01*
G36*
X-811371Y-1749694D02*
G01*
X-810369Y-1749970D01*
X-809780Y-1750189D01*
X-809181Y-1750487D01*
X-808509Y-1750918D01*
X-807700Y-1751540D01*
X-806691Y-1752407D01*
X-805419Y-1753575D01*
X-803820Y-1755101D01*
X-801832Y-1757040D01*
X-799392Y-1759448D01*
X-797416Y-1761408D01*
X-786601Y-1772143D01*
X-775984Y-1761623D01*
X-773128Y-1758814D01*
X-770552Y-1756327D01*
X-768307Y-1754206D01*
X-766443Y-1752497D01*
X-765008Y-1751246D01*
X-764051Y-1750499D01*
X-763780Y-1750335D01*
X-761965Y-1749771D01*
X-759765Y-1749545D01*
X-757494Y-1749653D01*
X-755468Y-1750091D01*
X-754615Y-1750449D01*
X-752692Y-1751814D01*
X-751014Y-1753651D01*
X-749889Y-1755583D01*
X-749482Y-1757170D01*
X-749319Y-1759169D01*
X-749400Y-1761237D01*
X-749724Y-1763032D01*
X-749909Y-1763569D01*
X-750400Y-1764320D01*
X-751465Y-1765601D01*
X-753093Y-1767401D01*
X-755276Y-1769711D01*
X-758003Y-1772519D01*
X-761267Y-1775817D01*
X-761306Y-1775856D01*
X-772089Y-1786667D01*
X-761506Y-1797297D01*
X-758412Y-1800424D01*
X-755861Y-1803043D01*
X-753819Y-1805192D01*
X-752253Y-1806909D01*
X-751128Y-1808231D01*
X-750410Y-1809194D01*
X-750117Y-1809703D01*
X-749410Y-1812134D01*
X-749301Y-1814793D01*
X-749782Y-1817391D01*
X-750322Y-1818744D01*
X-751888Y-1821065D01*
X-753950Y-1822787D01*
X-756213Y-1823793D01*
X-757982Y-1824231D01*
X-759484Y-1824335D01*
X-761084Y-1824101D01*
X-762418Y-1823747D01*
X-762993Y-1823560D01*
X-763556Y-1823312D01*
X-764171Y-1822949D01*
X-764901Y-1822416D01*
X-765807Y-1821658D01*
X-766952Y-1820619D01*
X-768398Y-1819246D01*
X-770209Y-1817482D01*
X-772445Y-1815272D01*
X-775171Y-1812563D01*
X-775587Y-1812148D01*
X-786601Y-1801179D01*
X-797614Y-1812148D01*
X-800412Y-1814930D01*
X-802712Y-1817205D01*
X-804577Y-1819027D01*
X-806070Y-1820452D01*
X-807253Y-1821533D01*
X-808188Y-1822327D01*
X-808938Y-1822887D01*
X-809565Y-1823270D01*
X-810132Y-1823531D01*
X-810701Y-1823723D01*
X-810783Y-1823747D01*
X-812661Y-1824212D01*
X-814190Y-1824338D01*
X-815737Y-1824128D01*
X-816989Y-1823793D01*
X-819454Y-1822669D01*
X-821442Y-1820960D01*
X-822886Y-1818761D01*
X-823717Y-1816165D01*
X-823898Y-1814080D01*
X-823875Y-1812964D01*
X-823780Y-1811968D01*
X-823563Y-1811023D01*
X-823176Y-1810061D01*
X-822569Y-1809013D01*
X-821691Y-1807812D01*
X-820495Y-1806390D01*
X-818929Y-1804679D01*
X-816946Y-1802609D01*
X-814494Y-1800115D01*
X-811696Y-1797297D01*
X-801113Y-1786667D01*
X-811879Y-1775856D01*
X-815119Y-1772581D01*
X-817795Y-1769828D01*
X-819923Y-1767579D01*
X-821522Y-1765816D01*
X-822607Y-1764520D01*
X-823195Y-1763673D01*
X-823276Y-1763508D01*
X-823863Y-1761116D01*
X-823841Y-1758511D01*
X-823255Y-1755934D01*
X-822150Y-1753622D01*
X-821205Y-1752407D01*
X-819186Y-1750828D01*
X-816756Y-1749823D01*
X-814092Y-1749432D01*
X-811371Y-1749694D01*
G37*
%TO.C,MH4*%
X951195Y-1653549D02*
X954554Y-1653936D01*
X960897Y-1655385D01*
X966875Y-1657522D01*
X972453Y-1660325D01*
X977596Y-1663767D01*
X982268Y-1667826D01*
X986435Y-1672478D01*
X990061Y-1677698D01*
X990557Y-1678529D01*
X993186Y-1683801D01*
X995157Y-1689424D01*
X996459Y-1695292D01*
X997081Y-1701299D01*
X997013Y-1707336D01*
X996243Y-1713298D01*
X994762Y-1719077D01*
X994636Y-1719459D01*
X992344Y-1725065D01*
X989364Y-1730360D01*
X985763Y-1735275D01*
X981607Y-1739743D01*
X976962Y-1743693D01*
X971897Y-1747059D01*
X966477Y-1749770D01*
X964276Y-1750637D01*
X962848Y-1751092D01*
X960825Y-1751645D01*
X958397Y-1752250D01*
X955749Y-1752860D01*
X953070Y-1753428D01*
X953026Y-1753437D01*
X943053Y-1755599D01*
X933676Y-1757958D01*
X924711Y-1760570D01*
X915971Y-1763490D01*
X907273Y-1766775D01*
X902503Y-1768730D01*
X899053Y-1770098D01*
X896169Y-1771036D01*
X893758Y-1771548D01*
X891722Y-1771641D01*
X889966Y-1771319D01*
X888394Y-1770589D01*
X887066Y-1769594D01*
X886139Y-1768699D01*
X885373Y-1767728D01*
X884699Y-1766542D01*
X884052Y-1765003D01*
X883363Y-1762972D01*
X882566Y-1760309D01*
X882541Y-1760221D01*
X880772Y-1754542D01*
X878868Y-1749369D01*
X876715Y-1744414D01*
X875096Y-1741108D01*
X870822Y-1733595D01*
X865869Y-1726437D01*
X860301Y-1719707D01*
X854181Y-1713479D01*
X847571Y-1707824D01*
X843839Y-1705048D01*
X840959Y-1702855D01*
X838784Y-1700821D01*
X837260Y-1698875D01*
X836332Y-1696943D01*
X835946Y-1694954D01*
X835928Y-1694437D01*
X836117Y-1692582D01*
X836750Y-1690909D01*
X837894Y-1689346D01*
X839614Y-1687824D01*
X841976Y-1686270D01*
X845046Y-1684615D01*
X845077Y-1684599D01*
X857236Y-1678860D01*
X870001Y-1673517D01*
X883272Y-1668605D01*
X896949Y-1664158D01*
X910934Y-1660209D01*
X925125Y-1656791D01*
X930989Y-1655550D01*
X936937Y-1654469D01*
X942250Y-1653778D01*
X946985Y-1653472D01*
X951195Y-1653549D01*
G36*
X951195Y-1653549D02*
G01*
X954554Y-1653936D01*
X960897Y-1655385D01*
X966875Y-1657522D01*
X972453Y-1660325D01*
X977596Y-1663767D01*
X982268Y-1667826D01*
X986435Y-1672478D01*
X990061Y-1677698D01*
X990557Y-1678529D01*
X993186Y-1683801D01*
X995157Y-1689424D01*
X996459Y-1695292D01*
X997081Y-1701299D01*
X997013Y-1707336D01*
X996243Y-1713298D01*
X994762Y-1719077D01*
X994636Y-1719459D01*
X992344Y-1725065D01*
X989364Y-1730360D01*
X985763Y-1735275D01*
X981607Y-1739743D01*
X976962Y-1743693D01*
X971897Y-1747059D01*
X966477Y-1749770D01*
X964276Y-1750637D01*
X962848Y-1751092D01*
X960825Y-1751645D01*
X958397Y-1752250D01*
X955749Y-1752860D01*
X953070Y-1753428D01*
X953026Y-1753437D01*
X943053Y-1755599D01*
X933676Y-1757958D01*
X924711Y-1760570D01*
X915971Y-1763490D01*
X907273Y-1766775D01*
X902503Y-1768730D01*
X899053Y-1770098D01*
X896169Y-1771036D01*
X893758Y-1771548D01*
X891722Y-1771641D01*
X889966Y-1771319D01*
X888394Y-1770589D01*
X887066Y-1769594D01*
X886139Y-1768699D01*
X885373Y-1767728D01*
X884699Y-1766542D01*
X884052Y-1765003D01*
X883363Y-1762972D01*
X882566Y-1760309D01*
X882541Y-1760221D01*
X880772Y-1754542D01*
X878868Y-1749369D01*
X876715Y-1744414D01*
X875096Y-1741108D01*
X870822Y-1733595D01*
X865869Y-1726437D01*
X860301Y-1719707D01*
X854181Y-1713479D01*
X847571Y-1707824D01*
X843839Y-1705048D01*
X840959Y-1702855D01*
X838784Y-1700821D01*
X837260Y-1698875D01*
X836332Y-1696943D01*
X835946Y-1694954D01*
X835928Y-1694437D01*
X836117Y-1692582D01*
X836750Y-1690909D01*
X837894Y-1689346D01*
X839614Y-1687824D01*
X841976Y-1686270D01*
X845046Y-1684615D01*
X845077Y-1684599D01*
X857236Y-1678860D01*
X870001Y-1673517D01*
X883272Y-1668605D01*
X896949Y-1664158D01*
X910934Y-1660209D01*
X925125Y-1656791D01*
X930989Y-1655550D01*
X936937Y-1654469D01*
X942250Y-1653778D01*
X946985Y-1653472D01*
X951195Y-1653549D01*
G37*
X695305Y-1834899D02*
X696729Y-1835294D01*
X698700Y-1836380D01*
X700725Y-1838212D01*
X702759Y-1840750D01*
X703089Y-1841228D01*
X708497Y-1848552D01*
X714417Y-1855298D01*
X720821Y-1861445D01*
X727680Y-1866966D01*
X734963Y-1871839D01*
X742643Y-1876038D01*
X748298Y-1878589D01*
X751417Y-1879824D01*
X754556Y-1880946D01*
X757918Y-1882021D01*
X761706Y-1883114D01*
X765000Y-1884000D01*
X766824Y-1884531D01*
X768129Y-1885073D01*
X769179Y-1885757D01*
X770021Y-1886502D01*
X771365Y-1888058D01*
X772173Y-1889697D01*
X772449Y-1891528D01*
X772199Y-1893661D01*
X771425Y-1896206D01*
X770506Y-1898449D01*
X765561Y-1910501D01*
X761233Y-1922930D01*
X757503Y-1935794D01*
X754353Y-1949152D01*
X753725Y-1952220D01*
X753014Y-1955689D01*
X752383Y-1958527D01*
X751786Y-1960889D01*
X751178Y-1962928D01*
X750515Y-1964799D01*
X749752Y-1966655D01*
X749130Y-1968039D01*
X746256Y-1973337D01*
X742742Y-1978244D01*
X738659Y-1982702D01*
X734082Y-1986655D01*
X729083Y-1990045D01*
X723735Y-1992815D01*
X718110Y-1994909D01*
X713378Y-1996073D01*
X707102Y-1996886D01*
X700939Y-1996939D01*
X694938Y-1996267D01*
X689146Y-1994901D01*
X683613Y-1992874D01*
X678387Y-1990219D01*
X673517Y-1986967D01*
X669051Y-1983152D01*
X665038Y-1978806D01*
X661525Y-1973962D01*
X658563Y-1968651D01*
X656199Y-1962907D01*
X654482Y-1956763D01*
X654445Y-1956592D01*
X654127Y-1954823D01*
X653914Y-1952899D01*
X653795Y-1950629D01*
X653754Y-1947825D01*
X653757Y-1946670D01*
X653794Y-1944501D01*
X653895Y-1942405D01*
X654074Y-1940281D01*
X654348Y-1938028D01*
X654734Y-1935546D01*
X655247Y-1932735D01*
X655903Y-1929494D01*
X656719Y-1925724D01*
X657711Y-1921322D01*
X658133Y-1919484D01*
X660984Y-1908143D01*
X664364Y-1896525D01*
X668205Y-1884816D01*
X672441Y-1873202D01*
X677005Y-1861868D01*
X681831Y-1851000D01*
X685272Y-1843884D01*
X686720Y-1841131D01*
X688000Y-1839028D01*
X689191Y-1837471D01*
X690375Y-1836355D01*
X691633Y-1835578D01*
X691819Y-1835491D01*
X693622Y-1834894D01*
X695305Y-1834899D01*
G36*
X695305Y-1834899D02*
G01*
X696729Y-1835294D01*
X698700Y-1836380D01*
X700725Y-1838212D01*
X702759Y-1840750D01*
X703089Y-1841228D01*
X708497Y-1848552D01*
X714417Y-1855298D01*
X720821Y-1861445D01*
X727680Y-1866966D01*
X734963Y-1871839D01*
X742643Y-1876038D01*
X748298Y-1878589D01*
X751417Y-1879824D01*
X754556Y-1880946D01*
X757918Y-1882021D01*
X761706Y-1883114D01*
X765000Y-1884000D01*
X766824Y-1884531D01*
X768129Y-1885073D01*
X769179Y-1885757D01*
X770021Y-1886502D01*
X771365Y-1888058D01*
X772173Y-1889697D01*
X772449Y-1891528D01*
X772199Y-1893661D01*
X771425Y-1896206D01*
X770506Y-1898449D01*
X765561Y-1910501D01*
X761233Y-1922930D01*
X757503Y-1935794D01*
X754353Y-1949152D01*
X753725Y-1952220D01*
X753014Y-1955689D01*
X752383Y-1958527D01*
X751786Y-1960889D01*
X751178Y-1962928D01*
X750515Y-1964799D01*
X749752Y-1966655D01*
X749130Y-1968039D01*
X746256Y-1973337D01*
X742742Y-1978244D01*
X738659Y-1982702D01*
X734082Y-1986655D01*
X729083Y-1990045D01*
X723735Y-1992815D01*
X718110Y-1994909D01*
X713378Y-1996073D01*
X707102Y-1996886D01*
X700939Y-1996939D01*
X694938Y-1996267D01*
X689146Y-1994901D01*
X683613Y-1992874D01*
X678387Y-1990219D01*
X673517Y-1986967D01*
X669051Y-1983152D01*
X665038Y-1978806D01*
X661525Y-1973962D01*
X658563Y-1968651D01*
X656199Y-1962907D01*
X654482Y-1956763D01*
X654445Y-1956592D01*
X654127Y-1954823D01*
X653914Y-1952899D01*
X653795Y-1950629D01*
X653754Y-1947825D01*
X653757Y-1946670D01*
X653794Y-1944501D01*
X653895Y-1942405D01*
X654074Y-1940281D01*
X654348Y-1938028D01*
X654734Y-1935546D01*
X655247Y-1932735D01*
X655903Y-1929494D01*
X656719Y-1925724D01*
X657711Y-1921322D01*
X658133Y-1919484D01*
X660984Y-1908143D01*
X664364Y-1896525D01*
X668205Y-1884816D01*
X672441Y-1873202D01*
X677005Y-1861868D01*
X681831Y-1851000D01*
X685272Y-1843884D01*
X686720Y-1841131D01*
X688000Y-1839028D01*
X689191Y-1837471D01*
X690375Y-1836355D01*
X691633Y-1835578D01*
X691819Y-1835491D01*
X693622Y-1834894D01*
X695305Y-1834899D01*
G37*
X816166Y-1746567D02*
X817064Y-1746767D01*
X820067Y-1747991D01*
X822565Y-1749781D01*
X824501Y-1752059D01*
X825820Y-1754745D01*
X826464Y-1757762D01*
X826491Y-1759912D01*
X826445Y-1760663D01*
X826385Y-1761350D01*
X826280Y-1762008D01*
X826101Y-1762672D01*
X825814Y-1763379D01*
X825389Y-1764165D01*
X824796Y-1765064D01*
X824001Y-1766113D01*
X822975Y-1767347D01*
X821685Y-1768802D01*
X820102Y-1770514D01*
X818192Y-1772519D01*
X815926Y-1774852D01*
X813272Y-1777549D01*
X810199Y-1780645D01*
X806675Y-1784177D01*
X802670Y-1788180D01*
X798151Y-1792690D01*
X795520Y-1795315D01*
X790864Y-1799961D01*
X786735Y-1804077D01*
X783097Y-1807698D01*
X779917Y-1810856D01*
X777160Y-1813584D01*
X774791Y-1815914D01*
X772776Y-1817881D01*
X771080Y-1819515D01*
X769669Y-1820851D01*
X768509Y-1821921D01*
X767564Y-1822758D01*
X766800Y-1823394D01*
X766183Y-1823864D01*
X765678Y-1824198D01*
X765251Y-1824431D01*
X764867Y-1824596D01*
X764649Y-1824673D01*
X761496Y-1825345D01*
X758405Y-1825284D01*
X755483Y-1824531D01*
X752836Y-1823125D01*
X750571Y-1821106D01*
X748951Y-1818804D01*
X748392Y-1817723D01*
X748046Y-1816772D01*
X747862Y-1815700D01*
X747791Y-1814258D01*
X747782Y-1812923D01*
X747816Y-1810969D01*
X747947Y-1809551D01*
X748218Y-1808412D01*
X748670Y-1807298D01*
X748732Y-1807168D01*
X748998Y-1806725D01*
X749474Y-1806092D01*
X750189Y-1805239D01*
X751172Y-1804135D01*
X752452Y-1802750D01*
X754058Y-1801055D01*
X756019Y-1799020D01*
X758364Y-1796613D01*
X761122Y-1793805D01*
X764322Y-1790566D01*
X767994Y-1786865D01*
X772166Y-1782673D01*
X776868Y-1777959D01*
X777902Y-1776923D01*
X782579Y-1772242D01*
X786732Y-1768091D01*
X790393Y-1764439D01*
X793598Y-1761253D01*
X796379Y-1758501D01*
X798771Y-1756149D01*
X800808Y-1754165D01*
X802523Y-1752517D01*
X803951Y-1751172D01*
X805125Y-1750097D01*
X806080Y-1749260D01*
X806848Y-1748628D01*
X807465Y-1748169D01*
X807964Y-1747849D01*
X808339Y-1747655D01*
X810896Y-1746802D01*
X813605Y-1746429D01*
X816166Y-1746567D01*
G36*
X816166Y-1746567D02*
G01*
X817064Y-1746767D01*
X820067Y-1747991D01*
X822565Y-1749781D01*
X824501Y-1752059D01*
X825820Y-1754745D01*
X826464Y-1757762D01*
X826491Y-1759912D01*
X826445Y-1760663D01*
X826385Y-1761350D01*
X826280Y-1762008D01*
X826101Y-1762672D01*
X825814Y-1763379D01*
X825389Y-1764165D01*
X824796Y-1765064D01*
X824001Y-1766113D01*
X822975Y-1767347D01*
X821685Y-1768802D01*
X820102Y-1770514D01*
X818192Y-1772519D01*
X815926Y-1774852D01*
X813272Y-1777549D01*
X810199Y-1780645D01*
X806675Y-1784177D01*
X802670Y-1788180D01*
X798151Y-1792690D01*
X795520Y-1795315D01*
X790864Y-1799961D01*
X786735Y-1804077D01*
X783097Y-1807698D01*
X779917Y-1810856D01*
X777160Y-1813584D01*
X774791Y-1815914D01*
X772776Y-1817881D01*
X771080Y-1819515D01*
X769669Y-1820851D01*
X768509Y-1821921D01*
X767564Y-1822758D01*
X766800Y-1823394D01*
X766183Y-1823864D01*
X765678Y-1824198D01*
X765251Y-1824431D01*
X764867Y-1824596D01*
X764649Y-1824673D01*
X761496Y-1825345D01*
X758405Y-1825284D01*
X755483Y-1824531D01*
X752836Y-1823125D01*
X750571Y-1821106D01*
X748951Y-1818804D01*
X748392Y-1817723D01*
X748046Y-1816772D01*
X747862Y-1815700D01*
X747791Y-1814258D01*
X747782Y-1812923D01*
X747816Y-1810969D01*
X747947Y-1809551D01*
X748218Y-1808412D01*
X748670Y-1807298D01*
X748732Y-1807168D01*
X748998Y-1806725D01*
X749474Y-1806092D01*
X750189Y-1805239D01*
X751172Y-1804135D01*
X752452Y-1802750D01*
X754058Y-1801055D01*
X756019Y-1799020D01*
X758364Y-1796613D01*
X761122Y-1793805D01*
X764322Y-1790566D01*
X767994Y-1786865D01*
X772166Y-1782673D01*
X776868Y-1777959D01*
X777902Y-1776923D01*
X782579Y-1772242D01*
X786732Y-1768091D01*
X790393Y-1764439D01*
X793598Y-1761253D01*
X796379Y-1758501D01*
X798771Y-1756149D01*
X800808Y-1754165D01*
X802523Y-1752517D01*
X803951Y-1751172D01*
X805125Y-1750097D01*
X806080Y-1749260D01*
X806848Y-1748628D01*
X807465Y-1748169D01*
X807964Y-1747849D01*
X808339Y-1747655D01*
X810896Y-1746802D01*
X813605Y-1746429D01*
X816166Y-1746567D01*
G37*
D11*
%TO.C,*%
G36*
X-850500Y1043545D02*
G01*
X-840146Y1038483D01*
X-831997Y1030334D01*
X-826935Y1019980D01*
X-825480Y1009990D01*
X-825480Y990010D01*
X-826935Y980020D01*
X-831997Y969667D01*
X-840146Y961517D01*
X-850500Y956456D01*
X-860490Y955000D01*
X-1295470Y955000D01*
X-1305460Y956456D01*
X-1315814Y961517D01*
X-1323963Y969667D01*
X-1329025Y980020D01*
X-1330480Y990010D01*
X-1330480Y1009990D01*
X-1329025Y1019980D01*
X-1323963Y1030334D01*
X-1315814Y1038483D01*
X-1305460Y1043545D01*
X-1295470Y1045000D01*
X-860490Y1045000D01*
X-850500Y1043545D01*
G37*
G36*
X-850500Y916545D02*
G01*
X-840146Y911483D01*
X-831997Y903334D01*
X-826935Y892980D01*
X-825480Y882990D01*
X-825480Y863010D01*
X-826935Y853020D01*
X-831997Y842667D01*
X-840146Y834517D01*
X-850500Y829456D01*
X-860490Y828000D01*
X-1295470Y828000D01*
X-1305460Y829456D01*
X-1315814Y834517D01*
X-1323963Y842667D01*
X-1329025Y853020D01*
X-1330480Y863010D01*
X-1330480Y882990D01*
X-1329025Y892980D01*
X-1323963Y903334D01*
X-1315814Y911483D01*
X-1305460Y916545D01*
X-1295470Y918000D01*
X-860490Y918000D01*
X-850500Y916545D01*
G37*
G36*
X-850500Y1170545D02*
G01*
X-840146Y1165483D01*
X-831997Y1157334D01*
X-826935Y1146980D01*
X-825480Y1136990D01*
X-825480Y1117010D01*
X-826935Y1107021D01*
X-831997Y1096667D01*
X-840146Y1088517D01*
X-850500Y1083456D01*
X-860490Y1082000D01*
X-1245470Y1082000D01*
X-1255460Y1083456D01*
X-1265814Y1088517D01*
X-1273963Y1096667D01*
X-1279025Y1107021D01*
X-1280480Y1117010D01*
X-1280480Y1136990D01*
X-1279025Y1146980D01*
X-1273963Y1157334D01*
X-1265814Y1165483D01*
X-1255460Y1170545D01*
X-1245470Y1172000D01*
X-860490Y1172000D01*
X-850500Y1170545D01*
G37*
D12*
%TO.C,MH2*%
X707585Y1997561D02*
X713547Y1996791D01*
X719327Y1995310D01*
X719708Y1995184D01*
X725314Y1992892D01*
X730609Y1989912D01*
X735525Y1986311D01*
X739992Y1982155D01*
X743943Y1977510D01*
X747308Y1972445D01*
X750019Y1967025D01*
X750887Y1964824D01*
X751342Y1963396D01*
X751895Y1961373D01*
X752500Y1958945D01*
X753109Y1956297D01*
X753677Y1953618D01*
X753686Y1953574D01*
X755849Y1943601D01*
X758208Y1934224D01*
X760820Y1925259D01*
X763740Y1916519D01*
X767024Y1907821D01*
X768979Y1903051D01*
X770347Y1899601D01*
X771285Y1896717D01*
X771798Y1894306D01*
X771890Y1892270D01*
X771569Y1890514D01*
X770838Y1888942D01*
X769843Y1887614D01*
X768948Y1886687D01*
X767977Y1885921D01*
X766792Y1885247D01*
X765252Y1884600D01*
X763221Y1883911D01*
X760559Y1883114D01*
X760470Y1883089D01*
X754791Y1881320D01*
X749618Y1879416D01*
X744664Y1877263D01*
X741358Y1875644D01*
X733844Y1871370D01*
X726686Y1866417D01*
X719957Y1860849D01*
X713728Y1854729D01*
X708074Y1848119D01*
X705297Y1844387D01*
X703104Y1841507D01*
X701071Y1839332D01*
X699125Y1837808D01*
X697193Y1836880D01*
X695203Y1836494D01*
X694687Y1836476D01*
X692832Y1836665D01*
X691158Y1837298D01*
X689596Y1838442D01*
X688073Y1840162D01*
X686520Y1842524D01*
X684865Y1845594D01*
X684849Y1845625D01*
X679109Y1857784D01*
X673767Y1870549D01*
X668855Y1883820D01*
X664407Y1897497D01*
X660458Y1911482D01*
X657041Y1925673D01*
X655800Y1931537D01*
X654719Y1937485D01*
X654028Y1942798D01*
X653722Y1947533D01*
X653798Y1951743D01*
X654185Y1955102D01*
X655634Y1961445D01*
X657772Y1967423D01*
X660574Y1973001D01*
X664017Y1978144D01*
X668076Y1982816D01*
X672727Y1986983D01*
X677948Y1990609D01*
X678779Y1991105D01*
X684050Y1993734D01*
X689674Y1995705D01*
X695542Y1997007D01*
X701548Y1997629D01*
X707585Y1997561D01*
G36*
X707585Y1997561D02*
G01*
X713547Y1996791D01*
X719327Y1995310D01*
X719708Y1995184D01*
X725314Y1992892D01*
X730609Y1989912D01*
X735525Y1986311D01*
X739992Y1982155D01*
X743943Y1977510D01*
X747308Y1972445D01*
X750019Y1967025D01*
X750887Y1964824D01*
X751342Y1963396D01*
X751895Y1961373D01*
X752500Y1958945D01*
X753109Y1956297D01*
X753677Y1953618D01*
X753686Y1953574D01*
X755849Y1943601D01*
X758208Y1934224D01*
X760820Y1925259D01*
X763740Y1916519D01*
X767024Y1907821D01*
X768979Y1903051D01*
X770347Y1899601D01*
X771285Y1896717D01*
X771798Y1894306D01*
X771890Y1892270D01*
X771569Y1890514D01*
X770838Y1888942D01*
X769843Y1887614D01*
X768948Y1886687D01*
X767977Y1885921D01*
X766792Y1885247D01*
X765252Y1884600D01*
X763221Y1883911D01*
X760559Y1883114D01*
X760470Y1883089D01*
X754791Y1881320D01*
X749618Y1879416D01*
X744664Y1877263D01*
X741358Y1875644D01*
X733844Y1871370D01*
X726686Y1866417D01*
X719957Y1860849D01*
X713728Y1854729D01*
X708074Y1848119D01*
X705297Y1844387D01*
X703104Y1841507D01*
X701071Y1839332D01*
X699125Y1837808D01*
X697193Y1836880D01*
X695203Y1836494D01*
X694687Y1836476D01*
X692832Y1836665D01*
X691158Y1837298D01*
X689596Y1838442D01*
X688073Y1840162D01*
X686520Y1842524D01*
X684865Y1845594D01*
X684849Y1845625D01*
X679109Y1857784D01*
X673767Y1870549D01*
X668855Y1883820D01*
X664407Y1897497D01*
X660458Y1911482D01*
X657041Y1925673D01*
X655800Y1931537D01*
X654719Y1937485D01*
X654028Y1942798D01*
X653722Y1947533D01*
X653798Y1951743D01*
X654185Y1955102D01*
X655634Y1961445D01*
X657772Y1967423D01*
X660574Y1973001D01*
X664017Y1978144D01*
X668076Y1982816D01*
X672727Y1986983D01*
X677948Y1990609D01*
X678779Y1991105D01*
X684050Y1993734D01*
X689674Y1995705D01*
X695542Y1997007D01*
X701548Y1997629D01*
X707585Y1997561D01*
G37*
X760913Y1826993D02*
X761599Y1826933D01*
X762257Y1826828D01*
X762922Y1826649D01*
X763629Y1826362D01*
X764414Y1825937D01*
X765313Y1825344D01*
X766362Y1824549D01*
X767597Y1823523D01*
X769052Y1822233D01*
X770764Y1820650D01*
X772769Y1818740D01*
X775102Y1816474D01*
X777798Y1813820D01*
X780895Y1810747D01*
X784427Y1807223D01*
X788430Y1803218D01*
X792940Y1798699D01*
X795565Y1796068D01*
X800210Y1791412D01*
X804327Y1787283D01*
X807948Y1783645D01*
X811106Y1780465D01*
X813833Y1777708D01*
X816164Y1775339D01*
X818130Y1773324D01*
X819765Y1771628D01*
X821100Y1770217D01*
X822170Y1769057D01*
X823007Y1768112D01*
X823644Y1767348D01*
X824113Y1766731D01*
X824448Y1766226D01*
X824681Y1765799D01*
X824845Y1765415D01*
X824922Y1765197D01*
X825594Y1762044D01*
X825534Y1758953D01*
X824780Y1756031D01*
X823374Y1753384D01*
X821355Y1751119D01*
X819054Y1749499D01*
X817972Y1748940D01*
X817021Y1748594D01*
X815949Y1748410D01*
X814507Y1748339D01*
X813172Y1748330D01*
X811218Y1748364D01*
X809800Y1748495D01*
X808662Y1748766D01*
X807548Y1749218D01*
X807418Y1749280D01*
X806975Y1749546D01*
X806342Y1750022D01*
X805488Y1750737D01*
X804384Y1751720D01*
X803000Y1753000D01*
X801305Y1754606D01*
X799269Y1756567D01*
X796862Y1758912D01*
X794054Y1761670D01*
X790815Y1764870D01*
X787115Y1768542D01*
X782922Y1772714D01*
X778209Y1777416D01*
X777173Y1778450D01*
X772491Y1783127D01*
X768341Y1787280D01*
X764689Y1790941D01*
X761503Y1794146D01*
X758750Y1796927D01*
X756398Y1799319D01*
X754415Y1801356D01*
X752766Y1803071D01*
X751421Y1804499D01*
X750346Y1805673D01*
X749509Y1806628D01*
X748877Y1807396D01*
X748418Y1808013D01*
X748099Y1808512D01*
X747904Y1808887D01*
X747052Y1811444D01*
X746679Y1814153D01*
X746816Y1816714D01*
X747017Y1817612D01*
X748241Y1820615D01*
X750031Y1823113D01*
X752308Y1825049D01*
X754995Y1826368D01*
X758011Y1827012D01*
X760161Y1827039D01*
X760913Y1826993D01*
G36*
X760913Y1826993D02*
G01*
X761599Y1826933D01*
X762257Y1826828D01*
X762922Y1826649D01*
X763629Y1826362D01*
X764414Y1825937D01*
X765313Y1825344D01*
X766362Y1824549D01*
X767597Y1823523D01*
X769052Y1822233D01*
X770764Y1820650D01*
X772769Y1818740D01*
X775102Y1816474D01*
X777798Y1813820D01*
X780895Y1810747D01*
X784427Y1807223D01*
X788430Y1803218D01*
X792940Y1798699D01*
X795565Y1796068D01*
X800210Y1791412D01*
X804327Y1787283D01*
X807948Y1783645D01*
X811106Y1780465D01*
X813833Y1777708D01*
X816164Y1775339D01*
X818130Y1773324D01*
X819765Y1771628D01*
X821100Y1770217D01*
X822170Y1769057D01*
X823007Y1768112D01*
X823644Y1767348D01*
X824113Y1766731D01*
X824448Y1766226D01*
X824681Y1765799D01*
X824845Y1765415D01*
X824922Y1765197D01*
X825594Y1762044D01*
X825534Y1758953D01*
X824780Y1756031D01*
X823374Y1753384D01*
X821355Y1751119D01*
X819054Y1749499D01*
X817972Y1748940D01*
X817021Y1748594D01*
X815949Y1748410D01*
X814507Y1748339D01*
X813172Y1748330D01*
X811218Y1748364D01*
X809800Y1748495D01*
X808662Y1748766D01*
X807548Y1749218D01*
X807418Y1749280D01*
X806975Y1749546D01*
X806342Y1750022D01*
X805488Y1750737D01*
X804384Y1751720D01*
X803000Y1753000D01*
X801305Y1754606D01*
X799269Y1756567D01*
X796862Y1758912D01*
X794054Y1761670D01*
X790815Y1764870D01*
X787115Y1768542D01*
X782922Y1772714D01*
X778209Y1777416D01*
X777173Y1778450D01*
X772491Y1783127D01*
X768341Y1787280D01*
X764689Y1790941D01*
X761503Y1794146D01*
X758750Y1796927D01*
X756398Y1799319D01*
X754415Y1801356D01*
X752766Y1803071D01*
X751421Y1804499D01*
X750346Y1805673D01*
X749509Y1806628D01*
X748877Y1807396D01*
X748418Y1808013D01*
X748099Y1808512D01*
X747904Y1808887D01*
X747052Y1811444D01*
X746679Y1814153D01*
X746816Y1816714D01*
X747017Y1817612D01*
X748241Y1820615D01*
X750031Y1823113D01*
X752308Y1825049D01*
X754995Y1826368D01*
X758011Y1827012D01*
X760161Y1827039D01*
X760913Y1826993D01*
G37*
X893911Y1772747D02*
X896456Y1771973D01*
X898699Y1771054D01*
X910751Y1766109D01*
X923180Y1761781D01*
X936044Y1758051D01*
X949402Y1754901D01*
X952470Y1754273D01*
X955938Y1753562D01*
X958776Y1752931D01*
X961138Y1752334D01*
X963177Y1751726D01*
X965048Y1751063D01*
X966905Y1750300D01*
X968288Y1749678D01*
X973586Y1746804D01*
X978493Y1743290D01*
X982952Y1739207D01*
X986904Y1734630D01*
X990294Y1729631D01*
X993065Y1724283D01*
X995158Y1718658D01*
X996323Y1713926D01*
X997135Y1707650D01*
X997189Y1701487D01*
X996517Y1695486D01*
X995151Y1689694D01*
X993124Y1684161D01*
X990468Y1678935D01*
X987217Y1674065D01*
X983402Y1669599D01*
X979056Y1665585D01*
X974211Y1662073D01*
X968901Y1659111D01*
X963157Y1656747D01*
X957012Y1655030D01*
X956841Y1654993D01*
X955073Y1654675D01*
X953149Y1654462D01*
X950879Y1654342D01*
X948074Y1654302D01*
X946919Y1654305D01*
X944751Y1654342D01*
X942654Y1654443D01*
X940530Y1654622D01*
X938277Y1654896D01*
X935796Y1655282D01*
X932985Y1655795D01*
X929744Y1656451D01*
X925973Y1657267D01*
X921572Y1658259D01*
X919733Y1658681D01*
X908392Y1661532D01*
X896774Y1664911D01*
X885065Y1668753D01*
X873451Y1672989D01*
X862118Y1677553D01*
X851250Y1682379D01*
X844133Y1685820D01*
X841380Y1687268D01*
X839277Y1688548D01*
X837720Y1689739D01*
X836605Y1690923D01*
X835828Y1692181D01*
X835741Y1692367D01*
X835143Y1694170D01*
X835148Y1695853D01*
X835544Y1697277D01*
X836629Y1699248D01*
X838461Y1701273D01*
X840999Y1703307D01*
X841478Y1703637D01*
X848801Y1709045D01*
X855548Y1714965D01*
X861694Y1721369D01*
X867216Y1728228D01*
X872088Y1735511D01*
X876288Y1743191D01*
X878839Y1748846D01*
X880073Y1751965D01*
X881195Y1755104D01*
X882270Y1758466D01*
X883364Y1762254D01*
X884249Y1765548D01*
X884781Y1767372D01*
X885322Y1768677D01*
X886006Y1769727D01*
X886751Y1770569D01*
X888308Y1771913D01*
X889946Y1772721D01*
X891777Y1772997D01*
X893911Y1772747D01*
G36*
X893911Y1772747D02*
G01*
X896456Y1771973D01*
X898699Y1771054D01*
X910751Y1766109D01*
X923180Y1761781D01*
X936044Y1758051D01*
X949402Y1754901D01*
X952470Y1754273D01*
X955938Y1753562D01*
X958776Y1752931D01*
X961138Y1752334D01*
X963177Y1751726D01*
X965048Y1751063D01*
X966905Y1750300D01*
X968288Y1749678D01*
X973586Y1746804D01*
X978493Y1743290D01*
X982952Y1739207D01*
X986904Y1734630D01*
X990294Y1729631D01*
X993065Y1724283D01*
X995158Y1718658D01*
X996323Y1713926D01*
X997135Y1707650D01*
X997189Y1701487D01*
X996517Y1695486D01*
X995151Y1689694D01*
X993124Y1684161D01*
X990468Y1678935D01*
X987217Y1674065D01*
X983402Y1669599D01*
X979056Y1665585D01*
X974211Y1662073D01*
X968901Y1659111D01*
X963157Y1656747D01*
X957012Y1655030D01*
X956841Y1654993D01*
X955073Y1654675D01*
X953149Y1654462D01*
X950879Y1654342D01*
X948074Y1654302D01*
X946919Y1654305D01*
X944751Y1654342D01*
X942654Y1654443D01*
X940530Y1654622D01*
X938277Y1654896D01*
X935796Y1655282D01*
X932985Y1655795D01*
X929744Y1656451D01*
X925973Y1657267D01*
X921572Y1658259D01*
X919733Y1658681D01*
X908392Y1661532D01*
X896774Y1664911D01*
X885065Y1668753D01*
X873451Y1672989D01*
X862118Y1677553D01*
X851250Y1682379D01*
X844133Y1685820D01*
X841380Y1687268D01*
X839277Y1688548D01*
X837720Y1689739D01*
X836605Y1690923D01*
X835828Y1692181D01*
X835741Y1692367D01*
X835143Y1694170D01*
X835148Y1695853D01*
X835544Y1697277D01*
X836629Y1699248D01*
X838461Y1701273D01*
X840999Y1703307D01*
X841478Y1703637D01*
X848801Y1709045D01*
X855548Y1714965D01*
X861694Y1721369D01*
X867216Y1728228D01*
X872088Y1735511D01*
X876288Y1743191D01*
X878839Y1748846D01*
X880073Y1751965D01*
X881195Y1755104D01*
X882270Y1758466D01*
X883364Y1762254D01*
X884249Y1765548D01*
X884781Y1767372D01*
X885322Y1768677D01*
X886006Y1769727D01*
X886751Y1770569D01*
X888308Y1771913D01*
X889946Y1772721D01*
X891777Y1772997D01*
X893911Y1772747D01*
G37*
%TO.C,MH1*%
X-889984Y1771069D02*
X-888412Y1770338D01*
X-887084Y1769343D01*
X-886157Y1768448D01*
X-885391Y1767477D01*
X-884717Y1766291D01*
X-884070Y1764752D01*
X-883381Y1762721D01*
X-882584Y1760059D01*
X-882559Y1759970D01*
X-880790Y1754291D01*
X-878886Y1749118D01*
X-876733Y1744164D01*
X-875114Y1740857D01*
X-870840Y1733344D01*
X-865887Y1726186D01*
X-860319Y1719457D01*
X-854199Y1713228D01*
X-847589Y1707573D01*
X-843857Y1704797D01*
X-840977Y1702604D01*
X-838802Y1700571D01*
X-837278Y1698624D01*
X-836350Y1696693D01*
X-835964Y1694703D01*
X-835946Y1694187D01*
X-836135Y1692331D01*
X-836768Y1690658D01*
X-837912Y1689096D01*
X-839632Y1687573D01*
X-841994Y1686020D01*
X-845064Y1684364D01*
X-845095Y1684349D01*
X-857254Y1678609D01*
X-870019Y1673266D01*
X-883290Y1668354D01*
X-896967Y1663907D01*
X-910952Y1659958D01*
X-925143Y1656541D01*
X-931007Y1655299D01*
X-936955Y1654219D01*
X-942268Y1653527D01*
X-947003Y1653222D01*
X-951213Y1653298D01*
X-954572Y1653685D01*
X-960915Y1655134D01*
X-966893Y1657272D01*
X-972471Y1660074D01*
X-977614Y1663516D01*
X-982286Y1667575D01*
X-986453Y1672227D01*
X-990079Y1677448D01*
X-990575Y1678279D01*
X-993204Y1683550D01*
X-995175Y1689173D01*
X-996477Y1695042D01*
X-997099Y1701048D01*
X-997031Y1707085D01*
X-996261Y1713047D01*
X-994780Y1718826D01*
X-994654Y1719208D01*
X-992362Y1724814D01*
X-989382Y1730109D01*
X-985781Y1735024D01*
X-981625Y1739492D01*
X-976980Y1743443D01*
X-971915Y1746808D01*
X-966495Y1749519D01*
X-964294Y1750387D01*
X-962866Y1750842D01*
X-960843Y1751395D01*
X-958415Y1751999D01*
X-955767Y1752609D01*
X-953088Y1753177D01*
X-953044Y1753186D01*
X-943071Y1755349D01*
X-933694Y1757708D01*
X-924729Y1760319D01*
X-915989Y1763239D01*
X-907291Y1766524D01*
X-902521Y1768479D01*
X-899071Y1769847D01*
X-896187Y1770785D01*
X-893776Y1771297D01*
X-891740Y1771390D01*
X-889984Y1771069D01*
G36*
X-889984Y1771069D02*
G01*
X-888412Y1770338D01*
X-887084Y1769343D01*
X-886157Y1768448D01*
X-885391Y1767477D01*
X-884717Y1766291D01*
X-884070Y1764752D01*
X-883381Y1762721D01*
X-882584Y1760059D01*
X-882559Y1759970D01*
X-880790Y1754291D01*
X-878886Y1749118D01*
X-876733Y1744164D01*
X-875114Y1740857D01*
X-870840Y1733344D01*
X-865887Y1726186D01*
X-860319Y1719457D01*
X-854199Y1713228D01*
X-847589Y1707573D01*
X-843857Y1704797D01*
X-840977Y1702604D01*
X-838802Y1700571D01*
X-837278Y1698624D01*
X-836350Y1696693D01*
X-835964Y1694703D01*
X-835946Y1694187D01*
X-836135Y1692331D01*
X-836768Y1690658D01*
X-837912Y1689096D01*
X-839632Y1687573D01*
X-841994Y1686020D01*
X-845064Y1684364D01*
X-845095Y1684349D01*
X-857254Y1678609D01*
X-870019Y1673266D01*
X-883290Y1668354D01*
X-896967Y1663907D01*
X-910952Y1659958D01*
X-925143Y1656541D01*
X-931007Y1655299D01*
X-936955Y1654219D01*
X-942268Y1653527D01*
X-947003Y1653222D01*
X-951213Y1653298D01*
X-954572Y1653685D01*
X-960915Y1655134D01*
X-966893Y1657272D01*
X-972471Y1660074D01*
X-977614Y1663516D01*
X-982286Y1667575D01*
X-986453Y1672227D01*
X-990079Y1677448D01*
X-990575Y1678279D01*
X-993204Y1683550D01*
X-995175Y1689173D01*
X-996477Y1695042D01*
X-997099Y1701048D01*
X-997031Y1707085D01*
X-996261Y1713047D01*
X-994780Y1718826D01*
X-994654Y1719208D01*
X-992362Y1724814D01*
X-989382Y1730109D01*
X-985781Y1735024D01*
X-981625Y1739492D01*
X-976980Y1743443D01*
X-971915Y1746808D01*
X-966495Y1749519D01*
X-964294Y1750387D01*
X-962866Y1750842D01*
X-960843Y1751395D01*
X-958415Y1751999D01*
X-955767Y1752609D01*
X-953088Y1753177D01*
X-953044Y1753186D01*
X-943071Y1755349D01*
X-933694Y1757708D01*
X-924729Y1760319D01*
X-915989Y1763239D01*
X-907291Y1766524D01*
X-902521Y1768479D01*
X-899071Y1769847D01*
X-896187Y1770785D01*
X-893776Y1771297D01*
X-891740Y1771390D01*
X-889984Y1771069D01*
G37*
X-694956Y1996016D02*
X-689164Y1994650D01*
X-683631Y1992623D01*
X-678405Y1989968D01*
X-673535Y1986716D01*
X-669069Y1982901D01*
X-665056Y1978555D01*
X-661543Y1973711D01*
X-658581Y1968400D01*
X-656217Y1962657D01*
X-654500Y1956512D01*
X-654463Y1956341D01*
X-654145Y1954573D01*
X-653932Y1952649D01*
X-653813Y1950379D01*
X-653772Y1947574D01*
X-653775Y1946419D01*
X-653812Y1944251D01*
X-653913Y1942154D01*
X-654092Y1940030D01*
X-654366Y1937777D01*
X-654752Y1935295D01*
X-655265Y1932484D01*
X-655921Y1929244D01*
X-656737Y1925473D01*
X-657729Y1921072D01*
X-658151Y1919233D01*
X-661002Y1907892D01*
X-664382Y1896274D01*
X-668223Y1884565D01*
X-672459Y1872951D01*
X-677023Y1861617D01*
X-681849Y1850750D01*
X-685290Y1843633D01*
X-686738Y1840880D01*
X-688018Y1838777D01*
X-689209Y1837220D01*
X-690393Y1836105D01*
X-691651Y1835328D01*
X-691837Y1835240D01*
X-693640Y1834643D01*
X-695323Y1834648D01*
X-696747Y1835044D01*
X-698718Y1836129D01*
X-700743Y1837961D01*
X-702777Y1840499D01*
X-703107Y1840978D01*
X-708515Y1848301D01*
X-714435Y1855048D01*
X-720839Y1861194D01*
X-727698Y1866716D01*
X-734981Y1871588D01*
X-742661Y1875788D01*
X-748316Y1878338D01*
X-751435Y1879573D01*
X-754574Y1880695D01*
X-757936Y1881770D01*
X-761724Y1882864D01*
X-765018Y1883749D01*
X-766842Y1884280D01*
X-768147Y1884822D01*
X-769197Y1885506D01*
X-770039Y1886251D01*
X-771383Y1887807D01*
X-772191Y1889446D01*
X-772467Y1891277D01*
X-772217Y1893410D01*
X-771443Y1895956D01*
X-770524Y1898199D01*
X-765579Y1910251D01*
X-761251Y1922680D01*
X-757521Y1935544D01*
X-754371Y1948901D01*
X-753743Y1951970D01*
X-753032Y1955438D01*
X-752401Y1958276D01*
X-751804Y1960638D01*
X-751196Y1962677D01*
X-750533Y1964548D01*
X-749770Y1966404D01*
X-749148Y1967788D01*
X-746274Y1973086D01*
X-742760Y1977993D01*
X-738677Y1982451D01*
X-734100Y1986404D01*
X-729101Y1989794D01*
X-723753Y1992565D01*
X-718128Y1994658D01*
X-713396Y1995823D01*
X-707120Y1996635D01*
X-700957Y1996689D01*
X-694956Y1996016D01*
G36*
X-694956Y1996016D02*
G01*
X-689164Y1994650D01*
X-683631Y1992623D01*
X-678405Y1989968D01*
X-673535Y1986716D01*
X-669069Y1982901D01*
X-665056Y1978555D01*
X-661543Y1973711D01*
X-658581Y1968400D01*
X-656217Y1962657D01*
X-654500Y1956512D01*
X-654463Y1956341D01*
X-654145Y1954573D01*
X-653932Y1952649D01*
X-653813Y1950379D01*
X-653772Y1947574D01*
X-653775Y1946419D01*
X-653812Y1944251D01*
X-653913Y1942154D01*
X-654092Y1940030D01*
X-654366Y1937777D01*
X-654752Y1935295D01*
X-655265Y1932484D01*
X-655921Y1929244D01*
X-656737Y1925473D01*
X-657729Y1921072D01*
X-658151Y1919233D01*
X-661002Y1907892D01*
X-664382Y1896274D01*
X-668223Y1884565D01*
X-672459Y1872951D01*
X-677023Y1861617D01*
X-681849Y1850750D01*
X-685290Y1843633D01*
X-686738Y1840880D01*
X-688018Y1838777D01*
X-689209Y1837220D01*
X-690393Y1836105D01*
X-691651Y1835328D01*
X-691837Y1835240D01*
X-693640Y1834643D01*
X-695323Y1834648D01*
X-696747Y1835044D01*
X-698718Y1836129D01*
X-700743Y1837961D01*
X-702777Y1840499D01*
X-703107Y1840978D01*
X-708515Y1848301D01*
X-714435Y1855048D01*
X-720839Y1861194D01*
X-727698Y1866716D01*
X-734981Y1871588D01*
X-742661Y1875788D01*
X-748316Y1878338D01*
X-751435Y1879573D01*
X-754574Y1880695D01*
X-757936Y1881770D01*
X-761724Y1882864D01*
X-765018Y1883749D01*
X-766842Y1884280D01*
X-768147Y1884822D01*
X-769197Y1885506D01*
X-770039Y1886251D01*
X-771383Y1887807D01*
X-772191Y1889446D01*
X-772467Y1891277D01*
X-772217Y1893410D01*
X-771443Y1895956D01*
X-770524Y1898199D01*
X-765579Y1910251D01*
X-761251Y1922680D01*
X-757521Y1935544D01*
X-754371Y1948901D01*
X-753743Y1951970D01*
X-753032Y1955438D01*
X-752401Y1958276D01*
X-751804Y1960638D01*
X-751196Y1962677D01*
X-750533Y1964548D01*
X-749770Y1966404D01*
X-749148Y1967788D01*
X-746274Y1973086D01*
X-742760Y1977993D01*
X-738677Y1982451D01*
X-734100Y1986404D01*
X-729101Y1989794D01*
X-723753Y1992565D01*
X-718128Y1994658D01*
X-713396Y1995823D01*
X-707120Y1996635D01*
X-700957Y1996689D01*
X-694956Y1996016D01*
G37*
X-749308Y1846221D02*
X-747600Y1846154D01*
X-746248Y1846027D01*
X-745180Y1845834D01*
X-744324Y1845570D01*
X-743607Y1845228D01*
X-742955Y1844804D01*
X-742296Y1844291D01*
X-741969Y1844023D01*
X-740882Y1842872D01*
X-739850Y1841353D01*
X-739020Y1839731D01*
X-738538Y1838271D01*
X-738473Y1837697D01*
X-738386Y1837112D01*
X-738137Y1835836D01*
X-737744Y1833949D01*
X-737225Y1831532D01*
X-736596Y1828667D01*
X-735876Y1825435D01*
X-735083Y1821917D01*
X-734306Y1818511D01*
X-733243Y1813849D01*
X-732357Y1809890D01*
X-731637Y1806564D01*
X-731074Y1803802D01*
X-730658Y1801536D01*
X-730377Y1799695D01*
X-730223Y1798211D01*
X-730184Y1797015D01*
X-730250Y1796037D01*
X-730412Y1795209D01*
X-730660Y1794462D01*
X-730733Y1794281D01*
X-731915Y1792274D01*
X-733606Y1790449D01*
X-735459Y1789143D01*
X-737295Y1788511D01*
X-739520Y1788243D01*
X-741816Y1788340D01*
X-743870Y1788800D01*
X-744652Y1789138D01*
X-746260Y1790239D01*
X-747798Y1791715D01*
X-749013Y1793302D01*
X-749492Y1794220D01*
X-749726Y1794965D01*
X-750095Y1796345D01*
X-750567Y1798222D01*
X-751105Y1800457D01*
X-751676Y1802912D01*
X-751768Y1803317D01*
X-752314Y1805706D01*
X-752804Y1807815D01*
X-753209Y1809529D01*
X-753503Y1810730D01*
X-753657Y1811302D01*
X-753670Y1811332D01*
X-753939Y1811076D01*
X-754612Y1810298D01*
X-755603Y1809101D01*
X-756827Y1807590D01*
X-757617Y1806598D01*
X-767578Y1794685D01*
X-778137Y1783292D01*
X-789295Y1772421D01*
X-801051Y1762071D01*
X-807038Y1757183D01*
X-808749Y1755794D01*
X-810191Y1754568D01*
X-811271Y1753592D01*
X-811893Y1752950D01*
X-811999Y1752735D01*
X-811541Y1752566D01*
X-810428Y1752238D01*
X-808777Y1751783D01*
X-806705Y1751233D01*
X-804327Y1750619D01*
X-803362Y1750374D01*
X-800267Y1749588D01*
X-797837Y1748954D01*
X-795966Y1748431D01*
X-794549Y1747982D01*
X-793480Y1747567D01*
X-792653Y1747149D01*
X-791962Y1746688D01*
X-791302Y1746146D01*
X-790952Y1745834D01*
X-789229Y1743788D01*
X-788161Y1741455D01*
X-787731Y1738965D01*
X-787919Y1736452D01*
X-788707Y1734046D01*
X-790076Y1731878D01*
X-792008Y1730080D01*
X-793291Y1729304D01*
X-794404Y1728800D01*
X-795519Y1728470D01*
X-796747Y1728320D01*
X-798196Y1728360D01*
X-799978Y1728598D01*
X-802203Y1729043D01*
X-804981Y1729704D01*
X-807926Y1730460D01*
X-810751Y1731197D01*
X-814135Y1732077D01*
X-817870Y1733046D01*
X-821746Y1734049D01*
X-825556Y1735033D01*
X-828934Y1735904D01*
X-832622Y1736861D01*
X-835625Y1737670D01*
X-838030Y1738366D01*
X-839923Y1738987D01*
X-841391Y1739569D01*
X-842521Y1740150D01*
X-843400Y1740766D01*
X-844114Y1741455D01*
X-844749Y1742253D01*
X-845130Y1742800D01*
X-845526Y1743407D01*
X-845857Y1744002D01*
X-846124Y1744651D01*
X-846330Y1745426D01*
X-846477Y1746394D01*
X-846566Y1747626D01*
X-846600Y1749190D01*
X-846580Y1751156D01*
X-846509Y1753592D01*
X-846388Y1756568D01*
X-846220Y1760154D01*
X-846007Y1764418D01*
X-845844Y1767594D01*
X-845633Y1771578D01*
X-845421Y1775361D01*
X-845214Y1778860D01*
X-845016Y1781994D01*
X-844833Y1784681D01*
X-844672Y1786839D01*
X-844536Y1788388D01*
X-844431Y1789245D01*
X-844411Y1789339D01*
X-843415Y1791668D01*
X-841858Y1793572D01*
X-839870Y1795014D01*
X-837582Y1795958D01*
X-835125Y1796366D01*
X-832631Y1796202D01*
X-830229Y1795428D01*
X-828051Y1794008D01*
X-828000Y1793964D01*
X-826562Y1792360D01*
X-825446Y1790489D01*
X-825390Y1790363D01*
X-825069Y1789578D01*
X-824840Y1788852D01*
X-824695Y1788044D01*
X-824624Y1787012D01*
X-824616Y1785614D01*
X-824662Y1783708D01*
X-824753Y1781153D01*
X-824754Y1781121D01*
X-824856Y1778606D01*
X-824971Y1776169D01*
X-825087Y1774002D01*
X-825196Y1772297D01*
X-825264Y1771451D01*
X-825361Y1770457D01*
X-825382Y1769758D01*
X-825251Y1769380D01*
X-824891Y1769352D01*
X-824224Y1769700D01*
X-823175Y1770451D01*
X-821667Y1771633D01*
X-819623Y1773272D01*
X-819237Y1773581D01*
X-810930Y1780523D01*
X-802721Y1787926D01*
X-794731Y1795668D01*
X-787081Y1803624D01*
X-779889Y1811674D01*
X-773276Y1819694D01*
X-770015Y1823933D01*
X-768864Y1825470D01*
X-772421Y1825216D01*
X-774125Y1825120D01*
X-776370Y1825029D01*
X-778903Y1824952D01*
X-781471Y1824897D01*
X-782328Y1824885D01*
X-784846Y1824868D01*
X-786716Y1824895D01*
X-788083Y1824978D01*
X-789093Y1825127D01*
X-789889Y1825355D01*
X-790265Y1825507D01*
X-792545Y1826924D01*
X-794390Y1828897D01*
X-795694Y1831265D01*
X-796351Y1833866D01*
X-796409Y1834897D01*
X-796046Y1837469D01*
X-795030Y1839898D01*
X-793475Y1842009D01*
X-791493Y1843631D01*
X-790362Y1844210D01*
X-789878Y1844399D01*
X-789359Y1844564D01*
X-788736Y1844707D01*
X-787945Y1844833D01*
X-786917Y1844948D01*
X-785587Y1845055D01*
X-783887Y1845159D01*
X-781750Y1845264D01*
X-779110Y1845375D01*
X-775901Y1845495D01*
X-772055Y1845631D01*
X-767505Y1845785D01*
X-765749Y1845844D01*
X-761165Y1845995D01*
X-757302Y1846115D01*
X-754086Y1846196D01*
X-751446Y1846233D01*
X-749308Y1846221D01*
G36*
X-749308Y1846221D02*
G01*
X-747600Y1846154D01*
X-746248Y1846027D01*
X-745180Y1845834D01*
X-744324Y1845570D01*
X-743607Y1845228D01*
X-742955Y1844804D01*
X-742296Y1844291D01*
X-741969Y1844023D01*
X-740882Y1842872D01*
X-739850Y1841353D01*
X-739020Y1839731D01*
X-738538Y1838271D01*
X-738473Y1837697D01*
X-738386Y1837112D01*
X-738137Y1835836D01*
X-737744Y1833949D01*
X-737225Y1831532D01*
X-736596Y1828667D01*
X-735876Y1825435D01*
X-735083Y1821917D01*
X-734306Y1818511D01*
X-733243Y1813849D01*
X-732357Y1809890D01*
X-731637Y1806564D01*
X-731074Y1803802D01*
X-730658Y1801536D01*
X-730377Y1799695D01*
X-730223Y1798211D01*
X-730184Y1797015D01*
X-730250Y1796037D01*
X-730412Y1795209D01*
X-730660Y1794462D01*
X-730733Y1794281D01*
X-731915Y1792274D01*
X-733606Y1790449D01*
X-735459Y1789143D01*
X-737295Y1788511D01*
X-739520Y1788243D01*
X-741816Y1788340D01*
X-743870Y1788800D01*
X-744652Y1789138D01*
X-746260Y1790239D01*
X-747798Y1791715D01*
X-749013Y1793302D01*
X-749492Y1794220D01*
X-749726Y1794965D01*
X-750095Y1796345D01*
X-750567Y1798222D01*
X-751105Y1800457D01*
X-751676Y1802912D01*
X-751768Y1803317D01*
X-752314Y1805706D01*
X-752804Y1807815D01*
X-753209Y1809529D01*
X-753503Y1810730D01*
X-753657Y1811302D01*
X-753670Y1811332D01*
X-753939Y1811076D01*
X-754612Y1810298D01*
X-755603Y1809101D01*
X-756827Y1807590D01*
X-757617Y1806598D01*
X-767578Y1794685D01*
X-778137Y1783292D01*
X-789295Y1772421D01*
X-801051Y1762071D01*
X-807038Y1757183D01*
X-808749Y1755794D01*
X-810191Y1754568D01*
X-811271Y1753592D01*
X-811893Y1752950D01*
X-811999Y1752735D01*
X-811541Y1752566D01*
X-810428Y1752238D01*
X-808777Y1751783D01*
X-806705Y1751233D01*
X-804327Y1750619D01*
X-803362Y1750374D01*
X-800267Y1749588D01*
X-797837Y1748954D01*
X-795966Y1748431D01*
X-794549Y1747982D01*
X-793480Y1747567D01*
X-792653Y1747149D01*
X-791962Y1746688D01*
X-791302Y1746146D01*
X-790952Y1745834D01*
X-789229Y1743788D01*
X-788161Y1741455D01*
X-787731Y1738965D01*
X-787919Y1736452D01*
X-788707Y1734046D01*
X-790076Y1731878D01*
X-792008Y1730080D01*
X-793291Y1729304D01*
X-794404Y1728800D01*
X-795519Y1728470D01*
X-796747Y1728320D01*
X-798196Y1728360D01*
X-799978Y1728598D01*
X-802203Y1729043D01*
X-804981Y1729704D01*
X-807926Y1730460D01*
X-810751Y1731197D01*
X-814135Y1732077D01*
X-817870Y1733046D01*
X-821746Y1734049D01*
X-825556Y1735033D01*
X-828934Y1735904D01*
X-832622Y1736861D01*
X-835625Y1737670D01*
X-838030Y1738366D01*
X-839923Y1738987D01*
X-841391Y1739569D01*
X-842521Y1740150D01*
X-843400Y1740766D01*
X-844114Y1741455D01*
X-844749Y1742253D01*
X-845130Y1742800D01*
X-845526Y1743407D01*
X-845857Y1744002D01*
X-846124Y1744651D01*
X-846330Y1745426D01*
X-846477Y1746394D01*
X-846566Y1747626D01*
X-846600Y1749190D01*
X-846580Y1751156D01*
X-846509Y1753592D01*
X-846388Y1756568D01*
X-846220Y1760154D01*
X-846007Y1764418D01*
X-845844Y1767594D01*
X-845633Y1771578D01*
X-845421Y1775361D01*
X-845214Y1778860D01*
X-845016Y1781994D01*
X-844833Y1784681D01*
X-844672Y1786839D01*
X-844536Y1788388D01*
X-844431Y1789245D01*
X-844411Y1789339D01*
X-843415Y1791668D01*
X-841858Y1793572D01*
X-839870Y1795014D01*
X-837582Y1795958D01*
X-835125Y1796366D01*
X-832631Y1796202D01*
X-830229Y1795428D01*
X-828051Y1794008D01*
X-828000Y1793964D01*
X-826562Y1792360D01*
X-825446Y1790489D01*
X-825390Y1790363D01*
X-825069Y1789578D01*
X-824840Y1788852D01*
X-824695Y1788044D01*
X-824624Y1787012D01*
X-824616Y1785614D01*
X-824662Y1783708D01*
X-824753Y1781153D01*
X-824754Y1781121D01*
X-824856Y1778606D01*
X-824971Y1776169D01*
X-825087Y1774002D01*
X-825196Y1772297D01*
X-825264Y1771451D01*
X-825361Y1770457D01*
X-825382Y1769758D01*
X-825251Y1769380D01*
X-824891Y1769352D01*
X-824224Y1769700D01*
X-823175Y1770451D01*
X-821667Y1771633D01*
X-819623Y1773272D01*
X-819237Y1773581D01*
X-810930Y1780523D01*
X-802721Y1787926D01*
X-794731Y1795668D01*
X-787081Y1803624D01*
X-779889Y1811674D01*
X-773276Y1819694D01*
X-770015Y1823933D01*
X-768864Y1825470D01*
X-772421Y1825216D01*
X-774125Y1825120D01*
X-776370Y1825029D01*
X-778903Y1824952D01*
X-781471Y1824897D01*
X-782328Y1824885D01*
X-784846Y1824868D01*
X-786716Y1824895D01*
X-788083Y1824978D01*
X-789093Y1825127D01*
X-789889Y1825355D01*
X-790265Y1825507D01*
X-792545Y1826924D01*
X-794390Y1828897D01*
X-795694Y1831265D01*
X-796351Y1833866D01*
X-796409Y1834897D01*
X-796046Y1837469D01*
X-795030Y1839898D01*
X-793475Y1842009D01*
X-791493Y1843631D01*
X-790362Y1844210D01*
X-789878Y1844399D01*
X-789359Y1844564D01*
X-788736Y1844707D01*
X-787945Y1844833D01*
X-786917Y1844948D01*
X-785587Y1845055D01*
X-783887Y1845159D01*
X-781750Y1845264D01*
X-779110Y1845375D01*
X-775901Y1845495D01*
X-772055Y1845631D01*
X-767505Y1845785D01*
X-765749Y1845844D01*
X-761165Y1845995D01*
X-757302Y1846115D01*
X-754086Y1846196D01*
X-751446Y1846233D01*
X-749308Y1846221D01*
G37*
%TD*%
M02*
