%TF.GenerationSoftware,KiCad,Pcbnew,9.0.7*%
%TF.CreationDate,2026-03-08T19:17:52+00:00*%
%TF.ProjectId,kittenbot_power,6b697474-656e-4626-9f74-5f706f776572,0.5*%
%TF.SameCoordinates,PX8d24d00PY36d6160*%
%TF.FileFunction,Legend,Bot*%
%TF.FilePolarity,Positive*%
%FSLAX45Y45*%
G04 Gerber Fmt 4.5, Leading zero omitted, Abs format (unit mm)*
G04 Created by KiCad (PCBNEW 9.0.7) date 2026-03-08 19:17:52*
%MOMM*%
%LPD*%
G01*
G04 APERTURE LIST*
%ADD10C,0.010000*%
G04 APERTURE END LIST*
D10*
%TO.C,MH3*%
X-692851Y-1836314D02*
X-691177Y-1836947D01*
X-689615Y-1838091D01*
X-688092Y-1839811D01*
X-686539Y-1842173D01*
X-684884Y-1845243D01*
X-684868Y-1845274D01*
X-679128Y-1857433D01*
X-673786Y-1870198D01*
X-668874Y-1883469D01*
X-664426Y-1897147D01*
X-660477Y-1911131D01*
X-657060Y-1925322D01*
X-655819Y-1931186D01*
X-654738Y-1937134D01*
X-654047Y-1942447D01*
X-653741Y-1947182D01*
X-653817Y-1951392D01*
X-654204Y-1954751D01*
X-655653Y-1961094D01*
X-657791Y-1967072D01*
X-660593Y-1972650D01*
X-664036Y-1977793D01*
X-668095Y-1982465D01*
X-672746Y-1986632D01*
X-677967Y-1990258D01*
X-678798Y-1990754D01*
X-684069Y-1993383D01*
X-689693Y-1995354D01*
X-695561Y-1996656D01*
X-701567Y-1997278D01*
X-707604Y-1997210D01*
X-713566Y-1996440D01*
X-719346Y-1994959D01*
X-719727Y-1994833D01*
X-725333Y-1992541D01*
X-730628Y-1989561D01*
X-735544Y-1985960D01*
X-740011Y-1981804D01*
X-743962Y-1977159D01*
X-747327Y-1972094D01*
X-750038Y-1966674D01*
X-750906Y-1964474D01*
X-751361Y-1963045D01*
X-751914Y-1961022D01*
X-752518Y-1958594D01*
X-753128Y-1955946D01*
X-753696Y-1953267D01*
X-753705Y-1953223D01*
X-755868Y-1943250D01*
X-758227Y-1933873D01*
X-760838Y-1924908D01*
X-763759Y-1916168D01*
X-767043Y-1907470D01*
X-768998Y-1902700D01*
X-770366Y-1899250D01*
X-771304Y-1896366D01*
X-771816Y-1893955D01*
X-771909Y-1891919D01*
X-771588Y-1890163D01*
X-770857Y-1888591D01*
X-769862Y-1887263D01*
X-768967Y-1886337D01*
X-767996Y-1885570D01*
X-766811Y-1884896D01*
X-765271Y-1884249D01*
X-763240Y-1883560D01*
X-760578Y-1882763D01*
X-760489Y-1882738D01*
X-754810Y-1880969D01*
X-749637Y-1879065D01*
X-744683Y-1876912D01*
X-741377Y-1875293D01*
X-733863Y-1871019D01*
X-726705Y-1866067D01*
X-719976Y-1860499D01*
X-713747Y-1854378D01*
X-708093Y-1847768D01*
X-705316Y-1844036D01*
X-703123Y-1841157D01*
X-701090Y-1838981D01*
X-699144Y-1837457D01*
X-697212Y-1836529D01*
X-695222Y-1836143D01*
X-694706Y-1836125D01*
X-692851Y-1836314D01*
G36*
X-692851Y-1836314D02*
G01*
X-691177Y-1836947D01*
X-689615Y-1838091D01*
X-688092Y-1839811D01*
X-686539Y-1842173D01*
X-684884Y-1845243D01*
X-684868Y-1845274D01*
X-679128Y-1857433D01*
X-673786Y-1870198D01*
X-668874Y-1883469D01*
X-664426Y-1897147D01*
X-660477Y-1911131D01*
X-657060Y-1925322D01*
X-655819Y-1931186D01*
X-654738Y-1937134D01*
X-654047Y-1942447D01*
X-653741Y-1947182D01*
X-653817Y-1951392D01*
X-654204Y-1954751D01*
X-655653Y-1961094D01*
X-657791Y-1967072D01*
X-660593Y-1972650D01*
X-664036Y-1977793D01*
X-668095Y-1982465D01*
X-672746Y-1986632D01*
X-677967Y-1990258D01*
X-678798Y-1990754D01*
X-684069Y-1993383D01*
X-689693Y-1995354D01*
X-695561Y-1996656D01*
X-701567Y-1997278D01*
X-707604Y-1997210D01*
X-713566Y-1996440D01*
X-719346Y-1994959D01*
X-719727Y-1994833D01*
X-725333Y-1992541D01*
X-730628Y-1989561D01*
X-735544Y-1985960D01*
X-740011Y-1981804D01*
X-743962Y-1977159D01*
X-747327Y-1972094D01*
X-750038Y-1966674D01*
X-750906Y-1964474D01*
X-751361Y-1963045D01*
X-751914Y-1961022D01*
X-752518Y-1958594D01*
X-753128Y-1955946D01*
X-753696Y-1953267D01*
X-753705Y-1953223D01*
X-755868Y-1943250D01*
X-758227Y-1933873D01*
X-760838Y-1924908D01*
X-763759Y-1916168D01*
X-767043Y-1907470D01*
X-768998Y-1902700D01*
X-770366Y-1899250D01*
X-771304Y-1896366D01*
X-771816Y-1893955D01*
X-771909Y-1891919D01*
X-771588Y-1890163D01*
X-770857Y-1888591D01*
X-769862Y-1887263D01*
X-768967Y-1886337D01*
X-767996Y-1885570D01*
X-766811Y-1884896D01*
X-765271Y-1884249D01*
X-763240Y-1883560D01*
X-760578Y-1882763D01*
X-760489Y-1882738D01*
X-754810Y-1880969D01*
X-749637Y-1879065D01*
X-744683Y-1876912D01*
X-741377Y-1875293D01*
X-733863Y-1871019D01*
X-726705Y-1866067D01*
X-719976Y-1860499D01*
X-713747Y-1854378D01*
X-708093Y-1847768D01*
X-705316Y-1844036D01*
X-703123Y-1841157D01*
X-701090Y-1838981D01*
X-699144Y-1837457D01*
X-697212Y-1836529D01*
X-695222Y-1836143D01*
X-694706Y-1836125D01*
X-692851Y-1836314D01*
G37*
X-946938Y-1653954D02*
X-944770Y-1653991D01*
X-942673Y-1654092D01*
X-940549Y-1654271D01*
X-938296Y-1654545D01*
X-935815Y-1654931D01*
X-933004Y-1655444D01*
X-929763Y-1656100D01*
X-925992Y-1656916D01*
X-921591Y-1657908D01*
X-919752Y-1658330D01*
X-908411Y-1661181D01*
X-896793Y-1664561D01*
X-885084Y-1668402D01*
X-873470Y-1672638D01*
X-862136Y-1677202D01*
X-851269Y-1682028D01*
X-844152Y-1685469D01*
X-841399Y-1686917D01*
X-839296Y-1688197D01*
X-837739Y-1689388D01*
X-836624Y-1690572D01*
X-835847Y-1691830D01*
X-835760Y-1692016D01*
X-835162Y-1693819D01*
X-835167Y-1695502D01*
X-835563Y-1696926D01*
X-836648Y-1698897D01*
X-838480Y-1700922D01*
X-841018Y-1702956D01*
X-841497Y-1703286D01*
X-848820Y-1708694D01*
X-855567Y-1714614D01*
X-861713Y-1721018D01*
X-867235Y-1727877D01*
X-872107Y-1735160D01*
X-876307Y-1742840D01*
X-878858Y-1748495D01*
X-880092Y-1751614D01*
X-881214Y-1754753D01*
X-882289Y-1758116D01*
X-883383Y-1761903D01*
X-884268Y-1765197D01*
X-884800Y-1767021D01*
X-885341Y-1768326D01*
X-886025Y-1769376D01*
X-886770Y-1770218D01*
X-888327Y-1771562D01*
X-889965Y-1772370D01*
X-891796Y-1772646D01*
X-893930Y-1772396D01*
X-896475Y-1771622D01*
X-898718Y-1770703D01*
X-910770Y-1765758D01*
X-923199Y-1761430D01*
X-936063Y-1757700D01*
X-949421Y-1754550D01*
X-952489Y-1753922D01*
X-955957Y-1753212D01*
X-958795Y-1752580D01*
X-961157Y-1751983D01*
X-963196Y-1751375D01*
X-965067Y-1750713D01*
X-966923Y-1749950D01*
X-968307Y-1749327D01*
X-973605Y-1746453D01*
X-978512Y-1742939D01*
X-982970Y-1738857D01*
X-986923Y-1734279D01*
X-990313Y-1729280D01*
X-993084Y-1723932D01*
X-995177Y-1718307D01*
X-996342Y-1713575D01*
X-997154Y-1707299D01*
X-997208Y-1701136D01*
X-996535Y-1695135D01*
X-995170Y-1689343D01*
X-993143Y-1683810D01*
X-990487Y-1678584D01*
X-987235Y-1673714D01*
X-983420Y-1669248D01*
X-979074Y-1665235D01*
X-974230Y-1661722D01*
X-968920Y-1658760D01*
X-963176Y-1656396D01*
X-957031Y-1654679D01*
X-956860Y-1654642D01*
X-955092Y-1654324D01*
X-953168Y-1654111D01*
X-950898Y-1653992D01*
X-948093Y-1653951D01*
X-946938Y-1653954D01*
G36*
X-946938Y-1653954D02*
G01*
X-944770Y-1653991D01*
X-942673Y-1654092D01*
X-940549Y-1654271D01*
X-938296Y-1654545D01*
X-935815Y-1654931D01*
X-933004Y-1655444D01*
X-929763Y-1656100D01*
X-925992Y-1656916D01*
X-921591Y-1657908D01*
X-919752Y-1658330D01*
X-908411Y-1661181D01*
X-896793Y-1664561D01*
X-885084Y-1668402D01*
X-873470Y-1672638D01*
X-862136Y-1677202D01*
X-851269Y-1682028D01*
X-844152Y-1685469D01*
X-841399Y-1686917D01*
X-839296Y-1688197D01*
X-837739Y-1689388D01*
X-836624Y-1690572D01*
X-835847Y-1691830D01*
X-835760Y-1692016D01*
X-835162Y-1693819D01*
X-835167Y-1695502D01*
X-835563Y-1696926D01*
X-836648Y-1698897D01*
X-838480Y-1700922D01*
X-841018Y-1702956D01*
X-841497Y-1703286D01*
X-848820Y-1708694D01*
X-855567Y-1714614D01*
X-861713Y-1721018D01*
X-867235Y-1727877D01*
X-872107Y-1735160D01*
X-876307Y-1742840D01*
X-878858Y-1748495D01*
X-880092Y-1751614D01*
X-881214Y-1754753D01*
X-882289Y-1758116D01*
X-883383Y-1761903D01*
X-884268Y-1765197D01*
X-884800Y-1767021D01*
X-885341Y-1768326D01*
X-886025Y-1769376D01*
X-886770Y-1770218D01*
X-888327Y-1771562D01*
X-889965Y-1772370D01*
X-891796Y-1772646D01*
X-893930Y-1772396D01*
X-896475Y-1771622D01*
X-898718Y-1770703D01*
X-910770Y-1765758D01*
X-923199Y-1761430D01*
X-936063Y-1757700D01*
X-949421Y-1754550D01*
X-952489Y-1753922D01*
X-955957Y-1753212D01*
X-958795Y-1752580D01*
X-961157Y-1751983D01*
X-963196Y-1751375D01*
X-965067Y-1750713D01*
X-966923Y-1749950D01*
X-968307Y-1749327D01*
X-973605Y-1746453D01*
X-978512Y-1742939D01*
X-982970Y-1738857D01*
X-986923Y-1734279D01*
X-990313Y-1729280D01*
X-993084Y-1723932D01*
X-995177Y-1718307D01*
X-996342Y-1713575D01*
X-997154Y-1707299D01*
X-997208Y-1701136D01*
X-996535Y-1695135D01*
X-995170Y-1689343D01*
X-993143Y-1683810D01*
X-990487Y-1678584D01*
X-987235Y-1673714D01*
X-983420Y-1669248D01*
X-979074Y-1665235D01*
X-974230Y-1661722D01*
X-968920Y-1658760D01*
X-963176Y-1656396D01*
X-957031Y-1654679D01*
X-956860Y-1654642D01*
X-955092Y-1654324D01*
X-953168Y-1654111D01*
X-950898Y-1653992D01*
X-948093Y-1653951D01*
X-946938Y-1653954D01*
G37*
X-811371Y-1749694D02*
X-810369Y-1749970D01*
X-809780Y-1750189D01*
X-809181Y-1750487D01*
X-808509Y-1750918D01*
X-807700Y-1751540D01*
X-806691Y-1752407D01*
X-805419Y-1753575D01*
X-803820Y-1755101D01*
X-801832Y-1757040D01*
X-799392Y-1759448D01*
X-797416Y-1761408D01*
X-786601Y-1772143D01*
X-775984Y-1761623D01*
X-773128Y-1758814D01*
X-770552Y-1756327D01*
X-768307Y-1754206D01*
X-766443Y-1752497D01*
X-765008Y-1751246D01*
X-764051Y-1750499D01*
X-763780Y-1750335D01*
X-761965Y-1749771D01*
X-759765Y-1749545D01*
X-757494Y-1749653D01*
X-755468Y-1750091D01*
X-754615Y-1750449D01*
X-752692Y-1751814D01*
X-751014Y-1753651D01*
X-749889Y-1755583D01*
X-749482Y-1757170D01*
X-749319Y-1759169D01*
X-749400Y-1761237D01*
X-749724Y-1763032D01*
X-749909Y-1763569D01*
X-750400Y-1764320D01*
X-751465Y-1765601D01*
X-753093Y-1767401D01*
X-755276Y-1769711D01*
X-758003Y-1772519D01*
X-761267Y-1775817D01*
X-761306Y-1775856D01*
X-772089Y-1786667D01*
X-761506Y-1797297D01*
X-758412Y-1800424D01*
X-755861Y-1803043D01*
X-753819Y-1805192D01*
X-752253Y-1806909D01*
X-751128Y-1808231D01*
X-750410Y-1809194D01*
X-750117Y-1809703D01*
X-749410Y-1812134D01*
X-749301Y-1814793D01*
X-749782Y-1817391D01*
X-750322Y-1818744D01*
X-751888Y-1821065D01*
X-753950Y-1822787D01*
X-756213Y-1823793D01*
X-757982Y-1824231D01*
X-759484Y-1824335D01*
X-761084Y-1824101D01*
X-762418Y-1823747D01*
X-762993Y-1823560D01*
X-763556Y-1823312D01*
X-764171Y-1822949D01*
X-764901Y-1822416D01*
X-765807Y-1821658D01*
X-766952Y-1820619D01*
X-768398Y-1819246D01*
X-770209Y-1817482D01*
X-772445Y-1815272D01*
X-775171Y-1812563D01*
X-775587Y-1812148D01*
X-786601Y-1801179D01*
X-797614Y-1812148D01*
X-800412Y-1814930D01*
X-802712Y-1817205D01*
X-804577Y-1819027D01*
X-806070Y-1820452D01*
X-807253Y-1821533D01*
X-808188Y-1822327D01*
X-808938Y-1822887D01*
X-809565Y-1823270D01*
X-810132Y-1823531D01*
X-810701Y-1823723D01*
X-810783Y-1823747D01*
X-812661Y-1824212D01*
X-814190Y-1824338D01*
X-815737Y-1824128D01*
X-816989Y-1823793D01*
X-819454Y-1822669D01*
X-821442Y-1820960D01*
X-822886Y-1818761D01*
X-823717Y-1816165D01*
X-823898Y-1814080D01*
X-823875Y-1812964D01*
X-823780Y-1811968D01*
X-823563Y-1811023D01*
X-823176Y-1810061D01*
X-822569Y-1809013D01*
X-821691Y-1807812D01*
X-820495Y-1806390D01*
X-818929Y-1804679D01*
X-816946Y-1802609D01*
X-814494Y-1800115D01*
X-811696Y-1797297D01*
X-801113Y-1786667D01*
X-811879Y-1775856D01*
X-815119Y-1772581D01*
X-817795Y-1769828D01*
X-819923Y-1767579D01*
X-821522Y-1765816D01*
X-822607Y-1764520D01*
X-823195Y-1763673D01*
X-823276Y-1763508D01*
X-823863Y-1761116D01*
X-823841Y-1758511D01*
X-823255Y-1755934D01*
X-822150Y-1753622D01*
X-821205Y-1752407D01*
X-819186Y-1750828D01*
X-816756Y-1749823D01*
X-814092Y-1749432D01*
X-811371Y-1749694D01*
G36*
X-811371Y-1749694D02*
G01*
X-810369Y-1749970D01*
X-809780Y-1750189D01*
X-809181Y-1750487D01*
X-808509Y-1750918D01*
X-807700Y-1751540D01*
X-806691Y-1752407D01*
X-805419Y-1753575D01*
X-803820Y-1755101D01*
X-801832Y-1757040D01*
X-799392Y-1759448D01*
X-797416Y-1761408D01*
X-786601Y-1772143D01*
X-775984Y-1761623D01*
X-773128Y-1758814D01*
X-770552Y-1756327D01*
X-768307Y-1754206D01*
X-766443Y-1752497D01*
X-765008Y-1751246D01*
X-764051Y-1750499D01*
X-763780Y-1750335D01*
X-761965Y-1749771D01*
X-759765Y-1749545D01*
X-757494Y-1749653D01*
X-755468Y-1750091D01*
X-754615Y-1750449D01*
X-752692Y-1751814D01*
X-751014Y-1753651D01*
X-749889Y-1755583D01*
X-749482Y-1757170D01*
X-749319Y-1759169D01*
X-749400Y-1761237D01*
X-749724Y-1763032D01*
X-749909Y-1763569D01*
X-750400Y-1764320D01*
X-751465Y-1765601D01*
X-753093Y-1767401D01*
X-755276Y-1769711D01*
X-758003Y-1772519D01*
X-761267Y-1775817D01*
X-761306Y-1775856D01*
X-772089Y-1786667D01*
X-761506Y-1797297D01*
X-758412Y-1800424D01*
X-755861Y-1803043D01*
X-753819Y-1805192D01*
X-752253Y-1806909D01*
X-751128Y-1808231D01*
X-750410Y-1809194D01*
X-750117Y-1809703D01*
X-749410Y-1812134D01*
X-749301Y-1814793D01*
X-749782Y-1817391D01*
X-750322Y-1818744D01*
X-751888Y-1821065D01*
X-753950Y-1822787D01*
X-756213Y-1823793D01*
X-757982Y-1824231D01*
X-759484Y-1824335D01*
X-761084Y-1824101D01*
X-762418Y-1823747D01*
X-762993Y-1823560D01*
X-763556Y-1823312D01*
X-764171Y-1822949D01*
X-764901Y-1822416D01*
X-765807Y-1821658D01*
X-766952Y-1820619D01*
X-768398Y-1819246D01*
X-770209Y-1817482D01*
X-772445Y-1815272D01*
X-775171Y-1812563D01*
X-775587Y-1812148D01*
X-786601Y-1801179D01*
X-797614Y-1812148D01*
X-800412Y-1814930D01*
X-802712Y-1817205D01*
X-804577Y-1819027D01*
X-806070Y-1820452D01*
X-807253Y-1821533D01*
X-808188Y-1822327D01*
X-808938Y-1822887D01*
X-809565Y-1823270D01*
X-810132Y-1823531D01*
X-810701Y-1823723D01*
X-810783Y-1823747D01*
X-812661Y-1824212D01*
X-814190Y-1824338D01*
X-815737Y-1824128D01*
X-816989Y-1823793D01*
X-819454Y-1822669D01*
X-821442Y-1820960D01*
X-822886Y-1818761D01*
X-823717Y-1816165D01*
X-823898Y-1814080D01*
X-823875Y-1812964D01*
X-823780Y-1811968D01*
X-823563Y-1811023D01*
X-823176Y-1810061D01*
X-822569Y-1809013D01*
X-821691Y-1807812D01*
X-820495Y-1806390D01*
X-818929Y-1804679D01*
X-816946Y-1802609D01*
X-814494Y-1800115D01*
X-811696Y-1797297D01*
X-801113Y-1786667D01*
X-811879Y-1775856D01*
X-815119Y-1772581D01*
X-817795Y-1769828D01*
X-819923Y-1767579D01*
X-821522Y-1765816D01*
X-822607Y-1764520D01*
X-823195Y-1763673D01*
X-823276Y-1763508D01*
X-823863Y-1761116D01*
X-823841Y-1758511D01*
X-823255Y-1755934D01*
X-822150Y-1753622D01*
X-821205Y-1752407D01*
X-819186Y-1750828D01*
X-816756Y-1749823D01*
X-814092Y-1749432D01*
X-811371Y-1749694D01*
G37*
%TO.C,MH4*%
X951231Y-1653710D02*
X954590Y-1654097D01*
X960934Y-1655546D01*
X966912Y-1657684D01*
X972490Y-1660486D01*
X977632Y-1663928D01*
X982304Y-1667987D01*
X986471Y-1672639D01*
X990098Y-1677859D01*
X990593Y-1678690D01*
X993223Y-1683962D01*
X995194Y-1689585D01*
X996496Y-1695453D01*
X997118Y-1701460D01*
X997049Y-1707497D01*
X996280Y-1713459D01*
X994799Y-1719238D01*
X994672Y-1719620D01*
X992381Y-1725226D01*
X989401Y-1730521D01*
X985799Y-1735436D01*
X981643Y-1739904D01*
X976999Y-1743854D01*
X971934Y-1747220D01*
X966514Y-1749931D01*
X964313Y-1750798D01*
X962884Y-1751253D01*
X960862Y-1751806D01*
X958434Y-1752411D01*
X955786Y-1753021D01*
X953107Y-1753589D01*
X953063Y-1753598D01*
X943090Y-1755760D01*
X933713Y-1758120D01*
X924747Y-1760731D01*
X916008Y-1763651D01*
X907310Y-1766936D01*
X902540Y-1768891D01*
X899089Y-1770259D01*
X896206Y-1771197D01*
X893794Y-1771709D01*
X891758Y-1771802D01*
X890003Y-1771480D01*
X888431Y-1770750D01*
X887103Y-1769755D01*
X886176Y-1768860D01*
X885409Y-1767889D01*
X884736Y-1766703D01*
X884088Y-1765164D01*
X883400Y-1763133D01*
X882603Y-1760470D01*
X882577Y-1760382D01*
X880809Y-1754703D01*
X878904Y-1749530D01*
X876752Y-1744575D01*
X875132Y-1741269D01*
X870858Y-1733756D01*
X865906Y-1726598D01*
X860338Y-1719868D01*
X854218Y-1713640D01*
X847608Y-1707985D01*
X843876Y-1705209D01*
X840996Y-1703016D01*
X838821Y-1700982D01*
X837296Y-1699036D01*
X836368Y-1697105D01*
X835983Y-1695115D01*
X835964Y-1694598D01*
X836153Y-1692743D01*
X836787Y-1691070D01*
X837930Y-1689507D01*
X839650Y-1687985D01*
X842012Y-1686431D01*
X845083Y-1684776D01*
X845114Y-1684761D01*
X857273Y-1679021D01*
X870037Y-1673678D01*
X883308Y-1668766D01*
X896986Y-1664319D01*
X910970Y-1660370D01*
X925162Y-1656953D01*
X931026Y-1655711D01*
X936974Y-1654631D01*
X942287Y-1653939D01*
X947021Y-1653634D01*
X951231Y-1653710D01*
G36*
X951231Y-1653710D02*
G01*
X954590Y-1654097D01*
X960934Y-1655546D01*
X966912Y-1657684D01*
X972490Y-1660486D01*
X977632Y-1663928D01*
X982304Y-1667987D01*
X986471Y-1672639D01*
X990098Y-1677859D01*
X990593Y-1678690D01*
X993223Y-1683962D01*
X995194Y-1689585D01*
X996496Y-1695453D01*
X997118Y-1701460D01*
X997049Y-1707497D01*
X996280Y-1713459D01*
X994799Y-1719238D01*
X994672Y-1719620D01*
X992381Y-1725226D01*
X989401Y-1730521D01*
X985799Y-1735436D01*
X981643Y-1739904D01*
X976999Y-1743854D01*
X971934Y-1747220D01*
X966514Y-1749931D01*
X964313Y-1750798D01*
X962884Y-1751253D01*
X960862Y-1751806D01*
X958434Y-1752411D01*
X955786Y-1753021D01*
X953107Y-1753589D01*
X953063Y-1753598D01*
X943090Y-1755760D01*
X933713Y-1758120D01*
X924747Y-1760731D01*
X916008Y-1763651D01*
X907310Y-1766936D01*
X902540Y-1768891D01*
X899089Y-1770259D01*
X896206Y-1771197D01*
X893794Y-1771709D01*
X891758Y-1771802D01*
X890003Y-1771480D01*
X888431Y-1770750D01*
X887103Y-1769755D01*
X886176Y-1768860D01*
X885409Y-1767889D01*
X884736Y-1766703D01*
X884088Y-1765164D01*
X883400Y-1763133D01*
X882603Y-1760470D01*
X882577Y-1760382D01*
X880809Y-1754703D01*
X878904Y-1749530D01*
X876752Y-1744575D01*
X875132Y-1741269D01*
X870858Y-1733756D01*
X865906Y-1726598D01*
X860338Y-1719868D01*
X854218Y-1713640D01*
X847608Y-1707985D01*
X843876Y-1705209D01*
X840996Y-1703016D01*
X838821Y-1700982D01*
X837296Y-1699036D01*
X836368Y-1697105D01*
X835983Y-1695115D01*
X835964Y-1694598D01*
X836153Y-1692743D01*
X836787Y-1691070D01*
X837930Y-1689507D01*
X839650Y-1687985D01*
X842012Y-1686431D01*
X845083Y-1684776D01*
X845114Y-1684761D01*
X857273Y-1679021D01*
X870037Y-1673678D01*
X883308Y-1668766D01*
X896986Y-1664319D01*
X910970Y-1660370D01*
X925162Y-1656953D01*
X931026Y-1655711D01*
X936974Y-1654631D01*
X942287Y-1653939D01*
X947021Y-1653634D01*
X951231Y-1653710D01*
G37*
X695341Y-1835060D02*
X696765Y-1835455D01*
X698737Y-1836541D01*
X700761Y-1838373D01*
X702796Y-1840911D01*
X703126Y-1841390D01*
X708533Y-1848713D01*
X714454Y-1855460D01*
X720858Y-1861606D01*
X727716Y-1867127D01*
X735000Y-1872000D01*
X742680Y-1876199D01*
X748335Y-1878750D01*
X751454Y-1879985D01*
X754593Y-1881107D01*
X757955Y-1882182D01*
X761743Y-1883275D01*
X765037Y-1884161D01*
X766861Y-1884692D01*
X768166Y-1885234D01*
X769216Y-1885918D01*
X770058Y-1886663D01*
X771402Y-1888219D01*
X772210Y-1889858D01*
X772486Y-1891689D01*
X772235Y-1893822D01*
X771462Y-1896367D01*
X770542Y-1898611D01*
X765598Y-1910662D01*
X761270Y-1923091D01*
X757540Y-1935956D01*
X754390Y-1949313D01*
X753761Y-1952381D01*
X753051Y-1955850D01*
X752420Y-1958688D01*
X751823Y-1961050D01*
X751215Y-1963089D01*
X750552Y-1964960D01*
X749789Y-1966816D01*
X749167Y-1968200D01*
X746293Y-1973498D01*
X742778Y-1978405D01*
X738696Y-1982863D01*
X734119Y-1986816D01*
X729120Y-1990206D01*
X723771Y-1992976D01*
X718147Y-1995070D01*
X713415Y-1996234D01*
X707139Y-1997047D01*
X700976Y-1997101D01*
X694974Y-1996428D01*
X689183Y-1995062D01*
X683650Y-1993035D01*
X678424Y-1990380D01*
X673554Y-1987128D01*
X669088Y-1983313D01*
X665074Y-1978967D01*
X661562Y-1974123D01*
X658600Y-1968812D01*
X656236Y-1963068D01*
X654518Y-1956924D01*
X654481Y-1956753D01*
X654163Y-1954985D01*
X653951Y-1953060D01*
X653831Y-1950790D01*
X653791Y-1947986D01*
X653793Y-1946831D01*
X653831Y-1944662D01*
X653931Y-1942566D01*
X654111Y-1940442D01*
X654385Y-1938189D01*
X654770Y-1935707D01*
X655283Y-1932896D01*
X655940Y-1929656D01*
X656756Y-1925885D01*
X657748Y-1921484D01*
X658169Y-1919645D01*
X661021Y-1908304D01*
X664400Y-1896686D01*
X668241Y-1884977D01*
X672477Y-1873363D01*
X677041Y-1862029D01*
X681867Y-1851162D01*
X685308Y-1844045D01*
X686757Y-1841292D01*
X688036Y-1839189D01*
X689228Y-1837632D01*
X690412Y-1836516D01*
X691670Y-1835740D01*
X691856Y-1835652D01*
X693659Y-1835055D01*
X695341Y-1835060D01*
G36*
X695341Y-1835060D02*
G01*
X696765Y-1835455D01*
X698737Y-1836541D01*
X700761Y-1838373D01*
X702796Y-1840911D01*
X703126Y-1841390D01*
X708533Y-1848713D01*
X714454Y-1855460D01*
X720858Y-1861606D01*
X727716Y-1867127D01*
X735000Y-1872000D01*
X742680Y-1876199D01*
X748335Y-1878750D01*
X751454Y-1879985D01*
X754593Y-1881107D01*
X757955Y-1882182D01*
X761743Y-1883275D01*
X765037Y-1884161D01*
X766861Y-1884692D01*
X768166Y-1885234D01*
X769216Y-1885918D01*
X770058Y-1886663D01*
X771402Y-1888219D01*
X772210Y-1889858D01*
X772486Y-1891689D01*
X772235Y-1893822D01*
X771462Y-1896367D01*
X770542Y-1898611D01*
X765598Y-1910662D01*
X761270Y-1923091D01*
X757540Y-1935956D01*
X754390Y-1949313D01*
X753761Y-1952381D01*
X753051Y-1955850D01*
X752420Y-1958688D01*
X751823Y-1961050D01*
X751215Y-1963089D01*
X750552Y-1964960D01*
X749789Y-1966816D01*
X749167Y-1968200D01*
X746293Y-1973498D01*
X742778Y-1978405D01*
X738696Y-1982863D01*
X734119Y-1986816D01*
X729120Y-1990206D01*
X723771Y-1992976D01*
X718147Y-1995070D01*
X713415Y-1996234D01*
X707139Y-1997047D01*
X700976Y-1997101D01*
X694974Y-1996428D01*
X689183Y-1995062D01*
X683650Y-1993035D01*
X678424Y-1990380D01*
X673554Y-1987128D01*
X669088Y-1983313D01*
X665074Y-1978967D01*
X661562Y-1974123D01*
X658600Y-1968812D01*
X656236Y-1963068D01*
X654518Y-1956924D01*
X654481Y-1956753D01*
X654163Y-1954985D01*
X653951Y-1953060D01*
X653831Y-1950790D01*
X653791Y-1947986D01*
X653793Y-1946831D01*
X653831Y-1944662D01*
X653931Y-1942566D01*
X654111Y-1940442D01*
X654385Y-1938189D01*
X654770Y-1935707D01*
X655283Y-1932896D01*
X655940Y-1929656D01*
X656756Y-1925885D01*
X657748Y-1921484D01*
X658169Y-1919645D01*
X661021Y-1908304D01*
X664400Y-1896686D01*
X668241Y-1884977D01*
X672477Y-1873363D01*
X677041Y-1862029D01*
X681867Y-1851162D01*
X685308Y-1844045D01*
X686757Y-1841292D01*
X688036Y-1839189D01*
X689228Y-1837632D01*
X690412Y-1836516D01*
X691670Y-1835740D01*
X691856Y-1835652D01*
X693659Y-1835055D01*
X695341Y-1835060D01*
G37*
X816203Y-1746728D02*
X817101Y-1746928D01*
X820104Y-1748152D01*
X822602Y-1749942D01*
X824538Y-1752220D01*
X825857Y-1754906D01*
X826501Y-1757923D01*
X826528Y-1760073D01*
X826481Y-1760824D01*
X826421Y-1761511D01*
X826317Y-1762169D01*
X826137Y-1762833D01*
X825851Y-1763540D01*
X825426Y-1764326D01*
X824832Y-1765225D01*
X824038Y-1766274D01*
X823011Y-1767508D01*
X821722Y-1768963D01*
X820138Y-1770676D01*
X818229Y-1772680D01*
X815963Y-1775013D01*
X813309Y-1777710D01*
X810236Y-1780806D01*
X806712Y-1784338D01*
X802706Y-1788341D01*
X798188Y-1792851D01*
X795557Y-1795476D01*
X790901Y-1800122D01*
X786771Y-1804238D01*
X783134Y-1807859D01*
X779953Y-1811017D01*
X777196Y-1813745D01*
X774827Y-1816076D01*
X772812Y-1818042D01*
X771117Y-1819676D01*
X769706Y-1821012D01*
X768545Y-1822082D01*
X767600Y-1822919D01*
X766837Y-1823555D01*
X766220Y-1824025D01*
X765715Y-1824359D01*
X765287Y-1824593D01*
X764903Y-1824757D01*
X764685Y-1824834D01*
X761532Y-1825506D01*
X758441Y-1825445D01*
X755519Y-1824692D01*
X752872Y-1823286D01*
X750608Y-1821267D01*
X748988Y-1818965D01*
X748429Y-1817884D01*
X748083Y-1816933D01*
X747899Y-1815861D01*
X747828Y-1814419D01*
X747818Y-1813084D01*
X747853Y-1811130D01*
X747984Y-1809712D01*
X748255Y-1808574D01*
X748707Y-1807459D01*
X748768Y-1807329D01*
X749035Y-1806886D01*
X749511Y-1806253D01*
X750226Y-1805400D01*
X751209Y-1804296D01*
X752489Y-1802912D01*
X754094Y-1801216D01*
X756055Y-1799181D01*
X758400Y-1796774D01*
X761158Y-1793966D01*
X764359Y-1790727D01*
X768030Y-1787026D01*
X772203Y-1782834D01*
X776904Y-1778120D01*
X777938Y-1777085D01*
X782616Y-1772403D01*
X786768Y-1768252D01*
X790430Y-1764600D01*
X793634Y-1761414D01*
X796416Y-1758662D01*
X798808Y-1756310D01*
X800845Y-1754326D01*
X802560Y-1752678D01*
X803988Y-1751333D01*
X805162Y-1750258D01*
X806116Y-1749421D01*
X806885Y-1748789D01*
X807502Y-1748330D01*
X808000Y-1748010D01*
X808376Y-1747816D01*
X810932Y-1746963D01*
X813642Y-1746590D01*
X816203Y-1746728D01*
G36*
X816203Y-1746728D02*
G01*
X817101Y-1746928D01*
X820104Y-1748152D01*
X822602Y-1749942D01*
X824538Y-1752220D01*
X825857Y-1754906D01*
X826501Y-1757923D01*
X826528Y-1760073D01*
X826481Y-1760824D01*
X826421Y-1761511D01*
X826317Y-1762169D01*
X826137Y-1762833D01*
X825851Y-1763540D01*
X825426Y-1764326D01*
X824832Y-1765225D01*
X824038Y-1766274D01*
X823011Y-1767508D01*
X821722Y-1768963D01*
X820138Y-1770676D01*
X818229Y-1772680D01*
X815963Y-1775013D01*
X813309Y-1777710D01*
X810236Y-1780806D01*
X806712Y-1784338D01*
X802706Y-1788341D01*
X798188Y-1792851D01*
X795557Y-1795476D01*
X790901Y-1800122D01*
X786771Y-1804238D01*
X783134Y-1807859D01*
X779953Y-1811017D01*
X777196Y-1813745D01*
X774827Y-1816076D01*
X772812Y-1818042D01*
X771117Y-1819676D01*
X769706Y-1821012D01*
X768545Y-1822082D01*
X767600Y-1822919D01*
X766837Y-1823555D01*
X766220Y-1824025D01*
X765715Y-1824359D01*
X765287Y-1824593D01*
X764903Y-1824757D01*
X764685Y-1824834D01*
X761532Y-1825506D01*
X758441Y-1825445D01*
X755519Y-1824692D01*
X752872Y-1823286D01*
X750608Y-1821267D01*
X748988Y-1818965D01*
X748429Y-1817884D01*
X748083Y-1816933D01*
X747899Y-1815861D01*
X747828Y-1814419D01*
X747818Y-1813084D01*
X747853Y-1811130D01*
X747984Y-1809712D01*
X748255Y-1808574D01*
X748707Y-1807459D01*
X748768Y-1807329D01*
X749035Y-1806886D01*
X749511Y-1806253D01*
X750226Y-1805400D01*
X751209Y-1804296D01*
X752489Y-1802912D01*
X754094Y-1801216D01*
X756055Y-1799181D01*
X758400Y-1796774D01*
X761158Y-1793966D01*
X764359Y-1790727D01*
X768030Y-1787026D01*
X772203Y-1782834D01*
X776904Y-1778120D01*
X777938Y-1777085D01*
X782616Y-1772403D01*
X786768Y-1768252D01*
X790430Y-1764600D01*
X793634Y-1761414D01*
X796416Y-1758662D01*
X798808Y-1756310D01*
X800845Y-1754326D01*
X802560Y-1752678D01*
X803988Y-1751333D01*
X805162Y-1750258D01*
X806116Y-1749421D01*
X806885Y-1748789D01*
X807502Y-1748330D01*
X808000Y-1748010D01*
X808376Y-1747816D01*
X810932Y-1746963D01*
X813642Y-1746590D01*
X816203Y-1746728D01*
G37*
%TO.C,MH2*%
X707557Y1997289D02*
X713519Y1996520D01*
X719298Y1995039D01*
X719680Y1994912D01*
X725286Y1992621D01*
X730581Y1989641D01*
X735496Y1986039D01*
X739964Y1981883D01*
X743915Y1977239D01*
X747280Y1972174D01*
X749991Y1966754D01*
X750859Y1964553D01*
X751314Y1963124D01*
X751867Y1961102D01*
X752471Y1958674D01*
X753081Y1956026D01*
X753649Y1953347D01*
X753658Y1953303D01*
X755821Y1943330D01*
X758180Y1933953D01*
X760791Y1924987D01*
X763711Y1916248D01*
X766996Y1907550D01*
X768951Y1902780D01*
X770319Y1899329D01*
X771257Y1896446D01*
X771769Y1894034D01*
X771862Y1891998D01*
X771541Y1890243D01*
X770810Y1888671D01*
X769815Y1887343D01*
X768920Y1886416D01*
X767949Y1885649D01*
X766763Y1884976D01*
X765224Y1884328D01*
X763193Y1883640D01*
X760531Y1882843D01*
X760442Y1882817D01*
X754763Y1881049D01*
X749590Y1879144D01*
X744636Y1876992D01*
X741329Y1875372D01*
X733816Y1871098D01*
X726658Y1866146D01*
X719929Y1860578D01*
X713700Y1854458D01*
X708045Y1847848D01*
X705269Y1844116D01*
X703076Y1841236D01*
X701043Y1839061D01*
X699096Y1837536D01*
X697165Y1836608D01*
X695175Y1836223D01*
X694659Y1836204D01*
X692804Y1836393D01*
X691130Y1837027D01*
X689568Y1838170D01*
X688045Y1839890D01*
X686492Y1842252D01*
X684837Y1845323D01*
X684821Y1845354D01*
X679081Y1857513D01*
X673738Y1870277D01*
X668827Y1883548D01*
X664379Y1897226D01*
X660430Y1911210D01*
X657013Y1925402D01*
X655772Y1931266D01*
X654691Y1937214D01*
X654000Y1942527D01*
X653694Y1947261D01*
X653770Y1951471D01*
X654157Y1954830D01*
X655606Y1961174D01*
X657744Y1967152D01*
X660546Y1972730D01*
X663988Y1977872D01*
X668048Y1982544D01*
X672699Y1986711D01*
X677920Y1990338D01*
X678751Y1990833D01*
X684022Y1993463D01*
X689645Y1995434D01*
X695514Y1996736D01*
X701520Y1997358D01*
X707557Y1997289D01*
G36*
X707557Y1997289D02*
G01*
X713519Y1996520D01*
X719298Y1995039D01*
X719680Y1994912D01*
X725286Y1992621D01*
X730581Y1989641D01*
X735496Y1986039D01*
X739964Y1981883D01*
X743915Y1977239D01*
X747280Y1972174D01*
X749991Y1966754D01*
X750859Y1964553D01*
X751314Y1963124D01*
X751867Y1961102D01*
X752471Y1958674D01*
X753081Y1956026D01*
X753649Y1953347D01*
X753658Y1953303D01*
X755821Y1943330D01*
X758180Y1933953D01*
X760791Y1924987D01*
X763711Y1916248D01*
X766996Y1907550D01*
X768951Y1902780D01*
X770319Y1899329D01*
X771257Y1896446D01*
X771769Y1894034D01*
X771862Y1891998D01*
X771541Y1890243D01*
X770810Y1888671D01*
X769815Y1887343D01*
X768920Y1886416D01*
X767949Y1885649D01*
X766763Y1884976D01*
X765224Y1884328D01*
X763193Y1883640D01*
X760531Y1882843D01*
X760442Y1882817D01*
X754763Y1881049D01*
X749590Y1879144D01*
X744636Y1876992D01*
X741329Y1875372D01*
X733816Y1871098D01*
X726658Y1866146D01*
X719929Y1860578D01*
X713700Y1854458D01*
X708045Y1847848D01*
X705269Y1844116D01*
X703076Y1841236D01*
X701043Y1839061D01*
X699096Y1837536D01*
X697165Y1836608D01*
X695175Y1836223D01*
X694659Y1836204D01*
X692804Y1836393D01*
X691130Y1837027D01*
X689568Y1838170D01*
X688045Y1839890D01*
X686492Y1842252D01*
X684837Y1845323D01*
X684821Y1845354D01*
X679081Y1857513D01*
X673738Y1870277D01*
X668827Y1883548D01*
X664379Y1897226D01*
X660430Y1911210D01*
X657013Y1925402D01*
X655772Y1931266D01*
X654691Y1937214D01*
X654000Y1942527D01*
X653694Y1947261D01*
X653770Y1951471D01*
X654157Y1954830D01*
X655606Y1961174D01*
X657744Y1967152D01*
X660546Y1972730D01*
X663988Y1977872D01*
X668048Y1982544D01*
X672699Y1986711D01*
X677920Y1990338D01*
X678751Y1990833D01*
X684022Y1993463D01*
X689645Y1995434D01*
X695514Y1996736D01*
X701520Y1997358D01*
X707557Y1997289D01*
G37*
X760884Y1826721D02*
X761571Y1826661D01*
X762229Y1826557D01*
X762894Y1826377D01*
X763601Y1826091D01*
X764386Y1825666D01*
X765285Y1825072D01*
X766334Y1824278D01*
X767568Y1823251D01*
X769024Y1821962D01*
X770736Y1820378D01*
X772740Y1818469D01*
X775073Y1816203D01*
X777770Y1813549D01*
X780867Y1810476D01*
X784399Y1806952D01*
X788402Y1802946D01*
X792911Y1798428D01*
X795537Y1795797D01*
X800182Y1791141D01*
X804299Y1787011D01*
X807919Y1783374D01*
X811077Y1780193D01*
X813805Y1777436D01*
X816136Y1775067D01*
X818102Y1773052D01*
X819736Y1771357D01*
X821072Y1769946D01*
X822142Y1768785D01*
X822979Y1767840D01*
X823616Y1767077D01*
X824085Y1766460D01*
X824420Y1765955D01*
X824653Y1765527D01*
X824817Y1765143D01*
X824894Y1764925D01*
X825566Y1761772D01*
X825505Y1758681D01*
X824752Y1755759D01*
X823346Y1753112D01*
X821327Y1750848D01*
X819025Y1749228D01*
X817944Y1748669D01*
X816993Y1748323D01*
X815921Y1748139D01*
X814479Y1748068D01*
X813144Y1748058D01*
X811190Y1748093D01*
X809772Y1748224D01*
X808634Y1748495D01*
X807519Y1748947D01*
X807389Y1749008D01*
X806946Y1749275D01*
X806313Y1749751D01*
X805460Y1750466D01*
X804356Y1751449D01*
X802972Y1752729D01*
X801277Y1754334D01*
X799241Y1756295D01*
X796834Y1758640D01*
X794026Y1761398D01*
X790787Y1764599D01*
X787086Y1768270D01*
X782894Y1772443D01*
X778180Y1777144D01*
X777145Y1778178D01*
X772463Y1782856D01*
X768313Y1787008D01*
X764661Y1790670D01*
X761475Y1793874D01*
X758722Y1796656D01*
X756370Y1799048D01*
X754386Y1801085D01*
X752738Y1802800D01*
X751393Y1804228D01*
X750318Y1805402D01*
X749481Y1806356D01*
X748849Y1807125D01*
X748390Y1807742D01*
X748071Y1808240D01*
X747876Y1808616D01*
X747023Y1811172D01*
X746651Y1813882D01*
X746788Y1816443D01*
X746988Y1817341D01*
X748212Y1820344D01*
X750003Y1822842D01*
X752280Y1824778D01*
X754967Y1826097D01*
X757983Y1826741D01*
X760133Y1826768D01*
X760884Y1826721D01*
G36*
X760884Y1826721D02*
G01*
X761571Y1826661D01*
X762229Y1826557D01*
X762894Y1826377D01*
X763601Y1826091D01*
X764386Y1825666D01*
X765285Y1825072D01*
X766334Y1824278D01*
X767568Y1823251D01*
X769024Y1821962D01*
X770736Y1820378D01*
X772740Y1818469D01*
X775073Y1816203D01*
X777770Y1813549D01*
X780867Y1810476D01*
X784399Y1806952D01*
X788402Y1802946D01*
X792911Y1798428D01*
X795537Y1795797D01*
X800182Y1791141D01*
X804299Y1787011D01*
X807919Y1783374D01*
X811077Y1780193D01*
X813805Y1777436D01*
X816136Y1775067D01*
X818102Y1773052D01*
X819736Y1771357D01*
X821072Y1769946D01*
X822142Y1768785D01*
X822979Y1767840D01*
X823616Y1767077D01*
X824085Y1766460D01*
X824420Y1765955D01*
X824653Y1765527D01*
X824817Y1765143D01*
X824894Y1764925D01*
X825566Y1761772D01*
X825505Y1758681D01*
X824752Y1755759D01*
X823346Y1753112D01*
X821327Y1750848D01*
X819025Y1749228D01*
X817944Y1748669D01*
X816993Y1748323D01*
X815921Y1748139D01*
X814479Y1748068D01*
X813144Y1748058D01*
X811190Y1748093D01*
X809772Y1748224D01*
X808634Y1748495D01*
X807519Y1748947D01*
X807389Y1749008D01*
X806946Y1749275D01*
X806313Y1749751D01*
X805460Y1750466D01*
X804356Y1751449D01*
X802972Y1752729D01*
X801277Y1754334D01*
X799241Y1756295D01*
X796834Y1758640D01*
X794026Y1761398D01*
X790787Y1764599D01*
X787086Y1768270D01*
X782894Y1772443D01*
X778180Y1777144D01*
X777145Y1778178D01*
X772463Y1782856D01*
X768313Y1787008D01*
X764661Y1790670D01*
X761475Y1793874D01*
X758722Y1796656D01*
X756370Y1799048D01*
X754386Y1801085D01*
X752738Y1802800D01*
X751393Y1804228D01*
X750318Y1805402D01*
X749481Y1806356D01*
X748849Y1807125D01*
X748390Y1807742D01*
X748071Y1808240D01*
X747876Y1808616D01*
X747023Y1811172D01*
X746651Y1813882D01*
X746788Y1816443D01*
X746988Y1817341D01*
X748212Y1820344D01*
X750003Y1822842D01*
X752280Y1824778D01*
X754967Y1826097D01*
X757983Y1826741D01*
X760133Y1826768D01*
X760884Y1826721D01*
G37*
X893882Y1772475D02*
X896428Y1771702D01*
X898671Y1770782D01*
X910723Y1765838D01*
X923152Y1761510D01*
X936016Y1757780D01*
X949373Y1754630D01*
X952442Y1754001D01*
X955910Y1753291D01*
X958748Y1752660D01*
X961110Y1752063D01*
X963149Y1751455D01*
X965020Y1750792D01*
X966876Y1750029D01*
X968260Y1749407D01*
X973558Y1746533D01*
X978465Y1743018D01*
X982923Y1738936D01*
X986876Y1734359D01*
X990266Y1729360D01*
X993037Y1724011D01*
X995130Y1718387D01*
X996295Y1713655D01*
X997107Y1707379D01*
X997161Y1701216D01*
X996488Y1695214D01*
X995122Y1689423D01*
X993095Y1683890D01*
X990440Y1678664D01*
X987188Y1673794D01*
X983373Y1669328D01*
X979027Y1665314D01*
X974183Y1661802D01*
X968872Y1658840D01*
X963129Y1656475D01*
X956984Y1654758D01*
X956813Y1654721D01*
X955045Y1654403D01*
X953121Y1654191D01*
X950851Y1654071D01*
X948046Y1654031D01*
X946891Y1654033D01*
X944723Y1654071D01*
X942626Y1654171D01*
X940502Y1654351D01*
X938249Y1654625D01*
X935767Y1655010D01*
X932956Y1655523D01*
X929716Y1656180D01*
X925945Y1656996D01*
X921544Y1657987D01*
X919705Y1658409D01*
X908364Y1661261D01*
X896746Y1664640D01*
X885037Y1668481D01*
X873423Y1672717D01*
X862089Y1677281D01*
X851222Y1682107D01*
X844105Y1685548D01*
X841352Y1686997D01*
X839249Y1688276D01*
X837692Y1689468D01*
X836577Y1690652D01*
X835800Y1691910D01*
X835712Y1692095D01*
X835115Y1693899D01*
X835120Y1695581D01*
X835516Y1697005D01*
X836601Y1698977D01*
X838433Y1701001D01*
X840971Y1703036D01*
X841450Y1703366D01*
X848773Y1708773D01*
X855520Y1714694D01*
X861666Y1721098D01*
X867188Y1727956D01*
X872060Y1735240D01*
X876260Y1742920D01*
X878810Y1748575D01*
X880045Y1751694D01*
X881167Y1754833D01*
X882242Y1758195D01*
X883336Y1761983D01*
X884221Y1765277D01*
X884752Y1767101D01*
X885294Y1768406D01*
X885978Y1769456D01*
X886723Y1770298D01*
X888279Y1771642D01*
X889918Y1772450D01*
X891749Y1772726D01*
X893882Y1772475D01*
G36*
X893882Y1772475D02*
G01*
X896428Y1771702D01*
X898671Y1770782D01*
X910723Y1765838D01*
X923152Y1761510D01*
X936016Y1757780D01*
X949373Y1754630D01*
X952442Y1754001D01*
X955910Y1753291D01*
X958748Y1752660D01*
X961110Y1752063D01*
X963149Y1751455D01*
X965020Y1750792D01*
X966876Y1750029D01*
X968260Y1749407D01*
X973558Y1746533D01*
X978465Y1743018D01*
X982923Y1738936D01*
X986876Y1734359D01*
X990266Y1729360D01*
X993037Y1724011D01*
X995130Y1718387D01*
X996295Y1713655D01*
X997107Y1707379D01*
X997161Y1701216D01*
X996488Y1695214D01*
X995122Y1689423D01*
X993095Y1683890D01*
X990440Y1678664D01*
X987188Y1673794D01*
X983373Y1669328D01*
X979027Y1665314D01*
X974183Y1661802D01*
X968872Y1658840D01*
X963129Y1656475D01*
X956984Y1654758D01*
X956813Y1654721D01*
X955045Y1654403D01*
X953121Y1654191D01*
X950851Y1654071D01*
X948046Y1654031D01*
X946891Y1654033D01*
X944723Y1654071D01*
X942626Y1654171D01*
X940502Y1654351D01*
X938249Y1654625D01*
X935767Y1655010D01*
X932956Y1655523D01*
X929716Y1656180D01*
X925945Y1656996D01*
X921544Y1657987D01*
X919705Y1658409D01*
X908364Y1661261D01*
X896746Y1664640D01*
X885037Y1668481D01*
X873423Y1672717D01*
X862089Y1677281D01*
X851222Y1682107D01*
X844105Y1685548D01*
X841352Y1686997D01*
X839249Y1688276D01*
X837692Y1689468D01*
X836577Y1690652D01*
X835800Y1691910D01*
X835712Y1692095D01*
X835115Y1693899D01*
X835120Y1695581D01*
X835516Y1697005D01*
X836601Y1698977D01*
X838433Y1701001D01*
X840971Y1703036D01*
X841450Y1703366D01*
X848773Y1708773D01*
X855520Y1714694D01*
X861666Y1721098D01*
X867188Y1727956D01*
X872060Y1735240D01*
X876260Y1742920D01*
X878810Y1748575D01*
X880045Y1751694D01*
X881167Y1754833D01*
X882242Y1758195D01*
X883336Y1761983D01*
X884221Y1765277D01*
X884752Y1767101D01*
X885294Y1768406D01*
X885978Y1769456D01*
X886723Y1770298D01*
X888279Y1771642D01*
X889918Y1772450D01*
X891749Y1772726D01*
X893882Y1772475D01*
G37*
%TO.C,MH1*%
X-889984Y1771069D02*
X-888412Y1770338D01*
X-887084Y1769343D01*
X-886157Y1768448D01*
X-885391Y1767477D01*
X-884717Y1766291D01*
X-884070Y1764752D01*
X-883381Y1762721D01*
X-882584Y1760059D01*
X-882559Y1759970D01*
X-880790Y1754291D01*
X-878886Y1749118D01*
X-876733Y1744164D01*
X-875114Y1740857D01*
X-870840Y1733344D01*
X-865887Y1726186D01*
X-860319Y1719457D01*
X-854199Y1713228D01*
X-847589Y1707573D01*
X-843857Y1704797D01*
X-840977Y1702604D01*
X-838802Y1700571D01*
X-837278Y1698624D01*
X-836350Y1696693D01*
X-835964Y1694703D01*
X-835946Y1694187D01*
X-836135Y1692331D01*
X-836768Y1690658D01*
X-837912Y1689096D01*
X-839632Y1687573D01*
X-841994Y1686020D01*
X-845064Y1684364D01*
X-845095Y1684349D01*
X-857254Y1678609D01*
X-870019Y1673266D01*
X-883290Y1668354D01*
X-896967Y1663907D01*
X-910952Y1659958D01*
X-925143Y1656541D01*
X-931007Y1655299D01*
X-936955Y1654219D01*
X-942268Y1653527D01*
X-947003Y1653222D01*
X-951213Y1653298D01*
X-954572Y1653685D01*
X-960915Y1655134D01*
X-966893Y1657272D01*
X-972471Y1660074D01*
X-977614Y1663516D01*
X-982286Y1667575D01*
X-986453Y1672227D01*
X-990079Y1677448D01*
X-990575Y1678279D01*
X-993204Y1683550D01*
X-995175Y1689173D01*
X-996477Y1695042D01*
X-997099Y1701048D01*
X-997031Y1707085D01*
X-996261Y1713047D01*
X-994780Y1718826D01*
X-994654Y1719208D01*
X-992362Y1724814D01*
X-989382Y1730109D01*
X-985781Y1735024D01*
X-981625Y1739492D01*
X-976980Y1743443D01*
X-971915Y1746808D01*
X-966495Y1749519D01*
X-964294Y1750387D01*
X-962866Y1750842D01*
X-960843Y1751395D01*
X-958415Y1751999D01*
X-955767Y1752609D01*
X-953088Y1753177D01*
X-953044Y1753186D01*
X-943071Y1755349D01*
X-933694Y1757708D01*
X-924729Y1760319D01*
X-915989Y1763239D01*
X-907291Y1766524D01*
X-902521Y1768479D01*
X-899071Y1769847D01*
X-896187Y1770785D01*
X-893776Y1771297D01*
X-891740Y1771390D01*
X-889984Y1771069D01*
G36*
X-889984Y1771069D02*
G01*
X-888412Y1770338D01*
X-887084Y1769343D01*
X-886157Y1768448D01*
X-885391Y1767477D01*
X-884717Y1766291D01*
X-884070Y1764752D01*
X-883381Y1762721D01*
X-882584Y1760059D01*
X-882559Y1759970D01*
X-880790Y1754291D01*
X-878886Y1749118D01*
X-876733Y1744164D01*
X-875114Y1740857D01*
X-870840Y1733344D01*
X-865887Y1726186D01*
X-860319Y1719457D01*
X-854199Y1713228D01*
X-847589Y1707573D01*
X-843857Y1704797D01*
X-840977Y1702604D01*
X-838802Y1700571D01*
X-837278Y1698624D01*
X-836350Y1696693D01*
X-835964Y1694703D01*
X-835946Y1694187D01*
X-836135Y1692331D01*
X-836768Y1690658D01*
X-837912Y1689096D01*
X-839632Y1687573D01*
X-841994Y1686020D01*
X-845064Y1684364D01*
X-845095Y1684349D01*
X-857254Y1678609D01*
X-870019Y1673266D01*
X-883290Y1668354D01*
X-896967Y1663907D01*
X-910952Y1659958D01*
X-925143Y1656541D01*
X-931007Y1655299D01*
X-936955Y1654219D01*
X-942268Y1653527D01*
X-947003Y1653222D01*
X-951213Y1653298D01*
X-954572Y1653685D01*
X-960915Y1655134D01*
X-966893Y1657272D01*
X-972471Y1660074D01*
X-977614Y1663516D01*
X-982286Y1667575D01*
X-986453Y1672227D01*
X-990079Y1677448D01*
X-990575Y1678279D01*
X-993204Y1683550D01*
X-995175Y1689173D01*
X-996477Y1695042D01*
X-997099Y1701048D01*
X-997031Y1707085D01*
X-996261Y1713047D01*
X-994780Y1718826D01*
X-994654Y1719208D01*
X-992362Y1724814D01*
X-989382Y1730109D01*
X-985781Y1735024D01*
X-981625Y1739492D01*
X-976980Y1743443D01*
X-971915Y1746808D01*
X-966495Y1749519D01*
X-964294Y1750387D01*
X-962866Y1750842D01*
X-960843Y1751395D01*
X-958415Y1751999D01*
X-955767Y1752609D01*
X-953088Y1753177D01*
X-953044Y1753186D01*
X-943071Y1755349D01*
X-933694Y1757708D01*
X-924729Y1760319D01*
X-915989Y1763239D01*
X-907291Y1766524D01*
X-902521Y1768479D01*
X-899071Y1769847D01*
X-896187Y1770785D01*
X-893776Y1771297D01*
X-891740Y1771390D01*
X-889984Y1771069D01*
G37*
X-694956Y1996016D02*
X-689164Y1994650D01*
X-683631Y1992623D01*
X-678405Y1989968D01*
X-673535Y1986716D01*
X-669069Y1982901D01*
X-665056Y1978555D01*
X-661543Y1973711D01*
X-658581Y1968400D01*
X-656217Y1962657D01*
X-654500Y1956512D01*
X-654463Y1956341D01*
X-654145Y1954573D01*
X-653932Y1952649D01*
X-653813Y1950379D01*
X-653772Y1947574D01*
X-653775Y1946419D01*
X-653812Y1944251D01*
X-653913Y1942154D01*
X-654092Y1940030D01*
X-654366Y1937777D01*
X-654752Y1935295D01*
X-655265Y1932484D01*
X-655921Y1929244D01*
X-656737Y1925473D01*
X-657729Y1921072D01*
X-658151Y1919233D01*
X-661002Y1907892D01*
X-664382Y1896274D01*
X-668223Y1884565D01*
X-672459Y1872951D01*
X-677023Y1861617D01*
X-681849Y1850750D01*
X-685290Y1843633D01*
X-686738Y1840880D01*
X-688018Y1838777D01*
X-689209Y1837220D01*
X-690393Y1836105D01*
X-691651Y1835328D01*
X-691837Y1835240D01*
X-693640Y1834643D01*
X-695323Y1834648D01*
X-696747Y1835044D01*
X-698718Y1836129D01*
X-700743Y1837961D01*
X-702777Y1840499D01*
X-703107Y1840978D01*
X-708515Y1848301D01*
X-714435Y1855048D01*
X-720839Y1861194D01*
X-727698Y1866716D01*
X-734981Y1871588D01*
X-742661Y1875788D01*
X-748316Y1878338D01*
X-751435Y1879573D01*
X-754574Y1880695D01*
X-757936Y1881770D01*
X-761724Y1882864D01*
X-765018Y1883749D01*
X-766842Y1884280D01*
X-768147Y1884822D01*
X-769197Y1885506D01*
X-770039Y1886251D01*
X-771383Y1887807D01*
X-772191Y1889446D01*
X-772467Y1891277D01*
X-772217Y1893410D01*
X-771443Y1895956D01*
X-770524Y1898199D01*
X-765579Y1910251D01*
X-761251Y1922680D01*
X-757521Y1935544D01*
X-754371Y1948901D01*
X-753743Y1951970D01*
X-753032Y1955438D01*
X-752401Y1958276D01*
X-751804Y1960638D01*
X-751196Y1962677D01*
X-750533Y1964548D01*
X-749770Y1966404D01*
X-749148Y1967788D01*
X-746274Y1973086D01*
X-742760Y1977993D01*
X-738677Y1982451D01*
X-734100Y1986404D01*
X-729101Y1989794D01*
X-723753Y1992565D01*
X-718128Y1994658D01*
X-713396Y1995823D01*
X-707120Y1996635D01*
X-700957Y1996689D01*
X-694956Y1996016D01*
G36*
X-694956Y1996016D02*
G01*
X-689164Y1994650D01*
X-683631Y1992623D01*
X-678405Y1989968D01*
X-673535Y1986716D01*
X-669069Y1982901D01*
X-665056Y1978555D01*
X-661543Y1973711D01*
X-658581Y1968400D01*
X-656217Y1962657D01*
X-654500Y1956512D01*
X-654463Y1956341D01*
X-654145Y1954573D01*
X-653932Y1952649D01*
X-653813Y1950379D01*
X-653772Y1947574D01*
X-653775Y1946419D01*
X-653812Y1944251D01*
X-653913Y1942154D01*
X-654092Y1940030D01*
X-654366Y1937777D01*
X-654752Y1935295D01*
X-655265Y1932484D01*
X-655921Y1929244D01*
X-656737Y1925473D01*
X-657729Y1921072D01*
X-658151Y1919233D01*
X-661002Y1907892D01*
X-664382Y1896274D01*
X-668223Y1884565D01*
X-672459Y1872951D01*
X-677023Y1861617D01*
X-681849Y1850750D01*
X-685290Y1843633D01*
X-686738Y1840880D01*
X-688018Y1838777D01*
X-689209Y1837220D01*
X-690393Y1836105D01*
X-691651Y1835328D01*
X-691837Y1835240D01*
X-693640Y1834643D01*
X-695323Y1834648D01*
X-696747Y1835044D01*
X-698718Y1836129D01*
X-700743Y1837961D01*
X-702777Y1840499D01*
X-703107Y1840978D01*
X-708515Y1848301D01*
X-714435Y1855048D01*
X-720839Y1861194D01*
X-727698Y1866716D01*
X-734981Y1871588D01*
X-742661Y1875788D01*
X-748316Y1878338D01*
X-751435Y1879573D01*
X-754574Y1880695D01*
X-757936Y1881770D01*
X-761724Y1882864D01*
X-765018Y1883749D01*
X-766842Y1884280D01*
X-768147Y1884822D01*
X-769197Y1885506D01*
X-770039Y1886251D01*
X-771383Y1887807D01*
X-772191Y1889446D01*
X-772467Y1891277D01*
X-772217Y1893410D01*
X-771443Y1895956D01*
X-770524Y1898199D01*
X-765579Y1910251D01*
X-761251Y1922680D01*
X-757521Y1935544D01*
X-754371Y1948901D01*
X-753743Y1951970D01*
X-753032Y1955438D01*
X-752401Y1958276D01*
X-751804Y1960638D01*
X-751196Y1962677D01*
X-750533Y1964548D01*
X-749770Y1966404D01*
X-749148Y1967788D01*
X-746274Y1973086D01*
X-742760Y1977993D01*
X-738677Y1982451D01*
X-734100Y1986404D01*
X-729101Y1989794D01*
X-723753Y1992565D01*
X-718128Y1994658D01*
X-713396Y1995823D01*
X-707120Y1996635D01*
X-700957Y1996689D01*
X-694956Y1996016D01*
G37*
X-749308Y1846221D02*
X-747600Y1846154D01*
X-746248Y1846027D01*
X-745180Y1845834D01*
X-744324Y1845570D01*
X-743607Y1845228D01*
X-742955Y1844804D01*
X-742296Y1844291D01*
X-741969Y1844023D01*
X-740882Y1842872D01*
X-739850Y1841353D01*
X-739020Y1839731D01*
X-738538Y1838271D01*
X-738473Y1837697D01*
X-738386Y1837112D01*
X-738137Y1835836D01*
X-737744Y1833949D01*
X-737225Y1831532D01*
X-736596Y1828667D01*
X-735876Y1825435D01*
X-735083Y1821917D01*
X-734306Y1818511D01*
X-733243Y1813849D01*
X-732357Y1809890D01*
X-731637Y1806564D01*
X-731074Y1803802D01*
X-730658Y1801536D01*
X-730377Y1799695D01*
X-730223Y1798211D01*
X-730184Y1797015D01*
X-730250Y1796037D01*
X-730412Y1795209D01*
X-730660Y1794462D01*
X-730733Y1794281D01*
X-731915Y1792274D01*
X-733606Y1790449D01*
X-735459Y1789143D01*
X-737295Y1788511D01*
X-739520Y1788243D01*
X-741816Y1788340D01*
X-743870Y1788800D01*
X-744652Y1789138D01*
X-746260Y1790239D01*
X-747798Y1791715D01*
X-749013Y1793302D01*
X-749492Y1794220D01*
X-749726Y1794965D01*
X-750095Y1796345D01*
X-750567Y1798222D01*
X-751105Y1800457D01*
X-751676Y1802912D01*
X-751768Y1803317D01*
X-752314Y1805706D01*
X-752804Y1807815D01*
X-753209Y1809529D01*
X-753503Y1810730D01*
X-753657Y1811302D01*
X-753670Y1811332D01*
X-753939Y1811076D01*
X-754612Y1810298D01*
X-755603Y1809101D01*
X-756827Y1807590D01*
X-757617Y1806598D01*
X-767578Y1794685D01*
X-778137Y1783292D01*
X-789295Y1772421D01*
X-801051Y1762071D01*
X-807038Y1757183D01*
X-808749Y1755794D01*
X-810191Y1754568D01*
X-811271Y1753592D01*
X-811893Y1752950D01*
X-811999Y1752735D01*
X-811541Y1752566D01*
X-810428Y1752238D01*
X-808777Y1751783D01*
X-806705Y1751233D01*
X-804327Y1750619D01*
X-803362Y1750374D01*
X-800267Y1749588D01*
X-797837Y1748954D01*
X-795966Y1748431D01*
X-794549Y1747982D01*
X-793480Y1747567D01*
X-792653Y1747149D01*
X-791962Y1746688D01*
X-791302Y1746146D01*
X-790952Y1745834D01*
X-789229Y1743788D01*
X-788161Y1741455D01*
X-787731Y1738965D01*
X-787919Y1736452D01*
X-788707Y1734046D01*
X-790076Y1731878D01*
X-792008Y1730080D01*
X-793291Y1729304D01*
X-794404Y1728800D01*
X-795519Y1728470D01*
X-796747Y1728320D01*
X-798196Y1728360D01*
X-799978Y1728598D01*
X-802203Y1729043D01*
X-804981Y1729704D01*
X-807926Y1730460D01*
X-810751Y1731197D01*
X-814135Y1732077D01*
X-817870Y1733046D01*
X-821746Y1734049D01*
X-825556Y1735033D01*
X-828934Y1735904D01*
X-832622Y1736861D01*
X-835625Y1737670D01*
X-838030Y1738366D01*
X-839923Y1738987D01*
X-841391Y1739569D01*
X-842521Y1740150D01*
X-843400Y1740766D01*
X-844114Y1741455D01*
X-844749Y1742253D01*
X-845130Y1742800D01*
X-845526Y1743407D01*
X-845857Y1744002D01*
X-846124Y1744651D01*
X-846330Y1745426D01*
X-846477Y1746394D01*
X-846566Y1747626D01*
X-846600Y1749190D01*
X-846580Y1751156D01*
X-846509Y1753592D01*
X-846388Y1756568D01*
X-846220Y1760154D01*
X-846007Y1764418D01*
X-845844Y1767594D01*
X-845633Y1771578D01*
X-845421Y1775361D01*
X-845214Y1778860D01*
X-845016Y1781994D01*
X-844833Y1784681D01*
X-844672Y1786839D01*
X-844536Y1788388D01*
X-844431Y1789245D01*
X-844411Y1789339D01*
X-843415Y1791668D01*
X-841858Y1793572D01*
X-839870Y1795014D01*
X-837582Y1795958D01*
X-835125Y1796366D01*
X-832631Y1796202D01*
X-830229Y1795428D01*
X-828051Y1794008D01*
X-828000Y1793964D01*
X-826562Y1792360D01*
X-825446Y1790489D01*
X-825390Y1790363D01*
X-825069Y1789578D01*
X-824840Y1788852D01*
X-824695Y1788044D01*
X-824624Y1787012D01*
X-824616Y1785614D01*
X-824662Y1783708D01*
X-824753Y1781153D01*
X-824754Y1781121D01*
X-824856Y1778606D01*
X-824971Y1776169D01*
X-825087Y1774002D01*
X-825196Y1772297D01*
X-825264Y1771451D01*
X-825361Y1770457D01*
X-825382Y1769758D01*
X-825251Y1769380D01*
X-824891Y1769352D01*
X-824224Y1769700D01*
X-823175Y1770451D01*
X-821667Y1771633D01*
X-819623Y1773272D01*
X-819237Y1773581D01*
X-810930Y1780523D01*
X-802721Y1787926D01*
X-794731Y1795668D01*
X-787081Y1803624D01*
X-779889Y1811674D01*
X-773276Y1819694D01*
X-770015Y1823933D01*
X-768864Y1825470D01*
X-772421Y1825216D01*
X-774125Y1825120D01*
X-776370Y1825029D01*
X-778903Y1824952D01*
X-781471Y1824897D01*
X-782328Y1824885D01*
X-784846Y1824868D01*
X-786716Y1824895D01*
X-788083Y1824978D01*
X-789093Y1825127D01*
X-789889Y1825355D01*
X-790265Y1825507D01*
X-792545Y1826924D01*
X-794390Y1828897D01*
X-795694Y1831265D01*
X-796351Y1833866D01*
X-796409Y1834897D01*
X-796046Y1837469D01*
X-795030Y1839898D01*
X-793475Y1842009D01*
X-791493Y1843631D01*
X-790362Y1844210D01*
X-789878Y1844399D01*
X-789359Y1844564D01*
X-788736Y1844707D01*
X-787945Y1844833D01*
X-786917Y1844948D01*
X-785587Y1845055D01*
X-783887Y1845159D01*
X-781750Y1845264D01*
X-779110Y1845375D01*
X-775901Y1845495D01*
X-772055Y1845631D01*
X-767505Y1845785D01*
X-765749Y1845844D01*
X-761165Y1845995D01*
X-757302Y1846115D01*
X-754086Y1846196D01*
X-751446Y1846233D01*
X-749308Y1846221D01*
G36*
X-749308Y1846221D02*
G01*
X-747600Y1846154D01*
X-746248Y1846027D01*
X-745180Y1845834D01*
X-744324Y1845570D01*
X-743607Y1845228D01*
X-742955Y1844804D01*
X-742296Y1844291D01*
X-741969Y1844023D01*
X-740882Y1842872D01*
X-739850Y1841353D01*
X-739020Y1839731D01*
X-738538Y1838271D01*
X-738473Y1837697D01*
X-738386Y1837112D01*
X-738137Y1835836D01*
X-737744Y1833949D01*
X-737225Y1831532D01*
X-736596Y1828667D01*
X-735876Y1825435D01*
X-735083Y1821917D01*
X-734306Y1818511D01*
X-733243Y1813849D01*
X-732357Y1809890D01*
X-731637Y1806564D01*
X-731074Y1803802D01*
X-730658Y1801536D01*
X-730377Y1799695D01*
X-730223Y1798211D01*
X-730184Y1797015D01*
X-730250Y1796037D01*
X-730412Y1795209D01*
X-730660Y1794462D01*
X-730733Y1794281D01*
X-731915Y1792274D01*
X-733606Y1790449D01*
X-735459Y1789143D01*
X-737295Y1788511D01*
X-739520Y1788243D01*
X-741816Y1788340D01*
X-743870Y1788800D01*
X-744652Y1789138D01*
X-746260Y1790239D01*
X-747798Y1791715D01*
X-749013Y1793302D01*
X-749492Y1794220D01*
X-749726Y1794965D01*
X-750095Y1796345D01*
X-750567Y1798222D01*
X-751105Y1800457D01*
X-751676Y1802912D01*
X-751768Y1803317D01*
X-752314Y1805706D01*
X-752804Y1807815D01*
X-753209Y1809529D01*
X-753503Y1810730D01*
X-753657Y1811302D01*
X-753670Y1811332D01*
X-753939Y1811076D01*
X-754612Y1810298D01*
X-755603Y1809101D01*
X-756827Y1807590D01*
X-757617Y1806598D01*
X-767578Y1794685D01*
X-778137Y1783292D01*
X-789295Y1772421D01*
X-801051Y1762071D01*
X-807038Y1757183D01*
X-808749Y1755794D01*
X-810191Y1754568D01*
X-811271Y1753592D01*
X-811893Y1752950D01*
X-811999Y1752735D01*
X-811541Y1752566D01*
X-810428Y1752238D01*
X-808777Y1751783D01*
X-806705Y1751233D01*
X-804327Y1750619D01*
X-803362Y1750374D01*
X-800267Y1749588D01*
X-797837Y1748954D01*
X-795966Y1748431D01*
X-794549Y1747982D01*
X-793480Y1747567D01*
X-792653Y1747149D01*
X-791962Y1746688D01*
X-791302Y1746146D01*
X-790952Y1745834D01*
X-789229Y1743788D01*
X-788161Y1741455D01*
X-787731Y1738965D01*
X-787919Y1736452D01*
X-788707Y1734046D01*
X-790076Y1731878D01*
X-792008Y1730080D01*
X-793291Y1729304D01*
X-794404Y1728800D01*
X-795519Y1728470D01*
X-796747Y1728320D01*
X-798196Y1728360D01*
X-799978Y1728598D01*
X-802203Y1729043D01*
X-804981Y1729704D01*
X-807926Y1730460D01*
X-810751Y1731197D01*
X-814135Y1732077D01*
X-817870Y1733046D01*
X-821746Y1734049D01*
X-825556Y1735033D01*
X-828934Y1735904D01*
X-832622Y1736861D01*
X-835625Y1737670D01*
X-838030Y1738366D01*
X-839923Y1738987D01*
X-841391Y1739569D01*
X-842521Y1740150D01*
X-843400Y1740766D01*
X-844114Y1741455D01*
X-844749Y1742253D01*
X-845130Y1742800D01*
X-845526Y1743407D01*
X-845857Y1744002D01*
X-846124Y1744651D01*
X-846330Y1745426D01*
X-846477Y1746394D01*
X-846566Y1747626D01*
X-846600Y1749190D01*
X-846580Y1751156D01*
X-846509Y1753592D01*
X-846388Y1756568D01*
X-846220Y1760154D01*
X-846007Y1764418D01*
X-845844Y1767594D01*
X-845633Y1771578D01*
X-845421Y1775361D01*
X-845214Y1778860D01*
X-845016Y1781994D01*
X-844833Y1784681D01*
X-844672Y1786839D01*
X-844536Y1788388D01*
X-844431Y1789245D01*
X-844411Y1789339D01*
X-843415Y1791668D01*
X-841858Y1793572D01*
X-839870Y1795014D01*
X-837582Y1795958D01*
X-835125Y1796366D01*
X-832631Y1796202D01*
X-830229Y1795428D01*
X-828051Y1794008D01*
X-828000Y1793964D01*
X-826562Y1792360D01*
X-825446Y1790489D01*
X-825390Y1790363D01*
X-825069Y1789578D01*
X-824840Y1788852D01*
X-824695Y1788044D01*
X-824624Y1787012D01*
X-824616Y1785614D01*
X-824662Y1783708D01*
X-824753Y1781153D01*
X-824754Y1781121D01*
X-824856Y1778606D01*
X-824971Y1776169D01*
X-825087Y1774002D01*
X-825196Y1772297D01*
X-825264Y1771451D01*
X-825361Y1770457D01*
X-825382Y1769758D01*
X-825251Y1769380D01*
X-824891Y1769352D01*
X-824224Y1769700D01*
X-823175Y1770451D01*
X-821667Y1771633D01*
X-819623Y1773272D01*
X-819237Y1773581D01*
X-810930Y1780523D01*
X-802721Y1787926D01*
X-794731Y1795668D01*
X-787081Y1803624D01*
X-779889Y1811674D01*
X-773276Y1819694D01*
X-770015Y1823933D01*
X-768864Y1825470D01*
X-772421Y1825216D01*
X-774125Y1825120D01*
X-776370Y1825029D01*
X-778903Y1824952D01*
X-781471Y1824897D01*
X-782328Y1824885D01*
X-784846Y1824868D01*
X-786716Y1824895D01*
X-788083Y1824978D01*
X-789093Y1825127D01*
X-789889Y1825355D01*
X-790265Y1825507D01*
X-792545Y1826924D01*
X-794390Y1828897D01*
X-795694Y1831265D01*
X-796351Y1833866D01*
X-796409Y1834897D01*
X-796046Y1837469D01*
X-795030Y1839898D01*
X-793475Y1842009D01*
X-791493Y1843631D01*
X-790362Y1844210D01*
X-789878Y1844399D01*
X-789359Y1844564D01*
X-788736Y1844707D01*
X-787945Y1844833D01*
X-786917Y1844948D01*
X-785587Y1845055D01*
X-783887Y1845159D01*
X-781750Y1845264D01*
X-779110Y1845375D01*
X-775901Y1845495D01*
X-772055Y1845631D01*
X-767505Y1845785D01*
X-765749Y1845844D01*
X-761165Y1845995D01*
X-757302Y1846115D01*
X-754086Y1846196D01*
X-751446Y1846233D01*
X-749308Y1846221D01*
G37*
%TD*%
M02*
