%TF.GenerationSoftware,KiCad,Pcbnew,9.0.0*%
%TF.CreationDate,2025-03-31T12:11:15+01:00*%
%TF.ProjectId,vm_keycap_button_row_0.2,766d5f6b-6579-4636-9170-5f627574746f,v0.2*%
%TF.SameCoordinates,PX876bf80PY47868c0*%
%TF.FileFunction,AssemblyDrawing,Top*%
%FSLAX45Y45*%
G04 Gerber Fmt 4.5, Leading zero omitted, Abs format (unit mm)*
G04 Created by KiCad (PCBNEW 9.0.0) date 2025-03-31 12:11:15*
%MOMM*%
%LPD*%
G01*
G04 APERTURE LIST*
%ADD10C,0.100000*%
%ADD11C,0.120000*%
%ADD12C,0.060000*%
G04 APERTURE END LIST*
D10*
%TO.C,GS5*%
X-5550000Y825000D02*
X-5450000Y825000D01*
X-5500000Y875000D02*
X-5500000Y775000D01*
X-5450000Y825000D02*
G75*
G02*
X-5550000Y825000I-50000J0D01*
G01*
X-5550000Y825000D02*
G75*
G02*
X-5450000Y825000I50000J0D01*
G01*
%TO.C,GS3*%
X-6400000Y250000D02*
X-6300000Y250000D01*
X-6350000Y300000D02*
X-6350000Y200000D01*
X-6300000Y250000D02*
G75*
G02*
X-6400000Y250000I-50000J0D01*
G01*
X-6400000Y250000D02*
G75*
G02*
X-6300000Y250000I50000J0D01*
G01*
X2895000Y700000D02*
X2895000Y-700000D01*
X2905000Y-700000D02*
G75*
G02*
X2895000Y-700000I-5000J0D01*
G01*
X2905000Y-700000D02*
X2905000Y700000D01*
X2905000Y700000D02*
G75*
G03*
X2895000Y700000I-5000J0D01*
G01*
X2900000Y-705000D02*
X4300000Y-705000D01*
X4300000Y-695000D02*
G75*
G02*
X4300000Y-705000I0J-5000D01*
G01*
X4300000Y-695000D02*
X2900000Y-695000D01*
X2900000Y-695000D02*
G75*
G03*
X2900000Y-705000I0J-5000D01*
G01*
X4300000Y705000D02*
X2900000Y705000D01*
X2900000Y695000D02*
G75*
G02*
X2900000Y705000I0J5000D01*
G01*
X2900000Y695000D02*
X4300000Y695000D01*
X4300000Y695000D02*
G75*
G03*
X4300000Y705000I0J5000D01*
G01*
X4305000Y-700000D02*
X4305000Y700000D01*
X4295000Y700000D02*
G75*
G02*
X4305000Y700000I5000J0D01*
G01*
X4295000Y700000D02*
X4295000Y-700000D01*
X4295000Y-700000D02*
G75*
G03*
X4305000Y-700000I5000J0D01*
G01*
D11*
%TO.C,J1*%
X-5768100Y799060D02*
X-5437900Y799060D01*
X-5768100Y443460D02*
X-5768100Y799060D01*
X-5437900Y799060D02*
X-5310900Y672060D01*
X-5310900Y672060D02*
X-5310900Y443460D01*
X-5310900Y443460D02*
X-5768100Y443460D01*
D12*
%TO.C,R7*%
X-5927000Y520000D02*
G75*
G02*
X-5933000Y520000I-3000J0D01*
G01*
X-5933000Y520000D02*
G75*
G02*
X-5927000Y520000I3000J0D01*
G01*
D10*
X-5105000Y700000D02*
X-5105000Y-700000D01*
X-5095000Y-700000D02*
G75*
G02*
X-5105000Y-700000I-5000J0D01*
G01*
X-5095000Y-700000D02*
X-5095000Y700000D01*
X-5095000Y700000D02*
G75*
G03*
X-5105000Y700000I-5000J0D01*
G01*
X-5100000Y-705000D02*
X-3700000Y-705000D01*
X-3700000Y-695000D02*
G75*
G02*
X-3700000Y-705000I0J-5000D01*
G01*
X-3700000Y-695000D02*
X-5100000Y-695000D01*
X-5100000Y-695000D02*
G75*
G03*
X-5100000Y-705000I0J-5000D01*
G01*
X-3700000Y705000D02*
X-5100000Y705000D01*
X-5100000Y695000D02*
G75*
G02*
X-5100000Y705000I0J5000D01*
G01*
X-5100000Y695000D02*
X-3700000Y695000D01*
X-3700000Y695000D02*
G75*
G03*
X-3700000Y705000I0J5000D01*
G01*
X-3695000Y-700000D02*
X-3695000Y700000D01*
X-3705000Y700000D02*
G75*
G02*
X-3695000Y700000I5000J0D01*
G01*
X-3705000Y700000D02*
X-3705000Y-700000D01*
X-3705000Y-700000D02*
G75*
G03*
X-3695000Y-700000I5000J0D01*
G01*
%TO.C,GS4*%
X-5750000Y825000D02*
X-5650000Y825000D01*
X-5700000Y875000D02*
X-5700000Y775000D01*
X-5650000Y825000D02*
G75*
G02*
X-5750000Y825000I-50000J0D01*
G01*
X-5750000Y825000D02*
G75*
G02*
X-5650000Y825000I50000J0D01*
G01*
X4895000Y700000D02*
X4895000Y-700000D01*
X4905000Y-700000D02*
G75*
G02*
X4895000Y-700000I-5000J0D01*
G01*
X4905000Y-700000D02*
X4905000Y700000D01*
X4905000Y700000D02*
G75*
G03*
X4895000Y700000I-5000J0D01*
G01*
X4900000Y-705000D02*
X6300000Y-705000D01*
X6300000Y-695000D02*
G75*
G02*
X6300000Y-705000I0J-5000D01*
G01*
X6300000Y-695000D02*
X4900000Y-695000D01*
X4900000Y-695000D02*
G75*
G03*
X4900000Y-705000I0J-5000D01*
G01*
X6300000Y705000D02*
X4900000Y705000D01*
X4900000Y695000D02*
G75*
G02*
X4900000Y705000I0J5000D01*
G01*
X4900000Y695000D02*
X6300000Y695000D01*
X6300000Y695000D02*
G75*
G03*
X6300000Y705000I0J5000D01*
G01*
X6305000Y-700000D02*
X6305000Y700000D01*
X6295000Y700000D02*
G75*
G02*
X6305000Y700000I5000J0D01*
G01*
X6295000Y700000D02*
X6295000Y-700000D01*
X6295000Y-700000D02*
G75*
G03*
X6305000Y-700000I5000J0D01*
G01*
D12*
%TO.C,U2*%
X-6057000Y137000D02*
G75*
G02*
X-6063000Y137000I-3000J0D01*
G01*
X-6063000Y137000D02*
G75*
G02*
X-6057000Y137000I3000J0D01*
G01*
D10*
%TO.C,GS6*%
X-5950000Y825000D02*
X-5850000Y825000D01*
X-5900000Y875000D02*
X-5900000Y775000D01*
X-5850000Y825000D02*
G75*
G02*
X-5950000Y825000I-50000J0D01*
G01*
X-5950000Y825000D02*
G75*
G02*
X-5850000Y825000I50000J0D01*
G01*
D12*
%TO.C,D1*%
X-6107000Y-480000D02*
G75*
G02*
X-6113000Y-480000I-3000J0D01*
G01*
X-6113000Y-480000D02*
G75*
G02*
X-6107000Y-480000I3000J0D01*
G01*
%TO.C,R6*%
X-6087000Y520000D02*
G75*
G02*
X-6093000Y520000I-3000J0D01*
G01*
X-6093000Y520000D02*
G75*
G02*
X-6087000Y520000I3000J0D01*
G01*
%TO.C,C3*%
X-6107000Y-220000D02*
G75*
G02*
X-6113000Y-220000I-3000J0D01*
G01*
X-6113000Y-220000D02*
G75*
G02*
X-6107000Y-220000I3000J0D01*
G01*
%TO.C,U1*%
X-6020000Y-320000D02*
G75*
G02*
X-6026000Y-320000I-3000J0D01*
G01*
X-6026000Y-320000D02*
G75*
G02*
X-6020000Y-320000I3000J0D01*
G01*
D10*
X895000Y700000D02*
X895000Y-700000D01*
X905000Y-700000D02*
G75*
G02*
X895000Y-700000I-5000J0D01*
G01*
X905000Y-700000D02*
X905000Y700000D01*
X905000Y700000D02*
G75*
G03*
X895000Y700000I-5000J0D01*
G01*
X900000Y-705000D02*
X2300000Y-705000D01*
X2300000Y-695000D02*
G75*
G02*
X2300000Y-705000I0J-5000D01*
G01*
X2300000Y-695000D02*
X900000Y-695000D01*
X900000Y-695000D02*
G75*
G03*
X900000Y-705000I0J-5000D01*
G01*
X2300000Y705000D02*
X900000Y705000D01*
X900000Y695000D02*
G75*
G02*
X900000Y705000I0J5000D01*
G01*
X900000Y695000D02*
X2300000Y695000D01*
X2300000Y695000D02*
G75*
G03*
X2300000Y705000I0J5000D01*
G01*
X2305000Y-700000D02*
X2305000Y700000D01*
X2295000Y700000D02*
G75*
G02*
X2305000Y700000I5000J0D01*
G01*
X2295000Y700000D02*
X2295000Y-700000D01*
X2295000Y-700000D02*
G75*
G03*
X2305000Y-700000I5000J0D01*
G01*
X-1105000Y700000D02*
X-1105000Y-700000D01*
X-1095000Y-700000D02*
G75*
G02*
X-1105000Y-700000I-5000J0D01*
G01*
X-1095000Y-700000D02*
X-1095000Y700000D01*
X-1095000Y700000D02*
G75*
G03*
X-1105000Y700000I-5000J0D01*
G01*
X-1100000Y-705000D02*
X300000Y-705000D01*
X300000Y-695000D02*
G75*
G02*
X300000Y-705000I0J-5000D01*
G01*
X300000Y-695000D02*
X-1100000Y-695000D01*
X-1100000Y-695000D02*
G75*
G03*
X-1100000Y-705000I0J-5000D01*
G01*
X300000Y705000D02*
X-1100000Y705000D01*
X-1100000Y695000D02*
G75*
G02*
X-1100000Y705000I0J5000D01*
G01*
X-1100000Y695000D02*
X300000Y695000D01*
X300000Y695000D02*
G75*
G03*
X300000Y705000I0J5000D01*
G01*
X305000Y-700000D02*
X305000Y700000D01*
X295000Y700000D02*
G75*
G02*
X305000Y700000I5000J0D01*
G01*
X295000Y700000D02*
X295000Y-700000D01*
X295000Y-700000D02*
G75*
G03*
X305000Y-700000I5000J0D01*
G01*
%TO.C,GS2*%
X-6400000Y-250000D02*
X-6300000Y-250000D01*
X-6350000Y-200000D02*
X-6350000Y-300000D01*
X-6300000Y-250000D02*
G75*
G02*
X-6400000Y-250000I-50000J0D01*
G01*
X-6400000Y-250000D02*
G75*
G02*
X-6300000Y-250000I50000J0D01*
G01*
X-3105000Y700000D02*
X-3105000Y-700000D01*
X-3095000Y-700000D02*
G75*
G02*
X-3105000Y-700000I-5000J0D01*
G01*
X-3095000Y-700000D02*
X-3095000Y700000D01*
X-3095000Y700000D02*
G75*
G03*
X-3105000Y700000I-5000J0D01*
G01*
X-3100000Y-705000D02*
X-1700000Y-705000D01*
X-1700000Y-695000D02*
G75*
G02*
X-1700000Y-705000I0J-5000D01*
G01*
X-1700000Y-695000D02*
X-3100000Y-695000D01*
X-3100000Y-695000D02*
G75*
G03*
X-3100000Y-705000I0J-5000D01*
G01*
X-1700000Y705000D02*
X-3100000Y705000D01*
X-3100000Y695000D02*
G75*
G02*
X-3100000Y705000I0J5000D01*
G01*
X-3100000Y695000D02*
X-1700000Y695000D01*
X-1700000Y695000D02*
G75*
G03*
X-1700000Y705000I0J5000D01*
G01*
X-1695000Y-700000D02*
X-1695000Y700000D01*
X-1705000Y700000D02*
G75*
G02*
X-1695000Y700000I5000J0D01*
G01*
X-1705000Y700000D02*
X-1705000Y-700000D01*
X-1705000Y-700000D02*
G75*
G03*
X-1695000Y-700000I5000J0D01*
G01*
D12*
%TO.C,R5*%
X-6097000Y430000D02*
G75*
G02*
X-6103000Y430000I-3000J0D01*
G01*
X-6103000Y430000D02*
G75*
G02*
X-6097000Y430000I3000J0D01*
G01*
%TO.C,C1*%
X-5777000Y-500000D02*
G75*
G02*
X-5783000Y-500000I-3000J0D01*
G01*
X-5783000Y-500000D02*
G75*
G02*
X-5777000Y-500000I3000J0D01*
G01*
D10*
%TO.C,GS1*%
X-6400000Y0D02*
X-6300000Y0D01*
X-6350000Y50000D02*
X-6350000Y-50000D01*
X-6300000Y0D02*
G75*
G02*
X-6400000Y0I-50000J0D01*
G01*
X-6400000Y0D02*
G75*
G02*
X-6300000Y0I50000J0D01*
G01*
D12*
%TO.C,C2*%
X-6097000Y300000D02*
G75*
G02*
X-6103000Y300000I-3000J0D01*
G01*
X-6103000Y300000D02*
G75*
G02*
X-6097000Y300000I3000J0D01*
G01*
%TO.C,R1*%
X-6107000Y-350000D02*
G75*
G02*
X-6113000Y-350000I-3000J0D01*
G01*
X-6113000Y-350000D02*
G75*
G02*
X-6107000Y-350000I3000J0D01*
G01*
%TO.C,D2*%
X-6362000Y762000D02*
G75*
G02*
X-6368000Y762000I-3000J0D01*
G01*
X-6368000Y762000D02*
G75*
G02*
X-6362000Y762000I3000J0D01*
G01*
%TD*%
D10*
X2642500Y957500D02*
X4557500Y-957500D01*
X2642500Y-957500D02*
X4557500Y957500D01*
X-5357500Y957500D02*
X-3442500Y-957500D01*
X-5357500Y-957500D02*
X-3442500Y957500D01*
X4642500Y957500D02*
X6557500Y-957500D01*
X4642500Y-957500D02*
X6557500Y957500D01*
X642500Y957500D02*
X2557500Y-957500D01*
X642500Y-957500D02*
X2557500Y957500D01*
X-1357500Y957500D02*
X557500Y-957500D01*
X-1357500Y-957500D02*
X557500Y957500D01*
X-3357500Y957500D02*
X-1442500Y-957500D01*
X-3357500Y-957500D02*
X-1442500Y957500D01*
M02*
