%TF.GenerationSoftware,KiCad,Pcbnew,9.0.0*%
%TF.CreationDate,2025-03-31T12:11:15+01:00*%
%TF.ProjectId,vm_keycap_button_row_0.2,766d5f6b-6579-4636-9170-5f627574746f,v0.2*%
%TF.SameCoordinates,PX876bf80PY47868c0*%
%TF.FileFunction,Legend,Top*%
%TF.FilePolarity,Positive*%
%FSLAX45Y45*%
G04 Gerber Fmt 4.5, Leading zero omitted, Abs format (unit mm)*
G04 Created by KiCad (PCBNEW 9.0.0) date 2025-03-31 12:11:15*
%MOMM*%
%LPD*%
G01*
G04 APERTURE LIST*
%ADD10C,0.200000*%
G04 APERTURE END LIST*
D10*
X-6263985Y-656722D02*
X-6254461Y-656722D01*
X-6254461Y-656722D02*
X-6244937Y-661484D01*
X-6244937Y-661484D02*
X-6240176Y-666246D01*
X-6240176Y-666246D02*
X-6235414Y-675770D01*
X-6235414Y-675770D02*
X-6230652Y-694817D01*
X-6230652Y-694817D02*
X-6230652Y-718627D01*
X-6230652Y-718627D02*
X-6235414Y-737674D01*
X-6235414Y-737674D02*
X-6240176Y-747198D01*
X-6240176Y-747198D02*
X-6244937Y-751960D01*
X-6244937Y-751960D02*
X-6254461Y-756722D01*
X-6254461Y-756722D02*
X-6263985Y-756722D01*
X-6263985Y-756722D02*
X-6273509Y-751960D01*
X-6273509Y-751960D02*
X-6278271Y-747198D01*
X-6278271Y-747198D02*
X-6283033Y-737674D01*
X-6283033Y-737674D02*
X-6287795Y-718627D01*
X-6287795Y-718627D02*
X-6287795Y-694817D01*
X-6287795Y-694817D02*
X-6283033Y-675770D01*
X-6283033Y-675770D02*
X-6278271Y-666246D01*
X-6278271Y-666246D02*
X-6273509Y-661484D01*
X-6273509Y-661484D02*
X-6263985Y-656722D01*
X-6187795Y-747198D02*
X-6183033Y-751960D01*
X-6183033Y-751960D02*
X-6187795Y-756722D01*
X-6187795Y-756722D02*
X-6192556Y-751960D01*
X-6192556Y-751960D02*
X-6187795Y-747198D01*
X-6187795Y-747198D02*
X-6187795Y-756722D01*
X-6144937Y-666246D02*
X-6140176Y-661484D01*
X-6140176Y-661484D02*
X-6130652Y-656722D01*
X-6130652Y-656722D02*
X-6106842Y-656722D01*
X-6106842Y-656722D02*
X-6097318Y-661484D01*
X-6097318Y-661484D02*
X-6092557Y-666246D01*
X-6092557Y-666246D02*
X-6087795Y-675770D01*
X-6087795Y-675770D02*
X-6087795Y-685293D01*
X-6087795Y-685293D02*
X-6092557Y-699579D01*
X-6092557Y-699579D02*
X-6149699Y-756722D01*
X-6149699Y-756722D02*
X-6087795Y-756722D01*
M02*
