%TF.GenerationSoftware,KiCad,Pcbnew,9.0.0*%
%TF.CreationDate,2025-03-31T12:11:15+01:00*%
%TF.ProjectId,vm_keycap_button_row_0.2,766d5f6b-6579-4636-9170-5f627574746f,v0.2*%
%TF.SameCoordinates,PX876bf80PY47868c0*%
%TF.FileFunction,Soldermask,Top*%
%TF.FilePolarity,Negative*%
%FSLAX45Y45*%
G04 Gerber Fmt 4.5, Leading zero omitted, Abs format (unit mm)*
G04 Created by KiCad (PCBNEW 9.0.0) date 2025-03-31 12:11:15*
%MOMM*%
%LPD*%
G01*
G04 APERTURE LIST*
G04 Aperture macros list*
%AMRoundRect*
0 Rectangle with rounded corners*
0 $1 Rounding radius*
0 $2 $3 $4 $5 $6 $7 $8 $9 X,Y pos of 4 corners*
0 Add a 4 corners polygon primitive as box body*
4,1,4,$2,$3,$4,$5,$6,$7,$8,$9,$2,$3,0*
0 Add four circle primitives for the rounded corners*
1,1,$1+$1,$2,$3*
1,1,$1+$1,$4,$5*
1,1,$1+$1,$6,$7*
1,1,$1+$1,$8,$9*
0 Add four rect primitives between the rounded corners*
20,1,$1+$1,$2,$3,$4,$5,0*
20,1,$1+$1,$4,$5,$6,$7,0*
20,1,$1+$1,$6,$7,$8,$9,0*
20,1,$1+$1,$8,$9,$2,$3,0*%
G04 Aperture macros list end*
%ADD10C,1.750000*%
%ADD11C,4.000000*%
%ADD12C,2.500000*%
%ADD13RoundRect,0.172720X-0.259080X-0.259080X0.259080X-0.259080X0.259080X0.259080X-0.259080X0.259080X0*%
%ADD14C,0.863600*%
%ADD15R,0.860000X0.810000*%
%ADD16R,0.700000X1.000000*%
%ADD17R,0.800000X0.800000*%
%ADD18R,0.800000X0.900000*%
%ADD19O,0.360000X1.740000*%
%ADD20R,1.230000X1.360000*%
%ADD21R,0.810000X0.860000*%
%ADD22R,0.750000X1.000000*%
G04 APERTURE END LIST*
D10*
%TO.C,SW6*%
X3092000Y0D03*
D11*
X3600000Y0D03*
D10*
X4108000Y0D03*
D12*
X3219000Y254000D03*
X3854000Y508000D03*
%TD*%
D13*
%TO.C,J1*%
X-5412500Y700000D03*
D14*
X-5412500Y542520D03*
X-5539500Y700000D03*
X-5539500Y542520D03*
X-5666500Y700000D03*
%TD*%
D15*
%TO.C,R7*%
X-5970000Y525000D03*
X-5970000Y675000D03*
%TD*%
D10*
%TO.C,SW2*%
X-4908000Y0D03*
D11*
X-4400000Y0D03*
D10*
X-3892000Y0D03*
D12*
X-4781000Y254000D03*
X-4146000Y508000D03*
%TD*%
D10*
%TO.C,SW7*%
X5092000Y0D03*
D11*
X5600000Y0D03*
D10*
X6108000Y0D03*
D12*
X5219000Y254000D03*
X5854000Y508000D03*
%TD*%
D16*
%TO.C,U2*%
X-6115000Y120000D03*
X-6210000Y120000D03*
X-6305000Y120000D03*
X-6305000Y-120000D03*
X-6115000Y-120000D03*
%TD*%
D17*
%TO.C,D1*%
X-6105000Y-520000D03*
X-6275000Y-520000D03*
%TD*%
D15*
%TO.C,R6*%
X-6130000Y525000D03*
X-6130000Y675000D03*
%TD*%
D18*
%TO.C,C3*%
X-6120000Y-260000D03*
X-6260000Y-260000D03*
%TD*%
D19*
%TO.C,U1*%
X-5991000Y-287000D03*
X-5926000Y-287000D03*
X-5861000Y-287000D03*
X-5796000Y-287000D03*
X-5730000Y-287000D03*
X-5665000Y-287000D03*
X-5600000Y-287000D03*
X-5535000Y-287000D03*
X-5470000Y-287000D03*
X-5405000Y-287000D03*
X-5405000Y287000D03*
X-5470000Y287000D03*
X-5535000Y287000D03*
X-5600000Y287000D03*
X-5665000Y287000D03*
X-5730000Y287000D03*
X-5796000Y287000D03*
X-5861000Y287000D03*
X-5926000Y287000D03*
X-5991000Y287000D03*
%TD*%
D10*
%TO.C,SW5*%
X1092000Y0D03*
D11*
X1600000Y0D03*
D10*
X2108000Y0D03*
D12*
X1219000Y254000D03*
X1854000Y508000D03*
%TD*%
D20*
%TO.C,SW1*%
X-5480000Y-680000D03*
X-5916000Y-680000D03*
%TD*%
D10*
%TO.C,SW4*%
X-908000Y0D03*
D11*
X-400000Y0D03*
D10*
X108000Y0D03*
D12*
X-781000Y254000D03*
X-146000Y508000D03*
%TD*%
D10*
%TO.C,SW3*%
X-2908000Y0D03*
D11*
X-2400000Y0D03*
D10*
X-1892000Y0D03*
D12*
X-2781000Y254000D03*
X-2146000Y508000D03*
%TD*%
D21*
%TO.C,R5*%
X-6105000Y390000D03*
X-6255000Y390000D03*
%TD*%
D18*
%TO.C,C1*%
X-5770000Y-460000D03*
X-5630000Y-460000D03*
%TD*%
%TO.C,C2*%
X-6110000Y260000D03*
X-6250000Y260000D03*
%TD*%
D21*
%TO.C,R1*%
X-6115000Y-390000D03*
X-6265000Y-390000D03*
%TD*%
D22*
%TO.C,D2*%
X-6300000Y757000D03*
X-6300000Y523000D03*
%TD*%
M02*
