%TF.GenerationSoftware,KiCad,Pcbnew,9.0.0*%
%TF.CreationDate,2025-03-31T12:11:15+01:00*%
%TF.ProjectId,vm_keycap_button_row_0.2,766d5f6b-6579-4636-9170-5f627574746f,v0.2*%
%TF.SameCoordinates,PX876bf80PY47868c0*%
%TF.FileFunction,Copper,L1,Top*%
%TF.FilePolarity,Positive*%
%FSLAX45Y45*%
G04 Gerber Fmt 4.5, Leading zero omitted, Abs format (unit mm)*
G04 Created by KiCad (PCBNEW 9.0.0) date 2025-03-31 12:11:15*
%MOMM*%
%LPD*%
G01*
G04 APERTURE LIST*
G04 Aperture macros list*
%AMRoundRect*
0 Rectangle with rounded corners*
0 $1 Rounding radius*
0 $2 $3 $4 $5 $6 $7 $8 $9 X,Y pos of 4 corners*
0 Add a 4 corners polygon primitive as box body*
4,1,4,$2,$3,$4,$5,$6,$7,$8,$9,$2,$3,0*
0 Add four circle primitives for the rounded corners*
1,1,$1+$1,$2,$3*
1,1,$1+$1,$4,$5*
1,1,$1+$1,$6,$7*
1,1,$1+$1,$8,$9*
0 Add four rect primitives between the rounded corners*
20,1,$1+$1,$2,$3,$4,$5,0*
20,1,$1+$1,$4,$5,$6,$7,0*
20,1,$1+$1,$6,$7,$8,$9,0*
20,1,$1+$1,$8,$9,$2,$3,0*%
G04 Aperture macros list end*
%TA.AperFunction,SMDPad,CuDef*%
%ADD10C,0.125000*%
%TD*%
%TA.AperFunction,ComponentPad*%
%ADD11C,2.500000*%
%TD*%
%TA.AperFunction,ComponentPad*%
%ADD12RoundRect,0.172720X-0.259080X-0.259080X0.259080X-0.259080X0.259080X0.259080X-0.259080X0.259080X0*%
%TD*%
%TA.AperFunction,ComponentPad*%
%ADD13C,0.863600*%
%TD*%
%TA.AperFunction,SMDPad,CuDef*%
%ADD14R,0.860000X0.810000*%
%TD*%
%TA.AperFunction,SMDPad,CuDef*%
%ADD15R,0.700000X1.000000*%
%TD*%
%TA.AperFunction,SMDPad,CuDef*%
%ADD16R,0.800000X0.800000*%
%TD*%
%TA.AperFunction,SMDPad,CuDef*%
%ADD17R,0.800000X0.900000*%
%TD*%
%TA.AperFunction,SMDPad,CuDef*%
%ADD18O,0.360000X1.740000*%
%TD*%
%TA.AperFunction,SMDPad,CuDef*%
%ADD19R,1.230000X1.360000*%
%TD*%
%TA.AperFunction,SMDPad,CuDef*%
%ADD20R,0.810000X0.860000*%
%TD*%
%TA.AperFunction,SMDPad,CuDef*%
%ADD21R,0.750000X1.000000*%
%TD*%
%TA.AperFunction,ViaPad*%
%ADD22C,0.450000*%
%TD*%
%TA.AperFunction,Conductor*%
%ADD23C,0.200000*%
%TD*%
G04 APERTURE END LIST*
D10*
%TO.P,GS5,1,SWDIO~^*%
%TO.N,Net-(GS5-SWDIO~^)*%
X-5500000Y825000D03*
%TD*%
%TO.P,GS3,1,JD_DATA*%
%TO.N,Net-(GS3-JD_DATA)*%
X-6350000Y250000D03*
%TD*%
D11*
%TO.P,SW6,1,1*%
%TO.N,/BUTTON_5*%
X3219000Y254000D03*
%TO.P,SW6,2,2*%
%TO.N,GND*%
X3854000Y508000D03*
%TD*%
D12*
%TO.P,J1,1,Vcc*%
%TO.N,+3V3*%
X-5412500Y700000D03*
D13*
%TO.P,J1,2,SWDIO*%
%TO.N,/SWDIO*%
X-5412500Y542520D03*
%TO.P,J1,3,GND*%
%TO.N,GND*%
X-5539500Y700000D03*
%TO.P,J1,4,SWDCLK*%
%TO.N,/SWCLK*%
X-5539500Y542520D03*
%TO.P,J1,5,~{RESET}*%
%TO.N,/nRESET*%
X-5666500Y700000D03*
%TD*%
D14*
%TO.P,R7,1*%
%TO.N,/SWDIO*%
X-5970000Y525000D03*
%TO.P,R7,2*%
%TO.N,Net-(GS5-SWDIO~^)*%
X-5970000Y675000D03*
%TD*%
D11*
%TO.P,SW2,1,1*%
%TO.N,/BUTTON_1*%
X-4781000Y254000D03*
%TO.P,SW2,2,2*%
%TO.N,GND*%
X-4146000Y508000D03*
%TD*%
D10*
%TO.P,GS4,1,SWCLK*%
%TO.N,Net-(GS4-SWCLK)*%
X-5700000Y825000D03*
%TD*%
D11*
%TO.P,SW7,1,1*%
%TO.N,/BUTTON_6*%
X5219000Y254000D03*
%TO.P,SW7,2,2*%
%TO.N,GND*%
X5854000Y508000D03*
%TD*%
D15*
%TO.P,U2,1,IN*%
%TO.N,JD_PWR*%
X-6115000Y120000D03*
%TO.P,U2,2,GND*%
%TO.N,GND*%
X-6210000Y120000D03*
%TO.P,U2,3,EN*%
%TO.N,JD_PWR*%
X-6305000Y120000D03*
%TO.P,U2,4,N/C*%
%TO.N,GND*%
X-6305000Y-120000D03*
%TO.P,U2,5,OUT*%
%TO.N,+3V3*%
X-6115000Y-120000D03*
%TD*%
D10*
%TO.P,GS6,1,RESET*%
%TO.N,Net-(D2-K)*%
X-5900000Y825000D03*
%TD*%
D16*
%TO.P,D1,1*%
%TO.N,Net-(D1-Pad1)*%
X-6105000Y-520000D03*
%TO.P,D1,2*%
%TO.N,GND*%
X-6275000Y-520000D03*
%TD*%
D14*
%TO.P,R6,1*%
%TO.N,/SWCLK*%
X-6130000Y525000D03*
%TO.P,R6,2*%
%TO.N,Net-(GS4-SWCLK)*%
X-6130000Y675000D03*
%TD*%
D17*
%TO.P,C3,1*%
%TO.N,+3V3*%
X-6120000Y-260000D03*
%TO.P,C3,2*%
%TO.N,GND*%
X-6260000Y-260000D03*
%TD*%
D18*
%TO.P,U1,1,PB7/PB8*%
%TO.N,/JD_STATUS*%
X-5991000Y-287000D03*
%TO.P,U1,2,PB9/PC14-OSC32_IN*%
%TO.N,/nFLASH*%
X-5926000Y-287000D03*
%TO.P,U1,3,PC15-OSC32_OUT*%
%TO.N,unconnected-(U1-PC15-OSC32_OUT-Pad3)*%
X-5861000Y-287000D03*
%TO.P,U1,4,VDD/VDDA*%
%TO.N,+3V3*%
X-5796000Y-287000D03*
%TO.P,U1,5,VSS/VSSA*%
%TO.N,GND*%
X-5730000Y-287000D03*
%TO.P,U1,6,NRST*%
%TO.N,/nRESET*%
X-5665000Y-287000D03*
%TO.P,U1,7,PA0*%
%TO.N,unconnected-(U1-PA0-Pad7)*%
X-5600000Y-287000D03*
%TO.P,U1,8,PA1*%
%TO.N,unconnected-(U1-PA1-Pad8)*%
X-5535000Y-287000D03*
%TO.P,U1,9,PA2*%
%TO.N,unconnected-(U1-PA2-Pad9)*%
X-5470000Y-287000D03*
%TO.P,U1,10,PA3*%
%TO.N,unconnected-(U1-PA3-Pad10)*%
X-5405000Y-287000D03*
%TO.P,U1,11,PA4*%
%TO.N,/BUTTON_1*%
X-5405000Y287000D03*
%TO.P,U1,12,PA5*%
%TO.N,/BUTTON_2*%
X-5470000Y287000D03*
%TO.P,U1,13,PA6*%
%TO.N,/BUTTON_3*%
X-5535000Y287000D03*
%TO.P,U1,14,PA7*%
%TO.N,/BUTTON_4*%
X-5600000Y287000D03*
%TO.P,U1,15,PB0/PB1/PB2/PA8*%
%TO.N,/BUTTON_5*%
X-5665000Y287000D03*
%TO.P,U1,16,PA11[PA9]*%
%TO.N,/BUTTON_6*%
X-5730000Y287000D03*
%TO.P,U1,17,PA12[PA10]*%
%TO.N,unconnected-(U1-PA12[PA10]-Pad17)*%
X-5796000Y287000D03*
%TO.P,U1,18,PA13*%
%TO.N,/SWDIO*%
X-5861000Y287000D03*
%TO.P,U1,19,PA15/PA14-BOOT0*%
%TO.N,/SWCLK*%
X-5926000Y287000D03*
%TO.P,U1,20,PB3/PB4/PB5/PB6*%
%TO.N,/JD_DATA_MCU*%
X-5991000Y287000D03*
%TD*%
D11*
%TO.P,SW5,1,1*%
%TO.N,/BUTTON_4*%
X1219000Y254000D03*
%TO.P,SW5,2,2*%
%TO.N,GND*%
X1854000Y508000D03*
%TD*%
D19*
%TO.P,SW1,1,1*%
%TO.N,GND*%
X-5480000Y-680000D03*
%TO.P,SW1,2,2*%
%TO.N,/nFLASH*%
X-5916000Y-680000D03*
%TD*%
D11*
%TO.P,SW4,1,1*%
%TO.N,/BUTTON_3*%
X-781000Y254000D03*
%TO.P,SW4,2,2*%
%TO.N,GND*%
X-146000Y508000D03*
%TD*%
D10*
%TO.P,GS2,1,GND*%
%TO.N,GND*%
X-6350000Y-250000D03*
%TD*%
D11*
%TO.P,SW3,1,1*%
%TO.N,/BUTTON_2*%
X-2781000Y254000D03*
%TO.P,SW3,2,2*%
%TO.N,GND*%
X-2146000Y508000D03*
%TD*%
D20*
%TO.P,R5,1*%
%TO.N,/JD_DATA_MCU*%
X-6105000Y390000D03*
%TO.P,R5,2*%
%TO.N,Net-(GS3-JD_DATA)*%
X-6255000Y390000D03*
%TD*%
D17*
%TO.P,C1,1*%
%TO.N,+3V3*%
X-5770000Y-460000D03*
%TO.P,C1,2*%
%TO.N,GND*%
X-5630000Y-460000D03*
%TD*%
D10*
%TO.P,GS1,1,JD_PWR*%
%TO.N,JD_PWR*%
X-6350000Y0D03*
%TD*%
D17*
%TO.P,C2,1*%
%TO.N,JD_PWR*%
X-6110000Y260000D03*
%TO.P,C2,2*%
%TO.N,GND*%
X-6250000Y260000D03*
%TD*%
D20*
%TO.P,R1,1*%
%TO.N,/JD_STATUS*%
X-6115000Y-390000D03*
%TO.P,R1,2*%
%TO.N,Net-(D1-Pad1)*%
X-6265000Y-390000D03*
%TD*%
D21*
%TO.P,D2,1,K*%
%TO.N,Net-(D2-K)*%
X-6300000Y757000D03*
%TO.P,D2,2,A*%
%TO.N,/nRESET*%
X-6300000Y523000D03*
%TD*%
D22*
%TO.N,GND*%
X-6200000Y200000D03*
X-5550000Y-450000D03*
X-6200000Y-575000D03*
X-5575000Y-675000D03*
X-6200000Y-200000D03*
%TO.N,+3V3*%
X-5860000Y30000D03*
X-5787500Y615800D03*
X-5770000Y-600000D03*
%TO.N,/nRESET*%
X-5700000Y-150000D03*
X-6250000Y650000D03*
%TD*%
D23*
%TO.N,GND*%
X-6200000Y200000D02*
X-6200000Y210000D01*
X-5570000Y-680000D02*
X-5575000Y-675000D01*
X-6305000Y-120000D02*
X-6280000Y-120000D01*
X-6200000Y-200000D02*
X-6260000Y-260000D01*
X-6280000Y-120000D02*
X-6200000Y-200000D01*
X-6200000Y130000D02*
X-6210000Y120000D01*
X-6255000Y-520000D02*
X-6200000Y-575000D01*
X-5630000Y-460000D02*
X-5560000Y-460000D01*
X-5730000Y-360000D02*
X-5630000Y-460000D01*
X-6350000Y-250000D02*
X-6270000Y-250000D01*
X-6200000Y210000D02*
X-6250000Y260000D01*
X-5730000Y-287000D02*
X-5730000Y-360000D01*
X-6200000Y200000D02*
X-6200000Y130000D01*
X-6275000Y-520000D02*
X-6255000Y-520000D01*
X-6270000Y-250000D02*
X-6260000Y-260000D01*
X-5480000Y-680000D02*
X-5570000Y-680000D01*
X-5560000Y-460000D02*
X-5550000Y-450000D01*
%TO.N,+3V3*%
X-6115000Y-120000D02*
X-6115000Y-255000D01*
X-5496700Y615800D02*
X-5787500Y615800D01*
X-5412500Y700000D02*
X-5496700Y615800D01*
X-5796000Y-434000D02*
X-5770000Y-460000D01*
X-5796000Y-287000D02*
X-5796000Y-434000D01*
X-6115000Y-255000D02*
X-6120000Y-260000D01*
X-6095000Y-115000D02*
X-6095000Y-120000D01*
%TO.N,Net-(D1-Pad1)*%
X-6135000Y-520000D02*
X-6105000Y-520000D01*
X-6265000Y-390000D02*
X-6135000Y-520000D01*
%TO.N,/SWDIO*%
X-5488390Y466630D02*
X-5788370Y466630D01*
X-5412500Y542520D02*
X-5488390Y466630D01*
X-5970000Y525000D02*
X-5861000Y416000D01*
X-5788370Y466630D02*
X-5861000Y394000D01*
X-5861000Y394000D02*
X-5861000Y287000D01*
X-5861000Y416000D02*
X-5861000Y287000D01*
%TO.N,/SWCLK*%
X-6059400Y595600D02*
X-6130000Y525000D01*
X-5816766Y542520D02*
X-5539500Y542520D01*
X-5926000Y394000D02*
X-5926000Y287000D01*
X-5975400Y404100D02*
X-5936100Y404100D01*
X-6096300Y525000D02*
X-5975400Y404100D01*
X-6110000Y525000D02*
X-6096300Y525000D01*
X-5936100Y404100D02*
X-5926000Y394000D01*
X-5869846Y595600D02*
X-6059400Y595600D01*
X-5869846Y595600D02*
X-5816766Y542520D01*
%TO.N,/nRESET*%
X-5665000Y-287000D02*
X-5665000Y-185000D01*
X-5665000Y-185000D02*
X-5700000Y-150000D01*
X-6300000Y600000D02*
X-6250000Y650000D01*
X-6300000Y523000D02*
X-6300000Y600000D01*
%TO.N,/JD_STATUS*%
X-6115000Y-390000D02*
X-6094000Y-390000D01*
X-6094000Y-390000D02*
X-5991000Y-287000D01*
%TO.N,/nFLASH*%
X-5926000Y-287000D02*
X-5926000Y-670000D01*
X-5926000Y-670000D02*
X-5916000Y-680000D01*
%TO.N,unconnected-(U1-PC15-OSC32_OUT-Pad3)*%
X-5740500Y-75000D02*
X-5300000Y-75000D01*
X-5861000Y-287000D02*
X-5861000Y-195500D01*
X-5861000Y-195500D02*
X-5740500Y-75000D01*
%TO.N,unconnected-(U1-PA2-Pad9)*%
X-5385076Y-404100D02*
X-5356900Y-375924D01*
X-5356900Y-375924D02*
X-5356900Y-319973D01*
X-5311927Y-275000D02*
X-5300000Y-275000D01*
X-5470000Y-287000D02*
X-5470000Y-394000D01*
X-5470000Y-394000D02*
X-5459900Y-404100D01*
X-5459900Y-404100D02*
X-5385076Y-404100D01*
X-5356900Y-319973D02*
X-5311927Y-275000D01*
%TO.N,unconnected-(U1-PA1-Pad8)*%
X-5380100Y-169900D02*
X-5375000Y-175000D01*
X-5535000Y-180000D02*
X-5524900Y-169900D01*
X-5524900Y-169900D02*
X-5380100Y-169900D01*
X-5375000Y-175000D02*
X-5300000Y-175000D01*
X-5535000Y-287000D02*
X-5535000Y-180000D01*
%TO.N,unconnected-(U1-PA0-Pad7)*%
X-5600000Y-180000D02*
X-5545000Y-125000D01*
X-5600000Y-287000D02*
X-5600000Y-180000D01*
X-5545000Y-125000D02*
X-5300000Y-125000D01*
%TO.N,unconnected-(U1-PA3-Pad10)*%
X-5405000Y-287000D02*
X-5387000Y-287000D01*
X-5325000Y-225000D02*
X-5300000Y-225000D01*
X-5387000Y-287000D02*
X-5325000Y-225000D01*
%TO.N,unconnected-(U1-PA12[PA10]-Pad17)*%
X-5796000Y171000D02*
X-5600000Y-25000D01*
X-5600000Y-25000D02*
X-5300000Y-25000D01*
X-5796000Y287000D02*
X-5796000Y171000D01*
%TO.N,JD_PWR*%
X-6275100Y39900D02*
X-6250000Y39900D01*
X-6115000Y69800D02*
X-6115000Y120000D01*
X-6275100Y24900D02*
X-6300000Y0D01*
X-6144900Y39900D02*
X-6115000Y69800D01*
X-6115000Y120000D02*
X-6115000Y255000D01*
X-6275100Y39900D02*
X-6275100Y24900D01*
X-6305000Y120000D02*
X-6305000Y69800D01*
X-6305000Y69800D02*
X-6275100Y39900D01*
X-6250000Y39900D02*
X-6144900Y39900D01*
X-6115000Y255000D02*
X-6110000Y260000D01*
X-6350000Y0D02*
X-6300000Y0D01*
%TO.N,Net-(GS3-JD_DATA)*%
X-6350000Y295000D02*
X-6350000Y250000D01*
X-6255000Y390000D02*
X-6350000Y295000D01*
%TO.N,/JD_DATA_MCU*%
X-6000000Y370000D02*
X-6000000Y296000D01*
X-6009800Y379800D02*
X-6000000Y370000D01*
X-6094800Y379800D02*
X-6009800Y379800D01*
X-6000000Y296000D02*
X-5991000Y287000D01*
X-6105000Y390000D02*
X-6094800Y379800D01*
%TO.N,Net-(D2-K)*%
X-6004527Y825000D02*
X-5900000Y825000D01*
X-6072527Y757000D02*
X-6004527Y825000D01*
X-6300000Y757000D02*
X-6072527Y757000D01*
%TO.N,Net-(GS4-SWCLK)*%
X-6130000Y675000D02*
X-6097959Y675000D01*
X-6097959Y675000D02*
X-5988059Y784900D01*
X-5749451Y825000D02*
X-5700000Y825000D01*
X-5789551Y784900D02*
X-5749451Y825000D01*
X-5988059Y784900D02*
X-5789551Y784900D01*
%TO.N,Net-(GS5-SWDIO~^)*%
X-5970000Y675000D02*
X-5842882Y675000D01*
X-5842882Y675000D02*
X-5732982Y784900D01*
X-5540100Y784900D02*
X-5500000Y825000D01*
X-5732982Y784900D02*
X-5540100Y784900D01*
%TO.N,/BUTTON_1*%
X-5405000Y287000D02*
X-5387000Y287000D01*
X-4810000Y225000D02*
X-4781000Y254000D01*
X-5387000Y287000D02*
X-5325000Y225000D01*
X-5325000Y225000D02*
X-4810000Y225000D01*
X-4781000Y254000D02*
X-4814000Y287000D01*
%TO.N,/BUTTON_2*%
X-4266445Y409100D02*
X-4111345Y254000D01*
X-5318431Y275000D02*
X-5300000Y275000D01*
X-5470000Y394000D02*
X-5459900Y404100D01*
X-5459900Y404100D02*
X-5385076Y404100D01*
X-5300000Y275000D02*
X-5165900Y409100D01*
X-5165900Y409100D02*
X-4266445Y409100D01*
X-5356900Y375924D02*
X-5356900Y313469D01*
X-5470000Y287000D02*
X-5470000Y394000D01*
X-5356900Y313469D02*
X-5318431Y275000D01*
X-4111345Y254000D02*
X-2781000Y254000D01*
X-5385076Y404100D02*
X-5356900Y375924D01*
%TO.N,/BUTTON_3*%
X-4921345Y175000D02*
X-4863945Y117600D01*
X-5535000Y180000D02*
X-5524900Y169900D01*
X-4859289Y117600D02*
X-4511589Y-230100D01*
X-5380100Y169900D02*
X-5375000Y175000D01*
X-5535000Y287000D02*
X-5535000Y180000D01*
X-5524900Y169900D02*
X-5380100Y169900D01*
X-820311Y254000D02*
X-781000Y254000D01*
X-4863945Y117600D02*
X-4859289Y117600D01*
X-1304412Y-230100D02*
X-820311Y254000D01*
X-5375000Y175000D02*
X-4921345Y175000D01*
X-4511589Y-230100D02*
X-1304412Y-230100D01*
%TO.N,/BUTTON_6*%
X-5212590Y25000D02*
X-4837490Y-350100D01*
X-5730000Y287000D02*
X-5730000Y165000D01*
X-5730000Y165000D02*
X-5590000Y25000D01*
X-5590000Y25000D02*
X-5212590Y25000D01*
X-4837490Y-350100D02*
X4575589Y-350100D01*
X5179689Y254000D02*
X5219000Y254000D01*
X4575589Y-350100D02*
X5179689Y254000D01*
%TO.N,/BUTTON_5*%
X-5665000Y287000D02*
X-5665000Y156710D01*
X-5205880Y75000D02*
X-4820780Y-310100D01*
X2615589Y-310100D02*
X3179688Y254000D01*
X-4820780Y-310100D02*
X2615589Y-310100D01*
X3179688Y254000D02*
X3219000Y254000D01*
X-5583290Y75000D02*
X-5205880Y75000D01*
X-5665000Y156710D02*
X-5583290Y75000D01*
%TO.N,/BUTTON_4*%
X-5576580Y125000D02*
X-5199312Y125000D01*
X-5600000Y148420D02*
X-5576580Y125000D01*
X-5199312Y125000D02*
X-4804212Y-270100D01*
X-4804212Y-270100D02*
X518123Y-270100D01*
X-5600000Y287000D02*
X-5600000Y148420D01*
X1042223Y254000D02*
X1219000Y254000D01*
X518123Y-270100D02*
X1042223Y254000D01*
%TD*%
%TA.AperFunction,Conductor*%
%TO.N,+3V3*%
G36*
X6347833Y822833D02*
G01*
X6350000Y817600D01*
X6350000Y-817600D01*
X6347833Y-822833D01*
X6342600Y-825000D01*
X-6342550Y-825000D01*
X-6347783Y-822833D01*
X-6349950Y-817600D01*
X-6349950Y-306914D01*
X-6347783Y-301682D01*
X-6343921Y-299778D01*
X-6343942Y-299698D01*
X-6343540Y-299590D01*
X-6343515Y-299578D01*
X-6343474Y-299572D01*
X-6343474Y-299572D01*
X-6330866Y-296194D01*
X-6330865Y-296194D01*
X-6330418Y-296008D01*
X-6330318Y-296249D01*
X-6325536Y-295618D01*
X-6321042Y-299065D01*
X-6320050Y-302767D01*
X-6320050Y-306975D01*
X-6318887Y-312823D01*
X-6314217Y-319811D01*
X-6313112Y-325366D01*
X-6316259Y-330075D01*
X-6319955Y-332545D01*
X-6319955Y-332545D01*
X-6324387Y-339177D01*
X-6324387Y-339177D01*
X-6325550Y-345025D01*
X-6325550Y-434975D01*
X-6325059Y-437444D01*
X-6324387Y-440823D01*
X-6323302Y-442447D01*
X-6319955Y-447455D01*
X-6319716Y-447615D01*
X-6319556Y-447854D01*
X-6319440Y-447970D01*
X-6319463Y-447993D01*
X-6316569Y-452324D01*
X-6317674Y-457879D01*
X-6322383Y-461026D01*
X-6322500Y-461049D01*
X-6322823Y-461113D01*
X-6329455Y-465545D01*
X-6329455Y-465545D01*
X-6333887Y-472177D01*
X-6335050Y-478025D01*
X-6335050Y-561975D01*
X-6333887Y-567823D01*
X-6330939Y-572234D01*
X-6329455Y-574455D01*
X-6325044Y-577403D01*
X-6322823Y-578887D01*
X-6322823Y-578887D01*
X-6322823Y-578887D01*
X-6316975Y-580050D01*
X-6248376Y-580050D01*
X-6243143Y-582217D01*
X-6241228Y-585535D01*
X-6239650Y-591423D01*
X-6239650Y-591424D01*
X-6238675Y-593113D01*
X-6234048Y-601126D01*
X-6226126Y-609049D01*
X-6216424Y-614650D01*
X-6205602Y-617550D01*
X-6205602Y-617550D01*
X-6205602Y-617550D01*
X-6194398Y-617550D01*
X-6194398Y-617550D01*
X-6183576Y-614650D01*
X-6173874Y-609049D01*
X-6165951Y-601126D01*
X-6160350Y-591424D01*
X-6158573Y-584794D01*
X-6155126Y-580301D01*
X-6149982Y-579452D01*
X-6146975Y-580050D01*
X-6146975Y-580050D01*
X-6063025Y-580050D01*
X-6063025Y-580050D01*
X-6057177Y-578887D01*
X-6050545Y-574455D01*
X-6046113Y-567823D01*
X-6044950Y-561975D01*
X-6044950Y-478025D01*
X-6046113Y-472177D01*
X-6050545Y-465545D01*
X-6052766Y-464061D01*
X-6057177Y-461113D01*
X-6057177Y-461113D01*
X-6057462Y-461056D01*
X-6057617Y-461026D01*
X-6062326Y-457879D01*
X-6063431Y-452324D01*
X-6060537Y-447993D01*
X-6060560Y-447970D01*
X-6060444Y-447854D01*
X-6060284Y-447615D01*
X-6060045Y-447455D01*
X-6055613Y-440823D01*
X-6054450Y-434975D01*
X-6054450Y-396012D01*
X-6052283Y-390780D01*
X-6035374Y-373871D01*
X-6030142Y-371704D01*
X-6024909Y-373871D01*
X-6023733Y-375404D01*
X-6022176Y-378102D01*
X-6021448Y-379363D01*
X-6014363Y-386448D01*
X-6005687Y-391457D01*
X-5996010Y-394050D01*
X-5996010Y-394050D01*
X-5996009Y-394050D01*
X-5985990Y-394050D01*
X-5985990Y-394050D01*
X-5976313Y-391457D01*
X-5969499Y-387522D01*
X-5967217Y-386205D01*
X-5967072Y-386456D01*
X-5962487Y-385225D01*
X-5957581Y-388055D01*
X-5956050Y-392562D01*
X-5956050Y-584550D01*
X-5958217Y-589783D01*
X-5963450Y-591950D01*
X-5979475Y-591950D01*
X-5982399Y-592532D01*
X-5985323Y-593113D01*
X-5991955Y-597545D01*
X-5991955Y-597545D01*
X-5996387Y-604177D01*
X-5997550Y-610025D01*
X-5997550Y-749975D01*
X-5996387Y-755823D01*
X-5993439Y-760234D01*
X-5991955Y-762455D01*
X-5987544Y-765403D01*
X-5985323Y-766887D01*
X-5985323Y-766887D01*
X-5985323Y-766887D01*
X-5979475Y-768050D01*
X-5979475Y-768050D01*
X-5852525Y-768050D01*
X-5852525Y-768050D01*
X-5846677Y-766887D01*
X-5840045Y-762455D01*
X-5835613Y-755823D01*
X-5834450Y-749975D01*
X-5834450Y-669398D01*
X-5617550Y-669398D01*
X-5617550Y-680602D01*
X-5614650Y-691423D01*
X-5614650Y-691424D01*
X-5614650Y-691424D01*
X-5609048Y-701126D01*
X-5601126Y-709048D01*
X-5591424Y-714650D01*
X-5580602Y-717550D01*
X-5580602Y-717550D01*
X-5568950Y-717550D01*
X-5563717Y-719717D01*
X-5561550Y-724950D01*
X-5561550Y-749975D01*
X-5560387Y-755823D01*
X-5557439Y-760234D01*
X-5555955Y-762455D01*
X-5551544Y-765403D01*
X-5549323Y-766887D01*
X-5549323Y-766887D01*
X-5549323Y-766887D01*
X-5543475Y-768050D01*
X-5543475Y-768050D01*
X-5416525Y-768050D01*
X-5416525Y-768050D01*
X-5410677Y-766887D01*
X-5404045Y-762455D01*
X-5399613Y-755823D01*
X-5398450Y-749975D01*
X-5398450Y-610025D01*
X-5399613Y-604177D01*
X-5404045Y-597545D01*
X-5406266Y-596061D01*
X-5410677Y-593113D01*
X-5410677Y-593113D01*
X-5413601Y-592532D01*
X-5416525Y-591950D01*
X-5543475Y-591950D01*
X-5546399Y-592532D01*
X-5549323Y-593113D01*
X-5555955Y-597545D01*
X-5555955Y-597545D01*
X-5560387Y-604177D01*
X-5561550Y-610025D01*
X-5561550Y-625050D01*
X-5563717Y-630283D01*
X-5568950Y-632450D01*
X-5580602Y-632450D01*
X-5591423Y-635350D01*
X-5591424Y-635350D01*
X-5601126Y-640952D01*
X-5609048Y-648874D01*
X-5614650Y-658576D01*
X-5614650Y-658577D01*
X-5617550Y-669398D01*
X-5834450Y-669398D01*
X-5834450Y-610025D01*
X-5835613Y-604177D01*
X-5840045Y-597545D01*
X-5842266Y-596061D01*
X-5846677Y-593113D01*
X-5846677Y-593113D01*
X-5849601Y-592532D01*
X-5852525Y-591950D01*
X-5852525Y-591950D01*
X-5888550Y-591950D01*
X-5893783Y-589783D01*
X-5895950Y-584550D01*
X-5895950Y-509783D01*
X-5860000Y-509783D01*
X-5859360Y-515737D01*
X-5859360Y-515738D01*
X-5854335Y-529209D01*
X-5854335Y-529209D01*
X-5845719Y-540719D01*
X-5834209Y-549335D01*
X-5834209Y-549335D01*
X-5820738Y-554360D01*
X-5820738Y-554360D01*
X-5814783Y-555000D01*
X-5795000Y-555000D01*
X-5795000Y-485000D01*
X-5860000Y-485000D01*
X-5860000Y-509783D01*
X-5895950Y-509783D01*
X-5895950Y-392562D01*
X-5893783Y-387330D01*
X-5888550Y-385162D01*
X-5884898Y-386403D01*
X-5884783Y-386205D01*
X-5882501Y-387522D01*
X-5875687Y-391457D01*
X-5866009Y-394050D01*
X-5866009Y-394050D01*
X-5865529Y-394113D01*
X-5865556Y-394320D01*
X-5860976Y-396217D01*
X-5858809Y-401450D01*
X-5859275Y-404036D01*
X-5859360Y-404262D01*
X-5860000Y-410217D01*
X-5860000Y-435000D01*
X-5777400Y-435000D01*
X-5772167Y-437167D01*
X-5770000Y-442400D01*
X-5770000Y-460000D01*
X-5752400Y-460000D01*
X-5747167Y-462167D01*
X-5745000Y-467400D01*
X-5745000Y-555000D01*
X-5725217Y-555000D01*
X-5719262Y-554360D01*
X-5719262Y-554360D01*
X-5705791Y-549335D01*
X-5705791Y-549335D01*
X-5694281Y-540719D01*
X-5685665Y-529209D01*
X-5685476Y-528703D01*
X-5681617Y-524558D01*
X-5677099Y-524031D01*
X-5671975Y-525050D01*
X-5671975Y-525050D01*
X-5588025Y-525050D01*
X-5588025Y-525050D01*
X-5582177Y-523887D01*
X-5575545Y-519455D01*
X-5571113Y-512823D01*
X-5569950Y-506975D01*
X-5569950Y-498349D01*
X-5567783Y-493117D01*
X-5562550Y-490949D01*
X-5560635Y-491201D01*
X-5557001Y-492175D01*
X-5555602Y-492550D01*
X-5555602Y-492550D01*
X-5555602Y-492550D01*
X-5544398Y-492550D01*
X-5544398Y-492550D01*
X-5533576Y-489650D01*
X-5523874Y-484048D01*
X-5515952Y-476126D01*
X-5510350Y-466424D01*
X-5507450Y-455602D01*
X-5507450Y-455602D01*
X-5507450Y-444398D01*
X-5507450Y-444398D01*
X-5508408Y-440823D01*
X-5510350Y-433576D01*
X-5515952Y-423874D01*
X-5523874Y-415951D01*
X-5529936Y-412451D01*
X-5533576Y-410350D01*
X-5533577Y-410349D01*
X-5539796Y-408683D01*
X-5539797Y-408683D01*
X-5544398Y-407450D01*
X-5555602Y-407450D01*
X-5563481Y-409561D01*
X-5564752Y-409394D01*
X-5565970Y-409791D01*
X-5567199Y-409072D01*
X-5569097Y-408822D01*
X-5571019Y-407224D01*
X-5571305Y-406891D01*
X-5575545Y-400545D01*
X-5578323Y-398688D01*
X-5578986Y-397913D01*
X-5579572Y-396117D01*
X-5580621Y-394546D01*
X-5580418Y-393521D01*
X-5580741Y-392529D01*
X-5579885Y-390844D01*
X-5579516Y-388991D01*
X-5578422Y-387966D01*
X-5578175Y-387480D01*
X-5577757Y-387344D01*
X-5577063Y-386694D01*
X-5576637Y-386448D01*
X-5572733Y-382543D01*
X-5567500Y-380376D01*
X-5562267Y-382543D01*
X-5558363Y-386448D01*
X-5549687Y-391457D01*
X-5545166Y-392668D01*
X-5540009Y-394050D01*
X-5537557Y-394050D01*
X-5529990Y-394050D01*
X-5529990Y-394050D01*
X-5520313Y-391457D01*
X-5513499Y-387522D01*
X-5511217Y-386205D01*
X-5511072Y-386456D01*
X-5506487Y-385225D01*
X-5501581Y-388055D01*
X-5500050Y-392562D01*
X-5500050Y-397956D01*
X-5498002Y-405599D01*
X-5496356Y-408451D01*
X-5496355Y-408451D01*
X-5494046Y-412451D01*
X-5478351Y-428146D01*
X-5471499Y-432102D01*
X-5463856Y-434150D01*
X-5463856Y-434150D01*
X-5381120Y-434150D01*
X-5381120Y-434150D01*
X-5373477Y-432102D01*
X-5366625Y-428146D01*
X-5361030Y-422551D01*
X-5332854Y-394375D01*
X-5330354Y-390044D01*
X-5328898Y-387523D01*
X-5326850Y-379880D01*
X-5326850Y-379880D01*
X-5326850Y-335485D01*
X-5324683Y-330252D01*
X-5301648Y-307217D01*
X-5296415Y-305050D01*
X-5296044Y-305050D01*
X-5296044Y-305050D01*
X-5288401Y-303002D01*
X-5281549Y-299046D01*
X-5275954Y-293451D01*
X-5271998Y-286599D01*
X-5269950Y-278956D01*
X-5269950Y-278956D01*
X-5269950Y-271044D01*
X-5269950Y-271044D01*
X-5271998Y-263401D01*
X-5271998Y-263401D01*
X-5275954Y-256549D01*
X-5277270Y-255233D01*
X-5279438Y-250000D01*
X-5277270Y-244767D01*
X-5275954Y-243451D01*
X-5271998Y-236599D01*
X-5269950Y-228956D01*
X-5269950Y-228956D01*
X-5269950Y-221044D01*
X-5269950Y-221043D01*
X-5271998Y-213401D01*
X-5271998Y-213401D01*
X-5274643Y-208819D01*
X-5275954Y-206549D01*
X-5277270Y-205233D01*
X-5279438Y-200000D01*
X-5277270Y-194767D01*
X-5276742Y-194239D01*
X-5275954Y-193451D01*
X-5271998Y-186599D01*
X-5269950Y-178956D01*
X-5269950Y-178956D01*
X-5269950Y-171044D01*
X-5269950Y-171044D01*
X-5271998Y-163401D01*
X-5271998Y-163401D01*
X-5275954Y-156549D01*
X-5277270Y-155233D01*
X-5279438Y-150000D01*
X-5277270Y-144767D01*
X-5276901Y-144398D01*
X-5275954Y-143451D01*
X-5271998Y-136599D01*
X-5269950Y-128956D01*
X-5269950Y-128956D01*
X-5269950Y-121044D01*
X-5269950Y-121043D01*
X-5271998Y-113401D01*
X-5271998Y-113401D01*
X-5274125Y-109717D01*
X-5275954Y-106549D01*
X-5277270Y-105233D01*
X-5279438Y-100000D01*
X-5277270Y-94767D01*
X-5275954Y-93451D01*
X-5271998Y-86599D01*
X-5269950Y-78956D01*
X-5269950Y-78956D01*
X-5269950Y-71044D01*
X-5269950Y-71044D01*
X-5270213Y-70064D01*
X-5271998Y-63401D01*
X-5275954Y-56549D01*
X-5277270Y-55233D01*
X-5279438Y-50000D01*
X-5277270Y-44767D01*
X-5275954Y-43451D01*
X-5271998Y-36599D01*
X-5269950Y-28956D01*
X-5269950Y-28956D01*
X-5269950Y-21044D01*
X-5269950Y-21044D01*
X-5270058Y-20640D01*
X-5271724Y-14423D01*
X-5271740Y-14365D01*
X-5271000Y-8750D01*
X-5266507Y-5302D01*
X-5264592Y-5050D01*
X-5228102Y-5050D01*
X-5222870Y-7217D01*
X-4861536Y-368551D01*
X-4855941Y-374146D01*
X-4849089Y-378102D01*
X-4849089Y-378102D01*
X-4849089Y-378102D01*
X-4845268Y-379126D01*
X-4841447Y-380150D01*
X-4841447Y-380150D01*
X-4841447Y-380150D01*
X4579545Y-380150D01*
X4579545Y-380150D01*
X4587188Y-378102D01*
X4594040Y-374146D01*
X4599635Y-368551D01*
X4971817Y3632D01*
X4977050Y5799D01*
X4982283Y3632D01*
X4984450Y-1601D01*
X4984450Y-8464D01*
X4987098Y-25184D01*
X4987098Y-25186D01*
X4992329Y-41284D01*
X5000015Y-56368D01*
X5009965Y-70064D01*
X5009965Y-70064D01*
X5021936Y-82035D01*
X5021936Y-82035D01*
X5021936Y-82035D01*
X5035631Y-91985D01*
X5042773Y-95624D01*
X5050715Y-99670D01*
X5050715Y-99670D01*
X5050716Y-99671D01*
X5066814Y-104901D01*
X5066815Y-104902D01*
X5066815Y-104902D01*
X5077214Y-106549D01*
X5083536Y-107550D01*
X5083536Y-107550D01*
X5100465Y-107550D01*
X5104644Y-106888D01*
X5117185Y-104902D01*
X5117185Y-104901D01*
X5117186Y-104901D01*
X5133284Y-99671D01*
X5133284Y-99671D01*
X5133285Y-99670D01*
X5148369Y-91985D01*
X5162064Y-82035D01*
X5174035Y-70064D01*
X5183985Y-56368D01*
X5191671Y-41285D01*
X5192884Y-37550D01*
X5196902Y-25186D01*
X5196902Y-25185D01*
X5196902Y-25185D01*
X5199550Y-8464D01*
X5199550Y8464D01*
X5199371Y9598D01*
X5198751Y13507D01*
X5198606Y14423D01*
X5379950Y14423D01*
X5379950Y-14423D01*
X5380822Y-21044D01*
X5383715Y-43022D01*
X5391181Y-70885D01*
X5402219Y-97534D01*
X5402220Y-97534D01*
X5416642Y-122515D01*
X5416643Y-122516D01*
X5433433Y-144398D01*
X5434203Y-145400D01*
X5454600Y-165797D01*
X5461437Y-171044D01*
X5477484Y-183357D01*
X5477485Y-183358D01*
X5497563Y-194950D01*
X5502466Y-197780D01*
X5529116Y-208819D01*
X5556978Y-216285D01*
X5585577Y-220050D01*
X5585577Y-220050D01*
X5614423Y-220050D01*
X5614423Y-220050D01*
X5643022Y-216285D01*
X5670884Y-208819D01*
X5697534Y-197780D01*
X5722516Y-183357D01*
X5745400Y-165797D01*
X5765797Y-145400D01*
X5783357Y-122516D01*
X5797780Y-97534D01*
X5808819Y-70885D01*
X5816285Y-43022D01*
X5820050Y-14423D01*
X5820050Y8465D01*
X6000450Y8465D01*
X6000450Y-8464D01*
X6003098Y-25184D01*
X6003098Y-25186D01*
X6008329Y-41284D01*
X6016015Y-56368D01*
X6025965Y-70064D01*
X6025965Y-70064D01*
X6037936Y-82035D01*
X6037936Y-82035D01*
X6037936Y-82035D01*
X6051631Y-91985D01*
X6058773Y-95624D01*
X6066715Y-99670D01*
X6066715Y-99670D01*
X6066716Y-99671D01*
X6082814Y-104901D01*
X6082815Y-104902D01*
X6082815Y-104902D01*
X6093214Y-106549D01*
X6099535Y-107550D01*
X6099536Y-107550D01*
X6116464Y-107550D01*
X6120644Y-106888D01*
X6133185Y-104902D01*
X6133185Y-104901D01*
X6133186Y-104901D01*
X6149284Y-99671D01*
X6149284Y-99671D01*
X6149285Y-99670D01*
X6164368Y-91985D01*
X6178064Y-82035D01*
X6190035Y-70064D01*
X6199985Y-56368D01*
X6207670Y-41285D01*
X6208884Y-37550D01*
X6212901Y-25186D01*
X6212901Y-25185D01*
X6212902Y-25185D01*
X6215550Y-8464D01*
X6215550Y8464D01*
X6215330Y9850D01*
X6212902Y25184D01*
X6212901Y25186D01*
X6207671Y41284D01*
X6207670Y41285D01*
X6207670Y41285D01*
X6200405Y55545D01*
X6199985Y56369D01*
X6190035Y70064D01*
X6190035Y70064D01*
X6190035Y70064D01*
X6178064Y82035D01*
X6178064Y82035D01*
X6178064Y82035D01*
X6164368Y91985D01*
X6149284Y99671D01*
X6133186Y104902D01*
X6133184Y104902D01*
X6116464Y107550D01*
X6116464Y107550D01*
X6099536Y107550D01*
X6099535Y107550D01*
X6082815Y104902D01*
X6082814Y104902D01*
X6066716Y99671D01*
X6051631Y91985D01*
X6037936Y82035D01*
X6025965Y70064D01*
X6016015Y56369D01*
X6008329Y41284D01*
X6003098Y25186D01*
X6003098Y25184D01*
X6000450Y8465D01*
X5820050Y8465D01*
X5820050Y14423D01*
X5816285Y43022D01*
X5808819Y70885D01*
X5797780Y97534D01*
X5783357Y122516D01*
X5765797Y145400D01*
X5745400Y165797D01*
X5742007Y168401D01*
X5722516Y183357D01*
X5722515Y183358D01*
X5697534Y197780D01*
X5697534Y197781D01*
X5670885Y208819D01*
X5643021Y216285D01*
X5621953Y219059D01*
X5614423Y220050D01*
X5585577Y220050D01*
X5578923Y219174D01*
X5556978Y216285D01*
X5529115Y208819D01*
X5502466Y197781D01*
X5502466Y197780D01*
X5477485Y183358D01*
X5477484Y183357D01*
X5454600Y165797D01*
X5434203Y145401D01*
X5416643Y122516D01*
X5416642Y122515D01*
X5402220Y97534D01*
X5402219Y97534D01*
X5391181Y70885D01*
X5383715Y43022D01*
X5381367Y25185D01*
X5379950Y14423D01*
X5198606Y14423D01*
X5196902Y25184D01*
X5196902Y25186D01*
X5191671Y41284D01*
X5191671Y41285D01*
X5191671Y41285D01*
X5184405Y55545D01*
X5183985Y56369D01*
X5174035Y70064D01*
X5174035Y70064D01*
X5174035Y70064D01*
X5162064Y82035D01*
X5162064Y82035D01*
X5162064Y82035D01*
X5148369Y91985D01*
X5133284Y99671D01*
X5117186Y104902D01*
X5117184Y104902D01*
X5100465Y107550D01*
X5100464Y107550D01*
X5093601Y107550D01*
X5088368Y109717D01*
X5086201Y114950D01*
X5088368Y120183D01*
X5090701Y122516D01*
X5112795Y144609D01*
X5118027Y146776D01*
X5123260Y144609D01*
X5124506Y143362D01*
X5142977Y129942D01*
X5163320Y119577D01*
X5163320Y119577D01*
X5163321Y119577D01*
X5185033Y112522D01*
X5185034Y112522D01*
X5185034Y112522D01*
X5200068Y110141D01*
X5207584Y108950D01*
X5207584Y108950D01*
X5230416Y108950D01*
X5236053Y109843D01*
X5252966Y112522D01*
X5252967Y112522D01*
X5252967Y112522D01*
X5274679Y119577D01*
X5274679Y119577D01*
X5274680Y119577D01*
X5295023Y129942D01*
X5313494Y143362D01*
X5329638Y159506D01*
X5343058Y177977D01*
X5353423Y198320D01*
X5355046Y203313D01*
X5360478Y220033D01*
X5360478Y220033D01*
X5360478Y220034D01*
X5364050Y242584D01*
X5364050Y265416D01*
X5360478Y287966D01*
X5360478Y287967D01*
X5360478Y287967D01*
X5353423Y309679D01*
X5353423Y309680D01*
X5353423Y309680D01*
X5343058Y330023D01*
X5329638Y348494D01*
X5313494Y364638D01*
X5313493Y364638D01*
X5313493Y364638D01*
X5295023Y378058D01*
X5274679Y388423D01*
X5252967Y395478D01*
X5252966Y395478D01*
X5230416Y399050D01*
X5230416Y399050D01*
X5207584Y399050D01*
X5207584Y399050D01*
X5185034Y395478D01*
X5185033Y395478D01*
X5163321Y388423D01*
X5142977Y378058D01*
X5124507Y364638D01*
X5108362Y348493D01*
X5094942Y330023D01*
X5084577Y309679D01*
X5077522Y287967D01*
X5077522Y287966D01*
X5073950Y265416D01*
X5073950Y242584D01*
X5077522Y220034D01*
X5077522Y220033D01*
X5082424Y204947D01*
X5081979Y199300D01*
X5080619Y197427D01*
X4565309Y-317882D01*
X4560077Y-320050D01*
X2666001Y-320050D01*
X2660769Y-317882D01*
X2658601Y-312650D01*
X2660769Y-307417D01*
X2971817Y3632D01*
X2977050Y5799D01*
X2982283Y3632D01*
X2984450Y-1601D01*
X2984450Y-8464D01*
X2987098Y-25184D01*
X2987098Y-25186D01*
X2992329Y-41284D01*
X3000015Y-56368D01*
X3009965Y-70064D01*
X3009965Y-70064D01*
X3021936Y-82035D01*
X3021936Y-82035D01*
X3021936Y-82035D01*
X3035631Y-91985D01*
X3042773Y-95624D01*
X3050715Y-99670D01*
X3050715Y-99670D01*
X3050716Y-99671D01*
X3066814Y-104901D01*
X3066815Y-104902D01*
X3066815Y-104902D01*
X3077214Y-106549D01*
X3083535Y-107550D01*
X3083536Y-107550D01*
X3100464Y-107550D01*
X3104644Y-106888D01*
X3117185Y-104902D01*
X3117185Y-104901D01*
X3117186Y-104901D01*
X3133284Y-99671D01*
X3133284Y-99671D01*
X3133285Y-99670D01*
X3148368Y-91985D01*
X3162064Y-82035D01*
X3174035Y-70064D01*
X3183985Y-56368D01*
X3191670Y-41285D01*
X3192884Y-37550D01*
X3196901Y-25186D01*
X3196901Y-25185D01*
X3196902Y-25185D01*
X3199550Y-8464D01*
X3199550Y8464D01*
X3199370Y9598D01*
X3198751Y13507D01*
X3198606Y14423D01*
X3379950Y14423D01*
X3379950Y-14423D01*
X3380822Y-21044D01*
X3383715Y-43022D01*
X3391181Y-70885D01*
X3402219Y-97534D01*
X3402219Y-97534D01*
X3416642Y-122515D01*
X3416643Y-122516D01*
X3433433Y-144398D01*
X3434203Y-145400D01*
X3454600Y-165797D01*
X3461436Y-171044D01*
X3477484Y-183357D01*
X3477485Y-183358D01*
X3497563Y-194950D01*
X3502465Y-197780D01*
X3529115Y-208819D01*
X3556978Y-216285D01*
X3585577Y-220050D01*
X3585577Y-220050D01*
X3614423Y-220050D01*
X3614423Y-220050D01*
X3643022Y-216285D01*
X3670884Y-208819D01*
X3697534Y-197780D01*
X3722516Y-183357D01*
X3745400Y-165797D01*
X3765797Y-145400D01*
X3783357Y-122516D01*
X3797780Y-97534D01*
X3808819Y-70885D01*
X3816285Y-43022D01*
X3820050Y-14423D01*
X3820050Y8465D01*
X4000450Y8465D01*
X4000450Y-8464D01*
X4003098Y-25184D01*
X4003098Y-25186D01*
X4008329Y-41284D01*
X4016015Y-56368D01*
X4025965Y-70064D01*
X4025965Y-70064D01*
X4037936Y-82035D01*
X4037936Y-82035D01*
X4037936Y-82035D01*
X4051631Y-91985D01*
X4058773Y-95624D01*
X4066715Y-99670D01*
X4066715Y-99670D01*
X4066716Y-99671D01*
X4082814Y-104901D01*
X4082815Y-104902D01*
X4082815Y-104902D01*
X4093214Y-106549D01*
X4099535Y-107550D01*
X4099536Y-107550D01*
X4116464Y-107550D01*
X4120644Y-106888D01*
X4133185Y-104902D01*
X4133185Y-104901D01*
X4133186Y-104901D01*
X4149284Y-99671D01*
X4149284Y-99671D01*
X4149285Y-99670D01*
X4164368Y-91985D01*
X4178064Y-82035D01*
X4190035Y-70064D01*
X4199985Y-56368D01*
X4207671Y-41285D01*
X4208884Y-37550D01*
X4212902Y-25186D01*
X4212902Y-25185D01*
X4212902Y-25185D01*
X4215550Y-8464D01*
X4215550Y8464D01*
X4215331Y9850D01*
X4212902Y25184D01*
X4212902Y25186D01*
X4207671Y41284D01*
X4207671Y41285D01*
X4207671Y41285D01*
X4200405Y55545D01*
X4199985Y56369D01*
X4190035Y70064D01*
X4190035Y70064D01*
X4190035Y70064D01*
X4178064Y82035D01*
X4178064Y82035D01*
X4178064Y82035D01*
X4164368Y91985D01*
X4149284Y99671D01*
X4133186Y104902D01*
X4133184Y104902D01*
X4116464Y107550D01*
X4116464Y107550D01*
X4099536Y107550D01*
X4099535Y107550D01*
X4082815Y104902D01*
X4082814Y104902D01*
X4066716Y99671D01*
X4051631Y91985D01*
X4037936Y82035D01*
X4025965Y70064D01*
X4016015Y56369D01*
X4008329Y41284D01*
X4003098Y25186D01*
X4003098Y25184D01*
X4000450Y8465D01*
X3820050Y8465D01*
X3820050Y14423D01*
X3816285Y43022D01*
X3808819Y70885D01*
X3797780Y97534D01*
X3783357Y122516D01*
X3765797Y145400D01*
X3745400Y165797D01*
X3742007Y168401D01*
X3722516Y183357D01*
X3722515Y183358D01*
X3697534Y197780D01*
X3697534Y197781D01*
X3670885Y208819D01*
X3643021Y216285D01*
X3621953Y219059D01*
X3614423Y220050D01*
X3585577Y220050D01*
X3578923Y219174D01*
X3556978Y216285D01*
X3529115Y208819D01*
X3502466Y197781D01*
X3502465Y197780D01*
X3477485Y183358D01*
X3477484Y183357D01*
X3454599Y165797D01*
X3434203Y145401D01*
X3416643Y122516D01*
X3416642Y122515D01*
X3402219Y97534D01*
X3402219Y97534D01*
X3391181Y70885D01*
X3383715Y43022D01*
X3381367Y25185D01*
X3379950Y14423D01*
X3198606Y14423D01*
X3196902Y25184D01*
X3196901Y25186D01*
X3191671Y41284D01*
X3191670Y41285D01*
X3191670Y41285D01*
X3184405Y55545D01*
X3183985Y56369D01*
X3174035Y70064D01*
X3174035Y70064D01*
X3174035Y70064D01*
X3162064Y82035D01*
X3162064Y82035D01*
X3162064Y82035D01*
X3148368Y91985D01*
X3133284Y99671D01*
X3117186Y104902D01*
X3117184Y104902D01*
X3100464Y107550D01*
X3100464Y107550D01*
X3093601Y107550D01*
X3088368Y109717D01*
X3086201Y114950D01*
X3088368Y120183D01*
X3090701Y122516D01*
X3112795Y144609D01*
X3118027Y146776D01*
X3123259Y144609D01*
X3124506Y143362D01*
X3142977Y129942D01*
X3163320Y119577D01*
X3163320Y119577D01*
X3163321Y119577D01*
X3185033Y112522D01*
X3185033Y112522D01*
X3185034Y112522D01*
X3200067Y110141D01*
X3207584Y108950D01*
X3207584Y108950D01*
X3230416Y108950D01*
X3236053Y109843D01*
X3252966Y112522D01*
X3252967Y112522D01*
X3252967Y112522D01*
X3274679Y119577D01*
X3274679Y119577D01*
X3274680Y119577D01*
X3295023Y129942D01*
X3313494Y143362D01*
X3329638Y159506D01*
X3343058Y177977D01*
X3353423Y198320D01*
X3355045Y203313D01*
X3360478Y220033D01*
X3360478Y220033D01*
X3360478Y220034D01*
X3364050Y242584D01*
X3364050Y265416D01*
X3360478Y287966D01*
X3360478Y287967D01*
X3360478Y287967D01*
X3353423Y309679D01*
X3353423Y309680D01*
X3353423Y309680D01*
X3343058Y330023D01*
X3329638Y348494D01*
X3313494Y364638D01*
X3313493Y364638D01*
X3313493Y364638D01*
X3295023Y378058D01*
X3274679Y388423D01*
X3252967Y395478D01*
X3252966Y395478D01*
X3230416Y399050D01*
X3230416Y399050D01*
X3207584Y399050D01*
X3207584Y399050D01*
X3185034Y395478D01*
X3185033Y395478D01*
X3163321Y388423D01*
X3142977Y378058D01*
X3124507Y364638D01*
X3108362Y348493D01*
X3094942Y330023D01*
X3084577Y309679D01*
X3077522Y287967D01*
X3077521Y287966D01*
X3073950Y265416D01*
X3073950Y242584D01*
X3077521Y220034D01*
X3077522Y220033D01*
X3082424Y204947D01*
X3081979Y199300D01*
X3080618Y197427D01*
X2605309Y-277883D01*
X2600076Y-280050D01*
X568536Y-280050D01*
X563303Y-277883D01*
X561136Y-272650D01*
X563303Y-267417D01*
X839185Y8465D01*
X984450Y8465D01*
X984450Y-8464D01*
X987098Y-25184D01*
X987098Y-25186D01*
X992329Y-41284D01*
X1000015Y-56368D01*
X1009965Y-70064D01*
X1009965Y-70064D01*
X1021936Y-82035D01*
X1021936Y-82035D01*
X1021936Y-82035D01*
X1035631Y-91985D01*
X1042773Y-95624D01*
X1050715Y-99670D01*
X1050715Y-99670D01*
X1050716Y-99671D01*
X1066814Y-104901D01*
X1066815Y-104902D01*
X1066815Y-104902D01*
X1077214Y-106549D01*
X1083536Y-107550D01*
X1083536Y-107550D01*
X1100465Y-107550D01*
X1104644Y-106888D01*
X1117185Y-104902D01*
X1117185Y-104901D01*
X1117186Y-104901D01*
X1133284Y-99671D01*
X1133284Y-99671D01*
X1133285Y-99670D01*
X1148369Y-91985D01*
X1162064Y-82035D01*
X1174035Y-70064D01*
X1183985Y-56368D01*
X1191671Y-41285D01*
X1192884Y-37550D01*
X1196902Y-25186D01*
X1196902Y-25185D01*
X1196902Y-25185D01*
X1199550Y-8464D01*
X1199550Y8464D01*
X1199371Y9598D01*
X1198751Y13507D01*
X1198606Y14423D01*
X1379950Y14423D01*
X1379950Y-14423D01*
X1380822Y-21044D01*
X1383715Y-43022D01*
X1391181Y-70885D01*
X1402219Y-97534D01*
X1402219Y-97534D01*
X1416642Y-122515D01*
X1416643Y-122516D01*
X1433433Y-144398D01*
X1434203Y-145400D01*
X1454600Y-165797D01*
X1461436Y-171044D01*
X1477484Y-183357D01*
X1477485Y-183358D01*
X1497563Y-194950D01*
X1502465Y-197780D01*
X1529115Y-208819D01*
X1556978Y-216285D01*
X1585577Y-220050D01*
X1585577Y-220050D01*
X1614423Y-220050D01*
X1614423Y-220050D01*
X1643022Y-216285D01*
X1670884Y-208819D01*
X1697534Y-197780D01*
X1722516Y-183357D01*
X1745400Y-165797D01*
X1765797Y-145400D01*
X1783357Y-122516D01*
X1797780Y-97534D01*
X1808819Y-70885D01*
X1816285Y-43022D01*
X1820050Y-14423D01*
X1820050Y8465D01*
X2000450Y8465D01*
X2000450Y-8464D01*
X2003098Y-25184D01*
X2003098Y-25186D01*
X2008329Y-41284D01*
X2016015Y-56368D01*
X2025965Y-70064D01*
X2025965Y-70064D01*
X2037936Y-82035D01*
X2037936Y-82035D01*
X2037936Y-82035D01*
X2051631Y-91985D01*
X2058773Y-95624D01*
X2066715Y-99670D01*
X2066715Y-99670D01*
X2066716Y-99671D01*
X2082814Y-104901D01*
X2082815Y-104902D01*
X2082815Y-104902D01*
X2093214Y-106549D01*
X2099536Y-107550D01*
X2099536Y-107550D01*
X2116465Y-107550D01*
X2120644Y-106888D01*
X2133185Y-104902D01*
X2133185Y-104901D01*
X2133186Y-104901D01*
X2149284Y-99671D01*
X2149284Y-99671D01*
X2149285Y-99670D01*
X2164369Y-91985D01*
X2178064Y-82035D01*
X2190035Y-70064D01*
X2199985Y-56368D01*
X2207671Y-41285D01*
X2208884Y-37550D01*
X2212902Y-25186D01*
X2212902Y-25185D01*
X2212902Y-25185D01*
X2215550Y-8464D01*
X2215550Y8464D01*
X2215331Y9850D01*
X2212902Y25184D01*
X2212902Y25186D01*
X2207671Y41284D01*
X2207671Y41285D01*
X2207671Y41285D01*
X2200405Y55545D01*
X2199985Y56369D01*
X2190035Y70064D01*
X2190035Y70064D01*
X2190035Y70064D01*
X2178064Y82035D01*
X2178064Y82035D01*
X2178064Y82035D01*
X2164369Y91985D01*
X2149284Y99671D01*
X2133186Y104902D01*
X2133184Y104902D01*
X2116465Y107550D01*
X2116464Y107550D01*
X2099536Y107550D01*
X2099536Y107550D01*
X2082815Y104902D01*
X2082814Y104902D01*
X2066716Y99671D01*
X2051631Y91985D01*
X2037936Y82035D01*
X2025965Y70064D01*
X2016015Y56369D01*
X2008329Y41284D01*
X2003098Y25186D01*
X2003098Y25184D01*
X2000450Y8465D01*
X1820050Y8465D01*
X1820050Y14423D01*
X1816285Y43022D01*
X1808819Y70885D01*
X1797780Y97534D01*
X1783357Y122516D01*
X1765797Y145400D01*
X1745400Y165797D01*
X1742007Y168401D01*
X1722516Y183357D01*
X1722515Y183358D01*
X1697534Y197780D01*
X1697534Y197781D01*
X1670885Y208819D01*
X1643021Y216285D01*
X1621953Y219059D01*
X1614423Y220050D01*
X1585577Y220050D01*
X1578923Y219174D01*
X1556978Y216285D01*
X1529115Y208819D01*
X1502466Y197781D01*
X1502465Y197780D01*
X1477485Y183358D01*
X1477484Y183357D01*
X1454599Y165797D01*
X1434203Y145401D01*
X1416643Y122516D01*
X1416642Y122515D01*
X1402219Y97534D01*
X1402219Y97534D01*
X1391181Y70885D01*
X1383715Y43022D01*
X1381367Y25185D01*
X1379950Y14423D01*
X1198606Y14423D01*
X1196902Y25184D01*
X1196902Y25186D01*
X1191671Y41284D01*
X1191671Y41285D01*
X1191671Y41285D01*
X1184405Y55545D01*
X1183985Y56369D01*
X1174035Y70064D01*
X1174035Y70064D01*
X1174035Y70064D01*
X1162064Y82035D01*
X1162064Y82035D01*
X1162064Y82035D01*
X1148369Y91985D01*
X1133284Y99671D01*
X1117186Y104902D01*
X1117184Y104902D01*
X1100465Y107550D01*
X1100464Y107550D01*
X1083536Y107550D01*
X1083536Y107550D01*
X1066816Y104902D01*
X1066814Y104902D01*
X1050716Y99671D01*
X1035631Y91985D01*
X1021936Y82035D01*
X1009965Y70064D01*
X1000015Y56369D01*
X992329Y41284D01*
X987098Y25186D01*
X987098Y25184D01*
X984450Y8465D01*
X839185Y8465D01*
X1052503Y221783D01*
X1057736Y223950D01*
X1070873Y223950D01*
X1076105Y221783D01*
X1077911Y218837D01*
X1084577Y198321D01*
X1094942Y177977D01*
X1106878Y161549D01*
X1108362Y159506D01*
X1124506Y143362D01*
X1142977Y129942D01*
X1163320Y119577D01*
X1163320Y119577D01*
X1163321Y119577D01*
X1185033Y112522D01*
X1185034Y112522D01*
X1185034Y112522D01*
X1200068Y110141D01*
X1207584Y108950D01*
X1207584Y108950D01*
X1230416Y108950D01*
X1236053Y109843D01*
X1252966Y112522D01*
X1252967Y112522D01*
X1252967Y112522D01*
X1274679Y119577D01*
X1274679Y119577D01*
X1274680Y119577D01*
X1295023Y129942D01*
X1313494Y143362D01*
X1329638Y159506D01*
X1343058Y177977D01*
X1353423Y198320D01*
X1355046Y203313D01*
X1360478Y220033D01*
X1360478Y220033D01*
X1360478Y220034D01*
X1364050Y242584D01*
X1364050Y265416D01*
X1360478Y287966D01*
X1360478Y287967D01*
X1360478Y287967D01*
X1353423Y309679D01*
X1353423Y309680D01*
X1353423Y309680D01*
X1343058Y330023D01*
X1329638Y348494D01*
X1313494Y364638D01*
X1313493Y364638D01*
X1313493Y364638D01*
X1295023Y378058D01*
X1274679Y388423D01*
X1252967Y395478D01*
X1252966Y395478D01*
X1230416Y399050D01*
X1230416Y399050D01*
X1207584Y399050D01*
X1207584Y399050D01*
X1185034Y395478D01*
X1185033Y395478D01*
X1163321Y388423D01*
X1142977Y378058D01*
X1124507Y364638D01*
X1108362Y348493D01*
X1094942Y330023D01*
X1084577Y309679D01*
X1077911Y289163D01*
X1074232Y284857D01*
X1070873Y284050D01*
X1038267Y284050D01*
X1030625Y282002D01*
X1030624Y282002D01*
X1025504Y279046D01*
X1023772Y278046D01*
X507844Y-237883D01*
X502611Y-240050D01*
X-1253999Y-240050D01*
X-1259232Y-237883D01*
X-1261399Y-232650D01*
X-1259232Y-227417D01*
X-1028183Y3632D01*
X-1022950Y5799D01*
X-1017717Y3632D01*
X-1015550Y-1601D01*
X-1015550Y-8464D01*
X-1012902Y-25184D01*
X-1012902Y-25186D01*
X-1007671Y-41284D01*
X-999985Y-56368D01*
X-990035Y-70064D01*
X-990035Y-70064D01*
X-978064Y-82035D01*
X-978064Y-82035D01*
X-978064Y-82035D01*
X-964369Y-91985D01*
X-957227Y-95624D01*
X-949285Y-99670D01*
X-949285Y-99670D01*
X-949284Y-99671D01*
X-933186Y-104901D01*
X-933185Y-104902D01*
X-933185Y-104902D01*
X-922786Y-106549D01*
X-916464Y-107550D01*
X-916464Y-107550D01*
X-899535Y-107550D01*
X-895356Y-106888D01*
X-882815Y-104902D01*
X-882815Y-104901D01*
X-882814Y-104901D01*
X-866716Y-99671D01*
X-866716Y-99671D01*
X-866715Y-99670D01*
X-851631Y-91985D01*
X-837936Y-82035D01*
X-825965Y-70064D01*
X-816015Y-56368D01*
X-808329Y-41285D01*
X-807116Y-37550D01*
X-803098Y-25186D01*
X-803098Y-25185D01*
X-803098Y-25185D01*
X-800450Y-8464D01*
X-800450Y8464D01*
X-800629Y9598D01*
X-801249Y13507D01*
X-801394Y14423D01*
X-620050Y14423D01*
X-620050Y-14423D01*
X-619178Y-21044D01*
X-616285Y-43022D01*
X-608819Y-70885D01*
X-597781Y-97534D01*
X-597781Y-97534D01*
X-583358Y-122515D01*
X-583357Y-122516D01*
X-566567Y-144398D01*
X-565797Y-145400D01*
X-545400Y-165797D01*
X-538564Y-171044D01*
X-522516Y-183357D01*
X-522515Y-183358D01*
X-502437Y-194950D01*
X-497534Y-197780D01*
X-470884Y-208819D01*
X-443022Y-216285D01*
X-414423Y-220050D01*
X-414423Y-220050D01*
X-385577Y-220050D01*
X-385577Y-220050D01*
X-356978Y-216285D01*
X-329116Y-208819D01*
X-302466Y-197780D01*
X-277484Y-183357D01*
X-254600Y-165797D01*
X-234203Y-145400D01*
X-216642Y-122516D01*
X-202220Y-97534D01*
X-191181Y-70885D01*
X-183715Y-43022D01*
X-179950Y-14423D01*
X-179950Y8465D01*
X450Y8465D01*
X450Y-8464D01*
X3098Y-25184D01*
X3098Y-25186D01*
X8329Y-41284D01*
X16015Y-56368D01*
X25965Y-70064D01*
X25965Y-70064D01*
X37936Y-82035D01*
X37936Y-82035D01*
X37936Y-82035D01*
X51631Y-91985D01*
X58773Y-95624D01*
X66715Y-99670D01*
X66715Y-99670D01*
X66716Y-99671D01*
X82814Y-104901D01*
X82815Y-104902D01*
X82815Y-104902D01*
X93214Y-106549D01*
X99535Y-107550D01*
X99536Y-107550D01*
X116464Y-107550D01*
X120644Y-106888D01*
X133185Y-104902D01*
X133185Y-104901D01*
X133186Y-104901D01*
X149284Y-99671D01*
X149284Y-99671D01*
X149285Y-99670D01*
X164369Y-91985D01*
X178064Y-82035D01*
X190035Y-70064D01*
X199985Y-56368D01*
X207670Y-41285D01*
X208884Y-37550D01*
X212901Y-25186D01*
X212901Y-25185D01*
X212902Y-25185D01*
X215550Y-8464D01*
X215550Y8464D01*
X215330Y9850D01*
X212902Y25184D01*
X212901Y25186D01*
X207671Y41284D01*
X207670Y41285D01*
X207670Y41285D01*
X200405Y55545D01*
X199985Y56369D01*
X190035Y70064D01*
X190035Y70064D01*
X190035Y70064D01*
X178064Y82035D01*
X178064Y82035D01*
X178064Y82035D01*
X164369Y91985D01*
X149284Y99671D01*
X133186Y104902D01*
X133184Y104902D01*
X116464Y107550D01*
X116464Y107550D01*
X99536Y107550D01*
X99535Y107550D01*
X82816Y104902D01*
X82814Y104902D01*
X66716Y99671D01*
X51631Y91985D01*
X37936Y82035D01*
X25965Y70064D01*
X16015Y56369D01*
X8329Y41284D01*
X3098Y25186D01*
X3098Y25184D01*
X450Y8465D01*
X-179950Y8465D01*
X-179950Y14423D01*
X-183715Y43022D01*
X-191181Y70885D01*
X-202220Y97534D01*
X-216642Y122516D01*
X-234203Y145400D01*
X-254600Y165797D01*
X-257993Y168401D01*
X-277484Y183357D01*
X-277485Y183358D01*
X-302466Y197780D01*
X-302466Y197781D01*
X-329115Y208819D01*
X-356978Y216285D01*
X-378047Y219059D01*
X-385577Y220050D01*
X-414423Y220050D01*
X-421077Y219174D01*
X-443022Y216285D01*
X-470885Y208819D01*
X-497534Y197781D01*
X-497534Y197780D01*
X-522515Y183358D01*
X-522516Y183357D01*
X-545401Y165797D01*
X-565797Y145401D01*
X-583357Y122516D01*
X-583358Y122515D01*
X-597781Y97534D01*
X-597781Y97534D01*
X-608819Y70885D01*
X-616285Y43022D01*
X-618633Y25185D01*
X-620050Y14423D01*
X-801394Y14423D01*
X-803098Y25184D01*
X-803098Y25186D01*
X-808329Y41284D01*
X-808329Y41285D01*
X-808329Y41285D01*
X-815595Y55545D01*
X-816015Y56369D01*
X-825965Y70064D01*
X-825965Y70064D01*
X-825965Y70064D01*
X-837936Y82035D01*
X-837936Y82035D01*
X-837936Y82035D01*
X-851631Y91985D01*
X-866716Y99671D01*
X-882814Y104902D01*
X-882816Y104902D01*
X-899535Y107550D01*
X-899536Y107550D01*
X-906399Y107550D01*
X-911632Y109717D01*
X-913799Y114950D01*
X-911632Y120183D01*
X-909299Y122516D01*
X-887205Y144609D01*
X-881973Y146776D01*
X-876740Y144609D01*
X-875494Y143362D01*
X-857023Y129942D01*
X-836680Y119577D01*
X-836680Y119577D01*
X-836679Y119577D01*
X-814967Y112522D01*
X-814966Y112522D01*
X-814966Y112522D01*
X-799932Y110141D01*
X-792416Y108950D01*
X-792416Y108950D01*
X-769584Y108950D01*
X-763947Y109843D01*
X-747034Y112522D01*
X-747033Y112522D01*
X-747033Y112522D01*
X-725321Y119577D01*
X-725321Y119577D01*
X-725320Y119577D01*
X-704977Y129942D01*
X-686506Y143362D01*
X-670362Y159506D01*
X-656942Y177977D01*
X-646577Y198320D01*
X-644955Y203313D01*
X-639522Y220033D01*
X-639522Y220033D01*
X-639522Y220034D01*
X-635950Y242584D01*
X-635950Y265416D01*
X-639522Y287966D01*
X-639522Y287967D01*
X-639522Y287967D01*
X-646577Y309679D01*
X-646577Y309680D01*
X-646577Y309680D01*
X-656942Y330023D01*
X-670362Y348494D01*
X-686506Y364638D01*
X-686507Y364638D01*
X-686507Y364638D01*
X-704977Y378058D01*
X-725321Y388423D01*
X-747033Y395478D01*
X-747034Y395478D01*
X-769584Y399050D01*
X-769584Y399050D01*
X-792416Y399050D01*
X-792416Y399050D01*
X-814966Y395478D01*
X-814967Y395478D01*
X-836679Y388423D01*
X-857023Y378058D01*
X-875493Y364638D01*
X-891638Y348493D01*
X-905058Y330023D01*
X-915423Y309679D01*
X-922478Y287967D01*
X-922478Y287966D01*
X-926050Y265416D01*
X-926050Y242584D01*
X-922478Y220034D01*
X-922478Y220033D01*
X-917576Y204947D01*
X-918021Y199300D01*
X-919381Y197427D01*
X-1314691Y-197883D01*
X-1319924Y-200050D01*
X-2278779Y-200050D01*
X-2284012Y-197883D01*
X-2286179Y-192650D01*
X-2284012Y-187417D01*
X-2282479Y-186241D01*
X-2278426Y-183901D01*
X-2277484Y-183357D01*
X-2254600Y-165797D01*
X-2234203Y-145400D01*
X-2216643Y-122516D01*
X-2202220Y-97534D01*
X-2191181Y-70885D01*
X-2183715Y-43022D01*
X-2179950Y-14423D01*
X-2179950Y8465D01*
X-1999550Y8465D01*
X-1999550Y-8464D01*
X-1996902Y-25184D01*
X-1996902Y-25186D01*
X-1991671Y-41284D01*
X-1983985Y-56368D01*
X-1974035Y-70064D01*
X-1974035Y-70064D01*
X-1962064Y-82035D01*
X-1962064Y-82035D01*
X-1962064Y-82035D01*
X-1948369Y-91985D01*
X-1941227Y-95624D01*
X-1933285Y-99670D01*
X-1933285Y-99670D01*
X-1933284Y-99671D01*
X-1917186Y-104901D01*
X-1917185Y-104902D01*
X-1917185Y-104902D01*
X-1906786Y-106549D01*
X-1900464Y-107550D01*
X-1900464Y-107550D01*
X-1883535Y-107550D01*
X-1879356Y-106888D01*
X-1866815Y-104902D01*
X-1866815Y-104901D01*
X-1866814Y-104901D01*
X-1850716Y-99671D01*
X-1850716Y-99671D01*
X-1850715Y-99670D01*
X-1835631Y-91985D01*
X-1821936Y-82035D01*
X-1809965Y-70064D01*
X-1800015Y-56368D01*
X-1792329Y-41285D01*
X-1791116Y-37550D01*
X-1787098Y-25186D01*
X-1787098Y-25185D01*
X-1787098Y-25185D01*
X-1784450Y-8464D01*
X-1784450Y8464D01*
X-1784669Y9850D01*
X-1787098Y25184D01*
X-1787098Y25186D01*
X-1792329Y41284D01*
X-1792329Y41285D01*
X-1792329Y41285D01*
X-1799595Y55545D01*
X-1800015Y56369D01*
X-1809965Y70064D01*
X-1809965Y70064D01*
X-1809965Y70064D01*
X-1821936Y82035D01*
X-1821936Y82035D01*
X-1821936Y82035D01*
X-1835631Y91985D01*
X-1850716Y99671D01*
X-1866814Y104902D01*
X-1866816Y104902D01*
X-1883535Y107550D01*
X-1883536Y107550D01*
X-1900464Y107550D01*
X-1900464Y107550D01*
X-1917184Y104902D01*
X-1917186Y104902D01*
X-1933284Y99671D01*
X-1948369Y91985D01*
X-1962064Y82035D01*
X-1974035Y70064D01*
X-1983985Y56369D01*
X-1991671Y41284D01*
X-1996902Y25186D01*
X-1996902Y25184D01*
X-1999550Y8465D01*
X-2179950Y8465D01*
X-2179950Y14423D01*
X-2183715Y43022D01*
X-2191181Y70885D01*
X-2202220Y97534D01*
X-2216643Y122516D01*
X-2234203Y145400D01*
X-2254600Y165797D01*
X-2257993Y168401D01*
X-2277484Y183357D01*
X-2277485Y183358D01*
X-2302466Y197780D01*
X-2302466Y197781D01*
X-2329115Y208819D01*
X-2356979Y216285D01*
X-2378047Y219059D01*
X-2385577Y220050D01*
X-2414423Y220050D01*
X-2421077Y219174D01*
X-2443022Y216285D01*
X-2470885Y208819D01*
X-2497534Y197781D01*
X-2497535Y197780D01*
X-2522515Y183358D01*
X-2522516Y183357D01*
X-2545401Y165797D01*
X-2565797Y145401D01*
X-2583357Y122516D01*
X-2583358Y122515D01*
X-2597781Y97534D01*
X-2597781Y97534D01*
X-2608819Y70885D01*
X-2616285Y43022D01*
X-2618633Y25185D01*
X-2620050Y14423D01*
X-2620050Y-14423D01*
X-2619178Y-21044D01*
X-2616285Y-43022D01*
X-2608819Y-70885D01*
X-2597781Y-97534D01*
X-2597781Y-97534D01*
X-2583358Y-122515D01*
X-2583357Y-122516D01*
X-2566567Y-144398D01*
X-2565797Y-145400D01*
X-2545400Y-165797D01*
X-2538564Y-171044D01*
X-2522516Y-183357D01*
X-2522515Y-183358D01*
X-2517521Y-186241D01*
X-2514073Y-190735D01*
X-2514812Y-196350D01*
X-2519305Y-199798D01*
X-2521221Y-200050D01*
X-4278779Y-200050D01*
X-4284012Y-197883D01*
X-4286179Y-192650D01*
X-4284012Y-187417D01*
X-4282479Y-186241D01*
X-4278426Y-183901D01*
X-4277484Y-183357D01*
X-4254600Y-165797D01*
X-4234203Y-145400D01*
X-4216643Y-122516D01*
X-4202220Y-97534D01*
X-4191181Y-70885D01*
X-4183715Y-43022D01*
X-4179950Y-14423D01*
X-4179950Y8465D01*
X-3999550Y8465D01*
X-3999550Y-8464D01*
X-3996902Y-25184D01*
X-3996902Y-25186D01*
X-3991671Y-41284D01*
X-3983985Y-56368D01*
X-3974035Y-70064D01*
X-3974035Y-70064D01*
X-3962064Y-82035D01*
X-3962064Y-82035D01*
X-3962064Y-82035D01*
X-3948369Y-91985D01*
X-3941227Y-95624D01*
X-3933285Y-99670D01*
X-3933285Y-99670D01*
X-3933284Y-99671D01*
X-3917186Y-104901D01*
X-3917185Y-104902D01*
X-3917185Y-104902D01*
X-3906786Y-106549D01*
X-3900464Y-107550D01*
X-3900464Y-107550D01*
X-3883535Y-107550D01*
X-3879356Y-106888D01*
X-3866815Y-104902D01*
X-3866815Y-104901D01*
X-3866814Y-104901D01*
X-3850716Y-99671D01*
X-3850716Y-99671D01*
X-3850715Y-99670D01*
X-3835631Y-91985D01*
X-3821936Y-82035D01*
X-3809965Y-70064D01*
X-3800015Y-56368D01*
X-3792329Y-41285D01*
X-3791116Y-37550D01*
X-3787098Y-25186D01*
X-3787098Y-25185D01*
X-3787098Y-25185D01*
X-3784450Y-8464D01*
X-3784450Y8464D01*
X-3784450Y8465D01*
X-3015550Y8465D01*
X-3015550Y-8464D01*
X-3012902Y-25184D01*
X-3012902Y-25186D01*
X-3007671Y-41284D01*
X-2999985Y-56368D01*
X-2990035Y-70064D01*
X-2990035Y-70064D01*
X-2978064Y-82035D01*
X-2978064Y-82035D01*
X-2978064Y-82035D01*
X-2964369Y-91985D01*
X-2957227Y-95624D01*
X-2949285Y-99670D01*
X-2949285Y-99670D01*
X-2949284Y-99671D01*
X-2933186Y-104901D01*
X-2933185Y-104902D01*
X-2933185Y-104902D01*
X-2922786Y-106549D01*
X-2916464Y-107550D01*
X-2916464Y-107550D01*
X-2899535Y-107550D01*
X-2895356Y-106888D01*
X-2882815Y-104902D01*
X-2882815Y-104901D01*
X-2882814Y-104901D01*
X-2866716Y-99671D01*
X-2866716Y-99671D01*
X-2866715Y-99670D01*
X-2851631Y-91985D01*
X-2837936Y-82035D01*
X-2825965Y-70064D01*
X-2816015Y-56368D01*
X-2808329Y-41285D01*
X-2807116Y-37550D01*
X-2803098Y-25186D01*
X-2803098Y-25185D01*
X-2803098Y-25185D01*
X-2800450Y-8464D01*
X-2800450Y8464D01*
X-2800669Y9850D01*
X-2803098Y25184D01*
X-2803098Y25186D01*
X-2808329Y41284D01*
X-2808329Y41285D01*
X-2808329Y41285D01*
X-2815595Y55545D01*
X-2816015Y56369D01*
X-2825965Y70064D01*
X-2825965Y70064D01*
X-2825965Y70064D01*
X-2837936Y82035D01*
X-2837936Y82035D01*
X-2837936Y82035D01*
X-2851631Y91985D01*
X-2866716Y99671D01*
X-2882814Y104902D01*
X-2882816Y104902D01*
X-2899535Y107550D01*
X-2899536Y107550D01*
X-2916464Y107550D01*
X-2916464Y107550D01*
X-2933184Y104902D01*
X-2933186Y104902D01*
X-2949284Y99671D01*
X-2964369Y91985D01*
X-2978064Y82035D01*
X-2990035Y70064D01*
X-2999985Y56369D01*
X-3007671Y41284D01*
X-3012902Y25186D01*
X-3012902Y25184D01*
X-3015550Y8465D01*
X-3784450Y8465D01*
X-3784669Y9850D01*
X-3787098Y25184D01*
X-3787098Y25186D01*
X-3792329Y41284D01*
X-3792329Y41285D01*
X-3792329Y41285D01*
X-3799595Y55545D01*
X-3800015Y56369D01*
X-3809965Y70064D01*
X-3809965Y70064D01*
X-3809965Y70064D01*
X-3821936Y82035D01*
X-3821936Y82035D01*
X-3821936Y82035D01*
X-3835631Y91985D01*
X-3850716Y99671D01*
X-3866814Y104902D01*
X-3866816Y104902D01*
X-3883535Y107550D01*
X-3883536Y107550D01*
X-3900464Y107550D01*
X-3900464Y107550D01*
X-3917184Y104902D01*
X-3917186Y104902D01*
X-3933284Y99671D01*
X-3948369Y91985D01*
X-3962064Y82035D01*
X-3974035Y70064D01*
X-3983985Y56369D01*
X-3991671Y41284D01*
X-3996902Y25186D01*
X-3996902Y25184D01*
X-3999550Y8465D01*
X-4179950Y8465D01*
X-4179950Y14423D01*
X-4183715Y43022D01*
X-4191181Y70885D01*
X-4202220Y97534D01*
X-4216643Y122516D01*
X-4234203Y145400D01*
X-4254600Y165797D01*
X-4257993Y168401D01*
X-4277484Y183357D01*
X-4277485Y183358D01*
X-4302466Y197780D01*
X-4302466Y197781D01*
X-4329115Y208819D01*
X-4356979Y216285D01*
X-4378047Y219059D01*
X-4385577Y220050D01*
X-4414423Y220050D01*
X-4421077Y219174D01*
X-4443022Y216285D01*
X-4470885Y208819D01*
X-4497534Y197781D01*
X-4497535Y197780D01*
X-4522515Y183358D01*
X-4522516Y183357D01*
X-4545401Y165797D01*
X-4565797Y145401D01*
X-4583357Y122516D01*
X-4583358Y122515D01*
X-4597781Y97534D01*
X-4597781Y97534D01*
X-4608819Y70885D01*
X-4616285Y43022D01*
X-4618633Y25185D01*
X-4620050Y14423D01*
X-4620050Y-14423D01*
X-4619178Y-21044D01*
X-4616285Y-43022D01*
X-4608834Y-70829D01*
X-4609573Y-76444D01*
X-4614067Y-79892D01*
X-4619682Y-79153D01*
X-4621215Y-77977D01*
X-4795509Y96317D01*
X-4797676Y101550D01*
X-4795509Y106783D01*
X-4790276Y108950D01*
X-4769584Y108950D01*
X-4763947Y109843D01*
X-4747034Y112522D01*
X-4747033Y112522D01*
X-4747033Y112522D01*
X-4725321Y119577D01*
X-4725321Y119577D01*
X-4725320Y119577D01*
X-4704977Y129942D01*
X-4686506Y143362D01*
X-4670362Y159506D01*
X-4656942Y177977D01*
X-4646577Y198320D01*
X-4644955Y203313D01*
X-4639522Y220033D01*
X-4639522Y220033D01*
X-4639522Y220034D01*
X-4635950Y242584D01*
X-4635950Y265416D01*
X-4639522Y287966D01*
X-4639522Y287967D01*
X-4639522Y287967D01*
X-4646577Y309679D01*
X-4646577Y309680D01*
X-4646577Y309680D01*
X-4656942Y330023D01*
X-4670362Y348494D01*
X-4686506Y364638D01*
X-4686507Y364638D01*
X-4687918Y365663D01*
X-4690877Y370492D01*
X-4689555Y376000D01*
X-4684726Y378959D01*
X-4683568Y379050D01*
X-4281957Y379050D01*
X-4276724Y376883D01*
X-4135391Y235549D01*
X-4129796Y229954D01*
X-4122943Y225998D01*
X-4122943Y225998D01*
X-4122943Y225998D01*
X-4119122Y224974D01*
X-4115301Y223950D01*
X-4115301Y223950D01*
X-4115301Y223950D01*
X-2929127Y223950D01*
X-2923895Y221783D01*
X-2922089Y218837D01*
X-2915423Y198321D01*
X-2905058Y177977D01*
X-2893122Y161549D01*
X-2891638Y159506D01*
X-2875494Y143362D01*
X-2857023Y129942D01*
X-2836680Y119577D01*
X-2836680Y119577D01*
X-2836679Y119577D01*
X-2814967Y112522D01*
X-2814966Y112522D01*
X-2814966Y112522D01*
X-2799932Y110141D01*
X-2792416Y108950D01*
X-2792416Y108950D01*
X-2769584Y108950D01*
X-2763947Y109843D01*
X-2747034Y112522D01*
X-2747033Y112522D01*
X-2747033Y112522D01*
X-2725321Y119577D01*
X-2725321Y119577D01*
X-2725320Y119577D01*
X-2704977Y129942D01*
X-2686506Y143362D01*
X-2670362Y159506D01*
X-2656942Y177977D01*
X-2646577Y198320D01*
X-2644955Y203313D01*
X-2639522Y220033D01*
X-2639522Y220033D01*
X-2639522Y220034D01*
X-2635950Y242584D01*
X-2635950Y265416D01*
X-2639522Y287966D01*
X-2639522Y287967D01*
X-2639522Y287967D01*
X-2646577Y309679D01*
X-2646577Y309680D01*
X-2646577Y309680D01*
X-2656942Y330023D01*
X-2670362Y348494D01*
X-2686506Y364638D01*
X-2686507Y364638D01*
X-2686507Y364638D01*
X-2704977Y378058D01*
X-2725321Y388423D01*
X-2747033Y395478D01*
X-2747034Y395478D01*
X-2769584Y399050D01*
X-2769584Y399050D01*
X-2792416Y399050D01*
X-2792416Y399050D01*
X-2814966Y395478D01*
X-2814967Y395478D01*
X-2836679Y388423D01*
X-2857023Y378058D01*
X-2875493Y364638D01*
X-2891638Y348493D01*
X-2905058Y330023D01*
X-2915423Y309679D01*
X-2922089Y289163D01*
X-2925768Y284857D01*
X-2929127Y284050D01*
X-4095832Y284050D01*
X-4101065Y286217D01*
X-4165529Y350681D01*
X-4167696Y355914D01*
X-4165529Y361147D01*
X-4160296Y363314D01*
X-4159139Y363223D01*
X-4157416Y362950D01*
X-4134584Y362950D01*
X-4128947Y363843D01*
X-4112034Y366522D01*
X-4112033Y366522D01*
X-4112033Y366522D01*
X-4090321Y373577D01*
X-4090321Y373577D01*
X-4090320Y373577D01*
X-4069977Y383942D01*
X-4051506Y397362D01*
X-4035362Y413506D01*
X-4021942Y431977D01*
X-4011577Y452320D01*
X-4011221Y453417D01*
X-4004522Y474033D01*
X-4004522Y474033D01*
X-4004522Y474034D01*
X-4000950Y496584D01*
X-4000950Y519416D01*
X-4000950Y519416D01*
X-2291050Y519416D01*
X-2291050Y496584D01*
X-2287479Y474034D01*
X-2287478Y474033D01*
X-2280423Y452321D01*
X-2280423Y452320D01*
X-2280423Y452320D01*
X-2279698Y450897D01*
X-2270058Y431977D01*
X-2267274Y428146D01*
X-2256638Y413506D01*
X-2240494Y397362D01*
X-2222023Y383942D01*
X-2201680Y373577D01*
X-2201680Y373577D01*
X-2201679Y373577D01*
X-2179967Y366522D01*
X-2179967Y366522D01*
X-2179966Y366522D01*
X-2164933Y364141D01*
X-2157416Y362950D01*
X-2157416Y362950D01*
X-2134584Y362950D01*
X-2128947Y363843D01*
X-2112034Y366522D01*
X-2112033Y366522D01*
X-2112033Y366522D01*
X-2090321Y373577D01*
X-2090321Y373577D01*
X-2090320Y373577D01*
X-2069977Y383942D01*
X-2051506Y397362D01*
X-2035362Y413506D01*
X-2021942Y431977D01*
X-2011577Y452320D01*
X-2011221Y453417D01*
X-2004522Y474033D01*
X-2004522Y474033D01*
X-2004522Y474034D01*
X-2000950Y496584D01*
X-2000950Y519416D01*
X-2000950Y519416D01*
X-291050Y519416D01*
X-291050Y496584D01*
X-287479Y474034D01*
X-287478Y474033D01*
X-280423Y452321D01*
X-280423Y452320D01*
X-280423Y452320D01*
X-279698Y450897D01*
X-270058Y431977D01*
X-267274Y428146D01*
X-256638Y413506D01*
X-240494Y397362D01*
X-222023Y383942D01*
X-201680Y373577D01*
X-201680Y373577D01*
X-201679Y373577D01*
X-179967Y366522D01*
X-179966Y366522D01*
X-179966Y366522D01*
X-164933Y364141D01*
X-157416Y362950D01*
X-157416Y362950D01*
X-134584Y362950D01*
X-128947Y363843D01*
X-112034Y366522D01*
X-112033Y366522D01*
X-112033Y366522D01*
X-90321Y373577D01*
X-90321Y373577D01*
X-90320Y373577D01*
X-69977Y383942D01*
X-51506Y397362D01*
X-35362Y413506D01*
X-21942Y431977D01*
X-11577Y452320D01*
X-11221Y453417D01*
X-4522Y474033D01*
X-4522Y474033D01*
X-4522Y474034D01*
X-950Y496584D01*
X-950Y519416D01*
X-950Y519416D01*
X1708950Y519416D01*
X1708950Y496584D01*
X1712521Y474034D01*
X1712522Y474033D01*
X1719577Y452321D01*
X1719577Y452320D01*
X1719577Y452320D01*
X1720302Y450897D01*
X1729942Y431977D01*
X1732726Y428146D01*
X1743362Y413506D01*
X1759506Y397362D01*
X1777977Y383942D01*
X1798320Y373577D01*
X1798320Y373577D01*
X1798321Y373577D01*
X1820033Y366522D01*
X1820033Y366522D01*
X1820034Y366522D01*
X1835067Y364141D01*
X1842584Y362950D01*
X1842584Y362950D01*
X1865416Y362950D01*
X1871053Y363843D01*
X1887966Y366522D01*
X1887967Y366522D01*
X1887967Y366522D01*
X1909679Y373577D01*
X1909679Y373577D01*
X1909680Y373577D01*
X1930023Y383942D01*
X1948494Y397362D01*
X1964638Y413506D01*
X1978058Y431977D01*
X1988423Y452320D01*
X1988779Y453417D01*
X1995478Y474033D01*
X1995478Y474033D01*
X1995478Y474034D01*
X1999050Y496584D01*
X1999050Y519416D01*
X1999050Y519416D01*
X3708950Y519416D01*
X3708950Y496584D01*
X3712521Y474034D01*
X3712522Y474033D01*
X3719577Y452321D01*
X3719577Y452320D01*
X3719577Y452320D01*
X3720302Y450897D01*
X3729942Y431977D01*
X3732726Y428146D01*
X3743362Y413506D01*
X3759506Y397362D01*
X3777977Y383942D01*
X3798320Y373577D01*
X3798320Y373577D01*
X3798321Y373577D01*
X3820033Y366522D01*
X3820033Y366522D01*
X3820034Y366522D01*
X3835067Y364141D01*
X3842584Y362950D01*
X3842584Y362950D01*
X3865416Y362950D01*
X3871053Y363843D01*
X3887966Y366522D01*
X3887967Y366522D01*
X3887967Y366522D01*
X3909679Y373577D01*
X3909679Y373577D01*
X3909680Y373577D01*
X3930023Y383942D01*
X3948494Y397362D01*
X3964638Y413506D01*
X3978058Y431977D01*
X3988423Y452320D01*
X3988779Y453417D01*
X3995478Y474033D01*
X3995478Y474033D01*
X3995478Y474034D01*
X3999050Y496584D01*
X3999050Y519416D01*
X3999050Y519416D01*
X5708950Y519416D01*
X5708950Y496584D01*
X5712521Y474034D01*
X5712522Y474033D01*
X5719577Y452321D01*
X5719577Y452320D01*
X5719577Y452320D01*
X5720302Y450897D01*
X5729942Y431977D01*
X5732726Y428146D01*
X5743362Y413506D01*
X5759506Y397362D01*
X5777977Y383942D01*
X5798320Y373577D01*
X5798320Y373577D01*
X5798321Y373577D01*
X5820033Y366522D01*
X5820033Y366522D01*
X5820034Y366522D01*
X5835067Y364141D01*
X5842584Y362950D01*
X5842584Y362950D01*
X5865416Y362950D01*
X5871053Y363843D01*
X5887966Y366522D01*
X5887967Y366522D01*
X5887967Y366522D01*
X5909679Y373577D01*
X5909679Y373577D01*
X5909680Y373577D01*
X5930023Y383942D01*
X5948494Y397362D01*
X5964638Y413506D01*
X5978058Y431977D01*
X5988423Y452320D01*
X5988779Y453417D01*
X5995478Y474033D01*
X5995478Y474033D01*
X5995478Y474034D01*
X5999050Y496584D01*
X5999050Y519416D01*
X5995478Y541966D01*
X5995478Y541967D01*
X5995478Y541967D01*
X5988423Y563679D01*
X5988423Y563680D01*
X5988423Y563680D01*
X5978058Y584023D01*
X5966462Y599983D01*
X5964638Y602493D01*
X5964638Y602493D01*
X5964638Y602494D01*
X5948494Y618638D01*
X5948493Y618638D01*
X5948493Y618638D01*
X5930023Y632058D01*
X5909679Y642423D01*
X5887967Y649478D01*
X5887966Y649479D01*
X5865416Y653050D01*
X5865416Y653050D01*
X5842584Y653050D01*
X5842584Y653050D01*
X5820034Y649479D01*
X5820033Y649478D01*
X5798321Y642423D01*
X5777977Y632058D01*
X5759507Y618638D01*
X5743362Y602493D01*
X5729942Y584023D01*
X5719577Y563679D01*
X5712522Y541967D01*
X5712521Y541966D01*
X5708950Y519416D01*
X3999050Y519416D01*
X3995478Y541966D01*
X3995478Y541967D01*
X3995478Y541967D01*
X3988423Y563679D01*
X3988423Y563680D01*
X3988423Y563680D01*
X3978058Y584023D01*
X3966462Y599983D01*
X3964638Y602493D01*
X3964638Y602493D01*
X3964638Y602494D01*
X3948494Y618638D01*
X3948493Y618638D01*
X3948493Y618638D01*
X3930023Y632058D01*
X3909679Y642423D01*
X3887967Y649478D01*
X3887966Y649479D01*
X3865416Y653050D01*
X3865416Y653050D01*
X3842584Y653050D01*
X3842584Y653050D01*
X3820034Y649479D01*
X3820033Y649478D01*
X3798321Y642423D01*
X3777977Y632058D01*
X3759507Y618638D01*
X3743362Y602493D01*
X3729942Y584023D01*
X3719577Y563679D01*
X3712522Y541967D01*
X3712521Y541966D01*
X3708950Y519416D01*
X1999050Y519416D01*
X1995478Y541966D01*
X1995478Y541967D01*
X1995478Y541967D01*
X1988423Y563679D01*
X1988423Y563680D01*
X1988423Y563680D01*
X1978058Y584023D01*
X1966462Y599983D01*
X1964638Y602493D01*
X1964638Y602493D01*
X1964638Y602494D01*
X1948494Y618638D01*
X1948493Y618638D01*
X1948493Y618638D01*
X1930023Y632058D01*
X1909679Y642423D01*
X1887967Y649478D01*
X1887966Y649479D01*
X1865416Y653050D01*
X1865416Y653050D01*
X1842584Y653050D01*
X1842584Y653050D01*
X1820034Y649479D01*
X1820033Y649478D01*
X1798321Y642423D01*
X1777977Y632058D01*
X1759507Y618638D01*
X1743362Y602493D01*
X1729942Y584023D01*
X1719577Y563679D01*
X1712522Y541967D01*
X1712521Y541966D01*
X1708950Y519416D01*
X-950Y519416D01*
X-4522Y541966D01*
X-4522Y541967D01*
X-4522Y541967D01*
X-11577Y563679D01*
X-11577Y563680D01*
X-11577Y563680D01*
X-21942Y584023D01*
X-33538Y599983D01*
X-35362Y602493D01*
X-35362Y602493D01*
X-35362Y602494D01*
X-51506Y618638D01*
X-51507Y618638D01*
X-51507Y618638D01*
X-69977Y632058D01*
X-90321Y642423D01*
X-112033Y649478D01*
X-112034Y649479D01*
X-134584Y653050D01*
X-134584Y653050D01*
X-157416Y653050D01*
X-157416Y653050D01*
X-179966Y649479D01*
X-179967Y649478D01*
X-201679Y642423D01*
X-222023Y632058D01*
X-240493Y618638D01*
X-256638Y602493D01*
X-270058Y584023D01*
X-280423Y563679D01*
X-287478Y541967D01*
X-287479Y541966D01*
X-291050Y519416D01*
X-2000950Y519416D01*
X-2004522Y541966D01*
X-2004522Y541967D01*
X-2004522Y541967D01*
X-2011577Y563679D01*
X-2011577Y563680D01*
X-2011577Y563680D01*
X-2021942Y584023D01*
X-2033538Y599983D01*
X-2035362Y602493D01*
X-2035362Y602493D01*
X-2035362Y602494D01*
X-2051506Y618638D01*
X-2051507Y618638D01*
X-2051507Y618638D01*
X-2069977Y632058D01*
X-2090321Y642423D01*
X-2112033Y649478D01*
X-2112034Y649479D01*
X-2134584Y653050D01*
X-2134584Y653050D01*
X-2157416Y653050D01*
X-2157416Y653050D01*
X-2179966Y649479D01*
X-2179967Y649478D01*
X-2201679Y642423D01*
X-2222023Y632058D01*
X-2240493Y618638D01*
X-2256638Y602493D01*
X-2270058Y584023D01*
X-2280423Y563679D01*
X-2287478Y541967D01*
X-2287479Y541966D01*
X-2291050Y519416D01*
X-4000950Y519416D01*
X-4004522Y541966D01*
X-4004522Y541967D01*
X-4004522Y541967D01*
X-4011577Y563679D01*
X-4011577Y563680D01*
X-4011577Y563680D01*
X-4021942Y584023D01*
X-4033538Y599983D01*
X-4035362Y602493D01*
X-4035362Y602493D01*
X-4035362Y602494D01*
X-4051506Y618638D01*
X-4051507Y618638D01*
X-4051507Y618638D01*
X-4069977Y632058D01*
X-4090321Y642423D01*
X-4112033Y649478D01*
X-4112034Y649479D01*
X-4134584Y653050D01*
X-4134584Y653050D01*
X-4157416Y653050D01*
X-4157416Y653050D01*
X-4179966Y649479D01*
X-4179967Y649478D01*
X-4201679Y642423D01*
X-4222023Y632058D01*
X-4240493Y618638D01*
X-4256638Y602493D01*
X-4270058Y584023D01*
X-4280423Y563679D01*
X-4287478Y541967D01*
X-4287479Y541966D01*
X-4291050Y519416D01*
X-4291050Y496584D01*
X-4287479Y474034D01*
X-4287478Y474033D01*
X-4280423Y452321D01*
X-4280423Y452320D01*
X-4280423Y452320D01*
X-4279528Y450562D01*
X-4279195Y449909D01*
X-4278751Y444263D01*
X-4282429Y439956D01*
X-4285788Y439150D01*
X-5169856Y439150D01*
X-5177499Y437102D01*
X-5177499Y437102D01*
X-5181184Y434975D01*
X-5184351Y433146D01*
X-5303983Y313514D01*
X-5309216Y311347D01*
X-5314448Y313514D01*
X-5324683Y323748D01*
X-5326850Y328981D01*
X-5326850Y379880D01*
X-5326850Y379880D01*
X-5328898Y387522D01*
X-5328898Y387523D01*
X-5332854Y394375D01*
X-5366625Y428146D01*
X-5373477Y432102D01*
X-5373478Y432102D01*
X-5381120Y434150D01*
X-5381120Y434150D01*
X-5455944Y434150D01*
X-5460508Y434150D01*
X-5465740Y436317D01*
X-5467908Y441550D01*
X-5465740Y446783D01*
X-5464344Y448179D01*
X-5457306Y455217D01*
X-5433623Y478900D01*
X-5428391Y481067D01*
X-5426948Y480925D01*
X-5418728Y479290D01*
X-5418727Y479290D01*
X-5406273Y479290D01*
X-5406272Y479290D01*
X-5394057Y481720D01*
X-5382549Y486486D01*
X-5372193Y493406D01*
X-5363386Y502213D01*
X-5356466Y512569D01*
X-5351700Y524076D01*
X-5349270Y536292D01*
X-5349270Y548748D01*
X-5351700Y560964D01*
X-5353600Y565550D01*
X-5356466Y572470D01*
X-5356533Y572570D01*
X-5363386Y582827D01*
X-5372193Y591634D01*
X-5372194Y591634D01*
X-5372194Y591634D01*
X-5376133Y594266D01*
X-5379279Y598975D01*
X-5378174Y604530D01*
X-5374223Y607484D01*
X-5358780Y612296D01*
X-5344799Y620748D01*
X-5333248Y632299D01*
X-5324796Y646280D01*
X-5319936Y661876D01*
X-5319936Y661877D01*
X-5319320Y668654D01*
X-5319320Y668655D01*
X-5319320Y675000D01*
X-5399921Y675000D01*
X-5395344Y677642D01*
X-5390142Y682844D01*
X-5386464Y689216D01*
X-5384560Y696322D01*
X-5384560Y703678D01*
X-5386464Y710784D01*
X-5390142Y717156D01*
X-5395344Y722358D01*
X-5399921Y725000D01*
X-5387500Y725000D01*
X-5319320Y725000D01*
X-5319320Y731345D01*
X-5319320Y731346D01*
X-5319936Y738123D01*
X-5319936Y738124D01*
X-5324796Y753720D01*
X-5333248Y767701D01*
X-5344799Y779252D01*
X-5358780Y787704D01*
X-5374376Y792564D01*
X-5374377Y792564D01*
X-5381154Y793180D01*
X-5387500Y793180D01*
X-5387500Y725000D01*
X-5399921Y725000D01*
X-5401716Y726036D01*
X-5408822Y727940D01*
X-5416178Y727940D01*
X-5423284Y726036D01*
X-5429656Y722358D01*
X-5434858Y717156D01*
X-5437500Y712579D01*
X-5437500Y793180D01*
X-5443847Y793180D01*
X-5448133Y792790D01*
X-5453540Y794475D01*
X-5456172Y799490D01*
X-5455211Y803860D01*
X-5453806Y806294D01*
X-5450428Y818901D01*
X-5450428Y818902D01*
X-5450302Y819370D01*
X-5450047Y819302D01*
X-5447641Y823470D01*
X-5443135Y825000D01*
X6342600Y825000D01*
X6347833Y822833D01*
G37*
%TD.AperFunction*%
%TA.AperFunction,Conductor*%
G36*
X-6031297Y346397D02*
G01*
X-6030050Y342286D01*
X-6030050Y292044D01*
X-6029302Y289253D01*
X-6029050Y287338D01*
X-6029050Y212990D01*
X-6026457Y203313D01*
X-6021628Y194950D01*
X-6021448Y194637D01*
X-6014363Y187552D01*
X-6005687Y182543D01*
X-5996010Y179950D01*
X-5996010Y179950D01*
X-5996009Y179950D01*
X-5985990Y179950D01*
X-5985990Y179950D01*
X-5976313Y182543D01*
X-5967637Y187552D01*
X-5963733Y191457D01*
X-5958500Y193624D01*
X-5953267Y191457D01*
X-5949363Y187552D01*
X-5940687Y182543D01*
X-5931010Y179950D01*
X-5931010Y179950D01*
X-5931009Y179950D01*
X-5920990Y179950D01*
X-5920990Y179950D01*
X-5911313Y182543D01*
X-5902637Y187552D01*
X-5898733Y191457D01*
X-5893500Y193624D01*
X-5888267Y191457D01*
X-5884363Y187552D01*
X-5875687Y182543D01*
X-5866010Y179950D01*
X-5866010Y179950D01*
X-5866009Y179950D01*
X-5855990Y179950D01*
X-5855990Y179950D01*
X-5846313Y182543D01*
X-5837787Y187466D01*
X-5837217Y187795D01*
X-5837072Y187544D01*
X-5832487Y188775D01*
X-5827581Y185945D01*
X-5826050Y181438D01*
X-5826050Y167044D01*
X-5824002Y159402D01*
X-5824002Y159401D01*
X-5824002Y159401D01*
X-5822876Y157450D01*
X-5822875Y157450D01*
X-5820046Y152549D01*
X-5635180Y-32317D01*
X-5633012Y-37550D01*
X-5635180Y-42783D01*
X-5640412Y-44950D01*
X-5744456Y-44950D01*
X-5752099Y-46998D01*
X-5752099Y-46998D01*
X-5757212Y-49950D01*
X-5758951Y-50954D01*
X-5885046Y-177049D01*
X-5889002Y-183901D01*
X-5889002Y-183901D01*
X-5889338Y-185154D01*
X-5892786Y-189647D01*
X-5898401Y-190386D01*
X-5901718Y-188471D01*
X-5902637Y-187552D01*
X-5909524Y-183576D01*
X-5911313Y-182543D01*
X-5911313Y-182543D01*
X-5920990Y-179950D01*
X-5920991Y-179950D01*
X-5931009Y-179950D01*
X-5931010Y-179950D01*
X-5940687Y-182543D01*
X-5949363Y-187552D01*
X-5953267Y-191457D01*
X-5958500Y-193624D01*
X-5963733Y-191457D01*
X-5967637Y-187552D01*
X-5974524Y-183576D01*
X-5976313Y-182543D01*
X-5976313Y-182543D01*
X-5985990Y-179950D01*
X-5985991Y-179950D01*
X-5996009Y-179950D01*
X-5996010Y-179950D01*
X-6005687Y-182543D01*
X-6014363Y-187552D01*
X-6014364Y-187553D01*
X-6020323Y-193512D01*
X-6025555Y-195679D01*
X-6030788Y-193511D01*
X-6032955Y-188279D01*
X-6032488Y-185693D01*
X-6030640Y-180738D01*
X-6030640Y-180737D01*
X-6030000Y-174783D01*
X-6030000Y-145000D01*
X-6090000Y-145000D01*
X-6090000Y-220600D01*
X-6092167Y-225833D01*
X-6093303Y-226303D01*
X-6095000Y-228000D01*
X-6095000Y-252600D01*
X-6097167Y-257833D01*
X-6102400Y-260000D01*
X-6137600Y-260000D01*
X-6142833Y-257833D01*
X-6145000Y-252600D01*
X-6145000Y-164400D01*
X-6142833Y-159167D01*
X-6141697Y-158697D01*
X-6140000Y-157000D01*
X-6140000Y-145000D01*
X-6200000Y-145000D01*
X-6201019Y-146019D01*
X-6206252Y-148186D01*
X-6211484Y-146019D01*
X-6247783Y-109720D01*
X-6249950Y-104488D01*
X-6249950Y-68025D01*
X-6250261Y-66463D01*
X-6250509Y-65217D01*
X-6200000Y-65217D01*
X-6200000Y-95000D01*
X-6140000Y-95000D01*
X-6090000Y-95000D01*
X-6030000Y-95000D01*
X-6030000Y-65217D01*
X-6030640Y-59262D01*
X-6030640Y-59262D01*
X-6035665Y-45791D01*
X-6035665Y-45791D01*
X-6044281Y-34281D01*
X-6055791Y-25665D01*
X-6055791Y-25664D01*
X-6069262Y-20640D01*
X-6069262Y-20640D01*
X-6075217Y-20000D01*
X-6090000Y-20000D01*
X-6090000Y-95000D01*
X-6140000Y-95000D01*
X-6140000Y-20000D01*
X-6154783Y-20000D01*
X-6160738Y-20640D01*
X-6160738Y-20640D01*
X-6174209Y-25664D01*
X-6174209Y-25665D01*
X-6185719Y-34281D01*
X-6194335Y-45791D01*
X-6194335Y-45791D01*
X-6199360Y-59262D01*
X-6199360Y-59262D01*
X-6200000Y-65217D01*
X-6250509Y-65217D01*
X-6250604Y-64737D01*
X-6251113Y-62177D01*
X-6255545Y-55545D01*
X-6260050Y-52534D01*
X-6262177Y-51113D01*
X-6262177Y-51113D01*
X-6265101Y-50532D01*
X-6268025Y-49950D01*
X-6312407Y-49950D01*
X-6317639Y-47783D01*
X-6319807Y-42550D01*
X-6317639Y-37317D01*
X-6312539Y-32217D01*
X-6307307Y-30050D01*
X-6296044Y-30050D01*
X-6296044Y-30050D01*
X-6288401Y-28002D01*
X-6281549Y-24046D01*
X-6275954Y-18451D01*
X-6251054Y6449D01*
X-6251054Y6449D01*
X-6250759Y6834D01*
X-6250547Y6671D01*
X-6246734Y9598D01*
X-6244818Y9850D01*
X-6140944Y9850D01*
X-6140944Y9850D01*
X-6133301Y11898D01*
X-6126449Y15854D01*
X-6120854Y21449D01*
X-6094520Y47783D01*
X-6089288Y49950D01*
X-6078025Y49950D01*
X-6078025Y49950D01*
X-6072177Y51113D01*
X-6065545Y55545D01*
X-6061113Y62177D01*
X-6059950Y68025D01*
X-6059950Y171975D01*
X-6061113Y177823D01*
X-6061216Y177977D01*
X-6065906Y184996D01*
X-6067011Y190551D01*
X-6063865Y195260D01*
X-6062585Y195944D01*
X-6062177Y196113D01*
X-6062177Y196113D01*
X-6055545Y200545D01*
X-6051113Y207177D01*
X-6049950Y213025D01*
X-6049950Y306975D01*
X-6051113Y312823D01*
X-6051575Y313514D01*
X-6052824Y315384D01*
X-6055545Y319455D01*
X-6055545Y319455D01*
X-6055783Y319811D01*
X-6056888Y325366D01*
X-6053741Y330075D01*
X-6050045Y332545D01*
X-6045613Y339177D01*
X-6044708Y343729D01*
X-6041561Y348439D01*
X-6036006Y349543D01*
X-6031297Y346397D01*
G37*
%TD.AperFunction*%
%TA.AperFunction,Conductor*%
G36*
X-5719081Y745839D02*
G01*
X-5716914Y740606D01*
X-5718161Y736495D01*
X-5722534Y729950D01*
X-5727300Y718444D01*
X-5727300Y718443D01*
X-5729730Y706228D01*
X-5729730Y693773D01*
X-5727300Y681557D01*
X-5727300Y681556D01*
X-5722534Y670050D01*
X-5716117Y660446D01*
X-5715614Y659693D01*
X-5706807Y650886D01*
X-5696451Y643966D01*
X-5696450Y643966D01*
X-5696450Y643966D01*
X-5692798Y642454D01*
X-5684943Y639200D01*
X-5672728Y636770D01*
X-5672727Y636770D01*
X-5660272Y636770D01*
X-5660272Y636770D01*
X-5648056Y639200D01*
X-5636549Y643966D01*
X-5626193Y650886D01*
X-5617386Y659693D01*
X-5610466Y670049D01*
X-5609837Y671570D01*
X-5605832Y675574D01*
X-5600168Y675574D01*
X-5596163Y671570D01*
X-5595534Y670050D01*
X-5595534Y670049D01*
X-5589117Y660446D01*
X-5588614Y659693D01*
X-5579807Y650886D01*
X-5569451Y643966D01*
X-5569451Y643966D01*
X-5569450Y643966D01*
X-5565798Y642454D01*
X-5557944Y639200D01*
X-5545728Y636770D01*
X-5545728Y636770D01*
X-5533273Y636770D01*
X-5533272Y636770D01*
X-5521057Y639200D01*
X-5513202Y642454D01*
X-5509550Y643966D01*
X-5509550Y643966D01*
X-5509549Y643966D01*
X-5508335Y644778D01*
X-5502780Y645883D01*
X-5498071Y642737D01*
X-5497891Y642454D01*
X-5491752Y632299D01*
X-5480201Y620748D01*
X-5466220Y612296D01*
X-5450777Y607484D01*
X-5446426Y603858D01*
X-5445914Y598218D01*
X-5448867Y594266D01*
X-5452806Y591634D01*
X-5452807Y591634D01*
X-5461614Y582826D01*
X-5468534Y572471D01*
X-5469163Y570951D01*
X-5473168Y566946D01*
X-5478832Y566946D01*
X-5482837Y570951D01*
X-5483466Y572471D01*
X-5490386Y582826D01*
X-5490386Y582827D01*
X-5499193Y591634D01*
X-5500660Y592614D01*
X-5509550Y598554D01*
X-5521056Y603320D01*
X-5521057Y603320D01*
X-5530260Y605151D01*
X-5533272Y605750D01*
X-5545728Y605750D01*
X-5548077Y605283D01*
X-5557943Y603320D01*
X-5557944Y603320D01*
X-5569450Y598554D01*
X-5579806Y591634D01*
X-5588614Y582826D01*
X-5590533Y579955D01*
X-5593270Y575859D01*
X-5597979Y572712D01*
X-5599423Y572570D01*
X-5801254Y572570D01*
X-5806487Y574737D01*
X-5851395Y619646D01*
X-5858247Y623602D01*
X-5858248Y623602D01*
X-5865890Y625650D01*
X-5865890Y625650D01*
X-5899550Y625650D01*
X-5904783Y627817D01*
X-5906950Y633050D01*
X-5906950Y637550D01*
X-5904783Y642783D01*
X-5899550Y644950D01*
X-5838926Y644950D01*
X-5838926Y644950D01*
X-5831283Y646998D01*
X-5824431Y650954D01*
X-5818836Y656549D01*
X-5729546Y745839D01*
X-5724314Y748006D01*
X-5719081Y745839D01*
G37*
%TD.AperFunction*%
%TD*%
M02*
