M48
; DRILL file {KiCad 9.0.0} date 2025-03-31T12:11:15+0100
; FORMAT={-:-/ absolute / metric / decimal}
; #@! TF.CreationDate,2025-03-31T12:11:15+01:00
; #@! TF.GenerationSoftware,Kicad,Pcbnew,9.0.0
; #@! TF.FileFunction,Plated,1,2,PTH
FMAT,2
METRIC
; #@! TA.AperFunction,Plated,PTH,ViaDrill
T1C0.300
; #@! TA.AperFunction,Plated,PTH,ComponentDrill
T2C0.559
; #@! TA.AperFunction,Plated,PTH,ComponentDrill
T3C1.500
%
G90
G05
T1
X-62.5Y6.5
X-62.0Y2.0
X-62.0Y-2.0
X-62.0Y-5.75
X-58.6Y0.3
X-57.875Y6.158
X-57.7Y-6.0
X-57.0Y-1.5
X-55.75Y-6.75
X-55.5Y-4.5
T2
X-56.665Y7.0
X-55.395Y7.0
X-55.395Y5.425
X-54.125Y7.0
X-54.125Y5.425
T3
X-47.81Y2.54
X-41.46Y5.08
X-27.81Y2.54
X-21.46Y5.08
X-7.81Y2.54
X-1.46Y5.08
X12.19Y2.54
X18.54Y5.08
X32.19Y2.54
X38.54Y5.08
X52.19Y2.54
X58.54Y5.08
M30
