%TF.GenerationSoftware,KiCad,Pcbnew,8.0.8*%
%TF.CreationDate,2025-01-29T17:02:43+00:00*%
%TF.ProjectId,ec30_2x3_l_mh_0.1,65633330-5f32-4783-935f-6c5f6d685f30,v0.1*%
%TF.SameCoordinates,PX8d24d00PY36d6160*%
%TF.FileFunction,Legend,Bot*%
%TF.FilePolarity,Positive*%
%FSLAX46Y46*%
G04 Gerber Fmt 4.6, Leading zero omitted, Abs format (unit mm)*
G04 Created by KiCad (PCBNEW 8.0.8) date 2025-01-29 17:02:43*
%MOMM*%
%LPD*%
G01*
G04 APERTURE LIST*
%ADD10C,0.010000*%
G04 APERTURE END LIST*
D10*
%TO.C,MH3*%
X-6928506Y-13363138D02*
X-6911772Y-13369471D01*
X-6896147Y-13380908D01*
X-6880922Y-13398107D01*
X-6865387Y-13421729D01*
X-6848836Y-13452432D01*
X-6848679Y-13452743D01*
X-6791282Y-13574332D01*
X-6737855Y-13701980D01*
X-6688736Y-13834690D01*
X-6644262Y-13971466D01*
X-6604771Y-14111310D01*
X-6570599Y-14253224D01*
X-6558186Y-14311864D01*
X-6547379Y-14371341D01*
X-6540466Y-14424475D01*
X-6537409Y-14471817D01*
X-6538170Y-14513920D01*
X-6542040Y-14547507D01*
X-6556533Y-14610942D01*
X-6577909Y-14670724D01*
X-6605930Y-14726502D01*
X-6640355Y-14777928D01*
X-6680946Y-14824650D01*
X-6727463Y-14866318D01*
X-6779668Y-14902583D01*
X-6787978Y-14907537D01*
X-6840693Y-14933832D01*
X-6896925Y-14953542D01*
X-6955607Y-14966561D01*
X-7015670Y-14972782D01*
X-7076044Y-14972098D01*
X-7135662Y-14964403D01*
X-7193456Y-14949591D01*
X-7197273Y-14948329D01*
X-7253331Y-14925415D01*
X-7306281Y-14895615D01*
X-7355436Y-14859600D01*
X-7400110Y-14818037D01*
X-7439617Y-14771594D01*
X-7473270Y-14720941D01*
X-7500383Y-14666745D01*
X-7509057Y-14644736D01*
X-7513607Y-14630447D01*
X-7519138Y-14610225D01*
X-7525185Y-14585941D01*
X-7531282Y-14559465D01*
X-7536963Y-14532671D01*
X-7537051Y-14532232D01*
X-7558678Y-14432503D01*
X-7582269Y-14338735D01*
X-7608385Y-14249080D01*
X-7637586Y-14161685D01*
X-7670432Y-14074702D01*
X-7689984Y-14027005D01*
X-7703664Y-13992497D01*
X-7713040Y-13963665D01*
X-7718165Y-13939548D01*
X-7719093Y-13919190D01*
X-7715878Y-13901631D01*
X-7708573Y-13885911D01*
X-7698622Y-13872631D01*
X-7689672Y-13863366D01*
X-7679962Y-13855700D01*
X-7668106Y-13848964D01*
X-7652714Y-13842488D01*
X-7632401Y-13835601D01*
X-7605778Y-13827634D01*
X-7604892Y-13827378D01*
X-7548101Y-13809694D01*
X-7496370Y-13790649D01*
X-7446827Y-13769122D01*
X-7413766Y-13752928D01*
X-7338632Y-13710190D01*
X-7267054Y-13660666D01*
X-7199758Y-13604986D01*
X-7137473Y-13543782D01*
X-7080926Y-13477685D01*
X-7053164Y-13440364D01*
X-7031231Y-13411566D01*
X-7010897Y-13389815D01*
X-6991436Y-13374570D01*
X-6972119Y-13365290D01*
X-6952222Y-13361431D01*
X-6947057Y-13361250D01*
X-6928506Y-13363138D01*
G36*
X-6928506Y-13363138D02*
G01*
X-6911772Y-13369471D01*
X-6896147Y-13380908D01*
X-6880922Y-13398107D01*
X-6865387Y-13421729D01*
X-6848836Y-13452432D01*
X-6848679Y-13452743D01*
X-6791282Y-13574332D01*
X-6737855Y-13701980D01*
X-6688736Y-13834690D01*
X-6644262Y-13971466D01*
X-6604771Y-14111310D01*
X-6570599Y-14253224D01*
X-6558186Y-14311864D01*
X-6547379Y-14371341D01*
X-6540466Y-14424475D01*
X-6537409Y-14471817D01*
X-6538170Y-14513920D01*
X-6542040Y-14547507D01*
X-6556533Y-14610942D01*
X-6577909Y-14670724D01*
X-6605930Y-14726502D01*
X-6640355Y-14777928D01*
X-6680946Y-14824650D01*
X-6727463Y-14866318D01*
X-6779668Y-14902583D01*
X-6787978Y-14907537D01*
X-6840693Y-14933832D01*
X-6896925Y-14953542D01*
X-6955607Y-14966561D01*
X-7015670Y-14972782D01*
X-7076044Y-14972098D01*
X-7135662Y-14964403D01*
X-7193456Y-14949591D01*
X-7197273Y-14948329D01*
X-7253331Y-14925415D01*
X-7306281Y-14895615D01*
X-7355436Y-14859600D01*
X-7400110Y-14818037D01*
X-7439617Y-14771594D01*
X-7473270Y-14720941D01*
X-7500383Y-14666745D01*
X-7509057Y-14644736D01*
X-7513607Y-14630447D01*
X-7519138Y-14610225D01*
X-7525185Y-14585941D01*
X-7531282Y-14559465D01*
X-7536963Y-14532671D01*
X-7537051Y-14532232D01*
X-7558678Y-14432503D01*
X-7582269Y-14338735D01*
X-7608385Y-14249080D01*
X-7637586Y-14161685D01*
X-7670432Y-14074702D01*
X-7689984Y-14027005D01*
X-7703664Y-13992497D01*
X-7713040Y-13963665D01*
X-7718165Y-13939548D01*
X-7719093Y-13919190D01*
X-7715878Y-13901631D01*
X-7708573Y-13885911D01*
X-7698622Y-13872631D01*
X-7689672Y-13863366D01*
X-7679962Y-13855700D01*
X-7668106Y-13848964D01*
X-7652714Y-13842488D01*
X-7632401Y-13835601D01*
X-7605778Y-13827634D01*
X-7604892Y-13827378D01*
X-7548101Y-13809694D01*
X-7496370Y-13790649D01*
X-7446827Y-13769122D01*
X-7413766Y-13752928D01*
X-7338632Y-13710190D01*
X-7267054Y-13660666D01*
X-7199758Y-13604986D01*
X-7137473Y-13543782D01*
X-7080926Y-13477685D01*
X-7053164Y-13440364D01*
X-7031231Y-13411566D01*
X-7010897Y-13389815D01*
X-6991436Y-13374570D01*
X-6972119Y-13365290D01*
X-6952222Y-13361431D01*
X-6947057Y-13361250D01*
X-6928506Y-13363138D01*
G37*
X-9469382Y-11539537D02*
X-9447697Y-11539914D01*
X-9426734Y-11540918D01*
X-9405491Y-11542711D01*
X-9382963Y-11545454D01*
X-9358146Y-11549309D01*
X-9330036Y-11554438D01*
X-9297629Y-11561001D01*
X-9259922Y-11569161D01*
X-9215909Y-11579080D01*
X-9197523Y-11583298D01*
X-9084110Y-11611811D01*
X-8967931Y-11645606D01*
X-8850843Y-11684017D01*
X-8734702Y-11726377D01*
X-8621365Y-11772019D01*
X-8512689Y-11820278D01*
X-8441520Y-11854688D01*
X-8413993Y-11869173D01*
X-8392962Y-11881967D01*
X-8377390Y-11893881D01*
X-8366238Y-11905723D01*
X-8358469Y-11918303D01*
X-8357596Y-11920160D01*
X-8351621Y-11938194D01*
X-8351673Y-11955018D01*
X-8355628Y-11969259D01*
X-8366482Y-11988971D01*
X-8384803Y-12009218D01*
X-8410183Y-12029563D01*
X-8414969Y-12032864D01*
X-8488201Y-12086938D01*
X-8555669Y-12146142D01*
X-8617131Y-12210183D01*
X-8672347Y-12278769D01*
X-8721073Y-12351605D01*
X-8763068Y-12428401D01*
X-8788576Y-12484951D01*
X-8800921Y-12516142D01*
X-8812141Y-12547535D01*
X-8822891Y-12581156D01*
X-8833828Y-12619033D01*
X-8842684Y-12651971D01*
X-8847996Y-12670214D01*
X-8853411Y-12683262D01*
X-8860250Y-12693763D01*
X-8867703Y-12702184D01*
X-8883266Y-12715623D01*
X-8899653Y-12723702D01*
X-8917964Y-12726465D01*
X-8939296Y-12723957D01*
X-8964748Y-12716222D01*
X-8987179Y-12707027D01*
X-9107698Y-12657583D01*
X-9231987Y-12614301D01*
X-9360629Y-12577001D01*
X-9494206Y-12545501D01*
X-9524887Y-12539217D01*
X-9559570Y-12532116D01*
X-9587951Y-12525804D01*
X-9611570Y-12519832D01*
X-9631964Y-12513755D01*
X-9650673Y-12507126D01*
X-9669235Y-12499496D01*
X-9683073Y-12493272D01*
X-9736054Y-12464533D01*
X-9785121Y-12429388D01*
X-9829705Y-12388566D01*
X-9869233Y-12342795D01*
X-9903134Y-12292803D01*
X-9930837Y-12239319D01*
X-9951771Y-12183072D01*
X-9963418Y-12135752D01*
X-9971542Y-12072993D01*
X-9972079Y-12011364D01*
X-9965355Y-11951349D01*
X-9951696Y-11893433D01*
X-9931426Y-11838104D01*
X-9904871Y-11785845D01*
X-9872355Y-11737142D01*
X-9834205Y-11692481D01*
X-9790745Y-11652346D01*
X-9742300Y-11617225D01*
X-9689196Y-11587601D01*
X-9631758Y-11563960D01*
X-9570311Y-11546788D01*
X-9568601Y-11546419D01*
X-9550919Y-11543237D01*
X-9531677Y-11541113D01*
X-9508978Y-11539916D01*
X-9480930Y-11539514D01*
X-9469382Y-11539537D01*
G36*
X-9469382Y-11539537D02*
G01*
X-9447697Y-11539914D01*
X-9426734Y-11540918D01*
X-9405491Y-11542711D01*
X-9382963Y-11545454D01*
X-9358146Y-11549309D01*
X-9330036Y-11554438D01*
X-9297629Y-11561001D01*
X-9259922Y-11569161D01*
X-9215909Y-11579080D01*
X-9197523Y-11583298D01*
X-9084110Y-11611811D01*
X-8967931Y-11645606D01*
X-8850843Y-11684017D01*
X-8734702Y-11726377D01*
X-8621365Y-11772019D01*
X-8512689Y-11820278D01*
X-8441520Y-11854688D01*
X-8413993Y-11869173D01*
X-8392962Y-11881967D01*
X-8377390Y-11893881D01*
X-8366238Y-11905723D01*
X-8358469Y-11918303D01*
X-8357596Y-11920160D01*
X-8351621Y-11938194D01*
X-8351673Y-11955018D01*
X-8355628Y-11969259D01*
X-8366482Y-11988971D01*
X-8384803Y-12009218D01*
X-8410183Y-12029563D01*
X-8414969Y-12032864D01*
X-8488201Y-12086938D01*
X-8555669Y-12146142D01*
X-8617131Y-12210183D01*
X-8672347Y-12278769D01*
X-8721073Y-12351605D01*
X-8763068Y-12428401D01*
X-8788576Y-12484951D01*
X-8800921Y-12516142D01*
X-8812141Y-12547535D01*
X-8822891Y-12581156D01*
X-8833828Y-12619033D01*
X-8842684Y-12651971D01*
X-8847996Y-12670214D01*
X-8853411Y-12683262D01*
X-8860250Y-12693763D01*
X-8867703Y-12702184D01*
X-8883266Y-12715623D01*
X-8899653Y-12723702D01*
X-8917964Y-12726465D01*
X-8939296Y-12723957D01*
X-8964748Y-12716222D01*
X-8987179Y-12707027D01*
X-9107698Y-12657583D01*
X-9231987Y-12614301D01*
X-9360629Y-12577001D01*
X-9494206Y-12545501D01*
X-9524887Y-12539217D01*
X-9559570Y-12532116D01*
X-9587951Y-12525804D01*
X-9611570Y-12519832D01*
X-9631964Y-12513755D01*
X-9650673Y-12507126D01*
X-9669235Y-12499496D01*
X-9683073Y-12493272D01*
X-9736054Y-12464533D01*
X-9785121Y-12429388D01*
X-9829705Y-12388566D01*
X-9869233Y-12342795D01*
X-9903134Y-12292803D01*
X-9930837Y-12239319D01*
X-9951771Y-12183072D01*
X-9963418Y-12135752D01*
X-9971542Y-12072993D01*
X-9972079Y-12011364D01*
X-9965355Y-11951349D01*
X-9951696Y-11893433D01*
X-9931426Y-11838104D01*
X-9904871Y-11785845D01*
X-9872355Y-11737142D01*
X-9834205Y-11692481D01*
X-9790745Y-11652346D01*
X-9742300Y-11617225D01*
X-9689196Y-11587601D01*
X-9631758Y-11563960D01*
X-9570311Y-11546788D01*
X-9568601Y-11546419D01*
X-9550919Y-11543237D01*
X-9531677Y-11541113D01*
X-9508978Y-11539916D01*
X-9480930Y-11539514D01*
X-9469382Y-11539537D01*
G37*
X-8113706Y-12496944D02*
X-8103689Y-12499701D01*
X-8097802Y-12501893D01*
X-8091812Y-12504868D01*
X-8085087Y-12509183D01*
X-8076996Y-12515397D01*
X-8066906Y-12524068D01*
X-8054186Y-12535754D01*
X-8038203Y-12551014D01*
X-8018325Y-12570404D01*
X-7993921Y-12594483D01*
X-7974157Y-12614080D01*
X-7866011Y-12721433D01*
X-7759845Y-12616232D01*
X-7731277Y-12588145D01*
X-7705522Y-12563269D01*
X-7683075Y-12542058D01*
X-7664428Y-12524971D01*
X-7650076Y-12512464D01*
X-7640513Y-12504993D01*
X-7637804Y-12503347D01*
X-7619653Y-12497707D01*
X-7597647Y-12495447D01*
X-7574938Y-12496528D01*
X-7554679Y-12500911D01*
X-7546147Y-12504489D01*
X-7526917Y-12518143D01*
X-7510139Y-12536514D01*
X-7498889Y-12555827D01*
X-7494821Y-12571697D01*
X-7493195Y-12591689D01*
X-7494004Y-12612373D01*
X-7497238Y-12630321D01*
X-7499093Y-12635689D01*
X-7504005Y-12643205D01*
X-7514648Y-12656014D01*
X-7530930Y-12674015D01*
X-7552756Y-12697108D01*
X-7580035Y-12725192D01*
X-7612673Y-12758167D01*
X-7613064Y-12758559D01*
X-7720887Y-12866673D01*
X-7615058Y-12972974D01*
X-7584116Y-13004238D01*
X-7558609Y-13030431D01*
X-7538195Y-13051925D01*
X-7522533Y-13069093D01*
X-7511280Y-13082307D01*
X-7504096Y-13091939D01*
X-7501173Y-13097031D01*
X-7494104Y-13121344D01*
X-7493008Y-13147931D01*
X-7497820Y-13173913D01*
X-7503224Y-13187437D01*
X-7518879Y-13210652D01*
X-7539503Y-13227874D01*
X-7562126Y-13237933D01*
X-7579823Y-13242314D01*
X-7594838Y-13243348D01*
X-7610844Y-13241009D01*
X-7624185Y-13237471D01*
X-7629927Y-13235599D01*
X-7635561Y-13233123D01*
X-7641713Y-13229495D01*
X-7649007Y-13224164D01*
X-7658067Y-13216580D01*
X-7669517Y-13206195D01*
X-7683982Y-13192456D01*
X-7702086Y-13174816D01*
X-7724453Y-13152724D01*
X-7751707Y-13125630D01*
X-7755874Y-13121480D01*
X-7866007Y-13011789D01*
X-7976140Y-13121480D01*
X-8004116Y-13149305D01*
X-8027118Y-13172053D01*
X-8045771Y-13190273D01*
X-8060700Y-13204516D01*
X-8072528Y-13215330D01*
X-8081879Y-13223266D01*
X-8089379Y-13228875D01*
X-8095651Y-13232705D01*
X-8101320Y-13235306D01*
X-8107010Y-13237229D01*
X-8107829Y-13237471D01*
X-8126610Y-13242124D01*
X-8141901Y-13243383D01*
X-8157373Y-13241278D01*
X-8169888Y-13237933D01*
X-8194545Y-13226692D01*
X-8214425Y-13209602D01*
X-8228856Y-13187607D01*
X-8237166Y-13161652D01*
X-8238982Y-13140798D01*
X-8238748Y-13129644D01*
X-8237797Y-13119682D01*
X-8235633Y-13110230D01*
X-8231761Y-13100607D01*
X-8225687Y-13090132D01*
X-8216914Y-13078124D01*
X-8204948Y-13063903D01*
X-8189294Y-13046786D01*
X-8169456Y-13026095D01*
X-8144940Y-13001146D01*
X-8116956Y-12972974D01*
X-8011127Y-12866673D01*
X-8118789Y-12758559D01*
X-8151189Y-12725807D01*
X-8177947Y-12698278D01*
X-8199233Y-12675790D01*
X-8215216Y-12658158D01*
X-8226067Y-12645200D01*
X-8231953Y-12636730D01*
X-8232760Y-12635077D01*
X-8238627Y-12611156D01*
X-8238409Y-12585114D01*
X-8232552Y-12559340D01*
X-8221501Y-12536224D01*
X-8212046Y-12524073D01*
X-8191856Y-12508280D01*
X-8167562Y-12498230D01*
X-8140924Y-12494320D01*
X-8113706Y-12496944D01*
G36*
X-8113706Y-12496944D02*
G01*
X-8103689Y-12499701D01*
X-8097802Y-12501893D01*
X-8091812Y-12504868D01*
X-8085087Y-12509183D01*
X-8076996Y-12515397D01*
X-8066906Y-12524068D01*
X-8054186Y-12535754D01*
X-8038203Y-12551014D01*
X-8018325Y-12570404D01*
X-7993921Y-12594483D01*
X-7974157Y-12614080D01*
X-7866011Y-12721433D01*
X-7759845Y-12616232D01*
X-7731277Y-12588145D01*
X-7705522Y-12563269D01*
X-7683075Y-12542058D01*
X-7664428Y-12524971D01*
X-7650076Y-12512464D01*
X-7640513Y-12504993D01*
X-7637804Y-12503347D01*
X-7619653Y-12497707D01*
X-7597647Y-12495447D01*
X-7574938Y-12496528D01*
X-7554679Y-12500911D01*
X-7546147Y-12504489D01*
X-7526917Y-12518143D01*
X-7510139Y-12536514D01*
X-7498889Y-12555827D01*
X-7494821Y-12571697D01*
X-7493195Y-12591689D01*
X-7494004Y-12612373D01*
X-7497238Y-12630321D01*
X-7499093Y-12635689D01*
X-7504005Y-12643205D01*
X-7514648Y-12656014D01*
X-7530930Y-12674015D01*
X-7552756Y-12697108D01*
X-7580035Y-12725192D01*
X-7612673Y-12758167D01*
X-7613064Y-12758559D01*
X-7720887Y-12866673D01*
X-7615058Y-12972974D01*
X-7584116Y-13004238D01*
X-7558609Y-13030431D01*
X-7538195Y-13051925D01*
X-7522533Y-13069093D01*
X-7511280Y-13082307D01*
X-7504096Y-13091939D01*
X-7501173Y-13097031D01*
X-7494104Y-13121344D01*
X-7493008Y-13147931D01*
X-7497820Y-13173913D01*
X-7503224Y-13187437D01*
X-7518879Y-13210652D01*
X-7539503Y-13227874D01*
X-7562126Y-13237933D01*
X-7579823Y-13242314D01*
X-7594838Y-13243348D01*
X-7610844Y-13241009D01*
X-7624185Y-13237471D01*
X-7629927Y-13235599D01*
X-7635561Y-13233123D01*
X-7641713Y-13229495D01*
X-7649007Y-13224164D01*
X-7658067Y-13216580D01*
X-7669517Y-13206195D01*
X-7683982Y-13192456D01*
X-7702086Y-13174816D01*
X-7724453Y-13152724D01*
X-7751707Y-13125630D01*
X-7755874Y-13121480D01*
X-7866007Y-13011789D01*
X-7976140Y-13121480D01*
X-8004116Y-13149305D01*
X-8027118Y-13172053D01*
X-8045771Y-13190273D01*
X-8060700Y-13204516D01*
X-8072528Y-13215330D01*
X-8081879Y-13223266D01*
X-8089379Y-13228875D01*
X-8095651Y-13232705D01*
X-8101320Y-13235306D01*
X-8107010Y-13237229D01*
X-8107829Y-13237471D01*
X-8126610Y-13242124D01*
X-8141901Y-13243383D01*
X-8157373Y-13241278D01*
X-8169888Y-13237933D01*
X-8194545Y-13226692D01*
X-8214425Y-13209602D01*
X-8228856Y-13187607D01*
X-8237166Y-13161652D01*
X-8238982Y-13140798D01*
X-8238748Y-13129644D01*
X-8237797Y-13119682D01*
X-8235633Y-13110230D01*
X-8231761Y-13100607D01*
X-8225687Y-13090132D01*
X-8216914Y-13078124D01*
X-8204948Y-13063903D01*
X-8189294Y-13046786D01*
X-8169456Y-13026095D01*
X-8144940Y-13001146D01*
X-8116956Y-12972974D01*
X-8011127Y-12866673D01*
X-8118789Y-12758559D01*
X-8151189Y-12725807D01*
X-8177947Y-12698278D01*
X-8199233Y-12675790D01*
X-8215216Y-12658158D01*
X-8226067Y-12645200D01*
X-8231953Y-12636730D01*
X-8232760Y-12635077D01*
X-8238627Y-12611156D01*
X-8238409Y-12585114D01*
X-8232552Y-12559340D01*
X-8221501Y-12536224D01*
X-8212046Y-12524073D01*
X-8191856Y-12508280D01*
X-8167562Y-12498230D01*
X-8140924Y-12494320D01*
X-8113706Y-12496944D01*
G37*
%TO.C,MH4*%
X9512315Y-11537096D02*
X9545902Y-11540966D01*
X9609337Y-11555459D01*
X9669119Y-11576835D01*
X9724897Y-11604856D01*
X9776323Y-11639281D01*
X9823045Y-11679872D01*
X9864713Y-11726389D01*
X9900978Y-11778594D01*
X9905932Y-11786904D01*
X9932227Y-11839619D01*
X9951937Y-11895851D01*
X9964956Y-11954533D01*
X9971177Y-12014596D01*
X9970493Y-12074970D01*
X9962798Y-12134588D01*
X9947986Y-12192382D01*
X9946724Y-12196199D01*
X9923810Y-12252257D01*
X9894010Y-12305207D01*
X9857995Y-12354362D01*
X9816432Y-12399036D01*
X9769989Y-12438543D01*
X9719336Y-12472196D01*
X9665140Y-12499309D01*
X9643131Y-12507983D01*
X9628842Y-12512533D01*
X9608620Y-12518064D01*
X9584336Y-12524111D01*
X9557860Y-12530208D01*
X9531066Y-12535889D01*
X9530627Y-12535977D01*
X9430898Y-12557604D01*
X9337130Y-12581195D01*
X9247475Y-12607311D01*
X9160080Y-12636512D01*
X9073097Y-12669358D01*
X9025400Y-12688910D01*
X8990892Y-12702590D01*
X8962060Y-12711966D01*
X8937943Y-12717091D01*
X8917585Y-12718019D01*
X8900026Y-12714804D01*
X8884306Y-12707499D01*
X8871026Y-12697548D01*
X8861761Y-12688598D01*
X8854095Y-12678888D01*
X8847359Y-12667032D01*
X8840883Y-12651640D01*
X8833996Y-12631327D01*
X8826029Y-12604704D01*
X8825773Y-12603818D01*
X8808089Y-12547027D01*
X8789044Y-12495296D01*
X8767517Y-12445753D01*
X8751323Y-12412692D01*
X8708585Y-12337558D01*
X8659061Y-12265980D01*
X8603381Y-12198684D01*
X8542177Y-12136399D01*
X8476080Y-12079852D01*
X8438759Y-12052090D01*
X8409961Y-12030157D01*
X8388210Y-12009823D01*
X8372965Y-11990362D01*
X8363685Y-11971045D01*
X8359826Y-11951148D01*
X8359645Y-11945983D01*
X8361533Y-11927432D01*
X8367866Y-11910698D01*
X8379303Y-11895073D01*
X8396502Y-11879848D01*
X8420124Y-11864313D01*
X8450827Y-11847762D01*
X8451138Y-11847605D01*
X8572727Y-11790208D01*
X8700375Y-11736781D01*
X8833085Y-11687662D01*
X8969861Y-11643188D01*
X9109705Y-11603697D01*
X9251619Y-11569525D01*
X9310259Y-11557112D01*
X9369736Y-11546305D01*
X9422870Y-11539392D01*
X9470212Y-11536335D01*
X9512315Y-11537096D01*
G36*
X9512315Y-11537096D02*
G01*
X9545902Y-11540966D01*
X9609337Y-11555459D01*
X9669119Y-11576835D01*
X9724897Y-11604856D01*
X9776323Y-11639281D01*
X9823045Y-11679872D01*
X9864713Y-11726389D01*
X9900978Y-11778594D01*
X9905932Y-11786904D01*
X9932227Y-11839619D01*
X9951937Y-11895851D01*
X9964956Y-11954533D01*
X9971177Y-12014596D01*
X9970493Y-12074970D01*
X9962798Y-12134588D01*
X9947986Y-12192382D01*
X9946724Y-12196199D01*
X9923810Y-12252257D01*
X9894010Y-12305207D01*
X9857995Y-12354362D01*
X9816432Y-12399036D01*
X9769989Y-12438543D01*
X9719336Y-12472196D01*
X9665140Y-12499309D01*
X9643131Y-12507983D01*
X9628842Y-12512533D01*
X9608620Y-12518064D01*
X9584336Y-12524111D01*
X9557860Y-12530208D01*
X9531066Y-12535889D01*
X9530627Y-12535977D01*
X9430898Y-12557604D01*
X9337130Y-12581195D01*
X9247475Y-12607311D01*
X9160080Y-12636512D01*
X9073097Y-12669358D01*
X9025400Y-12688910D01*
X8990892Y-12702590D01*
X8962060Y-12711966D01*
X8937943Y-12717091D01*
X8917585Y-12718019D01*
X8900026Y-12714804D01*
X8884306Y-12707499D01*
X8871026Y-12697548D01*
X8861761Y-12688598D01*
X8854095Y-12678888D01*
X8847359Y-12667032D01*
X8840883Y-12651640D01*
X8833996Y-12631327D01*
X8826029Y-12604704D01*
X8825773Y-12603818D01*
X8808089Y-12547027D01*
X8789044Y-12495296D01*
X8767517Y-12445753D01*
X8751323Y-12412692D01*
X8708585Y-12337558D01*
X8659061Y-12265980D01*
X8603381Y-12198684D01*
X8542177Y-12136399D01*
X8476080Y-12079852D01*
X8438759Y-12052090D01*
X8409961Y-12030157D01*
X8388210Y-12009823D01*
X8372965Y-11990362D01*
X8363685Y-11971045D01*
X8359826Y-11951148D01*
X8359645Y-11945983D01*
X8361533Y-11927432D01*
X8367866Y-11910698D01*
X8379303Y-11895073D01*
X8396502Y-11879848D01*
X8420124Y-11864313D01*
X8450827Y-11847762D01*
X8451138Y-11847605D01*
X8572727Y-11790208D01*
X8700375Y-11736781D01*
X8833085Y-11687662D01*
X8969861Y-11643188D01*
X9109705Y-11603697D01*
X9251619Y-11569525D01*
X9310259Y-11557112D01*
X9369736Y-11546305D01*
X9422870Y-11539392D01*
X9470212Y-11536335D01*
X9512315Y-11537096D01*
G37*
X6953413Y-13350599D02*
X6967654Y-13354554D01*
X6987366Y-13365408D01*
X7007613Y-13383729D01*
X7027958Y-13409109D01*
X7031259Y-13413895D01*
X7085333Y-13487127D01*
X7144537Y-13554595D01*
X7208578Y-13616057D01*
X7277164Y-13671273D01*
X7350000Y-13719999D01*
X7426796Y-13761994D01*
X7483346Y-13787502D01*
X7514537Y-13799847D01*
X7545930Y-13811067D01*
X7579551Y-13821817D01*
X7617428Y-13832754D01*
X7650366Y-13841610D01*
X7668609Y-13846922D01*
X7681657Y-13852337D01*
X7692158Y-13859176D01*
X7700579Y-13866629D01*
X7714018Y-13882192D01*
X7722097Y-13898579D01*
X7724860Y-13916890D01*
X7722352Y-13938222D01*
X7714617Y-13963674D01*
X7705422Y-13986105D01*
X7655978Y-14106624D01*
X7612696Y-14230913D01*
X7575396Y-14359555D01*
X7543896Y-14493132D01*
X7537612Y-14523813D01*
X7530511Y-14558496D01*
X7524199Y-14586877D01*
X7518227Y-14610496D01*
X7512150Y-14630890D01*
X7505521Y-14649599D01*
X7497891Y-14668161D01*
X7491667Y-14681999D01*
X7462928Y-14734980D01*
X7427783Y-14784047D01*
X7386961Y-14828631D01*
X7341190Y-14868159D01*
X7291198Y-14902060D01*
X7237714Y-14929763D01*
X7181467Y-14950697D01*
X7134147Y-14962344D01*
X7071388Y-14970468D01*
X7009759Y-14971005D01*
X6949744Y-14964281D01*
X6891828Y-14950622D01*
X6836499Y-14930352D01*
X6784240Y-14903797D01*
X6735537Y-14871281D01*
X6690876Y-14833131D01*
X6650741Y-14789671D01*
X6615620Y-14741226D01*
X6585996Y-14688122D01*
X6562355Y-14630684D01*
X6545183Y-14569237D01*
X6544814Y-14567527D01*
X6541632Y-14549845D01*
X6539508Y-14530603D01*
X6538311Y-14507904D01*
X6537909Y-14479856D01*
X6537932Y-14468308D01*
X6538309Y-14446623D01*
X6539313Y-14425660D01*
X6541106Y-14404417D01*
X6543849Y-14381889D01*
X6547704Y-14357072D01*
X6552833Y-14328962D01*
X6559396Y-14296555D01*
X6567556Y-14258848D01*
X6577475Y-14214835D01*
X6581693Y-14196449D01*
X6610206Y-14083036D01*
X6644001Y-13966857D01*
X6682412Y-13849769D01*
X6724772Y-13733628D01*
X6770414Y-13620291D01*
X6818673Y-13511615D01*
X6853083Y-13440446D01*
X6867568Y-13412919D01*
X6880362Y-13391888D01*
X6892276Y-13376316D01*
X6904118Y-13365164D01*
X6916698Y-13357395D01*
X6918555Y-13356522D01*
X6936589Y-13350547D01*
X6953413Y-13350599D01*
G36*
X6953413Y-13350599D02*
G01*
X6967654Y-13354554D01*
X6987366Y-13365408D01*
X7007613Y-13383729D01*
X7027958Y-13409109D01*
X7031259Y-13413895D01*
X7085333Y-13487127D01*
X7144537Y-13554595D01*
X7208578Y-13616057D01*
X7277164Y-13671273D01*
X7350000Y-13719999D01*
X7426796Y-13761994D01*
X7483346Y-13787502D01*
X7514537Y-13799847D01*
X7545930Y-13811067D01*
X7579551Y-13821817D01*
X7617428Y-13832754D01*
X7650366Y-13841610D01*
X7668609Y-13846922D01*
X7681657Y-13852337D01*
X7692158Y-13859176D01*
X7700579Y-13866629D01*
X7714018Y-13882192D01*
X7722097Y-13898579D01*
X7724860Y-13916890D01*
X7722352Y-13938222D01*
X7714617Y-13963674D01*
X7705422Y-13986105D01*
X7655978Y-14106624D01*
X7612696Y-14230913D01*
X7575396Y-14359555D01*
X7543896Y-14493132D01*
X7537612Y-14523813D01*
X7530511Y-14558496D01*
X7524199Y-14586877D01*
X7518227Y-14610496D01*
X7512150Y-14630890D01*
X7505521Y-14649599D01*
X7497891Y-14668161D01*
X7491667Y-14681999D01*
X7462928Y-14734980D01*
X7427783Y-14784047D01*
X7386961Y-14828631D01*
X7341190Y-14868159D01*
X7291198Y-14902060D01*
X7237714Y-14929763D01*
X7181467Y-14950697D01*
X7134147Y-14962344D01*
X7071388Y-14970468D01*
X7009759Y-14971005D01*
X6949744Y-14964281D01*
X6891828Y-14950622D01*
X6836499Y-14930352D01*
X6784240Y-14903797D01*
X6735537Y-14871281D01*
X6690876Y-14833131D01*
X6650741Y-14789671D01*
X6615620Y-14741226D01*
X6585996Y-14688122D01*
X6562355Y-14630684D01*
X6545183Y-14569237D01*
X6544814Y-14567527D01*
X6541632Y-14549845D01*
X6539508Y-14530603D01*
X6538311Y-14507904D01*
X6537909Y-14479856D01*
X6537932Y-14468308D01*
X6538309Y-14446623D01*
X6539313Y-14425660D01*
X6541106Y-14404417D01*
X6543849Y-14381889D01*
X6547704Y-14357072D01*
X6552833Y-14328962D01*
X6559396Y-14296555D01*
X6567556Y-14258848D01*
X6577475Y-14214835D01*
X6581693Y-14196449D01*
X6610206Y-14083036D01*
X6644001Y-13966857D01*
X6682412Y-13849769D01*
X6724772Y-13733628D01*
X6770414Y-13620291D01*
X6818673Y-13511615D01*
X6853083Y-13440446D01*
X6867568Y-13412919D01*
X6880362Y-13391888D01*
X6892276Y-13376316D01*
X6904118Y-13365164D01*
X6916698Y-13357395D01*
X6918555Y-13356522D01*
X6936589Y-13350547D01*
X6953413Y-13350599D01*
G37*
X8162030Y-12467280D02*
X8171010Y-12469281D01*
X8201038Y-12481521D01*
X8226016Y-12499423D01*
X8245381Y-12522200D01*
X8258566Y-12549064D01*
X8265008Y-12579227D01*
X8265280Y-12600726D01*
X8264812Y-12608241D01*
X8264213Y-12615108D01*
X8263171Y-12621687D01*
X8261374Y-12628333D01*
X8258508Y-12635404D01*
X8254261Y-12643257D01*
X8248322Y-12652249D01*
X8240377Y-12662738D01*
X8230113Y-12675081D01*
X8217220Y-12689634D01*
X8201383Y-12706755D01*
X8182291Y-12726802D01*
X8159631Y-12750131D01*
X8133091Y-12777099D01*
X8102358Y-12808064D01*
X8067119Y-12843383D01*
X8027063Y-12883414D01*
X7981877Y-12928512D01*
X7955569Y-12954763D01*
X7909008Y-13001216D01*
X7867712Y-13042383D01*
X7831336Y-13078591D01*
X7799534Y-13110171D01*
X7771962Y-13137449D01*
X7748274Y-13160755D01*
X7728124Y-13180416D01*
X7711168Y-13196762D01*
X7697060Y-13210120D01*
X7685454Y-13220819D01*
X7676005Y-13229188D01*
X7668368Y-13235554D01*
X7662198Y-13240247D01*
X7657149Y-13243594D01*
X7652875Y-13245925D01*
X7649033Y-13247566D01*
X7646855Y-13248336D01*
X7615323Y-13255056D01*
X7584413Y-13254451D01*
X7555192Y-13246918D01*
X7528724Y-13232857D01*
X7506076Y-13212666D01*
X7489876Y-13189652D01*
X7484291Y-13178838D01*
X7480827Y-13169326D01*
X7478989Y-13158610D01*
X7478277Y-13144187D01*
X7478183Y-13130839D01*
X7478527Y-13111299D01*
X7479840Y-13097117D01*
X7482546Y-13085735D01*
X7487066Y-13074591D01*
X7487682Y-13073292D01*
X7490347Y-13068862D01*
X7495109Y-13062531D01*
X7502260Y-13053996D01*
X7512088Y-13042958D01*
X7524886Y-13029115D01*
X7540944Y-13012164D01*
X7560552Y-12991806D01*
X7584002Y-12967737D01*
X7611583Y-12939658D01*
X7643588Y-12907266D01*
X7680305Y-12870261D01*
X7722027Y-12828340D01*
X7769043Y-12781202D01*
X7779385Y-12770845D01*
X7826159Y-12724028D01*
X7867684Y-12682523D01*
X7904299Y-12646003D01*
X7936345Y-12614143D01*
X7964158Y-12586617D01*
X7988079Y-12563098D01*
X8008447Y-12543261D01*
X8025600Y-12526780D01*
X8039878Y-12513328D01*
X8051620Y-12502580D01*
X8061164Y-12494209D01*
X8068850Y-12487890D01*
X8075016Y-12483297D01*
X8080002Y-12480103D01*
X8083758Y-12478156D01*
X8109322Y-12469631D01*
X8136419Y-12465903D01*
X8162030Y-12467280D01*
G36*
X8162030Y-12467280D02*
G01*
X8171010Y-12469281D01*
X8201038Y-12481521D01*
X8226016Y-12499423D01*
X8245381Y-12522200D01*
X8258566Y-12549064D01*
X8265008Y-12579227D01*
X8265280Y-12600726D01*
X8264812Y-12608241D01*
X8264213Y-12615108D01*
X8263171Y-12621687D01*
X8261374Y-12628333D01*
X8258508Y-12635404D01*
X8254261Y-12643257D01*
X8248322Y-12652249D01*
X8240377Y-12662738D01*
X8230113Y-12675081D01*
X8217220Y-12689634D01*
X8201383Y-12706755D01*
X8182291Y-12726802D01*
X8159631Y-12750131D01*
X8133091Y-12777099D01*
X8102358Y-12808064D01*
X8067119Y-12843383D01*
X8027063Y-12883414D01*
X7981877Y-12928512D01*
X7955569Y-12954763D01*
X7909008Y-13001216D01*
X7867712Y-13042383D01*
X7831336Y-13078591D01*
X7799534Y-13110171D01*
X7771962Y-13137449D01*
X7748274Y-13160755D01*
X7728124Y-13180416D01*
X7711168Y-13196762D01*
X7697060Y-13210120D01*
X7685454Y-13220819D01*
X7676005Y-13229188D01*
X7668368Y-13235554D01*
X7662198Y-13240247D01*
X7657149Y-13243594D01*
X7652875Y-13245925D01*
X7649033Y-13247566D01*
X7646855Y-13248336D01*
X7615323Y-13255056D01*
X7584413Y-13254451D01*
X7555192Y-13246918D01*
X7528724Y-13232857D01*
X7506076Y-13212666D01*
X7489876Y-13189652D01*
X7484291Y-13178838D01*
X7480827Y-13169326D01*
X7478989Y-13158610D01*
X7478277Y-13144187D01*
X7478183Y-13130839D01*
X7478527Y-13111299D01*
X7479840Y-13097117D01*
X7482546Y-13085735D01*
X7487066Y-13074591D01*
X7487682Y-13073292D01*
X7490347Y-13068862D01*
X7495109Y-13062531D01*
X7502260Y-13053996D01*
X7512088Y-13042958D01*
X7524886Y-13029115D01*
X7540944Y-13012164D01*
X7560552Y-12991806D01*
X7584002Y-12967737D01*
X7611583Y-12939658D01*
X7643588Y-12907266D01*
X7680305Y-12870261D01*
X7722027Y-12828340D01*
X7769043Y-12781202D01*
X7779385Y-12770845D01*
X7826159Y-12724028D01*
X7867684Y-12682523D01*
X7904299Y-12646003D01*
X7936345Y-12614143D01*
X7964158Y-12586617D01*
X7988079Y-12563098D01*
X8008447Y-12543261D01*
X8025600Y-12526780D01*
X8039878Y-12513328D01*
X8051620Y-12502580D01*
X8061164Y-12494209D01*
X8068850Y-12487890D01*
X8075016Y-12483297D01*
X8080002Y-12480103D01*
X8083758Y-12478156D01*
X8109322Y-12469631D01*
X8136419Y-12465903D01*
X8162030Y-12467280D01*
G37*
%TO.C,MH2*%
X7075573Y14972893D02*
X7135191Y14965198D01*
X7192985Y14950386D01*
X7196802Y14949124D01*
X7252860Y14926210D01*
X7305810Y14896410D01*
X7354965Y14860395D01*
X7399639Y14818832D01*
X7439146Y14772389D01*
X7472799Y14721736D01*
X7499912Y14667540D01*
X7508586Y14645531D01*
X7513136Y14631242D01*
X7518667Y14611020D01*
X7524714Y14586736D01*
X7530811Y14560260D01*
X7536492Y14533466D01*
X7536580Y14533027D01*
X7558207Y14433298D01*
X7581798Y14339530D01*
X7607914Y14249875D01*
X7637115Y14162480D01*
X7669961Y14075497D01*
X7689513Y14027800D01*
X7703193Y13993292D01*
X7712569Y13964460D01*
X7717694Y13940343D01*
X7718622Y13919985D01*
X7715407Y13902426D01*
X7708102Y13886706D01*
X7698151Y13873426D01*
X7689201Y13864161D01*
X7679491Y13856495D01*
X7667635Y13849759D01*
X7652243Y13843283D01*
X7631930Y13836396D01*
X7605307Y13828429D01*
X7604421Y13828173D01*
X7547630Y13810489D01*
X7495899Y13791444D01*
X7446356Y13769917D01*
X7413295Y13753723D01*
X7338161Y13710985D01*
X7266583Y13661461D01*
X7199287Y13605781D01*
X7137002Y13544577D01*
X7080455Y13478480D01*
X7052693Y13441159D01*
X7030760Y13412361D01*
X7010426Y13390610D01*
X6990965Y13375365D01*
X6971648Y13366085D01*
X6951751Y13362226D01*
X6946586Y13362045D01*
X6928035Y13363933D01*
X6911301Y13370266D01*
X6895676Y13381703D01*
X6880451Y13398902D01*
X6864916Y13422524D01*
X6848365Y13453227D01*
X6848208Y13453538D01*
X6790811Y13575127D01*
X6737384Y13702775D01*
X6688265Y13835485D01*
X6643791Y13972261D01*
X6604300Y14112105D01*
X6570128Y14254019D01*
X6557715Y14312659D01*
X6546908Y14372136D01*
X6539995Y14425270D01*
X6536938Y14472612D01*
X6537699Y14514715D01*
X6541569Y14548302D01*
X6556062Y14611737D01*
X6577438Y14671519D01*
X6605459Y14727297D01*
X6639884Y14778723D01*
X6680475Y14825445D01*
X6726992Y14867113D01*
X6779197Y14903378D01*
X6787507Y14908332D01*
X6840222Y14934627D01*
X6896454Y14954337D01*
X6955136Y14967356D01*
X7015199Y14973577D01*
X7075573Y14972893D01*
G36*
X7075573Y14972893D02*
G01*
X7135191Y14965198D01*
X7192985Y14950386D01*
X7196802Y14949124D01*
X7252860Y14926210D01*
X7305810Y14896410D01*
X7354965Y14860395D01*
X7399639Y14818832D01*
X7439146Y14772389D01*
X7472799Y14721736D01*
X7499912Y14667540D01*
X7508586Y14645531D01*
X7513136Y14631242D01*
X7518667Y14611020D01*
X7524714Y14586736D01*
X7530811Y14560260D01*
X7536492Y14533466D01*
X7536580Y14533027D01*
X7558207Y14433298D01*
X7581798Y14339530D01*
X7607914Y14249875D01*
X7637115Y14162480D01*
X7669961Y14075497D01*
X7689513Y14027800D01*
X7703193Y13993292D01*
X7712569Y13964460D01*
X7717694Y13940343D01*
X7718622Y13919985D01*
X7715407Y13902426D01*
X7708102Y13886706D01*
X7698151Y13873426D01*
X7689201Y13864161D01*
X7679491Y13856495D01*
X7667635Y13849759D01*
X7652243Y13843283D01*
X7631930Y13836396D01*
X7605307Y13828429D01*
X7604421Y13828173D01*
X7547630Y13810489D01*
X7495899Y13791444D01*
X7446356Y13769917D01*
X7413295Y13753723D01*
X7338161Y13710985D01*
X7266583Y13661461D01*
X7199287Y13605781D01*
X7137002Y13544577D01*
X7080455Y13478480D01*
X7052693Y13441159D01*
X7030760Y13412361D01*
X7010426Y13390610D01*
X6990965Y13375365D01*
X6971648Y13366085D01*
X6951751Y13362226D01*
X6946586Y13362045D01*
X6928035Y13363933D01*
X6911301Y13370266D01*
X6895676Y13381703D01*
X6880451Y13398902D01*
X6864916Y13422524D01*
X6848365Y13453227D01*
X6848208Y13453538D01*
X6790811Y13575127D01*
X6737384Y13702775D01*
X6688265Y13835485D01*
X6643791Y13972261D01*
X6604300Y14112105D01*
X6570128Y14254019D01*
X6557715Y14312659D01*
X6546908Y14372136D01*
X6539995Y14425270D01*
X6536938Y14472612D01*
X6537699Y14514715D01*
X6541569Y14548302D01*
X6556062Y14611737D01*
X6577438Y14671519D01*
X6605459Y14727297D01*
X6639884Y14778723D01*
X6680475Y14825445D01*
X6726992Y14867113D01*
X6779197Y14903378D01*
X6787507Y14908332D01*
X6840222Y14934627D01*
X6896454Y14954337D01*
X6955136Y14967356D01*
X7015199Y14973577D01*
X7075573Y14972893D01*
G37*
X7608844Y13267212D02*
X7615711Y13266613D01*
X7622290Y13265571D01*
X7628936Y13263774D01*
X7636007Y13260908D01*
X7643860Y13256661D01*
X7652852Y13250722D01*
X7663341Y13242777D01*
X7675684Y13232513D01*
X7690237Y13219620D01*
X7707358Y13203783D01*
X7727405Y13184691D01*
X7750734Y13162031D01*
X7777702Y13135491D01*
X7808667Y13104758D01*
X7843986Y13069519D01*
X7884017Y13029463D01*
X7929115Y12984277D01*
X7955366Y12957969D01*
X8001819Y12911408D01*
X8042986Y12870112D01*
X8079194Y12833736D01*
X8110774Y12801934D01*
X8138052Y12774362D01*
X8161358Y12750674D01*
X8181019Y12730524D01*
X8197365Y12713568D01*
X8210723Y12699460D01*
X8221422Y12687854D01*
X8229791Y12678405D01*
X8236157Y12670768D01*
X8240850Y12664598D01*
X8244197Y12659549D01*
X8246528Y12655275D01*
X8248169Y12651433D01*
X8248939Y12649255D01*
X8255659Y12617723D01*
X8255054Y12586813D01*
X8247521Y12557592D01*
X8233460Y12531124D01*
X8213269Y12508476D01*
X8190255Y12492276D01*
X8179441Y12486691D01*
X8169929Y12483227D01*
X8159213Y12481389D01*
X8144790Y12480677D01*
X8131442Y12480583D01*
X8111902Y12480927D01*
X8097720Y12482240D01*
X8086338Y12484946D01*
X8075194Y12489466D01*
X8073895Y12490082D01*
X8069465Y12492747D01*
X8063134Y12497509D01*
X8054599Y12504660D01*
X8043561Y12514488D01*
X8029718Y12527286D01*
X8012767Y12543344D01*
X7992409Y12562952D01*
X7968340Y12586402D01*
X7940261Y12613983D01*
X7907869Y12645988D01*
X7870864Y12682705D01*
X7828943Y12724427D01*
X7781805Y12771443D01*
X7771448Y12781785D01*
X7724631Y12828559D01*
X7683126Y12870084D01*
X7646606Y12906699D01*
X7614746Y12938745D01*
X7587220Y12966558D01*
X7563701Y12990479D01*
X7543864Y13010847D01*
X7527383Y13028000D01*
X7513931Y13042278D01*
X7503183Y13054020D01*
X7494812Y13063564D01*
X7488493Y13071250D01*
X7483900Y13077416D01*
X7480706Y13082402D01*
X7478759Y13086158D01*
X7470234Y13111722D01*
X7466506Y13138819D01*
X7467883Y13164430D01*
X7469884Y13173410D01*
X7482124Y13203438D01*
X7500026Y13228416D01*
X7522803Y13247781D01*
X7549667Y13260966D01*
X7579830Y13267408D01*
X7601329Y13267680D01*
X7608844Y13267212D01*
G36*
X7608844Y13267212D02*
G01*
X7615711Y13266613D01*
X7622290Y13265571D01*
X7628936Y13263774D01*
X7636007Y13260908D01*
X7643860Y13256661D01*
X7652852Y13250722D01*
X7663341Y13242777D01*
X7675684Y13232513D01*
X7690237Y13219620D01*
X7707358Y13203783D01*
X7727405Y13184691D01*
X7750734Y13162031D01*
X7777702Y13135491D01*
X7808667Y13104758D01*
X7843986Y13069519D01*
X7884017Y13029463D01*
X7929115Y12984277D01*
X7955366Y12957969D01*
X8001819Y12911408D01*
X8042986Y12870112D01*
X8079194Y12833736D01*
X8110774Y12801934D01*
X8138052Y12774362D01*
X8161358Y12750674D01*
X8181019Y12730524D01*
X8197365Y12713568D01*
X8210723Y12699460D01*
X8221422Y12687854D01*
X8229791Y12678405D01*
X8236157Y12670768D01*
X8240850Y12664598D01*
X8244197Y12659549D01*
X8246528Y12655275D01*
X8248169Y12651433D01*
X8248939Y12649255D01*
X8255659Y12617723D01*
X8255054Y12586813D01*
X8247521Y12557592D01*
X8233460Y12531124D01*
X8213269Y12508476D01*
X8190255Y12492276D01*
X8179441Y12486691D01*
X8169929Y12483227D01*
X8159213Y12481389D01*
X8144790Y12480677D01*
X8131442Y12480583D01*
X8111902Y12480927D01*
X8097720Y12482240D01*
X8086338Y12484946D01*
X8075194Y12489466D01*
X8073895Y12490082D01*
X8069465Y12492747D01*
X8063134Y12497509D01*
X8054599Y12504660D01*
X8043561Y12514488D01*
X8029718Y12527286D01*
X8012767Y12543344D01*
X7992409Y12562952D01*
X7968340Y12586402D01*
X7940261Y12613983D01*
X7907869Y12645988D01*
X7870864Y12682705D01*
X7828943Y12724427D01*
X7781805Y12771443D01*
X7771448Y12781785D01*
X7724631Y12828559D01*
X7683126Y12870084D01*
X7646606Y12906699D01*
X7614746Y12938745D01*
X7587220Y12966558D01*
X7563701Y12990479D01*
X7543864Y13010847D01*
X7527383Y13028000D01*
X7513931Y13042278D01*
X7503183Y13054020D01*
X7494812Y13063564D01*
X7488493Y13071250D01*
X7483900Y13077416D01*
X7480706Y13082402D01*
X7478759Y13086158D01*
X7470234Y13111722D01*
X7466506Y13138819D01*
X7467883Y13164430D01*
X7469884Y13173410D01*
X7482124Y13203438D01*
X7500026Y13228416D01*
X7522803Y13247781D01*
X7549667Y13260966D01*
X7579830Y13267408D01*
X7601329Y13267680D01*
X7608844Y13267212D01*
G37*
X8938825Y12724752D02*
X8964277Y12717017D01*
X8986708Y12707822D01*
X9107227Y12658378D01*
X9231516Y12615096D01*
X9360158Y12577796D01*
X9493735Y12546296D01*
X9524416Y12540012D01*
X9559099Y12532911D01*
X9587480Y12526599D01*
X9611099Y12520627D01*
X9631493Y12514550D01*
X9650202Y12507921D01*
X9668764Y12500291D01*
X9682602Y12494067D01*
X9735583Y12465328D01*
X9784650Y12430183D01*
X9829234Y12389361D01*
X9868762Y12343590D01*
X9902663Y12293598D01*
X9930366Y12240114D01*
X9951300Y12183867D01*
X9962947Y12136547D01*
X9971071Y12073788D01*
X9971608Y12012159D01*
X9964884Y11952144D01*
X9951225Y11894228D01*
X9930955Y11838899D01*
X9904400Y11786640D01*
X9871884Y11737937D01*
X9833734Y11693276D01*
X9790274Y11653141D01*
X9741829Y11618020D01*
X9688725Y11588396D01*
X9631287Y11564755D01*
X9569840Y11547583D01*
X9568130Y11547214D01*
X9550448Y11544032D01*
X9531206Y11541908D01*
X9508507Y11540711D01*
X9480459Y11540309D01*
X9468911Y11540332D01*
X9447226Y11540709D01*
X9426263Y11541713D01*
X9405020Y11543506D01*
X9382492Y11546249D01*
X9357675Y11550104D01*
X9329565Y11555233D01*
X9297158Y11561796D01*
X9259451Y11569956D01*
X9215438Y11579875D01*
X9197052Y11584093D01*
X9083639Y11612606D01*
X8967460Y11646401D01*
X8850372Y11684812D01*
X8734231Y11727172D01*
X8620894Y11772814D01*
X8512218Y11821073D01*
X8441049Y11855483D01*
X8413522Y11869968D01*
X8392491Y11882762D01*
X8376919Y11894676D01*
X8365767Y11906518D01*
X8357998Y11919098D01*
X8357125Y11920955D01*
X8351150Y11938989D01*
X8351202Y11955813D01*
X8355157Y11970054D01*
X8366011Y11989766D01*
X8384332Y12010013D01*
X8409712Y12030358D01*
X8414498Y12033659D01*
X8487730Y12087733D01*
X8555198Y12146937D01*
X8616660Y12210978D01*
X8671876Y12279564D01*
X8720602Y12352400D01*
X8762597Y12429196D01*
X8788105Y12485746D01*
X8800450Y12516937D01*
X8811670Y12548330D01*
X8822420Y12581951D01*
X8833357Y12619828D01*
X8842213Y12652766D01*
X8847525Y12671009D01*
X8852940Y12684057D01*
X8859779Y12694558D01*
X8867232Y12702979D01*
X8882795Y12716418D01*
X8899182Y12724497D01*
X8917493Y12727260D01*
X8938825Y12724752D01*
G36*
X8938825Y12724752D02*
G01*
X8964277Y12717017D01*
X8986708Y12707822D01*
X9107227Y12658378D01*
X9231516Y12615096D01*
X9360158Y12577796D01*
X9493735Y12546296D01*
X9524416Y12540012D01*
X9559099Y12532911D01*
X9587480Y12526599D01*
X9611099Y12520627D01*
X9631493Y12514550D01*
X9650202Y12507921D01*
X9668764Y12500291D01*
X9682602Y12494067D01*
X9735583Y12465328D01*
X9784650Y12430183D01*
X9829234Y12389361D01*
X9868762Y12343590D01*
X9902663Y12293598D01*
X9930366Y12240114D01*
X9951300Y12183867D01*
X9962947Y12136547D01*
X9971071Y12073788D01*
X9971608Y12012159D01*
X9964884Y11952144D01*
X9951225Y11894228D01*
X9930955Y11838899D01*
X9904400Y11786640D01*
X9871884Y11737937D01*
X9833734Y11693276D01*
X9790274Y11653141D01*
X9741829Y11618020D01*
X9688725Y11588396D01*
X9631287Y11564755D01*
X9569840Y11547583D01*
X9568130Y11547214D01*
X9550448Y11544032D01*
X9531206Y11541908D01*
X9508507Y11540711D01*
X9480459Y11540309D01*
X9468911Y11540332D01*
X9447226Y11540709D01*
X9426263Y11541713D01*
X9405020Y11543506D01*
X9382492Y11546249D01*
X9357675Y11550104D01*
X9329565Y11555233D01*
X9297158Y11561796D01*
X9259451Y11569956D01*
X9215438Y11579875D01*
X9197052Y11584093D01*
X9083639Y11612606D01*
X8967460Y11646401D01*
X8850372Y11684812D01*
X8734231Y11727172D01*
X8620894Y11772814D01*
X8512218Y11821073D01*
X8441049Y11855483D01*
X8413522Y11869968D01*
X8392491Y11882762D01*
X8376919Y11894676D01*
X8365767Y11906518D01*
X8357998Y11919098D01*
X8357125Y11920955D01*
X8351150Y11938989D01*
X8351202Y11955813D01*
X8355157Y11970054D01*
X8366011Y11989766D01*
X8384332Y12010013D01*
X8409712Y12030358D01*
X8414498Y12033659D01*
X8487730Y12087733D01*
X8555198Y12146937D01*
X8616660Y12210978D01*
X8671876Y12279564D01*
X8720602Y12352400D01*
X8762597Y12429196D01*
X8788105Y12485746D01*
X8800450Y12516937D01*
X8811670Y12548330D01*
X8822420Y12581951D01*
X8833357Y12619828D01*
X8842213Y12652766D01*
X8847525Y12671009D01*
X8852940Y12684057D01*
X8859779Y12694558D01*
X8867232Y12702979D01*
X8882795Y12716418D01*
X8899182Y12724497D01*
X8917493Y12727260D01*
X8938825Y12724752D01*
G37*
%TO.C,MH1*%
X-8899840Y12710687D02*
X-8884120Y12703382D01*
X-8870840Y12693431D01*
X-8861575Y12684481D01*
X-8853909Y12674771D01*
X-8847173Y12662915D01*
X-8840697Y12647523D01*
X-8833810Y12627210D01*
X-8825843Y12600587D01*
X-8825587Y12599701D01*
X-8807903Y12542910D01*
X-8788858Y12491179D01*
X-8767331Y12441636D01*
X-8751137Y12408575D01*
X-8708399Y12333441D01*
X-8658875Y12261863D01*
X-8603195Y12194567D01*
X-8541991Y12132282D01*
X-8475894Y12075735D01*
X-8438573Y12047973D01*
X-8409775Y12026040D01*
X-8388024Y12005706D01*
X-8372779Y11986245D01*
X-8363499Y11966928D01*
X-8359640Y11947031D01*
X-8359459Y11941866D01*
X-8361347Y11923315D01*
X-8367680Y11906581D01*
X-8379117Y11890956D01*
X-8396316Y11875731D01*
X-8419938Y11860196D01*
X-8450641Y11843645D01*
X-8450952Y11843488D01*
X-8572541Y11786091D01*
X-8700189Y11732664D01*
X-8832899Y11683545D01*
X-8969675Y11639071D01*
X-9109519Y11599580D01*
X-9251433Y11565408D01*
X-9310073Y11552995D01*
X-9369550Y11542188D01*
X-9422684Y11535275D01*
X-9470026Y11532218D01*
X-9512129Y11532979D01*
X-9545716Y11536849D01*
X-9609151Y11551342D01*
X-9668933Y11572718D01*
X-9724711Y11600739D01*
X-9776137Y11635164D01*
X-9822859Y11675755D01*
X-9864527Y11722272D01*
X-9900792Y11774477D01*
X-9905746Y11782787D01*
X-9932041Y11835502D01*
X-9951751Y11891734D01*
X-9964770Y11950416D01*
X-9970991Y12010479D01*
X-9970307Y12070853D01*
X-9962612Y12130471D01*
X-9947800Y12188265D01*
X-9946538Y12192082D01*
X-9923624Y12248140D01*
X-9893824Y12301090D01*
X-9857809Y12350245D01*
X-9816246Y12394919D01*
X-9769803Y12434426D01*
X-9719150Y12468079D01*
X-9664954Y12495192D01*
X-9642945Y12503866D01*
X-9628656Y12508416D01*
X-9608434Y12513947D01*
X-9584150Y12519994D01*
X-9557674Y12526091D01*
X-9530880Y12531772D01*
X-9530441Y12531860D01*
X-9430712Y12553487D01*
X-9336944Y12577078D01*
X-9247289Y12603194D01*
X-9159894Y12632395D01*
X-9072911Y12665241D01*
X-9025214Y12684793D01*
X-8990706Y12698473D01*
X-8961874Y12707849D01*
X-8937757Y12712974D01*
X-8917399Y12713902D01*
X-8899840Y12710687D01*
G36*
X-8899840Y12710687D02*
G01*
X-8884120Y12703382D01*
X-8870840Y12693431D01*
X-8861575Y12684481D01*
X-8853909Y12674771D01*
X-8847173Y12662915D01*
X-8840697Y12647523D01*
X-8833810Y12627210D01*
X-8825843Y12600587D01*
X-8825587Y12599701D01*
X-8807903Y12542910D01*
X-8788858Y12491179D01*
X-8767331Y12441636D01*
X-8751137Y12408575D01*
X-8708399Y12333441D01*
X-8658875Y12261863D01*
X-8603195Y12194567D01*
X-8541991Y12132282D01*
X-8475894Y12075735D01*
X-8438573Y12047973D01*
X-8409775Y12026040D01*
X-8388024Y12005706D01*
X-8372779Y11986245D01*
X-8363499Y11966928D01*
X-8359640Y11947031D01*
X-8359459Y11941866D01*
X-8361347Y11923315D01*
X-8367680Y11906581D01*
X-8379117Y11890956D01*
X-8396316Y11875731D01*
X-8419938Y11860196D01*
X-8450641Y11843645D01*
X-8450952Y11843488D01*
X-8572541Y11786091D01*
X-8700189Y11732664D01*
X-8832899Y11683545D01*
X-8969675Y11639071D01*
X-9109519Y11599580D01*
X-9251433Y11565408D01*
X-9310073Y11552995D01*
X-9369550Y11542188D01*
X-9422684Y11535275D01*
X-9470026Y11532218D01*
X-9512129Y11532979D01*
X-9545716Y11536849D01*
X-9609151Y11551342D01*
X-9668933Y11572718D01*
X-9724711Y11600739D01*
X-9776137Y11635164D01*
X-9822859Y11675755D01*
X-9864527Y11722272D01*
X-9900792Y11774477D01*
X-9905746Y11782787D01*
X-9932041Y11835502D01*
X-9951751Y11891734D01*
X-9964770Y11950416D01*
X-9970991Y12010479D01*
X-9970307Y12070853D01*
X-9962612Y12130471D01*
X-9947800Y12188265D01*
X-9946538Y12192082D01*
X-9923624Y12248140D01*
X-9893824Y12301090D01*
X-9857809Y12350245D01*
X-9816246Y12394919D01*
X-9769803Y12434426D01*
X-9719150Y12468079D01*
X-9664954Y12495192D01*
X-9642945Y12503866D01*
X-9628656Y12508416D01*
X-9608434Y12513947D01*
X-9584150Y12519994D01*
X-9557674Y12526091D01*
X-9530880Y12531772D01*
X-9530441Y12531860D01*
X-9430712Y12553487D01*
X-9336944Y12577078D01*
X-9247289Y12603194D01*
X-9159894Y12632395D01*
X-9072911Y12665241D01*
X-9025214Y12684793D01*
X-8990706Y12698473D01*
X-8961874Y12707849D01*
X-8937757Y12712974D01*
X-8917399Y12713902D01*
X-8899840Y12710687D01*
G37*
X-6949558Y14960164D02*
X-6891642Y14946505D01*
X-6836313Y14926235D01*
X-6784054Y14899680D01*
X-6735351Y14867164D01*
X-6690690Y14829014D01*
X-6650555Y14785554D01*
X-6615434Y14737109D01*
X-6585810Y14684005D01*
X-6562169Y14626567D01*
X-6544997Y14565120D01*
X-6544628Y14563410D01*
X-6541446Y14545728D01*
X-6539322Y14526486D01*
X-6538125Y14503787D01*
X-6537723Y14475739D01*
X-6537746Y14464191D01*
X-6538123Y14442506D01*
X-6539127Y14421543D01*
X-6540920Y14400300D01*
X-6543663Y14377772D01*
X-6547518Y14352955D01*
X-6552647Y14324845D01*
X-6559210Y14292438D01*
X-6567370Y14254731D01*
X-6577289Y14210718D01*
X-6581507Y14192332D01*
X-6610020Y14078919D01*
X-6643815Y13962740D01*
X-6682226Y13845652D01*
X-6724586Y13729511D01*
X-6770228Y13616174D01*
X-6818487Y13507498D01*
X-6852897Y13436329D01*
X-6867382Y13408802D01*
X-6880176Y13387771D01*
X-6892090Y13372199D01*
X-6903932Y13361047D01*
X-6916512Y13353278D01*
X-6918369Y13352405D01*
X-6936403Y13346430D01*
X-6953227Y13346482D01*
X-6967468Y13350437D01*
X-6987180Y13361291D01*
X-7007427Y13379612D01*
X-7027772Y13404992D01*
X-7031073Y13409778D01*
X-7085147Y13483010D01*
X-7144351Y13550478D01*
X-7208392Y13611940D01*
X-7276978Y13667156D01*
X-7349814Y13715882D01*
X-7426610Y13757877D01*
X-7483160Y13783385D01*
X-7514351Y13795730D01*
X-7545744Y13806950D01*
X-7579365Y13817700D01*
X-7617242Y13828637D01*
X-7650180Y13837493D01*
X-7668423Y13842805D01*
X-7681471Y13848220D01*
X-7691972Y13855059D01*
X-7700393Y13862512D01*
X-7713832Y13878075D01*
X-7721911Y13894462D01*
X-7724674Y13912773D01*
X-7722166Y13934105D01*
X-7714431Y13959557D01*
X-7705236Y13981988D01*
X-7655792Y14102507D01*
X-7612510Y14226796D01*
X-7575210Y14355438D01*
X-7543710Y14489015D01*
X-7537426Y14519696D01*
X-7530325Y14554379D01*
X-7524013Y14582760D01*
X-7518041Y14606379D01*
X-7511964Y14626773D01*
X-7505335Y14645482D01*
X-7497705Y14664044D01*
X-7491481Y14677882D01*
X-7462742Y14730863D01*
X-7427597Y14779930D01*
X-7386775Y14824514D01*
X-7341004Y14864042D01*
X-7291012Y14897943D01*
X-7237528Y14925646D01*
X-7181281Y14946580D01*
X-7133961Y14958227D01*
X-7071202Y14966351D01*
X-7009573Y14966888D01*
X-6949558Y14960164D01*
G36*
X-6949558Y14960164D02*
G01*
X-6891642Y14946505D01*
X-6836313Y14926235D01*
X-6784054Y14899680D01*
X-6735351Y14867164D01*
X-6690690Y14829014D01*
X-6650555Y14785554D01*
X-6615434Y14737109D01*
X-6585810Y14684005D01*
X-6562169Y14626567D01*
X-6544997Y14565120D01*
X-6544628Y14563410D01*
X-6541446Y14545728D01*
X-6539322Y14526486D01*
X-6538125Y14503787D01*
X-6537723Y14475739D01*
X-6537746Y14464191D01*
X-6538123Y14442506D01*
X-6539127Y14421543D01*
X-6540920Y14400300D01*
X-6543663Y14377772D01*
X-6547518Y14352955D01*
X-6552647Y14324845D01*
X-6559210Y14292438D01*
X-6567370Y14254731D01*
X-6577289Y14210718D01*
X-6581507Y14192332D01*
X-6610020Y14078919D01*
X-6643815Y13962740D01*
X-6682226Y13845652D01*
X-6724586Y13729511D01*
X-6770228Y13616174D01*
X-6818487Y13507498D01*
X-6852897Y13436329D01*
X-6867382Y13408802D01*
X-6880176Y13387771D01*
X-6892090Y13372199D01*
X-6903932Y13361047D01*
X-6916512Y13353278D01*
X-6918369Y13352405D01*
X-6936403Y13346430D01*
X-6953227Y13346482D01*
X-6967468Y13350437D01*
X-6987180Y13361291D01*
X-7007427Y13379612D01*
X-7027772Y13404992D01*
X-7031073Y13409778D01*
X-7085147Y13483010D01*
X-7144351Y13550478D01*
X-7208392Y13611940D01*
X-7276978Y13667156D01*
X-7349814Y13715882D01*
X-7426610Y13757877D01*
X-7483160Y13783385D01*
X-7514351Y13795730D01*
X-7545744Y13806950D01*
X-7579365Y13817700D01*
X-7617242Y13828637D01*
X-7650180Y13837493D01*
X-7668423Y13842805D01*
X-7681471Y13848220D01*
X-7691972Y13855059D01*
X-7700393Y13862512D01*
X-7713832Y13878075D01*
X-7721911Y13894462D01*
X-7724674Y13912773D01*
X-7722166Y13934105D01*
X-7714431Y13959557D01*
X-7705236Y13981988D01*
X-7655792Y14102507D01*
X-7612510Y14226796D01*
X-7575210Y14355438D01*
X-7543710Y14489015D01*
X-7537426Y14519696D01*
X-7530325Y14554379D01*
X-7524013Y14582760D01*
X-7518041Y14606379D01*
X-7511964Y14626773D01*
X-7505335Y14645482D01*
X-7497705Y14664044D01*
X-7491481Y14677882D01*
X-7462742Y14730863D01*
X-7427597Y14779930D01*
X-7386775Y14824514D01*
X-7341004Y14864042D01*
X-7291012Y14897943D01*
X-7237528Y14925646D01*
X-7181281Y14946580D01*
X-7133961Y14958227D01*
X-7071202Y14966351D01*
X-7009573Y14966888D01*
X-6949558Y14960164D01*
G37*
X-7493080Y13462211D02*
X-7475996Y13461544D01*
X-7462479Y13460273D01*
X-7451804Y13458343D01*
X-7443241Y13455698D01*
X-7436066Y13452281D01*
X-7429548Y13448039D01*
X-7422962Y13442913D01*
X-7419690Y13440229D01*
X-7408818Y13428719D01*
X-7398500Y13413529D01*
X-7390198Y13397310D01*
X-7385378Y13382710D01*
X-7384731Y13376966D01*
X-7383862Y13371124D01*
X-7381375Y13358361D01*
X-7377445Y13339491D01*
X-7372249Y13315325D01*
X-7365964Y13286675D01*
X-7358765Y13254354D01*
X-7350829Y13219173D01*
X-7343059Y13185110D01*
X-7332429Y13138495D01*
X-7323568Y13098903D01*
X-7316374Y13065643D01*
X-7310745Y13038024D01*
X-7306578Y13015356D01*
X-7303773Y12996948D01*
X-7302227Y12982109D01*
X-7301838Y12970147D01*
X-7302505Y12960373D01*
X-7304125Y12952095D01*
X-7306597Y12944622D01*
X-7307332Y12942808D01*
X-7319147Y12922742D01*
X-7336065Y12904490D01*
X-7354590Y12891432D01*
X-7372955Y12885112D01*
X-7395198Y12882433D01*
X-7418164Y12883396D01*
X-7438699Y12888004D01*
X-7446518Y12891378D01*
X-7462601Y12902392D01*
X-7477976Y12917152D01*
X-7490130Y12933020D01*
X-7494924Y12942204D01*
X-7497256Y12949646D01*
X-7500953Y12963447D01*
X-7505667Y12982220D01*
X-7511051Y13004573D01*
X-7516756Y13029117D01*
X-7517679Y13033173D01*
X-7523140Y13057056D01*
X-7528037Y13078150D01*
X-7532091Y13095287D01*
X-7535027Y13107298D01*
X-7536567Y13113018D01*
X-7536699Y13113325D01*
X-7539388Y13110757D01*
X-7546119Y13102976D01*
X-7556031Y13091012D01*
X-7568266Y13075896D01*
X-7576173Y13065984D01*
X-7675778Y12946849D01*
X-7781374Y12832920D01*
X-7892952Y12724206D01*
X-8010506Y12620713D01*
X-8070383Y12571834D01*
X-8087489Y12557936D01*
X-8101915Y12545680D01*
X-8112713Y12535918D01*
X-8118935Y12529498D01*
X-8119992Y12527348D01*
X-8115406Y12525659D01*
X-8104277Y12522380D01*
X-8087771Y12517830D01*
X-8067049Y12512327D01*
X-8043275Y12506189D01*
X-8033622Y12503741D01*
X-8002672Y12495884D01*
X-7978372Y12489536D01*
X-7959665Y12484310D01*
X-7945494Y12479818D01*
X-7934802Y12475674D01*
X-7926530Y12471491D01*
X-7919621Y12466882D01*
X-7913018Y12461460D01*
X-7909519Y12458340D01*
X-7892287Y12437879D01*
X-7881611Y12414546D01*
X-7877307Y12389654D01*
X-7879187Y12364519D01*
X-7887067Y12340456D01*
X-7900759Y12318779D01*
X-7920078Y12300803D01*
X-7932907Y12293036D01*
X-7944041Y12288005D01*
X-7955193Y12284697D01*
X-7967466Y12283198D01*
X-7981962Y12283597D01*
X-7999784Y12285979D01*
X-8022034Y12290433D01*
X-8049815Y12297045D01*
X-8079262Y12304600D01*
X-8107506Y12311969D01*
X-8141348Y12320769D01*
X-8178698Y12330457D01*
X-8217465Y12340492D01*
X-8255558Y12350331D01*
X-8289340Y12359036D01*
X-8326219Y12368612D01*
X-8356249Y12376696D01*
X-8380296Y12383658D01*
X-8399227Y12389866D01*
X-8413910Y12395691D01*
X-8425212Y12401500D01*
X-8433998Y12407664D01*
X-8441137Y12414551D01*
X-8447495Y12422531D01*
X-8451296Y12427997D01*
X-8455259Y12434075D01*
X-8458568Y12440016D01*
X-8461243Y12446514D01*
X-8463304Y12454259D01*
X-8464770Y12463944D01*
X-8465662Y12476261D01*
X-8465999Y12491901D01*
X-8465802Y12511557D01*
X-8465090Y12535921D01*
X-8463883Y12565684D01*
X-8462202Y12601539D01*
X-8460066Y12644178D01*
X-8458438Y12675936D01*
X-8456329Y12715785D01*
X-8454210Y12753613D01*
X-8452136Y12788603D01*
X-8450160Y12819940D01*
X-8448335Y12846809D01*
X-8446716Y12868394D01*
X-8445356Y12883879D01*
X-8444309Y12892449D01*
X-8444109Y12893391D01*
X-8434152Y12916679D01*
X-8418578Y12935718D01*
X-8398698Y12950141D01*
X-8375820Y12959577D01*
X-8351253Y12963659D01*
X-8326306Y12962017D01*
X-8302289Y12954282D01*
X-8280510Y12940085D01*
X-8280003Y12939642D01*
X-8265619Y12923598D01*
X-8254457Y12904888D01*
X-8253901Y12903630D01*
X-8250688Y12895776D01*
X-8248404Y12888518D01*
X-8246954Y12880438D01*
X-8246238Y12870118D01*
X-8246160Y12856139D01*
X-8246622Y12837082D01*
X-8247526Y12811529D01*
X-8247538Y12811207D01*
X-8248562Y12786056D01*
X-8249707Y12761690D01*
X-8250872Y12740022D01*
X-8251957Y12722968D01*
X-8252641Y12714506D01*
X-8253610Y12704568D01*
X-8253823Y12697577D01*
X-8252510Y12693805D01*
X-8248906Y12693522D01*
X-8242243Y12697001D01*
X-8231754Y12704513D01*
X-8216671Y12716328D01*
X-8196226Y12732718D01*
X-8192372Y12735811D01*
X-8109296Y12805233D01*
X-8027210Y12879264D01*
X-7947314Y12956677D01*
X-7870808Y13036245D01*
X-7798892Y13116741D01*
X-7732764Y13196937D01*
X-7700154Y13239328D01*
X-7688638Y13254698D01*
X-7724208Y13252164D01*
X-7741251Y13251201D01*
X-7763702Y13250292D01*
X-7789031Y13249522D01*
X-7814708Y13248975D01*
X-7823278Y13248852D01*
X-7848460Y13248681D01*
X-7867162Y13248951D01*
X-7880834Y13249777D01*
X-7890926Y13251271D01*
X-7898890Y13253546D01*
X-7902653Y13255068D01*
X-7925453Y13269238D01*
X-7943902Y13288973D01*
X-7956941Y13312655D01*
X-7963511Y13338664D01*
X-7964091Y13348972D01*
X-7960457Y13374695D01*
X-7950304Y13398979D01*
X-7934755Y13420093D01*
X-7914934Y13436308D01*
X-7903621Y13442100D01*
X-7898783Y13443995D01*
X-7893587Y13445636D01*
X-7887365Y13447067D01*
X-7879449Y13448334D01*
X-7869173Y13449480D01*
X-7855868Y13450550D01*
X-7838867Y13451588D01*
X-7817501Y13452639D01*
X-7791105Y13453746D01*
X-7759009Y13454954D01*
X-7720547Y13456307D01*
X-7675051Y13457850D01*
X-7657490Y13458438D01*
X-7611652Y13459954D01*
X-7573019Y13461146D01*
X-7540865Y13461956D01*
X-7514461Y13462330D01*
X-7493080Y13462211D01*
G36*
X-7493080Y13462211D02*
G01*
X-7475996Y13461544D01*
X-7462479Y13460273D01*
X-7451804Y13458343D01*
X-7443241Y13455698D01*
X-7436066Y13452281D01*
X-7429548Y13448039D01*
X-7422962Y13442913D01*
X-7419690Y13440229D01*
X-7408818Y13428719D01*
X-7398500Y13413529D01*
X-7390198Y13397310D01*
X-7385378Y13382710D01*
X-7384731Y13376966D01*
X-7383862Y13371124D01*
X-7381375Y13358361D01*
X-7377445Y13339491D01*
X-7372249Y13315325D01*
X-7365964Y13286675D01*
X-7358765Y13254354D01*
X-7350829Y13219173D01*
X-7343059Y13185110D01*
X-7332429Y13138495D01*
X-7323568Y13098903D01*
X-7316374Y13065643D01*
X-7310745Y13038024D01*
X-7306578Y13015356D01*
X-7303773Y12996948D01*
X-7302227Y12982109D01*
X-7301838Y12970147D01*
X-7302505Y12960373D01*
X-7304125Y12952095D01*
X-7306597Y12944622D01*
X-7307332Y12942808D01*
X-7319147Y12922742D01*
X-7336065Y12904490D01*
X-7354590Y12891432D01*
X-7372955Y12885112D01*
X-7395198Y12882433D01*
X-7418164Y12883396D01*
X-7438699Y12888004D01*
X-7446518Y12891378D01*
X-7462601Y12902392D01*
X-7477976Y12917152D01*
X-7490130Y12933020D01*
X-7494924Y12942204D01*
X-7497256Y12949646D01*
X-7500953Y12963447D01*
X-7505667Y12982220D01*
X-7511051Y13004573D01*
X-7516756Y13029117D01*
X-7517679Y13033173D01*
X-7523140Y13057056D01*
X-7528037Y13078150D01*
X-7532091Y13095287D01*
X-7535027Y13107298D01*
X-7536567Y13113018D01*
X-7536699Y13113325D01*
X-7539388Y13110757D01*
X-7546119Y13102976D01*
X-7556031Y13091012D01*
X-7568266Y13075896D01*
X-7576173Y13065984D01*
X-7675778Y12946849D01*
X-7781374Y12832920D01*
X-7892952Y12724206D01*
X-8010506Y12620713D01*
X-8070383Y12571834D01*
X-8087489Y12557936D01*
X-8101915Y12545680D01*
X-8112713Y12535918D01*
X-8118935Y12529498D01*
X-8119992Y12527348D01*
X-8115406Y12525659D01*
X-8104277Y12522380D01*
X-8087771Y12517830D01*
X-8067049Y12512327D01*
X-8043275Y12506189D01*
X-8033622Y12503741D01*
X-8002672Y12495884D01*
X-7978372Y12489536D01*
X-7959665Y12484310D01*
X-7945494Y12479818D01*
X-7934802Y12475674D01*
X-7926530Y12471491D01*
X-7919621Y12466882D01*
X-7913018Y12461460D01*
X-7909519Y12458340D01*
X-7892287Y12437879D01*
X-7881611Y12414546D01*
X-7877307Y12389654D01*
X-7879187Y12364519D01*
X-7887067Y12340456D01*
X-7900759Y12318779D01*
X-7920078Y12300803D01*
X-7932907Y12293036D01*
X-7944041Y12288005D01*
X-7955193Y12284697D01*
X-7967466Y12283198D01*
X-7981962Y12283597D01*
X-7999784Y12285979D01*
X-8022034Y12290433D01*
X-8049815Y12297045D01*
X-8079262Y12304600D01*
X-8107506Y12311969D01*
X-8141348Y12320769D01*
X-8178698Y12330457D01*
X-8217465Y12340492D01*
X-8255558Y12350331D01*
X-8289340Y12359036D01*
X-8326219Y12368612D01*
X-8356249Y12376696D01*
X-8380296Y12383658D01*
X-8399227Y12389866D01*
X-8413910Y12395691D01*
X-8425212Y12401500D01*
X-8433998Y12407664D01*
X-8441137Y12414551D01*
X-8447495Y12422531D01*
X-8451296Y12427997D01*
X-8455259Y12434075D01*
X-8458568Y12440016D01*
X-8461243Y12446514D01*
X-8463304Y12454259D01*
X-8464770Y12463944D01*
X-8465662Y12476261D01*
X-8465999Y12491901D01*
X-8465802Y12511557D01*
X-8465090Y12535921D01*
X-8463883Y12565684D01*
X-8462202Y12601539D01*
X-8460066Y12644178D01*
X-8458438Y12675936D01*
X-8456329Y12715785D01*
X-8454210Y12753613D01*
X-8452136Y12788603D01*
X-8450160Y12819940D01*
X-8448335Y12846809D01*
X-8446716Y12868394D01*
X-8445356Y12883879D01*
X-8444309Y12892449D01*
X-8444109Y12893391D01*
X-8434152Y12916679D01*
X-8418578Y12935718D01*
X-8398698Y12950141D01*
X-8375820Y12959577D01*
X-8351253Y12963659D01*
X-8326306Y12962017D01*
X-8302289Y12954282D01*
X-8280510Y12940085D01*
X-8280003Y12939642D01*
X-8265619Y12923598D01*
X-8254457Y12904888D01*
X-8253901Y12903630D01*
X-8250688Y12895776D01*
X-8248404Y12888518D01*
X-8246954Y12880438D01*
X-8246238Y12870118D01*
X-8246160Y12856139D01*
X-8246622Y12837082D01*
X-8247526Y12811529D01*
X-8247538Y12811207D01*
X-8248562Y12786056D01*
X-8249707Y12761690D01*
X-8250872Y12740022D01*
X-8251957Y12722968D01*
X-8252641Y12714506D01*
X-8253610Y12704568D01*
X-8253823Y12697577D01*
X-8252510Y12693805D01*
X-8248906Y12693522D01*
X-8242243Y12697001D01*
X-8231754Y12704513D01*
X-8216671Y12716328D01*
X-8196226Y12732718D01*
X-8192372Y12735811D01*
X-8109296Y12805233D01*
X-8027210Y12879264D01*
X-7947314Y12956677D01*
X-7870808Y13036245D01*
X-7798892Y13116741D01*
X-7732764Y13196937D01*
X-7700154Y13239328D01*
X-7688638Y13254698D01*
X-7724208Y13252164D01*
X-7741251Y13251201D01*
X-7763702Y13250292D01*
X-7789031Y13249522D01*
X-7814708Y13248975D01*
X-7823278Y13248852D01*
X-7848460Y13248681D01*
X-7867162Y13248951D01*
X-7880834Y13249777D01*
X-7890926Y13251271D01*
X-7898890Y13253546D01*
X-7902653Y13255068D01*
X-7925453Y13269238D01*
X-7943902Y13288973D01*
X-7956941Y13312655D01*
X-7963511Y13338664D01*
X-7964091Y13348972D01*
X-7960457Y13374695D01*
X-7950304Y13398979D01*
X-7934755Y13420093D01*
X-7914934Y13436308D01*
X-7903621Y13442100D01*
X-7898783Y13443995D01*
X-7893587Y13445636D01*
X-7887365Y13447067D01*
X-7879449Y13448334D01*
X-7869173Y13449480D01*
X-7855868Y13450550D01*
X-7838867Y13451588D01*
X-7817501Y13452639D01*
X-7791105Y13453746D01*
X-7759009Y13454954D01*
X-7720547Y13456307D01*
X-7675051Y13457850D01*
X-7657490Y13458438D01*
X-7611652Y13459954D01*
X-7573019Y13461146D01*
X-7540865Y13461956D01*
X-7514461Y13462330D01*
X-7493080Y13462211D01*
G37*
%TD*%
M02*
