%TF.GenerationSoftware,KiCad,Pcbnew,9.0.7*%
%TF.CreationDate,2026-03-30T19:28:40+01:00*%
%TF.ProjectId,jvm_keycap_button_row,6a766d5f-6b65-4796-9361-705f62757474,0.7*%
%TF.SameCoordinates,PX8321560PY487ab00*%
%TF.FileFunction,AssemblyDrawing,Top*%
%FSLAX45Y45*%
G04 Gerber Fmt 4.5, Leading zero omitted, Abs format (unit mm)*
G04 Created by KiCad (PCBNEW 9.0.7) date 2026-03-30 19:28:40*
%MOMM*%
%LPD*%
G01*
G04 APERTURE LIST*
%ADD10C,0.100000*%
%ADD11C,0.120000*%
G04 APERTURE END LIST*
D10*
%TO.C,GS6*%
X-5900000Y800000D02*
X-5800000Y800000D01*
X-5850000Y850000D02*
X-5850000Y750000D01*
X-5800000Y800000D02*
G75*
G02*
X-5900000Y800000I-50000J0D01*
G01*
X-5900000Y800000D02*
G75*
G02*
X-5800000Y800000I50000J0D01*
G01*
%TO.C,GS3*%
X-6100000Y350000D02*
X-6000000Y350000D01*
X-6050000Y400000D02*
X-6050000Y300000D01*
X-6000000Y350000D02*
G75*
G02*
X-6100000Y350000I-50000J0D01*
G01*
X-6100000Y350000D02*
G75*
G02*
X-6000000Y350000I50000J0D01*
G01*
%TO.C,C2*%
X-5930000Y-260000D02*
X-5770000Y-260000D01*
X-5770000Y-340000D01*
X-5930000Y-340000D01*
X-5930000Y-260000D01*
%TO.C,R3*%
X-5566250Y520000D02*
X-5483750Y520000D01*
X-5483750Y680000D01*
X-5566250Y680000D01*
X-5566250Y520000D01*
%TO.C,U2*%
X-5770000Y-155000D02*
X-5810000Y-195000D01*
X-5930000Y-195000D01*
X-5930000Y95000D01*
X-5770000Y95000D01*
X-5770000Y-155000D01*
%TO.C,GS2*%
X-6100000Y-300000D02*
X-6000000Y-300000D01*
X-6050000Y-250000D02*
X-6050000Y-350000D01*
X-6000000Y-300000D02*
G75*
G02*
X-6100000Y-300000I-50000J0D01*
G01*
X-6100000Y-300000D02*
G75*
G02*
X-6000000Y-300000I50000J0D01*
G01*
%TO.C,GS1*%
X-6100000Y-50000D02*
X-6000000Y-50000D01*
X-6050000Y0D02*
X-6050000Y-100000D01*
X-6000000Y-50000D02*
G75*
G02*
X-6100000Y-50000I-50000J0D01*
G01*
X-6100000Y-50000D02*
G75*
G02*
X-6000000Y-50000I50000J0D01*
G01*
X2790000Y630000D02*
X4060000Y630000D01*
X4060000Y640000D02*
G75*
G02*
X4060000Y630000I0J-5000D01*
G01*
X4060000Y640000D02*
X2790000Y640000D01*
X2790000Y640000D02*
G75*
G03*
X2790000Y630000I0J-5000D01*
G01*
X2795000Y-635000D02*
X2795000Y635000D01*
X2785000Y635000D02*
G75*
G02*
X2795000Y635000I5000J0D01*
G01*
X2785000Y635000D02*
X2785000Y-635000D01*
X2785000Y-635000D02*
G75*
G03*
X2795000Y-635000I5000J0D01*
G01*
X4055000Y635000D02*
X4055000Y-635000D01*
X4065000Y-635000D02*
G75*
G02*
X4055000Y-635000I-5000J0D01*
G01*
X4065000Y-635000D02*
X4065000Y635000D01*
X4065000Y635000D02*
G75*
G03*
X4055000Y635000I-5000J0D01*
G01*
X4060000Y-630000D02*
X2790000Y-630000D01*
X2790000Y-640000D02*
G75*
G02*
X2790000Y-630000I0J5000D01*
G01*
X2790000Y-640000D02*
X4060000Y-640000D01*
X4060000Y-640000D02*
G75*
G03*
X4060000Y-630000I0J5000D01*
G01*
%TO.C,GS4*%
X-5725000Y800000D02*
X-5625000Y800000D01*
X-5675000Y850000D02*
X-5675000Y750000D01*
X-5625000Y800000D02*
G75*
G02*
X-5725000Y800000I-50000J0D01*
G01*
X-5725000Y800000D02*
G75*
G02*
X-5625000Y800000I50000J0D01*
G01*
%TO.C,C1*%
X-5535000Y-532500D02*
X-5615000Y-532500D01*
X-5615000Y-692500D01*
X-5535000Y-692500D01*
X-5535000Y-532500D01*
X-4810000Y630000D02*
X-3540000Y630000D01*
X-3540000Y640000D02*
G75*
G02*
X-3540000Y630000I0J-5000D01*
G01*
X-3540000Y640000D02*
X-4810000Y640000D01*
X-4810000Y640000D02*
G75*
G03*
X-4810000Y630000I0J-5000D01*
G01*
X-4805000Y-635000D02*
X-4805000Y635000D01*
X-4815000Y635000D02*
G75*
G02*
X-4805000Y635000I5000J0D01*
G01*
X-4815000Y635000D02*
X-4815000Y-635000D01*
X-4815000Y-635000D02*
G75*
G03*
X-4805000Y-635000I5000J0D01*
G01*
X-3545000Y635000D02*
X-3545000Y-635000D01*
X-3535000Y-635000D02*
G75*
G02*
X-3545000Y-635000I-5000J0D01*
G01*
X-3535000Y-635000D02*
X-3535000Y635000D01*
X-3535000Y635000D02*
G75*
G03*
X-3545000Y635000I-5000J0D01*
G01*
X-3540000Y-630000D02*
X-4810000Y-630000D01*
X-4810000Y-640000D02*
G75*
G02*
X-4810000Y-630000I0J5000D01*
G01*
X-4810000Y-640000D02*
X-3540000Y-640000D01*
X-3540000Y-640000D02*
G75*
G03*
X-3540000Y-630000I0J5000D01*
G01*
%TO.C,D1*%
X-5920000Y690000D02*
X-5780000Y690000D01*
X-5920000Y510000D02*
X-5920000Y690000D01*
X-5885000Y580000D02*
X-5850000Y630000D01*
X-5850000Y630000D02*
X-5850000Y650000D01*
X-5850000Y630000D02*
X-5815000Y580000D01*
X-5850000Y580000D02*
X-5850000Y555000D01*
X-5815000Y630000D02*
X-5885000Y630000D01*
X-5815000Y580000D02*
X-5885000Y580000D01*
X-5780000Y690000D02*
X-5780000Y510000D01*
X-5780000Y510000D02*
X-5920000Y510000D01*
%TO.C,C3*%
X-5930000Y240000D02*
X-5770000Y240000D01*
X-5770000Y160000D01*
X-5930000Y160000D01*
X-5930000Y240000D01*
%TO.C,SW1*%
X-5395000Y-462500D02*
X-5005000Y-462500D01*
X-5395000Y-762500D02*
X-5395000Y-462500D01*
X-5395000Y-762500D02*
X-5005000Y-762500D01*
X-5005000Y-462500D02*
X-5005000Y-762500D01*
X-5110000Y-612500D02*
G75*
G02*
X-5290000Y-612500I-90000J0D01*
G01*
X-5290000Y-612500D02*
G75*
G02*
X-5110000Y-612500I90000J0D01*
G01*
X-1010000Y630000D02*
X260000Y630000D01*
X260000Y640000D02*
G75*
G02*
X260000Y630000I0J-5000D01*
G01*
X260000Y640000D02*
X-1010000Y640000D01*
X-1010000Y640000D02*
G75*
G03*
X-1010000Y630000I0J-5000D01*
G01*
X-1005000Y-635000D02*
X-1005000Y635000D01*
X-1015000Y635000D02*
G75*
G02*
X-1005000Y635000I5000J0D01*
G01*
X-1015000Y635000D02*
X-1015000Y-635000D01*
X-1015000Y-635000D02*
G75*
G03*
X-1005000Y-635000I5000J0D01*
G01*
X255000Y635000D02*
X255000Y-635000D01*
X265000Y-635000D02*
G75*
G02*
X255000Y-635000I-5000J0D01*
G01*
X265000Y-635000D02*
X265000Y635000D01*
X265000Y635000D02*
G75*
G03*
X255000Y635000I-5000J0D01*
G01*
X260000Y-630000D02*
X-1010000Y-630000D01*
X-1010000Y-640000D02*
G75*
G02*
X-1010000Y-630000I0J5000D01*
G01*
X-1010000Y-640000D02*
X260000Y-640000D01*
X260000Y-640000D02*
G75*
G03*
X260000Y-630000I0J5000D01*
G01*
%TO.C,R2*%
X-5716250Y520000D02*
X-5633750Y520000D01*
X-5633750Y680000D01*
X-5716250Y680000D01*
X-5716250Y520000D01*
X890000Y630000D02*
X2160000Y630000D01*
X2160000Y640000D02*
G75*
G02*
X2160000Y630000I0J-5000D01*
G01*
X2160000Y640000D02*
X890000Y640000D01*
X890000Y640000D02*
G75*
G03*
X890000Y630000I0J-5000D01*
G01*
X895000Y-635000D02*
X895000Y635000D01*
X885000Y635000D02*
G75*
G02*
X895000Y635000I5000J0D01*
G01*
X885000Y635000D02*
X885000Y-635000D01*
X885000Y-635000D02*
G75*
G03*
X895000Y-635000I5000J0D01*
G01*
X2155000Y635000D02*
X2155000Y-635000D01*
X2165000Y-635000D02*
G75*
G02*
X2155000Y-635000I-5000J0D01*
G01*
X2165000Y-635000D02*
X2165000Y635000D01*
X2165000Y635000D02*
G75*
G03*
X2155000Y635000I-5000J0D01*
G01*
X2160000Y-630000D02*
X890000Y-630000D01*
X890000Y-640000D02*
G75*
G02*
X890000Y-630000I0J5000D01*
G01*
X890000Y-640000D02*
X2160000Y-640000D01*
X2160000Y-640000D02*
G75*
G03*
X2160000Y-630000I0J5000D01*
G01*
X4690000Y630000D02*
X5960000Y630000D01*
X5960000Y640000D02*
G75*
G02*
X5960000Y630000I0J-5000D01*
G01*
X5960000Y640000D02*
X4690000Y640000D01*
X4690000Y640000D02*
G75*
G03*
X4690000Y630000I0J-5000D01*
G01*
X4695000Y-635000D02*
X4695000Y635000D01*
X4685000Y635000D02*
G75*
G02*
X4695000Y635000I5000J0D01*
G01*
X4685000Y635000D02*
X4685000Y-635000D01*
X4685000Y-635000D02*
G75*
G03*
X4695000Y-635000I5000J0D01*
G01*
X5955000Y635000D02*
X5955000Y-635000D01*
X5965000Y-635000D02*
G75*
G02*
X5955000Y-635000I-5000J0D01*
G01*
X5965000Y-635000D02*
X5965000Y635000D01*
X5965000Y635000D02*
G75*
G03*
X5955000Y635000I-5000J0D01*
G01*
X5960000Y-630000D02*
X4690000Y-630000D01*
X4690000Y-640000D02*
G75*
G02*
X4690000Y-630000I0J5000D01*
G01*
X4690000Y-640000D02*
X5960000Y-640000D01*
X5960000Y-640000D02*
G75*
G03*
X5960000Y-630000I0J5000D01*
G01*
%TO.C,GS5*%
X-5575000Y800000D02*
X-5475000Y800000D01*
X-5525000Y850000D02*
X-5525000Y750000D01*
X-5475000Y800000D02*
G75*
G02*
X-5575000Y800000I-50000J0D01*
G01*
X-5575000Y800000D02*
G75*
G02*
X-5475000Y800000I50000J0D01*
G01*
%TO.C,D2*%
X-5930000Y-560000D02*
X-5930000Y-640000D01*
X-5930000Y-640000D02*
X-5800000Y-640000D01*
X-5800000Y-640000D02*
X-5770000Y-610000D01*
X-5770000Y-560000D02*
X-5930000Y-560000D01*
X-5770000Y-610000D02*
X-5770000Y-560000D01*
X-2910000Y630000D02*
X-1640000Y630000D01*
X-1640000Y640000D02*
G75*
G02*
X-1640000Y630000I0J-5000D01*
G01*
X-1640000Y640000D02*
X-2910000Y640000D01*
X-2910000Y640000D02*
G75*
G03*
X-2910000Y630000I0J-5000D01*
G01*
X-2905000Y-635000D02*
X-2905000Y635000D01*
X-2915000Y635000D02*
G75*
G02*
X-2905000Y635000I5000J0D01*
G01*
X-2915000Y635000D02*
X-2915000Y-635000D01*
X-2915000Y-635000D02*
G75*
G03*
X-2905000Y-635000I5000J0D01*
G01*
X-1645000Y635000D02*
X-1645000Y-635000D01*
X-1635000Y-635000D02*
G75*
G02*
X-1645000Y-635000I-5000J0D01*
G01*
X-1635000Y-635000D02*
X-1635000Y635000D01*
X-1635000Y635000D02*
G75*
G03*
X-1645000Y635000I-5000J0D01*
G01*
X-1640000Y-630000D02*
X-2910000Y-630000D01*
X-2910000Y-640000D02*
G75*
G02*
X-2910000Y-630000I0J5000D01*
G01*
X-2910000Y-640000D02*
X-1640000Y-640000D01*
X-1640000Y-640000D02*
G75*
G03*
X-1640000Y-630000I0J5000D01*
G01*
%TO.C,R1*%
X-5770000Y308750D02*
X-5930000Y308750D01*
X-5930000Y391250D01*
X-5770000Y391250D01*
X-5770000Y308750D01*
%TO.C,R4*%
X-5770000Y-491250D02*
X-5930000Y-491250D01*
X-5930000Y-408750D01*
X-5770000Y-408750D01*
X-5770000Y-491250D01*
D11*
%TO.C,J1*%
X-5403600Y746450D02*
X-5073400Y746450D01*
X-5403600Y390850D02*
X-5403600Y746450D01*
X-5073400Y746450D02*
X-4946400Y619450D01*
X-4946400Y619450D02*
X-4946400Y390850D01*
X-4946400Y390850D02*
X-5403600Y390850D01*
D10*
%TO.C,U1*%
X-4962500Y-270000D02*
X-5512500Y-270000D01*
X-5612500Y-170000D01*
X-5612500Y170000D01*
X-4962500Y170000D01*
X-4962500Y-270000D01*
%TD*%
X2760500Y664500D02*
X4089500Y-664500D01*
X2760500Y-664500D02*
X4089500Y664500D01*
X-4839500Y664500D02*
X-3510500Y-664500D01*
X-4839500Y-664500D02*
X-3510500Y664500D01*
X-1039500Y664500D02*
X289500Y-664500D01*
X-1039500Y-664500D02*
X289500Y664500D01*
X860500Y664500D02*
X2189500Y-664500D01*
X860500Y-664500D02*
X2189500Y664500D01*
X4660500Y664500D02*
X5989500Y-664500D01*
X4660500Y-664500D02*
X5989500Y664500D01*
X-2939500Y664500D02*
X-1610500Y-664500D01*
X-2939500Y-664500D02*
X-1610500Y664500D01*
M02*
