%TF.GenerationSoftware,KiCad,Pcbnew,9.0.5*%
%TF.CreationDate,2025-10-03T12:11:08+01:00*%
%TF.ProjectId,vm_jacdaptor,766d5f6a-6163-4646-9170-746f722e6b69,0.4*%
%TF.SameCoordinates,PX58b1140PY3fe56c0*%
%TF.FileFunction,Copper,L2,Bot*%
%TF.FilePolarity,Positive*%
%FSLAX45Y45*%
G04 Gerber Fmt 4.5, Leading zero omitted, Abs format (unit mm)*
G04 Created by KiCad (PCBNEW 9.0.5) date 2025-10-03 12:11:08*
%MOMM*%
%LPD*%
G01*
G04 APERTURE LIST*
%TA.AperFunction,ComponentPad*%
%ADD10O,1.100000X5.500000*%
%TD*%
%TA.AperFunction,SMDPad,CuDef*%
%ADD11C,0.125000*%
%TD*%
%TA.AperFunction,ViaPad*%
%ADD12C,0.600000*%
%TD*%
%TA.AperFunction,ViaPad*%
%ADD13C,0.450000*%
%TD*%
%TA.AperFunction,Conductor*%
%ADD14C,0.250000*%
%TD*%
%TA.AperFunction,Conductor*%
%ADD15C,0.500000*%
%TD*%
G04 APERTURE END LIST*
D10*
%TO.P,J1,41*%
%TO.N,N/C*%
X2700000Y825000D03*
%TO.P,J1,42*%
X-2700000Y825000D03*
%TD*%
D11*
%TO.P,GS12,1,SWDIO~8*%
%TO.N,/SWDIO_8*%
X600000Y-1100000D03*
%TD*%
%TO.P,GS5,1,SWDIO~1*%
%TO.N,/SWDIO_1*%
X-200000Y-1100000D03*
%TD*%
%TO.P,GS10,1,SWDIO~6*%
%TO.N,/SWDIO_6*%
X400000Y-1100000D03*
%TD*%
%TO.P,GS7,1,SWDIO~3*%
%TO.N,/SWDIO_3*%
X100000Y-1100000D03*
%TD*%
%TO.P,GS6,1,SWDIO~2*%
%TO.N,/SWDIO_2*%
X0Y-1100000D03*
%TD*%
%TO.P,GS4,1,SWDIO~0*%
%TO.N,/SWDIO_0*%
X-300000Y-1100000D03*
%TD*%
%TO.P,GS8,1,SWDIO~4*%
%TO.N,/SWDIO_4*%
X200000Y-1100000D03*
%TD*%
%TO.P,GS11,1,SWDIO~7*%
%TO.N,/SWDIO_7*%
X500000Y-1100000D03*
%TD*%
%TO.P,GS9,1,SWDIO~5*%
%TO.N,/SWDIO_5*%
X300000Y-1100000D03*
%TD*%
D12*
%TO.N,+3V3*%
X-1750000Y-750100D03*
X-2067500Y-367500D03*
D13*
X825000Y-262500D03*
X700000Y-325000D03*
D12*
%TO.N,GND*%
X-2006819Y-444689D03*
D13*
X1550000Y-770000D03*
X-400000Y-850000D03*
X-402500Y-1020000D03*
D12*
X-1930000Y-710000D03*
X1700000Y-950000D03*
X725000Y-875000D03*
%TO.N,/JD_DATA*%
X1312500Y-875000D03*
D13*
X700000Y-1020000D03*
%TO.N,/SWDIO_1*%
X-700000Y-190000D03*
%TO.N,/SWDIO_2*%
X-60000Y-180000D03*
%TO.N,/SWDIO_3*%
X320000Y-176900D03*
%TO.N,/SWDIO_4*%
X440000Y-176900D03*
%TO.N,/SWDIO_5*%
X570000Y-180000D03*
%TO.N,/SWDIO_6*%
X700000Y-180000D03*
%TO.N,/SWDIO_7*%
X1590000Y-190000D03*
%TO.N,/SWCLK*%
X-600000Y-1020000D03*
X-1970000Y-190000D03*
%TO.N,/RESET*%
X-500000Y-1020000D03*
X-950000Y-190000D03*
%TO.N,/SWDIO_0*%
X-820000Y-190000D03*
%TO.N,/SWDIO_8*%
X1720000Y-190000D03*
%TD*%
D14*
%TO.N,+3V3*%
X-2067500Y-367500D02*
X-1907500Y-367500D01*
D15*
X700000Y-325000D02*
X762500Y-325000D01*
D14*
X-1750000Y-525000D02*
X-1750000Y-750100D01*
D15*
X762500Y-325000D02*
X825000Y-262500D01*
D14*
X-1907500Y-367500D02*
X-1750000Y-525000D01*
%TO.N,GND*%
X-402500Y-852500D02*
X-400000Y-850000D01*
X-402500Y-1020000D02*
X-402500Y-852500D01*
D15*
X-2009261Y-447131D02*
X-2006819Y-444689D01*
X830000Y-770000D02*
X725000Y-875000D01*
X-1947098Y-657098D02*
X-1930000Y-674195D01*
X1650000Y-950000D02*
X1550000Y-850000D01*
X-1930000Y-674195D02*
X-1930000Y-710000D01*
X1550000Y-850000D02*
X1550000Y-770000D01*
X-2009261Y-594934D02*
X-2009261Y-447131D01*
X1700000Y-950000D02*
X1650000Y-950000D01*
X1550000Y-770000D02*
X830000Y-770000D01*
X-1947098Y-657098D02*
X-2009261Y-594934D01*
D14*
%TO.N,/JD_DATA*%
X700000Y-1020000D02*
X845000Y-875000D01*
X845000Y-875000D02*
X1312500Y-875000D01*
%TO.N,/SWDIO_1*%
X-200000Y-1100000D02*
X-200000Y-790000D01*
X-700000Y-290000D02*
X-700000Y-190000D01*
X-200000Y-790000D02*
X-700000Y-290000D01*
%TO.N,/SWDIO_2*%
X0Y-240000D02*
X-60000Y-180000D01*
X0Y-1100000D02*
X0Y-240000D01*
%TO.N,/SWDIO_3*%
X100000Y-410000D02*
X320000Y-190000D01*
X100000Y-1100000D02*
X100000Y-410000D01*
X320000Y-190000D02*
X320000Y-176900D01*
%TO.N,/SWDIO_4*%
X200000Y-430000D02*
X440000Y-190000D01*
X200000Y-1100000D02*
X200000Y-430000D01*
X440000Y-190000D02*
X440000Y-176900D01*
%TO.N,/SWDIO_5*%
X300000Y-1100000D02*
X300000Y-450000D01*
X300000Y-450000D02*
X570000Y-180000D01*
%TO.N,/SWDIO_6*%
X400000Y-480000D02*
X700000Y-180000D01*
X400000Y-1100000D02*
X400000Y-480000D01*
%TO.N,/SWDIO_7*%
X1000000Y-350000D02*
X1430000Y-350000D01*
X500000Y-1100000D02*
X500000Y-850000D01*
X500000Y-850000D02*
X1000000Y-350000D01*
X1430000Y-350000D02*
X1590000Y-190000D01*
%TO.N,/SWCLK*%
X-600000Y-1020000D02*
X-600000Y-800000D01*
X-1810000Y-350000D02*
X-1970000Y-190000D01*
X-1050000Y-350000D02*
X-1810000Y-350000D01*
X-600000Y-800000D02*
X-1050000Y-350000D01*
%TO.N,/RESET*%
X-950000Y-310000D02*
X-950000Y-190000D01*
X-500000Y-1020000D02*
X-500000Y-760000D01*
X-500000Y-760000D02*
X-950000Y-310000D01*
%TO.N,/SWDIO_0*%
X-820000Y-300000D02*
X-820000Y-190000D01*
X-300000Y-820000D02*
X-820000Y-300000D01*
X-300000Y-1100000D02*
X-300000Y-820000D01*
%TO.N,/SWDIO_8*%
X1720000Y-230000D02*
X1720000Y-190000D01*
X1056086Y-423914D02*
X1526086Y-423914D01*
X1526086Y-423914D02*
X1720000Y-230000D01*
X600000Y-1100000D02*
X600000Y-880000D01*
X600000Y-880000D02*
X1056086Y-423914D01*
%TD*%
M02*
