%TF.GenerationSoftware,KiCad,Pcbnew,9.0.6-9.0.6~ubuntu22.04.1*%
%TF.CreationDate,2026-01-23T17:04:03+00:00*%
%TF.ProjectId,vm_jacdaptor,766d5f6a-6163-4646-9170-746f722e6b69,0.4*%
%TF.SameCoordinates,PX58b1140PY3fe56c0*%
%TF.FileFunction,Legend,Top*%
%TF.FilePolarity,Positive*%
%FSLAX45Y45*%
G04 Gerber Fmt 4.5, Leading zero omitted, Abs format (unit mm)*
G04 Created by KiCad (PCBNEW 9.0.6-9.0.6~ubuntu22.04.1) date 2026-01-23 17:04:03*
%MOMM*%
%LPD*%
G01*
G04 APERTURE LIST*
%ADD10C,0.200000*%
%ADD11C,0.100000*%
%ADD12C,0.150000*%
%ADD13C,0.075000*%
G04 APERTURE END LIST*
D10*
X525000Y-650000D02*
X525000Y-775000D01*
D11*
X565000Y-655000D02*
X485000Y-655000D01*
X525000Y-615000D01*
X565000Y-655000D01*
G36*
X565000Y-655000D02*
G01*
X485000Y-655000D01*
X525000Y-615000D01*
X565000Y-655000D01*
G37*
X525000Y-815000D02*
X485000Y-775000D01*
X565000Y-775000D01*
X525000Y-815000D01*
G36*
X525000Y-815000D02*
G01*
X485000Y-775000D01*
X565000Y-775000D01*
X525000Y-815000D01*
G37*
X770000Y-700000D02*
X850000Y-700000D01*
X730000Y-820000D01*
X790000Y-710000D01*
X710000Y-710000D01*
X810000Y-600000D01*
X770000Y-700000D01*
G36*
X770000Y-700000D02*
G01*
X850000Y-700000D01*
X730000Y-820000D01*
X790000Y-710000D01*
X710000Y-710000D01*
X810000Y-600000D01*
X770000Y-700000D01*
G37*
D10*
X516280Y-889274D02*
X516280Y-974988D01*
X516280Y-974988D02*
X510566Y-992131D01*
X510566Y-992131D02*
X499137Y-1003560D01*
X499137Y-1003560D02*
X481995Y-1009274D01*
X481995Y-1009274D02*
X470566Y-1009274D01*
X624852Y-1009274D02*
X624852Y-946417D01*
X624852Y-946417D02*
X619138Y-934988D01*
X619138Y-934988D02*
X607709Y-929274D01*
X607709Y-929274D02*
X584852Y-929274D01*
X584852Y-929274D02*
X573423Y-934988D01*
X624852Y-1003560D02*
X613423Y-1009274D01*
X613423Y-1009274D02*
X584852Y-1009274D01*
X584852Y-1009274D02*
X573423Y-1003560D01*
X573423Y-1003560D02*
X567709Y-992131D01*
X567709Y-992131D02*
X567709Y-980703D01*
X567709Y-980703D02*
X573423Y-969274D01*
X573423Y-969274D02*
X584852Y-963560D01*
X584852Y-963560D02*
X613423Y-963560D01*
X613423Y-963560D02*
X624852Y-957846D01*
X733423Y-1003560D02*
X721995Y-1009274D01*
X721995Y-1009274D02*
X699137Y-1009274D01*
X699137Y-1009274D02*
X687709Y-1003560D01*
X687709Y-1003560D02*
X681995Y-997846D01*
X681995Y-997846D02*
X676280Y-986417D01*
X676280Y-986417D02*
X676280Y-952131D01*
X676280Y-952131D02*
X681995Y-940703D01*
X681995Y-940703D02*
X687709Y-934988D01*
X687709Y-934988D02*
X699137Y-929274D01*
X699137Y-929274D02*
X721995Y-929274D01*
X721995Y-929274D02*
X733423Y-934988D01*
X836280Y-1009274D02*
X836280Y-889274D01*
X836280Y-1003560D02*
X824852Y-1009274D01*
X824852Y-1009274D02*
X801995Y-1009274D01*
X801995Y-1009274D02*
X790566Y-1003560D01*
X790566Y-1003560D02*
X784852Y-997846D01*
X784852Y-997846D02*
X779137Y-986417D01*
X779137Y-986417D02*
X779137Y-952131D01*
X779137Y-952131D02*
X784852Y-940703D01*
X784852Y-940703D02*
X790566Y-934988D01*
X790566Y-934988D02*
X801995Y-929274D01*
X801995Y-929274D02*
X824852Y-929274D01*
X824852Y-929274D02*
X836280Y-934988D01*
X944852Y-1009274D02*
X944852Y-946417D01*
X944852Y-946417D02*
X939137Y-934988D01*
X939137Y-934988D02*
X927709Y-929274D01*
X927709Y-929274D02*
X904852Y-929274D01*
X904852Y-929274D02*
X893423Y-934988D01*
X944852Y-1003560D02*
X933423Y-1009274D01*
X933423Y-1009274D02*
X904852Y-1009274D01*
X904852Y-1009274D02*
X893423Y-1003560D01*
X893423Y-1003560D02*
X887709Y-992131D01*
X887709Y-992131D02*
X887709Y-980703D01*
X887709Y-980703D02*
X893423Y-969274D01*
X893423Y-969274D02*
X904852Y-963560D01*
X904852Y-963560D02*
X933423Y-963560D01*
X933423Y-963560D02*
X944852Y-957846D01*
X1053423Y-1003560D02*
X1041995Y-1009274D01*
X1041995Y-1009274D02*
X1019137Y-1009274D01*
X1019137Y-1009274D02*
X1007709Y-1003560D01*
X1007709Y-1003560D02*
X1001995Y-997846D01*
X1001995Y-997846D02*
X996280Y-986417D01*
X996280Y-986417D02*
X996280Y-952131D01*
X996280Y-952131D02*
X1001995Y-940703D01*
X1001995Y-940703D02*
X1007709Y-934988D01*
X1007709Y-934988D02*
X1019137Y-929274D01*
X1019137Y-929274D02*
X1041995Y-929274D01*
X1041995Y-929274D02*
X1053423Y-934988D01*
X481995Y-509274D02*
X481995Y-429274D01*
X481995Y-440703D02*
X487709Y-434988D01*
X487709Y-434988D02*
X499137Y-429274D01*
X499137Y-429274D02*
X516280Y-429274D01*
X516280Y-429274D02*
X527709Y-434988D01*
X527709Y-434988D02*
X533423Y-446417D01*
X533423Y-446417D02*
X533423Y-509274D01*
X533423Y-446417D02*
X539138Y-434988D01*
X539138Y-434988D02*
X550566Y-429274D01*
X550566Y-429274D02*
X567709Y-429274D01*
X567709Y-429274D02*
X579138Y-434988D01*
X579138Y-434988D02*
X584852Y-446417D01*
X584852Y-446417D02*
X584852Y-509274D01*
X641995Y-509274D02*
X641995Y-429274D01*
X641995Y-389274D02*
X636280Y-394988D01*
X636280Y-394988D02*
X641995Y-400703D01*
X641995Y-400703D02*
X647709Y-394988D01*
X647709Y-394988D02*
X641995Y-389274D01*
X641995Y-389274D02*
X641995Y-400703D01*
X750566Y-503560D02*
X739138Y-509274D01*
X739138Y-509274D02*
X716280Y-509274D01*
X716280Y-509274D02*
X704852Y-503560D01*
X704852Y-503560D02*
X699138Y-497846D01*
X699138Y-497846D02*
X693423Y-486417D01*
X693423Y-486417D02*
X693423Y-452131D01*
X693423Y-452131D02*
X699138Y-440703D01*
X699138Y-440703D02*
X704852Y-434988D01*
X704852Y-434988D02*
X716280Y-429274D01*
X716280Y-429274D02*
X739138Y-429274D01*
X739138Y-429274D02*
X750566Y-434988D01*
X801995Y-509274D02*
X801995Y-429274D01*
X801995Y-452131D02*
X807709Y-440703D01*
X807709Y-440703D02*
X813423Y-434988D01*
X813423Y-434988D02*
X824852Y-429274D01*
X824852Y-429274D02*
X836280Y-429274D01*
X893423Y-509274D02*
X881995Y-503560D01*
X881995Y-503560D02*
X876280Y-497846D01*
X876280Y-497846D02*
X870566Y-486417D01*
X870566Y-486417D02*
X870566Y-452131D01*
X870566Y-452131D02*
X876280Y-440703D01*
X876280Y-440703D02*
X881995Y-434988D01*
X881995Y-434988D02*
X893423Y-429274D01*
X893423Y-429274D02*
X910566Y-429274D01*
X910566Y-429274D02*
X921995Y-434988D01*
X921995Y-434988D02*
X927709Y-440703D01*
X927709Y-440703D02*
X933423Y-452131D01*
X933423Y-452131D02*
X933423Y-486417D01*
X933423Y-486417D02*
X927709Y-497846D01*
X927709Y-497846D02*
X921995Y-503560D01*
X921995Y-503560D02*
X910566Y-509274D01*
X910566Y-509274D02*
X893423Y-509274D01*
X984852Y-497846D02*
X990566Y-503560D01*
X990566Y-503560D02*
X984852Y-509274D01*
X984852Y-509274D02*
X979137Y-503560D01*
X979137Y-503560D02*
X984852Y-497846D01*
X984852Y-497846D02*
X984852Y-509274D01*
X984852Y-434988D02*
X990566Y-440703D01*
X990566Y-440703D02*
X984852Y-446417D01*
X984852Y-446417D02*
X979137Y-440703D01*
X979137Y-440703D02*
X984852Y-434988D01*
X984852Y-434988D02*
X984852Y-446417D01*
X1041995Y-509274D02*
X1041995Y-389274D01*
X1041995Y-434988D02*
X1053423Y-429274D01*
X1053423Y-429274D02*
X1076280Y-429274D01*
X1076280Y-429274D02*
X1087709Y-434988D01*
X1087709Y-434988D02*
X1093423Y-440703D01*
X1093423Y-440703D02*
X1099138Y-452131D01*
X1099138Y-452131D02*
X1099138Y-486417D01*
X1099138Y-486417D02*
X1093423Y-497846D01*
X1093423Y-497846D02*
X1087709Y-503560D01*
X1087709Y-503560D02*
X1076280Y-509274D01*
X1076280Y-509274D02*
X1053423Y-509274D01*
X1053423Y-509274D02*
X1041995Y-503560D01*
X1150566Y-509274D02*
X1150566Y-429274D01*
X1150566Y-389274D02*
X1144852Y-394988D01*
X1144852Y-394988D02*
X1150566Y-400703D01*
X1150566Y-400703D02*
X1156280Y-394988D01*
X1156280Y-394988D02*
X1150566Y-389274D01*
X1150566Y-389274D02*
X1150566Y-400703D01*
X1190566Y-429274D02*
X1236280Y-429274D01*
X1207709Y-389274D02*
X1207709Y-492131D01*
X1207709Y-492131D02*
X1213423Y-503560D01*
X1213423Y-503560D02*
X1224852Y-509274D01*
X1224852Y-509274D02*
X1236280Y-509274D01*
X-2793985Y-936722D02*
X-2784461Y-936722D01*
X-2784461Y-936722D02*
X-2774938Y-941484D01*
X-2774938Y-941484D02*
X-2770176Y-946246D01*
X-2770176Y-946246D02*
X-2765414Y-955769D01*
X-2765414Y-955769D02*
X-2760652Y-974817D01*
X-2760652Y-974817D02*
X-2760652Y-998627D01*
X-2760652Y-998627D02*
X-2765414Y-1017674D01*
X-2765414Y-1017674D02*
X-2770176Y-1027198D01*
X-2770176Y-1027198D02*
X-2774938Y-1031960D01*
X-2774938Y-1031960D02*
X-2784461Y-1036722D01*
X-2784461Y-1036722D02*
X-2793985Y-1036722D01*
X-2793985Y-1036722D02*
X-2803509Y-1031960D01*
X-2803509Y-1031960D02*
X-2808271Y-1027198D01*
X-2808271Y-1027198D02*
X-2813033Y-1017674D01*
X-2813033Y-1017674D02*
X-2817795Y-998627D01*
X-2817795Y-998627D02*
X-2817795Y-974817D01*
X-2817795Y-974817D02*
X-2813033Y-955769D01*
X-2813033Y-955769D02*
X-2808271Y-946246D01*
X-2808271Y-946246D02*
X-2803509Y-941484D01*
X-2803509Y-941484D02*
X-2793985Y-936722D01*
X-2717795Y-1027198D02*
X-2713033Y-1031960D01*
X-2713033Y-1031960D02*
X-2717795Y-1036722D01*
X-2717795Y-1036722D02*
X-2722557Y-1031960D01*
X-2722557Y-1031960D02*
X-2717795Y-1027198D01*
X-2717795Y-1027198D02*
X-2717795Y-1036722D01*
X-2627319Y-970055D02*
X-2627319Y-1036722D01*
X-2651128Y-931960D02*
X-2674938Y-1003388D01*
X-2674938Y-1003388D02*
X-2613033Y-1003388D01*
%TO.C,U2*%
D12*
X1817500Y-647500D02*
X1702500Y-647500D01*
X1702500Y-892500D01*
X1817500Y-892500D01*
X1817500Y-647500D01*
D13*
X1581250Y-647500D02*
G75*
G02*
X1573750Y-647500I-3750J0D01*
G01*
X1573750Y-647500D02*
G75*
G02*
X1581250Y-647500I3750J0D01*
G01*
X1726250Y-667500D02*
G75*
G02*
X1718750Y-667500I-3750J0D01*
G01*
X1718750Y-667500D02*
G75*
G02*
X1726250Y-667500I3750J0D01*
G01*
%TO.C,U3*%
D12*
X-1252500Y-422500D02*
X-1117500Y-422500D01*
X-1117500Y-657500D01*
X-1252500Y-657500D01*
X-1252500Y-422500D01*
D13*
X-1133750Y-637500D02*
G75*
G02*
X-1141250Y-637500I-3750J0D01*
G01*
X-1141250Y-637500D02*
G75*
G02*
X-1133750Y-637500I3750J0D01*
G01*
X-998750Y-677500D02*
G75*
G02*
X-1006250Y-677500I-3750J0D01*
G01*
X-1006250Y-677500D02*
G75*
G02*
X-998750Y-677500I3750J0D01*
G01*
%TO.C,U1*%
D12*
X-1732500Y-642500D02*
X-1967500Y-642500D01*
X-1967500Y-777500D01*
X-1732500Y-777500D01*
X-1732500Y-642500D01*
D13*
X-1983750Y-892500D02*
G75*
G02*
X-1991250Y-892500I-3750J0D01*
G01*
X-1991250Y-892500D02*
G75*
G02*
X-1983750Y-892500I3750J0D01*
G01*
X-1943750Y-757500D02*
G75*
G02*
X-1951250Y-757500I-3750J0D01*
G01*
X-1951250Y-757500D02*
G75*
G02*
X-1943750Y-757500I3750J0D01*
G01*
%TO.C,SW1*%
X-368750Y-1017000D02*
G75*
G02*
X-376250Y-1017000I-3750J0D01*
G01*
X-376250Y-1017000D02*
G75*
G02*
X-368750Y-1017000I3750J0D01*
G01*
D12*
%TO.C,D3*%
X1455000Y-462500D02*
X1495000Y-462500D01*
X1492500Y-495000D02*
X1492500Y-430000D01*
X1497500Y-462500D02*
X1552500Y-430000D01*
X1497500Y-462500D02*
X1552500Y-495000D01*
X1552500Y-462500D02*
X1592500Y-462500D01*
X1552500Y-495000D02*
X1552500Y-430000D01*
D13*
X1331250Y-390000D02*
G75*
G02*
X1323750Y-390000I-3750J0D01*
G01*
X1323750Y-390000D02*
G75*
G02*
X1331250Y-390000I3750J0D01*
G01*
D12*
%TO.C,D2*%
X-1103402Y-941174D02*
X-1103402Y-1006174D01*
X-1103402Y-973674D02*
X-1143402Y-973674D01*
X-1048402Y-973674D02*
X-1103402Y-941174D01*
X-1048402Y-973674D02*
X-1103402Y-1006174D01*
X-1043402Y-941174D02*
X-1043402Y-1006174D01*
X-1005902Y-973674D02*
X-1045902Y-973674D01*
D13*
X-874652Y-1046174D02*
G75*
G02*
X-882152Y-1046174I-3750J0D01*
G01*
X-882152Y-1046174D02*
G75*
G02*
X-874652Y-1046174I3750J0D01*
G01*
D12*
%TO.C,D1*%
X1050000Y-645000D02*
X1050000Y-697500D01*
X1050000Y-645000D02*
X1125000Y-645000D01*
X1050000Y-792500D02*
X1050000Y-845000D01*
X1050000Y-845000D02*
X1125000Y-845000D01*
X1150000Y-697500D02*
X1150000Y-792500D01*
D13*
X1128750Y-825000D02*
G75*
G02*
X1121250Y-825000I-3750J0D01*
G01*
X1121250Y-825000D02*
G75*
G02*
X1128750Y-825000I3750J0D01*
G01*
X1258750Y-887500D02*
G75*
G02*
X1251250Y-887500I-3750J0D01*
G01*
X1251250Y-887500D02*
G75*
G02*
X1258750Y-887500I3750J0D01*
G01*
%TD*%
M02*
