%TF.GenerationSoftware,KiCad,Pcbnew,9.0.5*%
%TF.CreationDate,2025-10-03T12:11:08+01:00*%
%TF.ProjectId,vm_jacdaptor,766d5f6a-6163-4646-9170-746f722e6b69,0.4*%
%TF.SameCoordinates,PX58b1140PY3fe56c0*%
%TF.FileFunction,Other,User*%
%FSLAX45Y45*%
G04 Gerber Fmt 4.5, Leading zero omitted, Abs format (unit mm)*
G04 Created by KiCad (PCBNEW 9.0.5) date 2025-10-03 12:11:08*
%MOMM*%
%LPD*%
G01*
G04 APERTURE LIST*
%ADD10C,0.100000*%
%ADD11C,0.009990*%
%ADD12C,0.010710*%
%ADD13C,0.020780*%
%ADD14C,0.030680*%
%ADD15C,0.010740*%
%ADD16C,0.020680*%
%ADD17C,0.030950*%
%ADD18C,0.040800*%
%ADD19C,0.050870*%
%ADD20C,0.060820*%
%ADD21C,0.010820*%
%ADD22C,0.020690*%
%ADD23C,0.030830*%
%ADD24C,0.040690*%
%ADD25C,0.050840*%
%ADD26C,0.040680*%
%ADD27C,0.050650*%
%ADD28C,0.060840*%
%ADD29C,0.070650*%
%ADD30C,0.010830*%
%ADD31C,0.020870*%
%ADD32C,0.030670*%
%ADD33C,0.040760*%
%ADD34C,0.050750*%
%ADD35C,0.040730*%
%ADD36C,0.050790*%
%ADD37C,0.061260*%
%ADD38C,0.070560*%
%ADD39C,0.070490*%
%ADD40C,0.070540*%
%ADD41C,0.070510*%
%ADD42C,0.070500*%
%ADD43C,0.070480*%
%ADD44C,0.070520*%
%ADD45C,0.070550*%
%ADD46C,0.070530*%
G04 APERTURE END LIST*
D10*
X-2900000Y1100000D02*
X2900000Y1100000D01*
X2900000Y-1100000D01*
X-2900000Y-1100000D01*
X-2900000Y1100000D01*
D11*
%TO.C,GS3*%
X-400000Y-1100000D02*
X-400000Y-1100000D01*
D12*
X-400000Y-1100000D02*
X-400000Y-1100000D01*
D13*
X-400000Y-1100000D02*
X-400000Y-1100000D01*
D14*
X-400000Y-1100000D02*
X-400000Y-1100000D01*
D11*
%TO.C,GS1*%
X-100000Y-1100000D02*
X-100000Y-1100000D01*
D15*
X-100000Y-1100000D02*
X-100000Y-1100000D01*
D16*
X-100000Y-1100000D02*
X-100000Y-1100000D01*
D17*
X-100000Y-1100000D02*
X-100000Y-1100000D01*
D18*
X-100000Y-1100000D02*
X-100000Y-1100000D01*
D19*
X-100000Y-1100000D02*
X-100000Y-1100000D01*
D20*
X-100000Y-1100000D02*
X-100000Y-1100000D01*
D11*
%TO.C,GS14*%
X-500000Y-1100000D02*
X-500000Y-1100000D01*
D21*
X-500000Y-1100000D02*
X-500000Y-1100000D01*
D22*
X-500000Y-1100000D02*
X-500000Y-1100000D01*
D23*
X-500000Y-1100000D02*
X-500000Y-1100000D01*
D24*
X-500000Y-1100000D02*
X-500000Y-1100000D01*
D25*
X-500000Y-1100000D02*
X-500000Y-1100000D01*
D11*
%TO.C,GS2*%
X700000Y-1100000D02*
X700000Y-1100000D01*
D15*
X700000Y-1100000D02*
X700000Y-1100000D01*
D16*
X700000Y-1100000D02*
X700000Y-1100000D01*
D17*
X700000Y-1100000D02*
X700000Y-1100000D01*
D26*
X700000Y-1100000D02*
X700000Y-1100000D01*
D27*
X700000Y-1100000D02*
X700000Y-1100000D01*
D28*
X700000Y-1100000D02*
X700000Y-1100000D01*
D29*
X700000Y-1100000D02*
X700000Y-1100000D01*
D11*
%TO.C,GS13*%
X-600000Y-1100000D02*
X-600000Y-1100000D01*
D30*
X-600000Y-1100000D02*
X-600000Y-1100000D01*
D31*
X-600000Y-1100000D02*
X-600000Y-1100000D01*
D32*
X-600000Y-1100000D02*
X-600000Y-1100000D01*
D33*
X-600000Y-1100000D02*
X-600000Y-1100000D01*
D34*
X-600000Y-1100000D02*
X-600000Y-1100000D01*
D11*
%TO.C,GS12*%
X600000Y-1100000D02*
X600000Y-1100000D01*
D30*
X600000Y-1100000D02*
X600000Y-1100000D01*
D31*
X600000Y-1100000D02*
X600000Y-1100000D01*
D14*
X600000Y-1100000D02*
X600000Y-1100000D01*
D35*
X600000Y-1100000D02*
X600000Y-1100000D01*
D36*
X600000Y-1100000D02*
X600000Y-1100000D01*
D37*
X600000Y-1100000D02*
X600000Y-1100000D01*
D38*
X600000Y-1100000D02*
X600000Y-1100000D01*
D11*
%TO.C,GS5*%
X-200000Y-1100000D02*
X-200000Y-1100000D01*
D30*
X-200000Y-1100000D02*
X-200000Y-1100000D01*
D31*
X-200000Y-1100000D02*
X-200000Y-1100000D01*
D14*
X-200000Y-1100000D02*
X-200000Y-1100000D01*
D35*
X-200000Y-1100000D02*
X-200000Y-1100000D01*
D36*
X-200000Y-1100000D02*
X-200000Y-1100000D01*
D37*
X-200000Y-1100000D02*
X-200000Y-1100000D01*
D39*
X-200000Y-1100000D02*
X-200000Y-1100000D01*
D11*
%TO.C,GS10*%
X400000Y-1100000D02*
X400000Y-1100000D01*
D30*
X400000Y-1100000D02*
X400000Y-1100000D01*
D31*
X400000Y-1100000D02*
X400000Y-1100000D01*
D14*
X400000Y-1100000D02*
X400000Y-1100000D01*
D35*
X400000Y-1100000D02*
X400000Y-1100000D01*
D36*
X400000Y-1100000D02*
X400000Y-1100000D01*
D37*
X400000Y-1100000D02*
X400000Y-1100000D01*
D40*
X400000Y-1100000D02*
X400000Y-1100000D01*
D11*
%TO.C,GS7*%
X100000Y-1100000D02*
X100000Y-1100000D01*
D30*
X100000Y-1100000D02*
X100000Y-1100000D01*
D31*
X100000Y-1100000D02*
X100000Y-1100000D01*
D14*
X100000Y-1100000D02*
X100000Y-1100000D01*
D35*
X100000Y-1100000D02*
X100000Y-1100000D01*
D36*
X100000Y-1100000D02*
X100000Y-1100000D01*
D37*
X100000Y-1100000D02*
X100000Y-1100000D01*
D41*
X100000Y-1100000D02*
X100000Y-1100000D01*
D11*
%TO.C,GS6*%
X0Y-1100000D02*
X0Y-1100000D01*
D30*
X0Y-1100000D02*
X0Y-1100000D01*
D31*
X0Y-1100000D02*
X0Y-1100000D01*
D14*
X0Y-1100000D02*
X0Y-1100000D01*
D35*
X0Y-1100000D02*
X0Y-1100000D01*
D36*
X0Y-1100000D02*
X0Y-1100000D01*
D37*
X0Y-1100000D02*
X0Y-1100000D01*
D42*
X0Y-1100000D02*
X0Y-1100000D01*
D11*
%TO.C,GS4*%
X-300000Y-1100000D02*
X-300000Y-1100000D01*
D30*
X-300000Y-1100000D02*
X-300000Y-1100000D01*
D31*
X-300000Y-1100000D02*
X-300000Y-1100000D01*
D14*
X-300000Y-1100000D02*
X-300000Y-1100000D01*
D35*
X-300000Y-1100000D02*
X-300000Y-1100000D01*
D36*
X-300000Y-1100000D02*
X-300000Y-1100000D01*
D37*
X-300000Y-1100000D02*
X-300000Y-1100000D01*
D43*
X-300000Y-1100000D02*
X-300000Y-1100000D01*
D11*
%TO.C,GS8*%
X200000Y-1100000D02*
X200000Y-1100000D01*
D30*
X200000Y-1100000D02*
X200000Y-1100000D01*
D31*
X200000Y-1100000D02*
X200000Y-1100000D01*
D14*
X200000Y-1100000D02*
X200000Y-1100000D01*
D35*
X200000Y-1100000D02*
X200000Y-1100000D01*
D36*
X200000Y-1100000D02*
X200000Y-1100000D01*
D37*
X200000Y-1100000D02*
X200000Y-1100000D01*
D44*
X200000Y-1100000D02*
X200000Y-1100000D01*
D11*
%TO.C,GS11*%
X500000Y-1100000D02*
X500000Y-1100000D01*
D30*
X500000Y-1100000D02*
X500000Y-1100000D01*
D31*
X500000Y-1100000D02*
X500000Y-1100000D01*
D14*
X500000Y-1100000D02*
X500000Y-1100000D01*
D35*
X500000Y-1100000D02*
X500000Y-1100000D01*
D36*
X500000Y-1100000D02*
X500000Y-1100000D01*
D37*
X500000Y-1100000D02*
X500000Y-1100000D01*
D45*
X500000Y-1100000D02*
X500000Y-1100000D01*
D11*
%TO.C,GS9*%
X300000Y-1100000D02*
X300000Y-1100000D01*
D30*
X300000Y-1100000D02*
X300000Y-1100000D01*
D31*
X300000Y-1100000D02*
X300000Y-1100000D01*
D14*
X300000Y-1100000D02*
X300000Y-1100000D01*
D35*
X300000Y-1100000D02*
X300000Y-1100000D01*
D36*
X300000Y-1100000D02*
X300000Y-1100000D01*
D37*
X300000Y-1100000D02*
X300000Y-1100000D01*
D46*
X300000Y-1100000D02*
X300000Y-1100000D01*
%TD*%
M02*
