%TF.GenerationSoftware,KiCad,Pcbnew,9.0.5*%
%TF.CreationDate,2025-10-03T12:11:08+01:00*%
%TF.ProjectId,vm_jacdaptor,766d5f6a-6163-4646-9170-746f722e6b69,0.4*%
%TF.SameCoordinates,PX58b1140PY3fe56c0*%
%TF.FileFunction,AssemblyDrawing,Top*%
%FSLAX45Y45*%
G04 Gerber Fmt 4.5, Leading zero omitted, Abs format (unit mm)*
G04 Created by KiCad (PCBNEW 9.0.5) date 2025-10-03 12:11:08*
%MOMM*%
%LPD*%
G01*
G04 APERTURE LIST*
%ADD10C,0.100000*%
%ADD11C,0.075000*%
%ADD12C,0.060000*%
G04 APERTURE END LIST*
D10*
%TO.C,GS3*%
X-450000Y-1100000D02*
X-350000Y-1100000D01*
X-400000Y-1050000D02*
X-400000Y-1150000D01*
X-350000Y-1100000D02*
G75*
G02*
X-450000Y-1100000I-50000J0D01*
G01*
X-450000Y-1100000D02*
G75*
G02*
X-350000Y-1100000I50000J0D01*
G01*
%TO.C,GS1*%
X-150000Y-1100000D02*
X-50000Y-1100000D01*
X-100000Y-1050000D02*
X-100000Y-1150000D01*
X-50000Y-1100000D02*
G75*
G02*
X-150000Y-1100000I-50000J0D01*
G01*
X-150000Y-1100000D02*
G75*
G02*
X-50000Y-1100000I50000J0D01*
G01*
%TO.C,U2*%
D11*
X1581250Y-647500D02*
G75*
G02*
X1573750Y-647500I-3750J0D01*
G01*
X1573750Y-647500D02*
G75*
G02*
X1581250Y-647500I3750J0D01*
G01*
%TO.C,U3*%
X-998750Y-677500D02*
G75*
G02*
X-1006250Y-677500I-3750J0D01*
G01*
X-1006250Y-677500D02*
G75*
G02*
X-998750Y-677500I3750J0D01*
G01*
%TO.C,U1*%
X-1983750Y-892500D02*
G75*
G02*
X-1991250Y-892500I-3750J0D01*
G01*
X-1991250Y-892500D02*
G75*
G02*
X-1983750Y-892500I3750J0D01*
G01*
D10*
%TO.C,GS14*%
X-550000Y-1100000D02*
X-450000Y-1100000D01*
X-500000Y-1050000D02*
X-500000Y-1150000D01*
X-450000Y-1100000D02*
G75*
G02*
X-550000Y-1100000I-50000J0D01*
G01*
X-550000Y-1100000D02*
G75*
G02*
X-450000Y-1100000I50000J0D01*
G01*
%TO.C,SW1*%
D11*
X-368750Y-1017000D02*
G75*
G02*
X-376250Y-1017000I-3750J0D01*
G01*
X-376250Y-1017000D02*
G75*
G02*
X-368750Y-1017000I3750J0D01*
G01*
D10*
%TO.C,GS2*%
X650000Y-1100000D02*
X750000Y-1100000D01*
X700000Y-1050000D02*
X700000Y-1150000D01*
X750000Y-1100000D02*
G75*
G02*
X650000Y-1100000I-50000J0D01*
G01*
X650000Y-1100000D02*
G75*
G02*
X750000Y-1100000I50000J0D01*
G01*
X-2837500Y1082500D02*
X2840000Y1082500D01*
X2840000Y1092500D02*
G75*
G02*
X2840000Y1082500I0J-5000D01*
G01*
X2840000Y1092500D02*
X-2837500Y1092500D01*
X-2837500Y1092500D02*
G75*
G03*
X-2837500Y1082500I0J-5000D01*
G01*
X2835000Y1087500D02*
X2835000Y30000D01*
X2845000Y30000D02*
G75*
G02*
X2835000Y30000I-5000J0D01*
G01*
X2845000Y30000D02*
X2845000Y1087500D01*
X2845000Y1087500D02*
G75*
G03*
X2835000Y1087500I-5000J0D01*
G01*
X2840000Y35000D02*
X-2837500Y35000D01*
X-2837500Y25000D02*
G75*
G02*
X-2837500Y35000I0J5000D01*
G01*
X-2837500Y25000D02*
X2840000Y25000D01*
X2840000Y25000D02*
G75*
G03*
X2840000Y35000I0J5000D01*
G01*
X-2832500Y30000D02*
X-2832500Y1087500D01*
X-2842500Y1087500D02*
G75*
G02*
X-2832500Y1087500I5000J0D01*
G01*
X-2842500Y1087500D02*
X-2842500Y30000D01*
X-2842500Y30000D02*
G75*
G03*
X-2832500Y30000I5000J0D01*
G01*
D12*
%TO.C,J1*%
D10*
X-2725000Y-131000D02*
G75*
G02*
X-2735000Y-131000I-5000J0D01*
G01*
X-2735000Y-131000D02*
G75*
G02*
X-2725000Y-131000I5000J0D01*
G01*
X-2729000Y-131000D02*
G75*
G02*
X-2731000Y-131000I-1000J0D01*
G01*
X-2731000Y-131000D02*
G75*
G02*
X-2729000Y-131000I1000J0D01*
G01*
%TO.C,GS13*%
X-650000Y-1100000D02*
X-550000Y-1100000D01*
X-600000Y-1050000D02*
X-600000Y-1150000D01*
X-550000Y-1100000D02*
G75*
G02*
X-650000Y-1100000I-50000J0D01*
G01*
X-650000Y-1100000D02*
G75*
G02*
X-550000Y-1100000I50000J0D01*
G01*
%TO.C,D3*%
D11*
X1331250Y-390000D02*
G75*
G02*
X1323750Y-390000I-3750J0D01*
G01*
X1323750Y-390000D02*
G75*
G02*
X1331250Y-390000I3750J0D01*
G01*
%TO.C,D2*%
X-874652Y-1046174D02*
G75*
G02*
X-882152Y-1046174I-3750J0D01*
G01*
X-882152Y-1046174D02*
G75*
G02*
X-874652Y-1046174I3750J0D01*
G01*
%TO.C,D1*%
X1258750Y-887500D02*
G75*
G02*
X1251250Y-887500I-3750J0D01*
G01*
X1251250Y-887500D02*
G75*
G02*
X1258750Y-887500I3750J0D01*
G01*
%TD*%
D10*
X-2842500Y1100000D02*
X2845000Y-151000D01*
X-2842500Y-151000D02*
X2845000Y1100000D01*
M02*
