%TF.GenerationSoftware,KiCad,Pcbnew,9.0.4*%
%TF.CreationDate,2025-10-01T23:04:10+01:00*%
%TF.ProjectId,vm_jacdaptor,766d5f6a-6163-4646-9170-746f722e6b69,0.3*%
%TF.SameCoordinates,PX58b1140PY3fe56c0*%
%TF.FileFunction,Soldermask,Top*%
%TF.FilePolarity,Negative*%
%FSLAX45Y45*%
G04 Gerber Fmt 4.5, Leading zero omitted, Abs format (unit mm)*
G04 Created by KiCad (PCBNEW 9.0.4) date 2025-10-01 23:04:10*
%MOMM*%
%LPD*%
G01*
G04 APERTURE LIST*
%ADD10R,1.700000X1.700000*%
%ADD11O,1.700000X1.700000*%
%ADD12R,0.860000X0.810000*%
%ADD13R,0.800000X0.900000*%
%ADD14R,1.000000X0.700000*%
%ADD15R,0.900000X0.800000*%
%ADD16R,0.810000X0.860000*%
%ADD17R,3.320000X1.500000*%
%ADD18R,1.100000X0.600000*%
%ADD19R,0.600000X1.100000*%
%ADD20R,2.000000X1.200000*%
%ADD21C,1.800000*%
%ADD22R,0.800000X2.500000*%
%ADD23O,1.100000X5.500000*%
%ADD24R,1.000000X1.200000*%
%ADD25R,1.250000X0.700000*%
G04 APERTURE END LIST*
D10*
%TO.C,J2*%
X1395000Y-920000D03*
D11*
X1649000Y-920000D03*
X1903000Y-920000D03*
X2157000Y-920000D03*
X2411000Y-920000D03*
X2665000Y-920000D03*
%TD*%
D12*
%TO.C,R4*%
X1750000Y-385000D03*
X1750000Y-535000D03*
%TD*%
%TO.C,R1*%
X-1620000Y-585000D03*
X-1620000Y-435000D03*
%TD*%
D13*
%TO.C,C7*%
X-1255000Y-760000D03*
X-1115000Y-760000D03*
%TD*%
D14*
%TO.C,U2*%
X2030000Y-385000D03*
X2030000Y-480000D03*
X2030000Y-575000D03*
X2270000Y-575000D03*
X2270000Y-385000D03*
%TD*%
D15*
%TO.C,C2*%
X-1620000Y-710000D03*
X-1620000Y-850000D03*
%TD*%
D16*
%TO.C,R2*%
X-1765000Y-425000D03*
X-1915000Y-425000D03*
%TD*%
D17*
%TO.C,L1*%
X-2340000Y-577000D03*
X-2340000Y-843000D03*
%TD*%
D15*
%TO.C,C1*%
X-2080000Y-570000D03*
X-2080000Y-710000D03*
%TD*%
%TO.C,C6*%
X1890000Y-390000D03*
X1890000Y-530000D03*
%TD*%
D18*
%TO.C,U3*%
X-1050000Y-635000D03*
X-1050000Y-540000D03*
X-1050000Y-445000D03*
X-1320000Y-445000D03*
X-1320000Y-540000D03*
X-1320000Y-635000D03*
%TD*%
D15*
%TO.C,C5*%
X2410000Y-390000D03*
X2410000Y-530000D03*
%TD*%
D12*
%TO.C,R3*%
X-905000Y-615000D03*
X-905000Y-465000D03*
%TD*%
D13*
%TO.C,C3*%
X-855000Y-760000D03*
X-995000Y-760000D03*
%TD*%
D19*
%TO.C,U1*%
X-1945000Y-845000D03*
X-1850000Y-845000D03*
X-1755000Y-845000D03*
X-1755000Y-575000D03*
X-1850000Y-575000D03*
X-1945000Y-575000D03*
%TD*%
D20*
%TO.C,SW1*%
X-260000Y-964500D03*
X-260000Y-714500D03*
X-260000Y-464500D03*
X310000Y-964500D03*
X310000Y-714500D03*
X310000Y-464500D03*
%TD*%
D21*
%TO.C,J1*%
X-1300000Y660000D03*
X1300000Y660000D03*
D22*
X-2476000Y-26000D03*
X-2349000Y-26000D03*
X-2222000Y-26000D03*
X-2095000Y-26000D03*
X-1968000Y-26000D03*
X-1841000Y-26000D03*
X-1714000Y-26000D03*
X-1587000Y-26000D03*
X-1461000Y-26000D03*
X-1334000Y-26000D03*
X-1206000Y-26000D03*
X-1079000Y-26000D03*
X-952000Y-26000D03*
X-825000Y-26000D03*
X-698000Y-26000D03*
X-571000Y-26000D03*
X-444000Y-26000D03*
X-317000Y-26000D03*
X-190000Y-26000D03*
X-63000Y-26000D03*
X63000Y-26000D03*
X190000Y-26000D03*
X317000Y-26000D03*
X445000Y-26000D03*
X572000Y-26000D03*
X699000Y-26000D03*
X826000Y-26000D03*
X953000Y-26000D03*
X1080000Y-26000D03*
X1207000Y-26000D03*
X1334000Y-26000D03*
X1461000Y-26000D03*
X1588000Y-26000D03*
X1714000Y-26000D03*
X1841000Y-26000D03*
X1969000Y-26000D03*
X2096000Y-26000D03*
X2223000Y-26000D03*
X2350000Y-26000D03*
X2477000Y-26000D03*
D23*
X2700000Y825000D03*
X-2700000Y825000D03*
%TD*%
D15*
%TO.C,C4*%
X-775000Y-460000D03*
X-775000Y-600000D03*
%TD*%
D24*
%TO.C,D2*%
X-915000Y-930000D03*
X-1225000Y-930000D03*
%TD*%
D25*
%TO.C,D1*%
X1590000Y-550000D03*
X1590000Y-360000D03*
X1390000Y-455000D03*
%TD*%
M02*
