M48
; DRILL file {KiCad 9.0.4} date 2025-10-01T23:04:10+0100
; FORMAT={-:-/ absolute / metric / decimal}
; #@! TF.CreationDate,2025-10-01T23:04:10+01:00
; #@! TF.GenerationSoftware,Kicad,Pcbnew,9.0.4
; #@! TF.FileFunction,Plated,1,2,PTH
FMAT,2
METRIC
; #@! TA.AperFunction,Plated,PTH,ViaDrill
T1C0.300
; #@! TA.AperFunction,Plated,PTH,ComponentDrill
T2C0.600
; #@! TA.AperFunction,Plated,PTH,ComponentDrill
T3C1.000
; #@! TA.AperFunction,Plated,PTH,ComponentDrill
T4C1.800
%
G90
G05
T1
X-22.6Y-2.55
X-20.675Y-3.675
X-20.068Y-4.447
X-19.7Y-1.9
X-19.3Y-7.1
X-17.5Y-7.501
X-14.65Y-4.45
X-14.2Y-2.45
X-9.5Y-1.9
X-8.2Y-1.9
X-7.45Y-8.3
X-7.0Y-1.9
X-6.0Y-8.3
X-6.0Y-10.2
X-5.0Y-7.6
X-5.0Y-10.2
X-4.025Y-10.2
X-3.35Y-3.05
X-1.987Y-8.62
X-1.525Y-8.163
X-0.6Y-1.8
X-0.328Y-7.728
X-0.069Y-8.638
X3.2Y-1.769
X4.4Y-1.769
X5.7Y-1.8
X7.0Y-1.8
X7.0Y-10.2
X9.45Y-6.95
X10.2Y-9.65
X11.4Y-8.1
X14.35Y-5.5
X15.9Y-1.9
X17.2Y-1.9
X18.081Y-4.689
X19.4Y-4.8
X21.7Y-6.35
T3
X13.95Y-9.2
X16.49Y-9.2
X19.03Y-9.2
X21.57Y-9.2
X24.11Y-9.2
X26.65Y-9.2
T4
X-13.0Y6.6
X13.0Y6.6
T2
G00X-27.0Y8.85
M15
G01X-27.0Y7.65
M16
G05
G00X27.0Y8.85
M15
G01X27.0Y7.65
M16
G05
M30
