M48
; DRILL file {KiCad 9.0.6-9.0.6~ubuntu22.04.1} date 2026-01-23T17:04:03+0000
; FORMAT={-:-/ absolute / metric / decimal}
; #@! TF.CreationDate,2026-01-23T17:04:03+00:00
; #@! TF.GenerationSoftware,Kicad,Pcbnew,9.0.6-9.0.6~ubuntu22.04.1
; #@! TF.FileFunction,Plated,1,2,PTH
FMAT,2
METRIC
; #@! TA.AperFunction,Plated,PTH,ViaDrill
T1C0.300
; #@! TA.AperFunction,Plated,PTH,ComponentDrill
T2C0.600
%
G90
G05
T1
X-20.675Y-3.675
X-20.068Y-4.447
X-19.7Y-1.9
X-19.3Y-7.1
X-17.5Y-7.501
X-9.5Y-1.9
X-8.2Y-1.9
X-7.0Y-1.9
X-6.0Y-10.2
X-5.0Y-10.2
X-4.025Y-10.2
X-4.0Y-8.5
X-0.6Y-1.8
X3.2Y-1.769
X4.4Y-1.769
X5.7Y-1.8
X7.0Y-1.8
X7.0Y-3.25
X7.0Y-10.2
X7.25Y-8.75
X8.25Y-2.625
X13.125Y-8.75
X15.5Y-7.7
X15.9Y-1.9
X17.0Y-9.5
X17.2Y-1.9
T2
G00X-27.0Y8.85
M15
G01X-27.0Y7.65
M16
G05
G00X27.0Y8.85
M15
G01X27.0Y7.65
M16
G05
M30
