%TF.GenerationSoftware,KiCad,Pcbnew,8.0.8*%
%TF.CreationDate,2025-02-18T18:23:42+00:00*%
%TF.ProjectId,jacdac_connector_0.1,6a616364-6163-45f6-936f-6e6e6563746f,v0.1*%
%TF.SameCoordinates,PX8d24d00PY36d6160*%
%TF.FileFunction,Profile,NP*%
%FSLAX46Y46*%
G04 Gerber Fmt 4.6, Leading zero omitted, Abs format (unit mm)*
G04 Created by KiCad (PCBNEW 8.0.8) date 2025-02-18 18:23:42*
%MOMM*%
%LPD*%
G01*
G04 APERTURE LIST*
%TA.AperFunction,Profile*%
%ADD10C,0.150000*%
%TD*%
G04 APERTURE END LIST*
D10*
X7000000Y0D02*
X8000000Y0D01*
X-7000000Y0D02*
X-8000000Y0D01*
%TO.C,EC1*%
X2150000Y-1500000D02*
X2150000Y-1500000D01*
G75*
G02*
X2850000Y-1500000I350000J0D01*
G01*
X2850000Y-2200000D01*
G75*
G02*
X2150000Y-2200000I-350000J0D01*
G01*
X2150000Y-1500000D01*
X-6000000Y-1000000D02*
X-6000000Y-3461547D01*
X-5031284Y-4400000D02*
X-4500000Y-4400000D01*
X-4298331Y-4400000D02*
X-4500000Y-4400000D01*
X-3300852Y701072D02*
X-3300852Y-3402522D01*
X2500220Y1500000D02*
X-2501925Y1500000D01*
X3299148Y701070D02*
X3299148Y-3400670D01*
X4298480Y-4400000D02*
X4992893Y-4400000D01*
X6000000Y-3250000D02*
X5988413Y-3494557D01*
X6000000Y-3250000D02*
X6000000Y-1000000D01*
X-7000000Y0D02*
G75*
G02*
X-6000000Y-1000000I1J-999999D01*
G01*
X-5031284Y-4400000D02*
G75*
G02*
X-6000000Y-3461547I0J969204D01*
G01*
X-3300852Y701072D02*
G75*
G02*
X-2501925Y1500000I798926J2D01*
G01*
X-3300852Y-3402522D02*
G75*
G02*
X-4298331Y-4400000I-997478J0D01*
G01*
X2500220Y1500000D02*
G75*
G02*
X3299140Y701070I-20J-798940D01*
G01*
X4298480Y-4400000D02*
G75*
G02*
X3299150Y-3400670I0J999330D01*
G01*
X5988413Y-3494557D02*
G75*
G02*
X4992893Y-4399994I-995513J94557D01*
G01*
X6000000Y-1000000D02*
G75*
G02*
X7000000Y0I1000000J0D01*
G01*
X-2850000Y-1500000D02*
X-2850000Y-1500000D01*
G75*
G02*
X-2150000Y-1500000I350000J0D01*
G01*
X-2150000Y-2200000D01*
G75*
G02*
X-2850000Y-2200000I-350000J0D01*
G01*
X-2850000Y-1500000D01*
%TD*%
M02*
