G04 Gerber file generated by Gerbonara*
%TF.GenerationSoftware,KiCad,Pcbnew,8.0.2-1*%
%TF.CreationDate,2024-12-23T20:39:15+00:00*%
%TF.ProjectId,jacdac-slider-MH-0.1,6a616364-6163-42d7-936c-696465722d4d,v0.1*%
%TF.SameCoordinates,PX8d24d00PY36d6160*%
%TF.FileFunction,Legend,Bot*%
%TF.FilePolarity,Positive*%
%MOMM*%
%FSLAX46Y46*%
%IPPOS*%
G75
%LPD*%
%ADD10C,0.01*%
D10*
X0022075573Y-0040027107D02*
X0022135191Y-0040034802D01*
X0022192985Y-0040049614D01*
X0022196802Y-0040050876D01*
X0022252860Y-0040073790D01*
X0022305810Y-0040103590D01*
X0022354965Y-0040139605D01*
X0022399639Y-0040181168D01*
X0022439146Y-0040227611D01*
X0022472799Y-0040278264D01*
X0022499912Y-0040332460D01*
X0022508586Y-0040354469D01*
X0022513136Y-0040368758D01*
X0022518667Y-0040388980D01*
X0022524714Y-0040413264D01*
X0022530811Y-0040439740D01*
X0022536492Y-0040466534D01*
X0022536580Y-0040466973D01*
X0022558207Y-0040566702D01*
X0022581798Y-0040660470D01*
X0022607914Y-0040750125D01*
X0022637115Y-0040837520D01*
X0022669961Y-0040924503D01*
X0022689513Y-0040972200D01*
X0022703193Y-0041006708D01*
X0022712569Y-0041035540D01*
X0022717694Y-0041059657D01*
X0022718622Y-0041080015D01*
X0022715407Y-0041097574D01*
X0022708102Y-0041113294D01*
X0022698151Y-0041126574D01*
X0022689201Y-0041135839D01*
X0022679491Y-0041143505D01*
X0022667635Y-0041150241D01*
X0022652243Y-0041156717D01*
X0022631930Y-0041163604D01*
X0022605307Y-0041171571D01*
X0022604421Y-0041171827D01*
X0022547630Y-0041189511D01*
X0022495899Y-0041208556D01*
X0022446356Y-0041230083D01*
X0022413295Y-0041246277D01*
X0022338161Y-0041289015D01*
X0022266583Y-0041338539D01*
X0022199287Y-0041394219D01*
X0022137002Y-0041455423D01*
X0022080455Y-0041521520D01*
X0022052693Y-0041558841D01*
X0022030760Y-0041587639D01*
X0022010426Y-0041609390D01*
X0021990965Y-0041624635D01*
X0021971648Y-0041633915D01*
X0021951751Y-0041637774D01*
X0021946586Y-0041637955D01*
X0021928035Y-0041636067D01*
X0021911301Y-0041629734D01*
X0021895676Y-0041618297D01*
X0021880451Y-0041601098D01*
X0021864916Y-0041577476D01*
X0021848365Y-0041546773D01*
X0021848208Y-0041546462D01*
X0021790811Y-0041424873D01*
X0021737384Y-0041297225D01*
X0021688265Y-0041164515D01*
X0021643791Y-0041027739D01*
X0021604300Y-0040887895D01*
X0021570128Y-0040745981D01*
X0021557715Y-0040687341D01*
X0021546908Y-0040627864D01*
X0021539995Y-0040574730D01*
X0021536938Y-0040527388D01*
X0021537699Y-0040485285D01*
X0021541569Y-0040451698D01*
X0021556062Y-0040388263D01*
X0021577438Y-0040328481D01*
X0021605459Y-0040272703D01*
X0021639884Y-0040221277D01*
X0021680475Y-0040174555D01*
X0021726992Y-0040132887D01*
X0021779197Y-0040096622D01*
X0021787507Y-0040091668D01*
X0021840222Y-0040065373D01*
X0021896454Y-0040045663D01*
X0021955136Y-0040032644D01*
X0022015199Y-0040026423D01*
X0022075573Y-0040027107D01*
G36*
G01**
X0022135191Y-0040034802D01*
X0022192985Y-0040049614D01*
X0022196802Y-0040050876D01*
X0022252860Y-0040073790D01*
X0022305810Y-0040103590D01*
X0022354965Y-0040139605D01*
X0022399639Y-0040181168D01*
X0022439146Y-0040227611D01*
X0022472799Y-0040278264D01*
X0022499912Y-0040332460D01*
X0022508586Y-0040354469D01*
X0022513136Y-0040368758D01*
X0022518667Y-0040388980D01*
X0022524714Y-0040413264D01*
X0022530811Y-0040439740D01*
X0022536492Y-0040466534D01*
X0022536580Y-0040466973D01*
X0022558207Y-0040566702D01*
X0022581798Y-0040660470D01*
X0022607914Y-0040750125D01*
X0022637115Y-0040837520D01*
X0022669961Y-0040924503D01*
X0022689513Y-0040972200D01*
X0022703193Y-0041006708D01*
X0022712569Y-0041035540D01*
X0022717694Y-0041059657D01*
X0022718622Y-0041080015D01*
X0022715407Y-0041097574D01*
X0022708102Y-0041113294D01*
X0022698151Y-0041126574D01*
X0022689201Y-0041135839D01*
X0022679491Y-0041143505D01*
X0022667635Y-0041150241D01*
X0022652243Y-0041156717D01*
X0022631930Y-0041163604D01*
X0022605307Y-0041171571D01*
X0022604421Y-0041171827D01*
X0022547630Y-0041189511D01*
X0022495899Y-0041208556D01*
X0022446356Y-0041230083D01*
X0022413295Y-0041246277D01*
X0022338161Y-0041289015D01*
X0022266583Y-0041338539D01*
X0022199287Y-0041394219D01*
X0022137002Y-0041455423D01*
X0022080455Y-0041521520D01*
X0022052693Y-0041558841D01*
X0022030760Y-0041587639D01*
X0022010426Y-0041609390D01*
X0021990965Y-0041624635D01*
X0021971648Y-0041633915D01*
X0021951751Y-0041637774D01*
X0021946586Y-0041637955D01*
X0021928035Y-0041636067D01*
X0021911301Y-0041629734D01*
X0021895676Y-0041618297D01*
X0021880451Y-0041601098D01*
X0021864916Y-0041577476D01*
X0021848365Y-0041546773D01*
X0021848208Y-0041546462D01*
X0021790811Y-0041424873D01*
X0021737384Y-0041297225D01*
X0021688265Y-0041164515D01*
X0021643791Y-0041027739D01*
X0021604300Y-0040887895D01*
X0021570128Y-0040745981D01*
X0021557715Y-0040687341D01*
X0021546908Y-0040627864D01*
X0021539995Y-0040574730D01*
X0021536938Y-0040527388D01*
X0021537699Y-0040485285D01*
X0021541569Y-0040451698D01*
X0021556062Y-0040388263D01*
X0021577438Y-0040328481D01*
X0021605459Y-0040272703D01*
X0021639884Y-0040221277D01*
X0021680475Y-0040174555D01*
X0021726992Y-0040132887D01*
X0021779197Y-0040096622D01*
X0021787507Y-0040091668D01*
X0021840222Y-0040065373D01*
X0021896454Y-0040045663D01*
X0021955136Y-0040032644D01*
X0022015199Y-0040026423D01*
X0022075573Y-0040027107D01*
G37*
X0022608844Y-0041732788D02*
X0022615711Y-0041733387D01*
X0022622290Y-0041734429D01*
X0022628936Y-0041736226D01*
X0022636007Y-0041739092D01*
X0022643860Y-0041743339D01*
X0022652852Y-0041749278D01*
X0022663341Y-0041757223D01*
X0022675684Y-0041767487D01*
X0022690237Y-0041780380D01*
X0022707358Y-0041796217D01*
X0022727405Y-0041815309D01*
X0022750734Y-0041837969D01*
X0022777702Y-0041864509D01*
X0022808667Y-0041895242D01*
X0022843986Y-0041930481D01*
X0022884017Y-0041970537D01*
X0022929115Y-0042015723D01*
X0022955366Y-0042042031D01*
X0023001819Y-0042088592D01*
X0023042986Y-0042129888D01*
X0023079194Y-0042166264D01*
X0023110774Y-0042198066D01*
X0023138052Y-0042225638D01*
X0023161358Y-0042249326D01*
X0023181019Y-0042269476D01*
X0023197365Y-0042286432D01*
X0023210723Y-0042300540D01*
X0023221422Y-0042312146D01*
X0023229791Y-0042321595D01*
X0023236157Y-0042329232D01*
X0023240850Y-0042335402D01*
X0023244197Y-0042340451D01*
X0023246528Y-0042344725D01*
X0023248169Y-0042348567D01*
X0023248939Y-0042350745D01*
X0023255659Y-0042382277D01*
X0023255054Y-0042413187D01*
X0023247521Y-0042442408D01*
X0023233460Y-0042468876D01*
X0023213269Y-0042491524D01*
X0023190255Y-0042507724D01*
X0023179441Y-0042513309D01*
X0023169929Y-0042516773D01*
X0023159213Y-0042518611D01*
X0023144790Y-0042519323D01*
X0023131442Y-0042519417D01*
X0023111902Y-0042519073D01*
X0023097720Y-0042517760D01*
X0023086338Y-0042515054D01*
X0023075194Y-0042510534D01*
X0023073895Y-0042509918D01*
X0023069465Y-0042507253D01*
X0023063134Y-0042502491D01*
X0023054599Y-0042495340D01*
X0023043561Y-0042485512D01*
X0023029718Y-0042472714D01*
X0023012767Y-0042456656D01*
X0022992409Y-0042437048D01*
X0022968340Y-0042413598D01*
X0022940261Y-0042386017D01*
X0022907869Y-0042354012D01*
X0022870864Y-0042317295D01*
X0022828943Y-0042275573D01*
X0022781805Y-0042228557D01*
X0022771448Y-0042218215D01*
X0022724631Y-0042171441D01*
X0022683126Y-0042129916D01*
X0022646606Y-0042093301D01*
X0022614746Y-0042061255D01*
X0022587220Y-0042033442D01*
X0022563701Y-0042009521D01*
X0022543864Y-0041989153D01*
X0022527383Y-0041972000D01*
X0022513931Y-0041957722D01*
X0022503183Y-0041945980D01*
X0022494812Y-0041936436D01*
X0022488493Y-0041928750D01*
X0022483900Y-0041922584D01*
X0022480706Y-0041917598D01*
X0022478759Y-0041913842D01*
X0022470234Y-0041888278D01*
X0022466506Y-0041861181D01*
X0022467883Y-0041835570D01*
X0022469884Y-0041826590D01*
X0022482124Y-0041796562D01*
X0022500026Y-0041771584D01*
X0022522803Y-0041752219D01*
X0022549667Y-0041739034D01*
X0022579830Y-0041732592D01*
X0022601329Y-0041732320D01*
X0022608844Y-0041732788D01*
G36*
G01**
X0022615711Y-0041733387D01*
X0022622290Y-0041734429D01*
X0022628936Y-0041736226D01*
X0022636007Y-0041739092D01*
X0022643860Y-0041743339D01*
X0022652852Y-0041749278D01*
X0022663341Y-0041757223D01*
X0022675684Y-0041767487D01*
X0022690237Y-0041780380D01*
X0022707358Y-0041796217D01*
X0022727405Y-0041815309D01*
X0022750734Y-0041837969D01*
X0022777702Y-0041864509D01*
X0022808667Y-0041895242D01*
X0022843986Y-0041930481D01*
X0022884017Y-0041970537D01*
X0022929115Y-0042015723D01*
X0022955366Y-0042042031D01*
X0023001819Y-0042088592D01*
X0023042986Y-0042129888D01*
X0023079194Y-0042166264D01*
X0023110774Y-0042198066D01*
X0023138052Y-0042225638D01*
X0023161358Y-0042249326D01*
X0023181019Y-0042269476D01*
X0023197365Y-0042286432D01*
X0023210723Y-0042300540D01*
X0023221422Y-0042312146D01*
X0023229791Y-0042321595D01*
X0023236157Y-0042329232D01*
X0023240850Y-0042335402D01*
X0023244197Y-0042340451D01*
X0023246528Y-0042344725D01*
X0023248169Y-0042348567D01*
X0023248939Y-0042350745D01*
X0023255659Y-0042382277D01*
X0023255054Y-0042413187D01*
X0023247521Y-0042442408D01*
X0023233460Y-0042468876D01*
X0023213269Y-0042491524D01*
X0023190255Y-0042507724D01*
X0023179441Y-0042513309D01*
X0023169929Y-0042516773D01*
X0023159213Y-0042518611D01*
X0023144790Y-0042519323D01*
X0023131442Y-0042519417D01*
X0023111902Y-0042519073D01*
X0023097720Y-0042517760D01*
X0023086338Y-0042515054D01*
X0023075194Y-0042510534D01*
X0023073895Y-0042509918D01*
X0023069465Y-0042507253D01*
X0023063134Y-0042502491D01*
X0023054599Y-0042495340D01*
X0023043561Y-0042485512D01*
X0023029718Y-0042472714D01*
X0023012767Y-0042456656D01*
X0022992409Y-0042437048D01*
X0022968340Y-0042413598D01*
X0022940261Y-0042386017D01*
X0022907869Y-0042354012D01*
X0022870864Y-0042317295D01*
X0022828943Y-0042275573D01*
X0022781805Y-0042228557D01*
X0022771448Y-0042218215D01*
X0022724631Y-0042171441D01*
X0022683126Y-0042129916D01*
X0022646606Y-0042093301D01*
X0022614746Y-0042061255D01*
X0022587220Y-0042033442D01*
X0022563701Y-0042009521D01*
X0022543864Y-0041989153D01*
X0022527383Y-0041972000D01*
X0022513931Y-0041957722D01*
X0022503183Y-0041945980D01*
X0022494812Y-0041936436D01*
X0022488493Y-0041928750D01*
X0022483900Y-0041922584D01*
X0022480706Y-0041917598D01*
X0022478759Y-0041913842D01*
X0022470234Y-0041888278D01*
X0022466506Y-0041861181D01*
X0022467883Y-0041835570D01*
X0022469884Y-0041826590D01*
X0022482124Y-0041796562D01*
X0022500026Y-0041771584D01*
X0022522803Y-0041752219D01*
X0022549667Y-0041739034D01*
X0022579830Y-0041732592D01*
X0022601329Y-0041732320D01*
X0022608844Y-0041732788D01*
G37*
X0023938825Y-0042275248D02*
X0023964277Y-0042282983D01*
X0023986708Y-0042292178D01*
X0024107227Y-0042341622D01*
X0024231516Y-0042384904D01*
X0024360158Y-0042422204D01*
X0024493735Y-0042453704D01*
X0024524416Y-0042459988D01*
X0024559099Y-0042467089D01*
X0024587480Y-0042473401D01*
X0024611099Y-0042479373D01*
X0024631493Y-0042485450D01*
X0024650202Y-0042492079D01*
X0024668764Y-0042499709D01*
X0024682602Y-0042505933D01*
X0024735583Y-0042534672D01*
X0024784650Y-0042569817D01*
X0024829234Y-0042610639D01*
X0024868762Y-0042656410D01*
X0024902663Y-0042706402D01*
X0024930366Y-0042759886D01*
X0024951300Y-0042816133D01*
X0024962947Y-0042863453D01*
X0024971071Y-0042926212D01*
X0024971608Y-0042987841D01*
X0024964884Y-0043047856D01*
X0024951225Y-0043105772D01*
X0024930955Y-0043161101D01*
X0024904400Y-0043213360D01*
X0024871884Y-0043262063D01*
X0024833734Y-0043306724D01*
X0024790274Y-0043346859D01*
X0024741829Y-0043381980D01*
X0024688725Y-0043411604D01*
X0024631287Y-0043435245D01*
X0024569840Y-0043452417D01*
X0024568130Y-0043452786D01*
X0024550448Y-0043455968D01*
X0024531206Y-0043458092D01*
X0024508507Y-0043459289D01*
X0024480459Y-0043459691D01*
X0024468911Y-0043459668D01*
X0024447226Y-0043459291D01*
X0024426263Y-0043458287D01*
X0024405020Y-0043456494D01*
X0024382492Y-0043453751D01*
X0024357675Y-0043449896D01*
X0024329565Y-0043444767D01*
X0024297158Y-0043438204D01*
X0024259451Y-0043430044D01*
X0024215438Y-0043420125D01*
X0024197052Y-0043415907D01*
X0024083639Y-0043387394D01*
X0023967460Y-0043353599D01*
X0023850372Y-0043315188D01*
X0023734231Y-0043272828D01*
X0023620894Y-0043227186D01*
X0023512218Y-0043178927D01*
X0023441049Y-0043144517D01*
X0023413522Y-0043130032D01*
X0023392491Y-0043117238D01*
X0023376919Y-0043105324D01*
X0023365767Y-0043093482D01*
X0023357998Y-0043080902D01*
X0023357125Y-0043079045D01*
X0023351150Y-0043061011D01*
X0023351202Y-0043044187D01*
X0023355157Y-0043029946D01*
X0023366011Y-0043010234D01*
X0023384332Y-0042989987D01*
X0023409712Y-0042969642D01*
X0023414498Y-0042966341D01*
X0023487730Y-0042912267D01*
X0023555198Y-0042853063D01*
X0023616660Y-0042789022D01*
X0023671876Y-0042720436D01*
X0023720602Y-0042647600D01*
X0023762597Y-0042570804D01*
X0023788105Y-0042514254D01*
X0023800450Y-0042483063D01*
X0023811670Y-0042451670D01*
X0023822420Y-0042418049D01*
X0023833357Y-0042380172D01*
X0023842213Y-0042347234D01*
X0023847525Y-0042328991D01*
X0023852940Y-0042315943D01*
X0023859779Y-0042305442D01*
X0023867232Y-0042297021D01*
X0023882795Y-0042283582D01*
X0023899182Y-0042275503D01*
X0023917493Y-0042272740D01*
X0023938825Y-0042275248D01*
G36*
G01**
X0023964277Y-0042282983D01*
X0023986708Y-0042292178D01*
X0024107227Y-0042341622D01*
X0024231516Y-0042384904D01*
X0024360158Y-0042422204D01*
X0024493735Y-0042453704D01*
X0024524416Y-0042459988D01*
X0024559099Y-0042467089D01*
X0024587480Y-0042473401D01*
X0024611099Y-0042479373D01*
X0024631493Y-0042485450D01*
X0024650202Y-0042492079D01*
X0024668764Y-0042499709D01*
X0024682602Y-0042505933D01*
X0024735583Y-0042534672D01*
X0024784650Y-0042569817D01*
X0024829234Y-0042610639D01*
X0024868762Y-0042656410D01*
X0024902663Y-0042706402D01*
X0024930366Y-0042759886D01*
X0024951300Y-0042816133D01*
X0024962947Y-0042863453D01*
X0024971071Y-0042926212D01*
X0024971608Y-0042987841D01*
X0024964884Y-0043047856D01*
X0024951225Y-0043105772D01*
X0024930955Y-0043161101D01*
X0024904400Y-0043213360D01*
X0024871884Y-0043262063D01*
X0024833734Y-0043306724D01*
X0024790274Y-0043346859D01*
X0024741829Y-0043381980D01*
X0024688725Y-0043411604D01*
X0024631287Y-0043435245D01*
X0024569840Y-0043452417D01*
X0024568130Y-0043452786D01*
X0024550448Y-0043455968D01*
X0024531206Y-0043458092D01*
X0024508507Y-0043459289D01*
X0024480459Y-0043459691D01*
X0024468911Y-0043459668D01*
X0024447226Y-0043459291D01*
X0024426263Y-0043458287D01*
X0024405020Y-0043456494D01*
X0024382492Y-0043453751D01*
X0024357675Y-0043449896D01*
X0024329565Y-0043444767D01*
X0024297158Y-0043438204D01*
X0024259451Y-0043430044D01*
X0024215438Y-0043420125D01*
X0024197052Y-0043415907D01*
X0024083639Y-0043387394D01*
X0023967460Y-0043353599D01*
X0023850372Y-0043315188D01*
X0023734231Y-0043272828D01*
X0023620894Y-0043227186D01*
X0023512218Y-0043178927D01*
X0023441049Y-0043144517D01*
X0023413522Y-0043130032D01*
X0023392491Y-0043117238D01*
X0023376919Y-0043105324D01*
X0023365767Y-0043093482D01*
X0023357998Y-0043080902D01*
X0023357125Y-0043079045D01*
X0023351150Y-0043061011D01*
X0023351202Y-0043044187D01*
X0023355157Y-0043029946D01*
X0023366011Y-0043010234D01*
X0023384332Y-0042989987D01*
X0023409712Y-0042969642D01*
X0023414498Y-0042966341D01*
X0023487730Y-0042912267D01*
X0023555198Y-0042853063D01*
X0023616660Y-0042789022D01*
X0023671876Y-0042720436D01*
X0023720602Y-0042647600D01*
X0023762597Y-0042570804D01*
X0023788105Y-0042514254D01*
X0023800450Y-0042483063D01*
X0023811670Y-0042451670D01*
X0023822420Y-0042418049D01*
X0023833357Y-0042380172D01*
X0023842213Y-0042347234D01*
X0023847525Y-0042328991D01*
X0023852940Y-0042315943D01*
X0023859779Y-0042305442D01*
X0023867232Y-0042297021D01*
X0023882795Y-0042283582D01*
X0023899182Y-0042275503D01*
X0023917493Y-0042272740D01*
X0023938825Y-0042275248D01*
G37*
X0024512315Y-0056537096D02*
X0024545902Y-0056540966D01*
X0024609337Y-0056555459D01*
X0024669119Y-0056576835D01*
X0024724897Y-0056604856D01*
X0024776323Y-0056639281D01*
X0024823045Y-0056679872D01*
X0024864713Y-0056726389D01*
X0024900978Y-0056778594D01*
X0024905932Y-0056786904D01*
X0024932227Y-0056839619D01*
X0024951937Y-0056895851D01*
X0024964956Y-0056954533D01*
X0024971177Y-0057014596D01*
X0024970493Y-0057074970D01*
X0024962798Y-0057134588D01*
X0024947986Y-0057192382D01*
X0024946724Y-0057196199D01*
X0024923810Y-0057252257D01*
X0024894010Y-0057305207D01*
X0024857995Y-0057354362D01*
X0024816432Y-0057399036D01*
X0024769989Y-0057438543D01*
X0024719336Y-0057472196D01*
X0024665140Y-0057499309D01*
X0024643131Y-0057507983D01*
X0024628842Y-0057512533D01*
X0024608620Y-0057518064D01*
X0024584336Y-0057524111D01*
X0024557860Y-0057530208D01*
X0024531066Y-0057535889D01*
X0024530627Y-0057535977D01*
X0024430898Y-0057557604D01*
X0024337130Y-0057581195D01*
X0024247475Y-0057607311D01*
X0024160080Y-0057636512D01*
X0024073097Y-0057669358D01*
X0024025400Y-0057688910D01*
X0023990892Y-0057702590D01*
X0023962060Y-0057711966D01*
X0023937943Y-0057717091D01*
X0023917585Y-0057718019D01*
X0023900026Y-0057714804D01*
X0023884306Y-0057707499D01*
X0023871026Y-0057697548D01*
X0023861761Y-0057688598D01*
X0023854095Y-0057678888D01*
X0023847359Y-0057667032D01*
X0023840883Y-0057651640D01*
X0023833996Y-0057631327D01*
X0023826029Y-0057604704D01*
X0023825773Y-0057603818D01*
X0023808089Y-0057547027D01*
X0023789044Y-0057495296D01*
X0023767517Y-0057445753D01*
X0023751323Y-0057412692D01*
X0023708585Y-0057337558D01*
X0023659061Y-0057265980D01*
X0023603381Y-0057198684D01*
X0023542177Y-0057136399D01*
X0023476080Y-0057079852D01*
X0023438759Y-0057052090D01*
X0023409961Y-0057030157D01*
X0023388210Y-0057009823D01*
X0023372965Y-0056990362D01*
X0023363685Y-0056971045D01*
X0023359826Y-0056951148D01*
X0023359645Y-0056945983D01*
X0023361533Y-0056927432D01*
X0023367866Y-0056910698D01*
X0023379303Y-0056895073D01*
X0023396502Y-0056879848D01*
X0023420124Y-0056864313D01*
X0023450827Y-0056847762D01*
X0023451138Y-0056847605D01*
X0023572727Y-0056790208D01*
X0023700375Y-0056736781D01*
X0023833085Y-0056687662D01*
X0023969861Y-0056643188D01*
X0024109705Y-0056603697D01*
X0024251619Y-0056569525D01*
X0024310259Y-0056557112D01*
X0024369736Y-0056546305D01*
X0024422870Y-0056539392D01*
X0024470212Y-0056536335D01*
X0024512315Y-0056537096D01*
G36*
G01**
X0024545902Y-0056540966D01*
X0024609337Y-0056555459D01*
X0024669119Y-0056576835D01*
X0024724897Y-0056604856D01*
X0024776323Y-0056639281D01*
X0024823045Y-0056679872D01*
X0024864713Y-0056726389D01*
X0024900978Y-0056778594D01*
X0024905932Y-0056786904D01*
X0024932227Y-0056839619D01*
X0024951937Y-0056895851D01*
X0024964956Y-0056954533D01*
X0024971177Y-0057014596D01*
X0024970493Y-0057074970D01*
X0024962798Y-0057134588D01*
X0024947986Y-0057192382D01*
X0024946724Y-0057196199D01*
X0024923810Y-0057252257D01*
X0024894010Y-0057305207D01*
X0024857995Y-0057354362D01*
X0024816432Y-0057399036D01*
X0024769989Y-0057438543D01*
X0024719336Y-0057472196D01*
X0024665140Y-0057499309D01*
X0024643131Y-0057507983D01*
X0024628842Y-0057512533D01*
X0024608620Y-0057518064D01*
X0024584336Y-0057524111D01*
X0024557860Y-0057530208D01*
X0024531066Y-0057535889D01*
X0024530627Y-0057535977D01*
X0024430898Y-0057557604D01*
X0024337130Y-0057581195D01*
X0024247475Y-0057607311D01*
X0024160080Y-0057636512D01*
X0024073097Y-0057669358D01*
X0024025400Y-0057688910D01*
X0023990892Y-0057702590D01*
X0023962060Y-0057711966D01*
X0023937943Y-0057717091D01*
X0023917585Y-0057718019D01*
X0023900026Y-0057714804D01*
X0023884306Y-0057707499D01*
X0023871026Y-0057697548D01*
X0023861761Y-0057688598D01*
X0023854095Y-0057678888D01*
X0023847359Y-0057667032D01*
X0023840883Y-0057651640D01*
X0023833996Y-0057631327D01*
X0023826029Y-0057604704D01*
X0023825773Y-0057603818D01*
X0023808089Y-0057547027D01*
X0023789044Y-0057495296D01*
X0023767517Y-0057445753D01*
X0023751323Y-0057412692D01*
X0023708585Y-0057337558D01*
X0023659061Y-0057265980D01*
X0023603381Y-0057198684D01*
X0023542177Y-0057136399D01*
X0023476080Y-0057079852D01*
X0023438759Y-0057052090D01*
X0023409961Y-0057030157D01*
X0023388210Y-0057009823D01*
X0023372965Y-0056990362D01*
X0023363685Y-0056971045D01*
X0023359826Y-0056951148D01*
X0023359645Y-0056945983D01*
X0023361533Y-0056927432D01*
X0023367866Y-0056910698D01*
X0023379303Y-0056895073D01*
X0023396502Y-0056879848D01*
X0023420124Y-0056864313D01*
X0023450827Y-0056847762D01*
X0023451138Y-0056847605D01*
X0023572727Y-0056790208D01*
X0023700375Y-0056736781D01*
X0023833085Y-0056687662D01*
X0023969861Y-0056643188D01*
X0024109705Y-0056603697D01*
X0024251619Y-0056569525D01*
X0024310259Y-0056557112D01*
X0024369736Y-0056546305D01*
X0024422870Y-0056539392D01*
X0024470212Y-0056536335D01*
X0024512315Y-0056537096D01*
G37*
X0021953413Y-0058350599D02*
X0021967654Y-0058354554D01*
X0021987366Y-0058365408D01*
X0022007613Y-0058383729D01*
X0022027958Y-0058409109D01*
X0022031259Y-0058413895D01*
X0022085333Y-0058487127D01*
X0022144537Y-0058554595D01*
X0022208578Y-0058616057D01*
X0022277164Y-0058671273D01*
X0022350000Y-0058719999D01*
X0022426796Y-0058761994D01*
X0022483346Y-0058787502D01*
X0022514537Y-0058799847D01*
X0022545930Y-0058811067D01*
X0022579551Y-0058821817D01*
X0022617428Y-0058832754D01*
X0022650366Y-0058841610D01*
X0022668609Y-0058846922D01*
X0022681657Y-0058852337D01*
X0022692158Y-0058859176D01*
X0022700579Y-0058866629D01*
X0022714018Y-0058882192D01*
X0022722097Y-0058898579D01*
X0022724860Y-0058916890D01*
X0022722352Y-0058938222D01*
X0022714617Y-0058963674D01*
X0022705422Y-0058986105D01*
X0022655978Y-0059106624D01*
X0022612696Y-0059230913D01*
X0022575396Y-0059359555D01*
X0022543896Y-0059493132D01*
X0022537612Y-0059523813D01*
X0022530511Y-0059558496D01*
X0022524199Y-0059586877D01*
X0022518227Y-0059610496D01*
X0022512150Y-0059630890D01*
X0022505521Y-0059649599D01*
X0022497891Y-0059668161D01*
X0022491667Y-0059681999D01*
X0022462928Y-0059734980D01*
X0022427783Y-0059784047D01*
X0022386961Y-0059828631D01*
X0022341190Y-0059868159D01*
X0022291198Y-0059902060D01*
X0022237714Y-0059929763D01*
X0022181467Y-0059950697D01*
X0022134147Y-0059962344D01*
X0022071388Y-0059970468D01*
X0022009759Y-0059971005D01*
X0021949744Y-0059964281D01*
X0021891828Y-0059950622D01*
X0021836499Y-0059930352D01*
X0021784240Y-0059903797D01*
X0021735537Y-0059871281D01*
X0021690876Y-0059833131D01*
X0021650741Y-0059789671D01*
X0021615620Y-0059741226D01*
X0021585996Y-0059688122D01*
X0021562355Y-0059630684D01*
X0021545183Y-0059569237D01*
X0021544814Y-0059567527D01*
X0021541632Y-0059549845D01*
X0021539508Y-0059530603D01*
X0021538311Y-0059507904D01*
X0021537909Y-0059479856D01*
X0021537932Y-0059468308D01*
X0021538309Y-0059446623D01*
X0021539313Y-0059425660D01*
X0021541106Y-0059404417D01*
X0021543849Y-0059381889D01*
X0021547704Y-0059357072D01*
X0021552833Y-0059328962D01*
X0021559396Y-0059296555D01*
X0021567556Y-0059258848D01*
X0021577475Y-0059214835D01*
X0021581693Y-0059196449D01*
X0021610206Y-0059083036D01*
X0021644001Y-0058966857D01*
X0021682412Y-0058849769D01*
X0021724772Y-0058733628D01*
X0021770414Y-0058620291D01*
X0021818673Y-0058511615D01*
X0021853083Y-0058440446D01*
X0021867568Y-0058412919D01*
X0021880362Y-0058391888D01*
X0021892276Y-0058376316D01*
X0021904118Y-0058365164D01*
X0021916698Y-0058357395D01*
X0021918555Y-0058356522D01*
X0021936589Y-0058350547D01*
X0021953413Y-0058350599D01*
G36*
G01**
X0021967654Y-0058354554D01*
X0021987366Y-0058365408D01*
X0022007613Y-0058383729D01*
X0022027958Y-0058409109D01*
X0022031259Y-0058413895D01*
X0022085333Y-0058487127D01*
X0022144537Y-0058554595D01*
X0022208578Y-0058616057D01*
X0022277164Y-0058671273D01*
X0022350000Y-0058719999D01*
X0022426796Y-0058761994D01*
X0022483346Y-0058787502D01*
X0022514537Y-0058799847D01*
X0022545930Y-0058811067D01*
X0022579551Y-0058821817D01*
X0022617428Y-0058832754D01*
X0022650366Y-0058841610D01*
X0022668609Y-0058846922D01*
X0022681657Y-0058852337D01*
X0022692158Y-0058859176D01*
X0022700579Y-0058866629D01*
X0022714018Y-0058882192D01*
X0022722097Y-0058898579D01*
X0022724860Y-0058916890D01*
X0022722352Y-0058938222D01*
X0022714617Y-0058963674D01*
X0022705422Y-0058986105D01*
X0022655978Y-0059106624D01*
X0022612696Y-0059230913D01*
X0022575396Y-0059359555D01*
X0022543896Y-0059493132D01*
X0022537612Y-0059523813D01*
X0022530511Y-0059558496D01*
X0022524199Y-0059586877D01*
X0022518227Y-0059610496D01*
X0022512150Y-0059630890D01*
X0022505521Y-0059649599D01*
X0022497891Y-0059668161D01*
X0022491667Y-0059681999D01*
X0022462928Y-0059734980D01*
X0022427783Y-0059784047D01*
X0022386961Y-0059828631D01*
X0022341190Y-0059868159D01*
X0022291198Y-0059902060D01*
X0022237714Y-0059929763D01*
X0022181467Y-0059950697D01*
X0022134147Y-0059962344D01*
X0022071388Y-0059970468D01*
X0022009759Y-0059971005D01*
X0021949744Y-0059964281D01*
X0021891828Y-0059950622D01*
X0021836499Y-0059930352D01*
X0021784240Y-0059903797D01*
X0021735537Y-0059871281D01*
X0021690876Y-0059833131D01*
X0021650741Y-0059789671D01*
X0021615620Y-0059741226D01*
X0021585996Y-0059688122D01*
X0021562355Y-0059630684D01*
X0021545183Y-0059569237D01*
X0021544814Y-0059567527D01*
X0021541632Y-0059549845D01*
X0021539508Y-0059530603D01*
X0021538311Y-0059507904D01*
X0021537909Y-0059479856D01*
X0021537932Y-0059468308D01*
X0021538309Y-0059446623D01*
X0021539313Y-0059425660D01*
X0021541106Y-0059404417D01*
X0021543849Y-0059381889D01*
X0021547704Y-0059357072D01*
X0021552833Y-0059328962D01*
X0021559396Y-0059296555D01*
X0021567556Y-0059258848D01*
X0021577475Y-0059214835D01*
X0021581693Y-0059196449D01*
X0021610206Y-0059083036D01*
X0021644001Y-0058966857D01*
X0021682412Y-0058849769D01*
X0021724772Y-0058733628D01*
X0021770414Y-0058620291D01*
X0021818673Y-0058511615D01*
X0021853083Y-0058440446D01*
X0021867568Y-0058412919D01*
X0021880362Y-0058391888D01*
X0021892276Y-0058376316D01*
X0021904118Y-0058365164D01*
X0021916698Y-0058357395D01*
X0021918555Y-0058356522D01*
X0021936589Y-0058350547D01*
X0021953413Y-0058350599D01*
G37*
X0023162030Y-0057467280D02*
X0023171010Y-0057469281D01*
X0023201038Y-0057481521D01*
X0023226016Y-0057499423D01*
X0023245381Y-0057522200D01*
X0023258566Y-0057549064D01*
X0023265008Y-0057579227D01*
X0023265280Y-0057600726D01*
X0023264812Y-0057608241D01*
X0023264213Y-0057615108D01*
X0023263171Y-0057621687D01*
X0023261374Y-0057628333D01*
X0023258508Y-0057635404D01*
X0023254261Y-0057643257D01*
X0023248322Y-0057652249D01*
X0023240377Y-0057662738D01*
X0023230113Y-0057675081D01*
X0023217220Y-0057689634D01*
X0023201383Y-0057706755D01*
X0023182291Y-0057726802D01*
X0023159631Y-0057750131D01*
X0023133091Y-0057777099D01*
X0023102358Y-0057808064D01*
X0023067119Y-0057843383D01*
X0023027063Y-0057883414D01*
X0022981877Y-0057928512D01*
X0022955569Y-0057954763D01*
X0022909008Y-0058001216D01*
X0022867712Y-0058042383D01*
X0022831336Y-0058078591D01*
X0022799534Y-0058110171D01*
X0022771962Y-0058137449D01*
X0022748274Y-0058160755D01*
X0022728124Y-0058180416D01*
X0022711168Y-0058196762D01*
X0022697060Y-0058210120D01*
X0022685454Y-0058220819D01*
X0022676005Y-0058229188D01*
X0022668368Y-0058235554D01*
X0022662198Y-0058240247D01*
X0022657149Y-0058243594D01*
X0022652875Y-0058245925D01*
X0022649033Y-0058247566D01*
X0022646855Y-0058248336D01*
X0022615323Y-0058255056D01*
X0022584413Y-0058254451D01*
X0022555192Y-0058246918D01*
X0022528724Y-0058232857D01*
X0022506076Y-0058212666D01*
X0022489876Y-0058189652D01*
X0022484291Y-0058178838D01*
X0022480827Y-0058169326D01*
X0022478989Y-0058158610D01*
X0022478277Y-0058144187D01*
X0022478183Y-0058130839D01*
X0022478527Y-0058111299D01*
X0022479840Y-0058097117D01*
X0022482546Y-0058085735D01*
X0022487066Y-0058074591D01*
X0022487682Y-0058073292D01*
X0022490347Y-0058068862D01*
X0022495109Y-0058062531D01*
X0022502260Y-0058053996D01*
X0022512088Y-0058042958D01*
X0022524886Y-0058029115D01*
X0022540944Y-0058012164D01*
X0022560552Y-0057991806D01*
X0022584002Y-0057967737D01*
X0022611583Y-0057939658D01*
X0022643588Y-0057907266D01*
X0022680305Y-0057870261D01*
X0022722027Y-0057828340D01*
X0022769043Y-0057781202D01*
X0022779385Y-0057770845D01*
X0022826159Y-0057724028D01*
X0022867684Y-0057682523D01*
X0022904299Y-0057646003D01*
X0022936345Y-0057614143D01*
X0022964158Y-0057586617D01*
X0022988079Y-0057563098D01*
X0023008447Y-0057543261D01*
X0023025600Y-0057526780D01*
X0023039878Y-0057513328D01*
X0023051620Y-0057502580D01*
X0023061164Y-0057494209D01*
X0023068850Y-0057487890D01*
X0023075016Y-0057483297D01*
X0023080002Y-0057480103D01*
X0023083758Y-0057478156D01*
X0023109322Y-0057469631D01*
X0023136419Y-0057465903D01*
X0023162030Y-0057467280D01*
G36*
G01**
X0023171010Y-0057469281D01*
X0023201038Y-0057481521D01*
X0023226016Y-0057499423D01*
X0023245381Y-0057522200D01*
X0023258566Y-0057549064D01*
X0023265008Y-0057579227D01*
X0023265280Y-0057600726D01*
X0023264812Y-0057608241D01*
X0023264213Y-0057615108D01*
X0023263171Y-0057621687D01*
X0023261374Y-0057628333D01*
X0023258508Y-0057635404D01*
X0023254261Y-0057643257D01*
X0023248322Y-0057652249D01*
X0023240377Y-0057662738D01*
X0023230113Y-0057675081D01*
X0023217220Y-0057689634D01*
X0023201383Y-0057706755D01*
X0023182291Y-0057726802D01*
X0023159631Y-0057750131D01*
X0023133091Y-0057777099D01*
X0023102358Y-0057808064D01*
X0023067119Y-0057843383D01*
X0023027063Y-0057883414D01*
X0022981877Y-0057928512D01*
X0022955569Y-0057954763D01*
X0022909008Y-0058001216D01*
X0022867712Y-0058042383D01*
X0022831336Y-0058078591D01*
X0022799534Y-0058110171D01*
X0022771962Y-0058137449D01*
X0022748274Y-0058160755D01*
X0022728124Y-0058180416D01*
X0022711168Y-0058196762D01*
X0022697060Y-0058210120D01*
X0022685454Y-0058220819D01*
X0022676005Y-0058229188D01*
X0022668368Y-0058235554D01*
X0022662198Y-0058240247D01*
X0022657149Y-0058243594D01*
X0022652875Y-0058245925D01*
X0022649033Y-0058247566D01*
X0022646855Y-0058248336D01*
X0022615323Y-0058255056D01*
X0022584413Y-0058254451D01*
X0022555192Y-0058246918D01*
X0022528724Y-0058232857D01*
X0022506076Y-0058212666D01*
X0022489876Y-0058189652D01*
X0022484291Y-0058178838D01*
X0022480827Y-0058169326D01*
X0022478989Y-0058158610D01*
X0022478277Y-0058144187D01*
X0022478183Y-0058130839D01*
X0022478527Y-0058111299D01*
X0022479840Y-0058097117D01*
X0022482546Y-0058085735D01*
X0022487066Y-0058074591D01*
X0022487682Y-0058073292D01*
X0022490347Y-0058068862D01*
X0022495109Y-0058062531D01*
X0022502260Y-0058053996D01*
X0022512088Y-0058042958D01*
X0022524886Y-0058029115D01*
X0022540944Y-0058012164D01*
X0022560552Y-0057991806D01*
X0022584002Y-0057967737D01*
X0022611583Y-0057939658D01*
X0022643588Y-0057907266D01*
X0022680305Y-0057870261D01*
X0022722027Y-0057828340D01*
X0022769043Y-0057781202D01*
X0022779385Y-0057770845D01*
X0022826159Y-0057724028D01*
X0022867684Y-0057682523D01*
X0022904299Y-0057646003D01*
X0022936345Y-0057614143D01*
X0022964158Y-0057586617D01*
X0022988079Y-0057563098D01*
X0023008447Y-0057543261D01*
X0023025600Y-0057526780D01*
X0023039878Y-0057513328D01*
X0023051620Y-0057502580D01*
X0023061164Y-0057494209D01*
X0023068850Y-0057487890D01*
X0023075016Y-0057483297D01*
X0023080002Y-0057480103D01*
X0023083758Y-0057478156D01*
X0023109322Y-0057469631D01*
X0023136419Y-0057465903D01*
X0023162030Y-0057467280D01*
G37*
X-0023899840Y-0042289312D02*
X-0023884120Y-0042296617D01*
X-0023870840Y-0042306568D01*
X-0023861575Y-0042315518D01*
X-0023853909Y-0042325228D01*
X-0023847173Y-0042337084D01*
X-0023840697Y-0042352476D01*
X-0023833810Y-0042372789D01*
X-0023825843Y-0042399412D01*
X-0023825587Y-0042400298D01*
X-0023807903Y-0042457089D01*
X-0023788858Y-0042508820D01*
X-0023767331Y-0042558363D01*
X-0023751137Y-0042591424D01*
X-0023708399Y-0042666558D01*
X-0023658875Y-0042738136D01*
X-0023603195Y-0042805432D01*
X-0023541991Y-0042867717D01*
X-0023475894Y-0042924264D01*
X-0023438573Y-0042952026D01*
X-0023409775Y-0042973959D01*
X-0023388024Y-0042994293D01*
X-0023372779Y-0043013754D01*
X-0023363499Y-0043033071D01*
X-0023359640Y-0043052968D01*
X-0023359459Y-0043058133D01*
X-0023361347Y-0043076684D01*
X-0023367680Y-0043093418D01*
X-0023379117Y-0043109043D01*
X-0023396316Y-0043124268D01*
X-0023419938Y-0043139803D01*
X-0023450641Y-0043156354D01*
X-0023450952Y-0043156511D01*
X-0023572541Y-0043213908D01*
X-0023700189Y-0043267335D01*
X-0023832899Y-0043316454D01*
X-0023969675Y-0043360928D01*
X-0024109519Y-0043400419D01*
X-0024251433Y-0043434591D01*
X-0024310073Y-0043447004D01*
X-0024369550Y-0043457811D01*
X-0024422684Y-0043464724D01*
X-0024470026Y-0043467781D01*
X-0024512129Y-0043467020D01*
X-0024545716Y-0043463150D01*
X-0024609151Y-0043448657D01*
X-0024668933Y-0043427281D01*
X-0024724711Y-0043399260D01*
X-0024776137Y-0043364835D01*
X-0024822859Y-0043324244D01*
X-0024864527Y-0043277727D01*
X-0024900792Y-0043225522D01*
X-0024905746Y-0043217212D01*
X-0024932041Y-0043164497D01*
X-0024951751Y-0043108265D01*
X-0024964770Y-0043049583D01*
X-0024970991Y-0042989520D01*
X-0024970307Y-0042929146D01*
X-0024962612Y-0042869528D01*
X-0024947800Y-0042811734D01*
X-0024946538Y-0042807917D01*
X-0024923624Y-0042751859D01*
X-0024893824Y-0042698909D01*
X-0024857809Y-0042649754D01*
X-0024816246Y-0042605080D01*
X-0024769803Y-0042565573D01*
X-0024719150Y-0042531920D01*
X-0024664954Y-0042504807D01*
X-0024642945Y-0042496133D01*
X-0024628656Y-0042491583D01*
X-0024608434Y-0042486052D01*
X-0024584150Y-0042480005D01*
X-0024557674Y-0042473908D01*
X-0024530880Y-0042468227D01*
X-0024530441Y-0042468139D01*
X-0024430712Y-0042446512D01*
X-0024336944Y-0042422921D01*
X-0024247289Y-0042396805D01*
X-0024159894Y-0042367604D01*
X-0024072911Y-0042334758D01*
X-0024025214Y-0042315206D01*
X-0023990706Y-0042301526D01*
X-0023961874Y-0042292150D01*
X-0023937757Y-0042287025D01*
X-0023917399Y-0042286097D01*
X-0023899840Y-0042289312D01*
G36*
G01**
X-0023884120Y-0042296617D01*
X-0023870840Y-0042306568D01*
X-0023861575Y-0042315518D01*
X-0023853909Y-0042325228D01*
X-0023847173Y-0042337084D01*
X-0023840697Y-0042352476D01*
X-0023833810Y-0042372789D01*
X-0023825843Y-0042399412D01*
X-0023825587Y-0042400298D01*
X-0023807903Y-0042457089D01*
X-0023788858Y-0042508820D01*
X-0023767331Y-0042558363D01*
X-0023751137Y-0042591424D01*
X-0023708399Y-0042666558D01*
X-0023658875Y-0042738136D01*
X-0023603195Y-0042805432D01*
X-0023541991Y-0042867717D01*
X-0023475894Y-0042924264D01*
X-0023438573Y-0042952026D01*
X-0023409775Y-0042973959D01*
X-0023388024Y-0042994293D01*
X-0023372779Y-0043013754D01*
X-0023363499Y-0043033071D01*
X-0023359640Y-0043052968D01*
X-0023359459Y-0043058133D01*
X-0023361347Y-0043076684D01*
X-0023367680Y-0043093418D01*
X-0023379117Y-0043109043D01*
X-0023396316Y-0043124268D01*
X-0023419938Y-0043139803D01*
X-0023450641Y-0043156354D01*
X-0023450952Y-0043156511D01*
X-0023572541Y-0043213908D01*
X-0023700189Y-0043267335D01*
X-0023832899Y-0043316454D01*
X-0023969675Y-0043360928D01*
X-0024109519Y-0043400419D01*
X-0024251433Y-0043434591D01*
X-0024310073Y-0043447004D01*
X-0024369550Y-0043457811D01*
X-0024422684Y-0043464724D01*
X-0024470026Y-0043467781D01*
X-0024512129Y-0043467020D01*
X-0024545716Y-0043463150D01*
X-0024609151Y-0043448657D01*
X-0024668933Y-0043427281D01*
X-0024724711Y-0043399260D01*
X-0024776137Y-0043364835D01*
X-0024822859Y-0043324244D01*
X-0024864527Y-0043277727D01*
X-0024900792Y-0043225522D01*
X-0024905746Y-0043217212D01*
X-0024932041Y-0043164497D01*
X-0024951751Y-0043108265D01*
X-0024964770Y-0043049583D01*
X-0024970991Y-0042989520D01*
X-0024970307Y-0042929146D01*
X-0024962612Y-0042869528D01*
X-0024947800Y-0042811734D01*
X-0024946538Y-0042807917D01*
X-0024923624Y-0042751859D01*
X-0024893824Y-0042698909D01*
X-0024857809Y-0042649754D01*
X-0024816246Y-0042605080D01*
X-0024769803Y-0042565573D01*
X-0024719150Y-0042531920D01*
X-0024664954Y-0042504807D01*
X-0024642945Y-0042496133D01*
X-0024628656Y-0042491583D01*
X-0024608434Y-0042486052D01*
X-0024584150Y-0042480005D01*
X-0024557674Y-0042473908D01*
X-0024530880Y-0042468227D01*
X-0024530441Y-0042468139D01*
X-0024430712Y-0042446512D01*
X-0024336944Y-0042422921D01*
X-0024247289Y-0042396805D01*
X-0024159894Y-0042367604D01*
X-0024072911Y-0042334758D01*
X-0024025214Y-0042315206D01*
X-0023990706Y-0042301526D01*
X-0023961874Y-0042292150D01*
X-0023937757Y-0042287025D01*
X-0023917399Y-0042286097D01*
X-0023899840Y-0042289312D01*
G37*
X-0021949558Y-0040039835D02*
X-0021891642Y-0040053494D01*
X-0021836313Y-0040073764D01*
X-0021784054Y-0040100319D01*
X-0021735351Y-0040132835D01*
X-0021690690Y-0040170985D01*
X-0021650555Y-0040214445D01*
X-0021615434Y-0040262890D01*
X-0021585810Y-0040315994D01*
X-0021562169Y-0040373432D01*
X-0021544997Y-0040434879D01*
X-0021544628Y-0040436589D01*
X-0021541446Y-0040454271D01*
X-0021539322Y-0040473513D01*
X-0021538125Y-0040496212D01*
X-0021537723Y-0040524260D01*
X-0021537746Y-0040535808D01*
X-0021538123Y-0040557493D01*
X-0021539127Y-0040578456D01*
X-0021540920Y-0040599699D01*
X-0021543663Y-0040622227D01*
X-0021547518Y-0040647044D01*
X-0021552647Y-0040675154D01*
X-0021559210Y-0040707561D01*
X-0021567370Y-0040745268D01*
X-0021577289Y-0040789281D01*
X-0021581507Y-0040807667D01*
X-0021610020Y-0040921080D01*
X-0021643815Y-0041037259D01*
X-0021682226Y-0041154347D01*
X-0021724586Y-0041270488D01*
X-0021770228Y-0041383825D01*
X-0021818487Y-0041492501D01*
X-0021852897Y-0041563670D01*
X-0021867382Y-0041591197D01*
X-0021880176Y-0041612228D01*
X-0021892090Y-0041627800D01*
X-0021903932Y-0041638952D01*
X-0021916512Y-0041646721D01*
X-0021918369Y-0041647594D01*
X-0021936403Y-0041653569D01*
X-0021953227Y-0041653517D01*
X-0021967468Y-0041649562D01*
X-0021987180Y-0041638708D01*
X-0022007427Y-0041620387D01*
X-0022027772Y-0041595007D01*
X-0022031073Y-0041590221D01*
X-0022085147Y-0041516989D01*
X-0022144351Y-0041449521D01*
X-0022208392Y-0041388059D01*
X-0022276978Y-0041332843D01*
X-0022349814Y-0041284117D01*
X-0022426610Y-0041242122D01*
X-0022483160Y-0041216614D01*
X-0022514351Y-0041204269D01*
X-0022545744Y-0041193049D01*
X-0022579365Y-0041182299D01*
X-0022617242Y-0041171362D01*
X-0022650180Y-0041162506D01*
X-0022668423Y-0041157194D01*
X-0022681471Y-0041151779D01*
X-0022691972Y-0041144940D01*
X-0022700393Y-0041137487D01*
X-0022713832Y-0041121924D01*
X-0022721911Y-0041105537D01*
X-0022724674Y-0041087226D01*
X-0022722166Y-0041065894D01*
X-0022714431Y-0041040442D01*
X-0022705236Y-0041018011D01*
X-0022655792Y-0040897492D01*
X-0022612510Y-0040773203D01*
X-0022575210Y-0040644561D01*
X-0022543710Y-0040510984D01*
X-0022537426Y-0040480303D01*
X-0022530325Y-0040445620D01*
X-0022524013Y-0040417239D01*
X-0022518041Y-0040393620D01*
X-0022511964Y-0040373226D01*
X-0022505335Y-0040354517D01*
X-0022497705Y-0040335955D01*
X-0022491481Y-0040322117D01*
X-0022462742Y-0040269136D01*
X-0022427597Y-0040220069D01*
X-0022386775Y-0040175485D01*
X-0022341004Y-0040135957D01*
X-0022291012Y-0040102056D01*
X-0022237528Y-0040074353D01*
X-0022181281Y-0040053419D01*
X-0022133961Y-0040041772D01*
X-0022071202Y-0040033648D01*
X-0022009573Y-0040033111D01*
X-0021949558Y-0040039835D01*
G36*
G01**
X-0021891642Y-0040053494D01*
X-0021836313Y-0040073764D01*
X-0021784054Y-0040100319D01*
X-0021735351Y-0040132835D01*
X-0021690690Y-0040170985D01*
X-0021650555Y-0040214445D01*
X-0021615434Y-0040262890D01*
X-0021585810Y-0040315994D01*
X-0021562169Y-0040373432D01*
X-0021544997Y-0040434879D01*
X-0021544628Y-0040436589D01*
X-0021541446Y-0040454271D01*
X-0021539322Y-0040473513D01*
X-0021538125Y-0040496212D01*
X-0021537723Y-0040524260D01*
X-0021537746Y-0040535808D01*
X-0021538123Y-0040557493D01*
X-0021539127Y-0040578456D01*
X-0021540920Y-0040599699D01*
X-0021543663Y-0040622227D01*
X-0021547518Y-0040647044D01*
X-0021552647Y-0040675154D01*
X-0021559210Y-0040707561D01*
X-0021567370Y-0040745268D01*
X-0021577289Y-0040789281D01*
X-0021581507Y-0040807667D01*
X-0021610020Y-0040921080D01*
X-0021643815Y-0041037259D01*
X-0021682226Y-0041154347D01*
X-0021724586Y-0041270488D01*
X-0021770228Y-0041383825D01*
X-0021818487Y-0041492501D01*
X-0021852897Y-0041563670D01*
X-0021867382Y-0041591197D01*
X-0021880176Y-0041612228D01*
X-0021892090Y-0041627800D01*
X-0021903932Y-0041638952D01*
X-0021916512Y-0041646721D01*
X-0021918369Y-0041647594D01*
X-0021936403Y-0041653569D01*
X-0021953227Y-0041653517D01*
X-0021967468Y-0041649562D01*
X-0021987180Y-0041638708D01*
X-0022007427Y-0041620387D01*
X-0022027772Y-0041595007D01*
X-0022031073Y-0041590221D01*
X-0022085147Y-0041516989D01*
X-0022144351Y-0041449521D01*
X-0022208392Y-0041388059D01*
X-0022276978Y-0041332843D01*
X-0022349814Y-0041284117D01*
X-0022426610Y-0041242122D01*
X-0022483160Y-0041216614D01*
X-0022514351Y-0041204269D01*
X-0022545744Y-0041193049D01*
X-0022579365Y-0041182299D01*
X-0022617242Y-0041171362D01*
X-0022650180Y-0041162506D01*
X-0022668423Y-0041157194D01*
X-0022681471Y-0041151779D01*
X-0022691972Y-0041144940D01*
X-0022700393Y-0041137487D01*
X-0022713832Y-0041121924D01*
X-0022721911Y-0041105537D01*
X-0022724674Y-0041087226D01*
X-0022722166Y-0041065894D01*
X-0022714431Y-0041040442D01*
X-0022705236Y-0041018011D01*
X-0022655792Y-0040897492D01*
X-0022612510Y-0040773203D01*
X-0022575210Y-0040644561D01*
X-0022543710Y-0040510984D01*
X-0022537426Y-0040480303D01*
X-0022530325Y-0040445620D01*
X-0022524013Y-0040417239D01*
X-0022518041Y-0040393620D01*
X-0022511964Y-0040373226D01*
X-0022505335Y-0040354517D01*
X-0022497705Y-0040335955D01*
X-0022491481Y-0040322117D01*
X-0022462742Y-0040269136D01*
X-0022427597Y-0040220069D01*
X-0022386775Y-0040175485D01*
X-0022341004Y-0040135957D01*
X-0022291012Y-0040102056D01*
X-0022237528Y-0040074353D01*
X-0022181281Y-0040053419D01*
X-0022133961Y-0040041772D01*
X-0022071202Y-0040033648D01*
X-0022009573Y-0040033111D01*
X-0021949558Y-0040039835D01*
G37*
X-0022493080Y-0041537788D02*
X-0022475996Y-0041538455D01*
X-0022462479Y-0041539726D01*
X-0022451804Y-0041541656D01*
X-0022443241Y-0041544301D01*
X-0022436066Y-0041547718D01*
X-0022429548Y-0041551960D01*
X-0022422962Y-0041557086D01*
X-0022419690Y-0041559770D01*
X-0022408818Y-0041571280D01*
X-0022398500Y-0041586470D01*
X-0022390198Y-0041602689D01*
X-0022385378Y-0041617289D01*
X-0022384731Y-0041623033D01*
X-0022383862Y-0041628875D01*
X-0022381375Y-0041641638D01*
X-0022377445Y-0041660508D01*
X-0022372249Y-0041684674D01*
X-0022365964Y-0041713324D01*
X-0022358765Y-0041745645D01*
X-0022350829Y-0041780826D01*
X-0022343059Y-0041814889D01*
X-0022332429Y-0041861504D01*
X-0022323568Y-0041901096D01*
X-0022316374Y-0041934356D01*
X-0022310745Y-0041961975D01*
X-0022306578Y-0041984643D01*
X-0022303773Y-0042003051D01*
X-0022302227Y-0042017890D01*
X-0022301838Y-0042029852D01*
X-0022302505Y-0042039626D01*
X-0022304125Y-0042047904D01*
X-0022306597Y-0042055377D01*
X-0022307332Y-0042057191D01*
X-0022319147Y-0042077257D01*
X-0022336065Y-0042095509D01*
X-0022354590Y-0042108567D01*
X-0022372955Y-0042114887D01*
X-0022395198Y-0042117566D01*
X-0022418164Y-0042116603D01*
X-0022438699Y-0042111995D01*
X-0022446518Y-0042108621D01*
X-0022462601Y-0042097607D01*
X-0022477976Y-0042082847D01*
X-0022490130Y-0042066979D01*
X-0022494924Y-0042057795D01*
X-0022497256Y-0042050353D01*
X-0022500953Y-0042036552D01*
X-0022505667Y-0042017779D01*
X-0022511051Y-0041995426D01*
X-0022516756Y-0041970882D01*
X-0022517679Y-0041966826D01*
X-0022523140Y-0041942943D01*
X-0022528037Y-0041921849D01*
X-0022532091Y-0041904712D01*
X-0022535027Y-0041892701D01*
X-0022536567Y-0041886981D01*
X-0022536699Y-0041886674D01*
X-0022539388Y-0041889242D01*
X-0022546119Y-0041897023D01*
X-0022556031Y-0041908987D01*
X-0022568266Y-0041924103D01*
X-0022576173Y-0041934015D01*
X-0022675778Y-0042053150D01*
X-0022781374Y-0042167079D01*
X-0022892952Y-0042275793D01*
X-0023010506Y-0042379286D01*
X-0023070383Y-0042428165D01*
X-0023087489Y-0042442063D01*
X-0023101915Y-0042454319D01*
X-0023112713Y-0042464081D01*
X-0023118935Y-0042470501D01*
X-0023119992Y-0042472651D01*
X-0023115406Y-0042474340D01*
X-0023104277Y-0042477619D01*
X-0023087771Y-0042482169D01*
X-0023067049Y-0042487672D01*
X-0023043275Y-0042493810D01*
X-0023033622Y-0042496258D01*
X-0023002672Y-0042504115D01*
X-0022978372Y-0042510463D01*
X-0022959665Y-0042515689D01*
X-0022945494Y-0042520181D01*
X-0022934802Y-0042524325D01*
X-0022926530Y-0042528508D01*
X-0022919621Y-0042533117D01*
X-0022913018Y-0042538539D01*
X-0022909519Y-0042541659D01*
X-0022892287Y-0042562120D01*
X-0022881611Y-0042585453D01*
X-0022877307Y-0042610345D01*
X-0022879187Y-0042635480D01*
X-0022887067Y-0042659543D01*
X-0022900759Y-0042681220D01*
X-0022920078Y-0042699196D01*
X-0022932907Y-0042706963D01*
X-0022944041Y-0042711994D01*
X-0022955193Y-0042715302D01*
X-0022967466Y-0042716801D01*
X-0022981962Y-0042716402D01*
X-0022999784Y-0042714020D01*
X-0023022034Y-0042709566D01*
X-0023049815Y-0042702954D01*
X-0023079262Y-0042695399D01*
X-0023107506Y-0042688030D01*
X-0023141348Y-0042679230D01*
X-0023178698Y-0042669542D01*
X-0023217465Y-0042659507D01*
X-0023255558Y-0042649668D01*
X-0023289340Y-0042640963D01*
X-0023326219Y-0042631387D01*
X-0023356249Y-0042623303D01*
X-0023380296Y-0042616341D01*
X-0023399227Y-0042610133D01*
X-0023413910Y-0042604308D01*
X-0023425212Y-0042598499D01*
X-0023433998Y-0042592335D01*
X-0023441137Y-0042585448D01*
X-0023447495Y-0042577468D01*
X-0023451296Y-0042572002D01*
X-0023455259Y-0042565924D01*
X-0023458568Y-0042559983D01*
X-0023461243Y-0042553485D01*
X-0023463304Y-0042545740D01*
X-0023464770Y-0042536055D01*
X-0023465662Y-0042523738D01*
X-0023465999Y-0042508098D01*
X-0023465802Y-0042488442D01*
X-0023465090Y-0042464078D01*
X-0023463883Y-0042434315D01*
X-0023462202Y-0042398460D01*
X-0023460066Y-0042355821D01*
X-0023458438Y-0042324063D01*
X-0023456329Y-0042284214D01*
X-0023454210Y-0042246386D01*
X-0023452136Y-0042211396D01*
X-0023450160Y-0042180059D01*
X-0023448335Y-0042153190D01*
X-0023446716Y-0042131605D01*
X-0023445356Y-0042116120D01*
X-0023444309Y-0042107550D01*
X-0023444109Y-0042106608D01*
X-0023434152Y-0042083320D01*
X-0023418578Y-0042064281D01*
X-0023398698Y-0042049858D01*
X-0023375820Y-0042040422D01*
X-0023351253Y-0042036340D01*
X-0023326306Y-0042037982D01*
X-0023302289Y-0042045717D01*
X-0023280510Y-0042059914D01*
X-0023280003Y-0042060357D01*
X-0023265619Y-0042076401D01*
X-0023254457Y-0042095111D01*
X-0023253901Y-0042096369D01*
X-0023250688Y-0042104223D01*
X-0023248404Y-0042111481D01*
X-0023246954Y-0042119561D01*
X-0023246238Y-0042129881D01*
X-0023246160Y-0042143860D01*
X-0023246622Y-0042162917D01*
X-0023247526Y-0042188470D01*
X-0023247538Y-0042188792D01*
X-0023248562Y-0042213943D01*
X-0023249707Y-0042238309D01*
X-0023250872Y-0042259977D01*
X-0023251957Y-0042277031D01*
X-0023252641Y-0042285493D01*
X-0023253610Y-0042295431D01*
X-0023253823Y-0042302422D01*
X-0023252510Y-0042306194D01*
X-0023248906Y-0042306477D01*
X-0023242243Y-0042302998D01*
X-0023231754Y-0042295486D01*
X-0023216671Y-0042283671D01*
X-0023196226Y-0042267281D01*
X-0023192372Y-0042264188D01*
X-0023109296Y-0042194766D01*
X-0023027210Y-0042120735D01*
X-0022947314Y-0042043322D01*
X-0022870808Y-0041963754D01*
X-0022798892Y-0041883258D01*
X-0022732764Y-0041803062D01*
X-0022700154Y-0041760671D01*
X-0022688638Y-0041745301D01*
X-0022724208Y-0041747835D01*
X-0022741251Y-0041748798D01*
X-0022763702Y-0041749707D01*
X-0022789031Y-0041750477D01*
X-0022814708Y-0041751024D01*
X-0022823278Y-0041751147D01*
X-0022848460Y-0041751318D01*
X-0022867162Y-0041751048D01*
X-0022880834Y-0041750222D01*
X-0022890926Y-0041748728D01*
X-0022898890Y-0041746453D01*
X-0022902653Y-0041744931D01*
X-0022925453Y-0041730761D01*
X-0022943902Y-0041711026D01*
X-0022956941Y-0041687344D01*
X-0022963511Y-0041661335D01*
X-0022964091Y-0041651027D01*
X-0022960457Y-0041625304D01*
X-0022950304Y-0041601020D01*
X-0022934755Y-0041579906D01*
X-0022914934Y-0041563691D01*
X-0022903621Y-0041557899D01*
X-0022898783Y-0041556004D01*
X-0022893587Y-0041554363D01*
X-0022887365Y-0041552932D01*
X-0022879449Y-0041551665D01*
X-0022869173Y-0041550519D01*
X-0022855868Y-0041549449D01*
X-0022838867Y-0041548411D01*
X-0022817501Y-0041547360D01*
X-0022791105Y-0041546253D01*
X-0022759009Y-0041545045D01*
X-0022720547Y-0041543692D01*
X-0022675051Y-0041542149D01*
X-0022657490Y-0041541561D01*
X-0022611652Y-0041540045D01*
X-0022573019Y-0041538853D01*
X-0022540865Y-0041538043D01*
X-0022514461Y-0041537669D01*
X-0022493080Y-0041537788D01*
G36*
G01**
X-0022475996Y-0041538455D01*
X-0022462479Y-0041539726D01*
X-0022451804Y-0041541656D01*
X-0022443241Y-0041544301D01*
X-0022436066Y-0041547718D01*
X-0022429548Y-0041551960D01*
X-0022422962Y-0041557086D01*
X-0022419690Y-0041559770D01*
X-0022408818Y-0041571280D01*
X-0022398500Y-0041586470D01*
X-0022390198Y-0041602689D01*
X-0022385378Y-0041617289D01*
X-0022384731Y-0041623033D01*
X-0022383862Y-0041628875D01*
X-0022381375Y-0041641638D01*
X-0022377445Y-0041660508D01*
X-0022372249Y-0041684674D01*
X-0022365964Y-0041713324D01*
X-0022358765Y-0041745645D01*
X-0022350829Y-0041780826D01*
X-0022343059Y-0041814889D01*
X-0022332429Y-0041861504D01*
X-0022323568Y-0041901096D01*
X-0022316374Y-0041934356D01*
X-0022310745Y-0041961975D01*
X-0022306578Y-0041984643D01*
X-0022303773Y-0042003051D01*
X-0022302227Y-0042017890D01*
X-0022301838Y-0042029852D01*
X-0022302505Y-0042039626D01*
X-0022304125Y-0042047904D01*
X-0022306597Y-0042055377D01*
X-0022307332Y-0042057191D01*
X-0022319147Y-0042077257D01*
X-0022336065Y-0042095509D01*
X-0022354590Y-0042108567D01*
X-0022372955Y-0042114887D01*
X-0022395198Y-0042117566D01*
X-0022418164Y-0042116603D01*
X-0022438699Y-0042111995D01*
X-0022446518Y-0042108621D01*
X-0022462601Y-0042097607D01*
X-0022477976Y-0042082847D01*
X-0022490130Y-0042066979D01*
X-0022494924Y-0042057795D01*
X-0022497256Y-0042050353D01*
X-0022500953Y-0042036552D01*
X-0022505667Y-0042017779D01*
X-0022511051Y-0041995426D01*
X-0022516756Y-0041970882D01*
X-0022517679Y-0041966826D01*
X-0022523140Y-0041942943D01*
X-0022528037Y-0041921849D01*
X-0022532091Y-0041904712D01*
X-0022535027Y-0041892701D01*
X-0022536567Y-0041886981D01*
X-0022536699Y-0041886674D01*
X-0022539388Y-0041889242D01*
X-0022546119Y-0041897023D01*
X-0022556031Y-0041908987D01*
X-0022568266Y-0041924103D01*
X-0022576173Y-0041934015D01*
X-0022675778Y-0042053150D01*
X-0022781374Y-0042167079D01*
X-0022892952Y-0042275793D01*
X-0023010506Y-0042379286D01*
X-0023070383Y-0042428165D01*
X-0023087489Y-0042442063D01*
X-0023101915Y-0042454319D01*
X-0023112713Y-0042464081D01*
X-0023118935Y-0042470501D01*
X-0023119992Y-0042472651D01*
X-0023115406Y-0042474340D01*
X-0023104277Y-0042477619D01*
X-0023087771Y-0042482169D01*
X-0023067049Y-0042487672D01*
X-0023043275Y-0042493810D01*
X-0023033622Y-0042496258D01*
X-0023002672Y-0042504115D01*
X-0022978372Y-0042510463D01*
X-0022959665Y-0042515689D01*
X-0022945494Y-0042520181D01*
X-0022934802Y-0042524325D01*
X-0022926530Y-0042528508D01*
X-0022919621Y-0042533117D01*
X-0022913018Y-0042538539D01*
X-0022909519Y-0042541659D01*
X-0022892287Y-0042562120D01*
X-0022881611Y-0042585453D01*
X-0022877307Y-0042610345D01*
X-0022879187Y-0042635480D01*
X-0022887067Y-0042659543D01*
X-0022900759Y-0042681220D01*
X-0022920078Y-0042699196D01*
X-0022932907Y-0042706963D01*
X-0022944041Y-0042711994D01*
X-0022955193Y-0042715302D01*
X-0022967466Y-0042716801D01*
X-0022981962Y-0042716402D01*
X-0022999784Y-0042714020D01*
X-0023022034Y-0042709566D01*
X-0023049815Y-0042702954D01*
X-0023079262Y-0042695399D01*
X-0023107506Y-0042688030D01*
X-0023141348Y-0042679230D01*
X-0023178698Y-0042669542D01*
X-0023217465Y-0042659507D01*
X-0023255558Y-0042649668D01*
X-0023289340Y-0042640963D01*
X-0023326219Y-0042631387D01*
X-0023356249Y-0042623303D01*
X-0023380296Y-0042616341D01*
X-0023399227Y-0042610133D01*
X-0023413910Y-0042604308D01*
X-0023425212Y-0042598499D01*
X-0023433998Y-0042592335D01*
X-0023441137Y-0042585448D01*
X-0023447495Y-0042577468D01*
X-0023451296Y-0042572002D01*
X-0023455259Y-0042565924D01*
X-0023458568Y-0042559983D01*
X-0023461243Y-0042553485D01*
X-0023463304Y-0042545740D01*
X-0023464770Y-0042536055D01*
X-0023465662Y-0042523738D01*
X-0023465999Y-0042508098D01*
X-0023465802Y-0042488442D01*
X-0023465090Y-0042464078D01*
X-0023463883Y-0042434315D01*
X-0023462202Y-0042398460D01*
X-0023460066Y-0042355821D01*
X-0023458438Y-0042324063D01*
X-0023456329Y-0042284214D01*
X-0023454210Y-0042246386D01*
X-0023452136Y-0042211396D01*
X-0023450160Y-0042180059D01*
X-0023448335Y-0042153190D01*
X-0023446716Y-0042131605D01*
X-0023445356Y-0042116120D01*
X-0023444309Y-0042107550D01*
X-0023444109Y-0042106608D01*
X-0023434152Y-0042083320D01*
X-0023418578Y-0042064281D01*
X-0023398698Y-0042049858D01*
X-0023375820Y-0042040422D01*
X-0023351253Y-0042036340D01*
X-0023326306Y-0042037982D01*
X-0023302289Y-0042045717D01*
X-0023280510Y-0042059914D01*
X-0023280003Y-0042060357D01*
X-0023265619Y-0042076401D01*
X-0023254457Y-0042095111D01*
X-0023253901Y-0042096369D01*
X-0023250688Y-0042104223D01*
X-0023248404Y-0042111481D01*
X-0023246954Y-0042119561D01*
X-0023246238Y-0042129881D01*
X-0023246160Y-0042143860D01*
X-0023246622Y-0042162917D01*
X-0023247526Y-0042188470D01*
X-0023247538Y-0042188792D01*
X-0023248562Y-0042213943D01*
X-0023249707Y-0042238309D01*
X-0023250872Y-0042259977D01*
X-0023251957Y-0042277031D01*
X-0023252641Y-0042285493D01*
X-0023253610Y-0042295431D01*
X-0023253823Y-0042302422D01*
X-0023252510Y-0042306194D01*
X-0023248906Y-0042306477D01*
X-0023242243Y-0042302998D01*
X-0023231754Y-0042295486D01*
X-0023216671Y-0042283671D01*
X-0023196226Y-0042267281D01*
X-0023192372Y-0042264188D01*
X-0023109296Y-0042194766D01*
X-0023027210Y-0042120735D01*
X-0022947314Y-0042043322D01*
X-0022870808Y-0041963754D01*
X-0022798892Y-0041883258D01*
X-0022732764Y-0041803062D01*
X-0022700154Y-0041760671D01*
X-0022688638Y-0041745301D01*
X-0022724208Y-0041747835D01*
X-0022741251Y-0041748798D01*
X-0022763702Y-0041749707D01*
X-0022789031Y-0041750477D01*
X-0022814708Y-0041751024D01*
X-0022823278Y-0041751147D01*
X-0022848460Y-0041751318D01*
X-0022867162Y-0041751048D01*
X-0022880834Y-0041750222D01*
X-0022890926Y-0041748728D01*
X-0022898890Y-0041746453D01*
X-0022902653Y-0041744931D01*
X-0022925453Y-0041730761D01*
X-0022943902Y-0041711026D01*
X-0022956941Y-0041687344D01*
X-0022963511Y-0041661335D01*
X-0022964091Y-0041651027D01*
X-0022960457Y-0041625304D01*
X-0022950304Y-0041601020D01*
X-0022934755Y-0041579906D01*
X-0022914934Y-0041563691D01*
X-0022903621Y-0041557899D01*
X-0022898783Y-0041556004D01*
X-0022893587Y-0041554363D01*
X-0022887365Y-0041552932D01*
X-0022879449Y-0041551665D01*
X-0022869173Y-0041550519D01*
X-0022855868Y-0041549449D01*
X-0022838867Y-0041548411D01*
X-0022817501Y-0041547360D01*
X-0022791105Y-0041546253D01*
X-0022759009Y-0041545045D01*
X-0022720547Y-0041543692D01*
X-0022675051Y-0041542149D01*
X-0022657490Y-0041541561D01*
X-0022611652Y-0041540045D01*
X-0022573019Y-0041538853D01*
X-0022540865Y-0041538043D01*
X-0022514461Y-0041537669D01*
X-0022493080Y-0041537788D01*
G37*
X-0021929306Y-0058363938D02*
X-0021912572Y-0058370271D01*
X-0021896947Y-0058381708D01*
X-0021881722Y-0058398907D01*
X-0021866187Y-0058422529D01*
X-0021849636Y-0058453232D01*
X-0021849479Y-0058453543D01*
X-0021792082Y-0058575132D01*
X-0021738655Y-0058702780D01*
X-0021689536Y-0058835490D01*
X-0021645062Y-0058972266D01*
X-0021605571Y-0059112110D01*
X-0021571399Y-0059254024D01*
X-0021558986Y-0059312664D01*
X-0021548179Y-0059372141D01*
X-0021541266Y-0059425275D01*
X-0021538209Y-0059472617D01*
X-0021538970Y-0059514720D01*
X-0021542840Y-0059548307D01*
X-0021557333Y-0059611742D01*
X-0021578709Y-0059671524D01*
X-0021606730Y-0059727302D01*
X-0021641155Y-0059778728D01*
X-0021681746Y-0059825450D01*
X-0021728263Y-0059867118D01*
X-0021780468Y-0059903383D01*
X-0021788778Y-0059908337D01*
X-0021841493Y-0059934632D01*
X-0021897725Y-0059954342D01*
X-0021956407Y-0059967361D01*
X-0022016470Y-0059973582D01*
X-0022076844Y-0059972898D01*
X-0022136462Y-0059965203D01*
X-0022194256Y-0059950391D01*
X-0022198073Y-0059949129D01*
X-0022254131Y-0059926215D01*
X-0022307081Y-0059896415D01*
X-0022356236Y-0059860400D01*
X-0022400910Y-0059818837D01*
X-0022440417Y-0059772394D01*
X-0022474070Y-0059721741D01*
X-0022501183Y-0059667545D01*
X-0022509857Y-0059645536D01*
X-0022514407Y-0059631247D01*
X-0022519938Y-0059611025D01*
X-0022525985Y-0059586741D01*
X-0022532082Y-0059560265D01*
X-0022537763Y-0059533471D01*
X-0022537851Y-0059533032D01*
X-0022559478Y-0059433303D01*
X-0022583069Y-0059339535D01*
X-0022609185Y-0059249880D01*
X-0022638386Y-0059162485D01*
X-0022671232Y-0059075502D01*
X-0022690784Y-0059027805D01*
X-0022704464Y-0058993297D01*
X-0022713840Y-0058964465D01*
X-0022718965Y-0058940348D01*
X-0022719893Y-0058919990D01*
X-0022716678Y-0058902431D01*
X-0022709373Y-0058886711D01*
X-0022699422Y-0058873431D01*
X-0022690472Y-0058864166D01*
X-0022680762Y-0058856500D01*
X-0022668906Y-0058849764D01*
X-0022653514Y-0058843288D01*
X-0022633201Y-0058836401D01*
X-0022606578Y-0058828434D01*
X-0022605692Y-0058828178D01*
X-0022548901Y-0058810494D01*
X-0022497170Y-0058791449D01*
X-0022447627Y-0058769922D01*
X-0022414566Y-0058753728D01*
X-0022339432Y-0058710990D01*
X-0022267854Y-0058661466D01*
X-0022200558Y-0058605786D01*
X-0022138273Y-0058544582D01*
X-0022081726Y-0058478485D01*
X-0022053964Y-0058441164D01*
X-0022032031Y-0058412366D01*
X-0022011697Y-0058390615D01*
X-0021992236Y-0058375370D01*
X-0021972919Y-0058366090D01*
X-0021953022Y-0058362231D01*
X-0021947857Y-0058362050D01*
X-0021929306Y-0058363938D01*
G36*
G01**
X-0021912572Y-0058370271D01*
X-0021896947Y-0058381708D01*
X-0021881722Y-0058398907D01*
X-0021866187Y-0058422529D01*
X-0021849636Y-0058453232D01*
X-0021849479Y-0058453543D01*
X-0021792082Y-0058575132D01*
X-0021738655Y-0058702780D01*
X-0021689536Y-0058835490D01*
X-0021645062Y-0058972266D01*
X-0021605571Y-0059112110D01*
X-0021571399Y-0059254024D01*
X-0021558986Y-0059312664D01*
X-0021548179Y-0059372141D01*
X-0021541266Y-0059425275D01*
X-0021538209Y-0059472617D01*
X-0021538970Y-0059514720D01*
X-0021542840Y-0059548307D01*
X-0021557333Y-0059611742D01*
X-0021578709Y-0059671524D01*
X-0021606730Y-0059727302D01*
X-0021641155Y-0059778728D01*
X-0021681746Y-0059825450D01*
X-0021728263Y-0059867118D01*
X-0021780468Y-0059903383D01*
X-0021788778Y-0059908337D01*
X-0021841493Y-0059934632D01*
X-0021897725Y-0059954342D01*
X-0021956407Y-0059967361D01*
X-0022016470Y-0059973582D01*
X-0022076844Y-0059972898D01*
X-0022136462Y-0059965203D01*
X-0022194256Y-0059950391D01*
X-0022198073Y-0059949129D01*
X-0022254131Y-0059926215D01*
X-0022307081Y-0059896415D01*
X-0022356236Y-0059860400D01*
X-0022400910Y-0059818837D01*
X-0022440417Y-0059772394D01*
X-0022474070Y-0059721741D01*
X-0022501183Y-0059667545D01*
X-0022509857Y-0059645536D01*
X-0022514407Y-0059631247D01*
X-0022519938Y-0059611025D01*
X-0022525985Y-0059586741D01*
X-0022532082Y-0059560265D01*
X-0022537763Y-0059533471D01*
X-0022537851Y-0059533032D01*
X-0022559478Y-0059433303D01*
X-0022583069Y-0059339535D01*
X-0022609185Y-0059249880D01*
X-0022638386Y-0059162485D01*
X-0022671232Y-0059075502D01*
X-0022690784Y-0059027805D01*
X-0022704464Y-0058993297D01*
X-0022713840Y-0058964465D01*
X-0022718965Y-0058940348D01*
X-0022719893Y-0058919990D01*
X-0022716678Y-0058902431D01*
X-0022709373Y-0058886711D01*
X-0022699422Y-0058873431D01*
X-0022690472Y-0058864166D01*
X-0022680762Y-0058856500D01*
X-0022668906Y-0058849764D01*
X-0022653514Y-0058843288D01*
X-0022633201Y-0058836401D01*
X-0022606578Y-0058828434D01*
X-0022605692Y-0058828178D01*
X-0022548901Y-0058810494D01*
X-0022497170Y-0058791449D01*
X-0022447627Y-0058769922D01*
X-0022414566Y-0058753728D01*
X-0022339432Y-0058710990D01*
X-0022267854Y-0058661466D01*
X-0022200558Y-0058605786D01*
X-0022138273Y-0058544582D01*
X-0022081726Y-0058478485D01*
X-0022053964Y-0058441164D01*
X-0022032031Y-0058412366D01*
X-0022011697Y-0058390615D01*
X-0021992236Y-0058375370D01*
X-0021972919Y-0058366090D01*
X-0021953022Y-0058362231D01*
X-0021947857Y-0058362050D01*
X-0021929306Y-0058363938D01*
G37*
X-0024470182Y-0056540337D02*
X-0024448497Y-0056540714D01*
X-0024427534Y-0056541718D01*
X-0024406291Y-0056543511D01*
X-0024383763Y-0056546254D01*
X-0024358946Y-0056550109D01*
X-0024330836Y-0056555238D01*
X-0024298429Y-0056561801D01*
X-0024260722Y-0056569961D01*
X-0024216709Y-0056579880D01*
X-0024198323Y-0056584098D01*
X-0024084910Y-0056612611D01*
X-0023968731Y-0056646406D01*
X-0023851643Y-0056684817D01*
X-0023735502Y-0056727177D01*
X-0023622165Y-0056772819D01*
X-0023513489Y-0056821078D01*
X-0023442320Y-0056855488D01*
X-0023414793Y-0056869973D01*
X-0023393762Y-0056882767D01*
X-0023378190Y-0056894681D01*
X-0023367038Y-0056906523D01*
X-0023359269Y-0056919103D01*
X-0023358396Y-0056920960D01*
X-0023352421Y-0056938994D01*
X-0023352473Y-0056955818D01*
X-0023356428Y-0056970059D01*
X-0023367282Y-0056989771D01*
X-0023385603Y-0057010018D01*
X-0023410983Y-0057030363D01*
X-0023415769Y-0057033664D01*
X-0023489001Y-0057087738D01*
X-0023556469Y-0057146942D01*
X-0023617931Y-0057210983D01*
X-0023673147Y-0057279569D01*
X-0023721873Y-0057352405D01*
X-0023763868Y-0057429201D01*
X-0023789376Y-0057485751D01*
X-0023801721Y-0057516942D01*
X-0023812941Y-0057548335D01*
X-0023823691Y-0057581956D01*
X-0023834628Y-0057619833D01*
X-0023843484Y-0057652771D01*
X-0023848796Y-0057671014D01*
X-0023854211Y-0057684062D01*
X-0023861050Y-0057694563D01*
X-0023868503Y-0057702984D01*
X-0023884066Y-0057716423D01*
X-0023900453Y-0057724502D01*
X-0023918764Y-0057727265D01*
X-0023940096Y-0057724757D01*
X-0023965548Y-0057717022D01*
X-0023987979Y-0057707827D01*
X-0024108498Y-0057658383D01*
X-0024232787Y-0057615101D01*
X-0024361429Y-0057577801D01*
X-0024495006Y-0057546301D01*
X-0024525687Y-0057540017D01*
X-0024560370Y-0057532916D01*
X-0024588751Y-0057526604D01*
X-0024612370Y-0057520632D01*
X-0024632764Y-0057514555D01*
X-0024651473Y-0057507926D01*
X-0024670035Y-0057500296D01*
X-0024683873Y-0057494072D01*
X-0024736854Y-0057465333D01*
X-0024785921Y-0057430188D01*
X-0024830505Y-0057389366D01*
X-0024870033Y-0057343595D01*
X-0024903934Y-0057293603D01*
X-0024931637Y-0057240119D01*
X-0024952571Y-0057183872D01*
X-0024964218Y-0057136552D01*
X-0024972342Y-0057073793D01*
X-0024972879Y-0057012164D01*
X-0024966155Y-0056952149D01*
X-0024952496Y-0056894233D01*
X-0024932226Y-0056838904D01*
X-0024905671Y-0056786645D01*
X-0024873155Y-0056737942D01*
X-0024835005Y-0056693281D01*
X-0024791545Y-0056653146D01*
X-0024743100Y-0056618025D01*
X-0024689996Y-0056588401D01*
X-0024632558Y-0056564760D01*
X-0024571111Y-0056547588D01*
X-0024569401Y-0056547219D01*
X-0024551719Y-0056544037D01*
X-0024532477Y-0056541913D01*
X-0024509778Y-0056540716D01*
X-0024481730Y-0056540314D01*
X-0024470182Y-0056540337D01*
G36*
G01**
X-0024448497Y-0056540714D01*
X-0024427534Y-0056541718D01*
X-0024406291Y-0056543511D01*
X-0024383763Y-0056546254D01*
X-0024358946Y-0056550109D01*
X-0024330836Y-0056555238D01*
X-0024298429Y-0056561801D01*
X-0024260722Y-0056569961D01*
X-0024216709Y-0056579880D01*
X-0024198323Y-0056584098D01*
X-0024084910Y-0056612611D01*
X-0023968731Y-0056646406D01*
X-0023851643Y-0056684817D01*
X-0023735502Y-0056727177D01*
X-0023622165Y-0056772819D01*
X-0023513489Y-0056821078D01*
X-0023442320Y-0056855488D01*
X-0023414793Y-0056869973D01*
X-0023393762Y-0056882767D01*
X-0023378190Y-0056894681D01*
X-0023367038Y-0056906523D01*
X-0023359269Y-0056919103D01*
X-0023358396Y-0056920960D01*
X-0023352421Y-0056938994D01*
X-0023352473Y-0056955818D01*
X-0023356428Y-0056970059D01*
X-0023367282Y-0056989771D01*
X-0023385603Y-0057010018D01*
X-0023410983Y-0057030363D01*
X-0023415769Y-0057033664D01*
X-0023489001Y-0057087738D01*
X-0023556469Y-0057146942D01*
X-0023617931Y-0057210983D01*
X-0023673147Y-0057279569D01*
X-0023721873Y-0057352405D01*
X-0023763868Y-0057429201D01*
X-0023789376Y-0057485751D01*
X-0023801721Y-0057516942D01*
X-0023812941Y-0057548335D01*
X-0023823691Y-0057581956D01*
X-0023834628Y-0057619833D01*
X-0023843484Y-0057652771D01*
X-0023848796Y-0057671014D01*
X-0023854211Y-0057684062D01*
X-0023861050Y-0057694563D01*
X-0023868503Y-0057702984D01*
X-0023884066Y-0057716423D01*
X-0023900453Y-0057724502D01*
X-0023918764Y-0057727265D01*
X-0023940096Y-0057724757D01*
X-0023965548Y-0057717022D01*
X-0023987979Y-0057707827D01*
X-0024108498Y-0057658383D01*
X-0024232787Y-0057615101D01*
X-0024361429Y-0057577801D01*
X-0024495006Y-0057546301D01*
X-0024525687Y-0057540017D01*
X-0024560370Y-0057532916D01*
X-0024588751Y-0057526604D01*
X-0024612370Y-0057520632D01*
X-0024632764Y-0057514555D01*
X-0024651473Y-0057507926D01*
X-0024670035Y-0057500296D01*
X-0024683873Y-0057494072D01*
X-0024736854Y-0057465333D01*
X-0024785921Y-0057430188D01*
X-0024830505Y-0057389366D01*
X-0024870033Y-0057343595D01*
X-0024903934Y-0057293603D01*
X-0024931637Y-0057240119D01*
X-0024952571Y-0057183872D01*
X-0024964218Y-0057136552D01*
X-0024972342Y-0057073793D01*
X-0024972879Y-0057012164D01*
X-0024966155Y-0056952149D01*
X-0024952496Y-0056894233D01*
X-0024932226Y-0056838904D01*
X-0024905671Y-0056786645D01*
X-0024873155Y-0056737942D01*
X-0024835005Y-0056693281D01*
X-0024791545Y-0056653146D01*
X-0024743100Y-0056618025D01*
X-0024689996Y-0056588401D01*
X-0024632558Y-0056564760D01*
X-0024571111Y-0056547588D01*
X-0024569401Y-0056547219D01*
X-0024551719Y-0056544037D01*
X-0024532477Y-0056541913D01*
X-0024509778Y-0056540716D01*
X-0024481730Y-0056540314D01*
X-0024470182Y-0056540337D01*
G37*
X-0023114506Y-0057497744D02*
X-0023104489Y-0057500501D01*
X-0023098602Y-0057502693D01*
X-0023092612Y-0057505668D01*
X-0023085887Y-0057509983D01*
X-0023077796Y-0057516197D01*
X-0023067706Y-0057524868D01*
X-0023054986Y-0057536554D01*
X-0023039003Y-0057551814D01*
X-0023019125Y-0057571204D01*
X-0022994721Y-0057595283D01*
X-0022974957Y-0057614880D01*
X-0022866811Y-0057722233D01*
X-0022760645Y-0057617032D01*
X-0022732077Y-0057588945D01*
X-0022706322Y-0057564069D01*
X-0022683875Y-0057542858D01*
X-0022665228Y-0057525771D01*
X-0022650876Y-0057513264D01*
X-0022641313Y-0057505793D01*
X-0022638604Y-0057504147D01*
X-0022620453Y-0057498507D01*
X-0022598447Y-0057496247D01*
X-0022575738Y-0057497328D01*
X-0022555479Y-0057501711D01*
X-0022546947Y-0057505289D01*
X-0022527717Y-0057518943D01*
X-0022510939Y-0057537314D01*
X-0022499689Y-0057556627D01*
X-0022495621Y-0057572497D01*
X-0022493995Y-0057592489D01*
X-0022494804Y-0057613173D01*
X-0022498038Y-0057631121D01*
X-0022499893Y-0057636489D01*
X-0022504805Y-0057644005D01*
X-0022515448Y-0057656814D01*
X-0022531730Y-0057674815D01*
X-0022553556Y-0057697908D01*
X-0022580835Y-0057725992D01*
X-0022613473Y-0057758967D01*
X-0022613864Y-0057759359D01*
X-0022721687Y-0057867473D01*
X-0022615858Y-0057973774D01*
X-0022584916Y-0058005038D01*
X-0022559409Y-0058031231D01*
X-0022538995Y-0058052725D01*
X-0022523333Y-0058069893D01*
X-0022512080Y-0058083107D01*
X-0022504896Y-0058092739D01*
X-0022501973Y-0058097831D01*
X-0022494904Y-0058122144D01*
X-0022493808Y-0058148731D01*
X-0022498620Y-0058174713D01*
X-0022504024Y-0058188237D01*
X-0022519679Y-0058211452D01*
X-0022540303Y-0058228674D01*
X-0022562926Y-0058238733D01*
X-0022580623Y-0058243114D01*
X-0022595638Y-0058244148D01*
X-0022611644Y-0058241809D01*
X-0022624985Y-0058238271D01*
X-0022630727Y-0058236399D01*
X-0022636361Y-0058233923D01*
X-0022642513Y-0058230295D01*
X-0022649807Y-0058224964D01*
X-0022658867Y-0058217380D01*
X-0022670317Y-0058206995D01*
X-0022684782Y-0058193256D01*
X-0022702886Y-0058175616D01*
X-0022725253Y-0058153524D01*
X-0022752507Y-0058126430D01*
X-0022756674Y-0058122280D01*
X-0022866807Y-0058012589D01*
X-0022976940Y-0058122280D01*
X-0023004916Y-0058150105D01*
X-0023027918Y-0058172853D01*
X-0023046571Y-0058191073D01*
X-0023061500Y-0058205316D01*
X-0023073328Y-0058216130D01*
X-0023082679Y-0058224066D01*
X-0023090179Y-0058229675D01*
X-0023096451Y-0058233505D01*
X-0023102120Y-0058236106D01*
X-0023107810Y-0058238029D01*
X-0023108629Y-0058238271D01*
X-0023127410Y-0058242924D01*
X-0023142701Y-0058244183D01*
X-0023158173Y-0058242078D01*
X-0023170688Y-0058238733D01*
X-0023195345Y-0058227492D01*
X-0023215225Y-0058210402D01*
X-0023229656Y-0058188407D01*
X-0023237966Y-0058162452D01*
X-0023239782Y-0058141598D01*
X-0023239548Y-0058130444D01*
X-0023238597Y-0058120482D01*
X-0023236433Y-0058111030D01*
X-0023232561Y-0058101407D01*
X-0023226487Y-0058090932D01*
X-0023217714Y-0058078924D01*
X-0023205748Y-0058064703D01*
X-0023190094Y-0058047586D01*
X-0023170256Y-0058026895D01*
X-0023145740Y-0058001946D01*
X-0023117756Y-0057973774D01*
X-0023011927Y-0057867473D01*
X-0023119589Y-0057759359D01*
X-0023151989Y-0057726607D01*
X-0023178747Y-0057699078D01*
X-0023200033Y-0057676590D01*
X-0023216016Y-0057658958D01*
X-0023226867Y-0057646000D01*
X-0023232753Y-0057637530D01*
X-0023233560Y-0057635877D01*
X-0023239427Y-0057611956D01*
X-0023239209Y-0057585914D01*
X-0023233352Y-0057560140D01*
X-0023222301Y-0057537024D01*
X-0023212846Y-0057524873D01*
X-0023192656Y-0057509080D01*
X-0023168362Y-0057499030D01*
X-0023141724Y-0057495120D01*
X-0023114506Y-0057497744D01*
G36*
G01**
X-0023104489Y-0057500501D01*
X-0023098602Y-0057502693D01*
X-0023092612Y-0057505668D01*
X-0023085887Y-0057509983D01*
X-0023077796Y-0057516197D01*
X-0023067706Y-0057524868D01*
X-0023054986Y-0057536554D01*
X-0023039003Y-0057551814D01*
X-0023019125Y-0057571204D01*
X-0022994721Y-0057595283D01*
X-0022974957Y-0057614880D01*
X-0022866811Y-0057722233D01*
X-0022760645Y-0057617032D01*
X-0022732077Y-0057588945D01*
X-0022706322Y-0057564069D01*
X-0022683875Y-0057542858D01*
X-0022665228Y-0057525771D01*
X-0022650876Y-0057513264D01*
X-0022641313Y-0057505793D01*
X-0022638604Y-0057504147D01*
X-0022620453Y-0057498507D01*
X-0022598447Y-0057496247D01*
X-0022575738Y-0057497328D01*
X-0022555479Y-0057501711D01*
X-0022546947Y-0057505289D01*
X-0022527717Y-0057518943D01*
X-0022510939Y-0057537314D01*
X-0022499689Y-0057556627D01*
X-0022495621Y-0057572497D01*
X-0022493995Y-0057592489D01*
X-0022494804Y-0057613173D01*
X-0022498038Y-0057631121D01*
X-0022499893Y-0057636489D01*
X-0022504805Y-0057644005D01*
X-0022515448Y-0057656814D01*
X-0022531730Y-0057674815D01*
X-0022553556Y-0057697908D01*
X-0022580835Y-0057725992D01*
X-0022613473Y-0057758967D01*
X-0022613864Y-0057759359D01*
X-0022721687Y-0057867473D01*
X-0022615858Y-0057973774D01*
X-0022584916Y-0058005038D01*
X-0022559409Y-0058031231D01*
X-0022538995Y-0058052725D01*
X-0022523333Y-0058069893D01*
X-0022512080Y-0058083107D01*
X-0022504896Y-0058092739D01*
X-0022501973Y-0058097831D01*
X-0022494904Y-0058122144D01*
X-0022493808Y-0058148731D01*
X-0022498620Y-0058174713D01*
X-0022504024Y-0058188237D01*
X-0022519679Y-0058211452D01*
X-0022540303Y-0058228674D01*
X-0022562926Y-0058238733D01*
X-0022580623Y-0058243114D01*
X-0022595638Y-0058244148D01*
X-0022611644Y-0058241809D01*
X-0022624985Y-0058238271D01*
X-0022630727Y-0058236399D01*
X-0022636361Y-0058233923D01*
X-0022642513Y-0058230295D01*
X-0022649807Y-0058224964D01*
X-0022658867Y-0058217380D01*
X-0022670317Y-0058206995D01*
X-0022684782Y-0058193256D01*
X-0022702886Y-0058175616D01*
X-0022725253Y-0058153524D01*
X-0022752507Y-0058126430D01*
X-0022756674Y-0058122280D01*
X-0022866807Y-0058012589D01*
X-0022976940Y-0058122280D01*
X-0023004916Y-0058150105D01*
X-0023027918Y-0058172853D01*
X-0023046571Y-0058191073D01*
X-0023061500Y-0058205316D01*
X-0023073328Y-0058216130D01*
X-0023082679Y-0058224066D01*
X-0023090179Y-0058229675D01*
X-0023096451Y-0058233505D01*
X-0023102120Y-0058236106D01*
X-0023107810Y-0058238029D01*
X-0023108629Y-0058238271D01*
X-0023127410Y-0058242924D01*
X-0023142701Y-0058244183D01*
X-0023158173Y-0058242078D01*
X-0023170688Y-0058238733D01*
X-0023195345Y-0058227492D01*
X-0023215225Y-0058210402D01*
X-0023229656Y-0058188407D01*
X-0023237966Y-0058162452D01*
X-0023239782Y-0058141598D01*
X-0023239548Y-0058130444D01*
X-0023238597Y-0058120482D01*
X-0023236433Y-0058111030D01*
X-0023232561Y-0058101407D01*
X-0023226487Y-0058090932D01*
X-0023217714Y-0058078924D01*
X-0023205748Y-0058064703D01*
X-0023190094Y-0058047586D01*
X-0023170256Y-0058026895D01*
X-0023145740Y-0058001946D01*
X-0023117756Y-0057973774D01*
X-0023011927Y-0057867473D01*
X-0023119589Y-0057759359D01*
X-0023151989Y-0057726607D01*
X-0023178747Y-0057699078D01*
X-0023200033Y-0057676590D01*
X-0023216016Y-0057658958D01*
X-0023226867Y-0057646000D01*
X-0023232753Y-0057637530D01*
X-0023233560Y-0057635877D01*
X-0023239427Y-0057611956D01*
X-0023239209Y-0057585914D01*
X-0023233352Y-0057560140D01*
X-0023222301Y-0057537024D01*
X-0023212846Y-0057524873D01*
X-0023192656Y-0057509080D01*
X-0023168362Y-0057499030D01*
X-0023141724Y-0057495120D01*
X-0023114506Y-0057497744D01*
G37*
M02*