G04 Gerber file generated by Gerbonara*
%TF.GenerationSoftware,KiCad,Pcbnew,8.0.2-1*%
%TF.CreationDate,2024-12-23T20:39:15+00:00*%
%TF.ProjectId,jacdac-slider-MH-0.1,6a616364-6163-42d7-936c-696465722d4d,v0.1*%
%TF.SameCoordinates,PX8d24d00PY36d6160*%
%TF.FileFunction,Legend,Top*%
%TF.FilePolarity,Positive*%
%MOMM*%
%FSLAX46Y46*%
%IPPOS*%
G75
%LPD*%
%ADD10C,0.2*%
%ADD11C,0.01*%
D10*
X-0022500000Y-0037750000D02*
X-0022500000Y-0038000000D01*
X-0023150000Y-0045730000D02*
X-0023150000Y-0045030000D01*
X-0029000000Y-0047529999D02*
X-0029000000Y-0052470000D01*
G02*
X0024098000Y-0046700000D02*
X0023099998Y-0045699999I-0000001003J0000997003D01*
X-0025000000Y-0062500000D02*
X-0027500001Y-0060000000I-0000000801J0002499200D01*
X-0022750000Y-0037500000D02*
X-0022500001Y-0037750000I0000000799J-0000249200D01*
G01*
X0027500000Y-0043000000D02*
X0027500000Y-0040000000D01*
X0025000000Y-0037500000D02*
X-0020250000Y-0037500000D01*
X0026500000Y-0056000000D02*
X0024100000Y-0056000000D01*
G02*
X0028200000Y-0046700000D02*
X0028999999Y-0047500000I0000001099J-0000798900D01*
G01*
X-0024148000Y-0055969999D02*
X-0026500000Y-0055969999D01*
G02*
X-0028200000Y-0053269999D02*
X-0029000001Y-0052470000I-0000001101J0000798900D01*
X-0027500000Y-0056969999D02*
X-0026500000Y-0055969999I0001000400J-0000000400D01*
G01*
X-0026500000Y-0044030000D02*
X-0024148000Y-0044030000D01*
G02*
X0026500000Y-0056000000D02*
X0027499999Y-0057000000I-0000000401J-0001000400D01*
G01*
X-0022750000Y-0037500000D02*
X-0025000000Y-0037500000D01*
G02*
X-0027500000Y-0040000000D02*
X-0025000000Y-0037500000I0002499199J0000000801D01*
X-0026500000Y-0044030000D02*
X-0027500001Y-0043030000I0000000400J0001000401D01*
G01*
X-0020500000Y-0038000000D02*
X-0020500000Y-0037750000D01*
G02*
X-0029000000Y-0047529999D02*
X-0028200000Y-0046729999I0000798900J0000001100D01*
G01*
X0029000000Y-0052500000D02*
X0029000000Y-0047500000D01*
G02*
X-0024148000Y-0044030000D02*
X-0023150001Y-0045030000I0000001001J-0000997002D01*
X-0023150000Y-0045730000D02*
X-0024148000Y-0046730000I-0001000402J0000000399D01*
X0023100000Y-0045000000D02*
X0024100000Y-0044000000I0001000400J-0000000400D01*
G01*
X0028200000Y-0046700000D02*
X0024098000Y-0046700000D01*
G02*
X-0020500000Y-0037750000D02*
X-0020250000Y-0037500000I0000249200J0000000800D01*
G01*
X-0027500000Y-0056969999D02*
X-0027500000Y-0060000000D01*
X0024100000Y-0053299999D02*
X0028200000Y-0053299999D01*
G02*
X0024100000Y-0056000000D02*
X0023099999Y-0055000000I0000000400J0001000401D01*
X0027500000Y-0043000000D02*
X0026500000Y-0044000000I-0001000401J0000000401D01*
G01*
X-0028200000Y-0053269999D02*
X-0024150000Y-0053269999D01*
G02*
X-0020500000Y-0038000000D02*
X-0022500000Y-0038000000I-0001000000J0D01*
X0025000000Y-0037500000D02*
X0027499999Y-0040000000I0000000800J-0002499199D01*
X-0023148000Y-0054969999D02*
X-0024148000Y-0055969999I-0001000400J0000000400D01*
G01*
X-0027500000Y-0040000000D02*
X-0027500000Y-0043030000D01*
G02*
X-0024150000Y-0053269999D02*
X-0023150001Y-0054269999I-0000000401J-0001000400D01*
G01*
X0027500000Y-0060000000D02*
X0027500000Y-0057000000D01*
X0024100000Y-0044000000D02*
X0026500000Y-0044000000D01*
X0023100000Y-0054300000D02*
X0023100000Y-0055000000D01*
X-0025000000Y-0062500000D02*
X0025000000Y-0062500000D01*
X-0024148000Y-0046730000D02*
X-0028200000Y-0046730000D01*
G02*
X0027500000Y-0060000000D02*
X0025000000Y-0062500000I-0002499200J-0000000800D01*
G01*
X0023100000Y-0045000000D02*
X0023100000Y-0045699999D01*
G02*
X0023100000Y-0054300000D02*
X0024100000Y-0053299999I0000998700J0000001301D01*
G01*
X-0023148000Y-0054969999D02*
X-0023150000Y-0054269999D01*
G02*
X0029000000Y-0052500000D02*
X0028200000Y-0053299999I-0000798900J-0000001099D01*
D11*
G01*
X0022075855Y-0040024393D02*
X0022135473Y-0040032088D01*
X0022193267Y-0040046900D01*
X0022197084Y-0040048162D01*
X0022253142Y-0040071076D01*
X0022306092Y-0040100876D01*
X0022355247Y-0040136891D01*
X0022399921Y-0040178454D01*
X0022439428Y-0040224897D01*
X0022473081Y-0040275550D01*
X0022500194Y-0040329746D01*
X0022508868Y-0040351755D01*
X0022513418Y-0040366044D01*
X0022518949Y-0040386266D01*
X0022524996Y-0040410550D01*
X0022531093Y-0040437026D01*
X0022536774Y-0040463820D01*
X0022536862Y-0040464259D01*
X0022558489Y-0040563988D01*
X0022582080Y-0040657756D01*
X0022608196Y-0040747411D01*
X0022637397Y-0040834806D01*
X0022670243Y-0040921789D01*
X0022689795Y-0040969486D01*
X0022703475Y-0041003994D01*
X0022712851Y-0041032826D01*
X0022717976Y-0041056943D01*
X0022718904Y-0041077301D01*
X0022715689Y-0041094860D01*
X0022708384Y-0041110580D01*
X0022698433Y-0041123860D01*
X0022689483Y-0041133125D01*
X0022679773Y-0041140791D01*
X0022667917Y-0041147527D01*
X0022652525Y-0041154003D01*
X0022632212Y-0041160890D01*
X0022605589Y-0041168857D01*
X0022604703Y-0041169113D01*
X0022547912Y-0041186797D01*
X0022496181Y-0041205842D01*
X0022446638Y-0041227369D01*
X0022413577Y-0041243563D01*
X0022338443Y-0041286301D01*
X0022266865Y-0041335825D01*
X0022199569Y-0041391505D01*
X0022137284Y-0041452709D01*
X0022080737Y-0041518806D01*
X0022052975Y-0041556127D01*
X0022031042Y-0041584925D01*
X0022010708Y-0041606676D01*
X0021991247Y-0041621921D01*
X0021971930Y-0041631201D01*
X0021952033Y-0041635060D01*
X0021946868Y-0041635241D01*
X0021928317Y-0041633353D01*
X0021911583Y-0041627020D01*
X0021895958Y-0041615583D01*
X0021880733Y-0041598384D01*
X0021865198Y-0041574762D01*
X0021848647Y-0041544059D01*
X0021848490Y-0041543748D01*
X0021791093Y-0041422159D01*
X0021737666Y-0041294511D01*
X0021688547Y-0041161801D01*
X0021644073Y-0041025025D01*
X0021604582Y-0040885181D01*
X0021570410Y-0040743267D01*
X0021557997Y-0040684627D01*
X0021547190Y-0040625150D01*
X0021540277Y-0040572016D01*
X0021537220Y-0040524674D01*
X0021537981Y-0040482571D01*
X0021541851Y-0040448984D01*
X0021556344Y-0040385549D01*
X0021577720Y-0040325767D01*
X0021605741Y-0040269989D01*
X0021640166Y-0040218563D01*
X0021680757Y-0040171841D01*
X0021727274Y-0040130173D01*
X0021779479Y-0040093908D01*
X0021787789Y-0040088954D01*
X0021840504Y-0040062659D01*
X0021896736Y-0040042949D01*
X0021955418Y-0040029930D01*
X0022015481Y-0040023709D01*
X0022075855Y-0040024393D01*
G36*
G01**
X0022135473Y-0040032088D01*
X0022193267Y-0040046900D01*
X0022197084Y-0040048162D01*
X0022253142Y-0040071076D01*
X0022306092Y-0040100876D01*
X0022355247Y-0040136891D01*
X0022399921Y-0040178454D01*
X0022439428Y-0040224897D01*
X0022473081Y-0040275550D01*
X0022500194Y-0040329746D01*
X0022508868Y-0040351755D01*
X0022513418Y-0040366044D01*
X0022518949Y-0040386266D01*
X0022524996Y-0040410550D01*
X0022531093Y-0040437026D01*
X0022536774Y-0040463820D01*
X0022536862Y-0040464259D01*
X0022558489Y-0040563988D01*
X0022582080Y-0040657756D01*
X0022608196Y-0040747411D01*
X0022637397Y-0040834806D01*
X0022670243Y-0040921789D01*
X0022689795Y-0040969486D01*
X0022703475Y-0041003994D01*
X0022712851Y-0041032826D01*
X0022717976Y-0041056943D01*
X0022718904Y-0041077301D01*
X0022715689Y-0041094860D01*
X0022708384Y-0041110580D01*
X0022698433Y-0041123860D01*
X0022689483Y-0041133125D01*
X0022679773Y-0041140791D01*
X0022667917Y-0041147527D01*
X0022652525Y-0041154003D01*
X0022632212Y-0041160890D01*
X0022605589Y-0041168857D01*
X0022604703Y-0041169113D01*
X0022547912Y-0041186797D01*
X0022496181Y-0041205842D01*
X0022446638Y-0041227369D01*
X0022413577Y-0041243563D01*
X0022338443Y-0041286301D01*
X0022266865Y-0041335825D01*
X0022199569Y-0041391505D01*
X0022137284Y-0041452709D01*
X0022080737Y-0041518806D01*
X0022052975Y-0041556127D01*
X0022031042Y-0041584925D01*
X0022010708Y-0041606676D01*
X0021991247Y-0041621921D01*
X0021971930Y-0041631201D01*
X0021952033Y-0041635060D01*
X0021946868Y-0041635241D01*
X0021928317Y-0041633353D01*
X0021911583Y-0041627020D01*
X0021895958Y-0041615583D01*
X0021880733Y-0041598384D01*
X0021865198Y-0041574762D01*
X0021848647Y-0041544059D01*
X0021848490Y-0041543748D01*
X0021791093Y-0041422159D01*
X0021737666Y-0041294511D01*
X0021688547Y-0041161801D01*
X0021644073Y-0041025025D01*
X0021604582Y-0040885181D01*
X0021570410Y-0040743267D01*
X0021557997Y-0040684627D01*
X0021547190Y-0040625150D01*
X0021540277Y-0040572016D01*
X0021537220Y-0040524674D01*
X0021537981Y-0040482571D01*
X0021541851Y-0040448984D01*
X0021556344Y-0040385549D01*
X0021577720Y-0040325767D01*
X0021605741Y-0040269989D01*
X0021640166Y-0040218563D01*
X0021680757Y-0040171841D01*
X0021727274Y-0040130173D01*
X0021779479Y-0040093908D01*
X0021787789Y-0040088954D01*
X0021840504Y-0040062659D01*
X0021896736Y-0040042949D01*
X0021955418Y-0040029930D01*
X0022015481Y-0040023709D01*
X0022075855Y-0040024393D01*
G37*
X0022609126Y-0041730074D02*
X0022615993Y-0041730673D01*
X0022622572Y-0041731715D01*
X0022629218Y-0041733512D01*
X0022636289Y-0041736378D01*
X0022644142Y-0041740625D01*
X0022653134Y-0041746564D01*
X0022663623Y-0041754509D01*
X0022675966Y-0041764773D01*
X0022690519Y-0041777666D01*
X0022707640Y-0041793503D01*
X0022727687Y-0041812595D01*
X0022751016Y-0041835255D01*
X0022777984Y-0041861795D01*
X0022808949Y-0041892528D01*
X0022844268Y-0041927767D01*
X0022884299Y-0041967823D01*
X0022929397Y-0042013009D01*
X0022955648Y-0042039317D01*
X0023002101Y-0042085878D01*
X0023043268Y-0042127174D01*
X0023079476Y-0042163550D01*
X0023111056Y-0042195352D01*
X0023138334Y-0042222924D01*
X0023161640Y-0042246612D01*
X0023181301Y-0042266762D01*
X0023197647Y-0042283718D01*
X0023211005Y-0042297826D01*
X0023221704Y-0042309432D01*
X0023230073Y-0042318881D01*
X0023236439Y-0042326518D01*
X0023241132Y-0042332688D01*
X0023244479Y-0042337737D01*
X0023246810Y-0042342011D01*
X0023248451Y-0042345853D01*
X0023249221Y-0042348031D01*
X0023255941Y-0042379563D01*
X0023255336Y-0042410473D01*
X0023247803Y-0042439694D01*
X0023233742Y-0042466162D01*
X0023213551Y-0042488810D01*
X0023190537Y-0042505010D01*
X0023179723Y-0042510595D01*
X0023170211Y-0042514059D01*
X0023159495Y-0042515897D01*
X0023145072Y-0042516609D01*
X0023131724Y-0042516703D01*
X0023112184Y-0042516359D01*
X0023098002Y-0042515046D01*
X0023086620Y-0042512340D01*
X0023075476Y-0042507820D01*
X0023074177Y-0042507204D01*
X0023069747Y-0042504539D01*
X0023063416Y-0042499777D01*
X0023054881Y-0042492626D01*
X0023043843Y-0042482798D01*
X0023030000Y-0042470000D01*
X0023013049Y-0042453942D01*
X0022992691Y-0042434334D01*
X0022968622Y-0042410884D01*
X0022940543Y-0042383303D01*
X0022908151Y-0042351298D01*
X0022871146Y-0042314581D01*
X0022829225Y-0042272859D01*
X0022782087Y-0042225843D01*
X0022771730Y-0042215501D01*
X0022724913Y-0042168727D01*
X0022683408Y-0042127202D01*
X0022646888Y-0042090587D01*
X0022615028Y-0042058541D01*
X0022587502Y-0042030728D01*
X0022563983Y-0042006807D01*
X0022544146Y-0041986439D01*
X0022527665Y-0041969286D01*
X0022514213Y-0041955008D01*
X0022503465Y-0041943266D01*
X0022495094Y-0041933722D01*
X0022488775Y-0041926036D01*
X0022484182Y-0041919870D01*
X0022480988Y-0041914884D01*
X0022479041Y-0041911128D01*
X0022470516Y-0041885564D01*
X0022466788Y-0041858467D01*
X0022468165Y-0041832856D01*
X0022470166Y-0041823876D01*
X0022482406Y-0041793848D01*
X0022500308Y-0041768870D01*
X0022523085Y-0041749505D01*
X0022549949Y-0041736320D01*
X0022580112Y-0041729878D01*
X0022601611Y-0041729606D01*
X0022609126Y-0041730074D01*
G36*
G01**
X0022615993Y-0041730673D01*
X0022622572Y-0041731715D01*
X0022629218Y-0041733512D01*
X0022636289Y-0041736378D01*
X0022644142Y-0041740625D01*
X0022653134Y-0041746564D01*
X0022663623Y-0041754509D01*
X0022675966Y-0041764773D01*
X0022690519Y-0041777666D01*
X0022707640Y-0041793503D01*
X0022727687Y-0041812595D01*
X0022751016Y-0041835255D01*
X0022777984Y-0041861795D01*
X0022808949Y-0041892528D01*
X0022844268Y-0041927767D01*
X0022884299Y-0041967823D01*
X0022929397Y-0042013009D01*
X0022955648Y-0042039317D01*
X0023002101Y-0042085878D01*
X0023043268Y-0042127174D01*
X0023079476Y-0042163550D01*
X0023111056Y-0042195352D01*
X0023138334Y-0042222924D01*
X0023161640Y-0042246612D01*
X0023181301Y-0042266762D01*
X0023197647Y-0042283718D01*
X0023211005Y-0042297826D01*
X0023221704Y-0042309432D01*
X0023230073Y-0042318881D01*
X0023236439Y-0042326518D01*
X0023241132Y-0042332688D01*
X0023244479Y-0042337737D01*
X0023246810Y-0042342011D01*
X0023248451Y-0042345853D01*
X0023249221Y-0042348031D01*
X0023255941Y-0042379563D01*
X0023255336Y-0042410473D01*
X0023247803Y-0042439694D01*
X0023233742Y-0042466162D01*
X0023213551Y-0042488810D01*
X0023190537Y-0042505010D01*
X0023179723Y-0042510595D01*
X0023170211Y-0042514059D01*
X0023159495Y-0042515897D01*
X0023145072Y-0042516609D01*
X0023131724Y-0042516703D01*
X0023112184Y-0042516359D01*
X0023098002Y-0042515046D01*
X0023086620Y-0042512340D01*
X0023075476Y-0042507820D01*
X0023074177Y-0042507204D01*
X0023069747Y-0042504539D01*
X0023063416Y-0042499777D01*
X0023054881Y-0042492626D01*
X0023043843Y-0042482798D01*
X0023030000Y-0042470000D01*
X0023013049Y-0042453942D01*
X0022992691Y-0042434334D01*
X0022968622Y-0042410884D01*
X0022940543Y-0042383303D01*
X0022908151Y-0042351298D01*
X0022871146Y-0042314581D01*
X0022829225Y-0042272859D01*
X0022782087Y-0042225843D01*
X0022771730Y-0042215501D01*
X0022724913Y-0042168727D01*
X0022683408Y-0042127202D01*
X0022646888Y-0042090587D01*
X0022615028Y-0042058541D01*
X0022587502Y-0042030728D01*
X0022563983Y-0042006807D01*
X0022544146Y-0041986439D01*
X0022527665Y-0041969286D01*
X0022514213Y-0041955008D01*
X0022503465Y-0041943266D01*
X0022495094Y-0041933722D01*
X0022488775Y-0041926036D01*
X0022484182Y-0041919870D01*
X0022480988Y-0041914884D01*
X0022479041Y-0041911128D01*
X0022470516Y-0041885564D01*
X0022466788Y-0041858467D01*
X0022468165Y-0041832856D01*
X0022470166Y-0041823876D01*
X0022482406Y-0041793848D01*
X0022500308Y-0041768870D01*
X0022523085Y-0041749505D01*
X0022549949Y-0041736320D01*
X0022580112Y-0041729878D01*
X0022601611Y-0041729606D01*
X0022609126Y-0041730074D01*
G37*
X0023939107Y-0042272534D02*
X0023964559Y-0042280269D01*
X0023986990Y-0042289464D01*
X0024107509Y-0042338908D01*
X0024231798Y-0042382190D01*
X0024360440Y-0042419490D01*
X0024494017Y-0042450990D01*
X0024524698Y-0042457274D01*
X0024559381Y-0042464375D01*
X0024587762Y-0042470687D01*
X0024611381Y-0042476659D01*
X0024631775Y-0042482736D01*
X0024650484Y-0042489365D01*
X0024669046Y-0042496995D01*
X0024682884Y-0042503219D01*
X0024735865Y-0042531958D01*
X0024784932Y-0042567103D01*
X0024829516Y-0042607925D01*
X0024869044Y-0042653696D01*
X0024902945Y-0042703688D01*
X0024930648Y-0042757172D01*
X0024951582Y-0042813419D01*
X0024963229Y-0042860739D01*
X0024971353Y-0042923498D01*
X0024971890Y-0042985127D01*
X0024965166Y-0043045142D01*
X0024951507Y-0043103058D01*
X0024931237Y-0043158387D01*
X0024904682Y-0043210646D01*
X0024872166Y-0043259349D01*
X0024834016Y-0043304010D01*
X0024790556Y-0043344145D01*
X0024742111Y-0043379266D01*
X0024689007Y-0043408890D01*
X0024631569Y-0043432531D01*
X0024570122Y-0043449703D01*
X0024568412Y-0043450072D01*
X0024550730Y-0043453254D01*
X0024531488Y-0043455378D01*
X0024508789Y-0043456575D01*
X0024480741Y-0043456977D01*
X0024469193Y-0043456954D01*
X0024447508Y-0043456577D01*
X0024426545Y-0043455573D01*
X0024405302Y-0043453780D01*
X0024382774Y-0043451037D01*
X0024357957Y-0043447182D01*
X0024329847Y-0043442053D01*
X0024297440Y-0043435490D01*
X0024259733Y-0043427330D01*
X0024215720Y-0043417411D01*
X0024197334Y-0043413193D01*
X0024083921Y-0043384680D01*
X0023967742Y-0043350885D01*
X0023850654Y-0043312474D01*
X0023734513Y-0043270114D01*
X0023621176Y-0043224472D01*
X0023512500Y-0043176213D01*
X0023441331Y-0043141803D01*
X0023413804Y-0043127318D01*
X0023392773Y-0043114524D01*
X0023377201Y-0043102610D01*
X0023366049Y-0043090768D01*
X0023358280Y-0043078188D01*
X0023357407Y-0043076331D01*
X0023351432Y-0043058297D01*
X0023351484Y-0043041473D01*
X0023355439Y-0043027232D01*
X0023366293Y-0043007520D01*
X0023384614Y-0042987273D01*
X0023409994Y-0042966928D01*
X0023414780Y-0042963627D01*
X0023488012Y-0042909553D01*
X0023555480Y-0042850349D01*
X0023616942Y-0042786308D01*
X0023672158Y-0042717722D01*
X0023720884Y-0042644886D01*
X0023762879Y-0042568090D01*
X0023788387Y-0042511540D01*
X0023800732Y-0042480349D01*
X0023811952Y-0042448956D01*
X0023822702Y-0042415335D01*
X0023833639Y-0042377458D01*
X0023842495Y-0042344520D01*
X0023847807Y-0042326277D01*
X0023853222Y-0042313229D01*
X0023860061Y-0042302728D01*
X0023867514Y-0042294307D01*
X0023883077Y-0042280868D01*
X0023899464Y-0042272789D01*
X0023917775Y-0042270026D01*
X0023939107Y-0042272534D01*
G36*
G01**
X0023964559Y-0042280269D01*
X0023986990Y-0042289464D01*
X0024107509Y-0042338908D01*
X0024231798Y-0042382190D01*
X0024360440Y-0042419490D01*
X0024494017Y-0042450990D01*
X0024524698Y-0042457274D01*
X0024559381Y-0042464375D01*
X0024587762Y-0042470687D01*
X0024611381Y-0042476659D01*
X0024631775Y-0042482736D01*
X0024650484Y-0042489365D01*
X0024669046Y-0042496995D01*
X0024682884Y-0042503219D01*
X0024735865Y-0042531958D01*
X0024784932Y-0042567103D01*
X0024829516Y-0042607925D01*
X0024869044Y-0042653696D01*
X0024902945Y-0042703688D01*
X0024930648Y-0042757172D01*
X0024951582Y-0042813419D01*
X0024963229Y-0042860739D01*
X0024971353Y-0042923498D01*
X0024971890Y-0042985127D01*
X0024965166Y-0043045142D01*
X0024951507Y-0043103058D01*
X0024931237Y-0043158387D01*
X0024904682Y-0043210646D01*
X0024872166Y-0043259349D01*
X0024834016Y-0043304010D01*
X0024790556Y-0043344145D01*
X0024742111Y-0043379266D01*
X0024689007Y-0043408890D01*
X0024631569Y-0043432531D01*
X0024570122Y-0043449703D01*
X0024568412Y-0043450072D01*
X0024550730Y-0043453254D01*
X0024531488Y-0043455378D01*
X0024508789Y-0043456575D01*
X0024480741Y-0043456977D01*
X0024469193Y-0043456954D01*
X0024447508Y-0043456577D01*
X0024426545Y-0043455573D01*
X0024405302Y-0043453780D01*
X0024382774Y-0043451037D01*
X0024357957Y-0043447182D01*
X0024329847Y-0043442053D01*
X0024297440Y-0043435490D01*
X0024259733Y-0043427330D01*
X0024215720Y-0043417411D01*
X0024197334Y-0043413193D01*
X0024083921Y-0043384680D01*
X0023967742Y-0043350885D01*
X0023850654Y-0043312474D01*
X0023734513Y-0043270114D01*
X0023621176Y-0043224472D01*
X0023512500Y-0043176213D01*
X0023441331Y-0043141803D01*
X0023413804Y-0043127318D01*
X0023392773Y-0043114524D01*
X0023377201Y-0043102610D01*
X0023366049Y-0043090768D01*
X0023358280Y-0043078188D01*
X0023357407Y-0043076331D01*
X0023351432Y-0043058297D01*
X0023351484Y-0043041473D01*
X0023355439Y-0043027232D01*
X0023366293Y-0043007520D01*
X0023384614Y-0042987273D01*
X0023409994Y-0042966928D01*
X0023414780Y-0042963627D01*
X0023488012Y-0042909553D01*
X0023555480Y-0042850349D01*
X0023616942Y-0042786308D01*
X0023672158Y-0042717722D01*
X0023720884Y-0042644886D01*
X0023762879Y-0042568090D01*
X0023788387Y-0042511540D01*
X0023800732Y-0042480349D01*
X0023811952Y-0042448956D01*
X0023822702Y-0042415335D01*
X0023833639Y-0042377458D01*
X0023842495Y-0042344520D01*
X0023847807Y-0042326277D01*
X0023853222Y-0042313229D01*
X0023860061Y-0042302728D01*
X0023867514Y-0042294307D01*
X0023883077Y-0042280868D01*
X0023899464Y-0042272789D01*
X0023917775Y-0042270026D01*
X0023939107Y-0042272534D01*
G37*
X0024511949Y-0056535485D02*
X0024545536Y-0056539355D01*
X0024608971Y-0056553848D01*
X0024668753Y-0056575224D01*
X0024724531Y-0056603245D01*
X0024775957Y-0056637670D01*
X0024822679Y-0056678261D01*
X0024864347Y-0056724778D01*
X0024900612Y-0056776983D01*
X0024905566Y-0056785293D01*
X0024931861Y-0056838008D01*
X0024951571Y-0056894240D01*
X0024964590Y-0056952922D01*
X0024970811Y-0057012985D01*
X0024970127Y-0057073359D01*
X0024962432Y-0057132977D01*
X0024947620Y-0057190771D01*
X0024946358Y-0057194588D01*
X0024923444Y-0057250646D01*
X0024893644Y-0057303596D01*
X0024857629Y-0057352751D01*
X0024816066Y-0057397425D01*
X0024769623Y-0057436932D01*
X0024718970Y-0057470585D01*
X0024664774Y-0057497698D01*
X0024642765Y-0057506372D01*
X0024628476Y-0057510922D01*
X0024608254Y-0057516453D01*
X0024583970Y-0057522500D01*
X0024557494Y-0057528597D01*
X0024530700Y-0057534278D01*
X0024530261Y-0057534366D01*
X0024430532Y-0057555993D01*
X0024336764Y-0057579584D01*
X0024247109Y-0057605700D01*
X0024159714Y-0057634901D01*
X0024072731Y-0057667747D01*
X0024025034Y-0057687299D01*
X0023990526Y-0057700979D01*
X0023961694Y-0057710355D01*
X0023937577Y-0057715480D01*
X0023917219Y-0057716408D01*
X0023899660Y-0057713193D01*
X0023883940Y-0057705888D01*
X0023870660Y-0057695937D01*
X0023861395Y-0057686987D01*
X0023853729Y-0057677277D01*
X0023846993Y-0057665421D01*
X0023840517Y-0057650029D01*
X0023833630Y-0057629716D01*
X0023825663Y-0057603093D01*
X0023825407Y-0057602207D01*
X0023807723Y-0057545416D01*
X0023788678Y-0057493685D01*
X0023767151Y-0057444142D01*
X0023750957Y-0057411081D01*
X0023708219Y-0057335947D01*
X0023658695Y-0057264369D01*
X0023603015Y-0057197073D01*
X0023541811Y-0057134788D01*
X0023475714Y-0057078241D01*
X0023438393Y-0057050479D01*
X0023409595Y-0057028546D01*
X0023387844Y-0057008212D01*
X0023372599Y-0056988751D01*
X0023363319Y-0056969434D01*
X0023359460Y-0056949537D01*
X0023359279Y-0056944372D01*
X0023361167Y-0056925821D01*
X0023367500Y-0056909087D01*
X0023378937Y-0056893462D01*
X0023396136Y-0056878237D01*
X0023419758Y-0056862702D01*
X0023450461Y-0056846151D01*
X0023450772Y-0056845994D01*
X0023572361Y-0056788597D01*
X0023700009Y-0056735170D01*
X0023832719Y-0056686051D01*
X0023969495Y-0056641577D01*
X0024109339Y-0056602086D01*
X0024251253Y-0056567914D01*
X0024309893Y-0056555501D01*
X0024369370Y-0056544694D01*
X0024422504Y-0056537781D01*
X0024469846Y-0056534724D01*
X0024511949Y-0056535485D01*
G36*
G01**
X0024545536Y-0056539355D01*
X0024608971Y-0056553848D01*
X0024668753Y-0056575224D01*
X0024724531Y-0056603245D01*
X0024775957Y-0056637670D01*
X0024822679Y-0056678261D01*
X0024864347Y-0056724778D01*
X0024900612Y-0056776983D01*
X0024905566Y-0056785293D01*
X0024931861Y-0056838008D01*
X0024951571Y-0056894240D01*
X0024964590Y-0056952922D01*
X0024970811Y-0057012985D01*
X0024970127Y-0057073359D01*
X0024962432Y-0057132977D01*
X0024947620Y-0057190771D01*
X0024946358Y-0057194588D01*
X0024923444Y-0057250646D01*
X0024893644Y-0057303596D01*
X0024857629Y-0057352751D01*
X0024816066Y-0057397425D01*
X0024769623Y-0057436932D01*
X0024718970Y-0057470585D01*
X0024664774Y-0057497698D01*
X0024642765Y-0057506372D01*
X0024628476Y-0057510922D01*
X0024608254Y-0057516453D01*
X0024583970Y-0057522500D01*
X0024557494Y-0057528597D01*
X0024530700Y-0057534278D01*
X0024530261Y-0057534366D01*
X0024430532Y-0057555993D01*
X0024336764Y-0057579584D01*
X0024247109Y-0057605700D01*
X0024159714Y-0057634901D01*
X0024072731Y-0057667747D01*
X0024025034Y-0057687299D01*
X0023990526Y-0057700979D01*
X0023961694Y-0057710355D01*
X0023937577Y-0057715480D01*
X0023917219Y-0057716408D01*
X0023899660Y-0057713193D01*
X0023883940Y-0057705888D01*
X0023870660Y-0057695937D01*
X0023861395Y-0057686987D01*
X0023853729Y-0057677277D01*
X0023846993Y-0057665421D01*
X0023840517Y-0057650029D01*
X0023833630Y-0057629716D01*
X0023825663Y-0057603093D01*
X0023825407Y-0057602207D01*
X0023807723Y-0057545416D01*
X0023788678Y-0057493685D01*
X0023767151Y-0057444142D01*
X0023750957Y-0057411081D01*
X0023708219Y-0057335947D01*
X0023658695Y-0057264369D01*
X0023603015Y-0057197073D01*
X0023541811Y-0057134788D01*
X0023475714Y-0057078241D01*
X0023438393Y-0057050479D01*
X0023409595Y-0057028546D01*
X0023387844Y-0057008212D01*
X0023372599Y-0056988751D01*
X0023363319Y-0056969434D01*
X0023359460Y-0056949537D01*
X0023359279Y-0056944372D01*
X0023361167Y-0056925821D01*
X0023367500Y-0056909087D01*
X0023378937Y-0056893462D01*
X0023396136Y-0056878237D01*
X0023419758Y-0056862702D01*
X0023450461Y-0056846151D01*
X0023450772Y-0056845994D01*
X0023572361Y-0056788597D01*
X0023700009Y-0056735170D01*
X0023832719Y-0056686051D01*
X0023969495Y-0056641577D01*
X0024109339Y-0056602086D01*
X0024251253Y-0056567914D01*
X0024309893Y-0056555501D01*
X0024369370Y-0056544694D01*
X0024422504Y-0056537781D01*
X0024469846Y-0056534724D01*
X0024511949Y-0056535485D01*
G37*
X0021953047Y-0058348988D02*
X0021967288Y-0058352943D01*
X0021987000Y-0058363797D01*
X0022007247Y-0058382118D01*
X0022027592Y-0058407498D01*
X0022030893Y-0058412284D01*
X0022084967Y-0058485516D01*
X0022144171Y-0058552984D01*
X0022208212Y-0058614446D01*
X0022276798Y-0058669662D01*
X0022349634Y-0058718388D01*
X0022426430Y-0058760383D01*
X0022482980Y-0058785891D01*
X0022514171Y-0058798236D01*
X0022545564Y-0058809456D01*
X0022579185Y-0058820206D01*
X0022617062Y-0058831143D01*
X0022650000Y-0058839999D01*
X0022668243Y-0058845311D01*
X0022681291Y-0058850726D01*
X0022691792Y-0058857565D01*
X0022700213Y-0058865018D01*
X0022713652Y-0058880581D01*
X0022721731Y-0058896968D01*
X0022724494Y-0058915279D01*
X0022721986Y-0058936611D01*
X0022714251Y-0058962063D01*
X0022705056Y-0058984494D01*
X0022655612Y-0059105013D01*
X0022612330Y-0059229302D01*
X0022575030Y-0059357944D01*
X0022543530Y-0059491521D01*
X0022537246Y-0059522202D01*
X0022530145Y-0059556885D01*
X0022523833Y-0059585266D01*
X0022517861Y-0059608885D01*
X0022511784Y-0059629279D01*
X0022505155Y-0059647988D01*
X0022497525Y-0059666550D01*
X0022491301Y-0059680388D01*
X0022462562Y-0059733369D01*
X0022427417Y-0059782436D01*
X0022386595Y-0059827020D01*
X0022340824Y-0059866548D01*
X0022290832Y-0059900449D01*
X0022237348Y-0059928152D01*
X0022181101Y-0059949086D01*
X0022133781Y-0059960733D01*
X0022071022Y-0059968857D01*
X0022009393Y-0059969394D01*
X0021949378Y-0059962670D01*
X0021891462Y-0059949011D01*
X0021836133Y-0059928741D01*
X0021783874Y-0059902186D01*
X0021735171Y-0059869670D01*
X0021690510Y-0059831520D01*
X0021650375Y-0059788060D01*
X0021615254Y-0059739615D01*
X0021585630Y-0059686511D01*
X0021561989Y-0059629073D01*
X0021544817Y-0059567626D01*
X0021544448Y-0059565916D01*
X0021541266Y-0059548234D01*
X0021539142Y-0059528992D01*
X0021537945Y-0059506293D01*
X0021537543Y-0059478245D01*
X0021537566Y-0059466697D01*
X0021537943Y-0059445012D01*
X0021538947Y-0059424049D01*
X0021540740Y-0059402806D01*
X0021543483Y-0059380278D01*
X0021547338Y-0059355461D01*
X0021552467Y-0059327351D01*
X0021559030Y-0059294944D01*
X0021567190Y-0059257237D01*
X0021577109Y-0059213224D01*
X0021581327Y-0059194838D01*
X0021609840Y-0059081425D01*
X0021643635Y-0058965246D01*
X0021682046Y-0058848158D01*
X0021724406Y-0058732017D01*
X0021770048Y-0058618680D01*
X0021818307Y-0058510004D01*
X0021852717Y-0058438835D01*
X0021867202Y-0058411308D01*
X0021879996Y-0058390277D01*
X0021891910Y-0058374705D01*
X0021903752Y-0058363553D01*
X0021916332Y-0058355784D01*
X0021918189Y-0058354911D01*
X0021936223Y-0058348936D01*
X0021953047Y-0058348988D01*
G36*
G01**
X0021967288Y-0058352943D01*
X0021987000Y-0058363797D01*
X0022007247Y-0058382118D01*
X0022027592Y-0058407498D01*
X0022030893Y-0058412284D01*
X0022084967Y-0058485516D01*
X0022144171Y-0058552984D01*
X0022208212Y-0058614446D01*
X0022276798Y-0058669662D01*
X0022349634Y-0058718388D01*
X0022426430Y-0058760383D01*
X0022482980Y-0058785891D01*
X0022514171Y-0058798236D01*
X0022545564Y-0058809456D01*
X0022579185Y-0058820206D01*
X0022617062Y-0058831143D01*
X0022650000Y-0058839999D01*
X0022668243Y-0058845311D01*
X0022681291Y-0058850726D01*
X0022691792Y-0058857565D01*
X0022700213Y-0058865018D01*
X0022713652Y-0058880581D01*
X0022721731Y-0058896968D01*
X0022724494Y-0058915279D01*
X0022721986Y-0058936611D01*
X0022714251Y-0058962063D01*
X0022705056Y-0058984494D01*
X0022655612Y-0059105013D01*
X0022612330Y-0059229302D01*
X0022575030Y-0059357944D01*
X0022543530Y-0059491521D01*
X0022537246Y-0059522202D01*
X0022530145Y-0059556885D01*
X0022523833Y-0059585266D01*
X0022517861Y-0059608885D01*
X0022511784Y-0059629279D01*
X0022505155Y-0059647988D01*
X0022497525Y-0059666550D01*
X0022491301Y-0059680388D01*
X0022462562Y-0059733369D01*
X0022427417Y-0059782436D01*
X0022386595Y-0059827020D01*
X0022340824Y-0059866548D01*
X0022290832Y-0059900449D01*
X0022237348Y-0059928152D01*
X0022181101Y-0059949086D01*
X0022133781Y-0059960733D01*
X0022071022Y-0059968857D01*
X0022009393Y-0059969394D01*
X0021949378Y-0059962670D01*
X0021891462Y-0059949011D01*
X0021836133Y-0059928741D01*
X0021783874Y-0059902186D01*
X0021735171Y-0059869670D01*
X0021690510Y-0059831520D01*
X0021650375Y-0059788060D01*
X0021615254Y-0059739615D01*
X0021585630Y-0059686511D01*
X0021561989Y-0059629073D01*
X0021544817Y-0059567626D01*
X0021544448Y-0059565916D01*
X0021541266Y-0059548234D01*
X0021539142Y-0059528992D01*
X0021537945Y-0059506293D01*
X0021537543Y-0059478245D01*
X0021537566Y-0059466697D01*
X0021537943Y-0059445012D01*
X0021538947Y-0059424049D01*
X0021540740Y-0059402806D01*
X0021543483Y-0059380278D01*
X0021547338Y-0059355461D01*
X0021552467Y-0059327351D01*
X0021559030Y-0059294944D01*
X0021567190Y-0059257237D01*
X0021577109Y-0059213224D01*
X0021581327Y-0059194838D01*
X0021609840Y-0059081425D01*
X0021643635Y-0058965246D01*
X0021682046Y-0058848158D01*
X0021724406Y-0058732017D01*
X0021770048Y-0058618680D01*
X0021818307Y-0058510004D01*
X0021852717Y-0058438835D01*
X0021867202Y-0058411308D01*
X0021879996Y-0058390277D01*
X0021891910Y-0058374705D01*
X0021903752Y-0058363553D01*
X0021916332Y-0058355784D01*
X0021918189Y-0058354911D01*
X0021936223Y-0058348936D01*
X0021953047Y-0058348988D01*
G37*
X0023161664Y-0057465669D02*
X0023170644Y-0057467670D01*
X0023200672Y-0057479910D01*
X0023225650Y-0057497812D01*
X0023245015Y-0057520589D01*
X0023258200Y-0057547453D01*
X0023264642Y-0057577616D01*
X0023264914Y-0057599115D01*
X0023264446Y-0057606630D01*
X0023263847Y-0057613497D01*
X0023262805Y-0057620076D01*
X0023261008Y-0057626722D01*
X0023258142Y-0057633793D01*
X0023253895Y-0057641646D01*
X0023247956Y-0057650638D01*
X0023240011Y-0057661127D01*
X0023229747Y-0057673470D01*
X0023216854Y-0057688023D01*
X0023201017Y-0057705144D01*
X0023181925Y-0057725191D01*
X0023159265Y-0057748520D01*
X0023132725Y-0057775488D01*
X0023101992Y-0057806453D01*
X0023066753Y-0057841772D01*
X0023026697Y-0057881803D01*
X0022981511Y-0057926901D01*
X0022955203Y-0057953152D01*
X0022908642Y-0057999605D01*
X0022867346Y-0058040772D01*
X0022830970Y-0058076980D01*
X0022799168Y-0058108560D01*
X0022771596Y-0058135838D01*
X0022747908Y-0058159144D01*
X0022727758Y-0058178805D01*
X0022710802Y-0058195151D01*
X0022696694Y-0058208509D01*
X0022685088Y-0058219208D01*
X0022675639Y-0058227577D01*
X0022668002Y-0058233943D01*
X0022661832Y-0058238636D01*
X0022656783Y-0058241983D01*
X0022652509Y-0058244314D01*
X0022648667Y-0058245955D01*
X0022646489Y-0058246725D01*
X0022614957Y-0058253445D01*
X0022584047Y-0058252840D01*
X0022554826Y-0058245307D01*
X0022528358Y-0058231246D01*
X0022505710Y-0058211055D01*
X0022489510Y-0058188041D01*
X0022483925Y-0058177227D01*
X0022480461Y-0058167715D01*
X0022478623Y-0058156999D01*
X0022477911Y-0058142576D01*
X0022477817Y-0058129228D01*
X0022478161Y-0058109688D01*
X0022479474Y-0058095506D01*
X0022482180Y-0058084124D01*
X0022486700Y-0058072980D01*
X0022487316Y-0058071681D01*
X0022489981Y-0058067251D01*
X0022494743Y-0058060920D01*
X0022501894Y-0058052385D01*
X0022511722Y-0058041347D01*
X0022524520Y-0058027504D01*
X0022540578Y-0058010553D01*
X0022560186Y-0057990195D01*
X0022583636Y-0057966126D01*
X0022611217Y-0057938047D01*
X0022643222Y-0057905655D01*
X0022679939Y-0057868650D01*
X0022721661Y-0057826729D01*
X0022768677Y-0057779591D01*
X0022779019Y-0057769234D01*
X0022825793Y-0057722417D01*
X0022867318Y-0057680912D01*
X0022903933Y-0057644392D01*
X0022935979Y-0057612532D01*
X0022963792Y-0057585006D01*
X0022987713Y-0057561487D01*
X0023008081Y-0057541650D01*
X0023025234Y-0057525169D01*
X0023039512Y-0057511717D01*
X0023051254Y-0057500969D01*
X0023060798Y-0057492598D01*
X0023068484Y-0057486279D01*
X0023074650Y-0057481686D01*
X0023079636Y-0057478492D01*
X0023083392Y-0057476545D01*
X0023108956Y-0057468020D01*
X0023136053Y-0057464292D01*
X0023161664Y-0057465669D01*
G36*
G01**
X0023170644Y-0057467670D01*
X0023200672Y-0057479910D01*
X0023225650Y-0057497812D01*
X0023245015Y-0057520589D01*
X0023258200Y-0057547453D01*
X0023264642Y-0057577616D01*
X0023264914Y-0057599115D01*
X0023264446Y-0057606630D01*
X0023263847Y-0057613497D01*
X0023262805Y-0057620076D01*
X0023261008Y-0057626722D01*
X0023258142Y-0057633793D01*
X0023253895Y-0057641646D01*
X0023247956Y-0057650638D01*
X0023240011Y-0057661127D01*
X0023229747Y-0057673470D01*
X0023216854Y-0057688023D01*
X0023201017Y-0057705144D01*
X0023181925Y-0057725191D01*
X0023159265Y-0057748520D01*
X0023132725Y-0057775488D01*
X0023101992Y-0057806453D01*
X0023066753Y-0057841772D01*
X0023026697Y-0057881803D01*
X0022981511Y-0057926901D01*
X0022955203Y-0057953152D01*
X0022908642Y-0057999605D01*
X0022867346Y-0058040772D01*
X0022830970Y-0058076980D01*
X0022799168Y-0058108560D01*
X0022771596Y-0058135838D01*
X0022747908Y-0058159144D01*
X0022727758Y-0058178805D01*
X0022710802Y-0058195151D01*
X0022696694Y-0058208509D01*
X0022685088Y-0058219208D01*
X0022675639Y-0058227577D01*
X0022668002Y-0058233943D01*
X0022661832Y-0058238636D01*
X0022656783Y-0058241983D01*
X0022652509Y-0058244314D01*
X0022648667Y-0058245955D01*
X0022646489Y-0058246725D01*
X0022614957Y-0058253445D01*
X0022584047Y-0058252840D01*
X0022554826Y-0058245307D01*
X0022528358Y-0058231246D01*
X0022505710Y-0058211055D01*
X0022489510Y-0058188041D01*
X0022483925Y-0058177227D01*
X0022480461Y-0058167715D01*
X0022478623Y-0058156999D01*
X0022477911Y-0058142576D01*
X0022477817Y-0058129228D01*
X0022478161Y-0058109688D01*
X0022479474Y-0058095506D01*
X0022482180Y-0058084124D01*
X0022486700Y-0058072980D01*
X0022487316Y-0058071681D01*
X0022489981Y-0058067251D01*
X0022494743Y-0058060920D01*
X0022501894Y-0058052385D01*
X0022511722Y-0058041347D01*
X0022524520Y-0058027504D01*
X0022540578Y-0058010553D01*
X0022560186Y-0057990195D01*
X0022583636Y-0057966126D01*
X0022611217Y-0057938047D01*
X0022643222Y-0057905655D01*
X0022679939Y-0057868650D01*
X0022721661Y-0057826729D01*
X0022768677Y-0057779591D01*
X0022779019Y-0057769234D01*
X0022825793Y-0057722417D01*
X0022867318Y-0057680912D01*
X0022903933Y-0057644392D01*
X0022935979Y-0057612532D01*
X0022963792Y-0057585006D01*
X0022987713Y-0057561487D01*
X0023008081Y-0057541650D01*
X0023025234Y-0057525169D01*
X0023039512Y-0057511717D01*
X0023051254Y-0057500969D01*
X0023060798Y-0057492598D01*
X0023068484Y-0057486279D01*
X0023074650Y-0057481686D01*
X0023079636Y-0057478492D01*
X0023083392Y-0057476545D01*
X0023108956Y-0057468020D01*
X0023136053Y-0057464292D01*
X0023161664Y-0057465669D01*
G37*
X-0023899840Y-0042289312D02*
X-0023884120Y-0042296617D01*
X-0023870840Y-0042306568D01*
X-0023861575Y-0042315518D01*
X-0023853909Y-0042325228D01*
X-0023847173Y-0042337084D01*
X-0023840697Y-0042352476D01*
X-0023833810Y-0042372789D01*
X-0023825843Y-0042399412D01*
X-0023825587Y-0042400298D01*
X-0023807903Y-0042457089D01*
X-0023788858Y-0042508820D01*
X-0023767331Y-0042558363D01*
X-0023751137Y-0042591424D01*
X-0023708399Y-0042666558D01*
X-0023658875Y-0042738136D01*
X-0023603195Y-0042805432D01*
X-0023541991Y-0042867717D01*
X-0023475894Y-0042924264D01*
X-0023438573Y-0042952026D01*
X-0023409775Y-0042973959D01*
X-0023388024Y-0042994293D01*
X-0023372779Y-0043013754D01*
X-0023363499Y-0043033071D01*
X-0023359640Y-0043052968D01*
X-0023359459Y-0043058133D01*
X-0023361347Y-0043076684D01*
X-0023367680Y-0043093418D01*
X-0023379117Y-0043109043D01*
X-0023396316Y-0043124268D01*
X-0023419938Y-0043139803D01*
X-0023450641Y-0043156354D01*
X-0023450952Y-0043156511D01*
X-0023572541Y-0043213908D01*
X-0023700189Y-0043267335D01*
X-0023832899Y-0043316454D01*
X-0023969675Y-0043360928D01*
X-0024109519Y-0043400419D01*
X-0024251433Y-0043434591D01*
X-0024310073Y-0043447004D01*
X-0024369550Y-0043457811D01*
X-0024422684Y-0043464724D01*
X-0024470026Y-0043467781D01*
X-0024512129Y-0043467020D01*
X-0024545716Y-0043463150D01*
X-0024609151Y-0043448657D01*
X-0024668933Y-0043427281D01*
X-0024724711Y-0043399260D01*
X-0024776137Y-0043364835D01*
X-0024822859Y-0043324244D01*
X-0024864527Y-0043277727D01*
X-0024900792Y-0043225522D01*
X-0024905746Y-0043217212D01*
X-0024932041Y-0043164497D01*
X-0024951751Y-0043108265D01*
X-0024964770Y-0043049583D01*
X-0024970991Y-0042989520D01*
X-0024970307Y-0042929146D01*
X-0024962612Y-0042869528D01*
X-0024947800Y-0042811734D01*
X-0024946538Y-0042807917D01*
X-0024923624Y-0042751859D01*
X-0024893824Y-0042698909D01*
X-0024857809Y-0042649754D01*
X-0024816246Y-0042605080D01*
X-0024769803Y-0042565573D01*
X-0024719150Y-0042531920D01*
X-0024664954Y-0042504807D01*
X-0024642945Y-0042496133D01*
X-0024628656Y-0042491583D01*
X-0024608434Y-0042486052D01*
X-0024584150Y-0042480005D01*
X-0024557674Y-0042473908D01*
X-0024530880Y-0042468227D01*
X-0024530441Y-0042468139D01*
X-0024430712Y-0042446512D01*
X-0024336944Y-0042422921D01*
X-0024247289Y-0042396805D01*
X-0024159894Y-0042367604D01*
X-0024072911Y-0042334758D01*
X-0024025214Y-0042315206D01*
X-0023990706Y-0042301526D01*
X-0023961874Y-0042292150D01*
X-0023937757Y-0042287025D01*
X-0023917399Y-0042286097D01*
X-0023899840Y-0042289312D01*
G36*
G01**
X-0023884120Y-0042296617D01*
X-0023870840Y-0042306568D01*
X-0023861575Y-0042315518D01*
X-0023853909Y-0042325228D01*
X-0023847173Y-0042337084D01*
X-0023840697Y-0042352476D01*
X-0023833810Y-0042372789D01*
X-0023825843Y-0042399412D01*
X-0023825587Y-0042400298D01*
X-0023807903Y-0042457089D01*
X-0023788858Y-0042508820D01*
X-0023767331Y-0042558363D01*
X-0023751137Y-0042591424D01*
X-0023708399Y-0042666558D01*
X-0023658875Y-0042738136D01*
X-0023603195Y-0042805432D01*
X-0023541991Y-0042867717D01*
X-0023475894Y-0042924264D01*
X-0023438573Y-0042952026D01*
X-0023409775Y-0042973959D01*
X-0023388024Y-0042994293D01*
X-0023372779Y-0043013754D01*
X-0023363499Y-0043033071D01*
X-0023359640Y-0043052968D01*
X-0023359459Y-0043058133D01*
X-0023361347Y-0043076684D01*
X-0023367680Y-0043093418D01*
X-0023379117Y-0043109043D01*
X-0023396316Y-0043124268D01*
X-0023419938Y-0043139803D01*
X-0023450641Y-0043156354D01*
X-0023450952Y-0043156511D01*
X-0023572541Y-0043213908D01*
X-0023700189Y-0043267335D01*
X-0023832899Y-0043316454D01*
X-0023969675Y-0043360928D01*
X-0024109519Y-0043400419D01*
X-0024251433Y-0043434591D01*
X-0024310073Y-0043447004D01*
X-0024369550Y-0043457811D01*
X-0024422684Y-0043464724D01*
X-0024470026Y-0043467781D01*
X-0024512129Y-0043467020D01*
X-0024545716Y-0043463150D01*
X-0024609151Y-0043448657D01*
X-0024668933Y-0043427281D01*
X-0024724711Y-0043399260D01*
X-0024776137Y-0043364835D01*
X-0024822859Y-0043324244D01*
X-0024864527Y-0043277727D01*
X-0024900792Y-0043225522D01*
X-0024905746Y-0043217212D01*
X-0024932041Y-0043164497D01*
X-0024951751Y-0043108265D01*
X-0024964770Y-0043049583D01*
X-0024970991Y-0042989520D01*
X-0024970307Y-0042929146D01*
X-0024962612Y-0042869528D01*
X-0024947800Y-0042811734D01*
X-0024946538Y-0042807917D01*
X-0024923624Y-0042751859D01*
X-0024893824Y-0042698909D01*
X-0024857809Y-0042649754D01*
X-0024816246Y-0042605080D01*
X-0024769803Y-0042565573D01*
X-0024719150Y-0042531920D01*
X-0024664954Y-0042504807D01*
X-0024642945Y-0042496133D01*
X-0024628656Y-0042491583D01*
X-0024608434Y-0042486052D01*
X-0024584150Y-0042480005D01*
X-0024557674Y-0042473908D01*
X-0024530880Y-0042468227D01*
X-0024530441Y-0042468139D01*
X-0024430712Y-0042446512D01*
X-0024336944Y-0042422921D01*
X-0024247289Y-0042396805D01*
X-0024159894Y-0042367604D01*
X-0024072911Y-0042334758D01*
X-0024025214Y-0042315206D01*
X-0023990706Y-0042301526D01*
X-0023961874Y-0042292150D01*
X-0023937757Y-0042287025D01*
X-0023917399Y-0042286097D01*
X-0023899840Y-0042289312D01*
G37*
X-0021949558Y-0040039835D02*
X-0021891642Y-0040053494D01*
X-0021836313Y-0040073764D01*
X-0021784054Y-0040100319D01*
X-0021735351Y-0040132835D01*
X-0021690690Y-0040170985D01*
X-0021650555Y-0040214445D01*
X-0021615434Y-0040262890D01*
X-0021585810Y-0040315994D01*
X-0021562169Y-0040373432D01*
X-0021544997Y-0040434879D01*
X-0021544628Y-0040436589D01*
X-0021541446Y-0040454271D01*
X-0021539322Y-0040473513D01*
X-0021538125Y-0040496212D01*
X-0021537723Y-0040524260D01*
X-0021537746Y-0040535808D01*
X-0021538123Y-0040557493D01*
X-0021539127Y-0040578456D01*
X-0021540920Y-0040599699D01*
X-0021543663Y-0040622227D01*
X-0021547518Y-0040647044D01*
X-0021552647Y-0040675154D01*
X-0021559210Y-0040707561D01*
X-0021567370Y-0040745268D01*
X-0021577289Y-0040789281D01*
X-0021581507Y-0040807667D01*
X-0021610020Y-0040921080D01*
X-0021643815Y-0041037259D01*
X-0021682226Y-0041154347D01*
X-0021724586Y-0041270488D01*
X-0021770228Y-0041383825D01*
X-0021818487Y-0041492501D01*
X-0021852897Y-0041563670D01*
X-0021867382Y-0041591197D01*
X-0021880176Y-0041612228D01*
X-0021892090Y-0041627800D01*
X-0021903932Y-0041638952D01*
X-0021916512Y-0041646721D01*
X-0021918369Y-0041647594D01*
X-0021936403Y-0041653569D01*
X-0021953227Y-0041653517D01*
X-0021967468Y-0041649562D01*
X-0021987180Y-0041638708D01*
X-0022007427Y-0041620387D01*
X-0022027772Y-0041595007D01*
X-0022031073Y-0041590221D01*
X-0022085147Y-0041516989D01*
X-0022144351Y-0041449521D01*
X-0022208392Y-0041388059D01*
X-0022276978Y-0041332843D01*
X-0022349814Y-0041284117D01*
X-0022426610Y-0041242122D01*
X-0022483160Y-0041216614D01*
X-0022514351Y-0041204269D01*
X-0022545744Y-0041193049D01*
X-0022579365Y-0041182299D01*
X-0022617242Y-0041171362D01*
X-0022650180Y-0041162506D01*
X-0022668423Y-0041157194D01*
X-0022681471Y-0041151779D01*
X-0022691972Y-0041144940D01*
X-0022700393Y-0041137487D01*
X-0022713832Y-0041121924D01*
X-0022721911Y-0041105537D01*
X-0022724674Y-0041087226D01*
X-0022722166Y-0041065894D01*
X-0022714431Y-0041040442D01*
X-0022705236Y-0041018011D01*
X-0022655792Y-0040897492D01*
X-0022612510Y-0040773203D01*
X-0022575210Y-0040644561D01*
X-0022543710Y-0040510984D01*
X-0022537426Y-0040480303D01*
X-0022530325Y-0040445620D01*
X-0022524013Y-0040417239D01*
X-0022518041Y-0040393620D01*
X-0022511964Y-0040373226D01*
X-0022505335Y-0040354517D01*
X-0022497705Y-0040335955D01*
X-0022491481Y-0040322117D01*
X-0022462742Y-0040269136D01*
X-0022427597Y-0040220069D01*
X-0022386775Y-0040175485D01*
X-0022341004Y-0040135957D01*
X-0022291012Y-0040102056D01*
X-0022237528Y-0040074353D01*
X-0022181281Y-0040053419D01*
X-0022133961Y-0040041772D01*
X-0022071202Y-0040033648D01*
X-0022009573Y-0040033111D01*
X-0021949558Y-0040039835D01*
G36*
G01**
X-0021891642Y-0040053494D01*
X-0021836313Y-0040073764D01*
X-0021784054Y-0040100319D01*
X-0021735351Y-0040132835D01*
X-0021690690Y-0040170985D01*
X-0021650555Y-0040214445D01*
X-0021615434Y-0040262890D01*
X-0021585810Y-0040315994D01*
X-0021562169Y-0040373432D01*
X-0021544997Y-0040434879D01*
X-0021544628Y-0040436589D01*
X-0021541446Y-0040454271D01*
X-0021539322Y-0040473513D01*
X-0021538125Y-0040496212D01*
X-0021537723Y-0040524260D01*
X-0021537746Y-0040535808D01*
X-0021538123Y-0040557493D01*
X-0021539127Y-0040578456D01*
X-0021540920Y-0040599699D01*
X-0021543663Y-0040622227D01*
X-0021547518Y-0040647044D01*
X-0021552647Y-0040675154D01*
X-0021559210Y-0040707561D01*
X-0021567370Y-0040745268D01*
X-0021577289Y-0040789281D01*
X-0021581507Y-0040807667D01*
X-0021610020Y-0040921080D01*
X-0021643815Y-0041037259D01*
X-0021682226Y-0041154347D01*
X-0021724586Y-0041270488D01*
X-0021770228Y-0041383825D01*
X-0021818487Y-0041492501D01*
X-0021852897Y-0041563670D01*
X-0021867382Y-0041591197D01*
X-0021880176Y-0041612228D01*
X-0021892090Y-0041627800D01*
X-0021903932Y-0041638952D01*
X-0021916512Y-0041646721D01*
X-0021918369Y-0041647594D01*
X-0021936403Y-0041653569D01*
X-0021953227Y-0041653517D01*
X-0021967468Y-0041649562D01*
X-0021987180Y-0041638708D01*
X-0022007427Y-0041620387D01*
X-0022027772Y-0041595007D01*
X-0022031073Y-0041590221D01*
X-0022085147Y-0041516989D01*
X-0022144351Y-0041449521D01*
X-0022208392Y-0041388059D01*
X-0022276978Y-0041332843D01*
X-0022349814Y-0041284117D01*
X-0022426610Y-0041242122D01*
X-0022483160Y-0041216614D01*
X-0022514351Y-0041204269D01*
X-0022545744Y-0041193049D01*
X-0022579365Y-0041182299D01*
X-0022617242Y-0041171362D01*
X-0022650180Y-0041162506D01*
X-0022668423Y-0041157194D01*
X-0022681471Y-0041151779D01*
X-0022691972Y-0041144940D01*
X-0022700393Y-0041137487D01*
X-0022713832Y-0041121924D01*
X-0022721911Y-0041105537D01*
X-0022724674Y-0041087226D01*
X-0022722166Y-0041065894D01*
X-0022714431Y-0041040442D01*
X-0022705236Y-0041018011D01*
X-0022655792Y-0040897492D01*
X-0022612510Y-0040773203D01*
X-0022575210Y-0040644561D01*
X-0022543710Y-0040510984D01*
X-0022537426Y-0040480303D01*
X-0022530325Y-0040445620D01*
X-0022524013Y-0040417239D01*
X-0022518041Y-0040393620D01*
X-0022511964Y-0040373226D01*
X-0022505335Y-0040354517D01*
X-0022497705Y-0040335955D01*
X-0022491481Y-0040322117D01*
X-0022462742Y-0040269136D01*
X-0022427597Y-0040220069D01*
X-0022386775Y-0040175485D01*
X-0022341004Y-0040135957D01*
X-0022291012Y-0040102056D01*
X-0022237528Y-0040074353D01*
X-0022181281Y-0040053419D01*
X-0022133961Y-0040041772D01*
X-0022071202Y-0040033648D01*
X-0022009573Y-0040033111D01*
X-0021949558Y-0040039835D01*
G37*
X-0022493080Y-0041537788D02*
X-0022475996Y-0041538455D01*
X-0022462479Y-0041539726D01*
X-0022451804Y-0041541656D01*
X-0022443241Y-0041544301D01*
X-0022436066Y-0041547718D01*
X-0022429548Y-0041551960D01*
X-0022422962Y-0041557086D01*
X-0022419690Y-0041559770D01*
X-0022408818Y-0041571280D01*
X-0022398500Y-0041586470D01*
X-0022390198Y-0041602689D01*
X-0022385378Y-0041617289D01*
X-0022384731Y-0041623033D01*
X-0022383862Y-0041628875D01*
X-0022381375Y-0041641638D01*
X-0022377445Y-0041660508D01*
X-0022372249Y-0041684674D01*
X-0022365964Y-0041713324D01*
X-0022358765Y-0041745645D01*
X-0022350829Y-0041780826D01*
X-0022343059Y-0041814889D01*
X-0022332429Y-0041861504D01*
X-0022323568Y-0041901096D01*
X-0022316374Y-0041934356D01*
X-0022310745Y-0041961975D01*
X-0022306578Y-0041984643D01*
X-0022303773Y-0042003051D01*
X-0022302227Y-0042017890D01*
X-0022301838Y-0042029852D01*
X-0022302505Y-0042039626D01*
X-0022304125Y-0042047904D01*
X-0022306597Y-0042055377D01*
X-0022307332Y-0042057191D01*
X-0022319147Y-0042077257D01*
X-0022336065Y-0042095509D01*
X-0022354590Y-0042108567D01*
X-0022372955Y-0042114887D01*
X-0022395198Y-0042117566D01*
X-0022418164Y-0042116603D01*
X-0022438699Y-0042111995D01*
X-0022446518Y-0042108621D01*
X-0022462601Y-0042097607D01*
X-0022477976Y-0042082847D01*
X-0022490130Y-0042066979D01*
X-0022494924Y-0042057795D01*
X-0022497256Y-0042050353D01*
X-0022500953Y-0042036552D01*
X-0022505667Y-0042017779D01*
X-0022511051Y-0041995426D01*
X-0022516756Y-0041970882D01*
X-0022517679Y-0041966826D01*
X-0022523140Y-0041942943D01*
X-0022528037Y-0041921849D01*
X-0022532091Y-0041904712D01*
X-0022535027Y-0041892701D01*
X-0022536567Y-0041886981D01*
X-0022536699Y-0041886674D01*
X-0022539388Y-0041889242D01*
X-0022546119Y-0041897023D01*
X-0022556031Y-0041908987D01*
X-0022568266Y-0041924103D01*
X-0022576173Y-0041934015D01*
X-0022675778Y-0042053150D01*
X-0022781374Y-0042167079D01*
X-0022892952Y-0042275793D01*
X-0023010506Y-0042379286D01*
X-0023070383Y-0042428165D01*
X-0023087489Y-0042442063D01*
X-0023101915Y-0042454319D01*
X-0023112713Y-0042464081D01*
X-0023118935Y-0042470501D01*
X-0023119992Y-0042472651D01*
X-0023115406Y-0042474340D01*
X-0023104277Y-0042477619D01*
X-0023087771Y-0042482169D01*
X-0023067049Y-0042487672D01*
X-0023043275Y-0042493810D01*
X-0023033622Y-0042496258D01*
X-0023002672Y-0042504115D01*
X-0022978372Y-0042510463D01*
X-0022959665Y-0042515689D01*
X-0022945494Y-0042520181D01*
X-0022934802Y-0042524325D01*
X-0022926530Y-0042528508D01*
X-0022919621Y-0042533117D01*
X-0022913018Y-0042538539D01*
X-0022909519Y-0042541659D01*
X-0022892287Y-0042562120D01*
X-0022881611Y-0042585453D01*
X-0022877307Y-0042610345D01*
X-0022879187Y-0042635480D01*
X-0022887067Y-0042659543D01*
X-0022900759Y-0042681220D01*
X-0022920078Y-0042699196D01*
X-0022932907Y-0042706963D01*
X-0022944041Y-0042711994D01*
X-0022955193Y-0042715302D01*
X-0022967466Y-0042716801D01*
X-0022981962Y-0042716402D01*
X-0022999784Y-0042714020D01*
X-0023022034Y-0042709566D01*
X-0023049815Y-0042702954D01*
X-0023079262Y-0042695399D01*
X-0023107506Y-0042688030D01*
X-0023141348Y-0042679230D01*
X-0023178698Y-0042669542D01*
X-0023217465Y-0042659507D01*
X-0023255558Y-0042649668D01*
X-0023289340Y-0042640963D01*
X-0023326219Y-0042631387D01*
X-0023356249Y-0042623303D01*
X-0023380296Y-0042616341D01*
X-0023399227Y-0042610133D01*
X-0023413910Y-0042604308D01*
X-0023425212Y-0042598499D01*
X-0023433998Y-0042592335D01*
X-0023441137Y-0042585448D01*
X-0023447495Y-0042577468D01*
X-0023451296Y-0042572002D01*
X-0023455259Y-0042565924D01*
X-0023458568Y-0042559983D01*
X-0023461243Y-0042553485D01*
X-0023463304Y-0042545740D01*
X-0023464770Y-0042536055D01*
X-0023465662Y-0042523738D01*
X-0023465999Y-0042508098D01*
X-0023465802Y-0042488442D01*
X-0023465090Y-0042464078D01*
X-0023463883Y-0042434315D01*
X-0023462202Y-0042398460D01*
X-0023460066Y-0042355821D01*
X-0023458438Y-0042324063D01*
X-0023456329Y-0042284214D01*
X-0023454210Y-0042246386D01*
X-0023452136Y-0042211396D01*
X-0023450160Y-0042180059D01*
X-0023448335Y-0042153190D01*
X-0023446716Y-0042131605D01*
X-0023445356Y-0042116120D01*
X-0023444309Y-0042107550D01*
X-0023444109Y-0042106608D01*
X-0023434152Y-0042083320D01*
X-0023418578Y-0042064281D01*
X-0023398698Y-0042049858D01*
X-0023375820Y-0042040422D01*
X-0023351253Y-0042036340D01*
X-0023326306Y-0042037982D01*
X-0023302289Y-0042045717D01*
X-0023280510Y-0042059914D01*
X-0023280003Y-0042060357D01*
X-0023265619Y-0042076401D01*
X-0023254457Y-0042095111D01*
X-0023253901Y-0042096369D01*
X-0023250688Y-0042104223D01*
X-0023248404Y-0042111481D01*
X-0023246954Y-0042119561D01*
X-0023246238Y-0042129881D01*
X-0023246160Y-0042143860D01*
X-0023246622Y-0042162917D01*
X-0023247526Y-0042188470D01*
X-0023247538Y-0042188792D01*
X-0023248562Y-0042213943D01*
X-0023249707Y-0042238309D01*
X-0023250872Y-0042259977D01*
X-0023251957Y-0042277031D01*
X-0023252641Y-0042285493D01*
X-0023253610Y-0042295431D01*
X-0023253823Y-0042302422D01*
X-0023252510Y-0042306194D01*
X-0023248906Y-0042306477D01*
X-0023242243Y-0042302998D01*
X-0023231754Y-0042295486D01*
X-0023216671Y-0042283671D01*
X-0023196226Y-0042267281D01*
X-0023192372Y-0042264188D01*
X-0023109296Y-0042194766D01*
X-0023027210Y-0042120735D01*
X-0022947314Y-0042043322D01*
X-0022870808Y-0041963754D01*
X-0022798892Y-0041883258D01*
X-0022732764Y-0041803062D01*
X-0022700154Y-0041760671D01*
X-0022688638Y-0041745301D01*
X-0022724208Y-0041747835D01*
X-0022741251Y-0041748798D01*
X-0022763702Y-0041749707D01*
X-0022789031Y-0041750477D01*
X-0022814708Y-0041751024D01*
X-0022823278Y-0041751147D01*
X-0022848460Y-0041751318D01*
X-0022867162Y-0041751048D01*
X-0022880834Y-0041750222D01*
X-0022890926Y-0041748728D01*
X-0022898890Y-0041746453D01*
X-0022902653Y-0041744931D01*
X-0022925453Y-0041730761D01*
X-0022943902Y-0041711026D01*
X-0022956941Y-0041687344D01*
X-0022963511Y-0041661335D01*
X-0022964091Y-0041651027D01*
X-0022960457Y-0041625304D01*
X-0022950304Y-0041601020D01*
X-0022934755Y-0041579906D01*
X-0022914934Y-0041563691D01*
X-0022903621Y-0041557899D01*
X-0022898783Y-0041556004D01*
X-0022893587Y-0041554363D01*
X-0022887365Y-0041552932D01*
X-0022879449Y-0041551665D01*
X-0022869173Y-0041550519D01*
X-0022855868Y-0041549449D01*
X-0022838867Y-0041548411D01*
X-0022817501Y-0041547360D01*
X-0022791105Y-0041546253D01*
X-0022759009Y-0041545045D01*
X-0022720547Y-0041543692D01*
X-0022675051Y-0041542149D01*
X-0022657490Y-0041541561D01*
X-0022611652Y-0041540045D01*
X-0022573019Y-0041538853D01*
X-0022540865Y-0041538043D01*
X-0022514461Y-0041537669D01*
X-0022493080Y-0041537788D01*
G36*
G01**
X-0022475996Y-0041538455D01*
X-0022462479Y-0041539726D01*
X-0022451804Y-0041541656D01*
X-0022443241Y-0041544301D01*
X-0022436066Y-0041547718D01*
X-0022429548Y-0041551960D01*
X-0022422962Y-0041557086D01*
X-0022419690Y-0041559770D01*
X-0022408818Y-0041571280D01*
X-0022398500Y-0041586470D01*
X-0022390198Y-0041602689D01*
X-0022385378Y-0041617289D01*
X-0022384731Y-0041623033D01*
X-0022383862Y-0041628875D01*
X-0022381375Y-0041641638D01*
X-0022377445Y-0041660508D01*
X-0022372249Y-0041684674D01*
X-0022365964Y-0041713324D01*
X-0022358765Y-0041745645D01*
X-0022350829Y-0041780826D01*
X-0022343059Y-0041814889D01*
X-0022332429Y-0041861504D01*
X-0022323568Y-0041901096D01*
X-0022316374Y-0041934356D01*
X-0022310745Y-0041961975D01*
X-0022306578Y-0041984643D01*
X-0022303773Y-0042003051D01*
X-0022302227Y-0042017890D01*
X-0022301838Y-0042029852D01*
X-0022302505Y-0042039626D01*
X-0022304125Y-0042047904D01*
X-0022306597Y-0042055377D01*
X-0022307332Y-0042057191D01*
X-0022319147Y-0042077257D01*
X-0022336065Y-0042095509D01*
X-0022354590Y-0042108567D01*
X-0022372955Y-0042114887D01*
X-0022395198Y-0042117566D01*
X-0022418164Y-0042116603D01*
X-0022438699Y-0042111995D01*
X-0022446518Y-0042108621D01*
X-0022462601Y-0042097607D01*
X-0022477976Y-0042082847D01*
X-0022490130Y-0042066979D01*
X-0022494924Y-0042057795D01*
X-0022497256Y-0042050353D01*
X-0022500953Y-0042036552D01*
X-0022505667Y-0042017779D01*
X-0022511051Y-0041995426D01*
X-0022516756Y-0041970882D01*
X-0022517679Y-0041966826D01*
X-0022523140Y-0041942943D01*
X-0022528037Y-0041921849D01*
X-0022532091Y-0041904712D01*
X-0022535027Y-0041892701D01*
X-0022536567Y-0041886981D01*
X-0022536699Y-0041886674D01*
X-0022539388Y-0041889242D01*
X-0022546119Y-0041897023D01*
X-0022556031Y-0041908987D01*
X-0022568266Y-0041924103D01*
X-0022576173Y-0041934015D01*
X-0022675778Y-0042053150D01*
X-0022781374Y-0042167079D01*
X-0022892952Y-0042275793D01*
X-0023010506Y-0042379286D01*
X-0023070383Y-0042428165D01*
X-0023087489Y-0042442063D01*
X-0023101915Y-0042454319D01*
X-0023112713Y-0042464081D01*
X-0023118935Y-0042470501D01*
X-0023119992Y-0042472651D01*
X-0023115406Y-0042474340D01*
X-0023104277Y-0042477619D01*
X-0023087771Y-0042482169D01*
X-0023067049Y-0042487672D01*
X-0023043275Y-0042493810D01*
X-0023033622Y-0042496258D01*
X-0023002672Y-0042504115D01*
X-0022978372Y-0042510463D01*
X-0022959665Y-0042515689D01*
X-0022945494Y-0042520181D01*
X-0022934802Y-0042524325D01*
X-0022926530Y-0042528508D01*
X-0022919621Y-0042533117D01*
X-0022913018Y-0042538539D01*
X-0022909519Y-0042541659D01*
X-0022892287Y-0042562120D01*
X-0022881611Y-0042585453D01*
X-0022877307Y-0042610345D01*
X-0022879187Y-0042635480D01*
X-0022887067Y-0042659543D01*
X-0022900759Y-0042681220D01*
X-0022920078Y-0042699196D01*
X-0022932907Y-0042706963D01*
X-0022944041Y-0042711994D01*
X-0022955193Y-0042715302D01*
X-0022967466Y-0042716801D01*
X-0022981962Y-0042716402D01*
X-0022999784Y-0042714020D01*
X-0023022034Y-0042709566D01*
X-0023049815Y-0042702954D01*
X-0023079262Y-0042695399D01*
X-0023107506Y-0042688030D01*
X-0023141348Y-0042679230D01*
X-0023178698Y-0042669542D01*
X-0023217465Y-0042659507D01*
X-0023255558Y-0042649668D01*
X-0023289340Y-0042640963D01*
X-0023326219Y-0042631387D01*
X-0023356249Y-0042623303D01*
X-0023380296Y-0042616341D01*
X-0023399227Y-0042610133D01*
X-0023413910Y-0042604308D01*
X-0023425212Y-0042598499D01*
X-0023433998Y-0042592335D01*
X-0023441137Y-0042585448D01*
X-0023447495Y-0042577468D01*
X-0023451296Y-0042572002D01*
X-0023455259Y-0042565924D01*
X-0023458568Y-0042559983D01*
X-0023461243Y-0042553485D01*
X-0023463304Y-0042545740D01*
X-0023464770Y-0042536055D01*
X-0023465662Y-0042523738D01*
X-0023465999Y-0042508098D01*
X-0023465802Y-0042488442D01*
X-0023465090Y-0042464078D01*
X-0023463883Y-0042434315D01*
X-0023462202Y-0042398460D01*
X-0023460066Y-0042355821D01*
X-0023458438Y-0042324063D01*
X-0023456329Y-0042284214D01*
X-0023454210Y-0042246386D01*
X-0023452136Y-0042211396D01*
X-0023450160Y-0042180059D01*
X-0023448335Y-0042153190D01*
X-0023446716Y-0042131605D01*
X-0023445356Y-0042116120D01*
X-0023444309Y-0042107550D01*
X-0023444109Y-0042106608D01*
X-0023434152Y-0042083320D01*
X-0023418578Y-0042064281D01*
X-0023398698Y-0042049858D01*
X-0023375820Y-0042040422D01*
X-0023351253Y-0042036340D01*
X-0023326306Y-0042037982D01*
X-0023302289Y-0042045717D01*
X-0023280510Y-0042059914D01*
X-0023280003Y-0042060357D01*
X-0023265619Y-0042076401D01*
X-0023254457Y-0042095111D01*
X-0023253901Y-0042096369D01*
X-0023250688Y-0042104223D01*
X-0023248404Y-0042111481D01*
X-0023246954Y-0042119561D01*
X-0023246238Y-0042129881D01*
X-0023246160Y-0042143860D01*
X-0023246622Y-0042162917D01*
X-0023247526Y-0042188470D01*
X-0023247538Y-0042188792D01*
X-0023248562Y-0042213943D01*
X-0023249707Y-0042238309D01*
X-0023250872Y-0042259977D01*
X-0023251957Y-0042277031D01*
X-0023252641Y-0042285493D01*
X-0023253610Y-0042295431D01*
X-0023253823Y-0042302422D01*
X-0023252510Y-0042306194D01*
X-0023248906Y-0042306477D01*
X-0023242243Y-0042302998D01*
X-0023231754Y-0042295486D01*
X-0023216671Y-0042283671D01*
X-0023196226Y-0042267281D01*
X-0023192372Y-0042264188D01*
X-0023109296Y-0042194766D01*
X-0023027210Y-0042120735D01*
X-0022947314Y-0042043322D01*
X-0022870808Y-0041963754D01*
X-0022798892Y-0041883258D01*
X-0022732764Y-0041803062D01*
X-0022700154Y-0041760671D01*
X-0022688638Y-0041745301D01*
X-0022724208Y-0041747835D01*
X-0022741251Y-0041748798D01*
X-0022763702Y-0041749707D01*
X-0022789031Y-0041750477D01*
X-0022814708Y-0041751024D01*
X-0022823278Y-0041751147D01*
X-0022848460Y-0041751318D01*
X-0022867162Y-0041751048D01*
X-0022880834Y-0041750222D01*
X-0022890926Y-0041748728D01*
X-0022898890Y-0041746453D01*
X-0022902653Y-0041744931D01*
X-0022925453Y-0041730761D01*
X-0022943902Y-0041711026D01*
X-0022956941Y-0041687344D01*
X-0022963511Y-0041661335D01*
X-0022964091Y-0041651027D01*
X-0022960457Y-0041625304D01*
X-0022950304Y-0041601020D01*
X-0022934755Y-0041579906D01*
X-0022914934Y-0041563691D01*
X-0022903621Y-0041557899D01*
X-0022898783Y-0041556004D01*
X-0022893587Y-0041554363D01*
X-0022887365Y-0041552932D01*
X-0022879449Y-0041551665D01*
X-0022869173Y-0041550519D01*
X-0022855868Y-0041549449D01*
X-0022838867Y-0041548411D01*
X-0022817501Y-0041547360D01*
X-0022791105Y-0041546253D01*
X-0022759009Y-0041545045D01*
X-0022720547Y-0041543692D01*
X-0022675051Y-0041542149D01*
X-0022657490Y-0041541561D01*
X-0022611652Y-0041540045D01*
X-0022573019Y-0041538853D01*
X-0022540865Y-0041538043D01*
X-0022514461Y-0041537669D01*
X-0022493080Y-0041537788D01*
G37*
X-0021929306Y-0058363938D02*
X-0021912572Y-0058370271D01*
X-0021896947Y-0058381708D01*
X-0021881722Y-0058398907D01*
X-0021866187Y-0058422529D01*
X-0021849636Y-0058453232D01*
X-0021849479Y-0058453543D01*
X-0021792082Y-0058575132D01*
X-0021738655Y-0058702780D01*
X-0021689536Y-0058835490D01*
X-0021645062Y-0058972266D01*
X-0021605571Y-0059112110D01*
X-0021571399Y-0059254024D01*
X-0021558986Y-0059312664D01*
X-0021548179Y-0059372141D01*
X-0021541266Y-0059425275D01*
X-0021538209Y-0059472617D01*
X-0021538970Y-0059514720D01*
X-0021542840Y-0059548307D01*
X-0021557333Y-0059611742D01*
X-0021578709Y-0059671524D01*
X-0021606730Y-0059727302D01*
X-0021641155Y-0059778728D01*
X-0021681746Y-0059825450D01*
X-0021728263Y-0059867118D01*
X-0021780468Y-0059903383D01*
X-0021788778Y-0059908337D01*
X-0021841493Y-0059934632D01*
X-0021897725Y-0059954342D01*
X-0021956407Y-0059967361D01*
X-0022016470Y-0059973582D01*
X-0022076844Y-0059972898D01*
X-0022136462Y-0059965203D01*
X-0022194256Y-0059950391D01*
X-0022198073Y-0059949129D01*
X-0022254131Y-0059926215D01*
X-0022307081Y-0059896415D01*
X-0022356236Y-0059860400D01*
X-0022400910Y-0059818837D01*
X-0022440417Y-0059772394D01*
X-0022474070Y-0059721741D01*
X-0022501183Y-0059667545D01*
X-0022509857Y-0059645536D01*
X-0022514407Y-0059631247D01*
X-0022519938Y-0059611025D01*
X-0022525985Y-0059586741D01*
X-0022532082Y-0059560265D01*
X-0022537763Y-0059533471D01*
X-0022537851Y-0059533032D01*
X-0022559478Y-0059433303D01*
X-0022583069Y-0059339535D01*
X-0022609185Y-0059249880D01*
X-0022638386Y-0059162485D01*
X-0022671232Y-0059075502D01*
X-0022690784Y-0059027805D01*
X-0022704464Y-0058993297D01*
X-0022713840Y-0058964465D01*
X-0022718965Y-0058940348D01*
X-0022719893Y-0058919990D01*
X-0022716678Y-0058902431D01*
X-0022709373Y-0058886711D01*
X-0022699422Y-0058873431D01*
X-0022690472Y-0058864166D01*
X-0022680762Y-0058856500D01*
X-0022668906Y-0058849764D01*
X-0022653514Y-0058843288D01*
X-0022633201Y-0058836401D01*
X-0022606578Y-0058828434D01*
X-0022605692Y-0058828178D01*
X-0022548901Y-0058810494D01*
X-0022497170Y-0058791449D01*
X-0022447627Y-0058769922D01*
X-0022414566Y-0058753728D01*
X-0022339432Y-0058710990D01*
X-0022267854Y-0058661466D01*
X-0022200558Y-0058605786D01*
X-0022138273Y-0058544582D01*
X-0022081726Y-0058478485D01*
X-0022053964Y-0058441164D01*
X-0022032031Y-0058412366D01*
X-0022011697Y-0058390615D01*
X-0021992236Y-0058375370D01*
X-0021972919Y-0058366090D01*
X-0021953022Y-0058362231D01*
X-0021947857Y-0058362050D01*
X-0021929306Y-0058363938D01*
G36*
G01**
X-0021912572Y-0058370271D01*
X-0021896947Y-0058381708D01*
X-0021881722Y-0058398907D01*
X-0021866187Y-0058422529D01*
X-0021849636Y-0058453232D01*
X-0021849479Y-0058453543D01*
X-0021792082Y-0058575132D01*
X-0021738655Y-0058702780D01*
X-0021689536Y-0058835490D01*
X-0021645062Y-0058972266D01*
X-0021605571Y-0059112110D01*
X-0021571399Y-0059254024D01*
X-0021558986Y-0059312664D01*
X-0021548179Y-0059372141D01*
X-0021541266Y-0059425275D01*
X-0021538209Y-0059472617D01*
X-0021538970Y-0059514720D01*
X-0021542840Y-0059548307D01*
X-0021557333Y-0059611742D01*
X-0021578709Y-0059671524D01*
X-0021606730Y-0059727302D01*
X-0021641155Y-0059778728D01*
X-0021681746Y-0059825450D01*
X-0021728263Y-0059867118D01*
X-0021780468Y-0059903383D01*
X-0021788778Y-0059908337D01*
X-0021841493Y-0059934632D01*
X-0021897725Y-0059954342D01*
X-0021956407Y-0059967361D01*
X-0022016470Y-0059973582D01*
X-0022076844Y-0059972898D01*
X-0022136462Y-0059965203D01*
X-0022194256Y-0059950391D01*
X-0022198073Y-0059949129D01*
X-0022254131Y-0059926215D01*
X-0022307081Y-0059896415D01*
X-0022356236Y-0059860400D01*
X-0022400910Y-0059818837D01*
X-0022440417Y-0059772394D01*
X-0022474070Y-0059721741D01*
X-0022501183Y-0059667545D01*
X-0022509857Y-0059645536D01*
X-0022514407Y-0059631247D01*
X-0022519938Y-0059611025D01*
X-0022525985Y-0059586741D01*
X-0022532082Y-0059560265D01*
X-0022537763Y-0059533471D01*
X-0022537851Y-0059533032D01*
X-0022559478Y-0059433303D01*
X-0022583069Y-0059339535D01*
X-0022609185Y-0059249880D01*
X-0022638386Y-0059162485D01*
X-0022671232Y-0059075502D01*
X-0022690784Y-0059027805D01*
X-0022704464Y-0058993297D01*
X-0022713840Y-0058964465D01*
X-0022718965Y-0058940348D01*
X-0022719893Y-0058919990D01*
X-0022716678Y-0058902431D01*
X-0022709373Y-0058886711D01*
X-0022699422Y-0058873431D01*
X-0022690472Y-0058864166D01*
X-0022680762Y-0058856500D01*
X-0022668906Y-0058849764D01*
X-0022653514Y-0058843288D01*
X-0022633201Y-0058836401D01*
X-0022606578Y-0058828434D01*
X-0022605692Y-0058828178D01*
X-0022548901Y-0058810494D01*
X-0022497170Y-0058791449D01*
X-0022447627Y-0058769922D01*
X-0022414566Y-0058753728D01*
X-0022339432Y-0058710990D01*
X-0022267854Y-0058661466D01*
X-0022200558Y-0058605786D01*
X-0022138273Y-0058544582D01*
X-0022081726Y-0058478485D01*
X-0022053964Y-0058441164D01*
X-0022032031Y-0058412366D01*
X-0022011697Y-0058390615D01*
X-0021992236Y-0058375370D01*
X-0021972919Y-0058366090D01*
X-0021953022Y-0058362231D01*
X-0021947857Y-0058362050D01*
X-0021929306Y-0058363938D01*
G37*
X-0024470182Y-0056540337D02*
X-0024448497Y-0056540714D01*
X-0024427534Y-0056541718D01*
X-0024406291Y-0056543511D01*
X-0024383763Y-0056546254D01*
X-0024358946Y-0056550109D01*
X-0024330836Y-0056555238D01*
X-0024298429Y-0056561801D01*
X-0024260722Y-0056569961D01*
X-0024216709Y-0056579880D01*
X-0024198323Y-0056584098D01*
X-0024084910Y-0056612611D01*
X-0023968731Y-0056646406D01*
X-0023851643Y-0056684817D01*
X-0023735502Y-0056727177D01*
X-0023622165Y-0056772819D01*
X-0023513489Y-0056821078D01*
X-0023442320Y-0056855488D01*
X-0023414793Y-0056869973D01*
X-0023393762Y-0056882767D01*
X-0023378190Y-0056894681D01*
X-0023367038Y-0056906523D01*
X-0023359269Y-0056919103D01*
X-0023358396Y-0056920960D01*
X-0023352421Y-0056938994D01*
X-0023352473Y-0056955818D01*
X-0023356428Y-0056970059D01*
X-0023367282Y-0056989771D01*
X-0023385603Y-0057010018D01*
X-0023410983Y-0057030363D01*
X-0023415769Y-0057033664D01*
X-0023489001Y-0057087738D01*
X-0023556469Y-0057146942D01*
X-0023617931Y-0057210983D01*
X-0023673147Y-0057279569D01*
X-0023721873Y-0057352405D01*
X-0023763868Y-0057429201D01*
X-0023789376Y-0057485751D01*
X-0023801721Y-0057516942D01*
X-0023812941Y-0057548335D01*
X-0023823691Y-0057581956D01*
X-0023834628Y-0057619833D01*
X-0023843484Y-0057652771D01*
X-0023848796Y-0057671014D01*
X-0023854211Y-0057684062D01*
X-0023861050Y-0057694563D01*
X-0023868503Y-0057702984D01*
X-0023884066Y-0057716423D01*
X-0023900453Y-0057724502D01*
X-0023918764Y-0057727265D01*
X-0023940096Y-0057724757D01*
X-0023965548Y-0057717022D01*
X-0023987979Y-0057707827D01*
X-0024108498Y-0057658383D01*
X-0024232787Y-0057615101D01*
X-0024361429Y-0057577801D01*
X-0024495006Y-0057546301D01*
X-0024525687Y-0057540017D01*
X-0024560370Y-0057532916D01*
X-0024588751Y-0057526604D01*
X-0024612370Y-0057520632D01*
X-0024632764Y-0057514555D01*
X-0024651473Y-0057507926D01*
X-0024670035Y-0057500296D01*
X-0024683873Y-0057494072D01*
X-0024736854Y-0057465333D01*
X-0024785921Y-0057430188D01*
X-0024830505Y-0057389366D01*
X-0024870033Y-0057343595D01*
X-0024903934Y-0057293603D01*
X-0024931637Y-0057240119D01*
X-0024952571Y-0057183872D01*
X-0024964218Y-0057136552D01*
X-0024972342Y-0057073793D01*
X-0024972879Y-0057012164D01*
X-0024966155Y-0056952149D01*
X-0024952496Y-0056894233D01*
X-0024932226Y-0056838904D01*
X-0024905671Y-0056786645D01*
X-0024873155Y-0056737942D01*
X-0024835005Y-0056693281D01*
X-0024791545Y-0056653146D01*
X-0024743100Y-0056618025D01*
X-0024689996Y-0056588401D01*
X-0024632558Y-0056564760D01*
X-0024571111Y-0056547588D01*
X-0024569401Y-0056547219D01*
X-0024551719Y-0056544037D01*
X-0024532477Y-0056541913D01*
X-0024509778Y-0056540716D01*
X-0024481730Y-0056540314D01*
X-0024470182Y-0056540337D01*
G36*
G01**
X-0024448497Y-0056540714D01*
X-0024427534Y-0056541718D01*
X-0024406291Y-0056543511D01*
X-0024383763Y-0056546254D01*
X-0024358946Y-0056550109D01*
X-0024330836Y-0056555238D01*
X-0024298429Y-0056561801D01*
X-0024260722Y-0056569961D01*
X-0024216709Y-0056579880D01*
X-0024198323Y-0056584098D01*
X-0024084910Y-0056612611D01*
X-0023968731Y-0056646406D01*
X-0023851643Y-0056684817D01*
X-0023735502Y-0056727177D01*
X-0023622165Y-0056772819D01*
X-0023513489Y-0056821078D01*
X-0023442320Y-0056855488D01*
X-0023414793Y-0056869973D01*
X-0023393762Y-0056882767D01*
X-0023378190Y-0056894681D01*
X-0023367038Y-0056906523D01*
X-0023359269Y-0056919103D01*
X-0023358396Y-0056920960D01*
X-0023352421Y-0056938994D01*
X-0023352473Y-0056955818D01*
X-0023356428Y-0056970059D01*
X-0023367282Y-0056989771D01*
X-0023385603Y-0057010018D01*
X-0023410983Y-0057030363D01*
X-0023415769Y-0057033664D01*
X-0023489001Y-0057087738D01*
X-0023556469Y-0057146942D01*
X-0023617931Y-0057210983D01*
X-0023673147Y-0057279569D01*
X-0023721873Y-0057352405D01*
X-0023763868Y-0057429201D01*
X-0023789376Y-0057485751D01*
X-0023801721Y-0057516942D01*
X-0023812941Y-0057548335D01*
X-0023823691Y-0057581956D01*
X-0023834628Y-0057619833D01*
X-0023843484Y-0057652771D01*
X-0023848796Y-0057671014D01*
X-0023854211Y-0057684062D01*
X-0023861050Y-0057694563D01*
X-0023868503Y-0057702984D01*
X-0023884066Y-0057716423D01*
X-0023900453Y-0057724502D01*
X-0023918764Y-0057727265D01*
X-0023940096Y-0057724757D01*
X-0023965548Y-0057717022D01*
X-0023987979Y-0057707827D01*
X-0024108498Y-0057658383D01*
X-0024232787Y-0057615101D01*
X-0024361429Y-0057577801D01*
X-0024495006Y-0057546301D01*
X-0024525687Y-0057540017D01*
X-0024560370Y-0057532916D01*
X-0024588751Y-0057526604D01*
X-0024612370Y-0057520632D01*
X-0024632764Y-0057514555D01*
X-0024651473Y-0057507926D01*
X-0024670035Y-0057500296D01*
X-0024683873Y-0057494072D01*
X-0024736854Y-0057465333D01*
X-0024785921Y-0057430188D01*
X-0024830505Y-0057389366D01*
X-0024870033Y-0057343595D01*
X-0024903934Y-0057293603D01*
X-0024931637Y-0057240119D01*
X-0024952571Y-0057183872D01*
X-0024964218Y-0057136552D01*
X-0024972342Y-0057073793D01*
X-0024972879Y-0057012164D01*
X-0024966155Y-0056952149D01*
X-0024952496Y-0056894233D01*
X-0024932226Y-0056838904D01*
X-0024905671Y-0056786645D01*
X-0024873155Y-0056737942D01*
X-0024835005Y-0056693281D01*
X-0024791545Y-0056653146D01*
X-0024743100Y-0056618025D01*
X-0024689996Y-0056588401D01*
X-0024632558Y-0056564760D01*
X-0024571111Y-0056547588D01*
X-0024569401Y-0056547219D01*
X-0024551719Y-0056544037D01*
X-0024532477Y-0056541913D01*
X-0024509778Y-0056540716D01*
X-0024481730Y-0056540314D01*
X-0024470182Y-0056540337D01*
G37*
X-0023114506Y-0057497744D02*
X-0023104489Y-0057500501D01*
X-0023098602Y-0057502693D01*
X-0023092612Y-0057505668D01*
X-0023085887Y-0057509983D01*
X-0023077796Y-0057516197D01*
X-0023067706Y-0057524868D01*
X-0023054986Y-0057536554D01*
X-0023039003Y-0057551814D01*
X-0023019125Y-0057571204D01*
X-0022994721Y-0057595283D01*
X-0022974957Y-0057614880D01*
X-0022866811Y-0057722233D01*
X-0022760645Y-0057617032D01*
X-0022732077Y-0057588945D01*
X-0022706322Y-0057564069D01*
X-0022683875Y-0057542858D01*
X-0022665228Y-0057525771D01*
X-0022650876Y-0057513264D01*
X-0022641313Y-0057505793D01*
X-0022638604Y-0057504147D01*
X-0022620453Y-0057498507D01*
X-0022598447Y-0057496247D01*
X-0022575738Y-0057497328D01*
X-0022555479Y-0057501711D01*
X-0022546947Y-0057505289D01*
X-0022527717Y-0057518943D01*
X-0022510939Y-0057537314D01*
X-0022499689Y-0057556627D01*
X-0022495621Y-0057572497D01*
X-0022493995Y-0057592489D01*
X-0022494804Y-0057613173D01*
X-0022498038Y-0057631121D01*
X-0022499893Y-0057636489D01*
X-0022504805Y-0057644005D01*
X-0022515448Y-0057656814D01*
X-0022531730Y-0057674815D01*
X-0022553556Y-0057697908D01*
X-0022580835Y-0057725992D01*
X-0022613473Y-0057758967D01*
X-0022613864Y-0057759359D01*
X-0022721687Y-0057867473D01*
X-0022615858Y-0057973774D01*
X-0022584916Y-0058005038D01*
X-0022559409Y-0058031231D01*
X-0022538995Y-0058052725D01*
X-0022523333Y-0058069893D01*
X-0022512080Y-0058083107D01*
X-0022504896Y-0058092739D01*
X-0022501973Y-0058097831D01*
X-0022494904Y-0058122144D01*
X-0022493808Y-0058148731D01*
X-0022498620Y-0058174713D01*
X-0022504024Y-0058188237D01*
X-0022519679Y-0058211452D01*
X-0022540303Y-0058228674D01*
X-0022562926Y-0058238733D01*
X-0022580623Y-0058243114D01*
X-0022595638Y-0058244148D01*
X-0022611644Y-0058241809D01*
X-0022624985Y-0058238271D01*
X-0022630727Y-0058236399D01*
X-0022636361Y-0058233923D01*
X-0022642513Y-0058230295D01*
X-0022649807Y-0058224964D01*
X-0022658867Y-0058217380D01*
X-0022670317Y-0058206995D01*
X-0022684782Y-0058193256D01*
X-0022702886Y-0058175616D01*
X-0022725253Y-0058153524D01*
X-0022752507Y-0058126430D01*
X-0022756674Y-0058122280D01*
X-0022866807Y-0058012589D01*
X-0022976940Y-0058122280D01*
X-0023004916Y-0058150105D01*
X-0023027918Y-0058172853D01*
X-0023046571Y-0058191073D01*
X-0023061500Y-0058205316D01*
X-0023073328Y-0058216130D01*
X-0023082679Y-0058224066D01*
X-0023090179Y-0058229675D01*
X-0023096451Y-0058233505D01*
X-0023102120Y-0058236106D01*
X-0023107810Y-0058238029D01*
X-0023108629Y-0058238271D01*
X-0023127410Y-0058242924D01*
X-0023142701Y-0058244183D01*
X-0023158173Y-0058242078D01*
X-0023170688Y-0058238733D01*
X-0023195345Y-0058227492D01*
X-0023215225Y-0058210402D01*
X-0023229656Y-0058188407D01*
X-0023237966Y-0058162452D01*
X-0023239782Y-0058141598D01*
X-0023239548Y-0058130444D01*
X-0023238597Y-0058120482D01*
X-0023236433Y-0058111030D01*
X-0023232561Y-0058101407D01*
X-0023226487Y-0058090932D01*
X-0023217714Y-0058078924D01*
X-0023205748Y-0058064703D01*
X-0023190094Y-0058047586D01*
X-0023170256Y-0058026895D01*
X-0023145740Y-0058001946D01*
X-0023117756Y-0057973774D01*
X-0023011927Y-0057867473D01*
X-0023119589Y-0057759359D01*
X-0023151989Y-0057726607D01*
X-0023178747Y-0057699078D01*
X-0023200033Y-0057676590D01*
X-0023216016Y-0057658958D01*
X-0023226867Y-0057646000D01*
X-0023232753Y-0057637530D01*
X-0023233560Y-0057635877D01*
X-0023239427Y-0057611956D01*
X-0023239209Y-0057585914D01*
X-0023233352Y-0057560140D01*
X-0023222301Y-0057537024D01*
X-0023212846Y-0057524873D01*
X-0023192656Y-0057509080D01*
X-0023168362Y-0057499030D01*
X-0023141724Y-0057495120D01*
X-0023114506Y-0057497744D01*
G36*
G01**
X-0023104489Y-0057500501D01*
X-0023098602Y-0057502693D01*
X-0023092612Y-0057505668D01*
X-0023085887Y-0057509983D01*
X-0023077796Y-0057516197D01*
X-0023067706Y-0057524868D01*
X-0023054986Y-0057536554D01*
X-0023039003Y-0057551814D01*
X-0023019125Y-0057571204D01*
X-0022994721Y-0057595283D01*
X-0022974957Y-0057614880D01*
X-0022866811Y-0057722233D01*
X-0022760645Y-0057617032D01*
X-0022732077Y-0057588945D01*
X-0022706322Y-0057564069D01*
X-0022683875Y-0057542858D01*
X-0022665228Y-0057525771D01*
X-0022650876Y-0057513264D01*
X-0022641313Y-0057505793D01*
X-0022638604Y-0057504147D01*
X-0022620453Y-0057498507D01*
X-0022598447Y-0057496247D01*
X-0022575738Y-0057497328D01*
X-0022555479Y-0057501711D01*
X-0022546947Y-0057505289D01*
X-0022527717Y-0057518943D01*
X-0022510939Y-0057537314D01*
X-0022499689Y-0057556627D01*
X-0022495621Y-0057572497D01*
X-0022493995Y-0057592489D01*
X-0022494804Y-0057613173D01*
X-0022498038Y-0057631121D01*
X-0022499893Y-0057636489D01*
X-0022504805Y-0057644005D01*
X-0022515448Y-0057656814D01*
X-0022531730Y-0057674815D01*
X-0022553556Y-0057697908D01*
X-0022580835Y-0057725992D01*
X-0022613473Y-0057758967D01*
X-0022613864Y-0057759359D01*
X-0022721687Y-0057867473D01*
X-0022615858Y-0057973774D01*
X-0022584916Y-0058005038D01*
X-0022559409Y-0058031231D01*
X-0022538995Y-0058052725D01*
X-0022523333Y-0058069893D01*
X-0022512080Y-0058083107D01*
X-0022504896Y-0058092739D01*
X-0022501973Y-0058097831D01*
X-0022494904Y-0058122144D01*
X-0022493808Y-0058148731D01*
X-0022498620Y-0058174713D01*
X-0022504024Y-0058188237D01*
X-0022519679Y-0058211452D01*
X-0022540303Y-0058228674D01*
X-0022562926Y-0058238733D01*
X-0022580623Y-0058243114D01*
X-0022595638Y-0058244148D01*
X-0022611644Y-0058241809D01*
X-0022624985Y-0058238271D01*
X-0022630727Y-0058236399D01*
X-0022636361Y-0058233923D01*
X-0022642513Y-0058230295D01*
X-0022649807Y-0058224964D01*
X-0022658867Y-0058217380D01*
X-0022670317Y-0058206995D01*
X-0022684782Y-0058193256D01*
X-0022702886Y-0058175616D01*
X-0022725253Y-0058153524D01*
X-0022752507Y-0058126430D01*
X-0022756674Y-0058122280D01*
X-0022866807Y-0058012589D01*
X-0022976940Y-0058122280D01*
X-0023004916Y-0058150105D01*
X-0023027918Y-0058172853D01*
X-0023046571Y-0058191073D01*
X-0023061500Y-0058205316D01*
X-0023073328Y-0058216130D01*
X-0023082679Y-0058224066D01*
X-0023090179Y-0058229675D01*
X-0023096451Y-0058233505D01*
X-0023102120Y-0058236106D01*
X-0023107810Y-0058238029D01*
X-0023108629Y-0058238271D01*
X-0023127410Y-0058242924D01*
X-0023142701Y-0058244183D01*
X-0023158173Y-0058242078D01*
X-0023170688Y-0058238733D01*
X-0023195345Y-0058227492D01*
X-0023215225Y-0058210402D01*
X-0023229656Y-0058188407D01*
X-0023237966Y-0058162452D01*
X-0023239782Y-0058141598D01*
X-0023239548Y-0058130444D01*
X-0023238597Y-0058120482D01*
X-0023236433Y-0058111030D01*
X-0023232561Y-0058101407D01*
X-0023226487Y-0058090932D01*
X-0023217714Y-0058078924D01*
X-0023205748Y-0058064703D01*
X-0023190094Y-0058047586D01*
X-0023170256Y-0058026895D01*
X-0023145740Y-0058001946D01*
X-0023117756Y-0057973774D01*
X-0023011927Y-0057867473D01*
X-0023119589Y-0057759359D01*
X-0023151989Y-0057726607D01*
X-0023178747Y-0057699078D01*
X-0023200033Y-0057676590D01*
X-0023216016Y-0057658958D01*
X-0023226867Y-0057646000D01*
X-0023232753Y-0057637530D01*
X-0023233560Y-0057635877D01*
X-0023239427Y-0057611956D01*
X-0023239209Y-0057585914D01*
X-0023233352Y-0057560140D01*
X-0023222301Y-0057537024D01*
X-0023212846Y-0057524873D01*
X-0023192656Y-0057509080D01*
X-0023168362Y-0057499030D01*
X-0023141724Y-0057495120D01*
X-0023114506Y-0057497744D01*
G37*
G36*
G01**
X0027554596Y-0050834554D02*
X0027658135Y-0050885171D01*
X0027739628Y-0050966664D01*
X0027790245Y-0051070203D01*
X0027804800Y-0051170099D01*
X0027804800Y-0051369899D01*
X0027790245Y-0051469795D01*
X0027739628Y-0051573334D01*
X0027658135Y-0051654827D01*
X0027554596Y-0051705444D01*
X0027454700Y-0051719999D01*
X0023604900Y-0051719999D01*
X0023505004Y-0051705444D01*
X0023401465Y-0051654827D01*
X0023319972Y-0051573334D01*
X0023269355Y-0051469795D01*
X0023254800Y-0051369899D01*
X0023254800Y-0051170099D01*
X0023269355Y-0051070203D01*
X0023319972Y-0050966664D01*
X0023401465Y-0050885171D01*
X0023505004Y-0050834554D01*
X0023604900Y-0050819999D01*
X0027454700Y-0050819999D01*
X0027554596Y-0050834554D01*
G37*
G36*
G01**
X0028054596Y-0048294554D02*
X0028158135Y-0048345171D01*
X0028239628Y-0048426664D01*
X0028290245Y-0048530203D01*
X0028304800Y-0048630099D01*
X0028304800Y-0048829899D01*
X0028290245Y-0048929795D01*
X0028239628Y-0049033334D01*
X0028158135Y-0049114827D01*
X0028054596Y-0049165444D01*
X0027954700Y-0049179999D01*
X0023604900Y-0049179999D01*
X0023505004Y-0049165444D01*
X0023401465Y-0049114827D01*
X0023319972Y-0049033334D01*
X0023269355Y-0048929795D01*
X0023254800Y-0048829899D01*
X0023254800Y-0048630099D01*
X0023269355Y-0048530203D01*
X0023319972Y-0048426664D01*
X0023401465Y-0048345171D01*
X0023505004Y-0048294554D01*
X0023604900Y-0048279999D01*
X0027954700Y-0048279999D01*
X0028054596Y-0048294554D01*
G37*
G36*
G01**
X0028054596Y-0049564554D02*
X0028158135Y-0049615171D01*
X0028239628Y-0049696664D01*
X0028290245Y-0049800203D01*
X0028304800Y-0049900099D01*
X0028304800Y-0050099899D01*
X0028290245Y-0050199795D01*
X0028239628Y-0050303334D01*
X0028158135Y-0050384827D01*
X0028054596Y-0050435444D01*
X0027954700Y-0050449999D01*
X0023604900Y-0050449999D01*
X0023505004Y-0050435444D01*
X0023401465Y-0050384827D01*
X0023319972Y-0050303334D01*
X0023269355Y-0050199795D01*
X0023254800Y-0050099899D01*
X0023254800Y-0049900099D01*
X0023269355Y-0049800203D01*
X0023319972Y-0049696664D01*
X0023401465Y-0049615171D01*
X0023505004Y-0049564554D01*
X0023604900Y-0049549999D01*
X0027954700Y-0049549999D01*
X0028054596Y-0049564554D01*
G37*
G36*
G01**
X-0023505004Y-0049564554D02*
X-0023401465Y-0049615171D01*
X-0023319972Y-0049696664D01*
X-0023269355Y-0049800203D01*
X-0023254800Y-0049900099D01*
X-0023254800Y-0050099899D01*
X-0023269355Y-0050199795D01*
X-0023319972Y-0050303334D01*
X-0023401465Y-0050384827D01*
X-0023505004Y-0050435444D01*
X-0023604900Y-0050449999D01*
X-0027954700Y-0050449999D01*
X-0028054596Y-0050435444D01*
X-0028158135Y-0050384827D01*
X-0028239628Y-0050303334D01*
X-0028290245Y-0050199795D01*
X-0028304800Y-0050099899D01*
X-0028304800Y-0049900099D01*
X-0028290245Y-0049800203D01*
X-0028239628Y-0049696664D01*
X-0028158135Y-0049615171D01*
X-0028054596Y-0049564554D01*
X-0027954700Y-0049549999D01*
X-0023604900Y-0049549999D01*
X-0023505004Y-0049564554D01*
G37*
G36*
G01**
X-0023505004Y-0050834554D02*
X-0023401465Y-0050885171D01*
X-0023319972Y-0050966664D01*
X-0023269355Y-0051070203D01*
X-0023254800Y-0051170099D01*
X-0023254800Y-0051369899D01*
X-0023269355Y-0051469795D01*
X-0023319972Y-0051573334D01*
X-0023401465Y-0051654827D01*
X-0023505004Y-0051705444D01*
X-0023604900Y-0051719999D01*
X-0027954700Y-0051719999D01*
X-0028054596Y-0051705444D01*
X-0028158135Y-0051654827D01*
X-0028239628Y-0051573334D01*
X-0028290245Y-0051469795D01*
X-0028304800Y-0051369899D01*
X-0028304800Y-0051170099D01*
X-0028290245Y-0051070203D01*
X-0028239628Y-0050966664D01*
X-0028158135Y-0050885171D01*
X-0028054596Y-0050834554D01*
X-0027954700Y-0050819999D01*
X-0023604900Y-0050819999D01*
X-0023505004Y-0050834554D01*
G37*
G36*
G01**
X-0023505004Y-0048294554D02*
X-0023401465Y-0048345171D01*
X-0023319972Y-0048426664D01*
X-0023269355Y-0048530203D01*
X-0023254800Y-0048630099D01*
X-0023254800Y-0048829899D01*
X-0023269355Y-0048929795D01*
X-0023319972Y-0049033334D01*
X-0023401465Y-0049114827D01*
X-0023505004Y-0049165444D01*
X-0023604900Y-0049179999D01*
X-0027454700Y-0049179999D01*
X-0027554596Y-0049165444D01*
X-0027658135Y-0049114827D01*
X-0027739628Y-0049033334D01*
X-0027790245Y-0048929795D01*
X-0027804800Y-0048829899D01*
X-0027804800Y-0048630099D01*
X-0027790245Y-0048530203D01*
X-0027739628Y-0048426664D01*
X-0027658135Y-0048345171D01*
X-0027554596Y-0048294554D01*
X-0027454700Y-0048279999D01*
X-0023604900Y-0048279999D01*
X-0023505004Y-0048294554D01*
G37*
M02*