%TF.GenerationSoftware,KiCad,Pcbnew,8.0.8*%
%TF.CreationDate,2025-02-10T21:29:40+00:00*%
%TF.ProjectId,ec30_4x6_jacplane_0.1,65633330-5f34-4783-965f-6a6163706c61,0.1*%
%TF.SameCoordinates,PX8b3c880PY623a7c0*%
%TF.FileFunction,Copper,L4,Bot*%
%TF.FilePolarity,Positive*%
%FSLAX46Y46*%
G04 Gerber Fmt 4.6, Leading zero omitted, Abs format (unit mm)*
G04 Created by KiCad (PCBNEW 8.0.8) date 2025-02-10 21:29:40*
%MOMM*%
%LPD*%
G01*
G04 APERTURE LIST*
%TA.AperFunction,ViaPad*%
%ADD10C,0.600000*%
%TD*%
%TA.AperFunction,Conductor*%
%ADD11C,0.500000*%
%TD*%
%TA.AperFunction,Conductor*%
%ADD12C,0.200000*%
%TD*%
G04 APERTURE END LIST*
D10*
%TO.N,JD_PWR*%
X-7600000Y-1131130D03*
X1131120Y-2399980D03*
X-8868890Y17600020D03*
X12400000Y18868870D03*
X-8868890Y-2399980D03*
X11131120Y7600020D03*
X11131120Y17600020D03*
X-17471360Y-11131130D03*
X1766390Y28500010D03*
X12400000Y-11131130D03*
X11131120Y-22399980D03*
X-18481360Y-1131130D03*
X-17471360Y18868870D03*
X1131120Y-22399980D03*
X1150000Y27592080D03*
X-8868890Y7591400D03*
X2400000Y-1131130D03*
X-8233610Y28500010D03*
X-8868890Y20300000D03*
X12400000Y8868870D03*
X12400000Y-1131130D03*
X1131120Y7600020D03*
X-17471360Y-21131130D03*
X-8868890Y-22399980D03*
X-7600000Y-21131130D03*
X11131120Y-12399980D03*
X-7600000Y-11131130D03*
X-17471360Y8868870D03*
X11131120Y-2399980D03*
X-17471360Y-1131130D03*
X-18481360Y8868870D03*
X2400000Y18868870D03*
X2400000Y8868870D03*
X-10300000Y18900000D03*
X-7600000Y18868870D03*
X-8850000Y27592080D03*
X-18481360Y-21131130D03*
X-8868890Y-12399980D03*
X-18481360Y-11131130D03*
X-18481360Y18868870D03*
X2400000Y-21131130D03*
X1131120Y-12399980D03*
X-7600000Y8868870D03*
X11766390Y28500010D03*
X1131120Y17600020D03*
X2400000Y-11131130D03*
X11150000Y27592080D03*
X12400000Y-21131130D03*
%TO.N,JD_DATA*%
X400000Y-21854200D03*
X1854190Y9600000D03*
X-9600000Y9600000D03*
X400000Y-11854190D03*
X-17976360Y9600000D03*
X-9600000Y8145800D03*
X10400000Y-20400000D03*
X10400000Y-21854200D03*
X-17976360Y-10400000D03*
X-9600000Y-20400000D03*
X-8145810Y19600000D03*
X-8145810Y9600000D03*
X400000Y9600000D03*
X-9600000Y-11854190D03*
X400000Y-10400000D03*
X1854190Y-10400000D03*
X-17976360Y-20400000D03*
X10400000Y-10400000D03*
X-8145810Y-400000D03*
X400000Y18145800D03*
X10400000Y19600000D03*
X400000Y-20400000D03*
X10400000Y28211290D03*
X-9600000Y-10400000D03*
X400000Y-400000D03*
X1854190Y19600000D03*
X-9600000Y-400000D03*
X10400000Y-1854200D03*
X-17976360Y19600000D03*
X-17976360Y-400000D03*
X-8145810Y-20400000D03*
X10400000Y9600000D03*
X400000Y19600000D03*
X400000Y-1854200D03*
X-9600000Y18145800D03*
X1854190Y-400000D03*
X10400000Y-11854190D03*
X1854190Y-20400000D03*
X10400000Y-400000D03*
X400000Y28211290D03*
X-9600000Y19600000D03*
X-9600000Y-1854200D03*
X10400000Y8145800D03*
X-8145810Y-10400000D03*
X-9600000Y-21854200D03*
X400000Y8145800D03*
X-9600000Y28211290D03*
X10400000Y18145800D03*
%TD*%
D11*
%TO.N,JD_PWR*%
X1133550Y-11131020D02*
X2400000Y-11130600D01*
X-8866450Y18865670D02*
X-8865210Y17600020D01*
X-8866450Y-11134330D02*
X-7600000Y-11133910D01*
X-8868890Y7591400D02*
X-8856650Y7603630D01*
X1133550Y-21131020D02*
X2400000Y-21130600D01*
X2400000Y-11130600D02*
X11133550Y-11127710D01*
X-8830870Y27875690D02*
X-8233610Y28472950D01*
X-17449750Y18884430D02*
X-10315560Y18884430D01*
X1133550Y-11131020D02*
X1134790Y-12399970D01*
X11133550Y-11127710D02*
X12400000Y-11127290D01*
X-8830870Y27611210D02*
X-8830870Y27875690D01*
X-8866450Y-21134330D02*
X-7600000Y-21133910D01*
X-8866450Y18865670D02*
X-7600000Y18866090D01*
X1133550Y-1131020D02*
X1134790Y-2399980D01*
X-7600000Y18866090D02*
X1133550Y18868980D01*
X11162940Y-11134340D02*
X11172730Y-21134340D01*
X-7600000Y-11133910D02*
X1133550Y-11131020D01*
X-8835820Y-12399950D02*
X-8827270Y-21134340D01*
X11125010Y27592050D02*
X11133550Y18872290D01*
X11153140Y-1134340D02*
X11162940Y-11134340D01*
X-10280870Y18880860D02*
X-9588740Y18880860D01*
X-8868890Y3226010D02*
X-8868890Y7591400D01*
X-8865210Y17600020D02*
X-8856650Y8865650D01*
X-10300000Y18900000D02*
X-10280870Y18880860D01*
X1134790Y17600020D02*
X1143350Y8865650D01*
X11169130Y27875690D02*
X11766390Y28472950D01*
X2400000Y-21130600D02*
X11133550Y-21127710D01*
X11133550Y-11127710D02*
X11134790Y-12399970D01*
X-17592030Y-21137210D02*
X-8866450Y-21134330D01*
X-18481360Y-21131130D02*
X-17471360Y-21131130D01*
X11133550Y18872290D02*
X12400000Y18872710D01*
X11133550Y-21127710D02*
X12400000Y-21127290D01*
X2400000Y18869400D02*
X11133550Y18872290D01*
X-8868890Y20300000D02*
X-8866450Y20297560D01*
X2400000Y-1130600D02*
X11133550Y-1127710D01*
X11133550Y18872290D02*
X11134790Y17600020D01*
X1133550Y-21131020D02*
X1134790Y-22399980D01*
X11133550Y8872290D02*
X12400000Y8872710D01*
X1133550Y-1131020D02*
X2400000Y-1130600D01*
X-17592030Y8862780D02*
X-8866450Y8865670D01*
X-8866450Y27575630D02*
X-8859440Y27568620D01*
X1162940Y-11134340D02*
X1172730Y-21134340D01*
X11133550Y-1127710D02*
X11134790Y-2399980D01*
X1150000Y27592080D02*
X1169130Y27611210D01*
X2400000Y8869400D02*
X11133550Y8872290D01*
X-8856650Y7603630D02*
X-8856650Y8865650D01*
X-8859440Y20309440D02*
X-8859440Y27568620D01*
X11133550Y-21127710D02*
X11134790Y-22399980D01*
X-9588740Y18880860D02*
X-9573550Y18865670D01*
X1766390Y28472950D02*
X1766390Y28500010D01*
X-8866450Y-1134330D02*
X-7600000Y-1133910D01*
X-7600000Y-1133910D02*
X1133550Y-1131020D01*
X-8233610Y28472950D02*
X-8233610Y28500010D01*
X-8866450Y-21134330D02*
X-8865210Y-22399980D01*
X1144590Y7600020D02*
X1153140Y-1134340D01*
X1133550Y18868980D02*
X2400000Y18869400D01*
X-8850000Y27592080D02*
X-8830870Y27611210D01*
X11766390Y28472950D02*
X11766390Y28500010D01*
X11133550Y-1127710D02*
X12400000Y-1127290D01*
X1133550Y18868980D02*
X1134790Y17600020D01*
X11150000Y27592080D02*
X11169130Y27611210D01*
X-7600000Y-21133910D02*
X1133550Y-21131020D01*
X-18481360Y8868870D02*
X-17471360Y8868870D01*
X-7600000Y8866090D02*
X1133550Y8868980D01*
X1169130Y27875690D02*
X1766390Y28472950D01*
X1169130Y27611210D02*
X1169130Y27875690D01*
X-8846860Y-1134340D02*
X-8846860Y3203980D01*
X11169130Y27611210D02*
X11169130Y27875690D01*
X11144590Y7600020D02*
X11153140Y-1134340D01*
X-8868890Y20300000D02*
X-8859440Y20309440D01*
X-8845620Y-2399960D02*
X-8837060Y-11134340D01*
X-18481360Y-1131130D02*
X-17471360Y-1131130D01*
X1125010Y27592050D02*
X1133550Y18868980D01*
X1153140Y-1134340D02*
X1162940Y-11134340D01*
X1133550Y8868980D02*
X2400000Y8869400D01*
X-18481360Y-11131130D02*
X-17471360Y-11131130D01*
X-8866450Y8865670D02*
X-7600000Y8866090D01*
X-17592030Y-11137210D02*
X-8866450Y-11134330D01*
X-8866450Y18865670D02*
X-8866450Y20297560D01*
X1133550Y8868980D02*
X1134790Y7600020D01*
X-9573550Y18865670D02*
X-8866450Y18865670D01*
X-18481360Y18868870D02*
X-17471360Y18868870D01*
X-8846860Y-1134340D02*
X-8845620Y-2399960D01*
X-17471350Y18862830D02*
X-17449750Y18884430D01*
X-10315560Y18884430D02*
X-10300000Y18900000D01*
X-8868890Y3226010D02*
X-8846860Y3203980D01*
X-17592030Y-1137220D02*
X-8866450Y-1134330D01*
X11133550Y8872290D02*
X11134790Y7600020D01*
X11134790Y17600020D02*
X11143350Y8865650D01*
X-8837060Y-11134340D02*
X-8835820Y-12399950D01*
D12*
%TO.N,JD_DATA*%
X400000Y-10400000D02*
X400000Y-1854200D01*
X-8145810Y-10400000D02*
X400000Y-10400000D01*
X-9600000Y-20400000D02*
X-9600000Y-11854190D01*
X400000Y-20400000D02*
X400000Y-11854190D01*
X1854190Y19600000D02*
X10400000Y19600000D01*
X400000Y9600000D02*
X400000Y18145800D01*
X-17976360Y19600000D02*
X-9600000Y19600000D01*
X-9600000Y-400000D02*
X-9600000Y8145800D01*
X10400000Y-20400000D02*
X10400000Y-11854190D01*
X400000Y-400000D02*
X400000Y8145800D01*
X-8145810Y-400000D02*
X400000Y-400000D01*
X-17976360Y9600000D02*
X-9600000Y9600000D01*
X10400000Y9600000D02*
X10400000Y18145800D01*
X1854190Y-20400000D02*
X10400000Y-20400000D01*
X-9600000Y-10400000D02*
X-9600000Y-1854200D01*
X-17976360Y-400000D02*
X-9600000Y-400000D01*
X10400000Y-10400000D02*
X10400000Y-1854200D01*
X400000Y19600000D02*
X400000Y28211290D01*
X1854190Y9600000D02*
X10400000Y9600000D01*
X1854190Y-10400000D02*
X10400000Y-10400000D01*
X-9600000Y9600000D02*
X-9600000Y18145800D01*
X-8145810Y19600000D02*
X400000Y19600000D01*
X-8145810Y-20400000D02*
X400000Y-20400000D01*
X-9600000Y19600000D02*
X-9600000Y28211290D01*
X-17976360Y-10400000D02*
X-9600000Y-10400000D01*
X10400000Y19600000D02*
X10400000Y28211290D01*
X1854190Y-400000D02*
X10400000Y-400000D01*
X-8145810Y9600000D02*
X400000Y9600000D01*
X10400000Y-400000D02*
X10400000Y8145800D01*
X-17976360Y-20400000D02*
X-9600000Y-20400000D01*
%TD*%
M02*
