%TF.GenerationSoftware,KiCad,Pcbnew,9.0.5*%
%TF.CreationDate,2025-10-14T17:21:27+01:00*%
%TF.ProjectId,vm_pogodaptor,766d5f70-6f67-46f6-9461-70746f722e6b,0.1*%
%TF.SameCoordinates,Original*%
%TF.FileFunction,Other,User*%
%FSLAX45Y45*%
G04 Gerber Fmt 4.5, Leading zero omitted, Abs format (unit mm)*
G04 Created by KiCad (PCBNEW 9.0.5) date 2025-10-14 17:21:27*
%MOMM*%
%LPD*%
G01*
G04 APERTURE LIST*
%ADD10C,0.100000*%
%ADD11C,0.009990*%
%ADD12C,0.010830*%
%ADD13C,0.020680*%
%ADD14C,0.030650*%
%ADD15C,0.010430*%
%ADD16C,0.020510*%
%ADD17C,0.030860*%
%ADD18C,0.040510*%
%ADD19C,0.010770*%
%ADD20C,0.020730*%
%ADD21C,0.030830*%
%ADD22C,0.040790*%
%ADD23C,0.010670*%
%ADD24C,0.020830*%
%ADD25C,0.031260*%
%ADD26C,0.040490*%
%ADD27C,0.020670*%
%ADD28C,0.030760*%
%ADD29C,0.010710*%
%ADD30C,0.020780*%
%ADD31C,0.030680*%
%ADD32C,0.040500*%
%ADD33C,0.030750*%
%ADD34C,0.020790*%
%ADD35C,0.040730*%
G04 APERTURE END LIST*
D10*
X-2700000Y600000D02*
X2700000Y600000D01*
X2700000Y-600000D01*
X-2700000Y-600000D01*
X-2700000Y600000D01*
D11*
%TO.C,GS2*%
X-1700000Y-600000D02*
X-1700000Y-600000D01*
D12*
X-1700000Y-600000D02*
X-1700000Y-600000D01*
D13*
X-1700000Y-600000D02*
X-1700000Y-600000D01*
D14*
X-1700000Y-600000D02*
X-1700000Y-600000D01*
D11*
%TO.C,GS4*%
X-1100000Y-600000D02*
X-1100000Y-600000D01*
D15*
X-1100000Y-600000D02*
X-1100000Y-600000D01*
D16*
X-1100000Y-600000D02*
X-1100000Y-600000D01*
D17*
X-1100000Y-600000D02*
X-1100000Y-600000D01*
D18*
X-1100000Y-600000D02*
X-1100000Y-600000D01*
D11*
%TO.C,GS7*%
X-300000Y-600000D02*
X-300000Y-600000D01*
D19*
X-300000Y-600000D02*
X-300000Y-600000D01*
D20*
X-300000Y-600000D02*
X-300000Y-600000D01*
D21*
X-300000Y-600000D02*
X-300000Y-600000D01*
D22*
X-300000Y-600000D02*
X-300000Y-600000D01*
D11*
%TO.C,GS5*%
X-500000Y-600000D02*
X-500000Y-600000D01*
D23*
X-500000Y-600000D02*
X-500000Y-600000D01*
D24*
X-500000Y-600000D02*
X-500000Y-600000D01*
D25*
X-500000Y-600000D02*
X-500000Y-600000D01*
D26*
X-500000Y-600000D02*
X-500000Y-600000D01*
D11*
%TO.C,GS3*%
X-1500000Y-600000D02*
X-1500000Y-600000D01*
D12*
X-1500000Y-600000D02*
X-1500000Y-600000D01*
D27*
X-1500000Y-600000D02*
X-1500000Y-600000D01*
D28*
X-1500000Y-600000D02*
X-1500000Y-600000D01*
D11*
%TO.C,GS1*%
X-2100000Y-600000D02*
X-2100000Y-600000D01*
D29*
X-2100000Y-600000D02*
X-2100000Y-600000D01*
D30*
X-2100000Y-600000D02*
X-2100000Y-600000D01*
D31*
X-2100000Y-600000D02*
X-2100000Y-600000D01*
D11*
%TO.C,GS9*%
X2200000Y-600000D02*
X2200000Y-600000D01*
D23*
X2200000Y-600000D02*
X2200000Y-600000D01*
D24*
X2200000Y-600000D02*
X2200000Y-600000D01*
D25*
X2200000Y-600000D02*
X2200000Y-600000D01*
D32*
X2200000Y-600000D02*
X2200000Y-600000D01*
D11*
%TO.C,GS8*%
X100000Y-600000D02*
X100000Y-600000D01*
D12*
X100000Y-600000D02*
X100000Y-600000D01*
D27*
X100000Y-600000D02*
X100000Y-600000D01*
D33*
X100000Y-600000D02*
X100000Y-600000D01*
D11*
%TO.C,GS6*%
X-100000Y-600000D02*
X-100000Y-600000D01*
D19*
X-100000Y-600000D02*
X-100000Y-600000D01*
D34*
X-100000Y-600000D02*
X-100000Y-600000D01*
D21*
X-100000Y-600000D02*
X-100000Y-600000D01*
D35*
X-100000Y-600000D02*
X-100000Y-600000D01*
%TD*%
M02*
