%TF.GenerationSoftware,KiCad,Pcbnew,9.0.5*%
%TF.CreationDate,2025-10-14T17:21:27+01:00*%
%TF.ProjectId,vm_pogodaptor,766d5f70-6f67-46f6-9461-70746f722e6b,0.1*%
%TF.SameCoordinates,Original*%
%TF.FileFunction,Copper,L1,Top*%
%TF.FilePolarity,Positive*%
%FSLAX45Y45*%
G04 Gerber Fmt 4.5, Leading zero omitted, Abs format (unit mm)*
G04 Created by KiCad (PCBNEW 9.0.5) date 2025-10-14 17:21:27*
%MOMM*%
%LPD*%
G01*
G04 APERTURE LIST*
%TA.AperFunction,SMDPad,CuDef*%
%ADD10C,0.125000*%
%TD*%
%TA.AperFunction,SMDPad,CuDef*%
%ADD11C,2.300000*%
%TD*%
%TA.AperFunction,SMDPad,CuDef*%
%ADD12C,1.400000*%
%TD*%
%TA.AperFunction,ComponentPad*%
%ADD13C,9.370000*%
%TD*%
%TA.AperFunction,Conductor*%
%ADD14C,0.200000*%
%TD*%
G04 APERTURE END LIST*
D10*
%TO.P,GS2,1,SDA*%
%TO.N,Net-(GS2-SDA)*%
X-1700000Y-600000D03*
%TD*%
D11*
%TO.P,TP3,1*%
%TO.N,Net-(GS4-+3V3)*%
X-1140000Y-420000D03*
%TD*%
D10*
%TO.P,GS4,1,+3V3*%
%TO.N,Net-(GS4-+3V3)*%
X-1100000Y-600000D03*
%TD*%
%TO.P,GS7,1,MISO*%
%TO.N,Net-(GS7-MISO)*%
X-300000Y-600000D03*
%TD*%
D11*
%TO.P,TP5,1*%
%TO.N,Net-(GS6-MOSI)*%
X-440427Y-194817D03*
%TD*%
D10*
%TO.P,GS5,1,CS~1*%
%TO.N,Net-(GS5-CS~1)*%
X-500000Y-600000D03*
%TD*%
D11*
%TO.P,TP4,1*%
%TO.N,Net-(GS5-CS~1)*%
X-570000Y-420000D03*
%TD*%
%TO.P,TP6,1*%
%TO.N,Net-(GS7-MISO)*%
X-310000Y-420000D03*
%TD*%
D10*
%TO.P,GS3,1,SCL*%
%TO.N,Net-(GS3-SCL)*%
X-1500000Y-600000D03*
%TD*%
D12*
%TO.P,CN2,*%
%TO.N,*%
X1769000Y100000D03*
X1798687Y249246D03*
X1798687Y-49246D03*
X1883228Y375772D03*
X1883228Y-175772D03*
X2009753Y460313D03*
X2009753Y-260313D03*
X2159000Y490000D03*
X2159000Y-290000D03*
X2308247Y460313D03*
X2308247Y-260313D03*
X2434772Y375772D03*
X2434772Y-175772D03*
X2519313Y249246D03*
X2519313Y-49246D03*
X2549000Y100000D03*
D13*
%TO.P,CN2,1*%
%TO.N,Net-(GS9-CS~2)*%
X2159000Y100000D03*
%TD*%
D10*
%TO.P,GS1,1,GND*%
%TO.N,Net-(GS1-GND)*%
X-2100000Y-600000D03*
%TD*%
D11*
%TO.P,TP7,1*%
%TO.N,Net-(GS8-SCK)*%
X10000Y-420000D03*
%TD*%
D12*
%TO.P,CN1,*%
%TO.N,*%
X-2549000Y100000D03*
X-2519313Y249246D03*
X-2519313Y-49246D03*
X-2434772Y375772D03*
X-2434772Y-175772D03*
X-2308247Y460313D03*
X-2308247Y-260313D03*
X-2159000Y490000D03*
X-2159000Y-290000D03*
X-2009753Y460313D03*
X-2009753Y-260313D03*
X-1883228Y375772D03*
X-1883228Y-175772D03*
X-1798687Y249246D03*
X-1798687Y-49246D03*
X-1769000Y100000D03*
D13*
%TO.P,CN1,1*%
%TO.N,Net-(GS1-GND)*%
X-2159000Y100000D03*
%TD*%
D11*
%TO.P,TP2,1*%
%TO.N,Net-(GS3-SCL)*%
X-1585427Y-194817D03*
%TD*%
%TO.P,TP1,1*%
%TO.N,Net-(GS2-SDA)*%
X-1715000Y-420000D03*
%TD*%
D10*
%TO.P,GS9,1,CS~2*%
%TO.N,Net-(GS9-CS~2)*%
X2200000Y-600000D03*
%TD*%
%TO.P,GS8,1,SCK*%
%TO.N,Net-(GS8-SCK)*%
X100000Y-600000D03*
%TD*%
%TO.P,GS6,1,MOSI*%
%TO.N,Net-(GS6-MOSI)*%
X-100000Y-600000D03*
%TD*%
D14*
%TO.N,Net-(GS1-GND)*%
X-2100000Y-600000D02*
X-2100000Y41000D01*
X-2100000Y41000D02*
X-2159000Y100000D01*
%TO.N,Net-(GS9-CS~2)*%
X2200000Y59000D02*
X2200000Y-600000D01*
X2159000Y100000D02*
X2200000Y59000D01*
%TO.N,Net-(GS2-SDA)*%
X-1700000Y-435000D02*
X-1715000Y-420000D01*
X-1700000Y-600000D02*
X-1700000Y-435000D01*
%TO.N,Net-(GS3-SCL)*%
X-1500000Y-600000D02*
X-1500000Y-280244D01*
X-1500000Y-280244D02*
X-1585427Y-194817D01*
%TO.N,Net-(GS4-+3V3)*%
X-1100000Y-460000D02*
X-1140000Y-420000D01*
X-1100000Y-600000D02*
X-1100000Y-460000D01*
%TO.N,Net-(GS5-CS~1)*%
X-500000Y-600000D02*
X-500000Y-490000D01*
X-500000Y-490000D02*
X-570000Y-420000D01*
%TO.N,Net-(GS6-MOSI)*%
X-329981Y-194817D02*
X-440427Y-194817D01*
X-136350Y-488650D02*
X-136350Y-388448D01*
X-100000Y-600000D02*
X-100000Y-525000D01*
X-136350Y-388448D02*
X-329981Y-194817D01*
X-100000Y-525000D02*
X-136350Y-488650D01*
%TO.N,Net-(GS7-MISO)*%
X-300000Y-430000D02*
X-310000Y-420000D01*
X-300000Y-600000D02*
X-300000Y-430000D01*
%TO.N,Net-(GS8-SCK)*%
X100000Y-600000D02*
X100000Y-510000D01*
X100000Y-510000D02*
X10000Y-420000D01*
%TD*%
M02*
