%TF.GenerationSoftware,KiCad,Pcbnew,8.0.2-1*%
%TF.CreationDate,2024-12-19T17:28:35+00:00*%
%TF.ProjectId,jacdac-slider-MH-0.1,6a616364-6163-42d7-936c-696465722d4d,v0.1*%
%TF.SameCoordinates,PX8d24d00PY36d6160*%
%TF.FileFunction,Legend,Bot*%
%TF.FilePolarity,Positive*%
%FSLAX46Y46*%
G04 Gerber Fmt 4.6, Leading zero omitted, Abs format (unit mm)*
G04 Created by KiCad (PCBNEW 8.0.2-1) date 2024-12-19 17:28:35*
%MOMM*%
%LPD*%
G01*
G04 APERTURE LIST*
%ADD10C,0.200000*%
%ADD11C,0.000000*%
%ADD12C,0.099999*%
%ADD13C,0.999999*%
%ADD14C,0.329999*%
%ADD15C,0.199999*%
G04 APERTURE END LIST*
D10*
%TO.C,MH3*%
X22550000Y8200001D02*
X23200000Y7550001D01*
X23150000Y8150001D02*
X22600000Y7600001D01*
D11*
G36*
X21667556Y9107075D02*
G01*
X21667556Y9107075D01*
G75*
G02*
X22536889Y9340012I434644J116425D01*
G01*
X22536889Y9340012D01*
G75*
G03*
X22727510Y8843157I2463111J659988D01*
G01*
X22727510Y8843157D01*
G75*
G02*
X22663686Y8701042I-89110J-45357D01*
G01*
X22663686Y8701042D01*
G75*
G03*
X22115294Y8252503I215014J-822342D01*
G01*
X22115294Y8252503D01*
G75*
G02*
X22027307Y8249117I-44894J21997D01*
G01*
X22027307Y8249117D01*
G75*
G02*
X21667556Y9107075I2972693J1750883D01*
G01*
X21667556Y9107075D01*
G37*
G36*
X23843156Y7727511D02*
G01*
X23843156Y7727511D01*
G75*
G03*
X24340011Y7536890I1156844J2272489D01*
G01*
X24340011Y7536890D01*
G75*
G02*
X24107074Y6667557I-116511J-434690D01*
G01*
X24107074Y6667557D01*
G75*
G02*
X23249116Y7027308I892926J3332443D01*
G01*
X23249116Y7027308D01*
G75*
G02*
X23252502Y7115295I25384J43092D01*
G01*
X23252502Y7115295D01*
G75*
G03*
X23701041Y7663687I-373802J763405D01*
G01*
X23701041Y7663687D01*
G75*
G02*
X23843156Y7727511I96759J-25287D01*
G01*
X23843156Y7727511D01*
G37*
%TO.C,MH4*%
G36*
X23082632Y-7501689D02*
G01*
X23082632Y-7501689D01*
G75*
G02*
X23259409Y-7678466I88388J-88513D01*
G01*
X22671003Y-8266872D01*
G75*
G02*
X22494226Y-8090095I-88389J88513D01*
G01*
X23082632Y-7501689D01*
G37*
G36*
X22025445Y-8254717D02*
G01*
X22025445Y-8254717D01*
G75*
G02*
X22113432Y-8258103I43055J-25383D01*
G01*
X22113432Y-8258103D01*
G75*
G03*
X22661824Y-8706642I763368J373803D01*
G01*
X22661824Y-8706642D01*
G75*
G02*
X22725648Y-8848757I-25324J-96758D01*
G01*
X22725648Y-8848757D01*
G75*
G03*
X22535027Y-9345612I2272552J-1156843D01*
G01*
X22535027Y-9345612D01*
G75*
G02*
X21665694Y-9112675I-434627J116512D01*
G01*
X21665694Y-9112675D01*
G75*
G02*
X22025445Y-8254717I3332406J-892925D01*
G01*
X22025445Y-8254717D01*
G37*
G36*
X24105212Y-6673157D02*
G01*
X24105212Y-6673157D01*
G75*
G02*
X24338149Y-7542490I116488J-434643D01*
G01*
X24338149Y-7542490D01*
G75*
G03*
X23841294Y-7733111I659951J-2463110D01*
G01*
X23841294Y-7733111D01*
G75*
G02*
X23699179Y-7669287I-45394J89111D01*
G01*
X23699179Y-7669287D01*
G75*
G03*
X23250640Y-7120895I-822379J-215013D01*
G01*
X23250640Y-7120895D01*
G75*
G02*
X23247254Y-7032908I21960J44895D01*
G01*
X23247254Y-7032908D01*
G75*
G02*
X24105212Y-6673157I1750846J-2972692D01*
G01*
X24105212Y-6673157D01*
G37*
%TO.C,MH2*%
G36*
X-23266873Y-7671002D02*
G01*
X-23266873Y-7671002D01*
G75*
G02*
X-23090096Y-7494225I88373J88402D01*
G01*
X-22501690Y-8082631D01*
G75*
G02*
X-22678467Y-8259408I-88410J-88369D01*
G01*
X-23266873Y-7671002D01*
G37*
G36*
X-24112676Y-6665693D02*
G01*
X-24112676Y-6665693D01*
G75*
G02*
X-23254718Y-7025444I-892924J-3332407D01*
G01*
X-23254718Y-7025444D01*
G75*
G02*
X-23258104Y-7113431I-25382J-43056D01*
G01*
X-23258104Y-7113431D01*
G75*
G03*
X-23706643Y-7661823I373804J-763369D01*
G01*
X-23706643Y-7661823D01*
G75*
G02*
X-23848758Y-7725647I-96757J25323D01*
G01*
X-23848758Y-7725647D01*
G75*
G03*
X-24345613Y-7535026I-1156842J-2272553D01*
G01*
X-24345613Y-7535026D01*
G75*
G02*
X-24112676Y-6665693I116513J434626D01*
G01*
X-24112676Y-6665693D01*
G37*
G36*
X-22120896Y-8250639D02*
G01*
X-22120896Y-8250639D01*
G75*
G02*
X-22032909Y-8247253I44896J-21961D01*
G01*
X-22032909Y-8247253D01*
G75*
G02*
X-21673158Y-9105211I-2972691J-1750847D01*
G01*
X-21673158Y-9105211D01*
G75*
G02*
X-22542491Y-9338148I-434642J-116489D01*
G01*
X-22542491Y-9338148D01*
G75*
G03*
X-22733112Y-8841293I-2463109J-659952D01*
G01*
X-22733112Y-8841293D01*
G75*
G02*
X-22669288Y-8699178I89112J45393D01*
G01*
X-22669288Y-8699178D01*
G75*
G03*
X-22120896Y-8250639I-215012J822378D01*
G01*
X-22120896Y-8250639D01*
G37*
D12*
%TO.C,MH1*%
X-24878998Y7027722D02*
X-24878247Y7005322D01*
X-24878633Y7049966D02*
X-24878998Y7027722D01*
X-24878247Y7005322D02*
X-24876361Y6982800D01*
X-24877173Y7072023D02*
X-24878633Y7049966D01*
X-24876361Y6982800D02*
X-24873315Y6960190D01*
X-24874643Y7093857D02*
X-24877173Y7072023D01*
X-24873315Y6960190D02*
X-24869090Y6937523D01*
X-24871060Y7115437D02*
X-24874643Y7093857D01*
X-24869090Y6937523D02*
X-24869090Y6937523D01*
X-24869090Y6937523D02*
X-24863733Y6915098D01*
X-24866449Y7136728D02*
X-24871060Y7115437D01*
X-24863733Y6915098D02*
X-24857319Y6893203D01*
X-24860831Y7157699D02*
X-24866449Y7136728D01*
X-24857319Y6893203D02*
X-24849885Y6871861D01*
X-24854224Y7178316D02*
X-24860831Y7157699D01*
X-24849885Y6871861D02*
X-24841460Y6851092D01*
X-24846653Y7198543D02*
X-24854224Y7178316D01*
X-24841460Y6851092D02*
X-24832080Y6830917D01*
X-24838135Y7218350D02*
X-24846653Y7198543D01*
X-24832080Y6830917D02*
X-24821779Y6811363D01*
X-24828698Y7237705D02*
X-24838135Y7218350D01*
X-24821779Y6811363D02*
X-24810587Y6792444D01*
X-24818358Y7256572D02*
X-24828698Y7237705D01*
X-24810587Y6792444D02*
X-24798540Y6774186D01*
X-24807139Y7274919D02*
X-24818358Y7256572D01*
X-24798540Y6774186D02*
X-24785667Y6756611D01*
X-24795061Y7292712D02*
X-24807139Y7274919D01*
X-24785667Y6756611D02*
X-24772005Y6739737D01*
X-24782145Y7309918D02*
X-24795061Y7292712D01*
X-24772005Y6739737D02*
X-24757588Y6723590D01*
X-24768415Y7326504D02*
X-24782145Y7309918D01*
X-24757588Y6723590D02*
X-24742443Y6708189D01*
X-24753889Y7342439D02*
X-24768415Y7326504D01*
X-24742443Y6708189D02*
X-24726608Y6693556D01*
X-24738592Y7357686D02*
X-24753889Y7342439D01*
X-24726608Y6693556D02*
X-24710114Y6679712D01*
X-24722543Y7372216D02*
X-24738592Y7357686D01*
X-24710114Y6679712D02*
X-24692995Y6666682D01*
X-24705763Y7385991D02*
X-24722543Y7372216D01*
X-24692995Y6666682D02*
X-24675285Y6654483D01*
X-24688275Y7398983D02*
X-24705763Y7385991D01*
X-24675285Y6654483D02*
X-24657014Y6643141D01*
X-24670099Y7411155D02*
X-24688275Y7398983D01*
X-24657014Y6643141D02*
X-24638219Y6632672D01*
X-24651258Y7422475D02*
X-24670099Y7411155D01*
X-24638219Y6632672D02*
X-24618930Y6623103D01*
X-24631771Y7432909D02*
X-24651258Y7422475D01*
X-24618930Y6623103D02*
X-24599179Y6614453D01*
X-24611660Y7442425D02*
X-24631771Y7432909D01*
X-24599179Y6614453D02*
X-24579003Y6606744D01*
X-24590951Y7450989D02*
X-24611660Y7442425D01*
X-24579003Y6606744D02*
X-24558432Y6599999D01*
X-24569658Y7458569D02*
X-24590951Y7450989D01*
X-24558432Y6599999D02*
X-24537501Y6594236D01*
X-24547807Y7465132D02*
X-24569658Y7458569D01*
X-24537501Y6594236D02*
X-24516241Y6589480D01*
X-24525420Y7470643D02*
X-24547807Y7465132D01*
X-24525420Y7470643D02*
X-24459791Y7483592D01*
X-24516241Y6589480D02*
X-24494687Y6585752D01*
X-24494687Y6585752D02*
X-24472870Y6583073D01*
X-24472870Y6583073D02*
X-24450823Y6581465D01*
X-24459791Y7483592D02*
X-24394557Y7498250D01*
X-24450823Y6581465D02*
X-24428583Y6580950D01*
X-24428583Y6580950D02*
X-24406177Y6581547D01*
D13*
X-24416319Y7033242D02*
X-24380002Y7040496D01*
D12*
X-24406177Y6581547D02*
X-24383645Y6583282D01*
X-24394557Y7498250D02*
X-24329753Y7514607D01*
X-24383645Y6583282D02*
X-24361014Y6586172D01*
D13*
X-24380002Y7040496D02*
X-24343777Y7048199D01*
D12*
X-24361014Y6586172D02*
X-24338318Y6590242D01*
X-24360218Y6585942D02*
X-24233302Y6611827D01*
D13*
X-24343777Y7048199D02*
X-24307650Y7056347D01*
D12*
X-24329753Y7514607D02*
X-24265410Y7532654D01*
D13*
X-24307650Y7056347D02*
X-24271627Y7064941D01*
D12*
X-24265410Y7532654D02*
X-24201563Y7552381D01*
X-24233302Y6611827D02*
X-24107577Y6642423D01*
X-24201563Y7552381D02*
X-24138243Y7573778D01*
X-24138243Y7573778D02*
X-24075483Y7596835D01*
D14*
X-24115498Y7276554D02*
X-24114381Y7251748D01*
X-24114943Y7301429D02*
X-24115498Y7276554D01*
X-24114381Y7251748D02*
X-24111612Y7227098D01*
X-24112712Y7326288D02*
X-24114943Y7301429D01*
X-24111612Y7227098D02*
X-24107196Y7202688D01*
X-24108785Y7351043D02*
X-24112712Y7326288D01*
D12*
X-24107577Y6642423D02*
X-23983175Y6677686D01*
D14*
X-24107196Y7202688D02*
X-24101151Y7178604D01*
X-24103152Y7375612D02*
X-24108785Y7351043D01*
X-24101151Y7178604D02*
X-24093487Y7154933D01*
X-24095802Y7399906D02*
X-24103152Y7375612D01*
X-24093487Y7154933D02*
X-24084219Y7131759D01*
X-24086719Y7423843D02*
X-24095802Y7399906D01*
X-24084219Y7131759D02*
X-24073356Y7109169D01*
D12*
X-24075483Y7596835D02*
X-24013319Y7621543D01*
D14*
X-24073356Y7109169D02*
X-24060913Y7087248D01*
X-24060913Y7087248D02*
X-24046903Y7066082D01*
X-24046903Y7066082D02*
X-24031339Y7045756D01*
X-24031339Y7045756D02*
X-24031339Y7045756D01*
X-24031339Y7045756D02*
X-24014411Y7026551D01*
X-24014411Y7026551D02*
X-23996357Y7008710D01*
X-23996357Y7008710D02*
X-23977258Y6992260D01*
D12*
X-23985806Y7599822D02*
X-23989117Y7631643D01*
X-23983175Y6677686D02*
X-23860227Y6717571D01*
X-23981261Y7568358D02*
X-23985806Y7599822D01*
D14*
X-23977258Y6992260D02*
X-23957196Y6977231D01*
D12*
X-23975510Y7537276D02*
X-23981261Y7568358D01*
X-23968572Y7506602D02*
X-23975510Y7537276D01*
X-23960472Y7476364D02*
X-23968572Y7506602D01*
D14*
X-23957196Y6977231D02*
X-23936255Y6963652D01*
D12*
X-23951231Y7446589D02*
X-23960472Y7476364D01*
X-23940874Y7417304D02*
X-23951231Y7446589D01*
D14*
X-23936255Y6963652D02*
X-23914513Y6951552D01*
D12*
X-23929423Y7388533D02*
X-23940874Y7417304D01*
X-23916900Y7360307D02*
X-23929423Y7388533D01*
D14*
X-23914513Y6951552D02*
X-23892057Y6940959D01*
D12*
X-23903328Y7332649D02*
X-23916900Y7360307D01*
D14*
X-23892057Y6940959D02*
X-23868961Y6931903D01*
D12*
X-23888729Y7305587D02*
X-23903328Y7332649D01*
X-23873128Y7279149D02*
X-23888729Y7305587D01*
D14*
X-23868961Y6931903D02*
X-23845314Y6924412D01*
D12*
X-23860227Y6717571D02*
X-23738857Y6762034D01*
X-23856547Y7253361D02*
X-23873128Y7279149D01*
D14*
X-23845314Y6924412D02*
X-23821195Y6918517D01*
D12*
X-23839008Y7228249D02*
X-23856547Y7253361D01*
D14*
X-23821195Y6918517D02*
X-23796682Y6914245D01*
D12*
X-23820535Y7203840D02*
X-23839008Y7228249D01*
X-23801149Y7180162D02*
X-23820535Y7203840D01*
D14*
X-23796682Y6914245D02*
X-23771862Y6911624D01*
D12*
X-23780874Y7157240D02*
X-23801149Y7180162D01*
D14*
X-23771862Y6911624D02*
X-23746814Y6910686D01*
D12*
X-23759732Y7135101D02*
X-23780874Y7157240D01*
D14*
X-23746814Y6910686D02*
X-23721620Y6911456D01*
D12*
X-23738857Y6762034D02*
X-23619196Y6811029D01*
X-23737746Y7113775D02*
X-23759732Y7135101D01*
D14*
X-23721620Y6911456D02*
X-23696361Y6913966D01*
D12*
X-23714939Y7093285D02*
X-23737746Y7113775D01*
D14*
X-23696361Y6913966D02*
X-23671119Y6918243D01*
D12*
X-23691336Y7073658D02*
X-23714939Y7093285D01*
X-23666954Y7054922D02*
X-23691336Y7073658D01*
X-23641823Y7037105D02*
X-23666954Y7054922D01*
X-23619196Y6811029D02*
X-23501375Y6864514D01*
X-23615961Y7020231D02*
X-23641823Y7037105D01*
X-23589391Y7004328D02*
X-23615961Y7020231D01*
X-23562137Y6989423D02*
X-23589391Y7004328D01*
X-23534221Y6975542D02*
X-23562137Y6989423D01*
X-23505668Y6962712D02*
X-23534221Y6975542D01*
X-23501375Y6864514D02*
X-23385520Y6922443D01*
X-23476497Y6950961D02*
X-23505668Y6962712D01*
X-23446735Y6940314D02*
X-23476497Y6950961D01*
X-23416402Y6930798D02*
X-23446735Y6940314D01*
X-23385520Y6922443D02*
X-23416402Y6930798D01*
X-23385520Y6922443D02*
X-23385520Y6922443D01*
D15*
X-23352319Y7462642D02*
X-23338320Y7862343D01*
X-23352319Y7462642D02*
X-23286822Y7506409D01*
X-23286822Y7506409D02*
X-23222575Y7551825D01*
X-23222575Y7551825D02*
X-23159605Y7598860D01*
X-23159605Y7598860D02*
X-23097939Y7647486D01*
X-23097939Y7647486D02*
X-23037610Y7697676D01*
X-23037610Y7697676D02*
X-22978643Y7749401D01*
X-22978643Y7749401D02*
X-22921068Y7802628D01*
X-22959619Y7386343D02*
X-23352319Y7462642D01*
X-22921068Y7802628D02*
X-22864912Y7857336D01*
X-22864912Y7857336D02*
X-22810206Y7913492D01*
X-22810206Y7913492D02*
X-22756977Y7971067D01*
X-22756977Y7971067D02*
X-22705252Y8030033D01*
X-22705252Y8030033D02*
X-22655061Y8090363D01*
X-22655061Y8090363D02*
X-22606436Y8152028D01*
D12*
X-22629120Y9005743D02*
X-22604410Y9067918D01*
X-22607397Y8978231D02*
X-22639219Y8981543D01*
D15*
X-22606436Y8152028D02*
X-22559402Y8214998D01*
D12*
X-22604410Y9067918D02*
X-22581350Y9130689D01*
X-22581350Y9130689D02*
X-22559951Y9194021D01*
X-22575933Y8973688D02*
X-22607397Y8978231D01*
X-22559951Y9194021D02*
X-22540226Y9257881D01*
D15*
X-22559402Y8214998D02*
X-22513986Y8279246D01*
D12*
X-22544850Y8967937D02*
X-22575933Y8973688D01*
X-22540226Y9257881D02*
X-22522178Y9322237D01*
X-22522178Y9322237D02*
X-22505823Y9387053D01*
X-22514175Y8961001D02*
X-22544850Y8967937D01*
D15*
X-22513986Y8279246D02*
X-22470219Y8344742D01*
D12*
X-22505823Y9387053D02*
X-22491166Y9452299D01*
X-22491166Y9452299D02*
X-22478220Y9517942D01*
X-22483937Y8952902D02*
X-22514175Y8961001D01*
X-22478220Y9517942D02*
X-22478220Y9517942D01*
X-22478220Y9517942D02*
X-22471006Y9547070D01*
X-22471006Y9547070D02*
X-22461950Y9575426D01*
D15*
X-22470219Y8344742D02*
X-22869720Y8323741D01*
X-22470219Y8344742D02*
X-22387018Y7953443D01*
D12*
X-22461950Y9575426D02*
X-22451113Y9602947D01*
X-22454160Y8943662D02*
X-22483937Y8952902D01*
X-22451113Y9602947D02*
X-22438559Y9629559D01*
X-22438559Y9629559D02*
X-22424353Y9655190D01*
X-22424875Y8933307D02*
X-22454160Y8943662D01*
X-22424353Y9655190D02*
X-22408555Y9679770D01*
X-22408555Y9679770D02*
X-22391232Y9703230D01*
D14*
X-22407483Y9088232D02*
X-22431420Y9079143D01*
D12*
X-22396103Y8921855D02*
X-22424875Y8933307D01*
X-22391232Y9703230D02*
X-22372444Y9725502D01*
D14*
X-22383188Y9095589D02*
X-22407483Y9088232D01*
D12*
X-22372444Y9725502D02*
X-22352256Y9746513D01*
X-22367876Y8909334D02*
X-22396103Y8921855D01*
D14*
X-22358617Y9101229D02*
X-22383188Y9095589D01*
D12*
X-22352256Y9746513D02*
X-22330731Y9766190D01*
X-22340218Y8895760D02*
X-22367876Y8909334D01*
D14*
X-22333860Y9105161D02*
X-22358617Y9101229D01*
D12*
X-22330731Y9766190D02*
X-22307933Y9784467D01*
X-22313155Y8881164D02*
X-22340218Y8895760D01*
D14*
X-22308998Y9107401D02*
X-22333860Y9105161D01*
D12*
X-22307933Y9784467D02*
X-22283926Y9801272D01*
X-22286717Y8865564D02*
X-22313155Y8881164D01*
D14*
X-22284122Y9107957D02*
X-22308998Y9107401D01*
D12*
X-22283926Y9801272D02*
X-22258770Y9816535D01*
X-22260929Y8848982D02*
X-22286717Y8865564D01*
D14*
X-22259313Y9106845D02*
X-22284122Y9107957D01*
D12*
X-22258770Y9816535D02*
X-22232533Y9830185D01*
X-22235816Y8831444D02*
X-22260929Y8848982D01*
D14*
X-22234660Y9104077D02*
X-22259313Y9106845D01*
D12*
X-22232533Y9830185D02*
X-22205274Y9842152D01*
X-22211408Y8812970D02*
X-22235816Y8831444D01*
D14*
X-22210247Y9099665D02*
X-22234660Y9104077D01*
D12*
X-22205274Y9842152D02*
X-22177059Y9852366D01*
X-22187729Y8793583D02*
X-22211408Y8812970D01*
D14*
X-22186158Y9093621D02*
X-22210247Y9099665D01*
D12*
X-22177059Y9852366D02*
X-22177059Y9852366D01*
X-22177059Y9852366D02*
X-22148228Y9860683D01*
X-22164807Y8773308D02*
X-22187729Y8793583D01*
D14*
X-22162485Y9085959D02*
X-22186158Y9093621D01*
D12*
X-22148228Y9860683D02*
X-22119141Y9867018D01*
X-22142668Y8752165D02*
X-22164807Y8773308D01*
D14*
X-22139308Y9076692D02*
X-22162485Y9085959D01*
D12*
X-22121341Y8730180D02*
X-22142668Y8752165D01*
X-22119141Y9867018D02*
X-22089890Y9871395D01*
D14*
X-22116715Y9065830D02*
X-22139308Y9076692D01*
D12*
X-22100852Y8707373D02*
X-22121341Y8730180D01*
D14*
X-22094790Y9053388D02*
X-22116715Y9065830D01*
D12*
X-22089890Y9871395D02*
X-22060568Y9873828D01*
X-22081226Y8683768D02*
X-22100852Y8707373D01*
D14*
X-22073622Y9039378D02*
X-22094790Y9053388D01*
D13*
X-22072519Y9264043D02*
X-22063924Y9300070D01*
X-22063924Y9300070D02*
X-22055776Y9336197D01*
D12*
X-22062490Y8659388D02*
X-22081226Y8683768D01*
X-22060568Y9873828D02*
X-22031267Y9874340D01*
D13*
X-22055776Y9336197D02*
X-22048072Y9372421D01*
D14*
X-22053294Y9023810D02*
X-22073622Y9039378D01*
X-22053294Y9023810D02*
X-22053294Y9023810D01*
D13*
X-22048072Y9372421D02*
X-22040820Y9408741D01*
D12*
X-22044672Y8634253D02*
X-22062490Y8659388D01*
D14*
X-22034087Y9006880D02*
X-22053294Y9023810D01*
D12*
X-22031267Y9874340D02*
X-22002079Y9872950D01*
X-22027799Y8608391D02*
X-22044672Y8634253D01*
D14*
X-22016243Y8988822D02*
X-22034087Y9006880D01*
D12*
X-22011898Y8581820D02*
X-22027799Y8608391D01*
X-22002079Y9872950D02*
X-21973099Y9869677D01*
D14*
X-21999793Y8969721D02*
X-22016243Y8988822D01*
D12*
X-21996992Y8554566D02*
X-22011898Y8581820D01*
D14*
X-21984764Y8949657D02*
X-21999793Y8969721D01*
D12*
X-21983112Y8526649D02*
X-21996992Y8554566D01*
X-21973099Y9869677D02*
X-21944420Y9864542D01*
D14*
X-21971184Y8928713D02*
X-21984764Y8949657D01*
D12*
X-21970284Y8498094D02*
X-21983112Y8526649D01*
D14*
X-21959084Y8906968D02*
X-21971184Y8928713D01*
D12*
X-21958534Y8468923D02*
X-21970284Y8498094D01*
D14*
X-21948495Y8884506D02*
X-21959084Y8906968D01*
D12*
X-21947887Y8439159D02*
X-21958534Y8468923D01*
X-21944420Y9864542D02*
X-21916131Y9857564D01*
D14*
X-21939440Y8861409D02*
X-21948495Y8884506D01*
D12*
X-21938375Y8408825D02*
X-21947887Y8439159D01*
D14*
X-21931953Y8837756D02*
X-21939440Y8861409D01*
D12*
X-21930020Y8377943D02*
X-21938375Y8408825D01*
X-21930020Y8377943D02*
X-21872090Y8493796D01*
D14*
X-21926060Y8813633D02*
X-21931953Y8837756D01*
X-21925819Y8663543D02*
X-21921535Y8688785D01*
X-21921793Y8789117D02*
X-21926060Y8813633D01*
X-21921535Y8688785D02*
X-21919019Y8714047D01*
X-21919177Y8764295D02*
X-21921793Y8789117D01*
X-21919019Y8714047D02*
X-21918243Y8739244D01*
X-21918243Y8739244D02*
X-21919177Y8764295D01*
D12*
X-21916131Y9857564D02*
X-21888326Y9848762D01*
X-21888326Y9848762D02*
X-21861099Y9838157D01*
X-21872090Y8493796D02*
X-21818608Y8611619D01*
X-21861099Y9838157D02*
X-21834542Y9825768D01*
X-21834542Y9825768D02*
X-21808746Y9811615D01*
X-21818608Y8611619D02*
X-21769612Y8731281D01*
X-21808746Y9811615D02*
X-21783805Y9795717D01*
X-21783805Y9795717D02*
X-21759813Y9778096D01*
X-21769612Y8731281D02*
X-21725147Y8852649D01*
X-21759813Y9778096D02*
X-21736860Y9758768D01*
X-21736860Y9758768D02*
X-21736860Y9758768D01*
X-21736860Y9758768D02*
X-21715241Y9737956D01*
X-21725147Y8852649D02*
X-21685264Y8975600D01*
X-21715241Y9737956D02*
X-21695210Y9715934D01*
X-21695210Y9715934D02*
X-21676795Y9692790D01*
X-21685264Y8975600D02*
X-21650000Y9100001D01*
X-21676795Y9692790D02*
X-21660026Y9668614D01*
X-21660026Y9668614D02*
X-21644932Y9643494D01*
X-21650000Y9100001D02*
X-21619404Y9225725D01*
X-21644932Y9643494D02*
X-21631543Y9617522D01*
X-21631543Y9617522D02*
X-21619887Y9590789D01*
X-21619887Y9590789D02*
X-21609994Y9563383D01*
X-21619404Y9225725D02*
X-21593519Y9352642D01*
X-21609994Y9563383D02*
X-21601894Y9535395D01*
X-21601894Y9535395D02*
X-21595612Y9506915D01*
X-21595612Y9506915D02*
X-21591185Y9478033D01*
X-21592558Y9360285D02*
X-21597819Y9330742D01*
X-21591185Y9478033D02*
X-21588635Y9448837D01*
X-21589292Y9389874D02*
X-21592558Y9360285D01*
X-21588635Y9448837D02*
X-21587995Y9419422D01*
X-21587995Y9419422D02*
X-21589292Y9389874D01*
%TD*%
M02*
