%TF.GenerationSoftware,KiCad,Pcbnew,9.0.0*%
%TF.CreationDate,2025-04-24T20:31:47+01:00*%
%TF.ProjectId,rp2040_pogo_mh_0.2,72703230-3430-45f7-906f-676f5f6d685f,v0.2*%
%TF.SameCoordinates,Original*%
%TF.FileFunction,Legend,Bot*%
%TF.FilePolarity,Positive*%
%FSLAX45Y45*%
G04 Gerber Fmt 4.5, Leading zero omitted, Abs format (unit mm)*
G04 Created by KiCad (PCBNEW 9.0.0) date 2025-04-24 20:31:47*
%MOMM*%
%LPD*%
G01*
G04 APERTURE LIST*
%ADD10C,0.010000*%
G04 APERTURE END LIST*
D10*
%TO.C,MH3*%
X-1273165Y-610291D02*
X-1266828Y-611769D01*
X-1263640Y-612893D01*
X-1259823Y-614671D01*
X-1255701Y-617021D01*
X-1251229Y-619971D01*
X-1246357Y-623550D01*
X-1241630Y-627236D01*
X-1230373Y-636529D01*
X-1219535Y-646208D01*
X-1209192Y-656202D01*
X-1199417Y-666434D01*
X-1190286Y-676832D01*
X-1181874Y-687321D01*
X-1181853Y-687348D01*
X-1179819Y-690182D01*
X-1178377Y-692614D01*
X-1177498Y-694736D01*
X-1177155Y-696642D01*
X-1177320Y-698423D01*
X-1177963Y-700173D01*
X-1178206Y-700630D01*
X-1179425Y-702249D01*
X-1181106Y-703578D01*
X-1183329Y-704659D01*
X-1186175Y-705533D01*
X-1189725Y-706242D01*
X-1194297Y-707101D01*
X-1202716Y-709286D01*
X-1210948Y-712201D01*
X-1218902Y-715809D01*
X-1226491Y-720071D01*
X-1233626Y-724951D01*
X-1236531Y-727212D01*
X-1240638Y-730722D01*
X-1244617Y-734536D01*
X-1248696Y-738866D01*
X-1248758Y-738934D01*
X-1250641Y-740978D01*
X-1252150Y-742501D01*
X-1253407Y-743601D01*
X-1254532Y-744371D01*
X-1255647Y-744908D01*
X-1256872Y-745306D01*
X-1258502Y-745618D01*
X-1260235Y-745586D01*
X-1261954Y-745105D01*
X-1263743Y-744129D01*
X-1265686Y-742611D01*
X-1267867Y-740505D01*
X-1270369Y-737762D01*
X-1273798Y-733914D01*
X-1280177Y-727149D01*
X-1286752Y-720693D01*
X-1293665Y-714416D01*
X-1301058Y-708185D01*
X-1309074Y-701869D01*
X-1309110Y-701842D01*
X-1311269Y-700157D01*
X-1313381Y-698448D01*
X-1315299Y-696840D01*
X-1316874Y-695457D01*
X-1317958Y-694421D01*
X-1319556Y-692677D01*
X-1323239Y-687864D01*
X-1326316Y-682619D01*
X-1328759Y-677032D01*
X-1330536Y-671195D01*
X-1331618Y-665198D01*
X-1331976Y-659133D01*
X-1331578Y-653090D01*
X-1331524Y-652691D01*
X-1330321Y-646848D01*
X-1328400Y-641152D01*
X-1325814Y-635695D01*
X-1322622Y-630570D01*
X-1318880Y-625866D01*
X-1314643Y-621676D01*
X-1309969Y-618091D01*
X-1309159Y-617561D01*
X-1303611Y-614459D01*
X-1297827Y-612104D01*
X-1291848Y-610504D01*
X-1285717Y-609664D01*
X-1279476Y-609591D01*
X-1273165Y-610291D01*
G36*
X-1273165Y-610291D02*
G01*
X-1266828Y-611769D01*
X-1263640Y-612893D01*
X-1259823Y-614671D01*
X-1255701Y-617021D01*
X-1251229Y-619971D01*
X-1246357Y-623550D01*
X-1241630Y-627236D01*
X-1230373Y-636529D01*
X-1219535Y-646208D01*
X-1209192Y-656202D01*
X-1199417Y-666434D01*
X-1190286Y-676832D01*
X-1181874Y-687321D01*
X-1181853Y-687348D01*
X-1179819Y-690182D01*
X-1178377Y-692614D01*
X-1177498Y-694736D01*
X-1177155Y-696642D01*
X-1177320Y-698423D01*
X-1177963Y-700173D01*
X-1178206Y-700630D01*
X-1179425Y-702249D01*
X-1181106Y-703578D01*
X-1183329Y-704659D01*
X-1186175Y-705533D01*
X-1189725Y-706242D01*
X-1194297Y-707101D01*
X-1202716Y-709286D01*
X-1210948Y-712201D01*
X-1218902Y-715809D01*
X-1226491Y-720071D01*
X-1233626Y-724951D01*
X-1236531Y-727212D01*
X-1240638Y-730722D01*
X-1244617Y-734536D01*
X-1248696Y-738866D01*
X-1248758Y-738934D01*
X-1250641Y-740978D01*
X-1252150Y-742501D01*
X-1253407Y-743601D01*
X-1254532Y-744371D01*
X-1255647Y-744908D01*
X-1256872Y-745306D01*
X-1258502Y-745618D01*
X-1260235Y-745586D01*
X-1261954Y-745105D01*
X-1263743Y-744129D01*
X-1265686Y-742611D01*
X-1267867Y-740505D01*
X-1270369Y-737762D01*
X-1273798Y-733914D01*
X-1280177Y-727149D01*
X-1286752Y-720693D01*
X-1293665Y-714416D01*
X-1301058Y-708185D01*
X-1309074Y-701869D01*
X-1309110Y-701842D01*
X-1311269Y-700157D01*
X-1313381Y-698448D01*
X-1315299Y-696840D01*
X-1316874Y-695457D01*
X-1317958Y-694421D01*
X-1319556Y-692677D01*
X-1323239Y-687864D01*
X-1326316Y-682619D01*
X-1328759Y-677032D01*
X-1330536Y-671195D01*
X-1331618Y-665198D01*
X-1331976Y-659133D01*
X-1331578Y-653090D01*
X-1331524Y-652691D01*
X-1330321Y-646848D01*
X-1328400Y-641152D01*
X-1325814Y-635695D01*
X-1322622Y-630570D01*
X-1318880Y-625866D01*
X-1314643Y-621676D01*
X-1309969Y-618091D01*
X-1309159Y-617561D01*
X-1303611Y-614459D01*
X-1297827Y-612104D01*
X-1291848Y-610504D01*
X-1285717Y-609664D01*
X-1279476Y-609591D01*
X-1273165Y-610291D01*
G37*
X-1130097Y-766961D02*
X-1129436Y-767042D01*
X-1128760Y-767174D01*
X-1128024Y-767336D01*
X-1125965Y-767955D01*
X-1123243Y-769406D01*
X-1121025Y-771414D01*
X-1119369Y-773903D01*
X-1118337Y-776797D01*
X-1117988Y-780021D01*
X-1118043Y-780940D01*
X-1118616Y-783439D01*
X-1119722Y-785941D01*
X-1121246Y-788164D01*
X-1121536Y-788471D01*
X-1121981Y-788862D01*
X-1122592Y-789328D01*
X-1123412Y-789893D01*
X-1124479Y-790580D01*
X-1125836Y-791412D01*
X-1127523Y-792414D01*
X-1129580Y-793609D01*
X-1132048Y-795020D01*
X-1134968Y-796671D01*
X-1138381Y-798586D01*
X-1142327Y-800788D01*
X-1146846Y-803301D01*
X-1151981Y-806149D01*
X-1157770Y-809354D01*
X-1159051Y-810063D01*
X-1164878Y-813283D01*
X-1170058Y-816138D01*
X-1174627Y-818648D01*
X-1178623Y-820831D01*
X-1182082Y-822709D01*
X-1185042Y-824299D01*
X-1187540Y-825623D01*
X-1189612Y-826699D01*
X-1191295Y-827548D01*
X-1192627Y-828189D01*
X-1193645Y-828641D01*
X-1194385Y-828924D01*
X-1194884Y-829058D01*
X-1195026Y-829081D01*
X-1196222Y-829209D01*
X-1197390Y-829155D01*
X-1198790Y-828890D01*
X-1200677Y-828385D01*
X-1201958Y-828008D01*
X-1203325Y-827542D01*
X-1204304Y-827070D01*
X-1205123Y-826475D01*
X-1206009Y-825640D01*
X-1207774Y-823448D01*
X-1209091Y-820715D01*
X-1209713Y-817783D01*
X-1209632Y-814766D01*
X-1208838Y-811778D01*
X-1207323Y-808933D01*
X-1207189Y-808744D01*
X-1206925Y-808420D01*
X-1206583Y-808074D01*
X-1206122Y-807681D01*
X-1205501Y-807217D01*
X-1204679Y-806658D01*
X-1203614Y-805981D01*
X-1202265Y-805160D01*
X-1200592Y-804172D01*
X-1198554Y-802993D01*
X-1196109Y-801598D01*
X-1193215Y-799963D01*
X-1189833Y-798064D01*
X-1185921Y-795878D01*
X-1181438Y-793379D01*
X-1176342Y-790544D01*
X-1170594Y-787349D01*
X-1167345Y-785544D01*
X-1161764Y-782443D01*
X-1156812Y-779696D01*
X-1152446Y-777282D01*
X-1148622Y-775182D01*
X-1145298Y-773374D01*
X-1142431Y-771839D01*
X-1139978Y-770556D01*
X-1137896Y-769505D01*
X-1136141Y-768667D01*
X-1134672Y-768021D01*
X-1133445Y-767546D01*
X-1132416Y-767223D01*
X-1131545Y-767031D01*
X-1130786Y-766951D01*
X-1130097Y-766961D01*
G36*
X-1130097Y-766961D02*
G01*
X-1129436Y-767042D01*
X-1128760Y-767174D01*
X-1128024Y-767336D01*
X-1125965Y-767955D01*
X-1123243Y-769406D01*
X-1121025Y-771414D01*
X-1119369Y-773903D01*
X-1118337Y-776797D01*
X-1117988Y-780021D01*
X-1118043Y-780940D01*
X-1118616Y-783439D01*
X-1119722Y-785941D01*
X-1121246Y-788164D01*
X-1121536Y-788471D01*
X-1121981Y-788862D01*
X-1122592Y-789328D01*
X-1123412Y-789893D01*
X-1124479Y-790580D01*
X-1125836Y-791412D01*
X-1127523Y-792414D01*
X-1129580Y-793609D01*
X-1132048Y-795020D01*
X-1134968Y-796671D01*
X-1138381Y-798586D01*
X-1142327Y-800788D01*
X-1146846Y-803301D01*
X-1151981Y-806149D01*
X-1157770Y-809354D01*
X-1159051Y-810063D01*
X-1164878Y-813283D01*
X-1170058Y-816138D01*
X-1174627Y-818648D01*
X-1178623Y-820831D01*
X-1182082Y-822709D01*
X-1185042Y-824299D01*
X-1187540Y-825623D01*
X-1189612Y-826699D01*
X-1191295Y-827548D01*
X-1192627Y-828189D01*
X-1193645Y-828641D01*
X-1194385Y-828924D01*
X-1194884Y-829058D01*
X-1195026Y-829081D01*
X-1196222Y-829209D01*
X-1197390Y-829155D01*
X-1198790Y-828890D01*
X-1200677Y-828385D01*
X-1201958Y-828008D01*
X-1203325Y-827542D01*
X-1204304Y-827070D01*
X-1205123Y-826475D01*
X-1206009Y-825640D01*
X-1207774Y-823448D01*
X-1209091Y-820715D01*
X-1209713Y-817783D01*
X-1209632Y-814766D01*
X-1208838Y-811778D01*
X-1207323Y-808933D01*
X-1207189Y-808744D01*
X-1206925Y-808420D01*
X-1206583Y-808074D01*
X-1206122Y-807681D01*
X-1205501Y-807217D01*
X-1204679Y-806658D01*
X-1203614Y-805981D01*
X-1202265Y-805160D01*
X-1200592Y-804172D01*
X-1198554Y-802993D01*
X-1196109Y-801598D01*
X-1193215Y-799963D01*
X-1189833Y-798064D01*
X-1185921Y-795878D01*
X-1181438Y-793379D01*
X-1176342Y-790544D01*
X-1170594Y-787349D01*
X-1167345Y-785544D01*
X-1161764Y-782443D01*
X-1156812Y-779696D01*
X-1152446Y-777282D01*
X-1148622Y-775182D01*
X-1145298Y-773374D01*
X-1142431Y-771839D01*
X-1139978Y-770556D01*
X-1137896Y-769505D01*
X-1136141Y-768667D01*
X-1134672Y-768021D01*
X-1133445Y-767546D01*
X-1132416Y-767223D01*
X-1131545Y-767031D01*
X-1130786Y-766951D01*
X-1130097Y-766961D01*
G37*
X-1183521Y-753590D02*
X-1181021Y-754163D01*
X-1178519Y-755268D01*
X-1176296Y-756793D01*
X-1175989Y-757083D01*
X-1175598Y-757528D01*
X-1175132Y-758139D01*
X-1174567Y-758958D01*
X-1173880Y-760026D01*
X-1173048Y-761383D01*
X-1172046Y-763070D01*
X-1170852Y-765127D01*
X-1169440Y-767595D01*
X-1167789Y-770515D01*
X-1165874Y-773928D01*
X-1163672Y-777874D01*
X-1161159Y-782393D01*
X-1158312Y-787528D01*
X-1155106Y-793317D01*
X-1154397Y-794598D01*
X-1151177Y-800425D01*
X-1148322Y-805605D01*
X-1145812Y-810174D01*
X-1143629Y-814170D01*
X-1141751Y-817629D01*
X-1140161Y-820589D01*
X-1138837Y-823087D01*
X-1137761Y-825159D01*
X-1136912Y-826842D01*
X-1136271Y-828174D01*
X-1135819Y-829192D01*
X-1135536Y-829932D01*
X-1135402Y-830431D01*
X-1135379Y-830573D01*
X-1135251Y-831768D01*
X-1135305Y-832937D01*
X-1135570Y-834337D01*
X-1136075Y-836224D01*
X-1136452Y-837505D01*
X-1136918Y-838872D01*
X-1137390Y-839851D01*
X-1137985Y-840670D01*
X-1138820Y-841556D01*
X-1141012Y-843321D01*
X-1143745Y-844638D01*
X-1146677Y-845260D01*
X-1149694Y-845179D01*
X-1152682Y-844385D01*
X-1155528Y-842870D01*
X-1155716Y-842736D01*
X-1156040Y-842472D01*
X-1156386Y-842130D01*
X-1156779Y-841669D01*
X-1157243Y-841048D01*
X-1157802Y-840226D01*
X-1158479Y-839161D01*
X-1159300Y-837812D01*
X-1160288Y-836139D01*
X-1161468Y-834101D01*
X-1162863Y-831655D01*
X-1164497Y-828762D01*
X-1166396Y-825380D01*
X-1168582Y-821468D01*
X-1171081Y-816985D01*
X-1173916Y-811889D01*
X-1177111Y-806140D01*
X-1178916Y-802892D01*
X-1182017Y-797311D01*
X-1184764Y-792359D01*
X-1187178Y-787993D01*
X-1189279Y-784169D01*
X-1191086Y-780845D01*
X-1192622Y-777978D01*
X-1193904Y-775525D01*
X-1194955Y-773442D01*
X-1195793Y-771688D01*
X-1196439Y-770219D01*
X-1196914Y-768991D01*
X-1197237Y-767963D01*
X-1197429Y-767091D01*
X-1197509Y-766333D01*
X-1197499Y-765644D01*
X-1197418Y-764983D01*
X-1197286Y-764307D01*
X-1197124Y-763571D01*
X-1196505Y-761512D01*
X-1195054Y-758790D01*
X-1193047Y-756571D01*
X-1190557Y-754916D01*
X-1187663Y-753883D01*
X-1184439Y-753534D01*
X-1183521Y-753590D01*
G36*
X-1183521Y-753590D02*
G01*
X-1181021Y-754163D01*
X-1178519Y-755268D01*
X-1176296Y-756793D01*
X-1175989Y-757083D01*
X-1175598Y-757528D01*
X-1175132Y-758139D01*
X-1174567Y-758958D01*
X-1173880Y-760026D01*
X-1173048Y-761383D01*
X-1172046Y-763070D01*
X-1170852Y-765127D01*
X-1169440Y-767595D01*
X-1167789Y-770515D01*
X-1165874Y-773928D01*
X-1163672Y-777874D01*
X-1161159Y-782393D01*
X-1158312Y-787528D01*
X-1155106Y-793317D01*
X-1154397Y-794598D01*
X-1151177Y-800425D01*
X-1148322Y-805605D01*
X-1145812Y-810174D01*
X-1143629Y-814170D01*
X-1141751Y-817629D01*
X-1140161Y-820589D01*
X-1138837Y-823087D01*
X-1137761Y-825159D01*
X-1136912Y-826842D01*
X-1136271Y-828174D01*
X-1135819Y-829192D01*
X-1135536Y-829932D01*
X-1135402Y-830431D01*
X-1135379Y-830573D01*
X-1135251Y-831768D01*
X-1135305Y-832937D01*
X-1135570Y-834337D01*
X-1136075Y-836224D01*
X-1136452Y-837505D01*
X-1136918Y-838872D01*
X-1137390Y-839851D01*
X-1137985Y-840670D01*
X-1138820Y-841556D01*
X-1141012Y-843321D01*
X-1143745Y-844638D01*
X-1146677Y-845260D01*
X-1149694Y-845179D01*
X-1152682Y-844385D01*
X-1155528Y-842870D01*
X-1155716Y-842736D01*
X-1156040Y-842472D01*
X-1156386Y-842130D01*
X-1156779Y-841669D01*
X-1157243Y-841048D01*
X-1157802Y-840226D01*
X-1158479Y-839161D01*
X-1159300Y-837812D01*
X-1160288Y-836139D01*
X-1161468Y-834101D01*
X-1162863Y-831655D01*
X-1164497Y-828762D01*
X-1166396Y-825380D01*
X-1168582Y-821468D01*
X-1171081Y-816985D01*
X-1173916Y-811889D01*
X-1177111Y-806140D01*
X-1178916Y-802892D01*
X-1182017Y-797311D01*
X-1184764Y-792359D01*
X-1187178Y-787993D01*
X-1189279Y-784169D01*
X-1191086Y-780845D01*
X-1192622Y-777978D01*
X-1193904Y-775525D01*
X-1194955Y-773442D01*
X-1195793Y-771688D01*
X-1196439Y-770219D01*
X-1196914Y-768991D01*
X-1197237Y-767963D01*
X-1197429Y-767091D01*
X-1197509Y-766333D01*
X-1197499Y-765644D01*
X-1197418Y-764983D01*
X-1197286Y-764307D01*
X-1197124Y-763571D01*
X-1196505Y-761512D01*
X-1195054Y-758790D01*
X-1193047Y-756571D01*
X-1190557Y-754916D01*
X-1187663Y-753883D01*
X-1184439Y-753534D01*
X-1183521Y-753590D01*
G37*
X-1076931Y-859775D02*
X-1075200Y-860558D01*
X-1075024Y-860664D01*
X-1073855Y-861568D01*
X-1072793Y-862801D01*
X-1071771Y-864475D01*
X-1070719Y-866700D01*
X-1069566Y-869589D01*
X-1066888Y-877027D01*
X-1063224Y-888339D01*
X-1059870Y-900088D01*
X-1056871Y-912081D01*
X-1054275Y-924127D01*
X-1052128Y-936035D01*
X-1050478Y-947612D01*
X-1050251Y-949484D01*
X-1049724Y-953965D01*
X-1049307Y-957801D01*
X-1048993Y-961092D01*
X-1048777Y-963941D01*
X-1048653Y-966450D01*
X-1048615Y-968719D01*
X-1048659Y-970850D01*
X-1048778Y-972946D01*
X-1048968Y-975106D01*
X-1049086Y-976255D01*
X-1049419Y-979040D01*
X-1049775Y-981285D01*
X-1050188Y-983177D01*
X-1050689Y-984902D01*
X-1050744Y-985068D01*
X-1053094Y-991000D01*
X-1056045Y-996465D01*
X-1059547Y-1001437D01*
X-1063546Y-1005887D01*
X-1067992Y-1009790D01*
X-1072832Y-1013117D01*
X-1078015Y-1015842D01*
X-1083490Y-1017937D01*
X-1089205Y-1019374D01*
X-1095107Y-1020127D01*
X-1101146Y-1020169D01*
X-1107270Y-1019471D01*
X-1113426Y-1018007D01*
X-1118011Y-1016354D01*
X-1123386Y-1013684D01*
X-1128415Y-1010370D01*
X-1133033Y-1006476D01*
X-1137172Y-1002066D01*
X-1140766Y-997206D01*
X-1143748Y-991959D01*
X-1146052Y-986389D01*
X-1146527Y-984948D01*
X-1147091Y-983022D01*
X-1147555Y-981092D01*
X-1147946Y-979000D01*
X-1148293Y-976589D01*
X-1148624Y-973700D01*
X-1148968Y-970177D01*
X-1149272Y-967060D01*
X-1151009Y-953446D01*
X-1153374Y-940263D01*
X-1156379Y-927449D01*
X-1160037Y-914947D01*
X-1160716Y-912620D01*
X-1161220Y-910007D01*
X-1161246Y-907860D01*
X-1160780Y-906068D01*
X-1159805Y-904522D01*
X-1158306Y-903115D01*
X-1157391Y-902462D01*
X-1156275Y-901891D01*
X-1154921Y-901489D01*
X-1153051Y-901152D01*
X-1149682Y-900615D01*
X-1145801Y-899923D01*
X-1142345Y-899206D01*
X-1139106Y-898418D01*
X-1135875Y-897516D01*
X-1129984Y-895571D01*
X-1121908Y-892197D01*
X-1114154Y-888112D01*
X-1106756Y-883338D01*
X-1099745Y-877895D01*
X-1093152Y-871804D01*
X-1087008Y-865086D01*
X-1086630Y-864644D01*
X-1084341Y-862333D01*
X-1082136Y-860723D01*
X-1080062Y-859849D01*
X-1078605Y-859605D01*
X-1076931Y-859775D01*
G36*
X-1076931Y-859775D02*
G01*
X-1075200Y-860558D01*
X-1075024Y-860664D01*
X-1073855Y-861568D01*
X-1072793Y-862801D01*
X-1071771Y-864475D01*
X-1070719Y-866700D01*
X-1069566Y-869589D01*
X-1066888Y-877027D01*
X-1063224Y-888339D01*
X-1059870Y-900088D01*
X-1056871Y-912081D01*
X-1054275Y-924127D01*
X-1052128Y-936035D01*
X-1050478Y-947612D01*
X-1050251Y-949484D01*
X-1049724Y-953965D01*
X-1049307Y-957801D01*
X-1048993Y-961092D01*
X-1048777Y-963941D01*
X-1048653Y-966450D01*
X-1048615Y-968719D01*
X-1048659Y-970850D01*
X-1048778Y-972946D01*
X-1048968Y-975106D01*
X-1049086Y-976255D01*
X-1049419Y-979040D01*
X-1049775Y-981285D01*
X-1050188Y-983177D01*
X-1050689Y-984902D01*
X-1050744Y-985068D01*
X-1053094Y-991000D01*
X-1056045Y-996465D01*
X-1059547Y-1001437D01*
X-1063546Y-1005887D01*
X-1067992Y-1009790D01*
X-1072832Y-1013117D01*
X-1078015Y-1015842D01*
X-1083490Y-1017937D01*
X-1089205Y-1019374D01*
X-1095107Y-1020127D01*
X-1101146Y-1020169D01*
X-1107270Y-1019471D01*
X-1113426Y-1018007D01*
X-1118011Y-1016354D01*
X-1123386Y-1013684D01*
X-1128415Y-1010370D01*
X-1133033Y-1006476D01*
X-1137172Y-1002066D01*
X-1140766Y-997206D01*
X-1143748Y-991959D01*
X-1146052Y-986389D01*
X-1146527Y-984948D01*
X-1147091Y-983022D01*
X-1147555Y-981092D01*
X-1147946Y-979000D01*
X-1148293Y-976589D01*
X-1148624Y-973700D01*
X-1148968Y-970177D01*
X-1149272Y-967060D01*
X-1151009Y-953446D01*
X-1153374Y-940263D01*
X-1156379Y-927449D01*
X-1160037Y-914947D01*
X-1160716Y-912620D01*
X-1161220Y-910007D01*
X-1161246Y-907860D01*
X-1160780Y-906068D01*
X-1159805Y-904522D01*
X-1158306Y-903115D01*
X-1157391Y-902462D01*
X-1156275Y-901891D01*
X-1154921Y-901489D01*
X-1153051Y-901152D01*
X-1149682Y-900615D01*
X-1145801Y-899923D01*
X-1142345Y-899206D01*
X-1139106Y-898418D01*
X-1135875Y-897516D01*
X-1129984Y-895571D01*
X-1121908Y-892197D01*
X-1114154Y-888112D01*
X-1106756Y-883338D01*
X-1099745Y-877895D01*
X-1093152Y-871804D01*
X-1087008Y-865086D01*
X-1086630Y-864644D01*
X-1084341Y-862333D01*
X-1082136Y-860723D01*
X-1080062Y-859849D01*
X-1078605Y-859605D01*
X-1076931Y-859775D01*
G37*
%TO.C,MH1*%
X-1086456Y1034111D02*
X-1080658Y1032739D01*
X-1075140Y1030675D01*
X-1074262Y1030269D01*
X-1068691Y1027208D01*
X-1063629Y1023550D01*
X-1059104Y1019328D01*
X-1055143Y1014573D01*
X-1051773Y1009319D01*
X-1049022Y1003597D01*
X-1046918Y997439D01*
X-1046182Y994140D01*
X-1045666Y989960D01*
X-1045475Y985220D01*
X-1045607Y979864D01*
X-1046060Y973836D01*
X-1046682Y967874D01*
X-1048597Y953403D01*
X-1051063Y939083D01*
X-1054056Y925015D01*
X-1057554Y911303D01*
X-1061533Y898050D01*
X-1065970Y885358D01*
X-1065982Y885325D01*
X-1067308Y882099D01*
X-1068606Y879587D01*
X-1069940Y877717D01*
X-1071375Y876417D01*
X-1072972Y875612D01*
X-1074798Y875230D01*
X-1075313Y875194D01*
X-1077332Y875370D01*
X-1079350Y876091D01*
X-1081445Y877404D01*
X-1083695Y879354D01*
X-1086177Y881989D01*
X-1089329Y885410D01*
X-1095643Y891393D01*
X-1102477Y896829D01*
X-1109752Y901663D01*
X-1117388Y905840D01*
X-1125307Y909305D01*
X-1128764Y910570D01*
X-1133917Y912193D01*
X-1139260Y913546D01*
X-1145093Y914711D01*
X-1145184Y914728D01*
X-1147915Y915242D01*
X-1150007Y915714D01*
X-1151606Y916197D01*
X-1152855Y916743D01*
X-1153901Y917404D01*
X-1154888Y918232D01*
X-1156016Y919449D01*
X-1156907Y920936D01*
X-1157410Y922649D01*
X-1157531Y924683D01*
X-1157273Y927135D01*
X-1156642Y930100D01*
X-1155643Y933675D01*
X-1154196Y938623D01*
X-1151839Y947617D01*
X-1149849Y956614D01*
X-1148189Y965803D01*
X-1146822Y975375D01*
X-1145714Y985520D01*
X-1145710Y985564D01*
X-1145425Y988288D01*
X-1145095Y990985D01*
X-1144748Y993463D01*
X-1144409Y995533D01*
X-1144106Y997001D01*
X-1143473Y999281D01*
X-1141343Y1004954D01*
X-1138526Y1010343D01*
X-1135082Y1015375D01*
X-1131074Y1019976D01*
X-1126562Y1024071D01*
X-1121608Y1027589D01*
X-1116272Y1030453D01*
X-1115905Y1030619D01*
X-1110312Y1032696D01*
X-1104464Y1034084D01*
X-1098466Y1034783D01*
X-1092428Y1034792D01*
X-1086456Y1034111D01*
G36*
X-1086456Y1034111D02*
G01*
X-1080658Y1032739D01*
X-1075140Y1030675D01*
X-1074262Y1030269D01*
X-1068691Y1027208D01*
X-1063629Y1023550D01*
X-1059104Y1019328D01*
X-1055143Y1014573D01*
X-1051773Y1009319D01*
X-1049022Y1003597D01*
X-1046918Y997439D01*
X-1046182Y994140D01*
X-1045666Y989960D01*
X-1045475Y985220D01*
X-1045607Y979864D01*
X-1046060Y973836D01*
X-1046682Y967874D01*
X-1048597Y953403D01*
X-1051063Y939083D01*
X-1054056Y925015D01*
X-1057554Y911303D01*
X-1061533Y898050D01*
X-1065970Y885358D01*
X-1065982Y885325D01*
X-1067308Y882099D01*
X-1068606Y879587D01*
X-1069940Y877717D01*
X-1071375Y876417D01*
X-1072972Y875612D01*
X-1074798Y875230D01*
X-1075313Y875194D01*
X-1077332Y875370D01*
X-1079350Y876091D01*
X-1081445Y877404D01*
X-1083695Y879354D01*
X-1086177Y881989D01*
X-1089329Y885410D01*
X-1095643Y891393D01*
X-1102477Y896829D01*
X-1109752Y901663D01*
X-1117388Y905840D01*
X-1125307Y909305D01*
X-1128764Y910570D01*
X-1133917Y912193D01*
X-1139260Y913546D01*
X-1145093Y914711D01*
X-1145184Y914728D01*
X-1147915Y915242D01*
X-1150007Y915714D01*
X-1151606Y916197D01*
X-1152855Y916743D01*
X-1153901Y917404D01*
X-1154888Y918232D01*
X-1156016Y919449D01*
X-1156907Y920936D01*
X-1157410Y922649D01*
X-1157531Y924683D01*
X-1157273Y927135D01*
X-1156642Y930100D01*
X-1155643Y933675D01*
X-1154196Y938623D01*
X-1151839Y947617D01*
X-1149849Y956614D01*
X-1148189Y965803D01*
X-1146822Y975375D01*
X-1145714Y985520D01*
X-1145710Y985564D01*
X-1145425Y988288D01*
X-1145095Y990985D01*
X-1144748Y993463D01*
X-1144409Y995533D01*
X-1144106Y997001D01*
X-1143473Y999281D01*
X-1141343Y1004954D01*
X-1138526Y1010343D01*
X-1135082Y1015375D01*
X-1131074Y1019976D01*
X-1126562Y1024071D01*
X-1121608Y1027589D01*
X-1116272Y1030453D01*
X-1115905Y1030619D01*
X-1110312Y1032696D01*
X-1104464Y1034084D01*
X-1098466Y1034783D01*
X-1092428Y1034792D01*
X-1086456Y1034111D01*
G37*
X-1260034Y747086D02*
X-1258046Y746561D01*
X-1257007Y746131D01*
X-1255932Y745487D01*
X-1254873Y744551D01*
X-1253596Y743144D01*
X-1251356Y740572D01*
X-1248712Y737647D01*
X-1246272Y735097D01*
X-1243888Y732767D01*
X-1241411Y730505D01*
X-1236639Y726540D01*
X-1229498Y721479D01*
X-1221926Y717068D01*
X-1213957Y713324D01*
X-1205625Y710263D01*
X-1196966Y707899D01*
X-1188013Y706249D01*
X-1187438Y706163D01*
X-1184265Y705446D01*
X-1181731Y704430D01*
X-1179891Y703134D01*
X-1178912Y702027D01*
X-1178169Y700517D01*
X-1177916Y698635D01*
X-1177913Y698430D01*
X-1178060Y696958D01*
X-1178543Y695405D01*
X-1179420Y693652D01*
X-1180750Y691580D01*
X-1182589Y689071D01*
X-1187477Y682858D01*
X-1195129Y673757D01*
X-1203315Y664686D01*
X-1211897Y655788D01*
X-1220737Y647203D01*
X-1229698Y639072D01*
X-1238641Y631538D01*
X-1240109Y630353D01*
X-1243630Y627532D01*
X-1246661Y625145D01*
X-1249286Y623135D01*
X-1251588Y621442D01*
X-1253649Y620007D01*
X-1255554Y618773D01*
X-1257384Y617681D01*
X-1259225Y616672D01*
X-1261157Y615687D01*
X-1262194Y615179D01*
X-1264733Y613985D01*
X-1266825Y613098D01*
X-1268648Y612445D01*
X-1270377Y611956D01*
X-1270546Y611914D01*
X-1276822Y610764D01*
X-1283021Y610371D01*
X-1289092Y610706D01*
X-1294986Y611739D01*
X-1300652Y613441D01*
X-1306038Y615783D01*
X-1311096Y618734D01*
X-1315774Y622267D01*
X-1320021Y626352D01*
X-1323788Y630958D01*
X-1327023Y636058D01*
X-1329676Y641621D01*
X-1331697Y647617D01*
X-1332725Y652381D01*
X-1333309Y658354D01*
X-1333163Y664376D01*
X-1332308Y670355D01*
X-1330762Y676202D01*
X-1328544Y681825D01*
X-1325675Y687135D01*
X-1322173Y692041D01*
X-1321202Y693207D01*
X-1319868Y694706D01*
X-1318477Y696122D01*
X-1316910Y697562D01*
X-1315049Y699134D01*
X-1312775Y700946D01*
X-1309969Y703104D01*
X-1307487Y705014D01*
X-1296862Y713701D01*
X-1286935Y722693D01*
X-1277661Y732031D01*
X-1268996Y741759D01*
X-1267383Y743568D01*
X-1265435Y745379D01*
X-1263628Y746540D01*
X-1261861Y747094D01*
X-1260034Y747086D01*
G36*
X-1260034Y747086D02*
G01*
X-1258046Y746561D01*
X-1257007Y746131D01*
X-1255932Y745487D01*
X-1254873Y744551D01*
X-1253596Y743144D01*
X-1251356Y740572D01*
X-1248712Y737647D01*
X-1246272Y735097D01*
X-1243888Y732767D01*
X-1241411Y730505D01*
X-1236639Y726540D01*
X-1229498Y721479D01*
X-1221926Y717068D01*
X-1213957Y713324D01*
X-1205625Y710263D01*
X-1196966Y707899D01*
X-1188013Y706249D01*
X-1187438Y706163D01*
X-1184265Y705446D01*
X-1181731Y704430D01*
X-1179891Y703134D01*
X-1178912Y702027D01*
X-1178169Y700517D01*
X-1177916Y698635D01*
X-1177913Y698430D01*
X-1178060Y696958D01*
X-1178543Y695405D01*
X-1179420Y693652D01*
X-1180750Y691580D01*
X-1182589Y689071D01*
X-1187477Y682858D01*
X-1195129Y673757D01*
X-1203315Y664686D01*
X-1211897Y655788D01*
X-1220737Y647203D01*
X-1229698Y639072D01*
X-1238641Y631538D01*
X-1240109Y630353D01*
X-1243630Y627532D01*
X-1246661Y625145D01*
X-1249286Y623135D01*
X-1251588Y621442D01*
X-1253649Y620007D01*
X-1255554Y618773D01*
X-1257384Y617681D01*
X-1259225Y616672D01*
X-1261157Y615687D01*
X-1262194Y615179D01*
X-1264733Y613985D01*
X-1266825Y613098D01*
X-1268648Y612445D01*
X-1270377Y611956D01*
X-1270546Y611914D01*
X-1276822Y610764D01*
X-1283021Y610371D01*
X-1289092Y610706D01*
X-1294986Y611739D01*
X-1300652Y613441D01*
X-1306038Y615783D01*
X-1311096Y618734D01*
X-1315774Y622267D01*
X-1320021Y626352D01*
X-1323788Y630958D01*
X-1327023Y636058D01*
X-1329676Y641621D01*
X-1331697Y647617D01*
X-1332725Y652381D01*
X-1333309Y658354D01*
X-1333163Y664376D01*
X-1332308Y670355D01*
X-1330762Y676202D01*
X-1328544Y681825D01*
X-1325675Y687135D01*
X-1322173Y692041D01*
X-1321202Y693207D01*
X-1319868Y694706D01*
X-1318477Y696122D01*
X-1316910Y697562D01*
X-1315049Y699134D01*
X-1312775Y700946D01*
X-1309969Y703104D01*
X-1307487Y705014D01*
X-1296862Y713701D01*
X-1286935Y722693D01*
X-1277661Y732031D01*
X-1268996Y741759D01*
X-1267383Y743568D01*
X-1265435Y745379D01*
X-1263628Y746540D01*
X-1261861Y747094D01*
X-1260034Y747086D01*
G37*
X-1133651Y873750D02*
X-1132989Y873596D01*
X-1132295Y873383D01*
X-1131665Y873168D01*
X-1130723Y872777D01*
X-1129864Y872280D01*
X-1129029Y871606D01*
X-1128159Y870679D01*
X-1127194Y869429D01*
X-1126076Y867780D01*
X-1124744Y865660D01*
X-1123139Y862996D01*
X-1121202Y859715D01*
X-1119434Y856708D01*
X-1117438Y853317D01*
X-1115405Y849867D01*
X-1113444Y846544D01*
X-1111666Y843534D01*
X-1110179Y841022D01*
X-1108641Y838399D01*
X-1107239Y835911D01*
X-1106198Y833895D01*
X-1105478Y832248D01*
X-1105040Y830865D01*
X-1104846Y829644D01*
X-1104856Y828481D01*
X-1105033Y827272D01*
X-1105426Y825825D01*
X-1106621Y823472D01*
X-1108328Y821558D01*
X-1110424Y820138D01*
X-1112788Y819264D01*
X-1115300Y818992D01*
X-1117837Y819375D01*
X-1120279Y820467D01*
X-1120675Y820718D01*
X-1121378Y821203D01*
X-1122012Y821740D01*
X-1122642Y822420D01*
X-1123335Y823333D01*
X-1124157Y824572D01*
X-1125175Y826226D01*
X-1126455Y828387D01*
X-1128064Y831146D01*
X-1128565Y832006D01*
X-1129810Y834122D01*
X-1130910Y835962D01*
X-1131803Y837424D01*
X-1132425Y838403D01*
X-1132713Y838797D01*
X-1132891Y838636D01*
X-1133337Y837861D01*
X-1133977Y836554D01*
X-1134758Y834830D01*
X-1135622Y832802D01*
X-1138670Y825699D01*
X-1145378Y811547D01*
X-1152753Y797824D01*
X-1160794Y784534D01*
X-1169501Y771675D01*
X-1170236Y770642D01*
X-1171351Y769049D01*
X-1172228Y767767D01*
X-1172791Y766905D01*
X-1172963Y766576D01*
X-1172930Y766572D01*
X-1172338Y766581D01*
X-1171103Y766630D01*
X-1169344Y766713D01*
X-1167181Y766823D01*
X-1164734Y766957D01*
X-1164319Y766980D01*
X-1161803Y767108D01*
X-1159505Y767207D01*
X-1157571Y767271D01*
X-1156142Y767296D01*
X-1155363Y767277D01*
X-1154348Y767069D01*
X-1152487Y766338D01*
X-1150645Y765267D01*
X-1149143Y764025D01*
X-1148603Y763366D01*
X-1147594Y761519D01*
X-1146868Y759338D01*
X-1146513Y757126D01*
X-1146614Y755187D01*
X-1147359Y753046D01*
X-1148647Y750916D01*
X-1150250Y749228D01*
X-1150404Y749107D01*
X-1151055Y748663D01*
X-1151805Y748280D01*
X-1152727Y747946D01*
X-1153887Y747654D01*
X-1155356Y747393D01*
X-1157203Y747156D01*
X-1159497Y746931D01*
X-1162307Y746711D01*
X-1165702Y746486D01*
X-1169752Y746246D01*
X-1174526Y745983D01*
X-1178015Y745791D01*
X-1181616Y745584D01*
X-1184921Y745386D01*
X-1187848Y745200D01*
X-1190314Y745033D01*
X-1192236Y744891D01*
X-1193532Y744778D01*
X-1194117Y744701D01*
X-1194687Y744605D01*
X-1196223Y744666D01*
X-1198012Y745016D01*
X-1199756Y745590D01*
X-1201162Y746318D01*
X-1201510Y746558D01*
X-1202185Y747050D01*
X-1202772Y747559D01*
X-1203298Y748155D01*
X-1203789Y748905D01*
X-1204268Y749878D01*
X-1204763Y751142D01*
X-1205298Y752766D01*
X-1205899Y754818D01*
X-1206591Y757367D01*
X-1207399Y760480D01*
X-1208350Y764226D01*
X-1209467Y768674D01*
X-1209895Y770379D01*
X-1211001Y774795D01*
X-1211931Y778529D01*
X-1212699Y781648D01*
X-1213320Y784215D01*
X-1213808Y786298D01*
X-1214177Y787961D01*
X-1214441Y789270D01*
X-1214614Y790289D01*
X-1214710Y791085D01*
X-1214744Y791722D01*
X-1214730Y792267D01*
X-1214681Y792784D01*
X-1214436Y794031D01*
X-1213424Y796384D01*
X-1211823Y798460D01*
X-1209768Y800106D01*
X-1207396Y801164D01*
X-1206389Y801392D01*
X-1203708Y801478D01*
X-1201072Y800877D01*
X-1198666Y799648D01*
X-1196676Y797847D01*
X-1196426Y797527D01*
X-1195987Y796824D01*
X-1195566Y795895D01*
X-1195109Y794603D01*
X-1194568Y792813D01*
X-1193890Y790388D01*
X-1193666Y789561D01*
X-1193011Y787077D01*
X-1192387Y784621D01*
X-1191855Y782438D01*
X-1191478Y780773D01*
X-1190741Y777284D01*
X-1189581Y778815D01*
X-1186405Y783118D01*
X-1180519Y791685D01*
X-1174763Y800817D01*
X-1169224Y810364D01*
X-1163984Y820178D01*
X-1159131Y830110D01*
X-1154747Y840009D01*
X-1154556Y840465D01*
X-1153544Y842882D01*
X-1152824Y844657D01*
X-1152391Y845872D01*
X-1152240Y846609D01*
X-1152367Y846947D01*
X-1152766Y846970D01*
X-1153432Y846756D01*
X-1154360Y846389D01*
X-1155155Y846090D01*
X-1156764Y845516D01*
X-1158815Y844807D01*
X-1161126Y844025D01*
X-1163515Y843234D01*
X-1163546Y843223D01*
X-1165977Y842432D01*
X-1167797Y841863D01*
X-1169142Y841485D01*
X-1170154Y841269D01*
X-1170971Y841186D01*
X-1171731Y841205D01*
X-1172575Y841298D01*
X-1172711Y841316D01*
X-1174817Y841874D01*
X-1176756Y842814D01*
X-1176813Y842851D01*
X-1178778Y844553D01*
X-1180183Y846648D01*
X-1181029Y849001D01*
X-1181314Y851475D01*
X-1181037Y853934D01*
X-1180199Y856243D01*
X-1178798Y858265D01*
X-1176834Y859864D01*
X-1176749Y859909D01*
X-1175954Y860246D01*
X-1174502Y860803D01*
X-1172472Y861554D01*
X-1169940Y862470D01*
X-1166982Y863524D01*
X-1163676Y864687D01*
X-1160098Y865934D01*
X-1156325Y867235D01*
X-1153318Y868267D01*
X-1149278Y869648D01*
X-1145878Y870797D01*
X-1143050Y871734D01*
X-1140727Y872474D01*
X-1138843Y873035D01*
X-1137331Y873433D01*
X-1136122Y873687D01*
X-1135151Y873813D01*
X-1134349Y873828D01*
X-1133651Y873750D01*
G36*
X-1133651Y873750D02*
G01*
X-1132989Y873596D01*
X-1132295Y873383D01*
X-1131665Y873168D01*
X-1130723Y872777D01*
X-1129864Y872280D01*
X-1129029Y871606D01*
X-1128159Y870679D01*
X-1127194Y869429D01*
X-1126076Y867780D01*
X-1124744Y865660D01*
X-1123139Y862996D01*
X-1121202Y859715D01*
X-1119434Y856708D01*
X-1117438Y853317D01*
X-1115405Y849867D01*
X-1113444Y846544D01*
X-1111666Y843534D01*
X-1110179Y841022D01*
X-1108641Y838399D01*
X-1107239Y835911D01*
X-1106198Y833895D01*
X-1105478Y832248D01*
X-1105040Y830865D01*
X-1104846Y829644D01*
X-1104856Y828481D01*
X-1105033Y827272D01*
X-1105426Y825825D01*
X-1106621Y823472D01*
X-1108328Y821558D01*
X-1110424Y820138D01*
X-1112788Y819264D01*
X-1115300Y818992D01*
X-1117837Y819375D01*
X-1120279Y820467D01*
X-1120675Y820718D01*
X-1121378Y821203D01*
X-1122012Y821740D01*
X-1122642Y822420D01*
X-1123335Y823333D01*
X-1124157Y824572D01*
X-1125175Y826226D01*
X-1126455Y828387D01*
X-1128064Y831146D01*
X-1128565Y832006D01*
X-1129810Y834122D01*
X-1130910Y835962D01*
X-1131803Y837424D01*
X-1132425Y838403D01*
X-1132713Y838797D01*
X-1132891Y838636D01*
X-1133337Y837861D01*
X-1133977Y836554D01*
X-1134758Y834830D01*
X-1135622Y832802D01*
X-1138670Y825699D01*
X-1145378Y811547D01*
X-1152753Y797824D01*
X-1160794Y784534D01*
X-1169501Y771675D01*
X-1170236Y770642D01*
X-1171351Y769049D01*
X-1172228Y767767D01*
X-1172791Y766905D01*
X-1172963Y766576D01*
X-1172930Y766572D01*
X-1172338Y766581D01*
X-1171103Y766630D01*
X-1169344Y766713D01*
X-1167181Y766823D01*
X-1164734Y766957D01*
X-1164319Y766980D01*
X-1161803Y767108D01*
X-1159505Y767207D01*
X-1157571Y767271D01*
X-1156142Y767296D01*
X-1155363Y767277D01*
X-1154348Y767069D01*
X-1152487Y766338D01*
X-1150645Y765267D01*
X-1149143Y764025D01*
X-1148603Y763366D01*
X-1147594Y761519D01*
X-1146868Y759338D01*
X-1146513Y757126D01*
X-1146614Y755187D01*
X-1147359Y753046D01*
X-1148647Y750916D01*
X-1150250Y749228D01*
X-1150404Y749107D01*
X-1151055Y748663D01*
X-1151805Y748280D01*
X-1152727Y747946D01*
X-1153887Y747654D01*
X-1155356Y747393D01*
X-1157203Y747156D01*
X-1159497Y746931D01*
X-1162307Y746711D01*
X-1165702Y746486D01*
X-1169752Y746246D01*
X-1174526Y745983D01*
X-1178015Y745791D01*
X-1181616Y745584D01*
X-1184921Y745386D01*
X-1187848Y745200D01*
X-1190314Y745033D01*
X-1192236Y744891D01*
X-1193532Y744778D01*
X-1194117Y744701D01*
X-1194687Y744605D01*
X-1196223Y744666D01*
X-1198012Y745016D01*
X-1199756Y745590D01*
X-1201162Y746318D01*
X-1201510Y746558D01*
X-1202185Y747050D01*
X-1202772Y747559D01*
X-1203298Y748155D01*
X-1203789Y748905D01*
X-1204268Y749878D01*
X-1204763Y751142D01*
X-1205298Y752766D01*
X-1205899Y754818D01*
X-1206591Y757367D01*
X-1207399Y760480D01*
X-1208350Y764226D01*
X-1209467Y768674D01*
X-1209895Y770379D01*
X-1211001Y774795D01*
X-1211931Y778529D01*
X-1212699Y781648D01*
X-1213320Y784215D01*
X-1213808Y786298D01*
X-1214177Y787961D01*
X-1214441Y789270D01*
X-1214614Y790289D01*
X-1214710Y791085D01*
X-1214744Y791722D01*
X-1214730Y792267D01*
X-1214681Y792784D01*
X-1214436Y794031D01*
X-1213424Y796384D01*
X-1211823Y798460D01*
X-1209768Y800106D01*
X-1207396Y801164D01*
X-1206389Y801392D01*
X-1203708Y801478D01*
X-1201072Y800877D01*
X-1198666Y799648D01*
X-1196676Y797847D01*
X-1196426Y797527D01*
X-1195987Y796824D01*
X-1195566Y795895D01*
X-1195109Y794603D01*
X-1194568Y792813D01*
X-1193890Y790388D01*
X-1193666Y789561D01*
X-1193011Y787077D01*
X-1192387Y784621D01*
X-1191855Y782438D01*
X-1191478Y780773D01*
X-1190741Y777284D01*
X-1189581Y778815D01*
X-1186405Y783118D01*
X-1180519Y791685D01*
X-1174763Y800817D01*
X-1169224Y810364D01*
X-1163984Y820178D01*
X-1159131Y830110D01*
X-1154747Y840009D01*
X-1154556Y840465D01*
X-1153544Y842882D01*
X-1152824Y844657D01*
X-1152391Y845872D01*
X-1152240Y846609D01*
X-1152367Y846947D01*
X-1152766Y846970D01*
X-1153432Y846756D01*
X-1154360Y846389D01*
X-1155155Y846090D01*
X-1156764Y845516D01*
X-1158815Y844807D01*
X-1161126Y844025D01*
X-1163515Y843234D01*
X-1163546Y843223D01*
X-1165977Y842432D01*
X-1167797Y841863D01*
X-1169142Y841485D01*
X-1170154Y841269D01*
X-1170971Y841186D01*
X-1171731Y841205D01*
X-1172575Y841298D01*
X-1172711Y841316D01*
X-1174817Y841874D01*
X-1176756Y842814D01*
X-1176813Y842851D01*
X-1178778Y844553D01*
X-1180183Y846648D01*
X-1181029Y849001D01*
X-1181314Y851475D01*
X-1181037Y853934D01*
X-1180199Y856243D01*
X-1178798Y858265D01*
X-1176834Y859864D01*
X-1176749Y859909D01*
X-1175954Y860246D01*
X-1174502Y860803D01*
X-1172472Y861554D01*
X-1169940Y862470D01*
X-1166982Y863524D01*
X-1163676Y864687D01*
X-1160098Y865934D01*
X-1156325Y867235D01*
X-1153318Y868267D01*
X-1149278Y869648D01*
X-1145878Y870797D01*
X-1143050Y871734D01*
X-1140727Y872474D01*
X-1138843Y873035D01*
X-1137331Y873433D01*
X-1136122Y873687D01*
X-1135151Y873813D01*
X-1134349Y873828D01*
X-1133651Y873750D01*
G37*
%TO.C,MH2*%
X1341551Y691738D02*
X1343837Y690814D01*
X1346514Y689390D01*
X1349675Y687444D01*
X1354032Y684690D01*
X1362028Y679945D01*
X1370128Y675552D01*
X1378504Y671423D01*
X1387328Y667471D01*
X1396774Y663610D01*
X1396816Y663593D01*
X1399356Y662569D01*
X1401857Y661508D01*
X1404144Y660491D01*
X1406039Y659595D01*
X1407367Y658899D01*
X1409384Y657663D01*
X1414251Y654052D01*
X1418655Y649858D01*
X1422542Y645161D01*
X1425860Y640039D01*
X1428553Y634573D01*
X1430568Y628841D01*
X1431851Y622923D01*
X1431909Y622525D01*
X1432365Y616576D01*
X1432087Y610571D01*
X1431106Y604613D01*
X1429450Y598807D01*
X1427149Y593253D01*
X1424232Y588058D01*
X1420727Y583323D01*
X1420095Y582591D01*
X1415617Y578080D01*
X1410706Y574222D01*
X1405399Y571036D01*
X1399737Y568539D01*
X1393758Y566748D01*
X1387499Y565681D01*
X1381000Y565355D01*
X1377625Y565557D01*
X1373466Y566213D01*
X1368857Y567336D01*
X1363744Y568940D01*
X1358074Y571037D01*
X1352515Y573278D01*
X1339133Y579107D01*
X1326046Y585425D01*
X1313349Y592180D01*
X1301132Y599321D01*
X1289489Y606800D01*
X1278512Y614563D01*
X1278484Y614584D01*
X1275748Y616747D01*
X1273691Y618687D01*
X1272262Y620485D01*
X1271407Y622223D01*
X1271073Y623981D01*
X1271210Y625840D01*
X1271317Y626346D01*
X1272043Y628238D01*
X1273292Y629980D01*
X1275131Y631632D01*
X1277627Y633256D01*
X1280844Y634916D01*
X1285001Y637002D01*
X1292492Y641423D01*
X1299601Y646494D01*
X1306253Y652155D01*
X1312373Y658344D01*
X1317887Y665001D01*
X1320056Y667976D01*
X1323036Y672481D01*
X1325810Y677245D01*
X1328538Y682530D01*
X1328578Y682613D01*
X1329825Y685097D01*
X1330856Y686978D01*
X1331761Y688381D01*
X1332630Y689431D01*
X1333554Y690255D01*
X1334622Y690975D01*
X1336102Y691725D01*
X1337777Y692171D01*
X1339562Y692183D01*
X1341551Y691738D01*
G36*
X1341551Y691738D02*
G01*
X1343837Y690814D01*
X1346514Y689390D01*
X1349675Y687444D01*
X1354032Y684690D01*
X1362028Y679945D01*
X1370128Y675552D01*
X1378504Y671423D01*
X1387328Y667471D01*
X1396774Y663610D01*
X1396816Y663593D01*
X1399356Y662569D01*
X1401857Y661508D01*
X1404144Y660491D01*
X1406039Y659595D01*
X1407367Y658899D01*
X1409384Y657663D01*
X1414251Y654052D01*
X1418655Y649858D01*
X1422542Y645161D01*
X1425860Y640039D01*
X1428553Y634573D01*
X1430568Y628841D01*
X1431851Y622923D01*
X1431909Y622525D01*
X1432365Y616576D01*
X1432087Y610571D01*
X1431106Y604613D01*
X1429450Y598807D01*
X1427149Y593253D01*
X1424232Y588058D01*
X1420727Y583323D01*
X1420095Y582591D01*
X1415617Y578080D01*
X1410706Y574222D01*
X1405399Y571036D01*
X1399737Y568539D01*
X1393758Y566748D01*
X1387499Y565681D01*
X1381000Y565355D01*
X1377625Y565557D01*
X1373466Y566213D01*
X1368857Y567336D01*
X1363744Y568940D01*
X1358074Y571037D01*
X1352515Y573278D01*
X1339133Y579107D01*
X1326046Y585425D01*
X1313349Y592180D01*
X1301132Y599321D01*
X1289489Y606800D01*
X1278512Y614563D01*
X1278484Y614584D01*
X1275748Y616747D01*
X1273691Y618687D01*
X1272262Y620485D01*
X1271407Y622223D01*
X1271073Y623981D01*
X1271210Y625840D01*
X1271317Y626346D01*
X1272043Y628238D01*
X1273292Y629980D01*
X1275131Y631632D01*
X1277627Y633256D01*
X1280844Y634916D01*
X1285001Y637002D01*
X1292492Y641423D01*
X1299601Y646494D01*
X1306253Y652155D01*
X1312373Y658344D01*
X1317887Y665001D01*
X1320056Y667976D01*
X1323036Y672481D01*
X1325810Y677245D01*
X1328538Y682530D01*
X1328578Y682613D01*
X1329825Y685097D01*
X1330856Y686978D01*
X1331761Y688381D01*
X1332630Y689431D01*
X1333554Y690255D01*
X1334622Y690975D01*
X1336102Y691725D01*
X1337777Y692171D01*
X1339562Y692183D01*
X1341551Y691738D01*
G37*
X1128271Y912265D02*
X1134174Y911180D01*
X1139922Y909380D01*
X1145434Y906910D01*
X1150628Y903812D01*
X1155422Y900130D01*
X1159735Y895908D01*
X1163486Y891190D01*
X1164339Y889935D01*
X1165413Y888239D01*
X1166390Y886512D01*
X1167343Y884609D01*
X1168341Y882387D01*
X1169456Y879701D01*
X1170757Y876409D01*
X1171909Y873497D01*
X1177330Y860889D01*
X1183238Y848868D01*
X1189658Y837379D01*
X1196620Y826369D01*
X1197915Y824320D01*
X1199119Y821948D01*
X1199737Y819890D01*
X1199782Y818039D01*
X1199271Y816285D01*
X1198218Y814519D01*
X1197518Y813639D01*
X1196603Y812783D01*
X1195412Y812023D01*
X1193708Y811183D01*
X1190618Y809739D01*
X1187077Y808004D01*
X1183953Y806362D01*
X1181056Y804712D01*
X1178199Y802954D01*
X1173073Y799460D01*
X1166239Y793991D01*
X1159912Y787928D01*
X1154116Y781299D01*
X1148877Y774134D01*
X1144218Y766462D01*
X1140164Y758311D01*
X1139923Y757782D01*
X1138360Y754929D01*
X1136684Y752774D01*
X1134931Y751362D01*
X1133597Y750726D01*
X1131941Y750428D01*
X1130062Y750704D01*
X1129864Y750757D01*
X1128490Y751304D01*
X1127130Y752197D01*
X1125686Y753523D01*
X1124061Y755372D01*
X1122157Y757831D01*
X1117532Y764243D01*
X1110892Y774107D01*
X1104429Y784476D01*
X1098241Y795178D01*
X1092425Y806042D01*
X1087079Y816897D01*
X1082302Y827571D01*
X1081567Y829308D01*
X1079826Y833470D01*
X1078368Y837042D01*
X1077159Y840120D01*
X1076166Y842799D01*
X1075355Y845176D01*
X1074694Y847347D01*
X1074148Y849408D01*
X1073685Y851454D01*
X1073271Y853584D01*
X1073069Y854721D01*
X1072621Y857490D01*
X1072345Y859746D01*
X1072220Y861678D01*
X1072227Y863474D01*
X1072233Y863649D01*
X1072857Y869999D01*
X1074188Y876066D01*
X1076183Y881810D01*
X1078801Y887191D01*
X1081999Y892168D01*
X1085735Y896700D01*
X1089966Y900748D01*
X1094652Y904271D01*
X1099748Y907228D01*
X1105215Y909579D01*
X1111008Y911283D01*
X1117087Y912300D01*
X1123409Y912590D01*
X1128271Y912265D01*
G36*
X1128271Y912265D02*
G01*
X1134174Y911180D01*
X1139922Y909380D01*
X1145434Y906910D01*
X1150628Y903812D01*
X1155422Y900130D01*
X1159735Y895908D01*
X1163486Y891190D01*
X1164339Y889935D01*
X1165413Y888239D01*
X1166390Y886512D01*
X1167343Y884609D01*
X1168341Y882387D01*
X1169456Y879701D01*
X1170757Y876409D01*
X1171909Y873497D01*
X1177330Y860889D01*
X1183238Y848868D01*
X1189658Y837379D01*
X1196620Y826369D01*
X1197915Y824320D01*
X1199119Y821948D01*
X1199737Y819890D01*
X1199782Y818039D01*
X1199271Y816285D01*
X1198218Y814519D01*
X1197518Y813639D01*
X1196603Y812783D01*
X1195412Y812023D01*
X1193708Y811183D01*
X1190618Y809739D01*
X1187077Y808004D01*
X1183953Y806362D01*
X1181056Y804712D01*
X1178199Y802954D01*
X1173073Y799460D01*
X1166239Y793991D01*
X1159912Y787928D01*
X1154116Y781299D01*
X1148877Y774134D01*
X1144218Y766462D01*
X1140164Y758311D01*
X1139923Y757782D01*
X1138360Y754929D01*
X1136684Y752774D01*
X1134931Y751362D01*
X1133597Y750726D01*
X1131941Y750428D01*
X1130062Y750704D01*
X1129864Y750757D01*
X1128490Y751304D01*
X1127130Y752197D01*
X1125686Y753523D01*
X1124061Y755372D01*
X1122157Y757831D01*
X1117532Y764243D01*
X1110892Y774107D01*
X1104429Y784476D01*
X1098241Y795178D01*
X1092425Y806042D01*
X1087079Y816897D01*
X1082302Y827571D01*
X1081567Y829308D01*
X1079826Y833470D01*
X1078368Y837042D01*
X1077159Y840120D01*
X1076166Y842799D01*
X1075355Y845176D01*
X1074694Y847347D01*
X1074148Y849408D01*
X1073685Y851454D01*
X1073271Y853584D01*
X1073069Y854721D01*
X1072621Y857490D01*
X1072345Y859746D01*
X1072220Y861678D01*
X1072227Y863474D01*
X1072233Y863649D01*
X1072857Y869999D01*
X1074188Y876066D01*
X1076183Y881810D01*
X1078801Y887191D01*
X1081999Y892168D01*
X1085735Y896700D01*
X1089966Y900748D01*
X1094652Y904271D01*
X1099748Y907228D01*
X1105215Y909579D01*
X1111008Y911283D01*
X1117087Y912300D01*
X1123409Y912590D01*
X1128271Y912265D01*
G37*
X1210923Y758494D02*
X1211141Y758417D01*
X1211525Y758253D01*
X1211952Y758020D01*
X1212457Y757685D01*
X1213074Y757216D01*
X1213838Y756579D01*
X1214783Y755742D01*
X1215943Y754672D01*
X1217354Y753336D01*
X1219050Y751702D01*
X1221065Y749736D01*
X1223434Y747405D01*
X1226191Y744677D01*
X1229371Y741519D01*
X1233009Y737899D01*
X1237138Y733782D01*
X1241794Y729136D01*
X1244425Y726511D01*
X1248944Y722002D01*
X1252949Y717999D01*
X1256473Y714467D01*
X1259546Y711370D01*
X1262201Y708673D01*
X1264466Y706340D01*
X1266376Y704336D01*
X1267959Y702623D01*
X1269249Y701168D01*
X1270275Y699934D01*
X1271069Y698885D01*
X1271663Y697986D01*
X1272088Y697201D01*
X1272375Y696493D01*
X1272555Y695829D01*
X1272658Y695171D01*
X1272719Y694484D01*
X1272765Y693733D01*
X1272738Y691583D01*
X1272094Y688567D01*
X1270775Y685880D01*
X1268839Y683603D01*
X1266341Y681812D01*
X1263338Y680588D01*
X1262440Y680388D01*
X1259879Y680251D01*
X1257170Y680623D01*
X1254613Y681476D01*
X1254238Y681670D01*
X1253739Y681990D01*
X1253122Y682449D01*
X1252354Y683081D01*
X1251399Y683918D01*
X1250225Y684993D01*
X1248797Y686338D01*
X1247082Y687986D01*
X1245045Y689970D01*
X1242653Y692322D01*
X1239872Y695075D01*
X1236667Y698261D01*
X1233006Y701912D01*
X1228853Y706063D01*
X1224176Y710745D01*
X1223142Y711780D01*
X1218440Y716494D01*
X1214268Y720686D01*
X1210596Y724387D01*
X1207396Y727626D01*
X1204638Y730434D01*
X1202293Y732841D01*
X1200332Y734876D01*
X1198726Y736572D01*
X1197446Y737956D01*
X1196463Y739060D01*
X1195748Y739913D01*
X1195272Y740546D01*
X1195005Y740989D01*
X1194944Y741119D01*
X1194492Y742234D01*
X1194221Y743372D01*
X1194090Y744790D01*
X1194056Y746744D01*
X1194065Y748079D01*
X1194136Y749521D01*
X1194320Y750593D01*
X1194667Y751544D01*
X1195225Y752625D01*
X1196845Y754927D01*
X1199110Y756946D01*
X1201757Y758352D01*
X1204679Y759105D01*
X1207770Y759166D01*
X1210923Y758494D01*
G36*
X1210923Y758494D02*
G01*
X1211141Y758417D01*
X1211525Y758253D01*
X1211952Y758020D01*
X1212457Y757685D01*
X1213074Y757216D01*
X1213838Y756579D01*
X1214783Y755742D01*
X1215943Y754672D01*
X1217354Y753336D01*
X1219050Y751702D01*
X1221065Y749736D01*
X1223434Y747405D01*
X1226191Y744677D01*
X1229371Y741519D01*
X1233009Y737899D01*
X1237138Y733782D01*
X1241794Y729136D01*
X1244425Y726511D01*
X1248944Y722002D01*
X1252949Y717999D01*
X1256473Y714467D01*
X1259546Y711370D01*
X1262201Y708673D01*
X1264466Y706340D01*
X1266376Y704336D01*
X1267959Y702623D01*
X1269249Y701168D01*
X1270275Y699934D01*
X1271069Y698885D01*
X1271663Y697986D01*
X1272088Y697201D01*
X1272375Y696493D01*
X1272555Y695829D01*
X1272658Y695171D01*
X1272719Y694484D01*
X1272765Y693733D01*
X1272738Y691583D01*
X1272094Y688567D01*
X1270775Y685880D01*
X1268839Y683603D01*
X1266341Y681812D01*
X1263338Y680588D01*
X1262440Y680388D01*
X1259879Y680251D01*
X1257170Y680623D01*
X1254613Y681476D01*
X1254238Y681670D01*
X1253739Y681990D01*
X1253122Y682449D01*
X1252354Y683081D01*
X1251399Y683918D01*
X1250225Y684993D01*
X1248797Y686338D01*
X1247082Y687986D01*
X1245045Y689970D01*
X1242653Y692322D01*
X1239872Y695075D01*
X1236667Y698261D01*
X1233006Y701912D01*
X1228853Y706063D01*
X1224176Y710745D01*
X1223142Y711780D01*
X1218440Y716494D01*
X1214268Y720686D01*
X1210596Y724387D01*
X1207396Y727626D01*
X1204638Y730434D01*
X1202293Y732841D01*
X1200332Y734876D01*
X1198726Y736572D01*
X1197446Y737956D01*
X1196463Y739060D01*
X1195748Y739913D01*
X1195272Y740546D01*
X1195005Y740989D01*
X1194944Y741119D01*
X1194492Y742234D01*
X1194221Y743372D01*
X1194090Y744790D01*
X1194056Y746744D01*
X1194065Y748079D01*
X1194136Y749521D01*
X1194320Y750593D01*
X1194667Y751544D01*
X1195225Y752625D01*
X1196845Y754927D01*
X1199110Y756946D01*
X1201757Y758352D01*
X1204679Y759105D01*
X1207770Y759166D01*
X1210923Y758494D01*
G37*
%TO.C,MH4*%
X1123676Y-782485D02*
X1124182Y-782593D01*
X1126074Y-783318D01*
X1127816Y-784568D01*
X1129467Y-786407D01*
X1131092Y-788902D01*
X1132752Y-792119D01*
X1134838Y-796276D01*
X1139259Y-803768D01*
X1144330Y-810877D01*
X1149991Y-817529D01*
X1156180Y-823649D01*
X1162837Y-829162D01*
X1165811Y-831331D01*
X1170317Y-834312D01*
X1175081Y-837085D01*
X1180366Y-839813D01*
X1180449Y-839854D01*
X1182933Y-841101D01*
X1184813Y-842132D01*
X1186217Y-843037D01*
X1187267Y-843906D01*
X1188091Y-844829D01*
X1188811Y-845897D01*
X1189560Y-847378D01*
X1190007Y-849053D01*
X1190019Y-850838D01*
X1189574Y-852827D01*
X1188650Y-855113D01*
X1187226Y-857789D01*
X1185280Y-860950D01*
X1182526Y-865308D01*
X1177781Y-873304D01*
X1173388Y-881403D01*
X1169259Y-889779D01*
X1165307Y-898604D01*
X1161446Y-908050D01*
X1161429Y-908091D01*
X1160405Y-910631D01*
X1159344Y-913133D01*
X1158327Y-915419D01*
X1157431Y-917315D01*
X1156735Y-918643D01*
X1155499Y-920660D01*
X1151888Y-925526D01*
X1147694Y-929930D01*
X1142997Y-933818D01*
X1137875Y-937135D01*
X1132409Y-939829D01*
X1126677Y-941844D01*
X1120759Y-943127D01*
X1120361Y-943185D01*
X1114412Y-943640D01*
X1108407Y-943363D01*
X1102450Y-942382D01*
X1096643Y-940726D01*
X1091089Y-938425D01*
X1085894Y-935507D01*
X1081159Y-932003D01*
X1080427Y-931370D01*
X1075915Y-926892D01*
X1072058Y-921981D01*
X1068872Y-916675D01*
X1066375Y-911013D01*
X1064584Y-905033D01*
X1063517Y-898775D01*
X1063191Y-892276D01*
X1063393Y-888901D01*
X1064049Y-884741D01*
X1065172Y-880132D01*
X1066776Y-875019D01*
X1068873Y-869350D01*
X1071113Y-863790D01*
X1076943Y-850408D01*
X1083261Y-837322D01*
X1090016Y-824624D01*
X1097157Y-812408D01*
X1104635Y-800765D01*
X1112399Y-789787D01*
X1112420Y-789759D01*
X1114583Y-787023D01*
X1116523Y-784967D01*
X1118321Y-783537D01*
X1120059Y-782682D01*
X1121817Y-782349D01*
X1123676Y-782485D01*
G36*
X1123676Y-782485D02*
G01*
X1124182Y-782593D01*
X1126074Y-783318D01*
X1127816Y-784568D01*
X1129467Y-786407D01*
X1131092Y-788902D01*
X1132752Y-792119D01*
X1134838Y-796276D01*
X1139259Y-803768D01*
X1144330Y-810877D01*
X1149991Y-817529D01*
X1156180Y-823649D01*
X1162837Y-829162D01*
X1165811Y-831331D01*
X1170317Y-834312D01*
X1175081Y-837085D01*
X1180366Y-839813D01*
X1180449Y-839854D01*
X1182933Y-841101D01*
X1184813Y-842132D01*
X1186217Y-843037D01*
X1187267Y-843906D01*
X1188091Y-844829D01*
X1188811Y-845897D01*
X1189560Y-847378D01*
X1190007Y-849053D01*
X1190019Y-850838D01*
X1189574Y-852827D01*
X1188650Y-855113D01*
X1187226Y-857789D01*
X1185280Y-860950D01*
X1182526Y-865308D01*
X1177781Y-873304D01*
X1173388Y-881403D01*
X1169259Y-889779D01*
X1165307Y-898604D01*
X1161446Y-908050D01*
X1161429Y-908091D01*
X1160405Y-910631D01*
X1159344Y-913133D01*
X1158327Y-915419D01*
X1157431Y-917315D01*
X1156735Y-918643D01*
X1155499Y-920660D01*
X1151888Y-925526D01*
X1147694Y-929930D01*
X1142997Y-933818D01*
X1137875Y-937135D01*
X1132409Y-939829D01*
X1126677Y-941844D01*
X1120759Y-943127D01*
X1120361Y-943185D01*
X1114412Y-943640D01*
X1108407Y-943363D01*
X1102450Y-942382D01*
X1096643Y-940726D01*
X1091089Y-938425D01*
X1085894Y-935507D01*
X1081159Y-932003D01*
X1080427Y-931370D01*
X1075915Y-926892D01*
X1072058Y-921981D01*
X1068872Y-916675D01*
X1066375Y-911013D01*
X1064584Y-905033D01*
X1063517Y-898775D01*
X1063191Y-892276D01*
X1063393Y-888901D01*
X1064049Y-884741D01*
X1065172Y-880132D01*
X1066776Y-875019D01*
X1068873Y-869350D01*
X1071113Y-863790D01*
X1076943Y-850408D01*
X1083261Y-837322D01*
X1090016Y-824624D01*
X1097157Y-812408D01*
X1104635Y-800765D01*
X1112399Y-789787D01*
X1112420Y-789759D01*
X1114583Y-787023D01*
X1116523Y-784967D01*
X1118321Y-783537D01*
X1120059Y-782682D01*
X1121817Y-782349D01*
X1123676Y-782485D01*
G37*
X1244422Y-706699D02*
X1245865Y-706770D01*
X1246936Y-706954D01*
X1247888Y-707301D01*
X1248969Y-707859D01*
X1251270Y-709479D01*
X1253289Y-711744D01*
X1254695Y-714391D01*
X1255449Y-717313D01*
X1255509Y-720404D01*
X1254837Y-723557D01*
X1254760Y-723775D01*
X1254596Y-724159D01*
X1254363Y-724587D01*
X1254028Y-725091D01*
X1253559Y-725708D01*
X1252922Y-726472D01*
X1252085Y-727417D01*
X1251016Y-728578D01*
X1249680Y-729988D01*
X1248045Y-731684D01*
X1246079Y-733699D01*
X1243748Y-736068D01*
X1241021Y-738825D01*
X1237863Y-742005D01*
X1234242Y-745643D01*
X1230125Y-749772D01*
X1225480Y-754429D01*
X1222855Y-757059D01*
X1218345Y-761578D01*
X1214342Y-765584D01*
X1210810Y-769107D01*
X1207714Y-772181D01*
X1205017Y-774835D01*
X1202684Y-777101D01*
X1200679Y-779010D01*
X1198967Y-780594D01*
X1197512Y-781883D01*
X1196277Y-782909D01*
X1195229Y-783704D01*
X1194329Y-784298D01*
X1193544Y-784722D01*
X1192837Y-785009D01*
X1192172Y-785189D01*
X1191514Y-785293D01*
X1190828Y-785353D01*
X1190076Y-785400D01*
X1187926Y-785372D01*
X1184910Y-784728D01*
X1182223Y-783410D01*
X1179946Y-781473D01*
X1178156Y-778975D01*
X1176932Y-775973D01*
X1176731Y-775075D01*
X1176594Y-772513D01*
X1176967Y-769804D01*
X1177819Y-767247D01*
X1178014Y-766872D01*
X1178333Y-766373D01*
X1178792Y-765757D01*
X1179424Y-764988D01*
X1180262Y-764034D01*
X1181336Y-762859D01*
X1182682Y-761432D01*
X1184330Y-759716D01*
X1186313Y-757680D01*
X1188665Y-755287D01*
X1191418Y-752506D01*
X1194604Y-749302D01*
X1198256Y-745640D01*
X1202406Y-741487D01*
X1207088Y-736810D01*
X1208124Y-735776D01*
X1212838Y-731074D01*
X1217030Y-726902D01*
X1220730Y-723230D01*
X1223969Y-720030D01*
X1226777Y-717272D01*
X1229184Y-714927D01*
X1231220Y-712966D01*
X1232915Y-711360D01*
X1234299Y-710080D01*
X1235403Y-709098D01*
X1236257Y-708383D01*
X1236890Y-707906D01*
X1237333Y-707640D01*
X1237463Y-707578D01*
X1238577Y-707126D01*
X1239715Y-706856D01*
X1241133Y-706724D01*
X1243087Y-706690D01*
X1244422Y-706699D01*
G36*
X1244422Y-706699D02*
G01*
X1245865Y-706770D01*
X1246936Y-706954D01*
X1247888Y-707301D01*
X1248969Y-707859D01*
X1251270Y-709479D01*
X1253289Y-711744D01*
X1254695Y-714391D01*
X1255449Y-717313D01*
X1255509Y-720404D01*
X1254837Y-723557D01*
X1254760Y-723775D01*
X1254596Y-724159D01*
X1254363Y-724587D01*
X1254028Y-725091D01*
X1253559Y-725708D01*
X1252922Y-726472D01*
X1252085Y-727417D01*
X1251016Y-728578D01*
X1249680Y-729988D01*
X1248045Y-731684D01*
X1246079Y-733699D01*
X1243748Y-736068D01*
X1241021Y-738825D01*
X1237863Y-742005D01*
X1234242Y-745643D01*
X1230125Y-749772D01*
X1225480Y-754429D01*
X1222855Y-757059D01*
X1218345Y-761578D01*
X1214342Y-765584D01*
X1210810Y-769107D01*
X1207714Y-772181D01*
X1205017Y-774835D01*
X1202684Y-777101D01*
X1200679Y-779010D01*
X1198967Y-780594D01*
X1197512Y-781883D01*
X1196277Y-782909D01*
X1195229Y-783704D01*
X1194329Y-784298D01*
X1193544Y-784722D01*
X1192837Y-785009D01*
X1192172Y-785189D01*
X1191514Y-785293D01*
X1190828Y-785353D01*
X1190076Y-785400D01*
X1187926Y-785372D01*
X1184910Y-784728D01*
X1182223Y-783410D01*
X1179946Y-781473D01*
X1178156Y-778975D01*
X1176932Y-775973D01*
X1176731Y-775075D01*
X1176594Y-772513D01*
X1176967Y-769804D01*
X1177819Y-767247D01*
X1178014Y-766872D01*
X1178333Y-766373D01*
X1178792Y-765757D01*
X1179424Y-764988D01*
X1180262Y-764034D01*
X1181336Y-762859D01*
X1182682Y-761432D01*
X1184330Y-759716D01*
X1186313Y-757680D01*
X1188665Y-755287D01*
X1191418Y-752506D01*
X1194604Y-749302D01*
X1198256Y-745640D01*
X1202406Y-741487D01*
X1207088Y-736810D01*
X1208124Y-735776D01*
X1212838Y-731074D01*
X1217030Y-726902D01*
X1220730Y-723230D01*
X1223969Y-720030D01*
X1226777Y-717272D01*
X1229184Y-714927D01*
X1231220Y-712966D01*
X1232915Y-711360D01*
X1234299Y-710080D01*
X1235403Y-709098D01*
X1236257Y-708383D01*
X1236890Y-707906D01*
X1237333Y-707640D01*
X1237463Y-707578D01*
X1238577Y-707126D01*
X1239715Y-706856D01*
X1241133Y-706724D01*
X1243087Y-706690D01*
X1244422Y-706699D01*
G37*
X1361452Y-583522D02*
X1361627Y-583529D01*
X1367976Y-584153D01*
X1374043Y-585484D01*
X1379788Y-587479D01*
X1385168Y-590096D01*
X1390145Y-593294D01*
X1394678Y-597030D01*
X1398726Y-601261D01*
X1402248Y-605947D01*
X1405205Y-611044D01*
X1407556Y-616510D01*
X1409261Y-622304D01*
X1410278Y-628382D01*
X1410568Y-634704D01*
X1410242Y-639566D01*
X1409157Y-645469D01*
X1407358Y-651217D01*
X1404887Y-656729D01*
X1401789Y-661923D01*
X1398108Y-666717D01*
X1393886Y-671031D01*
X1389167Y-674781D01*
X1387913Y-675634D01*
X1386217Y-676708D01*
X1384490Y-677686D01*
X1382587Y-678638D01*
X1380365Y-679637D01*
X1377679Y-680751D01*
X1374387Y-682053D01*
X1371475Y-683204D01*
X1358866Y-688626D01*
X1346846Y-694533D01*
X1335357Y-700954D01*
X1324347Y-707916D01*
X1322298Y-709211D01*
X1319925Y-710414D01*
X1317868Y-711032D01*
X1316017Y-711078D01*
X1314263Y-710567D01*
X1312497Y-709513D01*
X1311616Y-708813D01*
X1310761Y-707898D01*
X1310001Y-706707D01*
X1309161Y-705003D01*
X1307717Y-701913D01*
X1305982Y-698373D01*
X1304339Y-695248D01*
X1302689Y-692352D01*
X1300932Y-689494D01*
X1297438Y-684368D01*
X1291969Y-677535D01*
X1285905Y-671208D01*
X1279277Y-665412D01*
X1272112Y-660172D01*
X1264440Y-655514D01*
X1256289Y-651460D01*
X1255760Y-651218D01*
X1252907Y-649655D01*
X1250751Y-647979D01*
X1249340Y-646227D01*
X1248703Y-644893D01*
X1248406Y-643237D01*
X1248681Y-641357D01*
X1248735Y-641159D01*
X1249282Y-639785D01*
X1250174Y-638425D01*
X1251501Y-636982D01*
X1253350Y-635357D01*
X1255809Y-633452D01*
X1262221Y-628827D01*
X1272085Y-622188D01*
X1282454Y-615725D01*
X1293156Y-609536D01*
X1304020Y-603720D01*
X1314875Y-598375D01*
X1325548Y-593597D01*
X1327286Y-592863D01*
X1331448Y-591122D01*
X1335020Y-589663D01*
X1338097Y-588454D01*
X1340776Y-587461D01*
X1343154Y-586650D01*
X1345324Y-585989D01*
X1347385Y-585444D01*
X1349432Y-584981D01*
X1351561Y-584567D01*
X1352698Y-584364D01*
X1355468Y-583917D01*
X1357724Y-583641D01*
X1359656Y-583515D01*
X1361452Y-583522D01*
G36*
X1361452Y-583522D02*
G01*
X1361627Y-583529D01*
X1367976Y-584153D01*
X1374043Y-585484D01*
X1379788Y-587479D01*
X1385168Y-590096D01*
X1390145Y-593294D01*
X1394678Y-597030D01*
X1398726Y-601261D01*
X1402248Y-605947D01*
X1405205Y-611044D01*
X1407556Y-616510D01*
X1409261Y-622304D01*
X1410278Y-628382D01*
X1410568Y-634704D01*
X1410242Y-639566D01*
X1409157Y-645469D01*
X1407358Y-651217D01*
X1404887Y-656729D01*
X1401789Y-661923D01*
X1398108Y-666717D01*
X1393886Y-671031D01*
X1389167Y-674781D01*
X1387913Y-675634D01*
X1386217Y-676708D01*
X1384490Y-677686D01*
X1382587Y-678638D01*
X1380365Y-679637D01*
X1377679Y-680751D01*
X1374387Y-682053D01*
X1371475Y-683204D01*
X1358866Y-688626D01*
X1346846Y-694533D01*
X1335357Y-700954D01*
X1324347Y-707916D01*
X1322298Y-709211D01*
X1319925Y-710414D01*
X1317868Y-711032D01*
X1316017Y-711078D01*
X1314263Y-710567D01*
X1312497Y-709513D01*
X1311616Y-708813D01*
X1310761Y-707898D01*
X1310001Y-706707D01*
X1309161Y-705003D01*
X1307717Y-701913D01*
X1305982Y-698373D01*
X1304339Y-695248D01*
X1302689Y-692352D01*
X1300932Y-689494D01*
X1297438Y-684368D01*
X1291969Y-677535D01*
X1285905Y-671208D01*
X1279277Y-665412D01*
X1272112Y-660172D01*
X1264440Y-655514D01*
X1256289Y-651460D01*
X1255760Y-651218D01*
X1252907Y-649655D01*
X1250751Y-647979D01*
X1249340Y-646227D01*
X1248703Y-644893D01*
X1248406Y-643237D01*
X1248681Y-641357D01*
X1248735Y-641159D01*
X1249282Y-639785D01*
X1250174Y-638425D01*
X1251501Y-636982D01*
X1253350Y-635357D01*
X1255809Y-633452D01*
X1262221Y-628827D01*
X1272085Y-622188D01*
X1282454Y-615725D01*
X1293156Y-609536D01*
X1304020Y-603720D01*
X1314875Y-598375D01*
X1325548Y-593597D01*
X1327286Y-592863D01*
X1331448Y-591122D01*
X1335020Y-589663D01*
X1338097Y-588454D01*
X1340776Y-587461D01*
X1343154Y-586650D01*
X1345324Y-585989D01*
X1347385Y-585444D01*
X1349432Y-584981D01*
X1351561Y-584567D01*
X1352698Y-584364D01*
X1355468Y-583917D01*
X1357724Y-583641D01*
X1359656Y-583515D01*
X1361452Y-583522D01*
G37*
%TD*%
M02*
