%TF.GenerationSoftware,KiCad,Pcbnew,9.0.0*%
%TF.CreationDate,2025-04-24T20:31:47+01:00*%
%TF.ProjectId,rp2040_pogo_mh_0.2,72703230-3430-45f7-906f-676f5f6d685f,v0.2*%
%TF.SameCoordinates,Original*%
%TF.FileFunction,Paste,Top*%
%TF.FilePolarity,Positive*%
%FSLAX45Y45*%
G04 Gerber Fmt 4.5, Leading zero omitted, Abs format (unit mm)*
G04 Created by KiCad (PCBNEW 9.0.0) date 2025-04-24 20:31:47*
%MOMM*%
%LPD*%
G01*
G04 APERTURE LIST*
%ADD10C,0.482402*%
%ADD11C,0.482401*%
%ADD12C,0.482403*%
%ADD13C,0.482404*%
%ADD14C,2.254000*%
G04 APERTURE END LIST*
D10*
X-1290483Y-815407D02*
G75*
G02*
X-1338723Y-815407I-24120J0D01*
G01*
X-1338723Y-815407D02*
G75*
G02*
X-1290483Y-815407I24120J0D01*
G01*
D11*
X1443787Y-751121D02*
G75*
G02*
X1395547Y-751121I-24120J0D01*
G01*
X1395547Y-751121D02*
G75*
G02*
X1443787Y-751121I24120J0D01*
G01*
D10*
X-1661117Y-1184753D02*
G75*
G02*
X-1709357Y-1184753I-24120J0D01*
G01*
X-1709357Y-1184753D02*
G75*
G02*
X-1661117Y-1184753I24120J0D01*
G01*
D12*
X1773159Y-919667D02*
G75*
G02*
X1724919Y-919667I-24120J0D01*
G01*
X1724919Y-919667D02*
G75*
G02*
X1773159Y-919667I24120J0D01*
G01*
D10*
X1262577Y-999625D02*
G75*
G02*
X1214337Y-999625I-24120J0D01*
G01*
X1214337Y-999625D02*
G75*
G02*
X1262577Y-999625I24120J0D01*
G01*
X-1475345Y-738457D02*
G75*
G02*
X-1523585Y-738457I-24120J0D01*
G01*
X-1523585Y-738457D02*
G75*
G02*
X-1475345Y-738457I24120J0D01*
G01*
X1275241Y919507D02*
G75*
G02*
X1227001Y919507I-24120J0D01*
G01*
X1227001Y919507D02*
G75*
G02*
X1275241Y919507I24120J0D01*
G01*
X-1291127Y-1185397D02*
G75*
G02*
X-1339367Y-1185397I-24120J0D01*
G01*
X-1339367Y-1185397D02*
G75*
G02*
X-1291127Y-1185397I24120J0D01*
G01*
X1523745Y738297D02*
G75*
G02*
X1475505Y738297I-24120J0D01*
G01*
X1475505Y738297D02*
G75*
G02*
X1523745Y738297I24120J0D01*
G01*
X-1476255Y-1261703D02*
G75*
G02*
X-1524495Y-1261703I-24120J0D01*
G01*
X-1524495Y-1261703D02*
G75*
G02*
X-1476255Y-1261703I24120J0D01*
G01*
X1405020Y767019D02*
G75*
G02*
X1356780Y767019I-24120J0D01*
G01*
X1356780Y767019D02*
G75*
G02*
X1405020Y767019I24120J0D01*
G01*
X1275241Y-1080493D02*
G75*
G02*
X1227001Y-1080493I-24120J0D01*
G01*
X1227001Y-1080493D02*
G75*
G02*
X1275241Y-1080493I24120J0D01*
G01*
X1291299Y1119100D02*
G75*
G02*
X1243059Y1119100I-24120J0D01*
G01*
X1243059Y1119100D02*
G75*
G02*
X1291299Y1119100I24120J0D01*
G01*
X1757101Y880740D02*
G75*
G02*
X1708861Y880740I-24120J0D01*
G01*
X1708861Y880740D02*
G75*
G02*
X1757101Y880740I24120J0D01*
G01*
X-1395387Y-1249039D02*
G75*
G02*
X-1443627Y-1249039I-24120J0D01*
G01*
X-1443627Y-1249039D02*
G75*
G02*
X-1395387Y-1249039I24120J0D01*
G01*
X1785823Y-1000535D02*
G75*
G02*
X1737583Y-1000535I-24120J0D01*
G01*
X1737583Y-1000535D02*
G75*
G02*
X1785823Y-1000535I24120J0D01*
G01*
X-1356620Y-767179D02*
G75*
G02*
X-1404860Y-767179I-24120J0D01*
G01*
X-1404860Y-767179D02*
G75*
G02*
X-1356620Y-767179I24120J0D01*
G01*
X-1724759Y-1080493D02*
G75*
G02*
X-1772999Y-1080493I-24120J0D01*
G01*
X-1772999Y-1080493D02*
G75*
G02*
X-1724759Y-1080493I24120J0D01*
G01*
X1785823Y999465D02*
G75*
G02*
X1737583Y999465I-24120J0D01*
G01*
X1737583Y999465D02*
G75*
G02*
X1785823Y999465I24120J0D01*
G01*
X1757101Y-1119260D02*
G75*
G02*
X1708861Y-1119260I-24120J0D01*
G01*
X1708861Y-1119260D02*
G75*
G02*
X1757101Y-1119260I24120J0D01*
G01*
X1262577Y1000375D02*
G75*
G02*
X1214337Y1000375I-24120J0D01*
G01*
X1214337Y1000375D02*
G75*
G02*
X1262577Y1000375I24120J0D01*
G01*
X-1594980Y-1232981D02*
G75*
G02*
X-1643220Y-1232981I-24120J0D01*
G01*
X-1643220Y-1232981D02*
G75*
G02*
X-1594980Y-1232981I24120J0D01*
G01*
X1709517Y-815407D02*
G75*
G02*
X1661277Y-815407I-24120J0D01*
G01*
X1661277Y-815407D02*
G75*
G02*
X1709517Y-815407I24120J0D01*
G01*
X-1660473Y-814763D02*
G75*
G02*
X-1708713Y-814763I-24120J0D01*
G01*
X-1708713Y-814763D02*
G75*
G02*
X-1660473Y-814763I24120J0D01*
G01*
X1708873Y814603D02*
G75*
G02*
X1660633Y814603I-24120J0D01*
G01*
X1660633Y814603D02*
G75*
G02*
X1708873Y814603I24120J0D01*
G01*
X1604613Y750961D02*
G75*
G02*
X1556373Y750961I-24120J0D01*
G01*
X1556373Y750961D02*
G75*
G02*
X1604613Y750961I24120J0D01*
G01*
X1643380Y1232821D02*
G75*
G02*
X1595140Y1232821I-24120J0D01*
G01*
X1595140Y1232821D02*
G75*
G02*
X1643380Y1232821I24120J0D01*
G01*
D12*
X1773159Y1080333D02*
G75*
G02*
X1724919Y1080333I-24120J0D01*
G01*
X1724919Y1080333D02*
G75*
G02*
X1773159Y1080333I24120J0D01*
G01*
D10*
X1523745Y-1261703D02*
G75*
G02*
X1475505Y-1261703I-24120J0D01*
G01*
X1475505Y-1261703D02*
G75*
G02*
X1523745Y-1261703I24120J0D01*
G01*
X-1214177Y-1000535D02*
G75*
G02*
X-1262417Y-1000535I-24120J0D01*
G01*
X-1262417Y-1000535D02*
G75*
G02*
X-1214177Y-1000535I24120J0D01*
G01*
X-1708701Y-880900D02*
G75*
G02*
X-1756941Y-880900I-24120J0D01*
G01*
X-1756941Y-880900D02*
G75*
G02*
X-1708701Y-880900I24120J0D01*
G01*
X1643380Y-767179D02*
G75*
G02*
X1595140Y-767179I-24120J0D01*
G01*
X1595140Y-767179D02*
G75*
G02*
X1643380Y-767179I24120J0D01*
G01*
X1524655Y-738457D02*
G75*
G02*
X1476415Y-738457I-24120J0D01*
G01*
X1476415Y-738457D02*
G75*
G02*
X1524655Y-738457I24120J0D01*
G01*
X1338883Y815247D02*
G75*
G02*
X1290643Y815247I-24120J0D01*
G01*
X1290643Y815247D02*
G75*
G02*
X1338883Y815247I24120J0D01*
G01*
X1709517Y1184593D02*
G75*
G02*
X1661277Y1184593I-24120J0D01*
G01*
X1661277Y1184593D02*
G75*
G02*
X1709517Y1184593I24120J0D01*
G01*
X1524655Y1261543D02*
G75*
G02*
X1476415Y1261543I-24120J0D01*
G01*
X1476415Y1261543D02*
G75*
G02*
X1524655Y1261543I24120J0D01*
G01*
D11*
X1443787Y1248879D02*
G75*
G02*
X1395547Y1248879I-24120J0D01*
G01*
X1395547Y1248879D02*
G75*
G02*
X1443787Y1248879I24120J0D01*
G01*
D10*
X1708873Y-1185397D02*
G75*
G02*
X1660633Y-1185397I-24120J0D01*
G01*
X1660633Y-1185397D02*
G75*
G02*
X1708873Y-1185397I24120J0D01*
G01*
D11*
X-1556213Y-751121D02*
G75*
G02*
X-1604453Y-751121I-24120J0D01*
G01*
X-1604453Y-751121D02*
G75*
G02*
X-1556213Y-751121I24120J0D01*
G01*
D10*
X1291299Y-880900D02*
G75*
G02*
X1243059Y-880900I-24120J0D01*
G01*
X1243059Y-880900D02*
G75*
G02*
X1291299Y-880900I24120J0D01*
G01*
D12*
X-1226841Y-919667D02*
G75*
G02*
X-1275081Y-919667I-24120J0D01*
G01*
X-1275081Y-919667D02*
G75*
G02*
X-1226841Y-919667I24120J0D01*
G01*
D10*
X1604613Y-1249039D02*
G75*
G02*
X1556373Y-1249039I-24120J0D01*
G01*
X1556373Y-1249039D02*
G75*
G02*
X1604613Y-1249039I24120J0D01*
G01*
X1405020Y-1232981D02*
G75*
G02*
X1356780Y-1232981I-24120J0D01*
G01*
X1356780Y-1232981D02*
G75*
G02*
X1405020Y-1232981I24120J0D01*
G01*
X1338883Y-1184753D02*
G75*
G02*
X1290643Y-1184753I-24120J0D01*
G01*
X1290643Y-1184753D02*
G75*
G02*
X1338883Y-1184753I24120J0D01*
G01*
X-1242899Y-1119260D02*
G75*
G02*
X-1291139Y-1119260I-24120J0D01*
G01*
X-1291139Y-1119260D02*
G75*
G02*
X-1242899Y-1119260I24120J0D01*
G01*
X1339527Y-814763D02*
G75*
G02*
X1291287Y-814763I-24120J0D01*
G01*
X1291287Y-814763D02*
G75*
G02*
X1339527Y-814763I24120J0D01*
G01*
X1339527Y1185237D02*
G75*
G02*
X1291287Y1185237I-24120J0D01*
G01*
X1291287Y1185237D02*
G75*
G02*
X1339527Y1185237I24120J0D01*
G01*
X-1737423Y-999625D02*
G75*
G02*
X-1785663Y-999625I-24120J0D01*
G01*
X-1785663Y-999625D02*
G75*
G02*
X-1737423Y-999625I24120J0D01*
G01*
%TO.C,MH1*%
X-1732627Y1050231D02*
G75*
G02*
X-1780867Y1050231I-24120J0D01*
G01*
X-1780867Y1050231D02*
G75*
G02*
X-1732627Y1050231I24120J0D01*
G01*
X-1732627Y1050231D02*
G75*
G02*
X-1780867Y1050231I-24120J0D01*
G01*
X-1780867Y1050231D02*
G75*
G02*
X-1732627Y1050231I24120J0D01*
G01*
X-1727511Y928189D02*
G75*
G02*
X-1775751Y928189I-24120J0D01*
G01*
X-1775751Y928189D02*
G75*
G02*
X-1727511Y928189I24120J0D01*
G01*
X-1704497Y1127099D02*
G75*
G02*
X-1752737Y1127099I-24120J0D01*
G01*
X-1752737Y1127099D02*
G75*
G02*
X-1704497Y1127099I24120J0D01*
G01*
X-1693047Y853944D02*
G75*
G02*
X-1741288Y853944I-24120J0D01*
G01*
X-1741288Y853944D02*
G75*
G02*
X-1693047Y853944I24120J0D01*
G01*
X-1693047Y853944D02*
G75*
G02*
X-1741288Y853944I-24120J0D01*
G01*
X-1741288Y853944D02*
G75*
G02*
X-1693047Y853944I24120J0D01*
G01*
D11*
X-1621818Y1217014D02*
G75*
G02*
X-1670058Y1217014I-24120J0D01*
G01*
X-1670058Y1217014D02*
G75*
G02*
X-1621818Y1217014I24120J0D01*
G01*
X-1621818Y1217014D02*
G75*
G02*
X-1670058Y1217014I-24120J0D01*
G01*
X-1670058Y1217014D02*
G75*
G02*
X-1621818Y1217014I24120J0D01*
G01*
D10*
X-1603133Y771264D02*
G75*
G02*
X-1651373Y771264I-24120J0D01*
G01*
X-1651373Y771264D02*
G75*
G02*
X-1603133Y771264I24120J0D01*
G01*
X-1547573Y1251477D02*
G75*
G02*
X-1595813Y1251477I-24120J0D01*
G01*
X-1595813Y1251477D02*
G75*
G02*
X-1547573Y1251477I24120J0D01*
G01*
D13*
X-1526264Y743135D02*
G75*
G02*
X-1574505Y743135I-24120J0D01*
G01*
X-1574505Y743135D02*
G75*
G02*
X-1526264Y743135I24120J0D01*
G01*
X-1526264Y743135D02*
G75*
G02*
X-1574505Y743135I-24120J0D01*
G01*
X-1574505Y743135D02*
G75*
G02*
X-1526264Y743135I24120J0D01*
G01*
D12*
X-1425531Y1256593D02*
G75*
G02*
X-1473771Y1256593I-24120J0D01*
G01*
X-1473771Y1256593D02*
G75*
G02*
X-1425531Y1256593I24120J0D01*
G01*
X-1425531Y1256593D02*
G75*
G02*
X-1473771Y1256593I-24120J0D01*
G01*
X-1473771Y1256593D02*
G75*
G02*
X-1425531Y1256593I24120J0D01*
G01*
D10*
X-1404222Y748251D02*
G75*
G02*
X-1452463Y748251I-24120J0D01*
G01*
X-1452463Y748251D02*
G75*
G02*
X-1404222Y748251I24120J0D01*
G01*
X-1348662Y1228464D02*
G75*
G02*
X-1396903Y1228464I-24120J0D01*
G01*
X-1396903Y1228464D02*
G75*
G02*
X-1348662Y1228464I24120J0D01*
G01*
X-1329978Y782714D02*
G75*
G02*
X-1378218Y782714I-24120J0D01*
G01*
X-1378218Y782714D02*
G75*
G02*
X-1329978Y782714I24120J0D01*
G01*
X-1329978Y782714D02*
G75*
G02*
X-1378218Y782714I-24120J0D01*
G01*
X-1378218Y782714D02*
G75*
G02*
X-1329978Y782714I24120J0D01*
G01*
X-1258748Y1145784D02*
G75*
G02*
X-1306988Y1145784I-24120J0D01*
G01*
X-1306988Y1145784D02*
G75*
G02*
X-1258748Y1145784I24120J0D01*
G01*
X-1258748Y1145784D02*
G75*
G02*
X-1306988Y1145784I-24120J0D01*
G01*
X-1306988Y1145784D02*
G75*
G02*
X-1258748Y1145784I24120J0D01*
G01*
X-1247298Y872629D02*
G75*
G02*
X-1295538Y872629I-24120J0D01*
G01*
X-1295538Y872629D02*
G75*
G02*
X-1247298Y872629I24120J0D01*
G01*
X-1224284Y1071539D02*
G75*
G02*
X-1272525Y1071539I-24120J0D01*
G01*
X-1272525Y1071539D02*
G75*
G02*
X-1224284Y1071539I24120J0D01*
G01*
X-1219169Y949497D02*
G75*
G02*
X-1267409Y949497I-24120J0D01*
G01*
X-1267409Y949497D02*
G75*
G02*
X-1219169Y949497I24120J0D01*
G01*
X-1219169Y949497D02*
G75*
G02*
X-1267409Y949497I-24120J0D01*
G01*
X-1267409Y949497D02*
G75*
G02*
X-1219169Y949497I24120J0D01*
G01*
%TD*%
D14*
%TO.C,J8*%
X614999Y-1160513D03*
%TD*%
%TO.C,J10*%
X1103999Y-1199513D03*
%TD*%
%TO.C,J4*%
X-369001Y-1160513D03*
%TD*%
%TO.C,J11*%
X-860945Y1160663D03*
%TD*%
%TO.C,J5*%
X-123001Y-1160513D03*
%TD*%
%TO.C,J6*%
X122999Y-1160513D03*
%TD*%
%TO.C,J12*%
X-614945Y1160663D03*
%TD*%
%TO.C,J16*%
X369055Y1160663D03*
%TD*%
%TO.C,J15*%
X123055Y1160663D03*
%TD*%
%TO.C,J17*%
X615055Y1160663D03*
%TD*%
%TO.C,J3*%
X-615001Y-1160513D03*
%TD*%
%TO.C,J7*%
X368999Y-1160513D03*
%TD*%
%TO.C,J19*%
X1104055Y1199663D03*
%TD*%
%TO.C,J2*%
X-861001Y-1160513D03*
%TD*%
%TO.C,J1*%
X-1104001Y-1199513D03*
%TD*%
%TO.C,J14*%
X-122945Y1160663D03*
%TD*%
%TO.C,J9*%
X860999Y-1160513D03*
%TD*%
%TO.C,J18*%
X861055Y1160663D03*
%TD*%
%TO.C,J13*%
X-368945Y1160663D03*
%TD*%
M02*
