%TF.GenerationSoftware,KiCad,Pcbnew,9.0.0*%
%TF.CreationDate,2025-04-24T15:41:49+01:00*%
%TF.ProjectId,rp2040_pogo_mh_0.2,72703230-3430-45f7-906f-676f5f6d685f,v0.2*%
%TF.SameCoordinates,Original*%
%TF.FileFunction,AssemblyDrawing,Top*%
%FSLAX45Y45*%
G04 Gerber Fmt 4.5, Leading zero omitted, Abs format (unit mm)*
G04 Created by KiCad (PCBNEW 9.0.0) date 2025-04-24 15:41:49*
%MOMM*%
%LPD*%
G01*
G04 APERTURE LIST*
%ADD10C,0.100000*%
%ADD11C,1.000000*%
%ADD12C,0.060000*%
G04 APERTURE END LIST*
D10*
%TO.C,GS9*%
X-600000Y1350000D02*
X-600000Y1450000D01*
X-550000Y1400000D02*
X-650000Y1400000D01*
X-550000Y1400000D02*
G75*
G02*
X-650000Y1400000I-50000J0D01*
G01*
X-650000Y1400000D02*
G75*
G02*
X-550000Y1400000I50000J0D01*
G01*
%TO.C,GS15*%
X900000Y1350000D02*
X900000Y1450000D01*
X950000Y1400000D02*
X850000Y1400000D01*
X950000Y1400000D02*
G75*
G02*
X850000Y1400000I-50000J0D01*
G01*
X850000Y1400000D02*
G75*
G02*
X950000Y1400000I50000J0D01*
G01*
D11*
%TO.C,J8*%
X664999Y-1160513D02*
G75*
G02*
X564999Y-1160513I-50000J0D01*
G01*
X564999Y-1160513D02*
G75*
G02*
X664999Y-1160513I50000J0D01*
G01*
D12*
X717999Y-1060513D02*
G75*
G02*
X711999Y-1060513I-3000J0D01*
G01*
X711999Y-1060513D02*
G75*
G02*
X717999Y-1060513I3000J0D01*
G01*
D11*
%TO.C,J10*%
X1153999Y-1199513D02*
G75*
G02*
X1053999Y-1199513I-50000J0D01*
G01*
X1053999Y-1199513D02*
G75*
G02*
X1153999Y-1199513I50000J0D01*
G01*
D12*
X1206999Y-1099513D02*
G75*
G02*
X1200999Y-1099513I-3000J0D01*
G01*
X1200999Y-1099513D02*
G75*
G02*
X1206999Y-1099513I3000J0D01*
G01*
D11*
%TO.C,J4*%
X-319001Y-1160513D02*
G75*
G02*
X-419001Y-1160513I-50000J0D01*
G01*
X-419001Y-1160513D02*
G75*
G02*
X-319001Y-1160513I50000J0D01*
G01*
D12*
X-266001Y-1060513D02*
G75*
G02*
X-272001Y-1060513I-3000J0D01*
G01*
X-272001Y-1060513D02*
G75*
G02*
X-266001Y-1060513I3000J0D01*
G01*
D10*
%TO.C,GS13*%
X400000Y1350000D02*
X400000Y1450000D01*
X450000Y1400000D02*
X350000Y1400000D01*
X450000Y1400000D02*
G75*
G02*
X350000Y1400000I-50000J0D01*
G01*
X350000Y1400000D02*
G75*
G02*
X450000Y1400000I50000J0D01*
G01*
D11*
%TO.C,J11*%
X-810945Y1160663D02*
G75*
G02*
X-910945Y1160663I-50000J0D01*
G01*
X-910945Y1160663D02*
G75*
G02*
X-810945Y1160663I50000J0D01*
G01*
D12*
X-757945Y1260663D02*
G75*
G02*
X-763945Y1260663I-3000J0D01*
G01*
X-763945Y1260663D02*
G75*
G02*
X-757945Y1260663I3000J0D01*
G01*
D10*
%TO.C,GS14*%
X650000Y1350000D02*
X650000Y1450000D01*
X700000Y1400000D02*
X600000Y1400000D01*
X700000Y1400000D02*
G75*
G02*
X600000Y1400000I-50000J0D01*
G01*
X600000Y1400000D02*
G75*
G02*
X700000Y1400000I50000J0D01*
G01*
D11*
%TO.C,J5*%
X-73001Y-1160513D02*
G75*
G02*
X-173001Y-1160513I-50000J0D01*
G01*
X-173001Y-1160513D02*
G75*
G02*
X-73001Y-1160513I50000J0D01*
G01*
D12*
X-20001Y-1060513D02*
G75*
G02*
X-26001Y-1060513I-3000J0D01*
G01*
X-26001Y-1060513D02*
G75*
G02*
X-20001Y-1060513I3000J0D01*
G01*
D11*
%TO.C,J6*%
X172999Y-1160513D02*
G75*
G02*
X72999Y-1160513I-50000J0D01*
G01*
X72999Y-1160513D02*
G75*
G02*
X172999Y-1160513I50000J0D01*
G01*
D12*
X225999Y-1060513D02*
G75*
G02*
X219999Y-1060513I-3000J0D01*
G01*
X219999Y-1060513D02*
G75*
G02*
X225999Y-1060513I3000J0D01*
G01*
D10*
%TO.C,GS7*%
X-200000Y-1400000D02*
X-100000Y-1400000D01*
X-150000Y-1350000D02*
X-150000Y-1450000D01*
X-100000Y-1400000D02*
G75*
G02*
X-200000Y-1400000I-50000J0D01*
G01*
X-200000Y-1400000D02*
G75*
G02*
X-100000Y-1400000I50000J0D01*
G01*
D11*
%TO.C,J12*%
X-564945Y1160663D02*
G75*
G02*
X-664945Y1160663I-50000J0D01*
G01*
X-664945Y1160663D02*
G75*
G02*
X-564945Y1160663I50000J0D01*
G01*
D12*
X-511945Y1260663D02*
G75*
G02*
X-517945Y1260663I-3000J0D01*
G01*
X-517945Y1260663D02*
G75*
G02*
X-511945Y1260663I3000J0D01*
G01*
D10*
%TO.C,GS3*%
X-1550000Y-1400000D02*
X-1450000Y-1400000D01*
X-1500000Y-1350000D02*
X-1500000Y-1450000D01*
X-1450000Y-1400000D02*
G75*
G02*
X-1550000Y-1400000I-50000J0D01*
G01*
X-1550000Y-1400000D02*
G75*
G02*
X-1450000Y-1400000I50000J0D01*
G01*
%TO.C,GS12*%
X150000Y1350000D02*
X150000Y1450000D01*
X200000Y1400000D02*
X100000Y1400000D01*
X200000Y1400000D02*
G75*
G02*
X100000Y1400000I-50000J0D01*
G01*
X100000Y1400000D02*
G75*
G02*
X200000Y1400000I50000J0D01*
G01*
D11*
%TO.C,J16*%
X419055Y1160663D02*
G75*
G02*
X319055Y1160663I-50000J0D01*
G01*
X319055Y1160663D02*
G75*
G02*
X419055Y1160663I50000J0D01*
G01*
D12*
X472055Y1260663D02*
G75*
G02*
X466055Y1260663I-3000J0D01*
G01*
X466055Y1260663D02*
G75*
G02*
X472055Y1260663I3000J0D01*
G01*
D10*
%TO.C,GS1*%
X-1950000Y1000000D02*
X-1850000Y1000000D01*
X-1900000Y1050000D02*
X-1900000Y950000D01*
X-1850000Y1000000D02*
G75*
G02*
X-1950000Y1000000I-50000J0D01*
G01*
X-1950000Y1000000D02*
G75*
G02*
X-1850000Y1000000I50000J0D01*
G01*
%TO.C,GS2*%
X1850000Y-1000000D02*
X1950000Y-1000000D01*
X1900000Y-950000D02*
X1900000Y-1050000D01*
X1950000Y-1000000D02*
G75*
G02*
X1850000Y-1000000I-50000J0D01*
G01*
X1850000Y-1000000D02*
G75*
G02*
X1950000Y-1000000I50000J0D01*
G01*
%TO.C,GS5*%
X-700000Y-1400000D02*
X-600000Y-1400000D01*
X-650000Y-1350000D02*
X-650000Y-1450000D01*
X-600000Y-1400000D02*
G75*
G02*
X-700000Y-1400000I-50000J0D01*
G01*
X-700000Y-1400000D02*
G75*
G02*
X-600000Y-1400000I50000J0D01*
G01*
D11*
%TO.C,J15*%
X173055Y1160663D02*
G75*
G02*
X73055Y1160663I-50000J0D01*
G01*
X73055Y1160663D02*
G75*
G02*
X173055Y1160663I50000J0D01*
G01*
D12*
X226055Y1260663D02*
G75*
G02*
X220055Y1260663I-3000J0D01*
G01*
X220055Y1260663D02*
G75*
G02*
X226055Y1260663I3000J0D01*
G01*
D11*
%TO.C,J17*%
X665055Y1160663D02*
G75*
G02*
X565055Y1160663I-50000J0D01*
G01*
X565055Y1160663D02*
G75*
G02*
X665055Y1160663I50000J0D01*
G01*
D12*
X718055Y1260663D02*
G75*
G02*
X712055Y1260663I-3000J0D01*
G01*
X712055Y1260663D02*
G75*
G02*
X718055Y1260663I3000J0D01*
G01*
D11*
%TO.C,J3*%
X-565001Y-1160513D02*
G75*
G02*
X-665001Y-1160513I-50000J0D01*
G01*
X-665001Y-1160513D02*
G75*
G02*
X-565001Y-1160513I50000J0D01*
G01*
D12*
X-512001Y-1060513D02*
G75*
G02*
X-518001Y-1060513I-3000J0D01*
G01*
X-518001Y-1060513D02*
G75*
G02*
X-512001Y-1060513I3000J0D01*
G01*
D11*
%TO.C,J7*%
X418999Y-1160513D02*
G75*
G02*
X318999Y-1160513I-50000J0D01*
G01*
X318999Y-1160513D02*
G75*
G02*
X418999Y-1160513I50000J0D01*
G01*
D12*
X471999Y-1060513D02*
G75*
G02*
X465999Y-1060513I-3000J0D01*
G01*
X465999Y-1060513D02*
G75*
G02*
X471999Y-1060513I3000J0D01*
G01*
D10*
%TO.C,GS8*%
X50000Y-1400000D02*
X150000Y-1400000D01*
X100000Y-1350000D02*
X100000Y-1450000D01*
X150000Y-1400000D02*
G75*
G02*
X50000Y-1400000I-50000J0D01*
G01*
X50000Y-1400000D02*
G75*
G02*
X150000Y-1400000I50000J0D01*
G01*
D11*
%TO.C,J19*%
X1154055Y1199663D02*
G75*
G02*
X1054055Y1199663I-50000J0D01*
G01*
X1054055Y1199663D02*
G75*
G02*
X1154055Y1199663I50000J0D01*
G01*
D12*
X1207055Y1299663D02*
G75*
G02*
X1201055Y1299663I-3000J0D01*
G01*
X1201055Y1299663D02*
G75*
G02*
X1207055Y1299663I3000J0D01*
G01*
D11*
%TO.C,J2*%
X-811001Y-1160513D02*
G75*
G02*
X-911001Y-1160513I-50000J0D01*
G01*
X-911001Y-1160513D02*
G75*
G02*
X-811001Y-1160513I50000J0D01*
G01*
D12*
X-758001Y-1060513D02*
G75*
G02*
X-764001Y-1060513I-3000J0D01*
G01*
X-764001Y-1060513D02*
G75*
G02*
X-758001Y-1060513I3000J0D01*
G01*
D10*
%TO.C,GS16*%
X1150000Y1350000D02*
X1150000Y1450000D01*
X1200000Y1400000D02*
X1100000Y1400000D01*
X1200000Y1400000D02*
G75*
G02*
X1100000Y1400000I-50000J0D01*
G01*
X1100000Y1400000D02*
G75*
G02*
X1200000Y1400000I50000J0D01*
G01*
%TO.C,GS11*%
X-100000Y1350000D02*
X-100000Y1450000D01*
X-50000Y1400000D02*
X-150000Y1400000D01*
X-50000Y1400000D02*
G75*
G02*
X-150000Y1400000I-50000J0D01*
G01*
X-150000Y1400000D02*
G75*
G02*
X-50000Y1400000I50000J0D01*
G01*
D11*
%TO.C,J1*%
X-1054001Y-1199513D02*
G75*
G02*
X-1154001Y-1199513I-50000J0D01*
G01*
X-1154001Y-1199513D02*
G75*
G02*
X-1054001Y-1199513I50000J0D01*
G01*
D12*
X-1001001Y-1099513D02*
G75*
G02*
X-1007001Y-1099513I-3000J0D01*
G01*
X-1007001Y-1099513D02*
G75*
G02*
X-1001001Y-1099513I3000J0D01*
G01*
D10*
%TO.C,GS4*%
X-950000Y-1400000D02*
X-850000Y-1400000D01*
X-900000Y-1350000D02*
X-900000Y-1450000D01*
X-850000Y-1400000D02*
G75*
G02*
X-950000Y-1400000I-50000J0D01*
G01*
X-950000Y-1400000D02*
G75*
G02*
X-850000Y-1400000I50000J0D01*
G01*
%TO.C,GS10*%
X-400000Y1400000D02*
X-300000Y1400000D01*
X-350000Y1450000D02*
X-350000Y1350000D01*
X-300000Y1400000D02*
G75*
G02*
X-400000Y1400000I-50000J0D01*
G01*
X-400000Y1400000D02*
G75*
G02*
X-300000Y1400000I50000J0D01*
G01*
D11*
%TO.C,J14*%
X-72945Y1160663D02*
G75*
G02*
X-172945Y1160663I-50000J0D01*
G01*
X-172945Y1160663D02*
G75*
G02*
X-72945Y1160663I50000J0D01*
G01*
D12*
X-19945Y1260663D02*
G75*
G02*
X-25945Y1260663I-3000J0D01*
G01*
X-25945Y1260663D02*
G75*
G02*
X-19945Y1260663I3000J0D01*
G01*
D11*
%TO.C,J9*%
X910999Y-1160513D02*
G75*
G02*
X810999Y-1160513I-50000J0D01*
G01*
X810999Y-1160513D02*
G75*
G02*
X910999Y-1160513I50000J0D01*
G01*
D12*
X963999Y-1060513D02*
G75*
G02*
X957999Y-1060513I-3000J0D01*
G01*
X957999Y-1060513D02*
G75*
G02*
X963999Y-1060513I3000J0D01*
G01*
D10*
%TO.C,GS6*%
X-450000Y-1400000D02*
X-350000Y-1400000D01*
X-400000Y-1350000D02*
X-400000Y-1450000D01*
X-350000Y-1400000D02*
G75*
G02*
X-450000Y-1400000I-50000J0D01*
G01*
X-450000Y-1400000D02*
G75*
G02*
X-350000Y-1400000I50000J0D01*
G01*
D11*
%TO.C,J18*%
X911055Y1160663D02*
G75*
G02*
X811055Y1160663I-50000J0D01*
G01*
X811055Y1160663D02*
G75*
G02*
X911055Y1160663I50000J0D01*
G01*
D12*
X964055Y1260663D02*
G75*
G02*
X958055Y1260663I-3000J0D01*
G01*
X958055Y1260663D02*
G75*
G02*
X964055Y1260663I3000J0D01*
G01*
D11*
%TO.C,J13*%
X-318945Y1160663D02*
G75*
G02*
X-418945Y1160663I-50000J0D01*
G01*
X-418945Y1160663D02*
G75*
G02*
X-318945Y1160663I50000J0D01*
G01*
D12*
X-265945Y1260663D02*
G75*
G02*
X-271945Y1260663I-3000J0D01*
G01*
X-271945Y1260663D02*
G75*
G02*
X-265945Y1260663I3000J0D01*
G01*
%TD*%
M02*
