%TF.GenerationSoftware,KiCad,Pcbnew,9.0.0*%
%TF.CreationDate,2025-04-24T20:31:47+01:00*%
%TF.ProjectId,rp2040_pogo_mh_0.2,72703230-3430-45f7-906f-676f5f6d685f,v0.2*%
%TF.SameCoordinates,Original*%
%TF.FileFunction,Copper,L1,Top*%
%TF.FilePolarity,Positive*%
%FSLAX45Y45*%
G04 Gerber Fmt 4.5, Leading zero omitted, Abs format (unit mm)*
G04 Created by KiCad (PCBNEW 9.0.0) date 2025-04-24 20:31:47*
%MOMM*%
%LPD*%
G01*
G04 APERTURE LIST*
%TA.AperFunction,SMDPad,CuDef*%
%ADD10C,0.125000*%
%TD*%
%TA.AperFunction,SMDPad,CuDef*%
%ADD11C,2.254000*%
%TD*%
%TA.AperFunction,ComponentPad*%
%ADD12C,6.200000*%
%TD*%
%TA.AperFunction,Conductor*%
%ADD13C,0.200000*%
%TD*%
G04 APERTURE END LIST*
D10*
%TO.P,GS9,1,SWDIO~0*%
%TO.N,Net-(GS9-SWDIO~0)*%
X650000Y1400000D03*
%TD*%
%TO.P,GS15,1,SWDIO~4*%
%TO.N,Net-(GS15-SWDIO~4)*%
X-350000Y1400000D03*
%TD*%
D11*
%TO.P,J8,1,1*%
%TO.N,unconnected-(J8-Pad1)*%
X614999Y-1160513D03*
%TD*%
%TO.P,J10,1,1*%
%TO.N,unconnected-(J10-Pad1)*%
X1103999Y-1199513D03*
%TD*%
D12*
%TO.P,MH3,1*%
%TO.N,JD_PWR*%
X-1500000Y-1000000D03*
%TD*%
D11*
%TO.P,J4,1,1*%
%TO.N,unconnected-(J4-Pad1)*%
X-369001Y-1160513D03*
%TD*%
D10*
%TO.P,GS13,1,SWDIO~2*%
%TO.N,Net-(GS13-SWDIO~2)*%
X150000Y1400000D03*
%TD*%
D11*
%TO.P,J11,1,1*%
%TO.N,unconnected-(J11-Pad1)*%
X-860945Y1160663D03*
%TD*%
D10*
%TO.P,GS14,1,SWDIO~3*%
%TO.N,Net-(GS14-SWDIO~3)*%
X-100000Y1400000D03*
%TD*%
D11*
%TO.P,J5,1,1*%
%TO.N,Net-(GS6-SWDIO~8)*%
X-123001Y-1160513D03*
%TD*%
%TO.P,J6,1,1*%
%TO.N,Net-(GS7-SWDIO~9)*%
X122999Y-1160513D03*
%TD*%
D10*
%TO.P,GS7,1,SWDIO~9*%
%TO.N,Net-(GS7-SWDIO~9)*%
X100000Y-1400000D03*
%TD*%
D11*
%TO.P,J12,1,1*%
%TO.N,Net-(GS16-SWDIO~5)*%
X-614945Y1160663D03*
%TD*%
D10*
%TO.P,GS3,1,JD_PWR*%
%TO.N,JD_PWR*%
X-1500000Y-1400000D03*
%TD*%
%TO.P,GS12,1,SWCLK*%
%TO.N,Net-(GS12-SWCLK)*%
X1150000Y1400000D03*
%TD*%
D11*
%TO.P,J16,1,1*%
%TO.N,Net-(GS11-SWDIO~1)*%
X369055Y1160663D03*
%TD*%
D10*
%TO.P,GS1,1,JD_DATA*%
%TO.N,JD_DATA*%
X-1500000Y1400000D03*
%TD*%
%TO.P,GS2,1,GND*%
%TO.N,GND*%
X1500000Y1400000D03*
%TD*%
%TO.P,GS5,1,SWDIO~7*%
%TO.N,Net-(GS5-SWDIO~7)*%
X-650000Y-1400000D03*
%TD*%
D11*
%TO.P,J15,1,1*%
%TO.N,Net-(GS13-SWDIO~2)*%
X123055Y1160663D03*
%TD*%
%TO.P,J17,1,1*%
%TO.N,Net-(GS9-SWDIO~0)*%
X615055Y1160663D03*
%TD*%
%TO.P,J3,1,1*%
%TO.N,Net-(GS5-SWDIO~7)*%
X-615001Y-1160513D03*
%TD*%
%TO.P,J7,1,1*%
%TO.N,Net-(GS8-SWDIO~10)*%
X368999Y-1160513D03*
%TD*%
D10*
%TO.P,GS8,1,SWDIO~10*%
%TO.N,Net-(GS8-SWDIO~10)*%
X350000Y-1400000D03*
%TD*%
D11*
%TO.P,J19,1,1*%
%TO.N,Net-(GS12-SWCLK)*%
X1104055Y1199663D03*
%TD*%
%TO.P,J2,1,1*%
%TO.N,Net-(GS4-SWDIO~6)*%
X-861001Y-1160513D03*
%TD*%
D10*
%TO.P,GS16,1,SWDIO~5*%
%TO.N,Net-(GS16-SWDIO~5)*%
X-600000Y1400000D03*
%TD*%
%TO.P,GS11,1,SWDIO~1*%
%TO.N,Net-(GS11-SWDIO~1)*%
X400000Y1400000D03*
%TD*%
D11*
%TO.P,J1,1,1*%
%TO.N,unconnected-(J1-Pad1)*%
X-1104001Y-1199513D03*
%TD*%
D10*
%TO.P,GS4,1,SWDIO~6*%
%TO.N,Net-(GS4-SWDIO~6)*%
X-900000Y-1400000D03*
%TD*%
%TO.P,GS10,1,RESET*%
%TO.N,Net-(GS10-RESET)*%
X900000Y1400000D03*
%TD*%
D11*
%TO.P,J14,1,1*%
%TO.N,Net-(GS14-SWDIO~3)*%
X-122945Y1160663D03*
%TD*%
%TO.P,J9,1,1*%
%TO.N,unconnected-(J9-Pad1)*%
X860999Y-1160513D03*
%TD*%
D12*
%TO.P,MH1,1*%
%TO.N,JD_DATA*%
X-1500000Y1000001D03*
%TD*%
%TO.P,MH2,1*%
%TO.N,GND*%
X1500001Y1000002D03*
%TD*%
%TO.P,MH4,1*%
%TO.N,GND*%
X1500001Y-999999D03*
%TD*%
D10*
%TO.P,GS6,1,SWDIO~8*%
%TO.N,Net-(GS6-SWDIO~8)*%
X-150000Y-1400000D03*
%TD*%
D11*
%TO.P,J18,1,1*%
%TO.N,Net-(GS10-RESET)*%
X861055Y1160663D03*
%TD*%
%TO.P,J13,1,1*%
%TO.N,Net-(GS15-SWDIO~4)*%
X-368945Y1160663D03*
%TD*%
D13*
%TO.N,JD_DATA*%
X-1500000Y1400000D02*
X-1500000Y1000001D01*
%TO.N,GND*%
X1500000Y1400000D02*
X1500000Y1000003D01*
X1200001Y-699998D02*
X1500001Y-999998D01*
X1500000Y1000000D02*
X1600000Y900000D01*
X1200001Y700002D02*
X1200001Y-699998D01*
X1500000Y1000003D02*
X1500001Y1000002D01*
X1500001Y1000002D02*
X1200001Y700002D01*
%TO.N,JD_PWR*%
X-1500080Y-1000080D02*
X-1500080Y-1399920D01*
X-1500080Y-1399920D02*
X-1500000Y-1400000D01*
%TO.N,Net-(GS4-SWDIO~6)*%
X-861001Y-1160513D02*
X-861001Y-1161001D01*
X-861001Y-1161001D02*
X-900000Y-1200000D01*
X-900000Y-1200000D02*
X-900000Y-1400000D01*
%TO.N,Net-(GS5-SWDIO~7)*%
X-650000Y-1250000D02*
X-650000Y-1400000D01*
X-615001Y-1215001D02*
X-650000Y-1250000D01*
X-615001Y-1160513D02*
X-615001Y-1215001D01*
%TO.N,Net-(GS6-SWDIO~8)*%
X-150000Y-1250000D02*
X-150000Y-1400000D01*
X-123001Y-1160513D02*
X-123001Y-1223001D01*
X-123001Y-1223001D02*
X-150000Y-1250000D01*
%TO.N,Net-(GS7-SWDIO~9)*%
X122999Y-1160513D02*
X122999Y-1177001D01*
X100000Y-1200000D02*
X100000Y-1400000D01*
X122999Y-1177001D02*
X100000Y-1200000D01*
%TO.N,Net-(GS8-SWDIO~10)*%
X350000Y-1179512D02*
X368999Y-1160513D01*
X350000Y-1400000D02*
X350000Y-1179512D01*
%TO.N,Net-(GS9-SWDIO~0)*%
X615055Y1165055D02*
X650000Y1200000D01*
X650000Y1200000D02*
X650000Y1400000D01*
X615055Y1160663D02*
X615055Y1165055D01*
%TO.N,Net-(GS10-RESET)*%
X861055Y1161055D02*
X900000Y1200000D01*
X861055Y1160663D02*
X861055Y1161055D01*
X900000Y1200000D02*
X900000Y1400000D01*
%TO.N,Net-(GS11-SWDIO~1)*%
X400000Y1200000D02*
X400000Y1400000D01*
X369055Y1160663D02*
X369055Y1169055D01*
X369055Y1169055D02*
X400000Y1200000D01*
%TO.N,Net-(GS12-SWCLK)*%
X1150000Y1250000D02*
X1150000Y1400000D01*
X1104055Y1204055D02*
X1150000Y1250000D01*
X1104055Y1199663D02*
X1104055Y1204055D01*
%TO.N,Net-(GS13-SWDIO~2)*%
X123055Y1173055D02*
X150000Y1200000D01*
X150000Y1200000D02*
X150000Y1400000D01*
X123055Y1160663D02*
X123055Y1173055D01*
%TO.N,Net-(GS14-SWDIO~3)*%
X-122945Y1177055D02*
X-100000Y1200000D01*
X-100000Y1200000D02*
X-100000Y1400000D01*
X-122945Y1160663D02*
X-122945Y1177055D01*
%TO.N,Net-(GS15-SWDIO~4)*%
X-350000Y1200000D02*
X-350000Y1400000D01*
X-368945Y1160663D02*
X-368945Y1181055D01*
X-368945Y1181055D02*
X-350000Y1200000D01*
%TO.N,Net-(GS16-SWDIO~5)*%
X-614945Y1160663D02*
X-600000Y1175608D01*
X-600000Y1175608D02*
X-600000Y1400000D01*
%TD*%
M02*
