%TF.GenerationSoftware,KiCad,Pcbnew,9.0.0*%
%TF.CreationDate,2025-04-24T20:31:47+01:00*%
%TF.ProjectId,rp2040_pogo_mh_0.2,72703230-3430-45f7-906f-676f5f6d685f,v0.2*%
%TF.SameCoordinates,Original*%
%TF.FileFunction,Legend,Top*%
%TF.FilePolarity,Positive*%
%FSLAX45Y45*%
G04 Gerber Fmt 4.5, Leading zero omitted, Abs format (unit mm)*
G04 Created by KiCad (PCBNEW 9.0.0) date 2025-04-24 20:31:47*
%MOMM*%
%LPD*%
G01*
G04 APERTURE LIST*
%ADD10C,0.200000*%
%ADD11C,0.010000*%
%ADD12C,0.000000*%
G04 APERTURE END LIST*
D10*
X-1414800Y597000D02*
G75*
G02*
X-1315003Y497000I102J-99696D01*
G01*
X-1650000Y597000D02*
G75*
G02*
X-1750002Y697000I42J100044D01*
G01*
X-1050000Y1225000D02*
G75*
G02*
X-1025000Y1249996I24912J84D01*
G01*
X-1821000Y-327000D02*
X-1416000Y-327000D01*
X-1900000Y247000D02*
G75*
G02*
X-1820000Y326996I79882J114D01*
G01*
X-1050000Y1200000D02*
X-1050000Y1225000D01*
X-1050000Y1200000D02*
G75*
G02*
X-1190614Y1108619I-100000J0D01*
G01*
X-1820000Y-327000D02*
G75*
G02*
X-1900002Y-247000I-108J79894D01*
G01*
X-1414800Y327000D02*
X-1820000Y327000D01*
X-1750000Y-697000D02*
G75*
G02*
X-1650000Y-597004I100032J-36D01*
G01*
X-1414800Y-597000D02*
X-1650000Y-597000D01*
X-1650000Y597000D02*
X-1414800Y597000D01*
X-1415000Y-327000D02*
G75*
G02*
X-1315002Y-427000I-38J-100036D01*
G01*
X-970000Y1250000D02*
X-1025000Y1250000D01*
X-1750000Y790000D02*
X-1750000Y697000D01*
X1750000Y-790000D02*
X1750000Y790000D01*
X-1900000Y244000D02*
X-1900000Y-250000D01*
X-1314800Y-497000D02*
X-1315000Y-427000D01*
X-1314800Y-497000D02*
G75*
G02*
X-1414800Y-597004I-100048J44D01*
G01*
X-1750000Y-697000D02*
X-1750000Y-790000D01*
X-1315000Y427000D02*
X-1315000Y497000D01*
X-1315000Y427000D02*
G75*
G02*
X-1414800Y326996I-100048J44D01*
G01*
X-1136722Y68985D02*
X-1136722Y59461D01*
X-1136722Y59461D02*
X-1141484Y49937D01*
X-1141484Y49937D02*
X-1146246Y45176D01*
X-1146246Y45176D02*
X-1155770Y40414D01*
X-1155770Y40414D02*
X-1174817Y35652D01*
X-1174817Y35652D02*
X-1198627Y35652D01*
X-1198627Y35652D02*
X-1217674Y40414D01*
X-1217674Y40414D02*
X-1227198Y45176D01*
X-1227198Y45176D02*
X-1231960Y49937D01*
X-1231960Y49937D02*
X-1236722Y59461D01*
X-1236722Y59461D02*
X-1236722Y68985D01*
X-1236722Y68985D02*
X-1231960Y78509D01*
X-1231960Y78509D02*
X-1227198Y83271D01*
X-1227198Y83271D02*
X-1217674Y88033D01*
X-1217674Y88033D02*
X-1198627Y92795D01*
X-1198627Y92795D02*
X-1174817Y92795D01*
X-1174817Y92795D02*
X-1155770Y88033D01*
X-1155770Y88033D02*
X-1146246Y83271D01*
X-1146246Y83271D02*
X-1141484Y78509D01*
X-1141484Y78509D02*
X-1136722Y68985D01*
X-1227198Y-7205D02*
X-1231960Y-11967D01*
X-1231960Y-11967D02*
X-1236722Y-7205D01*
X-1236722Y-7205D02*
X-1231960Y-2444D01*
X-1231960Y-2444D02*
X-1227198Y-7205D01*
X-1227198Y-7205D02*
X-1236722Y-7205D01*
X-1146246Y-50062D02*
X-1141484Y-54824D01*
X-1141484Y-54824D02*
X-1136722Y-64348D01*
X-1136722Y-64348D02*
X-1136722Y-88158D01*
X-1136722Y-88158D02*
X-1141484Y-97681D01*
X-1141484Y-97681D02*
X-1146246Y-102443D01*
X-1146246Y-102443D02*
X-1155770Y-107205D01*
X-1155770Y-107205D02*
X-1165293Y-107205D01*
X-1165293Y-107205D02*
X-1179579Y-102443D01*
X-1179579Y-102443D02*
X-1236722Y-45301D01*
X-1236722Y-45301D02*
X-1236722Y-107205D01*
D11*
%TO.C,MH3*%
X-1077528Y-859709D02*
X-1075702Y-860091D01*
X-1074104Y-860896D01*
X-1072670Y-862196D01*
X-1071336Y-864066D01*
X-1070038Y-866578D01*
X-1068713Y-869804D01*
X-1068700Y-869837D01*
X-1064263Y-882529D01*
X-1060284Y-895782D01*
X-1056786Y-909494D01*
X-1053792Y-923562D01*
X-1051327Y-937882D01*
X-1049412Y-952353D01*
X-1048790Y-958315D01*
X-1048337Y-964343D01*
X-1048205Y-969699D01*
X-1048396Y-974440D01*
X-1048912Y-978619D01*
X-1049648Y-981919D01*
X-1051752Y-988076D01*
X-1054503Y-993798D01*
X-1057873Y-999052D01*
X-1061834Y-1003807D01*
X-1066359Y-1008029D01*
X-1071421Y-1011687D01*
X-1076992Y-1014748D01*
X-1077870Y-1015154D01*
X-1083387Y-1017218D01*
X-1089186Y-1018590D01*
X-1095158Y-1019272D01*
X-1101196Y-1019263D01*
X-1107194Y-1018563D01*
X-1113042Y-1017175D01*
X-1118635Y-1015098D01*
X-1119002Y-1014932D01*
X-1124337Y-1012068D01*
X-1129292Y-1008550D01*
X-1133804Y-1004455D01*
X-1137812Y-999854D01*
X-1141256Y-994822D01*
X-1144073Y-989433D01*
X-1146203Y-983760D01*
X-1146836Y-981480D01*
X-1147139Y-980012D01*
X-1147478Y-977943D01*
X-1147825Y-975464D01*
X-1148155Y-972768D01*
X-1148440Y-970044D01*
X-1148444Y-969999D01*
X-1149552Y-959855D01*
X-1150918Y-950283D01*
X-1152579Y-941093D01*
X-1154569Y-932096D01*
X-1156927Y-923102D01*
X-1158372Y-918154D01*
X-1159372Y-914580D01*
X-1160003Y-911614D01*
X-1160261Y-909162D01*
X-1160140Y-907128D01*
X-1159637Y-905415D01*
X-1158746Y-903928D01*
X-1157618Y-902711D01*
X-1156631Y-901883D01*
X-1155585Y-901223D01*
X-1154336Y-900677D01*
X-1152737Y-900193D01*
X-1150645Y-899721D01*
X-1147914Y-899207D01*
X-1147823Y-899191D01*
X-1141990Y-898025D01*
X-1136647Y-896672D01*
X-1131494Y-895049D01*
X-1128037Y-893784D01*
X-1120118Y-890319D01*
X-1112482Y-886142D01*
X-1105207Y-881308D01*
X-1098373Y-875872D01*
X-1092058Y-869890D01*
X-1088907Y-866468D01*
X-1086425Y-863833D01*
X-1084175Y-861883D01*
X-1082080Y-860570D01*
X-1080062Y-859849D01*
X-1078043Y-859673D01*
X-1077528Y-859709D01*
G36*
X-1077528Y-859709D02*
G01*
X-1075702Y-860091D01*
X-1074104Y-860896D01*
X-1072670Y-862196D01*
X-1071336Y-864066D01*
X-1070038Y-866578D01*
X-1068713Y-869804D01*
X-1068700Y-869837D01*
X-1064263Y-882529D01*
X-1060284Y-895782D01*
X-1056786Y-909494D01*
X-1053792Y-923562D01*
X-1051327Y-937882D01*
X-1049412Y-952353D01*
X-1048790Y-958315D01*
X-1048337Y-964343D01*
X-1048205Y-969699D01*
X-1048396Y-974440D01*
X-1048912Y-978619D01*
X-1049648Y-981919D01*
X-1051752Y-988076D01*
X-1054503Y-993798D01*
X-1057873Y-999052D01*
X-1061834Y-1003807D01*
X-1066359Y-1008029D01*
X-1071421Y-1011687D01*
X-1076992Y-1014748D01*
X-1077870Y-1015154D01*
X-1083387Y-1017218D01*
X-1089186Y-1018590D01*
X-1095158Y-1019272D01*
X-1101196Y-1019263D01*
X-1107194Y-1018563D01*
X-1113042Y-1017175D01*
X-1118635Y-1015098D01*
X-1119002Y-1014932D01*
X-1124337Y-1012068D01*
X-1129292Y-1008550D01*
X-1133804Y-1004455D01*
X-1137812Y-999854D01*
X-1141256Y-994822D01*
X-1144073Y-989433D01*
X-1146203Y-983760D01*
X-1146836Y-981480D01*
X-1147139Y-980012D01*
X-1147478Y-977943D01*
X-1147825Y-975464D01*
X-1148155Y-972768D01*
X-1148440Y-970044D01*
X-1148444Y-969999D01*
X-1149552Y-959855D01*
X-1150918Y-950283D01*
X-1152579Y-941093D01*
X-1154569Y-932096D01*
X-1156927Y-923102D01*
X-1158372Y-918154D01*
X-1159372Y-914580D01*
X-1160003Y-911614D01*
X-1160261Y-909162D01*
X-1160140Y-907128D01*
X-1159637Y-905415D01*
X-1158746Y-903928D01*
X-1157618Y-902711D01*
X-1156631Y-901883D01*
X-1155585Y-901223D01*
X-1154336Y-900677D01*
X-1152737Y-900193D01*
X-1150645Y-899721D01*
X-1147914Y-899207D01*
X-1147823Y-899191D01*
X-1141990Y-898025D01*
X-1136647Y-896672D01*
X-1131494Y-895049D01*
X-1128037Y-893784D01*
X-1120118Y-890319D01*
X-1112482Y-886142D01*
X-1105207Y-881308D01*
X-1098373Y-875872D01*
X-1092058Y-869890D01*
X-1088907Y-866468D01*
X-1086425Y-863833D01*
X-1084175Y-861883D01*
X-1082080Y-860570D01*
X-1080062Y-859849D01*
X-1078043Y-859673D01*
X-1077528Y-859709D01*
G37*
X-1273815Y-609357D02*
X-1267539Y-610507D01*
X-1267369Y-610549D01*
X-1265641Y-611038D01*
X-1263818Y-611690D01*
X-1261725Y-612578D01*
X-1259187Y-613771D01*
X-1258150Y-614280D01*
X-1256217Y-615264D01*
X-1254377Y-616273D01*
X-1252547Y-617366D01*
X-1250642Y-618600D01*
X-1248581Y-620034D01*
X-1246279Y-621727D01*
X-1243654Y-623738D01*
X-1240622Y-626124D01*
X-1237101Y-628945D01*
X-1235634Y-630130D01*
X-1226690Y-637665D01*
X-1217730Y-645795D01*
X-1208890Y-654380D01*
X-1200308Y-663279D01*
X-1192122Y-672350D01*
X-1184470Y-681451D01*
X-1179582Y-687664D01*
X-1177743Y-690172D01*
X-1176413Y-692244D01*
X-1175536Y-693998D01*
X-1175053Y-695551D01*
X-1174906Y-697022D01*
X-1174909Y-697227D01*
X-1175162Y-699110D01*
X-1175904Y-700620D01*
X-1176884Y-701726D01*
X-1178724Y-703022D01*
X-1181258Y-704039D01*
X-1184431Y-704755D01*
X-1185006Y-704842D01*
X-1193958Y-706492D01*
X-1202618Y-708855D01*
X-1210949Y-711917D01*
X-1218919Y-715661D01*
X-1226491Y-720071D01*
X-1233632Y-725133D01*
X-1238404Y-729097D01*
X-1240881Y-731360D01*
X-1243265Y-733689D01*
X-1245705Y-736240D01*
X-1248349Y-739165D01*
X-1250589Y-741737D01*
X-1251866Y-743144D01*
X-1252924Y-744079D01*
X-1254000Y-744723D01*
X-1255039Y-745153D01*
X-1257026Y-745679D01*
X-1258853Y-745687D01*
X-1260620Y-745132D01*
X-1262428Y-743972D01*
X-1264376Y-742161D01*
X-1265989Y-740351D01*
X-1274654Y-730624D01*
X-1283928Y-721285D01*
X-1293855Y-712294D01*
X-1304480Y-703607D01*
X-1306962Y-701697D01*
X-1309768Y-699538D01*
X-1312042Y-697727D01*
X-1313903Y-696155D01*
X-1315470Y-694715D01*
X-1316861Y-693299D01*
X-1318194Y-691799D01*
X-1319165Y-690633D01*
X-1322667Y-685728D01*
X-1325537Y-680418D01*
X-1327755Y-674794D01*
X-1329301Y-668948D01*
X-1330156Y-662968D01*
X-1330302Y-656947D01*
X-1329718Y-650974D01*
X-1328690Y-646210D01*
X-1326669Y-640213D01*
X-1324016Y-634650D01*
X-1320780Y-629551D01*
X-1317014Y-624944D01*
X-1312767Y-620860D01*
X-1308089Y-617327D01*
X-1303031Y-614375D01*
X-1297645Y-612033D01*
X-1291979Y-610331D01*
X-1286085Y-609298D01*
X-1280014Y-608964D01*
X-1273815Y-609357D01*
G36*
X-1273815Y-609357D02*
G01*
X-1267539Y-610507D01*
X-1267369Y-610549D01*
X-1265641Y-611038D01*
X-1263818Y-611690D01*
X-1261725Y-612578D01*
X-1259187Y-613771D01*
X-1258150Y-614280D01*
X-1256217Y-615264D01*
X-1254377Y-616273D01*
X-1252547Y-617366D01*
X-1250642Y-618600D01*
X-1248581Y-620034D01*
X-1246279Y-621727D01*
X-1243654Y-623738D01*
X-1240622Y-626124D01*
X-1237101Y-628945D01*
X-1235634Y-630130D01*
X-1226690Y-637665D01*
X-1217730Y-645795D01*
X-1208890Y-654380D01*
X-1200308Y-663279D01*
X-1192122Y-672350D01*
X-1184470Y-681451D01*
X-1179582Y-687664D01*
X-1177743Y-690172D01*
X-1176413Y-692244D01*
X-1175536Y-693998D01*
X-1175053Y-695551D01*
X-1174906Y-697022D01*
X-1174909Y-697227D01*
X-1175162Y-699110D01*
X-1175904Y-700620D01*
X-1176884Y-701726D01*
X-1178724Y-703022D01*
X-1181258Y-704039D01*
X-1184431Y-704755D01*
X-1185006Y-704842D01*
X-1193958Y-706492D01*
X-1202618Y-708855D01*
X-1210949Y-711917D01*
X-1218919Y-715661D01*
X-1226491Y-720071D01*
X-1233632Y-725133D01*
X-1238404Y-729097D01*
X-1240881Y-731360D01*
X-1243265Y-733689D01*
X-1245705Y-736240D01*
X-1248349Y-739165D01*
X-1250589Y-741737D01*
X-1251866Y-743144D01*
X-1252924Y-744079D01*
X-1254000Y-744723D01*
X-1255039Y-745153D01*
X-1257026Y-745679D01*
X-1258853Y-745687D01*
X-1260620Y-745132D01*
X-1262428Y-743972D01*
X-1264376Y-742161D01*
X-1265989Y-740351D01*
X-1274654Y-730624D01*
X-1283928Y-721285D01*
X-1293855Y-712294D01*
X-1304480Y-703607D01*
X-1306962Y-701697D01*
X-1309768Y-699538D01*
X-1312042Y-697727D01*
X-1313903Y-696155D01*
X-1315470Y-694715D01*
X-1316861Y-693299D01*
X-1318194Y-691799D01*
X-1319165Y-690633D01*
X-1322667Y-685728D01*
X-1325537Y-680418D01*
X-1327755Y-674794D01*
X-1329301Y-668948D01*
X-1330156Y-662968D01*
X-1330302Y-656947D01*
X-1329718Y-650974D01*
X-1328690Y-646210D01*
X-1326669Y-640213D01*
X-1324016Y-634650D01*
X-1320780Y-629551D01*
X-1317014Y-624944D01*
X-1312767Y-620860D01*
X-1308089Y-617327D01*
X-1303031Y-614375D01*
X-1297645Y-612033D01*
X-1291979Y-610331D01*
X-1286085Y-609298D01*
X-1280014Y-608964D01*
X-1273815Y-609357D01*
G37*
X-1127724Y-767420D02*
X-1125300Y-768258D01*
X-1124492Y-768698D01*
X-1121943Y-770702D01*
X-1120036Y-773111D01*
X-1118802Y-775835D01*
X-1118275Y-778780D01*
X-1118487Y-781857D01*
X-1119054Y-783931D01*
X-1119306Y-784641D01*
X-1119553Y-785285D01*
X-1119834Y-785888D01*
X-1120190Y-786478D01*
X-1120660Y-787078D01*
X-1121285Y-787716D01*
X-1122104Y-788417D01*
X-1123157Y-789206D01*
X-1124484Y-790110D01*
X-1126124Y-791153D01*
X-1128118Y-792362D01*
X-1130506Y-793763D01*
X-1133327Y-795381D01*
X-1136622Y-797242D01*
X-1140430Y-799371D01*
X-1144790Y-801795D01*
X-1149744Y-804539D01*
X-1155331Y-807629D01*
X-1158584Y-809427D01*
X-1164340Y-812609D01*
X-1169444Y-815428D01*
X-1173939Y-817906D01*
X-1177866Y-820065D01*
X-1181268Y-821927D01*
X-1184188Y-823514D01*
X-1186667Y-824849D01*
X-1188747Y-825953D01*
X-1190472Y-826848D01*
X-1191882Y-827556D01*
X-1193021Y-828100D01*
X-1193931Y-828502D01*
X-1194653Y-828783D01*
X-1195231Y-828966D01*
X-1195706Y-829072D01*
X-1196120Y-829124D01*
X-1196351Y-829138D01*
X-1199567Y-828914D01*
X-1202522Y-828004D01*
X-1205123Y-826475D01*
X-1207280Y-824394D01*
X-1208900Y-821828D01*
X-1209823Y-819170D01*
X-1210062Y-817976D01*
X-1210133Y-816966D01*
X-1210014Y-815886D01*
X-1209685Y-814480D01*
X-1209326Y-813194D01*
X-1208754Y-811325D01*
X-1208237Y-809998D01*
X-1207663Y-808978D01*
X-1206922Y-808032D01*
X-1206827Y-807924D01*
X-1206449Y-807572D01*
X-1205816Y-807094D01*
X-1204894Y-806471D01*
X-1203645Y-805681D01*
X-1202033Y-804703D01*
X-1200022Y-803516D01*
X-1197576Y-802100D01*
X-1194658Y-800432D01*
X-1191233Y-798493D01*
X-1187264Y-796262D01*
X-1182714Y-793717D01*
X-1177548Y-790837D01*
X-1171730Y-787602D01*
X-1170450Y-786891D01*
X-1164663Y-783680D01*
X-1159528Y-780835D01*
X-1155001Y-778334D01*
X-1151043Y-776155D01*
X-1147610Y-774275D01*
X-1144663Y-772674D01*
X-1142158Y-771328D01*
X-1140055Y-770217D01*
X-1138312Y-769317D01*
X-1136887Y-768608D01*
X-1135738Y-768066D01*
X-1134825Y-767671D01*
X-1134106Y-767399D01*
X-1133539Y-767230D01*
X-1133124Y-767146D01*
X-1130432Y-767031D01*
X-1127724Y-767420D01*
G36*
X-1127724Y-767420D02*
G01*
X-1125300Y-768258D01*
X-1124492Y-768698D01*
X-1121943Y-770702D01*
X-1120036Y-773111D01*
X-1118802Y-775835D01*
X-1118275Y-778780D01*
X-1118487Y-781857D01*
X-1119054Y-783931D01*
X-1119306Y-784641D01*
X-1119553Y-785285D01*
X-1119834Y-785888D01*
X-1120190Y-786478D01*
X-1120660Y-787078D01*
X-1121285Y-787716D01*
X-1122104Y-788417D01*
X-1123157Y-789206D01*
X-1124484Y-790110D01*
X-1126124Y-791153D01*
X-1128118Y-792362D01*
X-1130506Y-793763D01*
X-1133327Y-795381D01*
X-1136622Y-797242D01*
X-1140430Y-799371D01*
X-1144790Y-801795D01*
X-1149744Y-804539D01*
X-1155331Y-807629D01*
X-1158584Y-809427D01*
X-1164340Y-812609D01*
X-1169444Y-815428D01*
X-1173939Y-817906D01*
X-1177866Y-820065D01*
X-1181268Y-821927D01*
X-1184188Y-823514D01*
X-1186667Y-824849D01*
X-1188747Y-825953D01*
X-1190472Y-826848D01*
X-1191882Y-827556D01*
X-1193021Y-828100D01*
X-1193931Y-828502D01*
X-1194653Y-828783D01*
X-1195231Y-828966D01*
X-1195706Y-829072D01*
X-1196120Y-829124D01*
X-1196351Y-829138D01*
X-1199567Y-828914D01*
X-1202522Y-828004D01*
X-1205123Y-826475D01*
X-1207280Y-824394D01*
X-1208900Y-821828D01*
X-1209823Y-819170D01*
X-1210062Y-817976D01*
X-1210133Y-816966D01*
X-1210014Y-815886D01*
X-1209685Y-814480D01*
X-1209326Y-813194D01*
X-1208754Y-811325D01*
X-1208237Y-809998D01*
X-1207663Y-808978D01*
X-1206922Y-808032D01*
X-1206827Y-807924D01*
X-1206449Y-807572D01*
X-1205816Y-807094D01*
X-1204894Y-806471D01*
X-1203645Y-805681D01*
X-1202033Y-804703D01*
X-1200022Y-803516D01*
X-1197576Y-802100D01*
X-1194658Y-800432D01*
X-1191233Y-798493D01*
X-1187264Y-796262D01*
X-1182714Y-793717D01*
X-1177548Y-790837D01*
X-1171730Y-787602D01*
X-1170450Y-786891D01*
X-1164663Y-783680D01*
X-1159528Y-780835D01*
X-1155001Y-778334D01*
X-1151043Y-776155D01*
X-1147610Y-774275D01*
X-1144663Y-772674D01*
X-1142158Y-771328D01*
X-1140055Y-770217D01*
X-1138312Y-769317D01*
X-1136887Y-768608D01*
X-1135738Y-768066D01*
X-1134825Y-767671D01*
X-1134106Y-767399D01*
X-1133539Y-767230D01*
X-1133124Y-767146D01*
X-1130432Y-767031D01*
X-1127724Y-767420D01*
G37*
X-1184506Y-754022D02*
X-1183099Y-754351D01*
X-1181814Y-754710D01*
X-1179945Y-755282D01*
X-1178618Y-755799D01*
X-1177598Y-756373D01*
X-1176652Y-757114D01*
X-1176544Y-757209D01*
X-1176192Y-757588D01*
X-1175714Y-758220D01*
X-1175091Y-759142D01*
X-1174301Y-760391D01*
X-1173323Y-762003D01*
X-1172136Y-764014D01*
X-1170719Y-766460D01*
X-1169052Y-769378D01*
X-1167113Y-772803D01*
X-1164882Y-776772D01*
X-1162337Y-781322D01*
X-1159457Y-786488D01*
X-1156222Y-792307D01*
X-1155511Y-793586D01*
X-1152300Y-799373D01*
X-1149455Y-804508D01*
X-1146954Y-809035D01*
X-1144774Y-812993D01*
X-1142895Y-816426D01*
X-1141294Y-819373D01*
X-1139948Y-821878D01*
X-1138837Y-823981D01*
X-1137937Y-825724D01*
X-1137228Y-827149D01*
X-1136686Y-828297D01*
X-1136291Y-829211D01*
X-1136019Y-829930D01*
X-1135849Y-830497D01*
X-1135766Y-830912D01*
X-1135651Y-833604D01*
X-1136039Y-836312D01*
X-1136878Y-838736D01*
X-1137318Y-839544D01*
X-1139322Y-842093D01*
X-1141731Y-844000D01*
X-1144454Y-845234D01*
X-1147400Y-845761D01*
X-1150477Y-845549D01*
X-1152551Y-844982D01*
X-1153261Y-844730D01*
X-1153904Y-844483D01*
X-1154508Y-844202D01*
X-1155097Y-843846D01*
X-1155698Y-843376D01*
X-1156336Y-842751D01*
X-1157037Y-841932D01*
X-1157826Y-840879D01*
X-1158729Y-839553D01*
X-1159773Y-837912D01*
X-1160982Y-835918D01*
X-1162383Y-833530D01*
X-1164001Y-830709D01*
X-1165862Y-827414D01*
X-1167991Y-823606D01*
X-1170415Y-819245D01*
X-1173159Y-814292D01*
X-1176249Y-808705D01*
X-1178047Y-805453D01*
X-1181229Y-799696D01*
X-1184048Y-794592D01*
X-1186526Y-790097D01*
X-1188685Y-786170D01*
X-1190547Y-782768D01*
X-1192134Y-779848D01*
X-1193469Y-777369D01*
X-1194573Y-775289D01*
X-1195468Y-773564D01*
X-1196176Y-772154D01*
X-1196720Y-771015D01*
X-1197122Y-770105D01*
X-1197403Y-769383D01*
X-1197585Y-768805D01*
X-1197692Y-768330D01*
X-1197744Y-767916D01*
X-1197758Y-767685D01*
X-1197534Y-764469D01*
X-1196624Y-761514D01*
X-1195095Y-758913D01*
X-1193013Y-756756D01*
X-1190448Y-755136D01*
X-1187790Y-754213D01*
X-1186596Y-753974D01*
X-1185586Y-753903D01*
X-1184506Y-754022D01*
G36*
X-1184506Y-754022D02*
G01*
X-1183099Y-754351D01*
X-1181814Y-754710D01*
X-1179945Y-755282D01*
X-1178618Y-755799D01*
X-1177598Y-756373D01*
X-1176652Y-757114D01*
X-1176544Y-757209D01*
X-1176192Y-757588D01*
X-1175714Y-758220D01*
X-1175091Y-759142D01*
X-1174301Y-760391D01*
X-1173323Y-762003D01*
X-1172136Y-764014D01*
X-1170719Y-766460D01*
X-1169052Y-769378D01*
X-1167113Y-772803D01*
X-1164882Y-776772D01*
X-1162337Y-781322D01*
X-1159457Y-786488D01*
X-1156222Y-792307D01*
X-1155511Y-793586D01*
X-1152300Y-799373D01*
X-1149455Y-804508D01*
X-1146954Y-809035D01*
X-1144774Y-812993D01*
X-1142895Y-816426D01*
X-1141294Y-819373D01*
X-1139948Y-821878D01*
X-1138837Y-823981D01*
X-1137937Y-825724D01*
X-1137228Y-827149D01*
X-1136686Y-828297D01*
X-1136291Y-829211D01*
X-1136019Y-829930D01*
X-1135849Y-830497D01*
X-1135766Y-830912D01*
X-1135651Y-833604D01*
X-1136039Y-836312D01*
X-1136878Y-838736D01*
X-1137318Y-839544D01*
X-1139322Y-842093D01*
X-1141731Y-844000D01*
X-1144454Y-845234D01*
X-1147400Y-845761D01*
X-1150477Y-845549D01*
X-1152551Y-844982D01*
X-1153261Y-844730D01*
X-1153904Y-844483D01*
X-1154508Y-844202D01*
X-1155097Y-843846D01*
X-1155698Y-843376D01*
X-1156336Y-842751D01*
X-1157037Y-841932D01*
X-1157826Y-840879D01*
X-1158729Y-839553D01*
X-1159773Y-837912D01*
X-1160982Y-835918D01*
X-1162383Y-833530D01*
X-1164001Y-830709D01*
X-1165862Y-827414D01*
X-1167991Y-823606D01*
X-1170415Y-819245D01*
X-1173159Y-814292D01*
X-1176249Y-808705D01*
X-1178047Y-805453D01*
X-1181229Y-799696D01*
X-1184048Y-794592D01*
X-1186526Y-790097D01*
X-1188685Y-786170D01*
X-1190547Y-782768D01*
X-1192134Y-779848D01*
X-1193469Y-777369D01*
X-1194573Y-775289D01*
X-1195468Y-773564D01*
X-1196176Y-772154D01*
X-1196720Y-771015D01*
X-1197122Y-770105D01*
X-1197403Y-769383D01*
X-1197585Y-768805D01*
X-1197692Y-768330D01*
X-1197744Y-767916D01*
X-1197758Y-767685D01*
X-1197534Y-764469D01*
X-1196624Y-761514D01*
X-1195095Y-758913D01*
X-1193013Y-756756D01*
X-1190448Y-755136D01*
X-1187790Y-754213D01*
X-1186596Y-753974D01*
X-1185586Y-753903D01*
X-1184506Y-754022D01*
G37*
D12*
%TO.C,*%
G36*
X-1351500Y43545D02*
G01*
X-1341147Y38483D01*
X-1332997Y30334D01*
X-1327936Y19980D01*
X-1326480Y9990D01*
X-1326480Y-9990D01*
X-1327936Y-19980D01*
X-1332997Y-30333D01*
X-1341147Y-38483D01*
X-1351500Y-43544D01*
X-1361490Y-45000D01*
X-1796470Y-45000D01*
X-1806460Y-43544D01*
X-1816813Y-38483D01*
X-1824963Y-30333D01*
X-1830024Y-19980D01*
X-1831480Y-9990D01*
X-1831480Y9990D01*
X-1830024Y19980D01*
X-1824963Y30334D01*
X-1816813Y38483D01*
X-1806460Y43545D01*
X-1796470Y45000D01*
X-1361490Y45000D01*
X-1351500Y43545D01*
G37*
G36*
X-1351500Y-83455D02*
G01*
X-1341147Y-88517D01*
X-1332997Y-96666D01*
X-1327936Y-107020D01*
X-1326480Y-117010D01*
X-1326480Y-136990D01*
X-1327936Y-146980D01*
X-1332997Y-157333D01*
X-1341147Y-165483D01*
X-1351500Y-170544D01*
X-1361490Y-172000D01*
X-1796470Y-172000D01*
X-1806460Y-170544D01*
X-1816813Y-165483D01*
X-1824963Y-157333D01*
X-1830024Y-146980D01*
X-1831480Y-136990D01*
X-1831480Y-117010D01*
X-1830024Y-107020D01*
X-1824963Y-96666D01*
X-1816813Y-88517D01*
X-1806460Y-83455D01*
X-1796470Y-82000D01*
X-1361490Y-82000D01*
X-1351500Y-83455D01*
G37*
G36*
X-1351500Y170545D02*
G01*
X-1341147Y165483D01*
X-1332997Y157334D01*
X-1327936Y146980D01*
X-1326480Y136990D01*
X-1326480Y117010D01*
X-1327936Y107020D01*
X-1332997Y96667D01*
X-1341147Y88517D01*
X-1351500Y83456D01*
X-1361490Y82000D01*
X-1746470Y82000D01*
X-1756460Y83456D01*
X-1766813Y88517D01*
X-1774963Y96667D01*
X-1780024Y107020D01*
X-1781480Y117010D01*
X-1781480Y136990D01*
X-1780024Y146980D01*
X-1774963Y157334D01*
X-1766813Y165483D01*
X-1756460Y170545D01*
X-1746470Y172000D01*
X-1361490Y172000D01*
X-1351500Y170545D01*
G37*
D11*
%TO.C,MH1*%
X-1258239Y746425D02*
X-1257014Y746027D01*
X-1255900Y745490D01*
X-1254774Y744720D01*
X-1253518Y743621D01*
X-1252008Y742097D01*
X-1250125Y740053D01*
X-1250063Y739985D01*
X-1245984Y735656D01*
X-1242005Y731841D01*
X-1237898Y728332D01*
X-1234993Y726070D01*
X-1227858Y721191D01*
X-1220269Y716928D01*
X-1212315Y713321D01*
X-1204083Y710405D01*
X-1195664Y708221D01*
X-1191092Y707361D01*
X-1187543Y706652D01*
X-1184696Y705778D01*
X-1182473Y704697D01*
X-1180792Y703368D01*
X-1179573Y701749D01*
X-1179330Y701293D01*
X-1178687Y699542D01*
X-1178522Y697761D01*
X-1178865Y695855D01*
X-1179744Y693733D01*
X-1181186Y691301D01*
X-1183220Y688467D01*
X-1183241Y688440D01*
X-1191653Y677951D01*
X-1200784Y667553D01*
X-1210559Y657321D01*
X-1220903Y647328D01*
X-1231740Y637648D01*
X-1242998Y628355D01*
X-1247724Y624669D01*
X-1252596Y621090D01*
X-1257069Y618140D01*
X-1261190Y615790D01*
X-1265007Y614012D01*
X-1268196Y612888D01*
X-1274532Y611410D01*
X-1280843Y610710D01*
X-1287084Y610784D01*
X-1293215Y611623D01*
X-1299194Y613223D01*
X-1304979Y615578D01*
X-1310527Y618680D01*
X-1311336Y619210D01*
X-1316010Y622795D01*
X-1320247Y626985D01*
X-1323990Y631689D01*
X-1327182Y636815D01*
X-1329767Y642271D01*
X-1331689Y647967D01*
X-1332891Y653811D01*
X-1332945Y654209D01*
X-1333343Y660252D01*
X-1332985Y666317D01*
X-1331903Y672314D01*
X-1330126Y678151D01*
X-1327684Y683738D01*
X-1324606Y688983D01*
X-1320924Y693796D01*
X-1319326Y695541D01*
X-1318241Y696576D01*
X-1316666Y697960D01*
X-1314748Y699567D01*
X-1312636Y701276D01*
X-1310477Y702961D01*
X-1310441Y702988D01*
X-1302425Y709304D01*
X-1295032Y715535D01*
X-1288119Y721812D01*
X-1281544Y728268D01*
X-1275166Y735033D01*
X-1271736Y738882D01*
X-1269234Y741624D01*
X-1267054Y743730D01*
X-1265111Y745248D01*
X-1263321Y746224D01*
X-1261602Y746705D01*
X-1259869Y746738D01*
X-1258239Y746425D01*
G36*
X-1258239Y746425D02*
G01*
X-1257014Y746027D01*
X-1255900Y745490D01*
X-1254774Y744720D01*
X-1253518Y743621D01*
X-1252008Y742097D01*
X-1250125Y740053D01*
X-1250063Y739985D01*
X-1245984Y735656D01*
X-1242005Y731841D01*
X-1237898Y728332D01*
X-1234993Y726070D01*
X-1227858Y721191D01*
X-1220269Y716928D01*
X-1212315Y713321D01*
X-1204083Y710405D01*
X-1195664Y708221D01*
X-1191092Y707361D01*
X-1187543Y706652D01*
X-1184696Y705778D01*
X-1182473Y704697D01*
X-1180792Y703368D01*
X-1179573Y701749D01*
X-1179330Y701293D01*
X-1178687Y699542D01*
X-1178522Y697761D01*
X-1178865Y695855D01*
X-1179744Y693733D01*
X-1181186Y691301D01*
X-1183220Y688467D01*
X-1183241Y688440D01*
X-1191653Y677951D01*
X-1200784Y667553D01*
X-1210559Y657321D01*
X-1220903Y647328D01*
X-1231740Y637648D01*
X-1242998Y628355D01*
X-1247724Y624669D01*
X-1252596Y621090D01*
X-1257069Y618140D01*
X-1261190Y615790D01*
X-1265007Y614012D01*
X-1268196Y612888D01*
X-1274532Y611410D01*
X-1280843Y610710D01*
X-1287084Y610784D01*
X-1293215Y611623D01*
X-1299194Y613223D01*
X-1304979Y615578D01*
X-1310527Y618680D01*
X-1311336Y619210D01*
X-1316010Y622795D01*
X-1320247Y626985D01*
X-1323990Y631689D01*
X-1327182Y636815D01*
X-1329767Y642271D01*
X-1331689Y647967D01*
X-1332891Y653811D01*
X-1332945Y654209D01*
X-1333343Y660252D01*
X-1332985Y666317D01*
X-1331903Y672314D01*
X-1330126Y678151D01*
X-1327684Y683738D01*
X-1324606Y688983D01*
X-1320924Y693796D01*
X-1319326Y695541D01*
X-1318241Y696576D01*
X-1316666Y697960D01*
X-1314748Y699567D01*
X-1312636Y701276D01*
X-1310477Y702961D01*
X-1310441Y702988D01*
X-1302425Y709304D01*
X-1295032Y715535D01*
X-1288119Y721812D01*
X-1281544Y728268D01*
X-1275166Y735033D01*
X-1271736Y738882D01*
X-1269234Y741624D01*
X-1267054Y743730D01*
X-1265111Y745248D01*
X-1263321Y746224D01*
X-1261602Y746705D01*
X-1259869Y746738D01*
X-1258239Y746425D01*
G37*
X-1091735Y1035131D02*
X-1085833Y1034378D01*
X-1080118Y1032941D01*
X-1074643Y1030846D01*
X-1069460Y1028121D01*
X-1064619Y1024794D01*
X-1060174Y1020891D01*
X-1056174Y1016441D01*
X-1052673Y1011469D01*
X-1049722Y1006004D01*
X-1047371Y1000072D01*
X-1047317Y999906D01*
X-1046816Y998181D01*
X-1046403Y996289D01*
X-1046047Y994044D01*
X-1045714Y991259D01*
X-1045595Y990110D01*
X-1045406Y987950D01*
X-1045287Y985854D01*
X-1045243Y983723D01*
X-1045280Y981454D01*
X-1045404Y978946D01*
X-1045621Y976096D01*
X-1045935Y972805D01*
X-1046352Y968969D01*
X-1046878Y964489D01*
X-1047106Y962616D01*
X-1048756Y951039D01*
X-1050903Y939131D01*
X-1053499Y927085D01*
X-1056498Y915092D01*
X-1059852Y903343D01*
X-1063516Y892031D01*
X-1066194Y884593D01*
X-1067347Y881704D01*
X-1068399Y879479D01*
X-1069421Y877805D01*
X-1070482Y876573D01*
X-1071652Y875668D01*
X-1071828Y875562D01*
X-1073559Y874780D01*
X-1075233Y874609D01*
X-1076690Y874853D01*
X-1078764Y875727D01*
X-1080969Y877337D01*
X-1083258Y879648D01*
X-1083636Y880090D01*
X-1089779Y886808D01*
X-1096373Y892899D01*
X-1103384Y898342D01*
X-1110782Y903116D01*
X-1118535Y907201D01*
X-1126612Y910575D01*
X-1132503Y912520D01*
X-1135734Y913422D01*
X-1138973Y914210D01*
X-1142429Y914927D01*
X-1146310Y915619D01*
X-1149679Y916156D01*
X-1151548Y916493D01*
X-1152903Y916896D01*
X-1154019Y917466D01*
X-1154934Y918119D01*
X-1156433Y919526D01*
X-1157408Y921072D01*
X-1157874Y922864D01*
X-1157848Y925012D01*
X-1157344Y927624D01*
X-1156664Y929951D01*
X-1153007Y942453D01*
X-1150002Y955267D01*
X-1147637Y968450D01*
X-1145900Y982064D01*
X-1145596Y985181D01*
X-1145252Y988704D01*
X-1144921Y991593D01*
X-1144574Y994004D01*
X-1144183Y996096D01*
X-1143719Y998026D01*
X-1143154Y999952D01*
X-1142680Y1001393D01*
X-1140376Y1006963D01*
X-1137393Y1012210D01*
X-1133800Y1017071D01*
X-1129661Y1021480D01*
X-1125043Y1025374D01*
X-1120014Y1028688D01*
X-1114639Y1031358D01*
X-1110054Y1033011D01*
X-1103898Y1034475D01*
X-1097774Y1035173D01*
X-1091735Y1035131D01*
G36*
X-1091735Y1035131D02*
G01*
X-1085833Y1034378D01*
X-1080118Y1032941D01*
X-1074643Y1030846D01*
X-1069460Y1028121D01*
X-1064619Y1024794D01*
X-1060174Y1020891D01*
X-1056174Y1016441D01*
X-1052673Y1011469D01*
X-1049722Y1006004D01*
X-1047371Y1000072D01*
X-1047317Y999906D01*
X-1046816Y998181D01*
X-1046403Y996289D01*
X-1046047Y994044D01*
X-1045714Y991259D01*
X-1045595Y990110D01*
X-1045406Y987950D01*
X-1045287Y985854D01*
X-1045243Y983723D01*
X-1045280Y981454D01*
X-1045404Y978946D01*
X-1045621Y976096D01*
X-1045935Y972805D01*
X-1046352Y968969D01*
X-1046878Y964489D01*
X-1047106Y962616D01*
X-1048756Y951039D01*
X-1050903Y939131D01*
X-1053499Y927085D01*
X-1056498Y915092D01*
X-1059852Y903343D01*
X-1063516Y892031D01*
X-1066194Y884593D01*
X-1067347Y881704D01*
X-1068399Y879479D01*
X-1069421Y877805D01*
X-1070482Y876573D01*
X-1071652Y875668D01*
X-1071828Y875562D01*
X-1073559Y874780D01*
X-1075233Y874609D01*
X-1076690Y874853D01*
X-1078764Y875727D01*
X-1080969Y877337D01*
X-1083258Y879648D01*
X-1083636Y880090D01*
X-1089779Y886808D01*
X-1096373Y892899D01*
X-1103384Y898342D01*
X-1110782Y903116D01*
X-1118535Y907201D01*
X-1126612Y910575D01*
X-1132503Y912520D01*
X-1135734Y913422D01*
X-1138973Y914210D01*
X-1142429Y914927D01*
X-1146310Y915619D01*
X-1149679Y916156D01*
X-1151548Y916493D01*
X-1152903Y916896D01*
X-1154019Y917466D01*
X-1154934Y918119D01*
X-1156433Y919526D01*
X-1157408Y921072D01*
X-1157874Y922864D01*
X-1157848Y925012D01*
X-1157344Y927624D01*
X-1156664Y929951D01*
X-1153007Y942453D01*
X-1150002Y955267D01*
X-1147637Y968450D01*
X-1145900Y982064D01*
X-1145596Y985181D01*
X-1145252Y988704D01*
X-1144921Y991593D01*
X-1144574Y994004D01*
X-1144183Y996096D01*
X-1143719Y998026D01*
X-1143154Y999952D01*
X-1142680Y1001393D01*
X-1140376Y1006963D01*
X-1137393Y1012210D01*
X-1133800Y1017071D01*
X-1129661Y1021480D01*
X-1125043Y1025374D01*
X-1120014Y1028688D01*
X-1114639Y1031358D01*
X-1110054Y1033011D01*
X-1103898Y1034475D01*
X-1097774Y1035173D01*
X-1091735Y1035131D01*
G37*
X-1132648Y874020D02*
X-1131864Y873889D01*
X-1131120Y873661D01*
X-1130346Y873350D01*
X-1129957Y873182D01*
X-1128595Y872376D01*
X-1127184Y871200D01*
X-1125939Y869869D01*
X-1125074Y868599D01*
X-1124853Y868065D01*
X-1124608Y867527D01*
X-1124018Y866369D01*
X-1123120Y864663D01*
X-1121954Y862483D01*
X-1120560Y859903D01*
X-1118977Y856994D01*
X-1117245Y853831D01*
X-1115559Y850771D01*
X-1113252Y846583D01*
X-1111309Y843021D01*
X-1109701Y840023D01*
X-1108399Y837523D01*
X-1107373Y835459D01*
X-1106596Y833766D01*
X-1106039Y832383D01*
X-1105671Y831244D01*
X-1105466Y830286D01*
X-1105394Y829445D01*
X-1105425Y828659D01*
X-1105446Y828464D01*
X-1106029Y826210D01*
X-1107152Y823989D01*
X-1108573Y822223D01*
X-1110164Y821109D01*
X-1112228Y820239D01*
X-1114462Y819698D01*
X-1116563Y819575D01*
X-1117408Y819684D01*
X-1119257Y820299D01*
X-1121142Y821294D01*
X-1122748Y822485D01*
X-1123462Y823235D01*
X-1123891Y823886D01*
X-1124627Y825111D01*
X-1125598Y826786D01*
X-1126731Y828786D01*
X-1127956Y830988D01*
X-1128157Y831353D01*
X-1129340Y833498D01*
X-1130392Y835391D01*
X-1131254Y836926D01*
X-1131867Y838000D01*
X-1132173Y838507D01*
X-1132194Y838533D01*
X-1132382Y838212D01*
X-1132814Y837279D01*
X-1133437Y835855D01*
X-1134197Y834065D01*
X-1134684Y832894D01*
X-1140975Y818697D01*
X-1147985Y804835D01*
X-1155714Y791309D01*
X-1164161Y778120D01*
X-1168570Y771771D01*
X-1169831Y769964D01*
X-1170880Y768388D01*
X-1171649Y767152D01*
X-1172070Y766363D01*
X-1172112Y766128D01*
X-1171625Y766092D01*
X-1170465Y766083D01*
X-1168753Y766101D01*
X-1166609Y766143D01*
X-1164154Y766208D01*
X-1163159Y766239D01*
X-1159967Y766337D01*
X-1157457Y766396D01*
X-1155514Y766410D01*
X-1154028Y766369D01*
X-1152886Y766265D01*
X-1151976Y766091D01*
X-1151185Y765838D01*
X-1150400Y765499D01*
X-1149978Y765296D01*
X-1147758Y763804D01*
X-1146088Y761855D01*
X-1144988Y759581D01*
X-1144476Y757113D01*
X-1144571Y754583D01*
X-1145289Y752122D01*
X-1146651Y749861D01*
X-1147670Y748761D01*
X-1148601Y747970D01*
X-1149582Y747345D01*
X-1150721Y746863D01*
X-1152125Y746501D01*
X-1153904Y746239D01*
X-1156166Y746054D01*
X-1159018Y745924D01*
X-1162057Y745838D01*
X-1164975Y745768D01*
X-1168471Y745681D01*
X-1172328Y745583D01*
X-1176331Y745479D01*
X-1180264Y745375D01*
X-1183752Y745281D01*
X-1187561Y745185D01*
X-1190670Y745134D01*
X-1193174Y745140D01*
X-1195164Y745215D01*
X-1196736Y745370D01*
X-1197983Y745617D01*
X-1198997Y745968D01*
X-1199874Y746433D01*
X-1200705Y747025D01*
X-1201221Y747445D01*
X-1201769Y747920D01*
X-1202251Y748400D01*
X-1202687Y748951D01*
X-1203099Y749639D01*
X-1203507Y750529D01*
X-1203932Y751689D01*
X-1204395Y753183D01*
X-1204918Y755078D01*
X-1205521Y757440D01*
X-1206226Y760334D01*
X-1207053Y763827D01*
X-1208023Y767984D01*
X-1208741Y771082D01*
X-1209637Y774971D01*
X-1210476Y778665D01*
X-1211241Y782086D01*
X-1211915Y785153D01*
X-1212480Y787786D01*
X-1212919Y789905D01*
X-1213216Y791431D01*
X-1213351Y792284D01*
X-1213358Y792380D01*
X-1213043Y794893D01*
X-1212070Y797153D01*
X-1210557Y799087D01*
X-1208618Y800625D01*
X-1206369Y801694D01*
X-1203925Y802224D01*
X-1201404Y802142D01*
X-1198919Y801378D01*
X-1198858Y801349D01*
X-1197033Y800204D01*
X-1195444Y798713D01*
X-1195356Y798607D01*
X-1194831Y797941D01*
X-1194411Y797306D01*
X-1194049Y796569D01*
X-1193696Y795597D01*
X-1193303Y794255D01*
X-1192822Y792411D01*
X-1192205Y789930D01*
X-1192197Y789898D01*
X-1191602Y787452D01*
X-1191041Y785079D01*
X-1190555Y782964D01*
X-1190190Y781294D01*
X-1190022Y780462D01*
X-1189841Y779480D01*
X-1189669Y778802D01*
X-1189439Y778476D01*
X-1189085Y778548D01*
X-1188540Y779066D01*
X-1187739Y780077D01*
X-1186615Y781629D01*
X-1185101Y783768D01*
X-1184816Y784171D01*
X-1178744Y793134D01*
X-1172894Y802513D01*
X-1167347Y812157D01*
X-1162186Y821914D01*
X-1157492Y831634D01*
X-1153346Y841166D01*
X-1151380Y846140D01*
X-1150696Y847935D01*
X-1154046Y846711D01*
X-1155657Y846148D01*
X-1157790Y845442D01*
X-1160204Y844670D01*
X-1162657Y843910D01*
X-1163478Y843662D01*
X-1165893Y842951D01*
X-1167699Y842462D01*
X-1169036Y842164D01*
X-1170047Y842029D01*
X-1170875Y842029D01*
X-1171279Y842071D01*
X-1173861Y842805D01*
X-1176179Y844193D01*
X-1178085Y846111D01*
X-1179433Y848430D01*
X-1179773Y849404D01*
X-1180133Y851977D01*
X-1179826Y854591D01*
X-1178914Y857050D01*
X-1177455Y859155D01*
X-1176527Y860023D01*
X-1176114Y860339D01*
X-1175660Y860640D01*
X-1175102Y860949D01*
X-1174376Y861289D01*
X-1173419Y861682D01*
X-1172170Y862152D01*
X-1170564Y862720D01*
X-1168539Y863410D01*
X-1166033Y864244D01*
X-1162981Y865245D01*
X-1159321Y866435D01*
X-1154990Y867837D01*
X-1153318Y868378D01*
X-1148954Y869787D01*
X-1145273Y870967D01*
X-1142204Y871931D01*
X-1139676Y872695D01*
X-1137618Y873272D01*
X-1135957Y873679D01*
X-1134623Y873930D01*
X-1133544Y874038D01*
X-1132648Y874020D01*
G36*
X-1132648Y874020D02*
G01*
X-1131864Y873889D01*
X-1131120Y873661D01*
X-1130346Y873350D01*
X-1129957Y873182D01*
X-1128595Y872376D01*
X-1127184Y871200D01*
X-1125939Y869869D01*
X-1125074Y868599D01*
X-1124853Y868065D01*
X-1124608Y867527D01*
X-1124018Y866369D01*
X-1123120Y864663D01*
X-1121954Y862483D01*
X-1120560Y859903D01*
X-1118977Y856994D01*
X-1117245Y853831D01*
X-1115559Y850771D01*
X-1113252Y846583D01*
X-1111309Y843021D01*
X-1109701Y840023D01*
X-1108399Y837523D01*
X-1107373Y835459D01*
X-1106596Y833766D01*
X-1106039Y832383D01*
X-1105671Y831244D01*
X-1105466Y830286D01*
X-1105394Y829445D01*
X-1105425Y828659D01*
X-1105446Y828464D01*
X-1106029Y826210D01*
X-1107152Y823989D01*
X-1108573Y822223D01*
X-1110164Y821109D01*
X-1112228Y820239D01*
X-1114462Y819698D01*
X-1116563Y819575D01*
X-1117408Y819684D01*
X-1119257Y820299D01*
X-1121142Y821294D01*
X-1122748Y822485D01*
X-1123462Y823235D01*
X-1123891Y823886D01*
X-1124627Y825111D01*
X-1125598Y826786D01*
X-1126731Y828786D01*
X-1127956Y830988D01*
X-1128157Y831353D01*
X-1129340Y833498D01*
X-1130392Y835391D01*
X-1131254Y836926D01*
X-1131867Y838000D01*
X-1132173Y838507D01*
X-1132194Y838533D01*
X-1132382Y838212D01*
X-1132814Y837279D01*
X-1133437Y835855D01*
X-1134197Y834065D01*
X-1134684Y832894D01*
X-1140975Y818697D01*
X-1147985Y804835D01*
X-1155714Y791309D01*
X-1164161Y778120D01*
X-1168570Y771771D01*
X-1169831Y769964D01*
X-1170880Y768388D01*
X-1171649Y767152D01*
X-1172070Y766363D01*
X-1172112Y766128D01*
X-1171625Y766092D01*
X-1170465Y766083D01*
X-1168753Y766101D01*
X-1166609Y766143D01*
X-1164154Y766208D01*
X-1163159Y766239D01*
X-1159967Y766337D01*
X-1157457Y766396D01*
X-1155514Y766410D01*
X-1154028Y766369D01*
X-1152886Y766265D01*
X-1151976Y766091D01*
X-1151185Y765838D01*
X-1150400Y765499D01*
X-1149978Y765296D01*
X-1147758Y763804D01*
X-1146088Y761855D01*
X-1144988Y759581D01*
X-1144476Y757113D01*
X-1144571Y754583D01*
X-1145289Y752122D01*
X-1146651Y749861D01*
X-1147670Y748761D01*
X-1148601Y747970D01*
X-1149582Y747345D01*
X-1150721Y746863D01*
X-1152125Y746501D01*
X-1153904Y746239D01*
X-1156166Y746054D01*
X-1159018Y745924D01*
X-1162057Y745838D01*
X-1164975Y745768D01*
X-1168471Y745681D01*
X-1172328Y745583D01*
X-1176331Y745479D01*
X-1180264Y745375D01*
X-1183752Y745281D01*
X-1187561Y745185D01*
X-1190670Y745134D01*
X-1193174Y745140D01*
X-1195164Y745215D01*
X-1196736Y745370D01*
X-1197983Y745617D01*
X-1198997Y745968D01*
X-1199874Y746433D01*
X-1200705Y747025D01*
X-1201221Y747445D01*
X-1201769Y747920D01*
X-1202251Y748400D01*
X-1202687Y748951D01*
X-1203099Y749639D01*
X-1203507Y750529D01*
X-1203932Y751689D01*
X-1204395Y753183D01*
X-1204918Y755078D01*
X-1205521Y757440D01*
X-1206226Y760334D01*
X-1207053Y763827D01*
X-1208023Y767984D01*
X-1208741Y771082D01*
X-1209637Y774971D01*
X-1210476Y778665D01*
X-1211241Y782086D01*
X-1211915Y785153D01*
X-1212480Y787786D01*
X-1212919Y789905D01*
X-1213216Y791431D01*
X-1213351Y792284D01*
X-1213358Y792380D01*
X-1213043Y794893D01*
X-1212070Y797153D01*
X-1210557Y799087D01*
X-1208618Y800625D01*
X-1206369Y801694D01*
X-1203925Y802224D01*
X-1201404Y802142D01*
X-1198919Y801378D01*
X-1198858Y801349D01*
X-1197033Y800204D01*
X-1195444Y798713D01*
X-1195356Y798607D01*
X-1194831Y797941D01*
X-1194411Y797306D01*
X-1194049Y796569D01*
X-1193696Y795597D01*
X-1193303Y794255D01*
X-1192822Y792411D01*
X-1192205Y789930D01*
X-1192197Y789898D01*
X-1191602Y787452D01*
X-1191041Y785079D01*
X-1190555Y782964D01*
X-1190190Y781294D01*
X-1190022Y780462D01*
X-1189841Y779480D01*
X-1189669Y778802D01*
X-1189439Y778476D01*
X-1189085Y778548D01*
X-1188540Y779066D01*
X-1187739Y780077D01*
X-1186615Y781629D01*
X-1185101Y783768D01*
X-1184816Y784171D01*
X-1178744Y793134D01*
X-1172894Y802513D01*
X-1167347Y812157D01*
X-1162186Y821914D01*
X-1157492Y831634D01*
X-1153346Y841166D01*
X-1151380Y846140D01*
X-1150696Y847935D01*
X-1154046Y846711D01*
X-1155657Y846148D01*
X-1157790Y845442D01*
X-1160204Y844670D01*
X-1162657Y843910D01*
X-1163478Y843662D01*
X-1165893Y842951D01*
X-1167699Y842462D01*
X-1169036Y842164D01*
X-1170047Y842029D01*
X-1170875Y842029D01*
X-1171279Y842071D01*
X-1173861Y842805D01*
X-1176179Y844193D01*
X-1178085Y846111D01*
X-1179433Y848430D01*
X-1179773Y849404D01*
X-1180133Y851977D01*
X-1179826Y854591D01*
X-1178914Y857050D01*
X-1177455Y859155D01*
X-1176527Y860023D01*
X-1176114Y860339D01*
X-1175660Y860640D01*
X-1175102Y860949D01*
X-1174376Y861289D01*
X-1173419Y861682D01*
X-1172170Y862152D01*
X-1170564Y862720D01*
X-1168539Y863410D01*
X-1166033Y864244D01*
X-1162981Y865245D01*
X-1159321Y866435D01*
X-1154990Y867837D01*
X-1153318Y868378D01*
X-1148954Y869787D01*
X-1145273Y870967D01*
X-1142204Y871931D01*
X-1139676Y872695D01*
X-1137618Y873272D01*
X-1135957Y873679D01*
X-1134623Y873930D01*
X-1133544Y874038D01*
X-1132648Y874020D01*
G37*
%TO.C,MH2*%
X1129248Y912779D02*
X1129646Y912721D01*
X1135564Y911438D01*
X1141297Y909422D01*
X1146763Y906729D01*
X1151884Y903412D01*
X1156581Y899524D01*
X1160775Y895120D01*
X1164386Y890254D01*
X1165623Y888237D01*
X1166319Y886909D01*
X1167215Y885013D01*
X1168232Y882727D01*
X1169292Y880225D01*
X1170317Y877685D01*
X1170333Y877643D01*
X1174195Y868198D01*
X1178146Y859373D01*
X1182275Y850997D01*
X1186668Y842898D01*
X1191413Y834902D01*
X1194167Y830544D01*
X1196114Y827383D01*
X1197538Y824707D01*
X1198461Y822421D01*
X1198906Y820432D01*
X1198894Y818647D01*
X1198448Y816972D01*
X1197698Y815491D01*
X1196978Y814423D01*
X1196155Y813500D01*
X1195104Y812630D01*
X1193701Y811725D01*
X1191820Y810694D01*
X1189336Y809448D01*
X1189254Y809407D01*
X1183968Y806679D01*
X1179204Y803905D01*
X1174699Y800925D01*
X1171724Y798756D01*
X1165067Y793243D01*
X1158878Y787123D01*
X1153218Y780470D01*
X1148147Y773362D01*
X1143725Y765870D01*
X1141640Y761713D01*
X1139980Y758496D01*
X1138355Y756001D01*
X1136703Y754162D01*
X1134962Y752912D01*
X1133069Y752187D01*
X1132564Y752079D01*
X1130704Y751943D01*
X1128946Y752276D01*
X1127209Y753131D01*
X1125411Y754560D01*
X1123471Y756617D01*
X1121308Y759353D01*
X1121287Y759381D01*
X1113523Y770359D01*
X1106045Y782002D01*
X1098903Y794218D01*
X1092148Y806916D01*
X1085831Y820002D01*
X1080001Y833384D01*
X1077760Y838944D01*
X1075663Y844613D01*
X1074060Y849726D01*
X1072937Y854335D01*
X1072281Y858495D01*
X1072078Y861870D01*
X1072404Y868369D01*
X1073471Y874627D01*
X1075262Y880607D01*
X1077759Y886269D01*
X1080945Y891575D01*
X1084803Y896486D01*
X1089314Y900964D01*
X1090047Y901596D01*
X1094781Y905101D01*
X1099977Y908019D01*
X1105530Y910320D01*
X1111337Y911976D01*
X1117294Y912957D01*
X1123299Y913234D01*
X1129248Y912779D01*
G36*
X1129248Y912779D02*
G01*
X1129646Y912721D01*
X1135564Y911438D01*
X1141297Y909422D01*
X1146763Y906729D01*
X1151884Y903412D01*
X1156581Y899524D01*
X1160775Y895120D01*
X1164386Y890254D01*
X1165623Y888237D01*
X1166319Y886909D01*
X1167215Y885013D01*
X1168232Y882727D01*
X1169292Y880225D01*
X1170317Y877685D01*
X1170333Y877643D01*
X1174195Y868198D01*
X1178146Y859373D01*
X1182275Y850997D01*
X1186668Y842898D01*
X1191413Y834902D01*
X1194167Y830544D01*
X1196114Y827383D01*
X1197538Y824707D01*
X1198461Y822421D01*
X1198906Y820432D01*
X1198894Y818647D01*
X1198448Y816972D01*
X1197698Y815491D01*
X1196978Y814423D01*
X1196155Y813500D01*
X1195104Y812630D01*
X1193701Y811725D01*
X1191820Y810694D01*
X1189336Y809448D01*
X1189254Y809407D01*
X1183968Y806679D01*
X1179204Y803905D01*
X1174699Y800925D01*
X1171724Y798756D01*
X1165067Y793243D01*
X1158878Y787123D01*
X1153218Y780470D01*
X1148147Y773362D01*
X1143725Y765870D01*
X1141640Y761713D01*
X1139980Y758496D01*
X1138355Y756001D01*
X1136703Y754162D01*
X1134962Y752912D01*
X1133069Y752187D01*
X1132564Y752079D01*
X1130704Y751943D01*
X1128946Y752276D01*
X1127209Y753131D01*
X1125411Y754560D01*
X1123471Y756617D01*
X1121308Y759353D01*
X1121287Y759381D01*
X1113523Y770359D01*
X1106045Y782002D01*
X1098903Y794218D01*
X1092148Y806916D01*
X1085831Y820002D01*
X1080001Y833384D01*
X1077760Y838944D01*
X1075663Y844613D01*
X1074060Y849726D01*
X1072937Y854335D01*
X1072281Y858495D01*
X1072078Y861870D01*
X1072404Y868369D01*
X1073471Y874627D01*
X1075262Y880607D01*
X1077759Y886269D01*
X1080945Y891575D01*
X1084803Y896486D01*
X1089314Y900964D01*
X1090047Y901596D01*
X1094781Y905101D01*
X1099977Y908019D01*
X1105530Y910320D01*
X1111337Y911976D01*
X1117294Y912957D01*
X1123299Y913234D01*
X1129248Y912779D01*
G37*
X1207991Y759295D02*
X1208678Y759235D01*
X1209336Y759131D01*
X1210000Y758951D01*
X1210707Y758665D01*
X1211493Y758240D01*
X1212392Y757646D01*
X1213441Y756852D01*
X1214675Y755825D01*
X1216130Y754536D01*
X1217843Y752952D01*
X1219847Y751043D01*
X1222180Y748777D01*
X1224877Y746123D01*
X1227973Y743050D01*
X1231505Y739526D01*
X1235508Y735520D01*
X1240018Y731002D01*
X1242643Y728371D01*
X1247289Y723715D01*
X1251405Y719585D01*
X1255026Y715947D01*
X1258184Y712767D01*
X1260912Y710010D01*
X1263242Y707641D01*
X1265209Y705626D01*
X1266843Y703931D01*
X1268179Y702520D01*
X1269249Y701359D01*
X1270086Y700414D01*
X1270722Y699651D01*
X1271192Y699034D01*
X1271526Y698529D01*
X1271759Y698102D01*
X1271924Y697717D01*
X1272001Y697499D01*
X1272673Y694346D01*
X1272612Y691255D01*
X1271859Y688333D01*
X1270453Y685686D01*
X1268434Y683422D01*
X1266132Y681801D01*
X1265051Y681243D01*
X1264100Y680897D01*
X1263028Y680713D01*
X1261586Y680642D01*
X1260251Y680632D01*
X1258297Y680667D01*
X1256879Y680798D01*
X1255740Y681069D01*
X1254626Y681521D01*
X1254496Y681582D01*
X1254053Y681849D01*
X1253420Y682325D01*
X1252567Y683040D01*
X1251463Y684023D01*
X1250079Y685303D01*
X1248383Y686908D01*
X1246348Y688869D01*
X1243941Y691214D01*
X1241133Y693972D01*
X1237894Y697173D01*
X1234193Y700844D01*
X1230001Y705017D01*
X1225287Y709718D01*
X1224251Y710753D01*
X1219570Y715430D01*
X1215419Y719582D01*
X1211767Y723244D01*
X1208581Y726448D01*
X1205829Y729230D01*
X1203477Y731622D01*
X1201493Y733659D01*
X1199845Y735374D01*
X1198500Y736802D01*
X1197425Y737976D01*
X1196588Y738930D01*
X1195956Y739699D01*
X1195497Y740315D01*
X1195177Y740814D01*
X1194983Y741190D01*
X1194130Y743746D01*
X1193757Y746456D01*
X1193895Y749017D01*
X1194095Y749915D01*
X1195319Y752918D01*
X1197109Y755416D01*
X1199387Y757352D01*
X1202073Y758670D01*
X1205090Y759315D01*
X1207240Y759342D01*
X1207991Y759295D01*
G36*
X1207991Y759295D02*
G01*
X1208678Y759235D01*
X1209336Y759131D01*
X1210000Y758951D01*
X1210707Y758665D01*
X1211493Y758240D01*
X1212392Y757646D01*
X1213441Y756852D01*
X1214675Y755825D01*
X1216130Y754536D01*
X1217843Y752952D01*
X1219847Y751043D01*
X1222180Y748777D01*
X1224877Y746123D01*
X1227973Y743050D01*
X1231505Y739526D01*
X1235508Y735520D01*
X1240018Y731002D01*
X1242643Y728371D01*
X1247289Y723715D01*
X1251405Y719585D01*
X1255026Y715947D01*
X1258184Y712767D01*
X1260912Y710010D01*
X1263242Y707641D01*
X1265209Y705626D01*
X1266843Y703931D01*
X1268179Y702520D01*
X1269249Y701359D01*
X1270086Y700414D01*
X1270722Y699651D01*
X1271192Y699034D01*
X1271526Y698529D01*
X1271759Y698102D01*
X1271924Y697717D01*
X1272001Y697499D01*
X1272673Y694346D01*
X1272612Y691255D01*
X1271859Y688333D01*
X1270453Y685686D01*
X1268434Y683422D01*
X1266132Y681801D01*
X1265051Y681243D01*
X1264100Y680897D01*
X1263028Y680713D01*
X1261586Y680642D01*
X1260251Y680632D01*
X1258297Y680667D01*
X1256879Y680798D01*
X1255740Y681069D01*
X1254626Y681521D01*
X1254496Y681582D01*
X1254053Y681849D01*
X1253420Y682325D01*
X1252567Y683040D01*
X1251463Y684023D01*
X1250079Y685303D01*
X1248383Y686908D01*
X1246348Y688869D01*
X1243941Y691214D01*
X1241133Y693972D01*
X1237894Y697173D01*
X1234193Y700844D01*
X1230001Y705017D01*
X1225287Y709718D01*
X1224251Y710753D01*
X1219570Y715430D01*
X1215419Y719582D01*
X1211767Y723244D01*
X1208581Y726448D01*
X1205829Y729230D01*
X1203477Y731622D01*
X1201493Y733659D01*
X1199845Y735374D01*
X1198500Y736802D01*
X1197425Y737976D01*
X1196588Y738930D01*
X1195956Y739699D01*
X1195497Y740315D01*
X1195177Y740814D01*
X1194983Y741190D01*
X1194130Y743746D01*
X1193757Y746456D01*
X1193895Y749017D01*
X1194095Y749915D01*
X1195319Y752918D01*
X1197109Y755416D01*
X1199387Y757352D01*
X1202073Y758670D01*
X1205090Y759315D01*
X1207240Y759342D01*
X1207991Y759295D01*
G37*
X1340145Y692408D02*
X1342203Y691791D01*
X1344575Y690587D01*
X1346624Y689292D01*
X1357634Y682330D01*
X1369123Y675909D01*
X1381144Y670002D01*
X1393752Y664580D01*
X1396664Y663429D01*
X1399956Y662127D01*
X1402642Y661013D01*
X1404864Y660014D01*
X1406767Y659062D01*
X1408494Y658084D01*
X1410190Y657010D01*
X1411444Y656157D01*
X1416163Y652407D01*
X1420385Y648094D01*
X1424067Y643299D01*
X1427165Y638105D01*
X1429635Y632593D01*
X1431435Y626845D01*
X1432520Y620942D01*
X1432845Y616080D01*
X1432555Y609759D01*
X1431538Y603680D01*
X1429834Y597886D01*
X1427483Y592420D01*
X1424526Y587323D01*
X1421003Y582638D01*
X1416955Y578406D01*
X1412423Y574670D01*
X1407446Y571472D01*
X1402065Y568855D01*
X1396321Y566860D01*
X1390254Y565529D01*
X1383904Y564905D01*
X1383729Y564898D01*
X1381933Y564892D01*
X1380001Y565017D01*
X1377745Y565293D01*
X1374976Y565741D01*
X1373839Y565943D01*
X1371710Y566357D01*
X1369663Y566820D01*
X1367602Y567365D01*
X1365431Y568027D01*
X1363054Y568837D01*
X1360375Y569831D01*
X1357297Y571039D01*
X1353725Y572498D01*
X1349563Y574239D01*
X1347826Y574974D01*
X1337152Y579751D01*
X1326297Y585097D01*
X1315433Y590912D01*
X1304731Y597101D01*
X1294363Y603564D01*
X1284498Y610204D01*
X1278087Y614828D01*
X1275627Y616733D01*
X1273778Y618358D01*
X1272452Y619802D01*
X1271559Y621162D01*
X1271012Y622535D01*
X1270959Y622733D01*
X1270683Y624613D01*
X1270981Y626269D01*
X1271618Y627603D01*
X1273029Y629356D01*
X1275184Y631031D01*
X1278037Y632594D01*
X1278566Y632836D01*
X1286717Y636890D01*
X1294389Y641549D01*
X1301554Y646788D01*
X1308183Y652584D01*
X1314246Y658911D01*
X1319716Y665744D01*
X1323209Y670870D01*
X1324967Y673728D01*
X1326617Y676624D01*
X1328259Y679749D01*
X1329994Y683289D01*
X1331438Y686379D01*
X1332278Y688083D01*
X1333038Y689274D01*
X1333894Y690190D01*
X1334774Y690890D01*
X1336540Y691943D01*
X1338294Y692454D01*
X1340145Y692408D01*
G36*
X1340145Y692408D02*
G01*
X1342203Y691791D01*
X1344575Y690587D01*
X1346624Y689292D01*
X1357634Y682330D01*
X1369123Y675909D01*
X1381144Y670002D01*
X1393752Y664580D01*
X1396664Y663429D01*
X1399956Y662127D01*
X1402642Y661013D01*
X1404864Y660014D01*
X1406767Y659062D01*
X1408494Y658084D01*
X1410190Y657010D01*
X1411444Y656157D01*
X1416163Y652407D01*
X1420385Y648094D01*
X1424067Y643299D01*
X1427165Y638105D01*
X1429635Y632593D01*
X1431435Y626845D01*
X1432520Y620942D01*
X1432845Y616080D01*
X1432555Y609759D01*
X1431538Y603680D01*
X1429834Y597886D01*
X1427483Y592420D01*
X1424526Y587323D01*
X1421003Y582638D01*
X1416955Y578406D01*
X1412423Y574670D01*
X1407446Y571472D01*
X1402065Y568855D01*
X1396321Y566860D01*
X1390254Y565529D01*
X1383904Y564905D01*
X1383729Y564898D01*
X1381933Y564892D01*
X1380001Y565017D01*
X1377745Y565293D01*
X1374976Y565741D01*
X1373839Y565943D01*
X1371710Y566357D01*
X1369663Y566820D01*
X1367602Y567365D01*
X1365431Y568027D01*
X1363054Y568837D01*
X1360375Y569831D01*
X1357297Y571039D01*
X1353725Y572498D01*
X1349563Y574239D01*
X1347826Y574974D01*
X1337152Y579751D01*
X1326297Y585097D01*
X1315433Y590912D01*
X1304731Y597101D01*
X1294363Y603564D01*
X1284498Y610204D01*
X1278087Y614828D01*
X1275627Y616733D01*
X1273778Y618358D01*
X1272452Y619802D01*
X1271559Y621162D01*
X1271012Y622535D01*
X1270959Y622733D01*
X1270683Y624613D01*
X1270981Y626269D01*
X1271618Y627603D01*
X1273029Y629356D01*
X1275184Y631031D01*
X1278037Y632594D01*
X1278566Y632836D01*
X1286717Y636890D01*
X1294389Y641549D01*
X1301554Y646788D01*
X1308183Y652584D01*
X1314246Y658911D01*
X1319716Y665744D01*
X1323209Y670870D01*
X1324967Y673728D01*
X1326617Y676624D01*
X1328259Y679749D01*
X1329994Y683289D01*
X1331438Y686379D01*
X1332278Y688083D01*
X1333038Y689274D01*
X1333894Y690190D01*
X1334774Y690890D01*
X1336540Y691943D01*
X1338294Y692454D01*
X1340145Y692408D01*
G37*
%TO.C,MH4*%
X1365776Y-583909D02*
X1372035Y-584976D01*
X1378014Y-586767D01*
X1383677Y-589264D01*
X1388983Y-592450D01*
X1393894Y-596307D01*
X1398372Y-600819D01*
X1399004Y-601551D01*
X1402509Y-606286D01*
X1405426Y-611482D01*
X1407727Y-617035D01*
X1409383Y-622842D01*
X1410364Y-628799D01*
X1410642Y-634804D01*
X1410187Y-640753D01*
X1410128Y-641151D01*
X1408845Y-647069D01*
X1406830Y-652801D01*
X1404137Y-658267D01*
X1400819Y-663389D01*
X1396932Y-668086D01*
X1392528Y-672280D01*
X1387661Y-675891D01*
X1385645Y-677127D01*
X1384316Y-677823D01*
X1382421Y-678719D01*
X1380134Y-679736D01*
X1377633Y-680797D01*
X1375093Y-681821D01*
X1375051Y-681838D01*
X1365605Y-685699D01*
X1356781Y-689651D01*
X1348405Y-693780D01*
X1340305Y-698173D01*
X1332309Y-702918D01*
X1327952Y-705672D01*
X1324791Y-707618D01*
X1322114Y-709042D01*
X1319828Y-709966D01*
X1317840Y-710411D01*
X1316054Y-710399D01*
X1314379Y-709952D01*
X1312899Y-709203D01*
X1311831Y-708483D01*
X1310907Y-707659D01*
X1310038Y-706609D01*
X1309133Y-705205D01*
X1308102Y-703325D01*
X1306855Y-700841D01*
X1306815Y-700758D01*
X1304087Y-695473D01*
X1301313Y-690709D01*
X1298333Y-686204D01*
X1296164Y-683229D01*
X1290650Y-676572D01*
X1284530Y-670383D01*
X1277878Y-664722D01*
X1270769Y-659651D01*
X1263278Y-655230D01*
X1259121Y-653144D01*
X1255904Y-651484D01*
X1253409Y-649859D01*
X1251569Y-648208D01*
X1250320Y-646467D01*
X1249594Y-644574D01*
X1249487Y-644069D01*
X1249351Y-642209D01*
X1249684Y-640451D01*
X1250539Y-638714D01*
X1251968Y-636915D01*
X1254025Y-634975D01*
X1256761Y-632812D01*
X1256789Y-632791D01*
X1267766Y-625028D01*
X1279409Y-617549D01*
X1291626Y-610408D01*
X1304323Y-603653D01*
X1317410Y-597335D01*
X1330792Y-591506D01*
X1336351Y-589265D01*
X1342021Y-587168D01*
X1347134Y-585564D01*
X1351743Y-584441D01*
X1355903Y-583785D01*
X1359277Y-583583D01*
X1365776Y-583909D01*
G36*
X1365776Y-583909D02*
G01*
X1372035Y-584976D01*
X1378014Y-586767D01*
X1383677Y-589264D01*
X1388983Y-592450D01*
X1393894Y-596307D01*
X1398372Y-600819D01*
X1399004Y-601551D01*
X1402509Y-606286D01*
X1405426Y-611482D01*
X1407727Y-617035D01*
X1409383Y-622842D01*
X1410364Y-628799D01*
X1410642Y-634804D01*
X1410187Y-640753D01*
X1410128Y-641151D01*
X1408845Y-647069D01*
X1406830Y-652801D01*
X1404137Y-658267D01*
X1400819Y-663389D01*
X1396932Y-668086D01*
X1392528Y-672280D01*
X1387661Y-675891D01*
X1385645Y-677127D01*
X1384316Y-677823D01*
X1382421Y-678719D01*
X1380134Y-679736D01*
X1377633Y-680797D01*
X1375093Y-681821D01*
X1375051Y-681838D01*
X1365605Y-685699D01*
X1356781Y-689651D01*
X1348405Y-693780D01*
X1340305Y-698173D01*
X1332309Y-702918D01*
X1327952Y-705672D01*
X1324791Y-707618D01*
X1322114Y-709042D01*
X1319828Y-709966D01*
X1317840Y-710411D01*
X1316054Y-710399D01*
X1314379Y-709952D01*
X1312899Y-709203D01*
X1311831Y-708483D01*
X1310907Y-707659D01*
X1310038Y-706609D01*
X1309133Y-705205D01*
X1308102Y-703325D01*
X1306855Y-700841D01*
X1306815Y-700758D01*
X1304087Y-695473D01*
X1301313Y-690709D01*
X1298333Y-686204D01*
X1296164Y-683229D01*
X1290650Y-676572D01*
X1284530Y-670383D01*
X1277878Y-664722D01*
X1270769Y-659651D01*
X1263278Y-655230D01*
X1259121Y-653144D01*
X1255904Y-651484D01*
X1253409Y-649859D01*
X1251569Y-648208D01*
X1250320Y-646467D01*
X1249594Y-644574D01*
X1249487Y-644069D01*
X1249351Y-642209D01*
X1249684Y-640451D01*
X1250539Y-638714D01*
X1251968Y-636915D01*
X1254025Y-634975D01*
X1256761Y-632812D01*
X1256789Y-632791D01*
X1267766Y-625028D01*
X1279409Y-617549D01*
X1291626Y-610408D01*
X1304323Y-603653D01*
X1317410Y-597335D01*
X1330792Y-591506D01*
X1336351Y-589265D01*
X1342021Y-587168D01*
X1347134Y-585564D01*
X1351743Y-584441D01*
X1355903Y-583785D01*
X1359277Y-583583D01*
X1365776Y-583909D01*
G37*
X1123676Y-782485D02*
X1125010Y-783122D01*
X1126763Y-784533D01*
X1128439Y-786689D01*
X1130002Y-789542D01*
X1130244Y-790070D01*
X1134297Y-798221D01*
X1138956Y-805894D01*
X1144196Y-813059D01*
X1149991Y-819687D01*
X1156318Y-825751D01*
X1163152Y-831220D01*
X1168278Y-834714D01*
X1171135Y-836471D01*
X1174032Y-838121D01*
X1177157Y-839764D01*
X1180697Y-841499D01*
X1183787Y-842943D01*
X1185491Y-843783D01*
X1186682Y-844543D01*
X1187597Y-845398D01*
X1188297Y-846279D01*
X1189351Y-848045D01*
X1189862Y-849799D01*
X1189816Y-851650D01*
X1189198Y-853707D01*
X1187995Y-856079D01*
X1186700Y-858129D01*
X1179737Y-869139D01*
X1173317Y-880628D01*
X1167410Y-892648D01*
X1161988Y-905257D01*
X1160836Y-908169D01*
X1159535Y-911461D01*
X1158420Y-914146D01*
X1157422Y-916369D01*
X1156469Y-918272D01*
X1155492Y-919999D01*
X1154418Y-921695D01*
X1153565Y-922949D01*
X1149814Y-927668D01*
X1145501Y-931890D01*
X1140707Y-935571D01*
X1135513Y-938669D01*
X1130001Y-941140D01*
X1124253Y-942939D01*
X1118350Y-944024D01*
X1113488Y-944350D01*
X1107166Y-944060D01*
X1101087Y-943043D01*
X1095294Y-941338D01*
X1089827Y-938987D01*
X1084731Y-936030D01*
X1080045Y-932508D01*
X1075814Y-928460D01*
X1072078Y-923927D01*
X1068880Y-918950D01*
X1066262Y-913570D01*
X1064267Y-907825D01*
X1062936Y-901758D01*
X1062312Y-895409D01*
X1062306Y-895234D01*
X1062299Y-893437D01*
X1062424Y-891506D01*
X1062701Y-889249D01*
X1063148Y-886480D01*
X1063351Y-885343D01*
X1063765Y-883214D01*
X1064227Y-881167D01*
X1064773Y-879106D01*
X1065434Y-876935D01*
X1066245Y-874558D01*
X1067238Y-871879D01*
X1068447Y-868802D01*
X1069905Y-865230D01*
X1071647Y-861068D01*
X1072381Y-859330D01*
X1077159Y-848657D01*
X1082504Y-837802D01*
X1088320Y-826938D01*
X1094509Y-816236D01*
X1100972Y-805867D01*
X1107611Y-796002D01*
X1112236Y-789591D01*
X1114140Y-787132D01*
X1115765Y-785283D01*
X1117209Y-783956D01*
X1118569Y-783064D01*
X1119943Y-782517D01*
X1120141Y-782463D01*
X1122021Y-782188D01*
X1123676Y-782485D01*
G36*
X1123676Y-782485D02*
G01*
X1125010Y-783122D01*
X1126763Y-784533D01*
X1128439Y-786689D01*
X1130002Y-789542D01*
X1130244Y-790070D01*
X1134297Y-798221D01*
X1138956Y-805894D01*
X1144196Y-813059D01*
X1149991Y-819687D01*
X1156318Y-825751D01*
X1163152Y-831220D01*
X1168278Y-834714D01*
X1171135Y-836471D01*
X1174032Y-838121D01*
X1177157Y-839764D01*
X1180697Y-841499D01*
X1183787Y-842943D01*
X1185491Y-843783D01*
X1186682Y-844543D01*
X1187597Y-845398D01*
X1188297Y-846279D01*
X1189351Y-848045D01*
X1189862Y-849799D01*
X1189816Y-851650D01*
X1189198Y-853707D01*
X1187995Y-856079D01*
X1186700Y-858129D01*
X1179737Y-869139D01*
X1173317Y-880628D01*
X1167410Y-892648D01*
X1161988Y-905257D01*
X1160836Y-908169D01*
X1159535Y-911461D01*
X1158420Y-914146D01*
X1157422Y-916369D01*
X1156469Y-918272D01*
X1155492Y-919999D01*
X1154418Y-921695D01*
X1153565Y-922949D01*
X1149814Y-927668D01*
X1145501Y-931890D01*
X1140707Y-935571D01*
X1135513Y-938669D01*
X1130001Y-941140D01*
X1124253Y-942939D01*
X1118350Y-944024D01*
X1113488Y-944350D01*
X1107166Y-944060D01*
X1101087Y-943043D01*
X1095294Y-941338D01*
X1089827Y-938987D01*
X1084731Y-936030D01*
X1080045Y-932508D01*
X1075814Y-928460D01*
X1072078Y-923927D01*
X1068880Y-918950D01*
X1066262Y-913570D01*
X1064267Y-907825D01*
X1062936Y-901758D01*
X1062312Y-895409D01*
X1062306Y-895234D01*
X1062299Y-893437D01*
X1062424Y-891506D01*
X1062701Y-889249D01*
X1063148Y-886480D01*
X1063351Y-885343D01*
X1063765Y-883214D01*
X1064227Y-881167D01*
X1064773Y-879106D01*
X1065434Y-876935D01*
X1066245Y-874558D01*
X1067238Y-871879D01*
X1068447Y-868802D01*
X1069905Y-865230D01*
X1071647Y-861068D01*
X1072381Y-859330D01*
X1077159Y-848657D01*
X1082504Y-837802D01*
X1088320Y-826938D01*
X1094509Y-816236D01*
X1100972Y-805867D01*
X1107611Y-796002D01*
X1112236Y-789591D01*
X1114140Y-787132D01*
X1115765Y-785283D01*
X1117209Y-783956D01*
X1118569Y-783064D01*
X1119943Y-782517D01*
X1120141Y-782463D01*
X1122021Y-782188D01*
X1123676Y-782485D01*
G37*
X1246425Y-705400D02*
X1247323Y-705600D01*
X1250325Y-706824D01*
X1252823Y-708614D01*
X1254760Y-710891D01*
X1256078Y-713578D01*
X1256722Y-716594D01*
X1256750Y-718744D01*
X1256703Y-719496D01*
X1256643Y-720182D01*
X1256539Y-720840D01*
X1256359Y-721505D01*
X1256072Y-722212D01*
X1255648Y-722997D01*
X1255054Y-723897D01*
X1254259Y-724945D01*
X1253233Y-726180D01*
X1251944Y-727635D01*
X1250360Y-729347D01*
X1248451Y-731352D01*
X1246185Y-733685D01*
X1243531Y-736382D01*
X1240457Y-739478D01*
X1236934Y-743010D01*
X1232928Y-747013D01*
X1228409Y-751523D01*
X1225779Y-754148D01*
X1221122Y-758793D01*
X1216993Y-762910D01*
X1213355Y-766531D01*
X1210175Y-769689D01*
X1207418Y-772416D01*
X1205049Y-774747D01*
X1203034Y-776713D01*
X1201338Y-778348D01*
X1199928Y-779684D01*
X1198767Y-780753D01*
X1197822Y-781590D01*
X1197058Y-782227D01*
X1196441Y-782696D01*
X1195937Y-783031D01*
X1195509Y-783264D01*
X1195125Y-783428D01*
X1194907Y-783505D01*
X1191754Y-784177D01*
X1188663Y-784117D01*
X1185741Y-783363D01*
X1183094Y-781957D01*
X1180829Y-779938D01*
X1179209Y-777637D01*
X1178651Y-776555D01*
X1178304Y-775604D01*
X1178120Y-774533D01*
X1178049Y-773090D01*
X1178040Y-771755D01*
X1178074Y-769801D01*
X1178206Y-768383D01*
X1178476Y-767245D01*
X1178928Y-766131D01*
X1178990Y-766001D01*
X1179256Y-765558D01*
X1179733Y-764925D01*
X1180448Y-764071D01*
X1181430Y-762967D01*
X1182710Y-761583D01*
X1184316Y-759888D01*
X1186277Y-757852D01*
X1188622Y-755445D01*
X1191380Y-752637D01*
X1194580Y-749398D01*
X1198252Y-745698D01*
X1202424Y-741506D01*
X1207126Y-736792D01*
X1208160Y-735756D01*
X1212838Y-731074D01*
X1216990Y-726924D01*
X1220652Y-723272D01*
X1223856Y-720086D01*
X1226637Y-717333D01*
X1229030Y-714981D01*
X1231066Y-712998D01*
X1232782Y-711350D01*
X1234209Y-710004D01*
X1235384Y-708930D01*
X1236338Y-708092D01*
X1237107Y-707460D01*
X1237723Y-707001D01*
X1238222Y-706682D01*
X1238597Y-706487D01*
X1241154Y-705635D01*
X1243863Y-705262D01*
X1246425Y-705400D01*
G36*
X1246425Y-705400D02*
G01*
X1247323Y-705600D01*
X1250325Y-706824D01*
X1252823Y-708614D01*
X1254760Y-710891D01*
X1256078Y-713578D01*
X1256722Y-716594D01*
X1256750Y-718744D01*
X1256703Y-719496D01*
X1256643Y-720182D01*
X1256539Y-720840D01*
X1256359Y-721505D01*
X1256072Y-722212D01*
X1255648Y-722997D01*
X1255054Y-723897D01*
X1254259Y-724945D01*
X1253233Y-726180D01*
X1251944Y-727635D01*
X1250360Y-729347D01*
X1248451Y-731352D01*
X1246185Y-733685D01*
X1243531Y-736382D01*
X1240457Y-739478D01*
X1236934Y-743010D01*
X1232928Y-747013D01*
X1228409Y-751523D01*
X1225779Y-754148D01*
X1221122Y-758793D01*
X1216993Y-762910D01*
X1213355Y-766531D01*
X1210175Y-769689D01*
X1207418Y-772416D01*
X1205049Y-774747D01*
X1203034Y-776713D01*
X1201338Y-778348D01*
X1199928Y-779684D01*
X1198767Y-780753D01*
X1197822Y-781590D01*
X1197058Y-782227D01*
X1196441Y-782696D01*
X1195937Y-783031D01*
X1195509Y-783264D01*
X1195125Y-783428D01*
X1194907Y-783505D01*
X1191754Y-784177D01*
X1188663Y-784117D01*
X1185741Y-783363D01*
X1183094Y-781957D01*
X1180829Y-779938D01*
X1179209Y-777637D01*
X1178651Y-776555D01*
X1178304Y-775604D01*
X1178120Y-774533D01*
X1178049Y-773090D01*
X1178040Y-771755D01*
X1178074Y-769801D01*
X1178206Y-768383D01*
X1178476Y-767245D01*
X1178928Y-766131D01*
X1178990Y-766001D01*
X1179256Y-765558D01*
X1179733Y-764925D01*
X1180448Y-764071D01*
X1181430Y-762967D01*
X1182710Y-761583D01*
X1184316Y-759888D01*
X1186277Y-757852D01*
X1188622Y-755445D01*
X1191380Y-752637D01*
X1194580Y-749398D01*
X1198252Y-745698D01*
X1202424Y-741506D01*
X1207126Y-736792D01*
X1208160Y-735756D01*
X1212838Y-731074D01*
X1216990Y-726924D01*
X1220652Y-723272D01*
X1223856Y-720086D01*
X1226637Y-717333D01*
X1229030Y-714981D01*
X1231066Y-712998D01*
X1232782Y-711350D01*
X1234209Y-710004D01*
X1235384Y-708930D01*
X1236338Y-708092D01*
X1237107Y-707460D01*
X1237723Y-707001D01*
X1238222Y-706682D01*
X1238597Y-706487D01*
X1241154Y-705635D01*
X1243863Y-705262D01*
X1246425Y-705400D01*
G37*
%TD*%
M02*
