%TF.GenerationSoftware,KiCad,Pcbnew,8.0.8*%
%TF.CreationDate,2025-01-29T16:55:17+00:00*%
%TF.ProjectId,ec30_0x2_l4r4_mh_0.1,65633330-5f30-4783-925f-6c3472345f6d,v0.1*%
%TF.SameCoordinates,PX8d24d00PY36d6160*%
%TF.FileFunction,Legend,Bot*%
%TF.FilePolarity,Positive*%
%FSLAX46Y46*%
G04 Gerber Fmt 4.6, Leading zero omitted, Abs format (unit mm)*
G04 Created by KiCad (PCBNEW 8.0.8) date 2025-01-29 16:55:17*
%MOMM*%
%LPD*%
G01*
G04 APERTURE LIST*
%ADD10C,0.010000*%
G04 APERTURE END LIST*
D10*
%TO.C,MH1*%
X-2413498Y-7778090D02*
X-2350940Y-7789361D01*
X-2341561Y-7791735D01*
X-2285692Y-7810416D01*
X-2231993Y-7836241D01*
X-2181293Y-7868530D01*
X-2134423Y-7906602D01*
X-2092216Y-7949776D01*
X-2055501Y-7997374D01*
X-2025108Y-8048714D01*
X-2023301Y-8052305D01*
X-1999865Y-8108147D01*
X-1983495Y-8166660D01*
X-1974204Y-8226884D01*
X-1972004Y-8287863D01*
X-1976909Y-8348639D01*
X-1988929Y-8408252D01*
X-2008080Y-8465747D01*
X-2017509Y-8487443D01*
X-2024396Y-8500764D01*
X-2034784Y-8518974D01*
X-2047679Y-8540421D01*
X-2062090Y-8563454D01*
X-2077019Y-8586417D01*
X-2077267Y-8586790D01*
X-2132493Y-8672601D01*
X-2182116Y-8755587D01*
X-2227045Y-8837449D01*
X-2268194Y-8919895D01*
X-2306475Y-9004627D01*
X-2326376Y-9052179D01*
X-2341104Y-9086253D01*
X-2354861Y-9113270D01*
X-2368291Y-9133948D01*
X-2382030Y-9148999D01*
X-2396719Y-9159142D01*
X-2413000Y-9165092D01*
X-2429427Y-9167446D01*
X-2442307Y-9167669D01*
X-2454594Y-9166224D01*
X-2467740Y-9162603D01*
X-2483203Y-9156299D01*
X-2502437Y-9146805D01*
X-2526896Y-9133613D01*
X-2527703Y-9133168D01*
X-2580365Y-9105515D01*
X-2630411Y-9082402D01*
X-2680665Y-9062592D01*
X-2715494Y-9050665D01*
X-2798842Y-9027758D01*
X-2884474Y-9012163D01*
X-2971431Y-9003950D01*
X-3058751Y-9003185D01*
X-3145473Y-9009938D01*
X-3191494Y-9016697D01*
X-3227366Y-9021552D01*
X-3257125Y-9022554D01*
X-3281666Y-9019572D01*
X-3301887Y-9012475D01*
X-3318685Y-9001135D01*
X-3322465Y-8997610D01*
X-3334247Y-8983158D01*
X-3341602Y-8966847D01*
X-3344563Y-8947711D01*
X-3343168Y-8924784D01*
X-3337449Y-8897096D01*
X-3327442Y-8863682D01*
X-3327333Y-8863351D01*
X-3281943Y-8736789D01*
X-3229461Y-8608750D01*
X-3170353Y-8480177D01*
X-3105085Y-8352014D01*
X-3034125Y-8225205D01*
X-2957940Y-8100694D01*
X-2925253Y-8050451D01*
X-2890838Y-8000753D01*
X-2858155Y-7958294D01*
X-2826840Y-7922656D01*
X-2796531Y-7893423D01*
X-2770045Y-7872410D01*
X-2714941Y-7837803D01*
X-2657554Y-7810645D01*
X-2598299Y-7791018D01*
X-2537593Y-7778997D01*
X-2475854Y-7774661D01*
X-2413498Y-7778090D01*
G36*
X-2413498Y-7778090D02*
G01*
X-2350940Y-7789361D01*
X-2341561Y-7791735D01*
X-2285692Y-7810416D01*
X-2231993Y-7836241D01*
X-2181293Y-7868530D01*
X-2134423Y-7906602D01*
X-2092216Y-7949776D01*
X-2055501Y-7997374D01*
X-2025108Y-8048714D01*
X-2023301Y-8052305D01*
X-1999865Y-8108147D01*
X-1983495Y-8166660D01*
X-1974204Y-8226884D01*
X-1972004Y-8287863D01*
X-1976909Y-8348639D01*
X-1988929Y-8408252D01*
X-2008080Y-8465747D01*
X-2017509Y-8487443D01*
X-2024396Y-8500764D01*
X-2034784Y-8518974D01*
X-2047679Y-8540421D01*
X-2062090Y-8563454D01*
X-2077019Y-8586417D01*
X-2077267Y-8586790D01*
X-2132493Y-8672601D01*
X-2182116Y-8755587D01*
X-2227045Y-8837449D01*
X-2268194Y-8919895D01*
X-2306475Y-9004627D01*
X-2326376Y-9052179D01*
X-2341104Y-9086253D01*
X-2354861Y-9113270D01*
X-2368291Y-9133948D01*
X-2382030Y-9148999D01*
X-2396719Y-9159142D01*
X-2413000Y-9165092D01*
X-2429427Y-9167446D01*
X-2442307Y-9167669D01*
X-2454594Y-9166224D01*
X-2467740Y-9162603D01*
X-2483203Y-9156299D01*
X-2502437Y-9146805D01*
X-2526896Y-9133613D01*
X-2527703Y-9133168D01*
X-2580365Y-9105515D01*
X-2630411Y-9082402D01*
X-2680665Y-9062592D01*
X-2715494Y-9050665D01*
X-2798842Y-9027758D01*
X-2884474Y-9012163D01*
X-2971431Y-9003950D01*
X-3058751Y-9003185D01*
X-3145473Y-9009938D01*
X-3191494Y-9016697D01*
X-3227366Y-9021552D01*
X-3257125Y-9022554D01*
X-3281666Y-9019572D01*
X-3301887Y-9012475D01*
X-3318685Y-9001135D01*
X-3322465Y-8997610D01*
X-3334247Y-8983158D01*
X-3341602Y-8966847D01*
X-3344563Y-8947711D01*
X-3343168Y-8924784D01*
X-3337449Y-8897096D01*
X-3327442Y-8863682D01*
X-3327333Y-8863351D01*
X-3281943Y-8736789D01*
X-3229461Y-8608750D01*
X-3170353Y-8480177D01*
X-3105085Y-8352014D01*
X-3034125Y-8225205D01*
X-2957940Y-8100694D01*
X-2925253Y-8050451D01*
X-2890838Y-8000753D01*
X-2858155Y-7958294D01*
X-2826840Y-7922656D01*
X-2796531Y-7893423D01*
X-2770045Y-7872410D01*
X-2714941Y-7837803D01*
X-2657554Y-7810645D01*
X-2598299Y-7791018D01*
X-2537593Y-7778997D01*
X-2475854Y-7774661D01*
X-2413498Y-7778090D01*
G37*
X-2409886Y-10823244D02*
X-2392586Y-10829119D01*
X-2377684Y-10840113D01*
X-2364373Y-10856970D01*
X-2351846Y-10880437D01*
X-2342486Y-10902800D01*
X-2292229Y-11022982D01*
X-2234948Y-11141473D01*
X-2170360Y-11258811D01*
X-2098180Y-11375538D01*
X-2080929Y-11401677D01*
X-2061426Y-11431222D01*
X-2045820Y-11455754D01*
X-2033342Y-11476678D01*
X-2023218Y-11495396D01*
X-2014677Y-11513312D01*
X-2006947Y-11531833D01*
X-2001563Y-11546019D01*
X-1984421Y-11603804D01*
X-1974577Y-11663351D01*
X-1971916Y-11723742D01*
X-1976331Y-11784057D01*
X-1987709Y-11843379D01*
X-2005939Y-11900786D01*
X-2030909Y-11955362D01*
X-2056134Y-11997058D01*
X-2094766Y-12047179D01*
X-2137965Y-12091137D01*
X-2185157Y-12128820D01*
X-2235768Y-12160114D01*
X-2289224Y-12184905D01*
X-2344954Y-12203080D01*
X-2402385Y-12214526D01*
X-2460941Y-12219130D01*
X-2520051Y-12216779D01*
X-2579142Y-12207358D01*
X-2637639Y-12190755D01*
X-2694971Y-12166857D01*
X-2750563Y-12135549D01*
X-2752033Y-12134601D01*
X-2766786Y-12124348D01*
X-2781894Y-12112244D01*
X-2798791Y-12097040D01*
X-2818908Y-12077491D01*
X-2827057Y-12069309D01*
X-2842124Y-12053709D01*
X-2856238Y-12038176D01*
X-2869991Y-12021887D01*
X-2883981Y-12004018D01*
X-2898803Y-11983744D01*
X-2915053Y-11960240D01*
X-2933328Y-11932684D01*
X-2954221Y-11900251D01*
X-2978329Y-11862116D01*
X-2988347Y-11846132D01*
X-3048380Y-11745775D01*
X-3106635Y-11639728D01*
X-3162268Y-11529773D01*
X-3214439Y-11417696D01*
X-3262306Y-11305281D01*
X-3305028Y-11194311D01*
X-3331020Y-11119656D01*
X-3340242Y-11089949D01*
X-3346067Y-11066031D01*
X-3348653Y-11046595D01*
X-3348165Y-11030336D01*
X-3344764Y-11015947D01*
X-3344068Y-11014017D01*
X-3335541Y-10997040D01*
X-3323608Y-10985180D01*
X-3310741Y-10977907D01*
X-3289128Y-10971643D01*
X-3261856Y-10970281D01*
X-3229524Y-10973842D01*
X-3223805Y-10974892D01*
X-3133786Y-10988438D01*
X-3044216Y-10994282D01*
X-2955472Y-10992458D01*
X-2867930Y-10983004D01*
X-2781973Y-10965956D01*
X-2697975Y-10941348D01*
X-2639951Y-10919398D01*
X-2609167Y-10906072D01*
X-2579035Y-10891807D01*
X-2547660Y-10875635D01*
X-2513143Y-10856586D01*
X-2483590Y-10839557D01*
X-2466934Y-10830413D01*
X-2453879Y-10825016D01*
X-2441618Y-10822427D01*
X-2430393Y-10821742D01*
X-2409886Y-10823244D01*
G36*
X-2409886Y-10823244D02*
G01*
X-2392586Y-10829119D01*
X-2377684Y-10840113D01*
X-2364373Y-10856970D01*
X-2351846Y-10880437D01*
X-2342486Y-10902800D01*
X-2292229Y-11022982D01*
X-2234948Y-11141473D01*
X-2170360Y-11258811D01*
X-2098180Y-11375538D01*
X-2080929Y-11401677D01*
X-2061426Y-11431222D01*
X-2045820Y-11455754D01*
X-2033342Y-11476678D01*
X-2023218Y-11495396D01*
X-2014677Y-11513312D01*
X-2006947Y-11531833D01*
X-2001563Y-11546019D01*
X-1984421Y-11603804D01*
X-1974577Y-11663351D01*
X-1971916Y-11723742D01*
X-1976331Y-11784057D01*
X-1987709Y-11843379D01*
X-2005939Y-11900786D01*
X-2030909Y-11955362D01*
X-2056134Y-11997058D01*
X-2094766Y-12047179D01*
X-2137965Y-12091137D01*
X-2185157Y-12128820D01*
X-2235768Y-12160114D01*
X-2289224Y-12184905D01*
X-2344954Y-12203080D01*
X-2402385Y-12214526D01*
X-2460941Y-12219130D01*
X-2520051Y-12216779D01*
X-2579142Y-12207358D01*
X-2637639Y-12190755D01*
X-2694971Y-12166857D01*
X-2750563Y-12135549D01*
X-2752033Y-12134601D01*
X-2766786Y-12124348D01*
X-2781894Y-12112244D01*
X-2798791Y-12097040D01*
X-2818908Y-12077491D01*
X-2827057Y-12069309D01*
X-2842124Y-12053709D01*
X-2856238Y-12038176D01*
X-2869991Y-12021887D01*
X-2883981Y-12004018D01*
X-2898803Y-11983744D01*
X-2915053Y-11960240D01*
X-2933328Y-11932684D01*
X-2954221Y-11900251D01*
X-2978329Y-11862116D01*
X-2988347Y-11846132D01*
X-3048380Y-11745775D01*
X-3106635Y-11639728D01*
X-3162268Y-11529773D01*
X-3214439Y-11417696D01*
X-3262306Y-11305281D01*
X-3305028Y-11194311D01*
X-3331020Y-11119656D01*
X-3340242Y-11089949D01*
X-3346067Y-11066031D01*
X-3348653Y-11046595D01*
X-3348165Y-11030336D01*
X-3344764Y-11015947D01*
X-3344068Y-11014017D01*
X-3335541Y-10997040D01*
X-3323608Y-10985180D01*
X-3310741Y-10977907D01*
X-3289128Y-10971643D01*
X-3261856Y-10970281D01*
X-3229524Y-10973842D01*
X-3223805Y-10974892D01*
X-3133786Y-10988438D01*
X-3044216Y-10994282D01*
X-2955472Y-10992458D01*
X-2867930Y-10983004D01*
X-2781973Y-10965956D01*
X-2697975Y-10941348D01*
X-2639951Y-10919398D01*
X-2609167Y-10906072D01*
X-2579035Y-10891807D01*
X-2547660Y-10875635D01*
X-2513143Y-10856586D01*
X-2483590Y-10839557D01*
X-2466934Y-10830413D01*
X-2453879Y-10825016D01*
X-2441618Y-10822427D01*
X-2430393Y-10821742D01*
X-2409886Y-10823244D01*
G37*
X-2920333Y-9275241D02*
X-2913780Y-9276418D01*
X-2906680Y-9277914D01*
X-2900139Y-9279775D01*
X-2893653Y-9282478D01*
X-2886719Y-9286497D01*
X-2878834Y-9292309D01*
X-2869494Y-9300388D01*
X-2858196Y-9311209D01*
X-2844437Y-9325247D01*
X-2827712Y-9342978D01*
X-2807520Y-9364877D01*
X-2783355Y-9391419D01*
X-2754715Y-9423080D01*
X-2733410Y-9446688D01*
X-2706724Y-9476356D01*
X-2681474Y-9504603D01*
X-2658199Y-9530811D01*
X-2637438Y-9554367D01*
X-2619729Y-9574657D01*
X-2605611Y-9591065D01*
X-2595623Y-9602976D01*
X-2590303Y-9609776D01*
X-2589779Y-9610584D01*
X-2580352Y-9634091D01*
X-2577902Y-9658566D01*
X-2581761Y-9682822D01*
X-2591266Y-9705672D01*
X-2605751Y-9725930D01*
X-2624552Y-9742409D01*
X-2647004Y-9753922D01*
X-2672443Y-9759283D01*
X-2673115Y-9759328D01*
X-2694631Y-9758155D01*
X-2715753Y-9752817D01*
X-2717036Y-9752321D01*
X-2724861Y-9749039D01*
X-2731609Y-9745522D01*
X-2738347Y-9740834D01*
X-2746151Y-9734043D01*
X-2756091Y-9724214D01*
X-2769239Y-9710411D01*
X-2786669Y-9691704D01*
X-2786888Y-9691467D01*
X-2803949Y-9672959D01*
X-2820368Y-9654920D01*
X-2834866Y-9638775D01*
X-2846158Y-9625948D01*
X-2851658Y-9619481D01*
X-2858000Y-9611769D01*
X-2862793Y-9606675D01*
X-2866388Y-9604936D01*
X-2869137Y-9607284D01*
X-2871388Y-9614456D01*
X-2873493Y-9627184D01*
X-2875804Y-9646204D01*
X-2878671Y-9672250D01*
X-2879209Y-9677163D01*
X-2888864Y-9784995D01*
X-2894560Y-9895386D01*
X-2896316Y-10006621D01*
X-2894151Y-10116982D01*
X-2888084Y-10224753D01*
X-2878136Y-10328220D01*
X-2871220Y-10381254D01*
X-2868495Y-10400265D01*
X-2845135Y-10373321D01*
X-2833764Y-10360589D01*
X-2818532Y-10344071D01*
X-2801166Y-10325616D01*
X-2783396Y-10307073D01*
X-2777424Y-10300926D01*
X-2759738Y-10282999D01*
X-2746323Y-10269966D01*
X-2736071Y-10260882D01*
X-2727879Y-10254802D01*
X-2720639Y-10250780D01*
X-2716902Y-10249195D01*
X-2690760Y-10243093D01*
X-2663760Y-10244002D01*
X-2637794Y-10251528D01*
X-2614757Y-10265273D01*
X-2607058Y-10272152D01*
X-2591439Y-10292910D01*
X-2581447Y-10317261D01*
X-2577512Y-10343186D01*
X-2580062Y-10368667D01*
X-2583965Y-10380762D01*
X-2586046Y-10385523D01*
X-2588560Y-10390358D01*
X-2591948Y-10395769D01*
X-2596650Y-10402262D01*
X-2603105Y-10410339D01*
X-2611757Y-10420504D01*
X-2623044Y-10433259D01*
X-2637409Y-10449110D01*
X-2655291Y-10468558D01*
X-2677132Y-10492107D01*
X-2703372Y-10520261D01*
X-2734452Y-10553522D01*
X-2746454Y-10566356D01*
X-2777794Y-10599840D01*
X-2804269Y-10628001D01*
X-2826432Y-10651310D01*
X-2844838Y-10670245D01*
X-2860041Y-10685279D01*
X-2872593Y-10696888D01*
X-2883050Y-10705547D01*
X-2891963Y-10711731D01*
X-2899888Y-10715915D01*
X-2907378Y-10718573D01*
X-2914986Y-10720182D01*
X-2923268Y-10721214D01*
X-2927479Y-10721630D01*
X-2943306Y-10721179D01*
X-2961343Y-10717734D01*
X-2978682Y-10712136D01*
X-2992414Y-10705220D01*
X-2996933Y-10701616D01*
X-3001678Y-10698100D01*
X-3012462Y-10690833D01*
X-3028584Y-10680269D01*
X-3049346Y-10666855D01*
X-3074048Y-10651041D01*
X-3101993Y-10633277D01*
X-3132482Y-10614012D01*
X-3162062Y-10595420D01*
X-3202540Y-10569975D01*
X-3236802Y-10548245D01*
X-3265407Y-10529813D01*
X-3288917Y-10514264D01*
X-3307892Y-10501182D01*
X-3322892Y-10490149D01*
X-3334478Y-10480749D01*
X-3343211Y-10472566D01*
X-3349651Y-10465183D01*
X-3354359Y-10458184D01*
X-3357895Y-10451152D01*
X-3358658Y-10449349D01*
X-3364493Y-10426806D01*
X-3365436Y-10401937D01*
X-3361570Y-10379605D01*
X-3353053Y-10362150D01*
X-3339219Y-10344527D01*
X-3322299Y-10328969D01*
X-3304520Y-10317707D01*
X-3296605Y-10314564D01*
X-3277445Y-10310979D01*
X-3256136Y-10310544D01*
X-3236322Y-10313171D01*
X-3226438Y-10316275D01*
X-3219526Y-10319888D01*
X-3207154Y-10327033D01*
X-3190546Y-10336974D01*
X-3170933Y-10348973D01*
X-3149543Y-10362294D01*
X-3146023Y-10364509D01*
X-3125273Y-10377536D01*
X-3106895Y-10388989D01*
X-3091911Y-10398240D01*
X-3081342Y-10404657D01*
X-3076208Y-10407612D01*
X-3075898Y-10407736D01*
X-3075812Y-10404019D01*
X-3076554Y-10393757D01*
X-3078005Y-10378289D01*
X-3080043Y-10358949D01*
X-3081460Y-10346349D01*
X-3095270Y-10191676D01*
X-3101162Y-10036449D01*
X-3099137Y-9880679D01*
X-3089195Y-9724375D01*
X-3081418Y-9647473D01*
X-3079150Y-9625549D01*
X-3077615Y-9606682D01*
X-3076883Y-9592144D01*
X-3077023Y-9583205D01*
X-3077795Y-9580937D01*
X-3082232Y-9582986D01*
X-3092420Y-9588537D01*
X-3107309Y-9596991D01*
X-3125853Y-9607752D01*
X-3147004Y-9620223D01*
X-3155561Y-9625318D01*
X-3183002Y-9641647D01*
X-3204673Y-9654341D01*
X-3221596Y-9663873D01*
X-3234793Y-9670717D01*
X-3245284Y-9675347D01*
X-3254091Y-9678239D01*
X-3262235Y-9679865D01*
X-3270738Y-9680700D01*
X-3275418Y-9680968D01*
X-3302071Y-9678685D01*
X-3326119Y-9669735D01*
X-3346764Y-9655177D01*
X-3363208Y-9636075D01*
X-3374651Y-9613488D01*
X-3380297Y-9588478D01*
X-3379347Y-9562106D01*
X-3375768Y-9547543D01*
X-3371453Y-9536112D01*
X-3365906Y-9525888D01*
X-3358288Y-9516149D01*
X-3347755Y-9506181D01*
X-3333469Y-9495264D01*
X-3314586Y-9482680D01*
X-3290267Y-9467711D01*
X-3264102Y-9452231D01*
X-3238920Y-9437470D01*
X-3208768Y-9419763D01*
X-3175507Y-9400203D01*
X-3140999Y-9379886D01*
X-3107106Y-9359908D01*
X-3077063Y-9342176D01*
X-3044214Y-9322870D01*
X-3017264Y-9307351D01*
X-2995337Y-9295271D01*
X-2977561Y-9286274D01*
X-2963060Y-9280010D01*
X-2950960Y-9276126D01*
X-2940389Y-9274272D01*
X-2930471Y-9274094D01*
X-2920333Y-9275241D01*
G36*
X-2920333Y-9275241D02*
G01*
X-2913780Y-9276418D01*
X-2906680Y-9277914D01*
X-2900139Y-9279775D01*
X-2893653Y-9282478D01*
X-2886719Y-9286497D01*
X-2878834Y-9292309D01*
X-2869494Y-9300388D01*
X-2858196Y-9311209D01*
X-2844437Y-9325247D01*
X-2827712Y-9342978D01*
X-2807520Y-9364877D01*
X-2783355Y-9391419D01*
X-2754715Y-9423080D01*
X-2733410Y-9446688D01*
X-2706724Y-9476356D01*
X-2681474Y-9504603D01*
X-2658199Y-9530811D01*
X-2637438Y-9554367D01*
X-2619729Y-9574657D01*
X-2605611Y-9591065D01*
X-2595623Y-9602976D01*
X-2590303Y-9609776D01*
X-2589779Y-9610584D01*
X-2580352Y-9634091D01*
X-2577902Y-9658566D01*
X-2581761Y-9682822D01*
X-2591266Y-9705672D01*
X-2605751Y-9725930D01*
X-2624552Y-9742409D01*
X-2647004Y-9753922D01*
X-2672443Y-9759283D01*
X-2673115Y-9759328D01*
X-2694631Y-9758155D01*
X-2715753Y-9752817D01*
X-2717036Y-9752321D01*
X-2724861Y-9749039D01*
X-2731609Y-9745522D01*
X-2738347Y-9740834D01*
X-2746151Y-9734043D01*
X-2756091Y-9724214D01*
X-2769239Y-9710411D01*
X-2786669Y-9691704D01*
X-2786888Y-9691467D01*
X-2803949Y-9672959D01*
X-2820368Y-9654920D01*
X-2834866Y-9638775D01*
X-2846158Y-9625948D01*
X-2851658Y-9619481D01*
X-2858000Y-9611769D01*
X-2862793Y-9606675D01*
X-2866388Y-9604936D01*
X-2869137Y-9607284D01*
X-2871388Y-9614456D01*
X-2873493Y-9627184D01*
X-2875804Y-9646204D01*
X-2878671Y-9672250D01*
X-2879209Y-9677163D01*
X-2888864Y-9784995D01*
X-2894560Y-9895386D01*
X-2896316Y-10006621D01*
X-2894151Y-10116982D01*
X-2888084Y-10224753D01*
X-2878136Y-10328220D01*
X-2871220Y-10381254D01*
X-2868495Y-10400265D01*
X-2845135Y-10373321D01*
X-2833764Y-10360589D01*
X-2818532Y-10344071D01*
X-2801166Y-10325616D01*
X-2783396Y-10307073D01*
X-2777424Y-10300926D01*
X-2759738Y-10282999D01*
X-2746323Y-10269966D01*
X-2736071Y-10260882D01*
X-2727879Y-10254802D01*
X-2720639Y-10250780D01*
X-2716902Y-10249195D01*
X-2690760Y-10243093D01*
X-2663760Y-10244002D01*
X-2637794Y-10251528D01*
X-2614757Y-10265273D01*
X-2607058Y-10272152D01*
X-2591439Y-10292910D01*
X-2581447Y-10317261D01*
X-2577512Y-10343186D01*
X-2580062Y-10368667D01*
X-2583965Y-10380762D01*
X-2586046Y-10385523D01*
X-2588560Y-10390358D01*
X-2591948Y-10395769D01*
X-2596650Y-10402262D01*
X-2603105Y-10410339D01*
X-2611757Y-10420504D01*
X-2623044Y-10433259D01*
X-2637409Y-10449110D01*
X-2655291Y-10468558D01*
X-2677132Y-10492107D01*
X-2703372Y-10520261D01*
X-2734452Y-10553522D01*
X-2746454Y-10566356D01*
X-2777794Y-10599840D01*
X-2804269Y-10628001D01*
X-2826432Y-10651310D01*
X-2844838Y-10670245D01*
X-2860041Y-10685279D01*
X-2872593Y-10696888D01*
X-2883050Y-10705547D01*
X-2891963Y-10711731D01*
X-2899888Y-10715915D01*
X-2907378Y-10718573D01*
X-2914986Y-10720182D01*
X-2923268Y-10721214D01*
X-2927479Y-10721630D01*
X-2943306Y-10721179D01*
X-2961343Y-10717734D01*
X-2978682Y-10712136D01*
X-2992414Y-10705220D01*
X-2996933Y-10701616D01*
X-3001678Y-10698100D01*
X-3012462Y-10690833D01*
X-3028584Y-10680269D01*
X-3049346Y-10666855D01*
X-3074048Y-10651041D01*
X-3101993Y-10633277D01*
X-3132482Y-10614012D01*
X-3162062Y-10595420D01*
X-3202540Y-10569975D01*
X-3236802Y-10548245D01*
X-3265407Y-10529813D01*
X-3288917Y-10514264D01*
X-3307892Y-10501182D01*
X-3322892Y-10490149D01*
X-3334478Y-10480749D01*
X-3343211Y-10472566D01*
X-3349651Y-10465183D01*
X-3354359Y-10458184D01*
X-3357895Y-10451152D01*
X-3358658Y-10449349D01*
X-3364493Y-10426806D01*
X-3365436Y-10401937D01*
X-3361570Y-10379605D01*
X-3353053Y-10362150D01*
X-3339219Y-10344527D01*
X-3322299Y-10328969D01*
X-3304520Y-10317707D01*
X-3296605Y-10314564D01*
X-3277445Y-10310979D01*
X-3256136Y-10310544D01*
X-3236322Y-10313171D01*
X-3226438Y-10316275D01*
X-3219526Y-10319888D01*
X-3207154Y-10327033D01*
X-3190546Y-10336974D01*
X-3170933Y-10348973D01*
X-3149543Y-10362294D01*
X-3146023Y-10364509D01*
X-3125273Y-10377536D01*
X-3106895Y-10388989D01*
X-3091911Y-10398240D01*
X-3081342Y-10404657D01*
X-3076208Y-10407612D01*
X-3075898Y-10407736D01*
X-3075812Y-10404019D01*
X-3076554Y-10393757D01*
X-3078005Y-10378289D01*
X-3080043Y-10358949D01*
X-3081460Y-10346349D01*
X-3095270Y-10191676D01*
X-3101162Y-10036449D01*
X-3099137Y-9880679D01*
X-3089195Y-9724375D01*
X-3081418Y-9647473D01*
X-3079150Y-9625549D01*
X-3077615Y-9606682D01*
X-3076883Y-9592144D01*
X-3077023Y-9583205D01*
X-3077795Y-9580937D01*
X-3082232Y-9582986D01*
X-3092420Y-9588537D01*
X-3107309Y-9596991D01*
X-3125853Y-9607752D01*
X-3147004Y-9620223D01*
X-3155561Y-9625318D01*
X-3183002Y-9641647D01*
X-3204673Y-9654341D01*
X-3221596Y-9663873D01*
X-3234793Y-9670717D01*
X-3245284Y-9675347D01*
X-3254091Y-9678239D01*
X-3262235Y-9679865D01*
X-3270738Y-9680700D01*
X-3275418Y-9680968D01*
X-3302071Y-9678685D01*
X-3326119Y-9669735D01*
X-3346764Y-9655177D01*
X-3363208Y-9636075D01*
X-3374651Y-9613488D01*
X-3380297Y-9588478D01*
X-3379347Y-9562106D01*
X-3375768Y-9547543D01*
X-3371453Y-9536112D01*
X-3365906Y-9525888D01*
X-3358288Y-9516149D01*
X-3347755Y-9506181D01*
X-3333469Y-9495264D01*
X-3314586Y-9482680D01*
X-3290267Y-9467711D01*
X-3264102Y-9452231D01*
X-3238920Y-9437470D01*
X-3208768Y-9419763D01*
X-3175507Y-9400203D01*
X-3140999Y-9379886D01*
X-3107106Y-9359908D01*
X-3077063Y-9342176D01*
X-3044214Y-9322870D01*
X-3017264Y-9307351D01*
X-2995337Y-9295271D01*
X-2977561Y-9286274D01*
X-2963060Y-9280010D01*
X-2950960Y-9276126D01*
X-2940389Y-9274272D01*
X-2930471Y-9274094D01*
X-2920333Y-9275241D01*
G37*
%TO.C,MH3*%
X-2408561Y12219506D02*
X-2346003Y12208234D01*
X-2336624Y12205861D01*
X-2280755Y12187180D01*
X-2227056Y12161355D01*
X-2176356Y12129066D01*
X-2129486Y12090994D01*
X-2087279Y12047819D01*
X-2050564Y12000222D01*
X-2020171Y11948882D01*
X-2018364Y11945290D01*
X-1994928Y11889449D01*
X-1978558Y11830936D01*
X-1969267Y11770711D01*
X-1967067Y11709733D01*
X-1971972Y11648957D01*
X-1983992Y11589343D01*
X-2003143Y11531849D01*
X-2012572Y11510153D01*
X-2019459Y11496832D01*
X-2029847Y11478622D01*
X-2042742Y11457175D01*
X-2057153Y11434142D01*
X-2072082Y11411179D01*
X-2072330Y11410806D01*
X-2127556Y11324994D01*
X-2177179Y11242009D01*
X-2222108Y11160147D01*
X-2263257Y11077701D01*
X-2301538Y10992969D01*
X-2321439Y10945417D01*
X-2336167Y10911343D01*
X-2349924Y10884325D01*
X-2363354Y10863648D01*
X-2377093Y10848597D01*
X-2391782Y10838454D01*
X-2408063Y10832504D01*
X-2424490Y10830150D01*
X-2437370Y10829927D01*
X-2449657Y10831372D01*
X-2462803Y10834993D01*
X-2478266Y10841297D01*
X-2497500Y10850791D01*
X-2521959Y10863983D01*
X-2522766Y10864428D01*
X-2575428Y10892081D01*
X-2625474Y10915193D01*
X-2675728Y10935004D01*
X-2710557Y10946931D01*
X-2793905Y10969838D01*
X-2879537Y10985432D01*
X-2966494Y10993646D01*
X-3053814Y10994411D01*
X-3140536Y10987658D01*
X-3186557Y10980899D01*
X-3222429Y10976044D01*
X-3252188Y10975042D01*
X-3276729Y10978023D01*
X-3296950Y10985121D01*
X-3313748Y10996461D01*
X-3317528Y10999985D01*
X-3329310Y11014438D01*
X-3336665Y11030749D01*
X-3339626Y11049885D01*
X-3338231Y11072812D01*
X-3332512Y11100500D01*
X-3322505Y11133914D01*
X-3322396Y11134245D01*
X-3277006Y11260807D01*
X-3224524Y11388846D01*
X-3165416Y11517419D01*
X-3100148Y11645582D01*
X-3029188Y11772391D01*
X-2953003Y11896902D01*
X-2920316Y11947144D01*
X-2885901Y11996843D01*
X-2853218Y12039302D01*
X-2821903Y12074940D01*
X-2791594Y12104173D01*
X-2765108Y12125186D01*
X-2710004Y12159793D01*
X-2652617Y12186950D01*
X-2593362Y12206578D01*
X-2532656Y12218599D01*
X-2470917Y12222934D01*
X-2408561Y12219506D01*
G36*
X-2408561Y12219506D02*
G01*
X-2346003Y12208234D01*
X-2336624Y12205861D01*
X-2280755Y12187180D01*
X-2227056Y12161355D01*
X-2176356Y12129066D01*
X-2129486Y12090994D01*
X-2087279Y12047819D01*
X-2050564Y12000222D01*
X-2020171Y11948882D01*
X-2018364Y11945290D01*
X-1994928Y11889449D01*
X-1978558Y11830936D01*
X-1969267Y11770711D01*
X-1967067Y11709733D01*
X-1971972Y11648957D01*
X-1983992Y11589343D01*
X-2003143Y11531849D01*
X-2012572Y11510153D01*
X-2019459Y11496832D01*
X-2029847Y11478622D01*
X-2042742Y11457175D01*
X-2057153Y11434142D01*
X-2072082Y11411179D01*
X-2072330Y11410806D01*
X-2127556Y11324994D01*
X-2177179Y11242009D01*
X-2222108Y11160147D01*
X-2263257Y11077701D01*
X-2301538Y10992969D01*
X-2321439Y10945417D01*
X-2336167Y10911343D01*
X-2349924Y10884325D01*
X-2363354Y10863648D01*
X-2377093Y10848597D01*
X-2391782Y10838454D01*
X-2408063Y10832504D01*
X-2424490Y10830150D01*
X-2437370Y10829927D01*
X-2449657Y10831372D01*
X-2462803Y10834993D01*
X-2478266Y10841297D01*
X-2497500Y10850791D01*
X-2521959Y10863983D01*
X-2522766Y10864428D01*
X-2575428Y10892081D01*
X-2625474Y10915193D01*
X-2675728Y10935004D01*
X-2710557Y10946931D01*
X-2793905Y10969838D01*
X-2879537Y10985432D01*
X-2966494Y10993646D01*
X-3053814Y10994411D01*
X-3140536Y10987658D01*
X-3186557Y10980899D01*
X-3222429Y10976044D01*
X-3252188Y10975042D01*
X-3276729Y10978023D01*
X-3296950Y10985121D01*
X-3313748Y10996461D01*
X-3317528Y10999985D01*
X-3329310Y11014438D01*
X-3336665Y11030749D01*
X-3339626Y11049885D01*
X-3338231Y11072812D01*
X-3332512Y11100500D01*
X-3322505Y11133914D01*
X-3322396Y11134245D01*
X-3277006Y11260807D01*
X-3224524Y11388846D01*
X-3165416Y11517419D01*
X-3100148Y11645582D01*
X-3029188Y11772391D01*
X-2953003Y11896902D01*
X-2920316Y11947144D01*
X-2885901Y11996843D01*
X-2853218Y12039302D01*
X-2821903Y12074940D01*
X-2791594Y12104173D01*
X-2765108Y12125186D01*
X-2710004Y12159793D01*
X-2652617Y12186950D01*
X-2593362Y12206578D01*
X-2532656Y12218599D01*
X-2470917Y12222934D01*
X-2408561Y12219506D01*
G37*
X-2404949Y9174352D02*
X-2387649Y9168477D01*
X-2372747Y9157483D01*
X-2359436Y9140626D01*
X-2346909Y9117159D01*
X-2337549Y9094796D01*
X-2287292Y8974614D01*
X-2230011Y8856123D01*
X-2165423Y8738785D01*
X-2093243Y8622057D01*
X-2075992Y8595919D01*
X-2056489Y8566374D01*
X-2040883Y8541842D01*
X-2028405Y8520918D01*
X-2018281Y8502200D01*
X-2009740Y8484283D01*
X-2002010Y8465763D01*
X-1996626Y8451577D01*
X-1979484Y8393792D01*
X-1969640Y8334245D01*
X-1966979Y8273854D01*
X-1971394Y8213539D01*
X-1982772Y8154217D01*
X-2001002Y8096809D01*
X-2025972Y8042234D01*
X-2051197Y8000538D01*
X-2089829Y7950416D01*
X-2133028Y7906458D01*
X-2180220Y7868776D01*
X-2230831Y7837481D01*
X-2284287Y7812691D01*
X-2340017Y7794516D01*
X-2397448Y7783070D01*
X-2456004Y7778466D01*
X-2515114Y7780817D01*
X-2574205Y7790238D01*
X-2632702Y7806841D01*
X-2690034Y7830739D01*
X-2745626Y7862046D01*
X-2747096Y7862995D01*
X-2761849Y7873248D01*
X-2776957Y7885352D01*
X-2793854Y7900556D01*
X-2813971Y7920105D01*
X-2822120Y7928287D01*
X-2837187Y7943887D01*
X-2851301Y7959420D01*
X-2865054Y7975709D01*
X-2879044Y7993578D01*
X-2893866Y8013852D01*
X-2910116Y8037356D01*
X-2928391Y8064912D01*
X-2949284Y8097345D01*
X-2973392Y8135480D01*
X-2983410Y8151464D01*
X-3043443Y8251821D01*
X-3101698Y8357868D01*
X-3157331Y8467823D01*
X-3209502Y8579900D01*
X-3257369Y8692315D01*
X-3300091Y8803285D01*
X-3326083Y8877940D01*
X-3335305Y8907647D01*
X-3341130Y8931565D01*
X-3343716Y8951001D01*
X-3343228Y8967260D01*
X-3339827Y8981649D01*
X-3339131Y8983579D01*
X-3330604Y9000556D01*
X-3318671Y9012416D01*
X-3305804Y9019689D01*
X-3284191Y9025953D01*
X-3256919Y9027315D01*
X-3224587Y9023754D01*
X-3218868Y9022704D01*
X-3128849Y9009157D01*
X-3039279Y9003314D01*
X-2950535Y9005138D01*
X-2862993Y9014592D01*
X-2777036Y9031640D01*
X-2693038Y9056248D01*
X-2635014Y9078198D01*
X-2604230Y9091524D01*
X-2574098Y9105789D01*
X-2542723Y9121961D01*
X-2508206Y9141010D01*
X-2478653Y9158039D01*
X-2461997Y9167182D01*
X-2448942Y9172580D01*
X-2436681Y9175169D01*
X-2425456Y9175854D01*
X-2404949Y9174352D01*
G36*
X-2404949Y9174352D02*
G01*
X-2387649Y9168477D01*
X-2372747Y9157483D01*
X-2359436Y9140626D01*
X-2346909Y9117159D01*
X-2337549Y9094796D01*
X-2287292Y8974614D01*
X-2230011Y8856123D01*
X-2165423Y8738785D01*
X-2093243Y8622057D01*
X-2075992Y8595919D01*
X-2056489Y8566374D01*
X-2040883Y8541842D01*
X-2028405Y8520918D01*
X-2018281Y8502200D01*
X-2009740Y8484283D01*
X-2002010Y8465763D01*
X-1996626Y8451577D01*
X-1979484Y8393792D01*
X-1969640Y8334245D01*
X-1966979Y8273854D01*
X-1971394Y8213539D01*
X-1982772Y8154217D01*
X-2001002Y8096809D01*
X-2025972Y8042234D01*
X-2051197Y8000538D01*
X-2089829Y7950416D01*
X-2133028Y7906458D01*
X-2180220Y7868776D01*
X-2230831Y7837481D01*
X-2284287Y7812691D01*
X-2340017Y7794516D01*
X-2397448Y7783070D01*
X-2456004Y7778466D01*
X-2515114Y7780817D01*
X-2574205Y7790238D01*
X-2632702Y7806841D01*
X-2690034Y7830739D01*
X-2745626Y7862046D01*
X-2747096Y7862995D01*
X-2761849Y7873248D01*
X-2776957Y7885352D01*
X-2793854Y7900556D01*
X-2813971Y7920105D01*
X-2822120Y7928287D01*
X-2837187Y7943887D01*
X-2851301Y7959420D01*
X-2865054Y7975709D01*
X-2879044Y7993578D01*
X-2893866Y8013852D01*
X-2910116Y8037356D01*
X-2928391Y8064912D01*
X-2949284Y8097345D01*
X-2973392Y8135480D01*
X-2983410Y8151464D01*
X-3043443Y8251821D01*
X-3101698Y8357868D01*
X-3157331Y8467823D01*
X-3209502Y8579900D01*
X-3257369Y8692315D01*
X-3300091Y8803285D01*
X-3326083Y8877940D01*
X-3335305Y8907647D01*
X-3341130Y8931565D01*
X-3343716Y8951001D01*
X-3343228Y8967260D01*
X-3339827Y8981649D01*
X-3339131Y8983579D01*
X-3330604Y9000556D01*
X-3318671Y9012416D01*
X-3305804Y9019689D01*
X-3284191Y9025953D01*
X-3256919Y9027315D01*
X-3224587Y9023754D01*
X-3218868Y9022704D01*
X-3128849Y9009157D01*
X-3039279Y9003314D01*
X-2950535Y9005138D01*
X-2862993Y9014592D01*
X-2777036Y9031640D01*
X-2693038Y9056248D01*
X-2635014Y9078198D01*
X-2604230Y9091524D01*
X-2574098Y9105789D01*
X-2542723Y9121961D01*
X-2508206Y9141010D01*
X-2478653Y9158039D01*
X-2461997Y9167182D01*
X-2448942Y9172580D01*
X-2436681Y9175169D01*
X-2425456Y9175854D01*
X-2404949Y9174352D01*
G37*
X-2992916Y10486752D02*
X-2969807Y10477868D01*
X-2954195Y10468452D01*
X-2942847Y10458566D01*
X-2933183Y10445594D01*
X-2926251Y10433659D01*
X-2923515Y10428275D01*
X-2921282Y10422540D01*
X-2919497Y10415625D01*
X-2918109Y10406697D01*
X-2917065Y10394928D01*
X-2916312Y10379489D01*
X-2915799Y10359545D01*
X-2915471Y10334271D01*
X-2915276Y10302833D01*
X-2915163Y10264403D01*
X-2915151Y10258522D01*
X-2914838Y10103083D01*
X-2759399Y10102771D01*
X-2719942Y10102664D01*
X-2687592Y10102485D01*
X-2661519Y10102178D01*
X-2640891Y10101693D01*
X-2624881Y10100976D01*
X-2612657Y10099976D01*
X-2603388Y10098639D01*
X-2596244Y10096912D01*
X-2590397Y10094742D01*
X-2585013Y10092079D01*
X-2584263Y10091671D01*
X-2567693Y10081681D01*
X-2555990Y10071759D01*
X-2546538Y10059330D01*
X-2540054Y10048115D01*
X-2530568Y10022731D01*
X-2528595Y9996590D01*
X-2533943Y9970833D01*
X-2546420Y9946604D01*
X-2559882Y9930573D01*
X-2567935Y9922852D01*
X-2575651Y9916480D01*
X-2583865Y9911327D01*
X-2593407Y9907260D01*
X-2605109Y9904148D01*
X-2619804Y9901861D01*
X-2638321Y9900266D01*
X-2661493Y9899232D01*
X-2690152Y9898628D01*
X-2725129Y9898322D01*
X-2764837Y9898189D01*
X-2914836Y9897856D01*
X-2915155Y9745279D01*
X-2915404Y9699210D01*
X-2915949Y9660823D01*
X-2916799Y9629870D01*
X-2917965Y9606101D01*
X-2919455Y9589265D01*
X-2921282Y9579114D01*
X-2921880Y9577374D01*
X-2934647Y9556311D01*
X-2953215Y9538051D01*
X-2975582Y9523967D01*
X-2999741Y9515436D01*
X-3015019Y9513530D01*
X-3040463Y9516639D01*
X-3064748Y9526711D01*
X-3086349Y9542782D01*
X-3103739Y9563883D01*
X-3108873Y9572916D01*
X-3111486Y9578629D01*
X-3113617Y9584968D01*
X-3115322Y9592774D01*
X-3116649Y9602890D01*
X-3117652Y9616156D01*
X-3118383Y9633413D01*
X-3118895Y9655505D01*
X-3119240Y9683272D01*
X-3119469Y9717555D01*
X-3119588Y9745387D01*
X-3120148Y9897768D01*
X-3269607Y9898450D01*
X-3309668Y9898790D01*
X-3345470Y9899412D01*
X-3376341Y9900286D01*
X-3401609Y9901389D01*
X-3420601Y9902694D01*
X-3432646Y9904173D01*
X-3435725Y9904925D01*
X-3452548Y9913771D01*
X-3469707Y9927734D01*
X-3485000Y9944556D01*
X-3496226Y9961980D01*
X-3499729Y9970543D01*
X-3503672Y9993796D01*
X-3502545Y10018650D01*
X-3496844Y10040261D01*
X-3488499Y10054360D01*
X-3475512Y10069646D01*
X-3460314Y10083700D01*
X-3445336Y10094104D01*
X-3440229Y10096588D01*
X-3431441Y10098429D01*
X-3414858Y10099961D01*
X-3390616Y10101176D01*
X-3358853Y10102072D01*
X-3319706Y10102641D01*
X-3273310Y10102880D01*
X-3272757Y10102881D01*
X-3120066Y10103086D01*
X-3119732Y10253085D01*
X-3119505Y10297071D01*
X-3119020Y10333629D01*
X-3118256Y10363262D01*
X-3117191Y10386476D01*
X-3115805Y10403777D01*
X-3114074Y10415668D01*
X-3112540Y10421335D01*
X-3100346Y10443526D01*
X-3082322Y10463100D01*
X-3060547Y10478070D01*
X-3047163Y10483812D01*
X-3019678Y10489157D01*
X-2992916Y10486752D01*
G36*
X-2992916Y10486752D02*
G01*
X-2969807Y10477868D01*
X-2954195Y10468452D01*
X-2942847Y10458566D01*
X-2933183Y10445594D01*
X-2926251Y10433659D01*
X-2923515Y10428275D01*
X-2921282Y10422540D01*
X-2919497Y10415625D01*
X-2918109Y10406697D01*
X-2917065Y10394928D01*
X-2916312Y10379489D01*
X-2915799Y10359545D01*
X-2915471Y10334271D01*
X-2915276Y10302833D01*
X-2915163Y10264403D01*
X-2915151Y10258522D01*
X-2914838Y10103083D01*
X-2759399Y10102771D01*
X-2719942Y10102664D01*
X-2687592Y10102485D01*
X-2661519Y10102178D01*
X-2640891Y10101693D01*
X-2624881Y10100976D01*
X-2612657Y10099976D01*
X-2603388Y10098639D01*
X-2596244Y10096912D01*
X-2590397Y10094742D01*
X-2585013Y10092079D01*
X-2584263Y10091671D01*
X-2567693Y10081681D01*
X-2555990Y10071759D01*
X-2546538Y10059330D01*
X-2540054Y10048115D01*
X-2530568Y10022731D01*
X-2528595Y9996590D01*
X-2533943Y9970833D01*
X-2546420Y9946604D01*
X-2559882Y9930573D01*
X-2567935Y9922852D01*
X-2575651Y9916480D01*
X-2583865Y9911327D01*
X-2593407Y9907260D01*
X-2605109Y9904148D01*
X-2619804Y9901861D01*
X-2638321Y9900266D01*
X-2661493Y9899232D01*
X-2690152Y9898628D01*
X-2725129Y9898322D01*
X-2764837Y9898189D01*
X-2914836Y9897856D01*
X-2915155Y9745279D01*
X-2915404Y9699210D01*
X-2915949Y9660823D01*
X-2916799Y9629870D01*
X-2917965Y9606101D01*
X-2919455Y9589265D01*
X-2921282Y9579114D01*
X-2921880Y9577374D01*
X-2934647Y9556311D01*
X-2953215Y9538051D01*
X-2975582Y9523967D01*
X-2999741Y9515436D01*
X-3015019Y9513530D01*
X-3040463Y9516639D01*
X-3064748Y9526711D01*
X-3086349Y9542782D01*
X-3103739Y9563883D01*
X-3108873Y9572916D01*
X-3111486Y9578629D01*
X-3113617Y9584968D01*
X-3115322Y9592774D01*
X-3116649Y9602890D01*
X-3117652Y9616156D01*
X-3118383Y9633413D01*
X-3118895Y9655505D01*
X-3119240Y9683272D01*
X-3119469Y9717555D01*
X-3119588Y9745387D01*
X-3120148Y9897768D01*
X-3269607Y9898450D01*
X-3309668Y9898790D01*
X-3345470Y9899412D01*
X-3376341Y9900286D01*
X-3401609Y9901389D01*
X-3420601Y9902694D01*
X-3432646Y9904173D01*
X-3435725Y9904925D01*
X-3452548Y9913771D01*
X-3469707Y9927734D01*
X-3485000Y9944556D01*
X-3496226Y9961980D01*
X-3499729Y9970543D01*
X-3503672Y9993796D01*
X-3502545Y10018650D01*
X-3496844Y10040261D01*
X-3488499Y10054360D01*
X-3475512Y10069646D01*
X-3460314Y10083700D01*
X-3445336Y10094104D01*
X-3440229Y10096588D01*
X-3431441Y10098429D01*
X-3414858Y10099961D01*
X-3390616Y10101176D01*
X-3358853Y10102072D01*
X-3319706Y10102641D01*
X-3273310Y10102880D01*
X-3272757Y10102881D01*
X-3120066Y10103086D01*
X-3119732Y10253085D01*
X-3119505Y10297071D01*
X-3119020Y10333629D01*
X-3118256Y10363262D01*
X-3117191Y10386476D01*
X-3115805Y10403777D01*
X-3114074Y10415668D01*
X-3112540Y10421335D01*
X-3100346Y10443526D01*
X-3082322Y10463100D01*
X-3060547Y10478070D01*
X-3047163Y10483812D01*
X-3019678Y10489157D01*
X-2992916Y10486752D01*
G37*
%TO.C,MH2*%
X-2408331Y2220401D02*
X-2345774Y2209130D01*
X-2336395Y2206757D01*
X-2280526Y2188075D01*
X-2226827Y2162250D01*
X-2176127Y2129961D01*
X-2129257Y2091889D01*
X-2087050Y2048715D01*
X-2050335Y2001117D01*
X-2019942Y1949777D01*
X-2018135Y1946186D01*
X-1994699Y1890344D01*
X-1978329Y1831831D01*
X-1969038Y1771607D01*
X-1966838Y1710628D01*
X-1971743Y1649852D01*
X-1983763Y1590239D01*
X-2002914Y1532744D01*
X-2012343Y1511048D01*
X-2019230Y1497727D01*
X-2029618Y1479517D01*
X-2042513Y1458070D01*
X-2056923Y1435037D01*
X-2071853Y1412074D01*
X-2072101Y1411701D01*
X-2127327Y1325890D01*
X-2176950Y1242904D01*
X-2221879Y1161042D01*
X-2263028Y1078596D01*
X-2301309Y993864D01*
X-2321210Y946312D01*
X-2335938Y912238D01*
X-2349695Y885221D01*
X-2363125Y864543D01*
X-2376864Y849492D01*
X-2391553Y839349D01*
X-2407834Y833399D01*
X-2424261Y831045D01*
X-2437141Y830822D01*
X-2449428Y832268D01*
X-2462574Y835888D01*
X-2478037Y842192D01*
X-2497271Y851686D01*
X-2521729Y864878D01*
X-2522537Y865323D01*
X-2575199Y892976D01*
X-2625245Y916089D01*
X-2675499Y935899D01*
X-2710328Y947826D01*
X-2793676Y970733D01*
X-2879308Y986328D01*
X-2966265Y994541D01*
X-3053585Y995306D01*
X-3140307Y988553D01*
X-3186328Y981794D01*
X-3222200Y976939D01*
X-3251959Y975937D01*
X-3276499Y978919D01*
X-3296721Y986016D01*
X-3313519Y997356D01*
X-3317299Y1000881D01*
X-3329081Y1015333D01*
X-3336436Y1031644D01*
X-3339397Y1050780D01*
X-3338002Y1073707D01*
X-3332283Y1101395D01*
X-3322276Y1134809D01*
X-3322167Y1135140D01*
X-3276777Y1261702D01*
X-3224294Y1389741D01*
X-3165187Y1518314D01*
X-3099919Y1646477D01*
X-3028959Y1773286D01*
X-2952774Y1897798D01*
X-2920087Y1948040D01*
X-2885672Y1997738D01*
X-2852988Y2040198D01*
X-2821674Y2075835D01*
X-2791365Y2105068D01*
X-2764879Y2126081D01*
X-2709775Y2160689D01*
X-2652388Y2187846D01*
X-2593133Y2207473D01*
X-2532427Y2219494D01*
X-2470688Y2223830D01*
X-2408331Y2220401D01*
G36*
X-2408331Y2220401D02*
G01*
X-2345774Y2209130D01*
X-2336395Y2206757D01*
X-2280526Y2188075D01*
X-2226827Y2162250D01*
X-2176127Y2129961D01*
X-2129257Y2091889D01*
X-2087050Y2048715D01*
X-2050335Y2001117D01*
X-2019942Y1949777D01*
X-2018135Y1946186D01*
X-1994699Y1890344D01*
X-1978329Y1831831D01*
X-1969038Y1771607D01*
X-1966838Y1710628D01*
X-1971743Y1649852D01*
X-1983763Y1590239D01*
X-2002914Y1532744D01*
X-2012343Y1511048D01*
X-2019230Y1497727D01*
X-2029618Y1479517D01*
X-2042513Y1458070D01*
X-2056923Y1435037D01*
X-2071853Y1412074D01*
X-2072101Y1411701D01*
X-2127327Y1325890D01*
X-2176950Y1242904D01*
X-2221879Y1161042D01*
X-2263028Y1078596D01*
X-2301309Y993864D01*
X-2321210Y946312D01*
X-2335938Y912238D01*
X-2349695Y885221D01*
X-2363125Y864543D01*
X-2376864Y849492D01*
X-2391553Y839349D01*
X-2407834Y833399D01*
X-2424261Y831045D01*
X-2437141Y830822D01*
X-2449428Y832268D01*
X-2462574Y835888D01*
X-2478037Y842192D01*
X-2497271Y851686D01*
X-2521729Y864878D01*
X-2522537Y865323D01*
X-2575199Y892976D01*
X-2625245Y916089D01*
X-2675499Y935899D01*
X-2710328Y947826D01*
X-2793676Y970733D01*
X-2879308Y986328D01*
X-2966265Y994541D01*
X-3053585Y995306D01*
X-3140307Y988553D01*
X-3186328Y981794D01*
X-3222200Y976939D01*
X-3251959Y975937D01*
X-3276499Y978919D01*
X-3296721Y986016D01*
X-3313519Y997356D01*
X-3317299Y1000881D01*
X-3329081Y1015333D01*
X-3336436Y1031644D01*
X-3339397Y1050780D01*
X-3338002Y1073707D01*
X-3332283Y1101395D01*
X-3322276Y1134809D01*
X-3322167Y1135140D01*
X-3276777Y1261702D01*
X-3224294Y1389741D01*
X-3165187Y1518314D01*
X-3099919Y1646477D01*
X-3028959Y1773286D01*
X-2952774Y1897798D01*
X-2920087Y1948040D01*
X-2885672Y1997738D01*
X-2852988Y2040198D01*
X-2821674Y2075835D01*
X-2791365Y2105068D01*
X-2764879Y2126081D01*
X-2709775Y2160689D01*
X-2652388Y2187846D01*
X-2593133Y2207473D01*
X-2532427Y2219494D01*
X-2470688Y2223830D01*
X-2408331Y2220401D01*
G37*
X-2990649Y512637D02*
X-2962330Y502964D01*
X-2936446Y486191D01*
X-2921052Y471181D01*
X-2916069Y465536D01*
X-2911637Y460257D01*
X-2907721Y454868D01*
X-2904293Y448898D01*
X-2901319Y441872D01*
X-2898769Y433316D01*
X-2896611Y422758D01*
X-2894812Y409723D01*
X-2893342Y393738D01*
X-2892168Y374330D01*
X-2891260Y351025D01*
X-2890585Y323350D01*
X-2890112Y290831D01*
X-2889809Y252995D01*
X-2889645Y209368D01*
X-2889588Y159476D01*
X-2889606Y102846D01*
X-2889668Y39005D01*
X-2889709Y1841D01*
X-2889785Y-63930D01*
X-2889876Y-122240D01*
X-2889995Y-173565D01*
X-2890152Y-218383D01*
X-2890360Y-257168D01*
X-2890630Y-290397D01*
X-2890976Y-318548D01*
X-2891407Y-342096D01*
X-2891937Y-361518D01*
X-2892579Y-377290D01*
X-2893342Y-389889D01*
X-2894241Y-399790D01*
X-2895285Y-407472D01*
X-2896489Y-413409D01*
X-2897863Y-418079D01*
X-2899419Y-421956D01*
X-2900415Y-424041D01*
X-2917960Y-451089D01*
X-2940244Y-472518D01*
X-2966233Y-487853D01*
X-2994891Y-496627D01*
X-3025183Y-498364D01*
X-3052912Y-493546D01*
X-3064507Y-489848D01*
X-3073683Y-485572D01*
X-3082560Y-479294D01*
X-3093262Y-469599D01*
X-3102767Y-460227D01*
X-3116340Y-446167D01*
X-3125440Y-435210D01*
X-3131575Y-425248D01*
X-3136259Y-414172D01*
X-3136742Y-412818D01*
X-3137990Y-407801D01*
X-3139099Y-399957D01*
X-3140078Y-388866D01*
X-3140934Y-374111D01*
X-3141673Y-355273D01*
X-3142304Y-331932D01*
X-3142834Y-303672D01*
X-3143272Y-270071D01*
X-3143624Y-230713D01*
X-3143898Y-185178D01*
X-3144102Y-133049D01*
X-3144242Y-73904D01*
X-3144328Y-7327D01*
X-3144339Y7309D01*
X-3144370Y73488D01*
X-3144355Y132199D01*
X-3144288Y183914D01*
X-3144157Y229102D01*
X-3143954Y268232D01*
X-3143669Y301778D01*
X-3143294Y330207D01*
X-3142819Y353990D01*
X-3142235Y373598D01*
X-3141532Y389501D01*
X-3140702Y402168D01*
X-3139736Y412071D01*
X-3138624Y419679D01*
X-3137356Y425463D01*
X-3136077Y429496D01*
X-3124029Y453601D01*
X-3107504Y475397D01*
X-3088421Y492533D01*
X-3080656Y497468D01*
X-3050768Y510046D01*
X-3020448Y515050D01*
X-2990649Y512637D01*
G36*
X-2990649Y512637D02*
G01*
X-2962330Y502964D01*
X-2936446Y486191D01*
X-2921052Y471181D01*
X-2916069Y465536D01*
X-2911637Y460257D01*
X-2907721Y454868D01*
X-2904293Y448898D01*
X-2901319Y441872D01*
X-2898769Y433316D01*
X-2896611Y422758D01*
X-2894812Y409723D01*
X-2893342Y393738D01*
X-2892168Y374330D01*
X-2891260Y351025D01*
X-2890585Y323350D01*
X-2890112Y290831D01*
X-2889809Y252995D01*
X-2889645Y209368D01*
X-2889588Y159476D01*
X-2889606Y102846D01*
X-2889668Y39005D01*
X-2889709Y1841D01*
X-2889785Y-63930D01*
X-2889876Y-122240D01*
X-2889995Y-173565D01*
X-2890152Y-218383D01*
X-2890360Y-257168D01*
X-2890630Y-290397D01*
X-2890976Y-318548D01*
X-2891407Y-342096D01*
X-2891937Y-361518D01*
X-2892579Y-377290D01*
X-2893342Y-389889D01*
X-2894241Y-399790D01*
X-2895285Y-407472D01*
X-2896489Y-413409D01*
X-2897863Y-418079D01*
X-2899419Y-421956D01*
X-2900415Y-424041D01*
X-2917960Y-451089D01*
X-2940244Y-472518D01*
X-2966233Y-487853D01*
X-2994891Y-496627D01*
X-3025183Y-498364D01*
X-3052912Y-493546D01*
X-3064507Y-489848D01*
X-3073683Y-485572D01*
X-3082560Y-479294D01*
X-3093262Y-469599D01*
X-3102767Y-460227D01*
X-3116340Y-446167D01*
X-3125440Y-435210D01*
X-3131575Y-425248D01*
X-3136259Y-414172D01*
X-3136742Y-412818D01*
X-3137990Y-407801D01*
X-3139099Y-399957D01*
X-3140078Y-388866D01*
X-3140934Y-374111D01*
X-3141673Y-355273D01*
X-3142304Y-331932D01*
X-3142834Y-303672D01*
X-3143272Y-270071D01*
X-3143624Y-230713D01*
X-3143898Y-185178D01*
X-3144102Y-133049D01*
X-3144242Y-73904D01*
X-3144328Y-7327D01*
X-3144339Y7309D01*
X-3144370Y73488D01*
X-3144355Y132199D01*
X-3144288Y183914D01*
X-3144157Y229102D01*
X-3143954Y268232D01*
X-3143669Y301778D01*
X-3143294Y330207D01*
X-3142819Y353990D01*
X-3142235Y373598D01*
X-3141532Y389501D01*
X-3140702Y402168D01*
X-3139736Y412071D01*
X-3138624Y419679D01*
X-3137356Y425463D01*
X-3136077Y429496D01*
X-3124029Y453601D01*
X-3107504Y475397D01*
X-3088421Y492533D01*
X-3080656Y497468D01*
X-3050768Y510046D01*
X-3020448Y515050D01*
X-2990649Y512637D01*
G37*
X-2404720Y-824753D02*
X-2387419Y-830628D01*
X-2372518Y-841622D01*
X-2359207Y-858479D01*
X-2346680Y-881946D01*
X-2337320Y-904309D01*
X-2287063Y-1024491D01*
X-2229782Y-1142982D01*
X-2165193Y-1260320D01*
X-2093014Y-1377047D01*
X-2075763Y-1403186D01*
X-2056259Y-1432731D01*
X-2040654Y-1457263D01*
X-2028176Y-1478187D01*
X-2018052Y-1496905D01*
X-2009510Y-1514821D01*
X-2001780Y-1533342D01*
X-1996396Y-1547528D01*
X-1979255Y-1605313D01*
X-1969410Y-1664860D01*
X-1966750Y-1725251D01*
X-1971165Y-1785566D01*
X-1982543Y-1844888D01*
X-2000773Y-1902295D01*
X-2025743Y-1956871D01*
X-2050967Y-1998567D01*
X-2089600Y-2048688D01*
X-2132799Y-2092646D01*
X-2179990Y-2130329D01*
X-2230602Y-2161623D01*
X-2284058Y-2186414D01*
X-2339788Y-2204589D01*
X-2397219Y-2216035D01*
X-2455775Y-2220639D01*
X-2514885Y-2218288D01*
X-2573975Y-2208867D01*
X-2632473Y-2192264D01*
X-2689804Y-2168366D01*
X-2745397Y-2137058D01*
X-2746867Y-2136110D01*
X-2761620Y-2125857D01*
X-2776728Y-2113753D01*
X-2793625Y-2098549D01*
X-2813742Y-2079000D01*
X-2821891Y-2070818D01*
X-2836958Y-2055218D01*
X-2851072Y-2039685D01*
X-2864825Y-2023396D01*
X-2878815Y-2005527D01*
X-2893637Y-1985252D01*
X-2909887Y-1961749D01*
X-2928162Y-1934193D01*
X-2949055Y-1901760D01*
X-2973163Y-1863624D01*
X-2983181Y-1847641D01*
X-3043214Y-1747284D01*
X-3101469Y-1641237D01*
X-3157102Y-1531282D01*
X-3209273Y-1419205D01*
X-3257140Y-1306790D01*
X-3299862Y-1195820D01*
X-3325854Y-1121164D01*
X-3335076Y-1091458D01*
X-3340901Y-1067540D01*
X-3343487Y-1048104D01*
X-3342999Y-1031845D01*
X-3339597Y-1017456D01*
X-3338902Y-1015526D01*
X-3330375Y-998549D01*
X-3318442Y-986689D01*
X-3305575Y-979416D01*
X-3283962Y-973152D01*
X-3256690Y-971790D01*
X-3224357Y-975351D01*
X-3218639Y-976401D01*
X-3128620Y-989947D01*
X-3039049Y-995791D01*
X-2950305Y-993967D01*
X-2862764Y-984513D01*
X-2776807Y-967465D01*
X-2692809Y-942857D01*
X-2634785Y-920907D01*
X-2604001Y-907581D01*
X-2573869Y-893316D01*
X-2542494Y-877144D01*
X-2507977Y-858095D01*
X-2478424Y-841066D01*
X-2461768Y-831922D01*
X-2448713Y-826525D01*
X-2436452Y-823936D01*
X-2425227Y-823251D01*
X-2404720Y-824753D01*
G36*
X-2404720Y-824753D02*
G01*
X-2387419Y-830628D01*
X-2372518Y-841622D01*
X-2359207Y-858479D01*
X-2346680Y-881946D01*
X-2337320Y-904309D01*
X-2287063Y-1024491D01*
X-2229782Y-1142982D01*
X-2165193Y-1260320D01*
X-2093014Y-1377047D01*
X-2075763Y-1403186D01*
X-2056259Y-1432731D01*
X-2040654Y-1457263D01*
X-2028176Y-1478187D01*
X-2018052Y-1496905D01*
X-2009510Y-1514821D01*
X-2001780Y-1533342D01*
X-1996396Y-1547528D01*
X-1979255Y-1605313D01*
X-1969410Y-1664860D01*
X-1966750Y-1725251D01*
X-1971165Y-1785566D01*
X-1982543Y-1844888D01*
X-2000773Y-1902295D01*
X-2025743Y-1956871D01*
X-2050967Y-1998567D01*
X-2089600Y-2048688D01*
X-2132799Y-2092646D01*
X-2179990Y-2130329D01*
X-2230602Y-2161623D01*
X-2284058Y-2186414D01*
X-2339788Y-2204589D01*
X-2397219Y-2216035D01*
X-2455775Y-2220639D01*
X-2514885Y-2218288D01*
X-2573975Y-2208867D01*
X-2632473Y-2192264D01*
X-2689804Y-2168366D01*
X-2745397Y-2137058D01*
X-2746867Y-2136110D01*
X-2761620Y-2125857D01*
X-2776728Y-2113753D01*
X-2793625Y-2098549D01*
X-2813742Y-2079000D01*
X-2821891Y-2070818D01*
X-2836958Y-2055218D01*
X-2851072Y-2039685D01*
X-2864825Y-2023396D01*
X-2878815Y-2005527D01*
X-2893637Y-1985252D01*
X-2909887Y-1961749D01*
X-2928162Y-1934193D01*
X-2949055Y-1901760D01*
X-2973163Y-1863624D01*
X-2983181Y-1847641D01*
X-3043214Y-1747284D01*
X-3101469Y-1641237D01*
X-3157102Y-1531282D01*
X-3209273Y-1419205D01*
X-3257140Y-1306790D01*
X-3299862Y-1195820D01*
X-3325854Y-1121164D01*
X-3335076Y-1091458D01*
X-3340901Y-1067540D01*
X-3343487Y-1048104D01*
X-3342999Y-1031845D01*
X-3339597Y-1017456D01*
X-3338902Y-1015526D01*
X-3330375Y-998549D01*
X-3318442Y-986689D01*
X-3305575Y-979416D01*
X-3283962Y-973152D01*
X-3256690Y-971790D01*
X-3224357Y-975351D01*
X-3218639Y-976401D01*
X-3128620Y-989947D01*
X-3039049Y-995791D01*
X-2950305Y-993967D01*
X-2862764Y-984513D01*
X-2776807Y-967465D01*
X-2692809Y-942857D01*
X-2634785Y-920907D01*
X-2604001Y-907581D01*
X-2573869Y-893316D01*
X-2542494Y-877144D01*
X-2507977Y-858095D01*
X-2478424Y-841066D01*
X-2461768Y-831922D01*
X-2448713Y-826525D01*
X-2436452Y-823936D01*
X-2425227Y-823251D01*
X-2404720Y-824753D01*
G37*
%TD*%
M02*
