%TF.GenerationSoftware,KiCad,Pcbnew,8.0.8*%
%TF.CreationDate,2025-01-29T16:55:17+00:00*%
%TF.ProjectId,ec30_0x2_l4r4_mh_0.1,65633330-5f30-4783-925f-6c3472345f6d,v0.1*%
%TF.SameCoordinates,PX8d24d00PY36d6160*%
%TF.FileFunction,Soldermask,Top*%
%TF.FilePolarity,Negative*%
%FSLAX46Y46*%
G04 Gerber Fmt 4.6, Leading zero omitted, Abs format (unit mm)*
G04 Created by KiCad (PCBNEW 8.0.8) date 2025-01-29 16:55:17*
%MOMM*%
%LPD*%
G01*
G04 APERTURE LIST*
%ADD10C,0.000000*%
%ADD11C,2.500000*%
G04 APERTURE END LIST*
D10*
%TO.C,MH1*%
G36*
X1767767Y-8232233D02*
G01*
X1764279Y-8235721D01*
X1875278Y-8346720D01*
X2067701Y-8594791D01*
X2227516Y-8865024D01*
X2352202Y-9153155D01*
X2439792Y-9454642D01*
X2488905Y-9764729D01*
X2498767Y-10078527D01*
X2469220Y-10391086D01*
X2400734Y-10697478D01*
X2294386Y-10992870D01*
X2151855Y-11272603D01*
X1975388Y-11532268D01*
X1767767Y-11767767D01*
X0Y-13535534D01*
X-1767767Y-11767767D01*
X-1764279Y-11764279D01*
X-1875278Y-11653280D01*
X-2067701Y-11405209D01*
X-2227516Y-11134976D01*
X-2352202Y-10846845D01*
X-2439792Y-10545358D01*
X-2488905Y-10235271D01*
X-2498767Y-9921473D01*
X-2469220Y-9608914D01*
X-2400734Y-9302522D01*
X-2294386Y-9007130D01*
X-2151855Y-8727397D01*
X-1975388Y-8467732D01*
X-1767767Y-8232233D01*
X0Y-6464466D01*
X1767767Y-8232233D01*
G37*
%TO.C,MH3*%
D11*
X1250000Y10000000D02*
G75*
G02*
X-1250000Y10000000I-1250000J0D01*
G01*
X-1250000Y10000000D02*
G75*
G02*
X1250000Y10000000I1250000J0D01*
G01*
%TO.C,MH2*%
X1250000Y0D02*
G75*
G02*
X-1250000Y0I-1250000J0D01*
G01*
X-1250000Y0D02*
G75*
G02*
X1250000Y0I1250000J0D01*
G01*
%TD*%
M02*
