%TF.GenerationSoftware,KiCad,Pcbnew,9.0.0*%
%TF.CreationDate,2025-02-28T17:53:49+00:00*%
%TF.ProjectId,vm_keycap_button_row_0.1,766d5f6b-6579-4636-9170-5f627574746f,v0.1*%
%TF.SameCoordinates,PX8954400PY47868c0*%
%TF.FileFunction,Copper,L2,Bot*%
%TF.FilePolarity,Positive*%
%FSLAX46Y46*%
G04 Gerber Fmt 4.6, Leading zero omitted, Abs format (unit mm)*
G04 Created by KiCad (PCBNEW 9.0.0) date 2025-02-28 17:53:49*
%MOMM*%
%LPD*%
G01*
G04 APERTURE LIST*
G04 Aperture macros list*
%AMRoundRect*
0 Rectangle with rounded corners*
0 $1 Rounding radius*
0 $2 $3 $4 $5 $6 $7 $8 $9 X,Y pos of 4 corners*
0 Add a 4 corners polygon primitive as box body*
4,1,4,$2,$3,$4,$5,$6,$7,$8,$9,$2,$3,0*
0 Add four circle primitives for the rounded corners*
1,1,$1+$1,$2,$3*
1,1,$1+$1,$4,$5*
1,1,$1+$1,$6,$7*
1,1,$1+$1,$8,$9*
0 Add four rect primitives between the rounded corners*
20,1,$1+$1,$2,$3,$4,$5,0*
20,1,$1+$1,$4,$5,$6,$7,0*
20,1,$1+$1,$6,$7,$8,$9,0*
20,1,$1+$1,$8,$9,$2,$3,0*%
G04 Aperture macros list end*
%TA.AperFunction,ComponentPad*%
%ADD10C,2.500000*%
%TD*%
%TA.AperFunction,ComponentPad*%
%ADD11RoundRect,0.172720X-0.259080X-0.259080X0.259080X-0.259080X0.259080X0.259080X-0.259080X0.259080X0*%
%TD*%
%TA.AperFunction,ComponentPad*%
%ADD12C,0.863600*%
%TD*%
%TA.AperFunction,ViaPad*%
%ADD13C,0.500000*%
%TD*%
%TA.AperFunction,Conductor*%
%ADD14C,0.200000*%
%TD*%
G04 APERTURE END LIST*
D10*
%TO.P,SW4,1,1*%
%TO.N,/BUTTON_3*%
X-7810000Y2540000D03*
%TO.P,SW4,2,2*%
%TO.N,GND*%
X-1460000Y5080000D03*
%TD*%
%TO.P,SW6,1,1*%
%TO.N,/BUTTON_5*%
X32190000Y2540000D03*
%TO.P,SW6,2,2*%
%TO.N,GND*%
X38540000Y5080000D03*
%TD*%
%TO.P,SW7,1,1*%
%TO.N,/BUTTON_6*%
X52190000Y2540000D03*
%TO.P,SW7,2,2*%
%TO.N,GND*%
X58540000Y5080000D03*
%TD*%
%TO.P,SW5,1,1*%
%TO.N,/BUTTON_4*%
X12190000Y2540000D03*
%TO.P,SW5,2,2*%
%TO.N,GND*%
X18540000Y5080000D03*
%TD*%
D11*
%TO.P,J1,1,Vcc*%
%TO.N,+3V3*%
X-56710000Y7474800D03*
D12*
%TO.P,J1,2,SWDIO*%
%TO.N,/SWDIO*%
X-56710000Y5900000D03*
%TO.P,J1,3,GND*%
%TO.N,GND*%
X-57980000Y7474800D03*
%TO.P,J1,4,SWDCLK*%
%TO.N,/SWCLK*%
X-57980000Y5900000D03*
%TO.P,J1,5,~{RESET}*%
%TO.N,/nRESET*%
X-59250000Y7474800D03*
%TD*%
D10*
%TO.P,SW2,1,1*%
%TO.N,/BUTTON_1*%
X-47810000Y2540000D03*
%TO.P,SW2,2,2*%
%TO.N,GND*%
X-41460000Y5080000D03*
%TD*%
%TO.P,SW3,1,1*%
%TO.N,/BUTTON_2*%
X-27810000Y2540000D03*
%TO.P,SW3,2,2*%
%TO.N,GND*%
X-21460000Y5080000D03*
%TD*%
D13*
%TO.N,GND*%
X-63000000Y-1200000D03*
X-53975591Y1695591D03*
X-55080000Y6700000D03*
X-59131092Y-851091D03*
X-56980000Y-7000000D03*
X-63600000Y3600000D03*
%TO.N,+3V3*%
X-61400000Y4800000D03*
X-60900000Y0D03*
%TO.N,/nRESET*%
X-60128909Y4528909D03*
X-58300000Y1000000D03*
%TD*%
D14*
%TO.N,GND*%
X-59131092Y-851091D02*
X-57437727Y-851091D01*
X-53975591Y5595591D02*
X-55080000Y6700000D01*
X-53975591Y1695591D02*
X-53975591Y5100000D01*
X-56980000Y-380000D02*
X-56980000Y-1308818D01*
X-57437727Y-851091D02*
X-56980000Y-1308818D01*
X18540000Y5080000D02*
X-1460000Y5080000D01*
X-54904409Y1695591D02*
X-56980000Y-380000D01*
X-62651091Y-851091D02*
X-59131092Y-851091D01*
X-41460000Y5080000D02*
X-21460000Y5080000D01*
X58540000Y5080000D02*
X38540000Y5080000D01*
X-56980000Y-7000000D02*
X-56980000Y-1308818D01*
X-62651091Y2651091D02*
X-62651091Y-851091D01*
X-63000000Y-1200000D02*
X-62651091Y-851091D01*
X-63600000Y3600000D02*
X-62651091Y2651091D01*
X18540000Y5080000D02*
X38540000Y5080000D01*
X-53975591Y5100000D02*
X-53975591Y5595591D01*
X-53975591Y1695591D02*
X-54904409Y1695591D01*
X-41460000Y5080000D02*
X-53975591Y5080000D01*
X-1460000Y5080000D02*
X-21460000Y5080000D01*
%TO.N,+3V3*%
X-61400000Y500000D02*
X-60900000Y0D01*
X-61400000Y4800000D02*
X-61400000Y500000D01*
%TO.N,/nRESET*%
X-60128909Y4528909D02*
X-60128909Y2828909D01*
X-60128909Y2828909D02*
X-58300000Y1000000D01*
%TD*%
%TA.AperFunction,Conductor*%
%TO.N,GND*%
G36*
X-54866853Y6828356D02*
G01*
X-54866181Y6827203D01*
X-54800767Y6698727D01*
X-54662989Y6428128D01*
X-54662289Y6419200D01*
X-54665142Y6414546D01*
X-54794546Y6285142D01*
X-54802819Y6281715D01*
X-54808127Y6282989D01*
X-55207203Y6486181D01*
X-55213020Y6492988D01*
X-55212320Y6501916D01*
X-55211648Y6503069D01*
X-55082019Y6698727D01*
X-55078727Y6702019D01*
X-54889778Y6827203D01*
X-54883069Y6831649D01*
X-54874280Y6833360D01*
X-54866853Y6828356D01*
G37*
%TD.AperFunction*%
%TD*%
%TA.AperFunction,Conductor*%
%TO.N,/nRESET*%
G36*
X-58571877Y1417013D02*
G01*
X-58172798Y1213820D01*
X-58166981Y1207013D01*
X-58167681Y1198085D01*
X-58168353Y1196932D01*
X-58297982Y1001274D01*
X-58301274Y997982D01*
X-58496932Y868353D01*
X-58505721Y866641D01*
X-58513148Y871645D01*
X-58513820Y872798D01*
X-58577558Y997982D01*
X-58717013Y1271875D01*
X-58717712Y1280801D01*
X-58714861Y1285453D01*
X-58585454Y1414860D01*
X-58577182Y1418286D01*
X-58571877Y1417013D01*
G37*
%TD.AperFunction*%
%TD*%
%TA.AperFunction,Conductor*%
%TO.N,+3V3*%
G36*
X-61171877Y417013D02*
G01*
X-60772798Y213820D01*
X-60766981Y207013D01*
X-60767681Y198085D01*
X-60768353Y196932D01*
X-60897982Y1274D01*
X-60901274Y-2018D01*
X-61096932Y-131647D01*
X-61105721Y-133359D01*
X-61113148Y-128355D01*
X-61113820Y-127202D01*
X-61177558Y-2018D01*
X-61317013Y271875D01*
X-61317712Y280801D01*
X-61314861Y285453D01*
X-61185454Y414860D01*
X-61177182Y418286D01*
X-61171877Y417013D01*
G37*
%TD.AperFunction*%
%TD*%
%TA.AperFunction,Conductor*%
%TO.N,GND*%
G36*
X-59069851Y-609950D02*
G01*
X-58643976Y-748463D01*
X-58637170Y-754279D01*
X-58635896Y-759588D01*
X-58635896Y-942593D01*
X-58639323Y-950866D01*
X-58643977Y-953719D01*
X-59069844Y-1092229D01*
X-59078772Y-1091529D01*
X-59084589Y-1084722D01*
X-59084929Y-1083431D01*
X-59131620Y-853416D01*
X-59131620Y-848765D01*
X-59084929Y-618748D01*
X-59079925Y-611324D01*
X-59071135Y-609612D01*
X-59069851Y-609950D01*
G37*
%TD.AperFunction*%
%TD*%
%TA.AperFunction,Conductor*%
%TO.N,GND*%
G36*
X-56880225Y-6508231D02*
G01*
X-56877372Y-6512885D01*
X-56738862Y-6938751D01*
X-56739562Y-6947679D01*
X-56746369Y-6953496D01*
X-56747660Y-6953836D01*
X-56977672Y-7000527D01*
X-56982328Y-7000527D01*
X-57212341Y-6953836D01*
X-57219767Y-6948832D01*
X-57221479Y-6940042D01*
X-57221143Y-6938762D01*
X-57082628Y-6512885D01*
X-57076811Y-6506078D01*
X-57071502Y-6504804D01*
X-56888498Y-6504804D01*
X-56880225Y-6508231D01*
G37*
%TD.AperFunction*%
%TD*%
%TA.AperFunction,Conductor*%
%TO.N,GND*%
G36*
X-53875816Y2187360D02*
G01*
X-53872963Y2182706D01*
X-53734453Y1756840D01*
X-53735153Y1747912D01*
X-53741960Y1742095D01*
X-53743251Y1741755D01*
X-53973263Y1695064D01*
X-53977919Y1695064D01*
X-54207932Y1741755D01*
X-54215358Y1746759D01*
X-54217070Y1755549D01*
X-54216734Y1756829D01*
X-54078219Y2182706D01*
X-54072402Y2189513D01*
X-54067093Y2190787D01*
X-53884089Y2190787D01*
X-53875816Y2187360D01*
G37*
%TD.AperFunction*%
%TD*%
%TA.AperFunction,Conductor*%
%TO.N,GND*%
G36*
X-63386853Y3728356D02*
G01*
X-63386181Y3727203D01*
X-63320767Y3598727D01*
X-63182989Y3328128D01*
X-63182289Y3319200D01*
X-63185142Y3314546D01*
X-63314546Y3185142D01*
X-63322819Y3181715D01*
X-63328127Y3182989D01*
X-63727203Y3386181D01*
X-63733020Y3392988D01*
X-63732320Y3401916D01*
X-63731648Y3403069D01*
X-63602019Y3598727D01*
X-63598727Y3602019D01*
X-63409778Y3727203D01*
X-63403069Y3731649D01*
X-63394280Y3733360D01*
X-63386853Y3728356D01*
G37*
%TD.AperFunction*%
%TD*%
%TA.AperFunction,Conductor*%
%TO.N,GND*%
G36*
X-59183413Y-610652D02*
G01*
X-59177596Y-617459D01*
X-59177256Y-618750D01*
X-59130565Y-848763D01*
X-59130565Y-853419D01*
X-59177256Y-1083431D01*
X-59182260Y-1090857D01*
X-59191050Y-1092569D01*
X-59192341Y-1092229D01*
X-59618207Y-953719D01*
X-59625014Y-947902D01*
X-59626288Y-942593D01*
X-59626288Y-759588D01*
X-59622861Y-751315D01*
X-59618210Y-748463D01*
X-59192340Y-609952D01*
X-59183413Y-610652D01*
G37*
%TD.AperFunction*%
%TD*%
%TA.AperFunction,Conductor*%
%TO.N,+3V3*%
G36*
X-61167660Y4753837D02*
G01*
X-61160234Y4748833D01*
X-61158522Y4740043D01*
X-61158862Y4738752D01*
X-61297372Y4312885D01*
X-61303189Y4306078D01*
X-61308498Y4304804D01*
X-61491502Y4304804D01*
X-61499775Y4308231D01*
X-61502628Y4312885D01*
X-61641139Y4738752D01*
X-61640439Y4747680D01*
X-61633632Y4753497D01*
X-61632350Y4753835D01*
X-61402325Y4800528D01*
X-61397675Y4800528D01*
X-61167660Y4753837D01*
G37*
%TD.AperFunction*%
%TD*%
%TA.AperFunction,Conductor*%
%TO.N,/nRESET*%
G36*
X-59896569Y4482746D02*
G01*
X-59889143Y4477742D01*
X-59887431Y4468952D01*
X-59887771Y4467661D01*
X-60026281Y4041794D01*
X-60032098Y4034987D01*
X-60037407Y4033713D01*
X-60220411Y4033713D01*
X-60228684Y4037140D01*
X-60231537Y4041794D01*
X-60370048Y4467661D01*
X-60369348Y4476589D01*
X-60362541Y4482406D01*
X-60361259Y4482744D01*
X-60131234Y4529437D01*
X-60126584Y4529437D01*
X-59896569Y4482746D01*
G37*
%TD.AperFunction*%
%TD*%
%TA.AperFunction,Conductor*%
%TO.N,GND*%
G36*
X-62650529Y-764725D02*
G01*
X-62649326Y-769893D01*
X-62649326Y-949079D01*
X-62649998Y-952987D01*
X-62751426Y-1239238D01*
X-62757419Y-1245891D01*
X-62764728Y-1246807D01*
X-62996219Y-1200947D01*
X-63003668Y-1195978D01*
X-63003695Y-1195938D01*
X-63131538Y-1003220D01*
X-63133256Y-994431D01*
X-63128256Y-987002D01*
X-63126965Y-986260D01*
X-62666194Y-759395D01*
X-62657258Y-758816D01*
X-62650529Y-764725D01*
G37*
%TD.AperFunction*%
%TD*%
%TA.AperFunction,Conductor*%
%TO.N,GND*%
G36*
X-54027912Y1936030D02*
G01*
X-54022095Y1929223D01*
X-54021755Y1927932D01*
X-53975064Y1697919D01*
X-53975064Y1693263D01*
X-54021755Y1463251D01*
X-54026759Y1455825D01*
X-54035549Y1454113D01*
X-54036840Y1454453D01*
X-54462706Y1592963D01*
X-54469513Y1598780D01*
X-54470787Y1604089D01*
X-54470787Y1787094D01*
X-54467360Y1795367D01*
X-54462709Y1798219D01*
X-54036839Y1936730D01*
X-54027912Y1936030D01*
G37*
%TD.AperFunction*%
%TD*%
M02*
