%TF.GenerationSoftware,KiCad,Pcbnew,9.0.0*%
%TF.CreationDate,2025-02-27T17:04:54+00:00*%
%TF.ProjectId,vm_keycap_button_row_0.1,766d5f6b-6579-4636-9170-5f627574746f,v0.1*%
%TF.SameCoordinates,PX8a48640PY47868c0*%
%TF.FileFunction,Copper,L2,Bot*%
%TF.FilePolarity,Positive*%
%FSLAX46Y46*%
G04 Gerber Fmt 4.6, Leading zero omitted, Abs format (unit mm)*
G04 Created by KiCad (PCBNEW 9.0.0) date 2025-02-27 17:04:54*
%MOMM*%
%LPD*%
G01*
G04 APERTURE LIST*
G04 Aperture macros list*
%AMRoundRect*
0 Rectangle with rounded corners*
0 $1 Rounding radius*
0 $2 $3 $4 $5 $6 $7 $8 $9 X,Y pos of 4 corners*
0 Add a 4 corners polygon primitive as box body*
4,1,4,$2,$3,$4,$5,$6,$7,$8,$9,$2,$3,0*
0 Add four circle primitives for the rounded corners*
1,1,$1+$1,$2,$3*
1,1,$1+$1,$4,$5*
1,1,$1+$1,$6,$7*
1,1,$1+$1,$8,$9*
0 Add four rect primitives between the rounded corners*
20,1,$1+$1,$2,$3,$4,$5,0*
20,1,$1+$1,$4,$5,$6,$7,0*
20,1,$1+$1,$6,$7,$8,$9,0*
20,1,$1+$1,$8,$9,$2,$3,0*%
G04 Aperture macros list end*
%TA.AperFunction,ComponentPad*%
%ADD10C,2.500000*%
%TD*%
%TA.AperFunction,ComponentPad*%
%ADD11RoundRect,0.172720X-0.259080X-0.259080X0.259080X-0.259080X0.259080X0.259080X-0.259080X0.259080X0*%
%TD*%
%TA.AperFunction,ComponentPad*%
%ADD12C,0.863600*%
%TD*%
%TA.AperFunction,ViaPad*%
%ADD13C,0.500000*%
%TD*%
%TA.AperFunction,Conductor*%
%ADD14C,0.200000*%
%TD*%
G04 APERTURE END LIST*
D10*
%TO.P,SW7,2,2*%
%TO.N,GND*%
X57540000Y5080000D03*
%TO.P,SW7,1,1*%
%TO.N,/BUTTON_6*%
X51190000Y2540000D03*
%TD*%
%TO.P,SW5,2,2*%
%TO.N,GND*%
X17540000Y5080000D03*
%TO.P,SW5,1,1*%
%TO.N,/BUTTON_4*%
X11190000Y2540000D03*
%TD*%
%TO.P,SW2,2,2*%
%TO.N,GND*%
X-42460000Y5080000D03*
%TO.P,SW2,1,1*%
%TO.N,/BUTTON_1*%
X-48810000Y2540000D03*
%TD*%
%TO.P,SW6,1,1*%
%TO.N,/BUTTON_5*%
X31190000Y2540000D03*
%TO.P,SW6,2,2*%
%TO.N,GND*%
X37540000Y5080000D03*
%TD*%
%TO.P,SW4,2,2*%
%TO.N,GND*%
X-2460000Y5080000D03*
%TO.P,SW4,1,1*%
%TO.N,/BUTTON_3*%
X-8810000Y2540000D03*
%TD*%
%TO.P,SW3,2,2*%
%TO.N,GND*%
X-22460000Y5080000D03*
%TO.P,SW3,1,1*%
%TO.N,/BUTTON_2*%
X-28810000Y2540000D03*
%TD*%
D11*
%TO.P,J1,1,Vcc*%
%TO.N,+3V3*%
X-57730000Y7474800D03*
D12*
%TO.P,J1,2,SWDIO*%
%TO.N,/SWDIO*%
X-57730000Y5900000D03*
%TO.P,J1,3,GND*%
%TO.N,GND*%
X-59000000Y7474800D03*
%TO.P,J1,4,SWDCLK*%
%TO.N,/SWCLK*%
X-59000000Y5900000D03*
%TO.P,J1,5,~{RESET}*%
%TO.N,/nRESET*%
X-60270000Y7474800D03*
%TD*%
D13*
%TO.N,/JD_DATA*%
X-63200000Y0D03*
X-61500000Y1300000D03*
%TO.N,GND*%
X-58000000Y-7000000D03*
X-60151092Y-851091D03*
X-54995591Y1695591D03*
X-56100000Y6700000D03*
%TD*%
D14*
%TO.N,GND*%
X-2460000Y5080000D02*
X-22460000Y5080000D01*
X17540000Y5080000D02*
X-2460000Y5080000D01*
X17540000Y5080000D02*
X37540000Y5080000D01*
X57540000Y5080000D02*
X37540000Y5080000D01*
X-42460000Y5080000D02*
X-22460000Y5080000D01*
X-54995591Y1695591D02*
X-54995591Y5100000D01*
X-42460000Y5080000D02*
X-54975591Y5080000D01*
X-54975591Y5080000D02*
X-54995591Y5100000D01*
X-54995591Y5100000D02*
X-54995591Y5595591D01*
%TO.N,/JD_DATA*%
X-61500000Y1300000D02*
X-62800000Y0D01*
X-62800000Y0D02*
X-63200000Y0D01*
%TO.N,GND*%
X-58000000Y-7000000D02*
X-58000000Y-1308818D01*
X-60151092Y-851091D02*
X-58457727Y-851091D01*
X-58457727Y-851091D02*
X-58000000Y-1308818D01*
X-54995591Y1695591D02*
X-58000000Y-1308818D01*
X-54995591Y5595591D02*
X-56100000Y6700000D01*
%TD*%
%TA.AperFunction,Conductor*%
%TO.N,GND*%
G36*
X-54895816Y2187360D02*
G01*
X-54892963Y2182706D01*
X-54754453Y1756840D01*
X-54755153Y1747912D01*
X-54761960Y1742095D01*
X-54763251Y1741755D01*
X-54993263Y1695064D01*
X-54997919Y1695064D01*
X-55227932Y1741755D01*
X-55235358Y1746759D01*
X-55237070Y1755549D01*
X-55236734Y1756829D01*
X-55098219Y2182706D01*
X-55092402Y2189513D01*
X-55087093Y2190787D01*
X-54904089Y2190787D01*
X-54895816Y2187360D01*
G37*
%TD.AperFunction*%
%TD*%
%TA.AperFunction,Conductor*%
%TO.N,/JD_DATA*%
G36*
X-61698085Y1432320D02*
G01*
X-61696932Y1431648D01*
X-61501274Y1302019D01*
X-61497982Y1298727D01*
X-61368353Y1103069D01*
X-61366641Y1094280D01*
X-61371645Y1086853D01*
X-61372798Y1086181D01*
X-61771873Y882989D01*
X-61780801Y882289D01*
X-61785455Y885142D01*
X-61914859Y1014546D01*
X-61918286Y1022819D01*
X-61917014Y1028123D01*
X-61713819Y1427205D01*
X-61707013Y1433020D01*
X-61698085Y1432320D01*
G37*
%TD.AperFunction*%
%TD*%
%TA.AperFunction,Conductor*%
%TO.N,/JD_DATA*%
G36*
X-63138869Y241389D02*
G01*
X-62806170Y138879D01*
X-62801344Y135972D01*
X-62673337Y7965D01*
X-62669910Y-308D01*
X-62673337Y-8581D01*
X-62676275Y-10721D01*
X-63051870Y-203134D01*
X-63060796Y-203856D01*
X-63066908Y-199259D01*
X-63197976Y-4760D01*
X-63199757Y4015D01*
X-63199743Y4086D01*
X-63153779Y232514D01*
X-63148788Y239949D01*
X-63140001Y241676D01*
X-63138869Y241389D01*
G37*
%TD.AperFunction*%
%TD*%
%TA.AperFunction,Conductor*%
%TO.N,GND*%
G36*
X-57900225Y-6508231D02*
G01*
X-57897372Y-6512885D01*
X-57758862Y-6938751D01*
X-57759562Y-6947679D01*
X-57766369Y-6953496D01*
X-57767660Y-6953836D01*
X-57997672Y-7000527D01*
X-58002328Y-7000527D01*
X-58232341Y-6953836D01*
X-58239767Y-6948832D01*
X-58241479Y-6940042D01*
X-58241143Y-6938762D01*
X-58102628Y-6512885D01*
X-58096811Y-6506078D01*
X-58091502Y-6504804D01*
X-57908498Y-6504804D01*
X-57900225Y-6508231D01*
G37*
%TD.AperFunction*%
%TD*%
%TA.AperFunction,Conductor*%
%TO.N,GND*%
G36*
X-60089851Y-609950D02*
G01*
X-59663976Y-748463D01*
X-59657170Y-754279D01*
X-59655896Y-759588D01*
X-59655896Y-942593D01*
X-59659323Y-950866D01*
X-59663977Y-953719D01*
X-60089844Y-1092229D01*
X-60098772Y-1091529D01*
X-60104589Y-1084722D01*
X-60104929Y-1083431D01*
X-60151620Y-853416D01*
X-60151620Y-848765D01*
X-60104929Y-618748D01*
X-60099925Y-611324D01*
X-60091135Y-609612D01*
X-60089851Y-609950D01*
G37*
%TD.AperFunction*%
%TD*%
%TA.AperFunction,Conductor*%
%TO.N,GND*%
G36*
X-55193676Y1827911D02*
G01*
X-55192523Y1827239D01*
X-54996865Y1697610D01*
X-54993573Y1694318D01*
X-54863944Y1498660D01*
X-54862232Y1489871D01*
X-54867236Y1482444D01*
X-54868389Y1481772D01*
X-55267464Y1278580D01*
X-55276392Y1277880D01*
X-55281046Y1280733D01*
X-55410450Y1410137D01*
X-55413877Y1418410D01*
X-55412605Y1423714D01*
X-55209410Y1822796D01*
X-55202604Y1828611D01*
X-55193676Y1827911D01*
G37*
%TD.AperFunction*%
%TD*%
%TA.AperFunction,Conductor*%
%TO.N,GND*%
G36*
X-55886853Y6828356D02*
G01*
X-55886181Y6827203D01*
X-55820767Y6698727D01*
X-55682989Y6428128D01*
X-55682289Y6419200D01*
X-55685142Y6414546D01*
X-55814546Y6285142D01*
X-55822819Y6281715D01*
X-55828127Y6282989D01*
X-56227203Y6486181D01*
X-56233020Y6492988D01*
X-56232320Y6501916D01*
X-56231648Y6503069D01*
X-56102019Y6698727D01*
X-56098727Y6702019D01*
X-55909778Y6827203D01*
X-55903069Y6831649D01*
X-55894280Y6833360D01*
X-55886853Y6828356D01*
G37*
%TD.AperFunction*%
%TD*%
M02*
