%TF.GenerationSoftware,KiCad,Pcbnew,9.0.0*%
%TF.CreationDate,2025-02-27T17:04:55+00:00*%
%TF.ProjectId,vm_keycap_button_row_0.1,766d5f6b-6579-4636-9170-5f627574746f,v0.1*%
%TF.SameCoordinates,PX8a48640PY47868c0*%
%TF.FileFunction,Other,User*%
%FSLAX46Y46*%
G04 Gerber Fmt 4.6, Leading zero omitted, Abs format (unit mm)*
G04 Created by KiCad (PCBNEW 9.0.0) date 2025-02-27 17:04:55*
%MOMM*%
%LPD*%
G01*
G04 APERTURE LIST*
%ADD10C,0.100000*%
%ADD11C,0.150000*%
%ADD12C,0.120000*%
%ADD13C,0.110000*%
%ADD14C,0.130000*%
G04 APERTURE END LIST*
D10*
X-64000000Y9000000D02*
X62000000Y9000000D01*
X62000000Y-9000000D01*
X-64000000Y-9000000D01*
X-64000000Y9000000D01*
D11*
X-67761905Y-5502438D02*
X-67857143Y-5454819D01*
X-67857143Y-5454819D02*
X-68000000Y-5454819D01*
X-68000000Y-5454819D02*
X-68142857Y-5502438D01*
X-68142857Y-5502438D02*
X-68238095Y-5597676D01*
X-68238095Y-5597676D02*
X-68285714Y-5692914D01*
X-68285714Y-5692914D02*
X-68333333Y-5883390D01*
X-68333333Y-5883390D02*
X-68333333Y-6026247D01*
X-68333333Y-6026247D02*
X-68285714Y-6216723D01*
X-68285714Y-6216723D02*
X-68238095Y-6311961D01*
X-68238095Y-6311961D02*
X-68142857Y-6407200D01*
X-68142857Y-6407200D02*
X-68000000Y-6454819D01*
X-68000000Y-6454819D02*
X-67904762Y-6454819D01*
X-67904762Y-6454819D02*
X-67761905Y-6407200D01*
X-67761905Y-6407200D02*
X-67714286Y-6359580D01*
X-67714286Y-6359580D02*
X-67714286Y-6026247D01*
X-67714286Y-6026247D02*
X-67904762Y-6026247D01*
X-67285714Y-6454819D02*
X-67285714Y-5454819D01*
X-67285714Y-5454819D02*
X-66714286Y-6454819D01*
X-66714286Y-6454819D02*
X-66714286Y-5454819D01*
X-66238095Y-6454819D02*
X-66238095Y-5454819D01*
X-66238095Y-5454819D02*
X-66000000Y-5454819D01*
X-66000000Y-5454819D02*
X-65857143Y-5502438D01*
X-65857143Y-5502438D02*
X-65761905Y-5597676D01*
X-65761905Y-5597676D02*
X-65714286Y-5692914D01*
X-65714286Y-5692914D02*
X-65666667Y-5883390D01*
X-65666667Y-5883390D02*
X-65666667Y-6026247D01*
X-65666667Y-6026247D02*
X-65714286Y-6216723D01*
X-65714286Y-6216723D02*
X-65761905Y-6311961D01*
X-65761905Y-6311961D02*
X-65857143Y-6407200D01*
X-65857143Y-6407200D02*
X-66000000Y-6454819D01*
X-66000000Y-6454819D02*
X-66238095Y-6454819D01*
X-70609524Y6545181D02*
X-70609524Y5830896D01*
X-70609524Y5830896D02*
X-70657143Y5688039D01*
X-70657143Y5688039D02*
X-70752381Y5592800D01*
X-70752381Y5592800D02*
X-70895238Y5545181D01*
X-70895238Y5545181D02*
X-70990476Y5545181D01*
X-70133333Y5545181D02*
X-70133333Y6545181D01*
X-70133333Y6545181D02*
X-69895238Y6545181D01*
X-69895238Y6545181D02*
X-69752381Y6497562D01*
X-69752381Y6497562D02*
X-69657143Y6402324D01*
X-69657143Y6402324D02*
X-69609524Y6307086D01*
X-69609524Y6307086D02*
X-69561905Y6116610D01*
X-69561905Y6116610D02*
X-69561905Y5973753D01*
X-69561905Y5973753D02*
X-69609524Y5783277D01*
X-69609524Y5783277D02*
X-69657143Y5688039D01*
X-69657143Y5688039D02*
X-69752381Y5592800D01*
X-69752381Y5592800D02*
X-69895238Y5545181D01*
X-69895238Y5545181D02*
X-70133333Y5545181D01*
X-69371428Y5449943D02*
X-68609524Y5449943D01*
X-68371428Y5545181D02*
X-68371428Y6545181D01*
X-68371428Y6545181D02*
X-67990476Y6545181D01*
X-67990476Y6545181D02*
X-67895238Y6497562D01*
X-67895238Y6497562D02*
X-67847619Y6449943D01*
X-67847619Y6449943D02*
X-67800000Y6354705D01*
X-67800000Y6354705D02*
X-67800000Y6211848D01*
X-67800000Y6211848D02*
X-67847619Y6116610D01*
X-67847619Y6116610D02*
X-67895238Y6068991D01*
X-67895238Y6068991D02*
X-67990476Y6021372D01*
X-67990476Y6021372D02*
X-68371428Y6021372D01*
X-67466666Y6545181D02*
X-67228571Y5545181D01*
X-67228571Y5545181D02*
X-67038095Y6259467D01*
X-67038095Y6259467D02*
X-66847619Y5545181D01*
X-66847619Y5545181D02*
X-66609523Y6545181D01*
X-65657143Y5545181D02*
X-65990476Y6021372D01*
X-66228571Y5545181D02*
X-66228571Y6545181D01*
X-66228571Y6545181D02*
X-65847619Y6545181D01*
X-65847619Y6545181D02*
X-65752381Y6497562D01*
X-65752381Y6497562D02*
X-65704762Y6449943D01*
X-65704762Y6449943D02*
X-65657143Y6354705D01*
X-65657143Y6354705D02*
X-65657143Y6211848D01*
X-65657143Y6211848D02*
X-65704762Y6116610D01*
X-65704762Y6116610D02*
X-65752381Y6068991D01*
X-65752381Y6068991D02*
X-65847619Y6021372D01*
X-65847619Y6021372D02*
X-66228571Y6021372D01*
X-70976191Y545181D02*
X-70976191Y-169104D01*
X-70976191Y-169104D02*
X-71023810Y-311961D01*
X-71023810Y-311961D02*
X-71119048Y-407200D01*
X-71119048Y-407200D02*
X-71261905Y-454819D01*
X-71261905Y-454819D02*
X-71357143Y-454819D01*
X-70500000Y-454819D02*
X-70500000Y545181D01*
X-70500000Y545181D02*
X-70261905Y545181D01*
X-70261905Y545181D02*
X-70119048Y497562D01*
X-70119048Y497562D02*
X-70023810Y402324D01*
X-70023810Y402324D02*
X-69976191Y307086D01*
X-69976191Y307086D02*
X-69928572Y116610D01*
X-69928572Y116610D02*
X-69928572Y-26247D01*
X-69928572Y-26247D02*
X-69976191Y-216723D01*
X-69976191Y-216723D02*
X-70023810Y-311961D01*
X-70023810Y-311961D02*
X-70119048Y-407200D01*
X-70119048Y-407200D02*
X-70261905Y-454819D01*
X-70261905Y-454819D02*
X-70500000Y-454819D01*
X-69738095Y-550057D02*
X-68976191Y-550057D01*
X-68738095Y-454819D02*
X-68738095Y545181D01*
X-68738095Y545181D02*
X-68500000Y545181D01*
X-68500000Y545181D02*
X-68357143Y497562D01*
X-68357143Y497562D02*
X-68261905Y402324D01*
X-68261905Y402324D02*
X-68214286Y307086D01*
X-68214286Y307086D02*
X-68166667Y116610D01*
X-68166667Y116610D02*
X-68166667Y-26247D01*
X-68166667Y-26247D02*
X-68214286Y-216723D01*
X-68214286Y-216723D02*
X-68261905Y-311961D01*
X-68261905Y-311961D02*
X-68357143Y-407200D01*
X-68357143Y-407200D02*
X-68500000Y-454819D01*
X-68500000Y-454819D02*
X-68738095Y-454819D01*
X-67785714Y-169104D02*
X-67309524Y-169104D01*
X-67880952Y-454819D02*
X-67547619Y545181D01*
X-67547619Y545181D02*
X-67214286Y-454819D01*
X-67023809Y545181D02*
X-66452381Y545181D01*
X-66738095Y-454819D02*
X-66738095Y545181D01*
X-66166666Y-169104D02*
X-65690476Y-169104D01*
X-66261904Y-454819D02*
X-65928571Y545181D01*
X-65928571Y545181D02*
X-65595238Y-454819D01*
D12*
%TO.C,GS2*%
X-64000000Y-6000000D02*
X-64000000Y-6000000D01*
D13*
%TO.C,GS1*%
X-64000000Y6000000D02*
X-64000000Y6000000D01*
D14*
%TO.C,GS3*%
X-64000000Y0D02*
X-64000000Y0D01*
%TD*%
M02*
