%TF.GenerationSoftware,KiCad,Pcbnew,9.0.0*%
%TF.CreationDate,2025-02-27T17:04:55+00:00*%
%TF.ProjectId,vm_keycap_button_row_0.1,766d5f6b-6579-4636-9170-5f627574746f,v0.1*%
%TF.SameCoordinates,PX8a48640PY47868c0*%
%TF.FileFunction,Soldermask,Top*%
%TF.FilePolarity,Negative*%
%FSLAX46Y46*%
G04 Gerber Fmt 4.6, Leading zero omitted, Abs format (unit mm)*
G04 Created by KiCad (PCBNEW 9.0.0) date 2025-02-27 17:04:55*
%MOMM*%
%LPD*%
G01*
G04 APERTURE LIST*
G04 Aperture macros list*
%AMRoundRect*
0 Rectangle with rounded corners*
0 $1 Rounding radius*
0 $2 $3 $4 $5 $6 $7 $8 $9 X,Y pos of 4 corners*
0 Add a 4 corners polygon primitive as box body*
4,1,4,$2,$3,$4,$5,$6,$7,$8,$9,$2,$3,0*
0 Add four circle primitives for the rounded corners*
1,1,$1+$1,$2,$3*
1,1,$1+$1,$4,$5*
1,1,$1+$1,$6,$7*
1,1,$1+$1,$8,$9*
0 Add four rect primitives between the rounded corners*
20,1,$1+$1,$2,$3,$4,$5,0*
20,1,$1+$1,$4,$5,$6,$7,0*
20,1,$1+$1,$6,$7,$8,$9,0*
20,1,$1+$1,$8,$9,$2,$3,0*%
G04 Aperture macros list end*
%ADD10C,2.500000*%
%ADD11C,1.750000*%
%ADD12C,4.000000*%
%ADD13RoundRect,0.172720X-0.259080X-0.259080X0.259080X-0.259080X0.259080X0.259080X-0.259080X0.259080X0*%
%ADD14C,0.863600*%
%ADD15R,0.800000X0.800000*%
%ADD16R,1.230000X1.360000*%
%ADD17O,0.360000X1.740000*%
%ADD18R,0.800000X0.900000*%
%ADD19R,0.810000X0.860000*%
G04 APERTURE END LIST*
D10*
%TO.C,SW7*%
X57540000Y5080000D03*
X51190000Y2540000D03*
D11*
X60080000Y0D03*
D12*
X55000000Y0D03*
D11*
X49920000Y0D03*
%TD*%
D10*
%TO.C,SW5*%
X17540000Y5080000D03*
X11190000Y2540000D03*
D11*
X20080000Y0D03*
D12*
X15000000Y0D03*
D11*
X9920000Y0D03*
%TD*%
D10*
%TO.C,SW2*%
X-42460000Y5080000D03*
X-48810000Y2540000D03*
D11*
X-39920000Y0D03*
D12*
X-45000000Y0D03*
D11*
X-50080000Y0D03*
%TD*%
%TO.C,SW6*%
X29920000Y0D03*
D12*
X35000000Y0D03*
D11*
X40080000Y0D03*
D10*
X31190000Y2540000D03*
X37540000Y5080000D03*
%TD*%
%TO.C,SW4*%
X-2460000Y5080000D03*
X-8810000Y2540000D03*
D11*
X80000Y0D03*
D12*
X-5000000Y0D03*
D11*
X-10080000Y0D03*
%TD*%
D10*
%TO.C,SW3*%
X-22460000Y5080000D03*
X-28810000Y2540000D03*
D11*
X-19920000Y0D03*
D12*
X-25000000Y0D03*
D11*
X-30080000Y0D03*
%TD*%
D13*
%TO.C,J1*%
X-57730000Y7474800D03*
D14*
X-57730000Y5900000D03*
X-59000000Y7474800D03*
X-59000000Y5900000D03*
X-60270000Y7474800D03*
%TD*%
D15*
%TO.C,D1*%
X-55000000Y-850000D03*
X-55000000Y850000D03*
%TD*%
D16*
%TO.C,SW1*%
X-56820000Y-7000000D03*
X-61180000Y-7000000D03*
%TD*%
D17*
%TO.C,U1*%
X-61930000Y-2870000D03*
X-61280000Y-2870000D03*
X-60630000Y-2870000D03*
X-59980000Y-2870000D03*
X-59320000Y-2870000D03*
X-58670000Y-2870000D03*
X-58020000Y-2870000D03*
X-57370000Y-2870000D03*
X-56720000Y-2870000D03*
X-56070000Y-2870000D03*
X-56070000Y2870000D03*
X-56720000Y2870000D03*
X-57370000Y2870000D03*
X-58020000Y2870000D03*
X-58670000Y2870000D03*
X-59320000Y2870000D03*
X-59980000Y2870000D03*
X-60630000Y2870000D03*
X-61280000Y2870000D03*
X-61930000Y2870000D03*
%TD*%
D18*
%TO.C,C1*%
X-61000000Y-4600000D03*
X-59600000Y-4600000D03*
%TD*%
D19*
%TO.C,R1*%
X-58450000Y-4600000D03*
X-56950000Y-4600000D03*
%TD*%
M02*
