M48
; DRILL file {KiCad 9.0.0} date 2025-02-28T17:53:51+0000
; FORMAT={-:-/ absolute / metric / decimal}
; #@! TF.CreationDate,2025-02-28T17:53:51+00:00
; #@! TF.GenerationSoftware,Kicad,Pcbnew,9.0.0
; #@! TF.FileFunction,Plated,1,2,PTH
FMAT,2
METRIC
; #@! TA.AperFunction,Plated,PTH,ViaDrill
T1C0.300
; #@! TA.AperFunction,Plated,PTH,ComponentDrill
T2C0.559
; #@! TA.AperFunction,Plated,PTH,ComponentDrill
T3C1.500
%
G90
G05
T1
X-63.6Y3.6
X-63.0Y-1.2
X-61.4Y4.8
X-60.9Y0.0
X-60.129Y4.529
X-59.131Y-0.851
X-58.3Y1.0
X-56.98Y-7.0
X-55.08Y6.7
X-53.976Y1.696
T2
X-59.25Y7.475
X-57.98Y7.475
X-57.98Y5.9
X-56.71Y7.475
X-56.71Y5.9
T3
X-47.81Y2.54
X-41.46Y5.08
X-27.81Y2.54
X-21.46Y5.08
X-7.81Y2.54
X-1.46Y5.08
X12.19Y2.54
X18.54Y5.08
X32.19Y2.54
X38.54Y5.08
X52.19Y2.54
X58.54Y5.08
M30
