%TF.GenerationSoftware,KiCad,Pcbnew,9.0.0*%
%TF.CreationDate,2025-02-28T17:53:49+00:00*%
%TF.ProjectId,vm_keycap_button_row_0.1,766d5f6b-6579-4636-9170-5f627574746f,v0.1*%
%TF.SameCoordinates,PX8954400PY47868c0*%
%TF.FileFunction,Other,User*%
%FSLAX46Y46*%
G04 Gerber Fmt 4.6, Leading zero omitted, Abs format (unit mm)*
G04 Created by KiCad (PCBNEW 9.0.0) date 2025-02-28 17:53:49*
%MOMM*%
%LPD*%
G01*
G04 APERTURE LIST*
%ADD10C,0.100000*%
%ADD11C,0.150000*%
%ADD12C,0.130000*%
%ADD13C,0.110000*%
%ADD14C,0.120000*%
G04 APERTURE END LIST*
D10*
X-65000000Y9000000D02*
X63000000Y9000000D01*
X63000000Y-9000000D01*
X-65000000Y-9000000D01*
X-65000000Y9000000D01*
D11*
X-71976191Y545181D02*
X-71976191Y-169104D01*
X-71976191Y-169104D02*
X-72023810Y-311961D01*
X-72023810Y-311961D02*
X-72119048Y-407200D01*
X-72119048Y-407200D02*
X-72261905Y-454819D01*
X-72261905Y-454819D02*
X-72357143Y-454819D01*
X-71500000Y-454819D02*
X-71500000Y545181D01*
X-71500000Y545181D02*
X-71261905Y545181D01*
X-71261905Y545181D02*
X-71119048Y497562D01*
X-71119048Y497562D02*
X-71023810Y402324D01*
X-71023810Y402324D02*
X-70976191Y307086D01*
X-70976191Y307086D02*
X-70928572Y116610D01*
X-70928572Y116610D02*
X-70928572Y-26247D01*
X-70928572Y-26247D02*
X-70976191Y-216723D01*
X-70976191Y-216723D02*
X-71023810Y-311961D01*
X-71023810Y-311961D02*
X-71119048Y-407200D01*
X-71119048Y-407200D02*
X-71261905Y-454819D01*
X-71261905Y-454819D02*
X-71500000Y-454819D01*
X-70738095Y-550057D02*
X-69976191Y-550057D01*
X-69738095Y-454819D02*
X-69738095Y545181D01*
X-69738095Y545181D02*
X-69500000Y545181D01*
X-69500000Y545181D02*
X-69357143Y497562D01*
X-69357143Y497562D02*
X-69261905Y402324D01*
X-69261905Y402324D02*
X-69214286Y307086D01*
X-69214286Y307086D02*
X-69166667Y116610D01*
X-69166667Y116610D02*
X-69166667Y-26247D01*
X-69166667Y-26247D02*
X-69214286Y-216723D01*
X-69214286Y-216723D02*
X-69261905Y-311961D01*
X-69261905Y-311961D02*
X-69357143Y-407200D01*
X-69357143Y-407200D02*
X-69500000Y-454819D01*
X-69500000Y-454819D02*
X-69738095Y-454819D01*
X-68785714Y-169104D02*
X-68309524Y-169104D01*
X-68880952Y-454819D02*
X-68547619Y545181D01*
X-68547619Y545181D02*
X-68214286Y-454819D01*
X-68023809Y545181D02*
X-67452381Y545181D01*
X-67738095Y-454819D02*
X-67738095Y545181D01*
X-67166666Y-169104D02*
X-66690476Y-169104D01*
X-67261904Y-454819D02*
X-66928571Y545181D01*
X-66928571Y545181D02*
X-66595238Y-454819D01*
X-71609524Y6545181D02*
X-71609524Y5830896D01*
X-71609524Y5830896D02*
X-71657143Y5688039D01*
X-71657143Y5688039D02*
X-71752381Y5592800D01*
X-71752381Y5592800D02*
X-71895238Y5545181D01*
X-71895238Y5545181D02*
X-71990476Y5545181D01*
X-71133333Y5545181D02*
X-71133333Y6545181D01*
X-71133333Y6545181D02*
X-70895238Y6545181D01*
X-70895238Y6545181D02*
X-70752381Y6497562D01*
X-70752381Y6497562D02*
X-70657143Y6402324D01*
X-70657143Y6402324D02*
X-70609524Y6307086D01*
X-70609524Y6307086D02*
X-70561905Y6116610D01*
X-70561905Y6116610D02*
X-70561905Y5973753D01*
X-70561905Y5973753D02*
X-70609524Y5783277D01*
X-70609524Y5783277D02*
X-70657143Y5688039D01*
X-70657143Y5688039D02*
X-70752381Y5592800D01*
X-70752381Y5592800D02*
X-70895238Y5545181D01*
X-70895238Y5545181D02*
X-71133333Y5545181D01*
X-70371428Y5449943D02*
X-69609524Y5449943D01*
X-69371428Y5545181D02*
X-69371428Y6545181D01*
X-69371428Y6545181D02*
X-68990476Y6545181D01*
X-68990476Y6545181D02*
X-68895238Y6497562D01*
X-68895238Y6497562D02*
X-68847619Y6449943D01*
X-68847619Y6449943D02*
X-68800000Y6354705D01*
X-68800000Y6354705D02*
X-68800000Y6211848D01*
X-68800000Y6211848D02*
X-68847619Y6116610D01*
X-68847619Y6116610D02*
X-68895238Y6068991D01*
X-68895238Y6068991D02*
X-68990476Y6021372D01*
X-68990476Y6021372D02*
X-69371428Y6021372D01*
X-68466666Y6545181D02*
X-68228571Y5545181D01*
X-68228571Y5545181D02*
X-68038095Y6259467D01*
X-68038095Y6259467D02*
X-67847619Y5545181D01*
X-67847619Y5545181D02*
X-67609523Y6545181D01*
X-66657143Y5545181D02*
X-66990476Y6021372D01*
X-67228571Y5545181D02*
X-67228571Y6545181D01*
X-67228571Y6545181D02*
X-66847619Y6545181D01*
X-66847619Y6545181D02*
X-66752381Y6497562D01*
X-66752381Y6497562D02*
X-66704762Y6449943D01*
X-66704762Y6449943D02*
X-66657143Y6354705D01*
X-66657143Y6354705D02*
X-66657143Y6211848D01*
X-66657143Y6211848D02*
X-66704762Y6116610D01*
X-66704762Y6116610D02*
X-66752381Y6068991D01*
X-66752381Y6068991D02*
X-66847619Y6021372D01*
X-66847619Y6021372D02*
X-67228571Y6021372D01*
X-68761905Y-5502438D02*
X-68857143Y-5454819D01*
X-68857143Y-5454819D02*
X-69000000Y-5454819D01*
X-69000000Y-5454819D02*
X-69142857Y-5502438D01*
X-69142857Y-5502438D02*
X-69238095Y-5597676D01*
X-69238095Y-5597676D02*
X-69285714Y-5692914D01*
X-69285714Y-5692914D02*
X-69333333Y-5883390D01*
X-69333333Y-5883390D02*
X-69333333Y-6026247D01*
X-69333333Y-6026247D02*
X-69285714Y-6216723D01*
X-69285714Y-6216723D02*
X-69238095Y-6311961D01*
X-69238095Y-6311961D02*
X-69142857Y-6407200D01*
X-69142857Y-6407200D02*
X-69000000Y-6454819D01*
X-69000000Y-6454819D02*
X-68904762Y-6454819D01*
X-68904762Y-6454819D02*
X-68761905Y-6407200D01*
X-68761905Y-6407200D02*
X-68714286Y-6359580D01*
X-68714286Y-6359580D02*
X-68714286Y-6026247D01*
X-68714286Y-6026247D02*
X-68904762Y-6026247D01*
X-68285714Y-6454819D02*
X-68285714Y-5454819D01*
X-68285714Y-5454819D02*
X-67714286Y-6454819D01*
X-67714286Y-6454819D02*
X-67714286Y-5454819D01*
X-67238095Y-6454819D02*
X-67238095Y-5454819D01*
X-67238095Y-5454819D02*
X-67000000Y-5454819D01*
X-67000000Y-5454819D02*
X-66857143Y-5502438D01*
X-66857143Y-5502438D02*
X-66761905Y-5597676D01*
X-66761905Y-5597676D02*
X-66714286Y-5692914D01*
X-66714286Y-5692914D02*
X-66666667Y-5883390D01*
X-66666667Y-5883390D02*
X-66666667Y-6026247D01*
X-66666667Y-6026247D02*
X-66714286Y-6216723D01*
X-66714286Y-6216723D02*
X-66761905Y-6311961D01*
X-66761905Y-6311961D02*
X-66857143Y-6407200D01*
X-66857143Y-6407200D02*
X-67000000Y-6454819D01*
X-67000000Y-6454819D02*
X-67238095Y-6454819D01*
D12*
%TO.C,GS3*%
X-65000000Y0D02*
X-65000000Y0D01*
D13*
%TO.C,GS1*%
X-65000000Y6000000D02*
X-65000000Y6000000D01*
D14*
%TO.C,GS2*%
X-65000000Y-6000000D02*
X-65000000Y-6000000D01*
%TD*%
M02*
