%TF.GenerationSoftware,KiCad,Pcbnew,8.0.3*%
%TF.CreationDate,2024-09-17T15:55:01+01:00*%
%TF.ProjectId,test_module_2,74657374-5f6d-46f6-9475-6c655f322e6b,rev?*%
%TF.SameCoordinates,PX8583b00PY68e7780*%
%TF.FileFunction,Soldermask,Top*%
%TF.FilePolarity,Negative*%
%FSLAX46Y46*%
G04 Gerber Fmt 4.6, Leading zero omitted, Abs format (unit mm)*
G04 Created by KiCad (PCBNEW 8.0.3) date 2024-09-17 15:55:01*
%MOMM*%
%LPD*%
G01*
G04 APERTURE LIST*
G04 Aperture macros list*
%AMRoundRect*
0 Rectangle with rounded corners*
0 $1 Rounding radius*
0 $2 $3 $4 $5 $6 $7 $8 $9 X,Y pos of 4 corners*
0 Add a 4 corners polygon primitive as box body*
4,1,4,$2,$3,$4,$5,$6,$7,$8,$9,$2,$3,0*
0 Add four circle primitives for the rounded corners*
1,1,$1+$1,$2,$3*
1,1,$1+$1,$4,$5*
1,1,$1+$1,$6,$7*
1,1,$1+$1,$8,$9*
0 Add four rect primitives between the rounded corners*
20,1,$1+$1,$2,$3,$4,$5,0*
20,1,$1+$1,$4,$5,$6,$7,0*
20,1,$1+$1,$6,$7,$8,$9,0*
20,1,$1+$1,$8,$9,$2,$3,0*%
G04 Aperture macros list end*
%ADD10RoundRect,0.050000X-0.350000X-0.050000X0.350000X-0.050000X0.350000X0.050000X-0.350000X0.050000X0*%
%ADD11RoundRect,0.050000X-0.050000X-0.350000X0.050000X-0.350000X0.050000X0.350000X-0.050000X0.350000X0*%
%ADD12R,4.000000X4.000000*%
G04 APERTURE END LIST*
D10*
%TO.C,U1*%
X-3450000Y12930000D03*
X-3450000Y12530000D03*
X-3450000Y12130000D03*
X-3450000Y11730000D03*
X-3450000Y11330000D03*
X-3450000Y10930000D03*
X-3450000Y10530000D03*
X-3450000Y10130000D03*
X-3450000Y9730000D03*
X-3450000Y9330000D03*
X-3450000Y8930000D03*
X-3450000Y8530000D03*
X-3450000Y8130000D03*
X-3450000Y7730000D03*
D11*
X-2600000Y6880000D03*
X-2200000Y6880000D03*
X-1800000Y6880000D03*
X-1400000Y6880000D03*
X-1000000Y6880000D03*
X-600000Y6880000D03*
X-200000Y6880000D03*
X200000Y6880000D03*
X600000Y6880000D03*
X1000000Y6880000D03*
X1400000Y6880000D03*
X1800000Y6880000D03*
X2200000Y6880000D03*
X2600000Y6880000D03*
D10*
X3450000Y7730000D03*
X3450000Y8130000D03*
X3450000Y8530000D03*
X3450000Y8930000D03*
X3450000Y9330000D03*
X3450000Y9730000D03*
X3450000Y10130000D03*
X3450000Y10530000D03*
X3450000Y10930000D03*
X3450000Y11330000D03*
X3450000Y11730000D03*
X3450000Y12130000D03*
X3450000Y12530000D03*
X3450000Y12930000D03*
D11*
X2600000Y13780000D03*
X2200000Y13780000D03*
X1800000Y13780000D03*
X1400000Y13780000D03*
X1000000Y13780000D03*
X600000Y13780000D03*
X200000Y13780000D03*
X-200000Y13780000D03*
X-600000Y13780000D03*
X-1000000Y13780000D03*
X-1400000Y13780000D03*
X-1800000Y13780000D03*
X-2200000Y13780000D03*
X-2600000Y13780000D03*
D12*
X0Y10330000D03*
%TD*%
M02*
