%TF.GenerationSoftware,KiCad,Pcbnew,8.0.2-1*%
%TF.CreationDate,2024-09-09T14:50:27+01:00*%
%TF.ProjectId,test_module_1,74657374-5f6d-46f6-9475-6c655f312e6b,rev?*%
%TF.SameCoordinates,Original*%
%TF.FileFunction,Drillmap*%
%TF.FilePolarity,Positive*%
%FSLAX45Y45*%
G04 Gerber Fmt 4.5, Leading zero omitted, Abs format (unit mm)*
G04 Created by KiCad (PCBNEW 8.0.2-1) date 2024-09-09 14:50:27*
%MOMM*%
%LPD*%
G01*
G04 APERTURE LIST*
%ADD10C,0.050000*%
%ADD11C,0.200000*%
G04 APERTURE END LIST*
D10*
X12800000Y-8800000D02*
X15200000Y-8800000D01*
X15200000Y-11200000D01*
X12800000Y-11200000D01*
X12800000Y-8800000D01*
D11*
X13058277Y-11513984D02*
X13058277Y-11313984D01*
X13058277Y-11313984D02*
X13105896Y-11313984D01*
X13105896Y-11313984D02*
X13134467Y-11323508D01*
X13134467Y-11323508D02*
X13153515Y-11342555D01*
X13153515Y-11342555D02*
X13163039Y-11361603D01*
X13163039Y-11361603D02*
X13172562Y-11399698D01*
X13172562Y-11399698D02*
X13172562Y-11428269D01*
X13172562Y-11428269D02*
X13163039Y-11466365D01*
X13163039Y-11466365D02*
X13153515Y-11485412D01*
X13153515Y-11485412D02*
X13134467Y-11504460D01*
X13134467Y-11504460D02*
X13105896Y-11513984D01*
X13105896Y-11513984D02*
X13058277Y-11513984D01*
X13258277Y-11513984D02*
X13258277Y-11380650D01*
X13258277Y-11418746D02*
X13267801Y-11399698D01*
X13267801Y-11399698D02*
X13277324Y-11390174D01*
X13277324Y-11390174D02*
X13296372Y-11380650D01*
X13296372Y-11380650D02*
X13315420Y-11380650D01*
X13382086Y-11513984D02*
X13382086Y-11380650D01*
X13382086Y-11313984D02*
X13372562Y-11323508D01*
X13372562Y-11323508D02*
X13382086Y-11333031D01*
X13382086Y-11333031D02*
X13391610Y-11323508D01*
X13391610Y-11323508D02*
X13382086Y-11313984D01*
X13382086Y-11313984D02*
X13382086Y-11333031D01*
X13505896Y-11513984D02*
X13486848Y-11504460D01*
X13486848Y-11504460D02*
X13477324Y-11485412D01*
X13477324Y-11485412D02*
X13477324Y-11313984D01*
X13610658Y-11513984D02*
X13591610Y-11504460D01*
X13591610Y-11504460D02*
X13582086Y-11485412D01*
X13582086Y-11485412D02*
X13582086Y-11313984D01*
X13839229Y-11513984D02*
X13839229Y-11313984D01*
X13839229Y-11313984D02*
X13905896Y-11456841D01*
X13905896Y-11456841D02*
X13972562Y-11313984D01*
X13972562Y-11313984D02*
X13972562Y-11513984D01*
X14153515Y-11513984D02*
X14153515Y-11409222D01*
X14153515Y-11409222D02*
X14143991Y-11390174D01*
X14143991Y-11390174D02*
X14124943Y-11380650D01*
X14124943Y-11380650D02*
X14086848Y-11380650D01*
X14086848Y-11380650D02*
X14067801Y-11390174D01*
X14153515Y-11504460D02*
X14134467Y-11513984D01*
X14134467Y-11513984D02*
X14086848Y-11513984D01*
X14086848Y-11513984D02*
X14067801Y-11504460D01*
X14067801Y-11504460D02*
X14058277Y-11485412D01*
X14058277Y-11485412D02*
X14058277Y-11466365D01*
X14058277Y-11466365D02*
X14067801Y-11447317D01*
X14067801Y-11447317D02*
X14086848Y-11437793D01*
X14086848Y-11437793D02*
X14134467Y-11437793D01*
X14134467Y-11437793D02*
X14153515Y-11428269D01*
X14248753Y-11380650D02*
X14248753Y-11580650D01*
X14248753Y-11390174D02*
X14267801Y-11380650D01*
X14267801Y-11380650D02*
X14305896Y-11380650D01*
X14305896Y-11380650D02*
X14324943Y-11390174D01*
X14324943Y-11390174D02*
X14334467Y-11399698D01*
X14334467Y-11399698D02*
X14343991Y-11418746D01*
X14343991Y-11418746D02*
X14343991Y-11475888D01*
X14343991Y-11475888D02*
X14334467Y-11494936D01*
X14334467Y-11494936D02*
X14324943Y-11504460D01*
X14324943Y-11504460D02*
X14305896Y-11513984D01*
X14305896Y-11513984D02*
X14267801Y-11513984D01*
X14267801Y-11513984D02*
X14248753Y-11504460D01*
X14429705Y-11494936D02*
X14439229Y-11504460D01*
X14439229Y-11504460D02*
X14429705Y-11513984D01*
X14429705Y-11513984D02*
X14420182Y-11504460D01*
X14420182Y-11504460D02*
X14429705Y-11494936D01*
X14429705Y-11494936D02*
X14429705Y-11513984D01*
X14429705Y-11390174D02*
X14439229Y-11399698D01*
X14439229Y-11399698D02*
X14429705Y-11409222D01*
X14429705Y-11409222D02*
X14420182Y-11399698D01*
X14420182Y-11399698D02*
X14429705Y-11390174D01*
X14429705Y-11390174D02*
X14429705Y-11409222D01*
M02*
