%TF.GenerationSoftware,KiCad,Pcbnew,8.0.2-1*%
%TF.CreationDate,2024-09-09T14:50:12+01:00*%
%TF.ProjectId,test_module_1,74657374-5f6d-46f6-9475-6c655f312e6b,rev?*%
%TF.SameCoordinates,Original*%
%TF.FileFunction,Soldermask,Top*%
%TF.FilePolarity,Negative*%
%FSLAX46Y46*%
G04 Gerber Fmt 4.6, Leading zero omitted, Abs format (unit mm)*
G04 Created by KiCad (PCBNEW 8.0.2-1) date 2024-09-09 14:50:12*
%MOMM*%
%LPD*%
G01*
G04 APERTURE LIST*
G04 Aperture macros list*
%AMRoundRect*
0 Rectangle with rounded corners*
0 $1 Rounding radius*
0 $2 $3 $4 $5 $6 $7 $8 $9 X,Y pos of 4 corners*
0 Add a 4 corners polygon primitive as box body*
4,1,4,$2,$3,$4,$5,$6,$7,$8,$9,$2,$3,0*
0 Add four circle primitives for the rounded corners*
1,1,$1+$1,$2,$3*
1,1,$1+$1,$4,$5*
1,1,$1+$1,$6,$7*
1,1,$1+$1,$8,$9*
0 Add four rect primitives between the rounded corners*
20,1,$1+$1,$2,$3,$4,$5,0*
20,1,$1+$1,$4,$5,$6,$7,0*
20,1,$1+$1,$6,$7,$8,$9,0*
20,1,$1+$1,$8,$9,$2,$3,0*%
G04 Aperture macros list end*
%ADD10RoundRect,0.050000X-0.350000X-0.050000X0.350000X-0.050000X0.350000X0.050000X-0.350000X0.050000X0*%
%ADD11RoundRect,0.050000X-0.050000X-0.350000X0.050000X-0.350000X0.050000X0.350000X-0.050000X0.350000X0*%
%ADD12R,4.000000X4.000000*%
G04 APERTURE END LIST*
D10*
%TO.C,U1*%
X136550000Y-97070000D03*
X136550000Y-97470000D03*
X136550000Y-97870000D03*
X136550000Y-98270000D03*
X136550000Y-98670000D03*
X136550000Y-99070000D03*
X136550000Y-99470000D03*
X136550000Y-99870000D03*
X136550000Y-100270000D03*
X136550000Y-100670000D03*
X136550000Y-101070000D03*
X136550000Y-101470000D03*
X136550000Y-101870000D03*
X136550000Y-102270000D03*
D11*
X137400000Y-103120000D03*
X137800000Y-103120000D03*
X138200000Y-103120000D03*
X138600000Y-103120000D03*
X139000000Y-103120000D03*
X139400000Y-103120000D03*
X139800000Y-103120000D03*
X140200000Y-103120000D03*
X140600000Y-103120000D03*
X141000000Y-103120000D03*
X141400000Y-103120000D03*
X141800000Y-103120000D03*
X142200000Y-103120000D03*
X142600000Y-103120000D03*
D10*
X143450000Y-102270000D03*
X143450000Y-101870000D03*
X143450000Y-101470000D03*
X143450000Y-101070000D03*
X143450000Y-100670000D03*
X143450000Y-100270000D03*
X143450000Y-99870000D03*
X143450000Y-99470000D03*
X143450000Y-99070000D03*
X143450000Y-98670000D03*
X143450000Y-98270000D03*
X143450000Y-97870000D03*
X143450000Y-97470000D03*
X143450000Y-97070000D03*
D11*
X142600000Y-96220000D03*
X142200000Y-96220000D03*
X141800000Y-96220000D03*
X141400000Y-96220000D03*
X141000000Y-96220000D03*
X140600000Y-96220000D03*
X140200000Y-96220000D03*
X139800000Y-96220000D03*
X139400000Y-96220000D03*
X139000000Y-96220000D03*
X138600000Y-96220000D03*
X138200000Y-96220000D03*
X137800000Y-96220000D03*
X137400000Y-96220000D03*
D12*
X140000000Y-99670000D03*
%TD*%
M02*
