%TF.GenerationSoftware,KiCad,Pcbnew,8.0.3*%
%TF.CreationDate,2024-09-17T15:53:27+01:00*%
%TF.ProjectId,test_module_1,74657374-5f6d-46f6-9475-6c655f312e6b,rev?*%
%TF.SameCoordinates,PX8583b00PY5f5e100*%
%TF.FileFunction,Paste,Top*%
%TF.FilePolarity,Positive*%
%FSLAX46Y46*%
G04 Gerber Fmt 4.6, Leading zero omitted, Abs format (unit mm)*
G04 Created by KiCad (PCBNEW 8.0.3) date 2024-09-17 15:53:27*
%MOMM*%
%LPD*%
G01*
G04 APERTURE LIST*
G04 Aperture macros list*
%AMRoundRect*
0 Rectangle with rounded corners*
0 $1 Rounding radius*
0 $2 $3 $4 $5 $6 $7 $8 $9 X,Y pos of 4 corners*
0 Add a 4 corners polygon primitive as box body*
4,1,4,$2,$3,$4,$5,$6,$7,$8,$9,$2,$3,0*
0 Add four circle primitives for the rounded corners*
1,1,$1+$1,$2,$3*
1,1,$1+$1,$4,$5*
1,1,$1+$1,$6,$7*
1,1,$1+$1,$8,$9*
0 Add four rect primitives between the rounded corners*
20,1,$1+$1,$2,$3,$4,$5,0*
20,1,$1+$1,$4,$5,$6,$7,0*
20,1,$1+$1,$6,$7,$8,$9,0*
20,1,$1+$1,$8,$9,$2,$3,0*%
G04 Aperture macros list end*
%ADD10RoundRect,0.250000X-0.285000X-0.285000X0.285000X-0.285000X0.285000X0.285000X-0.285000X0.285000X0*%
%ADD11RoundRect,0.050000X-0.350000X-0.050000X0.350000X-0.050000X0.350000X0.050000X-0.350000X0.050000X0*%
%ADD12RoundRect,0.050000X-0.050000X-0.350000X0.050000X-0.350000X0.050000X0.350000X-0.050000X0.350000X0*%
G04 APERTURE END LIST*
D10*
%TO.C,U1*%
X-1330000Y1660000D03*
X-1330000Y330000D03*
X-1330000Y-1000000D03*
X0Y1660000D03*
X0Y330000D03*
X0Y-1000000D03*
X1330000Y1660000D03*
X1330000Y330000D03*
X1330000Y-1000000D03*
D11*
X-3450000Y2930000D03*
X-3450000Y2530000D03*
X-3450000Y2130000D03*
X-3450000Y1730000D03*
X-3450000Y1330000D03*
X-3450000Y930000D03*
X-3450000Y530000D03*
X-3450000Y130000D03*
X-3450000Y-270000D03*
X-3450000Y-670000D03*
X-3450000Y-1070000D03*
X-3450000Y-1470000D03*
X-3450000Y-1870000D03*
X-3450000Y-2270000D03*
D12*
X-2600000Y-3120000D03*
X-2200000Y-3120000D03*
X-1800000Y-3120000D03*
X-1400000Y-3120000D03*
X-1000000Y-3120000D03*
X-600000Y-3120000D03*
X-200000Y-3120000D03*
X200000Y-3120000D03*
X600000Y-3120000D03*
X1000000Y-3120000D03*
X1400000Y-3120000D03*
X1800000Y-3120000D03*
X2200000Y-3120000D03*
X2600000Y-3120000D03*
D11*
X3450000Y-2270000D03*
X3450000Y-1870000D03*
X3450000Y-1470000D03*
X3450000Y-1070000D03*
X3450000Y-670000D03*
X3450000Y-270000D03*
X3450000Y130000D03*
X3450000Y530000D03*
X3450000Y930000D03*
X3450000Y1330000D03*
X3450000Y1730000D03*
X3450000Y2130000D03*
X3450000Y2530000D03*
X3450000Y2930000D03*
D12*
X2600000Y3780000D03*
X2200000Y3780000D03*
X1800000Y3780000D03*
X1400000Y3780000D03*
X1000000Y3780000D03*
X600000Y3780000D03*
X200000Y3780000D03*
X-200000Y3780000D03*
X-600000Y3780000D03*
X-1000000Y3780000D03*
X-1400000Y3780000D03*
X-1800000Y3780000D03*
X-2200000Y3780000D03*
X-2600000Y3780000D03*
%TD*%
M02*
