%TF.GenerationSoftware,KiCad,Pcbnew,9.0.0*%
%TF.CreationDate,2025-03-31T12:51:01+01:00*%
%TF.ProjectId,vm_rp2040_brain_0.1,766d5f72-7032-4303-9430-5f627261696e,rev?*%
%TF.SameCoordinates,Original*%
%TF.FileFunction,Legend,Top*%
%TF.FilePolarity,Positive*%
%FSLAX45Y45*%
G04 Gerber Fmt 4.5, Leading zero omitted, Abs format (unit mm)*
G04 Created by KiCad (PCBNEW 9.0.0) date 2025-03-31 12:51:01*
%MOMM*%
%LPD*%
G01*
G04 APERTURE LIST*
%ADD10C,0.200000*%
%ADD11C,0.300000*%
%ADD12C,0.152400*%
%ADD13C,0.170000*%
%ADD14C,0.049990*%
%ADD15C,0.000000*%
%ADD16C,0.100000*%
%ADD17C,0.500000*%
%ADD18C,0.130000*%
%ADD19C,0.250000*%
G04 APERTURE END LIST*
D10*
X-1020001Y399158D02*
X-1020001Y359159D01*
D11*
X211999Y1005954D02*
G75*
G02*
X191999Y1005954I-10000J0D01*
G01*
X191999Y1005954D02*
G75*
G02*
X211999Y1005954I10000J0D01*
G01*
D12*
X-656166Y898004D02*
G75*
G02*
X-681566Y898004I-12700J0D01*
G01*
X-681566Y898004D02*
G75*
G02*
X-656166Y898004I12700J0D01*
G01*
D13*
X-869498Y-567969D02*
X-869498Y-577489D01*
D10*
X733003Y-911060D02*
X833003Y-911060D01*
X768005Y-911060D02*
X733003Y-911060D01*
D14*
X-567500Y369999D02*
X-617499Y369999D01*
D10*
X-899998Y549158D02*
X-880001Y549158D01*
D13*
X-869498Y-577489D02*
X-874258Y-587012D01*
D14*
X32502Y-329999D02*
X82499Y-329999D01*
D15*
G36*
X-137500Y-579999D02*
G01*
X-217500Y-640001D01*
X-217500Y-520002D01*
X-137500Y-579999D01*
G37*
G36*
X-1300000Y255001D02*
G01*
X-1380000Y255001D01*
X-1340000Y285001D01*
X-1300000Y255001D01*
G37*
D14*
X82499Y352499D02*
X62502Y372499D01*
D12*
X-443766Y960554D02*
X-517652Y960554D01*
D13*
X-874258Y-587012D02*
X-879018Y-591774D01*
D10*
X-532996Y-705000D02*
X-567995Y-705000D01*
X-759998Y359159D02*
X-759998Y399158D01*
D13*
X-874258Y-558447D02*
X-869498Y-567969D01*
D10*
X-137500Y-629999D02*
X-137500Y-529999D01*
X-137500Y-595000D02*
X-137500Y-629999D01*
D13*
X-879018Y-553687D02*
X-874258Y-558447D01*
D15*
G36*
X783003Y-911060D02*
G01*
X723003Y-831060D01*
X843006Y-831060D01*
X783003Y-911060D01*
G37*
D13*
X-893300Y-548924D02*
X-879018Y-553687D01*
D15*
G36*
X-93149Y-996401D02*
G01*
X-104399Y-996401D01*
X-104399Y-978901D01*
X-75649Y-978901D01*
X-93149Y-996401D01*
G37*
D16*
X-1380000Y285001D02*
X-1300000Y285001D01*
D13*
X-902823Y-596534D02*
X-869498Y-648904D01*
D17*
X572130Y-377347D02*
G75*
G02*
X562132Y-377347I-4999J0D01*
G01*
X562132Y-377347D02*
G75*
G02*
X572130Y-377347I4999J0D01*
G01*
D18*
X-1354501Y-1058301D02*
X-1354501Y-783981D01*
D17*
X-1020001Y760509D02*
G75*
G02*
X-1029999Y760509I-4999J0D01*
G01*
X-1029999Y760509D02*
G75*
G02*
X-1020001Y760509I4999J0D01*
G01*
D13*
X-893300Y-596534D02*
X-936150Y-596534D01*
X-879018Y-591774D02*
X-893300Y-596534D01*
D12*
X-713966Y878004D02*
X-713966Y960554D01*
D15*
G36*
X7501Y292499D02*
G01*
X7501Y281249D01*
X-10000Y281249D01*
X-10000Y309999D01*
X7501Y292499D01*
G37*
D13*
X-936150Y-648904D02*
X-936150Y-548924D01*
D15*
G36*
X-1290000Y-495051D02*
G01*
X-1318750Y-495051D01*
X-1301250Y-477550D01*
X-1290000Y-477550D01*
X-1290000Y-495051D01*
G37*
D12*
X-612902Y855454D02*
X-544830Y855454D01*
X-713966Y960554D02*
X-643966Y960554D01*
D14*
X-617499Y369999D02*
X-617499Y319999D01*
D12*
X-443766Y878004D02*
X-443766Y960554D01*
D14*
X-617499Y-329999D02*
X-567500Y-329999D01*
D15*
G36*
X-522996Y-785000D02*
G01*
X-642996Y-785000D01*
X-582996Y-705000D01*
X-522996Y-785000D01*
G37*
D10*
X-632996Y-705000D02*
X-532996Y-705000D01*
D14*
X-617499Y-329999D02*
X-617499Y-279999D01*
X82499Y-329999D02*
X82499Y-279999D01*
D17*
X476631Y-918256D02*
G75*
G02*
X466633Y-918256I-4999J0D01*
G01*
X466633Y-918256D02*
G75*
G02*
X476631Y-918256I4999J0D01*
G01*
D13*
X-936150Y-548924D02*
X-893300Y-548924D01*
D10*
X-899998Y209159D02*
X-880001Y209159D01*
X-1100000Y-262349D02*
G75*
G02*
X-1120000Y-262349I-10000J0D01*
G01*
X-1120000Y-262349D02*
G75*
G02*
X-1100000Y-262349I10000J0D01*
G01*
D15*
G36*
X-1280000Y-12499D02*
G01*
X-1335001Y-12499D01*
X-1335001Y-72502D01*
X-1344996Y-72502D01*
X-1345001Y-12499D01*
X-1345001Y0D01*
X-1280000Y0D01*
X-1280000Y-12499D01*
G37*
D19*
%TO.C,REF\u002A\u002A*%
X1281335Y447000D02*
X1095335Y447000D01*
X1281335Y-447000D02*
X1095335Y-447000D01*
X1653335Y447000D02*
X1505335Y447000D01*
X1653335Y447000D02*
X1653335Y-447000D01*
X1653335Y-447000D02*
X1505335Y-447000D01*
%TD*%
M02*
