%TF.GenerationSoftware,KiCad,Pcbnew,9.0.4*%
%TF.CreationDate,2025-10-01T23:04:08+01:00*%
%TF.ProjectId,mm_rgb_ring,6d6d5f72-6762-45f7-9269-6e672e6b6963,0.4*%
%TF.SameCoordinates,PX8d24d00PY36d6160*%
%TF.FileFunction,Soldermask,Top*%
%TF.FilePolarity,Negative*%
%FSLAX45Y45*%
G04 Gerber Fmt 4.5, Leading zero omitted, Abs format (unit mm)*
G04 Created by KiCad (PCBNEW 9.0.4) date 2025-10-01 23:04:08*
%MOMM*%
%LPD*%
G01*
G04 APERTURE LIST*
%ADD10C,2.500000*%
%ADD11C,0.000000*%
G04 APERTURE END LIST*
%TO.C,MH3*%
D10*
X-1375080Y-1500080D02*
G75*
G02*
X-1625080Y-1500080I-125000J0D01*
G01*
X-1625080Y-1500080D02*
G75*
G02*
X-1375080Y-1500080I125000J0D01*
G01*
%TO.C,MH4*%
X1625000Y-1500000D02*
G75*
G02*
X1375000Y-1500000I-125000J0D01*
G01*
X1375000Y-1500000D02*
G75*
G02*
X1625000Y-1500000I125000J0D01*
G01*
%TO.C,MH2*%
X1625000Y1500000D02*
G75*
G02*
X1375000Y1500000I-125000J0D01*
G01*
X1375000Y1500000D02*
G75*
G02*
X1625000Y1500000I125000J0D01*
G01*
D11*
%TO.C,MH1*%
G36*
X-1250000Y1500000D02*
G01*
X-1250493Y1500000D01*
X-1250493Y1484302D01*
X-1254428Y1453155D01*
X-1262236Y1422746D01*
X-1273793Y1393555D01*
X-1288918Y1366043D01*
X-1307372Y1340644D01*
X-1328863Y1317758D01*
X-1353054Y1297746D01*
X-1379562Y1280923D01*
X-1407969Y1267556D01*
X-1437827Y1257854D01*
X-1468667Y1251971D01*
X-1500000Y1250000D01*
X-1750000Y1250000D01*
X-1750000Y1500000D01*
X-1749507Y1500000D01*
X-1749507Y1515698D01*
X-1745572Y1546845D01*
X-1737764Y1577254D01*
X-1726207Y1606445D01*
X-1711082Y1633957D01*
X-1692628Y1659356D01*
X-1671137Y1682242D01*
X-1646946Y1702254D01*
X-1620438Y1719077D01*
X-1592031Y1732444D01*
X-1562172Y1742146D01*
X-1531333Y1748029D01*
X-1500000Y1750000D01*
X-1250000Y1750000D01*
X-1250000Y1500000D01*
G37*
%TD*%
M02*
