%TF.GenerationSoftware,KiCad,Pcbnew,9.0.4*%
%TF.CreationDate,2025-10-01T23:04:08+01:00*%
%TF.ProjectId,mm_rgb_ring,6d6d5f72-6762-45f7-9269-6e672e6b6963,0.4*%
%TF.SameCoordinates,PX8d24d00PY36d6160*%
%TF.FileFunction,Legend,Bot*%
%TF.FilePolarity,Positive*%
%FSLAX45Y45*%
G04 Gerber Fmt 4.5, Leading zero omitted, Abs format (unit mm)*
G04 Created by KiCad (PCBNEW 9.0.4) date 2025-10-01 23:04:08*
%MOMM*%
%LPD*%
G01*
G04 APERTURE LIST*
%ADD10C,0.010000*%
G04 APERTURE END LIST*
D10*
%TO.C,MH3*%
X-1192931Y-1336394D02*
X-1191257Y-1337027D01*
X-1189695Y-1338171D01*
X-1188172Y-1339891D01*
X-1186619Y-1342253D01*
X-1184964Y-1345323D01*
X-1184948Y-1345354D01*
X-1179208Y-1357513D01*
X-1173866Y-1370278D01*
X-1168954Y-1383549D01*
X-1164506Y-1397227D01*
X-1160557Y-1411211D01*
X-1157140Y-1425402D01*
X-1155899Y-1431266D01*
X-1154818Y-1437214D01*
X-1154127Y-1442527D01*
X-1153821Y-1447262D01*
X-1153897Y-1451472D01*
X-1154284Y-1454831D01*
X-1155733Y-1461174D01*
X-1157871Y-1467152D01*
X-1160673Y-1472730D01*
X-1164116Y-1477873D01*
X-1168175Y-1482545D01*
X-1172826Y-1486712D01*
X-1178047Y-1490338D01*
X-1178878Y-1490834D01*
X-1184149Y-1493463D01*
X-1189773Y-1495434D01*
X-1195641Y-1496736D01*
X-1201647Y-1497358D01*
X-1207684Y-1497290D01*
X-1213646Y-1496520D01*
X-1219426Y-1495039D01*
X-1219807Y-1494913D01*
X-1225413Y-1492621D01*
X-1230708Y-1489641D01*
X-1235624Y-1486040D01*
X-1240091Y-1481884D01*
X-1244042Y-1477239D01*
X-1247407Y-1472174D01*
X-1250118Y-1466754D01*
X-1250986Y-1464554D01*
X-1251441Y-1463125D01*
X-1251994Y-1461102D01*
X-1252599Y-1458674D01*
X-1253208Y-1456026D01*
X-1253776Y-1453347D01*
X-1253785Y-1453303D01*
X-1255948Y-1443330D01*
X-1258307Y-1433953D01*
X-1260919Y-1424988D01*
X-1263839Y-1416248D01*
X-1267123Y-1407550D01*
X-1269078Y-1402780D01*
X-1270446Y-1399330D01*
X-1271384Y-1396447D01*
X-1271897Y-1394035D01*
X-1271989Y-1391999D01*
X-1271668Y-1390243D01*
X-1270937Y-1388671D01*
X-1269942Y-1387343D01*
X-1269047Y-1386417D01*
X-1268076Y-1385650D01*
X-1266891Y-1384976D01*
X-1265351Y-1384329D01*
X-1263320Y-1383640D01*
X-1260658Y-1382843D01*
X-1260569Y-1382818D01*
X-1254890Y-1381049D01*
X-1249717Y-1379145D01*
X-1244763Y-1376992D01*
X-1241457Y-1375373D01*
X-1233943Y-1371099D01*
X-1226785Y-1366147D01*
X-1220056Y-1360579D01*
X-1213827Y-1354458D01*
X-1208173Y-1347849D01*
X-1205396Y-1344116D01*
X-1203203Y-1341237D01*
X-1201170Y-1339062D01*
X-1199224Y-1337537D01*
X-1197292Y-1336609D01*
X-1195302Y-1336223D01*
X-1194786Y-1336205D01*
X-1192931Y-1336394D01*
G36*
X-1192931Y-1336394D02*
G01*
X-1191257Y-1337027D01*
X-1189695Y-1338171D01*
X-1188172Y-1339891D01*
X-1186619Y-1342253D01*
X-1184964Y-1345323D01*
X-1184948Y-1345354D01*
X-1179208Y-1357513D01*
X-1173866Y-1370278D01*
X-1168954Y-1383549D01*
X-1164506Y-1397227D01*
X-1160557Y-1411211D01*
X-1157140Y-1425402D01*
X-1155899Y-1431266D01*
X-1154818Y-1437214D01*
X-1154127Y-1442527D01*
X-1153821Y-1447262D01*
X-1153897Y-1451472D01*
X-1154284Y-1454831D01*
X-1155733Y-1461174D01*
X-1157871Y-1467152D01*
X-1160673Y-1472730D01*
X-1164116Y-1477873D01*
X-1168175Y-1482545D01*
X-1172826Y-1486712D01*
X-1178047Y-1490338D01*
X-1178878Y-1490834D01*
X-1184149Y-1493463D01*
X-1189773Y-1495434D01*
X-1195641Y-1496736D01*
X-1201647Y-1497358D01*
X-1207684Y-1497290D01*
X-1213646Y-1496520D01*
X-1219426Y-1495039D01*
X-1219807Y-1494913D01*
X-1225413Y-1492621D01*
X-1230708Y-1489641D01*
X-1235624Y-1486040D01*
X-1240091Y-1481884D01*
X-1244042Y-1477239D01*
X-1247407Y-1472174D01*
X-1250118Y-1466754D01*
X-1250986Y-1464554D01*
X-1251441Y-1463125D01*
X-1251994Y-1461102D01*
X-1252599Y-1458674D01*
X-1253208Y-1456026D01*
X-1253776Y-1453347D01*
X-1253785Y-1453303D01*
X-1255948Y-1443330D01*
X-1258307Y-1433953D01*
X-1260919Y-1424988D01*
X-1263839Y-1416248D01*
X-1267123Y-1407550D01*
X-1269078Y-1402780D01*
X-1270446Y-1399330D01*
X-1271384Y-1396447D01*
X-1271897Y-1394035D01*
X-1271989Y-1391999D01*
X-1271668Y-1390243D01*
X-1270937Y-1388671D01*
X-1269942Y-1387343D01*
X-1269047Y-1386417D01*
X-1268076Y-1385650D01*
X-1266891Y-1384976D01*
X-1265351Y-1384329D01*
X-1263320Y-1383640D01*
X-1260658Y-1382843D01*
X-1260569Y-1382818D01*
X-1254890Y-1381049D01*
X-1249717Y-1379145D01*
X-1244763Y-1376992D01*
X-1241457Y-1375373D01*
X-1233943Y-1371099D01*
X-1226785Y-1366147D01*
X-1220056Y-1360579D01*
X-1213827Y-1354458D01*
X-1208173Y-1347849D01*
X-1205396Y-1344116D01*
X-1203203Y-1341237D01*
X-1201170Y-1339062D01*
X-1199224Y-1337537D01*
X-1197292Y-1336609D01*
X-1195302Y-1336223D01*
X-1194786Y-1336205D01*
X-1192931Y-1336394D01*
G37*
X-1447018Y-1154034D02*
X-1444850Y-1154071D01*
X-1442753Y-1154172D01*
X-1440629Y-1154351D01*
X-1438376Y-1154625D01*
X-1435895Y-1155011D01*
X-1433084Y-1155524D01*
X-1429843Y-1156180D01*
X-1426072Y-1156996D01*
X-1421671Y-1157988D01*
X-1419832Y-1158410D01*
X-1408491Y-1161261D01*
X-1396873Y-1164641D01*
X-1385164Y-1168482D01*
X-1373550Y-1172718D01*
X-1362217Y-1177282D01*
X-1351349Y-1182108D01*
X-1344232Y-1185549D01*
X-1341479Y-1186997D01*
X-1339376Y-1188277D01*
X-1337819Y-1189468D01*
X-1336704Y-1190652D01*
X-1335927Y-1191910D01*
X-1335840Y-1192096D01*
X-1335242Y-1193899D01*
X-1335247Y-1195582D01*
X-1335643Y-1197006D01*
X-1336728Y-1198977D01*
X-1338560Y-1201002D01*
X-1341098Y-1203036D01*
X-1341577Y-1203366D01*
X-1348900Y-1208774D01*
X-1355647Y-1214694D01*
X-1361793Y-1221098D01*
X-1367315Y-1227957D01*
X-1372187Y-1235241D01*
X-1376387Y-1242920D01*
X-1378938Y-1248575D01*
X-1380172Y-1251694D01*
X-1381294Y-1254834D01*
X-1382369Y-1258196D01*
X-1383463Y-1261983D01*
X-1384348Y-1265277D01*
X-1384880Y-1267101D01*
X-1385421Y-1268406D01*
X-1386105Y-1269456D01*
X-1386850Y-1270298D01*
X-1388407Y-1271642D01*
X-1390045Y-1272450D01*
X-1391876Y-1272727D01*
X-1394010Y-1272476D01*
X-1396555Y-1271702D01*
X-1398798Y-1270783D01*
X-1410850Y-1265838D01*
X-1423279Y-1261510D01*
X-1436143Y-1257780D01*
X-1449501Y-1254630D01*
X-1452569Y-1254002D01*
X-1456037Y-1253292D01*
X-1458875Y-1252660D01*
X-1461237Y-1252063D01*
X-1463276Y-1251456D01*
X-1465147Y-1250793D01*
X-1467003Y-1250030D01*
X-1468387Y-1249407D01*
X-1473685Y-1246533D01*
X-1478592Y-1243019D01*
X-1483050Y-1238937D01*
X-1487003Y-1234360D01*
X-1490393Y-1229360D01*
X-1493164Y-1224012D01*
X-1495257Y-1218387D01*
X-1496422Y-1213655D01*
X-1497234Y-1207379D01*
X-1497288Y-1201216D01*
X-1496615Y-1195215D01*
X-1495250Y-1189423D01*
X-1493223Y-1183890D01*
X-1490567Y-1178665D01*
X-1487315Y-1173794D01*
X-1483500Y-1169328D01*
X-1479154Y-1165315D01*
X-1474310Y-1161803D01*
X-1469000Y-1158840D01*
X-1463256Y-1156476D01*
X-1457111Y-1154759D01*
X-1456940Y-1154722D01*
X-1455172Y-1154404D01*
X-1453248Y-1154191D01*
X-1450978Y-1154072D01*
X-1448173Y-1154031D01*
X-1447018Y-1154034D01*
G36*
X-1447018Y-1154034D02*
G01*
X-1444850Y-1154071D01*
X-1442753Y-1154172D01*
X-1440629Y-1154351D01*
X-1438376Y-1154625D01*
X-1435895Y-1155011D01*
X-1433084Y-1155524D01*
X-1429843Y-1156180D01*
X-1426072Y-1156996D01*
X-1421671Y-1157988D01*
X-1419832Y-1158410D01*
X-1408491Y-1161261D01*
X-1396873Y-1164641D01*
X-1385164Y-1168482D01*
X-1373550Y-1172718D01*
X-1362217Y-1177282D01*
X-1351349Y-1182108D01*
X-1344232Y-1185549D01*
X-1341479Y-1186997D01*
X-1339376Y-1188277D01*
X-1337819Y-1189468D01*
X-1336704Y-1190652D01*
X-1335927Y-1191910D01*
X-1335840Y-1192096D01*
X-1335242Y-1193899D01*
X-1335247Y-1195582D01*
X-1335643Y-1197006D01*
X-1336728Y-1198977D01*
X-1338560Y-1201002D01*
X-1341098Y-1203036D01*
X-1341577Y-1203366D01*
X-1348900Y-1208774D01*
X-1355647Y-1214694D01*
X-1361793Y-1221098D01*
X-1367315Y-1227957D01*
X-1372187Y-1235241D01*
X-1376387Y-1242920D01*
X-1378938Y-1248575D01*
X-1380172Y-1251694D01*
X-1381294Y-1254834D01*
X-1382369Y-1258196D01*
X-1383463Y-1261983D01*
X-1384348Y-1265277D01*
X-1384880Y-1267101D01*
X-1385421Y-1268406D01*
X-1386105Y-1269456D01*
X-1386850Y-1270298D01*
X-1388407Y-1271642D01*
X-1390045Y-1272450D01*
X-1391876Y-1272727D01*
X-1394010Y-1272476D01*
X-1396555Y-1271702D01*
X-1398798Y-1270783D01*
X-1410850Y-1265838D01*
X-1423279Y-1261510D01*
X-1436143Y-1257780D01*
X-1449501Y-1254630D01*
X-1452569Y-1254002D01*
X-1456037Y-1253292D01*
X-1458875Y-1252660D01*
X-1461237Y-1252063D01*
X-1463276Y-1251456D01*
X-1465147Y-1250793D01*
X-1467003Y-1250030D01*
X-1468387Y-1249407D01*
X-1473685Y-1246533D01*
X-1478592Y-1243019D01*
X-1483050Y-1238937D01*
X-1487003Y-1234360D01*
X-1490393Y-1229360D01*
X-1493164Y-1224012D01*
X-1495257Y-1218387D01*
X-1496422Y-1213655D01*
X-1497234Y-1207379D01*
X-1497288Y-1201216D01*
X-1496615Y-1195215D01*
X-1495250Y-1189423D01*
X-1493223Y-1183890D01*
X-1490567Y-1178665D01*
X-1487315Y-1173794D01*
X-1483500Y-1169328D01*
X-1479154Y-1165315D01*
X-1474310Y-1161803D01*
X-1469000Y-1158840D01*
X-1463256Y-1156476D01*
X-1457111Y-1154759D01*
X-1456940Y-1154722D01*
X-1455172Y-1154404D01*
X-1453248Y-1154191D01*
X-1450978Y-1154072D01*
X-1448173Y-1154031D01*
X-1447018Y-1154034D01*
G37*
X-1311451Y-1249774D02*
X-1310449Y-1250050D01*
X-1309860Y-1250269D01*
X-1309261Y-1250567D01*
X-1308589Y-1250998D01*
X-1307780Y-1251620D01*
X-1306771Y-1252487D01*
X-1305499Y-1253655D01*
X-1303900Y-1255181D01*
X-1301913Y-1257120D01*
X-1299472Y-1259528D01*
X-1297496Y-1261488D01*
X-1286681Y-1272223D01*
X-1276065Y-1261703D01*
X-1273208Y-1258895D01*
X-1270632Y-1256407D01*
X-1268388Y-1254286D01*
X-1266523Y-1252577D01*
X-1265088Y-1251326D01*
X-1264131Y-1250579D01*
X-1263860Y-1250415D01*
X-1262045Y-1249851D01*
X-1259845Y-1249625D01*
X-1257574Y-1249733D01*
X-1255548Y-1250171D01*
X-1254695Y-1250529D01*
X-1252772Y-1251894D01*
X-1251094Y-1253731D01*
X-1249969Y-1255663D01*
X-1249562Y-1257250D01*
X-1249400Y-1259249D01*
X-1249480Y-1261317D01*
X-1249804Y-1263112D01*
X-1249989Y-1263649D01*
X-1250481Y-1264401D01*
X-1251545Y-1265681D01*
X-1253173Y-1267482D01*
X-1255356Y-1269791D01*
X-1258084Y-1272599D01*
X-1261347Y-1275897D01*
X-1261386Y-1275936D01*
X-1272169Y-1286747D01*
X-1261586Y-1297377D01*
X-1258492Y-1300504D01*
X-1255941Y-1303123D01*
X-1253900Y-1305273D01*
X-1252333Y-1306989D01*
X-1251208Y-1308311D01*
X-1250490Y-1309274D01*
X-1250197Y-1309783D01*
X-1249490Y-1312214D01*
X-1249381Y-1314873D01*
X-1249862Y-1317471D01*
X-1250402Y-1318824D01*
X-1251968Y-1321145D01*
X-1254030Y-1322867D01*
X-1256293Y-1323873D01*
X-1258062Y-1324311D01*
X-1259564Y-1324415D01*
X-1261164Y-1324181D01*
X-1262499Y-1323827D01*
X-1263073Y-1323640D01*
X-1263636Y-1323392D01*
X-1264251Y-1323030D01*
X-1264981Y-1322496D01*
X-1265887Y-1321738D01*
X-1267032Y-1320700D01*
X-1268478Y-1319326D01*
X-1270289Y-1317562D01*
X-1272525Y-1315352D01*
X-1275251Y-1312643D01*
X-1275667Y-1312228D01*
X-1286681Y-1301259D01*
X-1297694Y-1312228D01*
X-1300492Y-1315011D01*
X-1302792Y-1317285D01*
X-1304657Y-1319107D01*
X-1306150Y-1320532D01*
X-1307333Y-1321613D01*
X-1308268Y-1322407D01*
X-1309018Y-1322968D01*
X-1309645Y-1323351D01*
X-1310212Y-1323611D01*
X-1310781Y-1323803D01*
X-1310863Y-1323827D01*
X-1312741Y-1324292D01*
X-1314270Y-1324418D01*
X-1315817Y-1324208D01*
X-1317069Y-1323873D01*
X-1319535Y-1322749D01*
X-1321523Y-1321040D01*
X-1322966Y-1318841D01*
X-1323797Y-1316245D01*
X-1323978Y-1314160D01*
X-1323955Y-1313044D01*
X-1323860Y-1312048D01*
X-1323643Y-1311103D01*
X-1323256Y-1310141D01*
X-1322649Y-1309093D01*
X-1321771Y-1307892D01*
X-1320575Y-1306470D01*
X-1319009Y-1304759D01*
X-1317026Y-1302690D01*
X-1314574Y-1300195D01*
X-1311776Y-1297377D01*
X-1301193Y-1286747D01*
X-1311959Y-1275936D01*
X-1315199Y-1272661D01*
X-1317875Y-1269908D01*
X-1320003Y-1267659D01*
X-1321602Y-1265896D01*
X-1322687Y-1264600D01*
X-1323275Y-1263753D01*
X-1323356Y-1263588D01*
X-1323943Y-1261196D01*
X-1323921Y-1258591D01*
X-1323335Y-1256014D01*
X-1322230Y-1253702D01*
X-1321285Y-1252487D01*
X-1319266Y-1250908D01*
X-1316836Y-1249903D01*
X-1314172Y-1249512D01*
X-1311451Y-1249774D01*
G36*
X-1311451Y-1249774D02*
G01*
X-1310449Y-1250050D01*
X-1309860Y-1250269D01*
X-1309261Y-1250567D01*
X-1308589Y-1250998D01*
X-1307780Y-1251620D01*
X-1306771Y-1252487D01*
X-1305499Y-1253655D01*
X-1303900Y-1255181D01*
X-1301913Y-1257120D01*
X-1299472Y-1259528D01*
X-1297496Y-1261488D01*
X-1286681Y-1272223D01*
X-1276065Y-1261703D01*
X-1273208Y-1258895D01*
X-1270632Y-1256407D01*
X-1268388Y-1254286D01*
X-1266523Y-1252577D01*
X-1265088Y-1251326D01*
X-1264131Y-1250579D01*
X-1263860Y-1250415D01*
X-1262045Y-1249851D01*
X-1259845Y-1249625D01*
X-1257574Y-1249733D01*
X-1255548Y-1250171D01*
X-1254695Y-1250529D01*
X-1252772Y-1251894D01*
X-1251094Y-1253731D01*
X-1249969Y-1255663D01*
X-1249562Y-1257250D01*
X-1249400Y-1259249D01*
X-1249480Y-1261317D01*
X-1249804Y-1263112D01*
X-1249989Y-1263649D01*
X-1250481Y-1264401D01*
X-1251545Y-1265681D01*
X-1253173Y-1267482D01*
X-1255356Y-1269791D01*
X-1258084Y-1272599D01*
X-1261347Y-1275897D01*
X-1261386Y-1275936D01*
X-1272169Y-1286747D01*
X-1261586Y-1297377D01*
X-1258492Y-1300504D01*
X-1255941Y-1303123D01*
X-1253900Y-1305273D01*
X-1252333Y-1306989D01*
X-1251208Y-1308311D01*
X-1250490Y-1309274D01*
X-1250197Y-1309783D01*
X-1249490Y-1312214D01*
X-1249381Y-1314873D01*
X-1249862Y-1317471D01*
X-1250402Y-1318824D01*
X-1251968Y-1321145D01*
X-1254030Y-1322867D01*
X-1256293Y-1323873D01*
X-1258062Y-1324311D01*
X-1259564Y-1324415D01*
X-1261164Y-1324181D01*
X-1262499Y-1323827D01*
X-1263073Y-1323640D01*
X-1263636Y-1323392D01*
X-1264251Y-1323030D01*
X-1264981Y-1322496D01*
X-1265887Y-1321738D01*
X-1267032Y-1320700D01*
X-1268478Y-1319326D01*
X-1270289Y-1317562D01*
X-1272525Y-1315352D01*
X-1275251Y-1312643D01*
X-1275667Y-1312228D01*
X-1286681Y-1301259D01*
X-1297694Y-1312228D01*
X-1300492Y-1315011D01*
X-1302792Y-1317285D01*
X-1304657Y-1319107D01*
X-1306150Y-1320532D01*
X-1307333Y-1321613D01*
X-1308268Y-1322407D01*
X-1309018Y-1322968D01*
X-1309645Y-1323351D01*
X-1310212Y-1323611D01*
X-1310781Y-1323803D01*
X-1310863Y-1323827D01*
X-1312741Y-1324292D01*
X-1314270Y-1324418D01*
X-1315817Y-1324208D01*
X-1317069Y-1323873D01*
X-1319535Y-1322749D01*
X-1321523Y-1321040D01*
X-1322966Y-1318841D01*
X-1323797Y-1316245D01*
X-1323978Y-1314160D01*
X-1323955Y-1313044D01*
X-1323860Y-1312048D01*
X-1323643Y-1311103D01*
X-1323256Y-1310141D01*
X-1322649Y-1309093D01*
X-1321771Y-1307892D01*
X-1320575Y-1306470D01*
X-1319009Y-1304759D01*
X-1317026Y-1302690D01*
X-1314574Y-1300195D01*
X-1311776Y-1297377D01*
X-1301193Y-1286747D01*
X-1311959Y-1275936D01*
X-1315199Y-1272661D01*
X-1317875Y-1269908D01*
X-1320003Y-1267659D01*
X-1321602Y-1265896D01*
X-1322687Y-1264600D01*
X-1323275Y-1263753D01*
X-1323356Y-1263588D01*
X-1323943Y-1261196D01*
X-1323921Y-1258591D01*
X-1323335Y-1256014D01*
X-1322230Y-1253702D01*
X-1321285Y-1252487D01*
X-1319266Y-1250908D01*
X-1316836Y-1249903D01*
X-1314172Y-1249512D01*
X-1311451Y-1249774D01*
G37*
%TO.C,MH4*%
X1451231Y-1153710D02*
X1454590Y-1154097D01*
X1460934Y-1155546D01*
X1466912Y-1157684D01*
X1472490Y-1160486D01*
X1477632Y-1163928D01*
X1482304Y-1167987D01*
X1486471Y-1172639D01*
X1490098Y-1177859D01*
X1490593Y-1178690D01*
X1493223Y-1183962D01*
X1495194Y-1189585D01*
X1496496Y-1195453D01*
X1497118Y-1201460D01*
X1497049Y-1207497D01*
X1496280Y-1213459D01*
X1494799Y-1219238D01*
X1494672Y-1219620D01*
X1492381Y-1225226D01*
X1489401Y-1230521D01*
X1485799Y-1235436D01*
X1481643Y-1239904D01*
X1476999Y-1243854D01*
X1471934Y-1247220D01*
X1466514Y-1249931D01*
X1464313Y-1250798D01*
X1462884Y-1251253D01*
X1460862Y-1251806D01*
X1458434Y-1252411D01*
X1455786Y-1253021D01*
X1453107Y-1253589D01*
X1453063Y-1253598D01*
X1443090Y-1255760D01*
X1433713Y-1258120D01*
X1424747Y-1260731D01*
X1416008Y-1263651D01*
X1407310Y-1266936D01*
X1402540Y-1268891D01*
X1399089Y-1270259D01*
X1396206Y-1271197D01*
X1393794Y-1271709D01*
X1391759Y-1271802D01*
X1390003Y-1271480D01*
X1388431Y-1270750D01*
X1387103Y-1269755D01*
X1386176Y-1268860D01*
X1385410Y-1267889D01*
X1384736Y-1266703D01*
X1384088Y-1265164D01*
X1383400Y-1263133D01*
X1382603Y-1260470D01*
X1382577Y-1260382D01*
X1380809Y-1254703D01*
X1378904Y-1249530D01*
X1376752Y-1244575D01*
X1375132Y-1241269D01*
X1370859Y-1233756D01*
X1365906Y-1226598D01*
X1360338Y-1219868D01*
X1354218Y-1213640D01*
X1347608Y-1207985D01*
X1343876Y-1205209D01*
X1340996Y-1203016D01*
X1338821Y-1200982D01*
X1337297Y-1199036D01*
X1336369Y-1197105D01*
X1335983Y-1195115D01*
X1335965Y-1194598D01*
X1336153Y-1192743D01*
X1336787Y-1191070D01*
X1337930Y-1189507D01*
X1339650Y-1187985D01*
X1342012Y-1186431D01*
X1345083Y-1184776D01*
X1345114Y-1184761D01*
X1357273Y-1179021D01*
X1370038Y-1173678D01*
X1383309Y-1168766D01*
X1396986Y-1164319D01*
X1410970Y-1160370D01*
X1425162Y-1156953D01*
X1431026Y-1155711D01*
X1436974Y-1154631D01*
X1442287Y-1153939D01*
X1447021Y-1153634D01*
X1451231Y-1153710D01*
G36*
X1451231Y-1153710D02*
G01*
X1454590Y-1154097D01*
X1460934Y-1155546D01*
X1466912Y-1157684D01*
X1472490Y-1160486D01*
X1477632Y-1163928D01*
X1482304Y-1167987D01*
X1486471Y-1172639D01*
X1490098Y-1177859D01*
X1490593Y-1178690D01*
X1493223Y-1183962D01*
X1495194Y-1189585D01*
X1496496Y-1195453D01*
X1497118Y-1201460D01*
X1497049Y-1207497D01*
X1496280Y-1213459D01*
X1494799Y-1219238D01*
X1494672Y-1219620D01*
X1492381Y-1225226D01*
X1489401Y-1230521D01*
X1485799Y-1235436D01*
X1481643Y-1239904D01*
X1476999Y-1243854D01*
X1471934Y-1247220D01*
X1466514Y-1249931D01*
X1464313Y-1250798D01*
X1462884Y-1251253D01*
X1460862Y-1251806D01*
X1458434Y-1252411D01*
X1455786Y-1253021D01*
X1453107Y-1253589D01*
X1453063Y-1253598D01*
X1443090Y-1255760D01*
X1433713Y-1258120D01*
X1424747Y-1260731D01*
X1416008Y-1263651D01*
X1407310Y-1266936D01*
X1402540Y-1268891D01*
X1399089Y-1270259D01*
X1396206Y-1271197D01*
X1393794Y-1271709D01*
X1391759Y-1271802D01*
X1390003Y-1271480D01*
X1388431Y-1270750D01*
X1387103Y-1269755D01*
X1386176Y-1268860D01*
X1385410Y-1267889D01*
X1384736Y-1266703D01*
X1384088Y-1265164D01*
X1383400Y-1263133D01*
X1382603Y-1260470D01*
X1382577Y-1260382D01*
X1380809Y-1254703D01*
X1378904Y-1249530D01*
X1376752Y-1244575D01*
X1375132Y-1241269D01*
X1370859Y-1233756D01*
X1365906Y-1226598D01*
X1360338Y-1219868D01*
X1354218Y-1213640D01*
X1347608Y-1207985D01*
X1343876Y-1205209D01*
X1340996Y-1203016D01*
X1338821Y-1200982D01*
X1337297Y-1199036D01*
X1336369Y-1197105D01*
X1335983Y-1195115D01*
X1335965Y-1194598D01*
X1336153Y-1192743D01*
X1336787Y-1191070D01*
X1337930Y-1189507D01*
X1339650Y-1187985D01*
X1342012Y-1186431D01*
X1345083Y-1184776D01*
X1345114Y-1184761D01*
X1357273Y-1179021D01*
X1370038Y-1173678D01*
X1383309Y-1168766D01*
X1396986Y-1164319D01*
X1410970Y-1160370D01*
X1425162Y-1156953D01*
X1431026Y-1155711D01*
X1436974Y-1154631D01*
X1442287Y-1153939D01*
X1447021Y-1153634D01*
X1451231Y-1153710D01*
G37*
X1195341Y-1335060D02*
X1196765Y-1335455D01*
X1198737Y-1336541D01*
X1200761Y-1338373D01*
X1202796Y-1340911D01*
X1203126Y-1341390D01*
X1208533Y-1348713D01*
X1214454Y-1355460D01*
X1220858Y-1361606D01*
X1227716Y-1367127D01*
X1235000Y-1372000D01*
X1242680Y-1376199D01*
X1248335Y-1378750D01*
X1251454Y-1379985D01*
X1254593Y-1381107D01*
X1257955Y-1382182D01*
X1261743Y-1383275D01*
X1265037Y-1384161D01*
X1266861Y-1384692D01*
X1268166Y-1385234D01*
X1269216Y-1385918D01*
X1270058Y-1386663D01*
X1271402Y-1388219D01*
X1272210Y-1389858D01*
X1272486Y-1391689D01*
X1272235Y-1393822D01*
X1271462Y-1396367D01*
X1270542Y-1398610D01*
X1265598Y-1410662D01*
X1261270Y-1423091D01*
X1257540Y-1435955D01*
X1254390Y-1449313D01*
X1253761Y-1452381D01*
X1253051Y-1455850D01*
X1252420Y-1458688D01*
X1251823Y-1461050D01*
X1251215Y-1463089D01*
X1250552Y-1464960D01*
X1249789Y-1466816D01*
X1249167Y-1468200D01*
X1246293Y-1473498D01*
X1242778Y-1478405D01*
X1238696Y-1482863D01*
X1234119Y-1486816D01*
X1229120Y-1490206D01*
X1223771Y-1492976D01*
X1218147Y-1495070D01*
X1213415Y-1496234D01*
X1207139Y-1497047D01*
X1200976Y-1497100D01*
X1194974Y-1496428D01*
X1189183Y-1495062D01*
X1183650Y-1493035D01*
X1178424Y-1490380D01*
X1173554Y-1487128D01*
X1169088Y-1483313D01*
X1165074Y-1478967D01*
X1161562Y-1474123D01*
X1158600Y-1468812D01*
X1156236Y-1463068D01*
X1154518Y-1456924D01*
X1154481Y-1456753D01*
X1154163Y-1454984D01*
X1153951Y-1453060D01*
X1153831Y-1450790D01*
X1153791Y-1447986D01*
X1153793Y-1446831D01*
X1153831Y-1444662D01*
X1153931Y-1442566D01*
X1154111Y-1440442D01*
X1154385Y-1438189D01*
X1154770Y-1435707D01*
X1155283Y-1432896D01*
X1155940Y-1429655D01*
X1156756Y-1425885D01*
X1157748Y-1421483D01*
X1158169Y-1419645D01*
X1161021Y-1408304D01*
X1164400Y-1396686D01*
X1168241Y-1384977D01*
X1172477Y-1373363D01*
X1177041Y-1362029D01*
X1181867Y-1351162D01*
X1185308Y-1344045D01*
X1186757Y-1341292D01*
X1188036Y-1339189D01*
X1189228Y-1337632D01*
X1190412Y-1336516D01*
X1191670Y-1335740D01*
X1191856Y-1335652D01*
X1193659Y-1335055D01*
X1195341Y-1335060D01*
G36*
X1195341Y-1335060D02*
G01*
X1196765Y-1335455D01*
X1198737Y-1336541D01*
X1200761Y-1338373D01*
X1202796Y-1340911D01*
X1203126Y-1341390D01*
X1208533Y-1348713D01*
X1214454Y-1355460D01*
X1220858Y-1361606D01*
X1227716Y-1367127D01*
X1235000Y-1372000D01*
X1242680Y-1376199D01*
X1248335Y-1378750D01*
X1251454Y-1379985D01*
X1254593Y-1381107D01*
X1257955Y-1382182D01*
X1261743Y-1383275D01*
X1265037Y-1384161D01*
X1266861Y-1384692D01*
X1268166Y-1385234D01*
X1269216Y-1385918D01*
X1270058Y-1386663D01*
X1271402Y-1388219D01*
X1272210Y-1389858D01*
X1272486Y-1391689D01*
X1272235Y-1393822D01*
X1271462Y-1396367D01*
X1270542Y-1398610D01*
X1265598Y-1410662D01*
X1261270Y-1423091D01*
X1257540Y-1435955D01*
X1254390Y-1449313D01*
X1253761Y-1452381D01*
X1253051Y-1455850D01*
X1252420Y-1458688D01*
X1251823Y-1461050D01*
X1251215Y-1463089D01*
X1250552Y-1464960D01*
X1249789Y-1466816D01*
X1249167Y-1468200D01*
X1246293Y-1473498D01*
X1242778Y-1478405D01*
X1238696Y-1482863D01*
X1234119Y-1486816D01*
X1229120Y-1490206D01*
X1223771Y-1492976D01*
X1218147Y-1495070D01*
X1213415Y-1496234D01*
X1207139Y-1497047D01*
X1200976Y-1497100D01*
X1194974Y-1496428D01*
X1189183Y-1495062D01*
X1183650Y-1493035D01*
X1178424Y-1490380D01*
X1173554Y-1487128D01*
X1169088Y-1483313D01*
X1165074Y-1478967D01*
X1161562Y-1474123D01*
X1158600Y-1468812D01*
X1156236Y-1463068D01*
X1154518Y-1456924D01*
X1154481Y-1456753D01*
X1154163Y-1454984D01*
X1153951Y-1453060D01*
X1153831Y-1450790D01*
X1153791Y-1447986D01*
X1153793Y-1446831D01*
X1153831Y-1444662D01*
X1153931Y-1442566D01*
X1154111Y-1440442D01*
X1154385Y-1438189D01*
X1154770Y-1435707D01*
X1155283Y-1432896D01*
X1155940Y-1429655D01*
X1156756Y-1425885D01*
X1157748Y-1421483D01*
X1158169Y-1419645D01*
X1161021Y-1408304D01*
X1164400Y-1396686D01*
X1168241Y-1384977D01*
X1172477Y-1373363D01*
X1177041Y-1362029D01*
X1181867Y-1351162D01*
X1185308Y-1344045D01*
X1186757Y-1341292D01*
X1188036Y-1339189D01*
X1189228Y-1337632D01*
X1190412Y-1336516D01*
X1191670Y-1335740D01*
X1191856Y-1335652D01*
X1193659Y-1335055D01*
X1195341Y-1335060D01*
G37*
X1316203Y-1246728D02*
X1317101Y-1246928D01*
X1320104Y-1248152D01*
X1322602Y-1249942D01*
X1324538Y-1252220D01*
X1325857Y-1254906D01*
X1326501Y-1257923D01*
X1326528Y-1260073D01*
X1326481Y-1260824D01*
X1326421Y-1261511D01*
X1326317Y-1262169D01*
X1326137Y-1262833D01*
X1325851Y-1263540D01*
X1325426Y-1264326D01*
X1324832Y-1265225D01*
X1324038Y-1266274D01*
X1323011Y-1267508D01*
X1321722Y-1268963D01*
X1320138Y-1270676D01*
X1318229Y-1272680D01*
X1315963Y-1275013D01*
X1313309Y-1277710D01*
X1310236Y-1280806D01*
X1306712Y-1284338D01*
X1302706Y-1288341D01*
X1298188Y-1292851D01*
X1295557Y-1295476D01*
X1290901Y-1300122D01*
X1286771Y-1304238D01*
X1283134Y-1307859D01*
X1279953Y-1311017D01*
X1277196Y-1313745D01*
X1274827Y-1316076D01*
X1272812Y-1318042D01*
X1271117Y-1319676D01*
X1269706Y-1321012D01*
X1268545Y-1322082D01*
X1267601Y-1322919D01*
X1266837Y-1323555D01*
X1266220Y-1324025D01*
X1265715Y-1324359D01*
X1265288Y-1324593D01*
X1264903Y-1324757D01*
X1264686Y-1324834D01*
X1261532Y-1325506D01*
X1258441Y-1325445D01*
X1255519Y-1324692D01*
X1252872Y-1323286D01*
X1250608Y-1321267D01*
X1248988Y-1318965D01*
X1248429Y-1317884D01*
X1248083Y-1316933D01*
X1247899Y-1315861D01*
X1247828Y-1314419D01*
X1247818Y-1313084D01*
X1247853Y-1311130D01*
X1247984Y-1309712D01*
X1248255Y-1308574D01*
X1248707Y-1307459D01*
X1248768Y-1307329D01*
X1249035Y-1306886D01*
X1249511Y-1306253D01*
X1250226Y-1305400D01*
X1251209Y-1304296D01*
X1252489Y-1302912D01*
X1254094Y-1301216D01*
X1256055Y-1299181D01*
X1258400Y-1296774D01*
X1261158Y-1293966D01*
X1264359Y-1290727D01*
X1268031Y-1287026D01*
X1272203Y-1282834D01*
X1276904Y-1278120D01*
X1277939Y-1277085D01*
X1282616Y-1272403D01*
X1286768Y-1268252D01*
X1290430Y-1264600D01*
X1293635Y-1261414D01*
X1296416Y-1258662D01*
X1298808Y-1256310D01*
X1300845Y-1254326D01*
X1302560Y-1252678D01*
X1303988Y-1251333D01*
X1305162Y-1250258D01*
X1306116Y-1249421D01*
X1306885Y-1248789D01*
X1307502Y-1248330D01*
X1308000Y-1248010D01*
X1308376Y-1247816D01*
X1310932Y-1246963D01*
X1313642Y-1246590D01*
X1316203Y-1246728D01*
G36*
X1316203Y-1246728D02*
G01*
X1317101Y-1246928D01*
X1320104Y-1248152D01*
X1322602Y-1249942D01*
X1324538Y-1252220D01*
X1325857Y-1254906D01*
X1326501Y-1257923D01*
X1326528Y-1260073D01*
X1326481Y-1260824D01*
X1326421Y-1261511D01*
X1326317Y-1262169D01*
X1326137Y-1262833D01*
X1325851Y-1263540D01*
X1325426Y-1264326D01*
X1324832Y-1265225D01*
X1324038Y-1266274D01*
X1323011Y-1267508D01*
X1321722Y-1268963D01*
X1320138Y-1270676D01*
X1318229Y-1272680D01*
X1315963Y-1275013D01*
X1313309Y-1277710D01*
X1310236Y-1280806D01*
X1306712Y-1284338D01*
X1302706Y-1288341D01*
X1298188Y-1292851D01*
X1295557Y-1295476D01*
X1290901Y-1300122D01*
X1286771Y-1304238D01*
X1283134Y-1307859D01*
X1279953Y-1311017D01*
X1277196Y-1313745D01*
X1274827Y-1316076D01*
X1272812Y-1318042D01*
X1271117Y-1319676D01*
X1269706Y-1321012D01*
X1268545Y-1322082D01*
X1267601Y-1322919D01*
X1266837Y-1323555D01*
X1266220Y-1324025D01*
X1265715Y-1324359D01*
X1265288Y-1324593D01*
X1264903Y-1324757D01*
X1264686Y-1324834D01*
X1261532Y-1325506D01*
X1258441Y-1325445D01*
X1255519Y-1324692D01*
X1252872Y-1323286D01*
X1250608Y-1321267D01*
X1248988Y-1318965D01*
X1248429Y-1317884D01*
X1248083Y-1316933D01*
X1247899Y-1315861D01*
X1247828Y-1314419D01*
X1247818Y-1313084D01*
X1247853Y-1311130D01*
X1247984Y-1309712D01*
X1248255Y-1308574D01*
X1248707Y-1307459D01*
X1248768Y-1307329D01*
X1249035Y-1306886D01*
X1249511Y-1306253D01*
X1250226Y-1305400D01*
X1251209Y-1304296D01*
X1252489Y-1302912D01*
X1254094Y-1301216D01*
X1256055Y-1299181D01*
X1258400Y-1296774D01*
X1261158Y-1293966D01*
X1264359Y-1290727D01*
X1268031Y-1287026D01*
X1272203Y-1282834D01*
X1276904Y-1278120D01*
X1277939Y-1277085D01*
X1282616Y-1272403D01*
X1286768Y-1268252D01*
X1290430Y-1264600D01*
X1293635Y-1261414D01*
X1296416Y-1258662D01*
X1298808Y-1256310D01*
X1300845Y-1254326D01*
X1302560Y-1252678D01*
X1303988Y-1251333D01*
X1305162Y-1250258D01*
X1306116Y-1249421D01*
X1306885Y-1248789D01*
X1307502Y-1248330D01*
X1308000Y-1248010D01*
X1308376Y-1247816D01*
X1310932Y-1246963D01*
X1313642Y-1246590D01*
X1316203Y-1246728D01*
G37*
%TO.C,MH2*%
X1207557Y1497289D02*
X1213519Y1496520D01*
X1219299Y1495039D01*
X1219680Y1494912D01*
X1225286Y1492621D01*
X1230581Y1489641D01*
X1235497Y1486039D01*
X1239964Y1481883D01*
X1243915Y1477239D01*
X1247280Y1472174D01*
X1249991Y1466754D01*
X1250859Y1464553D01*
X1251314Y1463124D01*
X1251867Y1461102D01*
X1252471Y1458674D01*
X1253081Y1456026D01*
X1253649Y1453347D01*
X1253658Y1453303D01*
X1255821Y1443330D01*
X1258180Y1433953D01*
X1260791Y1424987D01*
X1263712Y1416248D01*
X1266996Y1407550D01*
X1268951Y1402780D01*
X1270319Y1399329D01*
X1271257Y1396446D01*
X1271769Y1394034D01*
X1271862Y1391999D01*
X1271541Y1390243D01*
X1270810Y1388671D01*
X1269815Y1387343D01*
X1268920Y1386416D01*
X1267949Y1385650D01*
X1266764Y1384976D01*
X1265224Y1384328D01*
X1263193Y1383640D01*
X1260531Y1382843D01*
X1260442Y1382817D01*
X1254763Y1381049D01*
X1249590Y1379144D01*
X1244636Y1376992D01*
X1241330Y1375372D01*
X1233816Y1371099D01*
X1226658Y1366146D01*
X1219929Y1360578D01*
X1213700Y1354458D01*
X1208046Y1347848D01*
X1205269Y1344116D01*
X1203076Y1341236D01*
X1201043Y1339061D01*
X1199097Y1337537D01*
X1197165Y1336609D01*
X1195175Y1336223D01*
X1194659Y1336205D01*
X1192804Y1336393D01*
X1191130Y1337027D01*
X1189568Y1338170D01*
X1188045Y1339890D01*
X1186492Y1342252D01*
X1184837Y1345323D01*
X1184821Y1345354D01*
X1179081Y1357513D01*
X1173738Y1370278D01*
X1168827Y1383549D01*
X1164379Y1397226D01*
X1160430Y1411210D01*
X1157013Y1425402D01*
X1155772Y1431266D01*
X1154691Y1437214D01*
X1154000Y1442527D01*
X1153694Y1447261D01*
X1153770Y1451471D01*
X1154157Y1454830D01*
X1155606Y1461174D01*
X1157744Y1467152D01*
X1160546Y1472730D01*
X1163988Y1477872D01*
X1168048Y1482544D01*
X1172699Y1486711D01*
X1177920Y1490338D01*
X1178751Y1490833D01*
X1184022Y1493463D01*
X1189645Y1495434D01*
X1195514Y1496736D01*
X1201520Y1497358D01*
X1207557Y1497289D01*
G36*
X1207557Y1497289D02*
G01*
X1213519Y1496520D01*
X1219299Y1495039D01*
X1219680Y1494912D01*
X1225286Y1492621D01*
X1230581Y1489641D01*
X1235497Y1486039D01*
X1239964Y1481883D01*
X1243915Y1477239D01*
X1247280Y1472174D01*
X1249991Y1466754D01*
X1250859Y1464553D01*
X1251314Y1463124D01*
X1251867Y1461102D01*
X1252471Y1458674D01*
X1253081Y1456026D01*
X1253649Y1453347D01*
X1253658Y1453303D01*
X1255821Y1443330D01*
X1258180Y1433953D01*
X1260791Y1424987D01*
X1263712Y1416248D01*
X1266996Y1407550D01*
X1268951Y1402780D01*
X1270319Y1399329D01*
X1271257Y1396446D01*
X1271769Y1394034D01*
X1271862Y1391999D01*
X1271541Y1390243D01*
X1270810Y1388671D01*
X1269815Y1387343D01*
X1268920Y1386416D01*
X1267949Y1385650D01*
X1266764Y1384976D01*
X1265224Y1384328D01*
X1263193Y1383640D01*
X1260531Y1382843D01*
X1260442Y1382817D01*
X1254763Y1381049D01*
X1249590Y1379144D01*
X1244636Y1376992D01*
X1241330Y1375372D01*
X1233816Y1371099D01*
X1226658Y1366146D01*
X1219929Y1360578D01*
X1213700Y1354458D01*
X1208046Y1347848D01*
X1205269Y1344116D01*
X1203076Y1341236D01*
X1201043Y1339061D01*
X1199097Y1337537D01*
X1197165Y1336609D01*
X1195175Y1336223D01*
X1194659Y1336205D01*
X1192804Y1336393D01*
X1191130Y1337027D01*
X1189568Y1338170D01*
X1188045Y1339890D01*
X1186492Y1342252D01*
X1184837Y1345323D01*
X1184821Y1345354D01*
X1179081Y1357513D01*
X1173738Y1370278D01*
X1168827Y1383549D01*
X1164379Y1397226D01*
X1160430Y1411210D01*
X1157013Y1425402D01*
X1155772Y1431266D01*
X1154691Y1437214D01*
X1154000Y1442527D01*
X1153694Y1447261D01*
X1153770Y1451471D01*
X1154157Y1454830D01*
X1155606Y1461174D01*
X1157744Y1467152D01*
X1160546Y1472730D01*
X1163988Y1477872D01*
X1168048Y1482544D01*
X1172699Y1486711D01*
X1177920Y1490338D01*
X1178751Y1490833D01*
X1184022Y1493463D01*
X1189645Y1495434D01*
X1195514Y1496736D01*
X1201520Y1497358D01*
X1207557Y1497289D01*
G37*
X1260884Y1326721D02*
X1261571Y1326661D01*
X1262229Y1326557D01*
X1262894Y1326377D01*
X1263601Y1326091D01*
X1264386Y1325666D01*
X1265285Y1325072D01*
X1266334Y1324278D01*
X1267568Y1323251D01*
X1269024Y1321962D01*
X1270736Y1320378D01*
X1272741Y1318469D01*
X1275073Y1316203D01*
X1277770Y1313549D01*
X1280867Y1310476D01*
X1284399Y1306952D01*
X1288402Y1302946D01*
X1292912Y1298428D01*
X1295537Y1295797D01*
X1300182Y1291141D01*
X1304299Y1287011D01*
X1307919Y1283374D01*
X1311077Y1280193D01*
X1313805Y1277436D01*
X1316136Y1275067D01*
X1318102Y1273052D01*
X1319737Y1271357D01*
X1321072Y1269946D01*
X1322142Y1268785D01*
X1322979Y1267841D01*
X1323616Y1267077D01*
X1324085Y1266460D01*
X1324420Y1265955D01*
X1324653Y1265528D01*
X1324817Y1265143D01*
X1324894Y1264926D01*
X1325566Y1261772D01*
X1325505Y1258681D01*
X1324752Y1255759D01*
X1323346Y1253112D01*
X1321327Y1250848D01*
X1319026Y1249228D01*
X1317944Y1248669D01*
X1316993Y1248323D01*
X1315921Y1248139D01*
X1314479Y1248068D01*
X1313144Y1248058D01*
X1311190Y1248093D01*
X1309772Y1248224D01*
X1308634Y1248495D01*
X1307519Y1248947D01*
X1307390Y1249008D01*
X1306947Y1249275D01*
X1306313Y1249751D01*
X1305460Y1250466D01*
X1304356Y1251449D01*
X1302972Y1252729D01*
X1301277Y1254334D01*
X1299241Y1256295D01*
X1296834Y1258640D01*
X1294026Y1261398D01*
X1290787Y1264599D01*
X1287086Y1268271D01*
X1282894Y1272443D01*
X1278181Y1277144D01*
X1277145Y1278179D01*
X1272463Y1282856D01*
X1268313Y1287008D01*
X1264661Y1290670D01*
X1261475Y1293875D01*
X1258722Y1296656D01*
X1256370Y1299048D01*
X1254386Y1301085D01*
X1252738Y1302800D01*
X1251393Y1304228D01*
X1250318Y1305402D01*
X1249481Y1306356D01*
X1248849Y1307125D01*
X1248390Y1307742D01*
X1248071Y1308240D01*
X1247876Y1308616D01*
X1247023Y1311172D01*
X1246651Y1313882D01*
X1246788Y1316443D01*
X1246988Y1317341D01*
X1248212Y1320344D01*
X1250003Y1322842D01*
X1252280Y1324778D01*
X1254967Y1326097D01*
X1257983Y1326741D01*
X1260133Y1326768D01*
X1260884Y1326721D01*
G36*
X1260884Y1326721D02*
G01*
X1261571Y1326661D01*
X1262229Y1326557D01*
X1262894Y1326377D01*
X1263601Y1326091D01*
X1264386Y1325666D01*
X1265285Y1325072D01*
X1266334Y1324278D01*
X1267568Y1323251D01*
X1269024Y1321962D01*
X1270736Y1320378D01*
X1272741Y1318469D01*
X1275073Y1316203D01*
X1277770Y1313549D01*
X1280867Y1310476D01*
X1284399Y1306952D01*
X1288402Y1302946D01*
X1292912Y1298428D01*
X1295537Y1295797D01*
X1300182Y1291141D01*
X1304299Y1287011D01*
X1307919Y1283374D01*
X1311077Y1280193D01*
X1313805Y1277436D01*
X1316136Y1275067D01*
X1318102Y1273052D01*
X1319737Y1271357D01*
X1321072Y1269946D01*
X1322142Y1268785D01*
X1322979Y1267841D01*
X1323616Y1267077D01*
X1324085Y1266460D01*
X1324420Y1265955D01*
X1324653Y1265528D01*
X1324817Y1265143D01*
X1324894Y1264926D01*
X1325566Y1261772D01*
X1325505Y1258681D01*
X1324752Y1255759D01*
X1323346Y1253112D01*
X1321327Y1250848D01*
X1319026Y1249228D01*
X1317944Y1248669D01*
X1316993Y1248323D01*
X1315921Y1248139D01*
X1314479Y1248068D01*
X1313144Y1248058D01*
X1311190Y1248093D01*
X1309772Y1248224D01*
X1308634Y1248495D01*
X1307519Y1248947D01*
X1307390Y1249008D01*
X1306947Y1249275D01*
X1306313Y1249751D01*
X1305460Y1250466D01*
X1304356Y1251449D01*
X1302972Y1252729D01*
X1301277Y1254334D01*
X1299241Y1256295D01*
X1296834Y1258640D01*
X1294026Y1261398D01*
X1290787Y1264599D01*
X1287086Y1268271D01*
X1282894Y1272443D01*
X1278181Y1277144D01*
X1277145Y1278179D01*
X1272463Y1282856D01*
X1268313Y1287008D01*
X1264661Y1290670D01*
X1261475Y1293875D01*
X1258722Y1296656D01*
X1256370Y1299048D01*
X1254386Y1301085D01*
X1252738Y1302800D01*
X1251393Y1304228D01*
X1250318Y1305402D01*
X1249481Y1306356D01*
X1248849Y1307125D01*
X1248390Y1307742D01*
X1248071Y1308240D01*
X1247876Y1308616D01*
X1247023Y1311172D01*
X1246651Y1313882D01*
X1246788Y1316443D01*
X1246988Y1317341D01*
X1248212Y1320344D01*
X1250003Y1322842D01*
X1252280Y1324778D01*
X1254967Y1326097D01*
X1257983Y1326741D01*
X1260133Y1326768D01*
X1260884Y1326721D01*
G37*
X1393883Y1272475D02*
X1396428Y1271702D01*
X1398671Y1270782D01*
X1410723Y1265838D01*
X1423152Y1261510D01*
X1436016Y1257780D01*
X1449373Y1254630D01*
X1452442Y1254001D01*
X1455910Y1253291D01*
X1458748Y1252660D01*
X1461110Y1252063D01*
X1463149Y1251455D01*
X1465020Y1250792D01*
X1466876Y1250029D01*
X1468260Y1249407D01*
X1473558Y1246533D01*
X1478465Y1243018D01*
X1482923Y1238936D01*
X1486876Y1234359D01*
X1490266Y1229360D01*
X1493037Y1224011D01*
X1495130Y1218387D01*
X1496295Y1213655D01*
X1497107Y1207379D01*
X1497161Y1201216D01*
X1496488Y1195214D01*
X1495122Y1189423D01*
X1493095Y1183890D01*
X1490440Y1178664D01*
X1487188Y1173794D01*
X1483373Y1169328D01*
X1479027Y1165314D01*
X1474183Y1161802D01*
X1468872Y1158840D01*
X1463129Y1156476D01*
X1456984Y1154758D01*
X1456813Y1154721D01*
X1455045Y1154403D01*
X1453121Y1154191D01*
X1450851Y1154071D01*
X1448046Y1154031D01*
X1446891Y1154033D01*
X1444723Y1154071D01*
X1442626Y1154171D01*
X1440502Y1154351D01*
X1438249Y1154625D01*
X1435767Y1155010D01*
X1432956Y1155523D01*
X1429716Y1156180D01*
X1425945Y1156996D01*
X1421544Y1157988D01*
X1419705Y1158409D01*
X1408364Y1161261D01*
X1396746Y1164640D01*
X1385037Y1168481D01*
X1373423Y1172717D01*
X1362089Y1177281D01*
X1351222Y1182107D01*
X1344105Y1185548D01*
X1341352Y1186997D01*
X1339249Y1188276D01*
X1337692Y1189468D01*
X1336577Y1190652D01*
X1335800Y1191910D01*
X1335713Y1192096D01*
X1335115Y1193899D01*
X1335120Y1195581D01*
X1335516Y1197005D01*
X1336601Y1198977D01*
X1338433Y1201001D01*
X1340971Y1203036D01*
X1341450Y1203366D01*
X1348773Y1208773D01*
X1355520Y1214694D01*
X1361666Y1221098D01*
X1367188Y1227956D01*
X1372060Y1235240D01*
X1376260Y1242920D01*
X1378811Y1248575D01*
X1380045Y1251694D01*
X1381167Y1254833D01*
X1382242Y1258195D01*
X1383336Y1261983D01*
X1384221Y1265277D01*
X1384753Y1267101D01*
X1385294Y1268406D01*
X1385978Y1269456D01*
X1386723Y1270298D01*
X1388280Y1271642D01*
X1389918Y1272450D01*
X1391749Y1272726D01*
X1393883Y1272475D01*
G36*
X1393883Y1272475D02*
G01*
X1396428Y1271702D01*
X1398671Y1270782D01*
X1410723Y1265838D01*
X1423152Y1261510D01*
X1436016Y1257780D01*
X1449373Y1254630D01*
X1452442Y1254001D01*
X1455910Y1253291D01*
X1458748Y1252660D01*
X1461110Y1252063D01*
X1463149Y1251455D01*
X1465020Y1250792D01*
X1466876Y1250029D01*
X1468260Y1249407D01*
X1473558Y1246533D01*
X1478465Y1243018D01*
X1482923Y1238936D01*
X1486876Y1234359D01*
X1490266Y1229360D01*
X1493037Y1224011D01*
X1495130Y1218387D01*
X1496295Y1213655D01*
X1497107Y1207379D01*
X1497161Y1201216D01*
X1496488Y1195214D01*
X1495122Y1189423D01*
X1493095Y1183890D01*
X1490440Y1178664D01*
X1487188Y1173794D01*
X1483373Y1169328D01*
X1479027Y1165314D01*
X1474183Y1161802D01*
X1468872Y1158840D01*
X1463129Y1156476D01*
X1456984Y1154758D01*
X1456813Y1154721D01*
X1455045Y1154403D01*
X1453121Y1154191D01*
X1450851Y1154071D01*
X1448046Y1154031D01*
X1446891Y1154033D01*
X1444723Y1154071D01*
X1442626Y1154171D01*
X1440502Y1154351D01*
X1438249Y1154625D01*
X1435767Y1155010D01*
X1432956Y1155523D01*
X1429716Y1156180D01*
X1425945Y1156996D01*
X1421544Y1157988D01*
X1419705Y1158409D01*
X1408364Y1161261D01*
X1396746Y1164640D01*
X1385037Y1168481D01*
X1373423Y1172717D01*
X1362089Y1177281D01*
X1351222Y1182107D01*
X1344105Y1185548D01*
X1341352Y1186997D01*
X1339249Y1188276D01*
X1337692Y1189468D01*
X1336577Y1190652D01*
X1335800Y1191910D01*
X1335713Y1192096D01*
X1335115Y1193899D01*
X1335120Y1195581D01*
X1335516Y1197005D01*
X1336601Y1198977D01*
X1338433Y1201001D01*
X1340971Y1203036D01*
X1341450Y1203366D01*
X1348773Y1208773D01*
X1355520Y1214694D01*
X1361666Y1221098D01*
X1367188Y1227956D01*
X1372060Y1235240D01*
X1376260Y1242920D01*
X1378811Y1248575D01*
X1380045Y1251694D01*
X1381167Y1254833D01*
X1382242Y1258195D01*
X1383336Y1261983D01*
X1384221Y1265277D01*
X1384753Y1267101D01*
X1385294Y1268406D01*
X1385978Y1269456D01*
X1386723Y1270298D01*
X1388280Y1271642D01*
X1389918Y1272450D01*
X1391749Y1272726D01*
X1393883Y1272475D01*
G37*
%TO.C,MH1*%
X-1389984Y1271069D02*
X-1388412Y1270338D01*
X-1387084Y1269343D01*
X-1386158Y1268448D01*
X-1385391Y1267477D01*
X-1384717Y1266292D01*
X-1384070Y1264752D01*
X-1383381Y1262721D01*
X-1382584Y1260059D01*
X-1382559Y1259970D01*
X-1380790Y1254291D01*
X-1378886Y1249118D01*
X-1376733Y1244164D01*
X-1375114Y1240858D01*
X-1370840Y1233344D01*
X-1365888Y1226186D01*
X-1360320Y1219457D01*
X-1354199Y1213228D01*
X-1347589Y1207574D01*
X-1343857Y1204797D01*
X-1340978Y1202604D01*
X-1338802Y1200571D01*
X-1337278Y1198625D01*
X-1336350Y1196693D01*
X-1335964Y1194703D01*
X-1335946Y1194187D01*
X-1336135Y1192332D01*
X-1336768Y1190658D01*
X-1337912Y1189096D01*
X-1339632Y1187573D01*
X-1341994Y1186020D01*
X-1345064Y1184365D01*
X-1345095Y1184349D01*
X-1357254Y1178609D01*
X-1370019Y1173267D01*
X-1383290Y1168355D01*
X-1396968Y1163907D01*
X-1410952Y1159958D01*
X-1425143Y1156541D01*
X-1431007Y1155300D01*
X-1436955Y1154219D01*
X-1442268Y1153528D01*
X-1447003Y1153222D01*
X-1451213Y1153298D01*
X-1454572Y1153685D01*
X-1460915Y1155134D01*
X-1466893Y1157272D01*
X-1472471Y1160074D01*
X-1477614Y1163517D01*
X-1482286Y1167576D01*
X-1486453Y1172227D01*
X-1490079Y1177448D01*
X-1490575Y1178279D01*
X-1493204Y1183550D01*
X-1495175Y1189174D01*
X-1496477Y1195042D01*
X-1497099Y1201048D01*
X-1497031Y1207085D01*
X-1496261Y1213047D01*
X-1494780Y1218827D01*
X-1494654Y1219208D01*
X-1492362Y1224814D01*
X-1489382Y1230109D01*
X-1485781Y1235025D01*
X-1481625Y1239492D01*
X-1476980Y1243443D01*
X-1471915Y1246808D01*
X-1466495Y1249519D01*
X-1464294Y1250387D01*
X-1462866Y1250842D01*
X-1460843Y1251395D01*
X-1458415Y1252000D01*
X-1455767Y1252609D01*
X-1453088Y1253177D01*
X-1453044Y1253186D01*
X-1443071Y1255349D01*
X-1433694Y1257708D01*
X-1424729Y1260320D01*
X-1415989Y1263240D01*
X-1407291Y1266524D01*
X-1402521Y1268479D01*
X-1399071Y1269847D01*
X-1396187Y1270785D01*
X-1393776Y1271298D01*
X-1391740Y1271390D01*
X-1389984Y1271069D01*
G36*
X-1389984Y1271069D02*
G01*
X-1388412Y1270338D01*
X-1387084Y1269343D01*
X-1386158Y1268448D01*
X-1385391Y1267477D01*
X-1384717Y1266292D01*
X-1384070Y1264752D01*
X-1383381Y1262721D01*
X-1382584Y1260059D01*
X-1382559Y1259970D01*
X-1380790Y1254291D01*
X-1378886Y1249118D01*
X-1376733Y1244164D01*
X-1375114Y1240858D01*
X-1370840Y1233344D01*
X-1365888Y1226186D01*
X-1360320Y1219457D01*
X-1354199Y1213228D01*
X-1347589Y1207574D01*
X-1343857Y1204797D01*
X-1340978Y1202604D01*
X-1338802Y1200571D01*
X-1337278Y1198625D01*
X-1336350Y1196693D01*
X-1335964Y1194703D01*
X-1335946Y1194187D01*
X-1336135Y1192332D01*
X-1336768Y1190658D01*
X-1337912Y1189096D01*
X-1339632Y1187573D01*
X-1341994Y1186020D01*
X-1345064Y1184365D01*
X-1345095Y1184349D01*
X-1357254Y1178609D01*
X-1370019Y1173267D01*
X-1383290Y1168355D01*
X-1396968Y1163907D01*
X-1410952Y1159958D01*
X-1425143Y1156541D01*
X-1431007Y1155300D01*
X-1436955Y1154219D01*
X-1442268Y1153528D01*
X-1447003Y1153222D01*
X-1451213Y1153298D01*
X-1454572Y1153685D01*
X-1460915Y1155134D01*
X-1466893Y1157272D01*
X-1472471Y1160074D01*
X-1477614Y1163517D01*
X-1482286Y1167576D01*
X-1486453Y1172227D01*
X-1490079Y1177448D01*
X-1490575Y1178279D01*
X-1493204Y1183550D01*
X-1495175Y1189174D01*
X-1496477Y1195042D01*
X-1497099Y1201048D01*
X-1497031Y1207085D01*
X-1496261Y1213047D01*
X-1494780Y1218827D01*
X-1494654Y1219208D01*
X-1492362Y1224814D01*
X-1489382Y1230109D01*
X-1485781Y1235025D01*
X-1481625Y1239492D01*
X-1476980Y1243443D01*
X-1471915Y1246808D01*
X-1466495Y1249519D01*
X-1464294Y1250387D01*
X-1462866Y1250842D01*
X-1460843Y1251395D01*
X-1458415Y1252000D01*
X-1455767Y1252609D01*
X-1453088Y1253177D01*
X-1453044Y1253186D01*
X-1443071Y1255349D01*
X-1433694Y1257708D01*
X-1424729Y1260320D01*
X-1415989Y1263240D01*
X-1407291Y1266524D01*
X-1402521Y1268479D01*
X-1399071Y1269847D01*
X-1396187Y1270785D01*
X-1393776Y1271298D01*
X-1391740Y1271390D01*
X-1389984Y1271069D01*
G37*
X-1194956Y1496016D02*
X-1189164Y1494651D01*
X-1183631Y1492624D01*
X-1178405Y1489968D01*
X-1173535Y1486716D01*
X-1169069Y1482901D01*
X-1165056Y1478555D01*
X-1161543Y1473711D01*
X-1158581Y1468401D01*
X-1156217Y1462657D01*
X-1154500Y1456512D01*
X-1154463Y1456341D01*
X-1154145Y1454573D01*
X-1153932Y1452649D01*
X-1153813Y1450379D01*
X-1153772Y1447574D01*
X-1153775Y1446419D01*
X-1153812Y1444251D01*
X-1153913Y1442154D01*
X-1154092Y1440030D01*
X-1154366Y1437777D01*
X-1154752Y1435296D01*
X-1155265Y1432485D01*
X-1155921Y1429244D01*
X-1156737Y1425473D01*
X-1157729Y1421072D01*
X-1158151Y1419233D01*
X-1161002Y1407892D01*
X-1164382Y1396274D01*
X-1168223Y1384565D01*
X-1172459Y1372951D01*
X-1177023Y1361618D01*
X-1181849Y1350750D01*
X-1185290Y1343633D01*
X-1186738Y1340880D01*
X-1188018Y1338777D01*
X-1189209Y1337220D01*
X-1190393Y1336105D01*
X-1191651Y1335328D01*
X-1191837Y1335241D01*
X-1193640Y1334643D01*
X-1195323Y1334648D01*
X-1196747Y1335044D01*
X-1198718Y1336129D01*
X-1200743Y1337961D01*
X-1202777Y1340499D01*
X-1203107Y1340978D01*
X-1208515Y1348301D01*
X-1214435Y1355048D01*
X-1220839Y1361194D01*
X-1227698Y1366716D01*
X-1234981Y1371588D01*
X-1242661Y1375788D01*
X-1248316Y1378339D01*
X-1251435Y1379573D01*
X-1254574Y1380695D01*
X-1257937Y1381770D01*
X-1261724Y1382864D01*
X-1265018Y1383749D01*
X-1266842Y1384281D01*
X-1268147Y1384822D01*
X-1269197Y1385506D01*
X-1270039Y1386251D01*
X-1271383Y1387808D01*
X-1272191Y1389446D01*
X-1272467Y1391277D01*
X-1272217Y1393411D01*
X-1271443Y1395956D01*
X-1270524Y1398199D01*
X-1265579Y1410251D01*
X-1261251Y1422680D01*
X-1257521Y1435544D01*
X-1254371Y1448902D01*
X-1253743Y1451970D01*
X-1253033Y1455438D01*
X-1252401Y1458276D01*
X-1251804Y1460638D01*
X-1251196Y1462677D01*
X-1250534Y1464548D01*
X-1249771Y1466404D01*
X-1249148Y1467788D01*
X-1246274Y1473086D01*
X-1242760Y1477993D01*
X-1238678Y1482451D01*
X-1234100Y1486404D01*
X-1229101Y1489794D01*
X-1223753Y1492565D01*
X-1218128Y1494658D01*
X-1213396Y1495823D01*
X-1207120Y1496635D01*
X-1200957Y1496689D01*
X-1194956Y1496016D01*
G36*
X-1194956Y1496016D02*
G01*
X-1189164Y1494651D01*
X-1183631Y1492624D01*
X-1178405Y1489968D01*
X-1173535Y1486716D01*
X-1169069Y1482901D01*
X-1165056Y1478555D01*
X-1161543Y1473711D01*
X-1158581Y1468401D01*
X-1156217Y1462657D01*
X-1154500Y1456512D01*
X-1154463Y1456341D01*
X-1154145Y1454573D01*
X-1153932Y1452649D01*
X-1153813Y1450379D01*
X-1153772Y1447574D01*
X-1153775Y1446419D01*
X-1153812Y1444251D01*
X-1153913Y1442154D01*
X-1154092Y1440030D01*
X-1154366Y1437777D01*
X-1154752Y1435296D01*
X-1155265Y1432485D01*
X-1155921Y1429244D01*
X-1156737Y1425473D01*
X-1157729Y1421072D01*
X-1158151Y1419233D01*
X-1161002Y1407892D01*
X-1164382Y1396274D01*
X-1168223Y1384565D01*
X-1172459Y1372951D01*
X-1177023Y1361618D01*
X-1181849Y1350750D01*
X-1185290Y1343633D01*
X-1186738Y1340880D01*
X-1188018Y1338777D01*
X-1189209Y1337220D01*
X-1190393Y1336105D01*
X-1191651Y1335328D01*
X-1191837Y1335241D01*
X-1193640Y1334643D01*
X-1195323Y1334648D01*
X-1196747Y1335044D01*
X-1198718Y1336129D01*
X-1200743Y1337961D01*
X-1202777Y1340499D01*
X-1203107Y1340978D01*
X-1208515Y1348301D01*
X-1214435Y1355048D01*
X-1220839Y1361194D01*
X-1227698Y1366716D01*
X-1234981Y1371588D01*
X-1242661Y1375788D01*
X-1248316Y1378339D01*
X-1251435Y1379573D01*
X-1254574Y1380695D01*
X-1257937Y1381770D01*
X-1261724Y1382864D01*
X-1265018Y1383749D01*
X-1266842Y1384281D01*
X-1268147Y1384822D01*
X-1269197Y1385506D01*
X-1270039Y1386251D01*
X-1271383Y1387808D01*
X-1272191Y1389446D01*
X-1272467Y1391277D01*
X-1272217Y1393411D01*
X-1271443Y1395956D01*
X-1270524Y1398199D01*
X-1265579Y1410251D01*
X-1261251Y1422680D01*
X-1257521Y1435544D01*
X-1254371Y1448902D01*
X-1253743Y1451970D01*
X-1253033Y1455438D01*
X-1252401Y1458276D01*
X-1251804Y1460638D01*
X-1251196Y1462677D01*
X-1250534Y1464548D01*
X-1249771Y1466404D01*
X-1249148Y1467788D01*
X-1246274Y1473086D01*
X-1242760Y1477993D01*
X-1238678Y1482451D01*
X-1234100Y1486404D01*
X-1229101Y1489794D01*
X-1223753Y1492565D01*
X-1218128Y1494658D01*
X-1213396Y1495823D01*
X-1207120Y1496635D01*
X-1200957Y1496689D01*
X-1194956Y1496016D01*
G37*
X-1249308Y1346221D02*
X-1247600Y1346155D01*
X-1246248Y1346027D01*
X-1245180Y1345834D01*
X-1244324Y1345570D01*
X-1243607Y1345228D01*
X-1242955Y1344804D01*
X-1242296Y1344291D01*
X-1241969Y1344023D01*
X-1240882Y1342872D01*
X-1239850Y1341353D01*
X-1239020Y1339731D01*
X-1238538Y1338271D01*
X-1238473Y1337697D01*
X-1238386Y1337113D01*
X-1238138Y1335836D01*
X-1237745Y1333949D01*
X-1237225Y1331533D01*
X-1236596Y1328668D01*
X-1235877Y1325436D01*
X-1235083Y1321917D01*
X-1234306Y1318511D01*
X-1233243Y1313850D01*
X-1232357Y1309890D01*
X-1231637Y1306564D01*
X-1231075Y1303803D01*
X-1230658Y1301536D01*
X-1230377Y1299695D01*
X-1230223Y1298211D01*
X-1230184Y1297015D01*
X-1230251Y1296037D01*
X-1230413Y1295210D01*
X-1230660Y1294462D01*
X-1230733Y1294281D01*
X-1231915Y1292274D01*
X-1233607Y1290449D01*
X-1235459Y1289143D01*
X-1237296Y1288511D01*
X-1239520Y1288243D01*
X-1241816Y1288340D01*
X-1243870Y1288801D01*
X-1244652Y1289138D01*
X-1246260Y1290239D01*
X-1247798Y1291715D01*
X-1249013Y1293302D01*
X-1249492Y1294221D01*
X-1249726Y1294965D01*
X-1250095Y1296345D01*
X-1250567Y1298222D01*
X-1251105Y1300457D01*
X-1251676Y1302912D01*
X-1251768Y1303317D01*
X-1252314Y1305706D01*
X-1252804Y1307815D01*
X-1253209Y1309529D01*
X-1253503Y1310730D01*
X-1253657Y1311302D01*
X-1253670Y1311333D01*
X-1253939Y1311076D01*
X-1254612Y1310298D01*
X-1255603Y1309101D01*
X-1256827Y1307590D01*
X-1257617Y1306599D01*
X-1267578Y1294685D01*
X-1278137Y1283292D01*
X-1289295Y1272421D01*
X-1301051Y1262071D01*
X-1307038Y1257184D01*
X-1308749Y1255794D01*
X-1310192Y1254568D01*
X-1311271Y1253592D01*
X-1311894Y1252950D01*
X-1311999Y1252735D01*
X-1311541Y1252566D01*
X-1310428Y1252238D01*
X-1308777Y1251783D01*
X-1306705Y1251233D01*
X-1304328Y1250619D01*
X-1303362Y1250374D01*
X-1300267Y1249589D01*
X-1297837Y1248954D01*
X-1295967Y1248431D01*
X-1294549Y1247982D01*
X-1293480Y1247568D01*
X-1292653Y1247149D01*
X-1291962Y1246688D01*
X-1291302Y1246146D01*
X-1290952Y1245834D01*
X-1289229Y1243788D01*
X-1288161Y1241455D01*
X-1287731Y1238966D01*
X-1287919Y1236452D01*
X-1288707Y1234046D01*
X-1290076Y1231878D01*
X-1292008Y1230080D01*
X-1293291Y1229304D01*
X-1294404Y1228801D01*
X-1295519Y1228470D01*
X-1296747Y1228320D01*
X-1298196Y1228360D01*
X-1299978Y1228598D01*
X-1302203Y1229043D01*
X-1304982Y1229705D01*
X-1307926Y1230460D01*
X-1310751Y1231197D01*
X-1314135Y1232077D01*
X-1317870Y1233046D01*
X-1321747Y1234049D01*
X-1325556Y1235033D01*
X-1328934Y1235904D01*
X-1332622Y1236861D01*
X-1335625Y1237670D01*
X-1338030Y1238366D01*
X-1339923Y1238987D01*
X-1341391Y1239569D01*
X-1342521Y1240150D01*
X-1343400Y1240767D01*
X-1344114Y1241455D01*
X-1344750Y1242253D01*
X-1345130Y1242800D01*
X-1345526Y1243408D01*
X-1345857Y1244002D01*
X-1346124Y1244652D01*
X-1346330Y1245426D01*
X-1346477Y1246395D01*
X-1346566Y1247626D01*
X-1346600Y1249190D01*
X-1346580Y1251156D01*
X-1346509Y1253592D01*
X-1346388Y1256569D01*
X-1346220Y1260154D01*
X-1346007Y1264418D01*
X-1345844Y1267594D01*
X-1345633Y1271579D01*
X-1345421Y1275361D01*
X-1345214Y1278860D01*
X-1345016Y1281994D01*
X-1344834Y1284681D01*
X-1344672Y1286840D01*
X-1344536Y1288388D01*
X-1344431Y1289245D01*
X-1344411Y1289339D01*
X-1343415Y1291668D01*
X-1341858Y1293572D01*
X-1339870Y1295014D01*
X-1337582Y1295958D01*
X-1335125Y1296366D01*
X-1332631Y1296202D01*
X-1330229Y1295428D01*
X-1328051Y1294009D01*
X-1328000Y1293964D01*
X-1326562Y1292360D01*
X-1325446Y1290489D01*
X-1325390Y1290363D01*
X-1325069Y1289578D01*
X-1324840Y1288852D01*
X-1324695Y1288044D01*
X-1324624Y1287012D01*
X-1324616Y1285614D01*
X-1324662Y1283708D01*
X-1324753Y1281153D01*
X-1324754Y1281121D01*
X-1324856Y1278606D01*
X-1324971Y1276169D01*
X-1325087Y1274002D01*
X-1325196Y1272297D01*
X-1325264Y1271451D01*
X-1325361Y1270457D01*
X-1325382Y1269758D01*
X-1325251Y1269381D01*
X-1324891Y1269352D01*
X-1324224Y1269700D01*
X-1323175Y1270451D01*
X-1321667Y1271633D01*
X-1319623Y1273272D01*
X-1319237Y1273581D01*
X-1310930Y1280523D01*
X-1302721Y1287927D01*
X-1294731Y1295668D01*
X-1287081Y1303625D01*
X-1279889Y1311674D01*
X-1273276Y1319694D01*
X-1270015Y1323933D01*
X-1268864Y1325470D01*
X-1272421Y1325217D01*
X-1274125Y1325120D01*
X-1276370Y1325029D01*
X-1278903Y1324952D01*
X-1281471Y1324898D01*
X-1282328Y1324885D01*
X-1284846Y1324868D01*
X-1286716Y1324895D01*
X-1288083Y1324978D01*
X-1289093Y1325127D01*
X-1289889Y1325355D01*
X-1290265Y1325507D01*
X-1292545Y1326924D01*
X-1294390Y1328897D01*
X-1295694Y1331266D01*
X-1296351Y1333867D01*
X-1296409Y1334897D01*
X-1296046Y1337470D01*
X-1295030Y1339898D01*
X-1293476Y1342009D01*
X-1291493Y1343631D01*
X-1290362Y1344210D01*
X-1289878Y1344400D01*
X-1289359Y1344564D01*
X-1288737Y1344707D01*
X-1287945Y1344834D01*
X-1286917Y1344948D01*
X-1285587Y1345055D01*
X-1283887Y1345159D01*
X-1281750Y1345264D01*
X-1279111Y1345375D01*
X-1275901Y1345496D01*
X-1272055Y1345631D01*
X-1267505Y1345785D01*
X-1265749Y1345844D01*
X-1261165Y1345996D01*
X-1257302Y1346115D01*
X-1254087Y1346196D01*
X-1251446Y1346233D01*
X-1249308Y1346221D01*
G36*
X-1249308Y1346221D02*
G01*
X-1247600Y1346155D01*
X-1246248Y1346027D01*
X-1245180Y1345834D01*
X-1244324Y1345570D01*
X-1243607Y1345228D01*
X-1242955Y1344804D01*
X-1242296Y1344291D01*
X-1241969Y1344023D01*
X-1240882Y1342872D01*
X-1239850Y1341353D01*
X-1239020Y1339731D01*
X-1238538Y1338271D01*
X-1238473Y1337697D01*
X-1238386Y1337113D01*
X-1238138Y1335836D01*
X-1237745Y1333949D01*
X-1237225Y1331533D01*
X-1236596Y1328668D01*
X-1235877Y1325436D01*
X-1235083Y1321917D01*
X-1234306Y1318511D01*
X-1233243Y1313850D01*
X-1232357Y1309890D01*
X-1231637Y1306564D01*
X-1231075Y1303803D01*
X-1230658Y1301536D01*
X-1230377Y1299695D01*
X-1230223Y1298211D01*
X-1230184Y1297015D01*
X-1230251Y1296037D01*
X-1230413Y1295210D01*
X-1230660Y1294462D01*
X-1230733Y1294281D01*
X-1231915Y1292274D01*
X-1233607Y1290449D01*
X-1235459Y1289143D01*
X-1237296Y1288511D01*
X-1239520Y1288243D01*
X-1241816Y1288340D01*
X-1243870Y1288801D01*
X-1244652Y1289138D01*
X-1246260Y1290239D01*
X-1247798Y1291715D01*
X-1249013Y1293302D01*
X-1249492Y1294221D01*
X-1249726Y1294965D01*
X-1250095Y1296345D01*
X-1250567Y1298222D01*
X-1251105Y1300457D01*
X-1251676Y1302912D01*
X-1251768Y1303317D01*
X-1252314Y1305706D01*
X-1252804Y1307815D01*
X-1253209Y1309529D01*
X-1253503Y1310730D01*
X-1253657Y1311302D01*
X-1253670Y1311333D01*
X-1253939Y1311076D01*
X-1254612Y1310298D01*
X-1255603Y1309101D01*
X-1256827Y1307590D01*
X-1257617Y1306599D01*
X-1267578Y1294685D01*
X-1278137Y1283292D01*
X-1289295Y1272421D01*
X-1301051Y1262071D01*
X-1307038Y1257184D01*
X-1308749Y1255794D01*
X-1310192Y1254568D01*
X-1311271Y1253592D01*
X-1311894Y1252950D01*
X-1311999Y1252735D01*
X-1311541Y1252566D01*
X-1310428Y1252238D01*
X-1308777Y1251783D01*
X-1306705Y1251233D01*
X-1304328Y1250619D01*
X-1303362Y1250374D01*
X-1300267Y1249589D01*
X-1297837Y1248954D01*
X-1295967Y1248431D01*
X-1294549Y1247982D01*
X-1293480Y1247568D01*
X-1292653Y1247149D01*
X-1291962Y1246688D01*
X-1291302Y1246146D01*
X-1290952Y1245834D01*
X-1289229Y1243788D01*
X-1288161Y1241455D01*
X-1287731Y1238966D01*
X-1287919Y1236452D01*
X-1288707Y1234046D01*
X-1290076Y1231878D01*
X-1292008Y1230080D01*
X-1293291Y1229304D01*
X-1294404Y1228801D01*
X-1295519Y1228470D01*
X-1296747Y1228320D01*
X-1298196Y1228360D01*
X-1299978Y1228598D01*
X-1302203Y1229043D01*
X-1304982Y1229705D01*
X-1307926Y1230460D01*
X-1310751Y1231197D01*
X-1314135Y1232077D01*
X-1317870Y1233046D01*
X-1321747Y1234049D01*
X-1325556Y1235033D01*
X-1328934Y1235904D01*
X-1332622Y1236861D01*
X-1335625Y1237670D01*
X-1338030Y1238366D01*
X-1339923Y1238987D01*
X-1341391Y1239569D01*
X-1342521Y1240150D01*
X-1343400Y1240767D01*
X-1344114Y1241455D01*
X-1344750Y1242253D01*
X-1345130Y1242800D01*
X-1345526Y1243408D01*
X-1345857Y1244002D01*
X-1346124Y1244652D01*
X-1346330Y1245426D01*
X-1346477Y1246395D01*
X-1346566Y1247626D01*
X-1346600Y1249190D01*
X-1346580Y1251156D01*
X-1346509Y1253592D01*
X-1346388Y1256569D01*
X-1346220Y1260154D01*
X-1346007Y1264418D01*
X-1345844Y1267594D01*
X-1345633Y1271579D01*
X-1345421Y1275361D01*
X-1345214Y1278860D01*
X-1345016Y1281994D01*
X-1344834Y1284681D01*
X-1344672Y1286840D01*
X-1344536Y1288388D01*
X-1344431Y1289245D01*
X-1344411Y1289339D01*
X-1343415Y1291668D01*
X-1341858Y1293572D01*
X-1339870Y1295014D01*
X-1337582Y1295958D01*
X-1335125Y1296366D01*
X-1332631Y1296202D01*
X-1330229Y1295428D01*
X-1328051Y1294009D01*
X-1328000Y1293964D01*
X-1326562Y1292360D01*
X-1325446Y1290489D01*
X-1325390Y1290363D01*
X-1325069Y1289578D01*
X-1324840Y1288852D01*
X-1324695Y1288044D01*
X-1324624Y1287012D01*
X-1324616Y1285614D01*
X-1324662Y1283708D01*
X-1324753Y1281153D01*
X-1324754Y1281121D01*
X-1324856Y1278606D01*
X-1324971Y1276169D01*
X-1325087Y1274002D01*
X-1325196Y1272297D01*
X-1325264Y1271451D01*
X-1325361Y1270457D01*
X-1325382Y1269758D01*
X-1325251Y1269381D01*
X-1324891Y1269352D01*
X-1324224Y1269700D01*
X-1323175Y1270451D01*
X-1321667Y1271633D01*
X-1319623Y1273272D01*
X-1319237Y1273581D01*
X-1310930Y1280523D01*
X-1302721Y1287927D01*
X-1294731Y1295668D01*
X-1287081Y1303625D01*
X-1279889Y1311674D01*
X-1273276Y1319694D01*
X-1270015Y1323933D01*
X-1268864Y1325470D01*
X-1272421Y1325217D01*
X-1274125Y1325120D01*
X-1276370Y1325029D01*
X-1278903Y1324952D01*
X-1281471Y1324898D01*
X-1282328Y1324885D01*
X-1284846Y1324868D01*
X-1286716Y1324895D01*
X-1288083Y1324978D01*
X-1289093Y1325127D01*
X-1289889Y1325355D01*
X-1290265Y1325507D01*
X-1292545Y1326924D01*
X-1294390Y1328897D01*
X-1295694Y1331266D01*
X-1296351Y1333867D01*
X-1296409Y1334897D01*
X-1296046Y1337470D01*
X-1295030Y1339898D01*
X-1293476Y1342009D01*
X-1291493Y1343631D01*
X-1290362Y1344210D01*
X-1289878Y1344400D01*
X-1289359Y1344564D01*
X-1288737Y1344707D01*
X-1287945Y1344834D01*
X-1286917Y1344948D01*
X-1285587Y1345055D01*
X-1283887Y1345159D01*
X-1281750Y1345264D01*
X-1279111Y1345375D01*
X-1275901Y1345496D01*
X-1272055Y1345631D01*
X-1267505Y1345785D01*
X-1265749Y1345844D01*
X-1261165Y1345996D01*
X-1257302Y1346115D01*
X-1254087Y1346196D01*
X-1251446Y1346233D01*
X-1249308Y1346221D01*
G37*
%TD*%
M02*
