G04*
G04 #@! TF.GenerationSoftware,Altium Limited,Altium Designer,25.2.1 (25)*
G04*
G04 Layer_Color=32896*
%FSAX26Y26*%
%MOIN*%
G70*
G04*
G04 #@! TF.SameCoordinates,B4543352-C1F1-4858-B80E-EDAD671B2EAA*
G04*
G04*
G04 #@! TF.FilePolarity,Positive*
G04*
G01*
G75*
%ADD17C,0.006693*%
D17*
X-00319244Y-00413386D02*
X-00290379Y-00413386D01*
X-00310997Y-00392768D01*
X-00315120Y-00386582D01*
X-00317182Y-00382459D01*
X-00317182Y-00378335D01*
X-00315120Y-00374212D01*
X-00313059Y-00372150D01*
X-00308935Y-00370088D01*
X-00300688Y-00370088D01*
X-00296564Y-00372150D01*
X-00294502Y-00374212D01*
X-00292441Y-00378335D01*
X-00292441Y-00380397D01*
X-00295740Y-00345740D02*
X-00295740Y-00325122D01*
X-00293678Y-00318936D01*
X-00289554Y-00316874D01*
X-00283369Y-00316874D01*
X-00279245Y-00318936D01*
X-00273060Y-00325122D01*
X-00273060Y-00316874D02*
X-00273060Y-00345740D01*
X-00263369Y-00345740D02*
X-00263369Y-00316874D01*
X-00263369Y-00304503D02*
X-00265431Y-00302442D01*
X-00263369Y-00300380D01*
X-00261308Y-00302442D01*
X-00263369Y-00304503D01*
X-00245638Y-00316874D02*
X-00245638Y-00345740D01*
X-00241514Y-00343678D02*
X-00245638Y-00339554D01*
X-00241514Y-00343678D02*
X-00237391Y-00345740D01*
X-00231205Y-00345740D01*
X-00227082Y-00343678D01*
X-00222958Y-00339554D01*
X-00220896Y-00333369D01*
X-00220896Y-00329245D01*
X-00222958Y-00323060D01*
X-00227082Y-00318936D01*
X-00231205Y-00316874D01*
X-00237391Y-00316874D01*
X-00241514Y-00318936D01*
X-00245638Y-00323060D01*
X-00231411Y-00370088D02*
X-00231411Y-00413386D01*
X-00247906Y-00413386D02*
X-00231411Y-00370088D01*
X-00264400Y-00370088D02*
X-00247906Y-00413386D01*
X-00264400Y-00413386D02*
X-00264400Y-00370088D01*
X-00278833Y-00409262D02*
X-00276771Y-00411324D01*
X-00278833Y-00413386D01*
X-00280895Y-00411324D01*
X-00278833Y-00409262D01*
X-00209350Y-00413386D02*
X-00192856Y-00370088D01*
X-00200484Y-00345740D02*
X-00200484Y-00316874D01*
X-00202546Y-00323060D02*
X-00206670Y-00318936D01*
X-00210793Y-00316874D01*
X-00216979Y-00316874D01*
X-00202546Y-00323060D02*
X-00200484Y-00329245D01*
X-00191206Y-00329245D02*
X-00191206Y-00333369D01*
X-00189144Y-00339554D01*
X-00185021Y-00343678D01*
X-00180897Y-00345740D01*
X-00174712Y-00345740D01*
X-00170588Y-00343678D01*
X-00166465Y-00339554D01*
X-00166465Y-00345740D02*
X-00166465Y-00302442D01*
X-00166465Y-00323060D02*
X-00170588Y-00318936D01*
X-00174712Y-00316874D01*
X-00180897Y-00316874D01*
X-00185021Y-00318936D01*
X-00189144Y-00323060D01*
X-00191206Y-00329245D01*
X-00122754Y-00327183D02*
X-00122754Y-00320998D01*
X-00120693Y-00310689D01*
X-00116569Y-00304503D01*
X-00110384Y-00302442D01*
X-00106260Y-00302442D01*
X-00100075Y-00304503D01*
X-00095951Y-00310689D01*
X-00093889Y-00320998D01*
X-00093889Y-00327183D01*
X-00095951Y-00337492D01*
X-00100075Y-00343678D01*
X-00106260Y-00345740D01*
X-00110384Y-00345740D01*
X-00116569Y-00343678D01*
X-00120693Y-00337492D01*
X-00122754Y-00327183D01*
X-00086261Y-00331307D02*
X-00055334Y-00331307D01*
X-00075952Y-00302442D01*
X-00075952Y-00345740D01*
X-00069354Y-00370088D02*
X-00069354Y-00413386D01*
X-00090796Y-00411324D02*
X-00092858Y-00413386D01*
X-00094920Y-00411324D01*
X-00092858Y-00409262D01*
X-00090796Y-00411324D01*
X-00108528Y-00411324D02*
X-00106466Y-00409262D01*
X-00104404Y-00405139D01*
X-00108528Y-00411324D02*
X-00114713Y-00413386D01*
X-00120899Y-00413386D01*
X-00127084Y-00411324D01*
X-00131208Y-00407200D01*
X-00133270Y-00401015D01*
X-00133270Y-00396891D01*
X-00131208Y-00390706D01*
X-00127084Y-00386582D01*
X-00120899Y-00384521D01*
X-00114713Y-00384521D01*
X-00108528Y-00386582D01*
X-00106466Y-00388644D01*
X-00108528Y-00370088D01*
X-00129146Y-00370088D01*
X-00142960Y-00394830D02*
X-00180072Y-00394830D01*
X-00209350Y-00413386D02*
X-00225845Y-00370088D01*
X-00069354Y-00370088D02*
X-00063168Y-00376273D01*
X-00059045Y-00378335D01*
X-00053478Y-00370088D02*
X-00036983Y-00413386D01*
X-00020489Y-00370088D01*
X-00022963Y-00343678D02*
X-00029149Y-00345740D01*
X-00033272Y-00345740D01*
X-00039458Y-00343678D01*
X-00043581Y-00337492D01*
X-00045643Y-00327183D01*
X-00045643Y-00320998D01*
X-00043581Y-00310689D01*
X-00039458Y-00304503D01*
X-00033272Y-00302442D01*
X-00029149Y-00302442D01*
X-00022963Y-00304503D01*
X-00018840Y-00310689D01*
X-00016778Y-00320998D01*
X-00016778Y-00327183D01*
X-00018840Y-00337492D01*
X-00022963Y-00343678D01*
X-00007087Y-00345740D02*
X00021778Y-00345740D01*
X00001160Y-00325122D01*
X-00002964Y-00318936D01*
X-00005026Y-00314812D01*
X-00005026Y-00310689D01*
X-00002964Y-00306565D01*
X-00000902Y-00304503D01*
X00003222Y-00302442D01*
X00011469Y-00302442D01*
X00015592Y-00304503D01*
X00017654Y-00306565D01*
X00019716Y-00310689D01*
X00019716Y-00312751D01*
X00031468Y-00310689D02*
X00033530Y-00306565D01*
X00035592Y-00304503D01*
X00041777Y-00302442D01*
X00060334Y-00302442D01*
X00060334Y-00345740D01*
X00070024Y-00345740D02*
X00084457Y-00323060D01*
X00080333Y-00323060D02*
X00098889Y-00323060D01*
X00080333Y-00323060D02*
X00074148Y-00320998D01*
X00072086Y-00318936D01*
X00070024Y-00314812D01*
X00070024Y-00310689D01*
X00072086Y-00306565D01*
X00074148Y-00304503D01*
X00080333Y-00302442D01*
X00098889Y-00302442D01*
X00098889Y-00345740D01*
X00112085Y-00370088D02*
X00112085Y-00413386D01*
X00090642Y-00413386D02*
X00061777Y-00413386D01*
X00052086Y-00398953D02*
X00021159Y-00398953D01*
X00031468Y-00413386D02*
X00031468Y-00370088D01*
X00052086Y-00398953D01*
X00070024Y-00392768D02*
X00090642Y-00413386D01*
X00088580Y-00380397D02*
X00088580Y-00378335D01*
X00086518Y-00374212D01*
X00084457Y-00372150D01*
X00080333Y-00370088D01*
X00072086Y-00370088D01*
X00067962Y-00372150D01*
X00065900Y-00374212D01*
X00063839Y-00378335D01*
X00063839Y-00382459D01*
X00065900Y-00386582D01*
X00070024Y-00392768D01*
X00118270Y-00376273D02*
X00112085Y-00370088D01*
X00118270Y-00376273D02*
X00122394Y-00378335D01*
X00060334Y-00325122D02*
X00041777Y-00325122D01*
X00035592Y-00323060D01*
X00033530Y-00320998D01*
X00031468Y-00316874D01*
X00031468Y-00310689D01*
X-00042035Y00372052D02*
X-00042035Y00415350D01*
X-00058529Y00372052D01*
X-00075024Y00415350D01*
X-00075024Y00372052D01*
X-00091518Y00374114D02*
X-00087395Y00378237D01*
X-00091518Y00374114D02*
X-00097704Y00372052D01*
X-00105951Y00372052D01*
X-00112136Y00374114D01*
X-00116260Y00378237D01*
X-00116260Y00384423D01*
X-00114198Y00388546D01*
X-00112136Y00390608D01*
X-00108013Y00392670D01*
X-00095642Y00396793D01*
X-00091518Y00398855D01*
X-00089456Y00400917D01*
X-00087395Y00405041D01*
X-00087395Y00409164D01*
X-00091518Y00413288D01*
X-00097704Y00415350D01*
X-00105951Y00415350D01*
X-00112136Y00413288D01*
X-00116260Y00409164D01*
X-00125950Y00415350D02*
X-00125950Y00372052D01*
X-00125950Y00394732D02*
X-00144506Y00394732D01*
X-00150692Y00396793D01*
X-00152754Y00398855D01*
X-00154815Y00402979D01*
X-00154815Y00407103D01*
X-00152754Y00411226D01*
X-00150692Y00413288D01*
X-00144506Y00415350D01*
X-00125950Y00415350D01*
X-00140383Y00394732D02*
X-00154815Y00372052D01*
M02*
