G04*
G04 #@! TF.GenerationSoftware,Altium Limited,Altium Designer,25.2.1 (25)*
G04*
G04 Layer_Physical_Order=1*
G04 Layer_Color=255*
%FSAX26Y26*%
%MOIN*%
G70*
G04*
G04 #@! TF.SameCoordinates,B4543352-C1F1-4858-B80E-EDAD671B2EAA*
G04*
G04*
G04 #@! TF.FilePolarity,Positive*
G04*
G01*
G75*
%ADD10C,0.019685*%
%ADD11C,0.007874*%
%ADD13C,0.011811*%
%ADD16C,0.005118*%
%ADD18R,0.057087X0.011811*%
%ADD19R,0.021654X0.019685*%
%ADD20R,0.034449X0.007874*%
%ADD21R,0.007874X0.034449*%
%ADD22R,0.035433X0.023622*%
%ADD24R,0.021654X0.019685*%
%ADD25R,0.019685X0.021654*%
%ADD26R,0.015748X0.031496*%
%ADD27R,0.053150X0.043307*%
%ADD28R,0.019685X0.021654*%
%ADD29R,0.038000X0.036000*%
%ADD30R,0.022000X0.042000*%
%ADD31R,0.039370X0.027559*%
%ADD32R,0.039370X0.023622*%
%ADD33R,0.025591X0.031496*%
G04:AMPARAMS|DCode=34|XSize=21.654mil|YSize=19.685mil|CornerRadius=0mil|HoleSize=0mil|Usage=FLASHONLY|Rotation=225.000|XOffset=0mil|YOffset=0mil|HoleType=Round|Shape=Rectangle|*
%AMROTATEDRECTD34*
4,1,4,0.000696,0.014615,0.014615,0.000696,-0.000696,-0.014615,-0.014615,-0.000696,0.000696,0.014615,0.0*
%
%ADD34ROTATEDRECTD34*%

G04:AMPARAMS|DCode=35|XSize=19.685mil|YSize=21.654mil|CornerRadius=0mil|HoleSize=0mil|Usage=FLASHONLY|Rotation=135.000|XOffset=0mil|YOffset=0mil|HoleType=Round|Shape=Rectangle|*
%AMROTATEDRECTD35*
4,1,4,0.014615,0.000696,-0.000696,-0.014615,-0.014615,-0.000696,0.000696,0.014615,0.014615,0.000696,0.0*
%
%ADD35ROTATEDRECTD35*%

G04:AMPARAMS|DCode=36|XSize=21.654mil|YSize=19.685mil|CornerRadius=0mil|HoleSize=0mil|Usage=FLASHONLY|Rotation=10.000|XOffset=0mil|YOffset=0mil|HoleType=Round|Shape=Rectangle|*
%AMROTATEDRECTD36*
4,1,4,-0.008953,-0.011573,-0.012371,0.007813,0.008953,0.011573,0.012371,-0.007813,-0.008953,-0.011573,0.0*
%
%ADD36ROTATEDRECTD36*%

%ADD37R,0.043307X0.053150*%
G04:AMPARAMS|DCode=38|XSize=30mil|YSize=32mil|CornerRadius=0mil|HoleSize=0mil|Usage=FLASHONLY|Rotation=70.000|XOffset=0mil|YOffset=0mil|HoleType=Round|Shape=Rectangle|*
%AMROTATEDRECTD38*
4,1,4,0.009905,-0.019568,-0.020165,-0.008623,-0.009905,0.019568,0.020165,0.008623,0.009905,-0.019568,0.0*
%
%ADD38ROTATEDRECTD38*%

G04:AMPARAMS|DCode=40|XSize=21.654mil|YSize=19.685mil|CornerRadius=0mil|HoleSize=0mil|Usage=FLASHONLY|Rotation=135.000|XOffset=0mil|YOffset=0mil|HoleType=Round|Shape=Rectangle|*
%AMROTATEDRECTD40*
4,1,4,0.014615,-0.000696,0.000696,-0.014615,-0.014615,0.000696,-0.000696,0.014615,0.014615,-0.000696,0.0*
%
%ADD40ROTATEDRECTD40*%

%ADD41R,0.062992X0.023622*%
%ADD42R,0.047244X0.055118*%
G04:AMPARAMS|DCode=43|XSize=19.685mil|YSize=21.654mil|CornerRadius=0mil|HoleSize=0mil|Usage=FLASHONLY|Rotation=130.000|XOffset=0mil|YOffset=0mil|HoleType=Round|Shape=Rectangle|*
%AMROTATEDRECTD43*
4,1,4,0.014620,-0.000580,-0.001967,-0.014499,-0.014620,0.000580,0.001967,0.014499,0.014620,-0.000580,0.0*
%
%ADD43ROTATEDRECTD43*%

G04:AMPARAMS|DCode=44|XSize=19.685mil|YSize=21.654mil|CornerRadius=0mil|HoleSize=0mil|Usage=FLASHONLY|Rotation=45.000|XOffset=0mil|YOffset=0mil|HoleType=Round|Shape=Rectangle|*
%AMROTATEDRECTD44*
4,1,4,0.000696,-0.014615,-0.014615,0.000696,-0.000696,0.014615,0.014615,-0.000696,0.000696,-0.014615,0.0*
%
%ADD44ROTATEDRECTD44*%

%ADD45R,0.041339X0.025591*%
%ADD46R,0.031496X0.023622*%
%ADD83R,0.125984X0.125984*%
%ADD84R,0.027559X0.015748*%
%ADD85R,0.031496X0.031496*%
%ADD86C,0.015748*%
%ADD87C,0.009842*%
%ADD88C,0.017716*%
G04:AMPARAMS|DCode=89|XSize=43.307mil|YSize=66.929mil|CornerRadius=19.488mil|HoleSize=0mil|Usage=FLASHONLY|Rotation=90.000|XOffset=0mil|YOffset=0mil|HoleType=Round|Shape=RoundedRectangle|*
%AMROUNDEDRECTD89*
21,1,0.043307,0.027953,0,0,90.0*
21,1,0.004331,0.066929,0,0,90.0*
1,1,0.038976,0.013976,0.002165*
1,1,0.038976,0.013976,-0.002165*
1,1,0.038976,-0.013976,-0.002165*
1,1,0.038976,-0.013976,0.002165*
%
%ADD89ROUNDEDRECTD89*%
G04:AMPARAMS|DCode=90|XSize=43.307mil|YSize=86.614mil|CornerRadius=19.488mil|HoleSize=0mil|Usage=FLASHONLY|Rotation=90.000|XOffset=0mil|YOffset=0mil|HoleType=Round|Shape=RoundedRectangle|*
%AMROUNDEDRECTD90*
21,1,0.043307,0.047638,0,0,90.0*
21,1,0.004331,0.086614,0,0,90.0*
1,1,0.038976,0.023819,0.002165*
1,1,0.038976,0.023819,-0.002165*
1,1,0.038976,-0.023819,-0.002165*
1,1,0.038976,-0.023819,0.002165*
%
%ADD90ROUNDEDRECTD90*%
%ADD91C,0.019685*%
%ADD92C,0.043701*%
%ADD93R,0.043701X0.043701*%
D10*
X-00551182Y-00303486D02*
X-00551182Y-00280532D01*
X-00548229Y-00277579D01*
X-00545275Y-00277579D01*
X-00398648Y-00306102D02*
X-00398648Y-00359328D01*
X-00229526Y-00354331D02*
X-00229526Y-00349409D01*
X-00229526Y-00354331D02*
X-00212943Y-00370913D01*
X-00168059Y-00370913D01*
X-00142370Y-00370913D01*
X-00136118Y-00377165D01*
X-00128740Y-00377165D01*
X-00120078Y-00385827D01*
X-00112204Y-00385827D01*
X-00110236Y-00387795D01*
X-00136118Y-00414567D02*
X-00084354Y-00414567D01*
X-00022149Y-00352362D01*
X-00003937Y-00352362D01*
X-00001968Y-00350394D01*
X00032284Y-00350394D01*
X00034055Y-00352165D01*
X00040507Y-00353836D02*
X00044544Y-00349799D01*
X00062595Y-00349799D01*
X00062595Y-00389169D02*
X00034055Y-00389169D01*
X00055005Y-00410119D01*
X00055005Y-00425519D01*
X00071219Y-00441732D01*
X00343305Y-00441732D01*
X00347976Y-00437062D01*
X00347976Y-00292084D01*
X00385532Y-00254528D01*
X00551181Y-00420177D01*
X00551181Y-00442913D01*
X00308269Y-00399039D02*
X00308269Y-00394118D01*
X00268620Y-00354468D01*
X00268620Y-00316999D01*
X00243257Y-00291637D01*
X00226036Y-00291637D01*
X00222099Y-00287700D01*
X00218162Y-00291637D01*
X00200639Y-00291637D01*
X00173915Y-00318361D01*
X00200482Y-00329038D02*
X00218162Y-00329038D01*
X00222099Y-00325101D01*
X00222099Y-00362503D02*
X00226036Y-00358566D01*
X00258757Y-00358566D01*
X00263743Y-00353579D01*
X00268620Y-00353579D01*
X00222099Y-00362503D02*
X00224537Y-00364940D01*
X00224537Y-00411698D01*
X00308269Y-00286835D02*
X00318112Y-00276992D01*
X00347976Y-00276992D01*
X00347976Y-00292084D01*
X00385532Y-00254528D02*
X00448563Y-00191496D01*
X00448563Y-00108843D01*
X00425322Y-00085602D01*
X00405921Y-00085602D01*
X00386520Y-00085602D01*
X00376099Y-00096024D01*
X00361906Y-00129921D02*
X00291621Y-00129921D01*
X00287143Y-00134399D01*
X00277559Y-00124815D01*
X00277559Y-00106138D01*
X00276575Y-00106138D01*
X00275591Y00095472D02*
X00264948Y00095472D01*
X00262979Y00097441D01*
X00246559Y00097441D01*
X00235039Y00108961D01*
X00235039Y00188728D01*
X00235287Y00188976D01*
X00303359Y00160545D02*
X00335201Y00128702D01*
X00348728Y00128702D01*
X00335201Y00128702D02*
X00317191Y00128702D01*
X00311520Y00123031D01*
X00275591Y00123031D01*
X00370249Y00216798D02*
X00384028Y00216798D01*
X00384028Y00216798D01*
X00419461Y00216798D01*
X00396635Y00217384D02*
X00396635Y00236287D01*
X00395064Y00237857D01*
X00188349Y00131853D02*
X00170952Y00131853D01*
X00137796Y00050197D02*
X00137796Y00015256D01*
X00157492Y00015256D01*
X00161469Y00019232D01*
X00137796Y00015256D02*
X00137796Y00003937D01*
X00098425Y00002953D02*
X00112992Y-00011614D01*
X00075055Y-00079448D02*
X00066363Y-00088140D01*
X00066363Y-00096100D01*
X00066363Y-00098069D02*
X00012016Y-00152416D01*
X00059055Y-00199454D01*
X00059055Y-00208661D01*
X00096213Y-00206713D02*
X00096213Y-00185220D01*
X00083890Y-00172897D01*
X00083890Y-00161831D01*
X00092377Y-00153344D01*
X00105120Y-00153344D01*
X00109753Y-00154040D02*
X00110449Y-00154736D01*
X00126655Y-00154736D01*
X00127696Y-00155777D01*
X00147839Y-00155777D01*
X00154069Y-00149547D01*
X00185877Y-00149547D01*
X00187846Y-00147578D01*
X00074190Y-00152131D02*
X00083890Y-00161831D01*
X00074190Y-00152131D02*
X00054099Y-00152131D01*
X00053403Y-00151435D01*
X00062426Y-00108717D02*
X00072527Y-00118818D01*
X00076464Y-00118818D01*
X00081242Y-00123596D01*
X00062426Y-00108717D02*
X00062426Y-00104790D01*
X00023914Y-00286221D02*
X00032678Y-00294984D01*
X00032678Y-00301365D01*
X00044209Y-00312896D01*
X00096039Y-00312896D01*
X00023914Y-00286221D02*
X00005355Y-00286221D01*
X00002922Y-00283788D01*
X00000489Y-00286221D01*
X-00005905Y-00286221D01*
X-00005905Y-00236220D01*
X-00013779Y-00228346D01*
X-00125984Y-00228346D02*
X-00130413Y-00232776D01*
X-00228355Y-00232776D01*
X-00140401Y-00410283D02*
X-00136118Y-00414567D01*
X-00140401Y-00410283D02*
X-00243547Y-00410283D01*
X-00256300Y-00397531D01*
X-00265968Y-00227852D02*
X-00238879Y-00227852D01*
X-00229526Y-00237205D01*
X-00265968Y-00227852D02*
X-00266236Y-00227584D01*
X-00222678Y-00181989D02*
X-00222678Y-00181005D01*
X-00234392Y-00169291D01*
X-00244094Y-00169291D01*
X-00305330Y-00040020D02*
X-00306315Y-00040020D01*
X-00318437Y-00052142D01*
X-00328073Y-00052142D01*
X-00328073Y-00056102D02*
X-00328248Y-00056102D01*
X-00343504Y-00040846D01*
X-00344488Y-00040846D01*
X-00105315Y00007874D02*
X-00041338Y00007874D01*
X-00001968Y-00387795D02*
X-00000595Y-00389169D01*
X00034055Y-00389169D01*
X00155639Y-00396655D02*
X00185013Y-00367281D01*
X00185013Y-00366440D01*
X00185013Y-00344507D01*
X00200482Y-00329038D01*
X00185013Y-00366440D02*
X00185167Y-00366593D01*
X00185167Y-00411698D01*
X00155639Y-00406161D02*
X00155639Y-00396655D01*
X00155639Y-00406161D02*
X00147641Y-00414159D01*
X00147641Y-00414159D01*
X00146165Y-00412683D01*
X00016536Y00216911D02*
X00016536Y00244274D01*
X00018504Y00246242D01*
X00022441Y00246242D01*
X00020472Y00248211D01*
X00000787Y00248211D01*
X-00031739Y00280737D01*
X-00043623Y00280737D01*
X-00106299Y00311024D02*
X-00106299Y00312008D01*
X-00117192Y00322901D01*
X-00117192Y00350327D01*
X-00106299Y00361220D01*
X-00106299Y00362205D01*
X-00117192Y00334869D02*
X-00128455Y00334869D01*
X-00128455Y00334868D01*
X-00264548Y00386196D02*
X-00265975Y00386196D01*
X-00282699Y00402920D01*
X-00282699Y00403904D01*
X-00368110Y00298428D02*
X-00444481Y00298428D01*
X-00447063Y00295846D01*
X-00345612Y00248911D02*
X-00345612Y00247927D01*
X-00339150Y00247927D01*
X-00328073Y00236850D01*
X-00330709Y00233024D02*
X-00334843Y00237158D01*
X-00330709Y00233024D02*
X-00330709Y00206362D01*
X-00316929Y00192582D01*
X-00241141Y00199803D02*
X-00241141Y00210102D01*
X-00247637Y00216598D01*
X-00247637Y00226282D01*
X-00383858Y00105968D02*
X-00387536Y00102290D01*
X-00387536Y00048881D01*
X-00396850Y00039567D01*
X-00397835Y00039567D01*
X-00527268Y00179921D02*
X-00518504Y00188685D01*
X-00518504Y00210655D01*
X-00505734Y00223425D01*
X-00487574Y00223425D01*
X-00527268Y00179921D02*
X-00531472Y00179921D01*
X-00505906Y-00029528D02*
X-00503937Y-00031496D01*
X-00488188Y-00031496D01*
X-00543092Y-00060236D02*
X-00544291Y-00061436D01*
X-00544291Y-00078740D01*
X-00546260Y-00080709D01*
X-00548228Y-00080709D01*
X-00548228Y-00108268D02*
X-00548228Y-00165178D01*
D11*
X-00468353Y00047244D02*
X-00466093Y00044984D01*
X-00459302Y00044984D01*
X-00459252Y00044934D01*
X-00454331Y00044934D01*
X-00448425Y00039028D01*
X-00136625Y-00101181D02*
X-00020915Y-00101181D01*
X-00020914Y-00101182D01*
X-00011013Y-00101182D01*
X-00002953Y-00109242D01*
X-00002953Y-00127461D01*
X-00002953Y-00130774D02*
X-00002953Y-00140175D01*
X00006449Y-00140175D01*
X00010563Y-00144290D01*
X00010563Y-00160147D01*
X00030020Y-00047244D02*
X00061325Y-00047244D01*
X00062980Y-00045589D01*
X00150905Y-00045589D01*
X00181102Y-00075787D01*
X00181102Y-00076772D01*
X00220472Y-00076772D02*
X00220472Y-00075787D01*
X00226378Y-00069882D01*
X00234252Y-00069882D01*
X00270669Y-00033465D01*
X00272637Y-00033465D01*
X00275590Y-00034449D02*
X00276574Y-00033465D01*
X00293307Y-00033465D01*
X00297244Y-00029528D01*
X00346233Y-00029528D01*
X00382878Y-00029528D01*
X00387490Y-00024915D01*
X00387490Y00005230D01*
X00382878Y00009842D01*
X00346457Y00009842D01*
X00346457Y-00009842D02*
X00306102Y-00009842D01*
X00301187Y-00004927D01*
X00301187Y00026591D01*
X00305799Y00031204D01*
X00344781Y00031204D01*
X00346457Y00029528D01*
X00305799Y00031204D02*
X00293499Y00043504D01*
X00292126Y00043504D01*
X00281496Y00054134D01*
X00275590Y00054134D01*
X00273622Y00054134D01*
X00275590Y00054134D02*
X00271653Y00050197D01*
X00255785Y00050197D01*
X00220472Y00014884D01*
X00220472Y-00032212D01*
X00220472Y-00033196D01*
X00201575Y-00052093D01*
X00201575Y-00118974D01*
X00214618Y-00132016D01*
X00214618Y-00237943D01*
X00209313Y-00243247D01*
X00204480Y-00243247D01*
X00198574Y-00249153D01*
X00195378Y-00249153D01*
X00239838Y-00248723D02*
X00239838Y-00206470D01*
X00233909Y-00200541D01*
X00233909Y-00090208D01*
X00227362Y-00083662D01*
X00226378Y-00083662D01*
X00220472Y-00077756D01*
X00220472Y-00076772D01*
X00181102Y-00032212D02*
X00180387Y-00031496D01*
X00030020Y-00031496D01*
X00030020Y-00015748D02*
X00030020Y-00007874D01*
X00030020Y-00000000D01*
X-00136625Y-00101181D02*
X-00144685Y-00109242D01*
X-00144685Y-00127461D01*
X-00144685Y-00145680D01*
X-00156288Y-00157284D01*
X-00160473Y-00157284D01*
X-00183308Y-00180118D01*
D13*
X-00547244Y00202756D02*
X-00543307Y00202756D01*
X-00541339Y00204724D01*
X-00541339Y00216535D01*
X-00541339Y00236536D01*
X-00535433Y00242442D01*
X-00561024Y00246063D02*
X-00561024Y00280002D01*
X-00562205Y00281183D01*
X-00562205Y00323622D01*
X-00561024Y00324803D01*
X-00561024Y00442913D01*
X-00495448Y00257351D02*
X-00493941Y00255844D01*
X-00493941Y00245701D01*
X-00492495Y00244255D01*
X-00492495Y00227362D01*
X-00488558Y00223425D01*
X-00541339Y00216535D02*
X-00561053Y00236250D01*
X-00561053Y00246034D01*
X-00561024Y00246063D01*
X-00397835Y00039567D02*
X-00393898Y00035630D01*
X-00381327Y00035630D01*
X-00381102Y00035406D01*
X-00374490Y00035406D01*
X-00369849Y00040047D01*
X-00368867Y00040047D01*
X-00190157Y-00009604D02*
X-00190157Y00046979D01*
X-00190157Y00046979D01*
X-00190157Y00063207D01*
X-00190157Y00063207D01*
X-00190157Y00080493D01*
X-00174892Y00095758D01*
X-00148768Y00095758D01*
X-00133503Y00111023D01*
X-00083995Y00111023D01*
X-00083957Y00111061D01*
X-00034449Y00111061D01*
X-00024606Y00101219D02*
X-00010865Y00114960D01*
X-00010197Y00114960D01*
X-00003740Y00121418D01*
X-00003740Y00142421D01*
X-00002953Y00143208D01*
X00016232Y00143208D01*
X00023151Y00150127D01*
X00023151Y00173344D01*
X00027738Y00177931D01*
X00027738Y00183499D01*
X00028434Y00184195D02*
X00053009Y00208770D01*
X00055677Y00208770D01*
X00076772Y00229865D01*
X00076772Y00312619D01*
X00069812Y00319579D01*
X-00043095Y00319579D01*
X-00043623Y00320107D01*
X-00190400Y00312482D02*
X-00195494Y00307388D01*
X-00195494Y00291994D01*
X-00197403Y00290085D01*
X-00197403Y00287954D01*
X-00144685Y00143208D02*
X-00143897Y00142421D01*
X-00143897Y00121418D01*
X-00133503Y00111023D01*
X-00190157Y-00009604D02*
X-00187204Y-00012556D01*
X-00187204Y-00012812D01*
X-00184774Y-00015242D01*
X-00184774Y-00020810D01*
X-00183268Y-00022316D01*
X-00176037Y-00330315D02*
X-00171706Y-00334646D01*
X-00170335Y-00334646D01*
X-00362504Y-00336831D02*
X-00358567Y-00340768D01*
X-00358567Y-00350093D01*
X-00358267Y-00350393D01*
X-00358267Y-00377952D01*
X-00356761Y-00379459D01*
X-00356761Y-00381589D01*
X-00350730Y-00387620D01*
X-00350730Y-00387857D01*
X-00344272Y-00394315D01*
X-00344248Y-00394339D01*
X-00342997Y-00394339D01*
X-00330709Y-00406627D01*
X-00330709Y-00407612D01*
X-00342997Y-00394339D02*
X-00343021Y-00394315D01*
X-00344272Y-00394315D01*
X-00350730Y-00387857D02*
X-00356761Y-00381827D01*
X-00356761Y-00381589D01*
X-00358267Y-00380083D01*
X-00358267Y-00377952D01*
X-00398648Y-00306102D02*
X-00398648Y-00303972D01*
X-00396654Y-00301977D01*
X-00396654Y-00284469D01*
X-00389764Y-00277579D01*
X-00381890Y-00277579D01*
X00056273Y00156356D02*
X00056969Y00157052D01*
X00056969Y00169012D01*
X00059055Y00171097D01*
X00059055Y00173228D01*
X00346457Y-00096024D02*
X00376099Y-00096024D01*
X00346457Y-00096024D02*
X00346457Y-00102362D01*
X00405921Y-00085602D02*
X00408611Y-00082912D01*
X00408611Y00084200D01*
X00419567Y00084200D01*
X00408611Y00084200D02*
X00391566Y00084200D01*
X00379532Y00096234D01*
X00348539Y00096234D01*
X00346457Y00094151D01*
X00346457Y00090551D01*
X00349337Y00090551D02*
X00349337Y00102362D01*
X00346457Y00102362D01*
X00345183Y00098207D02*
X00290384Y00098207D01*
X00289617Y00097441D01*
X00277559Y00097441D01*
X00275591Y00095472D01*
D16*
X-00570866Y-00462598D02*
X-00570866Y-00442913D01*
X-00522865Y-00426181D02*
X-00278382Y-00426181D01*
X-00273819Y-00421618D01*
X-00273819Y-00404788D01*
X-00273819Y-00404788D01*
X-00273819Y-00390274D01*
X-00272974Y-00389429D01*
X-00272974Y-00381940D01*
X-00263556Y-00372522D01*
X-00248620Y-00372522D01*
X-00229526Y-00353427D01*
X-00229526Y-00349409D01*
X-00268785Y-00349771D02*
X-00268785Y-00329583D01*
X-00254359Y-00315158D01*
X-00204692Y-00315158D01*
X-00194517Y-00325333D01*
X-00194517Y-00341990D01*
X-00184341Y-00352165D01*
X-00156328Y-00352165D01*
X-00154556Y-00350394D01*
X-00110236Y-00350394D01*
X-00078315Y-00338543D02*
X-00056854Y-00338543D01*
X-00040555Y-00322244D01*
X-00011220Y-00322244D01*
X-00001968Y-00312992D01*
X-00001766Y-00288476D02*
X-00005905Y-00292615D01*
X-00005905Y-00286221D01*
X-00005905Y-00292615D02*
X-00023944Y-00292615D01*
X-00029330Y-00298001D01*
X-00029330Y-00299574D01*
X-00041289Y-00311533D01*
X-00044319Y-00311533D01*
X-00056279Y-00323492D01*
X-00072143Y-00323492D01*
X-00082494Y-00313141D01*
X-00082494Y-00298381D01*
X-00092844Y-00288031D01*
X-00141680Y-00288031D01*
X-00151954Y-00277756D01*
X-00196515Y-00277756D01*
X-00200452Y-00281693D01*
X-00258599Y-00281693D01*
X-00266245Y-00274048D01*
X-00278222Y-00274048D01*
X-00285505Y-00266764D01*
X-00260264Y-00265553D02*
X-00260264Y-00256543D01*
X-00267562Y-00249244D01*
X-00299512Y-00249244D01*
X-00308491Y-00258223D01*
X-00308729Y-00257985D01*
X-00317032Y-00257985D01*
X-00324315Y-00250702D01*
X-00335643Y-00230503D02*
X-00293932Y-00230503D01*
X-00276329Y-00212901D01*
X-00275793Y-00212901D01*
X-00265846Y-00202953D01*
X-00213002Y-00202953D01*
X-00205158Y-00195109D01*
X-00205158Y-00167096D01*
X-00207677Y-00164577D01*
X-00207677Y-00127461D01*
X-00201802Y-00089567D02*
X-00050026Y-00089567D01*
X-00009842Y-00049383D01*
X-00009842Y00013314D01*
X00002756Y00025912D01*
X00002756Y00066257D01*
X00002120Y00066893D01*
X00002120Y00107238D01*
X00005118Y00110236D01*
X00030020Y00110236D01*
X00031398Y00111614D01*
X00044685Y00111614D01*
X00085406Y00152334D01*
X00085406Y00219290D01*
X00092323Y00226207D01*
X00092323Y00377345D01*
X00073425Y00396242D01*
X00033268Y00396242D01*
X00022441Y00396242D01*
X00019157Y00392959D01*
X-00008813Y00392959D01*
X-00022835Y00378937D01*
X-00044291Y00378937D01*
X-00066501Y00398554D02*
X-00066501Y00400787D01*
X-00022257Y00400787D01*
X-00017336Y00405709D01*
X-00017336Y00410630D01*
X-00012235Y00415730D01*
X00057117Y00415730D01*
X00065367Y00407480D01*
X00076663Y00407480D01*
X00141409Y00342734D01*
X00153184Y00342734D01*
X00226180Y00269738D01*
X00226180Y00248648D01*
X00212658Y00235126D01*
X00204628Y00235126D01*
X00182728Y00213227D01*
X00182728Y00204417D01*
X00167287Y00188976D01*
X00166287Y00188976D01*
X00152705Y00159609D02*
X00184777Y00159609D01*
X00196822Y00171654D01*
X00196822Y00212845D01*
X00208868Y00224890D01*
X00216898Y00224890D01*
X00236417Y00244408D01*
X00236417Y00273978D01*
X00220705Y00289690D01*
X00220705Y00302580D01*
X00217918Y00305367D01*
X00208661Y00255905D02*
X00175805Y00255905D01*
X00116114Y00196214D01*
X00116114Y00131597D01*
X00048887Y00064370D01*
X00031398Y00064370D01*
X00030020Y00062992D01*
X00030020Y00078740D02*
X00043307Y00078740D01*
X00047441Y00082874D01*
X00050424Y00082874D01*
X00105878Y00138328D01*
X00105878Y00207978D01*
X00123389Y00225489D01*
X00123389Y00299082D01*
X00110236Y00310705D02*
X00110236Y00338582D01*
X00110236Y00310705D02*
X00105869Y00306338D01*
X00105869Y00225278D01*
X00095642Y00215050D01*
X00095642Y00143839D01*
X00050424Y00098622D01*
X00047441Y00098622D01*
X00044685Y00095866D01*
X00031398Y00095866D01*
X00030020Y00094488D01*
X00030020Y00047244D02*
X00054921Y00047244D01*
X00069612Y00061935D01*
X00069612Y00070619D01*
X00126657Y00127664D01*
X00126657Y00133561D01*
X00152705Y00159609D01*
X00156945Y00149373D02*
X00189017Y00149373D01*
X00207059Y00167414D01*
X00207059Y00208605D01*
X00213107Y00214654D01*
X00221138Y00214654D01*
X00246653Y00240168D01*
X00246653Y00278218D01*
X00235438Y00289433D01*
X00235438Y00313595D01*
X00258832Y00336990D01*
X00288779Y00336990D01*
X00298031Y00346242D01*
X00298031Y00296242D02*
X00296529Y00294740D01*
X00264556Y00294740D01*
X00252957Y00306338D01*
X00261011Y00413386D02*
X00263355Y00415730D01*
X00332707Y00415730D01*
X00335052Y00413386D01*
X00338989Y00413386D01*
X00394139Y00358236D01*
X00394139Y00259120D01*
X00397882Y00255377D01*
X00420252Y00255377D01*
X00450564Y00225065D01*
X00451548Y00225065D01*
X00458831Y00217782D01*
X00458831Y00216798D01*
X00458831Y00216798D02*
X00500000Y00216798D01*
X00500000Y00216798D01*
X00512008Y00198294D02*
X00513023Y00198294D01*
X00523259Y00208530D01*
X00532087Y00208530D01*
X00539370Y00215813D01*
X00539370Y00216798D01*
X00512008Y00198294D02*
X00491068Y00177354D01*
X00491068Y00155700D01*
X00419567Y00084200D01*
X00345964Y00069390D02*
X00346457Y00068898D01*
X00345964Y00069390D02*
X00304792Y00069390D01*
X00304497Y00069685D01*
X00194734Y00069685D01*
X00171936Y00092483D01*
X00170952Y00092483D01*
X00136893Y00118222D02*
X00136893Y00129321D01*
X00156945Y00149373D01*
X00136893Y00118222D02*
X00106744Y00088073D01*
X00104775Y00088073D01*
X00079848Y00063146D01*
X00079848Y00056423D01*
X00054921Y00031496D01*
X00030020Y00031496D01*
X00003338Y00184081D02*
X00003338Y00198921D01*
X-00067444Y00269703D01*
X-00067444Y00339097D01*
X-00092389Y00336981D02*
X-00078937Y00323528D01*
X-00078937Y00266720D01*
X-00006898Y00194681D01*
X-00006898Y00188321D01*
X-00033071Y00162149D01*
X-00033071Y00144586D01*
X-00034449Y00143208D01*
X-00048819Y00144586D02*
X-00048819Y00182988D01*
X-00047308Y00182988D01*
X-00039491Y00190805D01*
X-00029191Y00190805D01*
X-00017323Y00163421D02*
X00003338Y00184081D01*
X00001459Y-00188780D02*
X00020215Y-00188780D01*
X00030709Y-00199273D01*
X00030709Y-00210046D01*
X00045276Y-00224613D01*
X00045276Y-00242126D01*
X00059055Y-00255905D01*
X00118110Y-00255905D01*
X00127953Y-00246063D01*
X00128300Y-00214981D02*
X00133123Y-00210158D01*
X00133123Y-00209174D01*
X00133123Y-00209174D02*
X00138930Y-00214981D01*
X00154852Y-00214981D01*
X00160703Y-00220832D01*
X00186297Y-00220832D01*
X00187846Y-00222381D01*
X00199234Y-00266243D02*
X00212006Y-00266243D01*
X00247095Y-00266243D01*
X00260755Y-00252583D01*
X00319548Y-00252583D01*
X00346457Y-00225674D01*
X00346457Y-00224689D01*
X00307087Y-00224689D02*
X00281581Y-00224689D01*
X00256744Y-00199852D01*
X00256744Y-00194232D01*
X00265995Y-00184980D01*
X00266586Y-00184980D01*
X00276575Y-00066768D02*
X00280512Y-00062831D01*
X00292186Y-00062831D01*
X00305805Y-00049213D01*
X00346457Y-00049213D01*
X00298031Y00246242D02*
X00267968Y00246242D01*
X00266980Y00247230D01*
X00452756Y00442913D02*
X00452756Y00462598D01*
X00354331Y00462598D02*
X00354331Y00442913D01*
X00295276Y00442913D02*
X00295276Y00462598D01*
X00246063Y00462598D02*
X00246063Y00442913D01*
X00261011Y00413386D02*
X00108268Y00413386D01*
X00088976Y00432677D01*
X00075803Y00432677D01*
X00065567Y00442913D01*
X-00079206Y00442913D01*
X-00085308Y00449016D01*
X-00348228Y00449016D01*
X-00397565Y00399679D01*
X-00400587Y00399679D01*
X-00502048Y00436608D01*
X-00506581Y00436608D01*
X-00510118Y00433071D01*
X-00514055Y00433071D01*
X-00515554Y00431572D01*
X-00521339Y00425787D01*
X-00521339Y00397560D01*
X-00505764Y00381984D01*
X-00500720Y00381984D01*
X-00485145Y00366409D01*
X-00485145Y00333740D01*
X-00467747Y00316342D01*
X-00408268Y00316342D01*
X-00406693Y00317917D01*
X-00347214Y00317917D01*
X-00342716Y00313419D01*
X-00342716Y00294367D01*
X-00285630Y00237281D01*
X-00285630Y00198289D01*
X-00232458Y00145117D01*
X-00209055Y00145117D01*
X-00209055Y00144586D01*
X-00207677Y00143208D01*
X-00177559Y00144586D02*
X-00176181Y00143208D01*
X-00177559Y00144586D02*
X-00177559Y00160857D01*
X-00184812Y00168110D01*
X-00240975Y00168110D01*
X-00275393Y00202529D01*
X-00275393Y00241520D01*
X-00332480Y00298607D01*
X-00332480Y00317659D01*
X-00342974Y00328153D01*
X-00439173Y00328153D01*
X-00446850Y00335830D01*
X-00444488Y00338192D01*
X-00444488Y00364889D01*
X-00488962Y00409363D01*
X-00493497Y00409363D01*
X-00501969Y00452756D02*
X-00501969Y00462598D01*
X-00501969Y00452756D02*
X-00507476Y00452756D01*
X-00514531Y00445701D01*
X-00528709Y00445701D01*
X-00531496Y00442913D01*
X-00561024Y00442913D02*
X-00561024Y00462598D01*
X-00462598Y00462598D02*
X-00462598Y00442913D01*
X-00514360Y00352041D02*
X-00514360Y00347130D01*
X-00526181Y00335309D01*
X-00526181Y00306812D01*
X-00535433Y00297560D01*
X-00535433Y00297560D01*
X-00533231Y00295358D01*
X-00491891Y00295358D01*
X-00491259Y00295991D01*
X-00487216Y00295991D01*
X-00461909Y00274745D02*
X-00449850Y00286803D01*
X-00449850Y00289117D01*
X-00447063Y00291905D01*
X-00447063Y00295846D01*
X-00434147Y00254474D02*
X-00434147Y00251041D01*
X-00424002Y00240896D01*
X-00424002Y00210914D01*
X-00428893Y00206023D01*
X-00458377Y00206023D01*
X-00461375Y00203025D01*
X-00461375Y00158366D01*
X-00492513Y00158366D01*
X-00504134Y00146744D01*
X-00504134Y00113897D01*
X-00506651Y00111381D01*
X-00506651Y00099649D01*
X-00527559Y00078740D01*
X-00526609Y00055084D02*
X-00508862Y00055084D01*
X-00496414Y00067531D01*
X-00496414Y00097967D01*
X-00486178Y00108204D01*
X-00486178Y00124409D01*
X-00478895Y00131693D01*
X-00461375Y00158366D02*
X-00461375Y00074284D01*
X-00450528Y00063437D01*
X-00440769Y00063437D01*
X-00429921Y00052589D01*
X-00429921Y-00012826D01*
X-00436492Y-00019396D01*
X-00444593Y-00019396D01*
X-00458971Y-00033775D01*
X-00458971Y-00085925D01*
X-00477362Y-00104316D01*
X-00477362Y-00117201D01*
X-00487537Y-00127376D01*
X-00487537Y-00131616D01*
X-00477362Y-00146286D01*
X-00477362Y-00167612D01*
X-00476575Y-00199783D01*
X-00476575Y-00225712D01*
X-00476685Y-00225823D01*
X-00491252Y-00255115D01*
X-00491252Y-00278109D01*
X-00483748Y-00296645D01*
X-00466228Y-00289388D02*
X-00447835Y-00330654D01*
X-00418307Y-00345367D02*
X-00418307Y-00309204D01*
X-00444478Y-00283033D01*
X-00445977Y-00281534D01*
X-00445977Y-00277294D01*
X-00445866Y-00238432D01*
X-00445866Y-00187063D01*
X-00446654Y-00154892D01*
X-00446654Y-00117036D01*
X-00433147Y-00103529D01*
X-00422032Y-00103529D01*
X-00414763Y-00096260D01*
X-00350425Y-00096260D01*
X-00327788Y-00073622D01*
X-00314387Y-00073622D01*
X-00298305Y-00057539D01*
X-00291324Y-00057539D01*
X-00281029Y-00047244D01*
X-00240649Y-00047244D01*
X-00240725Y-00031571D02*
X-00240649Y-00031496D01*
X-00240725Y-00031571D02*
X-00282252Y-00031571D01*
X-00291717Y-00022106D01*
X-00343577Y-00022106D01*
X-00344483Y-00021200D01*
X-00423281Y-00021200D01*
X-00431713Y-00029633D01*
X-00440353Y-00029633D01*
X-00448735Y-00038014D01*
X-00448735Y-00090165D01*
X-00467126Y-00108556D01*
X-00467126Y-00163372D01*
X-00466339Y-00195543D01*
X-00466339Y-00229952D01*
X-00466449Y-00230063D01*
X-00481016Y-00259355D01*
X-00481016Y-00273869D01*
X-00466228Y-00289388D01*
X-00463497Y-00266612D02*
X-00456213Y-00234303D01*
X-00456103Y-00234192D01*
X-00456103Y-00191303D01*
X-00456890Y-00159132D01*
X-00456890Y-00112796D01*
X-00437387Y-00093293D01*
X-00435054Y-00093293D01*
X-00415551Y-00073790D01*
X-00415551Y-00072775D01*
X-00405512Y-00062736D01*
X-00405512Y-00054862D01*
X-00425788Y-00049547D02*
X-00425788Y-00040658D01*
X-00416566Y-00031436D01*
X-00368867Y-00031436D01*
X-00366740Y-00033563D01*
X-00351772Y-00033563D01*
X-00344488Y-00040846D01*
X-00379921Y-00054862D02*
X-00379921Y-00062736D01*
X-00364930Y-00077727D01*
X-00364930Y-00078740D01*
X-00351729Y-00112539D02*
X-00312295Y-00151972D01*
X-00309407Y-00151972D01*
X-00303861Y-00126617D02*
X-00303861Y-00119840D01*
X-00317738Y-00105963D01*
X-00317738Y-00091449D01*
X-00307475Y-00081186D01*
X-00299410Y-00081186D01*
X-00281216Y-00062992D01*
X-00240649Y-00062992D01*
X-00240649Y-00078740D02*
X-00280253Y-00078740D01*
X-00300219Y-00098706D01*
X-00317738Y-00105963D02*
X-00332381Y-00105963D01*
X-00333866Y-00104477D01*
X-00351729Y-00112539D02*
X-00416566Y-00112539D01*
X-00421063Y-00117036D01*
X-00421063Y-00118050D01*
X-00431102Y-00128090D01*
X-00431102Y-00135964D01*
X-00405512Y-00135964D02*
X-00405512Y-00143838D01*
X-00401575Y-00147775D01*
X-00399213Y-00150137D01*
X-00397638Y-00150137D01*
X-00396850Y-00150925D01*
X-00396850Y-00171200D01*
X-00333866Y-00171200D01*
X-00324695Y-00180372D01*
X-00283909Y-00180372D01*
X-00261617Y-00184248D02*
X-00261617Y-00168861D01*
X-00303861Y-00126617D01*
X-00281568Y-00124133D02*
X-00280872Y-00124829D01*
X-00237064Y-00124829D01*
X-00201802Y-00089567D01*
X-00200787Y-00029573D02*
X-00188916Y-00041444D01*
X-00187820Y-00041444D01*
X-00173161Y-00056102D01*
X-00169291Y-00056102D01*
X-00200787Y-00029573D02*
X-00200787Y-00018182D01*
X-00203740Y-00015230D01*
X-00203740Y00026605D01*
X-00220245Y00043110D01*
X-00220245Y00043110D01*
X-00223001Y00045866D01*
X-00239272Y00045866D01*
X-00240649Y00047244D01*
X-00239272Y00061614D02*
X-00212701Y00061614D01*
X-00211023Y00059937D01*
X-00222794Y00080118D02*
X-00211216Y00091695D01*
X-00208464Y00091695D01*
X-00222794Y00080118D02*
X-00225984Y00080118D01*
X-00227362Y00078740D01*
X-00240649Y00078740D01*
X-00240649Y00062992D02*
X-00239272Y00061614D01*
X-00242027Y00032874D02*
X-00240649Y00031496D01*
X-00242027Y00032874D02*
X-00260251Y00032874D01*
X-00285630Y00058252D01*
X-00285630Y00136707D01*
X-00292129Y00143206D01*
X-00344068Y00143206D01*
X-00358661Y00157800D01*
X-00358661Y00157800D01*
X-00362795Y00161934D01*
X-00362795Y00167582D01*
X-00383858Y00188645D01*
X-00383858Y00192582D01*
X-00392856Y00201579D01*
X-00392856Y00227848D01*
X-00392265Y00228439D01*
X-00392265Y00241628D01*
X-00384982Y00248911D01*
X-00363131Y00234904D02*
X-00363131Y00258587D01*
X-00371959Y00267415D01*
X-00398004Y00267415D01*
X-00399291Y00266129D01*
X-00406557Y00266129D01*
X-00409344Y00263342D01*
X-00347808Y00346685D02*
X-00347808Y00350627D01*
X-00340396Y00358039D01*
X-00340396Y00417104D01*
X-00335091Y00422409D01*
X-00309046Y00422409D01*
X-00300219Y00413581D01*
X-00300219Y00389898D01*
X-00289608Y00379287D01*
X-00285869Y00379287D01*
X-00275258Y00368676D01*
X-00251619Y00368676D01*
X-00246490Y00373805D01*
X-00204758Y00373805D01*
X-00163614Y00414949D01*
X-00147232Y00414949D01*
X-00145669Y00413386D01*
X-00113583Y00406102D02*
X-00106299Y00413386D01*
X-00113583Y00406102D02*
X-00113583Y00402166D01*
X-00137402Y00378346D01*
X-00138386Y00378346D01*
X-00138386Y00369488D01*
X-00145669Y00362205D01*
X-00145669Y00344864D01*
X-00145975Y00344559D01*
X-00145975Y00327612D01*
X-00145669Y00327307D01*
X-00145669Y00311024D01*
X-00171722Y00288302D02*
X-00171722Y00336662D01*
X-00184369Y00349309D01*
X-00184428Y00349309D01*
X-00209517Y00346049D02*
X-00209517Y00342107D01*
X-00218573Y00333052D01*
X-00218573Y00279558D01*
X-00183049Y00244034D01*
X-00183049Y00232806D01*
X-00143316Y00193074D01*
X-00142646Y00193074D01*
X-00114567Y00164994D01*
X-00114567Y00144586D01*
X-00113189Y00143208D01*
X-00098819Y00144586D02*
X-00098819Y00163722D01*
X-00138406Y00203310D01*
X-00139077Y00203310D01*
X-00172812Y00237046D01*
X-00172812Y00248274D01*
X-00184827Y00260288D01*
X-00184827Y00275757D01*
X-00176779Y00283805D01*
X-00176220Y00283805D01*
X-00171722Y00288302D01*
X-00167307Y00268500D02*
X-00164520Y00265713D01*
X-00164520Y00254457D01*
X-00160024Y00249961D01*
X-00160024Y00238734D01*
X-00134837Y00213546D01*
X-00134167Y00213546D01*
X-00083071Y00162451D01*
X-00083071Y00144586D01*
X-00081693Y00143208D01*
X-00097441Y00143208D02*
X-00098819Y00144586D01*
X-00130315Y00144586D02*
X-00130315Y00166266D01*
X-00146886Y00182838D01*
X-00147556Y00182838D01*
X-00194970Y00230251D01*
X-00194970Y00234491D01*
X-00194656Y00234805D01*
X-00194656Y00241165D01*
X-00228809Y00275318D01*
X-00228809Y00275318D01*
X-00236220Y00282729D01*
X-00236220Y00326771D01*
X-00265400Y00322482D02*
X-00265400Y00312482D01*
X-00265400Y00322482D02*
X-00273841Y00330923D01*
X-00286567Y00330923D01*
X-00301378Y00345734D01*
X-00301868Y00345734D01*
X-00316540Y00360405D01*
X-00316540Y00390721D01*
X-00317130Y00391311D01*
X-00317130Y00398966D01*
X-00322069Y00403904D01*
X-00291688Y00360329D02*
X-00289798Y00358440D01*
X-00247379Y00358440D01*
X-00242250Y00363569D01*
X-00199231Y00363569D01*
X-00195972Y00366828D01*
X-00150293Y00366828D01*
X-00145669Y00362205D01*
X-00194488Y00408851D02*
X-00221531Y00408851D01*
X-00227900Y00402482D01*
X-00066536Y00398519D02*
X-00066501Y00398554D01*
X-00096457Y00279200D02*
X-00110644Y00265012D01*
X-00110644Y00230336D01*
X-00109948Y00229640D01*
X-00109948Y00219340D01*
X-00110644Y00218644D01*
X-00092632Y00249144D02*
X-00088690Y00249144D01*
X-00079708Y00240162D01*
X-00073219Y00240162D01*
X-00057030Y00223973D01*
X-00057030Y00218644D01*
X-00076438Y00194745D02*
X-00065945Y00184252D01*
X-00065945Y00143208D01*
X-00050197Y00143208D02*
X-00048819Y00144586D01*
X-00017323Y00144586D02*
X-00017323Y00163421D01*
X-00017323Y00144586D02*
X-00018701Y00143208D01*
X-00080379Y00190805D02*
X-00076438Y00194745D01*
X-00080379Y00190805D02*
X-00082805Y00190805D01*
X-00130315Y00144586D02*
X-00128937Y00143208D01*
X-00160433Y00143208D02*
X-00160433Y00156496D01*
X-00161811Y00157874D01*
X-00161811Y00160857D01*
X-00179300Y00178346D01*
X-00211841Y00178346D01*
X-00222637Y00189143D01*
X-00222637Y00222137D01*
X-00216949Y00227826D01*
X-00216949Y00237289D01*
X-00128937Y-00127461D02*
X-00128937Y-00152362D01*
X-00091141Y-00190157D01*
X-00091141Y-00260464D01*
X-00097047Y-00266369D01*
X-00114533Y-00266369D01*
X-00114567Y-00266403D01*
X-00139356Y-00265578D02*
X-00198813Y-00265578D01*
X-00204692Y-00271457D01*
X-00254359Y-00271457D01*
X-00260264Y-00265553D01*
X-00266154Y-00288615D02*
X-00259493Y-00295276D01*
X-00170335Y-00295276D01*
X-00163051Y-00302559D01*
X-00128543Y-00302559D01*
X-00118110Y-00312992D01*
X-00102362Y-00312992D01*
X-00093110Y-00322244D01*
X-00093110Y-00323749D01*
X-00078315Y-00338543D01*
X-00064886Y-00305972D02*
X-00064886Y-00285195D01*
X-00062185Y-00282493D01*
X-00062185Y-00267979D01*
X-00070669Y-00259495D01*
X-00070669Y-00177119D01*
X-00080315Y-00167473D01*
X-00080315Y-00128839D01*
X-00081693Y-00127461D01*
X-00097441Y-00127461D02*
X-00097441Y-00164823D01*
X-00080905Y-00181358D01*
X-00080905Y-00274035D01*
X-00079704Y-00275236D01*
X-00048228Y-00276097D02*
X-00048063Y-00276262D01*
X-00048063Y-00287955D01*
X-00045276Y-00290742D01*
X-00048228Y-00276097D02*
X-00048228Y-00267459D01*
X-00060433Y-00255255D01*
X-00060433Y-00172879D01*
X-00064567Y-00168745D01*
X-00064567Y-00128839D01*
X-00065945Y-00127461D01*
X-00050197Y-00127461D02*
X-00050197Y-00251015D01*
X-00043534Y-00257677D01*
X-00041871Y-00257677D01*
X-00030709Y-00268840D01*
X-00030709Y-00268840D01*
X-00039370Y-00442913D02*
X-00039370Y-00462598D01*
X-00009842Y-00462598D02*
X-00009842Y-00442913D01*
X00029528Y-00442913D02*
X00029528Y-00462598D01*
X00374016Y-00462598D02*
X00374016Y-00442913D01*
X00413386Y-00442913D02*
X00413386Y-00462598D01*
X00462598Y-00462598D02*
X00462598Y-00442913D01*
X00501969Y-00442913D02*
X00501969Y-00462598D01*
X00551181Y-00462598D02*
X00551181Y-00442913D01*
X00001459Y-00188780D02*
X-00018701Y-00168620D01*
X-00018701Y-00127461D01*
X-00034449Y-00127461D02*
X-00034449Y-00182869D01*
X-00032315Y-00185003D01*
X-00032315Y-00189795D01*
X-00034449Y-00191929D01*
X-00003986Y-00286221D02*
X-00003457Y-00286221D01*
X-00003457Y-00286784D01*
X-00001766Y-00288476D01*
X00022463Y-00261418D02*
X00023887Y-00261418D01*
X00049124Y-00286654D01*
X00091225Y-00286654D01*
X00095192Y-00282687D01*
X00095192Y-00275797D01*
X00104746Y-00266243D01*
X00150476Y-00266243D01*
X00158374Y-00274141D01*
X00191336Y-00274141D01*
X00199234Y-00266243D01*
X00128300Y-00214981D02*
X00127316Y-00214981D01*
X00107605Y-00234691D01*
X00062795Y-00234691D01*
X-00287532Y00042126D02*
X-00262532Y00017126D01*
X-00242027Y00017126D01*
X-00240649Y00015748D01*
X-00367757Y00016379D02*
X-00351347Y00032790D01*
X-00351347Y00032838D01*
X-00342059Y00042126D01*
X-00342059Y00043110D01*
X-00348358Y00050394D02*
X-00334776Y00050394D01*
X-00334776Y00063583D01*
X-00334185Y00064173D01*
X-00334185Y00076900D01*
X-00334055Y00077031D01*
X-00334055Y00088842D01*
X-00316929Y00105968D01*
X-00268110Y00099478D02*
X-00268110Y00129921D01*
X-00264003Y00150590D02*
X-00240649Y00127237D01*
X-00240649Y00110236D01*
X-00240649Y00094488D02*
X-00263120Y00094488D01*
X-00268110Y00099478D01*
X-00264003Y00150590D02*
X-00285037Y00150590D01*
X-00287889Y00153443D01*
X-00339828Y00153443D01*
X-00348425Y00162040D01*
X-00348425Y00220198D01*
X-00363131Y00234904D01*
X-00442506Y00223936D02*
X-00445852Y00220590D01*
X-00458286Y00220590D01*
X-00479306Y00199570D01*
X-00479306Y00191338D01*
X-00486589Y00184055D01*
X-00488558Y00184055D01*
X-00503716Y00168898D01*
X-00503716Y00161639D01*
X-00527559Y00137795D01*
X-00531472Y00179921D02*
X-00542520Y00179921D01*
X-00547244Y00175197D01*
X-00526609Y00055084D02*
X-00549213Y00032480D01*
X-00549213Y00029528D01*
X-00505906Y00029528D02*
X-00505906Y00032480D01*
X-00486178Y00052208D01*
X-00486178Y00076677D01*
X-00478895Y00083960D01*
X-00470668Y-00021601D02*
X-00449409Y-00000342D01*
X-00448425Y-00000342D01*
X-00397835Y00000197D02*
X-00396850Y00000197D01*
X-00380668Y00016379D01*
X-00367757Y00016379D01*
X-00425788Y-00049547D02*
X-00431102Y-00054862D01*
X-00422052Y-00167025D02*
X-00419265Y-00169813D01*
X-00405476Y-00169813D01*
X-00404088Y-00171200D01*
X-00396850Y-00171200D01*
X-00381890Y-00192934D02*
X-00379361Y-00195462D01*
X-00325168Y-00195462D01*
X-00313116Y-00207515D01*
X-00311724Y-00208907D01*
X-00311723Y-00208907D01*
X-00300752Y-00208907D01*
X-00294510Y-00202665D01*
X-00280033Y-00202665D01*
X-00261617Y-00184248D01*
X-00342974Y-00146070D02*
X-00374279Y-00146070D01*
X-00379921Y-00140428D01*
X-00379921Y-00135964D01*
X-00327131Y-00207515D02*
X-00313116Y-00207515D01*
X-00313115Y-00207515D01*
X-00311723Y-00208907D01*
X-00327131Y-00207515D02*
X-00353543Y-00233927D01*
X-00353543Y-00293554D01*
X-00380024Y-00320035D01*
X-00380024Y-00372706D01*
X-00397835Y-00390517D01*
X-00397835Y-00396654D01*
X-00433325Y-00360385D02*
X-00418307Y-00345367D01*
X-00433325Y-00360385D02*
X-00468103Y-00360385D01*
X-00497835Y-00330654D01*
X-00570866Y-00324803D02*
X-00573622Y-00322047D01*
X-00573622Y-00292520D01*
X-00580709Y-00285433D01*
X-00590551Y-00285433D01*
X-00590551Y-00354331D02*
X-00570866Y-00354331D01*
X-00534645Y-00379402D02*
X-00534645Y-00414401D01*
X-00522865Y-00426181D01*
X-00337147Y-00365181D02*
X-00337147Y-00354344D01*
X-00342819Y-00348672D01*
X-00342819Y-00237679D01*
X-00335643Y-00230503D01*
X-00324315Y-00290072D02*
X-00323725Y-00290662D01*
X-00301560Y-00290662D01*
X-00299512Y-00288615D01*
X-00266154Y-00288615D01*
X-00295275Y-00314960D02*
X-00298062Y-00317747D01*
X-00305035Y-00317747D01*
X-00323134Y-00335846D01*
X-00323134Y-00336831D01*
X-00337147Y-00365181D02*
X-00329864Y-00372464D01*
X-00291339Y-00373309D02*
X-00290494Y-00372464D01*
X-00290494Y-00371480D01*
X-00268785Y-00349771D01*
X-00291339Y-00373309D02*
X-00291339Y-00407612D01*
X-00482904Y-00092201D02*
X-00482904Y-00089024D01*
X-00477384Y-00083503D01*
X-00477384Y-00079561D01*
X-00482904Y-00092201D02*
X-00504920Y-00114217D01*
X-00505905Y-00114217D01*
X-00505905Y-00074847D02*
X-00506889Y-00074847D01*
X-00525004Y-00056733D01*
X-00525004Y-00053548D01*
X-00535835Y-00042717D01*
X-00538976Y-00042717D01*
X-00549213Y-00032480D01*
X-00549213Y-00029528D01*
X-00470668Y-00021601D02*
X-00470668Y-00038753D01*
X-00475393Y-00043477D01*
X-00475393Y-00051984D01*
X-00478180Y-00054771D01*
X-00432241Y00071756D02*
X-00421827Y00071756D01*
X-00419269Y00069197D01*
X-00432241Y00071756D02*
X-00432241Y00076677D01*
X-00439525Y00083960D01*
X-00425228Y00108703D02*
X-00422441Y00108703D01*
X-00425228Y00108703D02*
X-00425228Y00116412D01*
X-00439525Y00130708D01*
X-00439525Y00131693D01*
X-00427983Y00160267D02*
X-00425196Y00157480D01*
X-00427983Y00160267D02*
X-00427983Y00167091D01*
X-00430346Y00169454D01*
X-00430346Y00177328D01*
X-00435268Y00177328D01*
X-00442506Y00184566D01*
X-00349342Y00051378D02*
X-00348358Y00050394D01*
X-00302689Y00043110D02*
X-00302689Y00042126D01*
X-00287532Y00042126D01*
X-00263403Y00265128D02*
X-00256480Y00265128D01*
X-00255784Y00264432D01*
X-00245484Y00264432D01*
X-00244788Y00265128D01*
X-00263403Y00265128D02*
X-00307699Y00309424D01*
X-00307699Y00323454D01*
X-00310729Y00326483D01*
X-00383858Y00442913D02*
X-00383858Y00462598D01*
X-00423228Y00462598D02*
X-00423228Y00442913D01*
X-00461909Y00274745D02*
X-00461909Y00265832D01*
X00022441Y00346242D02*
X00034252Y00346242D01*
X00037975Y00342519D01*
X00069383Y00342519D01*
X00074803Y00342519D01*
X00069383Y00342519D01*
X00074803Y00342519D01*
X00069383Y00342519D01*
X00074803Y00342519D01*
X00069383Y00342519D01*
X00073439Y00338463D01*
X00074803Y00342519D02*
X00069383Y00342519D01*
X00074803Y00342519D01*
X00069383Y00342519D01*
X00118110Y00442913D02*
X00118110Y00462598D01*
X00187008Y00462598D02*
X00187008Y00442913D01*
X00373202Y00259120D02*
X00394139Y00259120D01*
X00373202Y00259120D02*
X00370249Y00256168D01*
D18*
X00346457Y-00133858D02*
D03*
X00346457Y-00122047D02*
D03*
X00346457Y-00102362D02*
D03*
X00346457Y-00090551D02*
D03*
X00346457Y-00068898D02*
D03*
X00346457Y-00049213D02*
D03*
X00346233Y-00029528D02*
D03*
X00346457Y-00009842D02*
D03*
X00346457Y00009842D02*
D03*
X00346457Y00029528D02*
D03*
X00346457Y00049213D02*
D03*
X00346457Y00068898D02*
D03*
X00346457Y00090551D02*
D03*
X00346457Y00102362D02*
D03*
X00346457Y00122047D02*
D03*
X00346457Y00133858D02*
D03*
D19*
X-00448425Y00000197D02*
D03*
X-00397835Y00000197D02*
D03*
X-00344488Y-00001476D02*
D03*
X-00344488Y-00040846D02*
D03*
X-00305330Y-00040020D02*
D03*
X-00305330Y-00000650D02*
D03*
X-00170335Y-00295276D02*
D03*
X-00170335Y-00334646D02*
D03*
X-00168059Y-00370913D02*
D03*
X-00168059Y-00410283D02*
D03*
X00062595Y-00389169D02*
D03*
X00062595Y-00349799D02*
D03*
X00370249Y00216798D02*
D03*
X00370249Y00256168D02*
D03*
X-00043623Y00280737D02*
D03*
X-00043623Y00320107D02*
D03*
X-00397835Y00039567D02*
D03*
X-00448425Y00039567D02*
D03*
D20*
X-00240649Y-00094488D02*
D03*
X-00240649Y-00078740D02*
D03*
X-00240649Y-00062992D02*
D03*
X-00240649Y-00047244D02*
D03*
X-00240649Y-00031496D02*
D03*
X-00240649Y-00015748D02*
D03*
X-00240649Y-00000000D02*
D03*
X-00240649Y00015748D02*
D03*
X-00240649Y00031496D02*
D03*
X-00240649Y00047244D02*
D03*
X-00240649Y00062992D02*
D03*
X-00240649Y00078740D02*
D03*
X-00240649Y00094488D02*
D03*
X-00240649Y00110236D02*
D03*
X00030020Y00015748D02*
D03*
X00030020Y-00000000D02*
D03*
X00030020Y-00015748D02*
D03*
X00030020Y-00031496D02*
D03*
X00030020Y-00047244D02*
D03*
X00030020Y-00062992D02*
D03*
X00030020Y-00078740D02*
D03*
X00030020Y-00094488D02*
D03*
X00030020Y00031496D02*
D03*
X00030020Y00047244D02*
D03*
X00030020Y00062992D02*
D03*
X00030020Y00078740D02*
D03*
X00030020Y00094488D02*
D03*
X00030020Y00110236D02*
D03*
D21*
X-00207677Y-00127461D02*
D03*
X-00191929Y-00127461D02*
D03*
X-00176181Y-00127461D02*
D03*
X-00160433Y-00127461D02*
D03*
X-00144685Y-00127461D02*
D03*
X-00128937Y-00127461D02*
D03*
X-00113189Y-00127461D02*
D03*
X-00097441Y-00127461D02*
D03*
X-00081693Y-00127461D02*
D03*
X-00065945Y-00127461D02*
D03*
X-00050197Y-00127461D02*
D03*
X-00034449Y-00127461D02*
D03*
X-00018701Y-00127461D02*
D03*
X-00002953Y-00127461D02*
D03*
X-00002953Y00143208D02*
D03*
X-00018701Y00143208D02*
D03*
X-00034449Y00143208D02*
D03*
X-00050197Y00143208D02*
D03*
X-00065945Y00143208D02*
D03*
X-00081693Y00143208D02*
D03*
X-00097441Y00143208D02*
D03*
X-00113189Y00143208D02*
D03*
X-00128937Y00143208D02*
D03*
X-00144685Y00143208D02*
D03*
X-00160433Y00143208D02*
D03*
X-00176181Y00143208D02*
D03*
X-00191929Y00143208D02*
D03*
X-00207677Y00143208D02*
D03*
D22*
X-00446850Y00335830D02*
D03*
X-00368110Y00373231D02*
D03*
X-00368110Y00298428D02*
D03*
X00187846Y-00147578D02*
D03*
X00187846Y-00222381D02*
D03*
X00266586Y-00184980D02*
D03*
D24*
X-00505905Y-00114217D02*
D03*
X-00505905Y-00074847D02*
D03*
X-00324315Y-00250702D02*
D03*
X-00324315Y-00290072D02*
D03*
X-00285505Y-00306134D02*
D03*
X-00285505Y-00266764D02*
D03*
X00170952Y00092483D02*
D03*
X00170952Y00131853D02*
D03*
X00276575Y-00066768D02*
D03*
X00276575Y-00106138D02*
D03*
X-00044291Y00378937D02*
D03*
X-00044291Y00418307D02*
D03*
X-00442506Y00223936D02*
D03*
X-00442506Y00184566D02*
D03*
X-00487574Y00184055D02*
D03*
X-00487574Y00223425D02*
D03*
D25*
X-00478895Y00083960D02*
D03*
X-00478895Y00131693D02*
D03*
X-00439525Y00131693D02*
D03*
X-00439525Y00083960D02*
D03*
X-00342059Y00043110D02*
D03*
X-00302689Y00043110D02*
D03*
X-00145669Y00362205D02*
D03*
X-00106299Y00362205D02*
D03*
X-00106299Y00413386D02*
D03*
X-00145669Y00413386D02*
D03*
X-00282699Y00403904D02*
D03*
X-00322069Y00403904D02*
D03*
X00181102Y-00032212D02*
D03*
X00220472Y-00032212D02*
D03*
X00220472Y-00076772D02*
D03*
X00181102Y-00076772D02*
D03*
X00135583Y-00206713D02*
D03*
X00096213Y-00206713D02*
D03*
X00458831Y00216798D02*
D03*
X00500000Y00216798D02*
D03*
X00539370Y00216798D02*
D03*
X00419461Y00216798D02*
D03*
X-00290494Y-00372464D02*
D03*
X-00291339Y-00407612D02*
D03*
X-00330709Y-00407612D02*
D03*
X-00329864Y-00372464D02*
D03*
D26*
X-00431102Y-00135964D02*
D03*
X-00405512Y-00135964D02*
D03*
X-00379921Y-00135964D02*
D03*
X-00379921Y-00054862D02*
D03*
X-00405512Y-00054862D02*
D03*
X-00431102Y-00054862D02*
D03*
D27*
X-00125984Y-00228346D02*
D03*
X-00013779Y-00228346D02*
D03*
D28*
X-00362504Y-00336831D02*
D03*
X-00323134Y-00336831D02*
D03*
X-00222678Y-00181102D02*
D03*
X-00183308Y-00181102D02*
D03*
X00106795Y-00412683D02*
D03*
X00146165Y-00412683D02*
D03*
X00185167Y-00411698D02*
D03*
X00224537Y-00411698D02*
D03*
X00307087Y-00224689D02*
D03*
X00346457Y-00224689D02*
D03*
X00137796Y00003937D02*
D03*
X00098425Y00003937D02*
D03*
X00098425Y00050197D02*
D03*
X00137796Y00050197D02*
D03*
X-00106299Y00311024D02*
D03*
X-00145669Y00311024D02*
D03*
X-00201771Y00199803D02*
D03*
X-00241141Y00199803D02*
D03*
X-00345612Y00248911D02*
D03*
X-00384982Y00248911D02*
D03*
D29*
X00166287Y00188976D02*
D03*
X00235287Y00188976D02*
D03*
D30*
X-00265400Y00312482D02*
D03*
X-00190400Y00312482D02*
D03*
X-00227900Y00402482D02*
D03*
D31*
X00127611Y-00362503D02*
D03*
X00127611Y-00287700D02*
D03*
X00222099Y-00287700D02*
D03*
X00222099Y-00325101D02*
D03*
X00222099Y-00362503D02*
D03*
D32*
X-00110236Y-00387795D02*
D03*
X-00110236Y-00350394D02*
D03*
X-00110236Y-00312992D02*
D03*
X-00001968Y-00312992D02*
D03*
X-00001968Y-00350394D02*
D03*
X-00001968Y-00387795D02*
D03*
D33*
X-00549213Y-00029528D02*
D03*
X-00505906Y-00029528D02*
D03*
X-00505906Y00029528D02*
D03*
X-00549213Y00029528D02*
D03*
D34*
X-00082805Y00190805D02*
D03*
X-00029191Y00190805D02*
D03*
X-00057030Y00218644D02*
D03*
X-00110644Y00218644D02*
D03*
D35*
X-00244788Y00265128D02*
D03*
X-00216949Y00237289D02*
D03*
X00028434Y00184195D02*
D03*
X00056273Y00156356D02*
D03*
D36*
X-00313511Y00326483D02*
D03*
X-00320347Y00365255D02*
D03*
D37*
X-00229526Y-00349409D02*
D03*
X-00229526Y-00237205D02*
D03*
X00308269Y-00286835D02*
D03*
X00308269Y-00399039D02*
D03*
D38*
X-00514360Y00352041D02*
D03*
X-00493497Y00409363D02*
D03*
D40*
X-00311748Y-00208211D02*
D03*
X-00283909Y-00180372D02*
D03*
X-00309407Y-00151972D02*
D03*
X-00281568Y-00124133D02*
D03*
D41*
X00022441Y00246242D02*
D03*
X00298031Y00246242D02*
D03*
X00298031Y00296242D02*
D03*
X00298031Y00346242D02*
D03*
X00298031Y00396242D02*
D03*
X00022441Y00396242D02*
D03*
X00022441Y00346242D02*
D03*
X00022441Y00296242D02*
D03*
D42*
X-00383858Y00105968D02*
D03*
X-00316929Y00105968D02*
D03*
X-00316929Y00192582D02*
D03*
X-00383858Y00192582D02*
D03*
D43*
X-00461909Y00265832D02*
D03*
X-00487216Y00295991D02*
D03*
D44*
X00053403Y-00151435D02*
D03*
X00081242Y-00123596D02*
D03*
X00137592Y-00126201D02*
D03*
X00109753Y-00154040D02*
D03*
D45*
X-00545275Y-00277579D02*
D03*
X-00381890Y-00277579D02*
D03*
X-00381890Y-00192934D02*
D03*
X-00545275Y-00192934D02*
D03*
D46*
X-00535433Y00242442D02*
D03*
X-00535433Y00297560D02*
D03*
D83*
X-00105315Y00007874D02*
D03*
D84*
X-00548228Y-00108268D02*
D03*
X-00548228Y-00080709D02*
D03*
X-00547244Y00175197D02*
D03*
X-00547244Y00202756D02*
D03*
X00275590Y00026575D02*
D03*
X00275590Y-00006890D02*
D03*
X00275590Y-00034449D02*
D03*
X00275590Y00054134D02*
D03*
X00275591Y00095472D02*
D03*
X00275591Y00123031D02*
D03*
D85*
X-00527559Y00078740D02*
D03*
X-00527559Y00137795D02*
D03*
D86*
X-00537375Y-00443701D02*
X-00072451Y-00443701D01*
X-00045482Y-00416732D01*
X00012205Y-00416732D01*
X00081296Y-00416732D02*
X00082361Y-00416732D01*
X00083458Y-00415635D01*
X00104826Y-00415635D01*
X00106795Y-00413667D01*
X00106795Y-00377413D01*
X00121706Y-00362503D01*
X00127611Y-00362503D01*
X00160288Y-00344464D02*
X00160288Y-00343342D01*
X00152678Y-00335731D01*
X00102544Y-00335731D01*
X00088477Y-00349799D01*
X00062595Y-00349799D01*
X00096039Y-00312896D02*
X00100970Y-00312896D01*
X00102938Y-00314865D01*
X00170419Y-00314865D01*
X00173915Y-00318361D01*
X00169513Y-00353689D02*
X00183203Y-00353689D01*
X00184679Y-00355165D01*
X00169513Y-00353689D02*
X00160288Y-00344464D01*
X00244095Y00011781D02*
X00258888Y00026575D01*
X00275590Y00026575D01*
X00275590Y-00006890D02*
X00263831Y-00006890D01*
X00245160Y00011781D01*
X00244095Y00011781D01*
X-00398648Y-00359328D02*
X-00401131Y-00361811D01*
X-00412267Y-00361811D01*
X-00447109Y-00396654D01*
X-00447835Y-00396654D01*
X-00494882Y-00153543D02*
X-00496739Y-00223883D01*
X-00505906Y-00233050D01*
X-00505906Y-00247332D01*
X-00507547Y-00248973D01*
X-00507547Y-00292145D01*
X-00516732Y-00301330D01*
X-00521918Y-00305463D02*
X-00528347Y-00311891D01*
X-00528347Y-00312945D01*
X-00542281Y-00326879D01*
X-00542281Y-00349660D01*
X-00539579Y-00352362D01*
X-00529392Y-00352362D01*
X-00511811Y-00369944D01*
X-00511811Y-00382769D01*
X-00497926Y-00396654D01*
X-00560039Y-00401421D02*
X-00560039Y-00372503D01*
X-00544291Y-00356755D01*
X-00544291Y-00356448D01*
X-00560039Y-00401421D02*
X-00553150Y-00408310D01*
X-00553150Y-00427926D01*
X-00537375Y-00443701D01*
X-00548228Y-00080709D02*
X-00554134Y-00080709D01*
D87*
X-00372047Y-00001476D02*
X-00343504Y-00001476D01*
X-00322795Y00019232D01*
X-00288088Y00019232D01*
X-00268856Y-00000000D01*
X-00240649Y-00000000D01*
X-00240649Y-00015748D02*
X-00239665Y-00016732D01*
X-00220054Y-00016732D01*
X-00213386Y-00023401D01*
X-00213386Y-00040125D01*
X-00177526Y-00075984D01*
X-00097079Y-00075984D01*
X-00093573Y-00072478D01*
X-00076757Y-00072478D01*
X-00074874Y-00070594D01*
X-00017967Y-00082284D02*
X-00015304Y-00082284D01*
X00000094Y-00066887D01*
X00002756Y-00066887D01*
X00002756Y-00062992D01*
X00002756Y-00039149D01*
X00002756Y-00039148D01*
X00002756Y-00023844D01*
X00002756Y-00023843D01*
X00002756Y00008095D01*
X00009424Y00014764D01*
X00017717Y00014764D01*
X00018701Y00015748D01*
X00064961Y00015748D01*
X00098425Y00049212D01*
X00098425Y00050197D01*
X00098425Y00003937D02*
X00098425Y00002953D01*
X00093504Y-00001969D01*
X00074803Y-00001969D01*
X00068898Y-00007874D01*
X00030020Y-00007874D01*
X00030020Y-00062992D02*
X00006651Y-00062992D01*
X00002756Y-00066887D01*
X00030020Y-00078740D02*
X00056964Y-00078740D01*
X00066363Y-00088140D01*
X00060015Y-00094488D01*
X00030020Y-00094488D01*
X00042323Y-00062992D02*
X00063394Y-00062992D01*
X00065165Y-00061221D01*
X00067114Y-00061221D01*
X00068769Y-00059566D01*
X00089058Y-00059566D01*
X00096650Y-00067158D01*
X00096650Y-00071140D01*
X00098028Y-00072518D01*
X00098028Y-00110259D01*
X00107228Y-00119459D01*
X00108143Y-00119459D01*
X00118821Y-00130138D01*
X00123454Y-00125505D01*
X00136896Y-00125505D01*
X00137592Y-00126201D01*
X-00144685Y00143208D02*
X-00145669Y00144193D01*
X-00145669Y00163804D01*
X-00152338Y00170472D01*
X-00153008Y00170472D01*
X-00176751Y00194215D01*
X-00197168Y00194215D01*
X-00197834Y00194882D01*
X00070585Y00420079D02*
X00081882Y00420079D01*
X00105718Y00396242D01*
X00298031Y00396242D01*
X00070585Y00420079D02*
X00062335Y00428329D01*
X-00017454Y00428329D01*
X-00024952Y00420831D01*
X-00040783Y00420831D01*
X-00043307Y00418307D01*
X-00047636Y00418307D01*
X-00050197Y00420867D01*
X-00069882Y00420867D01*
X-00079329Y00430315D01*
X-00084424Y00430315D01*
X-00084761Y00430652D01*
X-00090527Y00436417D01*
X-00343010Y00436417D01*
X-00363364Y00416064D01*
X-00363364Y00393701D01*
X-00383049Y00374016D01*
X-00423228Y00374016D01*
X-00442913Y00393701D01*
X-00363364Y00393701D02*
X-00363364Y00377978D01*
X-00368110Y00373231D01*
X-00086417Y00386196D02*
X-00044934Y00344713D01*
X-00044934Y00320131D01*
X-00086417Y00386196D02*
X-00086417Y00409564D01*
X-00084761Y00411221D01*
X-00084761Y00430652D01*
X-00240649Y-00015748D02*
X-00274265Y-00015748D01*
X-00280506Y-00009508D01*
X-00300409Y-00009508D01*
X-00300409Y-00005571D01*
X-00305330Y-00000650D01*
D88*
X-00014764Y00039370D02*
X-00014764Y00091376D01*
X-00024606Y00101219D01*
X-00034449Y00111061D01*
D89*
X00547047Y-00170079D02*
D03*
X00547047Y00170079D02*
D03*
D90*
X00382480Y-00170079D02*
D03*
X00382480Y00170079D02*
D03*
D91*
X-00570866Y-00442913D02*
D03*
X-00358267Y-00377952D02*
D03*
X-00398648Y-00306102D02*
D03*
X-00295275Y-00314960D02*
D03*
X-00266236Y-00227584D02*
D03*
X-00256300Y-00397531D02*
D03*
X-00039370Y-00442913D02*
D03*
X-00012578Y-00442878D02*
D03*
X00029528Y-00442913D02*
D03*
X00374016Y-00442913D02*
D03*
X00413386Y-00442913D02*
D03*
X00462598Y-00442913D02*
D03*
X00501969Y-00442913D02*
D03*
X00239838Y-00248723D02*
D03*
X00287143Y-00134399D02*
D03*
X00244095Y00011781D02*
D03*
X00303359Y00160545D02*
D03*
X00266980Y00247230D02*
D03*
X00395064Y00237857D02*
D03*
X00452756Y00442913D02*
D03*
X00354331Y00442913D02*
D03*
X00295276Y00442913D02*
D03*
X00246063Y00442913D02*
D03*
X00252957Y00306338D02*
D03*
X00217918Y00305367D02*
D03*
X00208661Y00255905D02*
D03*
X00123389Y00299082D02*
D03*
X00110236Y00338582D02*
D03*
X00074803Y00342519D02*
D03*
X00044095Y00298650D02*
D03*
X00118110Y00442913D02*
D03*
X00187008Y00442913D02*
D03*
X00188349Y00131853D02*
D03*
X00059055Y00173228D02*
D03*
X00016536Y00216911D02*
D03*
X00112992Y-00011614D02*
D03*
X00161469Y00019232D02*
D03*
X00075055Y-00079448D02*
D03*
X00083890Y-00161831D02*
D03*
X00059055Y-00208661D02*
D03*
X00062795Y-00234691D02*
D03*
X00022463Y-00261418D02*
D03*
X00040507Y-00353836D02*
D03*
X00012205Y-00416732D02*
D03*
X00081296Y-00416732D02*
D03*
X00185013Y-00366440D02*
D03*
X00195378Y-00249153D02*
D03*
X00127953Y-00246063D02*
D03*
X-00029528Y-00191732D02*
D03*
X-00017967Y-00082284D02*
D03*
X-00041338Y-00056102D02*
D03*
X-00074874Y-00070594D02*
D03*
X-00105315Y-00056102D02*
D03*
X-00169291Y-00056102D02*
D03*
X-00183268Y-00022316D02*
D03*
X-00169291Y00007874D02*
D03*
X-00041338Y00007874D02*
D03*
X-00030709Y-00268840D02*
D03*
X-00045276Y-00290742D02*
D03*
X-00064886Y-00305972D02*
D03*
X-00079704Y-00275236D02*
D03*
X-00114567Y-00266403D02*
D03*
X-00139356Y-00265578D02*
D03*
X-00176037Y-00330315D02*
D03*
X-00244094Y-00169291D02*
D03*
X-00342974Y-00146070D02*
D03*
X-00333866Y-00104477D02*
D03*
X-00300219Y-00098706D02*
D03*
X-00328073Y-00056102D02*
D03*
X-00364930Y-00078740D02*
D03*
X-00372047Y-00001476D02*
D03*
X-00422052Y-00167025D02*
D03*
X-00211023Y00059937D02*
D03*
X-00208464Y00091695D02*
D03*
X-00169291Y00071850D02*
D03*
X-00105315Y00071850D02*
D03*
X-00041338Y00071850D02*
D03*
X-00014764Y00039370D02*
D03*
X-00092632Y00249144D02*
D03*
X-00096457Y00279200D02*
D03*
X-00092389Y00336981D02*
D03*
X-00067444Y00339097D02*
D03*
X-00066536Y00398519D02*
D03*
X-00128455Y00334868D02*
D03*
X-00184428Y00349309D02*
D03*
X-00209517Y00346049D02*
D03*
X-00197403Y00287954D02*
D03*
X-00167307Y00268500D02*
D03*
X-00194488Y00408851D02*
D03*
X-00264548Y00386196D02*
D03*
X-00291688Y00360329D02*
D03*
X-00347808Y00346685D02*
D03*
X-00236220Y00326771D02*
D03*
X-00409344Y00263342D02*
D03*
X-00434147Y00254474D02*
D03*
X-00447063Y00295846D02*
D03*
X-00442913Y00393701D02*
D03*
X-00423228Y00442913D02*
D03*
X-00383858Y00442913D02*
D03*
X-00328073Y00236850D02*
D03*
X-00247637Y00226282D02*
D03*
X-00268110Y00129921D02*
D03*
X-00422441Y00108703D02*
D03*
X-00419269Y00069197D02*
D03*
X-00368867Y00040047D02*
D03*
X-00425196Y00157480D02*
D03*
X-00495448Y00257351D02*
D03*
X-00462598Y00442913D02*
D03*
X-00531496Y00442913D02*
D03*
X-00468353Y00047244D02*
D03*
X-00488188Y-00031496D02*
D03*
X-00478180Y-00054771D02*
D03*
X-00477384Y-00079561D02*
D03*
X-00543092Y-00060236D02*
D03*
X-00548228Y-00165178D02*
D03*
X-00494882Y-00153543D02*
D03*
X-00463497Y-00266612D02*
D03*
X-00483748Y-00296645D02*
D03*
X-00551182Y-00303486D02*
D03*
X-00570866Y-00324803D02*
D03*
X-00570866Y-00349606D02*
D03*
X-00534645Y-00379402D02*
D03*
D92*
X-00497835Y-00330654D02*
D03*
X-00447835Y-00330654D02*
D03*
X-00447835Y-00396654D02*
D03*
X-00397835Y-00396654D02*
D03*
D93*
X-00497834Y-00396654D02*
D03*
M02*
