G04*
G04 #@! TF.GenerationSoftware,Altium Limited,Altium Designer,25.2.1 (25)*
G04*
G04 Layer_Color=8388736*
%FSAX26Y26*%
%MOIN*%
G70*
G04*
G04 #@! TF.SameCoordinates,B4543352-C1F1-4858-B80E-EDAD671B2EAA*
G04*
G04*
G04 #@! TF.FilePolarity,Negative*
G04*
G01*
G75*
%ADD47R,0.061024X0.015748*%
%ADD48R,0.027559X0.025591*%
%ADD49R,0.130000X0.130000*%
%ADD50R,0.038465X0.011890*%
%ADD51R,0.011890X0.038465*%
%ADD52R,0.041339X0.029528*%
%ADD53R,0.031496X0.019685*%
%ADD54R,0.027559X0.025591*%
%ADD55R,0.025591X0.027559*%
%ADD56R,0.020472X0.036221*%
%ADD57R,0.059055X0.049213*%
%ADD58R,0.025591X0.027559*%
%ADD59R,0.043906X0.041906*%
%ADD60R,0.027906X0.047906*%
%ADD61R,0.045276X0.033465*%
%ADD62R,0.045276X0.029528*%
%ADD63R,0.029528X0.035433*%
G04:AMPARAMS|DCode=64|XSize=27.559mil|YSize=25.591mil|CornerRadius=0mil|HoleSize=0mil|Usage=FLASHONLY|Rotation=225.000|XOffset=0mil|YOffset=0mil|HoleType=Round|Shape=Rectangle|*
%AMROTATEDRECTD64*
4,1,4,0.000696,0.018791,0.018791,0.000696,-0.000696,-0.018791,-0.018791,-0.000696,0.000696,0.018791,0.0*
%
%ADD64ROTATEDRECTD64*%

G04:AMPARAMS|DCode=65|XSize=25.591mil|YSize=27.559mil|CornerRadius=0mil|HoleSize=0mil|Usage=FLASHONLY|Rotation=135.000|XOffset=0mil|YOffset=0mil|HoleType=Round|Shape=Rectangle|*
%AMROTATEDRECTD65*
4,1,4,0.018791,0.000696,-0.000696,-0.018791,-0.018791,-0.000696,0.000696,0.018791,0.018791,0.000696,0.0*
%
%ADD65ROTATEDRECTD65*%

G04:AMPARAMS|DCode=66|XSize=27.559mil|YSize=25.591mil|CornerRadius=0mil|HoleSize=0mil|Usage=FLASHONLY|Rotation=10.000|XOffset=0mil|YOffset=0mil|HoleType=Round|Shape=Rectangle|*
%AMROTATEDRECTD66*
4,1,4,-0.011348,-0.014994,-0.015792,0.010208,0.011348,0.014994,0.015792,-0.010208,-0.011348,-0.014994,0.0*
%
%ADD66ROTATEDRECTD66*%

%ADD67R,0.049213X0.059055*%
G04:AMPARAMS|DCode=68|XSize=35.906mil|YSize=37.906mil|CornerRadius=0mil|HoleSize=0mil|Usage=FLASHONLY|Rotation=70.000|XOffset=0mil|YOffset=0mil|HoleType=Round|Shape=Rectangle|*
%AMROTATEDRECTD68*
4,1,4,0.011670,-0.023352,-0.023950,-0.010388,-0.011670,0.023352,0.023950,0.010388,0.011670,-0.023352,0.0*
%
%ADD68ROTATEDRECTD68*%

%ADD69R,0.037402X0.037402*%
G04:AMPARAMS|DCode=70|XSize=27.559mil|YSize=25.591mil|CornerRadius=0mil|HoleSize=0mil|Usage=FLASHONLY|Rotation=135.000|XOffset=0mil|YOffset=0mil|HoleType=Round|Shape=Rectangle|*
%AMROTATEDRECTD70*
4,1,4,0.018791,-0.000696,0.000696,-0.018791,-0.018791,0.000696,-0.000696,0.018791,0.018791,-0.000696,0.0*
%
%ADD70ROTATEDRECTD70*%

%ADD71R,0.068898X0.029528*%
%ADD72R,0.053150X0.061024*%
G04:AMPARAMS|DCode=73|XSize=25.591mil|YSize=27.559mil|CornerRadius=0mil|HoleSize=0mil|Usage=FLASHONLY|Rotation=130.000|XOffset=0mil|YOffset=0mil|HoleType=Round|Shape=Rectangle|*
%AMROTATEDRECTD73*
4,1,4,0.018780,-0.000944,-0.002331,-0.018659,-0.018780,0.000944,0.002331,0.018659,0.018780,-0.000944,0.0*
%
%ADD73ROTATEDRECTD73*%

G04:AMPARAMS|DCode=74|XSize=25.591mil|YSize=27.559mil|CornerRadius=0mil|HoleSize=0mil|Usage=FLASHONLY|Rotation=45.000|XOffset=0mil|YOffset=0mil|HoleType=Round|Shape=Rectangle|*
%AMROTATEDRECTD74*
4,1,4,0.000696,-0.018791,-0.018791,0.000696,-0.000696,0.018791,0.018791,-0.000696,0.000696,-0.018791,0.0*
%
%ADD74ROTATEDRECTD74*%

%ADD75R,0.047244X0.031496*%
%ADD76R,0.037402X0.029528*%
G04:AMPARAMS|DCode=77|XSize=49.213mil|YSize=72.835mil|CornerRadius=22.441mil|HoleSize=0mil|Usage=FLASHONLY|Rotation=90.000|XOffset=0mil|YOffset=0mil|HoleType=Round|Shape=RoundedRectangle|*
%AMROUNDEDRECTD77*
21,1,0.049213,0.027953,0,0,90.0*
21,1,0.004331,0.072835,0,0,90.0*
1,1,0.044882,0.013976,0.002165*
1,1,0.044882,0.013976,-0.002165*
1,1,0.044882,-0.013976,-0.002165*
1,1,0.044882,-0.013976,0.002165*
%
%ADD77ROUNDEDRECTD77*%
G04:AMPARAMS|DCode=78|XSize=49.213mil|YSize=92.52mil|CornerRadius=22.441mil|HoleSize=0mil|Usage=FLASHONLY|Rotation=90.000|XOffset=0mil|YOffset=0mil|HoleType=Round|Shape=RoundedRectangle|*
%AMROUNDEDRECTD78*
21,1,0.049213,0.047638,0,0,90.0*
21,1,0.004331,0.092520,0,0,90.0*
1,1,0.044882,0.023819,0.002165*
1,1,0.044882,0.023819,-0.002165*
1,1,0.044882,-0.023819,-0.002165*
1,1,0.044882,-0.023819,0.002165*
%
%ADD78ROUNDEDRECTD78*%
G04:AMPARAMS|DCode=79|XSize=5.906mil|YSize=5.906mil|CornerRadius=0mil|HoleSize=0mil|Usage=FLASHONLY|Rotation=90.000|XOffset=0mil|YOffset=0mil|HoleType=Round|Shape=RoundedRectangle|*
%AMROUNDEDRECTD79*
21,1,0.005906,0.005906,0,0,90.0*
21,1,0.005906,0.005906,0,0,90.0*
1,1,0.000000,0.002953,0.002953*
1,1,0.000000,0.002953,-0.002953*
1,1,0.000000,-0.002953,-0.002953*
1,1,0.000000,-0.002953,0.002953*
%
%ADD79ROUNDEDRECTD79*%
%ADD80C,0.005906*%
%ADD81C,0.049606*%
%ADD82R,0.049606X0.049606*%
D47*
X00346457Y-00133858D02*
D03*
X00346457Y-00122047D02*
D03*
X00346457Y-00102362D02*
D03*
X00346457Y-00090551D02*
D03*
X00346457Y-00068898D02*
D03*
X00346457Y-00049213D02*
D03*
X00346233Y-00029528D02*
D03*
X00346457Y-00009842D02*
D03*
X00346457Y00009842D02*
D03*
X00346457Y00029528D02*
D03*
X00346457Y00049213D02*
D03*
X00346457Y00068898D02*
D03*
X00346457Y00090551D02*
D03*
X00346457Y00102362D02*
D03*
X00346457Y00122047D02*
D03*
X00346457Y00133858D02*
D03*
D48*
X-00448425Y00000197D02*
D03*
X-00397835Y00000197D02*
D03*
X-00344488Y-00001476D02*
D03*
X-00344488Y-00040846D02*
D03*
X-00305330Y-00040020D02*
D03*
X-00305330Y-00000650D02*
D03*
X-00170335Y-00295276D02*
D03*
X-00170335Y-00334646D02*
D03*
X-00168059Y-00370913D02*
D03*
X-00168059Y-00410283D02*
D03*
X00062595Y-00389169D02*
D03*
X00062595Y-00349799D02*
D03*
X00370249Y00216798D02*
D03*
X00370249Y00256168D02*
D03*
X-00043623Y00280737D02*
D03*
X-00043623Y00320107D02*
D03*
X-00397835Y00039567D02*
D03*
X-00448425Y00039567D02*
D03*
D49*
X-00105315Y00007874D02*
D03*
D50*
X-00240649Y-00094488D02*
D03*
X-00240649Y-00078740D02*
D03*
X-00240649Y-00062992D02*
D03*
X-00240649Y-00047244D02*
D03*
X-00240649Y-00031496D02*
D03*
X-00240649Y-00015748D02*
D03*
X-00240649Y-00000000D02*
D03*
X-00240649Y00015748D02*
D03*
X-00240649Y00031496D02*
D03*
X-00240649Y00047244D02*
D03*
X-00240649Y00062992D02*
D03*
X-00240649Y00078740D02*
D03*
X-00240649Y00094488D02*
D03*
X-00240649Y00110236D02*
D03*
X00030020Y00015748D02*
D03*
X00030020Y-00000000D02*
D03*
X00030020Y-00015748D02*
D03*
X00030020Y-00031496D02*
D03*
X00030020Y-00047244D02*
D03*
X00030020Y-00062992D02*
D03*
X00030020Y-00078740D02*
D03*
X00030020Y-00094488D02*
D03*
X00030020Y00031496D02*
D03*
X00030020Y00047244D02*
D03*
X00030020Y00062992D02*
D03*
X00030020Y00078740D02*
D03*
X00030020Y00094488D02*
D03*
X00030020Y00110236D02*
D03*
D51*
X-00207677Y-00127461D02*
D03*
X-00191929Y-00127461D02*
D03*
X-00176181Y-00127461D02*
D03*
X-00160433Y-00127461D02*
D03*
X-00144685Y-00127461D02*
D03*
X-00128937Y-00127461D02*
D03*
X-00113189Y-00127461D02*
D03*
X-00097441Y-00127461D02*
D03*
X-00081693Y-00127461D02*
D03*
X-00065945Y-00127461D02*
D03*
X-00050197Y-00127461D02*
D03*
X-00034449Y-00127461D02*
D03*
X-00018701Y-00127461D02*
D03*
X-00002953Y-00127461D02*
D03*
X-00002953Y00143208D02*
D03*
X-00018701Y00143208D02*
D03*
X-00034449Y00143208D02*
D03*
X-00050197Y00143208D02*
D03*
X-00065945Y00143208D02*
D03*
X-00081693Y00143208D02*
D03*
X-00097441Y00143208D02*
D03*
X-00113189Y00143208D02*
D03*
X-00128937Y00143208D02*
D03*
X-00144685Y00143208D02*
D03*
X-00160433Y00143208D02*
D03*
X-00176181Y00143208D02*
D03*
X-00191929Y00143208D02*
D03*
X-00207677Y00143208D02*
D03*
D52*
X-00446850Y00335830D02*
D03*
X-00368110Y00373231D02*
D03*
X-00368110Y00298428D02*
D03*
X00187846Y-00147578D02*
D03*
X00187846Y-00222381D02*
D03*
X00266586Y-00184980D02*
D03*
D53*
X-00548228Y-00108268D02*
D03*
X-00548228Y-00080709D02*
D03*
X-00547244Y00175197D02*
D03*
X-00547244Y00202756D02*
D03*
X00275590Y00026575D02*
D03*
X00275590Y-00006890D02*
D03*
X00275590Y-00034449D02*
D03*
X00275590Y00054134D02*
D03*
X00275591Y00095472D02*
D03*
X00275591Y00123031D02*
D03*
D54*
X-00505905Y-00114217D02*
D03*
X-00505905Y-00074847D02*
D03*
X-00324315Y-00250702D02*
D03*
X-00324315Y-00290072D02*
D03*
X-00285505Y-00306134D02*
D03*
X-00285505Y-00266764D02*
D03*
X00170952Y00092483D02*
D03*
X00170952Y00131853D02*
D03*
X00276575Y-00066768D02*
D03*
X00276575Y-00106138D02*
D03*
X-00044291Y00378937D02*
D03*
X-00044291Y00418307D02*
D03*
X-00442506Y00223936D02*
D03*
X-00442506Y00184566D02*
D03*
X-00487574Y00184055D02*
D03*
X-00487574Y00223425D02*
D03*
D55*
X-00478895Y00083960D02*
D03*
X-00478895Y00131693D02*
D03*
X-00439525Y00131693D02*
D03*
X-00439525Y00083960D02*
D03*
X-00342059Y00043110D02*
D03*
X-00302689Y00043110D02*
D03*
X-00145669Y00362205D02*
D03*
X-00106299Y00362205D02*
D03*
X-00106299Y00413386D02*
D03*
X-00145669Y00413386D02*
D03*
X-00282699Y00403904D02*
D03*
X-00322069Y00403904D02*
D03*
X00181102Y-00032212D02*
D03*
X00220472Y-00032212D02*
D03*
X00220472Y-00076772D02*
D03*
X00181102Y-00076772D02*
D03*
X00135583Y-00206713D02*
D03*
X00096213Y-00206713D02*
D03*
X00458831Y00216798D02*
D03*
X00500000Y00216798D02*
D03*
X00539370Y00216798D02*
D03*
X00419461Y00216798D02*
D03*
X-00290494Y-00372464D02*
D03*
X-00291339Y-00407612D02*
D03*
X-00330709Y-00407612D02*
D03*
X-00329864Y-00372464D02*
D03*
D56*
X-00431102Y-00135964D02*
D03*
X-00405512Y-00135964D02*
D03*
X-00379921Y-00135964D02*
D03*
X-00379921Y-00054862D02*
D03*
X-00405512Y-00054862D02*
D03*
X-00431102Y-00054862D02*
D03*
D57*
X-00125984Y-00228346D02*
D03*
X-00013779Y-00228346D02*
D03*
D58*
X-00362504Y-00336831D02*
D03*
X-00323134Y-00336831D02*
D03*
X-00222678Y-00181102D02*
D03*
X-00183308Y-00181102D02*
D03*
X00106795Y-00412683D02*
D03*
X00146165Y-00412683D02*
D03*
X00185167Y-00411698D02*
D03*
X00224537Y-00411698D02*
D03*
X00307087Y-00224689D02*
D03*
X00346457Y-00224689D02*
D03*
X00137796Y00003937D02*
D03*
X00098425Y00003937D02*
D03*
X00098425Y00050197D02*
D03*
X00137796Y00050197D02*
D03*
X-00106299Y00311024D02*
D03*
X-00145669Y00311024D02*
D03*
X-00201771Y00199803D02*
D03*
X-00241141Y00199803D02*
D03*
X-00345612Y00248911D02*
D03*
X-00384982Y00248911D02*
D03*
D59*
X00166287Y00188976D02*
D03*
X00235287Y00188976D02*
D03*
D60*
X-00265400Y00312482D02*
D03*
X-00190400Y00312482D02*
D03*
X-00227900Y00402482D02*
D03*
D61*
X00127611Y-00362503D02*
D03*
X00127611Y-00287700D02*
D03*
X00222099Y-00287700D02*
D03*
X00222099Y-00325101D02*
D03*
X00222099Y-00362503D02*
D03*
D62*
X-00110236Y-00387795D02*
D03*
X-00110236Y-00350394D02*
D03*
X-00110236Y-00312992D02*
D03*
X-00001968Y-00312992D02*
D03*
X-00001968Y-00350394D02*
D03*
X-00001968Y-00387795D02*
D03*
D63*
X-00549213Y-00029528D02*
D03*
X-00505906Y-00029528D02*
D03*
X-00505906Y00029528D02*
D03*
X-00549213Y00029528D02*
D03*
D64*
X-00082805Y00190805D02*
D03*
X-00029191Y00190805D02*
D03*
X-00057030Y00218644D02*
D03*
X-00110644Y00218644D02*
D03*
D65*
X-00244788Y00265128D02*
D03*
X-00216949Y00237289D02*
D03*
X00028434Y00184195D02*
D03*
X00056273Y00156356D02*
D03*
D66*
X-00313511Y00326483D02*
D03*
X-00320347Y00365255D02*
D03*
D67*
X-00229526Y-00349409D02*
D03*
X-00229526Y-00237205D02*
D03*
X00308269Y-00286835D02*
D03*
X00308269Y-00399039D02*
D03*
D68*
X-00514360Y00352041D02*
D03*
X-00493497Y00409363D02*
D03*
D69*
X-00527559Y00078740D02*
D03*
X-00527559Y00137795D02*
D03*
D70*
X-00311748Y-00208211D02*
D03*
X-00283909Y-00180372D02*
D03*
X-00309407Y-00151972D02*
D03*
X-00281568Y-00124133D02*
D03*
D71*
X00022441Y00246242D02*
D03*
X00298031Y00246242D02*
D03*
X00298031Y00296242D02*
D03*
X00298031Y00346242D02*
D03*
X00298031Y00396242D02*
D03*
X00022441Y00396242D02*
D03*
X00022441Y00346242D02*
D03*
X00022441Y00296242D02*
D03*
D72*
X-00383858Y00105968D02*
D03*
X-00316929Y00105968D02*
D03*
X-00316929Y00192582D02*
D03*
X-00383858Y00192582D02*
D03*
D73*
X-00461909Y00265832D02*
D03*
X-00487216Y00295991D02*
D03*
D74*
X00053403Y-00151435D02*
D03*
X00081242Y-00123596D02*
D03*
X00137592Y-00126201D02*
D03*
X00109753Y-00154040D02*
D03*
D75*
X-00545275Y-00277579D02*
D03*
X-00381890Y-00277579D02*
D03*
X-00381890Y-00192934D02*
D03*
X-00545275Y-00192934D02*
D03*
D76*
X-00535433Y00242442D02*
D03*
X-00535433Y00297560D02*
D03*
D77*
X00547047Y-00170079D02*
D03*
X00547047Y00170079D02*
D03*
D78*
X00382480Y-00170079D02*
D03*
X00382480Y00170079D02*
D03*
D79*
X00403346Y-00113779D02*
D03*
D80*
X00403346Y00113779D02*
D03*
D81*
X-00497835Y-00330654D02*
D03*
X-00447835Y-00330654D02*
D03*
X-00447835Y-00396654D02*
D03*
X-00397835Y-00396654D02*
D03*
D82*
X-00497834Y-00396654D02*
D03*
M02*
