%TF.GenerationSoftware,KiCad,Pcbnew,9.0.0*%
%TF.CreationDate,2025-04-09T20:53:41+01:00*%
%TF.ProjectId,vm_rp2040_brain_0.1,766d5f72-7032-4303-9430-5f627261696e,rev?*%
%TF.SameCoordinates,Original*%
%TF.FileFunction,Other,ECO1*%
%FSLAX45Y45*%
G04 Gerber Fmt 4.5, Leading zero omitted, Abs format (unit mm)*
G04 Created by KiCad (PCBNEW 9.0.0) date 2025-04-09 20:53:41*
%MOMM*%
%LPD*%
G01*
G04 APERTURE LIST*
%ADD10C,0.140000*%
%ADD11C,0.110000*%
%ADD12C,0.200000*%
%ADD13C,0.250000*%
%ADD14C,0.210000*%
%ADD15C,0.220000*%
%ADD16C,0.100000*%
%ADD17C,0.240000*%
%ADD18C,0.170000*%
%ADD19C,0.120000*%
%ADD20C,0.290000*%
%ADD21C,0.300000*%
%ADD22C,0.270000*%
%ADD23C,0.260000*%
%ADD24C,0.130000*%
%ADD25C,0.230000*%
%ADD26C,0.280000*%
G04 APERTURE END LIST*
D10*
X900000Y1175000D02*
X900000Y1175000D01*
D11*
X-1500000Y-725000D02*
X-1500000Y-725000D01*
D12*
X625000Y1175000D02*
X625000Y1175000D01*
D13*
X-1175000Y1175000D02*
X-1175000Y1175000D01*
D14*
X475000Y1175000D02*
X475000Y1175000D01*
D15*
X300000Y1175000D02*
X300000Y1175000D01*
D16*
X-1500000Y1175000D02*
X1500000Y1175000D01*
X1500000Y-1175000D02*
X-1500000Y-1175000D01*
D17*
X-1075000Y1175000D02*
X-1075000Y1175000D01*
D18*
X750000Y1175000D02*
X750000Y1175000D01*
D19*
X1150000Y1175000D02*
X1150000Y1175000D01*
D20*
X950000Y-1175000D02*
X950000Y-1175000D01*
D16*
X-1500000Y-1175000D02*
X-1500000Y1175000D01*
D21*
X1050000Y-1175000D02*
X1050000Y-1175000D01*
D22*
X-100000Y-1175000D02*
X-100000Y-1175000D01*
D16*
X1500000Y1175000D02*
X1500000Y-1175000D01*
D23*
X-1450000Y-1175000D02*
X-1450000Y-1175000D01*
D24*
X-1425000Y1175000D02*
X-1425000Y1175000D01*
D25*
X-975000Y1175000D02*
X-975000Y1175000D01*
D26*
X75000Y-1175000D02*
X75000Y-1175000D01*
M02*
