%TF.GenerationSoftware,KiCad,Pcbnew,9.0.7*%
%TF.CreationDate,2026-03-04T13:17:29+00:00*%
%TF.ProjectId,kittenbot_ultrasonic_sensor,6b697474-656e-4626-9f74-5f756c747261,0.5*%
%TF.SameCoordinates,PX8d24d00PY36d6160*%
%TF.FileFunction,Legend,Bot*%
%TF.FilePolarity,Positive*%
%FSLAX45Y45*%
G04 Gerber Fmt 4.5, Leading zero omitted, Abs format (unit mm)*
G04 Created by KiCad (PCBNEW 9.0.7) date 2026-03-04 13:17:29*
%MOMM*%
%LPD*%
G01*
G04 APERTURE LIST*
%ADD10C,0.010000*%
G04 APERTURE END LIST*
D10*
%TO.C,MH3*%
X-2192851Y-836314D02*
X-2191177Y-836947D01*
X-2189615Y-838091D01*
X-2188092Y-839811D01*
X-2186539Y-842173D01*
X-2184884Y-845243D01*
X-2184868Y-845274D01*
X-2179128Y-857433D01*
X-2173786Y-870198D01*
X-2168874Y-883469D01*
X-2164426Y-897146D01*
X-2160477Y-911131D01*
X-2157060Y-925322D01*
X-2155819Y-931186D01*
X-2154738Y-937134D01*
X-2154047Y-942447D01*
X-2153741Y-947182D01*
X-2153817Y-951392D01*
X-2154204Y-954751D01*
X-2155653Y-961094D01*
X-2157791Y-967072D01*
X-2160593Y-972650D01*
X-2164036Y-977793D01*
X-2168095Y-982465D01*
X-2172746Y-986632D01*
X-2177967Y-990258D01*
X-2178798Y-990754D01*
X-2184069Y-993383D01*
X-2189693Y-995354D01*
X-2195561Y-996656D01*
X-2201567Y-997278D01*
X-2207604Y-997210D01*
X-2213566Y-996440D01*
X-2219346Y-994959D01*
X-2219727Y-994833D01*
X-2225333Y-992541D01*
X-2230628Y-989561D01*
X-2235544Y-985960D01*
X-2240011Y-981804D01*
X-2243962Y-977159D01*
X-2247327Y-972094D01*
X-2250038Y-966674D01*
X-2250906Y-964473D01*
X-2251361Y-963045D01*
X-2251914Y-961022D01*
X-2252519Y-958594D01*
X-2253128Y-955946D01*
X-2253696Y-953267D01*
X-2253705Y-953223D01*
X-2255868Y-943250D01*
X-2258227Y-933873D01*
X-2260839Y-924908D01*
X-2263759Y-916168D01*
X-2267043Y-907470D01*
X-2268998Y-902700D01*
X-2270366Y-899250D01*
X-2271304Y-896366D01*
X-2271817Y-893955D01*
X-2271909Y-891919D01*
X-2271588Y-890163D01*
X-2270857Y-888591D01*
X-2269862Y-887263D01*
X-2268967Y-886336D01*
X-2267996Y-885570D01*
X-2266811Y-884896D01*
X-2265271Y-884249D01*
X-2263240Y-883560D01*
X-2260578Y-882763D01*
X-2260489Y-882738D01*
X-2254810Y-880969D01*
X-2249637Y-879065D01*
X-2244683Y-876912D01*
X-2241377Y-875293D01*
X-2233863Y-871019D01*
X-2226705Y-866066D01*
X-2219976Y-860498D01*
X-2213747Y-854378D01*
X-2208093Y-847768D01*
X-2205316Y-844036D01*
X-2203123Y-841156D01*
X-2201090Y-838981D01*
X-2199144Y-837457D01*
X-2197212Y-836529D01*
X-2195222Y-836143D01*
X-2194706Y-836125D01*
X-2192851Y-836314D01*
G36*
X-2192851Y-836314D02*
G01*
X-2191177Y-836947D01*
X-2189615Y-838091D01*
X-2188092Y-839811D01*
X-2186539Y-842173D01*
X-2184884Y-845243D01*
X-2184868Y-845274D01*
X-2179128Y-857433D01*
X-2173786Y-870198D01*
X-2168874Y-883469D01*
X-2164426Y-897146D01*
X-2160477Y-911131D01*
X-2157060Y-925322D01*
X-2155819Y-931186D01*
X-2154738Y-937134D01*
X-2154047Y-942447D01*
X-2153741Y-947182D01*
X-2153817Y-951392D01*
X-2154204Y-954751D01*
X-2155653Y-961094D01*
X-2157791Y-967072D01*
X-2160593Y-972650D01*
X-2164036Y-977793D01*
X-2168095Y-982465D01*
X-2172746Y-986632D01*
X-2177967Y-990258D01*
X-2178798Y-990754D01*
X-2184069Y-993383D01*
X-2189693Y-995354D01*
X-2195561Y-996656D01*
X-2201567Y-997278D01*
X-2207604Y-997210D01*
X-2213566Y-996440D01*
X-2219346Y-994959D01*
X-2219727Y-994833D01*
X-2225333Y-992541D01*
X-2230628Y-989561D01*
X-2235544Y-985960D01*
X-2240011Y-981804D01*
X-2243962Y-977159D01*
X-2247327Y-972094D01*
X-2250038Y-966674D01*
X-2250906Y-964473D01*
X-2251361Y-963045D01*
X-2251914Y-961022D01*
X-2252519Y-958594D01*
X-2253128Y-955946D01*
X-2253696Y-953267D01*
X-2253705Y-953223D01*
X-2255868Y-943250D01*
X-2258227Y-933873D01*
X-2260839Y-924908D01*
X-2263759Y-916168D01*
X-2267043Y-907470D01*
X-2268998Y-902700D01*
X-2270366Y-899250D01*
X-2271304Y-896366D01*
X-2271817Y-893955D01*
X-2271909Y-891919D01*
X-2271588Y-890163D01*
X-2270857Y-888591D01*
X-2269862Y-887263D01*
X-2268967Y-886336D01*
X-2267996Y-885570D01*
X-2266811Y-884896D01*
X-2265271Y-884249D01*
X-2263240Y-883560D01*
X-2260578Y-882763D01*
X-2260489Y-882738D01*
X-2254810Y-880969D01*
X-2249637Y-879065D01*
X-2244683Y-876912D01*
X-2241377Y-875293D01*
X-2233863Y-871019D01*
X-2226705Y-866066D01*
X-2219976Y-860498D01*
X-2213747Y-854378D01*
X-2208093Y-847768D01*
X-2205316Y-844036D01*
X-2203123Y-841156D01*
X-2201090Y-838981D01*
X-2199144Y-837457D01*
X-2197212Y-836529D01*
X-2195222Y-836143D01*
X-2194706Y-836125D01*
X-2192851Y-836314D01*
G37*
X-2446938Y-653954D02*
X-2444770Y-653991D01*
X-2442673Y-654092D01*
X-2440549Y-654271D01*
X-2438296Y-654545D01*
X-2435815Y-654931D01*
X-2433004Y-655444D01*
X-2429763Y-656100D01*
X-2425992Y-656916D01*
X-2421591Y-657908D01*
X-2419752Y-658330D01*
X-2408411Y-661181D01*
X-2396793Y-664561D01*
X-2385084Y-668402D01*
X-2373470Y-672638D01*
X-2362137Y-677202D01*
X-2351269Y-682028D01*
X-2344152Y-685469D01*
X-2341399Y-686917D01*
X-2339296Y-688197D01*
X-2337739Y-689388D01*
X-2336624Y-690572D01*
X-2335847Y-691830D01*
X-2335760Y-692016D01*
X-2335162Y-693819D01*
X-2335167Y-695502D01*
X-2335563Y-696926D01*
X-2336648Y-698897D01*
X-2338480Y-700922D01*
X-2341018Y-702956D01*
X-2341497Y-703286D01*
X-2348820Y-708694D01*
X-2355567Y-714614D01*
X-2361713Y-721018D01*
X-2367235Y-727877D01*
X-2372107Y-735160D01*
X-2376307Y-742840D01*
X-2378858Y-748495D01*
X-2380092Y-751614D01*
X-2381214Y-754753D01*
X-2382289Y-758115D01*
X-2383383Y-761903D01*
X-2384268Y-765197D01*
X-2384800Y-767021D01*
X-2385341Y-768326D01*
X-2386025Y-769376D01*
X-2386770Y-770218D01*
X-2388327Y-771562D01*
X-2389965Y-772370D01*
X-2391796Y-772646D01*
X-2393930Y-772396D01*
X-2396475Y-771622D01*
X-2398718Y-770703D01*
X-2410770Y-765758D01*
X-2423199Y-761430D01*
X-2436063Y-757700D01*
X-2449421Y-754550D01*
X-2452489Y-753922D01*
X-2455957Y-753211D01*
X-2458795Y-752580D01*
X-2461157Y-751983D01*
X-2463196Y-751375D01*
X-2465067Y-750712D01*
X-2466924Y-749949D01*
X-2468307Y-749327D01*
X-2473605Y-746453D01*
X-2478512Y-742939D01*
X-2482971Y-738856D01*
X-2486923Y-734279D01*
X-2490313Y-729280D01*
X-2493084Y-723932D01*
X-2495177Y-718307D01*
X-2496342Y-713575D01*
X-2497154Y-707299D01*
X-2497208Y-701136D01*
X-2496536Y-695135D01*
X-2495170Y-689343D01*
X-2493143Y-683810D01*
X-2490487Y-678584D01*
X-2487236Y-673714D01*
X-2483421Y-669248D01*
X-2479075Y-665235D01*
X-2474230Y-661722D01*
X-2468920Y-658760D01*
X-2463176Y-656396D01*
X-2457031Y-654679D01*
X-2456860Y-654642D01*
X-2455092Y-654324D01*
X-2453168Y-654111D01*
X-2450898Y-653992D01*
X-2448093Y-653951D01*
X-2446938Y-653954D01*
G36*
X-2446938Y-653954D02*
G01*
X-2444770Y-653991D01*
X-2442673Y-654092D01*
X-2440549Y-654271D01*
X-2438296Y-654545D01*
X-2435815Y-654931D01*
X-2433004Y-655444D01*
X-2429763Y-656100D01*
X-2425992Y-656916D01*
X-2421591Y-657908D01*
X-2419752Y-658330D01*
X-2408411Y-661181D01*
X-2396793Y-664561D01*
X-2385084Y-668402D01*
X-2373470Y-672638D01*
X-2362137Y-677202D01*
X-2351269Y-682028D01*
X-2344152Y-685469D01*
X-2341399Y-686917D01*
X-2339296Y-688197D01*
X-2337739Y-689388D01*
X-2336624Y-690572D01*
X-2335847Y-691830D01*
X-2335760Y-692016D01*
X-2335162Y-693819D01*
X-2335167Y-695502D01*
X-2335563Y-696926D01*
X-2336648Y-698897D01*
X-2338480Y-700922D01*
X-2341018Y-702956D01*
X-2341497Y-703286D01*
X-2348820Y-708694D01*
X-2355567Y-714614D01*
X-2361713Y-721018D01*
X-2367235Y-727877D01*
X-2372107Y-735160D01*
X-2376307Y-742840D01*
X-2378858Y-748495D01*
X-2380092Y-751614D01*
X-2381214Y-754753D01*
X-2382289Y-758115D01*
X-2383383Y-761903D01*
X-2384268Y-765197D01*
X-2384800Y-767021D01*
X-2385341Y-768326D01*
X-2386025Y-769376D01*
X-2386770Y-770218D01*
X-2388327Y-771562D01*
X-2389965Y-772370D01*
X-2391796Y-772646D01*
X-2393930Y-772396D01*
X-2396475Y-771622D01*
X-2398718Y-770703D01*
X-2410770Y-765758D01*
X-2423199Y-761430D01*
X-2436063Y-757700D01*
X-2449421Y-754550D01*
X-2452489Y-753922D01*
X-2455957Y-753211D01*
X-2458795Y-752580D01*
X-2461157Y-751983D01*
X-2463196Y-751375D01*
X-2465067Y-750712D01*
X-2466924Y-749949D01*
X-2468307Y-749327D01*
X-2473605Y-746453D01*
X-2478512Y-742939D01*
X-2482971Y-738856D01*
X-2486923Y-734279D01*
X-2490313Y-729280D01*
X-2493084Y-723932D01*
X-2495177Y-718307D01*
X-2496342Y-713575D01*
X-2497154Y-707299D01*
X-2497208Y-701136D01*
X-2496536Y-695135D01*
X-2495170Y-689343D01*
X-2493143Y-683810D01*
X-2490487Y-678584D01*
X-2487236Y-673714D01*
X-2483421Y-669248D01*
X-2479075Y-665235D01*
X-2474230Y-661722D01*
X-2468920Y-658760D01*
X-2463176Y-656396D01*
X-2457031Y-654679D01*
X-2456860Y-654642D01*
X-2455092Y-654324D01*
X-2453168Y-654111D01*
X-2450898Y-653992D01*
X-2448093Y-653951D01*
X-2446938Y-653954D01*
G37*
X-2311371Y-749694D02*
X-2310369Y-749970D01*
X-2309780Y-750189D01*
X-2309181Y-750487D01*
X-2308509Y-750918D01*
X-2307700Y-751540D01*
X-2306691Y-752407D01*
X-2305419Y-753575D01*
X-2303820Y-755101D01*
X-2301833Y-757040D01*
X-2299392Y-759448D01*
X-2297416Y-761408D01*
X-2286601Y-772143D01*
X-2275985Y-761623D01*
X-2273128Y-758814D01*
X-2270552Y-756327D01*
X-2268308Y-754206D01*
X-2266443Y-752497D01*
X-2265008Y-751246D01*
X-2264051Y-750499D01*
X-2263780Y-750335D01*
X-2261965Y-749771D01*
X-2259765Y-749545D01*
X-2257494Y-749653D01*
X-2255468Y-750091D01*
X-2254615Y-750449D01*
X-2252692Y-751814D01*
X-2251014Y-753651D01*
X-2249889Y-755583D01*
X-2249482Y-757170D01*
X-2249320Y-759169D01*
X-2249400Y-761237D01*
X-2249724Y-763032D01*
X-2249909Y-763569D01*
X-2250401Y-764320D01*
X-2251465Y-765601D01*
X-2253093Y-767401D01*
X-2255276Y-769711D01*
X-2258004Y-772519D01*
X-2261267Y-775817D01*
X-2261306Y-775856D01*
X-2272089Y-786667D01*
X-2261506Y-797297D01*
X-2258412Y-800424D01*
X-2255861Y-803043D01*
X-2253820Y-805192D01*
X-2252253Y-806909D01*
X-2251128Y-808231D01*
X-2250410Y-809194D01*
X-2250117Y-809703D01*
X-2249410Y-812134D01*
X-2249301Y-814793D01*
X-2249782Y-817391D01*
X-2250322Y-818744D01*
X-2251888Y-821065D01*
X-2253950Y-822787D01*
X-2256213Y-823793D01*
X-2257982Y-824231D01*
X-2259484Y-824335D01*
X-2261084Y-824101D01*
X-2262419Y-823747D01*
X-2262993Y-823560D01*
X-2263556Y-823312D01*
X-2264171Y-822949D01*
X-2264901Y-822416D01*
X-2265807Y-821658D01*
X-2266952Y-820619D01*
X-2268398Y-819245D01*
X-2270209Y-817481D01*
X-2272445Y-815272D01*
X-2275171Y-812563D01*
X-2275587Y-812148D01*
X-2286601Y-801179D01*
X-2297614Y-812148D01*
X-2300412Y-814930D01*
X-2302712Y-817205D01*
X-2304577Y-819027D01*
X-2306070Y-820451D01*
X-2307253Y-821533D01*
X-2308188Y-822326D01*
X-2308938Y-822887D01*
X-2309565Y-823270D01*
X-2310132Y-823530D01*
X-2310701Y-823723D01*
X-2310783Y-823747D01*
X-2312661Y-824212D01*
X-2314190Y-824338D01*
X-2315737Y-824128D01*
X-2316989Y-823793D01*
X-2319455Y-822669D01*
X-2321443Y-820960D01*
X-2322886Y-818761D01*
X-2323717Y-816165D01*
X-2323898Y-814080D01*
X-2323875Y-812964D01*
X-2323780Y-811968D01*
X-2323563Y-811023D01*
X-2323176Y-810061D01*
X-2322569Y-809013D01*
X-2321691Y-807812D01*
X-2320495Y-806390D01*
X-2318929Y-804678D01*
X-2316946Y-802609D01*
X-2314494Y-800114D01*
X-2311696Y-797297D01*
X-2301113Y-786667D01*
X-2311879Y-775856D01*
X-2315119Y-772581D01*
X-2317795Y-769828D01*
X-2319923Y-767579D01*
X-2321522Y-765816D01*
X-2322607Y-764520D01*
X-2323195Y-763673D01*
X-2323276Y-763508D01*
X-2323863Y-761115D01*
X-2323841Y-758511D01*
X-2323255Y-755934D01*
X-2322150Y-753622D01*
X-2321205Y-752407D01*
X-2319186Y-750828D01*
X-2316756Y-749823D01*
X-2314092Y-749432D01*
X-2311371Y-749694D01*
G36*
X-2311371Y-749694D02*
G01*
X-2310369Y-749970D01*
X-2309780Y-750189D01*
X-2309181Y-750487D01*
X-2308509Y-750918D01*
X-2307700Y-751540D01*
X-2306691Y-752407D01*
X-2305419Y-753575D01*
X-2303820Y-755101D01*
X-2301833Y-757040D01*
X-2299392Y-759448D01*
X-2297416Y-761408D01*
X-2286601Y-772143D01*
X-2275985Y-761623D01*
X-2273128Y-758814D01*
X-2270552Y-756327D01*
X-2268308Y-754206D01*
X-2266443Y-752497D01*
X-2265008Y-751246D01*
X-2264051Y-750499D01*
X-2263780Y-750335D01*
X-2261965Y-749771D01*
X-2259765Y-749545D01*
X-2257494Y-749653D01*
X-2255468Y-750091D01*
X-2254615Y-750449D01*
X-2252692Y-751814D01*
X-2251014Y-753651D01*
X-2249889Y-755583D01*
X-2249482Y-757170D01*
X-2249320Y-759169D01*
X-2249400Y-761237D01*
X-2249724Y-763032D01*
X-2249909Y-763569D01*
X-2250401Y-764320D01*
X-2251465Y-765601D01*
X-2253093Y-767401D01*
X-2255276Y-769711D01*
X-2258004Y-772519D01*
X-2261267Y-775817D01*
X-2261306Y-775856D01*
X-2272089Y-786667D01*
X-2261506Y-797297D01*
X-2258412Y-800424D01*
X-2255861Y-803043D01*
X-2253820Y-805192D01*
X-2252253Y-806909D01*
X-2251128Y-808231D01*
X-2250410Y-809194D01*
X-2250117Y-809703D01*
X-2249410Y-812134D01*
X-2249301Y-814793D01*
X-2249782Y-817391D01*
X-2250322Y-818744D01*
X-2251888Y-821065D01*
X-2253950Y-822787D01*
X-2256213Y-823793D01*
X-2257982Y-824231D01*
X-2259484Y-824335D01*
X-2261084Y-824101D01*
X-2262419Y-823747D01*
X-2262993Y-823560D01*
X-2263556Y-823312D01*
X-2264171Y-822949D01*
X-2264901Y-822416D01*
X-2265807Y-821658D01*
X-2266952Y-820619D01*
X-2268398Y-819245D01*
X-2270209Y-817481D01*
X-2272445Y-815272D01*
X-2275171Y-812563D01*
X-2275587Y-812148D01*
X-2286601Y-801179D01*
X-2297614Y-812148D01*
X-2300412Y-814930D01*
X-2302712Y-817205D01*
X-2304577Y-819027D01*
X-2306070Y-820451D01*
X-2307253Y-821533D01*
X-2308188Y-822326D01*
X-2308938Y-822887D01*
X-2309565Y-823270D01*
X-2310132Y-823530D01*
X-2310701Y-823723D01*
X-2310783Y-823747D01*
X-2312661Y-824212D01*
X-2314190Y-824338D01*
X-2315737Y-824128D01*
X-2316989Y-823793D01*
X-2319455Y-822669D01*
X-2321443Y-820960D01*
X-2322886Y-818761D01*
X-2323717Y-816165D01*
X-2323898Y-814080D01*
X-2323875Y-812964D01*
X-2323780Y-811968D01*
X-2323563Y-811023D01*
X-2323176Y-810061D01*
X-2322569Y-809013D01*
X-2321691Y-807812D01*
X-2320495Y-806390D01*
X-2318929Y-804678D01*
X-2316946Y-802609D01*
X-2314494Y-800114D01*
X-2311696Y-797297D01*
X-2301113Y-786667D01*
X-2311879Y-775856D01*
X-2315119Y-772581D01*
X-2317795Y-769828D01*
X-2319923Y-767579D01*
X-2321522Y-765816D01*
X-2322607Y-764520D01*
X-2323195Y-763673D01*
X-2323276Y-763508D01*
X-2323863Y-761115D01*
X-2323841Y-758511D01*
X-2323255Y-755934D01*
X-2322150Y-753622D01*
X-2321205Y-752407D01*
X-2319186Y-750828D01*
X-2316756Y-749823D01*
X-2314092Y-749432D01*
X-2311371Y-749694D01*
G37*
%TO.C,MH4*%
X2451232Y-653710D02*
X2454590Y-654097D01*
X2460934Y-655546D01*
X2466912Y-657683D01*
X2472490Y-660486D01*
X2477632Y-663928D01*
X2482305Y-667987D01*
X2486471Y-672639D01*
X2490098Y-677859D01*
X2490593Y-678690D01*
X2493223Y-683962D01*
X2495194Y-689585D01*
X2496496Y-695453D01*
X2497118Y-701459D01*
X2497049Y-707497D01*
X2496280Y-713459D01*
X2494799Y-719238D01*
X2494672Y-719620D01*
X2492381Y-725226D01*
X2489401Y-730521D01*
X2485800Y-735436D01*
X2481643Y-739903D01*
X2476999Y-743854D01*
X2471934Y-747219D01*
X2466514Y-749931D01*
X2464313Y-750798D01*
X2462884Y-751253D01*
X2460862Y-751806D01*
X2458434Y-752411D01*
X2455786Y-753021D01*
X2453107Y-753589D01*
X2453063Y-753598D01*
X2443090Y-755760D01*
X2433713Y-758119D01*
X2424748Y-760731D01*
X2416008Y-763651D01*
X2407310Y-766936D01*
X2402540Y-768891D01*
X2399089Y-770259D01*
X2396206Y-771196D01*
X2393794Y-771709D01*
X2391759Y-771802D01*
X2390003Y-771480D01*
X2388431Y-770750D01*
X2387103Y-769755D01*
X2386176Y-768860D01*
X2385410Y-767889D01*
X2384736Y-766703D01*
X2384088Y-765164D01*
X2383400Y-763133D01*
X2382603Y-760470D01*
X2382577Y-760382D01*
X2380809Y-754703D01*
X2378904Y-749529D01*
X2376752Y-744575D01*
X2375132Y-741269D01*
X2370859Y-733756D01*
X2365906Y-726598D01*
X2360338Y-719868D01*
X2354218Y-713640D01*
X2347608Y-707985D01*
X2343876Y-705209D01*
X2340996Y-703016D01*
X2338821Y-700982D01*
X2337297Y-699036D01*
X2336369Y-697104D01*
X2335983Y-695115D01*
X2335965Y-694598D01*
X2336153Y-692743D01*
X2336787Y-691070D01*
X2337930Y-689507D01*
X2339650Y-687985D01*
X2342012Y-686431D01*
X2345083Y-684776D01*
X2345114Y-684760D01*
X2357273Y-679021D01*
X2370038Y-673678D01*
X2383309Y-668766D01*
X2396986Y-664319D01*
X2410971Y-660370D01*
X2425162Y-656952D01*
X2431026Y-655711D01*
X2436974Y-654630D01*
X2442287Y-653939D01*
X2447021Y-653633D01*
X2451232Y-653710D01*
G36*
X2451232Y-653710D02*
G01*
X2454590Y-654097D01*
X2460934Y-655546D01*
X2466912Y-657683D01*
X2472490Y-660486D01*
X2477632Y-663928D01*
X2482305Y-667987D01*
X2486471Y-672639D01*
X2490098Y-677859D01*
X2490593Y-678690D01*
X2493223Y-683962D01*
X2495194Y-689585D01*
X2496496Y-695453D01*
X2497118Y-701459D01*
X2497049Y-707497D01*
X2496280Y-713459D01*
X2494799Y-719238D01*
X2494672Y-719620D01*
X2492381Y-725226D01*
X2489401Y-730521D01*
X2485800Y-735436D01*
X2481643Y-739903D01*
X2476999Y-743854D01*
X2471934Y-747219D01*
X2466514Y-749931D01*
X2464313Y-750798D01*
X2462884Y-751253D01*
X2460862Y-751806D01*
X2458434Y-752411D01*
X2455786Y-753021D01*
X2453107Y-753589D01*
X2453063Y-753598D01*
X2443090Y-755760D01*
X2433713Y-758119D01*
X2424748Y-760731D01*
X2416008Y-763651D01*
X2407310Y-766936D01*
X2402540Y-768891D01*
X2399089Y-770259D01*
X2396206Y-771196D01*
X2393794Y-771709D01*
X2391759Y-771802D01*
X2390003Y-771480D01*
X2388431Y-770750D01*
X2387103Y-769755D01*
X2386176Y-768860D01*
X2385410Y-767889D01*
X2384736Y-766703D01*
X2384088Y-765164D01*
X2383400Y-763133D01*
X2382603Y-760470D01*
X2382577Y-760382D01*
X2380809Y-754703D01*
X2378904Y-749529D01*
X2376752Y-744575D01*
X2375132Y-741269D01*
X2370859Y-733756D01*
X2365906Y-726598D01*
X2360338Y-719868D01*
X2354218Y-713640D01*
X2347608Y-707985D01*
X2343876Y-705209D01*
X2340996Y-703016D01*
X2338821Y-700982D01*
X2337297Y-699036D01*
X2336369Y-697104D01*
X2335983Y-695115D01*
X2335965Y-694598D01*
X2336153Y-692743D01*
X2336787Y-691070D01*
X2337930Y-689507D01*
X2339650Y-687985D01*
X2342012Y-686431D01*
X2345083Y-684776D01*
X2345114Y-684760D01*
X2357273Y-679021D01*
X2370038Y-673678D01*
X2383309Y-668766D01*
X2396986Y-664319D01*
X2410971Y-660370D01*
X2425162Y-656952D01*
X2431026Y-655711D01*
X2436974Y-654630D01*
X2442287Y-653939D01*
X2447021Y-653633D01*
X2451232Y-653710D01*
G37*
X2195341Y-835060D02*
X2196765Y-835455D01*
X2198737Y-836541D01*
X2200761Y-838373D01*
X2202796Y-840911D01*
X2203126Y-841389D01*
X2208533Y-848713D01*
X2214454Y-855459D01*
X2220858Y-861606D01*
X2227716Y-867127D01*
X2235000Y-872000D01*
X2242680Y-876199D01*
X2248335Y-878750D01*
X2251454Y-879985D01*
X2254593Y-881107D01*
X2257955Y-882182D01*
X2261743Y-883275D01*
X2265037Y-884161D01*
X2266861Y-884692D01*
X2268166Y-885234D01*
X2269216Y-885917D01*
X2270058Y-886663D01*
X2271402Y-888219D01*
X2272210Y-889858D01*
X2272486Y-891689D01*
X2272235Y-893822D01*
X2271462Y-896367D01*
X2270542Y-898610D01*
X2265598Y-910662D01*
X2261270Y-923091D01*
X2257540Y-935955D01*
X2254390Y-949313D01*
X2253761Y-952381D01*
X2253051Y-955849D01*
X2252420Y-958688D01*
X2251823Y-961049D01*
X2251215Y-963089D01*
X2250552Y-964960D01*
X2249789Y-966816D01*
X2249167Y-968200D01*
X2246293Y-973498D01*
X2242778Y-978405D01*
X2238696Y-982863D01*
X2234119Y-986816D01*
X2229120Y-990206D01*
X2223771Y-992976D01*
X2218147Y-995070D01*
X2213415Y-996234D01*
X2207139Y-997047D01*
X2200976Y-997100D01*
X2194974Y-996428D01*
X2189183Y-995062D01*
X2183650Y-993035D01*
X2178424Y-990380D01*
X2173554Y-987128D01*
X2169088Y-983313D01*
X2165074Y-978967D01*
X2161562Y-974122D01*
X2158600Y-968812D01*
X2156236Y-963068D01*
X2154518Y-956924D01*
X2154481Y-956753D01*
X2154163Y-954984D01*
X2153951Y-953060D01*
X2153831Y-950790D01*
X2153791Y-947985D01*
X2153793Y-946831D01*
X2153831Y-944662D01*
X2153931Y-942566D01*
X2154111Y-940442D01*
X2154385Y-938189D01*
X2154770Y-935707D01*
X2155283Y-932896D01*
X2155940Y-929655D01*
X2156756Y-925885D01*
X2157748Y-921483D01*
X2158169Y-919645D01*
X2161021Y-908303D01*
X2164400Y-896686D01*
X2168241Y-884977D01*
X2172477Y-873363D01*
X2177041Y-862029D01*
X2181867Y-851161D01*
X2185308Y-844044D01*
X2186757Y-841292D01*
X2188036Y-839189D01*
X2189228Y-837631D01*
X2190412Y-836516D01*
X2191670Y-835739D01*
X2191856Y-835652D01*
X2193659Y-835055D01*
X2195341Y-835060D01*
G36*
X2195341Y-835060D02*
G01*
X2196765Y-835455D01*
X2198737Y-836541D01*
X2200761Y-838373D01*
X2202796Y-840911D01*
X2203126Y-841389D01*
X2208533Y-848713D01*
X2214454Y-855459D01*
X2220858Y-861606D01*
X2227716Y-867127D01*
X2235000Y-872000D01*
X2242680Y-876199D01*
X2248335Y-878750D01*
X2251454Y-879985D01*
X2254593Y-881107D01*
X2257955Y-882182D01*
X2261743Y-883275D01*
X2265037Y-884161D01*
X2266861Y-884692D01*
X2268166Y-885234D01*
X2269216Y-885917D01*
X2270058Y-886663D01*
X2271402Y-888219D01*
X2272210Y-889858D01*
X2272486Y-891689D01*
X2272235Y-893822D01*
X2271462Y-896367D01*
X2270542Y-898610D01*
X2265598Y-910662D01*
X2261270Y-923091D01*
X2257540Y-935955D01*
X2254390Y-949313D01*
X2253761Y-952381D01*
X2253051Y-955849D01*
X2252420Y-958688D01*
X2251823Y-961049D01*
X2251215Y-963089D01*
X2250552Y-964960D01*
X2249789Y-966816D01*
X2249167Y-968200D01*
X2246293Y-973498D01*
X2242778Y-978405D01*
X2238696Y-982863D01*
X2234119Y-986816D01*
X2229120Y-990206D01*
X2223771Y-992976D01*
X2218147Y-995070D01*
X2213415Y-996234D01*
X2207139Y-997047D01*
X2200976Y-997100D01*
X2194974Y-996428D01*
X2189183Y-995062D01*
X2183650Y-993035D01*
X2178424Y-990380D01*
X2173554Y-987128D01*
X2169088Y-983313D01*
X2165074Y-978967D01*
X2161562Y-974122D01*
X2158600Y-968812D01*
X2156236Y-963068D01*
X2154518Y-956924D01*
X2154481Y-956753D01*
X2154163Y-954984D01*
X2153951Y-953060D01*
X2153831Y-950790D01*
X2153791Y-947985D01*
X2153793Y-946831D01*
X2153831Y-944662D01*
X2153931Y-942566D01*
X2154111Y-940442D01*
X2154385Y-938189D01*
X2154770Y-935707D01*
X2155283Y-932896D01*
X2155940Y-929655D01*
X2156756Y-925885D01*
X2157748Y-921483D01*
X2158169Y-919645D01*
X2161021Y-908303D01*
X2164400Y-896686D01*
X2168241Y-884977D01*
X2172477Y-873363D01*
X2177041Y-862029D01*
X2181867Y-851161D01*
X2185308Y-844044D01*
X2186757Y-841292D01*
X2188036Y-839189D01*
X2189228Y-837631D01*
X2190412Y-836516D01*
X2191670Y-835739D01*
X2191856Y-835652D01*
X2193659Y-835055D01*
X2195341Y-835060D01*
G37*
X2316203Y-746728D02*
X2317101Y-746928D01*
X2320104Y-748152D01*
X2322602Y-749942D01*
X2324538Y-752220D01*
X2325857Y-754906D01*
X2326501Y-757923D01*
X2326528Y-760072D01*
X2326481Y-760824D01*
X2326421Y-761511D01*
X2326317Y-762169D01*
X2326137Y-762833D01*
X2325851Y-763540D01*
X2325426Y-764326D01*
X2324832Y-765225D01*
X2324038Y-766274D01*
X2323011Y-767508D01*
X2321722Y-768963D01*
X2320138Y-770675D01*
X2318229Y-772680D01*
X2315963Y-775013D01*
X2313309Y-777710D01*
X2310236Y-780806D01*
X2306712Y-784338D01*
X2302706Y-788341D01*
X2298188Y-792851D01*
X2295557Y-795476D01*
X2290901Y-800121D01*
X2286771Y-804238D01*
X2283134Y-807859D01*
X2279953Y-811017D01*
X2277196Y-813745D01*
X2274827Y-816075D01*
X2272812Y-818041D01*
X2271117Y-819676D01*
X2269706Y-821012D01*
X2268545Y-822082D01*
X2267601Y-822919D01*
X2266837Y-823555D01*
X2266220Y-824025D01*
X2265715Y-824359D01*
X2265288Y-824592D01*
X2264903Y-824756D01*
X2264686Y-824833D01*
X2261532Y-825505D01*
X2258441Y-825445D01*
X2255519Y-824692D01*
X2252872Y-823286D01*
X2250608Y-821266D01*
X2248988Y-818965D01*
X2248429Y-817884D01*
X2248083Y-816932D01*
X2247899Y-815861D01*
X2247828Y-814419D01*
X2247818Y-813084D01*
X2247853Y-811130D01*
X2247984Y-809712D01*
X2248255Y-808573D01*
X2248707Y-807459D01*
X2248768Y-807329D01*
X2249035Y-806886D01*
X2249511Y-806253D01*
X2250226Y-805399D01*
X2251209Y-804296D01*
X2252489Y-802911D01*
X2254094Y-801216D01*
X2256055Y-799180D01*
X2258400Y-796774D01*
X2261158Y-793966D01*
X2264359Y-790726D01*
X2268031Y-787026D01*
X2272203Y-782834D01*
X2276904Y-778120D01*
X2277939Y-777084D01*
X2282616Y-772403D01*
X2286768Y-768252D01*
X2290430Y-764600D01*
X2293635Y-761414D01*
X2296416Y-758662D01*
X2298808Y-756310D01*
X2300845Y-754326D01*
X2302560Y-752678D01*
X2303988Y-751333D01*
X2305162Y-750258D01*
X2306116Y-749421D01*
X2306885Y-748789D01*
X2307502Y-748330D01*
X2308000Y-748010D01*
X2308376Y-747815D01*
X2310932Y-746963D01*
X2313642Y-746590D01*
X2316203Y-746728D01*
G36*
X2316203Y-746728D02*
G01*
X2317101Y-746928D01*
X2320104Y-748152D01*
X2322602Y-749942D01*
X2324538Y-752220D01*
X2325857Y-754906D01*
X2326501Y-757923D01*
X2326528Y-760072D01*
X2326481Y-760824D01*
X2326421Y-761511D01*
X2326317Y-762169D01*
X2326137Y-762833D01*
X2325851Y-763540D01*
X2325426Y-764326D01*
X2324832Y-765225D01*
X2324038Y-766274D01*
X2323011Y-767508D01*
X2321722Y-768963D01*
X2320138Y-770675D01*
X2318229Y-772680D01*
X2315963Y-775013D01*
X2313309Y-777710D01*
X2310236Y-780806D01*
X2306712Y-784338D01*
X2302706Y-788341D01*
X2298188Y-792851D01*
X2295557Y-795476D01*
X2290901Y-800121D01*
X2286771Y-804238D01*
X2283134Y-807859D01*
X2279953Y-811017D01*
X2277196Y-813745D01*
X2274827Y-816075D01*
X2272812Y-818041D01*
X2271117Y-819676D01*
X2269706Y-821012D01*
X2268545Y-822082D01*
X2267601Y-822919D01*
X2266837Y-823555D01*
X2266220Y-824025D01*
X2265715Y-824359D01*
X2265288Y-824592D01*
X2264903Y-824756D01*
X2264686Y-824833D01*
X2261532Y-825505D01*
X2258441Y-825445D01*
X2255519Y-824692D01*
X2252872Y-823286D01*
X2250608Y-821266D01*
X2248988Y-818965D01*
X2248429Y-817884D01*
X2248083Y-816932D01*
X2247899Y-815861D01*
X2247828Y-814419D01*
X2247818Y-813084D01*
X2247853Y-811130D01*
X2247984Y-809712D01*
X2248255Y-808573D01*
X2248707Y-807459D01*
X2248768Y-807329D01*
X2249035Y-806886D01*
X2249511Y-806253D01*
X2250226Y-805399D01*
X2251209Y-804296D01*
X2252489Y-802911D01*
X2254094Y-801216D01*
X2256055Y-799180D01*
X2258400Y-796774D01*
X2261158Y-793966D01*
X2264359Y-790726D01*
X2268031Y-787026D01*
X2272203Y-782834D01*
X2276904Y-778120D01*
X2277939Y-777084D01*
X2282616Y-772403D01*
X2286768Y-768252D01*
X2290430Y-764600D01*
X2293635Y-761414D01*
X2296416Y-758662D01*
X2298808Y-756310D01*
X2300845Y-754326D01*
X2302560Y-752678D01*
X2303988Y-751333D01*
X2305162Y-750258D01*
X2306116Y-749421D01*
X2306885Y-748789D01*
X2307502Y-748330D01*
X2308000Y-748010D01*
X2308376Y-747815D01*
X2310932Y-746963D01*
X2313642Y-746590D01*
X2316203Y-746728D01*
G37*
%TO.C,MH2*%
X2207557Y997289D02*
X2213519Y996520D01*
X2219299Y995039D01*
X2219680Y994912D01*
X2225286Y992621D01*
X2230581Y989641D01*
X2235497Y986040D01*
X2239964Y981883D01*
X2243915Y977239D01*
X2247280Y972174D01*
X2249991Y966754D01*
X2250859Y964553D01*
X2251314Y963124D01*
X2251867Y961102D01*
X2252471Y958674D01*
X2253081Y956026D01*
X2253649Y953347D01*
X2253658Y953303D01*
X2255821Y943330D01*
X2258180Y933953D01*
X2260791Y924988D01*
X2263712Y916248D01*
X2266996Y907550D01*
X2268951Y902780D01*
X2270319Y899329D01*
X2271257Y896446D01*
X2271769Y894034D01*
X2271862Y891999D01*
X2271541Y890243D01*
X2270810Y888671D01*
X2269815Y887343D01*
X2268920Y886416D01*
X2267949Y885650D01*
X2266764Y884976D01*
X2265224Y884328D01*
X2263193Y883640D01*
X2260531Y882843D01*
X2260442Y882817D01*
X2254763Y881049D01*
X2249590Y879144D01*
X2244636Y876992D01*
X2241330Y875372D01*
X2233816Y871099D01*
X2226658Y866146D01*
X2219929Y860578D01*
X2213700Y854458D01*
X2208046Y847848D01*
X2205269Y844116D01*
X2203076Y841236D01*
X2201043Y839061D01*
X2199097Y837537D01*
X2197165Y836609D01*
X2195175Y836223D01*
X2194659Y836205D01*
X2192804Y836393D01*
X2191130Y837027D01*
X2189568Y838170D01*
X2188045Y839890D01*
X2186492Y842252D01*
X2184837Y845323D01*
X2184821Y845354D01*
X2179081Y857513D01*
X2173738Y870278D01*
X2168827Y883549D01*
X2164379Y897226D01*
X2160430Y911211D01*
X2157013Y925402D01*
X2155772Y931266D01*
X2154691Y937214D01*
X2154000Y942527D01*
X2153694Y947261D01*
X2153770Y951472D01*
X2154157Y954830D01*
X2155606Y961174D01*
X2157744Y967152D01*
X2160546Y972730D01*
X2163988Y977872D01*
X2168048Y982545D01*
X2172699Y986711D01*
X2177920Y990338D01*
X2178751Y990833D01*
X2184022Y993463D01*
X2189645Y995434D01*
X2195514Y996736D01*
X2201520Y997358D01*
X2207557Y997289D01*
G36*
X2207557Y997289D02*
G01*
X2213519Y996520D01*
X2219299Y995039D01*
X2219680Y994912D01*
X2225286Y992621D01*
X2230581Y989641D01*
X2235497Y986040D01*
X2239964Y981883D01*
X2243915Y977239D01*
X2247280Y972174D01*
X2249991Y966754D01*
X2250859Y964553D01*
X2251314Y963124D01*
X2251867Y961102D01*
X2252471Y958674D01*
X2253081Y956026D01*
X2253649Y953347D01*
X2253658Y953303D01*
X2255821Y943330D01*
X2258180Y933953D01*
X2260791Y924988D01*
X2263712Y916248D01*
X2266996Y907550D01*
X2268951Y902780D01*
X2270319Y899329D01*
X2271257Y896446D01*
X2271769Y894034D01*
X2271862Y891999D01*
X2271541Y890243D01*
X2270810Y888671D01*
X2269815Y887343D01*
X2268920Y886416D01*
X2267949Y885650D01*
X2266764Y884976D01*
X2265224Y884328D01*
X2263193Y883640D01*
X2260531Y882843D01*
X2260442Y882817D01*
X2254763Y881049D01*
X2249590Y879144D01*
X2244636Y876992D01*
X2241330Y875372D01*
X2233816Y871099D01*
X2226658Y866146D01*
X2219929Y860578D01*
X2213700Y854458D01*
X2208046Y847848D01*
X2205269Y844116D01*
X2203076Y841236D01*
X2201043Y839061D01*
X2199097Y837537D01*
X2197165Y836609D01*
X2195175Y836223D01*
X2194659Y836205D01*
X2192804Y836393D01*
X2191130Y837027D01*
X2189568Y838170D01*
X2188045Y839890D01*
X2186492Y842252D01*
X2184837Y845323D01*
X2184821Y845354D01*
X2179081Y857513D01*
X2173738Y870278D01*
X2168827Y883549D01*
X2164379Y897226D01*
X2160430Y911211D01*
X2157013Y925402D01*
X2155772Y931266D01*
X2154691Y937214D01*
X2154000Y942527D01*
X2153694Y947261D01*
X2153770Y951472D01*
X2154157Y954830D01*
X2155606Y961174D01*
X2157744Y967152D01*
X2160546Y972730D01*
X2163988Y977872D01*
X2168048Y982545D01*
X2172699Y986711D01*
X2177920Y990338D01*
X2178751Y990833D01*
X2184022Y993463D01*
X2189645Y995434D01*
X2195514Y996736D01*
X2201520Y997358D01*
X2207557Y997289D01*
G37*
X2260884Y826721D02*
X2261571Y826661D01*
X2262229Y826557D01*
X2262894Y826377D01*
X2263601Y826091D01*
X2264386Y825666D01*
X2265285Y825072D01*
X2266334Y824278D01*
X2267568Y823251D01*
X2269024Y821962D01*
X2270736Y820378D01*
X2272741Y818469D01*
X2275073Y816203D01*
X2277770Y813549D01*
X2280867Y810476D01*
X2284399Y806952D01*
X2288402Y802946D01*
X2292912Y798428D01*
X2295537Y795797D01*
X2300182Y791141D01*
X2304299Y787011D01*
X2307919Y783374D01*
X2311077Y780193D01*
X2313805Y777436D01*
X2316136Y775067D01*
X2318102Y773052D01*
X2319737Y771357D01*
X2321072Y769946D01*
X2322142Y768785D01*
X2322979Y767841D01*
X2323616Y767077D01*
X2324085Y766460D01*
X2324420Y765955D01*
X2324653Y765528D01*
X2324817Y765143D01*
X2324894Y764926D01*
X2325566Y761772D01*
X2325505Y758681D01*
X2324752Y755759D01*
X2323346Y753112D01*
X2321327Y750848D01*
X2319026Y749228D01*
X2317944Y748669D01*
X2316993Y748323D01*
X2315921Y748139D01*
X2314479Y748068D01*
X2313144Y748058D01*
X2311190Y748093D01*
X2309772Y748224D01*
X2308634Y748495D01*
X2307519Y748947D01*
X2307390Y749008D01*
X2306947Y749275D01*
X2306313Y749751D01*
X2305460Y750466D01*
X2304356Y751449D01*
X2302972Y752729D01*
X2301277Y754334D01*
X2299241Y756295D01*
X2296834Y758640D01*
X2294026Y761398D01*
X2290787Y764599D01*
X2287086Y768271D01*
X2282894Y772443D01*
X2278181Y777144D01*
X2277145Y778179D01*
X2272463Y782856D01*
X2268313Y787008D01*
X2264661Y790670D01*
X2261475Y793875D01*
X2258722Y796656D01*
X2256370Y799048D01*
X2254386Y801085D01*
X2252738Y802800D01*
X2251393Y804228D01*
X2250318Y805402D01*
X2249481Y806356D01*
X2248849Y807125D01*
X2248390Y807742D01*
X2248071Y808240D01*
X2247876Y808616D01*
X2247023Y811172D01*
X2246651Y813882D01*
X2246788Y816443D01*
X2246988Y817341D01*
X2248212Y820344D01*
X2250003Y822842D01*
X2252280Y824778D01*
X2254967Y826097D01*
X2257983Y826741D01*
X2260133Y826768D01*
X2260884Y826721D01*
G36*
X2260884Y826721D02*
G01*
X2261571Y826661D01*
X2262229Y826557D01*
X2262894Y826377D01*
X2263601Y826091D01*
X2264386Y825666D01*
X2265285Y825072D01*
X2266334Y824278D01*
X2267568Y823251D01*
X2269024Y821962D01*
X2270736Y820378D01*
X2272741Y818469D01*
X2275073Y816203D01*
X2277770Y813549D01*
X2280867Y810476D01*
X2284399Y806952D01*
X2288402Y802946D01*
X2292912Y798428D01*
X2295537Y795797D01*
X2300182Y791141D01*
X2304299Y787011D01*
X2307919Y783374D01*
X2311077Y780193D01*
X2313805Y777436D01*
X2316136Y775067D01*
X2318102Y773052D01*
X2319737Y771357D01*
X2321072Y769946D01*
X2322142Y768785D01*
X2322979Y767841D01*
X2323616Y767077D01*
X2324085Y766460D01*
X2324420Y765955D01*
X2324653Y765528D01*
X2324817Y765143D01*
X2324894Y764926D01*
X2325566Y761772D01*
X2325505Y758681D01*
X2324752Y755759D01*
X2323346Y753112D01*
X2321327Y750848D01*
X2319026Y749228D01*
X2317944Y748669D01*
X2316993Y748323D01*
X2315921Y748139D01*
X2314479Y748068D01*
X2313144Y748058D01*
X2311190Y748093D01*
X2309772Y748224D01*
X2308634Y748495D01*
X2307519Y748947D01*
X2307390Y749008D01*
X2306947Y749275D01*
X2306313Y749751D01*
X2305460Y750466D01*
X2304356Y751449D01*
X2302972Y752729D01*
X2301277Y754334D01*
X2299241Y756295D01*
X2296834Y758640D01*
X2294026Y761398D01*
X2290787Y764599D01*
X2287086Y768271D01*
X2282894Y772443D01*
X2278181Y777144D01*
X2277145Y778179D01*
X2272463Y782856D01*
X2268313Y787008D01*
X2264661Y790670D01*
X2261475Y793875D01*
X2258722Y796656D01*
X2256370Y799048D01*
X2254386Y801085D01*
X2252738Y802800D01*
X2251393Y804228D01*
X2250318Y805402D01*
X2249481Y806356D01*
X2248849Y807125D01*
X2248390Y807742D01*
X2248071Y808240D01*
X2247876Y808616D01*
X2247023Y811172D01*
X2246651Y813882D01*
X2246788Y816443D01*
X2246988Y817341D01*
X2248212Y820344D01*
X2250003Y822842D01*
X2252280Y824778D01*
X2254967Y826097D01*
X2257983Y826741D01*
X2260133Y826768D01*
X2260884Y826721D01*
G37*
X2393883Y772475D02*
X2396428Y771702D01*
X2398671Y770782D01*
X2410723Y765838D01*
X2423152Y761510D01*
X2436016Y757780D01*
X2449374Y754630D01*
X2452442Y754001D01*
X2455910Y753291D01*
X2458748Y752660D01*
X2461110Y752063D01*
X2463149Y751455D01*
X2465020Y750792D01*
X2466876Y750029D01*
X2468260Y749407D01*
X2473558Y746533D01*
X2478465Y743018D01*
X2482923Y738936D01*
X2486876Y734359D01*
X2490266Y729360D01*
X2493037Y724011D01*
X2495130Y718387D01*
X2496295Y713655D01*
X2497107Y707379D01*
X2497161Y701216D01*
X2496488Y695215D01*
X2495123Y689423D01*
X2493096Y683890D01*
X2490440Y678664D01*
X2487188Y673794D01*
X2483373Y669328D01*
X2479027Y665314D01*
X2474183Y661802D01*
X2468873Y658840D01*
X2463129Y656476D01*
X2456984Y654758D01*
X2456813Y654722D01*
X2455045Y654403D01*
X2453121Y654191D01*
X2450851Y654071D01*
X2448046Y654031D01*
X2446891Y654033D01*
X2444723Y654071D01*
X2442626Y654171D01*
X2440502Y654351D01*
X2438249Y654625D01*
X2435768Y655011D01*
X2432957Y655523D01*
X2429716Y656180D01*
X2425945Y656996D01*
X2421544Y657988D01*
X2419705Y658409D01*
X2408364Y661261D01*
X2396746Y664640D01*
X2385037Y668481D01*
X2373423Y672717D01*
X2362089Y677282D01*
X2351222Y682107D01*
X2344105Y685548D01*
X2341352Y686997D01*
X2339249Y688276D01*
X2337692Y689468D01*
X2336577Y690652D01*
X2335800Y691910D01*
X2335713Y692096D01*
X2335115Y693899D01*
X2335120Y695581D01*
X2335516Y697006D01*
X2336601Y698977D01*
X2338433Y701001D01*
X2340971Y703036D01*
X2341450Y703366D01*
X2348773Y708773D01*
X2355520Y714694D01*
X2361666Y721098D01*
X2367188Y727956D01*
X2372060Y735240D01*
X2376260Y742920D01*
X2378811Y748575D01*
X2380045Y751694D01*
X2381167Y754833D01*
X2382242Y758195D01*
X2383336Y761983D01*
X2384221Y765277D01*
X2384753Y767101D01*
X2385294Y768406D01*
X2385978Y769456D01*
X2386723Y770298D01*
X2388280Y771642D01*
X2389918Y772450D01*
X2391749Y772726D01*
X2393883Y772475D01*
G36*
X2393883Y772475D02*
G01*
X2396428Y771702D01*
X2398671Y770782D01*
X2410723Y765838D01*
X2423152Y761510D01*
X2436016Y757780D01*
X2449374Y754630D01*
X2452442Y754001D01*
X2455910Y753291D01*
X2458748Y752660D01*
X2461110Y752063D01*
X2463149Y751455D01*
X2465020Y750792D01*
X2466876Y750029D01*
X2468260Y749407D01*
X2473558Y746533D01*
X2478465Y743018D01*
X2482923Y738936D01*
X2486876Y734359D01*
X2490266Y729360D01*
X2493037Y724011D01*
X2495130Y718387D01*
X2496295Y713655D01*
X2497107Y707379D01*
X2497161Y701216D01*
X2496488Y695215D01*
X2495123Y689423D01*
X2493096Y683890D01*
X2490440Y678664D01*
X2487188Y673794D01*
X2483373Y669328D01*
X2479027Y665314D01*
X2474183Y661802D01*
X2468873Y658840D01*
X2463129Y656476D01*
X2456984Y654758D01*
X2456813Y654722D01*
X2455045Y654403D01*
X2453121Y654191D01*
X2450851Y654071D01*
X2448046Y654031D01*
X2446891Y654033D01*
X2444723Y654071D01*
X2442626Y654171D01*
X2440502Y654351D01*
X2438249Y654625D01*
X2435768Y655011D01*
X2432957Y655523D01*
X2429716Y656180D01*
X2425945Y656996D01*
X2421544Y657988D01*
X2419705Y658409D01*
X2408364Y661261D01*
X2396746Y664640D01*
X2385037Y668481D01*
X2373423Y672717D01*
X2362089Y677282D01*
X2351222Y682107D01*
X2344105Y685548D01*
X2341352Y686997D01*
X2339249Y688276D01*
X2337692Y689468D01*
X2336577Y690652D01*
X2335800Y691910D01*
X2335713Y692096D01*
X2335115Y693899D01*
X2335120Y695581D01*
X2335516Y697006D01*
X2336601Y698977D01*
X2338433Y701001D01*
X2340971Y703036D01*
X2341450Y703366D01*
X2348773Y708773D01*
X2355520Y714694D01*
X2361666Y721098D01*
X2367188Y727956D01*
X2372060Y735240D01*
X2376260Y742920D01*
X2378811Y748575D01*
X2380045Y751694D01*
X2381167Y754833D01*
X2382242Y758195D01*
X2383336Y761983D01*
X2384221Y765277D01*
X2384753Y767101D01*
X2385294Y768406D01*
X2385978Y769456D01*
X2386723Y770298D01*
X2388280Y771642D01*
X2389918Y772450D01*
X2391749Y772726D01*
X2393883Y772475D01*
G37*
%TO.C,MH1*%
X-2389904Y771149D02*
X-2388332Y770418D01*
X-2387004Y769423D01*
X-2386078Y768528D01*
X-2385311Y767557D01*
X-2384637Y766372D01*
X-2383990Y764832D01*
X-2383301Y762801D01*
X-2382504Y760139D01*
X-2382479Y760050D01*
X-2380710Y754371D01*
X-2378806Y749198D01*
X-2376653Y744244D01*
X-2375034Y740938D01*
X-2370760Y733424D01*
X-2365808Y726266D01*
X-2360240Y719537D01*
X-2354119Y713308D01*
X-2347509Y707654D01*
X-2343777Y704877D01*
X-2340898Y702684D01*
X-2338722Y700651D01*
X-2337198Y698705D01*
X-2336270Y696773D01*
X-2335884Y694783D01*
X-2335866Y694267D01*
X-2336055Y692412D01*
X-2336688Y690738D01*
X-2337832Y689176D01*
X-2339552Y687653D01*
X-2341914Y686100D01*
X-2344984Y684445D01*
X-2345015Y684429D01*
X-2357174Y678689D01*
X-2369939Y673347D01*
X-2383210Y668435D01*
X-2396888Y663987D01*
X-2410872Y660038D01*
X-2425063Y656621D01*
X-2430927Y655380D01*
X-2436875Y654299D01*
X-2442188Y653608D01*
X-2446923Y653302D01*
X-2451133Y653378D01*
X-2454492Y653765D01*
X-2460835Y655214D01*
X-2466813Y657352D01*
X-2472391Y660154D01*
X-2477534Y663597D01*
X-2482206Y667656D01*
X-2486373Y672307D01*
X-2489999Y677528D01*
X-2490495Y678359D01*
X-2493124Y683630D01*
X-2495095Y689254D01*
X-2496397Y695122D01*
X-2497019Y701128D01*
X-2496951Y707165D01*
X-2496181Y713127D01*
X-2494700Y718907D01*
X-2494574Y719288D01*
X-2492282Y724894D01*
X-2489302Y730189D01*
X-2485701Y735105D01*
X-2481545Y739572D01*
X-2476900Y743523D01*
X-2471835Y746888D01*
X-2466415Y749599D01*
X-2464215Y750467D01*
X-2462786Y750922D01*
X-2460763Y751475D01*
X-2458335Y752080D01*
X-2455687Y752689D01*
X-2453008Y753257D01*
X-2452964Y753266D01*
X-2442991Y755429D01*
X-2433614Y757788D01*
X-2424649Y760400D01*
X-2415909Y763320D01*
X-2407211Y766604D01*
X-2402441Y768559D01*
X-2398991Y769927D01*
X-2396107Y770865D01*
X-2393696Y771378D01*
X-2391660Y771470D01*
X-2389904Y771149D01*
G36*
X-2389904Y771149D02*
G01*
X-2388332Y770418D01*
X-2387004Y769423D01*
X-2386078Y768528D01*
X-2385311Y767557D01*
X-2384637Y766372D01*
X-2383990Y764832D01*
X-2383301Y762801D01*
X-2382504Y760139D01*
X-2382479Y760050D01*
X-2380710Y754371D01*
X-2378806Y749198D01*
X-2376653Y744244D01*
X-2375034Y740938D01*
X-2370760Y733424D01*
X-2365808Y726266D01*
X-2360240Y719537D01*
X-2354119Y713308D01*
X-2347509Y707654D01*
X-2343777Y704877D01*
X-2340898Y702684D01*
X-2338722Y700651D01*
X-2337198Y698705D01*
X-2336270Y696773D01*
X-2335884Y694783D01*
X-2335866Y694267D01*
X-2336055Y692412D01*
X-2336688Y690738D01*
X-2337832Y689176D01*
X-2339552Y687653D01*
X-2341914Y686100D01*
X-2344984Y684445D01*
X-2345015Y684429D01*
X-2357174Y678689D01*
X-2369939Y673347D01*
X-2383210Y668435D01*
X-2396888Y663987D01*
X-2410872Y660038D01*
X-2425063Y656621D01*
X-2430927Y655380D01*
X-2436875Y654299D01*
X-2442188Y653608D01*
X-2446923Y653302D01*
X-2451133Y653378D01*
X-2454492Y653765D01*
X-2460835Y655214D01*
X-2466813Y657352D01*
X-2472391Y660154D01*
X-2477534Y663597D01*
X-2482206Y667656D01*
X-2486373Y672307D01*
X-2489999Y677528D01*
X-2490495Y678359D01*
X-2493124Y683630D01*
X-2495095Y689254D01*
X-2496397Y695122D01*
X-2497019Y701128D01*
X-2496951Y707165D01*
X-2496181Y713127D01*
X-2494700Y718907D01*
X-2494574Y719288D01*
X-2492282Y724894D01*
X-2489302Y730189D01*
X-2485701Y735105D01*
X-2481545Y739572D01*
X-2476900Y743523D01*
X-2471835Y746888D01*
X-2466415Y749599D01*
X-2464215Y750467D01*
X-2462786Y750922D01*
X-2460763Y751475D01*
X-2458335Y752080D01*
X-2455687Y752689D01*
X-2453008Y753257D01*
X-2452964Y753266D01*
X-2442991Y755429D01*
X-2433614Y757788D01*
X-2424649Y760400D01*
X-2415909Y763320D01*
X-2407211Y766604D01*
X-2402441Y768559D01*
X-2398991Y769927D01*
X-2396107Y770865D01*
X-2393696Y771378D01*
X-2391660Y771470D01*
X-2389904Y771149D01*
G37*
X-2194876Y996097D02*
X-2189084Y994731D01*
X-2183551Y992704D01*
X-2178325Y990048D01*
X-2173455Y986797D01*
X-2168989Y982982D01*
X-2164976Y978636D01*
X-2161463Y973791D01*
X-2158501Y968481D01*
X-2156137Y962737D01*
X-2154420Y956592D01*
X-2154383Y956421D01*
X-2154065Y954653D01*
X-2153852Y952729D01*
X-2153733Y950459D01*
X-2153692Y947654D01*
X-2153695Y946499D01*
X-2153732Y944331D01*
X-2153833Y942234D01*
X-2154012Y940110D01*
X-2154286Y937857D01*
X-2154672Y935376D01*
X-2155185Y932565D01*
X-2155841Y929324D01*
X-2156657Y925553D01*
X-2157649Y921152D01*
X-2158071Y919313D01*
X-2160922Y907972D01*
X-2164302Y896354D01*
X-2168143Y884645D01*
X-2172379Y873031D01*
X-2176943Y861698D01*
X-2181769Y850830D01*
X-2185210Y843713D01*
X-2186658Y840960D01*
X-2187938Y838857D01*
X-2189129Y837300D01*
X-2190313Y836185D01*
X-2191571Y835408D01*
X-2191757Y835321D01*
X-2193560Y834723D01*
X-2195243Y834728D01*
X-2196667Y835124D01*
X-2198638Y836209D01*
X-2200663Y838041D01*
X-2202697Y840579D01*
X-2203027Y841058D01*
X-2208435Y848381D01*
X-2214355Y855128D01*
X-2220759Y861274D01*
X-2227618Y866796D01*
X-2234901Y871668D01*
X-2242581Y875868D01*
X-2248236Y878419D01*
X-2251355Y879653D01*
X-2254494Y880775D01*
X-2257857Y881850D01*
X-2261644Y882944D01*
X-2264938Y883829D01*
X-2266762Y884361D01*
X-2268067Y884902D01*
X-2269117Y885586D01*
X-2269959Y886331D01*
X-2271303Y887888D01*
X-2272111Y889526D01*
X-2272387Y891357D01*
X-2272137Y893491D01*
X-2271363Y896036D01*
X-2270444Y898279D01*
X-2265499Y910331D01*
X-2261171Y922760D01*
X-2257441Y935624D01*
X-2254291Y948982D01*
X-2253663Y952050D01*
X-2252953Y955518D01*
X-2252321Y958356D01*
X-2251724Y960718D01*
X-2251116Y962757D01*
X-2250454Y964628D01*
X-2249691Y966485D01*
X-2249068Y967868D01*
X-2246194Y973166D01*
X-2242680Y978073D01*
X-2238598Y982532D01*
X-2234020Y986484D01*
X-2229021Y989874D01*
X-2223673Y992645D01*
X-2218048Y994738D01*
X-2213316Y995903D01*
X-2207040Y996715D01*
X-2200877Y996769D01*
X-2194876Y996097D01*
G36*
X-2194876Y996097D02*
G01*
X-2189084Y994731D01*
X-2183551Y992704D01*
X-2178325Y990048D01*
X-2173455Y986797D01*
X-2168989Y982982D01*
X-2164976Y978636D01*
X-2161463Y973791D01*
X-2158501Y968481D01*
X-2156137Y962737D01*
X-2154420Y956592D01*
X-2154383Y956421D01*
X-2154065Y954653D01*
X-2153852Y952729D01*
X-2153733Y950459D01*
X-2153692Y947654D01*
X-2153695Y946499D01*
X-2153732Y944331D01*
X-2153833Y942234D01*
X-2154012Y940110D01*
X-2154286Y937857D01*
X-2154672Y935376D01*
X-2155185Y932565D01*
X-2155841Y929324D01*
X-2156657Y925553D01*
X-2157649Y921152D01*
X-2158071Y919313D01*
X-2160922Y907972D01*
X-2164302Y896354D01*
X-2168143Y884645D01*
X-2172379Y873031D01*
X-2176943Y861698D01*
X-2181769Y850830D01*
X-2185210Y843713D01*
X-2186658Y840960D01*
X-2187938Y838857D01*
X-2189129Y837300D01*
X-2190313Y836185D01*
X-2191571Y835408D01*
X-2191757Y835321D01*
X-2193560Y834723D01*
X-2195243Y834728D01*
X-2196667Y835124D01*
X-2198638Y836209D01*
X-2200663Y838041D01*
X-2202697Y840579D01*
X-2203027Y841058D01*
X-2208435Y848381D01*
X-2214355Y855128D01*
X-2220759Y861274D01*
X-2227618Y866796D01*
X-2234901Y871668D01*
X-2242581Y875868D01*
X-2248236Y878419D01*
X-2251355Y879653D01*
X-2254494Y880775D01*
X-2257857Y881850D01*
X-2261644Y882944D01*
X-2264938Y883829D01*
X-2266762Y884361D01*
X-2268067Y884902D01*
X-2269117Y885586D01*
X-2269959Y886331D01*
X-2271303Y887888D01*
X-2272111Y889526D01*
X-2272387Y891357D01*
X-2272137Y893491D01*
X-2271363Y896036D01*
X-2270444Y898279D01*
X-2265499Y910331D01*
X-2261171Y922760D01*
X-2257441Y935624D01*
X-2254291Y948982D01*
X-2253663Y952050D01*
X-2252953Y955518D01*
X-2252321Y958356D01*
X-2251724Y960718D01*
X-2251116Y962757D01*
X-2250454Y964628D01*
X-2249691Y966485D01*
X-2249068Y967868D01*
X-2246194Y973166D01*
X-2242680Y978073D01*
X-2238598Y982532D01*
X-2234020Y986484D01*
X-2229021Y989874D01*
X-2223673Y992645D01*
X-2218048Y994738D01*
X-2213316Y995903D01*
X-2207040Y996715D01*
X-2200877Y996769D01*
X-2194876Y996097D01*
G37*
X-2249228Y846301D02*
X-2247520Y846235D01*
X-2246168Y846107D01*
X-2245100Y845914D01*
X-2244244Y845650D01*
X-2243527Y845308D01*
X-2242875Y844884D01*
X-2242216Y844371D01*
X-2241889Y844103D01*
X-2240802Y842952D01*
X-2239770Y841433D01*
X-2238940Y839811D01*
X-2238458Y838351D01*
X-2238393Y837777D01*
X-2238306Y837193D01*
X-2238058Y835916D01*
X-2237665Y834029D01*
X-2237145Y831613D01*
X-2236516Y828748D01*
X-2235797Y825516D01*
X-2235003Y821997D01*
X-2234226Y818591D01*
X-2233163Y813930D01*
X-2232277Y809970D01*
X-2231557Y806644D01*
X-2230995Y803883D01*
X-2230578Y801616D01*
X-2230297Y799775D01*
X-2230143Y798291D01*
X-2230104Y797095D01*
X-2230171Y796117D01*
X-2230333Y795290D01*
X-2230580Y794542D01*
X-2230653Y794361D01*
X-2231835Y792354D01*
X-2233527Y790529D01*
X-2235379Y789223D01*
X-2237216Y788591D01*
X-2239440Y788323D01*
X-2241736Y788420D01*
X-2243790Y788881D01*
X-2244572Y789218D01*
X-2246180Y790319D01*
X-2247718Y791795D01*
X-2248933Y793382D01*
X-2249412Y794301D01*
X-2249646Y795045D01*
X-2250015Y796425D01*
X-2250487Y798302D01*
X-2251025Y800537D01*
X-2251596Y802992D01*
X-2251688Y803397D01*
X-2252234Y805786D01*
X-2252724Y807895D01*
X-2253129Y809609D01*
X-2253423Y810810D01*
X-2253577Y811382D01*
X-2253590Y811413D01*
X-2253859Y811156D01*
X-2254532Y810378D01*
X-2255523Y809181D01*
X-2256747Y807670D01*
X-2257537Y806679D01*
X-2267498Y794765D01*
X-2278057Y783372D01*
X-2289215Y772501D01*
X-2300971Y762151D01*
X-2306958Y757264D01*
X-2308669Y755874D01*
X-2310112Y754648D01*
X-2311191Y753672D01*
X-2311814Y753030D01*
X-2311919Y752815D01*
X-2311461Y752646D01*
X-2310348Y752318D01*
X-2308697Y751863D01*
X-2306625Y751313D01*
X-2304248Y750699D01*
X-2303282Y750454D01*
X-2300187Y749669D01*
X-2297757Y749034D01*
X-2295887Y748511D01*
X-2294469Y748062D01*
X-2293400Y747648D01*
X-2292573Y747229D01*
X-2291882Y746768D01*
X-2291222Y746226D01*
X-2290872Y745914D01*
X-2289149Y743868D01*
X-2288081Y741535D01*
X-2287651Y739046D01*
X-2287839Y736532D01*
X-2288627Y734126D01*
X-2289996Y731958D01*
X-2291928Y730160D01*
X-2293211Y729384D01*
X-2294324Y728881D01*
X-2295439Y728550D01*
X-2296667Y728400D01*
X-2298116Y728440D01*
X-2299898Y728678D01*
X-2302123Y729123D01*
X-2304902Y729785D01*
X-2307846Y730540D01*
X-2310671Y731277D01*
X-2314055Y732157D01*
X-2317790Y733126D01*
X-2321667Y734129D01*
X-2325476Y735113D01*
X-2328854Y735984D01*
X-2332542Y736941D01*
X-2335545Y737750D01*
X-2337950Y738446D01*
X-2339843Y739067D01*
X-2341311Y739649D01*
X-2342441Y740230D01*
X-2343320Y740847D01*
X-2344034Y741535D01*
X-2344670Y742333D01*
X-2345050Y742880D01*
X-2345446Y743488D01*
X-2345777Y744082D01*
X-2346044Y744732D01*
X-2346250Y745506D01*
X-2346397Y746475D01*
X-2346486Y747706D01*
X-2346520Y749270D01*
X-2346500Y751236D01*
X-2346429Y753672D01*
X-2346308Y756649D01*
X-2346140Y760234D01*
X-2345927Y764498D01*
X-2345764Y767674D01*
X-2345553Y771659D01*
X-2345341Y775441D01*
X-2345134Y778940D01*
X-2344936Y782074D01*
X-2344754Y784761D01*
X-2344592Y786920D01*
X-2344456Y788468D01*
X-2344351Y789325D01*
X-2344331Y789419D01*
X-2343335Y791748D01*
X-2341778Y793652D01*
X-2339790Y795094D01*
X-2337502Y796038D01*
X-2335045Y796446D01*
X-2332551Y796282D01*
X-2330149Y795508D01*
X-2327971Y794089D01*
X-2327920Y794044D01*
X-2326482Y792440D01*
X-2325366Y790569D01*
X-2325310Y790443D01*
X-2324989Y789658D01*
X-2324760Y788932D01*
X-2324615Y788124D01*
X-2324544Y787092D01*
X-2324536Y785694D01*
X-2324582Y783788D01*
X-2324673Y781233D01*
X-2324674Y781201D01*
X-2324776Y778686D01*
X-2324891Y776249D01*
X-2325007Y774082D01*
X-2325116Y772377D01*
X-2325184Y771531D01*
X-2325281Y770537D01*
X-2325302Y769838D01*
X-2325171Y769461D01*
X-2324811Y769432D01*
X-2324144Y769780D01*
X-2323095Y770531D01*
X-2321587Y771713D01*
X-2319543Y773352D01*
X-2319157Y773661D01*
X-2310850Y780603D01*
X-2302641Y788007D01*
X-2294651Y795748D01*
X-2287001Y803705D01*
X-2279809Y811754D01*
X-2273196Y819774D01*
X-2269935Y824013D01*
X-2268784Y825550D01*
X-2272341Y825297D01*
X-2274045Y825200D01*
X-2276290Y825109D01*
X-2278823Y825032D01*
X-2281391Y824978D01*
X-2282248Y824965D01*
X-2284766Y824948D01*
X-2286636Y824975D01*
X-2288003Y825058D01*
X-2289013Y825207D01*
X-2289809Y825435D01*
X-2290185Y825587D01*
X-2292465Y827004D01*
X-2294310Y828977D01*
X-2295614Y831346D01*
X-2296271Y833947D01*
X-2296329Y834977D01*
X-2295966Y837550D01*
X-2294950Y839978D01*
X-2293396Y842089D01*
X-2291413Y843711D01*
X-2290282Y844290D01*
X-2289798Y844480D01*
X-2289279Y844644D01*
X-2288657Y844787D01*
X-2287865Y844914D01*
X-2286837Y845028D01*
X-2285507Y845135D01*
X-2283807Y845239D01*
X-2281670Y845344D01*
X-2279031Y845455D01*
X-2275821Y845576D01*
X-2271975Y845711D01*
X-2267425Y845865D01*
X-2265669Y845924D01*
X-2261085Y846076D01*
X-2257222Y846195D01*
X-2254007Y846276D01*
X-2251366Y846313D01*
X-2249228Y846301D01*
G36*
X-2249228Y846301D02*
G01*
X-2247520Y846235D01*
X-2246168Y846107D01*
X-2245100Y845914D01*
X-2244244Y845650D01*
X-2243527Y845308D01*
X-2242875Y844884D01*
X-2242216Y844371D01*
X-2241889Y844103D01*
X-2240802Y842952D01*
X-2239770Y841433D01*
X-2238940Y839811D01*
X-2238458Y838351D01*
X-2238393Y837777D01*
X-2238306Y837193D01*
X-2238058Y835916D01*
X-2237665Y834029D01*
X-2237145Y831613D01*
X-2236516Y828748D01*
X-2235797Y825516D01*
X-2235003Y821997D01*
X-2234226Y818591D01*
X-2233163Y813930D01*
X-2232277Y809970D01*
X-2231557Y806644D01*
X-2230995Y803883D01*
X-2230578Y801616D01*
X-2230297Y799775D01*
X-2230143Y798291D01*
X-2230104Y797095D01*
X-2230171Y796117D01*
X-2230333Y795290D01*
X-2230580Y794542D01*
X-2230653Y794361D01*
X-2231835Y792354D01*
X-2233527Y790529D01*
X-2235379Y789223D01*
X-2237216Y788591D01*
X-2239440Y788323D01*
X-2241736Y788420D01*
X-2243790Y788881D01*
X-2244572Y789218D01*
X-2246180Y790319D01*
X-2247718Y791795D01*
X-2248933Y793382D01*
X-2249412Y794301D01*
X-2249646Y795045D01*
X-2250015Y796425D01*
X-2250487Y798302D01*
X-2251025Y800537D01*
X-2251596Y802992D01*
X-2251688Y803397D01*
X-2252234Y805786D01*
X-2252724Y807895D01*
X-2253129Y809609D01*
X-2253423Y810810D01*
X-2253577Y811382D01*
X-2253590Y811413D01*
X-2253859Y811156D01*
X-2254532Y810378D01*
X-2255523Y809181D01*
X-2256747Y807670D01*
X-2257537Y806679D01*
X-2267498Y794765D01*
X-2278057Y783372D01*
X-2289215Y772501D01*
X-2300971Y762151D01*
X-2306958Y757264D01*
X-2308669Y755874D01*
X-2310112Y754648D01*
X-2311191Y753672D01*
X-2311814Y753030D01*
X-2311919Y752815D01*
X-2311461Y752646D01*
X-2310348Y752318D01*
X-2308697Y751863D01*
X-2306625Y751313D01*
X-2304248Y750699D01*
X-2303282Y750454D01*
X-2300187Y749669D01*
X-2297757Y749034D01*
X-2295887Y748511D01*
X-2294469Y748062D01*
X-2293400Y747648D01*
X-2292573Y747229D01*
X-2291882Y746768D01*
X-2291222Y746226D01*
X-2290872Y745914D01*
X-2289149Y743868D01*
X-2288081Y741535D01*
X-2287651Y739046D01*
X-2287839Y736532D01*
X-2288627Y734126D01*
X-2289996Y731958D01*
X-2291928Y730160D01*
X-2293211Y729384D01*
X-2294324Y728881D01*
X-2295439Y728550D01*
X-2296667Y728400D01*
X-2298116Y728440D01*
X-2299898Y728678D01*
X-2302123Y729123D01*
X-2304902Y729785D01*
X-2307846Y730540D01*
X-2310671Y731277D01*
X-2314055Y732157D01*
X-2317790Y733126D01*
X-2321667Y734129D01*
X-2325476Y735113D01*
X-2328854Y735984D01*
X-2332542Y736941D01*
X-2335545Y737750D01*
X-2337950Y738446D01*
X-2339843Y739067D01*
X-2341311Y739649D01*
X-2342441Y740230D01*
X-2343320Y740847D01*
X-2344034Y741535D01*
X-2344670Y742333D01*
X-2345050Y742880D01*
X-2345446Y743488D01*
X-2345777Y744082D01*
X-2346044Y744732D01*
X-2346250Y745506D01*
X-2346397Y746475D01*
X-2346486Y747706D01*
X-2346520Y749270D01*
X-2346500Y751236D01*
X-2346429Y753672D01*
X-2346308Y756649D01*
X-2346140Y760234D01*
X-2345927Y764498D01*
X-2345764Y767674D01*
X-2345553Y771659D01*
X-2345341Y775441D01*
X-2345134Y778940D01*
X-2344936Y782074D01*
X-2344754Y784761D01*
X-2344592Y786920D01*
X-2344456Y788468D01*
X-2344351Y789325D01*
X-2344331Y789419D01*
X-2343335Y791748D01*
X-2341778Y793652D01*
X-2339790Y795094D01*
X-2337502Y796038D01*
X-2335045Y796446D01*
X-2332551Y796282D01*
X-2330149Y795508D01*
X-2327971Y794089D01*
X-2327920Y794044D01*
X-2326482Y792440D01*
X-2325366Y790569D01*
X-2325310Y790443D01*
X-2324989Y789658D01*
X-2324760Y788932D01*
X-2324615Y788124D01*
X-2324544Y787092D01*
X-2324536Y785694D01*
X-2324582Y783788D01*
X-2324673Y781233D01*
X-2324674Y781201D01*
X-2324776Y778686D01*
X-2324891Y776249D01*
X-2325007Y774082D01*
X-2325116Y772377D01*
X-2325184Y771531D01*
X-2325281Y770537D01*
X-2325302Y769838D01*
X-2325171Y769461D01*
X-2324811Y769432D01*
X-2324144Y769780D01*
X-2323095Y770531D01*
X-2321587Y771713D01*
X-2319543Y773352D01*
X-2319157Y773661D01*
X-2310850Y780603D01*
X-2302641Y788007D01*
X-2294651Y795748D01*
X-2287001Y803705D01*
X-2279809Y811754D01*
X-2273196Y819774D01*
X-2269935Y824013D01*
X-2268784Y825550D01*
X-2272341Y825297D01*
X-2274045Y825200D01*
X-2276290Y825109D01*
X-2278823Y825032D01*
X-2281391Y824978D01*
X-2282248Y824965D01*
X-2284766Y824948D01*
X-2286636Y824975D01*
X-2288003Y825058D01*
X-2289013Y825207D01*
X-2289809Y825435D01*
X-2290185Y825587D01*
X-2292465Y827004D01*
X-2294310Y828977D01*
X-2295614Y831346D01*
X-2296271Y833947D01*
X-2296329Y834977D01*
X-2295966Y837550D01*
X-2294950Y839978D01*
X-2293396Y842089D01*
X-2291413Y843711D01*
X-2290282Y844290D01*
X-2289798Y844480D01*
X-2289279Y844644D01*
X-2288657Y844787D01*
X-2287865Y844914D01*
X-2286837Y845028D01*
X-2285507Y845135D01*
X-2283807Y845239D01*
X-2281670Y845344D01*
X-2279031Y845455D01*
X-2275821Y845576D01*
X-2271975Y845711D01*
X-2267425Y845865D01*
X-2265669Y845924D01*
X-2261085Y846076D01*
X-2257222Y846195D01*
X-2254007Y846276D01*
X-2251366Y846313D01*
X-2249228Y846301D01*
G37*
%TD*%
M02*
