%TF.GenerationSoftware,KiCad,Pcbnew,9.0.7*%
%TF.CreationDate,2026-03-31T14:20:11+01:00*%
%TF.ProjectId,kittenbot_ultrasonic_sensor,6b697474-656e-4626-9f74-5f756c747261,0.5*%
%TF.SameCoordinates,PX8d24d00PY36d6160*%
%TF.FileFunction,Soldermask,Top*%
%TF.FilePolarity,Negative*%
%FSLAX45Y45*%
G04 Gerber Fmt 4.5, Leading zero omitted, Abs format (unit mm)*
G04 Created by KiCad (PCBNEW 9.0.7) date 2026-03-31 14:20:11*
%MOMM*%
%LPD*%
G01*
G04 APERTURE LIST*
%ADD10C,2.500000*%
%ADD11C,0.000000*%
G04 APERTURE END LIST*
%TO.C,MH3*%
D10*
X-2375000Y-1000000D02*
G75*
G02*
X-2625000Y-1000000I-125000J0D01*
G01*
X-2625000Y-1000000D02*
G75*
G02*
X-2375000Y-1000000I125000J0D01*
G01*
%TO.C,MH4*%
X2625000Y-1000000D02*
G75*
G02*
X2375000Y-1000000I-125000J0D01*
G01*
X2375000Y-1000000D02*
G75*
G02*
X2625000Y-1000000I125000J0D01*
G01*
%TO.C,MH2*%
X2625000Y1000000D02*
G75*
G02*
X2375000Y1000000I-125000J0D01*
G01*
X2375000Y1000000D02*
G75*
G02*
X2625000Y1000000I125000J0D01*
G01*
D11*
%TO.C,MH1*%
G36*
X-2249920Y1000080D02*
G01*
X-2250413Y1000080D01*
X-2250413Y984383D01*
X-2254348Y953235D01*
X-2262156Y922826D01*
X-2273713Y893635D01*
X-2288838Y866123D01*
X-2307292Y840724D01*
X-2328783Y817838D01*
X-2352974Y797826D01*
X-2379482Y781003D01*
X-2407889Y767636D01*
X-2437748Y757934D01*
X-2468587Y752051D01*
X-2499920Y750080D01*
X-2749920Y750080D01*
X-2749920Y1000080D01*
X-2749427Y1000080D01*
X-2749427Y1015778D01*
X-2745492Y1046925D01*
X-2737684Y1077334D01*
X-2726127Y1106525D01*
X-2711002Y1134037D01*
X-2692548Y1159436D01*
X-2671057Y1182322D01*
X-2646866Y1202334D01*
X-2620358Y1219157D01*
X-2591951Y1232524D01*
X-2562093Y1242226D01*
X-2531253Y1248109D01*
X-2499920Y1250080D01*
X-2249920Y1250080D01*
X-2249920Y1000080D01*
G37*
%TD*%
M02*
