%TF.GenerationSoftware,KiCad,Pcbnew,9.0.6-9.0.6~ubuntu22.04.1*%
%TF.CreationDate,2026-01-23T17:03:15+00:00*%
%TF.ProjectId,vm_i2c_oled_display,766d5f69-3263-45f6-9f6c-65645f646973,0.1*%
%TF.SameCoordinates,Original*%
%TF.FileFunction,Legend,Top*%
%TF.FilePolarity,Positive*%
%FSLAX45Y45*%
G04 Gerber Fmt 4.5, Leading zero omitted, Abs format (unit mm)*
G04 Created by KiCad (PCBNEW 9.0.6-9.0.6~ubuntu22.04.1) date 2026-01-23 17:03:15*
%MOMM*%
%LPD*%
G01*
G04 APERTURE LIST*
%ADD10C,0.200000*%
G04 APERTURE END LIST*
D10*
X-1088001Y746128D02*
X1086000Y746128D01*
X1086000Y-339872D01*
X-1088001Y-339872D01*
X-1088001Y746128D01*
X-177278Y815682D02*
X-77278Y849015D01*
X-77278Y849015D02*
X-177278Y882348D01*
X-86802Y972824D02*
X-82040Y968063D01*
X-82040Y968063D02*
X-77278Y953777D01*
X-77278Y953777D02*
X-77278Y944253D01*
X-77278Y944253D02*
X-82040Y929967D01*
X-82040Y929967D02*
X-91564Y920444D01*
X-91564Y920444D02*
X-101088Y915682D01*
X-101088Y915682D02*
X-120135Y910920D01*
X-120135Y910920D02*
X-134421Y910920D01*
X-134421Y910920D02*
X-153469Y915682D01*
X-153469Y915682D02*
X-162992Y920444D01*
X-162992Y920444D02*
X-172516Y929967D01*
X-172516Y929967D02*
X-177278Y944253D01*
X-177278Y944253D02*
X-177278Y953777D01*
X-177278Y953777D02*
X-172516Y968063D01*
X-172516Y968063D02*
X-167754Y972824D01*
X-86802Y1072825D02*
X-82040Y1068063D01*
X-82040Y1068063D02*
X-77278Y1053777D01*
X-77278Y1053777D02*
X-77278Y1044253D01*
X-77278Y1044253D02*
X-82040Y1029967D01*
X-82040Y1029967D02*
X-91564Y1020444D01*
X-91564Y1020444D02*
X-101088Y1015682D01*
X-101088Y1015682D02*
X-120135Y1010920D01*
X-120135Y1010920D02*
X-134421Y1010920D01*
X-134421Y1010920D02*
X-153469Y1015682D01*
X-153469Y1015682D02*
X-162992Y1020444D01*
X-162992Y1020444D02*
X-172516Y1029967D01*
X-172516Y1029967D02*
X-177278Y1044253D01*
X-177278Y1044253D02*
X-177278Y1053777D01*
X-177278Y1053777D02*
X-172516Y1068063D01*
X-172516Y1068063D02*
X-167754Y1072825D01*
X-969985Y-153722D02*
X-960461Y-153722D01*
X-960461Y-153722D02*
X-950937Y-158484D01*
X-950937Y-158484D02*
X-946176Y-163246D01*
X-946176Y-163246D02*
X-941414Y-172770D01*
X-941414Y-172770D02*
X-936652Y-191817D01*
X-936652Y-191817D02*
X-936652Y-215627D01*
X-936652Y-215627D02*
X-941414Y-234674D01*
X-941414Y-234674D02*
X-946176Y-244198D01*
X-946176Y-244198D02*
X-950937Y-248960D01*
X-950937Y-248960D02*
X-960461Y-253722D01*
X-960461Y-253722D02*
X-969985Y-253722D01*
X-969985Y-253722D02*
X-979509Y-248960D01*
X-979509Y-248960D02*
X-984271Y-244198D01*
X-984271Y-244198D02*
X-989033Y-234674D01*
X-989033Y-234674D02*
X-993795Y-215627D01*
X-993795Y-215627D02*
X-993795Y-191817D01*
X-993795Y-191817D02*
X-989033Y-172770D01*
X-989033Y-172770D02*
X-984271Y-163246D01*
X-984271Y-163246D02*
X-979509Y-158484D01*
X-979509Y-158484D02*
X-969985Y-153722D01*
X-893795Y-244198D02*
X-889033Y-248960D01*
X-889033Y-248960D02*
X-893795Y-253722D01*
X-893795Y-253722D02*
X-898556Y-248960D01*
X-898556Y-248960D02*
X-893795Y-244198D01*
X-893795Y-244198D02*
X-893795Y-253722D01*
X-793795Y-253722D02*
X-850937Y-253722D01*
X-822366Y-253722D02*
X-822366Y-153722D01*
X-822366Y-153722D02*
X-831890Y-168008D01*
X-831890Y-168008D02*
X-841414Y-177531D01*
X-841414Y-177531D02*
X-850937Y-182293D01*
X427960Y825205D02*
X432722Y839491D01*
X432722Y839491D02*
X432722Y863301D01*
X432722Y863301D02*
X427960Y872824D01*
X427960Y872824D02*
X423198Y877586D01*
X423198Y877586D02*
X413674Y882348D01*
X413674Y882348D02*
X404150Y882348D01*
X404150Y882348D02*
X394627Y877586D01*
X394627Y877586D02*
X389865Y872824D01*
X389865Y872824D02*
X385103Y863301D01*
X385103Y863301D02*
X380341Y844253D01*
X380341Y844253D02*
X375579Y834729D01*
X375579Y834729D02*
X370817Y829967D01*
X370817Y829967D02*
X361293Y825205D01*
X361293Y825205D02*
X351769Y825205D01*
X351769Y825205D02*
X342246Y829967D01*
X342246Y829967D02*
X337484Y834729D01*
X337484Y834729D02*
X332722Y844253D01*
X332722Y844253D02*
X332722Y868063D01*
X332722Y868063D02*
X337484Y882348D01*
X432722Y925205D02*
X332722Y925205D01*
X332722Y925205D02*
X332722Y949015D01*
X332722Y949015D02*
X337484Y963301D01*
X337484Y963301D02*
X347008Y972824D01*
X347008Y972824D02*
X356531Y977586D01*
X356531Y977586D02*
X375579Y982348D01*
X375579Y982348D02*
X389865Y982348D01*
X389865Y982348D02*
X408912Y977586D01*
X408912Y977586D02*
X418436Y972824D01*
X418436Y972824D02*
X427960Y963301D01*
X427960Y963301D02*
X432722Y949015D01*
X432722Y949015D02*
X432722Y925205D01*
X404150Y1020444D02*
X404150Y1068063D01*
X432722Y1010920D02*
X332722Y1044253D01*
X332722Y1044253D02*
X432722Y1077586D01*
X167960Y825205D02*
X172722Y839491D01*
X172722Y839491D02*
X172722Y863301D01*
X172722Y863301D02*
X167960Y872824D01*
X167960Y872824D02*
X163198Y877586D01*
X163198Y877586D02*
X153674Y882348D01*
X153674Y882348D02*
X144150Y882348D01*
X144150Y882348D02*
X134627Y877586D01*
X134627Y877586D02*
X129865Y872824D01*
X129865Y872824D02*
X125103Y863301D01*
X125103Y863301D02*
X120341Y844253D01*
X120341Y844253D02*
X115579Y834729D01*
X115579Y834729D02*
X110817Y829967D01*
X110817Y829967D02*
X101293Y825205D01*
X101293Y825205D02*
X91769Y825205D01*
X91769Y825205D02*
X82246Y829967D01*
X82246Y829967D02*
X77484Y834729D01*
X77484Y834729D02*
X72722Y844253D01*
X72722Y844253D02*
X72722Y868063D01*
X72722Y868063D02*
X77484Y882348D01*
X163198Y982348D02*
X167960Y977586D01*
X167960Y977586D02*
X172722Y963301D01*
X172722Y963301D02*
X172722Y953777D01*
X172722Y953777D02*
X167960Y939491D01*
X167960Y939491D02*
X158436Y929967D01*
X158436Y929967D02*
X148912Y925205D01*
X148912Y925205D02*
X129865Y920444D01*
X129865Y920444D02*
X115579Y920444D01*
X115579Y920444D02*
X96531Y925205D01*
X96531Y925205D02*
X87008Y929967D01*
X87008Y929967D02*
X77484Y939491D01*
X77484Y939491D02*
X72722Y953777D01*
X72722Y953777D02*
X72722Y963301D01*
X72722Y963301D02*
X77484Y977586D01*
X77484Y977586D02*
X82246Y982348D01*
X172722Y1072825D02*
X172722Y1025205D01*
X172722Y1025205D02*
X72722Y1025205D01*
X-434516Y882348D02*
X-439278Y872824D01*
X-439278Y872824D02*
X-439278Y858539D01*
X-439278Y858539D02*
X-434516Y844253D01*
X-434516Y844253D02*
X-424992Y834729D01*
X-424992Y834729D02*
X-415469Y829967D01*
X-415469Y829967D02*
X-396421Y825205D01*
X-396421Y825205D02*
X-382135Y825205D01*
X-382135Y825205D02*
X-363088Y829967D01*
X-363088Y829967D02*
X-353564Y834729D01*
X-353564Y834729D02*
X-344040Y844253D01*
X-344040Y844253D02*
X-339278Y858539D01*
X-339278Y858539D02*
X-339278Y868063D01*
X-339278Y868063D02*
X-344040Y882348D01*
X-344040Y882348D02*
X-348802Y887110D01*
X-348802Y887110D02*
X-382135Y887110D01*
X-382135Y887110D02*
X-382135Y868063D01*
X-339278Y929967D02*
X-439278Y929967D01*
X-439278Y929967D02*
X-339278Y987110D01*
X-339278Y987110D02*
X-439278Y987110D01*
X-339278Y1034729D02*
X-439278Y1034729D01*
X-439278Y1034729D02*
X-439278Y1058539D01*
X-439278Y1058539D02*
X-434516Y1072825D01*
X-434516Y1072825D02*
X-424992Y1082348D01*
X-424992Y1082348D02*
X-415469Y1087110D01*
X-415469Y1087110D02*
X-396421Y1091872D01*
X-396421Y1091872D02*
X-382135Y1091872D01*
X-382135Y1091872D02*
X-363088Y1087110D01*
X-363088Y1087110D02*
X-353564Y1082348D01*
X-353564Y1082348D02*
X-344040Y1072825D01*
X-344040Y1072825D02*
X-339278Y1058539D01*
X-339278Y1058539D02*
X-339278Y1034729D01*
M02*
