%TF.GenerationSoftware,KiCad,Pcbnew,9.0.0*%
%TF.CreationDate,2025-02-27T17:20:42+00:00*%
%TF.ProjectId,vm_keycap_button_0.1,766d5f6b-6579-4636-9170-5f627574746f,v0.1*%
%TF.SameCoordinates,PX59a5380PY47868c0*%
%TF.FileFunction,Copper,L1,Top*%
%TF.FilePolarity,Positive*%
%FSLAX46Y46*%
G04 Gerber Fmt 4.6, Leading zero omitted, Abs format (unit mm)*
G04 Created by KiCad (PCBNEW 9.0.0) date 2025-02-27 17:20:42*
%MOMM*%
%LPD*%
G01*
G04 APERTURE LIST*
G04 Aperture macros list*
%AMRoundRect*
0 Rectangle with rounded corners*
0 $1 Rounding radius*
0 $2 $3 $4 $5 $6 $7 $8 $9 X,Y pos of 4 corners*
0 Add a 4 corners polygon primitive as box body*
4,1,4,$2,$3,$4,$5,$6,$7,$8,$9,$2,$3,0*
0 Add four circle primitives for the rounded corners*
1,1,$1+$1,$2,$3*
1,1,$1+$1,$4,$5*
1,1,$1+$1,$6,$7*
1,1,$1+$1,$8,$9*
0 Add four rect primitives between the rounded corners*
20,1,$1+$1,$2,$3,$4,$5,0*
20,1,$1+$1,$4,$5,$6,$7,0*
20,1,$1+$1,$6,$7,$8,$9,0*
20,1,$1+$1,$8,$9,$2,$3,0*%
G04 Aperture macros list end*
%TA.AperFunction,SMDPad,CuDef*%
%ADD10C,0.100000*%
%TD*%
%TA.AperFunction,SMDPad,CuDef*%
%ADD11R,0.810000X0.860000*%
%TD*%
%TA.AperFunction,SMDPad,CuDef*%
%ADD12O,0.360000X1.740000*%
%TD*%
%TA.AperFunction,SMDPad,CuDef*%
%ADD13R,0.800000X0.800000*%
%TD*%
%TA.AperFunction,ComponentPad*%
%ADD14RoundRect,0.172720X-0.259080X-0.259080X0.259080X-0.259080X0.259080X0.259080X-0.259080X0.259080X0*%
%TD*%
%TA.AperFunction,ComponentPad*%
%ADD15C,0.863600*%
%TD*%
%TA.AperFunction,SMDPad,CuDef*%
%ADD16R,0.800000X0.900000*%
%TD*%
%TA.AperFunction,ComponentPad*%
%ADD17C,2.500000*%
%TD*%
%TA.AperFunction,SMDPad,CuDef*%
%ADD18R,1.230000X1.360000*%
%TD*%
%TA.AperFunction,ViaPad*%
%ADD19C,0.500000*%
%TD*%
%TA.AperFunction,Conductor*%
%ADD20C,0.200000*%
%TD*%
G04 APERTURE END LIST*
D10*
%TO.P,GS3,1,JD_DATA*%
%TO.N,/JD_DATA*%
X-14000000Y0D03*
%TD*%
D11*
%TO.P,R1,1*%
%TO.N,/JD_STATUS*%
X-8450000Y-4600000D03*
%TO.P,R1,2*%
%TO.N,Net-(D1-Pad1)*%
X-6950000Y-4600000D03*
%TD*%
D10*
%TO.P,GS2,1,GND*%
%TO.N,GND*%
X-14000000Y-6000000D03*
%TD*%
D12*
%TO.P,U1,1,PB7/PB8*%
%TO.N,/JD_STATUS*%
X-11930000Y-2870000D03*
%TO.P,U1,2,PB9/PC14-OSC32_IN*%
%TO.N,/nFLASH*%
X-11280000Y-2870000D03*
%TO.P,U1,3,PC15-OSC32_OUT*%
%TO.N,unconnected-(U1-PC15-OSC32_OUT-Pad3)*%
X-10630000Y-2870000D03*
%TO.P,U1,4,VDD/VDDA*%
%TO.N,+3V3*%
X-9980000Y-2870000D03*
%TO.P,U1,5,VSS/VSSA*%
%TO.N,GND*%
X-9320000Y-2870000D03*
%TO.P,U1,6,NRST*%
%TO.N,/nRESET*%
X-8670000Y-2870000D03*
%TO.P,U1,7,PA0*%
%TO.N,unconnected-(U1-PA0-Pad7)*%
X-8020000Y-2870000D03*
%TO.P,U1,8,PA1*%
%TO.N,unconnected-(U1-PA1-Pad8)*%
X-7370000Y-2870000D03*
%TO.P,U1,9,PA2*%
%TO.N,unconnected-(U1-PA2-Pad9)*%
X-6720000Y-2870000D03*
%TO.P,U1,10,PA3*%
%TO.N,unconnected-(U1-PA3-Pad10)*%
X-6070000Y-2870000D03*
%TO.P,U1,11,PA4*%
%TO.N,/BUTTON_1*%
X-6070000Y2870000D03*
%TO.P,U1,12,PA5*%
%TO.N,unconnected-(U1-PA5-Pad12)*%
X-6720000Y2870000D03*
%TO.P,U1,13,PA6*%
%TO.N,unconnected-(U1-PA6-Pad13)*%
X-7370000Y2870000D03*
%TO.P,U1,14,PA7*%
%TO.N,unconnected-(U1-PA7-Pad14)*%
X-8020000Y2870000D03*
%TO.P,U1,15,PB0/PB1/PB2/PA8*%
%TO.N,unconnected-(U1-PB0{slash}PB1{slash}PB2{slash}PA8-Pad15)*%
X-8670000Y2870000D03*
%TO.P,U1,16,PA11[PA9]*%
%TO.N,unconnected-(U1-PA11[PA9]-Pad16)*%
X-9320000Y2870000D03*
%TO.P,U1,17,PA12[PA10]*%
%TO.N,unconnected-(U1-PA12[PA10]-Pad17)*%
X-9980000Y2870000D03*
%TO.P,U1,18,PA13*%
%TO.N,/SWDIO*%
X-10630000Y2870000D03*
%TO.P,U1,19,PA15/PA14-BOOT0*%
%TO.N,/SWCLK*%
X-11280000Y2870000D03*
%TO.P,U1,20,PB3/PB4/PB5/PB6*%
%TO.N,/JD_DATA*%
X-11930000Y2870000D03*
%TD*%
D10*
%TO.P,GS1,1,JD_PWR*%
%TO.N,+3V3*%
X-14000000Y6000000D03*
%TD*%
D13*
%TO.P,D1,1*%
%TO.N,Net-(D1-Pad1)*%
X-5000000Y-850000D03*
%TO.P,D1,2*%
%TO.N,GND*%
X-5000000Y850000D03*
%TD*%
D14*
%TO.P,J1,1,Vcc*%
%TO.N,+3V3*%
X-7730000Y7474800D03*
D15*
%TO.P,J1,2,SWDIO*%
%TO.N,/SWDIO*%
X-7730000Y5900000D03*
%TO.P,J1,3,GND*%
%TO.N,GND*%
X-9000000Y7474800D03*
%TO.P,J1,4,SWDCLK*%
%TO.N,/SWCLK*%
X-9000000Y5900000D03*
%TO.P,J1,5,~{RESET}*%
%TO.N,/nRESET*%
X-10270000Y7474800D03*
%TD*%
D16*
%TO.P,C1,1*%
%TO.N,+3V3*%
X-11000000Y-4600000D03*
%TO.P,C1,2*%
%TO.N,GND*%
X-9600000Y-4600000D03*
%TD*%
D17*
%TO.P,SW2,1,1*%
%TO.N,/BUTTON_1*%
X1190000Y2540000D03*
%TO.P,SW2,2,2*%
%TO.N,GND*%
X7540000Y5080000D03*
%TD*%
D18*
%TO.P,SW1,1,1*%
%TO.N,GND*%
X-6820000Y-7000000D03*
%TO.P,SW1,2,2*%
%TO.N,/nFLASH*%
X-11180000Y-7000000D03*
%TD*%
D19*
%TO.N,/JD_DATA*%
X-13200000Y0D03*
X-11500000Y1300000D03*
%TO.N,GND*%
X-8000000Y-7000000D03*
X-10151092Y-851091D03*
X-6100000Y6700000D03*
X-4995591Y1695591D03*
%TD*%
D20*
%TO.N,/nRESET*%
X-10270000Y7474800D02*
X-12411000Y5333800D01*
%TO.N,+3V3*%
X-11000000Y-4600000D02*
X-10900000Y-4600000D01*
X-12842864Y6000000D02*
X-14000000Y6000000D01*
X-12812000Y5969136D02*
X-12842864Y6000000D01*
%TO.N,Net-(D1-Pad1)*%
X-5000000Y-3255000D02*
X-5000000Y-850000D01*
%TO.N,/SWCLK*%
X-9000000Y5900000D02*
X-11280000Y3620000D01*
X-11280000Y3620000D02*
X-11280000Y2870000D01*
%TO.N,Net-(D1-Pad1)*%
X-6345000Y-4600000D02*
X-5000000Y-3255000D01*
%TO.N,/nRESET*%
X-12411000Y1198099D02*
X-10912810Y-300091D01*
%TO.N,+3V3*%
X-10573536Y8207600D02*
X-12812000Y5969136D01*
X-10900000Y-4600000D02*
X-9980000Y-3680000D01*
%TO.N,/SWDIO*%
X-7963664Y5900000D02*
X-7730000Y5900000D01*
%TO.N,+3V3*%
X-7730000Y7474800D02*
X-8462800Y8207600D01*
%TO.N,/SWDIO*%
X-9132800Y5167200D02*
X-8696464Y5167200D01*
%TO.N,+3V3*%
X-9980000Y-3680000D02*
X-9980000Y-2870000D01*
X-12812000Y5969136D02*
X-12812000Y1031999D01*
%TO.N,/SWDIO*%
X-9132800Y5167200D02*
X-10630000Y3670000D01*
%TO.N,Net-(D1-Pad1)*%
X-6950000Y-4600000D02*
X-6345000Y-4600000D01*
%TO.N,/SWDIO*%
X-10630000Y3670000D02*
X-10630000Y2870000D01*
%TO.N,/JD_DATA*%
X-11930000Y1730000D02*
X-11500000Y1300000D01*
%TO.N,/SWDIO*%
X-8696464Y5167200D02*
X-7963664Y5900000D01*
%TO.N,/JD_DATA*%
X-13200000Y0D02*
X-14000000Y0D01*
X-11930000Y2870000D02*
X-11930000Y1730000D01*
%TO.N,+3V3*%
X-8462800Y8207600D02*
X-10573536Y8207600D01*
X-9980000Y-1800001D02*
X-9980000Y-2870000D01*
%TO.N,/nRESET*%
X-8670000Y-1552951D02*
X-8670000Y-2870000D01*
%TO.N,+3V3*%
X-12812000Y1031999D02*
X-9980000Y-1800001D01*
%TO.N,/JD_STATUS*%
X-11930000Y-4969000D02*
X-11930000Y-2870000D01*
%TO.N,/nFLASH*%
X-12411000Y-5769000D02*
X-11180000Y-7000000D01*
%TO.N,/nRESET*%
X-10912810Y-300091D02*
X-9922860Y-300091D01*
%TO.N,/BUTTON_1*%
X860000Y2870000D02*
X-6070000Y2870000D01*
%TO.N,/JD_STATUS*%
X-8450000Y-4600000D02*
X-8450000Y-5230000D01*
%TO.N,/nFLASH*%
X-12129237Y-1699000D02*
X-12411000Y-1980763D01*
%TO.N,/JD_STATUS*%
X-8450000Y-5230000D02*
X-8571000Y-5351000D01*
%TO.N,/nRESET*%
X-9922860Y-300091D02*
X-8670000Y-1552951D01*
X-12411000Y5333800D02*
X-12411000Y1198099D01*
%TO.N,/BUTTON_1*%
X1190000Y2540000D02*
X860000Y2870000D01*
%TO.N,/JD_STATUS*%
X-8571000Y-5351000D02*
X-11548000Y-5351000D01*
%TO.N,/nFLASH*%
X-11381000Y-1699000D02*
X-12129237Y-1699000D01*
X-12411000Y-1980763D02*
X-12411000Y-5769000D01*
X-11280000Y-1800000D02*
X-11381000Y-1699000D01*
X-11280000Y-2870000D02*
X-11280000Y-1800000D01*
%TO.N,/JD_STATUS*%
X-11548000Y-5351000D02*
X-11930000Y-4969000D01*
%TO.N,GND*%
X-9320000Y-1682183D02*
X-10151092Y-851091D01*
X-9320000Y-2870000D02*
X-9320000Y-1682183D01*
X-8225200Y6700000D02*
X-6100000Y6700000D01*
X-9600000Y-4600000D02*
X-9320000Y-4320000D01*
X-8000000Y-7000000D02*
X-8981000Y-7981000D01*
X-9320000Y-4320000D02*
X-9320000Y-2870000D01*
X-6820000Y-7000000D02*
X-8000000Y-7000000D01*
X-5000000Y850000D02*
X-5000000Y1691182D01*
X-9000000Y7474800D02*
X-8225200Y6700000D01*
X-5000000Y1691182D02*
X-4995591Y1695591D01*
X-8981000Y-7981000D02*
X-12019000Y-7981000D01*
X-12019000Y-7981000D02*
X-14000000Y-6000000D01*
%TD*%
%TA.AperFunction,Conductor*%
%TO.N,/JD_DATA*%
G36*
X-11771877Y1717013D02*
G01*
X-11372798Y1513820D01*
X-11366981Y1507013D01*
X-11367681Y1498085D01*
X-11368353Y1496932D01*
X-11497982Y1301274D01*
X-11501274Y1297982D01*
X-11696932Y1168353D01*
X-11705721Y1166641D01*
X-11713148Y1171645D01*
X-11713820Y1172798D01*
X-11777558Y1297982D01*
X-11917013Y1571875D01*
X-11917712Y1580801D01*
X-11914861Y1585453D01*
X-11785454Y1714860D01*
X-11777182Y1718286D01*
X-11771877Y1717013D01*
G37*
%TD.AperFunction*%
%TD*%
%TA.AperFunction,Conductor*%
%TO.N,/JD_DATA*%
G36*
X-13252321Y240439D02*
G01*
X-13246504Y233632D01*
X-13246164Y232341D01*
X-13199473Y2328D01*
X-13199473Y-2328D01*
X-13246164Y-232340D01*
X-13251168Y-239766D01*
X-13259958Y-241478D01*
X-13261249Y-241138D01*
X-13687115Y-102628D01*
X-13693922Y-96811D01*
X-13695196Y-91502D01*
X-13695196Y91503D01*
X-13691769Y99776D01*
X-13687118Y102628D01*
X-13261248Y241139D01*
X-13252321Y240439D01*
G37*
%TD.AperFunction*%
%TD*%
%TA.AperFunction,Conductor*%
%TO.N,GND*%
G36*
X-9937945Y-722735D02*
G01*
X-9937273Y-723888D01*
X-9871859Y-852364D01*
X-9734081Y-1122963D01*
X-9733381Y-1131891D01*
X-9736234Y-1136545D01*
X-9865638Y-1265949D01*
X-9873911Y-1269376D01*
X-9879219Y-1268102D01*
X-10278295Y-1064910D01*
X-10284112Y-1058103D01*
X-10283412Y-1049175D01*
X-10282740Y-1048022D01*
X-10153111Y-852364D01*
X-10149819Y-849072D01*
X-9960870Y-723888D01*
X-9954161Y-719442D01*
X-9945372Y-717731D01*
X-9937945Y-722735D01*
G37*
%TD.AperFunction*%
%TD*%
%TA.AperFunction,Conductor*%
%TO.N,GND*%
G36*
X-6152321Y6940439D02*
G01*
X-6146504Y6933632D01*
X-6146164Y6932341D01*
X-6099473Y6702328D01*
X-6099473Y6697672D01*
X-6146164Y6467660D01*
X-6151168Y6460234D01*
X-6159958Y6458522D01*
X-6161249Y6458862D01*
X-6587115Y6597372D01*
X-6593922Y6603189D01*
X-6595196Y6608498D01*
X-6595196Y6791503D01*
X-6591769Y6799776D01*
X-6587118Y6802628D01*
X-6161248Y6941139D01*
X-6152321Y6940439D01*
G37*
%TD.AperFunction*%
%TD*%
%TA.AperFunction,Conductor*%
%TO.N,GND*%
G36*
X-8198085Y-6867680D02*
G01*
X-8196932Y-6868352D01*
X-8001274Y-6997981D01*
X-7997982Y-7001273D01*
X-7868353Y-7196931D01*
X-7866641Y-7205720D01*
X-7871645Y-7213147D01*
X-7872798Y-7213819D01*
X-8271873Y-7417011D01*
X-8280801Y-7417711D01*
X-8285455Y-7414858D01*
X-8414859Y-7285454D01*
X-8418286Y-7277181D01*
X-8417014Y-7271877D01*
X-8213819Y-6872795D01*
X-8207013Y-6866980D01*
X-8198085Y-6867680D01*
G37*
%TD.AperFunction*%
%TD*%
%TA.AperFunction,Conductor*%
%TO.N,GND*%
G36*
X-7938759Y-6758859D02*
G01*
X-7512884Y-6897372D01*
X-7506078Y-6903188D01*
X-7504804Y-6908497D01*
X-7504804Y-7091502D01*
X-7508231Y-7099775D01*
X-7512885Y-7102628D01*
X-7938752Y-7241138D01*
X-7947680Y-7240438D01*
X-7953497Y-7233631D01*
X-7953837Y-7232340D01*
X-8000528Y-7002325D01*
X-8000528Y-6997674D01*
X-7953837Y-6767657D01*
X-7948833Y-6760233D01*
X-7940043Y-6758521D01*
X-7938759Y-6758859D01*
G37*
%TD.AperFunction*%
%TD*%
%TA.AperFunction,Conductor*%
%TO.N,GND*%
G36*
X-4763367Y1649452D02*
G01*
X-4755942Y1644448D01*
X-4754230Y1635658D01*
X-4754602Y1634268D01*
X-4897325Y1208377D01*
X-4903203Y1201622D01*
X-4908419Y1200395D01*
X-5091422Y1200395D01*
X-5099695Y1203822D01*
X-5102580Y1208576D01*
X-5236877Y1634420D01*
X-5236097Y1643341D01*
X-5229238Y1649097D01*
X-5228063Y1649401D01*
X-4997916Y1696119D01*
X-4993266Y1696119D01*
X-4763367Y1649452D01*
G37*
%TD.AperFunction*%
%TD*%
M02*
