%TF.GenerationSoftware,KiCad,Pcbnew,9.0.0*%
%TF.CreationDate,2025-02-27T17:20:43+00:00*%
%TF.ProjectId,vm_keycap_button_0.1,766d5f6b-6579-4636-9170-5f627574746f,v0.1*%
%TF.SameCoordinates,PX59a5380PY47868c0*%
%TF.FileFunction,Other,User*%
%FSLAX46Y46*%
G04 Gerber Fmt 4.6, Leading zero omitted, Abs format (unit mm)*
G04 Created by KiCad (PCBNEW 9.0.0) date 2025-02-27 17:20:43*
%MOMM*%
%LPD*%
G01*
G04 APERTURE LIST*
%ADD10C,0.100000*%
%ADD11C,0.150000*%
%ADD12C,0.130000*%
%ADD13C,0.120000*%
%ADD14C,0.110000*%
G04 APERTURE END LIST*
D10*
X-14000000Y9000000D02*
X12000000Y9000000D01*
X12000000Y-9000000D01*
X-14000000Y-9000000D01*
X-14000000Y9000000D01*
D11*
X-20976191Y545181D02*
X-20976191Y-169104D01*
X-20976191Y-169104D02*
X-21023810Y-311961D01*
X-21023810Y-311961D02*
X-21119048Y-407200D01*
X-21119048Y-407200D02*
X-21261905Y-454819D01*
X-21261905Y-454819D02*
X-21357143Y-454819D01*
X-20500000Y-454819D02*
X-20500000Y545181D01*
X-20500000Y545181D02*
X-20261905Y545181D01*
X-20261905Y545181D02*
X-20119048Y497562D01*
X-20119048Y497562D02*
X-20023810Y402324D01*
X-20023810Y402324D02*
X-19976191Y307086D01*
X-19976191Y307086D02*
X-19928572Y116610D01*
X-19928572Y116610D02*
X-19928572Y-26247D01*
X-19928572Y-26247D02*
X-19976191Y-216723D01*
X-19976191Y-216723D02*
X-20023810Y-311961D01*
X-20023810Y-311961D02*
X-20119048Y-407200D01*
X-20119048Y-407200D02*
X-20261905Y-454819D01*
X-20261905Y-454819D02*
X-20500000Y-454819D01*
X-19738095Y-550057D02*
X-18976191Y-550057D01*
X-18738095Y-454819D02*
X-18738095Y545181D01*
X-18738095Y545181D02*
X-18500000Y545181D01*
X-18500000Y545181D02*
X-18357143Y497562D01*
X-18357143Y497562D02*
X-18261905Y402324D01*
X-18261905Y402324D02*
X-18214286Y307086D01*
X-18214286Y307086D02*
X-18166667Y116610D01*
X-18166667Y116610D02*
X-18166667Y-26247D01*
X-18166667Y-26247D02*
X-18214286Y-216723D01*
X-18214286Y-216723D02*
X-18261905Y-311961D01*
X-18261905Y-311961D02*
X-18357143Y-407200D01*
X-18357143Y-407200D02*
X-18500000Y-454819D01*
X-18500000Y-454819D02*
X-18738095Y-454819D01*
X-17785714Y-169104D02*
X-17309524Y-169104D01*
X-17880952Y-454819D02*
X-17547619Y545181D01*
X-17547619Y545181D02*
X-17214286Y-454819D01*
X-17023809Y545181D02*
X-16452381Y545181D01*
X-16738095Y-454819D02*
X-16738095Y545181D01*
X-16166666Y-169104D02*
X-15690476Y-169104D01*
X-16261904Y-454819D02*
X-15928571Y545181D01*
X-15928571Y545181D02*
X-15595238Y-454819D01*
X-17761905Y-5502438D02*
X-17857143Y-5454819D01*
X-17857143Y-5454819D02*
X-18000000Y-5454819D01*
X-18000000Y-5454819D02*
X-18142857Y-5502438D01*
X-18142857Y-5502438D02*
X-18238095Y-5597676D01*
X-18238095Y-5597676D02*
X-18285714Y-5692914D01*
X-18285714Y-5692914D02*
X-18333333Y-5883390D01*
X-18333333Y-5883390D02*
X-18333333Y-6026247D01*
X-18333333Y-6026247D02*
X-18285714Y-6216723D01*
X-18285714Y-6216723D02*
X-18238095Y-6311961D01*
X-18238095Y-6311961D02*
X-18142857Y-6407200D01*
X-18142857Y-6407200D02*
X-18000000Y-6454819D01*
X-18000000Y-6454819D02*
X-17904762Y-6454819D01*
X-17904762Y-6454819D02*
X-17761905Y-6407200D01*
X-17761905Y-6407200D02*
X-17714286Y-6359580D01*
X-17714286Y-6359580D02*
X-17714286Y-6026247D01*
X-17714286Y-6026247D02*
X-17904762Y-6026247D01*
X-17285714Y-6454819D02*
X-17285714Y-5454819D01*
X-17285714Y-5454819D02*
X-16714286Y-6454819D01*
X-16714286Y-6454819D02*
X-16714286Y-5454819D01*
X-16238095Y-6454819D02*
X-16238095Y-5454819D01*
X-16238095Y-5454819D02*
X-16000000Y-5454819D01*
X-16000000Y-5454819D02*
X-15857143Y-5502438D01*
X-15857143Y-5502438D02*
X-15761905Y-5597676D01*
X-15761905Y-5597676D02*
X-15714286Y-5692914D01*
X-15714286Y-5692914D02*
X-15666667Y-5883390D01*
X-15666667Y-5883390D02*
X-15666667Y-6026247D01*
X-15666667Y-6026247D02*
X-15714286Y-6216723D01*
X-15714286Y-6216723D02*
X-15761905Y-6311961D01*
X-15761905Y-6311961D02*
X-15857143Y-6407200D01*
X-15857143Y-6407200D02*
X-16000000Y-6454819D01*
X-16000000Y-6454819D02*
X-16238095Y-6454819D01*
X-20609524Y6545181D02*
X-20609524Y5830896D01*
X-20609524Y5830896D02*
X-20657143Y5688039D01*
X-20657143Y5688039D02*
X-20752381Y5592800D01*
X-20752381Y5592800D02*
X-20895238Y5545181D01*
X-20895238Y5545181D02*
X-20990476Y5545181D01*
X-20133333Y5545181D02*
X-20133333Y6545181D01*
X-20133333Y6545181D02*
X-19895238Y6545181D01*
X-19895238Y6545181D02*
X-19752381Y6497562D01*
X-19752381Y6497562D02*
X-19657143Y6402324D01*
X-19657143Y6402324D02*
X-19609524Y6307086D01*
X-19609524Y6307086D02*
X-19561905Y6116610D01*
X-19561905Y6116610D02*
X-19561905Y5973753D01*
X-19561905Y5973753D02*
X-19609524Y5783277D01*
X-19609524Y5783277D02*
X-19657143Y5688039D01*
X-19657143Y5688039D02*
X-19752381Y5592800D01*
X-19752381Y5592800D02*
X-19895238Y5545181D01*
X-19895238Y5545181D02*
X-20133333Y5545181D01*
X-19371428Y5449943D02*
X-18609524Y5449943D01*
X-18371428Y5545181D02*
X-18371428Y6545181D01*
X-18371428Y6545181D02*
X-17990476Y6545181D01*
X-17990476Y6545181D02*
X-17895238Y6497562D01*
X-17895238Y6497562D02*
X-17847619Y6449943D01*
X-17847619Y6449943D02*
X-17800000Y6354705D01*
X-17800000Y6354705D02*
X-17800000Y6211848D01*
X-17800000Y6211848D02*
X-17847619Y6116610D01*
X-17847619Y6116610D02*
X-17895238Y6068991D01*
X-17895238Y6068991D02*
X-17990476Y6021372D01*
X-17990476Y6021372D02*
X-18371428Y6021372D01*
X-17466666Y6545181D02*
X-17228571Y5545181D01*
X-17228571Y5545181D02*
X-17038095Y6259467D01*
X-17038095Y6259467D02*
X-16847619Y5545181D01*
X-16847619Y5545181D02*
X-16609523Y6545181D01*
X-15657143Y5545181D02*
X-15990476Y6021372D01*
X-16228571Y5545181D02*
X-16228571Y6545181D01*
X-16228571Y6545181D02*
X-15847619Y6545181D01*
X-15847619Y6545181D02*
X-15752381Y6497562D01*
X-15752381Y6497562D02*
X-15704762Y6449943D01*
X-15704762Y6449943D02*
X-15657143Y6354705D01*
X-15657143Y6354705D02*
X-15657143Y6211848D01*
X-15657143Y6211848D02*
X-15704762Y6116610D01*
X-15704762Y6116610D02*
X-15752381Y6068991D01*
X-15752381Y6068991D02*
X-15847619Y6021372D01*
X-15847619Y6021372D02*
X-16228571Y6021372D01*
D12*
%TO.C,GS3*%
X-14000000Y0D02*
X-14000000Y0D01*
D13*
%TO.C,GS2*%
X-14000000Y-6000000D02*
X-14000000Y-6000000D01*
D14*
%TO.C,GS1*%
X-14000000Y6000000D02*
X-14000000Y6000000D01*
%TD*%
M02*
