%TF.GenerationSoftware,KiCad,Pcbnew,9.0.0*%
%TF.CreationDate,2025-02-27T17:20:42+00:00*%
%TF.ProjectId,vm_keycap_button_0.1,766d5f6b-6579-4636-9170-5f627574746f,v0.1*%
%TF.SameCoordinates,PX59a5380PY47868c0*%
%TF.FileFunction,Copper,L2,Bot*%
%TF.FilePolarity,Positive*%
%FSLAX46Y46*%
G04 Gerber Fmt 4.6, Leading zero omitted, Abs format (unit mm)*
G04 Created by KiCad (PCBNEW 9.0.0) date 2025-02-27 17:20:42*
%MOMM*%
%LPD*%
G01*
G04 APERTURE LIST*
G04 Aperture macros list*
%AMRoundRect*
0 Rectangle with rounded corners*
0 $1 Rounding radius*
0 $2 $3 $4 $5 $6 $7 $8 $9 X,Y pos of 4 corners*
0 Add a 4 corners polygon primitive as box body*
4,1,4,$2,$3,$4,$5,$6,$7,$8,$9,$2,$3,0*
0 Add four circle primitives for the rounded corners*
1,1,$1+$1,$2,$3*
1,1,$1+$1,$4,$5*
1,1,$1+$1,$6,$7*
1,1,$1+$1,$8,$9*
0 Add four rect primitives between the rounded corners*
20,1,$1+$1,$2,$3,$4,$5,0*
20,1,$1+$1,$4,$5,$6,$7,0*
20,1,$1+$1,$6,$7,$8,$9,0*
20,1,$1+$1,$8,$9,$2,$3,0*%
G04 Aperture macros list end*
%TA.AperFunction,ComponentPad*%
%ADD10RoundRect,0.172720X-0.259080X-0.259080X0.259080X-0.259080X0.259080X0.259080X-0.259080X0.259080X0*%
%TD*%
%TA.AperFunction,ComponentPad*%
%ADD11C,0.863600*%
%TD*%
%TA.AperFunction,ComponentPad*%
%ADD12C,2.500000*%
%TD*%
%TA.AperFunction,ViaPad*%
%ADD13C,0.500000*%
%TD*%
%TA.AperFunction,Conductor*%
%ADD14C,0.200000*%
%TD*%
G04 APERTURE END LIST*
D10*
%TO.P,J1,1,Vcc*%
%TO.N,+3V3*%
X-7730000Y7474800D03*
D11*
%TO.P,J1,2,SWDIO*%
%TO.N,/SWDIO*%
X-7730000Y5900000D03*
%TO.P,J1,3,GND*%
%TO.N,GND*%
X-9000000Y7474800D03*
%TO.P,J1,4,SWDCLK*%
%TO.N,/SWCLK*%
X-9000000Y5900000D03*
%TO.P,J1,5,~{RESET}*%
%TO.N,/nRESET*%
X-10270000Y7474800D03*
%TD*%
D12*
%TO.P,SW2,1,1*%
%TO.N,/BUTTON_1*%
X1190000Y2540000D03*
%TO.P,SW2,2,2*%
%TO.N,GND*%
X7540000Y5080000D03*
%TD*%
D13*
%TO.N,/JD_DATA*%
X-13200000Y0D03*
X-11500000Y1300000D03*
%TO.N,GND*%
X-8000000Y-7000000D03*
X-10151092Y-851091D03*
X-6100000Y6700000D03*
X-4995591Y1695591D03*
%TD*%
D14*
%TO.N,/JD_DATA*%
X-12800000Y0D02*
X-13200000Y0D01*
X-11500000Y1300000D02*
X-12800000Y0D01*
%TO.N,GND*%
X-4995591Y5595591D02*
X-6100000Y6700000D01*
X-4975591Y5080000D02*
X-4995591Y5100000D01*
X-8000000Y-7000000D02*
X-8000000Y-1308818D01*
X-8457727Y-851091D02*
X-8000000Y-1308818D01*
X-4995591Y1695591D02*
X-8000000Y-1308818D01*
X-4995591Y1695591D02*
X-4995591Y5100000D01*
X-10151092Y-851091D02*
X-8457727Y-851091D01*
X-4995591Y5100000D02*
X-4995591Y5595591D01*
X7540000Y5080000D02*
X-4975591Y5080000D01*
%TD*%
%TA.AperFunction,Conductor*%
%TO.N,/JD_DATA*%
G36*
X-13138869Y241389D02*
G01*
X-12806170Y138879D01*
X-12801344Y135972D01*
X-12673337Y7965D01*
X-12669910Y-308D01*
X-12673337Y-8581D01*
X-12676275Y-10721D01*
X-13051870Y-203134D01*
X-13060796Y-203856D01*
X-13066908Y-199259D01*
X-13197976Y-4760D01*
X-13199757Y4015D01*
X-13199743Y4086D01*
X-13153779Y232514D01*
X-13148788Y239949D01*
X-13140001Y241676D01*
X-13138869Y241389D01*
G37*
%TD.AperFunction*%
%TD*%
%TA.AperFunction,Conductor*%
%TO.N,/JD_DATA*%
G36*
X-11698085Y1432320D02*
G01*
X-11696932Y1431648D01*
X-11501274Y1302019D01*
X-11497982Y1298727D01*
X-11368353Y1103069D01*
X-11366641Y1094280D01*
X-11371645Y1086853D01*
X-11372798Y1086181D01*
X-11771873Y882989D01*
X-11780801Y882289D01*
X-11785455Y885142D01*
X-11914859Y1014546D01*
X-11918286Y1022819D01*
X-11917014Y1028123D01*
X-11713819Y1427205D01*
X-11707013Y1433020D01*
X-11698085Y1432320D01*
G37*
%TD.AperFunction*%
%TD*%
%TA.AperFunction,Conductor*%
%TO.N,GND*%
G36*
X-5886853Y6828356D02*
G01*
X-5886181Y6827203D01*
X-5820767Y6698727D01*
X-5682989Y6428128D01*
X-5682289Y6419200D01*
X-5685142Y6414546D01*
X-5814546Y6285142D01*
X-5822819Y6281715D01*
X-5828127Y6282989D01*
X-6227203Y6486181D01*
X-6233020Y6492988D01*
X-6232320Y6501916D01*
X-6231648Y6503069D01*
X-6102019Y6698727D01*
X-6098727Y6702019D01*
X-5909778Y6827203D01*
X-5903069Y6831649D01*
X-5894280Y6833360D01*
X-5886853Y6828356D01*
G37*
%TD.AperFunction*%
%TD*%
%TA.AperFunction,Conductor*%
%TO.N,GND*%
G36*
X-7900225Y-6508231D02*
G01*
X-7897372Y-6512885D01*
X-7758862Y-6938751D01*
X-7759562Y-6947679D01*
X-7766369Y-6953496D01*
X-7767660Y-6953836D01*
X-7997672Y-7000527D01*
X-8002328Y-7000527D01*
X-8232341Y-6953836D01*
X-8239767Y-6948832D01*
X-8241479Y-6940042D01*
X-8241143Y-6938762D01*
X-8102628Y-6512885D01*
X-8096811Y-6506078D01*
X-8091502Y-6504804D01*
X-7908498Y-6504804D01*
X-7900225Y-6508231D01*
G37*
%TD.AperFunction*%
%TD*%
%TA.AperFunction,Conductor*%
%TO.N,GND*%
G36*
X-5193676Y1827911D02*
G01*
X-5192523Y1827239D01*
X-4996865Y1697610D01*
X-4993573Y1694318D01*
X-4863944Y1498660D01*
X-4862232Y1489871D01*
X-4867236Y1482444D01*
X-4868389Y1481772D01*
X-5267464Y1278580D01*
X-5276392Y1277880D01*
X-5281046Y1280733D01*
X-5410450Y1410137D01*
X-5413877Y1418410D01*
X-5412605Y1423714D01*
X-5209410Y1822796D01*
X-5202604Y1828611D01*
X-5193676Y1827911D01*
G37*
%TD.AperFunction*%
%TD*%
%TA.AperFunction,Conductor*%
%TO.N,GND*%
G36*
X-4895816Y2187360D02*
G01*
X-4892963Y2182706D01*
X-4754453Y1756840D01*
X-4755153Y1747912D01*
X-4761960Y1742095D01*
X-4763251Y1741755D01*
X-4993263Y1695064D01*
X-4997919Y1695064D01*
X-5227932Y1741755D01*
X-5235358Y1746759D01*
X-5237070Y1755549D01*
X-5236734Y1756829D01*
X-5098219Y2182706D01*
X-5092402Y2189513D01*
X-5087093Y2190787D01*
X-4904089Y2190787D01*
X-4895816Y2187360D01*
G37*
%TD.AperFunction*%
%TD*%
%TA.AperFunction,Conductor*%
%TO.N,GND*%
G36*
X-10089851Y-609950D02*
G01*
X-9663976Y-748463D01*
X-9657170Y-754279D01*
X-9655896Y-759588D01*
X-9655896Y-942593D01*
X-9659323Y-950866D01*
X-9663977Y-953719D01*
X-10089844Y-1092229D01*
X-10098772Y-1091529D01*
X-10104589Y-1084722D01*
X-10104929Y-1083431D01*
X-10151620Y-853416D01*
X-10151620Y-848765D01*
X-10104929Y-618748D01*
X-10099925Y-611324D01*
X-10091135Y-609612D01*
X-10089851Y-609950D01*
G37*
%TD.AperFunction*%
%TD*%
M02*
