%TF.GenerationSoftware,KiCad,Pcbnew,9.0.7*%
%TF.CreationDate,2026-03-08T19:16:44+00:00*%
%TF.ProjectId,jvm_accelerometer,6a766d5f-6163-4636-956c-65726f6d6574,0.6*%
%TF.SameCoordinates,PX51c70f0PY487ab00*%
%TF.FileFunction,Copper,L1,Top*%
%TF.FilePolarity,Positive*%
%FSLAX45Y45*%
G04 Gerber Fmt 4.5, Leading zero omitted, Abs format (unit mm)*
G04 Created by KiCad (PCBNEW 9.0.7) date 2026-03-08 19:16:44*
%MOMM*%
%LPD*%
G01*
G04 APERTURE LIST*
G04 Aperture macros list*
%AMRoundRect*
0 Rectangle with rounded corners*
0 $1 Rounding radius*
0 $2 $3 $4 $5 $6 $7 $8 $9 X,Y pos of 4 corners*
0 Add a 4 corners polygon primitive as box body*
4,1,4,$2,$3,$4,$5,$6,$7,$8,$9,$2,$3,0*
0 Add four circle primitives for the rounded corners*
1,1,$1+$1,$2,$3*
1,1,$1+$1,$4,$5*
1,1,$1+$1,$6,$7*
1,1,$1+$1,$8,$9*
0 Add four rect primitives between the rounded corners*
20,1,$1+$1,$2,$3,$4,$5,0*
20,1,$1+$1,$4,$5,$6,$7,0*
20,1,$1+$1,$6,$7,$8,$9,0*
20,1,$1+$1,$8,$9,$2,$3,0*%
G04 Aperture macros list end*
%TA.AperFunction,SMDPad,CuDef*%
%ADD10RoundRect,0.062500X-0.075000X-0.062500X0.075000X-0.062500X0.075000X0.062500X-0.075000X0.062500X0*%
%TD*%
%TA.AperFunction,SMDPad,CuDef*%
%ADD11RoundRect,0.062500X-0.062500X-0.075000X0.062500X-0.075000X0.062500X0.075000X-0.062500X0.075000X0*%
%TD*%
%TA.AperFunction,SMDPad,CuDef*%
%ADD12C,0.125000*%
%TD*%
%TA.AperFunction,SMDPad,CuDef*%
%ADD13RoundRect,0.225000X-0.225000X-0.250000X0.225000X-0.250000X0.225000X0.250000X-0.225000X0.250000X0*%
%TD*%
%TA.AperFunction,SMDPad,CuDef*%
%ADD14RoundRect,0.237500X-0.250000X-0.237500X0.250000X-0.237500X0.250000X0.237500X-0.250000X0.237500X0*%
%TD*%
%TA.AperFunction,SMDPad,CuDef*%
%ADD15RoundRect,0.237500X0.237500X-0.250000X0.237500X0.250000X-0.237500X0.250000X-0.237500X-0.250000X0*%
%TD*%
%TA.AperFunction,SMDPad,CuDef*%
%ADD16RoundRect,0.150000X0.512500X0.150000X-0.512500X0.150000X-0.512500X-0.150000X0.512500X-0.150000X0*%
%TD*%
%TA.AperFunction,SMDPad,CuDef*%
%ADD17RoundRect,0.225000X-0.250000X0.225000X-0.250000X-0.225000X0.250000X-0.225000X0.250000X0.225000X0*%
%TD*%
%TA.AperFunction,SMDPad,CuDef*%
%ADD18RoundRect,0.250000X-0.250000X0.250000X-0.250000X-0.250000X0.250000X-0.250000X0.250000X0.250000X0*%
%TD*%
%TA.AperFunction,SMDPad,CuDef*%
%ADD19RoundRect,0.250000X-0.275000X-0.750000X0.275000X-0.750000X0.275000X0.750000X-0.275000X0.750000X0*%
%TD*%
%TA.AperFunction,SMDPad,CuDef*%
%ADD20RoundRect,0.237500X0.287500X0.237500X-0.287500X0.237500X-0.287500X-0.237500X0.287500X-0.237500X0*%
%TD*%
%TA.AperFunction,SMDPad,CuDef*%
%ADD21RoundRect,0.225000X0.225000X0.250000X-0.225000X0.250000X-0.225000X-0.250000X0.225000X-0.250000X0*%
%TD*%
%TA.AperFunction,SMDPad,CuDef*%
%ADD22RoundRect,0.237500X0.250000X0.237500X-0.250000X0.237500X-0.250000X-0.237500X0.250000X-0.237500X0*%
%TD*%
%TA.AperFunction,ComponentPad*%
%ADD23RoundRect,0.172720X-0.259080X-0.259080X0.259080X-0.259080X0.259080X0.259080X-0.259080X0.259080X0*%
%TD*%
%TA.AperFunction,ComponentPad*%
%ADD24C,0.863600*%
%TD*%
%TA.AperFunction,SMDPad,CuDef*%
%ADD25RoundRect,0.100000X0.100000X-0.637500X0.100000X0.637500X-0.100000X0.637500X-0.100000X-0.637500X0*%
%TD*%
%TA.AperFunction,ViaPad*%
%ADD26C,0.600000*%
%TD*%
%TA.AperFunction,Conductor*%
%ADD27C,0.200000*%
%TD*%
G04 APERTURE END LIST*
D10*
%TO.P,U3,1,ADDR*%
%TO.N,GND*%
X448750Y25000D03*
%TO.P,U3,2,SDA*%
%TO.N,/SDA*%
X448750Y-25000D03*
%TO.P,U3,3,IO_VDD*%
%TO.N,+3V3*%
X448750Y-75000D03*
%TO.P,U3,4,RES*%
%TO.N,GND*%
X448750Y-125000D03*
D11*
%TO.P,U3,5,INT*%
%TO.N,/INT*%
X500000Y-126250D03*
%TO.P,U3,6,GND*%
%TO.N,GND*%
X550000Y-126250D03*
D10*
%TO.P,U3,7,VDD*%
%TO.N,+3V3*%
X601250Y-125000D03*
%TO.P,U3,8,GND*%
%TO.N,GND*%
X601250Y-75000D03*
%TO.P,U3,9,GND*%
X601250Y-25000D03*
%TO.P,U3,10,VDD*%
%TO.N,+3V3*%
X601250Y25000D03*
D11*
%TO.P,U3,11,IO_VDD*%
X550000Y26250D03*
%TO.P,U3,12,SCL*%
%TO.N,/SCL*%
X500000Y26250D03*
%TD*%
D12*
%TO.P,GS6,1,RESET*%
%TO.N,Net-(D1-K)*%
X-675000Y800000D03*
%TD*%
%TO.P,GS3,1,JD_DATA*%
%TO.N,Net-(GS3-JD_DATA)*%
X-875000Y350000D03*
%TD*%
D13*
%TO.P,C2,1*%
%TO.N,JD_PWR*%
X-752500Y-300000D03*
%TO.P,C2,2*%
%TO.N,GND*%
X-597500Y-300000D03*
%TD*%
D14*
%TO.P,R5,1*%
%TO.N,/SCL*%
X433750Y350000D03*
%TO.P,R5,2*%
%TO.N,+3V3*%
X616250Y350000D03*
%TD*%
D15*
%TO.P,R3,1*%
%TO.N,/SWDIO*%
X-350000Y508750D03*
%TO.P,R3,2*%
%TO.N,Net-(GS5-SWDIO~^)*%
X-350000Y691250D03*
%TD*%
D16*
%TO.P,U2,1,GND*%
%TO.N,GND*%
X-561250Y-145000D03*
%TO.P,U2,2,VO*%
%TO.N,+3V3*%
X-561250Y45000D03*
%TO.P,U2,3,VI*%
%TO.N,JD_PWR*%
X-788750Y-50000D03*
%TD*%
D12*
%TO.P,GS2,1,GND*%
%TO.N,GND*%
X-875000Y-300000D03*
%TD*%
%TO.P,GS1,1,JD_PWR*%
%TO.N,JD_PWR*%
X-875000Y-50000D03*
%TD*%
%TO.P,GS4,1,SWCLK*%
%TO.N,Net-(GS4-SWCLK)*%
X-500000Y800000D03*
%TD*%
D17*
%TO.P,C1,1*%
%TO.N,+3V3*%
X-400000Y-535000D03*
%TO.P,C1,2*%
%TO.N,GND*%
X-400000Y-690000D03*
%TD*%
D18*
%TO.P,D1,1,K*%
%TO.N,Net-(D1-K)*%
X-675000Y725000D03*
%TO.P,D1,2,A*%
%TO.N,/nRESET*%
X-675000Y475000D03*
%TD*%
D13*
%TO.P,C3,1*%
%TO.N,+3V3*%
X-752500Y200000D03*
%TO.P,C3,2*%
%TO.N,GND*%
X-597500Y200000D03*
%TD*%
D19*
%TO.P,SW1,1,1*%
%TO.N,GND*%
X-247500Y-612500D03*
%TO.P,SW1,2,2*%
%TO.N,/nFLASH*%
X197500Y-612500D03*
%TD*%
D15*
%TO.P,R2,1*%
%TO.N,/SWCLK*%
X-500000Y508750D03*
%TO.P,R2,2*%
%TO.N,Net-(GS4-SWCLK)*%
X-500000Y691250D03*
%TD*%
D17*
%TO.P,C4,1*%
%TO.N,+3V3*%
X762500Y27500D03*
%TO.P,C4,2*%
%TO.N,GND*%
X762500Y-127500D03*
%TD*%
D14*
%TO.P,R6,1*%
%TO.N,/SDA*%
X433750Y200000D03*
%TO.P,R6,2*%
%TO.N,+3V3*%
X616250Y200000D03*
%TD*%
D12*
%TO.P,GS5,1,SWDIO~^*%
%TO.N,Net-(GS5-SWDIO~^)*%
X-350000Y800000D03*
%TD*%
D20*
%TO.P,D2,1*%
%TO.N,GND*%
X-587500Y-600000D03*
%TO.P,D2,2*%
%TO.N,Net-(D2-Pad2)*%
X-762500Y-600000D03*
%TD*%
D21*
%TO.P,C5,1*%
%TO.N,+3V3*%
X602500Y-287500D03*
%TO.P,C5,2*%
%TO.N,GND*%
X447500Y-287500D03*
%TD*%
D22*
%TO.P,R1,1*%
%TO.N,/JD_DATA_MCU*%
X-583750Y350000D03*
%TO.P,R1,2*%
%TO.N,Net-(GS3-JD_DATA)*%
X-766250Y350000D03*
%TD*%
%TO.P,R4,1*%
%TO.N,/JD_STATUS*%
X-583750Y-450000D03*
%TO.P,R4,2*%
%TO.N,Net-(D2-Pad2)*%
X-766250Y-450000D03*
%TD*%
D23*
%TO.P,J1,1,VCC*%
%TO.N,+3V3*%
X127000Y647390D03*
D24*
%TO.P,J1,2,SWDIO*%
%TO.N,/SWDIO*%
X127000Y489910D03*
%TO.P,J1,3,GND*%
%TO.N,GND*%
X0Y647390D03*
%TO.P,J1,4,SWCLK*%
%TO.N,/SWCLK*%
X0Y489910D03*
%TO.P,J1,5,~{RESET}*%
%TO.N,/nRESET*%
X-127000Y647390D03*
%TD*%
D25*
%TO.P,U1,1,PB7/PB8*%
%TO.N,/JD_STATUS*%
X-405000Y-336250D03*
%TO.P,U1,2,PB9/PC14*%
%TO.N,/nFLASH*%
X-340000Y-336250D03*
%TO.P,U1,3,PC15*%
%TO.N,/INT*%
X-275000Y-336250D03*
%TO.P,U1,4,VDD*%
%TO.N,+3V3*%
X-210000Y-336250D03*
%TO.P,U1,5,VSS*%
%TO.N,GND*%
X-145000Y-336250D03*
%TO.P,U1,6,NRST*%
%TO.N,/nRESET*%
X-80000Y-336250D03*
%TO.P,U1,7,PA0*%
%TO.N,unconnected-(U1-PA0-Pad7)*%
X-15000Y-336250D03*
%TO.P,U1,8,PA1*%
%TO.N,unconnected-(U1-PA1-Pad8)*%
X50000Y-336250D03*
%TO.P,U1,9,PA2*%
%TO.N,unconnected-(U1-PA2-Pad9)*%
X115000Y-336250D03*
%TO.P,U1,10,PA3*%
%TO.N,unconnected-(U1-PA3-Pad10)*%
X180000Y-336250D03*
%TO.P,U1,11,PA4*%
%TO.N,unconnected-(U1-PA4-Pad11)*%
X180000Y236250D03*
%TO.P,U1,12,PA5*%
%TO.N,unconnected-(U1-PA5-Pad12)*%
X115000Y236250D03*
%TO.P,U1,13,PA6*%
%TO.N,unconnected-(U1-PA6-Pad13)*%
X50000Y236250D03*
%TO.P,U1,14,PA7*%
%TO.N,unconnected-(U1-PA7-Pad14)*%
X-15000Y236250D03*
%TO.P,U1,15,PA8/PB0/PB1/PB2*%
%TO.N,unconnected-(U1-PA8{slash}PB0{slash}PB1{slash}PB2-Pad15)*%
X-80000Y236250D03*
%TO.P,U1,16,PA9/PA11*%
%TO.N,/SCL*%
X-145000Y236250D03*
%TO.P,U1,17,PA10/PA12*%
%TO.N,/SDA*%
X-210000Y236250D03*
%TO.P,U1,18,PA13*%
%TO.N,/SWDIO*%
X-275000Y236250D03*
%TO.P,U1,19,PA14/PA15*%
%TO.N,/SWCLK*%
X-340000Y236250D03*
%TO.P,U1,20,PB3/PB4/PB5/PB6*%
%TO.N,/JD_DATA_MCU*%
X-405000Y236250D03*
%TD*%
D26*
%TO.N,GND*%
X-500000Y-300000D03*
X350000Y-225000D03*
X-500000Y200000D03*
X461161Y102500D03*
X-587500Y-712500D03*
X386241Y-93029D03*
X-125000Y-625000D03*
X-825000Y-175000D03*
X-200000Y575000D03*
%TO.N,+3V3*%
X-205000Y-464014D03*
%TO.N,/nRESET*%
X-146900Y-212500D03*
X-675000Y575000D03*
%TO.N,/INT*%
X-300000Y-200000D03*
X-212576Y-117718D03*
%TD*%
D27*
%TO.N,GND*%
X-125000Y-625000D02*
X-235000Y-625000D01*
X-875000Y-300000D02*
X-825000Y-250000D01*
X-199110Y574110D02*
X-200000Y575000D01*
X550000Y-185000D02*
X447500Y-287500D01*
X-322500Y-612500D02*
X-400000Y-690000D01*
X448750Y25000D02*
X448750Y90089D01*
X585920Y-75000D02*
X601250Y-75000D01*
X-825000Y-250000D02*
X-825000Y-225000D01*
X-247500Y-612500D02*
X-322500Y-612500D01*
X710000Y-75000D02*
X601250Y-75000D01*
X-73280Y574110D02*
X-199110Y574110D01*
X-825000Y-225000D02*
X-825000Y-175000D01*
X601250Y-75000D02*
X601250Y-25000D01*
X-500000Y200000D02*
X-597500Y200000D01*
X448750Y90089D02*
X461161Y102500D01*
X-561250Y-145000D02*
X-561250Y-263750D01*
X0Y647390D02*
X-73280Y574110D01*
X-587500Y-712500D02*
X-587500Y-600000D01*
X762500Y-127500D02*
X710000Y-75000D01*
X418212Y-125000D02*
X386241Y-93029D01*
X-235000Y-625000D02*
X-247500Y-612500D01*
X448750Y-125000D02*
X418212Y-125000D01*
X550000Y-110920D02*
X585920Y-75000D01*
X447500Y-287500D02*
X412500Y-287500D01*
X412500Y-287500D02*
X350000Y-225000D01*
X-561250Y-263750D02*
X-597500Y-300000D01*
X550000Y-126250D02*
X550000Y-110920D01*
X550000Y-126250D02*
X550000Y-185000D01*
X-500000Y-300000D02*
X-597500Y-300000D01*
X-145000Y-510000D02*
X-247500Y-612500D01*
X-145000Y-336250D02*
X-145000Y-510000D01*
%TO.N,+3V3*%
X762500Y27500D02*
X612500Y27500D01*
X602500Y-287500D02*
X602500Y-126250D01*
X550000Y10920D02*
X550000Y26250D01*
X-752500Y200000D02*
X-597500Y45000D01*
X127000Y647390D02*
X268860Y647390D01*
X464080Y-75000D02*
X550000Y10920D01*
X-235256Y-427243D02*
X-235256Y-433758D01*
X612500Y27500D02*
X603750Y27500D01*
X268860Y647390D02*
X566250Y350000D01*
X840100Y-172411D02*
X725011Y-287500D01*
X616250Y31250D02*
X612500Y27500D01*
X725011Y-287500D02*
X602500Y-287500D01*
X602500Y-126250D02*
X601250Y-125000D01*
X-235256Y-427243D02*
X-210000Y-401987D01*
X-210000Y-205147D02*
X-210000Y-336250D01*
X600000Y26250D02*
X601250Y25000D01*
X-460147Y45000D02*
X-210000Y-205147D01*
X762500Y27500D02*
X840100Y-50100D01*
X-235256Y-433758D02*
X-205000Y-464014D01*
X-305100Y-440100D02*
X-248113Y-440100D01*
X-561250Y45000D02*
X-460147Y45000D01*
X448750Y-75000D02*
X464080Y-75000D01*
X616250Y350000D02*
X616250Y200000D01*
X-400000Y-535000D02*
X-305100Y-440100D01*
X-248113Y-440100D02*
X-235256Y-427243D01*
X550000Y26250D02*
X600000Y26250D01*
X840100Y-50100D02*
X840100Y-172411D01*
X-210000Y-401987D02*
X-210000Y-336250D01*
X616250Y200000D02*
X616250Y31250D01*
X-597500Y45000D02*
X-561250Y45000D01*
X603750Y27500D02*
X601250Y25000D01*
X566250Y350000D02*
X616250Y350000D01*
%TO.N,Net-(D1-K)*%
X-675000Y705000D02*
X-675000Y800000D01*
%TO.N,/SWDIO*%
X-275000Y412500D02*
X-275000Y236250D01*
X-275000Y433750D02*
X-275000Y412500D01*
X49590Y412500D02*
X-275000Y412500D01*
X127000Y489910D02*
X49590Y412500D01*
X-350000Y508750D02*
X-275000Y433750D01*
%TO.N,/SWCLK*%
X0Y489910D02*
X-205597Y489910D01*
X-205597Y489910D02*
X-303287Y587600D01*
X-340000Y348750D02*
X-340000Y236250D01*
X-421150Y587600D02*
X-500000Y508750D01*
X-500000Y508750D02*
X-340000Y348750D01*
X-303287Y587600D02*
X-421150Y587600D01*
%TO.N,/nRESET*%
X-675000Y575000D02*
X-675000Y495000D01*
X-80000Y-262500D02*
X-130000Y-212500D01*
X-80000Y-336250D02*
X-80000Y-262500D01*
X-130000Y-212500D02*
X-146900Y-212500D01*
%TO.N,/JD_STATUS*%
X-583750Y-450000D02*
X-518750Y-450000D01*
X-518750Y-450000D02*
X-405000Y-336250D01*
%TO.N,unconnected-(U1-PA5-Pad12)*%
X250000Y296987D02*
X196987Y350000D01*
X150000Y350000D02*
X115000Y315000D01*
X275000Y225000D02*
X250000Y250000D01*
X250000Y250000D02*
X250000Y296987D01*
X275000Y225000D02*
X275000Y225000D01*
X115000Y315000D02*
X115000Y236250D01*
X196987Y350000D02*
X150000Y350000D01*
%TO.N,Net-(D2-Pad2)*%
X-766250Y-596250D02*
X-762500Y-600000D01*
X-766250Y-450000D02*
X-766250Y-596250D01*
%TO.N,unconnected-(U1-PA2-Pad9)*%
X275000Y-325000D02*
X230100Y-369900D01*
X230100Y-369900D02*
X230100Y-416887D01*
X115000Y-401987D02*
X115000Y-336250D01*
X153113Y-440100D02*
X115000Y-401987D01*
X230100Y-416887D02*
X206887Y-440100D01*
X206887Y-440100D02*
X153113Y-440100D01*
X275000Y-325000D02*
X275000Y-325000D01*
%TO.N,unconnected-(U1-PA1-Pad8)*%
X87500Y-225000D02*
X275000Y-225000D01*
X275000Y-225000D02*
X275000Y-225000D01*
X87500Y-225000D02*
X50000Y-262500D01*
X50000Y-262500D02*
X50000Y-336250D01*
%TO.N,/SCL*%
X337500Y253750D02*
X433750Y350000D01*
X42500Y-25000D02*
X300000Y-25000D01*
X275000Y-25000D02*
X275000Y-25000D01*
X300000Y-25000D02*
X337500Y12500D01*
X535668Y296832D02*
X482500Y350000D01*
X500000Y43899D02*
X535668Y79568D01*
X482500Y350000D02*
X433750Y350000D01*
X500000Y26250D02*
X500000Y43899D01*
X-145000Y162500D02*
X42500Y-25000D01*
X-145000Y236250D02*
X-145000Y162500D01*
X337500Y12500D02*
X337500Y253750D01*
X535668Y79568D02*
X535668Y296832D01*
%TO.N,/SDA*%
X387500Y153750D02*
X387500Y-25000D01*
X275000Y-75000D02*
X275000Y-75000D01*
X313129Y-75000D02*
X363129Y-25000D01*
X363129Y-25000D02*
X387500Y-25000D01*
X-210000Y162500D02*
X27500Y-75000D01*
X-210000Y236250D02*
X-210000Y162500D01*
X27500Y-75000D02*
X313129Y-75000D01*
X387500Y-25000D02*
X448750Y-25000D01*
X433750Y200000D02*
X387500Y153750D01*
%TO.N,unconnected-(U1-PA7-Pad14)*%
X-15000Y162500D02*
X-15000Y236250D01*
X275000Y75000D02*
X72500Y75000D01*
X72500Y75000D02*
X-15000Y162500D01*
X275000Y75000D02*
X275000Y75000D01*
%TO.N,unconnected-(U1-PA6-Pad13)*%
X275000Y125000D02*
X95513Y125000D01*
X95513Y125000D02*
X50000Y170513D01*
X275000Y125000D02*
X275000Y125000D01*
X50000Y170513D02*
X50000Y236250D01*
%TO.N,unconnected-(U1-PA0-Pad7)*%
X275000Y-175000D02*
X72500Y-175000D01*
X72500Y-175000D02*
X-15000Y-262500D01*
X-15000Y-262500D02*
X-15000Y-336250D01*
X275000Y-175000D02*
X275000Y-175000D01*
%TO.N,unconnected-(U1-PA3-Pad10)*%
X241250Y-275000D02*
X180000Y-336250D01*
X275000Y-275000D02*
X241250Y-275000D01*
X275000Y-275000D02*
X275000Y-275000D01*
%TO.N,/INT*%
X500000Y-126250D02*
X500000Y-140000D01*
X-275000Y-225000D02*
X-300000Y-200000D01*
X500000Y-140000D02*
X472400Y-167600D01*
X275000Y-125000D02*
X275000Y-125000D01*
X333360Y-125000D02*
X-205294Y-125000D01*
X472400Y-167600D02*
X375959Y-167600D01*
X-275000Y-336250D02*
X-275000Y-225000D01*
X-205294Y-125000D02*
X-212576Y-117718D01*
X375959Y-167600D02*
X333360Y-125000D01*
%TO.N,unconnected-(U1-PA4-Pad11)*%
X275000Y175000D02*
X241250Y175000D01*
X275000Y175000D02*
X275000Y175000D01*
X241250Y175000D02*
X180000Y236250D01*
%TO.N,JD_PWR*%
X-752500Y-86250D02*
X-788750Y-50000D01*
X-788750Y-50000D02*
X-875000Y-50000D01*
X-752500Y-300000D02*
X-752500Y-86250D01*
%TO.N,Net-(GS3-JD_DATA)*%
X-766250Y350000D02*
X-875000Y350000D01*
%TO.N,/JD_DATA_MCU*%
X-583750Y350000D02*
X-518750Y350000D01*
X-518750Y350000D02*
X-405000Y236250D01*
%TO.N,unconnected-(U1-PA8{slash}PB0{slash}PB1{slash}PB2-Pad15)*%
X-80000Y162500D02*
X-80000Y236250D01*
X275000Y25000D02*
X57500Y25000D01*
X275000Y25000D02*
X275000Y25000D01*
X57500Y25000D02*
X-80000Y162500D01*
%TO.N,Net-(GS4-SWCLK)*%
X-500000Y691250D02*
X-500000Y800000D01*
%TO.N,Net-(GS5-SWDIO~^)*%
X-350000Y691250D02*
X-350000Y800000D01*
%TO.N,/nFLASH*%
X-447411Y-765100D02*
X-477600Y-734911D01*
X-377700Y-440100D02*
X-340000Y-402400D01*
X197500Y-612500D02*
X44900Y-765100D01*
X-340000Y-402400D02*
X-340000Y-336250D01*
X-477600Y-485813D02*
X-431887Y-440100D01*
X-477600Y-734911D02*
X-477600Y-485813D01*
X-431887Y-440100D02*
X-377700Y-440100D01*
X44900Y-765100D02*
X-447411Y-765100D01*
%TD*%
M02*
