%TF.GenerationSoftware,KiCad,Pcbnew,9.0.7*%
%TF.CreationDate,2026-03-30T18:33:40+01:00*%
%TF.ProjectId,jvm_slider,6a766d5f-736c-4696-9465-722e6b696361,0.7*%
%TF.SameCoordinates,PX6516e80PY487ab00*%
%TF.FileFunction,Legend,Top*%
%TF.FilePolarity,Positive*%
%FSLAX45Y45*%
G04 Gerber Fmt 4.5, Leading zero omitted, Abs format (unit mm)*
G04 Created by KiCad (PCBNEW 9.0.7) date 2026-03-30 18:33:40*
%MOMM*%
%LPD*%
G01*
G04 APERTURE LIST*
%ADD10C,0.150000*%
%ADD11C,0.120000*%
G04 APERTURE END LIST*
D10*
X-2805846Y-709429D02*
X-2798227Y-709429D01*
X-2798227Y-709429D02*
X-2790608Y-713239D01*
X-2790608Y-713239D02*
X-2786798Y-717048D01*
X-2786798Y-717048D02*
X-2782989Y-724668D01*
X-2782989Y-724668D02*
X-2779179Y-739906D01*
X-2779179Y-739906D02*
X-2779179Y-758953D01*
X-2779179Y-758953D02*
X-2782989Y-774191D01*
X-2782989Y-774191D02*
X-2786798Y-781810D01*
X-2786798Y-781810D02*
X-2790608Y-785620D01*
X-2790608Y-785620D02*
X-2798227Y-789429D01*
X-2798227Y-789429D02*
X-2805846Y-789429D01*
X-2805846Y-789429D02*
X-2813465Y-785620D01*
X-2813465Y-785620D02*
X-2817274Y-781810D01*
X-2817274Y-781810D02*
X-2821084Y-774191D01*
X-2821084Y-774191D02*
X-2824894Y-758953D01*
X-2824894Y-758953D02*
X-2824894Y-739906D01*
X-2824894Y-739906D02*
X-2821084Y-724668D01*
X-2821084Y-724668D02*
X-2817274Y-717048D01*
X-2817274Y-717048D02*
X-2813465Y-713239D01*
X-2813465Y-713239D02*
X-2805846Y-709429D01*
X-2744894Y-781810D02*
X-2741084Y-785620D01*
X-2741084Y-785620D02*
X-2744894Y-789429D01*
X-2744894Y-789429D02*
X-2748703Y-785620D01*
X-2748703Y-785620D02*
X-2744894Y-781810D01*
X-2744894Y-781810D02*
X-2744894Y-789429D01*
X-2714417Y-709429D02*
X-2661084Y-709429D01*
X-2661084Y-709429D02*
X-2695370Y-789429D01*
D11*
%TO.C,C2*%
X-2714058Y-249000D02*
X-2685942Y-249000D01*
X-2714058Y-351000D02*
X-2685942Y-351000D01*
%TO.C,R3*%
X-2427250Y574528D02*
X-2427250Y625472D01*
X-2322750Y574528D02*
X-2322750Y625472D01*
%TO.C,U2*%
X-2791000Y106000D02*
X-2609000Y106000D01*
X-2791000Y6000D02*
X-2791000Y106000D01*
X-2791000Y-206000D02*
X-2791000Y-106000D01*
X-2609000Y106000D02*
X-2609000Y101000D01*
X-2609000Y-11000D02*
X-2609000Y-89000D01*
X-2609000Y-201000D02*
X-2609000Y-206000D01*
X-2609000Y-206000D02*
X-2791000Y-206000D01*
X-2555000Y-88000D02*
X-2579000Y-55000D01*
X-2531000Y-55000D01*
X-2555000Y-88000D01*
G36*
X-2555000Y-88000D02*
G01*
X-2579000Y-55000D01*
X-2531000Y-55000D01*
X-2555000Y-88000D01*
G37*
%TO.C,C1*%
X-2476000Y-598442D02*
X-2476000Y-626558D01*
X-2374000Y-598442D02*
X-2374000Y-626558D01*
%TO.C,D1*%
X-2785000Y801000D02*
X-2785000Y475000D01*
X-2615000Y801000D02*
X-2785000Y801000D01*
X-2615000Y801000D02*
X-2615000Y475000D01*
%TO.C,C3*%
X-2714058Y251000D02*
X-2685942Y251000D01*
X-2714058Y149000D02*
X-2685942Y149000D01*
%TO.C,SW1*%
X-2260000Y-447500D02*
X-1840000Y-447500D01*
X-2260000Y-486500D02*
X-2260000Y-447500D01*
X-2260000Y-738500D02*
X-2260000Y-777500D01*
X-2260000Y-777500D02*
X-1840000Y-777500D01*
X-1840000Y-447500D02*
X-1840000Y-486500D01*
X-1840000Y-777500D02*
X-1840000Y-738500D01*
%TO.C,R2*%
X-2577250Y574528D02*
X-2577250Y625472D01*
X-2472750Y574528D02*
X-2472750Y625472D01*
%TO.C,RV1*%
X-1742500Y225000D02*
X-1742500Y125000D01*
X-1742500Y125000D02*
X-1692500Y175000D01*
X-1692500Y175000D02*
X-1742500Y225000D01*
X-1662000Y462000D02*
X-1199600Y462000D01*
X-1662000Y292500D02*
X-1662000Y462000D01*
X-1662000Y-96000D02*
X-1662000Y57500D01*
X-1662000Y-462000D02*
X-1662000Y-254000D01*
X-1319600Y-462000D02*
X-1662000Y-462000D01*
X-900000Y150000D02*
X-900000Y-150000D01*
X-900000Y0D02*
X-825000Y-75000D01*
X-900000Y0D02*
X2100000Y0D01*
X-880400Y462000D02*
X2080400Y462000D01*
X-825000Y75000D02*
X-900000Y0D01*
X2025000Y75000D02*
X2100000Y0D01*
X2100000Y150000D02*
X2100000Y-150000D01*
X2100000Y0D02*
X2025000Y-75000D01*
X2200400Y-462000D02*
X-1000400Y-462000D01*
X2399600Y462000D02*
X2862000Y462000D01*
X2862000Y462000D02*
X2862000Y254000D01*
X2862000Y96000D02*
X2862000Y-462000D01*
X2862000Y-462000D02*
X2519600Y-462000D01*
%TO.C,D2*%
X-2780000Y-673500D02*
X-2534000Y-673500D01*
X-2534000Y-526500D02*
X-2780000Y-526500D01*
X-2534000Y-673500D02*
X-2534000Y-526500D01*
%TO.C,R1*%
X-2674528Y402250D02*
X-2725472Y402250D01*
X-2674528Y297750D02*
X-2725472Y297750D01*
%TO.C,R4*%
X-2674528Y-397750D02*
X-2725472Y-397750D01*
X-2674528Y-502250D02*
X-2725472Y-502250D01*
%TO.C,U1*%
X-2476000Y-281000D02*
X-2476000Y181000D01*
X-1799000Y181000D02*
X-1799000Y-281000D01*
X-2406500Y-469000D02*
X-2454500Y-469000D01*
X-2430500Y-436000D01*
X-2406500Y-469000D01*
G36*
X-2406500Y-469000D02*
G01*
X-2454500Y-469000D01*
X-2430500Y-436000D01*
X-2406500Y-469000D01*
G37*
%TD*%
M02*
