%TF.GenerationSoftware,KiCad,Pcbnew,9.0.0*%
%TF.CreationDate,2025-03-25T13:50:56+00:00*%
%TF.ProjectId,vm_rp2040_pogo_mh_0.1,766d5f72-7032-4303-9430-5f706f676f5f,v0.1*%
%TF.SameCoordinates,Original*%
%TF.FileFunction,Legend,Bot*%
%TF.FilePolarity,Positive*%
%FSLAX45Y45*%
G04 Gerber Fmt 4.5, Leading zero omitted, Abs format (unit mm)*
G04 Created by KiCad (PCBNEW 9.0.0) date 2025-03-25 13:50:56*
%MOMM*%
%LPD*%
G01*
G04 APERTURE LIST*
%ADD10C,0.010000*%
G04 APERTURE END LIST*
D10*
%TO.C,MH3*%
X-1273165Y-610291D02*
X-1266828Y-611769D01*
X-1263640Y-612893D01*
X-1259823Y-614671D01*
X-1255701Y-617021D01*
X-1251229Y-619971D01*
X-1246357Y-623550D01*
X-1241630Y-627236D01*
X-1230373Y-636529D01*
X-1219535Y-646208D01*
X-1209192Y-656202D01*
X-1199417Y-666434D01*
X-1190286Y-676832D01*
X-1181874Y-687321D01*
X-1181853Y-687348D01*
X-1179819Y-690182D01*
X-1178377Y-692614D01*
X-1177498Y-694736D01*
X-1177155Y-696642D01*
X-1177320Y-698423D01*
X-1177963Y-700173D01*
X-1178206Y-700630D01*
X-1179425Y-702249D01*
X-1181106Y-703578D01*
X-1183329Y-704659D01*
X-1186175Y-705533D01*
X-1189725Y-706242D01*
X-1194297Y-707101D01*
X-1202716Y-709286D01*
X-1210948Y-712201D01*
X-1218902Y-715809D01*
X-1226491Y-720071D01*
X-1233626Y-724951D01*
X-1236531Y-727212D01*
X-1240638Y-730722D01*
X-1244617Y-734536D01*
X-1248696Y-738866D01*
X-1248758Y-738934D01*
X-1250641Y-740978D01*
X-1252150Y-742501D01*
X-1253407Y-743601D01*
X-1254532Y-744371D01*
X-1255647Y-744908D01*
X-1256872Y-745306D01*
X-1258502Y-745618D01*
X-1260235Y-745586D01*
X-1261954Y-745105D01*
X-1263743Y-744129D01*
X-1265686Y-742611D01*
X-1267867Y-740505D01*
X-1270369Y-737762D01*
X-1273798Y-733914D01*
X-1280177Y-727149D01*
X-1286752Y-720693D01*
X-1293665Y-714416D01*
X-1301058Y-708185D01*
X-1309074Y-701869D01*
X-1309110Y-701842D01*
X-1311269Y-700157D01*
X-1313381Y-698448D01*
X-1315299Y-696840D01*
X-1316874Y-695457D01*
X-1317958Y-694421D01*
X-1319556Y-692677D01*
X-1323239Y-687864D01*
X-1326316Y-682619D01*
X-1328759Y-677032D01*
X-1330536Y-671195D01*
X-1331618Y-665198D01*
X-1331976Y-659133D01*
X-1331578Y-653090D01*
X-1331524Y-652691D01*
X-1330321Y-646848D01*
X-1328400Y-641152D01*
X-1325814Y-635695D01*
X-1322622Y-630570D01*
X-1318880Y-625866D01*
X-1314643Y-621676D01*
X-1309969Y-618091D01*
X-1309159Y-617561D01*
X-1303611Y-614459D01*
X-1297827Y-612104D01*
X-1291848Y-610504D01*
X-1285717Y-609664D01*
X-1279476Y-609591D01*
X-1273165Y-610291D01*
G36*
X-1273165Y-610291D02*
G01*
X-1266828Y-611769D01*
X-1263640Y-612893D01*
X-1259823Y-614671D01*
X-1255701Y-617021D01*
X-1251229Y-619971D01*
X-1246357Y-623550D01*
X-1241630Y-627236D01*
X-1230373Y-636529D01*
X-1219535Y-646208D01*
X-1209192Y-656202D01*
X-1199417Y-666434D01*
X-1190286Y-676832D01*
X-1181874Y-687321D01*
X-1181853Y-687348D01*
X-1179819Y-690182D01*
X-1178377Y-692614D01*
X-1177498Y-694736D01*
X-1177155Y-696642D01*
X-1177320Y-698423D01*
X-1177963Y-700173D01*
X-1178206Y-700630D01*
X-1179425Y-702249D01*
X-1181106Y-703578D01*
X-1183329Y-704659D01*
X-1186175Y-705533D01*
X-1189725Y-706242D01*
X-1194297Y-707101D01*
X-1202716Y-709286D01*
X-1210948Y-712201D01*
X-1218902Y-715809D01*
X-1226491Y-720071D01*
X-1233626Y-724951D01*
X-1236531Y-727212D01*
X-1240638Y-730722D01*
X-1244617Y-734536D01*
X-1248696Y-738866D01*
X-1248758Y-738934D01*
X-1250641Y-740978D01*
X-1252150Y-742501D01*
X-1253407Y-743601D01*
X-1254532Y-744371D01*
X-1255647Y-744908D01*
X-1256872Y-745306D01*
X-1258502Y-745618D01*
X-1260235Y-745586D01*
X-1261954Y-745105D01*
X-1263743Y-744129D01*
X-1265686Y-742611D01*
X-1267867Y-740505D01*
X-1270369Y-737762D01*
X-1273798Y-733914D01*
X-1280177Y-727149D01*
X-1286752Y-720693D01*
X-1293665Y-714416D01*
X-1301058Y-708185D01*
X-1309074Y-701869D01*
X-1309110Y-701842D01*
X-1311269Y-700157D01*
X-1313381Y-698448D01*
X-1315299Y-696840D01*
X-1316874Y-695457D01*
X-1317958Y-694421D01*
X-1319556Y-692677D01*
X-1323239Y-687864D01*
X-1326316Y-682619D01*
X-1328759Y-677032D01*
X-1330536Y-671195D01*
X-1331618Y-665198D01*
X-1331976Y-659133D01*
X-1331578Y-653090D01*
X-1331524Y-652691D01*
X-1330321Y-646848D01*
X-1328400Y-641152D01*
X-1325814Y-635695D01*
X-1322622Y-630570D01*
X-1318880Y-625866D01*
X-1314643Y-621676D01*
X-1309969Y-618091D01*
X-1309159Y-617561D01*
X-1303611Y-614459D01*
X-1297827Y-612104D01*
X-1291848Y-610504D01*
X-1285717Y-609664D01*
X-1279476Y-609591D01*
X-1273165Y-610291D01*
G37*
X-1130097Y-766961D02*
X-1129436Y-767042D01*
X-1128760Y-767174D01*
X-1128024Y-767336D01*
X-1125965Y-767955D01*
X-1123243Y-769406D01*
X-1121025Y-771414D01*
X-1119369Y-773903D01*
X-1118337Y-776797D01*
X-1117988Y-780021D01*
X-1118043Y-780940D01*
X-1118616Y-783439D01*
X-1119722Y-785941D01*
X-1121246Y-788164D01*
X-1121536Y-788471D01*
X-1121981Y-788862D01*
X-1122592Y-789328D01*
X-1123412Y-789893D01*
X-1124479Y-790580D01*
X-1125836Y-791412D01*
X-1127523Y-792414D01*
X-1129580Y-793609D01*
X-1132048Y-795020D01*
X-1134968Y-796671D01*
X-1138381Y-798586D01*
X-1142327Y-800788D01*
X-1146846Y-803301D01*
X-1151981Y-806149D01*
X-1157770Y-809354D01*
X-1159051Y-810063D01*
X-1164878Y-813283D01*
X-1170058Y-816138D01*
X-1174627Y-818648D01*
X-1178623Y-820831D01*
X-1182082Y-822709D01*
X-1185042Y-824299D01*
X-1187540Y-825623D01*
X-1189612Y-826699D01*
X-1191295Y-827548D01*
X-1192627Y-828189D01*
X-1193645Y-828641D01*
X-1194385Y-828924D01*
X-1194884Y-829058D01*
X-1195026Y-829081D01*
X-1196222Y-829209D01*
X-1197390Y-829155D01*
X-1198790Y-828890D01*
X-1200677Y-828385D01*
X-1201958Y-828008D01*
X-1203325Y-827542D01*
X-1204304Y-827070D01*
X-1205123Y-826475D01*
X-1206009Y-825640D01*
X-1207774Y-823448D01*
X-1209091Y-820715D01*
X-1209713Y-817783D01*
X-1209632Y-814766D01*
X-1208838Y-811778D01*
X-1207323Y-808933D01*
X-1207189Y-808744D01*
X-1206925Y-808420D01*
X-1206583Y-808074D01*
X-1206122Y-807681D01*
X-1205501Y-807217D01*
X-1204679Y-806658D01*
X-1203614Y-805981D01*
X-1202265Y-805160D01*
X-1200592Y-804172D01*
X-1198554Y-802993D01*
X-1196109Y-801598D01*
X-1193215Y-799963D01*
X-1189833Y-798064D01*
X-1185921Y-795878D01*
X-1181438Y-793379D01*
X-1176342Y-790544D01*
X-1170594Y-787349D01*
X-1167345Y-785544D01*
X-1161764Y-782443D01*
X-1156812Y-779696D01*
X-1152446Y-777282D01*
X-1148622Y-775182D01*
X-1145298Y-773374D01*
X-1142431Y-771839D01*
X-1139978Y-770556D01*
X-1137896Y-769505D01*
X-1136141Y-768667D01*
X-1134672Y-768021D01*
X-1133445Y-767546D01*
X-1132416Y-767223D01*
X-1131545Y-767031D01*
X-1130786Y-766951D01*
X-1130097Y-766961D01*
G36*
X-1130097Y-766961D02*
G01*
X-1129436Y-767042D01*
X-1128760Y-767174D01*
X-1128024Y-767336D01*
X-1125965Y-767955D01*
X-1123243Y-769406D01*
X-1121025Y-771414D01*
X-1119369Y-773903D01*
X-1118337Y-776797D01*
X-1117988Y-780021D01*
X-1118043Y-780940D01*
X-1118616Y-783439D01*
X-1119722Y-785941D01*
X-1121246Y-788164D01*
X-1121536Y-788471D01*
X-1121981Y-788862D01*
X-1122592Y-789328D01*
X-1123412Y-789893D01*
X-1124479Y-790580D01*
X-1125836Y-791412D01*
X-1127523Y-792414D01*
X-1129580Y-793609D01*
X-1132048Y-795020D01*
X-1134968Y-796671D01*
X-1138381Y-798586D01*
X-1142327Y-800788D01*
X-1146846Y-803301D01*
X-1151981Y-806149D01*
X-1157770Y-809354D01*
X-1159051Y-810063D01*
X-1164878Y-813283D01*
X-1170058Y-816138D01*
X-1174627Y-818648D01*
X-1178623Y-820831D01*
X-1182082Y-822709D01*
X-1185042Y-824299D01*
X-1187540Y-825623D01*
X-1189612Y-826699D01*
X-1191295Y-827548D01*
X-1192627Y-828189D01*
X-1193645Y-828641D01*
X-1194385Y-828924D01*
X-1194884Y-829058D01*
X-1195026Y-829081D01*
X-1196222Y-829209D01*
X-1197390Y-829155D01*
X-1198790Y-828890D01*
X-1200677Y-828385D01*
X-1201958Y-828008D01*
X-1203325Y-827542D01*
X-1204304Y-827070D01*
X-1205123Y-826475D01*
X-1206009Y-825640D01*
X-1207774Y-823448D01*
X-1209091Y-820715D01*
X-1209713Y-817783D01*
X-1209632Y-814766D01*
X-1208838Y-811778D01*
X-1207323Y-808933D01*
X-1207189Y-808744D01*
X-1206925Y-808420D01*
X-1206583Y-808074D01*
X-1206122Y-807681D01*
X-1205501Y-807217D01*
X-1204679Y-806658D01*
X-1203614Y-805981D01*
X-1202265Y-805160D01*
X-1200592Y-804172D01*
X-1198554Y-802993D01*
X-1196109Y-801598D01*
X-1193215Y-799963D01*
X-1189833Y-798064D01*
X-1185921Y-795878D01*
X-1181438Y-793379D01*
X-1176342Y-790544D01*
X-1170594Y-787349D01*
X-1167345Y-785544D01*
X-1161764Y-782443D01*
X-1156812Y-779696D01*
X-1152446Y-777282D01*
X-1148622Y-775182D01*
X-1145298Y-773374D01*
X-1142431Y-771839D01*
X-1139978Y-770556D01*
X-1137896Y-769505D01*
X-1136141Y-768667D01*
X-1134672Y-768021D01*
X-1133445Y-767546D01*
X-1132416Y-767223D01*
X-1131545Y-767031D01*
X-1130786Y-766951D01*
X-1130097Y-766961D01*
G37*
X-1183521Y-753590D02*
X-1181021Y-754163D01*
X-1178519Y-755268D01*
X-1176296Y-756793D01*
X-1175989Y-757083D01*
X-1175598Y-757528D01*
X-1175132Y-758139D01*
X-1174567Y-758958D01*
X-1173880Y-760026D01*
X-1173048Y-761383D01*
X-1172046Y-763070D01*
X-1170852Y-765127D01*
X-1169440Y-767595D01*
X-1167789Y-770515D01*
X-1165874Y-773928D01*
X-1163672Y-777874D01*
X-1161159Y-782393D01*
X-1158312Y-787528D01*
X-1155106Y-793317D01*
X-1154397Y-794598D01*
X-1151177Y-800425D01*
X-1148322Y-805605D01*
X-1145812Y-810174D01*
X-1143629Y-814170D01*
X-1141751Y-817629D01*
X-1140161Y-820589D01*
X-1138837Y-823087D01*
X-1137761Y-825159D01*
X-1136912Y-826842D01*
X-1136271Y-828174D01*
X-1135819Y-829192D01*
X-1135536Y-829932D01*
X-1135402Y-830431D01*
X-1135379Y-830573D01*
X-1135251Y-831768D01*
X-1135305Y-832937D01*
X-1135570Y-834337D01*
X-1136075Y-836224D01*
X-1136452Y-837505D01*
X-1136918Y-838872D01*
X-1137390Y-839851D01*
X-1137985Y-840670D01*
X-1138820Y-841556D01*
X-1141012Y-843321D01*
X-1143745Y-844638D01*
X-1146677Y-845260D01*
X-1149694Y-845179D01*
X-1152682Y-844385D01*
X-1155528Y-842870D01*
X-1155716Y-842736D01*
X-1156040Y-842472D01*
X-1156386Y-842130D01*
X-1156779Y-841669D01*
X-1157243Y-841048D01*
X-1157802Y-840226D01*
X-1158479Y-839161D01*
X-1159300Y-837812D01*
X-1160288Y-836139D01*
X-1161468Y-834101D01*
X-1162863Y-831655D01*
X-1164497Y-828762D01*
X-1166396Y-825380D01*
X-1168582Y-821468D01*
X-1171081Y-816985D01*
X-1173916Y-811889D01*
X-1177111Y-806140D01*
X-1178916Y-802892D01*
X-1182017Y-797311D01*
X-1184764Y-792359D01*
X-1187178Y-787993D01*
X-1189279Y-784169D01*
X-1191086Y-780845D01*
X-1192622Y-777978D01*
X-1193904Y-775525D01*
X-1194955Y-773442D01*
X-1195793Y-771688D01*
X-1196439Y-770219D01*
X-1196914Y-768991D01*
X-1197237Y-767963D01*
X-1197429Y-767091D01*
X-1197509Y-766333D01*
X-1197499Y-765644D01*
X-1197418Y-764983D01*
X-1197286Y-764307D01*
X-1197124Y-763571D01*
X-1196505Y-761512D01*
X-1195054Y-758790D01*
X-1193047Y-756571D01*
X-1190557Y-754916D01*
X-1187663Y-753883D01*
X-1184439Y-753534D01*
X-1183521Y-753590D01*
G36*
X-1183521Y-753590D02*
G01*
X-1181021Y-754163D01*
X-1178519Y-755268D01*
X-1176296Y-756793D01*
X-1175989Y-757083D01*
X-1175598Y-757528D01*
X-1175132Y-758139D01*
X-1174567Y-758958D01*
X-1173880Y-760026D01*
X-1173048Y-761383D01*
X-1172046Y-763070D01*
X-1170852Y-765127D01*
X-1169440Y-767595D01*
X-1167789Y-770515D01*
X-1165874Y-773928D01*
X-1163672Y-777874D01*
X-1161159Y-782393D01*
X-1158312Y-787528D01*
X-1155106Y-793317D01*
X-1154397Y-794598D01*
X-1151177Y-800425D01*
X-1148322Y-805605D01*
X-1145812Y-810174D01*
X-1143629Y-814170D01*
X-1141751Y-817629D01*
X-1140161Y-820589D01*
X-1138837Y-823087D01*
X-1137761Y-825159D01*
X-1136912Y-826842D01*
X-1136271Y-828174D01*
X-1135819Y-829192D01*
X-1135536Y-829932D01*
X-1135402Y-830431D01*
X-1135379Y-830573D01*
X-1135251Y-831768D01*
X-1135305Y-832937D01*
X-1135570Y-834337D01*
X-1136075Y-836224D01*
X-1136452Y-837505D01*
X-1136918Y-838872D01*
X-1137390Y-839851D01*
X-1137985Y-840670D01*
X-1138820Y-841556D01*
X-1141012Y-843321D01*
X-1143745Y-844638D01*
X-1146677Y-845260D01*
X-1149694Y-845179D01*
X-1152682Y-844385D01*
X-1155528Y-842870D01*
X-1155716Y-842736D01*
X-1156040Y-842472D01*
X-1156386Y-842130D01*
X-1156779Y-841669D01*
X-1157243Y-841048D01*
X-1157802Y-840226D01*
X-1158479Y-839161D01*
X-1159300Y-837812D01*
X-1160288Y-836139D01*
X-1161468Y-834101D01*
X-1162863Y-831655D01*
X-1164497Y-828762D01*
X-1166396Y-825380D01*
X-1168582Y-821468D01*
X-1171081Y-816985D01*
X-1173916Y-811889D01*
X-1177111Y-806140D01*
X-1178916Y-802892D01*
X-1182017Y-797311D01*
X-1184764Y-792359D01*
X-1187178Y-787993D01*
X-1189279Y-784169D01*
X-1191086Y-780845D01*
X-1192622Y-777978D01*
X-1193904Y-775525D01*
X-1194955Y-773442D01*
X-1195793Y-771688D01*
X-1196439Y-770219D01*
X-1196914Y-768991D01*
X-1197237Y-767963D01*
X-1197429Y-767091D01*
X-1197509Y-766333D01*
X-1197499Y-765644D01*
X-1197418Y-764983D01*
X-1197286Y-764307D01*
X-1197124Y-763571D01*
X-1196505Y-761512D01*
X-1195054Y-758790D01*
X-1193047Y-756571D01*
X-1190557Y-754916D01*
X-1187663Y-753883D01*
X-1184439Y-753534D01*
X-1183521Y-753590D01*
G37*
X-1076931Y-859775D02*
X-1075200Y-860558D01*
X-1075024Y-860664D01*
X-1073855Y-861568D01*
X-1072793Y-862801D01*
X-1071771Y-864475D01*
X-1070719Y-866700D01*
X-1069566Y-869589D01*
X-1066888Y-877027D01*
X-1063224Y-888339D01*
X-1059870Y-900088D01*
X-1056871Y-912081D01*
X-1054275Y-924127D01*
X-1052128Y-936035D01*
X-1050478Y-947612D01*
X-1050251Y-949484D01*
X-1049724Y-953965D01*
X-1049307Y-957801D01*
X-1048993Y-961092D01*
X-1048777Y-963941D01*
X-1048653Y-966450D01*
X-1048615Y-968719D01*
X-1048659Y-970850D01*
X-1048778Y-972946D01*
X-1048968Y-975106D01*
X-1049086Y-976255D01*
X-1049419Y-979040D01*
X-1049775Y-981285D01*
X-1050188Y-983177D01*
X-1050689Y-984902D01*
X-1050744Y-985068D01*
X-1053094Y-991000D01*
X-1056045Y-996465D01*
X-1059547Y-1001437D01*
X-1063546Y-1005887D01*
X-1067992Y-1009790D01*
X-1072832Y-1013117D01*
X-1078015Y-1015842D01*
X-1083490Y-1017937D01*
X-1089205Y-1019374D01*
X-1095107Y-1020127D01*
X-1101146Y-1020169D01*
X-1107270Y-1019471D01*
X-1113426Y-1018007D01*
X-1118011Y-1016354D01*
X-1123386Y-1013684D01*
X-1128415Y-1010370D01*
X-1133033Y-1006476D01*
X-1137172Y-1002066D01*
X-1140766Y-997206D01*
X-1143748Y-991959D01*
X-1146052Y-986389D01*
X-1146527Y-984948D01*
X-1147091Y-983022D01*
X-1147555Y-981092D01*
X-1147946Y-979000D01*
X-1148293Y-976589D01*
X-1148624Y-973700D01*
X-1148968Y-970177D01*
X-1149272Y-967060D01*
X-1151009Y-953446D01*
X-1153374Y-940263D01*
X-1156379Y-927449D01*
X-1160037Y-914947D01*
X-1160716Y-912620D01*
X-1161220Y-910007D01*
X-1161246Y-907860D01*
X-1160780Y-906068D01*
X-1159805Y-904522D01*
X-1158306Y-903115D01*
X-1157391Y-902462D01*
X-1156275Y-901891D01*
X-1154921Y-901489D01*
X-1153051Y-901152D01*
X-1149682Y-900615D01*
X-1145801Y-899923D01*
X-1142345Y-899206D01*
X-1139106Y-898418D01*
X-1135875Y-897516D01*
X-1129984Y-895571D01*
X-1121908Y-892197D01*
X-1114154Y-888112D01*
X-1106756Y-883338D01*
X-1099745Y-877895D01*
X-1093152Y-871804D01*
X-1087008Y-865086D01*
X-1086630Y-864644D01*
X-1084341Y-862333D01*
X-1082136Y-860723D01*
X-1080062Y-859849D01*
X-1078605Y-859605D01*
X-1076931Y-859775D01*
G36*
X-1076931Y-859775D02*
G01*
X-1075200Y-860558D01*
X-1075024Y-860664D01*
X-1073855Y-861568D01*
X-1072793Y-862801D01*
X-1071771Y-864475D01*
X-1070719Y-866700D01*
X-1069566Y-869589D01*
X-1066888Y-877027D01*
X-1063224Y-888339D01*
X-1059870Y-900088D01*
X-1056871Y-912081D01*
X-1054275Y-924127D01*
X-1052128Y-936035D01*
X-1050478Y-947612D01*
X-1050251Y-949484D01*
X-1049724Y-953965D01*
X-1049307Y-957801D01*
X-1048993Y-961092D01*
X-1048777Y-963941D01*
X-1048653Y-966450D01*
X-1048615Y-968719D01*
X-1048659Y-970850D01*
X-1048778Y-972946D01*
X-1048968Y-975106D01*
X-1049086Y-976255D01*
X-1049419Y-979040D01*
X-1049775Y-981285D01*
X-1050188Y-983177D01*
X-1050689Y-984902D01*
X-1050744Y-985068D01*
X-1053094Y-991000D01*
X-1056045Y-996465D01*
X-1059547Y-1001437D01*
X-1063546Y-1005887D01*
X-1067992Y-1009790D01*
X-1072832Y-1013117D01*
X-1078015Y-1015842D01*
X-1083490Y-1017937D01*
X-1089205Y-1019374D01*
X-1095107Y-1020127D01*
X-1101146Y-1020169D01*
X-1107270Y-1019471D01*
X-1113426Y-1018007D01*
X-1118011Y-1016354D01*
X-1123386Y-1013684D01*
X-1128415Y-1010370D01*
X-1133033Y-1006476D01*
X-1137172Y-1002066D01*
X-1140766Y-997206D01*
X-1143748Y-991959D01*
X-1146052Y-986389D01*
X-1146527Y-984948D01*
X-1147091Y-983022D01*
X-1147555Y-981092D01*
X-1147946Y-979000D01*
X-1148293Y-976589D01*
X-1148624Y-973700D01*
X-1148968Y-970177D01*
X-1149272Y-967060D01*
X-1151009Y-953446D01*
X-1153374Y-940263D01*
X-1156379Y-927449D01*
X-1160037Y-914947D01*
X-1160716Y-912620D01*
X-1161220Y-910007D01*
X-1161246Y-907860D01*
X-1160780Y-906068D01*
X-1159805Y-904522D01*
X-1158306Y-903115D01*
X-1157391Y-902462D01*
X-1156275Y-901891D01*
X-1154921Y-901489D01*
X-1153051Y-901152D01*
X-1149682Y-900615D01*
X-1145801Y-899923D01*
X-1142345Y-899206D01*
X-1139106Y-898418D01*
X-1135875Y-897516D01*
X-1129984Y-895571D01*
X-1121908Y-892197D01*
X-1114154Y-888112D01*
X-1106756Y-883338D01*
X-1099745Y-877895D01*
X-1093152Y-871804D01*
X-1087008Y-865086D01*
X-1086630Y-864644D01*
X-1084341Y-862333D01*
X-1082136Y-860723D01*
X-1080062Y-859849D01*
X-1078605Y-859605D01*
X-1076931Y-859775D01*
G37*
%TO.C,MH1*%
X-1086456Y1034111D02*
X-1080658Y1032739D01*
X-1075140Y1030675D01*
X-1074262Y1030269D01*
X-1068691Y1027208D01*
X-1063629Y1023550D01*
X-1059104Y1019328D01*
X-1055143Y1014573D01*
X-1051773Y1009319D01*
X-1049022Y1003597D01*
X-1046918Y997439D01*
X-1046182Y994140D01*
X-1045666Y989960D01*
X-1045475Y985220D01*
X-1045607Y979864D01*
X-1046060Y973836D01*
X-1046682Y967874D01*
X-1048597Y953403D01*
X-1051063Y939083D01*
X-1054056Y925015D01*
X-1057554Y911303D01*
X-1061533Y898050D01*
X-1065970Y885358D01*
X-1065982Y885325D01*
X-1067308Y882099D01*
X-1068606Y879587D01*
X-1069940Y877717D01*
X-1071375Y876417D01*
X-1072972Y875612D01*
X-1074798Y875230D01*
X-1075313Y875194D01*
X-1077332Y875370D01*
X-1079350Y876091D01*
X-1081445Y877404D01*
X-1083695Y879354D01*
X-1086177Y881989D01*
X-1089329Y885410D01*
X-1095643Y891393D01*
X-1102477Y896829D01*
X-1109752Y901663D01*
X-1117388Y905840D01*
X-1125307Y909305D01*
X-1128764Y910570D01*
X-1133917Y912193D01*
X-1139260Y913546D01*
X-1145093Y914711D01*
X-1145184Y914728D01*
X-1147915Y915242D01*
X-1150007Y915714D01*
X-1151606Y916197D01*
X-1152855Y916743D01*
X-1153901Y917404D01*
X-1154888Y918232D01*
X-1156016Y919449D01*
X-1156907Y920936D01*
X-1157410Y922649D01*
X-1157531Y924683D01*
X-1157273Y927135D01*
X-1156642Y930100D01*
X-1155643Y933675D01*
X-1154196Y938623D01*
X-1151839Y947617D01*
X-1149849Y956614D01*
X-1148189Y965803D01*
X-1146822Y975375D01*
X-1145714Y985520D01*
X-1145710Y985564D01*
X-1145425Y988288D01*
X-1145095Y990985D01*
X-1144748Y993463D01*
X-1144409Y995533D01*
X-1144106Y997001D01*
X-1143473Y999281D01*
X-1141343Y1004954D01*
X-1138526Y1010343D01*
X-1135082Y1015375D01*
X-1131074Y1019976D01*
X-1126562Y1024071D01*
X-1121608Y1027589D01*
X-1116272Y1030453D01*
X-1115905Y1030619D01*
X-1110312Y1032696D01*
X-1104464Y1034084D01*
X-1098466Y1034783D01*
X-1092428Y1034792D01*
X-1086456Y1034111D01*
G36*
X-1086456Y1034111D02*
G01*
X-1080658Y1032739D01*
X-1075140Y1030675D01*
X-1074262Y1030269D01*
X-1068691Y1027208D01*
X-1063629Y1023550D01*
X-1059104Y1019328D01*
X-1055143Y1014573D01*
X-1051773Y1009319D01*
X-1049022Y1003597D01*
X-1046918Y997439D01*
X-1046182Y994140D01*
X-1045666Y989960D01*
X-1045475Y985220D01*
X-1045607Y979864D01*
X-1046060Y973836D01*
X-1046682Y967874D01*
X-1048597Y953403D01*
X-1051063Y939083D01*
X-1054056Y925015D01*
X-1057554Y911303D01*
X-1061533Y898050D01*
X-1065970Y885358D01*
X-1065982Y885325D01*
X-1067308Y882099D01*
X-1068606Y879587D01*
X-1069940Y877717D01*
X-1071375Y876417D01*
X-1072972Y875612D01*
X-1074798Y875230D01*
X-1075313Y875194D01*
X-1077332Y875370D01*
X-1079350Y876091D01*
X-1081445Y877404D01*
X-1083695Y879354D01*
X-1086177Y881989D01*
X-1089329Y885410D01*
X-1095643Y891393D01*
X-1102477Y896829D01*
X-1109752Y901663D01*
X-1117388Y905840D01*
X-1125307Y909305D01*
X-1128764Y910570D01*
X-1133917Y912193D01*
X-1139260Y913546D01*
X-1145093Y914711D01*
X-1145184Y914728D01*
X-1147915Y915242D01*
X-1150007Y915714D01*
X-1151606Y916197D01*
X-1152855Y916743D01*
X-1153901Y917404D01*
X-1154888Y918232D01*
X-1156016Y919449D01*
X-1156907Y920936D01*
X-1157410Y922649D01*
X-1157531Y924683D01*
X-1157273Y927135D01*
X-1156642Y930100D01*
X-1155643Y933675D01*
X-1154196Y938623D01*
X-1151839Y947617D01*
X-1149849Y956614D01*
X-1148189Y965803D01*
X-1146822Y975375D01*
X-1145714Y985520D01*
X-1145710Y985564D01*
X-1145425Y988288D01*
X-1145095Y990985D01*
X-1144748Y993463D01*
X-1144409Y995533D01*
X-1144106Y997001D01*
X-1143473Y999281D01*
X-1141343Y1004954D01*
X-1138526Y1010343D01*
X-1135082Y1015375D01*
X-1131074Y1019976D01*
X-1126562Y1024071D01*
X-1121608Y1027589D01*
X-1116272Y1030453D01*
X-1115905Y1030619D01*
X-1110312Y1032696D01*
X-1104464Y1034084D01*
X-1098466Y1034783D01*
X-1092428Y1034792D01*
X-1086456Y1034111D01*
G37*
X-1260034Y747086D02*
X-1258046Y746561D01*
X-1257007Y746131D01*
X-1255932Y745487D01*
X-1254873Y744551D01*
X-1253596Y743144D01*
X-1251356Y740572D01*
X-1248712Y737647D01*
X-1246272Y735097D01*
X-1243888Y732767D01*
X-1241411Y730505D01*
X-1236639Y726540D01*
X-1229498Y721479D01*
X-1221926Y717068D01*
X-1213957Y713324D01*
X-1205625Y710263D01*
X-1196966Y707899D01*
X-1188013Y706249D01*
X-1187438Y706163D01*
X-1184265Y705446D01*
X-1181731Y704430D01*
X-1179891Y703134D01*
X-1178912Y702027D01*
X-1178169Y700517D01*
X-1177916Y698635D01*
X-1177913Y698430D01*
X-1178060Y696958D01*
X-1178543Y695405D01*
X-1179420Y693652D01*
X-1180750Y691580D01*
X-1182589Y689071D01*
X-1187477Y682858D01*
X-1195129Y673757D01*
X-1203315Y664686D01*
X-1211897Y655788D01*
X-1220737Y647203D01*
X-1229698Y639072D01*
X-1238641Y631538D01*
X-1240109Y630353D01*
X-1243630Y627532D01*
X-1246661Y625145D01*
X-1249286Y623135D01*
X-1251588Y621442D01*
X-1253649Y620007D01*
X-1255554Y618773D01*
X-1257384Y617681D01*
X-1259225Y616672D01*
X-1261157Y615687D01*
X-1262194Y615179D01*
X-1264733Y613985D01*
X-1266825Y613098D01*
X-1268648Y612445D01*
X-1270377Y611956D01*
X-1270546Y611914D01*
X-1276822Y610764D01*
X-1283021Y610371D01*
X-1289092Y610706D01*
X-1294986Y611739D01*
X-1300652Y613441D01*
X-1306038Y615783D01*
X-1311096Y618734D01*
X-1315774Y622267D01*
X-1320021Y626352D01*
X-1323788Y630958D01*
X-1327023Y636058D01*
X-1329676Y641621D01*
X-1331697Y647617D01*
X-1332725Y652381D01*
X-1333309Y658354D01*
X-1333163Y664376D01*
X-1332308Y670355D01*
X-1330762Y676202D01*
X-1328544Y681825D01*
X-1325675Y687135D01*
X-1322173Y692041D01*
X-1321202Y693207D01*
X-1319868Y694706D01*
X-1318477Y696122D01*
X-1316910Y697562D01*
X-1315049Y699134D01*
X-1312775Y700946D01*
X-1309969Y703104D01*
X-1307487Y705014D01*
X-1296862Y713701D01*
X-1286935Y722693D01*
X-1277661Y732031D01*
X-1268996Y741759D01*
X-1267383Y743568D01*
X-1265435Y745379D01*
X-1263628Y746540D01*
X-1261861Y747094D01*
X-1260034Y747086D01*
G36*
X-1260034Y747086D02*
G01*
X-1258046Y746561D01*
X-1257007Y746131D01*
X-1255932Y745487D01*
X-1254873Y744551D01*
X-1253596Y743144D01*
X-1251356Y740572D01*
X-1248712Y737647D01*
X-1246272Y735097D01*
X-1243888Y732767D01*
X-1241411Y730505D01*
X-1236639Y726540D01*
X-1229498Y721479D01*
X-1221926Y717068D01*
X-1213957Y713324D01*
X-1205625Y710263D01*
X-1196966Y707899D01*
X-1188013Y706249D01*
X-1187438Y706163D01*
X-1184265Y705446D01*
X-1181731Y704430D01*
X-1179891Y703134D01*
X-1178912Y702027D01*
X-1178169Y700517D01*
X-1177916Y698635D01*
X-1177913Y698430D01*
X-1178060Y696958D01*
X-1178543Y695405D01*
X-1179420Y693652D01*
X-1180750Y691580D01*
X-1182589Y689071D01*
X-1187477Y682858D01*
X-1195129Y673757D01*
X-1203315Y664686D01*
X-1211897Y655788D01*
X-1220737Y647203D01*
X-1229698Y639072D01*
X-1238641Y631538D01*
X-1240109Y630353D01*
X-1243630Y627532D01*
X-1246661Y625145D01*
X-1249286Y623135D01*
X-1251588Y621442D01*
X-1253649Y620007D01*
X-1255554Y618773D01*
X-1257384Y617681D01*
X-1259225Y616672D01*
X-1261157Y615687D01*
X-1262194Y615179D01*
X-1264733Y613985D01*
X-1266825Y613098D01*
X-1268648Y612445D01*
X-1270377Y611956D01*
X-1270546Y611914D01*
X-1276822Y610764D01*
X-1283021Y610371D01*
X-1289092Y610706D01*
X-1294986Y611739D01*
X-1300652Y613441D01*
X-1306038Y615783D01*
X-1311096Y618734D01*
X-1315774Y622267D01*
X-1320021Y626352D01*
X-1323788Y630958D01*
X-1327023Y636058D01*
X-1329676Y641621D01*
X-1331697Y647617D01*
X-1332725Y652381D01*
X-1333309Y658354D01*
X-1333163Y664376D01*
X-1332308Y670355D01*
X-1330762Y676202D01*
X-1328544Y681825D01*
X-1325675Y687135D01*
X-1322173Y692041D01*
X-1321202Y693207D01*
X-1319868Y694706D01*
X-1318477Y696122D01*
X-1316910Y697562D01*
X-1315049Y699134D01*
X-1312775Y700946D01*
X-1309969Y703104D01*
X-1307487Y705014D01*
X-1296862Y713701D01*
X-1286935Y722693D01*
X-1277661Y732031D01*
X-1268996Y741759D01*
X-1267383Y743568D01*
X-1265435Y745379D01*
X-1263628Y746540D01*
X-1261861Y747094D01*
X-1260034Y747086D01*
G37*
X-1133651Y873750D02*
X-1132989Y873596D01*
X-1132295Y873383D01*
X-1131665Y873168D01*
X-1130723Y872777D01*
X-1129864Y872280D01*
X-1129029Y871606D01*
X-1128159Y870679D01*
X-1127194Y869429D01*
X-1126076Y867780D01*
X-1124744Y865660D01*
X-1123139Y862996D01*
X-1121202Y859715D01*
X-1119434Y856708D01*
X-1117438Y853317D01*
X-1115405Y849867D01*
X-1113444Y846544D01*
X-1111666Y843534D01*
X-1110179Y841022D01*
X-1108641Y838399D01*
X-1107239Y835911D01*
X-1106198Y833895D01*
X-1105478Y832248D01*
X-1105040Y830865D01*
X-1104846Y829644D01*
X-1104856Y828481D01*
X-1105033Y827272D01*
X-1105426Y825825D01*
X-1106621Y823472D01*
X-1108328Y821558D01*
X-1110424Y820138D01*
X-1112788Y819264D01*
X-1115300Y818992D01*
X-1117837Y819375D01*
X-1120279Y820467D01*
X-1120675Y820718D01*
X-1121378Y821203D01*
X-1122012Y821740D01*
X-1122642Y822420D01*
X-1123335Y823333D01*
X-1124157Y824572D01*
X-1125175Y826226D01*
X-1126455Y828387D01*
X-1128064Y831146D01*
X-1128565Y832006D01*
X-1129810Y834122D01*
X-1130910Y835962D01*
X-1131803Y837424D01*
X-1132425Y838403D01*
X-1132713Y838797D01*
X-1132891Y838636D01*
X-1133337Y837861D01*
X-1133977Y836554D01*
X-1134758Y834830D01*
X-1135622Y832802D01*
X-1138670Y825699D01*
X-1145378Y811547D01*
X-1152753Y797824D01*
X-1160794Y784534D01*
X-1169501Y771675D01*
X-1170236Y770642D01*
X-1171351Y769049D01*
X-1172228Y767767D01*
X-1172791Y766905D01*
X-1172963Y766576D01*
X-1172930Y766572D01*
X-1172338Y766581D01*
X-1171103Y766630D01*
X-1169344Y766713D01*
X-1167181Y766823D01*
X-1164734Y766957D01*
X-1164319Y766980D01*
X-1161803Y767108D01*
X-1159505Y767207D01*
X-1157571Y767271D01*
X-1156142Y767296D01*
X-1155363Y767277D01*
X-1154348Y767069D01*
X-1152487Y766338D01*
X-1150645Y765267D01*
X-1149143Y764025D01*
X-1148603Y763366D01*
X-1147594Y761519D01*
X-1146868Y759338D01*
X-1146513Y757126D01*
X-1146614Y755187D01*
X-1147359Y753046D01*
X-1148647Y750916D01*
X-1150250Y749228D01*
X-1150404Y749107D01*
X-1151055Y748663D01*
X-1151805Y748280D01*
X-1152727Y747946D01*
X-1153887Y747654D01*
X-1155356Y747393D01*
X-1157203Y747156D01*
X-1159497Y746931D01*
X-1162307Y746711D01*
X-1165702Y746486D01*
X-1169752Y746246D01*
X-1174526Y745983D01*
X-1178015Y745791D01*
X-1181616Y745584D01*
X-1184921Y745386D01*
X-1187848Y745200D01*
X-1190314Y745033D01*
X-1192236Y744891D01*
X-1193532Y744778D01*
X-1194117Y744701D01*
X-1194687Y744605D01*
X-1196223Y744666D01*
X-1198012Y745016D01*
X-1199756Y745590D01*
X-1201162Y746318D01*
X-1201510Y746558D01*
X-1202185Y747050D01*
X-1202772Y747559D01*
X-1203298Y748155D01*
X-1203789Y748905D01*
X-1204268Y749878D01*
X-1204763Y751142D01*
X-1205298Y752766D01*
X-1205899Y754818D01*
X-1206591Y757367D01*
X-1207399Y760480D01*
X-1208350Y764226D01*
X-1209467Y768674D01*
X-1209895Y770379D01*
X-1211001Y774795D01*
X-1211931Y778529D01*
X-1212699Y781648D01*
X-1213320Y784215D01*
X-1213808Y786298D01*
X-1214177Y787961D01*
X-1214441Y789270D01*
X-1214614Y790289D01*
X-1214710Y791085D01*
X-1214744Y791722D01*
X-1214730Y792267D01*
X-1214681Y792784D01*
X-1214436Y794031D01*
X-1213424Y796384D01*
X-1211823Y798460D01*
X-1209768Y800106D01*
X-1207396Y801164D01*
X-1206389Y801392D01*
X-1203708Y801478D01*
X-1201072Y800877D01*
X-1198666Y799648D01*
X-1196676Y797847D01*
X-1196426Y797527D01*
X-1195987Y796824D01*
X-1195566Y795895D01*
X-1195109Y794603D01*
X-1194568Y792813D01*
X-1193890Y790388D01*
X-1193666Y789561D01*
X-1193011Y787077D01*
X-1192387Y784621D01*
X-1191855Y782438D01*
X-1191478Y780773D01*
X-1190741Y777284D01*
X-1189581Y778815D01*
X-1186405Y783118D01*
X-1180519Y791685D01*
X-1174763Y800817D01*
X-1169224Y810364D01*
X-1163984Y820178D01*
X-1159131Y830110D01*
X-1154747Y840009D01*
X-1154556Y840465D01*
X-1153544Y842882D01*
X-1152824Y844657D01*
X-1152391Y845872D01*
X-1152240Y846609D01*
X-1152367Y846947D01*
X-1152766Y846970D01*
X-1153432Y846756D01*
X-1154360Y846389D01*
X-1155155Y846090D01*
X-1156764Y845516D01*
X-1158815Y844807D01*
X-1161126Y844025D01*
X-1163515Y843234D01*
X-1163546Y843223D01*
X-1165977Y842432D01*
X-1167797Y841863D01*
X-1169142Y841485D01*
X-1170154Y841269D01*
X-1170971Y841186D01*
X-1171731Y841205D01*
X-1172575Y841298D01*
X-1172711Y841316D01*
X-1174817Y841874D01*
X-1176756Y842814D01*
X-1176813Y842851D01*
X-1178778Y844553D01*
X-1180183Y846648D01*
X-1181029Y849001D01*
X-1181314Y851475D01*
X-1181037Y853934D01*
X-1180199Y856243D01*
X-1178798Y858265D01*
X-1176834Y859864D01*
X-1176749Y859909D01*
X-1175954Y860246D01*
X-1174502Y860803D01*
X-1172472Y861554D01*
X-1169940Y862470D01*
X-1166982Y863524D01*
X-1163676Y864687D01*
X-1160098Y865934D01*
X-1156325Y867235D01*
X-1153318Y868267D01*
X-1149278Y869648D01*
X-1145878Y870797D01*
X-1143050Y871734D01*
X-1140727Y872474D01*
X-1138843Y873035D01*
X-1137331Y873433D01*
X-1136122Y873687D01*
X-1135151Y873813D01*
X-1134349Y873828D01*
X-1133651Y873750D01*
G36*
X-1133651Y873750D02*
G01*
X-1132989Y873596D01*
X-1132295Y873383D01*
X-1131665Y873168D01*
X-1130723Y872777D01*
X-1129864Y872280D01*
X-1129029Y871606D01*
X-1128159Y870679D01*
X-1127194Y869429D01*
X-1126076Y867780D01*
X-1124744Y865660D01*
X-1123139Y862996D01*
X-1121202Y859715D01*
X-1119434Y856708D01*
X-1117438Y853317D01*
X-1115405Y849867D01*
X-1113444Y846544D01*
X-1111666Y843534D01*
X-1110179Y841022D01*
X-1108641Y838399D01*
X-1107239Y835911D01*
X-1106198Y833895D01*
X-1105478Y832248D01*
X-1105040Y830865D01*
X-1104846Y829644D01*
X-1104856Y828481D01*
X-1105033Y827272D01*
X-1105426Y825825D01*
X-1106621Y823472D01*
X-1108328Y821558D01*
X-1110424Y820138D01*
X-1112788Y819264D01*
X-1115300Y818992D01*
X-1117837Y819375D01*
X-1120279Y820467D01*
X-1120675Y820718D01*
X-1121378Y821203D01*
X-1122012Y821740D01*
X-1122642Y822420D01*
X-1123335Y823333D01*
X-1124157Y824572D01*
X-1125175Y826226D01*
X-1126455Y828387D01*
X-1128064Y831146D01*
X-1128565Y832006D01*
X-1129810Y834122D01*
X-1130910Y835962D01*
X-1131803Y837424D01*
X-1132425Y838403D01*
X-1132713Y838797D01*
X-1132891Y838636D01*
X-1133337Y837861D01*
X-1133977Y836554D01*
X-1134758Y834830D01*
X-1135622Y832802D01*
X-1138670Y825699D01*
X-1145378Y811547D01*
X-1152753Y797824D01*
X-1160794Y784534D01*
X-1169501Y771675D01*
X-1170236Y770642D01*
X-1171351Y769049D01*
X-1172228Y767767D01*
X-1172791Y766905D01*
X-1172963Y766576D01*
X-1172930Y766572D01*
X-1172338Y766581D01*
X-1171103Y766630D01*
X-1169344Y766713D01*
X-1167181Y766823D01*
X-1164734Y766957D01*
X-1164319Y766980D01*
X-1161803Y767108D01*
X-1159505Y767207D01*
X-1157571Y767271D01*
X-1156142Y767296D01*
X-1155363Y767277D01*
X-1154348Y767069D01*
X-1152487Y766338D01*
X-1150645Y765267D01*
X-1149143Y764025D01*
X-1148603Y763366D01*
X-1147594Y761519D01*
X-1146868Y759338D01*
X-1146513Y757126D01*
X-1146614Y755187D01*
X-1147359Y753046D01*
X-1148647Y750916D01*
X-1150250Y749228D01*
X-1150404Y749107D01*
X-1151055Y748663D01*
X-1151805Y748280D01*
X-1152727Y747946D01*
X-1153887Y747654D01*
X-1155356Y747393D01*
X-1157203Y747156D01*
X-1159497Y746931D01*
X-1162307Y746711D01*
X-1165702Y746486D01*
X-1169752Y746246D01*
X-1174526Y745983D01*
X-1178015Y745791D01*
X-1181616Y745584D01*
X-1184921Y745386D01*
X-1187848Y745200D01*
X-1190314Y745033D01*
X-1192236Y744891D01*
X-1193532Y744778D01*
X-1194117Y744701D01*
X-1194687Y744605D01*
X-1196223Y744666D01*
X-1198012Y745016D01*
X-1199756Y745590D01*
X-1201162Y746318D01*
X-1201510Y746558D01*
X-1202185Y747050D01*
X-1202772Y747559D01*
X-1203298Y748155D01*
X-1203789Y748905D01*
X-1204268Y749878D01*
X-1204763Y751142D01*
X-1205298Y752766D01*
X-1205899Y754818D01*
X-1206591Y757367D01*
X-1207399Y760480D01*
X-1208350Y764226D01*
X-1209467Y768674D01*
X-1209895Y770379D01*
X-1211001Y774795D01*
X-1211931Y778529D01*
X-1212699Y781648D01*
X-1213320Y784215D01*
X-1213808Y786298D01*
X-1214177Y787961D01*
X-1214441Y789270D01*
X-1214614Y790289D01*
X-1214710Y791085D01*
X-1214744Y791722D01*
X-1214730Y792267D01*
X-1214681Y792784D01*
X-1214436Y794031D01*
X-1213424Y796384D01*
X-1211823Y798460D01*
X-1209768Y800106D01*
X-1207396Y801164D01*
X-1206389Y801392D01*
X-1203708Y801478D01*
X-1201072Y800877D01*
X-1198666Y799648D01*
X-1196676Y797847D01*
X-1196426Y797527D01*
X-1195987Y796824D01*
X-1195566Y795895D01*
X-1195109Y794603D01*
X-1194568Y792813D01*
X-1193890Y790388D01*
X-1193666Y789561D01*
X-1193011Y787077D01*
X-1192387Y784621D01*
X-1191855Y782438D01*
X-1191478Y780773D01*
X-1190741Y777284D01*
X-1189581Y778815D01*
X-1186405Y783118D01*
X-1180519Y791685D01*
X-1174763Y800817D01*
X-1169224Y810364D01*
X-1163984Y820178D01*
X-1159131Y830110D01*
X-1154747Y840009D01*
X-1154556Y840465D01*
X-1153544Y842882D01*
X-1152824Y844657D01*
X-1152391Y845872D01*
X-1152240Y846609D01*
X-1152367Y846947D01*
X-1152766Y846970D01*
X-1153432Y846756D01*
X-1154360Y846389D01*
X-1155155Y846090D01*
X-1156764Y845516D01*
X-1158815Y844807D01*
X-1161126Y844025D01*
X-1163515Y843234D01*
X-1163546Y843223D01*
X-1165977Y842432D01*
X-1167797Y841863D01*
X-1169142Y841485D01*
X-1170154Y841269D01*
X-1170971Y841186D01*
X-1171731Y841205D01*
X-1172575Y841298D01*
X-1172711Y841316D01*
X-1174817Y841874D01*
X-1176756Y842814D01*
X-1176813Y842851D01*
X-1178778Y844553D01*
X-1180183Y846648D01*
X-1181029Y849001D01*
X-1181314Y851475D01*
X-1181037Y853934D01*
X-1180199Y856243D01*
X-1178798Y858265D01*
X-1176834Y859864D01*
X-1176749Y859909D01*
X-1175954Y860246D01*
X-1174502Y860803D01*
X-1172472Y861554D01*
X-1169940Y862470D01*
X-1166982Y863524D01*
X-1163676Y864687D01*
X-1160098Y865934D01*
X-1156325Y867235D01*
X-1153318Y868267D01*
X-1149278Y869648D01*
X-1145878Y870797D01*
X-1143050Y871734D01*
X-1140727Y872474D01*
X-1138843Y873035D01*
X-1137331Y873433D01*
X-1136122Y873687D01*
X-1135151Y873813D01*
X-1134349Y873828D01*
X-1133651Y873750D01*
G37*
%TO.C,MH2*%
X1662754Y679488D02*
X1668752Y678388D01*
X1674585Y676598D01*
X1680162Y674141D01*
X1685390Y671046D01*
X1690177Y667337D01*
X1690478Y667069D01*
X1694650Y662805D01*
X1698297Y658026D01*
X1701375Y652832D01*
X1703840Y647319D01*
X1705646Y641586D01*
X1706751Y635731D01*
X1707110Y629851D01*
X1707096Y628884D01*
X1706565Y622549D01*
X1705283Y616438D01*
X1703266Y610586D01*
X1700534Y605034D01*
X1697104Y599818D01*
X1692996Y594978D01*
X1688227Y590551D01*
X1685512Y588536D01*
X1681904Y586365D01*
X1677651Y584263D01*
X1672703Y582205D01*
X1667012Y580167D01*
X1661313Y578310D01*
X1647315Y574174D01*
X1633229Y570601D01*
X1619160Y567614D01*
X1605211Y565232D01*
X1591485Y563477D01*
X1578086Y562368D01*
X1578051Y562366D01*
X1574564Y562265D01*
X1571742Y562429D01*
X1569491Y562887D01*
X1567719Y563669D01*
X1566334Y564801D01*
X1565243Y566313D01*
X1565001Y566770D01*
X1564340Y568686D01*
X1564178Y570823D01*
X1564525Y573270D01*
X1565392Y576119D01*
X1566789Y579458D01*
X1568633Y583729D01*
X1571530Y591931D01*
X1573716Y600385D01*
X1575173Y608997D01*
X1575884Y617672D01*
X1575828Y626315D01*
X1575577Y629988D01*
X1574964Y635355D01*
X1574027Y640788D01*
X1572719Y646590D01*
X1572697Y646680D01*
X1572056Y649384D01*
X1571637Y651487D01*
X1571428Y653144D01*
X1571418Y654507D01*
X1571597Y655732D01*
X1571952Y656970D01*
X1572604Y658496D01*
X1573600Y659914D01*
X1574960Y661071D01*
X1576770Y662008D01*
X1579115Y662770D01*
X1582080Y663400D01*
X1585753Y663941D01*
X1590861Y664632D01*
X1600036Y666137D01*
X1609065Y667978D01*
X1618135Y670199D01*
X1627435Y672844D01*
X1637153Y675958D01*
X1637196Y675972D01*
X1639800Y676820D01*
X1642398Y677615D01*
X1644803Y678306D01*
X1646831Y678838D01*
X1648296Y679158D01*
X1650636Y679508D01*
X1656685Y679869D01*
X1662754Y679488D01*
G36*
X1662754Y679488D02*
G01*
X1668752Y678388D01*
X1674585Y676598D01*
X1680162Y674141D01*
X1685390Y671046D01*
X1690177Y667337D01*
X1690478Y667069D01*
X1694650Y662805D01*
X1698297Y658026D01*
X1701375Y652832D01*
X1703840Y647319D01*
X1705646Y641586D01*
X1706751Y635731D01*
X1707110Y629851D01*
X1707096Y628884D01*
X1706565Y622549D01*
X1705283Y616438D01*
X1703266Y610586D01*
X1700534Y605034D01*
X1697104Y599818D01*
X1692996Y594978D01*
X1688227Y590551D01*
X1685512Y588536D01*
X1681904Y586365D01*
X1677651Y584263D01*
X1672703Y582205D01*
X1667012Y580167D01*
X1661313Y578310D01*
X1647315Y574174D01*
X1633229Y570601D01*
X1619160Y567614D01*
X1605211Y565232D01*
X1591485Y563477D01*
X1578086Y562368D01*
X1578051Y562366D01*
X1574564Y562265D01*
X1571742Y562429D01*
X1569491Y562887D01*
X1567719Y563669D01*
X1566334Y564801D01*
X1565243Y566313D01*
X1565001Y566770D01*
X1564340Y568686D01*
X1564178Y570823D01*
X1564525Y573270D01*
X1565392Y576119D01*
X1566789Y579458D01*
X1568633Y583729D01*
X1571530Y591931D01*
X1573716Y600385D01*
X1575173Y608997D01*
X1575884Y617672D01*
X1575828Y626315D01*
X1575577Y629988D01*
X1574964Y635355D01*
X1574027Y640788D01*
X1572719Y646590D01*
X1572697Y646680D01*
X1572056Y649384D01*
X1571637Y651487D01*
X1571428Y653144D01*
X1571418Y654507D01*
X1571597Y655732D01*
X1571952Y656970D01*
X1572604Y658496D01*
X1573600Y659914D01*
X1574960Y661071D01*
X1576770Y662008D01*
X1579115Y662770D01*
X1582080Y663400D01*
X1585753Y663941D01*
X1590861Y664632D01*
X1600036Y666137D01*
X1609065Y667978D01*
X1618135Y670199D01*
X1627435Y672844D01*
X1637153Y675958D01*
X1637196Y675972D01*
X1639800Y676820D01*
X1642398Y677615D01*
X1644803Y678306D01*
X1646831Y678838D01*
X1648296Y679158D01*
X1650636Y679508D01*
X1656685Y679869D01*
X1662754Y679488D01*
G37*
X1306253Y701543D02*
X1312159Y700339D01*
X1313619Y699926D01*
X1315531Y699317D01*
X1317390Y698623D01*
X1319343Y697777D01*
X1321536Y696717D01*
X1324116Y695376D01*
X1327229Y693690D01*
X1329984Y692200D01*
X1342241Y686027D01*
X1354493Y680615D01*
X1366796Y675941D01*
X1379207Y671982D01*
X1381516Y671245D01*
X1383963Y670201D01*
X1385759Y669022D01*
X1386984Y667634D01*
X1387720Y665961D01*
X1388048Y663932D01*
X1388078Y662807D01*
X1387927Y661563D01*
X1387503Y660216D01*
X1386737Y658477D01*
X1385298Y655384D01*
X1383701Y651780D01*
X1382363Y648513D01*
X1381205Y645387D01*
X1380146Y642204D01*
X1378465Y636233D01*
X1376746Y627650D01*
X1375796Y618939D01*
X1375618Y610136D01*
X1376210Y601279D01*
X1377572Y592407D01*
X1379706Y583557D01*
X1379861Y582997D01*
X1380497Y579807D01*
X1380599Y577078D01*
X1380164Y574871D01*
X1379551Y573526D01*
X1378474Y572233D01*
X1376857Y571236D01*
X1376671Y571150D01*
X1375267Y570686D01*
X1373651Y570495D01*
X1371693Y570584D01*
X1369259Y570955D01*
X1366220Y571615D01*
X1358556Y573554D01*
X1347129Y576843D01*
X1335513Y580631D01*
X1323893Y584852D01*
X1312454Y589436D01*
X1301382Y594315D01*
X1290862Y599420D01*
X1289182Y600279D01*
X1285173Y602348D01*
X1281760Y604147D01*
X1278855Y605727D01*
X1276373Y607141D01*
X1274224Y608441D01*
X1272322Y609679D01*
X1270579Y610907D01*
X1268909Y612178D01*
X1267223Y613543D01*
X1266337Y614283D01*
X1264214Y616117D01*
X1262553Y617668D01*
X1261215Y619067D01*
X1260065Y620448D01*
X1259958Y620586D01*
X1256354Y625851D01*
X1253474Y631354D01*
X1251310Y637037D01*
X1249857Y642841D01*
X1249107Y648709D01*
X1249056Y654583D01*
X1249695Y660404D01*
X1251020Y666114D01*
X1253024Y671655D01*
X1255700Y676970D01*
X1259043Y682000D01*
X1263045Y686686D01*
X1267702Y690972D01*
X1271636Y693848D01*
X1276855Y696811D01*
X1282415Y699127D01*
X1288225Y700778D01*
X1294195Y701743D01*
X1300235Y702005D01*
X1306253Y701543D01*
G36*
X1306253Y701543D02*
G01*
X1312159Y700339D01*
X1313619Y699926D01*
X1315531Y699317D01*
X1317390Y698623D01*
X1319343Y697777D01*
X1321536Y696717D01*
X1324116Y695376D01*
X1327229Y693690D01*
X1329984Y692200D01*
X1342241Y686027D01*
X1354493Y680615D01*
X1366796Y675941D01*
X1379207Y671982D01*
X1381516Y671245D01*
X1383963Y670201D01*
X1385759Y669022D01*
X1386984Y667634D01*
X1387720Y665961D01*
X1388048Y663932D01*
X1388078Y662807D01*
X1387927Y661563D01*
X1387503Y660216D01*
X1386737Y658477D01*
X1385298Y655384D01*
X1383701Y651780D01*
X1382363Y648513D01*
X1381205Y645387D01*
X1380146Y642204D01*
X1378465Y636233D01*
X1376746Y627650D01*
X1375796Y618939D01*
X1375618Y610136D01*
X1376210Y601279D01*
X1377572Y592407D01*
X1379706Y583557D01*
X1379861Y582997D01*
X1380497Y579807D01*
X1380599Y577078D01*
X1380164Y574871D01*
X1379551Y573526D01*
X1378474Y572233D01*
X1376857Y571236D01*
X1376671Y571150D01*
X1375267Y570686D01*
X1373651Y570495D01*
X1371693Y570584D01*
X1369259Y570955D01*
X1366220Y571615D01*
X1358556Y573554D01*
X1347129Y576843D01*
X1335513Y580631D01*
X1323893Y584852D01*
X1312454Y589436D01*
X1301382Y594315D01*
X1290862Y599420D01*
X1289182Y600279D01*
X1285173Y602348D01*
X1281760Y604147D01*
X1278855Y605727D01*
X1276373Y607141D01*
X1274224Y608441D01*
X1272322Y609679D01*
X1270579Y610907D01*
X1268909Y612178D01*
X1267223Y613543D01*
X1266337Y614283D01*
X1264214Y616117D01*
X1262553Y617668D01*
X1261215Y619067D01*
X1260065Y620448D01*
X1259958Y620586D01*
X1256354Y625851D01*
X1253474Y631354D01*
X1251310Y637037D01*
X1249857Y642841D01*
X1249107Y648709D01*
X1249056Y654583D01*
X1249695Y660404D01*
X1251020Y666114D01*
X1253024Y671655D01*
X1255700Y676970D01*
X1259043Y682000D01*
X1263045Y686686D01*
X1267702Y690972D01*
X1271636Y693848D01*
X1276855Y696811D01*
X1282415Y699127D01*
X1288225Y700778D01*
X1294195Y701743D01*
X1300235Y702005D01*
X1306253Y701543D01*
G37*
X1438518Y629553D02*
X1440095Y629480D01*
X1442034Y629363D01*
X1444384Y629201D01*
X1447191Y628990D01*
X1450504Y628727D01*
X1454370Y628410D01*
X1458836Y628035D01*
X1463950Y627600D01*
X1469759Y627100D01*
X1476312Y626535D01*
X1480015Y626215D01*
X1486375Y625665D01*
X1492017Y625173D01*
X1496986Y624733D01*
X1501331Y624336D01*
X1505098Y623976D01*
X1508333Y623645D01*
X1511084Y623337D01*
X1513398Y623043D01*
X1515321Y622757D01*
X1516901Y622471D01*
X1518183Y622179D01*
X1519216Y621872D01*
X1520046Y621543D01*
X1520721Y621186D01*
X1521286Y620792D01*
X1521788Y620355D01*
X1522276Y619867D01*
X1522794Y619322D01*
X1524156Y617658D01*
X1525601Y614933D01*
X1526318Y612027D01*
X1526298Y609038D01*
X1525535Y606061D01*
X1524022Y603193D01*
X1523463Y602463D01*
X1521589Y600711D01*
X1519274Y599255D01*
X1516767Y598265D01*
X1516355Y598172D01*
X1515767Y598096D01*
X1515000Y598052D01*
X1514005Y598042D01*
X1512736Y598070D01*
X1511145Y598138D01*
X1509187Y598251D01*
X1506814Y598411D01*
X1503978Y598621D01*
X1500634Y598885D01*
X1496734Y599206D01*
X1492231Y599587D01*
X1487079Y600031D01*
X1481230Y600541D01*
X1474638Y601121D01*
X1473180Y601250D01*
X1466548Y601839D01*
X1460657Y602368D01*
X1455466Y602843D01*
X1450932Y603267D01*
X1447014Y603645D01*
X1443671Y603981D01*
X1440860Y604280D01*
X1438541Y604547D01*
X1436670Y604785D01*
X1435208Y604998D01*
X1434112Y605193D01*
X1433340Y605371D01*
X1432851Y605539D01*
X1432720Y605600D01*
X1431658Y606163D01*
X1430719Y606861D01*
X1429707Y607863D01*
X1428424Y609337D01*
X1427574Y610366D01*
X1426701Y611517D01*
X1426153Y612456D01*
X1425807Y613407D01*
X1425539Y614594D01*
X1425301Y617399D01*
X1425738Y620401D01*
X1426862Y623180D01*
X1428616Y625635D01*
X1430945Y627668D01*
X1433793Y629180D01*
X1434009Y629261D01*
X1434409Y629382D01*
X1434886Y629479D01*
X1435488Y629547D01*
X1436262Y629584D01*
X1437256Y629587D01*
X1438518Y629553D01*
G36*
X1438518Y629553D02*
G01*
X1440095Y629480D01*
X1442034Y629363D01*
X1444384Y629201D01*
X1447191Y628990D01*
X1450504Y628727D01*
X1454370Y628410D01*
X1458836Y628035D01*
X1463950Y627600D01*
X1469759Y627100D01*
X1476312Y626535D01*
X1480015Y626215D01*
X1486375Y625665D01*
X1492017Y625173D01*
X1496986Y624733D01*
X1501331Y624336D01*
X1505098Y623976D01*
X1508333Y623645D01*
X1511084Y623337D01*
X1513398Y623043D01*
X1515321Y622757D01*
X1516901Y622471D01*
X1518183Y622179D01*
X1519216Y621872D01*
X1520046Y621543D01*
X1520721Y621186D01*
X1521286Y620792D01*
X1521788Y620355D01*
X1522276Y619867D01*
X1522794Y619322D01*
X1524156Y617658D01*
X1525601Y614933D01*
X1526318Y612027D01*
X1526298Y609038D01*
X1525535Y606061D01*
X1524022Y603193D01*
X1523463Y602463D01*
X1521589Y600711D01*
X1519274Y599255D01*
X1516767Y598265D01*
X1516355Y598172D01*
X1515767Y598096D01*
X1515000Y598052D01*
X1514005Y598042D01*
X1512736Y598070D01*
X1511145Y598138D01*
X1509187Y598251D01*
X1506814Y598411D01*
X1503978Y598621D01*
X1500634Y598885D01*
X1496734Y599206D01*
X1492231Y599587D01*
X1487079Y600031D01*
X1481230Y600541D01*
X1474638Y601121D01*
X1473180Y601250D01*
X1466548Y601839D01*
X1460657Y602368D01*
X1455466Y602843D01*
X1450932Y603267D01*
X1447014Y603645D01*
X1443671Y603981D01*
X1440860Y604280D01*
X1438541Y604547D01*
X1436670Y604785D01*
X1435208Y604998D01*
X1434112Y605193D01*
X1433340Y605371D01*
X1432851Y605539D01*
X1432720Y605600D01*
X1431658Y606163D01*
X1430719Y606861D01*
X1429707Y607863D01*
X1428424Y609337D01*
X1427574Y610366D01*
X1426701Y611517D01*
X1426153Y612456D01*
X1425807Y613407D01*
X1425539Y614594D01*
X1425301Y617399D01*
X1425738Y620401D01*
X1426862Y623180D01*
X1428616Y625635D01*
X1430945Y627668D01*
X1433793Y629180D01*
X1434009Y629261D01*
X1434409Y629382D01*
X1434886Y629479D01*
X1435488Y629547D01*
X1436262Y629584D01*
X1437256Y629587D01*
X1438518Y629553D01*
G37*
%TO.C,MH4*%
X1383174Y-577049D02*
X1385007Y-577673D01*
X1386486Y-578681D01*
X1387705Y-580092D01*
X1387986Y-580525D01*
X1388811Y-582377D01*
X1389159Y-584491D01*
X1389027Y-586960D01*
X1388411Y-589873D01*
X1387310Y-593322D01*
X1385845Y-597736D01*
X1383674Y-606160D01*
X1382233Y-614772D01*
X1381532Y-623478D01*
X1381581Y-632182D01*
X1382390Y-640788D01*
X1382959Y-644425D01*
X1384038Y-649718D01*
X1385445Y-655048D01*
X1387253Y-660715D01*
X1387283Y-660802D01*
X1388158Y-663440D01*
X1388759Y-665499D01*
X1389111Y-667131D01*
X1389239Y-668488D01*
X1389168Y-669724D01*
X1388923Y-670988D01*
X1388406Y-672565D01*
X1387537Y-674065D01*
X1386283Y-675336D01*
X1384562Y-676427D01*
X1382293Y-677391D01*
X1379393Y-678276D01*
X1375782Y-679135D01*
X1370753Y-680269D01*
X1361744Y-682568D01*
X1352910Y-685189D01*
X1344068Y-688192D01*
X1335034Y-691637D01*
X1325624Y-695586D01*
X1325583Y-695604D01*
X1323063Y-696676D01*
X1320544Y-697695D01*
X1318208Y-698592D01*
X1316234Y-699299D01*
X1314803Y-699746D01*
X1312502Y-700298D01*
X1306508Y-701185D01*
X1300428Y-701334D01*
X1294358Y-700762D01*
X1288391Y-699486D01*
X1282621Y-697525D01*
X1277143Y-694897D01*
X1272051Y-691620D01*
X1271728Y-691379D01*
X1267200Y-687495D01*
X1263150Y-683052D01*
X1259631Y-678146D01*
X1256696Y-672869D01*
X1254396Y-667315D01*
X1252786Y-661579D01*
X1251916Y-655752D01*
X1251845Y-654787D01*
X1251821Y-648431D01*
X1252567Y-642230D01*
X1254066Y-636226D01*
X1256304Y-630456D01*
X1259265Y-624962D01*
X1262936Y-619782D01*
X1267301Y-614956D01*
X1269831Y-612712D01*
X1273236Y-610235D01*
X1277289Y-607770D01*
X1282038Y-605289D01*
X1287530Y-602763D01*
X1293046Y-600416D01*
X1306631Y-595075D01*
X1320351Y-590289D01*
X1334106Y-586087D01*
X1347794Y-582498D01*
X1361315Y-579553D01*
X1374567Y-577281D01*
X1374602Y-577276D01*
X1378066Y-576871D01*
X1380892Y-576788D01*
X1383174Y-577049D01*
G36*
X1383174Y-577049D02*
G01*
X1385007Y-577673D01*
X1386486Y-578681D01*
X1387705Y-580092D01*
X1387986Y-580525D01*
X1388811Y-582377D01*
X1389159Y-584491D01*
X1389027Y-586960D01*
X1388411Y-589873D01*
X1387310Y-593322D01*
X1385845Y-597736D01*
X1383674Y-606160D01*
X1382233Y-614772D01*
X1381532Y-623478D01*
X1381581Y-632182D01*
X1382390Y-640788D01*
X1382959Y-644425D01*
X1384038Y-649718D01*
X1385445Y-655048D01*
X1387253Y-660715D01*
X1387283Y-660802D01*
X1388158Y-663440D01*
X1388759Y-665499D01*
X1389111Y-667131D01*
X1389239Y-668488D01*
X1389168Y-669724D01*
X1388923Y-670988D01*
X1388406Y-672565D01*
X1387537Y-674065D01*
X1386283Y-675336D01*
X1384562Y-676427D01*
X1382293Y-677391D01*
X1379393Y-678276D01*
X1375782Y-679135D01*
X1370753Y-680269D01*
X1361744Y-682568D01*
X1352910Y-685189D01*
X1344068Y-688192D01*
X1335034Y-691637D01*
X1325624Y-695586D01*
X1325583Y-695604D01*
X1323063Y-696676D01*
X1320544Y-697695D01*
X1318208Y-698592D01*
X1316234Y-699299D01*
X1314803Y-699746D01*
X1312502Y-700298D01*
X1306508Y-701185D01*
X1300428Y-701334D01*
X1294358Y-700762D01*
X1288391Y-699486D01*
X1282621Y-697525D01*
X1277143Y-694897D01*
X1272051Y-691620D01*
X1271728Y-691379D01*
X1267200Y-687495D01*
X1263150Y-683052D01*
X1259631Y-678146D01*
X1256696Y-672869D01*
X1254396Y-667315D01*
X1252786Y-661579D01*
X1251916Y-655752D01*
X1251845Y-654787D01*
X1251821Y-648431D01*
X1252567Y-642230D01*
X1254066Y-636226D01*
X1256304Y-630456D01*
X1259265Y-624962D01*
X1262936Y-619782D01*
X1267301Y-614956D01*
X1269831Y-612712D01*
X1273236Y-610235D01*
X1277289Y-607770D01*
X1282038Y-605289D01*
X1287530Y-602763D01*
X1293046Y-600416D01*
X1306631Y-595075D01*
X1320351Y-590289D01*
X1334106Y-586087D01*
X1347794Y-582498D01*
X1361315Y-579553D01*
X1374567Y-577281D01*
X1374602Y-577276D01*
X1378066Y-576871D01*
X1380892Y-576788D01*
X1383174Y-577049D01*
G37*
X1478983Y-606776D02*
X1480446Y-606777D01*
X1487104Y-606785D01*
X1493019Y-606799D01*
X1498231Y-606820D01*
X1502785Y-606847D01*
X1506721Y-606882D01*
X1510081Y-606926D01*
X1512907Y-606979D01*
X1515241Y-607042D01*
X1517125Y-607116D01*
X1518600Y-607202D01*
X1519709Y-607300D01*
X1520494Y-607411D01*
X1520996Y-607535D01*
X1521131Y-607584D01*
X1522239Y-608052D01*
X1523235Y-608666D01*
X1524330Y-609575D01*
X1525736Y-610933D01*
X1526674Y-611883D01*
X1527643Y-612954D01*
X1528271Y-613841D01*
X1528699Y-614759D01*
X1529068Y-615919D01*
X1529550Y-618691D01*
X1529376Y-621720D01*
X1528499Y-624586D01*
X1526965Y-627185D01*
X1524823Y-629414D01*
X1522118Y-631168D01*
X1521909Y-631268D01*
X1521522Y-631423D01*
X1521055Y-631561D01*
X1520461Y-631681D01*
X1519693Y-631785D01*
X1518703Y-631875D01*
X1517443Y-631952D01*
X1515866Y-632016D01*
X1513923Y-632069D01*
X1511568Y-632112D01*
X1508754Y-632147D01*
X1505430Y-632174D01*
X1501552Y-632194D01*
X1497070Y-632210D01*
X1491938Y-632222D01*
X1486107Y-632231D01*
X1479530Y-632239D01*
X1475813Y-632243D01*
X1469429Y-632249D01*
X1463766Y-632251D01*
X1458777Y-632245D01*
X1454414Y-632229D01*
X1450631Y-632198D01*
X1447379Y-632151D01*
X1444611Y-632084D01*
X1442281Y-631993D01*
X1440340Y-631875D01*
X1438741Y-631728D01*
X1437438Y-631549D01*
X1436382Y-631333D01*
X1435527Y-631078D01*
X1434824Y-630780D01*
X1434227Y-630437D01*
X1433688Y-630046D01*
X1433160Y-629603D01*
X1432596Y-629104D01*
X1431095Y-627565D01*
X1429417Y-624977D01*
X1428450Y-622145D01*
X1428209Y-619165D01*
X1428709Y-616133D01*
X1429967Y-613144D01*
X1430460Y-612367D01*
X1432174Y-610459D01*
X1434354Y-608807D01*
X1436764Y-607602D01*
X1437167Y-607474D01*
X1437746Y-607347D01*
X1438506Y-607236D01*
X1439497Y-607139D01*
X1440764Y-607057D01*
X1442354Y-606986D01*
X1444315Y-606928D01*
X1446693Y-606880D01*
X1449536Y-606843D01*
X1452890Y-606814D01*
X1456804Y-606794D01*
X1461322Y-606781D01*
X1466494Y-606774D01*
X1472365Y-606773D01*
X1478983Y-606776D01*
G36*
X1478983Y-606776D02*
G01*
X1480446Y-606777D01*
X1487104Y-606785D01*
X1493019Y-606799D01*
X1498231Y-606820D01*
X1502785Y-606847D01*
X1506721Y-606882D01*
X1510081Y-606926D01*
X1512907Y-606979D01*
X1515241Y-607042D01*
X1517125Y-607116D01*
X1518600Y-607202D01*
X1519709Y-607300D01*
X1520494Y-607411D01*
X1520996Y-607535D01*
X1521131Y-607584D01*
X1522239Y-608052D01*
X1523235Y-608666D01*
X1524330Y-609575D01*
X1525736Y-610933D01*
X1526674Y-611883D01*
X1527643Y-612954D01*
X1528271Y-613841D01*
X1528699Y-614759D01*
X1529068Y-615919D01*
X1529550Y-618691D01*
X1529376Y-621720D01*
X1528499Y-624586D01*
X1526965Y-627185D01*
X1524823Y-629414D01*
X1522118Y-631168D01*
X1521909Y-631268D01*
X1521522Y-631423D01*
X1521055Y-631561D01*
X1520461Y-631681D01*
X1519693Y-631785D01*
X1518703Y-631875D01*
X1517443Y-631952D01*
X1515866Y-632016D01*
X1513923Y-632069D01*
X1511568Y-632112D01*
X1508754Y-632147D01*
X1505430Y-632174D01*
X1501552Y-632194D01*
X1497070Y-632210D01*
X1491938Y-632222D01*
X1486107Y-632231D01*
X1479530Y-632239D01*
X1475813Y-632243D01*
X1469429Y-632249D01*
X1463766Y-632251D01*
X1458777Y-632245D01*
X1454414Y-632229D01*
X1450631Y-632198D01*
X1447379Y-632151D01*
X1444611Y-632084D01*
X1442281Y-631993D01*
X1440340Y-631875D01*
X1438741Y-631728D01*
X1437438Y-631549D01*
X1436382Y-631333D01*
X1435527Y-631078D01*
X1434824Y-630780D01*
X1434227Y-630437D01*
X1433688Y-630046D01*
X1433160Y-629603D01*
X1432596Y-629104D01*
X1431095Y-627565D01*
X1429417Y-624977D01*
X1428450Y-622145D01*
X1428209Y-619165D01*
X1428709Y-616133D01*
X1429967Y-613144D01*
X1430460Y-612367D01*
X1432174Y-610459D01*
X1434354Y-608807D01*
X1436764Y-607602D01*
X1437167Y-607474D01*
X1437746Y-607347D01*
X1438506Y-607236D01*
X1439497Y-607139D01*
X1440764Y-607057D01*
X1442354Y-606986D01*
X1444315Y-606928D01*
X1446693Y-606880D01*
X1449536Y-606843D01*
X1452890Y-606814D01*
X1456804Y-606794D01*
X1461322Y-606781D01*
X1466494Y-606774D01*
X1472365Y-606773D01*
X1478983Y-606776D01*
G37*
X1583433Y-567749D02*
X1586519Y-568141D01*
X1594323Y-569405D01*
X1605993Y-571685D01*
X1617895Y-574447D01*
X1629838Y-577639D01*
X1641633Y-581208D01*
X1653088Y-585104D01*
X1664014Y-589273D01*
X1665762Y-589982D01*
X1669936Y-591694D01*
X1673493Y-593189D01*
X1676524Y-594510D01*
X1679121Y-595702D01*
X1681375Y-596810D01*
X1683377Y-597877D01*
X1685220Y-598948D01*
X1686995Y-600069D01*
X1688793Y-601282D01*
X1689740Y-601942D01*
X1692015Y-603584D01*
X1693806Y-604984D01*
X1695260Y-606261D01*
X1696526Y-607536D01*
X1696645Y-607665D01*
X1700693Y-612596D01*
X1704042Y-617827D01*
X1706693Y-623299D01*
X1708647Y-628955D01*
X1709905Y-634736D01*
X1710468Y-640582D01*
X1710339Y-646437D01*
X1709516Y-652241D01*
X1708003Y-657935D01*
X1705800Y-663463D01*
X1702909Y-668765D01*
X1699330Y-673782D01*
X1695065Y-678457D01*
X1691396Y-681666D01*
X1686455Y-685072D01*
X1681118Y-687864D01*
X1675474Y-690015D01*
X1669611Y-691497D01*
X1663617Y-692284D01*
X1657582Y-692349D01*
X1651594Y-691664D01*
X1650103Y-691380D01*
X1648145Y-690940D01*
X1646232Y-690410D01*
X1644213Y-689738D01*
X1641936Y-688873D01*
X1639249Y-687762D01*
X1636000Y-686354D01*
X1633127Y-685109D01*
X1620378Y-680028D01*
X1607701Y-675705D01*
X1595037Y-672121D01*
X1582329Y-669259D01*
X1579964Y-668725D01*
X1577435Y-667899D01*
X1575544Y-666881D01*
X1574203Y-665604D01*
X1573324Y-664003D01*
X1572820Y-662009D01*
X1572692Y-660892D01*
X1572734Y-659639D01*
X1573039Y-658260D01*
X1573650Y-656461D01*
X1574814Y-653255D01*
X1576091Y-649525D01*
X1577139Y-646154D01*
X1578020Y-642939D01*
X1578798Y-639676D01*
X1579952Y-633580D01*
X1580917Y-624881D01*
X1581103Y-616120D01*
X1580514Y-607335D01*
X1579153Y-598563D01*
X1577022Y-589844D01*
X1574125Y-581214D01*
X1573922Y-580669D01*
X1573010Y-577547D01*
X1572670Y-574837D01*
X1572912Y-572600D01*
X1573405Y-571207D01*
X1574365Y-569825D01*
X1575889Y-568691D01*
X1576067Y-568589D01*
X1577425Y-568004D01*
X1579018Y-567674D01*
X1580977Y-567591D01*
X1583433Y-567749D01*
G36*
X1583433Y-567749D02*
G01*
X1586519Y-568141D01*
X1594323Y-569405D01*
X1605993Y-571685D01*
X1617895Y-574447D01*
X1629838Y-577639D01*
X1641633Y-581208D01*
X1653088Y-585104D01*
X1664014Y-589273D01*
X1665762Y-589982D01*
X1669936Y-591694D01*
X1673493Y-593189D01*
X1676524Y-594510D01*
X1679121Y-595702D01*
X1681375Y-596810D01*
X1683377Y-597877D01*
X1685220Y-598948D01*
X1686995Y-600069D01*
X1688793Y-601282D01*
X1689740Y-601942D01*
X1692015Y-603584D01*
X1693806Y-604984D01*
X1695260Y-606261D01*
X1696526Y-607536D01*
X1696645Y-607665D01*
X1700693Y-612596D01*
X1704042Y-617827D01*
X1706693Y-623299D01*
X1708647Y-628955D01*
X1709905Y-634736D01*
X1710468Y-640582D01*
X1710339Y-646437D01*
X1709516Y-652241D01*
X1708003Y-657935D01*
X1705800Y-663463D01*
X1702909Y-668765D01*
X1699330Y-673782D01*
X1695065Y-678457D01*
X1691396Y-681666D01*
X1686455Y-685072D01*
X1681118Y-687864D01*
X1675474Y-690015D01*
X1669611Y-691497D01*
X1663617Y-692284D01*
X1657582Y-692349D01*
X1651594Y-691664D01*
X1650103Y-691380D01*
X1648145Y-690940D01*
X1646232Y-690410D01*
X1644213Y-689738D01*
X1641936Y-688873D01*
X1639249Y-687762D01*
X1636000Y-686354D01*
X1633127Y-685109D01*
X1620378Y-680028D01*
X1607701Y-675705D01*
X1595037Y-672121D01*
X1582329Y-669259D01*
X1579964Y-668725D01*
X1577435Y-667899D01*
X1575544Y-666881D01*
X1574203Y-665604D01*
X1573324Y-664003D01*
X1572820Y-662009D01*
X1572692Y-660892D01*
X1572734Y-659639D01*
X1573039Y-658260D01*
X1573650Y-656461D01*
X1574814Y-653255D01*
X1576091Y-649525D01*
X1577139Y-646154D01*
X1578020Y-642939D01*
X1578798Y-639676D01*
X1579952Y-633580D01*
X1580917Y-624881D01*
X1581103Y-616120D01*
X1580514Y-607335D01*
X1579153Y-598563D01*
X1577022Y-589844D01*
X1574125Y-581214D01*
X1573922Y-580669D01*
X1573010Y-577547D01*
X1572670Y-574837D01*
X1572912Y-572600D01*
X1573405Y-571207D01*
X1574365Y-569825D01*
X1575889Y-568691D01*
X1576067Y-568589D01*
X1577425Y-568004D01*
X1579018Y-567674D01*
X1580977Y-567591D01*
X1583433Y-567749D01*
G37*
%TD*%
M02*
