%TF.GenerationSoftware,KiCad,Pcbnew,9.0.0*%
%TF.CreationDate,2025-03-25T13:50:55+00:00*%
%TF.ProjectId,vm_rp2040_pogo_mh_0.1,766d5f72-7032-4303-9430-5f706f676f5f,v0.1*%
%TF.SameCoordinates,Original*%
%TF.FileFunction,Copper,L1,Top*%
%TF.FilePolarity,Positive*%
%FSLAX45Y45*%
G04 Gerber Fmt 4.5, Leading zero omitted, Abs format (unit mm)*
G04 Created by KiCad (PCBNEW 9.0.0) date 2025-03-25 13:50:55*
%MOMM*%
%LPD*%
G01*
G04 APERTURE LIST*
%TA.AperFunction,SMDPad,CuDef*%
%ADD10C,0.125000*%
%TD*%
%TA.AperFunction,SMDPad,CuDef*%
%ADD11C,2.254000*%
%TD*%
%TA.AperFunction,ComponentPad*%
%ADD12C,6.200000*%
%TD*%
%TA.AperFunction,Conductor*%
%ADD13C,0.200000*%
%TD*%
G04 APERTURE END LIST*
D10*
%TO.P,GS9,1,SWDIO~*%
%TO.N,Net-(GS9-SWDIO~)*%
X-150000Y1400000D03*
%TD*%
%TO.P,GS15,1,SWDIO~*%
%TO.N,Net-(GS15-SWDIO~)*%
X-600000Y-1400000D03*
%TD*%
D11*
%TO.P,J8,1,1*%
%TO.N,Net-(GS12-SWDIO~)*%
X861055Y1160663D03*
%TD*%
%TO.P,J10,1,1*%
%TO.N,unconnected-(J10-Pad1)*%
X1103999Y-1199513D03*
%TD*%
D12*
%TO.P,MH3,1*%
%TO.N,N/C*%
X-1500000Y-1000000D03*
%TD*%
D11*
%TO.P,J16,1,1*%
%TO.N,Net-(GS16-SWDIO~)*%
X-369001Y-1160513D03*
%TD*%
%TO.P,J4,1,1*%
%TO.N,Net-(GS9-SWDIO~)*%
X-122945Y1160663D03*
%TD*%
D10*
%TO.P,GS13,1,SWDIO~*%
%TO.N,Net-(GS13-SWDIO~)*%
X1100000Y1400000D03*
%TD*%
%TO.P,GS19,1,SWDIO~*%
%TO.N,Net-(GS19-SWDIO~)*%
X400000Y-1400000D03*
%TD*%
D11*
%TO.P,J11,1,1*%
%TO.N,unconnected-(J11-Pad1)*%
X860999Y-1160513D03*
%TD*%
%TO.P,J17,1,1*%
%TO.N,Net-(GS15-SWDIO~)*%
X-615001Y-1160513D03*
%TD*%
D10*
%TO.P,GS18,1,SWDIO~*%
%TO.N,Net-(GS18-SWDIO~)*%
X150000Y-1400000D03*
%TD*%
%TO.P,GS14,1,SWDIO~*%
%TO.N,Net-(GS14-SWDIO~)*%
X-850000Y-1400000D03*
%TD*%
D11*
%TO.P,J5,1,1*%
%TO.N,Net-(GS5-SWCLK)*%
X123055Y1160663D03*
%TD*%
%TO.P,J6,1,1*%
%TO.N,Net-(GS10-SWDIO~)*%
X369055Y1160663D03*
%TD*%
%TO.P,J12,1,1*%
%TO.N,unconnected-(J12-Pad1)*%
X614999Y-1160513D03*
%TD*%
D10*
%TO.P,GS3,1,JD_PWR*%
%TO.N,JD_PWR*%
X-1500000Y-1400000D03*
%TD*%
D11*
%TO.P,J15,1,1*%
%TO.N,Net-(GS17-SWDIO~)*%
X-123001Y-1160513D03*
%TD*%
D10*
%TO.P,GS12,1,SWDIO~*%
%TO.N,Net-(GS12-SWDIO~)*%
X850000Y1400000D03*
%TD*%
%TO.P,GS1,1,JD_DATA*%
%TO.N,JD_DATA*%
X-1900000Y1000000D03*
%TD*%
%TO.P,GS2,1,GND*%
%TO.N,GND*%
X1900000Y-1000000D03*
%TD*%
%TO.P,GS5,1,SWCLK*%
%TO.N,Net-(GS5-SWCLK)*%
X100000Y1400000D03*
%TD*%
%TO.P,GS17,1,SWDIO~*%
%TO.N,Net-(GS17-SWDIO~)*%
X-100000Y-1400000D03*
%TD*%
D11*
%TO.P,J3,1,1*%
%TO.N,Net-(GS4-RESET)*%
X-368945Y1160663D03*
%TD*%
%TO.P,J7,1,1*%
%TO.N,Net-(GS11-SWDIO~)*%
X615055Y1160663D03*
%TD*%
D10*
%TO.P,GS8,1,SWDIO~*%
%TO.N,Net-(GS8-SWDIO~)*%
X-650000Y1400000D03*
%TD*%
D11*
%TO.P,J19,1,1*%
%TO.N,unconnected-(J19-Pad1)*%
X-1104001Y-1199513D03*
%TD*%
%TO.P,J2,1,1*%
%TO.N,Net-(GS8-SWDIO~)*%
X-614945Y1160663D03*
%TD*%
D10*
%TO.P,GS16,1,SWDIO~*%
%TO.N,Net-(GS16-SWDIO~)*%
X-350000Y-1400000D03*
%TD*%
%TO.P,GS11,1,SWDIO~*%
%TO.N,Net-(GS11-SWDIO~)*%
X600000Y1400000D03*
%TD*%
D11*
%TO.P,J1,1,1*%
%TO.N,unconnected-(J1-Pad1)*%
X-860945Y1160663D03*
%TD*%
D10*
%TO.P,GS4,1,RESET*%
%TO.N,Net-(GS4-RESET)*%
X-400000Y1400000D03*
%TD*%
%TO.P,GS10,1,SWDIO~*%
%TO.N,Net-(GS10-SWDIO~)*%
X350000Y1400000D03*
%TD*%
D11*
%TO.P,J14,1,1*%
%TO.N,Net-(GS18-SWDIO~)*%
X122999Y-1160513D03*
%TD*%
%TO.P,J9,1,1*%
%TO.N,Net-(GS13-SWDIO~)*%
X1104055Y1199663D03*
%TD*%
D12*
%TO.P,MH1,1*%
%TO.N,N/C*%
X-1500000Y1000001D03*
%TD*%
%TO.P,MH2,1*%
%TO.N,N/C*%
X1500001Y1000002D03*
%TD*%
%TO.P,MH4,1*%
%TO.N,N/C*%
X1500001Y-999999D03*
%TD*%
D11*
%TO.P,J18,1,1*%
%TO.N,Net-(GS14-SWDIO~)*%
X-861001Y-1160513D03*
%TD*%
%TO.P,J13,1,1*%
%TO.N,Net-(GS19-SWDIO~)*%
X368999Y-1160513D03*
%TD*%
D13*
%TO.N,JD_DATA*%
X-1500000Y1000000D02*
X-1900000Y1000000D01*
%TO.N,GND*%
X1200001Y-699998D02*
X1500001Y-999998D01*
X1500000Y1000000D02*
X1600000Y900000D01*
X1200001Y700002D02*
X1200001Y-699998D01*
X1500000Y-1000000D02*
X1900000Y-1000000D01*
X1900000Y-1000000D02*
X1900000Y-1000000D01*
X1500001Y1000002D02*
X1200001Y700002D01*
%TO.N,JD_PWR*%
X-1500080Y-1000080D02*
X-1500080Y-1399920D01*
X-1500080Y-1399920D02*
X-1500000Y-1400000D01*
%TO.N,Net-(GS4-RESET)*%
X-368945Y1160663D02*
X-368945Y1368945D01*
X-368945Y1368945D02*
X-400000Y1400000D01*
%TO.N,Net-(GS5-SWCLK)*%
X123055Y1160663D02*
X123055Y1376945D01*
X123055Y1376945D02*
X100000Y1400000D01*
%TO.N,Net-(GS8-SWDIO~)*%
X-614945Y1364945D02*
X-650000Y1400000D01*
X-614945Y1160663D02*
X-614945Y1364945D01*
%TO.N,Net-(GS9-SWDIO~)*%
X-122945Y1372945D02*
X-150000Y1400000D01*
X-122945Y1160663D02*
X-122945Y1372945D01*
%TO.N,Net-(GS10-SWDIO~)*%
X369055Y1380945D02*
X350000Y1400000D01*
X369055Y1160663D02*
X369055Y1380945D01*
%TO.N,Net-(GS11-SWDIO~)*%
X615055Y1384945D02*
X600000Y1400000D01*
X615055Y1160663D02*
X615055Y1384945D01*
%TO.N,Net-(GS12-SWDIO~)*%
X861055Y1388945D02*
X850000Y1400000D01*
X861055Y1160663D02*
X861055Y1388945D01*
%TO.N,Net-(GS13-SWDIO~)*%
X1104055Y1395945D02*
X1100000Y1400000D01*
X1104055Y1395945D02*
X1100000Y1400000D01*
X1104055Y1199663D02*
X1104055Y1395945D01*
%TO.N,Net-(GS14-SWDIO~)*%
X-861001Y-1160513D02*
X-861001Y-1388999D01*
X-861001Y-1388999D02*
X-850000Y-1400000D01*
%TO.N,Net-(GS15-SWDIO~)*%
X-615001Y-1160513D02*
X-615001Y-1384999D01*
X-615001Y-1384999D02*
X-600000Y-1400000D01*
%TO.N,Net-(GS16-SWDIO~)*%
X-369001Y-1380999D02*
X-350000Y-1400000D01*
X-369001Y-1160513D02*
X-369001Y-1380999D01*
%TO.N,Net-(GS17-SWDIO~)*%
X-123001Y-1160513D02*
X-123001Y-1376999D01*
X-123001Y-1376999D02*
X-100000Y-1400000D01*
%TO.N,Net-(GS18-SWDIO~)*%
X122999Y-1372999D02*
X150000Y-1400000D01*
X122999Y-1160513D02*
X122999Y-1372999D01*
%TO.N,Net-(GS19-SWDIO~)*%
X368999Y-1368999D02*
X400000Y-1400000D01*
X368999Y-1160513D02*
X368999Y-1368999D01*
%TD*%
M02*
