%TF.GenerationSoftware,KiCad,Pcbnew,9.0.0*%
%TF.CreationDate,2025-03-25T13:50:56+00:00*%
%TF.ProjectId,vm_rp2040_pogo_mh_0.1,766d5f72-7032-4303-9430-5f706f676f5f,v0.1*%
%TF.SameCoordinates,Original*%
%TF.FileFunction,AssemblyDrawing,Top*%
%FSLAX45Y45*%
G04 Gerber Fmt 4.5, Leading zero omitted, Abs format (unit mm)*
G04 Created by KiCad (PCBNEW 9.0.0) date 2025-03-25 13:50:56*
%MOMM*%
%LPD*%
G01*
G04 APERTURE LIST*
%ADD10C,0.150000*%
%ADD11C,0.100000*%
%ADD12C,1.000000*%
%ADD13C,0.060000*%
G04 APERTURE END LIST*
D10*
X-1554518Y-2080952D02*
X-1483090Y-2080952D01*
X-1483090Y-2080952D02*
X-1468804Y-2085714D01*
X-1468804Y-2085714D02*
X-1459280Y-2095238D01*
X-1459280Y-2095238D02*
X-1454518Y-2109524D01*
X-1454518Y-2109524D02*
X-1454518Y-2119048D01*
X-1454518Y-2033333D02*
X-1554518Y-2033333D01*
X-1554518Y-2033333D02*
X-1554518Y-2009524D01*
X-1554518Y-2009524D02*
X-1549756Y-1995238D01*
X-1549756Y-1995238D02*
X-1540232Y-1985714D01*
X-1540232Y-1985714D02*
X-1530709Y-1980952D01*
X-1530709Y-1980952D02*
X-1511661Y-1976190D01*
X-1511661Y-1976190D02*
X-1497375Y-1976190D01*
X-1497375Y-1976190D02*
X-1478328Y-1980952D01*
X-1478328Y-1980952D02*
X-1468804Y-1985714D01*
X-1468804Y-1985714D02*
X-1459280Y-1995238D01*
X-1459280Y-1995238D02*
X-1454518Y-2009524D01*
X-1454518Y-2009524D02*
X-1454518Y-2033333D01*
X-1444994Y-1957143D02*
X-1444994Y-1880952D01*
X-1454518Y-1857143D02*
X-1554518Y-1857143D01*
X-1554518Y-1857143D02*
X-1554518Y-1819047D01*
X-1554518Y-1819047D02*
X-1549756Y-1809524D01*
X-1549756Y-1809524D02*
X-1544994Y-1804762D01*
X-1544994Y-1804762D02*
X-1535470Y-1800000D01*
X-1535470Y-1800000D02*
X-1521185Y-1800000D01*
X-1521185Y-1800000D02*
X-1511661Y-1804762D01*
X-1511661Y-1804762D02*
X-1506899Y-1809524D01*
X-1506899Y-1809524D02*
X-1502137Y-1819047D01*
X-1502137Y-1819047D02*
X-1502137Y-1857143D01*
X-1554518Y-1766666D02*
X-1454518Y-1742857D01*
X-1454518Y-1742857D02*
X-1525947Y-1723809D01*
X-1525947Y-1723809D02*
X-1454518Y-1704762D01*
X-1454518Y-1704762D02*
X-1554518Y-1680952D01*
X-1454518Y-1585714D02*
X-1502137Y-1619047D01*
X-1454518Y-1642857D02*
X-1554518Y-1642857D01*
X-1554518Y-1642857D02*
X-1554518Y-1604762D01*
X-1554518Y-1604762D02*
X-1549756Y-1595238D01*
X-1549756Y-1595238D02*
X-1544994Y-1590476D01*
X-1544994Y-1590476D02*
X-1535470Y-1585714D01*
X-1535470Y-1585714D02*
X-1521185Y-1585714D01*
X-1521185Y-1585714D02*
X-1511661Y-1590476D01*
X-1511661Y-1590476D02*
X-1506899Y-1595238D01*
X-1506899Y-1595238D02*
X-1502137Y-1604762D01*
X-1502137Y-1604762D02*
X-1502137Y-1642857D01*
X-2597619Y1054518D02*
X-2597619Y983090D01*
X-2597619Y983090D02*
X-2602381Y968804D01*
X-2602381Y968804D02*
X-2611905Y959280D01*
X-2611905Y959280D02*
X-2626191Y954518D01*
X-2626191Y954518D02*
X-2635714Y954518D01*
X-2550000Y954518D02*
X-2550000Y1054518D01*
X-2550000Y1054518D02*
X-2526191Y1054518D01*
X-2526191Y1054518D02*
X-2511905Y1049756D01*
X-2511905Y1049756D02*
X-2502381Y1040232D01*
X-2502381Y1040232D02*
X-2497619Y1030709D01*
X-2497619Y1030709D02*
X-2492857Y1011661D01*
X-2492857Y1011661D02*
X-2492857Y997375D01*
X-2492857Y997375D02*
X-2497619Y978328D01*
X-2497619Y978328D02*
X-2502381Y968804D01*
X-2502381Y968804D02*
X-2511905Y959280D01*
X-2511905Y959280D02*
X-2526191Y954518D01*
X-2526191Y954518D02*
X-2550000Y954518D01*
X-2473810Y944994D02*
X-2397619Y944994D01*
X-2373810Y954518D02*
X-2373810Y1054518D01*
X-2373810Y1054518D02*
X-2350000Y1054518D01*
X-2350000Y1054518D02*
X-2335714Y1049756D01*
X-2335714Y1049756D02*
X-2326191Y1040232D01*
X-2326191Y1040232D02*
X-2321429Y1030709D01*
X-2321429Y1030709D02*
X-2316667Y1011661D01*
X-2316667Y1011661D02*
X-2316667Y997375D01*
X-2316667Y997375D02*
X-2321429Y978328D01*
X-2321429Y978328D02*
X-2326191Y968804D01*
X-2326191Y968804D02*
X-2335714Y959280D01*
X-2335714Y959280D02*
X-2350000Y954518D01*
X-2350000Y954518D02*
X-2373810Y954518D01*
X-2278571Y983090D02*
X-2230952Y983090D01*
X-2288095Y954518D02*
X-2254762Y1054518D01*
X-2254762Y1054518D02*
X-2221429Y954518D01*
X-2202381Y1054518D02*
X-2145238Y1054518D01*
X-2173810Y954518D02*
X-2173810Y1054518D01*
X-2116667Y983090D02*
X-2069048Y983090D01*
X-2126190Y954518D02*
X-2092857Y1054518D01*
X-2092857Y1054518D02*
X-2059524Y954518D01*
X2223810Y-950244D02*
X2214286Y-945482D01*
X2214286Y-945482D02*
X2200000Y-945482D01*
X2200000Y-945482D02*
X2185714Y-950244D01*
X2185714Y-950244D02*
X2176191Y-959768D01*
X2176191Y-959768D02*
X2171429Y-969291D01*
X2171429Y-969291D02*
X2166667Y-988339D01*
X2166667Y-988339D02*
X2166667Y-1002625D01*
X2166667Y-1002625D02*
X2171429Y-1021672D01*
X2171429Y-1021672D02*
X2176191Y-1031196D01*
X2176191Y-1031196D02*
X2185714Y-1040720D01*
X2185714Y-1040720D02*
X2200000Y-1045482D01*
X2200000Y-1045482D02*
X2209524Y-1045482D01*
X2209524Y-1045482D02*
X2223810Y-1040720D01*
X2223810Y-1040720D02*
X2228571Y-1035958D01*
X2228571Y-1035958D02*
X2228571Y-1002625D01*
X2228571Y-1002625D02*
X2209524Y-1002625D01*
X2271429Y-1045482D02*
X2271429Y-945482D01*
X2271429Y-945482D02*
X2328571Y-1045482D01*
X2328571Y-1045482D02*
X2328571Y-945482D01*
X2376191Y-1045482D02*
X2376191Y-945482D01*
X2376191Y-945482D02*
X2400000Y-945482D01*
X2400000Y-945482D02*
X2414286Y-950244D01*
X2414286Y-950244D02*
X2423810Y-959768D01*
X2423810Y-959768D02*
X2428571Y-969291D01*
X2428571Y-969291D02*
X2433333Y-988339D01*
X2433333Y-988339D02*
X2433333Y-1002625D01*
X2433333Y-1002625D02*
X2428571Y-1021672D01*
X2428571Y-1021672D02*
X2423810Y-1031196D01*
X2423810Y-1031196D02*
X2414286Y-1040720D01*
X2414286Y-1040720D02*
X2400000Y-1045482D01*
X2400000Y-1045482D02*
X2376191Y-1045482D01*
D11*
%TO.C,GS9*%
X-150000Y1350000D02*
X-150000Y1450000D01*
X-100000Y1400000D02*
X-200000Y1400000D01*
X-100000Y1400000D02*
G75*
G02*
X-200000Y1400000I-50000J0D01*
G01*
X-200000Y1400000D02*
G75*
G02*
X-100000Y1400000I50000J0D01*
G01*
%TO.C,GS15*%
X-650000Y-1400000D02*
X-550000Y-1400000D01*
X-600000Y-1350000D02*
X-600000Y-1450000D01*
X-550000Y-1400000D02*
G75*
G02*
X-650000Y-1400000I-50000J0D01*
G01*
X-650000Y-1400000D02*
G75*
G02*
X-550000Y-1400000I50000J0D01*
G01*
D12*
%TO.C,J8*%
X911055Y1160663D02*
G75*
G02*
X811055Y1160663I-50000J0D01*
G01*
X811055Y1160663D02*
G75*
G02*
X911055Y1160663I50000J0D01*
G01*
D13*
X964055Y1260663D02*
G75*
G02*
X958055Y1260663I-3000J0D01*
G01*
X958055Y1260663D02*
G75*
G02*
X964055Y1260663I3000J0D01*
G01*
D12*
%TO.C,J10*%
X1153999Y-1199513D02*
G75*
G02*
X1053999Y-1199513I-50000J0D01*
G01*
X1053999Y-1199513D02*
G75*
G02*
X1153999Y-1199513I50000J0D01*
G01*
D13*
X1206999Y-1099513D02*
G75*
G02*
X1200999Y-1099513I-3000J0D01*
G01*
X1200999Y-1099513D02*
G75*
G02*
X1206999Y-1099513I3000J0D01*
G01*
D12*
%TO.C,J16*%
X-319001Y-1160513D02*
G75*
G02*
X-419001Y-1160513I-50000J0D01*
G01*
X-419001Y-1160513D02*
G75*
G02*
X-319001Y-1160513I50000J0D01*
G01*
D13*
X-266001Y-1060513D02*
G75*
G02*
X-272001Y-1060513I-3000J0D01*
G01*
X-272001Y-1060513D02*
G75*
G02*
X-266001Y-1060513I3000J0D01*
G01*
D12*
%TO.C,J4*%
X-72945Y1160663D02*
G75*
G02*
X-172945Y1160663I-50000J0D01*
G01*
X-172945Y1160663D02*
G75*
G02*
X-72945Y1160663I50000J0D01*
G01*
D13*
X-19945Y1260663D02*
G75*
G02*
X-25945Y1260663I-3000J0D01*
G01*
X-25945Y1260663D02*
G75*
G02*
X-19945Y1260663I3000J0D01*
G01*
D11*
%TO.C,GS13*%
X1100000Y1350000D02*
X1100000Y1450000D01*
X1150000Y1400000D02*
X1050000Y1400000D01*
X1150000Y1400000D02*
G75*
G02*
X1050000Y1400000I-50000J0D01*
G01*
X1050000Y1400000D02*
G75*
G02*
X1150000Y1400000I50000J0D01*
G01*
%TO.C,GS19*%
X350000Y-1400000D02*
X450000Y-1400000D01*
X400000Y-1350000D02*
X400000Y-1450000D01*
X450000Y-1400000D02*
G75*
G02*
X350000Y-1400000I-50000J0D01*
G01*
X350000Y-1400000D02*
G75*
G02*
X450000Y-1400000I50000J0D01*
G01*
D12*
%TO.C,J11*%
X910999Y-1160513D02*
G75*
G02*
X810999Y-1160513I-50000J0D01*
G01*
X810999Y-1160513D02*
G75*
G02*
X910999Y-1160513I50000J0D01*
G01*
D13*
X963999Y-1060513D02*
G75*
G02*
X957999Y-1060513I-3000J0D01*
G01*
X957999Y-1060513D02*
G75*
G02*
X963999Y-1060513I3000J0D01*
G01*
D12*
%TO.C,J17*%
X-565001Y-1160513D02*
G75*
G02*
X-665001Y-1160513I-50000J0D01*
G01*
X-665001Y-1160513D02*
G75*
G02*
X-565001Y-1160513I50000J0D01*
G01*
D13*
X-512001Y-1060513D02*
G75*
G02*
X-518001Y-1060513I-3000J0D01*
G01*
X-518001Y-1060513D02*
G75*
G02*
X-512001Y-1060513I3000J0D01*
G01*
D11*
%TO.C,GS18*%
X100000Y-1400000D02*
X200000Y-1400000D01*
X150000Y-1350000D02*
X150000Y-1450000D01*
X200000Y-1400000D02*
G75*
G02*
X100000Y-1400000I-50000J0D01*
G01*
X100000Y-1400000D02*
G75*
G02*
X200000Y-1400000I50000J0D01*
G01*
%TO.C,GS14*%
X-900000Y-1400000D02*
X-800000Y-1400000D01*
X-850000Y-1350000D02*
X-850000Y-1450000D01*
X-800000Y-1400000D02*
G75*
G02*
X-900000Y-1400000I-50000J0D01*
G01*
X-900000Y-1400000D02*
G75*
G02*
X-800000Y-1400000I50000J0D01*
G01*
D12*
%TO.C,J5*%
X173055Y1160663D02*
G75*
G02*
X73055Y1160663I-50000J0D01*
G01*
X73055Y1160663D02*
G75*
G02*
X173055Y1160663I50000J0D01*
G01*
D13*
X226055Y1260663D02*
G75*
G02*
X220055Y1260663I-3000J0D01*
G01*
X220055Y1260663D02*
G75*
G02*
X226055Y1260663I3000J0D01*
G01*
D12*
%TO.C,J6*%
X419055Y1160663D02*
G75*
G02*
X319055Y1160663I-50000J0D01*
G01*
X319055Y1160663D02*
G75*
G02*
X419055Y1160663I50000J0D01*
G01*
D13*
X472055Y1260663D02*
G75*
G02*
X466055Y1260663I-3000J0D01*
G01*
X466055Y1260663D02*
G75*
G02*
X472055Y1260663I3000J0D01*
G01*
D12*
%TO.C,J12*%
X664999Y-1160513D02*
G75*
G02*
X564999Y-1160513I-50000J0D01*
G01*
X564999Y-1160513D02*
G75*
G02*
X664999Y-1160513I50000J0D01*
G01*
D13*
X717999Y-1060513D02*
G75*
G02*
X711999Y-1060513I-3000J0D01*
G01*
X711999Y-1060513D02*
G75*
G02*
X717999Y-1060513I3000J0D01*
G01*
D11*
%TO.C,GS3*%
X-1550000Y-1400000D02*
X-1450000Y-1400000D01*
X-1500000Y-1350000D02*
X-1500000Y-1450000D01*
X-1450000Y-1400000D02*
G75*
G02*
X-1550000Y-1400000I-50000J0D01*
G01*
X-1550000Y-1400000D02*
G75*
G02*
X-1450000Y-1400000I50000J0D01*
G01*
D12*
%TO.C,J15*%
X-73001Y-1160513D02*
G75*
G02*
X-173001Y-1160513I-50000J0D01*
G01*
X-173001Y-1160513D02*
G75*
G02*
X-73001Y-1160513I50000J0D01*
G01*
D13*
X-20001Y-1060513D02*
G75*
G02*
X-26001Y-1060513I-3000J0D01*
G01*
X-26001Y-1060513D02*
G75*
G02*
X-20001Y-1060513I3000J0D01*
G01*
D11*
%TO.C,GS12*%
X850000Y1350000D02*
X850000Y1450000D01*
X900000Y1400000D02*
X800000Y1400000D01*
X900000Y1400000D02*
G75*
G02*
X800000Y1400000I-50000J0D01*
G01*
X800000Y1400000D02*
G75*
G02*
X900000Y1400000I50000J0D01*
G01*
%TO.C,GS1*%
X-1950000Y1000000D02*
X-1850000Y1000000D01*
X-1900000Y1050000D02*
X-1900000Y950000D01*
X-1850000Y1000000D02*
G75*
G02*
X-1950000Y1000000I-50000J0D01*
G01*
X-1950000Y1000000D02*
G75*
G02*
X-1850000Y1000000I50000J0D01*
G01*
%TO.C,GS2*%
X1850000Y-1000000D02*
X1950000Y-1000000D01*
X1900000Y-950000D02*
X1900000Y-1050000D01*
X1950000Y-1000000D02*
G75*
G02*
X1850000Y-1000000I-50000J0D01*
G01*
X1850000Y-1000000D02*
G75*
G02*
X1950000Y-1000000I50000J0D01*
G01*
%TO.C,GS5*%
X100000Y1350000D02*
X100000Y1450000D01*
X150000Y1400000D02*
X50000Y1400000D01*
X150000Y1400000D02*
G75*
G02*
X50000Y1400000I-50000J0D01*
G01*
X50000Y1400000D02*
G75*
G02*
X150000Y1400000I50000J0D01*
G01*
%TO.C,GS17*%
X-150000Y-1400000D02*
X-50000Y-1400000D01*
X-100000Y-1350000D02*
X-100000Y-1450000D01*
X-50000Y-1400000D02*
G75*
G02*
X-150000Y-1400000I-50000J0D01*
G01*
X-150000Y-1400000D02*
G75*
G02*
X-50000Y-1400000I50000J0D01*
G01*
D12*
%TO.C,J3*%
X-318945Y1160663D02*
G75*
G02*
X-418945Y1160663I-50000J0D01*
G01*
X-418945Y1160663D02*
G75*
G02*
X-318945Y1160663I50000J0D01*
G01*
D13*
X-265945Y1260663D02*
G75*
G02*
X-271945Y1260663I-3000J0D01*
G01*
X-271945Y1260663D02*
G75*
G02*
X-265945Y1260663I3000J0D01*
G01*
D12*
%TO.C,J7*%
X665055Y1160663D02*
G75*
G02*
X565055Y1160663I-50000J0D01*
G01*
X565055Y1160663D02*
G75*
G02*
X665055Y1160663I50000J0D01*
G01*
D13*
X718055Y1260663D02*
G75*
G02*
X712055Y1260663I-3000J0D01*
G01*
X712055Y1260663D02*
G75*
G02*
X718055Y1260663I3000J0D01*
G01*
D11*
%TO.C,GS8*%
X-650000Y1350000D02*
X-650000Y1450000D01*
X-600000Y1400000D02*
X-700000Y1400000D01*
X-600000Y1400000D02*
G75*
G02*
X-700000Y1400000I-50000J0D01*
G01*
X-700000Y1400000D02*
G75*
G02*
X-600000Y1400000I50000J0D01*
G01*
D12*
%TO.C,J19*%
X-1054001Y-1199513D02*
G75*
G02*
X-1154001Y-1199513I-50000J0D01*
G01*
X-1154001Y-1199513D02*
G75*
G02*
X-1054001Y-1199513I50000J0D01*
G01*
D13*
X-1001001Y-1099513D02*
G75*
G02*
X-1007001Y-1099513I-3000J0D01*
G01*
X-1007001Y-1099513D02*
G75*
G02*
X-1001001Y-1099513I3000J0D01*
G01*
D12*
%TO.C,J2*%
X-564945Y1160663D02*
G75*
G02*
X-664945Y1160663I-50000J0D01*
G01*
X-664945Y1160663D02*
G75*
G02*
X-564945Y1160663I50000J0D01*
G01*
D13*
X-511945Y1260663D02*
G75*
G02*
X-517945Y1260663I-3000J0D01*
G01*
X-517945Y1260663D02*
G75*
G02*
X-511945Y1260663I3000J0D01*
G01*
D11*
%TO.C,GS16*%
X-400000Y-1400000D02*
X-300000Y-1400000D01*
X-350000Y-1350000D02*
X-350000Y-1450000D01*
X-300000Y-1400000D02*
G75*
G02*
X-400000Y-1400000I-50000J0D01*
G01*
X-400000Y-1400000D02*
G75*
G02*
X-300000Y-1400000I50000J0D01*
G01*
%TO.C,GS11*%
X600000Y1350000D02*
X600000Y1450000D01*
X650000Y1400000D02*
X550000Y1400000D01*
X650000Y1400000D02*
G75*
G02*
X550000Y1400000I-50000J0D01*
G01*
X550000Y1400000D02*
G75*
G02*
X650000Y1400000I50000J0D01*
G01*
D12*
%TO.C,J1*%
X-810945Y1160663D02*
G75*
G02*
X-910945Y1160663I-50000J0D01*
G01*
X-910945Y1160663D02*
G75*
G02*
X-810945Y1160663I50000J0D01*
G01*
D13*
X-757945Y1260663D02*
G75*
G02*
X-763945Y1260663I-3000J0D01*
G01*
X-763945Y1260663D02*
G75*
G02*
X-757945Y1260663I3000J0D01*
G01*
D11*
%TO.C,GS4*%
X-450000Y1400000D02*
X-350000Y1400000D01*
X-400000Y1450000D02*
X-400000Y1350000D01*
X-350000Y1400000D02*
G75*
G02*
X-450000Y1400000I-50000J0D01*
G01*
X-450000Y1400000D02*
G75*
G02*
X-350000Y1400000I50000J0D01*
G01*
%TO.C,GS10*%
X350000Y1350000D02*
X350000Y1450000D01*
X400000Y1400000D02*
X300000Y1400000D01*
X400000Y1400000D02*
G75*
G02*
X300000Y1400000I-50000J0D01*
G01*
X300000Y1400000D02*
G75*
G02*
X400000Y1400000I50000J0D01*
G01*
D12*
%TO.C,J14*%
X172999Y-1160513D02*
G75*
G02*
X72999Y-1160513I-50000J0D01*
G01*
X72999Y-1160513D02*
G75*
G02*
X172999Y-1160513I50000J0D01*
G01*
D13*
X225999Y-1060513D02*
G75*
G02*
X219999Y-1060513I-3000J0D01*
G01*
X219999Y-1060513D02*
G75*
G02*
X225999Y-1060513I3000J0D01*
G01*
D12*
%TO.C,J9*%
X1154055Y1199663D02*
G75*
G02*
X1054055Y1199663I-50000J0D01*
G01*
X1054055Y1199663D02*
G75*
G02*
X1154055Y1199663I50000J0D01*
G01*
D13*
X1207055Y1299663D02*
G75*
G02*
X1201055Y1299663I-3000J0D01*
G01*
X1201055Y1299663D02*
G75*
G02*
X1207055Y1299663I3000J0D01*
G01*
D12*
%TO.C,J18*%
X-811001Y-1160513D02*
G75*
G02*
X-911001Y-1160513I-50000J0D01*
G01*
X-911001Y-1160513D02*
G75*
G02*
X-811001Y-1160513I50000J0D01*
G01*
D13*
X-758001Y-1060513D02*
G75*
G02*
X-764001Y-1060513I-3000J0D01*
G01*
X-764001Y-1060513D02*
G75*
G02*
X-758001Y-1060513I3000J0D01*
G01*
D12*
%TO.C,J13*%
X418999Y-1160513D02*
G75*
G02*
X318999Y-1160513I-50000J0D01*
G01*
X318999Y-1160513D02*
G75*
G02*
X418999Y-1160513I50000J0D01*
G01*
D13*
X471999Y-1060513D02*
G75*
G02*
X465999Y-1060513I-3000J0D01*
G01*
X465999Y-1060513D02*
G75*
G02*
X471999Y-1060513I3000J0D01*
G01*
%TD*%
M02*
