G04 EAGLE Gerber X2 export*
%TF.Part,Single*%
%TF.FileFunction,Profile,NP*%
%TF.FilePolarity,Positive*%
%TF.GenerationSoftware,Autodesk,EAGLE,9.6.2*%
%TF.CreationDate,2022-05-19T00:38:24Z*%
G75*
%MOMM*%
%FSLAX34Y34*%
%LPD*%
%IN*%
%AMOC8*
5,1,8,0,0,1.08239X$1,22.5*%
G01*
%ADD10C,0.254000*%


D10*
X0Y100300D02*
X30Y99603D01*
X122Y98911D01*
X273Y98229D01*
X482Y97564D01*
X750Y96919D01*
X1072Y96300D01*
X1447Y95711D01*
X1872Y95158D01*
X2343Y94643D01*
X2858Y94172D01*
X3411Y93747D01*
X4000Y93372D01*
X4619Y93050D01*
X5264Y92782D01*
X5929Y92573D01*
X6611Y92422D01*
X7303Y92330D01*
X8000Y92300D01*
X50000Y92300D01*
X50863Y92271D01*
X51721Y92167D01*
X52566Y91989D01*
X53392Y91737D01*
X54193Y91415D01*
X54963Y91024D01*
X55697Y90567D01*
X56387Y90048D01*
X57030Y89471D01*
X57620Y88840D01*
X58152Y88160D01*
X58624Y87437D01*
X59030Y86675D01*
X59369Y85880D01*
X59637Y85059D01*
X59832Y84218D01*
X59954Y83362D01*
X60000Y82500D01*
X60000Y75000D01*
X59962Y74128D01*
X59848Y73264D01*
X59659Y72412D01*
X59397Y71580D01*
X59063Y70774D01*
X58660Y70000D01*
X58192Y69264D01*
X57660Y68572D01*
X57071Y67929D01*
X56428Y67340D01*
X55736Y66808D01*
X55000Y66340D01*
X54226Y65937D01*
X53420Y65603D01*
X52588Y65341D01*
X51736Y65152D01*
X50872Y65038D01*
X50000Y65000D01*
X25000Y65000D01*
X24128Y64962D01*
X23264Y64848D01*
X22412Y64659D01*
X21580Y64397D01*
X20774Y64063D01*
X20000Y63660D01*
X19264Y63192D01*
X18572Y62660D01*
X17929Y62071D01*
X17340Y61428D01*
X16808Y60736D01*
X16340Y60000D01*
X15937Y59226D01*
X15603Y58420D01*
X15341Y57588D01*
X15152Y56736D01*
X15038Y55872D01*
X15000Y55000D01*
X15000Y25000D01*
X15095Y22821D01*
X15380Y20659D01*
X15852Y18530D01*
X16508Y16450D01*
X17342Y14435D01*
X18349Y12500D01*
X19521Y10661D01*
X20849Y8930D01*
X22322Y7322D01*
X23930Y5849D01*
X25661Y4521D01*
X27500Y3349D01*
X29435Y2342D01*
X31450Y1508D01*
X33530Y852D01*
X35659Y380D01*
X37821Y95D01*
X40000Y0D01*
X240000Y0D01*
X242179Y95D01*
X244341Y380D01*
X246470Y852D01*
X248551Y1508D01*
X250565Y2342D01*
X252500Y3349D01*
X254339Y4521D01*
X256070Y5849D01*
X257678Y7322D01*
X259151Y8930D01*
X260479Y10661D01*
X261651Y12500D01*
X262658Y14435D01*
X263492Y16450D01*
X264148Y18530D01*
X264620Y20659D01*
X264905Y22821D01*
X265000Y25000D01*
X265000Y225000D01*
X264905Y227179D01*
X264620Y229341D01*
X264148Y231470D01*
X263492Y233551D01*
X262658Y235565D01*
X261651Y237500D01*
X260479Y239339D01*
X259151Y241070D01*
X257678Y242678D01*
X256070Y244151D01*
X254339Y245479D01*
X252500Y246651D01*
X250565Y247658D01*
X248551Y248492D01*
X246470Y249148D01*
X244341Y249620D01*
X242179Y249905D01*
X240000Y250000D01*
X90000Y250000D01*
X89564Y249981D01*
X89132Y249924D01*
X88706Y249830D01*
X88290Y249698D01*
X87887Y249532D01*
X87500Y249330D01*
X87132Y249096D01*
X86786Y248830D01*
X86464Y248536D01*
X86170Y248214D01*
X85904Y247868D01*
X85670Y247500D01*
X85468Y247113D01*
X85302Y246710D01*
X85170Y246294D01*
X85076Y245868D01*
X85019Y245436D01*
X85000Y245000D01*
X84962Y244128D01*
X84848Y243264D01*
X84659Y242412D01*
X84397Y241580D01*
X84063Y240774D01*
X83660Y240000D01*
X83192Y239264D01*
X82660Y238572D01*
X82071Y237929D01*
X81428Y237340D01*
X80736Y236808D01*
X80000Y236340D01*
X79226Y235937D01*
X78420Y235603D01*
X77588Y235341D01*
X76736Y235152D01*
X75872Y235038D01*
X75000Y235000D01*
X74128Y235038D01*
X73264Y235152D01*
X72412Y235341D01*
X71580Y235603D01*
X70774Y235937D01*
X70000Y236340D01*
X69264Y236808D01*
X68572Y237340D01*
X67929Y237929D01*
X67340Y238572D01*
X66808Y239264D01*
X66340Y240000D01*
X65937Y240774D01*
X65603Y241580D01*
X65341Y242412D01*
X65152Y243264D01*
X65038Y244128D01*
X65000Y245000D01*
X64981Y245436D01*
X64924Y245868D01*
X64830Y246294D01*
X64698Y246710D01*
X64532Y247113D01*
X64330Y247500D01*
X64096Y247868D01*
X63830Y248214D01*
X63536Y248536D01*
X63214Y248830D01*
X62868Y249096D01*
X62500Y249330D01*
X62113Y249532D01*
X61710Y249698D01*
X61294Y249830D01*
X60868Y249924D01*
X60436Y249981D01*
X60000Y250000D01*
X40000Y250000D01*
X37821Y249905D01*
X35659Y249620D01*
X33530Y249148D01*
X31450Y248492D01*
X29435Y247658D01*
X27500Y246651D01*
X25661Y245479D01*
X23930Y244151D01*
X22322Y242678D01*
X20849Y241070D01*
X19521Y239339D01*
X18349Y237500D01*
X17342Y235565D01*
X16508Y233551D01*
X15852Y231470D01*
X15380Y229341D01*
X15095Y227179D01*
X15000Y225000D01*
X15000Y195000D01*
X15038Y194128D01*
X15152Y193264D01*
X15341Y192412D01*
X15603Y191580D01*
X15937Y190774D01*
X16340Y190000D01*
X16808Y189264D01*
X17340Y188572D01*
X17929Y187929D01*
X18572Y187340D01*
X19264Y186808D01*
X20000Y186340D01*
X20774Y185937D01*
X21580Y185603D01*
X22412Y185341D01*
X23264Y185152D01*
X24128Y185038D01*
X25000Y185000D01*
X50000Y185000D01*
X50872Y184962D01*
X51736Y184848D01*
X52588Y184659D01*
X53420Y184397D01*
X54226Y184063D01*
X55000Y183660D01*
X55736Y183192D01*
X56428Y182660D01*
X57071Y182071D01*
X57660Y181428D01*
X58192Y180736D01*
X58660Y180000D01*
X59063Y179226D01*
X59397Y178420D01*
X59659Y177588D01*
X59848Y176736D01*
X59962Y175872D01*
X60000Y175000D01*
X60000Y167500D01*
X59954Y166638D01*
X59832Y165782D01*
X59637Y164941D01*
X59369Y164120D01*
X59030Y163325D01*
X58624Y162563D01*
X58152Y161840D01*
X57620Y161160D01*
X57030Y160529D01*
X56387Y159952D01*
X55697Y159433D01*
X54963Y158976D01*
X54193Y158585D01*
X53392Y158263D01*
X52566Y158011D01*
X51721Y157833D01*
X50863Y157729D01*
X50000Y157700D01*
X8000Y157700D01*
X7303Y157670D01*
X6611Y157578D01*
X5929Y157427D01*
X5264Y157218D01*
X4619Y156950D01*
X4000Y156628D01*
X3411Y156253D01*
X2858Y155828D01*
X2343Y155357D01*
X1872Y154842D01*
X1447Y154289D01*
X1072Y153700D01*
X750Y153081D01*
X482Y152436D01*
X273Y151771D01*
X122Y151089D01*
X30Y150397D01*
X0Y149700D01*
X0Y100300D01*
X26500Y150000D02*
X26513Y149695D01*
X26553Y149392D01*
X26619Y149094D01*
X26711Y148803D01*
X26828Y148521D01*
X26969Y148250D01*
X27133Y147992D01*
X27319Y147750D01*
X27525Y147525D01*
X27750Y147319D01*
X27992Y147133D01*
X28250Y146969D01*
X28521Y146828D01*
X28803Y146711D01*
X29094Y146619D01*
X29392Y146553D01*
X29695Y146513D01*
X30000Y146500D01*
X37000Y146500D01*
X37305Y146513D01*
X37608Y146553D01*
X37906Y146619D01*
X38197Y146711D01*
X38479Y146828D01*
X38750Y146969D01*
X39008Y147133D01*
X39250Y147319D01*
X39475Y147525D01*
X39681Y147750D01*
X39867Y147992D01*
X40031Y148250D01*
X40172Y148521D01*
X40289Y148803D01*
X40381Y149094D01*
X40447Y149392D01*
X40487Y149695D01*
X40500Y150000D01*
X40487Y150305D01*
X40447Y150608D01*
X40381Y150906D01*
X40289Y151197D01*
X40172Y151479D01*
X40031Y151750D01*
X39867Y152008D01*
X39681Y152250D01*
X39475Y152475D01*
X39250Y152681D01*
X39008Y152867D01*
X38750Y153031D01*
X38479Y153172D01*
X38197Y153289D01*
X37906Y153381D01*
X37608Y153447D01*
X37305Y153487D01*
X37000Y153500D01*
X30000Y153500D01*
X29695Y153487D01*
X29392Y153447D01*
X29094Y153381D01*
X28803Y153289D01*
X28521Y153172D01*
X28250Y153031D01*
X27992Y152867D01*
X27750Y152681D01*
X27525Y152475D01*
X27319Y152250D01*
X27133Y152008D01*
X26969Y151750D01*
X26828Y151479D01*
X26711Y151197D01*
X26619Y150906D01*
X26553Y150608D01*
X26513Y150305D01*
X26500Y150000D01*
X26500Y100000D02*
X26513Y99695D01*
X26553Y99392D01*
X26619Y99094D01*
X26711Y98803D01*
X26828Y98521D01*
X26969Y98250D01*
X27133Y97992D01*
X27319Y97750D01*
X27525Y97525D01*
X27750Y97319D01*
X27992Y97133D01*
X28250Y96969D01*
X28521Y96828D01*
X28803Y96711D01*
X29094Y96619D01*
X29392Y96553D01*
X29695Y96513D01*
X30000Y96500D01*
X37000Y96500D01*
X37305Y96513D01*
X37608Y96553D01*
X37906Y96619D01*
X38197Y96711D01*
X38479Y96828D01*
X38750Y96969D01*
X39008Y97133D01*
X39250Y97319D01*
X39475Y97525D01*
X39681Y97750D01*
X39867Y97992D01*
X40031Y98250D01*
X40172Y98521D01*
X40289Y98803D01*
X40381Y99094D01*
X40447Y99392D01*
X40487Y99695D01*
X40500Y100000D01*
X40487Y100305D01*
X40447Y100608D01*
X40381Y100906D01*
X40289Y101197D01*
X40172Y101479D01*
X40031Y101750D01*
X39867Y102008D01*
X39681Y102250D01*
X39475Y102475D01*
X39250Y102681D01*
X39008Y102867D01*
X38750Y103031D01*
X38479Y103172D01*
X38197Y103289D01*
X37906Y103381D01*
X37608Y103447D01*
X37305Y103487D01*
X37000Y103500D01*
X30000Y103500D01*
X29695Y103487D01*
X29392Y103447D01*
X29094Y103381D01*
X28803Y103289D01*
X28521Y103172D01*
X28250Y103031D01*
X27992Y102867D01*
X27750Y102681D01*
X27525Y102475D01*
X27319Y102250D01*
X27133Y102008D01*
X26969Y101750D01*
X26828Y101479D01*
X26711Y101197D01*
X26619Y100906D01*
X26553Y100608D01*
X26513Y100305D01*
X26500Y100000D01*
X113538Y100584D02*
X113553Y100252D01*
X113596Y99922D01*
X113668Y99598D01*
X113768Y99281D01*
X113895Y98974D01*
X114048Y98679D01*
X114227Y98399D01*
X114429Y98135D01*
X114654Y97890D01*
X114899Y97665D01*
X115163Y97463D01*
X115443Y97284D01*
X115738Y97131D01*
X116045Y97004D01*
X116362Y96904D01*
X116686Y96832D01*
X117016Y96789D01*
X117348Y96774D01*
X130302Y96774D01*
X130568Y96786D01*
X130831Y96820D01*
X131091Y96878D01*
X131344Y96958D01*
X131590Y97060D01*
X131826Y97182D01*
X132050Y97325D01*
X132261Y97487D01*
X132457Y97667D01*
X132637Y97863D01*
X132799Y98074D01*
X132942Y98298D01*
X133064Y98534D01*
X133166Y98780D01*
X133246Y99033D01*
X133304Y99293D01*
X133338Y99556D01*
X133350Y99822D01*
X133350Y100584D01*
X133338Y100850D01*
X133304Y101113D01*
X133246Y101373D01*
X133166Y101626D01*
X133064Y101872D01*
X132942Y102108D01*
X132799Y102332D01*
X132637Y102543D01*
X132457Y102739D01*
X132261Y102919D01*
X132050Y103081D01*
X131826Y103224D01*
X131590Y103346D01*
X131344Y103448D01*
X131091Y103528D01*
X130831Y103586D01*
X130568Y103620D01*
X130302Y103632D01*
X123444Y103632D01*
X123245Y103641D01*
X123047Y103667D01*
X122852Y103710D01*
X122662Y103770D01*
X122478Y103846D01*
X122301Y103938D01*
X122133Y104045D01*
X121975Y104167D01*
X121828Y104302D01*
X121693Y104449D01*
X121571Y104607D01*
X121464Y104775D01*
X121372Y104952D01*
X121296Y105136D01*
X121236Y105326D01*
X121193Y105521D01*
X121167Y105719D01*
X121158Y105918D01*
X121158Y144018D01*
X121167Y144217D01*
X121193Y144415D01*
X121236Y144610D01*
X121296Y144800D01*
X121372Y144984D01*
X121464Y145161D01*
X121571Y145329D01*
X121693Y145487D01*
X121828Y145634D01*
X121975Y145769D01*
X122133Y145891D01*
X122301Y145998D01*
X122478Y146090D01*
X122662Y146166D01*
X122852Y146226D01*
X123047Y146269D01*
X123245Y146295D01*
X123444Y146304D01*
X128778Y146304D01*
X129110Y146319D01*
X129440Y146362D01*
X129764Y146434D01*
X130081Y146534D01*
X130388Y146661D01*
X130683Y146814D01*
X130963Y146993D01*
X131227Y147195D01*
X131472Y147420D01*
X131697Y147665D01*
X131899Y147929D01*
X132078Y148209D01*
X132231Y148504D01*
X132358Y148811D01*
X132458Y149128D01*
X132530Y149452D01*
X132574Y149782D01*
X132588Y150114D01*
X132574Y150446D01*
X132530Y150776D01*
X132458Y151100D01*
X132358Y151417D01*
X132231Y151724D01*
X132078Y152019D01*
X131899Y152299D01*
X131697Y152563D01*
X131472Y152808D01*
X131227Y153033D01*
X130963Y153235D01*
X130683Y153414D01*
X130388Y153567D01*
X130081Y153694D01*
X129764Y153794D01*
X129440Y153866D01*
X129110Y153910D01*
X128778Y153924D01*
X118110Y153924D01*
X117712Y153907D01*
X117316Y153855D01*
X116927Y153768D01*
X116546Y153648D01*
X116178Y153496D01*
X115824Y153311D01*
X115488Y153097D01*
X115171Y152854D01*
X114877Y152585D01*
X114608Y152291D01*
X114365Y151974D01*
X114151Y151638D01*
X113966Y151284D01*
X113814Y150916D01*
X113694Y150535D01*
X113607Y150146D01*
X113555Y149750D01*
X113538Y149352D01*
X113538Y100584D01*
X146304Y99822D02*
X146316Y99556D01*
X146350Y99293D01*
X146408Y99033D01*
X146488Y98780D01*
X146590Y98534D01*
X146712Y98298D01*
X146855Y98074D01*
X147017Y97863D01*
X147197Y97667D01*
X147393Y97487D01*
X147604Y97325D01*
X147828Y97182D01*
X148064Y97060D01*
X148310Y96958D01*
X148563Y96878D01*
X148823Y96820D01*
X149086Y96786D01*
X149352Y96774D01*
X162306Y96774D01*
X162638Y96789D01*
X162968Y96832D01*
X163292Y96904D01*
X163609Y97004D01*
X163916Y97131D01*
X164211Y97284D01*
X164491Y97463D01*
X164755Y97665D01*
X165000Y97890D01*
X165225Y98135D01*
X165427Y98399D01*
X165606Y98679D01*
X165759Y98974D01*
X165886Y99281D01*
X165986Y99598D01*
X166058Y99922D01*
X166102Y100252D01*
X166116Y100584D01*
X166116Y150876D01*
X166104Y151142D01*
X166070Y151405D01*
X166012Y151665D01*
X165932Y151918D01*
X165830Y152164D01*
X165708Y152400D01*
X165565Y152624D01*
X165403Y152835D01*
X165223Y153031D01*
X165027Y153211D01*
X164816Y153373D01*
X164592Y153516D01*
X164356Y153638D01*
X164110Y153740D01*
X163857Y153820D01*
X163597Y153878D01*
X163334Y153912D01*
X163068Y153924D01*
X150876Y153924D01*
X150544Y153910D01*
X150214Y153866D01*
X149890Y153794D01*
X149573Y153694D01*
X149266Y153567D01*
X148971Y153414D01*
X148691Y153235D01*
X148427Y153033D01*
X148182Y152808D01*
X147957Y152563D01*
X147755Y152299D01*
X147576Y152019D01*
X147423Y151724D01*
X147296Y151417D01*
X147196Y151100D01*
X147124Y150776D01*
X147081Y150446D01*
X147066Y150114D01*
X147081Y149782D01*
X147124Y149452D01*
X147196Y149128D01*
X147296Y148811D01*
X147423Y148504D01*
X147576Y148209D01*
X147755Y147929D01*
X147957Y147665D01*
X148182Y147420D01*
X148427Y147195D01*
X148691Y146993D01*
X148971Y146814D01*
X149266Y146661D01*
X149573Y146534D01*
X149890Y146434D01*
X150214Y146362D01*
X150544Y146319D01*
X150876Y146304D01*
X156210Y146304D01*
X156476Y146292D01*
X156739Y146258D01*
X156999Y146200D01*
X157252Y146120D01*
X157498Y146018D01*
X157734Y145896D01*
X157958Y145753D01*
X158169Y145591D01*
X158365Y145411D01*
X158545Y145215D01*
X158707Y145004D01*
X158850Y144780D01*
X158972Y144544D01*
X159074Y144298D01*
X159154Y144045D01*
X159212Y143785D01*
X159246Y143522D01*
X159258Y143256D01*
X159258Y106680D01*
X159246Y106414D01*
X159212Y106151D01*
X159154Y105891D01*
X159074Y105638D01*
X158972Y105392D01*
X158850Y105156D01*
X158707Y104932D01*
X158545Y104721D01*
X158365Y104525D01*
X158169Y104345D01*
X157958Y104183D01*
X157734Y104040D01*
X157498Y103918D01*
X157252Y103816D01*
X156999Y103736D01*
X156739Y103678D01*
X156476Y103644D01*
X156210Y103632D01*
X149352Y103632D01*
X149086Y103620D01*
X148823Y103586D01*
X148563Y103528D01*
X148310Y103448D01*
X148064Y103346D01*
X147828Y103224D01*
X147604Y103081D01*
X147393Y102919D01*
X147197Y102739D01*
X147017Y102543D01*
X146855Y102332D01*
X146712Y102108D01*
X146590Y101872D01*
X146488Y101626D01*
X146408Y101373D01*
X146350Y101113D01*
X146316Y100850D01*
X146304Y100584D01*
X146304Y99822D01*
M02*
