G04 EAGLE Gerber X2 export*
%TF.Part,Single*%
%TF.FileFunction,Copper,L1,Top,Mixed*%
%TF.FilePolarity,Positive*%
%TF.GenerationSoftware,Autodesk,EAGLE,9.6.2*%
%TF.CreationDate,2022-05-19T00:38:24Z*%
G75*
%MOMM*%
%FSLAX34Y34*%
%LPD*%
%INTop Copper*%
%AMOC8*
5,1,8,0,0,1.08239X$1,22.5*%
G01*
%ADD10R,0.700000X0.600000*%
%ADD11R,0.800000X0.900000*%
%ADD12C,0.863600*%
%ADD13R,0.863600X0.863600*%
%ADD14R,0.800000X0.700000*%
%ADD15C,0.720000*%
%ADD16C,1.100000*%
%ADD17C,0.558800*%
%ADD18R,1.100000X1.000000*%
%ADD19R,1.000000X1.400000*%
%ADD20R,1.475000X0.450000*%
%ADD21C,4.400000*%
%ADD22R,0.250000X0.550000*%
%ADD23R,1.700000X1.000000*%
%ADD24R,0.600000X0.700000*%
%ADD25R,1.524000X1.524000*%
%ADD26C,1.524000*%
%ADD27R,1.270000X0.635000*%
%ADD28R,0.254000X0.406400*%
%ADD29R,2.000000X1.200000*%
%ADD30R,1.350000X0.600000*%
%ADD31C,0.152400*%
%ADD32C,0.604000*%
%ADD33C,0.304800*%

G36*
X61006Y224011D02*
X61006Y224011D01*
X61128Y224009D01*
X61147Y224014D01*
X61167Y224015D01*
X61283Y224052D01*
X61400Y224084D01*
X61417Y224095D01*
X61435Y224101D01*
X61536Y224168D01*
X61640Y224232D01*
X61653Y224247D01*
X61669Y224258D01*
X61747Y224351D01*
X61829Y224442D01*
X61837Y224459D01*
X61850Y224475D01*
X61899Y224586D01*
X61952Y224695D01*
X61955Y224714D01*
X61963Y224733D01*
X61989Y224935D01*
X61999Y225000D01*
X61999Y246000D01*
X61990Y246062D01*
X61991Y246112D01*
X61991Y246113D01*
X61991Y246128D01*
X61970Y246203D01*
X61959Y246279D01*
X61933Y246338D01*
X61916Y246400D01*
X61875Y246466D01*
X61843Y246536D01*
X61801Y246585D01*
X61768Y246640D01*
X61710Y246692D01*
X61660Y246750D01*
X61606Y246786D01*
X61558Y246829D01*
X61489Y246862D01*
X61424Y246905D01*
X61362Y246924D01*
X61305Y246952D01*
X61235Y246963D01*
X61154Y246987D01*
X61069Y246988D01*
X61000Y246999D01*
X40000Y246999D01*
X39871Y246981D01*
X39742Y246965D01*
X39732Y246961D01*
X39721Y246959D01*
X39602Y246906D01*
X39482Y246855D01*
X39474Y246848D01*
X39464Y246843D01*
X39365Y246759D01*
X39264Y246676D01*
X39258Y246667D01*
X39250Y246660D01*
X39178Y246551D01*
X39104Y246443D01*
X39101Y246433D01*
X39095Y246424D01*
X39057Y246299D01*
X39016Y246175D01*
X39016Y246165D01*
X39013Y246154D01*
X39011Y246024D01*
X39006Y245894D01*
X39009Y245883D01*
X39009Y245872D01*
X39044Y245746D01*
X39076Y245620D01*
X39081Y245611D01*
X39084Y245600D01*
X39153Y245489D01*
X39219Y245377D01*
X39226Y245370D01*
X39232Y245360D01*
X39442Y245171D01*
X39444Y245170D01*
X39446Y245169D01*
X51287Y237274D01*
X60178Y224431D01*
X60261Y224342D01*
X60340Y224250D01*
X60357Y224239D01*
X60370Y224224D01*
X60474Y224162D01*
X60576Y224095D01*
X60595Y224089D01*
X60612Y224079D01*
X60730Y224048D01*
X60846Y224013D01*
X60866Y224012D01*
X60885Y224007D01*
X61006Y224011D01*
G37*
G36*
X40007Y203002D02*
X40007Y203002D01*
X40015Y203001D01*
X40148Y203022D01*
X40279Y203041D01*
X40286Y203044D01*
X40293Y203045D01*
X40415Y203102D01*
X40536Y203157D01*
X40542Y203162D01*
X40549Y203165D01*
X40650Y203254D01*
X40750Y203340D01*
X40754Y203346D01*
X40760Y203351D01*
X40831Y203464D01*
X40905Y203576D01*
X40907Y203583D01*
X40911Y203590D01*
X40948Y203717D01*
X40987Y203846D01*
X40987Y203853D01*
X40989Y203860D01*
X40989Y203994D01*
X40991Y204128D01*
X40989Y204135D01*
X40989Y204142D01*
X40952Y204270D01*
X40916Y204400D01*
X40912Y204406D01*
X40910Y204413D01*
X40838Y204526D01*
X40768Y204640D01*
X40762Y204645D01*
X40758Y204651D01*
X40704Y204697D01*
X40558Y204829D01*
X40539Y204838D01*
X40524Y204851D01*
X27726Y212726D01*
X19851Y225524D01*
X19846Y225530D01*
X19843Y225536D01*
X19801Y225585D01*
X19777Y225624D01*
X19739Y225659D01*
X19671Y225741D01*
X19665Y225745D01*
X19660Y225750D01*
X19578Y225804D01*
X19568Y225813D01*
X19554Y225820D01*
X19547Y225824D01*
X19437Y225899D01*
X19430Y225901D01*
X19424Y225905D01*
X19296Y225944D01*
X19169Y225985D01*
X19161Y225985D01*
X19154Y225987D01*
X19021Y225989D01*
X18887Y225993D01*
X18880Y225991D01*
X18872Y225991D01*
X18743Y225955D01*
X18614Y225922D01*
X18608Y225918D01*
X18600Y225916D01*
X18486Y225845D01*
X18372Y225777D01*
X18367Y225772D01*
X18360Y225768D01*
X18271Y225668D01*
X18180Y225571D01*
X18176Y225564D01*
X18171Y225558D01*
X18113Y225438D01*
X18107Y225427D01*
X18095Y225408D01*
X18091Y225394D01*
X18053Y225319D01*
X18052Y225311D01*
X18048Y225305D01*
X18038Y225236D01*
X18030Y225195D01*
X18013Y225138D01*
X18012Y225099D01*
X18002Y225041D01*
X18004Y225019D01*
X18001Y225000D01*
X18001Y204000D01*
X18010Y203936D01*
X18009Y203872D01*
X18030Y203797D01*
X18041Y203721D01*
X18067Y203662D01*
X18084Y203600D01*
X18125Y203534D01*
X18157Y203464D01*
X18199Y203415D01*
X18232Y203360D01*
X18290Y203308D01*
X18340Y203250D01*
X18394Y203214D01*
X18442Y203171D01*
X18511Y203138D01*
X18576Y203095D01*
X18638Y203076D01*
X18695Y203048D01*
X18765Y203037D01*
X18846Y203013D01*
X18931Y203012D01*
X19000Y203001D01*
X40000Y203001D01*
X40007Y203002D01*
G37*
D10*
X112112Y215260D03*
X112112Y225260D03*
X89504Y61766D03*
X89504Y51766D03*
X140000Y197500D03*
X140000Y187500D03*
X165000Y187500D03*
X165000Y197500D03*
X152500Y187500D03*
X152500Y197500D03*
D11*
X100404Y227762D03*
X81404Y227762D03*
X90904Y206762D03*
D12*
X177638Y240626D03*
X177638Y224878D03*
X164938Y240626D03*
D13*
X164938Y224878D03*
D12*
X190338Y224878D03*
D14*
X76500Y119500D03*
X76500Y130500D03*
X93500Y119500D03*
X93500Y130500D03*
D10*
X77000Y69238D03*
X77000Y79238D03*
D15*
X49400Y136800D02*
X49400Y138600D01*
X49400Y136800D02*
X15600Y136800D01*
X15600Y138600D01*
X49400Y138600D01*
X49400Y125900D02*
X49400Y124100D01*
X10600Y124100D01*
X10600Y125900D01*
X49400Y125900D01*
X49400Y113200D02*
X49400Y111400D01*
X10600Y111400D01*
X10600Y113200D01*
X49400Y113200D01*
D16*
X54500Y112300D03*
X54500Y125000D03*
X54500Y137700D03*
D17*
X23500Y125000D03*
D18*
X85000Y108500D03*
X85000Y91500D03*
X85000Y144000D03*
X85000Y161000D03*
D19*
X111968Y199014D03*
X121468Y177014D03*
X102468Y177014D03*
D20*
X105562Y78562D03*
X105562Y72062D03*
X105562Y65562D03*
X105562Y59062D03*
X105562Y52562D03*
X105562Y46062D03*
X105562Y39562D03*
X105562Y33062D03*
X105562Y26562D03*
X105562Y20062D03*
X164322Y20062D03*
X164322Y26562D03*
X164322Y33062D03*
X164322Y39562D03*
X164322Y46062D03*
X164322Y52562D03*
X164322Y59062D03*
X164322Y65562D03*
X164322Y72062D03*
X164322Y78562D03*
D21*
X40000Y225000D03*
X40000Y25000D03*
X240000Y25000D03*
X240000Y225000D03*
D22*
X147500Y136750D03*
X142500Y136750D03*
X137500Y136750D03*
X132500Y136750D03*
X147500Y113250D03*
X142500Y113250D03*
X137500Y113250D03*
X132500Y113250D03*
D23*
X140000Y125000D03*
D24*
X135000Y90000D03*
X145000Y90000D03*
X154920Y161212D03*
X164920Y161212D03*
X124786Y161524D03*
X114786Y161524D03*
D25*
X189812Y175762D03*
D26*
X189812Y150362D03*
X189812Y124962D03*
X189812Y99562D03*
X189812Y74162D03*
D27*
X219906Y81464D03*
X219906Y71304D03*
X219906Y61144D03*
D28*
X219906Y66224D03*
D27*
X240000Y81564D03*
X240000Y73436D03*
D29*
X255750Y97000D03*
X255750Y153000D03*
D30*
X219000Y110000D03*
X219000Y120000D03*
X219000Y130000D03*
X219000Y140000D03*
D31*
X90300Y52562D02*
X89504Y51766D01*
X90300Y52562D02*
X105562Y52562D01*
X89504Y51766D02*
X86440Y48702D01*
X86440Y43006D01*
D32*
X86440Y43006D03*
D31*
X54500Y125000D02*
X30000Y125000D01*
X23500Y125000D01*
X142500Y113250D02*
X142500Y105988D01*
X141492Y104980D01*
X141492Y93508D02*
X145000Y90000D01*
X141492Y93508D02*
X141492Y104980D01*
X142500Y113250D02*
X142500Y122500D01*
X141250Y123750D01*
X140000Y125000D01*
X147500Y125000D02*
X147500Y113250D01*
X147500Y125000D02*
X142500Y125000D01*
X141250Y123750D01*
X142500Y122500D02*
X142500Y136750D01*
X142500Y113250D02*
X147500Y113250D01*
X145000Y90000D02*
X145000Y81754D01*
X144780Y81534D01*
D32*
X144780Y81534D03*
D31*
X111760Y225552D02*
X102616Y225552D01*
X100584Y227584D01*
X111760Y225552D02*
X112112Y225260D01*
X100584Y227584D02*
X100404Y227762D01*
X165100Y203200D02*
X165100Y197612D01*
X165100Y203200D02*
X177292Y215392D01*
X177292Y224536D01*
X165100Y197612D02*
X165000Y197500D01*
X177292Y224536D02*
X177638Y224878D01*
X143256Y225044D02*
X112776Y225044D01*
X143256Y225044D02*
X165100Y203200D01*
X112776Y225044D02*
X112112Y225260D01*
X204216Y110236D02*
X218948Y110236D01*
X204216Y110236D02*
X189992Y124460D01*
X218948Y110236D02*
X219000Y110000D01*
X189992Y124460D02*
X189812Y124962D01*
X102616Y177292D02*
X102616Y188468D01*
X102616Y177292D02*
X102468Y177014D01*
D17*
X102616Y188468D03*
D31*
X91970Y61766D02*
X89504Y61766D01*
X91970Y61766D02*
X94942Y58794D01*
X105294Y58794D01*
X105562Y59062D01*
X135408Y108468D02*
X135972Y108468D01*
X138698Y105742D01*
X132500Y111376D02*
X132500Y113250D01*
X132500Y111376D02*
X135408Y108468D01*
X138698Y93698D02*
X135000Y90000D01*
X138698Y93698D02*
X138698Y105742D01*
X114808Y161544D02*
X114808Y166116D01*
X121412Y172720D01*
X121412Y176784D01*
X114808Y161544D02*
X114786Y161524D01*
X121412Y176784D02*
X121468Y177014D01*
X153924Y172212D02*
X164592Y161544D01*
X153924Y172212D02*
X121920Y172212D01*
X164592Y161544D02*
X164920Y161212D01*
X121920Y172212D02*
X121468Y177014D01*
X76200Y130048D02*
X68580Y122428D01*
X68580Y68072D01*
X74676Y61976D01*
X88900Y61976D01*
X76200Y130048D02*
X76500Y130500D01*
X88900Y61976D02*
X89504Y61766D01*
X118872Y73660D02*
X126238Y81026D01*
X134620Y89408D01*
X118872Y73660D02*
X118872Y66040D01*
X112268Y59436D01*
X106172Y59436D01*
X134620Y89408D02*
X135000Y90000D01*
X106172Y59436D02*
X105562Y59062D01*
X114300Y157480D02*
X114300Y161036D01*
X114300Y157480D02*
X109728Y152908D01*
X109728Y97536D01*
X126238Y81026D01*
X114300Y161036D02*
X114786Y161524D01*
X219964Y81280D02*
X227584Y81280D01*
X235204Y73660D01*
X239776Y73660D01*
X219964Y81280D02*
X219906Y81464D01*
X239776Y73660D02*
X240000Y73436D01*
X221996Y119888D02*
X219456Y119888D01*
X221996Y119888D02*
X229108Y112776D01*
X229108Y82804D01*
X227584Y81280D01*
X219456Y119888D02*
X219000Y120000D01*
X84836Y228092D02*
X81788Y228092D01*
X84836Y228092D02*
X94488Y237744D01*
X151892Y237744D01*
X164592Y225044D01*
X81788Y228092D02*
X81404Y227762D01*
X164592Y225044D02*
X164938Y224878D01*
X228092Y125984D02*
X222504Y120396D01*
X228092Y125984D02*
X228092Y188468D01*
X204216Y212344D02*
X197104Y219456D01*
X204216Y212344D02*
X228092Y188468D01*
X197104Y219456D02*
X197104Y227584D01*
X193040Y231648D01*
X172212Y231648D01*
X165608Y225044D01*
X219000Y120000D02*
X222504Y120396D01*
X165608Y225044D02*
X164938Y224878D01*
X168148Y170180D02*
X162560Y164592D01*
X168148Y170180D02*
X168656Y170180D01*
X177800Y179324D02*
X177800Y185928D01*
X204216Y212344D01*
X162560Y164592D02*
X164920Y161212D01*
D17*
X168656Y170180D03*
X177800Y179324D03*
D31*
X164084Y66040D02*
X157480Y66040D01*
X154432Y69088D01*
X154432Y81788D01*
X171196Y98552D01*
X171196Y153924D01*
X183896Y161036D02*
X193548Y161036D01*
X199644Y167132D01*
X199644Y188468D01*
X193548Y194564D01*
X186436Y201676D02*
X176276Y201676D01*
X173736Y204216D01*
X164084Y66040D02*
X164322Y65562D01*
D17*
X171196Y153924D03*
X183896Y161036D03*
X193548Y194564D03*
X186436Y201676D03*
X173736Y204216D03*
D31*
X170688Y72136D02*
X164592Y72136D01*
X170688Y72136D02*
X179832Y81280D01*
X179832Y103632D01*
X185420Y109220D01*
X201168Y109220D01*
X207772Y102616D01*
X224028Y102616D01*
X234188Y112776D02*
X234188Y186436D01*
X200152Y220472D01*
X200152Y228600D01*
X188468Y240284D01*
X177800Y240284D01*
X164592Y72136D02*
X164322Y72062D01*
X177800Y240284D02*
X177638Y240626D01*
D17*
X224028Y102616D03*
X234188Y112776D03*
D31*
X111760Y46228D02*
X105664Y46228D01*
X111760Y46228D02*
X123444Y57912D01*
X123444Y63500D01*
X85344Y117856D02*
X85344Y132080D01*
X80772Y136652D01*
X78740Y136652D01*
X75184Y140208D01*
X75184Y157988D01*
X72644Y171704D02*
X72644Y193040D01*
X82804Y203200D01*
X75692Y210312D02*
X93980Y228600D01*
X93980Y233172D01*
X95504Y234696D01*
X143256Y234696D01*
X160528Y217424D01*
X172212Y217424D01*
X179324Y213360D02*
X179324Y210312D01*
X179324Y213360D02*
X190500Y224536D01*
X105664Y46228D02*
X105562Y46062D01*
X190500Y224536D02*
X190338Y224878D01*
D17*
X123444Y63500D03*
X85344Y117856D03*
X75184Y157988D03*
X72644Y171704D03*
X82804Y203200D03*
X75692Y210312D03*
X172212Y217424D03*
X179324Y210312D03*
D31*
X164322Y85074D02*
X164322Y78562D01*
X164322Y85074D02*
X176022Y96774D01*
X176022Y169926D01*
X170688Y175260D02*
X137160Y175260D01*
X130302Y182118D01*
X127884Y199014D02*
X111968Y199014D01*
X170688Y175260D02*
X176022Y169926D01*
X130302Y182118D02*
X130302Y196596D01*
X127884Y199014D01*
X139096Y196596D02*
X140000Y197500D01*
X139096Y196596D02*
X130302Y196596D01*
X140208Y187452D02*
X152400Y187452D01*
X140208Y187452D02*
X140000Y187500D01*
X152400Y187452D02*
X152500Y187500D01*
X152908Y187452D02*
X164592Y187452D01*
X165000Y187500D01*
X152908Y187452D02*
X152500Y187500D01*
X64008Y200992D02*
X40000Y225000D01*
X64008Y147208D02*
X61270Y144470D01*
X54500Y137700D01*
X64008Y178308D02*
X64008Y200992D01*
X64008Y178308D02*
X64008Y147208D01*
X149352Y197612D02*
X152400Y197612D01*
X149352Y197612D02*
X138684Y208280D01*
X100076Y208280D01*
X91948Y216408D02*
X88900Y216408D01*
X73660Y201168D01*
X64516Y201168D01*
X152400Y197612D02*
X152500Y197500D01*
X64516Y201168D02*
X64008Y200992D01*
X54864Y103632D02*
X45212Y103632D01*
X54864Y103632D02*
X58928Y99568D01*
X76708Y100076D02*
X93472Y100076D01*
X102616Y109220D01*
X102616Y161544D01*
X94996Y169164D01*
X94996Y199136D01*
X99568Y203708D01*
X99568Y207772D01*
X100076Y208280D01*
D17*
X100076Y208280D03*
X91948Y216408D03*
X45212Y103632D03*
X58928Y99568D03*
X76708Y100076D03*
D33*
X63126Y48126D02*
X40000Y25000D01*
X63126Y48126D02*
X64770Y49770D01*
X64770Y102030D02*
X54500Y112300D01*
X64770Y102030D02*
X64770Y49770D01*
X98552Y214884D02*
X111760Y214884D01*
X98552Y214884D02*
X90932Y207264D01*
X111760Y214884D02*
X112112Y215260D01*
X90932Y207264D02*
X90904Y206762D01*
X219456Y60960D02*
X173228Y14732D01*
X96520Y14732D01*
X63126Y48126D01*
X219456Y60960D02*
X219906Y61144D01*
X89916Y180848D02*
X89916Y205740D01*
X89916Y180848D02*
X67564Y158496D01*
X67564Y126492D01*
X62992Y121920D01*
X62992Y120904D01*
X55372Y113284D01*
X89916Y205740D02*
X90904Y206762D01*
X55372Y113284D02*
X54500Y112300D01*
X53340Y112268D02*
X30480Y112268D01*
X30000Y112300D01*
X53340Y112268D02*
X54500Y112300D01*
D31*
X76708Y92964D02*
X76708Y79248D01*
X76708Y92964D02*
X71628Y98044D01*
X71628Y114808D01*
X76200Y119380D01*
X76708Y79248D02*
X77000Y79238D01*
X76200Y119380D02*
X76500Y119500D01*
X93472Y119380D02*
X93472Y116840D01*
X85344Y108712D01*
X93472Y119380D02*
X93500Y119500D01*
X85344Y108712D02*
X85000Y108500D01*
X93472Y130556D02*
X93472Y135636D01*
X85344Y143764D01*
X93472Y130556D02*
X93500Y130500D01*
X85344Y143764D02*
X85000Y144000D01*
X85344Y91440D02*
X104648Y91440D01*
X110744Y85344D01*
X124460Y71628D02*
X132588Y71628D01*
X157988Y46228D01*
X164084Y46228D01*
X85344Y91440D02*
X85000Y91500D01*
X164084Y46228D02*
X164322Y46062D01*
D17*
X110744Y85344D03*
X124460Y71628D03*
D31*
X90424Y69596D02*
X77216Y69596D01*
X90424Y69596D02*
X99060Y78232D01*
X105156Y78232D01*
X77216Y69596D02*
X77000Y69238D01*
X105156Y78232D02*
X105562Y78562D01*
X85344Y157480D02*
X85344Y160528D01*
X85344Y157480D02*
X99568Y143256D01*
X99568Y113284D01*
X94996Y108712D01*
X130556Y66548D02*
X157480Y39624D01*
X164084Y39624D01*
X85344Y160528D02*
X85000Y161000D01*
X164084Y39624D02*
X164322Y39562D01*
D17*
X94996Y108712D03*
X130556Y66548D03*
D31*
X147500Y136750D02*
X147500Y143168D01*
X142254Y148414D02*
X142254Y152224D01*
X147923Y157893D01*
X148685Y158655D01*
X151225Y161195D01*
X151242Y161212D01*
X154920Y161212D01*
X142254Y148414D02*
X147500Y143168D01*
X198628Y130048D02*
X218948Y130048D01*
X198628Y130048D02*
X188468Y140208D01*
X185928Y140208D01*
X178816Y147320D01*
X178816Y164592D01*
X182118Y167894D02*
X189484Y175260D01*
X182118Y167894D02*
X178816Y164592D01*
X218948Y130048D02*
X219000Y130000D01*
X189484Y175260D02*
X189812Y175762D01*
X164084Y59436D02*
X157480Y59436D01*
X151384Y65532D01*
X151384Y85852D01*
X156464Y90932D01*
X180848Y111760D02*
X180848Y119888D01*
X179832Y120904D01*
X179832Y134112D01*
X185928Y140208D01*
X164084Y59436D02*
X164322Y59062D01*
X150876Y161544D02*
X150876Y164592D01*
X148336Y167132D01*
X161544Y180340D02*
X169672Y180340D01*
X182118Y167894D01*
X151225Y161195D02*
X150876Y161544D01*
D17*
X156464Y90932D03*
X180848Y111760D03*
X148336Y167132D03*
X161544Y180340D03*
D31*
X132500Y143373D02*
X132500Y136750D01*
X132500Y143373D02*
X136666Y147539D01*
X136666Y154510D01*
X133396Y157780D01*
X132126Y159050D01*
X129652Y161524D01*
X124786Y161524D01*
X199644Y140208D02*
X218948Y140208D01*
X199644Y140208D02*
X189992Y149860D01*
X218948Y140208D02*
X219000Y140000D01*
X189992Y149860D02*
X189812Y150362D01*
X203200Y52832D02*
X164592Y52832D01*
X211328Y44704D02*
X215392Y44704D01*
X226568Y55880D01*
X235204Y55880D01*
X248412Y69088D01*
X248412Y85852D01*
X245364Y88900D01*
X244856Y88900D01*
X239268Y94488D01*
X239268Y131064D01*
X223012Y144272D02*
X223012Y147320D01*
X223012Y144272D02*
X219456Y140716D01*
X164592Y52832D02*
X164322Y52562D01*
X219000Y140000D02*
X219456Y140716D01*
X199136Y159512D02*
X189992Y150368D01*
X133604Y157988D02*
X133396Y157780D01*
X189812Y150362D02*
X189992Y150368D01*
D17*
X203200Y52832D03*
X211328Y44704D03*
X239268Y131064D03*
X223012Y147320D03*
X133604Y157988D03*
X199136Y159512D03*
D31*
X137500Y144422D02*
X137500Y136750D01*
X137500Y144422D02*
X139897Y146819D01*
X139460Y147257D01*
X139460Y155780D02*
X139206Y156034D01*
X139460Y155780D02*
X139460Y147257D01*
X138684Y156464D02*
X138684Y160020D01*
X131572Y167132D01*
X112268Y168656D02*
X112268Y170688D01*
X112268Y168656D02*
X106680Y163068D01*
X106680Y96520D01*
X115824Y87376D01*
X115824Y69596D01*
X112268Y66040D01*
X105664Y66040D01*
X139206Y156034D02*
X138684Y156464D01*
X105664Y66040D02*
X105562Y65562D01*
D17*
X131572Y167132D03*
X112268Y170688D03*
D33*
X192024Y71628D02*
X219456Y71628D01*
X192024Y71628D02*
X189992Y73660D01*
X219456Y71628D02*
X219906Y71304D01*
X189992Y73660D02*
X189812Y74162D01*
D31*
X239776Y81788D02*
X239776Y83312D01*
X234188Y88900D01*
X224028Y88900D02*
X200152Y88900D01*
X189992Y99060D01*
X239776Y81788D02*
X240000Y81564D01*
X189992Y99060D02*
X189812Y99562D01*
D17*
X234188Y88900D03*
X224028Y88900D03*
M02*
