G04 EAGLE Gerber X2 export*
%TF.Part,Single*%
%TF.FileFunction,Soldermask,Bot,1*%
%TF.FilePolarity,Negative*%
%TF.GenerationSoftware,Autodesk,EAGLE,9.6.2*%
%TF.CreationDate,2022-05-19T00:38:24Z*%
G75*
%MOMM*%
%FSLAX34Y34*%
%LPD*%
%INSoldermask Bottom*%
%AMOC8*
5,1,8,0,0,1.08239X$1,22.5*%
G01*
%ADD10C,0.990600*%
%ADD11R,0.990600X0.990600*%
%ADD12C,1.227000*%
%ADD13C,0.842138*%
%ADD14C,0.685800*%
%ADD15C,4.527000*%
%ADD16C,0.200000*%
%ADD17R,1.651000X1.651000*%
%ADD18C,1.651000*%


D10*
X177638Y240626D03*
X177638Y224878D03*
X164938Y240626D03*
D11*
X164938Y224878D03*
D10*
X190338Y224878D03*
D12*
X54500Y112300D03*
D13*
X10325Y136775D02*
X10325Y138625D01*
X37675Y138625D01*
X37675Y136775D01*
X10325Y136775D01*
X10325Y125925D02*
X10325Y124075D01*
X10325Y125925D02*
X37675Y125925D01*
X37675Y124075D01*
X10325Y124075D01*
X15325Y113225D02*
X15325Y111375D01*
X15325Y113225D02*
X37675Y113225D01*
X37675Y111375D01*
X15325Y111375D01*
D12*
X54500Y125000D03*
X54500Y137700D03*
D14*
X23500Y125000D03*
D15*
X40000Y225000D03*
D16*
X16000Y225000D02*
X16007Y225589D01*
X16029Y226178D01*
X16065Y226766D01*
X16116Y227352D01*
X16180Y227938D01*
X16260Y228522D01*
X16353Y229103D01*
X16461Y229682D01*
X16583Y230258D01*
X16719Y230832D01*
X16869Y231401D01*
X17033Y231967D01*
X17211Y232528D01*
X17403Y233085D01*
X17608Y233637D01*
X17827Y234184D01*
X18059Y234726D01*
X18304Y235261D01*
X18563Y235791D01*
X18834Y236314D01*
X19118Y236830D01*
X19415Y237338D01*
X19724Y237840D01*
X20045Y238334D01*
X20378Y238819D01*
X20723Y239297D01*
X21080Y239766D01*
X21448Y240225D01*
X21827Y240676D01*
X22217Y241117D01*
X22618Y241549D01*
X23029Y241971D01*
X23451Y242382D01*
X23883Y242783D01*
X24324Y243173D01*
X24775Y243552D01*
X25234Y243920D01*
X25703Y244277D01*
X26181Y244622D01*
X26666Y244955D01*
X27160Y245276D01*
X27662Y245585D01*
X28170Y245882D01*
X28686Y246166D01*
X29209Y246437D01*
X29739Y246696D01*
X30274Y246941D01*
X30816Y247173D01*
X31363Y247392D01*
X31915Y247597D01*
X32472Y247789D01*
X33033Y247967D01*
X33599Y248131D01*
X34168Y248281D01*
X34742Y248417D01*
X35318Y248539D01*
X35897Y248647D01*
X36478Y248740D01*
X37062Y248820D01*
X37648Y248884D01*
X38234Y248935D01*
X38822Y248971D01*
X39411Y248993D01*
X40000Y249000D01*
X40589Y248993D01*
X41178Y248971D01*
X41766Y248935D01*
X42352Y248884D01*
X42938Y248820D01*
X43522Y248740D01*
X44103Y248647D01*
X44682Y248539D01*
X45258Y248417D01*
X45832Y248281D01*
X46401Y248131D01*
X46967Y247967D01*
X47528Y247789D01*
X48085Y247597D01*
X48637Y247392D01*
X49184Y247173D01*
X49726Y246941D01*
X50261Y246696D01*
X50791Y246437D01*
X51314Y246166D01*
X51830Y245882D01*
X52338Y245585D01*
X52840Y245276D01*
X53334Y244955D01*
X53819Y244622D01*
X54297Y244277D01*
X54766Y243920D01*
X55225Y243552D01*
X55676Y243173D01*
X56117Y242783D01*
X56549Y242382D01*
X56971Y241971D01*
X57382Y241549D01*
X57783Y241117D01*
X58173Y240676D01*
X58552Y240225D01*
X58920Y239766D01*
X59277Y239297D01*
X59622Y238819D01*
X59955Y238334D01*
X60276Y237840D01*
X60585Y237338D01*
X60882Y236830D01*
X61166Y236314D01*
X61437Y235791D01*
X61696Y235261D01*
X61941Y234726D01*
X62173Y234184D01*
X62392Y233637D01*
X62597Y233085D01*
X62789Y232528D01*
X62967Y231967D01*
X63131Y231401D01*
X63281Y230832D01*
X63417Y230258D01*
X63539Y229682D01*
X63647Y229103D01*
X63740Y228522D01*
X63820Y227938D01*
X63884Y227352D01*
X63935Y226766D01*
X63971Y226178D01*
X63993Y225589D01*
X64000Y225000D01*
X63993Y224411D01*
X63971Y223822D01*
X63935Y223234D01*
X63884Y222648D01*
X63820Y222062D01*
X63740Y221478D01*
X63647Y220897D01*
X63539Y220318D01*
X63417Y219742D01*
X63281Y219168D01*
X63131Y218599D01*
X62967Y218033D01*
X62789Y217472D01*
X62597Y216915D01*
X62392Y216363D01*
X62173Y215816D01*
X61941Y215274D01*
X61696Y214739D01*
X61437Y214209D01*
X61166Y213686D01*
X60882Y213170D01*
X60585Y212662D01*
X60276Y212160D01*
X59955Y211666D01*
X59622Y211181D01*
X59277Y210703D01*
X58920Y210234D01*
X58552Y209775D01*
X58173Y209324D01*
X57783Y208883D01*
X57382Y208451D01*
X56971Y208029D01*
X56549Y207618D01*
X56117Y207217D01*
X55676Y206827D01*
X55225Y206448D01*
X54766Y206080D01*
X54297Y205723D01*
X53819Y205378D01*
X53334Y205045D01*
X52840Y204724D01*
X52338Y204415D01*
X51830Y204118D01*
X51314Y203834D01*
X50791Y203563D01*
X50261Y203304D01*
X49726Y203059D01*
X49184Y202827D01*
X48637Y202608D01*
X48085Y202403D01*
X47528Y202211D01*
X46967Y202033D01*
X46401Y201869D01*
X45832Y201719D01*
X45258Y201583D01*
X44682Y201461D01*
X44103Y201353D01*
X43522Y201260D01*
X42938Y201180D01*
X42352Y201116D01*
X41766Y201065D01*
X41178Y201029D01*
X40589Y201007D01*
X40000Y201000D01*
X39411Y201007D01*
X38822Y201029D01*
X38234Y201065D01*
X37648Y201116D01*
X37062Y201180D01*
X36478Y201260D01*
X35897Y201353D01*
X35318Y201461D01*
X34742Y201583D01*
X34168Y201719D01*
X33599Y201869D01*
X33033Y202033D01*
X32472Y202211D01*
X31915Y202403D01*
X31363Y202608D01*
X30816Y202827D01*
X30274Y203059D01*
X29739Y203304D01*
X29209Y203563D01*
X28686Y203834D01*
X28170Y204118D01*
X27662Y204415D01*
X27160Y204724D01*
X26666Y205045D01*
X26181Y205378D01*
X25703Y205723D01*
X25234Y206080D01*
X24775Y206448D01*
X24324Y206827D01*
X23883Y207217D01*
X23451Y207618D01*
X23029Y208029D01*
X22618Y208451D01*
X22217Y208883D01*
X21827Y209324D01*
X21448Y209775D01*
X21080Y210234D01*
X20723Y210703D01*
X20378Y211181D01*
X20045Y211666D01*
X19724Y212160D01*
X19415Y212662D01*
X19118Y213170D01*
X18834Y213686D01*
X18563Y214209D01*
X18304Y214739D01*
X18059Y215274D01*
X17827Y215816D01*
X17608Y216363D01*
X17403Y216915D01*
X17211Y217472D01*
X17033Y218033D01*
X16869Y218599D01*
X16719Y219168D01*
X16583Y219742D01*
X16461Y220318D01*
X16353Y220897D01*
X16260Y221478D01*
X16180Y222062D01*
X16116Y222648D01*
X16065Y223234D01*
X16029Y223822D01*
X16007Y224411D01*
X16000Y225000D01*
D15*
X40000Y25000D03*
D16*
X16000Y25000D02*
X16007Y25589D01*
X16029Y26178D01*
X16065Y26766D01*
X16116Y27352D01*
X16180Y27938D01*
X16260Y28522D01*
X16353Y29103D01*
X16461Y29682D01*
X16583Y30258D01*
X16719Y30832D01*
X16869Y31401D01*
X17033Y31967D01*
X17211Y32528D01*
X17403Y33085D01*
X17608Y33637D01*
X17827Y34184D01*
X18059Y34726D01*
X18304Y35261D01*
X18563Y35791D01*
X18834Y36314D01*
X19118Y36830D01*
X19415Y37338D01*
X19724Y37840D01*
X20045Y38334D01*
X20378Y38819D01*
X20723Y39297D01*
X21080Y39766D01*
X21448Y40225D01*
X21827Y40676D01*
X22217Y41117D01*
X22618Y41549D01*
X23029Y41971D01*
X23451Y42382D01*
X23883Y42783D01*
X24324Y43173D01*
X24775Y43552D01*
X25234Y43920D01*
X25703Y44277D01*
X26181Y44622D01*
X26666Y44955D01*
X27160Y45276D01*
X27662Y45585D01*
X28170Y45882D01*
X28686Y46166D01*
X29209Y46437D01*
X29739Y46696D01*
X30274Y46941D01*
X30816Y47173D01*
X31363Y47392D01*
X31915Y47597D01*
X32472Y47789D01*
X33033Y47967D01*
X33599Y48131D01*
X34168Y48281D01*
X34742Y48417D01*
X35318Y48539D01*
X35897Y48647D01*
X36478Y48740D01*
X37062Y48820D01*
X37648Y48884D01*
X38234Y48935D01*
X38822Y48971D01*
X39411Y48993D01*
X40000Y49000D01*
X40589Y48993D01*
X41178Y48971D01*
X41766Y48935D01*
X42352Y48884D01*
X42938Y48820D01*
X43522Y48740D01*
X44103Y48647D01*
X44682Y48539D01*
X45258Y48417D01*
X45832Y48281D01*
X46401Y48131D01*
X46967Y47967D01*
X47528Y47789D01*
X48085Y47597D01*
X48637Y47392D01*
X49184Y47173D01*
X49726Y46941D01*
X50261Y46696D01*
X50791Y46437D01*
X51314Y46166D01*
X51830Y45882D01*
X52338Y45585D01*
X52840Y45276D01*
X53334Y44955D01*
X53819Y44622D01*
X54297Y44277D01*
X54766Y43920D01*
X55225Y43552D01*
X55676Y43173D01*
X56117Y42783D01*
X56549Y42382D01*
X56971Y41971D01*
X57382Y41549D01*
X57783Y41117D01*
X58173Y40676D01*
X58552Y40225D01*
X58920Y39766D01*
X59277Y39297D01*
X59622Y38819D01*
X59955Y38334D01*
X60276Y37840D01*
X60585Y37338D01*
X60882Y36830D01*
X61166Y36314D01*
X61437Y35791D01*
X61696Y35261D01*
X61941Y34726D01*
X62173Y34184D01*
X62392Y33637D01*
X62597Y33085D01*
X62789Y32528D01*
X62967Y31967D01*
X63131Y31401D01*
X63281Y30832D01*
X63417Y30258D01*
X63539Y29682D01*
X63647Y29103D01*
X63740Y28522D01*
X63820Y27938D01*
X63884Y27352D01*
X63935Y26766D01*
X63971Y26178D01*
X63993Y25589D01*
X64000Y25000D01*
X63993Y24411D01*
X63971Y23822D01*
X63935Y23234D01*
X63884Y22648D01*
X63820Y22062D01*
X63740Y21478D01*
X63647Y20897D01*
X63539Y20318D01*
X63417Y19742D01*
X63281Y19168D01*
X63131Y18599D01*
X62967Y18033D01*
X62789Y17472D01*
X62597Y16915D01*
X62392Y16363D01*
X62173Y15816D01*
X61941Y15274D01*
X61696Y14739D01*
X61437Y14209D01*
X61166Y13686D01*
X60882Y13170D01*
X60585Y12662D01*
X60276Y12160D01*
X59955Y11666D01*
X59622Y11181D01*
X59277Y10703D01*
X58920Y10234D01*
X58552Y9775D01*
X58173Y9324D01*
X57783Y8883D01*
X57382Y8451D01*
X56971Y8029D01*
X56549Y7618D01*
X56117Y7217D01*
X55676Y6827D01*
X55225Y6448D01*
X54766Y6080D01*
X54297Y5723D01*
X53819Y5378D01*
X53334Y5045D01*
X52840Y4724D01*
X52338Y4415D01*
X51830Y4118D01*
X51314Y3834D01*
X50791Y3563D01*
X50261Y3304D01*
X49726Y3059D01*
X49184Y2827D01*
X48637Y2608D01*
X48085Y2403D01*
X47528Y2211D01*
X46967Y2033D01*
X46401Y1869D01*
X45832Y1719D01*
X45258Y1583D01*
X44682Y1461D01*
X44103Y1353D01*
X43522Y1260D01*
X42938Y1180D01*
X42352Y1116D01*
X41766Y1065D01*
X41178Y1029D01*
X40589Y1007D01*
X40000Y1000D01*
X39411Y1007D01*
X38822Y1029D01*
X38234Y1065D01*
X37648Y1116D01*
X37062Y1180D01*
X36478Y1260D01*
X35897Y1353D01*
X35318Y1461D01*
X34742Y1583D01*
X34168Y1719D01*
X33599Y1869D01*
X33033Y2033D01*
X32472Y2211D01*
X31915Y2403D01*
X31363Y2608D01*
X30816Y2827D01*
X30274Y3059D01*
X29739Y3304D01*
X29209Y3563D01*
X28686Y3834D01*
X28170Y4118D01*
X27662Y4415D01*
X27160Y4724D01*
X26666Y5045D01*
X26181Y5378D01*
X25703Y5723D01*
X25234Y6080D01*
X24775Y6448D01*
X24324Y6827D01*
X23883Y7217D01*
X23451Y7618D01*
X23029Y8029D01*
X22618Y8451D01*
X22217Y8883D01*
X21827Y9324D01*
X21448Y9775D01*
X21080Y10234D01*
X20723Y10703D01*
X20378Y11181D01*
X20045Y11666D01*
X19724Y12160D01*
X19415Y12662D01*
X19118Y13170D01*
X18834Y13686D01*
X18563Y14209D01*
X18304Y14739D01*
X18059Y15274D01*
X17827Y15816D01*
X17608Y16363D01*
X17403Y16915D01*
X17211Y17472D01*
X17033Y18033D01*
X16869Y18599D01*
X16719Y19168D01*
X16583Y19742D01*
X16461Y20318D01*
X16353Y20897D01*
X16260Y21478D01*
X16180Y22062D01*
X16116Y22648D01*
X16065Y23234D01*
X16029Y23822D01*
X16007Y24411D01*
X16000Y25000D01*
D15*
X240000Y25000D03*
D16*
X216000Y25000D02*
X216007Y25589D01*
X216029Y26178D01*
X216065Y26766D01*
X216116Y27352D01*
X216180Y27938D01*
X216260Y28522D01*
X216353Y29103D01*
X216461Y29682D01*
X216583Y30258D01*
X216719Y30832D01*
X216869Y31401D01*
X217033Y31967D01*
X217211Y32528D01*
X217403Y33085D01*
X217608Y33637D01*
X217827Y34184D01*
X218059Y34726D01*
X218304Y35261D01*
X218563Y35791D01*
X218834Y36314D01*
X219118Y36830D01*
X219415Y37338D01*
X219724Y37840D01*
X220045Y38334D01*
X220378Y38819D01*
X220723Y39297D01*
X221080Y39766D01*
X221448Y40225D01*
X221827Y40676D01*
X222217Y41117D01*
X222618Y41549D01*
X223029Y41971D01*
X223451Y42382D01*
X223883Y42783D01*
X224324Y43173D01*
X224775Y43552D01*
X225234Y43920D01*
X225703Y44277D01*
X226181Y44622D01*
X226666Y44955D01*
X227160Y45276D01*
X227662Y45585D01*
X228170Y45882D01*
X228686Y46166D01*
X229209Y46437D01*
X229739Y46696D01*
X230274Y46941D01*
X230816Y47173D01*
X231363Y47392D01*
X231915Y47597D01*
X232472Y47789D01*
X233033Y47967D01*
X233599Y48131D01*
X234168Y48281D01*
X234742Y48417D01*
X235318Y48539D01*
X235897Y48647D01*
X236478Y48740D01*
X237062Y48820D01*
X237648Y48884D01*
X238234Y48935D01*
X238822Y48971D01*
X239411Y48993D01*
X240000Y49000D01*
X240589Y48993D01*
X241178Y48971D01*
X241766Y48935D01*
X242352Y48884D01*
X242938Y48820D01*
X243522Y48740D01*
X244103Y48647D01*
X244682Y48539D01*
X245258Y48417D01*
X245832Y48281D01*
X246401Y48131D01*
X246967Y47967D01*
X247528Y47789D01*
X248085Y47597D01*
X248637Y47392D01*
X249184Y47173D01*
X249726Y46941D01*
X250261Y46696D01*
X250791Y46437D01*
X251314Y46166D01*
X251830Y45882D01*
X252338Y45585D01*
X252840Y45276D01*
X253334Y44955D01*
X253819Y44622D01*
X254297Y44277D01*
X254766Y43920D01*
X255225Y43552D01*
X255676Y43173D01*
X256117Y42783D01*
X256549Y42382D01*
X256971Y41971D01*
X257382Y41549D01*
X257783Y41117D01*
X258173Y40676D01*
X258552Y40225D01*
X258920Y39766D01*
X259277Y39297D01*
X259622Y38819D01*
X259955Y38334D01*
X260276Y37840D01*
X260585Y37338D01*
X260882Y36830D01*
X261166Y36314D01*
X261437Y35791D01*
X261696Y35261D01*
X261941Y34726D01*
X262173Y34184D01*
X262392Y33637D01*
X262597Y33085D01*
X262789Y32528D01*
X262967Y31967D01*
X263131Y31401D01*
X263281Y30832D01*
X263417Y30258D01*
X263539Y29682D01*
X263647Y29103D01*
X263740Y28522D01*
X263820Y27938D01*
X263884Y27352D01*
X263935Y26766D01*
X263971Y26178D01*
X263993Y25589D01*
X264000Y25000D01*
X263993Y24411D01*
X263971Y23822D01*
X263935Y23234D01*
X263884Y22648D01*
X263820Y22062D01*
X263740Y21478D01*
X263647Y20897D01*
X263539Y20318D01*
X263417Y19742D01*
X263281Y19168D01*
X263131Y18599D01*
X262967Y18033D01*
X262789Y17472D01*
X262597Y16915D01*
X262392Y16363D01*
X262173Y15816D01*
X261941Y15274D01*
X261696Y14739D01*
X261437Y14209D01*
X261166Y13686D01*
X260882Y13170D01*
X260585Y12662D01*
X260276Y12160D01*
X259955Y11666D01*
X259622Y11181D01*
X259277Y10703D01*
X258920Y10234D01*
X258552Y9775D01*
X258173Y9324D01*
X257783Y8883D01*
X257382Y8451D01*
X256971Y8029D01*
X256549Y7618D01*
X256117Y7217D01*
X255676Y6827D01*
X255225Y6448D01*
X254766Y6080D01*
X254297Y5723D01*
X253819Y5378D01*
X253334Y5045D01*
X252840Y4724D01*
X252338Y4415D01*
X251830Y4118D01*
X251314Y3834D01*
X250791Y3563D01*
X250261Y3304D01*
X249726Y3059D01*
X249184Y2827D01*
X248637Y2608D01*
X248085Y2403D01*
X247528Y2211D01*
X246967Y2033D01*
X246401Y1869D01*
X245832Y1719D01*
X245258Y1583D01*
X244682Y1461D01*
X244103Y1353D01*
X243522Y1260D01*
X242938Y1180D01*
X242352Y1116D01*
X241766Y1065D01*
X241178Y1029D01*
X240589Y1007D01*
X240000Y1000D01*
X239411Y1007D01*
X238822Y1029D01*
X238234Y1065D01*
X237648Y1116D01*
X237062Y1180D01*
X236478Y1260D01*
X235897Y1353D01*
X235318Y1461D01*
X234742Y1583D01*
X234168Y1719D01*
X233599Y1869D01*
X233033Y2033D01*
X232472Y2211D01*
X231915Y2403D01*
X231363Y2608D01*
X230816Y2827D01*
X230274Y3059D01*
X229739Y3304D01*
X229209Y3563D01*
X228686Y3834D01*
X228170Y4118D01*
X227662Y4415D01*
X227160Y4724D01*
X226666Y5045D01*
X226181Y5378D01*
X225703Y5723D01*
X225234Y6080D01*
X224775Y6448D01*
X224324Y6827D01*
X223883Y7217D01*
X223451Y7618D01*
X223029Y8029D01*
X222618Y8451D01*
X222217Y8883D01*
X221827Y9324D01*
X221448Y9775D01*
X221080Y10234D01*
X220723Y10703D01*
X220378Y11181D01*
X220045Y11666D01*
X219724Y12160D01*
X219415Y12662D01*
X219118Y13170D01*
X218834Y13686D01*
X218563Y14209D01*
X218304Y14739D01*
X218059Y15274D01*
X217827Y15816D01*
X217608Y16363D01*
X217403Y16915D01*
X217211Y17472D01*
X217033Y18033D01*
X216869Y18599D01*
X216719Y19168D01*
X216583Y19742D01*
X216461Y20318D01*
X216353Y20897D01*
X216260Y21478D01*
X216180Y22062D01*
X216116Y22648D01*
X216065Y23234D01*
X216029Y23822D01*
X216007Y24411D01*
X216000Y25000D01*
D15*
X240000Y225000D03*
D16*
X216000Y225000D02*
X216007Y225589D01*
X216029Y226178D01*
X216065Y226766D01*
X216116Y227352D01*
X216180Y227938D01*
X216260Y228522D01*
X216353Y229103D01*
X216461Y229682D01*
X216583Y230258D01*
X216719Y230832D01*
X216869Y231401D01*
X217033Y231967D01*
X217211Y232528D01*
X217403Y233085D01*
X217608Y233637D01*
X217827Y234184D01*
X218059Y234726D01*
X218304Y235261D01*
X218563Y235791D01*
X218834Y236314D01*
X219118Y236830D01*
X219415Y237338D01*
X219724Y237840D01*
X220045Y238334D01*
X220378Y238819D01*
X220723Y239297D01*
X221080Y239766D01*
X221448Y240225D01*
X221827Y240676D01*
X222217Y241117D01*
X222618Y241549D01*
X223029Y241971D01*
X223451Y242382D01*
X223883Y242783D01*
X224324Y243173D01*
X224775Y243552D01*
X225234Y243920D01*
X225703Y244277D01*
X226181Y244622D01*
X226666Y244955D01*
X227160Y245276D01*
X227662Y245585D01*
X228170Y245882D01*
X228686Y246166D01*
X229209Y246437D01*
X229739Y246696D01*
X230274Y246941D01*
X230816Y247173D01*
X231363Y247392D01*
X231915Y247597D01*
X232472Y247789D01*
X233033Y247967D01*
X233599Y248131D01*
X234168Y248281D01*
X234742Y248417D01*
X235318Y248539D01*
X235897Y248647D01*
X236478Y248740D01*
X237062Y248820D01*
X237648Y248884D01*
X238234Y248935D01*
X238822Y248971D01*
X239411Y248993D01*
X240000Y249000D01*
X240589Y248993D01*
X241178Y248971D01*
X241766Y248935D01*
X242352Y248884D01*
X242938Y248820D01*
X243522Y248740D01*
X244103Y248647D01*
X244682Y248539D01*
X245258Y248417D01*
X245832Y248281D01*
X246401Y248131D01*
X246967Y247967D01*
X247528Y247789D01*
X248085Y247597D01*
X248637Y247392D01*
X249184Y247173D01*
X249726Y246941D01*
X250261Y246696D01*
X250791Y246437D01*
X251314Y246166D01*
X251830Y245882D01*
X252338Y245585D01*
X252840Y245276D01*
X253334Y244955D01*
X253819Y244622D01*
X254297Y244277D01*
X254766Y243920D01*
X255225Y243552D01*
X255676Y243173D01*
X256117Y242783D01*
X256549Y242382D01*
X256971Y241971D01*
X257382Y241549D01*
X257783Y241117D01*
X258173Y240676D01*
X258552Y240225D01*
X258920Y239766D01*
X259277Y239297D01*
X259622Y238819D01*
X259955Y238334D01*
X260276Y237840D01*
X260585Y237338D01*
X260882Y236830D01*
X261166Y236314D01*
X261437Y235791D01*
X261696Y235261D01*
X261941Y234726D01*
X262173Y234184D01*
X262392Y233637D01*
X262597Y233085D01*
X262789Y232528D01*
X262967Y231967D01*
X263131Y231401D01*
X263281Y230832D01*
X263417Y230258D01*
X263539Y229682D01*
X263647Y229103D01*
X263740Y228522D01*
X263820Y227938D01*
X263884Y227352D01*
X263935Y226766D01*
X263971Y226178D01*
X263993Y225589D01*
X264000Y225000D01*
X263993Y224411D01*
X263971Y223822D01*
X263935Y223234D01*
X263884Y222648D01*
X263820Y222062D01*
X263740Y221478D01*
X263647Y220897D01*
X263539Y220318D01*
X263417Y219742D01*
X263281Y219168D01*
X263131Y218599D01*
X262967Y218033D01*
X262789Y217472D01*
X262597Y216915D01*
X262392Y216363D01*
X262173Y215816D01*
X261941Y215274D01*
X261696Y214739D01*
X261437Y214209D01*
X261166Y213686D01*
X260882Y213170D01*
X260585Y212662D01*
X260276Y212160D01*
X259955Y211666D01*
X259622Y211181D01*
X259277Y210703D01*
X258920Y210234D01*
X258552Y209775D01*
X258173Y209324D01*
X257783Y208883D01*
X257382Y208451D01*
X256971Y208029D01*
X256549Y207618D01*
X256117Y207217D01*
X255676Y206827D01*
X255225Y206448D01*
X254766Y206080D01*
X254297Y205723D01*
X253819Y205378D01*
X253334Y205045D01*
X252840Y204724D01*
X252338Y204415D01*
X251830Y204118D01*
X251314Y203834D01*
X250791Y203563D01*
X250261Y203304D01*
X249726Y203059D01*
X249184Y202827D01*
X248637Y202608D01*
X248085Y202403D01*
X247528Y202211D01*
X246967Y202033D01*
X246401Y201869D01*
X245832Y201719D01*
X245258Y201583D01*
X244682Y201461D01*
X244103Y201353D01*
X243522Y201260D01*
X242938Y201180D01*
X242352Y201116D01*
X241766Y201065D01*
X241178Y201029D01*
X240589Y201007D01*
X240000Y201000D01*
X239411Y201007D01*
X238822Y201029D01*
X238234Y201065D01*
X237648Y201116D01*
X237062Y201180D01*
X236478Y201260D01*
X235897Y201353D01*
X235318Y201461D01*
X234742Y201583D01*
X234168Y201719D01*
X233599Y201869D01*
X233033Y202033D01*
X232472Y202211D01*
X231915Y202403D01*
X231363Y202608D01*
X230816Y202827D01*
X230274Y203059D01*
X229739Y203304D01*
X229209Y203563D01*
X228686Y203834D01*
X228170Y204118D01*
X227662Y204415D01*
X227160Y204724D01*
X226666Y205045D01*
X226181Y205378D01*
X225703Y205723D01*
X225234Y206080D01*
X224775Y206448D01*
X224324Y206827D01*
X223883Y207217D01*
X223451Y207618D01*
X223029Y208029D01*
X222618Y208451D01*
X222217Y208883D01*
X221827Y209324D01*
X221448Y209775D01*
X221080Y210234D01*
X220723Y210703D01*
X220378Y211181D01*
X220045Y211666D01*
X219724Y212160D01*
X219415Y212662D01*
X219118Y213170D01*
X218834Y213686D01*
X218563Y214209D01*
X218304Y214739D01*
X218059Y215274D01*
X217827Y215816D01*
X217608Y216363D01*
X217403Y216915D01*
X217211Y217472D01*
X217033Y218033D01*
X216869Y218599D01*
X216719Y219168D01*
X216583Y219742D01*
X216461Y220318D01*
X216353Y220897D01*
X216260Y221478D01*
X216180Y222062D01*
X216116Y222648D01*
X216065Y223234D01*
X216029Y223822D01*
X216007Y224411D01*
X216000Y225000D01*
D17*
X189812Y175762D03*
D18*
X189812Y150362D03*
X189812Y124962D03*
X189812Y99562D03*
X189812Y74162D03*
M02*
