G04 EAGLE Gerber X2 export*
%TF.Part,Single*%
%TF.FileFunction,Paste,Top*%
%TF.FilePolarity,Positive*%
%TF.GenerationSoftware,Autodesk,EAGLE,9.6.2*%
%TF.CreationDate,2022-05-19T00:38:24Z*%
G75*
%MOMM*%
%FSLAX34Y34*%
%LPD*%
%INSolderpaste Top*%
%AMOC8*
5,1,8,0,0,1.08239X$1,22.5*%
G01*
%ADD10R,0.700000X0.600000*%
%ADD11R,0.800000X0.900000*%
%ADD12R,0.800000X0.700000*%
%ADD13R,1.100000X1.000000*%
%ADD14R,1.000000X1.400000*%
%ADD15R,1.475000X0.450000*%
%ADD16R,1.600756X0.900425*%
%ADD17R,0.250000X0.550000*%
%ADD18R,0.600000X0.700000*%
%ADD19R,2.000000X1.200000*%
%ADD20R,1.350000X0.600000*%


D10*
X112112Y215260D03*
X112112Y225260D03*
X89504Y61766D03*
X89504Y51766D03*
X140000Y197500D03*
X140000Y187500D03*
X165000Y187500D03*
X165000Y197500D03*
X152500Y187500D03*
X152500Y197500D03*
D11*
X100404Y227762D03*
X81404Y227762D03*
X90904Y206762D03*
D12*
X76500Y119500D03*
X76500Y130500D03*
X93500Y119500D03*
X93500Y130500D03*
D10*
X77000Y69238D03*
X77000Y79238D03*
D13*
X85000Y108500D03*
X85000Y91500D03*
X85000Y144000D03*
X85000Y161000D03*
D14*
X111968Y199014D03*
X121468Y177014D03*
X102468Y177014D03*
D15*
X105562Y78562D03*
X105562Y72062D03*
X105562Y65562D03*
X105562Y59062D03*
X105562Y52562D03*
X105562Y46062D03*
X105562Y39562D03*
X105562Y33062D03*
X105562Y26562D03*
X105562Y20062D03*
X164322Y20062D03*
X164322Y26562D03*
X164322Y33062D03*
X164322Y39562D03*
X164322Y46062D03*
X164322Y52562D03*
X164322Y59062D03*
X164322Y65562D03*
X164322Y72062D03*
X164322Y78562D03*
D16*
X139996Y125002D03*
D17*
X147500Y136750D03*
X142500Y136750D03*
X137500Y136750D03*
X132500Y136750D03*
X147500Y113250D03*
X142500Y113250D03*
X137500Y113250D03*
X132500Y113250D03*
D18*
X135000Y90000D03*
X145000Y90000D03*
X154920Y161212D03*
X164920Y161212D03*
X124786Y161524D03*
X114786Y161524D03*
D19*
X255750Y97000D03*
X255750Y153000D03*
D20*
X219000Y110000D03*
X219000Y120000D03*
X219000Y130000D03*
X219000Y140000D03*
M02*
