G04 EAGLE Gerber X2 export*
%TF.Part,Single*%
%TF.FileFunction,Legend,Top,1*%
%TF.FilePolarity,Positive*%
%TF.GenerationSoftware,Autodesk,EAGLE,9.6.2*%
%TF.CreationDate,2022-05-19T00:38:24Z*%
G75*
%MOMM*%
%FSLAX34Y34*%
%LPD*%
%INSilkscreen Top*%
%AMOC8*
5,1,8,0,0,1.08239X$1,22.5*%
G01*
%ADD10C,0.177800*%
%ADD11C,0.127000*%
%ADD12C,0.152400*%
%ADD13C,0.101600*%
%ADD14C,0.203200*%
%ADD15C,0.381000*%
%ADD16C,0.010000*%
%ADD17C,0.200000*%
%ADD18C,0.200000*%

G36*
X70058Y28768D02*
X70058Y28768D01*
X70116Y28780D01*
X70128Y28788D01*
X70134Y28790D01*
X70141Y28798D01*
X70176Y28824D01*
X73176Y31824D01*
X73199Y31866D01*
X73217Y31886D01*
X73219Y31897D01*
X73238Y31927D01*
X73240Y31941D01*
X73243Y31946D01*
X73243Y31957D01*
X73249Y32000D01*
X73249Y36000D01*
X73247Y36009D01*
X73247Y36010D01*
X73247Y36012D01*
X73246Y36014D01*
X73242Y36060D01*
X72242Y40060D01*
X72241Y40061D01*
X72214Y40128D01*
X69214Y45128D01*
X69201Y45140D01*
X69195Y45155D01*
X69151Y45186D01*
X69111Y45223D01*
X69094Y45226D01*
X69081Y45236D01*
X69027Y45238D01*
X68974Y45248D01*
X68958Y45241D01*
X68941Y45242D01*
X68894Y45215D01*
X68844Y45195D01*
X68835Y45181D01*
X68820Y45172D01*
X68777Y45111D01*
X66795Y41148D01*
X64877Y39230D01*
X59951Y38244D01*
X59899Y38217D01*
X59844Y38195D01*
X59838Y38185D01*
X59827Y38180D01*
X59798Y38128D01*
X59764Y38080D01*
X59764Y38069D01*
X59758Y38058D01*
X59761Y37999D01*
X59758Y37941D01*
X59764Y37926D01*
X59764Y37919D01*
X59771Y37910D01*
X59786Y37872D01*
X62781Y32880D01*
X63777Y30889D01*
X63796Y30868D01*
X63807Y30843D01*
X63862Y30793D01*
X66862Y28793D01*
X66896Y28782D01*
X66927Y28762D01*
X66991Y28752D01*
X66995Y28751D01*
X66997Y28751D01*
X67000Y28751D01*
X70000Y28751D01*
X70058Y28768D01*
G37*
G36*
X51009Y191753D02*
X51009Y191753D01*
X51060Y191758D01*
X55060Y192758D01*
X55061Y192759D01*
X55128Y192786D01*
X60128Y195786D01*
X60140Y195799D01*
X60155Y195805D01*
X60186Y195849D01*
X60223Y195889D01*
X60226Y195906D01*
X60236Y195919D01*
X60238Y195973D01*
X60248Y196027D01*
X60241Y196042D01*
X60242Y196059D01*
X60215Y196106D01*
X60195Y196156D01*
X60181Y196165D01*
X60172Y196180D01*
X60111Y196223D01*
X56148Y198205D01*
X54230Y200123D01*
X53244Y205049D01*
X53217Y205101D01*
X53195Y205156D01*
X53185Y205162D01*
X53180Y205173D01*
X53128Y205202D01*
X53080Y205236D01*
X53069Y205237D01*
X53058Y205242D01*
X52999Y205240D01*
X52941Y205242D01*
X52926Y205236D01*
X52919Y205236D01*
X52910Y205230D01*
X52872Y205214D01*
X47880Y202219D01*
X45889Y201223D01*
X45868Y201204D01*
X45843Y201193D01*
X45793Y201138D01*
X43793Y198138D01*
X43782Y198104D01*
X43762Y198074D01*
X43752Y198009D01*
X43751Y198005D01*
X43751Y198003D01*
X43751Y198000D01*
X43751Y195000D01*
X43762Y194960D01*
X43762Y194958D01*
X43765Y194950D01*
X43768Y194942D01*
X43780Y194884D01*
X43788Y194872D01*
X43790Y194866D01*
X43798Y194859D01*
X43818Y194831D01*
X43819Y194830D01*
X43820Y194829D01*
X43824Y194824D01*
X46824Y191824D01*
X46876Y191795D01*
X46927Y191762D01*
X46941Y191760D01*
X46946Y191757D01*
X46957Y191757D01*
X47000Y191751D01*
X51000Y191751D01*
X51009Y191753D01*
G37*
G36*
X227001Y44761D02*
X227001Y44761D01*
X227060Y44758D01*
X227074Y44764D01*
X227081Y44764D01*
X227090Y44771D01*
X227128Y44786D01*
X232120Y47781D01*
X234111Y48777D01*
X234132Y48796D01*
X234157Y48807D01*
X234207Y48862D01*
X236207Y51862D01*
X236211Y51873D01*
X236212Y51874D01*
X236213Y51880D01*
X236218Y51896D01*
X236238Y51927D01*
X236248Y51991D01*
X236249Y51995D01*
X236249Y51997D01*
X236249Y52000D01*
X236249Y55000D01*
X236232Y55058D01*
X236220Y55116D01*
X236212Y55128D01*
X236210Y55134D01*
X236202Y55141D01*
X236176Y55176D01*
X233176Y58176D01*
X233124Y58205D01*
X233074Y58238D01*
X233059Y58240D01*
X233054Y58243D01*
X233043Y58243D01*
X233000Y58249D01*
X229000Y58249D01*
X228992Y58247D01*
X228940Y58242D01*
X224940Y57242D01*
X224939Y57241D01*
X224872Y57214D01*
X219872Y54214D01*
X219860Y54201D01*
X219845Y54195D01*
X219814Y54151D01*
X219777Y54111D01*
X219774Y54094D01*
X219764Y54081D01*
X219762Y54027D01*
X219752Y53974D01*
X219759Y53958D01*
X219758Y53941D01*
X219785Y53894D01*
X219805Y53844D01*
X219819Y53835D01*
X219828Y53820D01*
X219889Y53777D01*
X223852Y51795D01*
X225770Y49877D01*
X226756Y44951D01*
X226783Y44899D01*
X226805Y44844D01*
X226815Y44838D01*
X226820Y44827D01*
X226872Y44798D01*
X226920Y44764D01*
X226931Y44764D01*
X226942Y44758D01*
X227001Y44761D01*
G37*
G36*
X211042Y204759D02*
X211042Y204759D01*
X211059Y204758D01*
X211106Y204785D01*
X211156Y204805D01*
X211165Y204819D01*
X211180Y204828D01*
X211223Y204889D01*
X213205Y208852D01*
X215123Y210770D01*
X220049Y211756D01*
X220101Y211783D01*
X220156Y211805D01*
X220162Y211815D01*
X220173Y211820D01*
X220202Y211872D01*
X220236Y211920D01*
X220237Y211931D01*
X220242Y211942D01*
X220240Y212001D01*
X220242Y212060D01*
X220236Y212074D01*
X220236Y212081D01*
X220230Y212090D01*
X220214Y212128D01*
X217219Y217120D01*
X216223Y219111D01*
X216204Y219132D01*
X216193Y219157D01*
X216138Y219207D01*
X213138Y221207D01*
X213104Y221218D01*
X213074Y221238D01*
X213009Y221248D01*
X213005Y221249D01*
X213003Y221249D01*
X213000Y221249D01*
X210000Y221249D01*
X209942Y221232D01*
X209884Y221220D01*
X209872Y221212D01*
X209866Y221210D01*
X209859Y221202D01*
X209824Y221176D01*
X206824Y218176D01*
X206795Y218124D01*
X206762Y218074D01*
X206760Y218059D01*
X206757Y218054D01*
X206757Y218043D01*
X206751Y218000D01*
X206751Y214000D01*
X206753Y213992D01*
X206758Y213940D01*
X207758Y209940D01*
X207759Y209939D01*
X207786Y209872D01*
X210786Y204872D01*
X210799Y204860D01*
X210805Y204845D01*
X210849Y204814D01*
X210889Y204777D01*
X210906Y204774D01*
X210919Y204764D01*
X210973Y204762D01*
X211027Y204752D01*
X211042Y204759D01*
G37*
G36*
X233058Y191768D02*
X233058Y191768D01*
X233116Y191780D01*
X233128Y191788D01*
X233134Y191790D01*
X233141Y191798D01*
X233176Y191824D01*
X236176Y194824D01*
X236199Y194866D01*
X236217Y194886D01*
X236219Y194897D01*
X236238Y194927D01*
X236240Y194941D01*
X236243Y194946D01*
X236243Y194957D01*
X236249Y195000D01*
X236249Y199000D01*
X236247Y199009D01*
X236247Y199012D01*
X236243Y199021D01*
X236232Y199058D01*
X236220Y199116D01*
X236212Y199128D01*
X236210Y199134D01*
X236202Y199141D01*
X236176Y199176D01*
X233176Y202176D01*
X233158Y202186D01*
X233145Y202203D01*
X233079Y202236D01*
X230110Y203226D01*
X227138Y205207D01*
X227077Y205227D01*
X227016Y205249D01*
X227010Y205248D01*
X227005Y205249D01*
X226943Y205232D01*
X226879Y205218D01*
X226875Y205214D01*
X226870Y205213D01*
X226827Y205165D01*
X226781Y205119D01*
X226778Y205112D01*
X226776Y205109D01*
X226775Y205102D01*
X226756Y205049D01*
X225770Y200123D01*
X223841Y198194D01*
X220862Y196207D01*
X220820Y196157D01*
X220776Y196109D01*
X220775Y196104D01*
X220772Y196100D01*
X220763Y196036D01*
X220752Y195971D01*
X220754Y195967D01*
X220754Y195962D01*
X220781Y195903D01*
X220807Y195843D01*
X220812Y195838D01*
X220813Y195835D01*
X220819Y195831D01*
X220862Y195793D01*
X223862Y193793D01*
X223870Y193790D01*
X223889Y193777D01*
X227889Y191777D01*
X227909Y191773D01*
X227927Y191762D01*
X228000Y191751D01*
X233000Y191751D01*
X233058Y191768D01*
G37*
G36*
X214058Y28768D02*
X214058Y28768D01*
X214116Y28780D01*
X214128Y28788D01*
X214134Y28790D01*
X214141Y28798D01*
X214176Y28824D01*
X217176Y31824D01*
X217186Y31842D01*
X217203Y31855D01*
X217236Y31921D01*
X218226Y34890D01*
X220207Y37862D01*
X220227Y37923D01*
X220249Y37984D01*
X220248Y37990D01*
X220249Y37995D01*
X220232Y38057D01*
X220218Y38121D01*
X220214Y38125D01*
X220213Y38130D01*
X220165Y38173D01*
X220119Y38219D01*
X220112Y38222D01*
X220109Y38224D01*
X220102Y38225D01*
X220049Y38244D01*
X215123Y39230D01*
X213194Y41159D01*
X211207Y44138D01*
X211157Y44180D01*
X211109Y44224D01*
X211104Y44225D01*
X211100Y44228D01*
X211036Y44237D01*
X210971Y44248D01*
X210967Y44246D01*
X210962Y44246D01*
X210903Y44219D01*
X210843Y44193D01*
X210838Y44188D01*
X210835Y44187D01*
X210831Y44181D01*
X210793Y44138D01*
X208793Y41138D01*
X208790Y41130D01*
X208777Y41111D01*
X206777Y37111D01*
X206773Y37091D01*
X206762Y37074D01*
X206751Y37000D01*
X206751Y32000D01*
X206762Y31960D01*
X206762Y31958D01*
X206765Y31950D01*
X206768Y31942D01*
X206780Y31884D01*
X206788Y31872D01*
X206790Y31866D01*
X206798Y31859D01*
X206818Y31831D01*
X206819Y31830D01*
X206820Y31829D01*
X206824Y31824D01*
X209824Y28824D01*
X209876Y28795D01*
X209927Y28762D01*
X209941Y28760D01*
X209946Y28757D01*
X209957Y28757D01*
X210000Y28751D01*
X214000Y28751D01*
X214058Y28768D01*
G37*
G36*
X53057Y44768D02*
X53057Y44768D01*
X53121Y44782D01*
X53125Y44786D01*
X53130Y44787D01*
X53173Y44835D01*
X53219Y44881D01*
X53222Y44888D01*
X53224Y44891D01*
X53225Y44899D01*
X53244Y44951D01*
X54230Y49877D01*
X56159Y51806D01*
X59138Y53793D01*
X59180Y53843D01*
X59224Y53891D01*
X59225Y53896D01*
X59228Y53900D01*
X59237Y53964D01*
X59248Y54029D01*
X59246Y54033D01*
X59246Y54038D01*
X59219Y54097D01*
X59193Y54157D01*
X59188Y54162D01*
X59187Y54165D01*
X59181Y54169D01*
X59138Y54207D01*
X56138Y56207D01*
X56130Y56210D01*
X56111Y56223D01*
X52111Y58223D01*
X52091Y58227D01*
X52074Y58238D01*
X52000Y58249D01*
X47000Y58249D01*
X46942Y58232D01*
X46884Y58220D01*
X46872Y58212D01*
X46866Y58210D01*
X46859Y58202D01*
X46824Y58176D01*
X43824Y55176D01*
X43795Y55124D01*
X43762Y55074D01*
X43760Y55059D01*
X43757Y55054D01*
X43757Y55043D01*
X43751Y55000D01*
X43751Y51000D01*
X43768Y50942D01*
X43780Y50884D01*
X43788Y50872D01*
X43790Y50866D01*
X43798Y50859D01*
X43824Y50824D01*
X46824Y47824D01*
X46842Y47814D01*
X46855Y47797D01*
X46921Y47764D01*
X49890Y46774D01*
X52862Y44793D01*
X52923Y44773D01*
X52984Y44751D01*
X52990Y44752D01*
X52995Y44751D01*
X53057Y44768D01*
G37*
G36*
X69033Y205754D02*
X69033Y205754D01*
X69038Y205754D01*
X69097Y205781D01*
X69157Y205807D01*
X69162Y205812D01*
X69165Y205813D01*
X69169Y205819D01*
X69207Y205862D01*
X71207Y208862D01*
X71210Y208870D01*
X71223Y208889D01*
X73223Y212889D01*
X73227Y212909D01*
X73238Y212927D01*
X73249Y213000D01*
X73249Y218000D01*
X73232Y218058D01*
X73220Y218116D01*
X73212Y218128D01*
X73210Y218134D01*
X73202Y218141D01*
X73176Y218176D01*
X70176Y221176D01*
X70124Y221205D01*
X70074Y221238D01*
X70059Y221240D01*
X70054Y221243D01*
X70043Y221243D01*
X70000Y221249D01*
X66000Y221249D01*
X65942Y221232D01*
X65884Y221220D01*
X65872Y221212D01*
X65866Y221210D01*
X65859Y221202D01*
X65824Y221176D01*
X62824Y218176D01*
X62814Y218158D01*
X62797Y218145D01*
X62764Y218079D01*
X61774Y215110D01*
X59793Y212138D01*
X59773Y212077D01*
X59751Y212016D01*
X59752Y212010D01*
X59751Y212005D01*
X59768Y211943D01*
X59782Y211879D01*
X59786Y211875D01*
X59787Y211870D01*
X59835Y211827D01*
X59881Y211781D01*
X59888Y211778D01*
X59891Y211776D01*
X59899Y211775D01*
X59951Y211756D01*
X64877Y210770D01*
X66806Y208841D01*
X68793Y205862D01*
X68843Y205820D01*
X68891Y205776D01*
X68896Y205775D01*
X68900Y205772D01*
X68964Y205763D01*
X69029Y205752D01*
X69033Y205754D01*
G37*
G36*
X64032Y40762D02*
X64032Y40762D01*
X64086Y40766D01*
X64100Y40776D01*
X64116Y40780D01*
X64176Y40824D01*
X66176Y42824D01*
X66185Y42839D01*
X66198Y42849D01*
X66209Y42876D01*
X66220Y42889D01*
X66223Y42909D01*
X66243Y42946D01*
X66242Y42963D01*
X66248Y42979D01*
X66240Y43021D01*
X66241Y43027D01*
X66237Y43036D01*
X66234Y43086D01*
X66224Y43100D01*
X66220Y43116D01*
X66176Y43176D01*
X63353Y46000D01*
X66176Y48824D01*
X66185Y48839D01*
X66198Y48849D01*
X66218Y48899D01*
X66243Y48946D01*
X66242Y48963D01*
X66248Y48979D01*
X66238Y49032D01*
X66234Y49086D01*
X66224Y49100D01*
X66220Y49116D01*
X66176Y49176D01*
X64176Y51176D01*
X64161Y51185D01*
X64151Y51198D01*
X64101Y51218D01*
X64054Y51243D01*
X64037Y51242D01*
X64021Y51248D01*
X63968Y51238D01*
X63914Y51234D01*
X63900Y51224D01*
X63884Y51220D01*
X63824Y51176D01*
X61000Y48353D01*
X58176Y51176D01*
X58161Y51185D01*
X58151Y51198D01*
X58101Y51218D01*
X58054Y51243D01*
X58037Y51242D01*
X58021Y51248D01*
X57968Y51238D01*
X57914Y51234D01*
X57900Y51224D01*
X57884Y51220D01*
X57824Y51176D01*
X55824Y49176D01*
X55815Y49161D01*
X55802Y49151D01*
X55782Y49101D01*
X55757Y49054D01*
X55758Y49037D01*
X55752Y49021D01*
X55762Y48968D01*
X55766Y48914D01*
X55776Y48900D01*
X55780Y48884D01*
X55824Y48824D01*
X58648Y46000D01*
X55824Y43176D01*
X55815Y43161D01*
X55802Y43151D01*
X55783Y43103D01*
X55780Y43099D01*
X55779Y43095D01*
X55757Y43054D01*
X55758Y43037D01*
X55752Y43021D01*
X55761Y42974D01*
X55759Y42961D01*
X55764Y42950D01*
X55766Y42914D01*
X55776Y42900D01*
X55780Y42884D01*
X55814Y42837D01*
X55816Y42833D01*
X55818Y42831D01*
X55824Y42824D01*
X57824Y40824D01*
X57839Y40815D01*
X57849Y40802D01*
X57899Y40782D01*
X57946Y40757D01*
X57963Y40758D01*
X57979Y40752D01*
X58032Y40762D01*
X58086Y40766D01*
X58100Y40776D01*
X58116Y40780D01*
X58176Y40824D01*
X61000Y43648D01*
X63824Y40824D01*
X63839Y40815D01*
X63849Y40802D01*
X63899Y40782D01*
X63946Y40757D01*
X63963Y40758D01*
X63979Y40752D01*
X64032Y40762D01*
G37*
G36*
X222032Y198762D02*
X222032Y198762D01*
X222086Y198766D01*
X222100Y198776D01*
X222116Y198780D01*
X222176Y198824D01*
X224176Y200824D01*
X224185Y200839D01*
X224198Y200849D01*
X224209Y200876D01*
X224220Y200889D01*
X224223Y200909D01*
X224243Y200946D01*
X224242Y200963D01*
X224248Y200979D01*
X224240Y201021D01*
X224241Y201027D01*
X224237Y201036D01*
X224234Y201086D01*
X224224Y201100D01*
X224220Y201116D01*
X224176Y201176D01*
X216176Y209176D01*
X216161Y209185D01*
X216151Y209198D01*
X216101Y209218D01*
X216054Y209243D01*
X216037Y209242D01*
X216021Y209248D01*
X215968Y209238D01*
X215914Y209234D01*
X215900Y209224D01*
X215884Y209220D01*
X215824Y209176D01*
X213824Y207176D01*
X213815Y207161D01*
X213802Y207151D01*
X213782Y207101D01*
X213757Y207054D01*
X213758Y207037D01*
X213752Y207021D01*
X213762Y206968D01*
X213766Y206914D01*
X213776Y206900D01*
X213780Y206884D01*
X213824Y206824D01*
X221824Y198824D01*
X221839Y198815D01*
X221849Y198802D01*
X221899Y198782D01*
X221946Y198757D01*
X221963Y198758D01*
X221979Y198752D01*
X222032Y198762D01*
G37*
G36*
X216032Y40762D02*
X216032Y40762D01*
X216086Y40766D01*
X216100Y40776D01*
X216116Y40780D01*
X216176Y40824D01*
X224176Y48824D01*
X224185Y48839D01*
X224198Y48849D01*
X224218Y48899D01*
X224243Y48946D01*
X224242Y48963D01*
X224248Y48979D01*
X224238Y49032D01*
X224234Y49086D01*
X224224Y49100D01*
X224220Y49116D01*
X224176Y49176D01*
X222176Y51176D01*
X222161Y51185D01*
X222151Y51198D01*
X222101Y51218D01*
X222054Y51243D01*
X222037Y51242D01*
X222021Y51248D01*
X221968Y51238D01*
X221914Y51234D01*
X221900Y51224D01*
X221884Y51220D01*
X221824Y51176D01*
X213824Y43176D01*
X213815Y43161D01*
X213802Y43151D01*
X213783Y43103D01*
X213780Y43099D01*
X213779Y43095D01*
X213757Y43054D01*
X213758Y43037D01*
X213752Y43021D01*
X213761Y42974D01*
X213759Y42961D01*
X213764Y42950D01*
X213766Y42914D01*
X213776Y42900D01*
X213780Y42884D01*
X213814Y42837D01*
X213816Y42833D01*
X213818Y42831D01*
X213824Y42824D01*
X215824Y40824D01*
X215839Y40815D01*
X215849Y40802D01*
X215899Y40782D01*
X215946Y40757D01*
X215963Y40758D01*
X215979Y40752D01*
X216032Y40762D01*
G37*
D10*
X74946Y12958D02*
X74946Y5451D01*
X74944Y5360D01*
X74938Y5269D01*
X74929Y5179D01*
X74915Y5088D01*
X74898Y4999D01*
X74877Y4911D01*
X74852Y4823D01*
X74823Y4736D01*
X74791Y4651D01*
X74756Y4567D01*
X74716Y4485D01*
X74674Y4405D01*
X74628Y4326D01*
X74578Y4250D01*
X74526Y4176D01*
X74470Y4103D01*
X74411Y4034D01*
X74350Y3967D01*
X74285Y3902D01*
X74218Y3841D01*
X74149Y3782D01*
X74076Y3726D01*
X74002Y3674D01*
X73926Y3624D01*
X73847Y3578D01*
X73767Y3536D01*
X73685Y3496D01*
X73601Y3461D01*
X73516Y3429D01*
X73429Y3400D01*
X73341Y3375D01*
X73253Y3354D01*
X73164Y3337D01*
X73073Y3323D01*
X72983Y3314D01*
X72892Y3308D01*
X72801Y3306D01*
X71728Y3306D01*
X80644Y3306D02*
X80644Y12958D01*
X83861Y7596D01*
X87079Y12958D01*
X87079Y3306D01*
X92646Y7060D02*
X99080Y7060D01*
X104527Y3306D02*
X108817Y3306D01*
X104527Y3306D02*
X104527Y12958D01*
X108817Y12958D01*
X107745Y8668D02*
X104527Y8668D01*
X113263Y9741D02*
X113263Y3306D01*
X113263Y9741D02*
X115944Y9741D01*
X116023Y9739D01*
X116102Y9733D01*
X116180Y9724D01*
X116258Y9710D01*
X116335Y9693D01*
X116411Y9672D01*
X116486Y9647D01*
X116560Y9619D01*
X116632Y9587D01*
X116702Y9551D01*
X116771Y9512D01*
X116838Y9470D01*
X116902Y9424D01*
X116965Y9376D01*
X117025Y9324D01*
X117082Y9270D01*
X117136Y9213D01*
X117188Y9153D01*
X117236Y9090D01*
X117282Y9026D01*
X117324Y8959D01*
X117363Y8890D01*
X117399Y8820D01*
X117431Y8748D01*
X117459Y8674D01*
X117484Y8599D01*
X117505Y8523D01*
X117522Y8446D01*
X117536Y8368D01*
X117545Y8290D01*
X117551Y8211D01*
X117553Y8132D01*
X117553Y3306D01*
X124323Y3306D02*
X122179Y9741D01*
X126468Y9741D02*
X124323Y3306D01*
X139336Y12958D02*
X139433Y12956D01*
X139530Y12950D01*
X139627Y12940D01*
X139723Y12927D01*
X139819Y12909D01*
X139913Y12888D01*
X140007Y12863D01*
X140100Y12834D01*
X140192Y12801D01*
X140282Y12765D01*
X140370Y12725D01*
X140457Y12682D01*
X140543Y12635D01*
X140626Y12584D01*
X140707Y12531D01*
X140786Y12474D01*
X140862Y12414D01*
X140936Y12351D01*
X141008Y12285D01*
X141076Y12217D01*
X141142Y12145D01*
X141205Y12071D01*
X141265Y11995D01*
X141322Y11916D01*
X141375Y11835D01*
X141426Y11752D01*
X141473Y11666D01*
X141516Y11579D01*
X141556Y11491D01*
X141592Y11401D01*
X141625Y11309D01*
X141654Y11216D01*
X141679Y11122D01*
X141700Y11028D01*
X141718Y10932D01*
X141731Y10836D01*
X141741Y10739D01*
X141747Y10642D01*
X141749Y10545D01*
X139336Y12958D02*
X139228Y12956D01*
X139120Y12950D01*
X139012Y12941D01*
X138904Y12928D01*
X138797Y12911D01*
X138691Y12890D01*
X138585Y12866D01*
X138481Y12838D01*
X138377Y12806D01*
X138275Y12771D01*
X138174Y12732D01*
X138074Y12690D01*
X137976Y12644D01*
X137880Y12595D01*
X137785Y12542D01*
X137692Y12486D01*
X137601Y12427D01*
X137513Y12365D01*
X137426Y12300D01*
X137342Y12232D01*
X137260Y12161D01*
X137181Y12087D01*
X137105Y12010D01*
X137031Y11931D01*
X136960Y11849D01*
X136892Y11765D01*
X136827Y11678D01*
X136765Y11590D01*
X136706Y11499D01*
X136650Y11406D01*
X136598Y11311D01*
X136549Y11215D01*
X136503Y11116D01*
X136461Y11017D01*
X136422Y10916D01*
X136387Y10813D01*
X140946Y8668D02*
X141017Y8738D01*
X141085Y8811D01*
X141150Y8887D01*
X141213Y8965D01*
X141272Y9045D01*
X141328Y9128D01*
X141381Y9213D01*
X141431Y9299D01*
X141477Y9388D01*
X141520Y9478D01*
X141560Y9570D01*
X141595Y9663D01*
X141628Y9758D01*
X141656Y9854D01*
X141681Y9951D01*
X141702Y10048D01*
X141719Y10147D01*
X141733Y10246D01*
X141742Y10345D01*
X141748Y10445D01*
X141750Y10545D01*
X140945Y8668D02*
X136387Y3306D01*
X141749Y3306D01*
X146674Y8132D02*
X146676Y8322D01*
X146683Y8512D01*
X146694Y8701D01*
X146710Y8890D01*
X146731Y9079D01*
X146755Y9267D01*
X146785Y9455D01*
X146819Y9642D01*
X146857Y9828D01*
X146900Y10013D01*
X146947Y10197D01*
X146998Y10380D01*
X147054Y10561D01*
X147114Y10741D01*
X147179Y10920D01*
X147247Y11097D01*
X147320Y11272D01*
X147397Y11446D01*
X147478Y11617D01*
X147509Y11700D01*
X147543Y11781D01*
X147580Y11860D01*
X147621Y11938D01*
X147665Y12014D01*
X147713Y12088D01*
X147764Y12160D01*
X147818Y12229D01*
X147875Y12296D01*
X147935Y12360D01*
X147998Y12421D01*
X148063Y12480D01*
X148131Y12536D01*
X148202Y12588D01*
X148274Y12638D01*
X148349Y12684D01*
X148426Y12727D01*
X148504Y12766D01*
X148585Y12802D01*
X148666Y12835D01*
X148750Y12863D01*
X148834Y12888D01*
X148919Y12910D01*
X149005Y12927D01*
X149092Y12941D01*
X149179Y12950D01*
X149267Y12956D01*
X149355Y12958D01*
X149443Y12956D01*
X149531Y12950D01*
X149618Y12941D01*
X149705Y12927D01*
X149791Y12910D01*
X149876Y12888D01*
X149960Y12863D01*
X150044Y12835D01*
X150125Y12802D01*
X150206Y12766D01*
X150284Y12727D01*
X150361Y12684D01*
X150436Y12638D01*
X150508Y12588D01*
X150579Y12536D01*
X150647Y12480D01*
X150712Y12421D01*
X150775Y12360D01*
X150835Y12296D01*
X150892Y12229D01*
X150946Y12159D01*
X150997Y12088D01*
X151045Y12014D01*
X151089Y11938D01*
X151130Y11860D01*
X151167Y11781D01*
X151201Y11700D01*
X151232Y11617D01*
X151232Y11618D02*
X151313Y11446D01*
X151390Y11272D01*
X151463Y11097D01*
X151531Y10920D01*
X151596Y10741D01*
X151656Y10561D01*
X151712Y10380D01*
X151763Y10197D01*
X151810Y10013D01*
X151853Y9828D01*
X151891Y9642D01*
X151925Y9455D01*
X151955Y9267D01*
X151979Y9079D01*
X152000Y8890D01*
X152016Y8701D01*
X152027Y8512D01*
X152034Y8322D01*
X152036Y8132D01*
X146674Y8132D02*
X146676Y7942D01*
X146683Y7752D01*
X146694Y7563D01*
X146710Y7374D01*
X146731Y7185D01*
X146755Y6997D01*
X146785Y6809D01*
X146819Y6622D01*
X146857Y6436D01*
X146900Y6251D01*
X146947Y6067D01*
X146998Y5884D01*
X147054Y5703D01*
X147114Y5523D01*
X147179Y5344D01*
X147247Y5167D01*
X147320Y4992D01*
X147397Y4818D01*
X147478Y4647D01*
X147509Y4564D01*
X147543Y4483D01*
X147580Y4403D01*
X147621Y4326D01*
X147665Y4250D01*
X147713Y4176D01*
X147764Y4104D01*
X147818Y4035D01*
X147875Y3968D01*
X147935Y3904D01*
X147998Y3843D01*
X148063Y3784D01*
X148131Y3728D01*
X148202Y3676D01*
X148274Y3626D01*
X148349Y3580D01*
X148426Y3537D01*
X148505Y3498D01*
X148585Y3462D01*
X148666Y3429D01*
X148750Y3401D01*
X148834Y3376D01*
X148919Y3354D01*
X149005Y3337D01*
X149092Y3323D01*
X149179Y3314D01*
X149267Y3308D01*
X149355Y3306D01*
X151232Y4647D02*
X151313Y4818D01*
X151390Y4992D01*
X151463Y5167D01*
X151531Y5344D01*
X151596Y5523D01*
X151656Y5703D01*
X151712Y5884D01*
X151763Y6067D01*
X151810Y6251D01*
X151853Y6436D01*
X151891Y6622D01*
X151925Y6809D01*
X151955Y6997D01*
X151979Y7185D01*
X152000Y7374D01*
X152016Y7563D01*
X152027Y7752D01*
X152034Y7942D01*
X152036Y8132D01*
X151232Y4647D02*
X151201Y4564D01*
X151167Y4483D01*
X151130Y4404D01*
X151089Y4326D01*
X151045Y4250D01*
X150997Y4176D01*
X150946Y4104D01*
X150892Y4035D01*
X150835Y3968D01*
X150775Y3904D01*
X150712Y3843D01*
X150647Y3784D01*
X150579Y3728D01*
X150508Y3676D01*
X150436Y3626D01*
X150361Y3580D01*
X150284Y3537D01*
X150206Y3498D01*
X150125Y3462D01*
X150044Y3429D01*
X149960Y3401D01*
X149876Y3376D01*
X149791Y3354D01*
X149705Y3337D01*
X149618Y3323D01*
X149531Y3314D01*
X149443Y3308D01*
X149355Y3306D01*
X147210Y5451D02*
X151500Y10813D01*
X156961Y5451D02*
X159106Y12958D01*
X156961Y5451D02*
X162323Y5451D01*
X160714Y7596D02*
X160714Y3306D01*
X172242Y9741D02*
X174387Y3306D01*
X176532Y9741D01*
X180964Y5451D02*
X183109Y12958D01*
X180964Y5451D02*
X186326Y5451D01*
X184717Y7596D02*
X184717Y3306D01*
X190578Y3306D02*
X190578Y3842D01*
X191114Y3842D01*
X191114Y3306D01*
X190578Y3306D01*
X198315Y12958D02*
X198412Y12956D01*
X198509Y12950D01*
X198606Y12940D01*
X198702Y12927D01*
X198798Y12909D01*
X198892Y12888D01*
X198986Y12863D01*
X199079Y12834D01*
X199171Y12801D01*
X199261Y12765D01*
X199349Y12725D01*
X199436Y12682D01*
X199522Y12635D01*
X199605Y12584D01*
X199686Y12531D01*
X199765Y12474D01*
X199841Y12414D01*
X199915Y12351D01*
X199987Y12285D01*
X200055Y12217D01*
X200121Y12145D01*
X200184Y12071D01*
X200244Y11995D01*
X200301Y11916D01*
X200354Y11835D01*
X200405Y11752D01*
X200452Y11666D01*
X200495Y11579D01*
X200535Y11491D01*
X200571Y11401D01*
X200604Y11309D01*
X200633Y11216D01*
X200658Y11122D01*
X200679Y11028D01*
X200697Y10932D01*
X200710Y10836D01*
X200720Y10739D01*
X200726Y10642D01*
X200728Y10545D01*
X198315Y12958D02*
X198207Y12956D01*
X198099Y12950D01*
X197991Y12941D01*
X197883Y12928D01*
X197776Y12911D01*
X197670Y12890D01*
X197564Y12866D01*
X197460Y12838D01*
X197356Y12806D01*
X197254Y12771D01*
X197153Y12732D01*
X197053Y12690D01*
X196955Y12644D01*
X196859Y12595D01*
X196764Y12542D01*
X196671Y12486D01*
X196580Y12427D01*
X196492Y12365D01*
X196405Y12300D01*
X196321Y12232D01*
X196239Y12161D01*
X196160Y12087D01*
X196084Y12010D01*
X196010Y11931D01*
X195939Y11849D01*
X195871Y11765D01*
X195806Y11678D01*
X195744Y11590D01*
X195685Y11499D01*
X195629Y11406D01*
X195577Y11311D01*
X195528Y11215D01*
X195482Y11116D01*
X195440Y11017D01*
X195401Y10916D01*
X195366Y10813D01*
X199924Y8668D02*
X199995Y8738D01*
X200063Y8811D01*
X200128Y8887D01*
X200191Y8965D01*
X200250Y9045D01*
X200306Y9128D01*
X200359Y9213D01*
X200409Y9299D01*
X200455Y9388D01*
X200498Y9478D01*
X200538Y9570D01*
X200573Y9663D01*
X200606Y9758D01*
X200634Y9854D01*
X200659Y9951D01*
X200680Y10048D01*
X200697Y10147D01*
X200711Y10246D01*
X200720Y10345D01*
X200726Y10445D01*
X200728Y10545D01*
X199923Y8668D02*
X195366Y3306D01*
X200728Y3306D01*
D11*
X214997Y167365D02*
X214995Y167452D01*
X214989Y167539D01*
X214979Y167625D01*
X214966Y167711D01*
X214948Y167797D01*
X214927Y167881D01*
X214902Y167964D01*
X214873Y168047D01*
X214841Y168127D01*
X214805Y168207D01*
X214765Y168284D01*
X214722Y168360D01*
X214676Y168434D01*
X214626Y168505D01*
X214574Y168575D01*
X214518Y168641D01*
X214459Y168706D01*
X214398Y168767D01*
X214333Y168826D01*
X214267Y168882D01*
X214197Y168934D01*
X214126Y168984D01*
X214052Y169030D01*
X213976Y169073D01*
X213899Y169113D01*
X213819Y169149D01*
X213739Y169181D01*
X213656Y169210D01*
X213573Y169235D01*
X213489Y169256D01*
X213403Y169274D01*
X213317Y169287D01*
X213231Y169297D01*
X213144Y169303D01*
X213057Y169305D01*
X214997Y167365D02*
X214995Y167241D01*
X214989Y167116D01*
X214980Y166992D01*
X214967Y166868D01*
X214950Y166745D01*
X214929Y166622D01*
X214905Y166500D01*
X214877Y166379D01*
X214845Y166259D01*
X214809Y166140D01*
X214770Y166021D01*
X214728Y165904D01*
X214682Y165789D01*
X214632Y165675D01*
X214579Y165562D01*
X214523Y165451D01*
X214463Y165342D01*
X214400Y165235D01*
X214334Y165129D01*
X214264Y165026D01*
X214192Y164925D01*
X214116Y164826D01*
X214037Y164730D01*
X213956Y164636D01*
X213872Y164544D01*
X213785Y164455D01*
X208207Y164697D02*
X208120Y164699D01*
X208033Y164705D01*
X207947Y164715D01*
X207861Y164728D01*
X207775Y164746D01*
X207691Y164767D01*
X207608Y164792D01*
X207525Y164821D01*
X207445Y164853D01*
X207365Y164889D01*
X207288Y164929D01*
X207212Y164972D01*
X207138Y165018D01*
X207067Y165068D01*
X206997Y165120D01*
X206931Y165176D01*
X206866Y165235D01*
X206805Y165296D01*
X206746Y165361D01*
X206690Y165427D01*
X206638Y165497D01*
X206588Y165568D01*
X206542Y165642D01*
X206499Y165718D01*
X206459Y165795D01*
X206423Y165875D01*
X206391Y165955D01*
X206362Y166038D01*
X206337Y166121D01*
X206316Y166205D01*
X206298Y166291D01*
X206285Y166377D01*
X206275Y166463D01*
X206269Y166550D01*
X206267Y166637D01*
X206269Y166754D01*
X206275Y166871D01*
X206284Y166988D01*
X206297Y167104D01*
X206314Y167220D01*
X206335Y167335D01*
X206359Y167449D01*
X206387Y167563D01*
X206418Y167676D01*
X206454Y167787D01*
X206492Y167898D01*
X206535Y168007D01*
X206581Y168115D01*
X206630Y168221D01*
X206683Y168325D01*
X206739Y168428D01*
X206798Y168529D01*
X206860Y168628D01*
X206926Y168725D01*
X206995Y168820D01*
X209904Y165667D02*
X209859Y165594D01*
X209811Y165524D01*
X209761Y165456D01*
X209707Y165390D01*
X209650Y165326D01*
X209591Y165265D01*
X209529Y165206D01*
X209464Y165150D01*
X209398Y165097D01*
X209329Y165047D01*
X209257Y165000D01*
X209184Y164957D01*
X209110Y164916D01*
X209033Y164878D01*
X208955Y164844D01*
X208875Y164814D01*
X208795Y164787D01*
X208713Y164763D01*
X208630Y164743D01*
X208546Y164726D01*
X208462Y164714D01*
X208377Y164704D01*
X208292Y164699D01*
X208207Y164697D01*
X211360Y168334D02*
X211405Y168407D01*
X211453Y168477D01*
X211503Y168545D01*
X211557Y168611D01*
X211614Y168675D01*
X211673Y168736D01*
X211735Y168795D01*
X211800Y168851D01*
X211866Y168904D01*
X211935Y168954D01*
X212007Y169001D01*
X212080Y169044D01*
X212154Y169085D01*
X212231Y169123D01*
X212309Y169157D01*
X212389Y169187D01*
X212469Y169214D01*
X212551Y169238D01*
X212634Y169258D01*
X212718Y169275D01*
X212802Y169287D01*
X212887Y169297D01*
X212972Y169302D01*
X213057Y169304D01*
X211360Y168335D02*
X209905Y165667D01*
X206267Y173455D02*
X214997Y173455D01*
X206267Y173455D02*
X206267Y175880D01*
X206269Y175978D01*
X206275Y176075D01*
X206285Y176172D01*
X206298Y176269D01*
X206316Y176365D01*
X206337Y176460D01*
X206363Y176555D01*
X206392Y176648D01*
X206425Y176740D01*
X206461Y176831D01*
X206501Y176920D01*
X206545Y177007D01*
X206592Y177093D01*
X206642Y177176D01*
X206696Y177258D01*
X206753Y177337D01*
X206814Y177414D01*
X206877Y177488D01*
X206943Y177560D01*
X207012Y177629D01*
X207084Y177695D01*
X207158Y177758D01*
X207235Y177819D01*
X207314Y177876D01*
X207396Y177930D01*
X207480Y177980D01*
X207565Y178027D01*
X207652Y178071D01*
X207741Y178111D01*
X207832Y178147D01*
X207924Y178180D01*
X208017Y178209D01*
X208112Y178235D01*
X208207Y178256D01*
X208303Y178274D01*
X208400Y178287D01*
X208497Y178297D01*
X208594Y178303D01*
X208692Y178305D01*
X212572Y178305D01*
X212670Y178303D01*
X212767Y178297D01*
X212864Y178287D01*
X212961Y178274D01*
X213057Y178256D01*
X213152Y178235D01*
X213247Y178209D01*
X213340Y178180D01*
X213432Y178147D01*
X213523Y178111D01*
X213612Y178071D01*
X213699Y178027D01*
X213785Y177980D01*
X213868Y177930D01*
X213950Y177876D01*
X214029Y177819D01*
X214106Y177758D01*
X214180Y177695D01*
X214252Y177629D01*
X214321Y177560D01*
X214387Y177488D01*
X214450Y177414D01*
X214511Y177337D01*
X214568Y177258D01*
X214622Y177176D01*
X214672Y177093D01*
X214719Y177007D01*
X214763Y176920D01*
X214803Y176831D01*
X214839Y176740D01*
X214872Y176648D01*
X214901Y176555D01*
X214927Y176460D01*
X214948Y176365D01*
X214966Y176269D01*
X214979Y176172D01*
X214989Y176075D01*
X214995Y175978D01*
X214997Y175880D01*
X214997Y173455D01*
X214997Y182270D02*
X206267Y185180D01*
X214997Y188090D01*
X212815Y187362D02*
X212815Y182997D01*
X174581Y145921D02*
X174668Y145919D01*
X174755Y145913D01*
X174841Y145903D01*
X174927Y145890D01*
X175013Y145872D01*
X175097Y145851D01*
X175180Y145826D01*
X175263Y145797D01*
X175343Y145765D01*
X175423Y145729D01*
X175500Y145689D01*
X175576Y145646D01*
X175650Y145600D01*
X175721Y145550D01*
X175791Y145498D01*
X175857Y145442D01*
X175922Y145383D01*
X175983Y145322D01*
X176042Y145257D01*
X176098Y145191D01*
X176150Y145121D01*
X176200Y145050D01*
X176246Y144976D01*
X176289Y144900D01*
X176329Y144823D01*
X176365Y144743D01*
X176397Y144663D01*
X176426Y144580D01*
X176451Y144497D01*
X176472Y144413D01*
X176490Y144327D01*
X176503Y144241D01*
X176513Y144155D01*
X176519Y144068D01*
X176521Y143981D01*
X176519Y143857D01*
X176513Y143732D01*
X176504Y143608D01*
X176491Y143484D01*
X176474Y143361D01*
X176453Y143238D01*
X176429Y143116D01*
X176401Y142995D01*
X176369Y142875D01*
X176333Y142756D01*
X176294Y142637D01*
X176252Y142520D01*
X176206Y142405D01*
X176156Y142291D01*
X176103Y142178D01*
X176047Y142067D01*
X175987Y141958D01*
X175924Y141851D01*
X175858Y141745D01*
X175788Y141642D01*
X175716Y141541D01*
X175640Y141442D01*
X175561Y141346D01*
X175480Y141252D01*
X175396Y141160D01*
X175309Y141071D01*
X169731Y141313D02*
X169644Y141315D01*
X169557Y141321D01*
X169471Y141331D01*
X169385Y141344D01*
X169299Y141362D01*
X169215Y141383D01*
X169132Y141408D01*
X169049Y141437D01*
X168969Y141469D01*
X168889Y141505D01*
X168812Y141545D01*
X168736Y141588D01*
X168662Y141634D01*
X168591Y141684D01*
X168521Y141736D01*
X168455Y141792D01*
X168390Y141851D01*
X168329Y141912D01*
X168270Y141977D01*
X168214Y142043D01*
X168162Y142113D01*
X168112Y142184D01*
X168066Y142258D01*
X168023Y142334D01*
X167983Y142411D01*
X167947Y142491D01*
X167915Y142571D01*
X167886Y142654D01*
X167861Y142737D01*
X167840Y142821D01*
X167822Y142907D01*
X167809Y142993D01*
X167799Y143079D01*
X167793Y143166D01*
X167791Y143253D01*
X167793Y143370D01*
X167799Y143487D01*
X167808Y143604D01*
X167821Y143720D01*
X167838Y143836D01*
X167859Y143951D01*
X167883Y144065D01*
X167911Y144179D01*
X167942Y144292D01*
X167978Y144403D01*
X168016Y144514D01*
X168059Y144623D01*
X168105Y144731D01*
X168154Y144837D01*
X168207Y144941D01*
X168263Y145044D01*
X168322Y145145D01*
X168384Y145244D01*
X168450Y145341D01*
X168519Y145436D01*
X171428Y142283D02*
X171383Y142210D01*
X171335Y142140D01*
X171285Y142072D01*
X171231Y142006D01*
X171174Y141942D01*
X171115Y141881D01*
X171053Y141822D01*
X170988Y141766D01*
X170922Y141713D01*
X170853Y141663D01*
X170781Y141616D01*
X170708Y141573D01*
X170634Y141532D01*
X170557Y141494D01*
X170479Y141460D01*
X170399Y141430D01*
X170319Y141403D01*
X170237Y141379D01*
X170154Y141359D01*
X170070Y141342D01*
X169986Y141330D01*
X169901Y141320D01*
X169816Y141315D01*
X169731Y141313D01*
X172884Y144950D02*
X172929Y145023D01*
X172977Y145093D01*
X173027Y145161D01*
X173081Y145227D01*
X173138Y145291D01*
X173197Y145352D01*
X173259Y145411D01*
X173324Y145467D01*
X173390Y145520D01*
X173459Y145570D01*
X173531Y145617D01*
X173604Y145660D01*
X173678Y145701D01*
X173755Y145739D01*
X173833Y145773D01*
X173913Y145803D01*
X173993Y145830D01*
X174075Y145854D01*
X174158Y145874D01*
X174242Y145891D01*
X174326Y145903D01*
X174411Y145913D01*
X174496Y145918D01*
X174581Y145920D01*
X172884Y144951D02*
X171429Y142283D01*
X176521Y151677D02*
X176521Y153617D01*
X176521Y151677D02*
X176519Y151590D01*
X176513Y151503D01*
X176503Y151417D01*
X176490Y151331D01*
X176472Y151245D01*
X176451Y151161D01*
X176426Y151078D01*
X176397Y150995D01*
X176365Y150915D01*
X176329Y150835D01*
X176289Y150758D01*
X176246Y150682D01*
X176200Y150608D01*
X176150Y150537D01*
X176098Y150467D01*
X176042Y150401D01*
X175983Y150336D01*
X175922Y150275D01*
X175857Y150216D01*
X175791Y150160D01*
X175721Y150108D01*
X175650Y150058D01*
X175576Y150012D01*
X175500Y149969D01*
X175423Y149929D01*
X175343Y149893D01*
X175263Y149861D01*
X175180Y149832D01*
X175097Y149807D01*
X175013Y149786D01*
X174927Y149768D01*
X174841Y149755D01*
X174755Y149745D01*
X174668Y149739D01*
X174581Y149737D01*
X169731Y149737D01*
X169644Y149739D01*
X169557Y149745D01*
X169471Y149755D01*
X169385Y149768D01*
X169299Y149786D01*
X169215Y149807D01*
X169132Y149832D01*
X169049Y149861D01*
X168969Y149893D01*
X168889Y149929D01*
X168812Y149969D01*
X168736Y150012D01*
X168662Y150058D01*
X168591Y150108D01*
X168521Y150160D01*
X168455Y150216D01*
X168390Y150275D01*
X168329Y150336D01*
X168270Y150401D01*
X168214Y150467D01*
X168162Y150537D01*
X168112Y150608D01*
X168066Y150682D01*
X168023Y150758D01*
X167983Y150835D01*
X167947Y150915D01*
X167915Y150995D01*
X167886Y151078D01*
X167861Y151161D01*
X167840Y151245D01*
X167822Y151331D01*
X167809Y151417D01*
X167799Y151503D01*
X167793Y151590D01*
X167791Y151677D01*
X167791Y153617D01*
X167791Y157593D02*
X176521Y157593D01*
X176521Y161473D01*
X204051Y119567D02*
X204051Y118112D01*
X204051Y119567D02*
X208901Y119567D01*
X208901Y116657D01*
X208899Y116570D01*
X208893Y116483D01*
X208883Y116397D01*
X208870Y116311D01*
X208852Y116225D01*
X208831Y116141D01*
X208806Y116058D01*
X208777Y115975D01*
X208745Y115895D01*
X208709Y115815D01*
X208669Y115738D01*
X208626Y115662D01*
X208580Y115588D01*
X208530Y115517D01*
X208478Y115447D01*
X208422Y115381D01*
X208363Y115316D01*
X208302Y115255D01*
X208237Y115196D01*
X208171Y115140D01*
X208101Y115088D01*
X208030Y115038D01*
X207956Y114992D01*
X207880Y114949D01*
X207803Y114909D01*
X207723Y114873D01*
X207643Y114841D01*
X207560Y114812D01*
X207477Y114787D01*
X207393Y114766D01*
X207307Y114748D01*
X207221Y114735D01*
X207135Y114725D01*
X207048Y114719D01*
X206961Y114717D01*
X202111Y114717D01*
X202024Y114719D01*
X201937Y114725D01*
X201851Y114735D01*
X201765Y114748D01*
X201679Y114766D01*
X201595Y114787D01*
X201512Y114812D01*
X201429Y114841D01*
X201349Y114873D01*
X201269Y114909D01*
X201192Y114949D01*
X201116Y114992D01*
X201042Y115038D01*
X200971Y115088D01*
X200901Y115140D01*
X200835Y115196D01*
X200770Y115255D01*
X200709Y115316D01*
X200650Y115381D01*
X200594Y115447D01*
X200542Y115517D01*
X200492Y115588D01*
X200446Y115662D01*
X200403Y115738D01*
X200363Y115815D01*
X200327Y115895D01*
X200295Y115975D01*
X200266Y116058D01*
X200241Y116141D01*
X200220Y116225D01*
X200202Y116311D01*
X200189Y116397D01*
X200179Y116483D01*
X200173Y116570D01*
X200171Y116657D01*
X200171Y119567D01*
X200171Y124317D02*
X208901Y124317D01*
X208901Y129167D02*
X200171Y124317D01*
X200171Y129167D02*
X208901Y129167D01*
X208901Y133917D02*
X200171Y133917D01*
X200171Y136342D01*
X200173Y136440D01*
X200179Y136537D01*
X200189Y136634D01*
X200202Y136731D01*
X200220Y136827D01*
X200241Y136922D01*
X200267Y137017D01*
X200296Y137110D01*
X200329Y137202D01*
X200365Y137293D01*
X200405Y137382D01*
X200449Y137469D01*
X200496Y137555D01*
X200546Y137638D01*
X200600Y137720D01*
X200657Y137799D01*
X200718Y137876D01*
X200781Y137950D01*
X200847Y138022D01*
X200916Y138091D01*
X200988Y138157D01*
X201062Y138220D01*
X201139Y138281D01*
X201218Y138338D01*
X201300Y138392D01*
X201384Y138442D01*
X201469Y138489D01*
X201556Y138533D01*
X201645Y138573D01*
X201736Y138609D01*
X201828Y138642D01*
X201921Y138671D01*
X202016Y138697D01*
X202111Y138718D01*
X202207Y138736D01*
X202304Y138749D01*
X202401Y138759D01*
X202498Y138765D01*
X202596Y138767D01*
X206476Y138767D01*
X206574Y138765D01*
X206671Y138759D01*
X206768Y138749D01*
X206865Y138736D01*
X206961Y138718D01*
X207056Y138697D01*
X207151Y138671D01*
X207244Y138642D01*
X207336Y138609D01*
X207427Y138573D01*
X207516Y138533D01*
X207603Y138489D01*
X207689Y138442D01*
X207772Y138392D01*
X207854Y138338D01*
X207933Y138281D01*
X208010Y138220D01*
X208084Y138157D01*
X208156Y138091D01*
X208225Y138022D01*
X208291Y137950D01*
X208354Y137876D01*
X208415Y137799D01*
X208472Y137720D01*
X208526Y137638D01*
X208576Y137555D01*
X208623Y137469D01*
X208667Y137382D01*
X208707Y137293D01*
X208743Y137202D01*
X208776Y137110D01*
X208805Y137017D01*
X208831Y136922D01*
X208852Y136827D01*
X208870Y136731D01*
X208883Y136634D01*
X208893Y136537D01*
X208899Y136440D01*
X208901Y136342D01*
X208901Y133917D01*
D12*
X209550Y73152D02*
X198120Y73152D01*
X209550Y73152D02*
X211836Y70866D01*
X209550Y88392D02*
X198120Y99822D01*
X209550Y88392D02*
X227076Y88392D01*
X232410Y83058D01*
D13*
X249427Y69794D02*
X251262Y69794D01*
X251347Y69796D01*
X251431Y69802D01*
X251515Y69812D01*
X251599Y69825D01*
X251682Y69843D01*
X251764Y69864D01*
X251845Y69889D01*
X251925Y69918D01*
X252003Y69950D01*
X252079Y69986D01*
X252154Y70026D01*
X252227Y70069D01*
X252298Y70115D01*
X252367Y70164D01*
X252434Y70217D01*
X252498Y70273D01*
X252559Y70331D01*
X252617Y70392D01*
X252673Y70456D01*
X252726Y70523D01*
X252775Y70592D01*
X252821Y70663D01*
X252864Y70736D01*
X252904Y70811D01*
X252940Y70887D01*
X252972Y70965D01*
X253001Y71045D01*
X253026Y71126D01*
X253047Y71208D01*
X253065Y71291D01*
X253078Y71375D01*
X253088Y71459D01*
X253094Y71543D01*
X253096Y71628D01*
X253094Y71713D01*
X253088Y71797D01*
X253078Y71881D01*
X253065Y71965D01*
X253047Y72048D01*
X253026Y72130D01*
X253001Y72211D01*
X252972Y72291D01*
X252940Y72369D01*
X252904Y72445D01*
X252864Y72520D01*
X252821Y72593D01*
X252775Y72664D01*
X252726Y72733D01*
X252673Y72800D01*
X252617Y72864D01*
X252559Y72925D01*
X252498Y72983D01*
X252434Y73039D01*
X252367Y73092D01*
X252298Y73141D01*
X252227Y73187D01*
X252154Y73230D01*
X252079Y73270D01*
X252003Y73306D01*
X251925Y73338D01*
X251845Y73367D01*
X251764Y73392D01*
X251682Y73413D01*
X251599Y73431D01*
X251515Y73444D01*
X251431Y73454D01*
X251347Y73460D01*
X251262Y73462D01*
X251628Y76398D02*
X249427Y76398D01*
X251628Y76398D02*
X251704Y76396D01*
X251779Y76390D01*
X251854Y76381D01*
X251928Y76367D01*
X252002Y76350D01*
X252074Y76328D01*
X252146Y76304D01*
X252216Y76275D01*
X252284Y76243D01*
X252351Y76208D01*
X252416Y76169D01*
X252479Y76126D01*
X252539Y76081D01*
X252597Y76033D01*
X252653Y75981D01*
X252705Y75927D01*
X252755Y75870D01*
X252802Y75811D01*
X252846Y75750D01*
X252887Y75686D01*
X252924Y75620D01*
X252958Y75552D01*
X252988Y75483D01*
X253015Y75412D01*
X253038Y75340D01*
X253057Y75267D01*
X253072Y75193D01*
X253084Y75118D01*
X253092Y75043D01*
X253096Y74968D01*
X253096Y74892D01*
X253092Y74817D01*
X253084Y74742D01*
X253072Y74667D01*
X253057Y74593D01*
X253038Y74520D01*
X253015Y74448D01*
X252988Y74377D01*
X252958Y74308D01*
X252924Y74240D01*
X252887Y74174D01*
X252846Y74110D01*
X252802Y74049D01*
X252755Y73990D01*
X252705Y73933D01*
X252653Y73879D01*
X252597Y73827D01*
X252539Y73779D01*
X252479Y73734D01*
X252416Y73691D01*
X252351Y73652D01*
X252284Y73617D01*
X252216Y73585D01*
X252146Y73556D01*
X252074Y73532D01*
X252002Y73510D01*
X251928Y73493D01*
X251854Y73479D01*
X251779Y73470D01*
X251704Y73464D01*
X251628Y73462D01*
X251628Y73463D02*
X250161Y73463D01*
X255918Y76398D02*
X258120Y69794D01*
X260321Y76398D01*
X230292Y59888D02*
X228091Y59888D01*
X230292Y59888D02*
X230366Y59890D01*
X230441Y59896D01*
X230514Y59905D01*
X230588Y59918D01*
X230660Y59935D01*
X230731Y59955D01*
X230802Y59979D01*
X230871Y60007D01*
X230938Y60038D01*
X231004Y60072D01*
X231069Y60110D01*
X231131Y60151D01*
X231191Y60195D01*
X231248Y60242D01*
X231303Y60292D01*
X231356Y60345D01*
X231406Y60400D01*
X231453Y60457D01*
X231497Y60517D01*
X231538Y60579D01*
X231576Y60644D01*
X231610Y60709D01*
X231641Y60777D01*
X231669Y60846D01*
X231693Y60917D01*
X231713Y60988D01*
X231730Y61060D01*
X231743Y61134D01*
X231752Y61207D01*
X231758Y61282D01*
X231760Y61356D01*
X231760Y62089D01*
X231758Y62163D01*
X231752Y62238D01*
X231743Y62311D01*
X231730Y62385D01*
X231713Y62457D01*
X231693Y62528D01*
X231669Y62599D01*
X231641Y62668D01*
X231610Y62735D01*
X231576Y62801D01*
X231538Y62866D01*
X231497Y62928D01*
X231453Y62988D01*
X231406Y63045D01*
X231356Y63100D01*
X231303Y63153D01*
X231248Y63203D01*
X231191Y63250D01*
X231131Y63294D01*
X231069Y63335D01*
X231004Y63373D01*
X230938Y63407D01*
X230871Y63438D01*
X230802Y63466D01*
X230731Y63490D01*
X230660Y63510D01*
X230588Y63527D01*
X230514Y63540D01*
X230441Y63549D01*
X230366Y63555D01*
X230292Y63557D01*
X228091Y63557D01*
X228091Y66492D01*
X231760Y66492D01*
X234582Y66492D02*
X236784Y59888D01*
X238985Y66492D01*
D14*
X104904Y210762D02*
X98904Y210762D01*
X104904Y210762D02*
X104904Y218762D01*
X82904Y210762D02*
X76904Y210762D01*
X76904Y218762D01*
D15*
X154778Y219798D02*
X154778Y245198D01*
D11*
X95476Y113000D02*
X95478Y113078D01*
X95484Y113155D01*
X95494Y113233D01*
X95508Y113309D01*
X95525Y113385D01*
X95547Y113460D01*
X95572Y113533D01*
X95601Y113606D01*
X95634Y113676D01*
X95671Y113745D01*
X95710Y113812D01*
X95753Y113877D01*
X95800Y113939D01*
X95849Y113999D01*
X95902Y114057D01*
X95957Y114111D01*
X96015Y114163D01*
X96076Y114212D01*
X96139Y114258D01*
X96205Y114300D01*
X96272Y114339D01*
X96341Y114374D01*
X96412Y114406D01*
X96485Y114434D01*
X96559Y114459D01*
X96634Y114479D01*
X96710Y114496D01*
X96787Y114509D01*
X96864Y114518D01*
X96942Y114523D01*
X97019Y114524D01*
X97097Y114521D01*
X97175Y114514D01*
X97252Y114503D01*
X97328Y114488D01*
X97404Y114470D01*
X97478Y114447D01*
X97552Y114421D01*
X97623Y114391D01*
X97694Y114357D01*
X97762Y114320D01*
X97828Y114279D01*
X97893Y114235D01*
X97955Y114188D01*
X98014Y114138D01*
X98071Y114084D01*
X98125Y114028D01*
X98176Y113970D01*
X98224Y113908D01*
X98269Y113845D01*
X98310Y113779D01*
X98348Y113711D01*
X98383Y113641D01*
X98414Y113570D01*
X98441Y113497D01*
X98464Y113423D01*
X98484Y113347D01*
X98500Y113271D01*
X98512Y113194D01*
X98520Y113117D01*
X98524Y113039D01*
X98524Y112961D01*
X98520Y112883D01*
X98512Y112806D01*
X98500Y112729D01*
X98484Y112653D01*
X98464Y112577D01*
X98441Y112503D01*
X98414Y112430D01*
X98383Y112359D01*
X98348Y112289D01*
X98310Y112221D01*
X98269Y112155D01*
X98224Y112092D01*
X98176Y112030D01*
X98125Y111972D01*
X98071Y111916D01*
X98014Y111862D01*
X97955Y111812D01*
X97893Y111765D01*
X97828Y111721D01*
X97762Y111680D01*
X97694Y111643D01*
X97623Y111609D01*
X97552Y111579D01*
X97478Y111553D01*
X97404Y111530D01*
X97328Y111512D01*
X97252Y111497D01*
X97175Y111486D01*
X97097Y111479D01*
X97019Y111476D01*
X96942Y111477D01*
X96864Y111482D01*
X96787Y111491D01*
X96710Y111504D01*
X96634Y111521D01*
X96559Y111541D01*
X96485Y111566D01*
X96412Y111594D01*
X96341Y111626D01*
X96272Y111661D01*
X96205Y111700D01*
X96139Y111742D01*
X96076Y111788D01*
X96015Y111837D01*
X95957Y111889D01*
X95902Y111943D01*
X95849Y112001D01*
X95800Y112061D01*
X95753Y112123D01*
X95710Y112188D01*
X95671Y112255D01*
X95634Y112324D01*
X95601Y112394D01*
X95572Y112467D01*
X95547Y112540D01*
X95525Y112615D01*
X95508Y112691D01*
X95494Y112767D01*
X95484Y112845D01*
X95478Y112922D01*
X95476Y113000D01*
X74000Y134000D02*
X74000Y136000D01*
X76000Y136000D01*
X94000Y136000D02*
X96000Y136000D01*
X96000Y134000D01*
X74000Y116000D02*
X74000Y114000D01*
X76000Y114000D01*
X93000Y114000D02*
X96000Y117000D01*
D16*
X400Y125000D02*
X-900Y125000D01*
X0Y125400D02*
X0Y124500D01*
D12*
X97744Y186490D02*
X97744Y194618D01*
X103332Y194618D01*
X126192Y194618D02*
X126192Y186490D01*
X126192Y194618D02*
X120604Y194618D01*
D17*
X116442Y81812D02*
X153442Y81812D01*
X153442Y16812D01*
X116442Y16812D01*
X116442Y81812D01*
X112942Y84312D02*
X98192Y84312D01*
X60000Y199000D02*
X66000Y205000D01*
X64000Y199000D02*
X60000Y199000D01*
X60000Y203000D01*
X56000Y203000D02*
X62000Y209000D01*
X58000Y209000D01*
X62000Y209000D02*
X62000Y205000D01*
D11*
X127500Y137500D02*
X127500Y112500D01*
X152500Y112500D02*
X152500Y137500D01*
D18*
X152000Y140000D03*
D14*
X265000Y140000D02*
X265000Y110000D01*
X239000Y95000D02*
X222500Y95000D01*
X222500Y147500D02*
X222500Y155000D01*
X239000Y155000D01*
X222500Y102500D02*
X222500Y95000D01*
X214984Y100000D02*
X214986Y100063D01*
X214992Y100126D01*
X215002Y100189D01*
X215015Y100250D01*
X215033Y100311D01*
X215054Y100370D01*
X215079Y100429D01*
X215107Y100485D01*
X215139Y100540D01*
X215174Y100592D01*
X215213Y100642D01*
X215254Y100690D01*
X215299Y100735D01*
X215346Y100777D01*
X215395Y100816D01*
X215447Y100852D01*
X215501Y100885D01*
X215557Y100914D01*
X215615Y100940D01*
X215674Y100962D01*
X215734Y100981D01*
X215796Y100995D01*
X215858Y101006D01*
X215921Y101013D01*
X215984Y101016D01*
X216047Y101015D01*
X216110Y101010D01*
X216173Y101001D01*
X216235Y100988D01*
X216296Y100972D01*
X216356Y100952D01*
X216414Y100928D01*
X216471Y100900D01*
X216526Y100869D01*
X216579Y100835D01*
X216630Y100797D01*
X216678Y100756D01*
X216724Y100713D01*
X216767Y100666D01*
X216807Y100617D01*
X216844Y100566D01*
X216877Y100513D01*
X216907Y100457D01*
X216934Y100400D01*
X216957Y100341D01*
X216976Y100281D01*
X216992Y100219D01*
X217004Y100157D01*
X217012Y100095D01*
X217016Y100032D01*
X217016Y99968D01*
X217012Y99905D01*
X217004Y99843D01*
X216992Y99781D01*
X216976Y99719D01*
X216957Y99659D01*
X216934Y99600D01*
X216907Y99543D01*
X216877Y99487D01*
X216844Y99434D01*
X216807Y99383D01*
X216767Y99334D01*
X216724Y99287D01*
X216678Y99244D01*
X216630Y99203D01*
X216579Y99165D01*
X216526Y99131D01*
X216471Y99100D01*
X216414Y99072D01*
X216356Y99048D01*
X216296Y99028D01*
X216235Y99012D01*
X216173Y98999D01*
X216110Y98990D01*
X216047Y98985D01*
X215984Y98984D01*
X215921Y98987D01*
X215858Y98994D01*
X215796Y99005D01*
X215734Y99019D01*
X215674Y99038D01*
X215615Y99060D01*
X215557Y99086D01*
X215501Y99115D01*
X215447Y99148D01*
X215395Y99184D01*
X215346Y99223D01*
X215299Y99265D01*
X215254Y99310D01*
X215213Y99358D01*
X215174Y99408D01*
X215139Y99460D01*
X215107Y99515D01*
X215079Y99571D01*
X215054Y99630D01*
X215033Y99689D01*
X215015Y99750D01*
X215002Y99811D01*
X214992Y99874D01*
X214986Y99937D01*
X214984Y100000D01*
M02*
