M48
;GenerationSoftware,Autodesk,EAGLE,9.6.2*%
;CreationDate,2022-05-19T00:38:24Z*%
FMAT,2
ICI,OFF
METRIC,TZ,000.000
T6C0.305
T5C0.350
T4C0.559
T3C0.600
T2C0.787
T1C3.030
%
G90
M71
T1
X24000Y22500
X24000Y2500
X4000Y2500
X4000Y22500
T2
X18981Y7416
X18981Y9956
X18981Y12496
X18981Y15036
X18981Y17576
T3
X5450Y13770
X5450Y12500
X5450Y11230
T4
X19034Y22488
X16494Y22488
X16494Y24063
X17764Y22488
X17764Y24063
T5
X8644Y4301
X14478Y8153
T6
X17932Y21031
X10008Y20828
X9195Y21641
X4521Y10363
X5893Y9957
X7671Y10008
X11074Y8534
X12446Y7163
X9500Y10871
X13056Y6655
X15646Y9093
X7569Y21031
X14834Y16713
X16154Y18034
X20320Y5283
X21133Y4470
X23927Y13106
X22301Y14732
X13360Y15799
X19914Y15951
X13157Y16713
X11227Y17069
X23419Y8890
X22403Y8890
X8280Y20320
X7264Y17170
X7518Y15799
X8534Y11786
X12344Y6350
X23419Y11278
X22403Y10262
X17374Y20422
X2350Y12500
X18644Y20168
X19355Y19456
X18390Y16104
X17120Y15392
X17780Y17932
X16866Y17018
X10262Y18847
X17221Y21742
X18085Y11176
M30