G04 EAGLE Gerber X2 export*
%TF.Part,Single*%
%TF.FileFunction,Legend,Bot,1*%
%TF.FilePolarity,Positive*%
%TF.GenerationSoftware,Autodesk,EAGLE,9.6.2*%
%TF.CreationDate,2022-05-19T00:38:24Z*%
G75*
%MOMM*%
%FSLAX34Y34*%
%LPD*%
%INSilkscreen Bottom*%
%AMOC8*
5,1,8,0,0,1.08239X$1,22.5*%
G01*
%ADD10C,0.203200*%
%ADD11R,6.900000X0.300000*%
%ADD12R,0.300000X0.300000*%
%ADD13R,0.900000X0.300000*%
%ADD14R,1.800000X0.300000*%
%ADD15R,1.500000X0.300000*%
%ADD16R,2.400000X0.300000*%
%ADD17R,0.600000X0.300000*%
%ADD18R,1.200000X0.300000*%
%ADD19R,2.700000X0.300000*%
%ADD20R,3.000000X0.300000*%
%ADD21C,0.200000*%

G36*
X70058Y28768D02*
X70058Y28768D01*
X70116Y28780D01*
X70128Y28788D01*
X70134Y28790D01*
X70141Y28798D01*
X70176Y28824D01*
X73176Y31824D01*
X73199Y31866D01*
X73217Y31886D01*
X73219Y31897D01*
X73238Y31927D01*
X73240Y31941D01*
X73243Y31946D01*
X73243Y31957D01*
X73249Y32000D01*
X73249Y36000D01*
X73247Y36009D01*
X73247Y36010D01*
X73247Y36012D01*
X73246Y36014D01*
X73242Y36060D01*
X72242Y40060D01*
X72241Y40061D01*
X72214Y40128D01*
X69214Y45128D01*
X69201Y45140D01*
X69195Y45155D01*
X69151Y45186D01*
X69111Y45223D01*
X69094Y45226D01*
X69081Y45236D01*
X69027Y45238D01*
X68974Y45248D01*
X68958Y45241D01*
X68941Y45242D01*
X68894Y45215D01*
X68844Y45195D01*
X68835Y45181D01*
X68820Y45172D01*
X68777Y45111D01*
X66795Y41148D01*
X64877Y39230D01*
X59951Y38244D01*
X59899Y38217D01*
X59844Y38195D01*
X59838Y38185D01*
X59827Y38180D01*
X59798Y38128D01*
X59764Y38080D01*
X59764Y38069D01*
X59758Y38058D01*
X59761Y37999D01*
X59758Y37941D01*
X59764Y37926D01*
X59764Y37919D01*
X59771Y37910D01*
X59786Y37872D01*
X62781Y32880D01*
X63777Y30889D01*
X63796Y30868D01*
X63807Y30843D01*
X63862Y30793D01*
X66862Y28793D01*
X66896Y28782D01*
X66927Y28762D01*
X66991Y28752D01*
X66995Y28751D01*
X66997Y28751D01*
X67000Y28751D01*
X70000Y28751D01*
X70058Y28768D01*
G37*
G36*
X51009Y191753D02*
X51009Y191753D01*
X51060Y191758D01*
X55060Y192758D01*
X55061Y192759D01*
X55128Y192786D01*
X60128Y195786D01*
X60140Y195799D01*
X60155Y195805D01*
X60186Y195849D01*
X60223Y195889D01*
X60226Y195906D01*
X60236Y195919D01*
X60238Y195973D01*
X60248Y196027D01*
X60241Y196042D01*
X60242Y196059D01*
X60215Y196106D01*
X60195Y196156D01*
X60181Y196165D01*
X60172Y196180D01*
X60111Y196223D01*
X56148Y198205D01*
X54230Y200123D01*
X53244Y205049D01*
X53217Y205101D01*
X53195Y205156D01*
X53185Y205162D01*
X53180Y205173D01*
X53128Y205202D01*
X53080Y205236D01*
X53069Y205237D01*
X53058Y205242D01*
X52999Y205240D01*
X52941Y205242D01*
X52926Y205236D01*
X52919Y205236D01*
X52910Y205230D01*
X52872Y205214D01*
X47880Y202219D01*
X45889Y201223D01*
X45868Y201204D01*
X45843Y201193D01*
X45793Y201138D01*
X43793Y198138D01*
X43782Y198104D01*
X43762Y198074D01*
X43752Y198009D01*
X43751Y198005D01*
X43751Y198003D01*
X43751Y198000D01*
X43751Y195000D01*
X43762Y194960D01*
X43762Y194958D01*
X43765Y194950D01*
X43768Y194942D01*
X43780Y194884D01*
X43788Y194872D01*
X43790Y194866D01*
X43798Y194859D01*
X43818Y194831D01*
X43819Y194830D01*
X43820Y194829D01*
X43824Y194824D01*
X46824Y191824D01*
X46876Y191795D01*
X46927Y191762D01*
X46941Y191760D01*
X46946Y191757D01*
X46957Y191757D01*
X47000Y191751D01*
X51000Y191751D01*
X51009Y191753D01*
G37*
G36*
X227001Y44761D02*
X227001Y44761D01*
X227060Y44758D01*
X227074Y44764D01*
X227081Y44764D01*
X227090Y44771D01*
X227128Y44786D01*
X232120Y47781D01*
X234111Y48777D01*
X234132Y48796D01*
X234157Y48807D01*
X234207Y48862D01*
X236207Y51862D01*
X236211Y51873D01*
X236212Y51874D01*
X236213Y51880D01*
X236218Y51896D01*
X236238Y51927D01*
X236248Y51991D01*
X236249Y51995D01*
X236249Y51997D01*
X236249Y52000D01*
X236249Y55000D01*
X236232Y55058D01*
X236220Y55116D01*
X236212Y55128D01*
X236210Y55134D01*
X236202Y55141D01*
X236176Y55176D01*
X233176Y58176D01*
X233124Y58205D01*
X233074Y58238D01*
X233059Y58240D01*
X233054Y58243D01*
X233043Y58243D01*
X233000Y58249D01*
X229000Y58249D01*
X228992Y58247D01*
X228940Y58242D01*
X224940Y57242D01*
X224939Y57241D01*
X224872Y57214D01*
X219872Y54214D01*
X219860Y54201D01*
X219845Y54195D01*
X219814Y54151D01*
X219777Y54111D01*
X219774Y54094D01*
X219764Y54081D01*
X219762Y54027D01*
X219752Y53974D01*
X219759Y53958D01*
X219758Y53941D01*
X219785Y53894D01*
X219805Y53844D01*
X219819Y53835D01*
X219828Y53820D01*
X219889Y53777D01*
X223852Y51795D01*
X225770Y49877D01*
X226756Y44951D01*
X226783Y44899D01*
X226805Y44844D01*
X226815Y44838D01*
X226820Y44827D01*
X226872Y44798D01*
X226920Y44764D01*
X226931Y44764D01*
X226942Y44758D01*
X227001Y44761D01*
G37*
G36*
X211042Y204759D02*
X211042Y204759D01*
X211059Y204758D01*
X211106Y204785D01*
X211156Y204805D01*
X211165Y204819D01*
X211180Y204828D01*
X211223Y204889D01*
X213205Y208852D01*
X215123Y210770D01*
X220049Y211756D01*
X220101Y211783D01*
X220156Y211805D01*
X220162Y211815D01*
X220173Y211820D01*
X220202Y211872D01*
X220236Y211920D01*
X220237Y211931D01*
X220242Y211942D01*
X220240Y212001D01*
X220242Y212060D01*
X220236Y212074D01*
X220236Y212081D01*
X220230Y212090D01*
X220214Y212128D01*
X217219Y217120D01*
X216223Y219111D01*
X216204Y219132D01*
X216193Y219157D01*
X216138Y219207D01*
X213138Y221207D01*
X213104Y221218D01*
X213074Y221238D01*
X213009Y221248D01*
X213005Y221249D01*
X213003Y221249D01*
X213000Y221249D01*
X210000Y221249D01*
X209942Y221232D01*
X209884Y221220D01*
X209872Y221212D01*
X209866Y221210D01*
X209859Y221202D01*
X209824Y221176D01*
X206824Y218176D01*
X206795Y218124D01*
X206762Y218074D01*
X206760Y218059D01*
X206757Y218054D01*
X206757Y218043D01*
X206751Y218000D01*
X206751Y214000D01*
X206753Y213992D01*
X206758Y213940D01*
X207758Y209940D01*
X207759Y209939D01*
X207786Y209872D01*
X210786Y204872D01*
X210799Y204860D01*
X210805Y204845D01*
X210849Y204814D01*
X210889Y204777D01*
X210906Y204774D01*
X210919Y204764D01*
X210973Y204762D01*
X211027Y204752D01*
X211042Y204759D01*
G37*
G36*
X233058Y191768D02*
X233058Y191768D01*
X233116Y191780D01*
X233128Y191788D01*
X233134Y191790D01*
X233141Y191798D01*
X233176Y191824D01*
X236176Y194824D01*
X236199Y194866D01*
X236217Y194886D01*
X236219Y194897D01*
X236238Y194927D01*
X236240Y194941D01*
X236243Y194946D01*
X236243Y194957D01*
X236249Y195000D01*
X236249Y199000D01*
X236247Y199009D01*
X236247Y199012D01*
X236243Y199021D01*
X236232Y199058D01*
X236220Y199116D01*
X236212Y199128D01*
X236210Y199134D01*
X236202Y199141D01*
X236176Y199176D01*
X233176Y202176D01*
X233158Y202186D01*
X233145Y202203D01*
X233079Y202236D01*
X230110Y203226D01*
X227138Y205207D01*
X227077Y205227D01*
X227016Y205249D01*
X227010Y205248D01*
X227005Y205249D01*
X226943Y205232D01*
X226879Y205218D01*
X226875Y205214D01*
X226870Y205213D01*
X226827Y205165D01*
X226781Y205119D01*
X226778Y205112D01*
X226776Y205109D01*
X226775Y205102D01*
X226756Y205049D01*
X225770Y200123D01*
X223841Y198194D01*
X220862Y196207D01*
X220820Y196157D01*
X220776Y196109D01*
X220775Y196104D01*
X220772Y196100D01*
X220763Y196036D01*
X220752Y195971D01*
X220754Y195967D01*
X220754Y195962D01*
X220781Y195903D01*
X220807Y195843D01*
X220812Y195838D01*
X220813Y195835D01*
X220819Y195831D01*
X220862Y195793D01*
X223862Y193793D01*
X223870Y193790D01*
X223889Y193777D01*
X227889Y191777D01*
X227909Y191773D01*
X227927Y191762D01*
X228000Y191751D01*
X233000Y191751D01*
X233058Y191768D01*
G37*
G36*
X214058Y28768D02*
X214058Y28768D01*
X214116Y28780D01*
X214128Y28788D01*
X214134Y28790D01*
X214141Y28798D01*
X214176Y28824D01*
X217176Y31824D01*
X217186Y31842D01*
X217203Y31855D01*
X217236Y31921D01*
X218226Y34890D01*
X220207Y37862D01*
X220227Y37923D01*
X220249Y37984D01*
X220248Y37990D01*
X220249Y37995D01*
X220232Y38057D01*
X220218Y38121D01*
X220214Y38125D01*
X220213Y38130D01*
X220165Y38173D01*
X220119Y38219D01*
X220112Y38222D01*
X220109Y38224D01*
X220102Y38225D01*
X220049Y38244D01*
X215123Y39230D01*
X213194Y41159D01*
X211207Y44138D01*
X211157Y44180D01*
X211109Y44224D01*
X211104Y44225D01*
X211100Y44228D01*
X211036Y44237D01*
X210971Y44248D01*
X210967Y44246D01*
X210962Y44246D01*
X210903Y44219D01*
X210843Y44193D01*
X210838Y44188D01*
X210835Y44187D01*
X210831Y44181D01*
X210793Y44138D01*
X208793Y41138D01*
X208790Y41130D01*
X208777Y41111D01*
X206777Y37111D01*
X206773Y37091D01*
X206762Y37074D01*
X206751Y37000D01*
X206751Y32000D01*
X206762Y31960D01*
X206762Y31958D01*
X206765Y31950D01*
X206768Y31942D01*
X206780Y31884D01*
X206788Y31872D01*
X206790Y31866D01*
X206798Y31859D01*
X206818Y31831D01*
X206819Y31830D01*
X206820Y31829D01*
X206824Y31824D01*
X209824Y28824D01*
X209876Y28795D01*
X209927Y28762D01*
X209941Y28760D01*
X209946Y28757D01*
X209957Y28757D01*
X210000Y28751D01*
X214000Y28751D01*
X214058Y28768D01*
G37*
G36*
X53057Y44768D02*
X53057Y44768D01*
X53121Y44782D01*
X53125Y44786D01*
X53130Y44787D01*
X53173Y44835D01*
X53219Y44881D01*
X53222Y44888D01*
X53224Y44891D01*
X53225Y44899D01*
X53244Y44951D01*
X54230Y49877D01*
X56159Y51806D01*
X59138Y53793D01*
X59180Y53843D01*
X59224Y53891D01*
X59225Y53896D01*
X59228Y53900D01*
X59237Y53964D01*
X59248Y54029D01*
X59246Y54033D01*
X59246Y54038D01*
X59219Y54097D01*
X59193Y54157D01*
X59188Y54162D01*
X59187Y54165D01*
X59181Y54169D01*
X59138Y54207D01*
X56138Y56207D01*
X56130Y56210D01*
X56111Y56223D01*
X52111Y58223D01*
X52091Y58227D01*
X52074Y58238D01*
X52000Y58249D01*
X47000Y58249D01*
X46942Y58232D01*
X46884Y58220D01*
X46872Y58212D01*
X46866Y58210D01*
X46859Y58202D01*
X46824Y58176D01*
X43824Y55176D01*
X43795Y55124D01*
X43762Y55074D01*
X43760Y55059D01*
X43757Y55054D01*
X43757Y55043D01*
X43751Y55000D01*
X43751Y51000D01*
X43768Y50942D01*
X43780Y50884D01*
X43788Y50872D01*
X43790Y50866D01*
X43798Y50859D01*
X43824Y50824D01*
X46824Y47824D01*
X46842Y47814D01*
X46855Y47797D01*
X46921Y47764D01*
X49890Y46774D01*
X52862Y44793D01*
X52923Y44773D01*
X52984Y44751D01*
X52990Y44752D01*
X52995Y44751D01*
X53057Y44768D01*
G37*
G36*
X69033Y205754D02*
X69033Y205754D01*
X69038Y205754D01*
X69097Y205781D01*
X69157Y205807D01*
X69162Y205812D01*
X69165Y205813D01*
X69169Y205819D01*
X69207Y205862D01*
X71207Y208862D01*
X71210Y208870D01*
X71223Y208889D01*
X73223Y212889D01*
X73227Y212909D01*
X73238Y212927D01*
X73249Y213000D01*
X73249Y218000D01*
X73232Y218058D01*
X73220Y218116D01*
X73212Y218128D01*
X73210Y218134D01*
X73202Y218141D01*
X73176Y218176D01*
X70176Y221176D01*
X70124Y221205D01*
X70074Y221238D01*
X70059Y221240D01*
X70054Y221243D01*
X70043Y221243D01*
X70000Y221249D01*
X66000Y221249D01*
X65942Y221232D01*
X65884Y221220D01*
X65872Y221212D01*
X65866Y221210D01*
X65859Y221202D01*
X65824Y221176D01*
X62824Y218176D01*
X62814Y218158D01*
X62797Y218145D01*
X62764Y218079D01*
X61774Y215110D01*
X59793Y212138D01*
X59773Y212077D01*
X59751Y212016D01*
X59752Y212010D01*
X59751Y212005D01*
X59768Y211943D01*
X59782Y211879D01*
X59786Y211875D01*
X59787Y211870D01*
X59835Y211827D01*
X59881Y211781D01*
X59888Y211778D01*
X59891Y211776D01*
X59899Y211775D01*
X59951Y211756D01*
X64877Y210770D01*
X66806Y208841D01*
X68793Y205862D01*
X68843Y205820D01*
X68891Y205776D01*
X68896Y205775D01*
X68900Y205772D01*
X68964Y205763D01*
X69029Y205752D01*
X69033Y205754D01*
G37*
G36*
X64032Y40762D02*
X64032Y40762D01*
X64086Y40766D01*
X64100Y40776D01*
X64116Y40780D01*
X64176Y40824D01*
X66176Y42824D01*
X66185Y42839D01*
X66198Y42849D01*
X66209Y42876D01*
X66220Y42889D01*
X66223Y42909D01*
X66243Y42946D01*
X66242Y42963D01*
X66248Y42979D01*
X66240Y43021D01*
X66241Y43027D01*
X66237Y43036D01*
X66234Y43086D01*
X66224Y43100D01*
X66220Y43116D01*
X66176Y43176D01*
X63353Y46000D01*
X66176Y48824D01*
X66185Y48839D01*
X66198Y48849D01*
X66218Y48899D01*
X66243Y48946D01*
X66242Y48963D01*
X66248Y48979D01*
X66238Y49032D01*
X66234Y49086D01*
X66224Y49100D01*
X66220Y49116D01*
X66176Y49176D01*
X64176Y51176D01*
X64161Y51185D01*
X64151Y51198D01*
X64101Y51218D01*
X64054Y51243D01*
X64037Y51242D01*
X64021Y51248D01*
X63968Y51238D01*
X63914Y51234D01*
X63900Y51224D01*
X63884Y51220D01*
X63824Y51176D01*
X61000Y48353D01*
X58176Y51176D01*
X58161Y51185D01*
X58151Y51198D01*
X58101Y51218D01*
X58054Y51243D01*
X58037Y51242D01*
X58021Y51248D01*
X57968Y51238D01*
X57914Y51234D01*
X57900Y51224D01*
X57884Y51220D01*
X57824Y51176D01*
X55824Y49176D01*
X55815Y49161D01*
X55802Y49151D01*
X55782Y49101D01*
X55757Y49054D01*
X55758Y49037D01*
X55752Y49021D01*
X55762Y48968D01*
X55766Y48914D01*
X55776Y48900D01*
X55780Y48884D01*
X55824Y48824D01*
X58648Y46000D01*
X55824Y43176D01*
X55815Y43161D01*
X55802Y43151D01*
X55783Y43103D01*
X55780Y43099D01*
X55779Y43095D01*
X55757Y43054D01*
X55758Y43037D01*
X55752Y43021D01*
X55761Y42974D01*
X55759Y42961D01*
X55764Y42950D01*
X55766Y42914D01*
X55776Y42900D01*
X55780Y42884D01*
X55814Y42837D01*
X55816Y42833D01*
X55818Y42831D01*
X55824Y42824D01*
X57824Y40824D01*
X57839Y40815D01*
X57849Y40802D01*
X57899Y40782D01*
X57946Y40757D01*
X57963Y40758D01*
X57979Y40752D01*
X58032Y40762D01*
X58086Y40766D01*
X58100Y40776D01*
X58116Y40780D01*
X58176Y40824D01*
X61000Y43648D01*
X63824Y40824D01*
X63839Y40815D01*
X63849Y40802D01*
X63899Y40782D01*
X63946Y40757D01*
X63963Y40758D01*
X63979Y40752D01*
X64032Y40762D01*
G37*
G36*
X222032Y198762D02*
X222032Y198762D01*
X222086Y198766D01*
X222100Y198776D01*
X222116Y198780D01*
X222176Y198824D01*
X224176Y200824D01*
X224185Y200839D01*
X224198Y200849D01*
X224209Y200876D01*
X224220Y200889D01*
X224223Y200909D01*
X224243Y200946D01*
X224242Y200963D01*
X224248Y200979D01*
X224240Y201021D01*
X224241Y201027D01*
X224237Y201036D01*
X224234Y201086D01*
X224224Y201100D01*
X224220Y201116D01*
X224176Y201176D01*
X216176Y209176D01*
X216161Y209185D01*
X216151Y209198D01*
X216101Y209218D01*
X216054Y209243D01*
X216037Y209242D01*
X216021Y209248D01*
X215968Y209238D01*
X215914Y209234D01*
X215900Y209224D01*
X215884Y209220D01*
X215824Y209176D01*
X213824Y207176D01*
X213815Y207161D01*
X213802Y207151D01*
X213782Y207101D01*
X213757Y207054D01*
X213758Y207037D01*
X213752Y207021D01*
X213762Y206968D01*
X213766Y206914D01*
X213776Y206900D01*
X213780Y206884D01*
X213824Y206824D01*
X221824Y198824D01*
X221839Y198815D01*
X221849Y198802D01*
X221899Y198782D01*
X221946Y198757D01*
X221963Y198758D01*
X221979Y198752D01*
X222032Y198762D01*
G37*
G36*
X216032Y40762D02*
X216032Y40762D01*
X216086Y40766D01*
X216100Y40776D01*
X216116Y40780D01*
X216176Y40824D01*
X224176Y48824D01*
X224185Y48839D01*
X224198Y48849D01*
X224218Y48899D01*
X224243Y48946D01*
X224242Y48963D01*
X224248Y48979D01*
X224238Y49032D01*
X224234Y49086D01*
X224224Y49100D01*
X224220Y49116D01*
X224176Y49176D01*
X222176Y51176D01*
X222161Y51185D01*
X222151Y51198D01*
X222101Y51218D01*
X222054Y51243D01*
X222037Y51242D01*
X222021Y51248D01*
X221968Y51238D01*
X221914Y51234D01*
X221900Y51224D01*
X221884Y51220D01*
X221824Y51176D01*
X213824Y43176D01*
X213815Y43161D01*
X213802Y43151D01*
X213783Y43103D01*
X213780Y43099D01*
X213779Y43095D01*
X213757Y43054D01*
X213758Y43037D01*
X213752Y43021D01*
X213761Y42974D01*
X213759Y42961D01*
X213764Y42950D01*
X213766Y42914D01*
X213776Y42900D01*
X213780Y42884D01*
X213814Y42837D01*
X213816Y42833D01*
X213818Y42831D01*
X213824Y42824D01*
X215824Y40824D01*
X215839Y40815D01*
X215849Y40802D01*
X215899Y40782D01*
X215946Y40757D01*
X215963Y40758D01*
X215979Y40752D01*
X216032Y40762D01*
G37*
D10*
X160184Y206119D02*
X160184Y196833D01*
X160186Y196731D01*
X160192Y196630D01*
X160202Y196529D01*
X160215Y196428D01*
X160233Y196328D01*
X160254Y196229D01*
X160279Y196130D01*
X160308Y196033D01*
X160340Y195936D01*
X160376Y195841D01*
X160416Y195748D01*
X160459Y195656D01*
X160506Y195566D01*
X160557Y195477D01*
X160610Y195391D01*
X160667Y195307D01*
X160727Y195225D01*
X160790Y195145D01*
X160856Y195068D01*
X160925Y194993D01*
X160997Y194921D01*
X161072Y194852D01*
X161149Y194786D01*
X161229Y194723D01*
X161311Y194663D01*
X161395Y194606D01*
X161481Y194553D01*
X161570Y194502D01*
X161660Y194455D01*
X161752Y194412D01*
X161845Y194372D01*
X161940Y194336D01*
X162037Y194304D01*
X162134Y194275D01*
X162233Y194250D01*
X162332Y194229D01*
X162432Y194211D01*
X162533Y194198D01*
X162634Y194188D01*
X162735Y194182D01*
X162837Y194180D01*
X162837Y194181D02*
X164164Y194181D01*
X153302Y194181D02*
X153302Y206119D01*
X149323Y199486D01*
X145344Y206119D01*
X145344Y194181D01*
X138634Y198823D02*
X130675Y198823D01*
X124105Y194181D02*
X118800Y194181D01*
X124105Y194181D02*
X124105Y206119D01*
X118800Y206119D01*
X120126Y200813D02*
X124105Y200813D01*
X113419Y202139D02*
X113419Y194181D01*
X113419Y202139D02*
X110103Y202139D01*
X110016Y202137D01*
X109930Y202131D01*
X109843Y202122D01*
X109757Y202109D01*
X109672Y202092D01*
X109588Y202071D01*
X109505Y202047D01*
X109422Y202019D01*
X109341Y201988D01*
X109262Y201953D01*
X109184Y201914D01*
X109108Y201872D01*
X109034Y201827D01*
X108962Y201779D01*
X108892Y201728D01*
X108824Y201673D01*
X108759Y201616D01*
X108696Y201556D01*
X108636Y201493D01*
X108579Y201428D01*
X108524Y201360D01*
X108473Y201290D01*
X108425Y201218D01*
X108380Y201144D01*
X108338Y201068D01*
X108299Y200990D01*
X108264Y200911D01*
X108233Y200830D01*
X108205Y200747D01*
X108181Y200664D01*
X108160Y200580D01*
X108143Y200495D01*
X108130Y200409D01*
X108121Y200322D01*
X108115Y200236D01*
X108113Y200149D01*
X108113Y200150D02*
X108113Y194181D01*
X99869Y194181D02*
X102522Y202139D01*
X97217Y202139D02*
X99869Y194181D01*
X163416Y182179D02*
X163418Y182286D01*
X163424Y182392D01*
X163433Y182498D01*
X163446Y182604D01*
X163463Y182709D01*
X163484Y182814D01*
X163509Y182917D01*
X163537Y183020D01*
X163569Y183122D01*
X163604Y183222D01*
X163643Y183321D01*
X163686Y183419D01*
X163732Y183515D01*
X163781Y183610D01*
X163834Y183702D01*
X163890Y183793D01*
X163949Y183881D01*
X164011Y183968D01*
X164077Y184052D01*
X164145Y184134D01*
X164216Y184213D01*
X164290Y184290D01*
X164367Y184364D01*
X164446Y184435D01*
X164528Y184503D01*
X164612Y184569D01*
X164699Y184631D01*
X164787Y184690D01*
X164878Y184746D01*
X164970Y184799D01*
X165065Y184848D01*
X165161Y184894D01*
X165259Y184937D01*
X165358Y184976D01*
X165458Y185011D01*
X165560Y185043D01*
X165663Y185071D01*
X165766Y185096D01*
X165871Y185117D01*
X165976Y185134D01*
X166082Y185147D01*
X166188Y185156D01*
X166294Y185162D01*
X166401Y185164D01*
X166401Y185163D02*
X166522Y185161D01*
X166642Y185155D01*
X166762Y185146D01*
X166882Y185133D01*
X167001Y185116D01*
X167120Y185095D01*
X167238Y185071D01*
X167355Y185042D01*
X167471Y185011D01*
X167587Y184975D01*
X167701Y184936D01*
X167813Y184893D01*
X167925Y184847D01*
X168035Y184798D01*
X168143Y184744D01*
X168249Y184688D01*
X168354Y184628D01*
X168457Y184565D01*
X168557Y184499D01*
X168656Y184430D01*
X168752Y184357D01*
X168846Y184282D01*
X168938Y184204D01*
X169027Y184122D01*
X169114Y184038D01*
X169198Y183952D01*
X169279Y183863D01*
X169357Y183771D01*
X169432Y183677D01*
X169504Y183580D01*
X169574Y183482D01*
X169640Y183381D01*
X169703Y183278D01*
X169762Y183173D01*
X169819Y183067D01*
X169872Y182958D01*
X169921Y182849D01*
X169967Y182737D01*
X170010Y182624D01*
X170048Y182510D01*
X164411Y179857D02*
X164331Y179937D01*
X164253Y180019D01*
X164179Y180103D01*
X164107Y180191D01*
X164039Y180281D01*
X163973Y180373D01*
X163911Y180467D01*
X163853Y180563D01*
X163798Y180662D01*
X163746Y180762D01*
X163698Y180864D01*
X163653Y180968D01*
X163613Y181073D01*
X163576Y181180D01*
X163542Y181288D01*
X163513Y181397D01*
X163487Y181507D01*
X163466Y181618D01*
X163448Y181729D01*
X163434Y181841D01*
X163424Y181953D01*
X163418Y182066D01*
X163416Y182179D01*
X164411Y179858D02*
X170049Y173226D01*
X163416Y173226D01*
X157476Y179195D02*
X157473Y179430D01*
X157465Y179665D01*
X157451Y179899D01*
X157431Y180133D01*
X157406Y180367D01*
X157375Y180599D01*
X157339Y180831D01*
X157297Y181063D01*
X157250Y181293D01*
X157197Y181521D01*
X157139Y181749D01*
X157075Y181975D01*
X157006Y182199D01*
X156932Y182422D01*
X156852Y182643D01*
X156767Y182862D01*
X156677Y183079D01*
X156582Y183294D01*
X156481Y183506D01*
X156448Y183598D01*
X156410Y183689D01*
X156369Y183778D01*
X156325Y183866D01*
X156277Y183951D01*
X156226Y184035D01*
X156171Y184117D01*
X156113Y184196D01*
X156052Y184273D01*
X155988Y184347D01*
X155921Y184419D01*
X155851Y184488D01*
X155779Y184554D01*
X155704Y184618D01*
X155626Y184678D01*
X155546Y184735D01*
X155464Y184789D01*
X155380Y184839D01*
X155294Y184886D01*
X155206Y184930D01*
X155116Y184970D01*
X155025Y185007D01*
X154932Y185039D01*
X154838Y185068D01*
X154744Y185094D01*
X154648Y185115D01*
X154551Y185133D01*
X154454Y185146D01*
X154356Y185156D01*
X154258Y185162D01*
X154160Y185164D01*
X154062Y185162D01*
X153964Y185156D01*
X153866Y185146D01*
X153769Y185133D01*
X153672Y185115D01*
X153576Y185094D01*
X153482Y185068D01*
X153388Y185039D01*
X153295Y185007D01*
X153204Y184970D01*
X153114Y184930D01*
X153026Y184886D01*
X152940Y184839D01*
X152856Y184789D01*
X152774Y184735D01*
X152694Y184678D01*
X152616Y184618D01*
X152541Y184554D01*
X152469Y184488D01*
X152399Y184419D01*
X152332Y184347D01*
X152268Y184273D01*
X152207Y184196D01*
X152149Y184117D01*
X152094Y184035D01*
X152043Y183951D01*
X151995Y183866D01*
X151951Y183778D01*
X151910Y183689D01*
X151872Y183598D01*
X151839Y183506D01*
X151838Y183506D02*
X151737Y183294D01*
X151642Y183079D01*
X151552Y182862D01*
X151467Y182643D01*
X151387Y182422D01*
X151313Y182200D01*
X151244Y181975D01*
X151180Y181749D01*
X151122Y181521D01*
X151069Y181293D01*
X151022Y181063D01*
X150980Y180831D01*
X150944Y180599D01*
X150913Y180367D01*
X150888Y180133D01*
X150868Y179899D01*
X150854Y179665D01*
X150846Y179430D01*
X150843Y179195D01*
X157475Y179195D02*
X157472Y178960D01*
X157464Y178725D01*
X157450Y178491D01*
X157430Y178257D01*
X157405Y178023D01*
X157374Y177791D01*
X157338Y177559D01*
X157296Y177328D01*
X157249Y177097D01*
X157196Y176869D01*
X157138Y176641D01*
X157074Y176415D01*
X157005Y176191D01*
X156931Y175968D01*
X156851Y175747D01*
X156766Y175528D01*
X156676Y175311D01*
X156581Y175096D01*
X156480Y174884D01*
X156481Y174883D02*
X156448Y174791D01*
X156410Y174700D01*
X156369Y174611D01*
X156325Y174523D01*
X156277Y174438D01*
X156226Y174354D01*
X156171Y174272D01*
X156113Y174193D01*
X156052Y174116D01*
X155988Y174042D01*
X155921Y173970D01*
X155851Y173901D01*
X155779Y173835D01*
X155704Y173771D01*
X155626Y173711D01*
X155546Y173654D01*
X155464Y173600D01*
X155380Y173550D01*
X155294Y173503D01*
X155206Y173459D01*
X155116Y173419D01*
X155025Y173382D01*
X154932Y173350D01*
X154838Y173321D01*
X154744Y173295D01*
X154648Y173274D01*
X154551Y173256D01*
X154454Y173243D01*
X154356Y173233D01*
X154258Y173227D01*
X154160Y173225D01*
X151838Y174884D02*
X151737Y175096D01*
X151642Y175311D01*
X151552Y175528D01*
X151467Y175747D01*
X151387Y175968D01*
X151313Y176191D01*
X151244Y176415D01*
X151180Y176641D01*
X151122Y176869D01*
X151069Y177097D01*
X151022Y177327D01*
X150980Y177559D01*
X150944Y177791D01*
X150913Y178023D01*
X150888Y178257D01*
X150868Y178491D01*
X150854Y178725D01*
X150846Y178960D01*
X150843Y179195D01*
X151839Y174883D02*
X151872Y174791D01*
X151910Y174700D01*
X151951Y174611D01*
X151995Y174523D01*
X152043Y174438D01*
X152095Y174354D01*
X152149Y174272D01*
X152207Y174193D01*
X152268Y174116D01*
X152332Y174042D01*
X152399Y173970D01*
X152469Y173901D01*
X152541Y173835D01*
X152616Y173771D01*
X152694Y173711D01*
X152774Y173654D01*
X152856Y173600D01*
X152940Y173550D01*
X153026Y173503D01*
X153114Y173459D01*
X153204Y173419D01*
X153295Y173382D01*
X153388Y173350D01*
X153482Y173321D01*
X153576Y173295D01*
X153672Y173274D01*
X153769Y173256D01*
X153866Y173243D01*
X153964Y173233D01*
X154062Y173227D01*
X154160Y173225D01*
X156812Y175878D02*
X151507Y182511D01*
X144903Y175878D02*
X142250Y185164D01*
X144903Y175878D02*
X138270Y175878D01*
X140260Y173226D02*
X140260Y178531D01*
X126218Y181184D02*
X123565Y173226D01*
X120912Y181184D01*
X115566Y175878D02*
X112913Y185164D01*
X115566Y175878D02*
X108934Y175878D01*
X110923Y178531D02*
X110923Y173226D01*
X103780Y173226D02*
X103780Y173889D01*
X103117Y173889D01*
X103117Y173226D01*
X103780Y173226D01*
X94316Y185164D02*
X94209Y185162D01*
X94103Y185156D01*
X93997Y185147D01*
X93891Y185134D01*
X93786Y185117D01*
X93681Y185096D01*
X93578Y185071D01*
X93475Y185043D01*
X93373Y185011D01*
X93273Y184976D01*
X93174Y184937D01*
X93076Y184894D01*
X92980Y184848D01*
X92885Y184799D01*
X92793Y184746D01*
X92702Y184690D01*
X92614Y184631D01*
X92527Y184569D01*
X92443Y184503D01*
X92361Y184435D01*
X92282Y184364D01*
X92205Y184290D01*
X92131Y184213D01*
X92060Y184134D01*
X91992Y184052D01*
X91926Y183968D01*
X91864Y183881D01*
X91805Y183793D01*
X91749Y183702D01*
X91696Y183610D01*
X91647Y183515D01*
X91601Y183419D01*
X91558Y183321D01*
X91519Y183222D01*
X91484Y183122D01*
X91452Y183020D01*
X91424Y182917D01*
X91399Y182814D01*
X91378Y182709D01*
X91361Y182604D01*
X91348Y182498D01*
X91339Y182392D01*
X91333Y182286D01*
X91331Y182179D01*
X94316Y185163D02*
X94437Y185161D01*
X94557Y185155D01*
X94677Y185146D01*
X94797Y185133D01*
X94916Y185116D01*
X95035Y185095D01*
X95153Y185071D01*
X95270Y185042D01*
X95386Y185011D01*
X95502Y184975D01*
X95616Y184936D01*
X95728Y184893D01*
X95840Y184847D01*
X95950Y184798D01*
X96058Y184744D01*
X96164Y184688D01*
X96269Y184628D01*
X96372Y184565D01*
X96472Y184499D01*
X96571Y184430D01*
X96667Y184357D01*
X96761Y184282D01*
X96853Y184204D01*
X96942Y184122D01*
X97029Y184038D01*
X97113Y183952D01*
X97194Y183863D01*
X97272Y183771D01*
X97347Y183677D01*
X97419Y183580D01*
X97489Y183482D01*
X97555Y183381D01*
X97618Y183278D01*
X97677Y183173D01*
X97734Y183067D01*
X97787Y182958D01*
X97836Y182849D01*
X97882Y182737D01*
X97925Y182624D01*
X97963Y182510D01*
X92326Y179857D02*
X92246Y179937D01*
X92168Y180019D01*
X92094Y180103D01*
X92022Y180191D01*
X91954Y180281D01*
X91888Y180373D01*
X91826Y180467D01*
X91768Y180563D01*
X91713Y180662D01*
X91661Y180762D01*
X91613Y180864D01*
X91568Y180968D01*
X91528Y181073D01*
X91491Y181180D01*
X91457Y181288D01*
X91428Y181397D01*
X91402Y181507D01*
X91381Y181618D01*
X91363Y181729D01*
X91349Y181841D01*
X91339Y181953D01*
X91333Y182066D01*
X91331Y182179D01*
X92326Y179858D02*
X97964Y173226D01*
X91331Y173226D01*
D11*
X132036Y16740D03*
D12*
X99036Y19740D03*
X108036Y19740D03*
D13*
X123036Y19740D03*
D12*
X135036Y19740D03*
X141036Y19740D03*
X165036Y19740D03*
X99036Y22740D03*
X105036Y22740D03*
X111036Y22740D03*
D14*
X133536Y22740D03*
D15*
X153036Y22740D03*
D12*
X165036Y22740D03*
D16*
X109536Y25740D03*
D14*
X133536Y25740D03*
D12*
X147036Y25740D03*
X159036Y25740D03*
X165036Y25740D03*
X99036Y28740D03*
D14*
X115536Y28740D03*
D17*
X130536Y28740D03*
X139536Y28740D03*
D12*
X147036Y28740D03*
X159036Y28740D03*
X165036Y28740D03*
D17*
X100536Y31740D03*
D12*
X108036Y31740D03*
X117036Y31740D03*
D17*
X124536Y31740D03*
X133536Y31740D03*
D12*
X141036Y31740D03*
X147036Y31740D03*
X159036Y31740D03*
X165036Y31740D03*
X99036Y34740D03*
X105036Y34740D03*
D18*
X115536Y34740D03*
D12*
X126036Y34740D03*
X132036Y34740D03*
D17*
X139536Y34740D03*
D15*
X153036Y34740D03*
D12*
X165036Y34740D03*
D14*
X106536Y37740D03*
D13*
X123036Y37740D03*
D17*
X133536Y37740D03*
D12*
X141036Y37740D03*
X165036Y37740D03*
D13*
X102036Y40740D03*
D17*
X115536Y40740D03*
D12*
X123036Y40740D03*
D19*
X153036Y40740D03*
D12*
X99036Y43740D03*
D17*
X109536Y43740D03*
D12*
X123036Y43740D03*
D18*
X133536Y43740D03*
D12*
X147036Y43740D03*
X156036Y43740D03*
D17*
X163536Y43740D03*
X100536Y46740D03*
D13*
X111036Y46740D03*
X123036Y46740D03*
D17*
X133536Y46740D03*
D12*
X144036Y46740D03*
D17*
X151536Y46740D03*
D12*
X159036Y46740D03*
X165036Y46740D03*
X99036Y49740D03*
X105036Y49740D03*
D17*
X115536Y49740D03*
D12*
X126036Y49740D03*
X147036Y49740D03*
D13*
X162036Y49740D03*
D17*
X100536Y52740D03*
X109536Y52740D03*
D13*
X120036Y52740D03*
D17*
X130536Y52740D03*
D12*
X138036Y52740D03*
D17*
X145536Y52740D03*
X154536Y52740D03*
D12*
X165036Y52740D03*
X99036Y55740D03*
D17*
X106536Y55740D03*
D18*
X130536Y55740D03*
D12*
X147036Y55740D03*
D13*
X156036Y55740D03*
D12*
X165036Y55740D03*
D20*
X112536Y58740D03*
D19*
X153036Y58740D03*
D12*
X99036Y61740D03*
X123036Y61740D03*
X129036Y61740D03*
X135036Y61740D03*
X141036Y61740D03*
X165036Y61740D03*
X99036Y64740D03*
D15*
X111036Y64740D03*
D12*
X123036Y64740D03*
X129036Y64740D03*
X135036Y64740D03*
X141036Y64740D03*
D15*
X153036Y64740D03*
D12*
X165036Y64740D03*
X99036Y67740D03*
X105036Y67740D03*
X117036Y67740D03*
X123036Y67740D03*
X129036Y67740D03*
X141036Y67740D03*
X147036Y67740D03*
X159036Y67740D03*
X165036Y67740D03*
X99036Y70740D03*
X105036Y70740D03*
X117036Y70740D03*
X123036Y70740D03*
X141036Y70740D03*
X147036Y70740D03*
X159036Y70740D03*
X165036Y70740D03*
X99036Y73740D03*
X105036Y73740D03*
X117036Y73740D03*
X123036Y73740D03*
X129036Y73740D03*
D13*
X138036Y73740D03*
D12*
X147036Y73740D03*
X159036Y73740D03*
X165036Y73740D03*
X99036Y76740D03*
D15*
X111036Y76740D03*
D17*
X124536Y76740D03*
D13*
X138036Y76740D03*
D15*
X153036Y76740D03*
D12*
X165036Y76740D03*
X99036Y79740D03*
D15*
X129036Y79740D03*
D12*
X141036Y79740D03*
X165036Y79740D03*
D11*
X132036Y82740D03*
D10*
X229607Y171878D02*
X229609Y171776D01*
X229615Y171675D01*
X229625Y171574D01*
X229638Y171473D01*
X229656Y171373D01*
X229677Y171274D01*
X229702Y171175D01*
X229731Y171078D01*
X229763Y170981D01*
X229799Y170886D01*
X229839Y170793D01*
X229882Y170701D01*
X229929Y170611D01*
X229980Y170522D01*
X230033Y170436D01*
X230090Y170352D01*
X230150Y170270D01*
X230213Y170190D01*
X230279Y170113D01*
X230348Y170038D01*
X230420Y169966D01*
X230495Y169897D01*
X230572Y169831D01*
X230652Y169768D01*
X230734Y169708D01*
X230818Y169651D01*
X230904Y169598D01*
X230993Y169547D01*
X231083Y169500D01*
X231175Y169457D01*
X231268Y169417D01*
X231363Y169381D01*
X231460Y169349D01*
X231557Y169320D01*
X231656Y169295D01*
X231755Y169274D01*
X231855Y169256D01*
X231956Y169243D01*
X232057Y169233D01*
X232158Y169227D01*
X232260Y169225D01*
X232408Y169227D01*
X232555Y169233D01*
X232702Y169242D01*
X232849Y169256D01*
X232995Y169273D01*
X233141Y169295D01*
X233287Y169320D01*
X233431Y169349D01*
X233575Y169381D01*
X233718Y169418D01*
X233860Y169458D01*
X234001Y169502D01*
X234140Y169550D01*
X234278Y169601D01*
X234415Y169656D01*
X234551Y169715D01*
X234685Y169777D01*
X234817Y169842D01*
X234947Y169911D01*
X235075Y169984D01*
X235202Y170059D01*
X235327Y170138D01*
X235449Y170221D01*
X235569Y170306D01*
X235687Y170395D01*
X235802Y170487D01*
X235915Y170581D01*
X236026Y170679D01*
X236134Y170780D01*
X236239Y170883D01*
X235908Y178510D02*
X235906Y178612D01*
X235900Y178713D01*
X235890Y178814D01*
X235877Y178915D01*
X235859Y179015D01*
X235838Y179114D01*
X235813Y179213D01*
X235784Y179310D01*
X235752Y179407D01*
X235716Y179502D01*
X235676Y179595D01*
X235633Y179687D01*
X235586Y179777D01*
X235535Y179866D01*
X235482Y179952D01*
X235425Y180036D01*
X235365Y180118D01*
X235302Y180198D01*
X235236Y180275D01*
X235167Y180350D01*
X235095Y180422D01*
X235020Y180491D01*
X234943Y180557D01*
X234863Y180620D01*
X234781Y180680D01*
X234697Y180737D01*
X234611Y180790D01*
X234522Y180841D01*
X234432Y180888D01*
X234340Y180931D01*
X234247Y180971D01*
X234152Y181007D01*
X234055Y181039D01*
X233958Y181068D01*
X233859Y181093D01*
X233760Y181114D01*
X233660Y181132D01*
X233559Y181145D01*
X233458Y181155D01*
X233357Y181161D01*
X233255Y181163D01*
X233116Y181161D01*
X232977Y181155D01*
X232838Y181145D01*
X232700Y181132D01*
X232561Y181114D01*
X232424Y181093D01*
X232287Y181068D01*
X232151Y181039D01*
X232016Y181006D01*
X231881Y180970D01*
X231748Y180929D01*
X231616Y180885D01*
X231485Y180838D01*
X231356Y180786D01*
X231228Y180731D01*
X231102Y180673D01*
X230977Y180611D01*
X230855Y180545D01*
X230734Y180477D01*
X230615Y180404D01*
X230498Y180329D01*
X230383Y180250D01*
X230271Y180168D01*
X234582Y176189D02*
X234667Y176241D01*
X234750Y176297D01*
X234831Y176355D01*
X234910Y176417D01*
X234986Y176481D01*
X235060Y176548D01*
X235132Y176618D01*
X235200Y176690D01*
X235267Y176765D01*
X235330Y176842D01*
X235390Y176922D01*
X235448Y177004D01*
X235502Y177088D01*
X235553Y177173D01*
X235601Y177261D01*
X235646Y177350D01*
X235687Y177441D01*
X235725Y177534D01*
X235759Y177628D01*
X235790Y177722D01*
X235818Y177819D01*
X235842Y177916D01*
X235862Y178013D01*
X235878Y178112D01*
X235891Y178211D01*
X235901Y178310D01*
X235906Y178410D01*
X235908Y178510D01*
X230934Y174199D02*
X230849Y174147D01*
X230766Y174091D01*
X230685Y174033D01*
X230606Y173971D01*
X230530Y173907D01*
X230456Y173840D01*
X230384Y173770D01*
X230316Y173698D01*
X230249Y173623D01*
X230186Y173546D01*
X230126Y173466D01*
X230068Y173384D01*
X230014Y173300D01*
X229963Y173215D01*
X229915Y173127D01*
X229870Y173038D01*
X229829Y172947D01*
X229791Y172854D01*
X229757Y172761D01*
X229726Y172666D01*
X229698Y172569D01*
X229674Y172472D01*
X229654Y172375D01*
X229638Y172276D01*
X229625Y172177D01*
X229615Y172078D01*
X229610Y171978D01*
X229608Y171878D01*
X230934Y174199D02*
X234582Y176189D01*
X223667Y181163D02*
X223667Y169225D01*
X223667Y181163D02*
X220351Y181163D01*
X220238Y181161D01*
X220125Y181155D01*
X220012Y181146D01*
X219899Y181132D01*
X219788Y181115D01*
X219676Y181094D01*
X219566Y181069D01*
X219456Y181040D01*
X219348Y181008D01*
X219241Y180972D01*
X219135Y180932D01*
X219030Y180888D01*
X218927Y180842D01*
X218825Y180791D01*
X218726Y180737D01*
X218628Y180680D01*
X218532Y180620D01*
X218439Y180556D01*
X218347Y180489D01*
X218258Y180419D01*
X218172Y180346D01*
X218088Y180270D01*
X218006Y180192D01*
X217928Y180110D01*
X217852Y180026D01*
X217779Y179940D01*
X217709Y179851D01*
X217642Y179759D01*
X217578Y179666D01*
X217518Y179570D01*
X217461Y179472D01*
X217407Y179373D01*
X217356Y179271D01*
X217310Y179168D01*
X217266Y179063D01*
X217226Y178957D01*
X217190Y178850D01*
X217158Y178742D01*
X217129Y178632D01*
X217104Y178522D01*
X217083Y178410D01*
X217066Y178299D01*
X217052Y178186D01*
X217043Y178073D01*
X217037Y177960D01*
X217035Y177847D01*
X217035Y172541D01*
X217037Y172428D01*
X217043Y172315D01*
X217052Y172202D01*
X217066Y172089D01*
X217083Y171978D01*
X217104Y171866D01*
X217129Y171756D01*
X217158Y171646D01*
X217190Y171538D01*
X217226Y171431D01*
X217266Y171325D01*
X217310Y171220D01*
X217356Y171117D01*
X217407Y171015D01*
X217461Y170916D01*
X217518Y170818D01*
X217578Y170722D01*
X217642Y170629D01*
X217709Y170537D01*
X217779Y170448D01*
X217852Y170362D01*
X217928Y170278D01*
X218006Y170196D01*
X218088Y170118D01*
X218172Y170042D01*
X218258Y169969D01*
X218347Y169899D01*
X218439Y169832D01*
X218532Y169768D01*
X218628Y169708D01*
X218726Y169651D01*
X218825Y169597D01*
X218927Y169546D01*
X219030Y169500D01*
X219135Y169456D01*
X219241Y169416D01*
X219348Y169380D01*
X219456Y169348D01*
X219566Y169319D01*
X219676Y169294D01*
X219788Y169273D01*
X219899Y169256D01*
X220012Y169242D01*
X220125Y169233D01*
X220238Y169227D01*
X220351Y169225D01*
X223667Y169225D01*
X211338Y169225D02*
X207359Y181163D01*
X203379Y169225D01*
X204374Y172210D02*
X210343Y172210D01*
X225138Y146732D02*
X225140Y146630D01*
X225146Y146529D01*
X225156Y146428D01*
X225169Y146327D01*
X225187Y146227D01*
X225208Y146128D01*
X225233Y146029D01*
X225262Y145932D01*
X225294Y145835D01*
X225330Y145740D01*
X225370Y145647D01*
X225413Y145555D01*
X225460Y145465D01*
X225511Y145376D01*
X225564Y145290D01*
X225621Y145206D01*
X225681Y145124D01*
X225744Y145044D01*
X225810Y144967D01*
X225879Y144892D01*
X225951Y144820D01*
X226026Y144751D01*
X226103Y144685D01*
X226183Y144622D01*
X226265Y144562D01*
X226349Y144505D01*
X226435Y144452D01*
X226524Y144401D01*
X226614Y144354D01*
X226706Y144311D01*
X226799Y144271D01*
X226894Y144235D01*
X226991Y144203D01*
X227088Y144174D01*
X227187Y144149D01*
X227286Y144128D01*
X227386Y144110D01*
X227487Y144097D01*
X227588Y144087D01*
X227689Y144081D01*
X227791Y144079D01*
X227939Y144081D01*
X228086Y144087D01*
X228233Y144096D01*
X228380Y144110D01*
X228526Y144127D01*
X228672Y144149D01*
X228818Y144174D01*
X228962Y144203D01*
X229106Y144235D01*
X229249Y144272D01*
X229391Y144312D01*
X229532Y144356D01*
X229671Y144404D01*
X229809Y144455D01*
X229946Y144510D01*
X230082Y144569D01*
X230216Y144631D01*
X230348Y144696D01*
X230478Y144765D01*
X230606Y144838D01*
X230733Y144913D01*
X230858Y144992D01*
X230980Y145075D01*
X231100Y145160D01*
X231218Y145249D01*
X231333Y145341D01*
X231446Y145435D01*
X231557Y145533D01*
X231665Y145634D01*
X231770Y145737D01*
X231439Y153364D02*
X231437Y153466D01*
X231431Y153567D01*
X231421Y153668D01*
X231408Y153769D01*
X231390Y153869D01*
X231369Y153968D01*
X231344Y154067D01*
X231315Y154164D01*
X231283Y154261D01*
X231247Y154356D01*
X231207Y154449D01*
X231164Y154541D01*
X231117Y154631D01*
X231066Y154720D01*
X231013Y154806D01*
X230956Y154890D01*
X230896Y154972D01*
X230833Y155052D01*
X230767Y155129D01*
X230698Y155204D01*
X230626Y155276D01*
X230551Y155345D01*
X230474Y155411D01*
X230394Y155474D01*
X230312Y155534D01*
X230228Y155591D01*
X230142Y155644D01*
X230053Y155695D01*
X229963Y155742D01*
X229871Y155785D01*
X229778Y155825D01*
X229683Y155861D01*
X229586Y155893D01*
X229489Y155922D01*
X229390Y155947D01*
X229291Y155968D01*
X229191Y155986D01*
X229090Y155999D01*
X228989Y156009D01*
X228888Y156015D01*
X228786Y156017D01*
X228647Y156015D01*
X228508Y156009D01*
X228369Y155999D01*
X228231Y155986D01*
X228092Y155968D01*
X227955Y155947D01*
X227818Y155922D01*
X227682Y155893D01*
X227547Y155860D01*
X227412Y155824D01*
X227279Y155783D01*
X227147Y155739D01*
X227016Y155692D01*
X226887Y155640D01*
X226759Y155585D01*
X226633Y155527D01*
X226508Y155465D01*
X226386Y155399D01*
X226265Y155331D01*
X226146Y155258D01*
X226029Y155183D01*
X225914Y155104D01*
X225802Y155022D01*
X230113Y151043D02*
X230198Y151095D01*
X230281Y151151D01*
X230362Y151209D01*
X230441Y151271D01*
X230517Y151335D01*
X230591Y151402D01*
X230663Y151472D01*
X230731Y151544D01*
X230798Y151619D01*
X230861Y151696D01*
X230921Y151776D01*
X230979Y151858D01*
X231033Y151942D01*
X231084Y152027D01*
X231132Y152115D01*
X231177Y152204D01*
X231218Y152295D01*
X231256Y152388D01*
X231290Y152482D01*
X231321Y152576D01*
X231349Y152673D01*
X231373Y152770D01*
X231393Y152867D01*
X231409Y152966D01*
X231422Y153065D01*
X231432Y153164D01*
X231437Y153264D01*
X231439Y153364D01*
X226465Y149053D02*
X226380Y149001D01*
X226297Y148945D01*
X226216Y148887D01*
X226137Y148825D01*
X226061Y148761D01*
X225987Y148694D01*
X225915Y148624D01*
X225847Y148552D01*
X225780Y148477D01*
X225717Y148400D01*
X225657Y148320D01*
X225599Y148238D01*
X225545Y148154D01*
X225494Y148069D01*
X225446Y147981D01*
X225401Y147892D01*
X225360Y147801D01*
X225322Y147708D01*
X225288Y147615D01*
X225257Y147520D01*
X225229Y147423D01*
X225205Y147326D01*
X225185Y147229D01*
X225169Y147130D01*
X225156Y147031D01*
X225146Y146932D01*
X225141Y146832D01*
X225139Y146732D01*
X226465Y149053D02*
X230112Y151043D01*
X217015Y144079D02*
X214362Y144079D01*
X217015Y144079D02*
X217117Y144081D01*
X217218Y144087D01*
X217319Y144097D01*
X217420Y144110D01*
X217520Y144128D01*
X217619Y144149D01*
X217718Y144174D01*
X217815Y144203D01*
X217912Y144235D01*
X218007Y144271D01*
X218100Y144311D01*
X218192Y144354D01*
X218282Y144401D01*
X218371Y144452D01*
X218457Y144505D01*
X218541Y144562D01*
X218623Y144622D01*
X218703Y144685D01*
X218780Y144751D01*
X218855Y144820D01*
X218927Y144892D01*
X218996Y144967D01*
X219062Y145044D01*
X219125Y145124D01*
X219185Y145206D01*
X219242Y145290D01*
X219295Y145376D01*
X219346Y145465D01*
X219393Y145555D01*
X219436Y145647D01*
X219476Y145740D01*
X219512Y145835D01*
X219544Y145932D01*
X219573Y146029D01*
X219598Y146128D01*
X219619Y146227D01*
X219637Y146327D01*
X219650Y146428D01*
X219660Y146529D01*
X219666Y146630D01*
X219668Y146732D01*
X219668Y153364D01*
X219666Y153466D01*
X219660Y153567D01*
X219650Y153668D01*
X219637Y153769D01*
X219619Y153869D01*
X219598Y153968D01*
X219573Y154067D01*
X219544Y154164D01*
X219512Y154261D01*
X219476Y154356D01*
X219436Y154449D01*
X219393Y154541D01*
X219346Y154631D01*
X219295Y154720D01*
X219242Y154806D01*
X219185Y154890D01*
X219125Y154972D01*
X219062Y155052D01*
X218996Y155129D01*
X218927Y155204D01*
X218855Y155276D01*
X218780Y155345D01*
X218703Y155411D01*
X218623Y155474D01*
X218541Y155534D01*
X218457Y155591D01*
X218371Y155644D01*
X218282Y155695D01*
X218192Y155742D01*
X218100Y155785D01*
X218007Y155825D01*
X217912Y155861D01*
X217815Y155893D01*
X217718Y155922D01*
X217619Y155947D01*
X217520Y155968D01*
X217420Y155986D01*
X217319Y155999D01*
X217218Y156009D01*
X217117Y156015D01*
X217015Y156017D01*
X214362Y156017D01*
X208685Y156017D02*
X208685Y144079D01*
X203379Y144079D01*
X230202Y125565D02*
X232191Y125565D01*
X230202Y125565D02*
X230202Y118933D01*
X234181Y118933D01*
X234283Y118935D01*
X234384Y118941D01*
X234485Y118951D01*
X234586Y118964D01*
X234686Y118982D01*
X234785Y119003D01*
X234884Y119028D01*
X234981Y119057D01*
X235078Y119089D01*
X235173Y119125D01*
X235266Y119165D01*
X235358Y119208D01*
X235448Y119255D01*
X235537Y119306D01*
X235623Y119359D01*
X235707Y119416D01*
X235789Y119476D01*
X235869Y119539D01*
X235946Y119605D01*
X236021Y119674D01*
X236093Y119746D01*
X236162Y119821D01*
X236228Y119898D01*
X236291Y119978D01*
X236351Y120060D01*
X236408Y120144D01*
X236461Y120230D01*
X236512Y120319D01*
X236559Y120409D01*
X236602Y120501D01*
X236642Y120594D01*
X236678Y120689D01*
X236710Y120786D01*
X236739Y120883D01*
X236764Y120982D01*
X236785Y121081D01*
X236803Y121181D01*
X236816Y121282D01*
X236826Y121383D01*
X236832Y121484D01*
X236834Y121586D01*
X236834Y128218D01*
X236832Y128320D01*
X236826Y128421D01*
X236816Y128522D01*
X236803Y128623D01*
X236785Y128723D01*
X236764Y128822D01*
X236739Y128921D01*
X236710Y129018D01*
X236678Y129115D01*
X236642Y129210D01*
X236602Y129303D01*
X236559Y129395D01*
X236512Y129485D01*
X236461Y129574D01*
X236408Y129660D01*
X236351Y129744D01*
X236291Y129826D01*
X236228Y129906D01*
X236162Y129983D01*
X236093Y130058D01*
X236021Y130130D01*
X235946Y130199D01*
X235869Y130265D01*
X235789Y130328D01*
X235707Y130388D01*
X235623Y130445D01*
X235537Y130498D01*
X235448Y130549D01*
X235358Y130596D01*
X235266Y130639D01*
X235173Y130679D01*
X235078Y130715D01*
X234981Y130747D01*
X234884Y130776D01*
X234785Y130801D01*
X234686Y130822D01*
X234586Y130840D01*
X234485Y130853D01*
X234384Y130863D01*
X234283Y130869D01*
X234181Y130871D01*
X230202Y130871D01*
X223423Y130871D02*
X223423Y118933D01*
X216790Y118933D02*
X223423Y130871D01*
X216790Y130871D02*
X216790Y118933D01*
X210012Y118933D02*
X210012Y130871D01*
X206695Y130871D01*
X206582Y130869D01*
X206469Y130863D01*
X206356Y130854D01*
X206243Y130840D01*
X206132Y130823D01*
X206020Y130802D01*
X205910Y130777D01*
X205800Y130748D01*
X205692Y130716D01*
X205585Y130680D01*
X205479Y130640D01*
X205374Y130596D01*
X205271Y130550D01*
X205169Y130499D01*
X205070Y130445D01*
X204972Y130388D01*
X204876Y130328D01*
X204783Y130264D01*
X204691Y130197D01*
X204602Y130127D01*
X204516Y130054D01*
X204432Y129978D01*
X204350Y129900D01*
X204272Y129818D01*
X204196Y129734D01*
X204123Y129648D01*
X204053Y129559D01*
X203986Y129467D01*
X203922Y129374D01*
X203862Y129278D01*
X203805Y129180D01*
X203751Y129081D01*
X203700Y128979D01*
X203654Y128876D01*
X203610Y128771D01*
X203570Y128665D01*
X203534Y128558D01*
X203502Y128450D01*
X203473Y128340D01*
X203448Y128230D01*
X203427Y128118D01*
X203410Y128007D01*
X203396Y127894D01*
X203387Y127781D01*
X203381Y127668D01*
X203379Y127555D01*
X203379Y122249D01*
X203381Y122136D01*
X203387Y122023D01*
X203396Y121910D01*
X203410Y121797D01*
X203427Y121686D01*
X203448Y121574D01*
X203473Y121464D01*
X203502Y121354D01*
X203534Y121246D01*
X203570Y121139D01*
X203610Y121033D01*
X203654Y120928D01*
X203700Y120825D01*
X203751Y120723D01*
X203805Y120624D01*
X203862Y120526D01*
X203922Y120430D01*
X203986Y120337D01*
X204053Y120245D01*
X204123Y120156D01*
X204196Y120070D01*
X204272Y119986D01*
X204350Y119904D01*
X204432Y119826D01*
X204516Y119750D01*
X204602Y119677D01*
X204691Y119607D01*
X204783Y119540D01*
X204876Y119476D01*
X204972Y119416D01*
X205070Y119359D01*
X205169Y119305D01*
X205271Y119254D01*
X205374Y119208D01*
X205479Y119164D01*
X205585Y119124D01*
X205692Y119088D01*
X205800Y119056D01*
X205910Y119027D01*
X206020Y119002D01*
X206132Y118981D01*
X206243Y118964D01*
X206356Y118950D01*
X206469Y118941D01*
X206582Y118935D01*
X206695Y118933D01*
X210012Y118933D01*
X219932Y93787D02*
X223248Y93787D01*
X219932Y93787D02*
X219818Y93789D01*
X219703Y93795D01*
X219589Y93805D01*
X219476Y93819D01*
X219362Y93836D01*
X219250Y93858D01*
X219138Y93883D01*
X219028Y93913D01*
X218918Y93946D01*
X218810Y93983D01*
X218703Y94023D01*
X218597Y94068D01*
X218493Y94115D01*
X218391Y94167D01*
X218291Y94222D01*
X218192Y94280D01*
X218096Y94342D01*
X218001Y94407D01*
X217910Y94475D01*
X217820Y94547D01*
X217733Y94621D01*
X217649Y94698D01*
X217567Y94779D01*
X217488Y94862D01*
X217412Y94947D01*
X217339Y95036D01*
X217270Y95126D01*
X217203Y95219D01*
X217140Y95315D01*
X217080Y95412D01*
X217023Y95512D01*
X216970Y95613D01*
X216920Y95716D01*
X216874Y95821D01*
X216831Y95927D01*
X216793Y96035D01*
X216758Y96144D01*
X216727Y96254D01*
X216699Y96365D01*
X216676Y96477D01*
X216656Y96590D01*
X216640Y96703D01*
X216628Y96817D01*
X216620Y96931D01*
X216616Y97046D01*
X216616Y97160D01*
X216620Y97275D01*
X216628Y97389D01*
X216640Y97503D01*
X216656Y97616D01*
X216676Y97729D01*
X216699Y97841D01*
X216727Y97952D01*
X216758Y98062D01*
X216793Y98171D01*
X216831Y98279D01*
X216874Y98385D01*
X216920Y98490D01*
X216970Y98593D01*
X217023Y98694D01*
X217080Y98794D01*
X217140Y98891D01*
X217203Y98987D01*
X217270Y99080D01*
X217339Y99170D01*
X217412Y99259D01*
X217488Y99344D01*
X217567Y99427D01*
X217649Y99508D01*
X217733Y99585D01*
X217820Y99659D01*
X217910Y99731D01*
X218001Y99799D01*
X218096Y99864D01*
X218192Y99926D01*
X218291Y99984D01*
X218391Y100039D01*
X218493Y100091D01*
X218597Y100138D01*
X218703Y100183D01*
X218810Y100223D01*
X218918Y100260D01*
X219028Y100293D01*
X219138Y100323D01*
X219250Y100348D01*
X219362Y100370D01*
X219476Y100387D01*
X219589Y100401D01*
X219703Y100411D01*
X219818Y100417D01*
X219932Y100419D01*
X219268Y105725D02*
X223248Y105725D01*
X219268Y105725D02*
X219166Y105723D01*
X219065Y105717D01*
X218964Y105707D01*
X218863Y105694D01*
X218763Y105676D01*
X218664Y105655D01*
X218565Y105630D01*
X218468Y105601D01*
X218371Y105569D01*
X218276Y105533D01*
X218183Y105493D01*
X218091Y105450D01*
X218001Y105403D01*
X217912Y105352D01*
X217826Y105299D01*
X217742Y105242D01*
X217660Y105182D01*
X217580Y105119D01*
X217503Y105053D01*
X217428Y104984D01*
X217356Y104912D01*
X217287Y104837D01*
X217221Y104760D01*
X217158Y104680D01*
X217098Y104598D01*
X217041Y104514D01*
X216988Y104428D01*
X216937Y104339D01*
X216890Y104249D01*
X216847Y104157D01*
X216807Y104064D01*
X216771Y103969D01*
X216739Y103872D01*
X216710Y103775D01*
X216685Y103676D01*
X216664Y103577D01*
X216646Y103477D01*
X216633Y103376D01*
X216623Y103275D01*
X216617Y103174D01*
X216615Y103072D01*
X216617Y102970D01*
X216623Y102869D01*
X216633Y102768D01*
X216646Y102667D01*
X216664Y102567D01*
X216685Y102468D01*
X216710Y102369D01*
X216739Y102272D01*
X216771Y102175D01*
X216807Y102080D01*
X216847Y101987D01*
X216890Y101895D01*
X216937Y101805D01*
X216988Y101716D01*
X217041Y101630D01*
X217098Y101546D01*
X217158Y101464D01*
X217221Y101384D01*
X217287Y101307D01*
X217356Y101232D01*
X217428Y101160D01*
X217503Y101091D01*
X217580Y101025D01*
X217660Y100962D01*
X217742Y100902D01*
X217826Y100845D01*
X217912Y100792D01*
X218001Y100741D01*
X218091Y100694D01*
X218183Y100651D01*
X218276Y100611D01*
X218371Y100575D01*
X218468Y100543D01*
X218565Y100514D01*
X218664Y100489D01*
X218763Y100468D01*
X218863Y100450D01*
X218964Y100437D01*
X219065Y100427D01*
X219166Y100421D01*
X219268Y100419D01*
X221921Y100419D01*
X211338Y105725D02*
X207359Y93787D01*
X203379Y105725D01*
X246754Y68641D02*
X250070Y68641D01*
X246754Y68641D02*
X246640Y68643D01*
X246525Y68649D01*
X246411Y68659D01*
X246298Y68673D01*
X246184Y68690D01*
X246072Y68712D01*
X245960Y68737D01*
X245850Y68767D01*
X245740Y68800D01*
X245632Y68837D01*
X245525Y68877D01*
X245419Y68922D01*
X245315Y68969D01*
X245213Y69021D01*
X245113Y69076D01*
X245014Y69134D01*
X244918Y69196D01*
X244823Y69261D01*
X244732Y69329D01*
X244642Y69401D01*
X244555Y69475D01*
X244471Y69552D01*
X244389Y69633D01*
X244310Y69716D01*
X244234Y69801D01*
X244161Y69890D01*
X244092Y69980D01*
X244025Y70073D01*
X243962Y70169D01*
X243902Y70266D01*
X243845Y70366D01*
X243792Y70467D01*
X243742Y70570D01*
X243696Y70675D01*
X243653Y70781D01*
X243615Y70889D01*
X243580Y70998D01*
X243549Y71108D01*
X243521Y71219D01*
X243498Y71331D01*
X243478Y71444D01*
X243462Y71557D01*
X243450Y71671D01*
X243442Y71785D01*
X243438Y71900D01*
X243438Y72014D01*
X243442Y72129D01*
X243450Y72243D01*
X243462Y72357D01*
X243478Y72470D01*
X243498Y72583D01*
X243521Y72695D01*
X243549Y72806D01*
X243580Y72916D01*
X243615Y73025D01*
X243653Y73133D01*
X243696Y73239D01*
X243742Y73344D01*
X243792Y73447D01*
X243845Y73548D01*
X243902Y73648D01*
X243962Y73745D01*
X244025Y73841D01*
X244092Y73934D01*
X244161Y74024D01*
X244234Y74113D01*
X244310Y74198D01*
X244389Y74281D01*
X244471Y74362D01*
X244555Y74439D01*
X244642Y74513D01*
X244732Y74585D01*
X244823Y74653D01*
X244918Y74718D01*
X245014Y74780D01*
X245113Y74838D01*
X245213Y74893D01*
X245315Y74945D01*
X245419Y74992D01*
X245525Y75037D01*
X245632Y75077D01*
X245740Y75114D01*
X245850Y75147D01*
X245960Y75177D01*
X246072Y75202D01*
X246184Y75224D01*
X246298Y75241D01*
X246411Y75255D01*
X246525Y75265D01*
X246640Y75271D01*
X246754Y75273D01*
X246091Y80579D02*
X250070Y80579D01*
X246091Y80579D02*
X245989Y80577D01*
X245888Y80571D01*
X245787Y80561D01*
X245686Y80548D01*
X245586Y80530D01*
X245487Y80509D01*
X245388Y80484D01*
X245291Y80455D01*
X245194Y80423D01*
X245099Y80387D01*
X245006Y80347D01*
X244914Y80304D01*
X244824Y80257D01*
X244735Y80206D01*
X244649Y80153D01*
X244565Y80096D01*
X244483Y80036D01*
X244403Y79973D01*
X244326Y79907D01*
X244251Y79838D01*
X244179Y79766D01*
X244110Y79691D01*
X244044Y79614D01*
X243981Y79534D01*
X243921Y79452D01*
X243864Y79368D01*
X243811Y79282D01*
X243760Y79193D01*
X243713Y79103D01*
X243670Y79011D01*
X243630Y78918D01*
X243594Y78823D01*
X243562Y78726D01*
X243533Y78629D01*
X243508Y78530D01*
X243487Y78431D01*
X243469Y78331D01*
X243456Y78230D01*
X243446Y78129D01*
X243440Y78028D01*
X243438Y77926D01*
X243440Y77824D01*
X243446Y77723D01*
X243456Y77622D01*
X243469Y77521D01*
X243487Y77421D01*
X243508Y77322D01*
X243533Y77223D01*
X243562Y77126D01*
X243594Y77029D01*
X243630Y76934D01*
X243670Y76841D01*
X243713Y76749D01*
X243760Y76659D01*
X243811Y76570D01*
X243864Y76484D01*
X243921Y76400D01*
X243981Y76318D01*
X244044Y76238D01*
X244110Y76161D01*
X244179Y76086D01*
X244251Y76014D01*
X244326Y75945D01*
X244403Y75879D01*
X244483Y75816D01*
X244565Y75756D01*
X244649Y75699D01*
X244735Y75646D01*
X244824Y75595D01*
X244914Y75548D01*
X245006Y75505D01*
X245099Y75465D01*
X245194Y75429D01*
X245291Y75397D01*
X245388Y75368D01*
X245487Y75343D01*
X245586Y75322D01*
X245686Y75304D01*
X245787Y75291D01*
X245888Y75281D01*
X245989Y75275D01*
X246091Y75273D01*
X248744Y75273D01*
X237322Y73284D02*
X229363Y73284D01*
X223248Y68641D02*
X219268Y68641D01*
X219166Y68643D01*
X219065Y68649D01*
X218964Y68659D01*
X218863Y68672D01*
X218763Y68690D01*
X218664Y68711D01*
X218565Y68736D01*
X218468Y68765D01*
X218371Y68797D01*
X218276Y68833D01*
X218183Y68873D01*
X218091Y68916D01*
X218001Y68963D01*
X217912Y69014D01*
X217826Y69067D01*
X217742Y69124D01*
X217660Y69184D01*
X217580Y69247D01*
X217503Y69313D01*
X217428Y69382D01*
X217356Y69454D01*
X217287Y69529D01*
X217221Y69606D01*
X217158Y69686D01*
X217098Y69768D01*
X217041Y69852D01*
X216988Y69938D01*
X216937Y70027D01*
X216890Y70117D01*
X216847Y70209D01*
X216807Y70302D01*
X216771Y70397D01*
X216739Y70493D01*
X216710Y70591D01*
X216685Y70689D01*
X216664Y70789D01*
X216646Y70889D01*
X216633Y70990D01*
X216623Y71091D01*
X216617Y71192D01*
X216615Y71294D01*
X216615Y72620D01*
X216617Y72722D01*
X216623Y72823D01*
X216633Y72924D01*
X216646Y73025D01*
X216664Y73125D01*
X216685Y73224D01*
X216710Y73323D01*
X216739Y73420D01*
X216771Y73517D01*
X216807Y73612D01*
X216847Y73705D01*
X216890Y73797D01*
X216937Y73887D01*
X216988Y73976D01*
X217041Y74062D01*
X217098Y74146D01*
X217158Y74228D01*
X217221Y74308D01*
X217287Y74385D01*
X217356Y74460D01*
X217428Y74532D01*
X217503Y74601D01*
X217580Y74667D01*
X217660Y74730D01*
X217742Y74790D01*
X217826Y74847D01*
X217912Y74900D01*
X218001Y74951D01*
X218091Y74998D01*
X218183Y75041D01*
X218276Y75081D01*
X218371Y75117D01*
X218468Y75149D01*
X218565Y75178D01*
X218664Y75203D01*
X218763Y75224D01*
X218863Y75242D01*
X218964Y75255D01*
X219065Y75265D01*
X219166Y75271D01*
X219268Y75273D01*
X223248Y75273D01*
X223248Y80579D01*
X216615Y80579D01*
X211338Y80579D02*
X207359Y68641D01*
X203379Y80579D01*
D21*
X66000Y205000D02*
X60000Y199000D01*
X64000Y199000D01*
X60000Y199000D02*
X60000Y203000D01*
X56000Y203000D02*
X62000Y209000D01*
X58000Y209000D01*
X62000Y209000D02*
X62000Y205000D01*
M02*
